%TF.GenerationSoftware,KiCad,Pcbnew,(6.0.0)*%
%TF.CreationDate,2022-01-24T18:04:17-05:00*%
%TF.ProjectId,3do switch,33646f20-7377-4697-9463-682e6b696361,rev?*%
%TF.SameCoordinates,Original*%
%TF.FileFunction,Copper,L1,Top*%
%TF.FilePolarity,Positive*%
%FSLAX46Y46*%
G04 Gerber Fmt 4.6, Leading zero omitted, Abs format (unit mm)*
G04 Created by KiCad (PCBNEW (6.0.0)) date 2022-01-24 18:04:17*
%MOMM*%
%LPD*%
G01*
G04 APERTURE LIST*
%TA.AperFunction,ComponentPad*%
%ADD10R,1.700000X1.700000*%
%TD*%
%TA.AperFunction,ComponentPad*%
%ADD11C,1.500000*%
%TD*%
%TA.AperFunction,ComponentPad*%
%ADD12C,2.250000*%
%TD*%
%TA.AperFunction,Conductor*%
%ADD13C,0.250000*%
%TD*%
G04 APERTURE END LIST*
D10*
%TO.P,J7,1,Pin_1*%
%TO.N,Net-(J7-Pad1)*%
X152400000Y-91440000D03*
%TD*%
%TO.P,J2,1,Pin_1*%
%TO.N,Net-(J2-Pad1)*%
X137160000Y-88900000D03*
%TD*%
%TO.P,J18,1,Pin_1*%
%TO.N,Net-(J18-Pad1)*%
X157480000Y-86360000D03*
%TD*%
%TO.P,J8,1,Pin_1*%
%TO.N,Net-(J8-Pad1)*%
X152400000Y-88900000D03*
%TD*%
%TO.P,J10,1,Pin_1*%
%TO.N,Net-(J10-Pad1)*%
X142240000Y-91440000D03*
%TD*%
%TO.P,J6,1,Pin_1*%
%TO.N,Net-(J6-Pad1)*%
X147320000Y-86360000D03*
%TD*%
%TO.P,J3,1,Pin_1*%
%TO.N,Net-(J3-Pad1)*%
X137160000Y-86360000D03*
%TD*%
%TO.P,J9,1,Pin_1*%
%TO.N,Net-(J9-Pad1)*%
X152400000Y-86360000D03*
%TD*%
%TO.P,J15,1,Pin_1*%
%TO.N,Net-(J15-Pad1)*%
X162560000Y-86360000D03*
%TD*%
%TO.P,J16,1,Pin_1*%
%TO.N,Net-(J16-Pad1)*%
X157480000Y-91440000D03*
%TD*%
%TO.P,J17,1,Pin_1*%
%TO.N,Net-(J17-Pad1)*%
X157480000Y-88900000D03*
%TD*%
%TO.P,J5,1,Pin_1*%
%TO.N,Net-(J5-Pad1)*%
X147320000Y-88900000D03*
%TD*%
%TO.P,J1,1,Pin_1*%
%TO.N,Net-(J1-Pad1)*%
X137160000Y-91440000D03*
%TD*%
%TO.P,J14,1,Pin_1*%
%TO.N,Net-(J14-Pad1)*%
X162560000Y-88900000D03*
%TD*%
D11*
%TO.P,S1,1,NC_1*%
%TO.N,Net-(J1-Pad1)*%
X141860000Y-98030000D03*
%TO.P,S1,2,COM_1*%
%TO.N,Net-(J2-Pad1)*%
X143860000Y-98030000D03*
%TO.P,S1,3,NO_1*%
%TO.N,Net-(J3-Pad1)*%
X145860000Y-98030000D03*
%TO.P,S1,4,NC_2*%
%TO.N,Net-(J4-Pad1)*%
X147860000Y-98030000D03*
%TO.P,S1,5,COM_2*%
%TO.N,Net-(J5-Pad1)*%
X149860000Y-98030000D03*
%TO.P,S1,6,NO_2*%
%TO.N,Net-(J6-Pad1)*%
X151860000Y-98030000D03*
%TO.P,S1,7,NC_3*%
%TO.N,Net-(J7-Pad1)*%
X153860000Y-98030000D03*
%TO.P,S1,8,COM_3*%
%TO.N,Net-(J8-Pad1)*%
X155860000Y-98030000D03*
%TO.P,S1,9,NO_3*%
%TO.N,Net-(J9-Pad1)*%
X157860000Y-98030000D03*
%TO.P,S1,10,NC_4*%
%TO.N,Net-(J10-Pad1)*%
X141860000Y-100530000D03*
%TO.P,S1,11,COM_4*%
%TO.N,Net-(J11-Pad1)*%
X143860000Y-100530000D03*
%TO.P,S1,12,NO_4*%
%TO.N,Net-(J12-Pad1)*%
X145860000Y-100530000D03*
%TO.P,S1,13,NC_5*%
%TO.N,Net-(J13-Pad1)*%
X147860000Y-100530000D03*
%TO.P,S1,14,COM_5*%
%TO.N,Net-(J14-Pad1)*%
X149860000Y-100530000D03*
%TO.P,S1,15,NO_5*%
%TO.N,Net-(J15-Pad1)*%
X151860000Y-100530000D03*
%TO.P,S1,16,NC_6*%
%TO.N,Net-(J16-Pad1)*%
X153860000Y-100530000D03*
%TO.P,S1,17,COM_6*%
%TO.N,Net-(J17-Pad1)*%
X155860000Y-100530000D03*
%TO.P,S1,18,NO_6*%
%TO.N,Net-(J18-Pad1)*%
X157860000Y-100530000D03*
D12*
%TO.P,S1,MH1,MH1*%
%TO.N,GND*%
X140260000Y-96480000D03*
%TO.P,S1,MH2,MH2*%
X159460000Y-96480000D03*
%TO.P,S1,MH3,MH3*%
X140260000Y-102080000D03*
%TO.P,S1,MH4,MH4*%
X159460000Y-102080000D03*
%TD*%
D10*
%TO.P,J13,1,Pin_1*%
%TO.N,Net-(J13-Pad1)*%
X162560000Y-91440000D03*
%TD*%
%TO.P,J12,1,Pin_1*%
%TO.N,Net-(J12-Pad1)*%
X142240000Y-86360000D03*
%TD*%
%TO.P,J4,1,Pin_1*%
%TO.N,Net-(J4-Pad1)*%
X147320000Y-91440000D03*
%TD*%
%TO.P,J11,1,Pin_1*%
%TO.N,Net-(J11-Pad1)*%
X142240000Y-88900000D03*
%TD*%
D13*
%TO.N,Net-(J1-Pad1)*%
X141860000Y-98030000D02*
X139760081Y-98030000D01*
X139760081Y-98030000D02*
X137160000Y-95429919D01*
X137160000Y-95429919D02*
X137160000Y-91440000D01*
%TO.N,Net-(J2-Pad1)*%
X138404600Y-94335600D02*
X138404600Y-90144600D01*
X138404600Y-90144600D02*
X137160000Y-88900000D01*
X139099489Y-95030489D02*
X138404600Y-94335600D01*
X140860489Y-95030489D02*
X139099489Y-95030489D01*
X143860000Y-98030000D02*
X140860489Y-95030489D01*
%TO.N,Net-(J3-Pad1)*%
X145860000Y-98030000D02*
X141810000Y-93980000D01*
X139674600Y-93980000D02*
X139039600Y-93345000D01*
X139039600Y-93345000D02*
X139039600Y-88239600D01*
X139039600Y-88239600D02*
X137160000Y-86360000D01*
X141810000Y-93980000D02*
X139674600Y-93980000D01*
%TO.N,Net-(J4-Pad1)*%
X147860000Y-91980000D02*
X147320000Y-91440000D01*
X147860000Y-98030000D02*
X147860000Y-91980000D01*
%TO.N,Net-(J5-Pad1)*%
X148463000Y-88900000D02*
X149225000Y-89662000D01*
X149225000Y-97395000D02*
X149860000Y-98030000D01*
X147320000Y-88900000D02*
X148463000Y-88900000D01*
X149225000Y-89662000D02*
X149225000Y-97395000D01*
%TO.N,Net-(J6-Pad1)*%
X149682200Y-86360000D02*
X147320000Y-86360000D01*
X150291800Y-86969600D02*
X149682200Y-86360000D01*
X150291800Y-96461800D02*
X150291800Y-86969600D01*
X151860000Y-98030000D02*
X150291800Y-96461800D01*
%TO.N,Net-(J7-Pad1)*%
X153860000Y-98030000D02*
X152400000Y-96570000D01*
X152400000Y-96570000D02*
X152400000Y-91440000D01*
%TO.N,Net-(J8-Pad1)*%
X154051000Y-96221000D02*
X154051000Y-90551000D01*
X154051000Y-90551000D02*
X152400000Y-88900000D01*
X155860000Y-98030000D02*
X154051000Y-96221000D01*
%TO.N,Net-(J9-Pad1)*%
X152400000Y-86550978D02*
X152400000Y-86360000D01*
X154914600Y-95084600D02*
X154914600Y-89065578D01*
X157860000Y-98030000D02*
X154914600Y-95084600D01*
X154914600Y-89065578D02*
X152400000Y-86550978D01*
%TO.N,Net-(J16-Pad1)*%
X160909511Y-97080408D02*
X160909511Y-95879592D01*
X160909511Y-95879592D02*
X157480000Y-92450081D01*
X157480000Y-92450081D02*
X157480000Y-91440000D01*
X155285489Y-99104511D02*
X158885408Y-99104511D01*
X158885408Y-99104511D02*
X160909511Y-97080408D01*
X153860000Y-100530000D02*
X155285489Y-99104511D01*
%TO.N,Net-(J17-Pad1)*%
X159131000Y-92329000D02*
X159131000Y-89382600D01*
X160060408Y-103529511D02*
X162128200Y-101461719D01*
X162128200Y-101461719D02*
X162128200Y-95326200D01*
X158648400Y-88900000D02*
X157480000Y-88900000D01*
X158859511Y-103529511D02*
X160060408Y-103529511D01*
X162128200Y-95326200D02*
X159131000Y-92329000D01*
X155860000Y-100530000D02*
X158859511Y-103529511D01*
X159131000Y-89382600D02*
X158648400Y-88900000D01*
%TO.N,Net-(J18-Pad1)*%
X158920660Y-100530000D02*
X161359031Y-98091629D01*
X156305489Y-90074511D02*
X156305489Y-87534511D01*
X156305489Y-87534511D02*
X157480000Y-86360000D01*
X158654511Y-90265489D02*
X156496467Y-90265489D01*
X157860000Y-100530000D02*
X158920660Y-100530000D01*
X158654511Y-92690711D02*
X158654511Y-90265489D01*
X156496467Y-90265489D02*
X156305489Y-90074511D01*
X161359031Y-98091629D02*
X161359031Y-95395231D01*
X161359031Y-95395231D02*
X158654511Y-92690711D01*
%TD*%
%TA.AperFunction,Conductor*%
%TO.N,GND*%
G36*
X167074121Y-84348002D02*
G01*
X167120614Y-84401658D01*
X167132000Y-84454000D01*
X167132000Y-95241298D01*
X167131998Y-95242068D01*
X167131524Y-95319652D01*
X167133990Y-95328281D01*
X167133991Y-95328286D01*
X167139639Y-95348048D01*
X167143217Y-95364809D01*
X167146130Y-95385152D01*
X167146133Y-95385162D01*
X167147405Y-95394045D01*
X167158021Y-95417395D01*
X167164464Y-95434907D01*
X167171512Y-95459565D01*
X167187274Y-95484548D01*
X167195404Y-95499614D01*
X167207633Y-95526510D01*
X167224374Y-95545939D01*
X167235479Y-95560947D01*
X167249160Y-95582631D01*
X167255888Y-95588573D01*
X167271296Y-95602181D01*
X167283340Y-95614373D01*
X167286598Y-95618155D01*
X167296660Y-95629831D01*
X167302619Y-95636747D01*
X167310147Y-95641626D01*
X167310150Y-95641629D01*
X167324139Y-95650696D01*
X167339013Y-95661986D01*
X167358228Y-95678956D01*
X167366354Y-95682771D01*
X167366355Y-95682772D01*
X167372021Y-95685432D01*
X167384966Y-95691510D01*
X167399935Y-95699824D01*
X167424727Y-95715893D01*
X167433327Y-95718465D01*
X167449290Y-95723239D01*
X167466736Y-95729901D01*
X167489948Y-95740799D01*
X167519130Y-95745343D01*
X167535849Y-95749126D01*
X167555536Y-95755014D01*
X167555539Y-95755015D01*
X167564141Y-95757587D01*
X167573117Y-95757642D01*
X167573118Y-95757642D01*
X167589785Y-95757744D01*
X167608398Y-95759242D01*
X167624857Y-95761805D01*
X167624861Y-95761805D01*
X167633730Y-95763186D01*
X167652411Y-95760743D01*
X167675342Y-95759852D01*
X167978557Y-95775743D01*
X167991666Y-95777121D01*
X168305910Y-95826892D01*
X168320002Y-95829124D01*
X168332903Y-95831866D01*
X168654002Y-95917904D01*
X168666536Y-95921976D01*
X168976878Y-96041106D01*
X168988926Y-96046470D01*
X169285120Y-96197388D01*
X169296542Y-96203983D01*
X169563167Y-96377131D01*
X169575333Y-96385032D01*
X169585990Y-96392775D01*
X169844348Y-96601989D01*
X169854139Y-96610806D01*
X170089194Y-96845861D01*
X170098011Y-96855652D01*
X170307225Y-97114010D01*
X170314966Y-97124665D01*
X170406959Y-97266321D01*
X170496017Y-97403458D01*
X170502612Y-97414880D01*
X170653530Y-97711074D01*
X170658893Y-97723121D01*
X170755765Y-97975477D01*
X170778022Y-98033459D01*
X170782096Y-98045998D01*
X170840971Y-98265722D01*
X170868134Y-98367098D01*
X170870876Y-98379998D01*
X170891824Y-98512255D01*
X170922879Y-98708331D01*
X170924257Y-98721448D01*
X170941654Y-99053406D01*
X170941654Y-99066594D01*
X170924257Y-99398552D01*
X170922879Y-99411669D01*
X170870876Y-99740002D01*
X170868134Y-99752902D01*
X170795719Y-100023163D01*
X170782098Y-100073997D01*
X170778024Y-100086536D01*
X170677938Y-100347266D01*
X170658894Y-100396878D01*
X170653530Y-100408926D01*
X170502612Y-100705120D01*
X170496017Y-100716542D01*
X170461908Y-100769066D01*
X170314968Y-100995333D01*
X170307225Y-101005990D01*
X170098011Y-101264348D01*
X170089194Y-101274139D01*
X169854139Y-101509194D01*
X169844348Y-101518011D01*
X169585990Y-101727225D01*
X169575335Y-101734966D01*
X169446027Y-101818940D01*
X169296542Y-101916017D01*
X169285120Y-101922612D01*
X168988926Y-102073530D01*
X168976879Y-102078893D01*
X168666536Y-102198024D01*
X168654002Y-102202096D01*
X168366949Y-102279011D01*
X168332902Y-102288134D01*
X168320002Y-102290876D01*
X168003154Y-102341060D01*
X167991669Y-102342879D01*
X167978555Y-102344257D01*
X167682667Y-102359764D01*
X167656688Y-102358436D01*
X167655144Y-102358195D01*
X167655140Y-102358195D01*
X167646270Y-102356814D01*
X167616985Y-102360644D01*
X167599890Y-102361705D01*
X167570348Y-102361524D01*
X167545689Y-102368572D01*
X167527410Y-102372357D01*
X167501984Y-102375682D01*
X167474947Y-102387578D01*
X167458833Y-102393396D01*
X167452791Y-102395122D01*
X167439066Y-102399045D01*
X167439065Y-102399046D01*
X167430435Y-102401512D01*
X167422843Y-102406302D01*
X167422841Y-102406303D01*
X167408753Y-102415192D01*
X167392265Y-102423959D01*
X167381959Y-102428494D01*
X167368793Y-102434287D01*
X167347695Y-102452022D01*
X167346186Y-102453290D01*
X167332358Y-102463393D01*
X167307369Y-102479160D01*
X167301426Y-102485890D01*
X167301425Y-102485890D01*
X167290389Y-102498385D01*
X167277030Y-102511422D01*
X167257404Y-102527920D01*
X167252433Y-102535388D01*
X167252431Y-102535390D01*
X167241040Y-102552503D01*
X167230596Y-102566090D01*
X167211044Y-102588228D01*
X167207231Y-102596350D01*
X167207228Y-102596354D01*
X167200146Y-102611438D01*
X167190982Y-102627702D01*
X167185817Y-102635462D01*
X167176772Y-102649051D01*
X167174095Y-102657618D01*
X167174094Y-102657621D01*
X167167966Y-102677236D01*
X167161753Y-102693213D01*
X167149201Y-102719948D01*
X167147820Y-102728815D01*
X167147820Y-102728816D01*
X167145256Y-102745284D01*
X167141023Y-102763474D01*
X167133378Y-102787945D01*
X167133214Y-102796913D01*
X167133213Y-102796916D01*
X167132736Y-102822948D01*
X167132547Y-102826911D01*
X167132000Y-102830423D01*
X167132000Y-102861955D01*
X167131979Y-102864263D01*
X167130711Y-102933435D01*
X167131748Y-102937238D01*
X167132000Y-102941305D01*
X167132000Y-103760000D01*
X167111998Y-103828121D01*
X167058342Y-103874614D01*
X167006000Y-103886000D01*
X160904013Y-103886000D01*
X160835892Y-103865998D01*
X160789399Y-103812342D01*
X160779295Y-103742068D01*
X160808789Y-103677488D01*
X160814918Y-103670905D01*
X162520447Y-101965376D01*
X162528737Y-101957832D01*
X162535218Y-101953719D01*
X162581859Y-101904051D01*
X162584613Y-101901210D01*
X162604334Y-101881489D01*
X162606812Y-101878294D01*
X162614518Y-101869272D01*
X162639358Y-101842820D01*
X162644786Y-101837040D01*
X162654546Y-101819287D01*
X162665399Y-101802764D01*
X162670303Y-101796442D01*
X162677813Y-101786760D01*
X162695376Y-101746176D01*
X162700583Y-101735546D01*
X162721895Y-101696779D01*
X162723866Y-101689102D01*
X162723868Y-101689097D01*
X162726932Y-101677161D01*
X162733338Y-101658449D01*
X162738234Y-101647136D01*
X162741381Y-101639864D01*
X162748297Y-101596200D01*
X162750704Y-101584579D01*
X162759728Y-101549430D01*
X162759728Y-101549429D01*
X162761700Y-101541749D01*
X162761700Y-101521488D01*
X162763251Y-101501777D01*
X162765179Y-101489604D01*
X162766419Y-101481776D01*
X162762259Y-101437765D01*
X162761700Y-101425908D01*
X162761700Y-99192703D01*
X165530743Y-99192703D01*
X165531302Y-99196947D01*
X165531302Y-99196951D01*
X165534210Y-99219036D01*
X165568268Y-99477734D01*
X165644129Y-99755036D01*
X165645813Y-99758984D01*
X165686460Y-99854278D01*
X165756923Y-100019476D01*
X165904561Y-100266161D01*
X166084313Y-100490528D01*
X166292851Y-100688423D01*
X166526317Y-100856186D01*
X166530112Y-100858195D01*
X166530113Y-100858196D01*
X166551869Y-100869715D01*
X166780392Y-100990712D01*
X167050373Y-101089511D01*
X167331264Y-101150755D01*
X167359841Y-101153004D01*
X167554282Y-101168307D01*
X167554291Y-101168307D01*
X167556739Y-101168500D01*
X167712271Y-101168500D01*
X167714407Y-101168354D01*
X167714418Y-101168354D01*
X167922548Y-101154165D01*
X167922554Y-101154164D01*
X167926825Y-101153873D01*
X167931020Y-101153004D01*
X167931022Y-101153004D01*
X168183787Y-101100659D01*
X168208342Y-101095574D01*
X168479343Y-100999607D01*
X168734812Y-100867750D01*
X168738313Y-100865289D01*
X168738317Y-100865287D01*
X168949959Y-100716542D01*
X168970023Y-100702441D01*
X169131088Y-100552770D01*
X169177479Y-100509661D01*
X169177481Y-100509658D01*
X169180622Y-100506740D01*
X169362713Y-100284268D01*
X169512927Y-100039142D01*
X169628483Y-99775898D01*
X169636851Y-99746524D01*
X169706068Y-99503534D01*
X169707244Y-99499406D01*
X169747751Y-99214784D01*
X169747845Y-99196951D01*
X169749235Y-98931583D01*
X169749235Y-98931576D01*
X169749257Y-98927297D01*
X169741037Y-98864856D01*
X169721287Y-98714847D01*
X169711732Y-98642266D01*
X169708705Y-98631199D01*
X169657067Y-98442443D01*
X169635871Y-98364964D01*
X169625295Y-98340170D01*
X169524763Y-98104476D01*
X169524761Y-98104472D01*
X169523077Y-98100524D01*
X169375439Y-97853839D01*
X169195687Y-97629472D01*
X168987149Y-97431577D01*
X168753683Y-97263814D01*
X168731843Y-97252250D01*
X168559724Y-97161118D01*
X168499608Y-97129288D01*
X168316421Y-97062251D01*
X168233658Y-97031964D01*
X168233656Y-97031963D01*
X168229627Y-97030489D01*
X167948736Y-96969245D01*
X167917685Y-96966801D01*
X167725718Y-96951693D01*
X167725709Y-96951693D01*
X167723261Y-96951500D01*
X167567729Y-96951500D01*
X167565593Y-96951646D01*
X167565582Y-96951646D01*
X167357452Y-96965835D01*
X167357446Y-96965836D01*
X167353175Y-96966127D01*
X167348980Y-96966996D01*
X167348978Y-96966996D01*
X167212417Y-96995276D01*
X167071658Y-97024426D01*
X166800657Y-97120393D01*
X166545188Y-97252250D01*
X166541687Y-97254711D01*
X166541683Y-97254713D01*
X166525167Y-97266321D01*
X166309977Y-97417559D01*
X166099378Y-97613260D01*
X165917287Y-97835732D01*
X165767073Y-98080858D01*
X165651517Y-98344102D01*
X165650342Y-98348229D01*
X165650341Y-98348230D01*
X165641292Y-98379998D01*
X165572756Y-98620594D01*
X165532249Y-98905216D01*
X165532227Y-98909505D01*
X165532226Y-98909512D01*
X165530765Y-99188417D01*
X165530743Y-99192703D01*
X162761700Y-99192703D01*
X162761700Y-95404967D01*
X162762227Y-95393784D01*
X162763902Y-95386291D01*
X162763248Y-95365463D01*
X162761762Y-95318201D01*
X162761700Y-95314243D01*
X162761700Y-95286344D01*
X162761196Y-95282353D01*
X162760263Y-95270511D01*
X162759872Y-95258045D01*
X162758874Y-95226311D01*
X162756662Y-95218697D01*
X162756661Y-95218692D01*
X162753223Y-95206859D01*
X162749212Y-95187495D01*
X162747667Y-95175264D01*
X162746674Y-95167403D01*
X162743757Y-95160036D01*
X162743756Y-95160031D01*
X162730398Y-95126292D01*
X162726554Y-95115065D01*
X162716430Y-95080222D01*
X162714218Y-95072607D01*
X162703907Y-95055172D01*
X162695212Y-95037424D01*
X162687752Y-95018583D01*
X162661764Y-94982813D01*
X162655248Y-94972893D01*
X162636780Y-94941665D01*
X162636778Y-94941662D01*
X162632742Y-94934838D01*
X162618421Y-94920517D01*
X162605580Y-94905483D01*
X162598331Y-94895506D01*
X162593672Y-94889093D01*
X162559595Y-94860902D01*
X162550816Y-94852912D01*
X160036039Y-92338134D01*
X161201500Y-92338134D01*
X161208255Y-92400316D01*
X161259385Y-92536705D01*
X161346739Y-92653261D01*
X161463295Y-92740615D01*
X161599684Y-92791745D01*
X161661866Y-92798500D01*
X163458134Y-92798500D01*
X163520316Y-92791745D01*
X163656705Y-92740615D01*
X163773261Y-92653261D01*
X163860615Y-92536705D01*
X163911745Y-92400316D01*
X163918500Y-92338134D01*
X163918500Y-90541866D01*
X163911745Y-90479684D01*
X163860615Y-90343295D01*
X163787370Y-90245564D01*
X163762522Y-90179059D01*
X163777575Y-90109676D01*
X163787370Y-90094435D01*
X163802295Y-90074521D01*
X163860615Y-89996705D01*
X163911745Y-89860316D01*
X163918500Y-89798134D01*
X163918500Y-88001866D01*
X163911745Y-87939684D01*
X163860615Y-87803295D01*
X163787370Y-87705564D01*
X163762522Y-87639059D01*
X163777575Y-87569676D01*
X163787370Y-87554435D01*
X163802295Y-87534521D01*
X163860615Y-87456705D01*
X163911745Y-87320316D01*
X163918500Y-87258134D01*
X163918500Y-85461866D01*
X163911745Y-85399684D01*
X163860615Y-85263295D01*
X163773261Y-85146739D01*
X163656705Y-85059385D01*
X163520316Y-85008255D01*
X163458134Y-85001500D01*
X161661866Y-85001500D01*
X161599684Y-85008255D01*
X161463295Y-85059385D01*
X161346739Y-85146739D01*
X161259385Y-85263295D01*
X161208255Y-85399684D01*
X161201500Y-85461866D01*
X161201500Y-87258134D01*
X161208255Y-87320316D01*
X161259385Y-87456705D01*
X161317705Y-87534521D01*
X161332630Y-87554435D01*
X161357478Y-87620941D01*
X161342425Y-87690324D01*
X161332632Y-87705562D01*
X161259385Y-87803295D01*
X161208255Y-87939684D01*
X161201500Y-88001866D01*
X161201500Y-89798134D01*
X161208255Y-89860316D01*
X161259385Y-89996705D01*
X161317705Y-90074521D01*
X161332630Y-90094435D01*
X161357478Y-90160941D01*
X161342425Y-90230324D01*
X161332632Y-90245562D01*
X161259385Y-90343295D01*
X161208255Y-90479684D01*
X161201500Y-90541866D01*
X161201500Y-92338134D01*
X160036039Y-92338134D01*
X159801405Y-92103500D01*
X159767379Y-92041188D01*
X159764500Y-92014405D01*
X159764500Y-89461363D01*
X159765027Y-89450179D01*
X159766701Y-89442691D01*
X159764562Y-89374632D01*
X159764500Y-89370675D01*
X159764500Y-89342744D01*
X159763994Y-89338738D01*
X159763061Y-89326892D01*
X159761922Y-89290637D01*
X159761673Y-89282710D01*
X159756022Y-89263258D01*
X159752014Y-89243906D01*
X159750468Y-89231668D01*
X159750467Y-89231666D01*
X159749474Y-89223803D01*
X159733194Y-89182686D01*
X159729359Y-89171485D01*
X159717018Y-89129006D01*
X159712985Y-89122187D01*
X159712983Y-89122182D01*
X159706707Y-89111571D01*
X159698010Y-89093821D01*
X159690552Y-89074983D01*
X159664571Y-89039223D01*
X159658053Y-89029301D01*
X159639578Y-88998060D01*
X159639574Y-88998055D01*
X159635542Y-88991237D01*
X159621218Y-88976913D01*
X159608376Y-88961878D01*
X159596472Y-88945493D01*
X159562406Y-88917311D01*
X159553627Y-88909322D01*
X159152052Y-88507747D01*
X159144512Y-88499461D01*
X159140400Y-88492982D01*
X159090748Y-88446356D01*
X159087907Y-88443602D01*
X159068170Y-88423865D01*
X159064973Y-88421385D01*
X159055951Y-88413680D01*
X159029500Y-88388841D01*
X159023721Y-88383414D01*
X159016775Y-88379595D01*
X159016772Y-88379593D01*
X159005966Y-88373652D01*
X158989447Y-88362801D01*
X158988983Y-88362441D01*
X158973441Y-88350386D01*
X158966172Y-88347241D01*
X158966168Y-88347238D01*
X158932863Y-88332826D01*
X158922203Y-88327604D01*
X158903800Y-88317487D01*
X158853741Y-88267142D01*
X158838500Y-88207072D01*
X158838500Y-88001866D01*
X158831745Y-87939684D01*
X158780615Y-87803295D01*
X158707370Y-87705564D01*
X158682522Y-87639059D01*
X158697575Y-87569676D01*
X158707370Y-87554435D01*
X158722295Y-87534521D01*
X158780615Y-87456705D01*
X158831745Y-87320316D01*
X158838500Y-87258134D01*
X158838500Y-85461866D01*
X158831745Y-85399684D01*
X158780615Y-85263295D01*
X158693261Y-85146739D01*
X158576705Y-85059385D01*
X158440316Y-85008255D01*
X158378134Y-85001500D01*
X156581866Y-85001500D01*
X156519684Y-85008255D01*
X156383295Y-85059385D01*
X156266739Y-85146739D01*
X156179385Y-85263295D01*
X156128255Y-85399684D01*
X156121500Y-85461866D01*
X156121500Y-86770405D01*
X156101498Y-86838526D01*
X156084595Y-86859500D01*
X155913236Y-87030859D01*
X155904950Y-87038399D01*
X155898471Y-87042511D01*
X155893046Y-87048288D01*
X155851846Y-87092162D01*
X155849091Y-87095004D01*
X155829354Y-87114741D01*
X155826874Y-87117938D01*
X155819171Y-87126958D01*
X155788903Y-87159190D01*
X155785084Y-87166136D01*
X155785082Y-87166139D01*
X155779141Y-87176945D01*
X155768290Y-87193464D01*
X155755875Y-87209470D01*
X155752730Y-87216739D01*
X155752727Y-87216743D01*
X155738315Y-87250048D01*
X155733098Y-87260698D01*
X155711794Y-87299451D01*
X155709823Y-87307126D01*
X155709823Y-87307127D01*
X155706756Y-87319073D01*
X155700352Y-87337777D01*
X155692308Y-87356366D01*
X155691069Y-87364189D01*
X155691066Y-87364199D01*
X155685390Y-87400035D01*
X155682984Y-87411655D01*
X155671989Y-87454481D01*
X155671989Y-87474735D01*
X155670438Y-87494445D01*
X155667269Y-87514454D01*
X155668015Y-87522346D01*
X155671430Y-87558472D01*
X155671989Y-87570330D01*
X155671989Y-88641177D01*
X155651987Y-88709298D01*
X155598331Y-88755791D01*
X155528057Y-88765895D01*
X155463477Y-88736401D01*
X155437535Y-88705316D01*
X155423176Y-88681036D01*
X155423176Y-88681035D01*
X155419142Y-88674215D01*
X155404818Y-88659891D01*
X155391976Y-88644856D01*
X155389303Y-88641177D01*
X155380072Y-88628471D01*
X155346006Y-88600289D01*
X155337227Y-88592300D01*
X153795405Y-87050478D01*
X153761379Y-86988166D01*
X153758500Y-86961383D01*
X153758500Y-85461866D01*
X153751745Y-85399684D01*
X153700615Y-85263295D01*
X153613261Y-85146739D01*
X153496705Y-85059385D01*
X153360316Y-85008255D01*
X153298134Y-85001500D01*
X151501866Y-85001500D01*
X151439684Y-85008255D01*
X151303295Y-85059385D01*
X151186739Y-85146739D01*
X151099385Y-85263295D01*
X151048255Y-85399684D01*
X151041500Y-85461866D01*
X151041500Y-86532200D01*
X151021498Y-86600321D01*
X150967842Y-86646814D01*
X150897568Y-86656918D01*
X150832988Y-86627424D01*
X150807049Y-86596342D01*
X150796342Y-86578238D01*
X150782021Y-86563917D01*
X150769180Y-86548883D01*
X150761932Y-86538907D01*
X150757272Y-86532493D01*
X150723207Y-86504312D01*
X150714426Y-86496322D01*
X150185847Y-85967742D01*
X150178313Y-85959463D01*
X150174200Y-85952982D01*
X150124548Y-85906356D01*
X150121707Y-85903602D01*
X150101970Y-85883865D01*
X150098773Y-85881385D01*
X150089751Y-85873680D01*
X150063300Y-85848841D01*
X150057521Y-85843414D01*
X150050575Y-85839595D01*
X150050572Y-85839593D01*
X150039766Y-85833652D01*
X150023247Y-85822801D01*
X150022783Y-85822441D01*
X150007241Y-85810386D01*
X149999972Y-85807241D01*
X149999968Y-85807238D01*
X149966663Y-85792826D01*
X149956013Y-85787609D01*
X149917260Y-85766305D01*
X149897637Y-85761267D01*
X149878934Y-85754863D01*
X149867620Y-85749967D01*
X149867619Y-85749967D01*
X149860345Y-85746819D01*
X149852522Y-85745580D01*
X149852512Y-85745577D01*
X149816676Y-85739901D01*
X149805056Y-85737495D01*
X149769911Y-85728472D01*
X149769910Y-85728472D01*
X149762230Y-85726500D01*
X149741976Y-85726500D01*
X149722265Y-85724949D01*
X149710086Y-85723020D01*
X149702257Y-85721780D01*
X149694365Y-85722526D01*
X149658239Y-85725941D01*
X149646381Y-85726500D01*
X148804500Y-85726500D01*
X148736379Y-85706498D01*
X148689886Y-85652842D01*
X148678500Y-85600500D01*
X148678500Y-85461866D01*
X148671745Y-85399684D01*
X148620615Y-85263295D01*
X148533261Y-85146739D01*
X148416705Y-85059385D01*
X148280316Y-85008255D01*
X148218134Y-85001500D01*
X146421866Y-85001500D01*
X146359684Y-85008255D01*
X146223295Y-85059385D01*
X146106739Y-85146739D01*
X146019385Y-85263295D01*
X145968255Y-85399684D01*
X145961500Y-85461866D01*
X145961500Y-87258134D01*
X145968255Y-87320316D01*
X146019385Y-87456705D01*
X146077705Y-87534521D01*
X146092630Y-87554435D01*
X146117478Y-87620941D01*
X146102425Y-87690324D01*
X146092632Y-87705562D01*
X146019385Y-87803295D01*
X145968255Y-87939684D01*
X145961500Y-88001866D01*
X145961500Y-89798134D01*
X145968255Y-89860316D01*
X146019385Y-89996705D01*
X146077705Y-90074521D01*
X146092630Y-90094435D01*
X146117478Y-90160941D01*
X146102425Y-90230324D01*
X146092632Y-90245562D01*
X146019385Y-90343295D01*
X145968255Y-90479684D01*
X145961500Y-90541866D01*
X145961500Y-92338134D01*
X145968255Y-92400316D01*
X146019385Y-92536705D01*
X146106739Y-92653261D01*
X146223295Y-92740615D01*
X146359684Y-92791745D01*
X146421866Y-92798500D01*
X147100500Y-92798500D01*
X147168621Y-92818502D01*
X147215114Y-92872158D01*
X147226500Y-92924500D01*
X147226500Y-96871646D01*
X147206498Y-96939767D01*
X147172772Y-96974858D01*
X147128501Y-97005857D01*
X147052473Y-97059092D01*
X147052470Y-97059094D01*
X147047962Y-97062251D01*
X146949095Y-97161118D01*
X146886783Y-97195144D01*
X146815968Y-97190079D01*
X146770905Y-97161118D01*
X146672038Y-97062251D01*
X146626678Y-97030489D01*
X146592759Y-97006739D01*
X146491654Y-96935944D01*
X146292076Y-96842880D01*
X146079371Y-96785885D01*
X145860000Y-96766693D01*
X145640629Y-96785885D01*
X145635314Y-96787309D01*
X145635315Y-96787309D01*
X145609283Y-96794284D01*
X145538306Y-96792594D01*
X145487577Y-96761672D01*
X142313652Y-93587747D01*
X142306112Y-93579461D01*
X142302000Y-93572982D01*
X142252348Y-93526356D01*
X142249507Y-93523602D01*
X142229770Y-93503865D01*
X142226573Y-93501385D01*
X142217551Y-93493680D01*
X142191100Y-93468841D01*
X142185321Y-93463414D01*
X142178375Y-93459595D01*
X142178372Y-93459593D01*
X142167566Y-93453652D01*
X142151047Y-93442801D01*
X142150583Y-93442441D01*
X142135041Y-93430386D01*
X142127772Y-93427241D01*
X142127768Y-93427238D01*
X142094463Y-93412826D01*
X142083813Y-93407609D01*
X142045060Y-93386305D01*
X142025437Y-93381267D01*
X142006734Y-93374863D01*
X141995420Y-93369967D01*
X141995419Y-93369967D01*
X141988145Y-93366819D01*
X141980322Y-93365580D01*
X141980312Y-93365577D01*
X141944476Y-93359901D01*
X141932856Y-93357495D01*
X141897711Y-93348472D01*
X141897710Y-93348472D01*
X141890030Y-93346500D01*
X141869776Y-93346500D01*
X141850065Y-93344949D01*
X141837886Y-93343020D01*
X141830057Y-93341780D01*
X141822165Y-93342526D01*
X141786039Y-93345941D01*
X141774181Y-93346500D01*
X139989195Y-93346500D01*
X139921074Y-93326498D01*
X139900099Y-93309595D01*
X139710004Y-93119499D01*
X139675979Y-93057187D01*
X139673100Y-93030404D01*
X139673100Y-92338134D01*
X140881500Y-92338134D01*
X140888255Y-92400316D01*
X140939385Y-92536705D01*
X141026739Y-92653261D01*
X141143295Y-92740615D01*
X141279684Y-92791745D01*
X141341866Y-92798500D01*
X143138134Y-92798500D01*
X143200316Y-92791745D01*
X143336705Y-92740615D01*
X143453261Y-92653261D01*
X143540615Y-92536705D01*
X143591745Y-92400316D01*
X143598500Y-92338134D01*
X143598500Y-90541866D01*
X143591745Y-90479684D01*
X143540615Y-90343295D01*
X143467370Y-90245564D01*
X143442522Y-90179059D01*
X143457575Y-90109676D01*
X143467370Y-90094435D01*
X143482295Y-90074521D01*
X143540615Y-89996705D01*
X143591745Y-89860316D01*
X143598500Y-89798134D01*
X143598500Y-88001866D01*
X143591745Y-87939684D01*
X143540615Y-87803295D01*
X143467370Y-87705564D01*
X143442522Y-87639059D01*
X143457575Y-87569676D01*
X143467370Y-87554435D01*
X143482295Y-87534521D01*
X143540615Y-87456705D01*
X143591745Y-87320316D01*
X143598500Y-87258134D01*
X143598500Y-85461866D01*
X143591745Y-85399684D01*
X143540615Y-85263295D01*
X143453261Y-85146739D01*
X143336705Y-85059385D01*
X143200316Y-85008255D01*
X143138134Y-85001500D01*
X141341866Y-85001500D01*
X141279684Y-85008255D01*
X141143295Y-85059385D01*
X141026739Y-85146739D01*
X140939385Y-85263295D01*
X140888255Y-85399684D01*
X140881500Y-85461866D01*
X140881500Y-87258134D01*
X140888255Y-87320316D01*
X140939385Y-87456705D01*
X140997705Y-87534521D01*
X141012630Y-87554435D01*
X141037478Y-87620941D01*
X141022425Y-87690324D01*
X141012632Y-87705562D01*
X140939385Y-87803295D01*
X140888255Y-87939684D01*
X140881500Y-88001866D01*
X140881500Y-89798134D01*
X140888255Y-89860316D01*
X140939385Y-89996705D01*
X140997705Y-90074521D01*
X141012630Y-90094435D01*
X141037478Y-90160941D01*
X141022425Y-90230324D01*
X141012632Y-90245562D01*
X140939385Y-90343295D01*
X140888255Y-90479684D01*
X140881500Y-90541866D01*
X140881500Y-92338134D01*
X139673100Y-92338134D01*
X139673100Y-88318367D01*
X139673627Y-88307184D01*
X139675302Y-88299691D01*
X139675012Y-88290444D01*
X139673162Y-88231601D01*
X139673100Y-88227643D01*
X139673100Y-88199744D01*
X139672596Y-88195753D01*
X139671663Y-88183911D01*
X139670523Y-88147636D01*
X139670274Y-88139711D01*
X139668062Y-88132097D01*
X139668061Y-88132092D01*
X139664623Y-88120259D01*
X139660612Y-88100895D01*
X139659067Y-88088664D01*
X139658074Y-88080803D01*
X139655157Y-88073436D01*
X139655156Y-88073431D01*
X139641798Y-88039692D01*
X139637954Y-88028465D01*
X139635832Y-88021161D01*
X139625618Y-87986007D01*
X139615307Y-87968572D01*
X139606612Y-87950824D01*
X139599152Y-87931983D01*
X139573164Y-87896213D01*
X139566648Y-87886293D01*
X139548180Y-87855065D01*
X139548178Y-87855062D01*
X139544142Y-87848238D01*
X139529821Y-87833917D01*
X139516980Y-87818883D01*
X139509731Y-87808906D01*
X139505072Y-87802493D01*
X139498968Y-87797443D01*
X139498963Y-87797438D01*
X139471002Y-87774307D01*
X139462221Y-87766317D01*
X138555404Y-86859499D01*
X138521379Y-86797187D01*
X138518500Y-86770404D01*
X138518500Y-85461866D01*
X138511745Y-85399684D01*
X138460615Y-85263295D01*
X138373261Y-85146739D01*
X138256705Y-85059385D01*
X138120316Y-85008255D01*
X138058134Y-85001500D01*
X136261866Y-85001500D01*
X136199684Y-85008255D01*
X136063295Y-85059385D01*
X135946739Y-85146739D01*
X135859385Y-85263295D01*
X135808255Y-85399684D01*
X135801500Y-85461866D01*
X135801500Y-87258134D01*
X135808255Y-87320316D01*
X135859385Y-87456705D01*
X135917705Y-87534521D01*
X135932630Y-87554435D01*
X135957478Y-87620941D01*
X135942425Y-87690324D01*
X135932632Y-87705562D01*
X135859385Y-87803295D01*
X135808255Y-87939684D01*
X135801500Y-88001866D01*
X135801500Y-89798134D01*
X135808255Y-89860316D01*
X135859385Y-89996705D01*
X135917705Y-90074521D01*
X135932630Y-90094435D01*
X135957478Y-90160941D01*
X135942425Y-90230324D01*
X135932632Y-90245562D01*
X135859385Y-90343295D01*
X135808255Y-90479684D01*
X135801500Y-90541866D01*
X135801500Y-92338134D01*
X135808255Y-92400316D01*
X135859385Y-92536705D01*
X135946739Y-92653261D01*
X136063295Y-92740615D01*
X136199684Y-92791745D01*
X136261866Y-92798500D01*
X136400500Y-92798500D01*
X136468621Y-92818502D01*
X136515114Y-92872158D01*
X136526500Y-92924500D01*
X136526500Y-95351152D01*
X136525973Y-95362335D01*
X136524298Y-95369828D01*
X136524547Y-95377754D01*
X136524547Y-95377755D01*
X136526438Y-95437905D01*
X136526500Y-95441864D01*
X136526500Y-95469775D01*
X136526997Y-95473709D01*
X136526997Y-95473710D01*
X136527005Y-95473775D01*
X136527938Y-95485612D01*
X136529327Y-95529808D01*
X136534978Y-95549258D01*
X136538987Y-95568619D01*
X136541526Y-95588716D01*
X136544445Y-95596087D01*
X136544445Y-95596089D01*
X136557804Y-95629831D01*
X136561649Y-95641061D01*
X136571771Y-95675902D01*
X136573982Y-95683512D01*
X136578015Y-95690331D01*
X136578017Y-95690336D01*
X136584293Y-95700947D01*
X136592988Y-95718695D01*
X136600448Y-95737536D01*
X136605110Y-95743952D01*
X136605110Y-95743953D01*
X136626436Y-95773306D01*
X136632952Y-95783226D01*
X136655458Y-95821281D01*
X136669779Y-95835602D01*
X136682619Y-95850635D01*
X136694528Y-95867026D01*
X136700634Y-95872077D01*
X136728605Y-95895217D01*
X136737384Y-95903207D01*
X139256429Y-98422253D01*
X139263969Y-98430539D01*
X139268081Y-98437018D01*
X139273858Y-98442443D01*
X139317732Y-98483643D01*
X139320574Y-98486398D01*
X139340311Y-98506135D01*
X139343508Y-98508615D01*
X139352528Y-98516318D01*
X139384760Y-98546586D01*
X139391706Y-98550405D01*
X139391709Y-98550407D01*
X139402515Y-98556348D01*
X139419034Y-98567199D01*
X139435040Y-98579614D01*
X139442309Y-98582759D01*
X139442313Y-98582762D01*
X139475618Y-98597174D01*
X139486268Y-98602391D01*
X139525021Y-98623695D01*
X139532696Y-98625666D01*
X139532697Y-98625666D01*
X139544643Y-98628733D01*
X139563348Y-98635137D01*
X139581936Y-98643181D01*
X139589759Y-98644420D01*
X139589769Y-98644423D01*
X139625605Y-98650099D01*
X139637225Y-98652505D01*
X139670937Y-98661160D01*
X139680051Y-98663500D01*
X139700305Y-98663500D01*
X139720015Y-98665051D01*
X139740024Y-98668220D01*
X139747916Y-98667474D01*
X139784042Y-98664059D01*
X139795900Y-98663500D01*
X140701646Y-98663500D01*
X140769767Y-98683502D01*
X140804858Y-98717228D01*
X140892251Y-98842038D01*
X141047962Y-98997749D01*
X141052471Y-99000906D01*
X141052473Y-99000908D01*
X141105443Y-99037998D01*
X141228346Y-99124056D01*
X141233331Y-99126380D01*
X141233337Y-99126384D01*
X141317877Y-99165805D01*
X141371163Y-99212722D01*
X141390624Y-99280999D01*
X141370082Y-99348959D01*
X141317878Y-99394195D01*
X141233334Y-99433618D01*
X141233329Y-99433621D01*
X141228347Y-99435944D01*
X141223840Y-99439100D01*
X141223838Y-99439101D01*
X141052473Y-99559092D01*
X141052470Y-99559094D01*
X141047962Y-99562251D01*
X140892251Y-99717962D01*
X140889094Y-99722470D01*
X140889092Y-99722473D01*
X140796801Y-99854278D01*
X140765944Y-99898347D01*
X140763621Y-99903329D01*
X140763618Y-99903334D01*
X140716415Y-100004562D01*
X140672880Y-100097924D01*
X140615885Y-100310629D01*
X140615406Y-100316105D01*
X140612927Y-100344439D01*
X140587063Y-100410557D01*
X140529560Y-100452197D01*
X140477520Y-100459069D01*
X140264930Y-100442338D01*
X140255070Y-100442338D01*
X140008687Y-100461729D01*
X139998940Y-100463272D01*
X139758627Y-100520967D01*
X139749242Y-100524016D01*
X139520915Y-100618592D01*
X139512121Y-100623073D01*
X139306072Y-100749340D01*
X139300810Y-100757401D01*
X139306817Y-100767607D01*
X141570934Y-103031724D01*
X141584471Y-103039116D01*
X141589740Y-103035430D01*
X141716927Y-102827879D01*
X141721408Y-102819085D01*
X141815984Y-102590758D01*
X141819033Y-102581373D01*
X141876728Y-102341060D01*
X141878271Y-102331313D01*
X141897662Y-102084930D01*
X141897662Y-102075070D01*
X141885181Y-101916482D01*
X141899777Y-101847002D01*
X141949620Y-101796442D01*
X141999810Y-101781075D01*
X142079371Y-101774115D01*
X142292076Y-101717120D01*
X142491654Y-101624056D01*
X142620524Y-101533820D01*
X142667527Y-101500908D01*
X142667529Y-101500906D01*
X142672038Y-101497749D01*
X142770905Y-101398882D01*
X142833217Y-101364856D01*
X142904032Y-101369921D01*
X142949095Y-101398882D01*
X143047962Y-101497749D01*
X143052471Y-101500906D01*
X143052473Y-101500908D01*
X143099476Y-101533820D01*
X143228346Y-101624056D01*
X143427924Y-101717120D01*
X143640629Y-101774115D01*
X143860000Y-101793307D01*
X144079371Y-101774115D01*
X144292076Y-101717120D01*
X144491654Y-101624056D01*
X144620524Y-101533820D01*
X144667527Y-101500908D01*
X144667529Y-101500906D01*
X144672038Y-101497749D01*
X144770905Y-101398882D01*
X144833217Y-101364856D01*
X144904032Y-101369921D01*
X144949095Y-101398882D01*
X145047962Y-101497749D01*
X145052471Y-101500906D01*
X145052473Y-101500908D01*
X145099476Y-101533820D01*
X145228346Y-101624056D01*
X145427924Y-101717120D01*
X145640629Y-101774115D01*
X145860000Y-101793307D01*
X146079371Y-101774115D01*
X146292076Y-101717120D01*
X146491654Y-101624056D01*
X146620524Y-101533820D01*
X146667527Y-101500908D01*
X146667529Y-101500906D01*
X146672038Y-101497749D01*
X146770905Y-101398882D01*
X146833217Y-101364856D01*
X146904032Y-101369921D01*
X146949095Y-101398882D01*
X147047962Y-101497749D01*
X147052471Y-101500906D01*
X147052473Y-101500908D01*
X147099476Y-101533820D01*
X147228346Y-101624056D01*
X147427924Y-101717120D01*
X147640629Y-101774115D01*
X147860000Y-101793307D01*
X148079371Y-101774115D01*
X148292076Y-101717120D01*
X148491654Y-101624056D01*
X148620524Y-101533820D01*
X148667527Y-101500908D01*
X148667529Y-101500906D01*
X148672038Y-101497749D01*
X148770905Y-101398882D01*
X148833217Y-101364856D01*
X148904032Y-101369921D01*
X148949095Y-101398882D01*
X149047962Y-101497749D01*
X149052471Y-101500906D01*
X149052473Y-101500908D01*
X149099476Y-101533820D01*
X149228346Y-101624056D01*
X149427924Y-101717120D01*
X149640629Y-101774115D01*
X149860000Y-101793307D01*
X150079371Y-101774115D01*
X150292076Y-101717120D01*
X150491654Y-101624056D01*
X150620524Y-101533820D01*
X150667527Y-101500908D01*
X150667529Y-101500906D01*
X150672038Y-101497749D01*
X150770905Y-101398882D01*
X150833217Y-101364856D01*
X150904032Y-101369921D01*
X150949095Y-101398882D01*
X151047962Y-101497749D01*
X151052471Y-101500906D01*
X151052473Y-101500908D01*
X151099476Y-101533820D01*
X151228346Y-101624056D01*
X151427924Y-101717120D01*
X151640629Y-101774115D01*
X151860000Y-101793307D01*
X152079371Y-101774115D01*
X152292076Y-101717120D01*
X152491654Y-101624056D01*
X152620524Y-101533820D01*
X152667527Y-101500908D01*
X152667529Y-101500906D01*
X152672038Y-101497749D01*
X152770905Y-101398882D01*
X152833217Y-101364856D01*
X152904032Y-101369921D01*
X152949095Y-101398882D01*
X153047962Y-101497749D01*
X153052471Y-101500906D01*
X153052473Y-101500908D01*
X153099476Y-101533820D01*
X153228346Y-101624056D01*
X153427924Y-101717120D01*
X153640629Y-101774115D01*
X153860000Y-101793307D01*
X154079371Y-101774115D01*
X154292076Y-101717120D01*
X154491654Y-101624056D01*
X154620524Y-101533820D01*
X154667527Y-101500908D01*
X154667529Y-101500906D01*
X154672038Y-101497749D01*
X154770905Y-101398882D01*
X154833217Y-101364856D01*
X154904032Y-101369921D01*
X154949095Y-101398882D01*
X155047962Y-101497749D01*
X155052471Y-101500906D01*
X155052473Y-101500908D01*
X155099476Y-101533820D01*
X155228346Y-101624056D01*
X155427924Y-101717120D01*
X155640629Y-101774115D01*
X155860000Y-101793307D01*
X156079371Y-101774115D01*
X156084681Y-101772692D01*
X156084688Y-101772691D01*
X156110719Y-101765716D01*
X156181696Y-101767406D01*
X156232424Y-101798328D01*
X158105001Y-103670905D01*
X158139027Y-103733217D01*
X158133962Y-103804032D01*
X158091415Y-103860868D01*
X158024895Y-103885679D01*
X158015906Y-103886000D01*
X140796821Y-103886000D01*
X140728700Y-103865998D01*
X140682207Y-103812342D01*
X140672103Y-103742068D01*
X140701597Y-103677488D01*
X140757883Y-103640167D01*
X140770762Y-103635982D01*
X140999085Y-103541408D01*
X141007879Y-103536927D01*
X141213928Y-103410660D01*
X141219190Y-103402599D01*
X141213183Y-103392393D01*
X140272812Y-102452022D01*
X140258868Y-102444408D01*
X140257035Y-102444539D01*
X140250420Y-102448790D01*
X139308276Y-103390934D01*
X139300884Y-103404471D01*
X139304570Y-103409740D01*
X139512121Y-103536927D01*
X139520915Y-103541408D01*
X139749238Y-103635982D01*
X139762117Y-103640167D01*
X139820722Y-103680242D01*
X139848358Y-103745639D01*
X139836250Y-103815595D01*
X139788244Y-103867901D01*
X139723179Y-103886000D01*
X132714000Y-103886000D01*
X132645879Y-103865998D01*
X132599386Y-103812342D01*
X132588000Y-103760000D01*
X132588000Y-102878702D01*
X132588002Y-102877932D01*
X132588007Y-102877078D01*
X132588476Y-102800348D01*
X132586010Y-102791719D01*
X132586009Y-102791714D01*
X132580361Y-102771952D01*
X132576783Y-102755191D01*
X132573870Y-102734848D01*
X132573867Y-102734838D01*
X132572595Y-102725955D01*
X132561979Y-102702605D01*
X132555536Y-102685093D01*
X132550954Y-102669063D01*
X132548488Y-102660435D01*
X132532726Y-102635452D01*
X132524596Y-102620386D01*
X132512367Y-102593490D01*
X132495626Y-102574061D01*
X132484521Y-102559053D01*
X132475630Y-102544961D01*
X132470840Y-102537369D01*
X132448703Y-102517818D01*
X132436659Y-102505626D01*
X132436464Y-102505399D01*
X132417381Y-102483253D01*
X132409853Y-102478374D01*
X132409850Y-102478371D01*
X132395861Y-102469304D01*
X132380987Y-102458014D01*
X132374202Y-102452022D01*
X132361772Y-102441044D01*
X132353646Y-102437229D01*
X132353645Y-102437228D01*
X132347979Y-102434568D01*
X132335034Y-102428490D01*
X132320065Y-102420176D01*
X132295273Y-102404107D01*
X132270709Y-102396761D01*
X132253264Y-102390099D01*
X132247892Y-102387577D01*
X132230052Y-102379201D01*
X132200870Y-102374657D01*
X132184151Y-102370874D01*
X132164464Y-102364986D01*
X132164461Y-102364985D01*
X132155859Y-102362413D01*
X132146883Y-102362358D01*
X132146882Y-102362358D01*
X132130215Y-102362256D01*
X132111602Y-102360758D01*
X132095143Y-102358195D01*
X132095139Y-102358195D01*
X132086270Y-102356814D01*
X132067589Y-102359257D01*
X132044658Y-102360148D01*
X131741443Y-102344257D01*
X131728334Y-102342879D01*
X131399998Y-102290876D01*
X131387098Y-102288134D01*
X131353051Y-102279011D01*
X131065998Y-102202096D01*
X131053464Y-102198024D01*
X130758848Y-102084930D01*
X138622338Y-102084930D01*
X138641729Y-102331313D01*
X138643272Y-102341060D01*
X138700967Y-102581373D01*
X138704016Y-102590758D01*
X138798592Y-102819085D01*
X138803073Y-102827879D01*
X138929340Y-103033928D01*
X138937401Y-103039190D01*
X138947607Y-103033183D01*
X139887978Y-102092812D01*
X139895592Y-102078868D01*
X139895461Y-102077035D01*
X139891210Y-102070420D01*
X138949066Y-101128276D01*
X138935529Y-101120884D01*
X138930260Y-101124570D01*
X138803073Y-101332121D01*
X138798592Y-101340915D01*
X138704016Y-101569242D01*
X138700967Y-101578627D01*
X138643272Y-101818940D01*
X138641729Y-101828687D01*
X138622338Y-102075070D01*
X138622338Y-102084930D01*
X130758848Y-102084930D01*
X130743121Y-102078893D01*
X130731074Y-102073530D01*
X130434880Y-101922612D01*
X130423458Y-101916017D01*
X130273973Y-101818940D01*
X130144665Y-101734966D01*
X130134010Y-101727225D01*
X129875652Y-101518011D01*
X129865861Y-101509194D01*
X129630806Y-101274139D01*
X129621989Y-101264348D01*
X129412775Y-101005990D01*
X129405032Y-100995333D01*
X129258093Y-100769066D01*
X129223983Y-100716542D01*
X129217388Y-100705120D01*
X129066470Y-100408926D01*
X129061106Y-100396878D01*
X129042062Y-100347266D01*
X128941976Y-100086536D01*
X128937902Y-100073997D01*
X128924282Y-100023163D01*
X128851866Y-99752902D01*
X128849124Y-99740002D01*
X128797121Y-99411669D01*
X128795743Y-99398552D01*
X128784955Y-99192703D01*
X129970743Y-99192703D01*
X129971302Y-99196947D01*
X129971302Y-99196951D01*
X129974210Y-99219036D01*
X130008268Y-99477734D01*
X130084129Y-99755036D01*
X130085813Y-99758984D01*
X130126460Y-99854278D01*
X130196923Y-100019476D01*
X130344561Y-100266161D01*
X130524313Y-100490528D01*
X130732851Y-100688423D01*
X130966317Y-100856186D01*
X130970112Y-100858195D01*
X130970113Y-100858196D01*
X130991869Y-100869715D01*
X131220392Y-100990712D01*
X131490373Y-101089511D01*
X131771264Y-101150755D01*
X131799841Y-101153004D01*
X131994282Y-101168307D01*
X131994291Y-101168307D01*
X131996739Y-101168500D01*
X132152271Y-101168500D01*
X132154407Y-101168354D01*
X132154418Y-101168354D01*
X132362548Y-101154165D01*
X132362554Y-101154164D01*
X132366825Y-101153873D01*
X132371020Y-101153004D01*
X132371022Y-101153004D01*
X132623787Y-101100659D01*
X132648342Y-101095574D01*
X132919343Y-100999607D01*
X133174812Y-100867750D01*
X133178313Y-100865289D01*
X133178317Y-100865287D01*
X133389959Y-100716542D01*
X133410023Y-100702441D01*
X133571088Y-100552770D01*
X133617479Y-100509661D01*
X133617481Y-100509658D01*
X133620622Y-100506740D01*
X133802713Y-100284268D01*
X133952927Y-100039142D01*
X134068483Y-99775898D01*
X134076851Y-99746524D01*
X134146068Y-99503534D01*
X134147244Y-99499406D01*
X134187751Y-99214784D01*
X134187845Y-99196951D01*
X134189235Y-98931583D01*
X134189235Y-98931576D01*
X134189257Y-98927297D01*
X134181037Y-98864856D01*
X134161287Y-98714847D01*
X134151732Y-98642266D01*
X134148705Y-98631199D01*
X134097067Y-98442443D01*
X134075871Y-98364964D01*
X134065295Y-98340170D01*
X133964763Y-98104476D01*
X133964761Y-98104472D01*
X133963077Y-98100524D01*
X133815439Y-97853839D01*
X133635687Y-97629472D01*
X133427149Y-97431577D01*
X133193683Y-97263814D01*
X133171843Y-97252250D01*
X132999724Y-97161118D01*
X132939608Y-97129288D01*
X132756421Y-97062251D01*
X132673658Y-97031964D01*
X132673656Y-97031963D01*
X132669627Y-97030489D01*
X132388736Y-96969245D01*
X132357685Y-96966801D01*
X132165718Y-96951693D01*
X132165709Y-96951693D01*
X132163261Y-96951500D01*
X132007729Y-96951500D01*
X132005593Y-96951646D01*
X132005582Y-96951646D01*
X131797452Y-96965835D01*
X131797446Y-96965836D01*
X131793175Y-96966127D01*
X131788980Y-96966996D01*
X131788978Y-96966996D01*
X131652417Y-96995276D01*
X131511658Y-97024426D01*
X131240657Y-97120393D01*
X130985188Y-97252250D01*
X130981687Y-97254711D01*
X130981683Y-97254713D01*
X130965167Y-97266321D01*
X130749977Y-97417559D01*
X130539378Y-97613260D01*
X130357287Y-97835732D01*
X130207073Y-98080858D01*
X130091517Y-98344102D01*
X130090342Y-98348229D01*
X130090341Y-98348230D01*
X130081292Y-98379998D01*
X130012756Y-98620594D01*
X129972249Y-98905216D01*
X129972227Y-98909505D01*
X129972226Y-98909512D01*
X129970765Y-99188417D01*
X129970743Y-99192703D01*
X128784955Y-99192703D01*
X128778346Y-99066594D01*
X128778346Y-99053406D01*
X128795743Y-98721448D01*
X128797121Y-98708331D01*
X128828177Y-98512255D01*
X128849124Y-98379998D01*
X128851866Y-98367098D01*
X128879029Y-98265722D01*
X128937904Y-98045998D01*
X128941978Y-98033459D01*
X128964236Y-97975477D01*
X129061107Y-97723121D01*
X129066470Y-97711074D01*
X129217388Y-97414880D01*
X129223983Y-97403458D01*
X129313041Y-97266321D01*
X129405034Y-97124665D01*
X129412775Y-97114010D01*
X129621989Y-96855652D01*
X129630806Y-96845861D01*
X129865861Y-96610806D01*
X129875652Y-96601989D01*
X130134010Y-96392775D01*
X130144667Y-96385032D01*
X130156834Y-96377131D01*
X130423458Y-96203983D01*
X130434880Y-96197388D01*
X130731074Y-96046470D01*
X130743122Y-96041106D01*
X131053464Y-95921976D01*
X131065998Y-95917904D01*
X131387097Y-95831866D01*
X131399998Y-95829124D01*
X131449517Y-95821281D01*
X131728332Y-95777121D01*
X131741445Y-95775743D01*
X132037333Y-95760236D01*
X132063312Y-95761564D01*
X132064856Y-95761805D01*
X132064860Y-95761805D01*
X132073730Y-95763186D01*
X132103015Y-95759356D01*
X132120110Y-95758295D01*
X132149652Y-95758476D01*
X132174311Y-95751428D01*
X132192590Y-95747643D01*
X132218016Y-95744318D01*
X132245053Y-95732422D01*
X132261168Y-95726604D01*
X132263555Y-95725922D01*
X132272942Y-95723239D01*
X132280934Y-95720955D01*
X132280935Y-95720954D01*
X132289565Y-95718488D01*
X132297157Y-95713698D01*
X132297159Y-95713697D01*
X132311247Y-95704808D01*
X132327735Y-95696041D01*
X132342987Y-95689330D01*
X132342988Y-95689330D01*
X132351207Y-95685713D01*
X132373814Y-95666710D01*
X132387642Y-95656607D01*
X132412631Y-95640840D01*
X132418575Y-95634110D01*
X132429611Y-95621615D01*
X132442971Y-95608577D01*
X132455727Y-95597854D01*
X132462596Y-95592080D01*
X132470570Y-95580102D01*
X132478960Y-95567497D01*
X132489407Y-95553907D01*
X132508956Y-95531772D01*
X132512769Y-95523650D01*
X132512772Y-95523646D01*
X132519854Y-95508562D01*
X132529018Y-95492298D01*
X132538253Y-95478423D01*
X132543228Y-95470949D01*
X132549481Y-95450937D01*
X132552034Y-95442764D01*
X132558247Y-95426787D01*
X132566984Y-95408178D01*
X132566984Y-95408177D01*
X132570799Y-95400052D01*
X132574745Y-95374714D01*
X132578977Y-95356526D01*
X132583947Y-95340619D01*
X132583948Y-95340616D01*
X132586622Y-95332055D01*
X132586850Y-95319652D01*
X132587264Y-95297052D01*
X132587453Y-95293089D01*
X132588000Y-95289577D01*
X132588000Y-95258045D01*
X132588021Y-95255736D01*
X132589289Y-95186565D01*
X132588252Y-95182762D01*
X132588000Y-95178695D01*
X132588000Y-84454000D01*
X132608002Y-84385879D01*
X132661658Y-84339386D01*
X132714000Y-84328000D01*
X167006000Y-84328000D01*
X167074121Y-84348002D01*
G37*
%TD.AperFunction*%
%TA.AperFunction,Conductor*%
G36*
X161412732Y-99037998D02*
G01*
X161469568Y-99080545D01*
X161494379Y-99147065D01*
X161494700Y-99156054D01*
X161494700Y-101147124D01*
X161474698Y-101215245D01*
X161457795Y-101236219D01*
X161181188Y-101512826D01*
X161118876Y-101546852D01*
X161048061Y-101541787D01*
X160991225Y-101499240D01*
X160975684Y-101471949D01*
X160921408Y-101340915D01*
X160916927Y-101332121D01*
X160790660Y-101126072D01*
X160782599Y-101120810D01*
X160772393Y-101126817D01*
X159549095Y-102350115D01*
X159486783Y-102384141D01*
X159415968Y-102379076D01*
X159370905Y-102350115D01*
X159189885Y-102169095D01*
X159155859Y-102106783D01*
X159160924Y-102035968D01*
X159189885Y-101990905D01*
X160411724Y-100769066D01*
X160419116Y-100755529D01*
X160415430Y-100750260D01*
X160207879Y-100623073D01*
X160199085Y-100618592D01*
X160040175Y-100552770D01*
X159984894Y-100508222D01*
X159962473Y-100440858D01*
X159980031Y-100372067D01*
X159999298Y-100347266D01*
X161279605Y-99066959D01*
X161341917Y-99032933D01*
X161412732Y-99037998D01*
G37*
%TD.AperFunction*%
%TA.AperFunction,Conductor*%
G36*
X155756612Y-90403687D02*
G01*
X155782553Y-90434771D01*
X155800947Y-90465873D01*
X155815268Y-90480194D01*
X155828108Y-90495227D01*
X155840017Y-90511618D01*
X155846123Y-90516669D01*
X155874094Y-90539809D01*
X155882873Y-90547799D01*
X155992810Y-90657736D01*
X156000354Y-90666026D01*
X156004467Y-90672507D01*
X156010244Y-90677932D01*
X156054134Y-90719147D01*
X156056976Y-90721902D01*
X156076698Y-90741624D01*
X156078961Y-90743380D01*
X156116698Y-90803228D01*
X156121500Y-90837682D01*
X156121500Y-92338134D01*
X156128255Y-92400316D01*
X156179385Y-92536705D01*
X156266739Y-92653261D01*
X156383295Y-92740615D01*
X156519684Y-92791745D01*
X156581866Y-92798500D01*
X156881679Y-92798500D01*
X156949800Y-92818502D01*
X156975176Y-92841725D01*
X156975458Y-92841443D01*
X156989779Y-92855764D01*
X157002619Y-92870797D01*
X157014528Y-92887188D01*
X157020634Y-92892239D01*
X157048605Y-92915379D01*
X157057384Y-92923369D01*
X158892826Y-94758812D01*
X158926852Y-94821124D01*
X158921787Y-94891940D01*
X158879240Y-94948775D01*
X158851949Y-94964316D01*
X158720915Y-95018592D01*
X158712121Y-95023073D01*
X158506072Y-95149340D01*
X158500810Y-95157401D01*
X158506817Y-95167607D01*
X159730115Y-96390905D01*
X159764141Y-96453217D01*
X159759076Y-96524032D01*
X159730115Y-96569095D01*
X159549095Y-96750115D01*
X159486783Y-96784141D01*
X159415968Y-96779076D01*
X159370905Y-96750115D01*
X158149066Y-95528276D01*
X158135529Y-95520884D01*
X158130260Y-95524570D01*
X158003073Y-95732121D01*
X157998592Y-95740915D01*
X157904016Y-95969242D01*
X157900967Y-95978627D01*
X157843272Y-96218940D01*
X157841729Y-96228687D01*
X157822338Y-96475070D01*
X157822338Y-96484930D01*
X157834819Y-96643518D01*
X157820223Y-96712998D01*
X157770380Y-96763558D01*
X157720190Y-96778925D01*
X157640629Y-96785885D01*
X157635314Y-96787309D01*
X157635315Y-96787309D01*
X157609283Y-96794284D01*
X157538306Y-96792594D01*
X157487577Y-96761672D01*
X155585005Y-94859100D01*
X155550979Y-94796788D01*
X155548100Y-94770005D01*
X155548100Y-90498911D01*
X155568102Y-90430790D01*
X155621758Y-90384297D01*
X155692032Y-90374193D01*
X155756612Y-90403687D01*
G37*
%TD.AperFunction*%
%TD*%
M02*
