%FSLAX45Y45*%
G04 Gerber Fmt 4.5, Leading zero omitted, Abs format (unit mm)*
G04 Created by KiCad (PCBNEW (6.0.0)) date 2022-01-24 18:04:21*
%MOMM*%
%LPD*%
G01*
G04 APERTURE LIST*
%TA.AperFunction,Profile*%
%ADD10C,0.100000*%
%TD*%
%ADD11C,0.200000*%
%ADD12C,0.100000*%
%ADD13C,0.150000*%
G04 APERTURE END LIST*
D10*
X16764000Y-10439400D02*
X13208000Y-10439400D01*
X13208000Y-10439400D02*
X13208000Y-10287000D01*
X16764000Y-10287000D02*
X16764000Y-10439400D01*
X13208000Y-9525000D02*
G75*
G03*
X13208000Y-10287000I0J-381000D01*
G01*
X13208000Y-8382000D02*
X16764000Y-8382000D01*
X16764000Y-8382000D02*
X16764000Y-9525000D01*
X13208000Y-9525000D02*
X13208000Y-8382000D01*
X16764000Y-10287000D02*
G75*
G03*
X16764000Y-9525000I0J381000D01*
G01*
D11*
D12*
X13666000Y-8586000D02*
X13766000Y-8686000D01*
X13766000Y-8586000D02*
X13666000Y-8686000D01*
X13666000Y-8840000D02*
X13766000Y-8940000D01*
X13766000Y-8840000D02*
X13666000Y-8940000D01*
X13666000Y-9094000D02*
X13766000Y-9194000D01*
X13766000Y-9094000D02*
X13666000Y-9194000D01*
X14136000Y-9753000D02*
X14236000Y-9853000D01*
X14236000Y-9753000D02*
X14136000Y-9853000D01*
X14136000Y-10003000D02*
X14236000Y-10103000D01*
X14236000Y-10003000D02*
X14136000Y-10103000D01*
X14174000Y-8586000D02*
X14274000Y-8686000D01*
X14274000Y-8586000D02*
X14174000Y-8686000D01*
X14174000Y-8840000D02*
X14274000Y-8940000D01*
X14274000Y-8840000D02*
X14174000Y-8940000D01*
X14174000Y-9094000D02*
X14274000Y-9194000D01*
X14274000Y-9094000D02*
X14174000Y-9194000D01*
X14336000Y-9753000D02*
X14436000Y-9853000D01*
X14436000Y-9753000D02*
X14336000Y-9853000D01*
X14336000Y-10003000D02*
X14436000Y-10103000D01*
X14436000Y-10003000D02*
X14336000Y-10103000D01*
X14536000Y-9753000D02*
X14636000Y-9853000D01*
X14636000Y-9753000D02*
X14536000Y-9853000D01*
X14536000Y-10003000D02*
X14636000Y-10103000D01*
X14636000Y-10003000D02*
X14536000Y-10103000D01*
X14682000Y-8586000D02*
X14782000Y-8686000D01*
X14782000Y-8586000D02*
X14682000Y-8686000D01*
X14682000Y-8840000D02*
X14782000Y-8940000D01*
X14782000Y-8840000D02*
X14682000Y-8940000D01*
X14682000Y-9094000D02*
X14782000Y-9194000D01*
X14782000Y-9094000D02*
X14682000Y-9194000D01*
X14736000Y-9753000D02*
X14836000Y-9853000D01*
X14836000Y-9753000D02*
X14736000Y-9853000D01*
X14736000Y-10003000D02*
X14836000Y-10103000D01*
X14836000Y-10003000D02*
X14736000Y-10103000D01*
X14936000Y-9753000D02*
X15036000Y-9853000D01*
X15036000Y-9753000D02*
X14936000Y-9853000D01*
X14936000Y-10003000D02*
X15036000Y-10103000D01*
X15036000Y-10003000D02*
X14936000Y-10103000D01*
X15136000Y-9753000D02*
X15236000Y-9853000D01*
X15236000Y-9753000D02*
X15136000Y-9853000D01*
X15136000Y-10003000D02*
X15236000Y-10103000D01*
X15236000Y-10003000D02*
X15136000Y-10103000D01*
X15190000Y-8586000D02*
X15290000Y-8686000D01*
X15290000Y-8586000D02*
X15190000Y-8686000D01*
X15190000Y-8840000D02*
X15290000Y-8940000D01*
X15290000Y-8840000D02*
X15190000Y-8940000D01*
X15190000Y-9094000D02*
X15290000Y-9194000D01*
X15290000Y-9094000D02*
X15190000Y-9194000D01*
X15336000Y-9753000D02*
X15436000Y-9853000D01*
X15436000Y-9753000D02*
X15336000Y-9853000D01*
X15336000Y-10003000D02*
X15436000Y-10103000D01*
X15436000Y-10003000D02*
X15336000Y-10103000D01*
X15536000Y-9753000D02*
X15636000Y-9853000D01*
X15636000Y-9753000D02*
X15536000Y-9853000D01*
X15536000Y-10003000D02*
X15636000Y-10103000D01*
X15636000Y-10003000D02*
X15536000Y-10103000D01*
X15698000Y-8586000D02*
X15798000Y-8686000D01*
X15798000Y-8586000D02*
X15698000Y-8686000D01*
X15698000Y-8840000D02*
X15798000Y-8940000D01*
X15798000Y-8840000D02*
X15698000Y-8940000D01*
X15698000Y-9094000D02*
X15798000Y-9194000D01*
X15798000Y-9094000D02*
X15698000Y-9194000D01*
X15736000Y-9753000D02*
X15836000Y-9853000D01*
X15836000Y-9753000D02*
X15736000Y-9853000D01*
X15736000Y-10003000D02*
X15836000Y-10103000D01*
X15836000Y-10003000D02*
X15736000Y-10103000D01*
X16206000Y-8586000D02*
X16306000Y-8686000D01*
X16306000Y-8586000D02*
X16206000Y-8686000D01*
X16206000Y-8840000D02*
X16306000Y-8940000D01*
X16306000Y-8840000D02*
X16206000Y-8940000D01*
X16206000Y-9094000D02*
X16306000Y-9194000D01*
X16306000Y-9094000D02*
X16206000Y-9194000D01*
D13*
X14101000Y-9648000D02*
G75*
G03*
X14101000Y-9648000I-75000J0D01*
G01*
X14101000Y-10208000D02*
G75*
G03*
X14101000Y-10208000I-75000J0D01*
G01*
X16021000Y-9648000D02*
G75*
G03*
X16021000Y-9648000I-75000J0D01*
G01*
X16021000Y-10208000D02*
G75*
G03*
X16021000Y-10208000I-75000J0D01*
G01*
D11*
X13079619Y-10754876D02*
X13079619Y-10554876D01*
X13127238Y-10554876D01*
X13155809Y-10564400D01*
X13174857Y-10583448D01*
X13184381Y-10602495D01*
X13193905Y-10640590D01*
X13193905Y-10669162D01*
X13184381Y-10707257D01*
X13174857Y-10726305D01*
X13155809Y-10745352D01*
X13127238Y-10754876D01*
X13079619Y-10754876D01*
X13279619Y-10754876D02*
X13279619Y-10621543D01*
X13279619Y-10659638D02*
X13289143Y-10640590D01*
X13298667Y-10631067D01*
X13317714Y-10621543D01*
X13336762Y-10621543D01*
X13403428Y-10754876D02*
X13403428Y-10621543D01*
X13403428Y-10554876D02*
X13393905Y-10564400D01*
X13403428Y-10573924D01*
X13412952Y-10564400D01*
X13403428Y-10554876D01*
X13403428Y-10573924D01*
X13527238Y-10754876D02*
X13508190Y-10745352D01*
X13498667Y-10726305D01*
X13498667Y-10554876D01*
X13632000Y-10754876D02*
X13612952Y-10745352D01*
X13603428Y-10726305D01*
X13603428Y-10554876D01*
X13860571Y-10754876D02*
X13860571Y-10554876D01*
X13927238Y-10697733D01*
X13993905Y-10554876D01*
X13993905Y-10754876D01*
X14174857Y-10754876D02*
X14174857Y-10650114D01*
X14165333Y-10631067D01*
X14146286Y-10621543D01*
X14108190Y-10621543D01*
X14089143Y-10631067D01*
X14174857Y-10745352D02*
X14155809Y-10754876D01*
X14108190Y-10754876D01*
X14089143Y-10745352D01*
X14079619Y-10726305D01*
X14079619Y-10707257D01*
X14089143Y-10688210D01*
X14108190Y-10678686D01*
X14155809Y-10678686D01*
X14174857Y-10669162D01*
X14270095Y-10621543D02*
X14270095Y-10821543D01*
X14270095Y-10631067D02*
X14289143Y-10621543D01*
X14327238Y-10621543D01*
X14346286Y-10631067D01*
X14355809Y-10640590D01*
X14365333Y-10659638D01*
X14365333Y-10716781D01*
X14355809Y-10735829D01*
X14346286Y-10745352D01*
X14327238Y-10754876D01*
X14289143Y-10754876D01*
X14270095Y-10745352D01*
X14451048Y-10735829D02*
X14460571Y-10745352D01*
X14451048Y-10754876D01*
X14441524Y-10745352D01*
X14451048Y-10735829D01*
X14451048Y-10754876D01*
X14451048Y-10631067D02*
X14460571Y-10640590D01*
X14451048Y-10650114D01*
X14441524Y-10640590D01*
X14451048Y-10631067D01*
X14451048Y-10650114D01*
D12*
X12722000Y-11034400D02*
X12822000Y-11134400D01*
X12822000Y-11034400D02*
X12722000Y-11134400D01*
D11*
X13184381Y-11174876D02*
X13070095Y-11174876D01*
X13127238Y-11174876D02*
X13127238Y-10974876D01*
X13108190Y-11003448D01*
X13089143Y-11022495D01*
X13070095Y-11032019D01*
X13270095Y-11155829D02*
X13279619Y-11165352D01*
X13270095Y-11174876D01*
X13260571Y-11165352D01*
X13270095Y-11155829D01*
X13270095Y-11174876D01*
X13403428Y-10974876D02*
X13422476Y-10974876D01*
X13441524Y-10984400D01*
X13451048Y-10993924D01*
X13460571Y-11012971D01*
X13470095Y-11051067D01*
X13470095Y-11098686D01*
X13460571Y-11136781D01*
X13451048Y-11155829D01*
X13441524Y-11165352D01*
X13422476Y-11174876D01*
X13403428Y-11174876D01*
X13384381Y-11165352D01*
X13374857Y-11155829D01*
X13365333Y-11136781D01*
X13355809Y-11098686D01*
X13355809Y-11051067D01*
X13365333Y-11012971D01*
X13374857Y-10993924D01*
X13384381Y-10984400D01*
X13403428Y-10974876D01*
X13593905Y-10974876D02*
X13612952Y-10974876D01*
X13632000Y-10984400D01*
X13641524Y-10993924D01*
X13651048Y-11012971D01*
X13660571Y-11051067D01*
X13660571Y-11098686D01*
X13651048Y-11136781D01*
X13641524Y-11155829D01*
X13632000Y-11165352D01*
X13612952Y-11174876D01*
X13593905Y-11174876D01*
X13574857Y-11165352D01*
X13565333Y-11155829D01*
X13555809Y-11136781D01*
X13546286Y-11098686D01*
X13546286Y-11051067D01*
X13555809Y-11012971D01*
X13565333Y-10993924D01*
X13574857Y-10984400D01*
X13593905Y-10974876D01*
X13784381Y-10974876D02*
X13803428Y-10974876D01*
X13822476Y-10984400D01*
X13832000Y-10993924D01*
X13841524Y-11012971D01*
X13851048Y-11051067D01*
X13851048Y-11098686D01*
X13841524Y-11136781D01*
X13832000Y-11155829D01*
X13822476Y-11165352D01*
X13803428Y-11174876D01*
X13784381Y-11174876D01*
X13765333Y-11165352D01*
X13755809Y-11155829D01*
X13746286Y-11136781D01*
X13736762Y-11098686D01*
X13736762Y-11051067D01*
X13746286Y-11012971D01*
X13755809Y-10993924D01*
X13765333Y-10984400D01*
X13784381Y-10974876D01*
X13936762Y-11174876D02*
X13936762Y-11041543D01*
X13936762Y-11060590D02*
X13946286Y-11051067D01*
X13965333Y-11041543D01*
X13993905Y-11041543D01*
X14012952Y-11051067D01*
X14022476Y-11070114D01*
X14022476Y-11174876D01*
X14022476Y-11070114D02*
X14032000Y-11051067D01*
X14051048Y-11041543D01*
X14079619Y-11041543D01*
X14098667Y-11051067D01*
X14108190Y-11070114D01*
X14108190Y-11174876D01*
X14203428Y-11174876D02*
X14203428Y-11041543D01*
X14203428Y-11060590D02*
X14212952Y-11051067D01*
X14232000Y-11041543D01*
X14260571Y-11041543D01*
X14279619Y-11051067D01*
X14289143Y-11070114D01*
X14289143Y-11174876D01*
X14289143Y-11070114D02*
X14298667Y-11051067D01*
X14317714Y-11041543D01*
X14346286Y-11041543D01*
X14365333Y-11051067D01*
X14374857Y-11070114D01*
X14374857Y-11174876D01*
X14765333Y-10965352D02*
X14593905Y-11222495D01*
X15022476Y-10974876D02*
X15041524Y-10974876D01*
X15060571Y-10984400D01*
X15070095Y-10993924D01*
X15079619Y-11012971D01*
X15089143Y-11051067D01*
X15089143Y-11098686D01*
X15079619Y-11136781D01*
X15070095Y-11155829D01*
X15060571Y-11165352D01*
X15041524Y-11174876D01*
X15022476Y-11174876D01*
X15003428Y-11165352D01*
X14993905Y-11155829D01*
X14984381Y-11136781D01*
X14974857Y-11098686D01*
X14974857Y-11051067D01*
X14984381Y-11012971D01*
X14993905Y-10993924D01*
X15003428Y-10984400D01*
X15022476Y-10974876D01*
X15174857Y-11155829D02*
X15184381Y-11165352D01*
X15174857Y-11174876D01*
X15165333Y-11165352D01*
X15174857Y-11155829D01*
X15174857Y-11174876D01*
X15308190Y-10974876D02*
X15327238Y-10974876D01*
X15346286Y-10984400D01*
X15355809Y-10993924D01*
X15365333Y-11012971D01*
X15374857Y-11051067D01*
X15374857Y-11098686D01*
X15365333Y-11136781D01*
X15355809Y-11155829D01*
X15346286Y-11165352D01*
X15327238Y-11174876D01*
X15308190Y-11174876D01*
X15289143Y-11165352D01*
X15279619Y-11155829D01*
X15270095Y-11136781D01*
X15260571Y-11098686D01*
X15260571Y-11051067D01*
X15270095Y-11012971D01*
X15279619Y-10993924D01*
X15289143Y-10984400D01*
X15308190Y-10974876D01*
X15441524Y-10974876D02*
X15565333Y-10974876D01*
X15498667Y-11051067D01*
X15527238Y-11051067D01*
X15546286Y-11060590D01*
X15555809Y-11070114D01*
X15565333Y-11089162D01*
X15565333Y-11136781D01*
X15555809Y-11155829D01*
X15546286Y-11165352D01*
X15527238Y-11174876D01*
X15470095Y-11174876D01*
X15451048Y-11165352D01*
X15441524Y-11155829D01*
X15660571Y-11174876D02*
X15698667Y-11174876D01*
X15717714Y-11165352D01*
X15727238Y-11155829D01*
X15746286Y-11127257D01*
X15755809Y-11089162D01*
X15755809Y-11012971D01*
X15746286Y-10993924D01*
X15736762Y-10984400D01*
X15717714Y-10974876D01*
X15679619Y-10974876D01*
X15660571Y-10984400D01*
X15651048Y-10993924D01*
X15641524Y-11012971D01*
X15641524Y-11060590D01*
X15651048Y-11079638D01*
X15660571Y-11089162D01*
X15679619Y-11098686D01*
X15717714Y-11098686D01*
X15736762Y-11089162D01*
X15746286Y-11079638D01*
X15755809Y-11060590D01*
X15927238Y-11041543D02*
X15927238Y-11174876D01*
X15879619Y-10965352D02*
X15832000Y-11108210D01*
X15955809Y-11108210D01*
X16022476Y-10974876D02*
X16022476Y-11012971D01*
X16098667Y-10974876D02*
X16098667Y-11012971D01*
X16393905Y-11251067D02*
X16384381Y-11241543D01*
X16365333Y-11212971D01*
X16355809Y-11193924D01*
X16346286Y-11165352D01*
X16336762Y-11117733D01*
X16336762Y-11079638D01*
X16346286Y-11032019D01*
X16355809Y-11003448D01*
X16365333Y-10984400D01*
X16384381Y-10955829D01*
X16393905Y-10946305D01*
X16451048Y-10974876D02*
X16574857Y-10974876D01*
X16508190Y-11051067D01*
X16536762Y-11051067D01*
X16555809Y-11060590D01*
X16565333Y-11070114D01*
X16574857Y-11089162D01*
X16574857Y-11136781D01*
X16565333Y-11155829D01*
X16555809Y-11165352D01*
X16536762Y-11174876D01*
X16479619Y-11174876D01*
X16460571Y-11165352D01*
X16451048Y-11155829D01*
X16746286Y-10974876D02*
X16708190Y-10974876D01*
X16689143Y-10984400D01*
X16679619Y-10993924D01*
X16660571Y-11022495D01*
X16651048Y-11060590D01*
X16651048Y-11136781D01*
X16660571Y-11155829D01*
X16670095Y-11165352D01*
X16689143Y-11174876D01*
X16727238Y-11174876D01*
X16746286Y-11165352D01*
X16755809Y-11155829D01*
X16765333Y-11136781D01*
X16765333Y-11089162D01*
X16755809Y-11070114D01*
X16746286Y-11060590D01*
X16727238Y-11051067D01*
X16689143Y-11051067D01*
X16670095Y-11060590D01*
X16660571Y-11070114D01*
X16651048Y-11089162D01*
X17003429Y-11174876D02*
X17003429Y-10974876D01*
X17089143Y-11174876D02*
X17089143Y-11070114D01*
X17079619Y-11051067D01*
X17060571Y-11041543D01*
X17032000Y-11041543D01*
X17012952Y-11051067D01*
X17003429Y-11060590D01*
X17212952Y-11174876D02*
X17193905Y-11165352D01*
X17184381Y-11155829D01*
X17174857Y-11136781D01*
X17174857Y-11079638D01*
X17184381Y-11060590D01*
X17193905Y-11051067D01*
X17212952Y-11041543D01*
X17241524Y-11041543D01*
X17260571Y-11051067D01*
X17270095Y-11060590D01*
X17279619Y-11079638D01*
X17279619Y-11136781D01*
X17270095Y-11155829D01*
X17260571Y-11165352D01*
X17241524Y-11174876D01*
X17212952Y-11174876D01*
X17393905Y-11174876D02*
X17374857Y-11165352D01*
X17365333Y-11146305D01*
X17365333Y-10974876D01*
X17546286Y-11165352D02*
X17527238Y-11174876D01*
X17489143Y-11174876D01*
X17470095Y-11165352D01*
X17460571Y-11146305D01*
X17460571Y-11070114D01*
X17470095Y-11051067D01*
X17489143Y-11041543D01*
X17527238Y-11041543D01*
X17546286Y-11051067D01*
X17555810Y-11070114D01*
X17555810Y-11089162D01*
X17460571Y-11108210D01*
X17632000Y-11165352D02*
X17651048Y-11174876D01*
X17689143Y-11174876D01*
X17708190Y-11165352D01*
X17717714Y-11146305D01*
X17717714Y-11136781D01*
X17708190Y-11117733D01*
X17689143Y-11108210D01*
X17660571Y-11108210D01*
X17641524Y-11098686D01*
X17632000Y-11079638D01*
X17632000Y-11070114D01*
X17641524Y-11051067D01*
X17660571Y-11041543D01*
X17689143Y-11041543D01*
X17708190Y-11051067D01*
X17784381Y-11251067D02*
X17793905Y-11241543D01*
X17812952Y-11212971D01*
X17822476Y-11193924D01*
X17832000Y-11165352D01*
X17841524Y-11117733D01*
X17841524Y-11079638D01*
X17832000Y-11032019D01*
X17822476Y-11003448D01*
X17812952Y-10984400D01*
X17793905Y-10955829D01*
X17784381Y-10946305D01*
D13*
X12822000Y-11348400D02*
G75*
G03*
X12822000Y-11348400I-75000J0D01*
G01*
D11*
X13184381Y-11438876D02*
X13070095Y-11438876D01*
X13127238Y-11438876D02*
X13127238Y-11238876D01*
X13108190Y-11267448D01*
X13089143Y-11286495D01*
X13070095Y-11296019D01*
X13270095Y-11419828D02*
X13279619Y-11429352D01*
X13270095Y-11438876D01*
X13260571Y-11429352D01*
X13270095Y-11419828D01*
X13270095Y-11438876D01*
X13460571Y-11238876D02*
X13365333Y-11238876D01*
X13355809Y-11334114D01*
X13365333Y-11324590D01*
X13384381Y-11315067D01*
X13432000Y-11315067D01*
X13451048Y-11324590D01*
X13460571Y-11334114D01*
X13470095Y-11353162D01*
X13470095Y-11400781D01*
X13460571Y-11419828D01*
X13451048Y-11429352D01*
X13432000Y-11438876D01*
X13384381Y-11438876D01*
X13365333Y-11429352D01*
X13355809Y-11419828D01*
X13593905Y-11238876D02*
X13612952Y-11238876D01*
X13632000Y-11248400D01*
X13641524Y-11257924D01*
X13651048Y-11276971D01*
X13660571Y-11315067D01*
X13660571Y-11362686D01*
X13651048Y-11400781D01*
X13641524Y-11419828D01*
X13632000Y-11429352D01*
X13612952Y-11438876D01*
X13593905Y-11438876D01*
X13574857Y-11429352D01*
X13565333Y-11419828D01*
X13555809Y-11400781D01*
X13546286Y-11362686D01*
X13546286Y-11315067D01*
X13555809Y-11276971D01*
X13565333Y-11257924D01*
X13574857Y-11248400D01*
X13593905Y-11238876D01*
X13784381Y-11238876D02*
X13803428Y-11238876D01*
X13822476Y-11248400D01*
X13832000Y-11257924D01*
X13841524Y-11276971D01*
X13851048Y-11315067D01*
X13851048Y-11362686D01*
X13841524Y-11400781D01*
X13832000Y-11419828D01*
X13822476Y-11429352D01*
X13803428Y-11438876D01*
X13784381Y-11438876D01*
X13765333Y-11429352D01*
X13755809Y-11419828D01*
X13746286Y-11400781D01*
X13736762Y-11362686D01*
X13736762Y-11315067D01*
X13746286Y-11276971D01*
X13755809Y-11257924D01*
X13765333Y-11248400D01*
X13784381Y-11238876D01*
X13936762Y-11438876D02*
X13936762Y-11305543D01*
X13936762Y-11324590D02*
X13946286Y-11315067D01*
X13965333Y-11305543D01*
X13993905Y-11305543D01*
X14012952Y-11315067D01*
X14022476Y-11334114D01*
X14022476Y-11438876D01*
X14022476Y-11334114D02*
X14032000Y-11315067D01*
X14051048Y-11305543D01*
X14079619Y-11305543D01*
X14098667Y-11315067D01*
X14108190Y-11334114D01*
X14108190Y-11438876D01*
X14203428Y-11438876D02*
X14203428Y-11305543D01*
X14203428Y-11324590D02*
X14212952Y-11315067D01*
X14232000Y-11305543D01*
X14260571Y-11305543D01*
X14279619Y-11315067D01*
X14289143Y-11334114D01*
X14289143Y-11438876D01*
X14289143Y-11334114D02*
X14298667Y-11315067D01*
X14317714Y-11305543D01*
X14346286Y-11305543D01*
X14365333Y-11315067D01*
X14374857Y-11334114D01*
X14374857Y-11438876D01*
X14765333Y-11229352D02*
X14593905Y-11486495D01*
X15022476Y-11238876D02*
X15041524Y-11238876D01*
X15060571Y-11248400D01*
X15070095Y-11257924D01*
X15079619Y-11276971D01*
X15089143Y-11315067D01*
X15089143Y-11362686D01*
X15079619Y-11400781D01*
X15070095Y-11419828D01*
X15060571Y-11429352D01*
X15041524Y-11438876D01*
X15022476Y-11438876D01*
X15003428Y-11429352D01*
X14993905Y-11419828D01*
X14984381Y-11400781D01*
X14974857Y-11362686D01*
X14974857Y-11315067D01*
X14984381Y-11276971D01*
X14993905Y-11257924D01*
X15003428Y-11248400D01*
X15022476Y-11238876D01*
X15174857Y-11419828D02*
X15184381Y-11429352D01*
X15174857Y-11438876D01*
X15165333Y-11429352D01*
X15174857Y-11419828D01*
X15174857Y-11438876D01*
X15308190Y-11238876D02*
X15327238Y-11238876D01*
X15346286Y-11248400D01*
X15355809Y-11257924D01*
X15365333Y-11276971D01*
X15374857Y-11315067D01*
X15374857Y-11362686D01*
X15365333Y-11400781D01*
X15355809Y-11419828D01*
X15346286Y-11429352D01*
X15327238Y-11438876D01*
X15308190Y-11438876D01*
X15289143Y-11429352D01*
X15279619Y-11419828D01*
X15270095Y-11400781D01*
X15260571Y-11362686D01*
X15260571Y-11315067D01*
X15270095Y-11276971D01*
X15279619Y-11257924D01*
X15289143Y-11248400D01*
X15308190Y-11238876D01*
X15555809Y-11238876D02*
X15460571Y-11238876D01*
X15451048Y-11334114D01*
X15460571Y-11324590D01*
X15479619Y-11315067D01*
X15527238Y-11315067D01*
X15546286Y-11324590D01*
X15555809Y-11334114D01*
X15565333Y-11353162D01*
X15565333Y-11400781D01*
X15555809Y-11419828D01*
X15546286Y-11429352D01*
X15527238Y-11438876D01*
X15479619Y-11438876D01*
X15460571Y-11429352D01*
X15451048Y-11419828D01*
X15660571Y-11438876D02*
X15698667Y-11438876D01*
X15717714Y-11429352D01*
X15727238Y-11419828D01*
X15746286Y-11391257D01*
X15755809Y-11353162D01*
X15755809Y-11276971D01*
X15746286Y-11257924D01*
X15736762Y-11248400D01*
X15717714Y-11238876D01*
X15679619Y-11238876D01*
X15660571Y-11248400D01*
X15651048Y-11257924D01*
X15641524Y-11276971D01*
X15641524Y-11324590D01*
X15651048Y-11343638D01*
X15660571Y-11353162D01*
X15679619Y-11362686D01*
X15717714Y-11362686D01*
X15736762Y-11353162D01*
X15746286Y-11343638D01*
X15755809Y-11324590D01*
X15946286Y-11438876D02*
X15832000Y-11438876D01*
X15889143Y-11438876D02*
X15889143Y-11238876D01*
X15870095Y-11267448D01*
X15851048Y-11286495D01*
X15832000Y-11296019D01*
X16022476Y-11238876D02*
X16022476Y-11276971D01*
X16098667Y-11238876D02*
X16098667Y-11276971D01*
X16393905Y-11515067D02*
X16384381Y-11505543D01*
X16365333Y-11476971D01*
X16355809Y-11457924D01*
X16346286Y-11429352D01*
X16336762Y-11381733D01*
X16336762Y-11343638D01*
X16346286Y-11296019D01*
X16355809Y-11267448D01*
X16365333Y-11248400D01*
X16384381Y-11219828D01*
X16393905Y-11210305D01*
X16555809Y-11305543D02*
X16555809Y-11438876D01*
X16508190Y-11229352D02*
X16460571Y-11372209D01*
X16584381Y-11372209D01*
X16812952Y-11438876D02*
X16812952Y-11238876D01*
X16898667Y-11438876D02*
X16898667Y-11334114D01*
X16889143Y-11315067D01*
X16870095Y-11305543D01*
X16841524Y-11305543D01*
X16822476Y-11315067D01*
X16812952Y-11324590D01*
X17022476Y-11438876D02*
X17003429Y-11429352D01*
X16993905Y-11419828D01*
X16984381Y-11400781D01*
X16984381Y-11343638D01*
X16993905Y-11324590D01*
X17003429Y-11315067D01*
X17022476Y-11305543D01*
X17051048Y-11305543D01*
X17070095Y-11315067D01*
X17079619Y-11324590D01*
X17089143Y-11343638D01*
X17089143Y-11400781D01*
X17079619Y-11419828D01*
X17070095Y-11429352D01*
X17051048Y-11438876D01*
X17022476Y-11438876D01*
X17203429Y-11438876D02*
X17184381Y-11429352D01*
X17174857Y-11410305D01*
X17174857Y-11238876D01*
X17355810Y-11429352D02*
X17336762Y-11438876D01*
X17298667Y-11438876D01*
X17279619Y-11429352D01*
X17270095Y-11410305D01*
X17270095Y-11334114D01*
X17279619Y-11315067D01*
X17298667Y-11305543D01*
X17336762Y-11305543D01*
X17355810Y-11315067D01*
X17365333Y-11334114D01*
X17365333Y-11353162D01*
X17270095Y-11372209D01*
X17441524Y-11429352D02*
X17460571Y-11438876D01*
X17498667Y-11438876D01*
X17517714Y-11429352D01*
X17527238Y-11410305D01*
X17527238Y-11400781D01*
X17517714Y-11381733D01*
X17498667Y-11372209D01*
X17470095Y-11372209D01*
X17451048Y-11362686D01*
X17441524Y-11343638D01*
X17441524Y-11334114D01*
X17451048Y-11315067D01*
X17470095Y-11305543D01*
X17498667Y-11305543D01*
X17517714Y-11315067D01*
X17593905Y-11515067D02*
X17603429Y-11505543D01*
X17622476Y-11476971D01*
X17632000Y-11457924D01*
X17641524Y-11429352D01*
X17651048Y-11381733D01*
X17651048Y-11343638D01*
X17641524Y-11296019D01*
X17632000Y-11267448D01*
X17622476Y-11248400D01*
X17603429Y-11219828D01*
X17593905Y-11210305D01*
M02*
