%TF.GenerationSoftware,KiCad,Pcbnew,(6.0.0)*%
%TF.CreationDate,2022-01-24T18:04:17-05:00*%
%TF.ProjectId,3do switch,33646f20-7377-4697-9463-682e6b696361,rev?*%
%TF.SameCoordinates,Original*%
%TF.FileFunction,Legend,Top*%
%TF.FilePolarity,Positive*%
%FSLAX46Y46*%
G04 Gerber Fmt 4.6, Leading zero omitted, Abs format (unit mm)*
G04 Created by KiCad (PCBNEW (6.0.0)) date 2022-01-24 18:04:17*
%MOMM*%
%LPD*%
G01*
G04 APERTURE LIST*
%ADD10C,0.120000*%
%ADD11C,0.200000*%
%ADD12C,0.100000*%
G04 APERTURE END LIST*
D10*
%TO.C,J7*%
X153730000Y-92710000D02*
X153730000Y-92770000D01*
X151070000Y-92710000D02*
X151070000Y-92770000D01*
X151070000Y-92710000D02*
X153730000Y-92710000D01*
X151070000Y-91440000D02*
X151070000Y-90110000D01*
X151070000Y-92770000D02*
X153730000Y-92770000D01*
X151070000Y-90110000D02*
X152400000Y-90110000D01*
%TO.C,J2*%
X135830000Y-90230000D02*
X138490000Y-90230000D01*
X135830000Y-90170000D02*
X138490000Y-90170000D01*
X135830000Y-87570000D02*
X137160000Y-87570000D01*
X135830000Y-90170000D02*
X135830000Y-90230000D01*
X138490000Y-90170000D02*
X138490000Y-90230000D01*
X135830000Y-88900000D02*
X135830000Y-87570000D01*
%TO.C,J18*%
X156150000Y-87630000D02*
X156150000Y-87690000D01*
X156150000Y-86360000D02*
X156150000Y-85030000D01*
X156150000Y-87630000D02*
X158810000Y-87630000D01*
X156150000Y-87690000D02*
X158810000Y-87690000D01*
X156150000Y-85030000D02*
X157480000Y-85030000D01*
X158810000Y-87630000D02*
X158810000Y-87690000D01*
%TO.C,J8*%
X151070000Y-88900000D02*
X151070000Y-87570000D01*
X151070000Y-90170000D02*
X151070000Y-90230000D01*
X151070000Y-90230000D02*
X153730000Y-90230000D01*
X153730000Y-90170000D02*
X153730000Y-90230000D01*
X151070000Y-87570000D02*
X152400000Y-87570000D01*
X151070000Y-90170000D02*
X153730000Y-90170000D01*
%TO.C,G\u002A\u002A\u002A*%
G36*
X163564993Y-96460866D02*
G01*
X163600637Y-96466275D01*
X163633668Y-96473958D01*
X163656464Y-96481902D01*
X163680117Y-96493462D01*
X163701322Y-96505807D01*
X163717357Y-96517151D01*
X163725498Y-96525712D01*
X163725994Y-96527442D01*
X163722224Y-96534483D01*
X163712270Y-96548032D01*
X163698238Y-96565233D01*
X163697362Y-96566261D01*
X163668687Y-96599826D01*
X163633984Y-96580241D01*
X163603154Y-96567083D01*
X163568288Y-96558912D01*
X163533299Y-96556109D01*
X163502099Y-96559058D01*
X163483074Y-96565511D01*
X163463593Y-96580755D01*
X163453470Y-96599678D01*
X163452969Y-96619409D01*
X163462354Y-96637077D01*
X163475585Y-96647017D01*
X163490993Y-96652231D01*
X163513941Y-96656876D01*
X163539470Y-96659950D01*
X163539572Y-96659958D01*
X163591511Y-96665225D01*
X163632705Y-96672565D01*
X163664838Y-96682699D01*
X163689596Y-96696351D01*
X163708663Y-96714241D01*
X163723725Y-96737092D01*
X163724924Y-96739383D01*
X163736066Y-96771406D01*
X163740401Y-96807819D01*
X163737763Y-96843604D01*
X163729302Y-96871098D01*
X163707979Y-96902060D01*
X163676943Y-96927812D01*
X163638152Y-96947634D01*
X163593563Y-96960800D01*
X163545133Y-96966589D01*
X163494821Y-96964276D01*
X163482227Y-96962356D01*
X163457655Y-96956252D01*
X163429134Y-96946572D01*
X163408164Y-96937800D01*
X163385295Y-96925956D01*
X163362422Y-96912200D01*
X163342168Y-96898355D01*
X163327159Y-96886242D01*
X163320020Y-96877685D01*
X163319766Y-96876437D01*
X163324172Y-96870578D01*
X163335719Y-96858995D01*
X163352020Y-96844063D01*
X163354092Y-96842239D01*
X163388338Y-96812204D01*
X163416459Y-96831552D01*
X163454532Y-96853264D01*
X163493364Y-96865304D01*
X163537777Y-96869144D01*
X163539478Y-96869148D01*
X163580015Y-96866206D01*
X163609687Y-96857297D01*
X163628679Y-96842300D01*
X163637179Y-96821094D01*
X163637327Y-96805399D01*
X163633565Y-96790105D01*
X163624649Y-96778542D01*
X163608918Y-96769940D01*
X163584711Y-96763525D01*
X163550366Y-96758527D01*
X163532439Y-96756656D01*
X163481491Y-96749892D01*
X163441236Y-96740022D01*
X163410083Y-96726253D01*
X163386437Y-96707793D01*
X163368707Y-96683849D01*
X163362760Y-96672225D01*
X163355509Y-96649819D01*
X163351411Y-96624215D01*
X163351082Y-96616686D01*
X163356006Y-96572007D01*
X163371189Y-96534461D01*
X163396596Y-96504083D01*
X163432194Y-96480908D01*
X163477948Y-96464969D01*
X163504966Y-96459672D01*
X163531511Y-96458432D01*
X163564993Y-96460866D01*
G37*
G36*
X165361509Y-96458847D02*
G01*
X165385168Y-96462973D01*
X165395236Y-96465443D01*
X165435930Y-96479886D01*
X165474014Y-96500751D01*
X165504813Y-96525425D01*
X165507551Y-96528254D01*
X165517071Y-96539261D01*
X165518440Y-96546479D01*
X165512160Y-96555144D01*
X165510316Y-96557195D01*
X165497847Y-96569426D01*
X165481083Y-96584039D01*
X165475342Y-96588697D01*
X165452336Y-96606942D01*
X165423527Y-96586636D01*
X165404529Y-96574754D01*
X165386578Y-96568086D01*
X165364017Y-96564829D01*
X165352761Y-96564096D01*
X165312789Y-96565986D01*
X165280968Y-96576800D01*
X165256104Y-96597155D01*
X165239468Y-96622574D01*
X165231785Y-96639631D01*
X165227075Y-96656228D01*
X165224651Y-96676334D01*
X165223823Y-96703915D01*
X165223784Y-96712860D01*
X165224284Y-96743618D01*
X165226301Y-96765822D01*
X165230469Y-96783391D01*
X165237424Y-96800244D01*
X165238192Y-96801825D01*
X165258541Y-96830264D01*
X165286235Y-96850349D01*
X165318967Y-96861672D01*
X165354431Y-96863831D01*
X165390322Y-96856417D01*
X165424332Y-96839027D01*
X165429273Y-96835423D01*
X165451728Y-96818296D01*
X165475038Y-96836782D01*
X165492005Y-96851044D01*
X165506622Y-96864658D01*
X165510257Y-96868459D01*
X165518232Y-96878513D01*
X165517684Y-96885808D01*
X165510257Y-96894882D01*
X165485455Y-96916747D01*
X165453092Y-96937273D01*
X165418013Y-96953538D01*
X165406201Y-96957619D01*
X165377901Y-96965074D01*
X165352670Y-96967908D01*
X165324978Y-96966394D01*
X165300997Y-96962867D01*
X165263084Y-96951771D01*
X165224798Y-96932577D01*
X165191687Y-96908200D01*
X165185283Y-96902062D01*
X165158355Y-96866354D01*
X165138320Y-96822106D01*
X165125743Y-96771558D01*
X165121187Y-96716952D01*
X165124978Y-96662132D01*
X165138010Y-96605468D01*
X165159298Y-96558168D01*
X165188973Y-96520091D01*
X165227166Y-96491097D01*
X165274008Y-96471047D01*
X165312129Y-96462238D01*
X165339430Y-96458690D01*
X165361509Y-96458847D01*
G37*
G36*
X164396230Y-96634023D02*
G01*
X164396826Y-96685054D01*
X164397463Y-96725104D01*
X164398263Y-96755694D01*
X164399342Y-96778346D01*
X164400819Y-96794580D01*
X164402814Y-96805918D01*
X164405445Y-96813882D01*
X164408831Y-96819993D01*
X164410967Y-96822994D01*
X164432121Y-96846186D01*
X164454753Y-96859097D01*
X164482631Y-96863738D01*
X164487515Y-96863845D01*
X164522195Y-96859554D01*
X164549314Y-96845627D01*
X164570032Y-96821387D01*
X164574683Y-96812980D01*
X164578974Y-96804003D01*
X164582291Y-96794969D01*
X164584759Y-96784197D01*
X164586504Y-96770008D01*
X164587649Y-96750721D01*
X164588321Y-96724655D01*
X164588644Y-96690131D01*
X164588744Y-96645468D01*
X164588749Y-96624014D01*
X164588749Y-96462798D01*
X164688774Y-96462798D01*
X164688774Y-96962921D01*
X164588749Y-96962921D01*
X164588749Y-96913754D01*
X164557699Y-96934650D01*
X164516748Y-96955917D01*
X164474322Y-96966291D01*
X164432687Y-96965289D01*
X164423083Y-96963307D01*
X164379802Y-96946638D01*
X164343647Y-96919845D01*
X164315395Y-96883573D01*
X164306235Y-96866022D01*
X164302111Y-96856638D01*
X164298862Y-96847436D01*
X164296383Y-96836855D01*
X164294569Y-96823328D01*
X164293318Y-96805292D01*
X164292523Y-96781183D01*
X164292080Y-96749436D01*
X164291886Y-96708487D01*
X164291835Y-96656771D01*
X164291833Y-96650344D01*
X164291801Y-96465924D01*
X164343092Y-96464113D01*
X164394384Y-96462302D01*
X164396230Y-96634023D01*
G37*
G36*
X162954604Y-97254084D02*
G01*
X162968038Y-97259643D01*
X162985721Y-97268697D01*
X162997637Y-97276371D01*
X163000859Y-97280103D01*
X162997110Y-97286956D01*
X162987104Y-97300800D01*
X162972699Y-97319116D01*
X162966211Y-97327025D01*
X162931564Y-97368766D01*
X162911510Y-97356539D01*
X162882073Y-97345323D01*
X162851339Y-97345030D01*
X162822211Y-97354808D01*
X162797596Y-97373807D01*
X162783618Y-97394039D01*
X162779326Y-97403062D01*
X162776009Y-97412136D01*
X162773541Y-97422943D01*
X162771797Y-97437165D01*
X162770651Y-97456483D01*
X162769980Y-97482579D01*
X162769657Y-97517135D01*
X162769557Y-97561833D01*
X162769552Y-97583148D01*
X162769552Y-97744364D01*
X162669527Y-97744364D01*
X162669527Y-97250492D01*
X162769552Y-97250492D01*
X162769552Y-97301479D01*
X162794510Y-97280115D01*
X162829677Y-97257909D01*
X162869812Y-97245965D01*
X162912320Y-97244588D01*
X162954604Y-97254084D01*
G37*
G36*
X163898897Y-97419002D02*
G01*
X163913066Y-97462228D01*
X163926158Y-97501047D01*
X163937658Y-97534018D01*
X163947048Y-97559696D01*
X163953813Y-97576638D01*
X163957434Y-97583400D01*
X163957744Y-97583395D01*
X163960441Y-97576314D01*
X163965879Y-97558806D01*
X163973581Y-97532524D01*
X163983070Y-97499124D01*
X163993867Y-97460260D01*
X164004192Y-97422409D01*
X164015730Y-97379880D01*
X164026300Y-97341149D01*
X164035434Y-97307913D01*
X164042664Y-97281867D01*
X164047522Y-97264707D01*
X164049463Y-97258306D01*
X164056500Y-97253953D01*
X164074142Y-97251390D01*
X164103263Y-97250495D01*
X164105593Y-97250492D01*
X164132597Y-97250977D01*
X164148722Y-97252595D01*
X164155557Y-97255595D01*
X164155810Y-97258306D01*
X164153068Y-97266505D01*
X164147194Y-97284612D01*
X164138836Y-97310618D01*
X164128638Y-97342513D01*
X164117248Y-97378288D01*
X164117133Y-97378649D01*
X164103173Y-97422526D01*
X164086840Y-97473767D01*
X164069585Y-97527832D01*
X164052855Y-97580180D01*
X164040824Y-97617770D01*
X164000272Y-97744364D01*
X163910124Y-97744364D01*
X163860625Y-97578315D01*
X163847580Y-97534932D01*
X163835537Y-97495601D01*
X163824992Y-97461880D01*
X163816436Y-97435325D01*
X163810366Y-97417492D01*
X163807274Y-97409938D01*
X163807145Y-97409806D01*
X163804412Y-97414899D01*
X163798679Y-97430504D01*
X163790431Y-97455128D01*
X163780155Y-97487276D01*
X163768337Y-97525454D01*
X163755463Y-97568166D01*
X163753643Y-97574291D01*
X163704123Y-97741238D01*
X163658726Y-97743076D01*
X163632579Y-97743366D01*
X163617095Y-97741492D01*
X163610583Y-97737237D01*
X163610413Y-97736825D01*
X163607099Y-97726944D01*
X163600681Y-97707200D01*
X163591648Y-97679135D01*
X163580488Y-97644289D01*
X163567692Y-97604204D01*
X163553747Y-97560421D01*
X163539143Y-97514480D01*
X163524369Y-97467923D01*
X163509913Y-97422290D01*
X163496265Y-97379123D01*
X163483914Y-97339962D01*
X163473348Y-97306349D01*
X163465056Y-97279824D01*
X163459528Y-97261929D01*
X163457252Y-97254205D01*
X163457221Y-97254029D01*
X163462992Y-97252426D01*
X163478387Y-97251203D01*
X163500526Y-97250550D01*
X163510065Y-97250492D01*
X163562909Y-97250492D01*
X163568448Y-97270810D01*
X163571600Y-97282430D01*
X163577486Y-97304182D01*
X163585582Y-97334124D01*
X163595362Y-97370316D01*
X163606303Y-97410819D01*
X163614065Y-97439565D01*
X163625233Y-97480475D01*
X163635456Y-97517062D01*
X163644258Y-97547694D01*
X163651165Y-97570741D01*
X163655701Y-97584573D01*
X163657270Y-97587917D01*
X163659908Y-97582185D01*
X163665805Y-97566040D01*
X163674449Y-97540989D01*
X163685330Y-97508542D01*
X163697936Y-97470207D01*
X163711757Y-97427491D01*
X163713927Y-97420724D01*
X163767459Y-97253618D01*
X163805839Y-97251764D01*
X163844219Y-97249911D01*
X163898897Y-97419002D01*
G37*
G36*
X161207924Y-96615908D02*
G01*
X161218378Y-96580103D01*
X161234249Y-96549849D01*
X161256248Y-96522975D01*
X161265719Y-96513789D01*
X161305089Y-96485134D01*
X161348116Y-96467034D01*
X161393003Y-96459129D01*
X161437955Y-96461056D01*
X161481176Y-96472456D01*
X161520871Y-96492967D01*
X161555243Y-96522228D01*
X161582497Y-96559878D01*
X161591926Y-96579377D01*
X161599106Y-96604811D01*
X161604084Y-96639300D01*
X161606863Y-96679595D01*
X161607445Y-96722443D01*
X161605834Y-96764595D01*
X161602031Y-96802798D01*
X161596041Y-96833802D01*
X161591695Y-96846896D01*
X161569178Y-96886289D01*
X161538097Y-96919732D01*
X161501070Y-96944783D01*
X161475483Y-96955277D01*
X161438255Y-96963121D01*
X161397686Y-96965788D01*
X161362458Y-96963036D01*
X161317470Y-96948863D01*
X161276457Y-96923032D01*
X161260899Y-96909091D01*
X161237617Y-96881840D01*
X161220568Y-96851065D01*
X161209113Y-96814692D01*
X161202611Y-96770644D01*
X161200424Y-96716846D01*
X161200416Y-96712860D01*
X161303566Y-96712860D01*
X161304347Y-96753214D01*
X161307187Y-96783524D01*
X161312830Y-96806180D01*
X161322023Y-96823574D01*
X161335509Y-96838094D01*
X161344969Y-96845678D01*
X161372617Y-96859083D01*
X161405090Y-96863697D01*
X161438301Y-96859496D01*
X161468158Y-96846454D01*
X161468193Y-96846431D01*
X161483929Y-96831791D01*
X161495182Y-96810494D01*
X161502390Y-96781015D01*
X161505991Y-96741827D01*
X161506604Y-96712622D01*
X161506359Y-96679832D01*
X161505189Y-96656421D01*
X161502657Y-96639273D01*
X161498328Y-96625271D01*
X161492675Y-96613059D01*
X161473162Y-96587171D01*
X161447431Y-96570271D01*
X161417961Y-96562361D01*
X161387228Y-96563446D01*
X161357709Y-96573528D01*
X161331882Y-96592609D01*
X161316407Y-96612856D01*
X161310893Y-96623818D01*
X161307198Y-96636236D01*
X161304976Y-96652807D01*
X161303882Y-96676228D01*
X161303568Y-96709198D01*
X161303566Y-96712860D01*
X161200416Y-96712860D01*
X161202174Y-96659437D01*
X161207924Y-96615908D01*
G37*
G36*
X165556994Y-96631537D02*
G01*
X165574106Y-96578495D01*
X165599239Y-96534780D01*
X165632169Y-96500633D01*
X165672671Y-96476291D01*
X165715267Y-96462995D01*
X165764392Y-96459200D01*
X165812096Y-96467477D01*
X165856916Y-96487394D01*
X165894516Y-96515789D01*
X165918249Y-96541071D01*
X165935270Y-96567451D01*
X165946639Y-96597731D01*
X165953417Y-96634718D01*
X165956622Y-96680039D01*
X165959186Y-96750369D01*
X165651511Y-96750369D01*
X165651511Y-96767799D01*
X165655703Y-96789144D01*
X165666490Y-96813823D01*
X165681184Y-96836790D01*
X165696750Y-96852748D01*
X165716254Y-96861555D01*
X165743149Y-96866956D01*
X165772681Y-96868513D01*
X165800095Y-96865786D01*
X165809955Y-96863217D01*
X165830103Y-96854624D01*
X165851265Y-96842850D01*
X165854816Y-96840524D01*
X165877443Y-96825169D01*
X165911388Y-96854170D01*
X165928093Y-96869098D01*
X165940211Y-96881179D01*
X165945302Y-96887966D01*
X165945333Y-96888207D01*
X165940910Y-96894868D01*
X165929731Y-96905882D01*
X165923250Y-96911447D01*
X165877918Y-96940941D01*
X165827452Y-96959787D01*
X165774105Y-96967426D01*
X165720130Y-96963295D01*
X165717152Y-96962708D01*
X165668788Y-96947074D01*
X165628048Y-96921624D01*
X165595298Y-96886724D01*
X165570903Y-96842741D01*
X165558300Y-96803969D01*
X165554012Y-96777379D01*
X165551549Y-96743025D01*
X165550946Y-96705519D01*
X165552238Y-96669472D01*
X165552278Y-96669099D01*
X165651511Y-96669099D01*
X165859203Y-96669099D01*
X165854909Y-96645656D01*
X165843114Y-96609713D01*
X165823028Y-96582311D01*
X165795667Y-96564359D01*
X165762051Y-96556768D01*
X165755202Y-96556571D01*
X165726697Y-96559620D01*
X165702480Y-96567698D01*
X165701581Y-96568170D01*
X165682437Y-96583933D01*
X165665765Y-96607124D01*
X165654550Y-96632786D01*
X165651511Y-96651328D01*
X165651511Y-96669099D01*
X165552278Y-96669099D01*
X165555460Y-96639494D01*
X165556994Y-96631537D01*
G37*
G36*
X164964657Y-97255579D02*
G01*
X165000685Y-97274426D01*
X165003377Y-97279283D01*
X165000490Y-97287879D01*
X164991049Y-97301992D01*
X164974080Y-97323397D01*
X164973301Y-97324346D01*
X164937206Y-97368221D01*
X164912728Y-97355462D01*
X164881401Y-97345525D01*
X164849879Y-97346753D01*
X164820887Y-97358292D01*
X164797153Y-97379290D01*
X164787245Y-97394722D01*
X164783882Y-97402595D01*
X164781277Y-97412474D01*
X164779335Y-97425944D01*
X164777964Y-97444591D01*
X164777070Y-97470000D01*
X164776559Y-97503757D01*
X164776338Y-97547446D01*
X164776305Y-97580261D01*
X164776295Y-97744364D01*
X164676271Y-97744364D01*
X164676271Y-97250492D01*
X164776295Y-97250492D01*
X164776295Y-97294889D01*
X164798163Y-97278210D01*
X164836140Y-97256756D01*
X164878323Y-97245800D01*
X164922050Y-97245391D01*
X164964657Y-97255579D01*
G37*
G36*
X165047295Y-96461486D02*
G01*
X165084683Y-96469594D01*
X165112158Y-96482421D01*
X165132720Y-96495129D01*
X165120520Y-96511784D01*
X165109374Y-96526055D01*
X165094083Y-96544505D01*
X165084309Y-96555863D01*
X165060297Y-96583286D01*
X165040512Y-96573054D01*
X165015575Y-96565096D01*
X164986885Y-96563181D01*
X164959775Y-96567232D01*
X164943180Y-96574468D01*
X164932270Y-96581898D01*
X164923622Y-96589178D01*
X164916943Y-96597801D01*
X164911940Y-96609263D01*
X164908320Y-96625055D01*
X164905791Y-96646674D01*
X164904058Y-96675612D01*
X164902830Y-96713364D01*
X164901813Y-96761424D01*
X164901326Y-96787878D01*
X164898200Y-96959796D01*
X164846625Y-96961611D01*
X164795050Y-96963427D01*
X164795050Y-96462293D01*
X164846625Y-96464108D01*
X164898200Y-96465924D01*
X164901326Y-96490400D01*
X164903804Y-96505413D01*
X164906912Y-96509819D01*
X164912185Y-96505481D01*
X164912969Y-96504542D01*
X164938175Y-96483131D01*
X164970995Y-96468593D01*
X165008384Y-96461265D01*
X165047295Y-96461486D01*
G37*
G36*
X163801506Y-96654460D02*
G01*
X163806502Y-96615000D01*
X163814405Y-96583404D01*
X163816555Y-96577796D01*
X163839754Y-96537152D01*
X163870843Y-96504667D01*
X163908002Y-96480621D01*
X163949414Y-96465294D01*
X163993257Y-96458968D01*
X164037715Y-96461922D01*
X164080966Y-96474438D01*
X164121192Y-96496796D01*
X164153529Y-96525813D01*
X164171421Y-96547655D01*
X164184676Y-96569350D01*
X164193932Y-96593289D01*
X164199824Y-96621867D01*
X164202988Y-96657476D01*
X164204061Y-96702509D01*
X164204076Y-96715986D01*
X164203784Y-96753881D01*
X164202898Y-96781993D01*
X164201118Y-96803039D01*
X164198143Y-96819735D01*
X164193674Y-96834799D01*
X164189811Y-96845035D01*
X164171370Y-96878013D01*
X164144392Y-96909539D01*
X164112615Y-96935797D01*
X164086858Y-96950182D01*
X164052214Y-96960546D01*
X164011970Y-96965441D01*
X163972045Y-96964265D01*
X163962256Y-96962858D01*
X163916169Y-96948832D01*
X163875489Y-96924331D01*
X163842048Y-96890762D01*
X163819063Y-96852669D01*
X163809981Y-96824055D01*
X163803654Y-96786582D01*
X163800112Y-96743596D01*
X163799614Y-96712622D01*
X163901217Y-96712622D01*
X163902648Y-96758243D01*
X163907290Y-96793237D01*
X163915962Y-96819248D01*
X163929484Y-96837919D01*
X163948675Y-96850895D01*
X163974355Y-96859820D01*
X163974593Y-96859881D01*
X164011133Y-96863735D01*
X164044176Y-96856316D01*
X164063136Y-96845466D01*
X164079187Y-96831558D01*
X164090564Y-96816017D01*
X164098008Y-96796462D01*
X164102256Y-96770510D01*
X164104048Y-96735778D01*
X164104255Y-96712860D01*
X164103996Y-96678861D01*
X164102989Y-96654662D01*
X164100888Y-96637566D01*
X164097345Y-96624874D01*
X164092015Y-96613891D01*
X164091414Y-96612856D01*
X164068888Y-96585289D01*
X164040170Y-96568568D01*
X164005487Y-96562825D01*
X164004771Y-96562823D01*
X163968643Y-96567473D01*
X163940344Y-96581670D01*
X163919209Y-96605788D01*
X163915146Y-96613059D01*
X163908871Y-96626870D01*
X163904778Y-96641081D01*
X163902430Y-96658809D01*
X163901393Y-96683170D01*
X163901217Y-96712622D01*
X163799614Y-96712622D01*
X163799386Y-96698440D01*
X163801506Y-96654460D01*
G37*
G36*
X162183894Y-96579101D02*
G01*
X162205798Y-96538073D01*
X162226152Y-96513288D01*
X162262052Y-96485782D01*
X162303372Y-96468143D01*
X162347907Y-96460332D01*
X162393448Y-96462312D01*
X162437787Y-96474044D01*
X162478717Y-96495489D01*
X162506090Y-96518165D01*
X162532648Y-96550759D01*
X162551600Y-96588594D01*
X162563514Y-96633407D01*
X162568960Y-96686930D01*
X162569455Y-96711297D01*
X162569502Y-96750369D01*
X162256359Y-96750369D01*
X162260532Y-96773812D01*
X162271862Y-96809670D01*
X162291116Y-96838031D01*
X162316314Y-96856645D01*
X162352809Y-96867639D01*
X162392307Y-96867834D01*
X162432179Y-96857592D01*
X162469796Y-96837275D01*
X162472864Y-96835052D01*
X162480121Y-96830788D01*
X162487438Y-96830842D01*
X162497584Y-96836362D01*
X162513330Y-96848494D01*
X162521488Y-96855185D01*
X162557349Y-96884777D01*
X162528857Y-96910966D01*
X162506872Y-96928007D01*
X162481673Y-96943062D01*
X162467701Y-96949376D01*
X162432580Y-96959114D01*
X162392941Y-96964766D01*
X162354307Y-96965811D01*
X162326516Y-96962715D01*
X162283452Y-96948874D01*
X162244373Y-96926949D01*
X162221209Y-96907443D01*
X162195244Y-96872730D01*
X162176207Y-96830000D01*
X162164068Y-96781625D01*
X162158797Y-96729975D01*
X162160364Y-96677424D01*
X162161729Y-96669099D01*
X162257238Y-96669099D01*
X162463226Y-96669099D01*
X162463226Y-96651328D01*
X162458339Y-96627179D01*
X162445667Y-96601635D01*
X162428195Y-96579653D01*
X162413156Y-96568170D01*
X162384414Y-96558494D01*
X162352499Y-96556741D01*
X162322371Y-96562794D01*
X162306299Y-96570720D01*
X162284016Y-96592597D01*
X162267796Y-96623361D01*
X162260906Y-96648781D01*
X162257238Y-96669099D01*
X162161729Y-96669099D01*
X162168740Y-96626342D01*
X162183894Y-96579101D01*
G37*
G36*
X161794312Y-96462798D02*
G01*
X161794312Y-96511965D01*
X161825362Y-96491070D01*
X161865543Y-96470547D01*
X161907145Y-96460892D01*
X161948346Y-96461514D01*
X161987328Y-96471821D01*
X162022270Y-96491222D01*
X162051352Y-96519125D01*
X162072756Y-96554939D01*
X162079452Y-96573668D01*
X162083827Y-96596517D01*
X162086986Y-96628754D01*
X162088928Y-96667334D01*
X162089651Y-96709209D01*
X162089156Y-96751333D01*
X162087441Y-96790661D01*
X162084505Y-96824146D01*
X162080348Y-96848742D01*
X162079536Y-96851763D01*
X162062086Y-96890746D01*
X162035496Y-96922870D01*
X162001758Y-96946972D01*
X161962864Y-96961887D01*
X161920806Y-96966451D01*
X161889771Y-96962693D01*
X161867560Y-96955327D01*
X161842338Y-96943433D01*
X161827132Y-96934443D01*
X161794312Y-96912781D01*
X161794312Y-97103886D01*
X161794410Y-97159612D01*
X161794734Y-97203893D01*
X161795329Y-97237785D01*
X161796239Y-97262346D01*
X161797508Y-97278631D01*
X161799180Y-97287698D01*
X161801299Y-97290602D01*
X161802126Y-97290376D01*
X161812225Y-97283746D01*
X161826666Y-97273586D01*
X161828695Y-97272116D01*
X161864462Y-97253430D01*
X161904609Y-97244657D01*
X161946208Y-97245566D01*
X161986329Y-97255927D01*
X162022044Y-97275508D01*
X162037206Y-97288557D01*
X162049897Y-97301460D01*
X162060116Y-97313126D01*
X162068145Y-97325054D01*
X162074265Y-97338744D01*
X162078760Y-97355694D01*
X162081912Y-97377404D01*
X162084002Y-97405373D01*
X162085314Y-97441100D01*
X162086129Y-97486085D01*
X162086729Y-97541827D01*
X162086827Y-97552129D01*
X162088646Y-97744364D01*
X161988109Y-97744364D01*
X161988100Y-97580261D01*
X161987966Y-97525995D01*
X161987397Y-97482721D01*
X161986127Y-97448927D01*
X161983893Y-97423103D01*
X161980429Y-97403738D01*
X161975472Y-97389322D01*
X161968756Y-97378344D01*
X161960018Y-97369294D01*
X161949751Y-97361214D01*
X161922380Y-97348325D01*
X161891479Y-97345062D01*
X161860488Y-97350771D01*
X161832851Y-97364799D01*
X161812008Y-97386494D01*
X161811397Y-97387461D01*
X161807203Y-97394706D01*
X161803920Y-97402412D01*
X161801413Y-97412172D01*
X161799549Y-97425577D01*
X161798195Y-97444222D01*
X161797217Y-97469697D01*
X161796481Y-97503597D01*
X161795855Y-97547512D01*
X161795502Y-97577135D01*
X161793566Y-97744364D01*
X161694287Y-97744364D01*
X161694287Y-96725623D01*
X161793912Y-96725623D01*
X161797243Y-96765414D01*
X161805033Y-96801046D01*
X161817301Y-96829379D01*
X161823296Y-96837764D01*
X161843881Y-96853372D01*
X161871349Y-96862293D01*
X161901777Y-96864127D01*
X161931244Y-96858480D01*
X161948309Y-96850429D01*
X161961924Y-96840073D01*
X161971790Y-96827347D01*
X161978468Y-96810193D01*
X161982518Y-96786556D01*
X161984502Y-96754380D01*
X161984984Y-96715986D01*
X161984699Y-96678724D01*
X161983677Y-96651514D01*
X161981669Y-96631916D01*
X161978425Y-96617489D01*
X161973714Y-96605828D01*
X161957298Y-96582914D01*
X161934605Y-96569064D01*
X161904142Y-96563596D01*
X161881847Y-96564032D01*
X161859125Y-96566336D01*
X161844522Y-96570372D01*
X161833655Y-96577959D01*
X161824800Y-96587694D01*
X161810484Y-96612709D01*
X161800551Y-96646130D01*
X161795021Y-96684815D01*
X161793912Y-96725623D01*
X161694287Y-96725623D01*
X161694287Y-96462798D01*
X161794312Y-96462798D01*
G37*
G36*
X163010236Y-97500554D02*
G01*
X163010534Y-97449432D01*
X163011735Y-97408955D01*
X163014295Y-97377270D01*
X163018671Y-97352528D01*
X163025322Y-97332877D01*
X163034704Y-97316465D01*
X163047274Y-97301443D01*
X163063188Y-97286230D01*
X163094730Y-97262925D01*
X163128105Y-97249481D01*
X163167283Y-97244433D01*
X163176627Y-97244302D01*
X163204083Y-97247443D01*
X163233133Y-97255674D01*
X163259405Y-97267342D01*
X163278526Y-97280796D01*
X163281380Y-97283881D01*
X163290540Y-97292273D01*
X163295314Y-97294253D01*
X163297033Y-97288315D01*
X163298695Y-97271758D01*
X163300193Y-97246464D01*
X163301420Y-97214317D01*
X163302268Y-97177201D01*
X163302363Y-97170785D01*
X163304058Y-97047317D01*
X163352508Y-97045491D01*
X163400957Y-97043665D01*
X163400957Y-97744364D01*
X163300932Y-97744364D01*
X163300932Y-97722483D01*
X163299274Y-97706086D01*
X163293775Y-97701470D01*
X163283648Y-97708290D01*
X163279171Y-97712975D01*
X163262795Y-97725019D01*
X163238305Y-97736148D01*
X163210078Y-97744859D01*
X163182487Y-97749651D01*
X163170978Y-97750122D01*
X163146154Y-97747683D01*
X163121202Y-97742243D01*
X163115795Y-97740505D01*
X163082657Y-97723135D01*
X163052302Y-97697005D01*
X163028805Y-97665791D01*
X163024851Y-97658388D01*
X163019907Y-97647724D01*
X163016223Y-97637291D01*
X163013615Y-97625095D01*
X163011897Y-97609143D01*
X163010886Y-97587442D01*
X163010396Y-97557999D01*
X163010278Y-97527486D01*
X163108056Y-97527486D01*
X163112603Y-97569552D01*
X163122300Y-97601685D01*
X163137431Y-97624740D01*
X163158281Y-97639566D01*
X163164451Y-97642097D01*
X163197227Y-97649449D01*
X163228004Y-97645832D01*
X163248365Y-97637811D01*
X163266363Y-97627296D01*
X163279519Y-97614413D01*
X163288537Y-97597164D01*
X163294121Y-97573550D01*
X163296976Y-97541573D01*
X163297804Y-97499233D01*
X163297805Y-97497428D01*
X163297546Y-97462439D01*
X163296547Y-97437222D01*
X163294476Y-97419052D01*
X163291003Y-97405206D01*
X163285794Y-97392958D01*
X163284875Y-97391152D01*
X163266249Y-97367231D01*
X163241259Y-97351665D01*
X163212662Y-97344486D01*
X163183212Y-97345724D01*
X163155665Y-97355411D01*
X163132776Y-97373578D01*
X163122028Y-97389312D01*
X163115445Y-97408902D01*
X163110862Y-97439000D01*
X163108372Y-97474638D01*
X163108056Y-97527486D01*
X163010278Y-97527486D01*
X163010244Y-97518820D01*
X163010236Y-97500554D01*
G37*
G36*
X163641147Y-92749406D02*
G01*
X163691844Y-92749508D01*
X163732396Y-92749748D01*
X163763982Y-92750181D01*
X163787781Y-92750864D01*
X163804972Y-92751854D01*
X163816734Y-92753207D01*
X163824246Y-92754980D01*
X163828686Y-92757228D01*
X163831235Y-92760010D01*
X163832108Y-92761505D01*
X163834678Y-92770210D01*
X163839204Y-92789795D01*
X163845398Y-92818839D01*
X163852971Y-92855921D01*
X163861633Y-92899621D01*
X163871095Y-92948520D01*
X163881068Y-93001196D01*
X163882715Y-93010004D01*
X163892763Y-93062967D01*
X163902416Y-93112209D01*
X163911379Y-93156339D01*
X163919355Y-93193968D01*
X163926050Y-93223705D01*
X163931165Y-93244161D01*
X163934407Y-93253946D01*
X163934759Y-93254457D01*
X163943050Y-93259406D01*
X163961149Y-93268103D01*
X163987202Y-93279788D01*
X164019352Y-93293700D01*
X164055746Y-93309079D01*
X164094530Y-93325166D01*
X164133848Y-93341200D01*
X164171846Y-93356422D01*
X164206669Y-93370071D01*
X164236463Y-93381387D01*
X164259374Y-93389611D01*
X164273546Y-93393981D01*
X164276449Y-93394485D01*
X164285327Y-93391783D01*
X164302018Y-93383093D01*
X164326931Y-93368158D01*
X164360477Y-93346719D01*
X164403064Y-93318517D01*
X164455103Y-93283294D01*
X164485329Y-93262601D01*
X164537697Y-93226641D01*
X164580738Y-93197134D01*
X164615437Y-93173465D01*
X164642782Y-93155019D01*
X164663759Y-93141181D01*
X164679353Y-93131336D01*
X164690552Y-93124870D01*
X164698342Y-93121169D01*
X164703709Y-93119616D01*
X164707639Y-93119597D01*
X164711120Y-93120499D01*
X164712570Y-93120967D01*
X164720560Y-93126500D01*
X164735784Y-93139775D01*
X164757068Y-93159596D01*
X164783237Y-93184767D01*
X164813115Y-93214092D01*
X164845527Y-93246373D01*
X164879298Y-93280415D01*
X164913254Y-93315023D01*
X164946218Y-93348999D01*
X164977015Y-93381147D01*
X165004472Y-93410271D01*
X165027411Y-93435176D01*
X165044659Y-93454664D01*
X165055040Y-93467539D01*
X165057615Y-93472199D01*
X165054175Y-93480076D01*
X165044375Y-93497008D01*
X165028993Y-93521784D01*
X165008809Y-93553195D01*
X164984600Y-93590031D01*
X164957147Y-93631082D01*
X164927227Y-93675138D01*
X164923207Y-93681009D01*
X164882854Y-93740317D01*
X164849586Y-93790165D01*
X164823476Y-93830440D01*
X164804595Y-93861026D01*
X164793018Y-93881809D01*
X164788815Y-93892674D01*
X164788798Y-93893039D01*
X164791265Y-93904109D01*
X164798147Y-93924451D01*
X164808667Y-93952271D01*
X164822049Y-93985776D01*
X164837517Y-94023174D01*
X164854294Y-94062672D01*
X164871604Y-94102476D01*
X164888669Y-94140794D01*
X164904714Y-94175833D01*
X164918962Y-94205799D01*
X164930636Y-94228900D01*
X164938960Y-94243343D01*
X164942200Y-94247235D01*
X164951142Y-94250301D01*
X164970912Y-94255253D01*
X165000031Y-94261780D01*
X165037017Y-94269570D01*
X165080392Y-94278311D01*
X165128676Y-94287689D01*
X165176633Y-94296699D01*
X165228208Y-94306325D01*
X165276311Y-94315474D01*
X165319453Y-94323851D01*
X165356144Y-94331158D01*
X165384892Y-94337099D01*
X165404209Y-94341378D01*
X165412389Y-94343600D01*
X165426455Y-94349510D01*
X165426455Y-94599037D01*
X165426424Y-94661644D01*
X165426298Y-94712903D01*
X165426026Y-94753969D01*
X165425559Y-94785997D01*
X165424848Y-94810144D01*
X165423842Y-94827563D01*
X165422492Y-94839409D01*
X165420748Y-94846839D01*
X165418561Y-94851007D01*
X165415881Y-94853069D01*
X165415515Y-94853233D01*
X165407027Y-94855428D01*
X165387696Y-94859615D01*
X165358973Y-94865504D01*
X165322310Y-94872806D01*
X165279156Y-94881233D01*
X165230964Y-94890496D01*
X165179886Y-94900173D01*
X165117302Y-94912073D01*
X165066124Y-94922106D01*
X165025429Y-94930480D01*
X164994294Y-94937406D01*
X164971796Y-94943095D01*
X164957011Y-94947757D01*
X164949017Y-94951601D01*
X164947399Y-94953108D01*
X164943171Y-94961448D01*
X164934987Y-94979875D01*
X164923493Y-95006850D01*
X164909333Y-95040836D01*
X164893154Y-95080294D01*
X164875600Y-95123684D01*
X164869757Y-95138250D01*
X164846766Y-95196390D01*
X164828743Y-95243565D01*
X164815535Y-95280215D01*
X164806988Y-95306780D01*
X164802947Y-95323701D01*
X164802675Y-95329813D01*
X164806784Y-95338820D01*
X164817228Y-95356777D01*
X164833175Y-95382391D01*
X164853791Y-95414366D01*
X164878245Y-95451409D01*
X164905704Y-95492226D01*
X164931526Y-95530001D01*
X164960757Y-95572746D01*
X164987592Y-95612557D01*
X165011223Y-95648192D01*
X165030844Y-95678411D01*
X165045648Y-95701972D01*
X165054828Y-95717635D01*
X165057615Y-95723948D01*
X165053317Y-95730628D01*
X165041062Y-95745065D01*
X165021804Y-95766246D01*
X164996498Y-95793158D01*
X164966098Y-95824790D01*
X164931561Y-95860130D01*
X164893840Y-95898165D01*
X164883656Y-95908343D01*
X164838398Y-95953362D01*
X164801083Y-95990140D01*
X164770928Y-96019390D01*
X164747149Y-96041827D01*
X164728962Y-96058161D01*
X164715583Y-96069106D01*
X164706229Y-96075376D01*
X164700115Y-96077681D01*
X164697673Y-96077458D01*
X164689838Y-96072975D01*
X164672983Y-96062229D01*
X164648375Y-96046066D01*
X164617281Y-96025330D01*
X164580970Y-96000865D01*
X164540708Y-95973514D01*
X164504985Y-95949082D01*
X164462442Y-95920128D01*
X164422776Y-95893574D01*
X164387250Y-95870232D01*
X164357128Y-95850915D01*
X164333673Y-95836434D01*
X164318149Y-95827601D01*
X164312152Y-95825141D01*
X164302529Y-95827990D01*
X164284245Y-95835827D01*
X164259579Y-95847591D01*
X164230814Y-95862219D01*
X164217747Y-95869128D01*
X164188011Y-95884520D01*
X164161454Y-95897313D01*
X164140329Y-95906494D01*
X164126887Y-95911047D01*
X164123996Y-95911325D01*
X164120606Y-95908452D01*
X164115281Y-95900185D01*
X164107738Y-95885879D01*
X164097691Y-95864888D01*
X164084857Y-95836569D01*
X164068951Y-95800276D01*
X164049691Y-95755365D01*
X164026790Y-95701190D01*
X163999967Y-95637107D01*
X163968935Y-95562472D01*
X163947390Y-95510449D01*
X163919701Y-95443343D01*
X163893469Y-95379434D01*
X163869081Y-95319689D01*
X163846927Y-95265076D01*
X163827393Y-95216561D01*
X163810869Y-95175111D01*
X163797743Y-95141694D01*
X163788403Y-95117276D01*
X163783237Y-95102824D01*
X163782301Y-95099273D01*
X163787759Y-95087847D01*
X163802657Y-95074321D01*
X163808870Y-95070067D01*
X163826656Y-95058132D01*
X163850060Y-95041793D01*
X163874684Y-95024131D01*
X163880392Y-95019960D01*
X163941133Y-94967961D01*
X163992184Y-94908842D01*
X164033213Y-94843777D01*
X164063886Y-94773939D01*
X164083874Y-94700501D01*
X164092842Y-94624636D01*
X164090458Y-94547516D01*
X164076391Y-94470314D01*
X164054669Y-94404684D01*
X164035103Y-94361811D01*
X164012112Y-94323186D01*
X163983393Y-94285485D01*
X163946644Y-94245386D01*
X163938589Y-94237248D01*
X163883189Y-94187993D01*
X163825487Y-94149533D01*
X163762639Y-94120173D01*
X163716660Y-94104870D01*
X163671965Y-94095565D01*
X163619790Y-94090421D01*
X163564444Y-94089439D01*
X163510236Y-94092619D01*
X163461475Y-94099961D01*
X163441592Y-94104870D01*
X163367943Y-94132327D01*
X163299930Y-94170104D01*
X163238567Y-94217119D01*
X163184869Y-94272286D01*
X163139850Y-94334523D01*
X163104525Y-94402745D01*
X163079907Y-94475870D01*
X163075233Y-94496288D01*
X163065205Y-94574841D01*
X163067194Y-94652763D01*
X163080726Y-94728831D01*
X163105328Y-94801825D01*
X163140528Y-94870520D01*
X163185853Y-94933696D01*
X163240829Y-94990131D01*
X163277860Y-95019960D01*
X163302114Y-95037478D01*
X163326222Y-95054425D01*
X163345788Y-95067721D01*
X163349382Y-95070067D01*
X163366766Y-95083750D01*
X163375398Y-95096090D01*
X163375951Y-95099273D01*
X163373612Y-95106954D01*
X163366855Y-95125210D01*
X163356067Y-95153075D01*
X163341637Y-95189580D01*
X163323953Y-95233760D01*
X163303403Y-95284647D01*
X163280376Y-95341273D01*
X163255260Y-95402673D01*
X163228443Y-95467880D01*
X163210862Y-95510449D01*
X163177071Y-95591973D01*
X163147664Y-95662543D01*
X163122357Y-95722804D01*
X163100866Y-95773400D01*
X163082907Y-95814977D01*
X163068197Y-95848179D01*
X163056450Y-95873651D01*
X163047383Y-95892039D01*
X163040712Y-95903986D01*
X163036152Y-95910138D01*
X163034256Y-95911325D01*
X163024888Y-95909117D01*
X163006850Y-95901838D01*
X162982394Y-95890502D01*
X162953773Y-95876123D01*
X162940504Y-95869128D01*
X162910676Y-95853594D01*
X162883967Y-95840468D01*
X162862659Y-95830812D01*
X162849031Y-95825687D01*
X162846100Y-95825141D01*
X162838246Y-95828579D01*
X162821396Y-95838350D01*
X162796813Y-95853642D01*
X162765761Y-95873644D01*
X162729503Y-95897542D01*
X162689302Y-95924526D01*
X162653267Y-95949082D01*
X162610677Y-95978193D01*
X162570980Y-96005125D01*
X162535443Y-96029033D01*
X162505333Y-96049073D01*
X162481918Y-96064400D01*
X162466464Y-96074169D01*
X162460578Y-96077458D01*
X162456034Y-96077190D01*
X162448720Y-96073387D01*
X162437852Y-96065336D01*
X162422647Y-96052324D01*
X162402321Y-96033638D01*
X162376090Y-96008566D01*
X162343169Y-95976395D01*
X162302776Y-95936412D01*
X162274595Y-95908343D01*
X162236205Y-95869775D01*
X162200750Y-95833639D01*
X162169186Y-95800948D01*
X162142468Y-95772715D01*
X162121549Y-95749950D01*
X162107386Y-95733668D01*
X162100934Y-95724879D01*
X162100637Y-95723948D01*
X162104080Y-95716434D01*
X162113871Y-95699907D01*
X162129204Y-95675609D01*
X162149271Y-95644781D01*
X162173266Y-95608662D01*
X162200383Y-95568495D01*
X162226726Y-95530001D01*
X162256129Y-95486944D01*
X162283256Y-95446529D01*
X162307274Y-95410050D01*
X162327351Y-95378802D01*
X162342653Y-95354078D01*
X162352348Y-95337173D01*
X162355576Y-95329813D01*
X162354435Y-95319039D01*
X162348889Y-95298911D01*
X162338786Y-95268990D01*
X162323969Y-95228836D01*
X162304286Y-95178008D01*
X162288495Y-95138250D01*
X162270635Y-95093920D01*
X162253942Y-95053027D01*
X162239062Y-95017110D01*
X162226638Y-94987708D01*
X162217317Y-94966358D01*
X162211744Y-94954600D01*
X162210853Y-94953108D01*
X162205591Y-94949560D01*
X162193950Y-94945289D01*
X162175007Y-94940085D01*
X162147839Y-94933736D01*
X162111523Y-94926034D01*
X162065136Y-94916767D01*
X162007755Y-94905726D01*
X161978366Y-94900173D01*
X161926623Y-94890369D01*
X161878488Y-94881116D01*
X161835411Y-94872702D01*
X161798843Y-94865416D01*
X161770235Y-94859547D01*
X161751039Y-94855385D01*
X161742736Y-94853233D01*
X161739992Y-94851351D01*
X161737747Y-94847504D01*
X161735952Y-94840537D01*
X161734556Y-94829295D01*
X161733511Y-94812623D01*
X161732766Y-94789366D01*
X161732272Y-94758368D01*
X161731979Y-94718474D01*
X161731837Y-94668530D01*
X161731797Y-94607380D01*
X161731796Y-94599037D01*
X161731796Y-94349510D01*
X161745862Y-94343600D01*
X161755116Y-94341125D01*
X161775181Y-94336713D01*
X161804568Y-94330660D01*
X161841787Y-94323264D01*
X161885347Y-94314820D01*
X161933759Y-94305626D01*
X161981618Y-94296699D01*
X162033136Y-94287008D01*
X162081120Y-94277665D01*
X162124090Y-94268982D01*
X162160567Y-94261271D01*
X162189070Y-94254846D01*
X162208119Y-94250017D01*
X162216051Y-94247235D01*
X162221787Y-94239366D01*
X162231377Y-94221676D01*
X162244044Y-94195958D01*
X162259012Y-94164004D01*
X162275504Y-94127609D01*
X162292744Y-94088564D01*
X162309955Y-94048663D01*
X162326360Y-94009699D01*
X162341183Y-93973465D01*
X162353648Y-93941753D01*
X162362978Y-93916357D01*
X162368397Y-93899070D01*
X162369453Y-93893039D01*
X162365739Y-93882831D01*
X162354645Y-93862699D01*
X162336244Y-93832756D01*
X162310608Y-93793116D01*
X162277810Y-93743896D01*
X162237922Y-93685208D01*
X162235045Y-93681009D01*
X162204863Y-93636652D01*
X162177045Y-93595143D01*
X162152372Y-93557693D01*
X162131622Y-93525510D01*
X162115573Y-93499805D01*
X162105005Y-93481787D01*
X162100697Y-93472667D01*
X162100637Y-93472199D01*
X162104916Y-93465244D01*
X162116968Y-93450754D01*
X162135619Y-93429924D01*
X162159693Y-93403950D01*
X162188016Y-93374030D01*
X162219412Y-93341359D01*
X162252706Y-93307134D01*
X162286722Y-93272550D01*
X162320287Y-93238804D01*
X162352224Y-93207093D01*
X162381359Y-93178611D01*
X162406516Y-93154557D01*
X162426520Y-93136125D01*
X162440196Y-93124512D01*
X162445682Y-93120967D01*
X162449344Y-93119885D01*
X162453143Y-93119541D01*
X162458065Y-93120549D01*
X162465096Y-93123523D01*
X162475224Y-93129079D01*
X162489434Y-93137831D01*
X162508712Y-93150393D01*
X162534047Y-93167381D01*
X162566424Y-93189409D01*
X162606830Y-93217091D01*
X162656252Y-93251042D01*
X162673606Y-93262970D01*
X162730558Y-93301858D01*
X162777848Y-93333582D01*
X162815878Y-93358396D01*
X162845052Y-93376554D01*
X162865772Y-93388311D01*
X162878440Y-93393922D01*
X162881797Y-93394505D01*
X162891764Y-93391986D01*
X162911254Y-93385293D01*
X162938412Y-93375186D01*
X162971379Y-93362425D01*
X163008298Y-93347772D01*
X163047311Y-93331987D01*
X163086561Y-93315832D01*
X163124190Y-93300066D01*
X163158340Y-93285451D01*
X163187153Y-93272748D01*
X163208773Y-93262716D01*
X163221342Y-93256118D01*
X163223437Y-93254591D01*
X163226367Y-93246782D01*
X163231213Y-93228058D01*
X163237680Y-93199812D01*
X163245470Y-93163436D01*
X163254288Y-93120320D01*
X163263836Y-93071856D01*
X163273818Y-93019436D01*
X163275559Y-93010108D01*
X163285562Y-92956957D01*
X163295106Y-92907349D01*
X163303901Y-92862706D01*
X163311659Y-92824450D01*
X163318091Y-92794002D01*
X163322906Y-92772783D01*
X163325818Y-92762217D01*
X163326087Y-92761610D01*
X163328149Y-92758535D01*
X163331509Y-92756024D01*
X163337345Y-92754019D01*
X163346837Y-92752464D01*
X163361166Y-92751302D01*
X163381510Y-92750476D01*
X163409048Y-92749928D01*
X163444962Y-92749603D01*
X163490430Y-92749442D01*
X163546631Y-92749388D01*
X163579126Y-92749385D01*
X163641147Y-92749406D01*
G37*
G36*
X164172160Y-97555731D02*
G01*
X164189204Y-97518661D01*
X164216470Y-97488461D01*
X164251166Y-97466873D01*
X164264641Y-97461518D01*
X164279849Y-97457665D01*
X164299330Y-97454992D01*
X164325625Y-97453178D01*
X164361272Y-97451901D01*
X164371508Y-97451639D01*
X164463718Y-97449395D01*
X164463718Y-97413151D01*
X164461906Y-97386354D01*
X164456080Y-97368986D01*
X164452778Y-97364416D01*
X164433483Y-97350661D01*
X164406317Y-97341843D01*
X164374722Y-97337950D01*
X164342142Y-97338970D01*
X164312017Y-97344890D01*
X164287791Y-97355698D01*
X164277083Y-97365041D01*
X164271803Y-97369568D01*
X164265094Y-97369431D01*
X164254425Y-97363615D01*
X164237263Y-97351106D01*
X164231759Y-97346889D01*
X164213957Y-97332545D01*
X164200878Y-97320775D01*
X164195007Y-97313840D01*
X164194902Y-97313369D01*
X164200034Y-97303735D01*
X164213395Y-97290921D01*
X164231931Y-97277137D01*
X164252592Y-97264593D01*
X164272323Y-97255500D01*
X164276934Y-97253971D01*
X164310419Y-97247434D01*
X164350894Y-97244642D01*
X164393431Y-97245574D01*
X164433099Y-97250206D01*
X164453603Y-97254788D01*
X164486910Y-97268802D01*
X164516988Y-97290037D01*
X164540895Y-97315853D01*
X164555686Y-97343610D01*
X164556832Y-97347391D01*
X164558948Y-97361792D01*
X164560719Y-97387654D01*
X164562110Y-97423939D01*
X164563087Y-97469609D01*
X164563618Y-97523627D01*
X164563708Y-97558380D01*
X164563743Y-97744364D01*
X164463718Y-97744364D01*
X164463718Y-97705743D01*
X164444770Y-97721687D01*
X164425426Y-97734380D01*
X164404052Y-97743657D01*
X164402572Y-97744088D01*
X164371789Y-97749122D01*
X164335335Y-97749914D01*
X164299050Y-97746670D01*
X164268775Y-97739592D01*
X164268277Y-97739415D01*
X164228546Y-97719309D01*
X164197830Y-97691522D01*
X164176896Y-97657519D01*
X164166511Y-97618767D01*
X164167018Y-97595890D01*
X164263868Y-97595890D01*
X164268943Y-97620406D01*
X164283430Y-97638436D01*
X164302582Y-97647062D01*
X164320019Y-97650948D01*
X164329310Y-97653129D01*
X164347551Y-97654973D01*
X164371875Y-97654227D01*
X164397737Y-97651400D01*
X164420592Y-97647004D01*
X164435897Y-97641552D01*
X164436727Y-97641041D01*
X164452007Y-97625765D01*
X164460746Y-97603220D01*
X164463708Y-97571370D01*
X164463718Y-97568914D01*
X164463718Y-97538063D01*
X164385163Y-97538063D01*
X164342674Y-97538933D01*
X164311100Y-97542020D01*
X164288942Y-97548037D01*
X164274704Y-97557699D01*
X164266887Y-97571719D01*
X164263994Y-97590813D01*
X164263868Y-97595890D01*
X164167018Y-97595890D01*
X164167442Y-97576733D01*
X164172160Y-97555731D01*
G37*
G36*
X165044023Y-97345243D02*
G01*
X165071117Y-97305736D01*
X165105701Y-97275773D01*
X165147421Y-97255742D01*
X165195924Y-97246027D01*
X165202192Y-97245572D01*
X165254552Y-97247762D01*
X165300924Y-97260766D01*
X165340865Y-97284336D01*
X165373934Y-97318225D01*
X165395860Y-97354040D01*
X165404994Y-97373609D01*
X165411105Y-97390495D01*
X165414949Y-97408369D01*
X165417280Y-97430901D01*
X165418853Y-97461763D01*
X165419051Y-97466836D01*
X165421777Y-97538063D01*
X165112232Y-97538063D01*
X165115723Y-97564091D01*
X165125956Y-97595845D01*
X165146246Y-97622784D01*
X165174449Y-97642814D01*
X165207567Y-97653702D01*
X165235311Y-97653929D01*
X165267054Y-97647553D01*
X165297300Y-97636108D01*
X165318837Y-97622629D01*
X165337080Y-97607278D01*
X165370828Y-97635952D01*
X165387777Y-97650762D01*
X165400471Y-97662625D01*
X165406301Y-97669097D01*
X165406374Y-97669256D01*
X165403209Y-97676774D01*
X165391698Y-97688394D01*
X165374413Y-97702124D01*
X165353925Y-97715974D01*
X165332807Y-97727955D01*
X165326716Y-97730895D01*
X165295620Y-97741135D01*
X165258094Y-97747480D01*
X165218902Y-97749604D01*
X165182808Y-97747181D01*
X165160765Y-97742229D01*
X165120568Y-97725912D01*
X165089273Y-97705475D01*
X165063364Y-97678242D01*
X165048506Y-97656842D01*
X165029988Y-97617828D01*
X165017521Y-97570463D01*
X165011588Y-97517588D01*
X165012669Y-97462044D01*
X165013715Y-97451349D01*
X165013871Y-97450541D01*
X165112232Y-97450541D01*
X165319867Y-97450541D01*
X165315995Y-97430224D01*
X165303943Y-97393287D01*
X165284100Y-97365292D01*
X165257408Y-97347018D01*
X165224808Y-97339240D01*
X165206083Y-97339577D01*
X165171879Y-97348467D01*
X165144280Y-97367012D01*
X165124919Y-97393679D01*
X165115723Y-97424513D01*
X165112232Y-97450541D01*
X165013871Y-97450541D01*
X165024771Y-97393909D01*
X165044023Y-97345243D01*
G37*
G36*
X162175497Y-97537197D02*
G01*
X162193051Y-97505966D01*
X162204538Y-97493071D01*
X162221312Y-97479137D01*
X162239137Y-97468814D01*
X162260320Y-97461508D01*
X162287170Y-97456623D01*
X162321996Y-97453565D01*
X162364765Y-97451805D01*
X162456975Y-97449179D01*
X162456975Y-97415065D01*
X162455762Y-97393354D01*
X162452660Y-97375205D01*
X162450220Y-97368331D01*
X162436268Y-97354349D01*
X162412852Y-97344125D01*
X162382706Y-97338657D01*
X162367310Y-97338014D01*
X162332413Y-97339474D01*
X162306847Y-97344342D01*
X162287730Y-97353351D01*
X162278723Y-97360518D01*
X162262834Y-97375244D01*
X162225496Y-97346248D01*
X162207604Y-97331767D01*
X162194389Y-97319955D01*
X162188307Y-97313031D01*
X162188159Y-97312491D01*
X162192539Y-97306123D01*
X162203830Y-97294729D01*
X162214560Y-97285132D01*
X162240909Y-97266543D01*
X162270575Y-97254034D01*
X162305985Y-97247008D01*
X162349568Y-97244870D01*
X162375980Y-97245479D01*
X162408514Y-97247268D01*
X162432330Y-97249986D01*
X162451213Y-97254373D01*
X162468947Y-97261171D01*
X162478099Y-97265477D01*
X162512718Y-97287763D01*
X162537557Y-97316681D01*
X162551002Y-97344265D01*
X162553708Y-97355811D01*
X162555988Y-97375444D01*
X162557887Y-97404040D01*
X162559452Y-97442473D01*
X162560725Y-97491620D01*
X162561753Y-97552355D01*
X162561792Y-97555255D01*
X162564349Y-97744364D01*
X162456975Y-97744364D01*
X162456975Y-97705743D01*
X162438026Y-97721687D01*
X162418683Y-97734380D01*
X162397309Y-97743657D01*
X162395828Y-97744088D01*
X162366599Y-97748875D01*
X162331582Y-97749812D01*
X162296842Y-97747020D01*
X162271455Y-97741616D01*
X162231089Y-97723586D01*
X162198420Y-97697802D01*
X162175078Y-97665757D01*
X162166723Y-97645740D01*
X162161322Y-97611167D01*
X162162501Y-97597599D01*
X162257257Y-97597599D01*
X162264156Y-97618733D01*
X162279535Y-97636711D01*
X162302359Y-97648911D01*
X162310418Y-97651036D01*
X162329672Y-97653214D01*
X162355293Y-97653796D01*
X162382829Y-97652946D01*
X162407831Y-97650827D01*
X162425845Y-97647600D01*
X162428549Y-97646712D01*
X162441665Y-97635439D01*
X162451275Y-97614494D01*
X162456396Y-97586452D01*
X162456975Y-97572272D01*
X162456975Y-97537094D01*
X162373063Y-97539141D01*
X162338897Y-97540111D01*
X162314852Y-97541340D01*
X162298551Y-97543238D01*
X162287613Y-97546213D01*
X162279659Y-97550676D01*
X162273039Y-97556344D01*
X162259873Y-97575929D01*
X162257257Y-97597599D01*
X162162501Y-97597599D01*
X162164583Y-97573625D01*
X162175497Y-97537197D01*
G37*
G36*
X162910442Y-96462882D02*
G01*
X162946102Y-96473112D01*
X162953972Y-96476819D01*
X162988855Y-96499184D01*
X163014806Y-96527025D01*
X163033344Y-96559697D01*
X163037470Y-96569130D01*
X163040745Y-96578541D01*
X163043289Y-96589486D01*
X163045218Y-96603524D01*
X163046651Y-96622211D01*
X163047704Y-96647104D01*
X163048497Y-96679759D01*
X163049146Y-96721735D01*
X163049770Y-96774587D01*
X163049799Y-96777199D01*
X163051853Y-96963443D01*
X162999787Y-96961619D01*
X162947720Y-96959796D01*
X162944595Y-96791004D01*
X162943575Y-96739895D01*
X162942549Y-96699741D01*
X162941394Y-96668997D01*
X162939989Y-96646116D01*
X162938209Y-96629551D01*
X162935933Y-96617755D01*
X162933038Y-96609182D01*
X162929681Y-96602742D01*
X162909871Y-96579841D01*
X162883501Y-96566765D01*
X162851109Y-96562823D01*
X162817441Y-96566614D01*
X162791657Y-96578786D01*
X162771404Y-96600537D01*
X162768592Y-96604869D01*
X162764193Y-96612343D01*
X162760752Y-96619994D01*
X162758127Y-96629420D01*
X162756179Y-96642222D01*
X162754768Y-96660000D01*
X162753755Y-96684355D01*
X162752999Y-96716886D01*
X162752361Y-96759193D01*
X162751906Y-96795693D01*
X162749890Y-96962921D01*
X162650772Y-96962921D01*
X162650772Y-96462798D01*
X162750797Y-96462798D01*
X162750797Y-96487804D01*
X162752096Y-96505629D01*
X162756851Y-96511696D01*
X162766349Y-96506500D01*
X162775655Y-96497339D01*
X162801534Y-96478183D01*
X162834838Y-96465800D01*
X162872247Y-96460572D01*
X162910442Y-96462882D01*
G37*
%TO.C,J10*%
X140910000Y-90110000D02*
X142240000Y-90110000D01*
X140910000Y-92770000D02*
X143570000Y-92770000D01*
X143570000Y-92710000D02*
X143570000Y-92770000D01*
X140910000Y-92710000D02*
X143570000Y-92710000D01*
X140910000Y-91440000D02*
X140910000Y-90110000D01*
X140910000Y-92710000D02*
X140910000Y-92770000D01*
%TO.C,G\u002A\u002A\u002A*%
G36*
X136520051Y-96695937D02*
G01*
X136966245Y-96696347D01*
X137005309Y-96745643D01*
X137026961Y-96772886D01*
X137046167Y-96796910D01*
X137058763Y-96812508D01*
X137069877Y-96826210D01*
X137089148Y-96850100D01*
X137114640Y-96881769D01*
X137144418Y-96918806D01*
X137176547Y-96958801D01*
X137209093Y-96999344D01*
X137240121Y-97038025D01*
X137267696Y-97072434D01*
X137289883Y-97100160D01*
X137304746Y-97118794D01*
X137310157Y-97125656D01*
X137305764Y-97133835D01*
X137289643Y-97153309D01*
X137262534Y-97183294D01*
X137225179Y-97223004D01*
X137178320Y-97271655D01*
X137122697Y-97328463D01*
X137059053Y-97392643D01*
X137037386Y-97414337D01*
X136757717Y-97693908D01*
X136605898Y-97571599D01*
X136560922Y-97535347D01*
X136519653Y-97502046D01*
X136484306Y-97473486D01*
X136457094Y-97451456D01*
X136440231Y-97437745D01*
X136436686Y-97434832D01*
X136422508Y-97423249D01*
X136398712Y-97404016D01*
X136369248Y-97380318D01*
X136351647Y-97366208D01*
X136284000Y-97312045D01*
X136208444Y-97350326D01*
X136168514Y-97370184D01*
X136127580Y-97389928D01*
X136092601Y-97406220D01*
X136082820Y-97410591D01*
X136032751Y-97432575D01*
X135776007Y-97176269D01*
X135721277Y-97121448D01*
X135670722Y-97070451D01*
X135625595Y-97024568D01*
X135587146Y-96985090D01*
X135556630Y-96953304D01*
X135535297Y-96930503D01*
X135524402Y-96917976D01*
X135523269Y-96915957D01*
X135533287Y-96912624D01*
X135555511Y-96907860D01*
X135582679Y-96903102D01*
X135711993Y-96873751D01*
X135839178Y-96827530D01*
X135963033Y-96764905D01*
X136007885Y-96737601D01*
X136073858Y-96695526D01*
X136520051Y-96695937D01*
G37*
G36*
X134684492Y-96683189D02*
G01*
X134706321Y-96698119D01*
X134733311Y-96716838D01*
X134735796Y-96718574D01*
X134804943Y-96762323D01*
X134882439Y-96803821D01*
X134959436Y-96838426D01*
X134978343Y-96845745D01*
X135014061Y-96858119D01*
X135055303Y-96870990D01*
X135097759Y-96883177D01*
X135137119Y-96893502D01*
X135169073Y-96900782D01*
X135189311Y-96903837D01*
X135190532Y-96903865D01*
X135199124Y-96909842D01*
X135218736Y-96927008D01*
X135248174Y-96954216D01*
X135286240Y-96990318D01*
X135331740Y-97034168D01*
X135383477Y-97084618D01*
X135440255Y-97140520D01*
X135500880Y-97200728D01*
X135523620Y-97223441D01*
X135843108Y-97543016D01*
X135837761Y-97590204D01*
X135834565Y-97618214D01*
X135830018Y-97657812D01*
X135824772Y-97703338D01*
X135820354Y-97741562D01*
X135814285Y-97795271D01*
X135807764Y-97855060D01*
X135801756Y-97911977D01*
X135798782Y-97941220D01*
X135794394Y-97983885D01*
X135790078Y-98023518D01*
X135786417Y-98054867D01*
X135784529Y-98069261D01*
X135779791Y-98101814D01*
X134992891Y-98101814D01*
X134988152Y-98069261D01*
X134985318Y-98047030D01*
X134981415Y-98012768D01*
X134977027Y-97971727D01*
X134973925Y-97941220D01*
X134968532Y-97889312D01*
X134961977Y-97829664D01*
X134955313Y-97771753D01*
X134952207Y-97745902D01*
X134946408Y-97695843D01*
X134940754Y-97642369D01*
X134936060Y-97593404D01*
X134934034Y-97569362D01*
X134930244Y-97533393D01*
X134925417Y-97506247D01*
X134920264Y-97491545D01*
X134918493Y-97490004D01*
X134892768Y-97482254D01*
X134856974Y-97470632D01*
X134815887Y-97456787D01*
X134774284Y-97442363D01*
X134736942Y-97429008D01*
X134708637Y-97418367D01*
X134698388Y-97414151D01*
X134661495Y-97397858D01*
X134661495Y-97033158D01*
X134661591Y-96941036D01*
X134661906Y-96865002D01*
X134662478Y-96803781D01*
X134663346Y-96756100D01*
X134664548Y-96720686D01*
X134666123Y-96696265D01*
X134668110Y-96681565D01*
X134670546Y-96675310D01*
X134672346Y-96675143D01*
X134684492Y-96683189D01*
G37*
G36*
X137037386Y-94110344D02*
G01*
X137103412Y-94176691D01*
X137161650Y-94235914D01*
X137211359Y-94287228D01*
X137251798Y-94329850D01*
X137282226Y-94362993D01*
X137301901Y-94385875D01*
X137310081Y-94397709D01*
X137310157Y-94399026D01*
X137302559Y-94408655D01*
X137286029Y-94429371D01*
X137262523Y-94458735D01*
X137233999Y-94494313D01*
X137202413Y-94533668D01*
X137169723Y-94574363D01*
X137137885Y-94613962D01*
X137108857Y-94650029D01*
X137084595Y-94680128D01*
X137067056Y-94701821D01*
X137058763Y-94711995D01*
X137047205Y-94726179D01*
X137027996Y-94749974D01*
X137004322Y-94779426D01*
X136990303Y-94796917D01*
X136936234Y-94864447D01*
X136982728Y-94957481D01*
X137002311Y-94997476D01*
X137020017Y-95035103D01*
X137033741Y-95065804D01*
X137040810Y-95083341D01*
X137052397Y-95116166D01*
X136801038Y-95367637D01*
X136746643Y-95421923D01*
X136696023Y-95472185D01*
X136650496Y-95517133D01*
X136611381Y-95555478D01*
X136579993Y-95585931D01*
X136557652Y-95607202D01*
X136545674Y-95618003D01*
X136544041Y-95619108D01*
X136536518Y-95612224D01*
X136533134Y-95605376D01*
X136528758Y-95585365D01*
X136527865Y-95572288D01*
X136525187Y-95550138D01*
X136517934Y-95515975D01*
X136507275Y-95474170D01*
X136494381Y-95429092D01*
X136480420Y-95385113D01*
X136469529Y-95354343D01*
X136439099Y-95280207D01*
X136405524Y-95213571D01*
X136365988Y-95147904D01*
X136328207Y-95089038D01*
X136328207Y-94179895D01*
X136356847Y-94155123D01*
X136382112Y-94133779D01*
X136410846Y-94110197D01*
X136419783Y-94103018D01*
X136436658Y-94089504D01*
X136464517Y-94067119D01*
X136500834Y-94037896D01*
X136543081Y-94003870D01*
X136588733Y-93967073D01*
X136605898Y-93953230D01*
X136757717Y-93830774D01*
X137037386Y-94110344D01*
G37*
G36*
X134867479Y-95435170D02*
G01*
X134912915Y-95356627D01*
X134972703Y-95282349D01*
X134991365Y-95262742D01*
X135064627Y-95197793D01*
X135142991Y-95147972D01*
X135230082Y-95111108D01*
X135260393Y-95101691D01*
X135298888Y-95091276D01*
X135330279Y-95084919D01*
X135360898Y-95081961D01*
X135397080Y-95081736D01*
X135437094Y-95083209D01*
X135513080Y-95090002D01*
X135578180Y-95103862D01*
X135638005Y-95126449D01*
X135698167Y-95159419D01*
X135701036Y-95161214D01*
X135766465Y-95212327D01*
X135822304Y-95276467D01*
X135866966Y-95351253D01*
X135898860Y-95434304D01*
X135908162Y-95471534D01*
X135914673Y-95514089D01*
X135918166Y-95562630D01*
X135918775Y-95612999D01*
X135916633Y-95661038D01*
X135911876Y-95702590D01*
X135904636Y-95733497D01*
X135899355Y-95744905D01*
X135885086Y-95766681D01*
X135086853Y-95766681D01*
X135087158Y-95803575D01*
X135095673Y-95886333D01*
X135119001Y-95963712D01*
X135155917Y-96033660D01*
X135205197Y-96094123D01*
X135265617Y-96143049D01*
X135301920Y-96163690D01*
X135330396Y-96177478D01*
X135352778Y-96186715D01*
X135373826Y-96192312D01*
X135398302Y-96195181D01*
X135430966Y-96196233D01*
X135472685Y-96196380D01*
X135518502Y-96196056D01*
X135551514Y-96194620D01*
X135576274Y-96191375D01*
X135597332Y-96185626D01*
X135619242Y-96176676D01*
X135628023Y-96172626D01*
X135664029Y-96152771D01*
X135705747Y-96125265D01*
X135747452Y-96094290D01*
X135783418Y-96064027D01*
X135802194Y-96045417D01*
X135819853Y-96031128D01*
X135838374Y-96029219D01*
X135861019Y-96040277D01*
X135886209Y-96060542D01*
X135923888Y-96093979D01*
X135893836Y-96143656D01*
X135835496Y-96224246D01*
X135766021Y-96292289D01*
X135686735Y-96346702D01*
X135598965Y-96386405D01*
X135594349Y-96387994D01*
X135558336Y-96399109D01*
X135524676Y-96406480D01*
X135487496Y-96410992D01*
X135440925Y-96413533D01*
X135421064Y-96414126D01*
X135375101Y-96414519D01*
X135330701Y-96413520D01*
X135293441Y-96411331D01*
X135271948Y-96408755D01*
X135200983Y-96390088D01*
X135127402Y-96360187D01*
X135058505Y-96322074D01*
X135051732Y-96317647D01*
X134982831Y-96261628D01*
X134924071Y-96192762D01*
X134876009Y-96112683D01*
X134839204Y-96023020D01*
X134814215Y-95925408D01*
X134801601Y-95821477D01*
X134801920Y-95712859D01*
X134812605Y-95619108D01*
X134814564Y-95610427D01*
X135086523Y-95610427D01*
X135323240Y-95610378D01*
X135389461Y-95610044D01*
X135450483Y-95609122D01*
X135503809Y-95607695D01*
X135546943Y-95605846D01*
X135577387Y-95603656D01*
X135591617Y-95601536D01*
X135623190Y-95586391D01*
X135643398Y-95560702D01*
X135653229Y-95522768D01*
X135654557Y-95493236D01*
X135645583Y-95431517D01*
X135620921Y-95374158D01*
X135582132Y-95323575D01*
X135530782Y-95282184D01*
X135510402Y-95270458D01*
X135465130Y-95254932D01*
X135411764Y-95249305D01*
X135356386Y-95253451D01*
X135305078Y-95267245D01*
X135287764Y-95275067D01*
X135230567Y-95313970D01*
X135180713Y-95366330D01*
X135140478Y-95428999D01*
X135112141Y-95498827D01*
X135104611Y-95528233D01*
X135098280Y-95557636D01*
X135092773Y-95582802D01*
X135090962Y-95590895D01*
X135086523Y-95610427D01*
X134814564Y-95610427D01*
X134834630Y-95521491D01*
X134867479Y-95435170D01*
G37*
G36*
X134207645Y-95037591D02*
G01*
X134283680Y-95037906D01*
X134344901Y-95038478D01*
X134392582Y-95039346D01*
X134427996Y-95040548D01*
X134452416Y-95042123D01*
X134467117Y-95044110D01*
X134473371Y-95046546D01*
X134473538Y-95048346D01*
X134465493Y-95060492D01*
X134450563Y-95082321D01*
X134431843Y-95109311D01*
X134430108Y-95111796D01*
X134386358Y-95180943D01*
X134344861Y-95258439D01*
X134310255Y-95335436D01*
X134302936Y-95354343D01*
X134290563Y-95390061D01*
X134277692Y-95431303D01*
X134265504Y-95473759D01*
X134255180Y-95513119D01*
X134247900Y-95545073D01*
X134244844Y-95565311D01*
X134244816Y-95566532D01*
X134238796Y-95576052D01*
X134221674Y-95596154D01*
X134194862Y-95625439D01*
X134159772Y-95662505D01*
X134117813Y-95705954D01*
X134070396Y-95754385D01*
X134018934Y-95806400D01*
X133964836Y-95860597D01*
X133909513Y-95915578D01*
X133854377Y-95969943D01*
X133800838Y-96022292D01*
X133750307Y-96071225D01*
X133704196Y-96115343D01*
X133663914Y-96153246D01*
X133630874Y-96183534D01*
X133606485Y-96204807D01*
X133592159Y-96215666D01*
X133589373Y-96216782D01*
X133567774Y-96214805D01*
X133546013Y-96212464D01*
X133468079Y-96203458D01*
X133404492Y-96196164D01*
X133352357Y-96190261D01*
X133308779Y-96185427D01*
X133270864Y-96181340D01*
X133235716Y-96177678D01*
X133207462Y-96174820D01*
X133164797Y-96170417D01*
X133125165Y-96166088D01*
X133093816Y-96162419D01*
X133079420Y-96160529D01*
X133046867Y-96155791D01*
X133046867Y-95368891D01*
X133079420Y-95364152D01*
X133101651Y-95361318D01*
X133135914Y-95357415D01*
X133176954Y-95353027D01*
X133207462Y-95349925D01*
X133259369Y-95344532D01*
X133319018Y-95337977D01*
X133376929Y-95331313D01*
X133402780Y-95328207D01*
X133452838Y-95322408D01*
X133506312Y-95316754D01*
X133555277Y-95312060D01*
X133579320Y-95310034D01*
X133615289Y-95306244D01*
X133642435Y-95301417D01*
X133657136Y-95296264D01*
X133658677Y-95294493D01*
X133666428Y-95268768D01*
X133678049Y-95232974D01*
X133691895Y-95191887D01*
X133706318Y-95150284D01*
X133719674Y-95112942D01*
X133730315Y-95084637D01*
X133734531Y-95074388D01*
X133750824Y-95037495D01*
X134115523Y-95037495D01*
X134207645Y-95037591D01*
G37*
G36*
X134234335Y-95904527D02*
G01*
X134239414Y-95923466D01*
X134240458Y-95929446D01*
X134268590Y-96061415D01*
X134310231Y-96187660D01*
X134364255Y-96305138D01*
X134406190Y-96376462D01*
X134444475Y-96435644D01*
X134444475Y-97344787D01*
X134415834Y-97369558D01*
X134390552Y-97390902D01*
X134361804Y-97414459D01*
X134352898Y-97421595D01*
X134335701Y-97435331D01*
X134307625Y-97457827D01*
X134271317Y-97486961D01*
X134229424Y-97520607D01*
X134184593Y-97556643D01*
X134175370Y-97564060D01*
X134132303Y-97598679D01*
X134093548Y-97629793D01*
X134061245Y-97655690D01*
X134037529Y-97674657D01*
X134024539Y-97684981D01*
X134023026Y-97686157D01*
X134014847Y-97681764D01*
X133995372Y-97665643D01*
X133965388Y-97638534D01*
X133925678Y-97601179D01*
X133877026Y-97554320D01*
X133820218Y-97498697D01*
X133756038Y-97435053D01*
X133734344Y-97413386D01*
X133454774Y-97133717D01*
X133577082Y-96981898D01*
X133613335Y-96936922D01*
X133646636Y-96895653D01*
X133675196Y-96860306D01*
X133697226Y-96833094D01*
X133710936Y-96816231D01*
X133713850Y-96812686D01*
X133725433Y-96798508D01*
X133744666Y-96774712D01*
X133768363Y-96745248D01*
X133782473Y-96727647D01*
X133836637Y-96660000D01*
X133798355Y-96584444D01*
X133778361Y-96544217D01*
X133758356Y-96502696D01*
X133741746Y-96466989D01*
X133737364Y-96457176D01*
X133714653Y-96405463D01*
X133968829Y-96151178D01*
X134023554Y-96096573D01*
X134074531Y-96045987D01*
X134120445Y-96000702D01*
X134159985Y-95961999D01*
X134191836Y-95931163D01*
X134214687Y-95909474D01*
X134227224Y-95898216D01*
X134229177Y-95896893D01*
X134234335Y-95904527D01*
G37*
G36*
X134068039Y-93872436D02*
G01*
X134089745Y-93889380D01*
X134121924Y-93914852D01*
X134161637Y-93946493D01*
X134205947Y-93981943D01*
X134251915Y-94018845D01*
X134296603Y-94054837D01*
X134337074Y-94087561D01*
X134370389Y-94114657D01*
X134393609Y-94133766D01*
X134396660Y-94136318D01*
X134413377Y-94149992D01*
X134437250Y-94169099D01*
X134452881Y-94181454D01*
X134491670Y-94211942D01*
X134552710Y-94178960D01*
X134592563Y-94158444D01*
X134638624Y-94136224D01*
X134680994Y-94117075D01*
X134681406Y-94116898D01*
X134749062Y-94087817D01*
X135004765Y-94343411D01*
X135059525Y-94398287D01*
X135110271Y-94449411D01*
X135155723Y-94495474D01*
X135194603Y-94535168D01*
X135225632Y-94567185D01*
X135247533Y-94590216D01*
X135259025Y-94602953D01*
X135260469Y-94605038D01*
X135252716Y-94609601D01*
X135232983Y-94614453D01*
X135219235Y-94616664D01*
X135183307Y-94623141D01*
X135136734Y-94633772D01*
X135085279Y-94647030D01*
X135034702Y-94661387D01*
X134990765Y-94675316D01*
X134970640Y-94682578D01*
X134918897Y-94704823D01*
X134861151Y-94733198D01*
X134805039Y-94763761D01*
X134760425Y-94791083D01*
X134716123Y-94820475D01*
X133795412Y-94820475D01*
X133781990Y-94799991D01*
X133767597Y-94780040D01*
X133756957Y-94767438D01*
X133747649Y-94756665D01*
X133729724Y-94735006D01*
X133705383Y-94705155D01*
X133676828Y-94669803D01*
X133661895Y-94651199D01*
X133628581Y-94609657D01*
X133595064Y-94567937D01*
X133564702Y-94530214D01*
X133540853Y-94500662D01*
X133535627Y-94494208D01*
X133512144Y-94464827D01*
X133490527Y-94437078D01*
X133475185Y-94416627D01*
X133474374Y-94415494D01*
X133455937Y-94389602D01*
X134014775Y-93831540D01*
X134068039Y-93872436D01*
G37*
G36*
X137210143Y-95310576D02*
G01*
X137239968Y-95313882D01*
X137281141Y-95318542D01*
X137327770Y-95323885D01*
X137365562Y-95328261D01*
X137419268Y-95334358D01*
X137479055Y-95340902D01*
X137535969Y-95346922D01*
X137565220Y-95349900D01*
X137607885Y-95354287D01*
X137647518Y-95358603D01*
X137678867Y-95362265D01*
X137693261Y-95364152D01*
X137725814Y-95368891D01*
X137725814Y-96155791D01*
X137693261Y-96160529D01*
X137671030Y-96163364D01*
X137636768Y-96167266D01*
X137595727Y-96171654D01*
X137565220Y-96174757D01*
X137513312Y-96180149D01*
X137453664Y-96186705D01*
X137395753Y-96193369D01*
X137369902Y-96196475D01*
X137319843Y-96202273D01*
X137266369Y-96207928D01*
X137217404Y-96212622D01*
X137193362Y-96214648D01*
X137157411Y-96218436D01*
X137130259Y-96223262D01*
X137115536Y-96228413D01*
X137113983Y-96230188D01*
X137104236Y-96262643D01*
X137090543Y-96304966D01*
X137075054Y-96350770D01*
X137059917Y-96393666D01*
X137050156Y-96419911D01*
X137027603Y-96478506D01*
X136664884Y-96478506D01*
X136587427Y-96478415D01*
X136515625Y-96478156D01*
X136451278Y-96477748D01*
X136396183Y-96477211D01*
X136352137Y-96476563D01*
X136320940Y-96475825D01*
X136304387Y-96475016D01*
X136302164Y-96474582D01*
X136306786Y-96466113D01*
X136319032Y-96447212D01*
X136336474Y-96421602D01*
X136340742Y-96415471D01*
X136386905Y-96342605D01*
X136429866Y-96262100D01*
X136465020Y-96182711D01*
X136469745Y-96170338D01*
X136483314Y-96131143D01*
X136496879Y-96087289D01*
X136509274Y-96043114D01*
X136519337Y-96002955D01*
X136525903Y-95971149D01*
X136527865Y-95953809D01*
X136534001Y-95942983D01*
X136552443Y-95920569D01*
X136583242Y-95886513D01*
X136626450Y-95840761D01*
X136682118Y-95783258D01*
X136750298Y-95713950D01*
X136831041Y-95632783D01*
X136843379Y-95620442D01*
X137158894Y-95305016D01*
X137210143Y-95310576D01*
G37*
G36*
X135784529Y-93455420D02*
G01*
X135787364Y-93477651D01*
X135791266Y-93511914D01*
X135795654Y-93552954D01*
X135798757Y-93583462D01*
X135804149Y-93635369D01*
X135810705Y-93695018D01*
X135817369Y-93752929D01*
X135820475Y-93778780D01*
X135826273Y-93828838D01*
X135831928Y-93882312D01*
X135836622Y-93931277D01*
X135838648Y-93955320D01*
X135842438Y-93991289D01*
X135847264Y-94018435D01*
X135852418Y-94033136D01*
X135854188Y-94034677D01*
X135879913Y-94042428D01*
X135915708Y-94054049D01*
X135956794Y-94067895D01*
X135998397Y-94082318D01*
X136035739Y-94095674D01*
X136064044Y-94106315D01*
X136074294Y-94110531D01*
X136111187Y-94126824D01*
X136111187Y-94491011D01*
X136111137Y-94568622D01*
X136110994Y-94640574D01*
X136110770Y-94705074D01*
X136110473Y-94760329D01*
X136110117Y-94804546D01*
X136109710Y-94835930D01*
X136109264Y-94852690D01*
X136109017Y-94855030D01*
X136101435Y-94850347D01*
X136082792Y-94837881D01*
X136056270Y-94819776D01*
X136037400Y-94806755D01*
X135921310Y-94736675D01*
X135795706Y-94680275D01*
X135662993Y-94638608D01*
X135642424Y-94633648D01*
X135577318Y-94618563D01*
X135253944Y-94296359D01*
X134930569Y-93974154D01*
X134935419Y-93930722D01*
X134938397Y-93904377D01*
X134942754Y-93866232D01*
X134947868Y-93821732D01*
X134952327Y-93783120D01*
X134958396Y-93729411D01*
X134964918Y-93669621D01*
X134970925Y-93612705D01*
X134973900Y-93583462D01*
X134978287Y-93540796D01*
X134982603Y-93501163D01*
X134986265Y-93469815D01*
X134988152Y-93455420D01*
X134992891Y-93422867D01*
X135779791Y-93422867D01*
X135784529Y-93455420D01*
G37*
%TO.C,J6*%
X145990000Y-87690000D02*
X148650000Y-87690000D01*
X148650000Y-87630000D02*
X148650000Y-87690000D01*
X145990000Y-86360000D02*
X145990000Y-85030000D01*
X145990000Y-87630000D02*
X145990000Y-87690000D01*
X145990000Y-87630000D02*
X148650000Y-87630000D01*
X145990000Y-85030000D02*
X147320000Y-85030000D01*
%TO.C,J3*%
X138490000Y-87630000D02*
X138490000Y-87690000D01*
X135830000Y-85030000D02*
X137160000Y-85030000D01*
X135830000Y-87630000D02*
X138490000Y-87630000D01*
X135830000Y-87690000D02*
X138490000Y-87690000D01*
X135830000Y-87630000D02*
X135830000Y-87690000D01*
X135830000Y-86360000D02*
X135830000Y-85030000D01*
%TO.C,J9*%
X151070000Y-87630000D02*
X151070000Y-87690000D01*
X151070000Y-85030000D02*
X152400000Y-85030000D01*
X151070000Y-86360000D02*
X151070000Y-85030000D01*
X151070000Y-87630000D02*
X153730000Y-87630000D01*
X153730000Y-87630000D02*
X153730000Y-87690000D01*
X151070000Y-87690000D02*
X153730000Y-87690000D01*
%TO.C,J15*%
X161230000Y-87630000D02*
X161230000Y-87690000D01*
X161230000Y-85030000D02*
X162560000Y-85030000D01*
X161230000Y-86360000D02*
X161230000Y-85030000D01*
X163890000Y-87630000D02*
X163890000Y-87690000D01*
X161230000Y-87690000D02*
X163890000Y-87690000D01*
X161230000Y-87630000D02*
X163890000Y-87630000D01*
%TO.C,J16*%
X156150000Y-90110000D02*
X157480000Y-90110000D01*
X156150000Y-92770000D02*
X158810000Y-92770000D01*
X158810000Y-92710000D02*
X158810000Y-92770000D01*
X156150000Y-92710000D02*
X158810000Y-92710000D01*
X156150000Y-91440000D02*
X156150000Y-90110000D01*
X156150000Y-92710000D02*
X156150000Y-92770000D01*
%TO.C,J17*%
X156150000Y-90170000D02*
X156150000Y-90230000D01*
X156150000Y-88900000D02*
X156150000Y-87570000D01*
X158810000Y-90170000D02*
X158810000Y-90230000D01*
X156150000Y-87570000D02*
X157480000Y-87570000D01*
X156150000Y-90170000D02*
X158810000Y-90170000D01*
X156150000Y-90230000D02*
X158810000Y-90230000D01*
%TO.C,J5*%
X145990000Y-90170000D02*
X145990000Y-90230000D01*
X145990000Y-88900000D02*
X145990000Y-87570000D01*
X145990000Y-90170000D02*
X148650000Y-90170000D01*
X148650000Y-90170000D02*
X148650000Y-90230000D01*
X145990000Y-87570000D02*
X147320000Y-87570000D01*
X145990000Y-90230000D02*
X148650000Y-90230000D01*
%TO.C,J1*%
X135830000Y-90110000D02*
X137160000Y-90110000D01*
X135830000Y-91440000D02*
X135830000Y-90110000D01*
X138490000Y-92710000D02*
X138490000Y-92770000D01*
X135830000Y-92710000D02*
X135830000Y-92770000D01*
X135830000Y-92770000D02*
X138490000Y-92770000D01*
X135830000Y-92710000D02*
X138490000Y-92710000D01*
%TO.C,J14*%
X161230000Y-90170000D02*
X163890000Y-90170000D01*
X161230000Y-88900000D02*
X161230000Y-87570000D01*
X161230000Y-87570000D02*
X162560000Y-87570000D01*
X163890000Y-90170000D02*
X163890000Y-90230000D01*
X161230000Y-90170000D02*
X161230000Y-90230000D01*
X161230000Y-90230000D02*
X163890000Y-90230000D01*
D11*
%TO.C,S1*%
X142060000Y-95680000D02*
X142060000Y-95680000D01*
X141860000Y-95680000D02*
X141860000Y-95680000D01*
D12*
X139460000Y-98280000D02*
X139460000Y-100280000D01*
X142360000Y-96280000D02*
X157360000Y-96280000D01*
X160260000Y-98280000D02*
X160260000Y-100280000D01*
X142360000Y-102280000D02*
X157360000Y-102280000D01*
D11*
X141860000Y-95680000D02*
G75*
G03*
X142060000Y-95680000I100000J0D01*
G01*
X142060000Y-95680000D02*
G75*
G03*
X141860000Y-95680000I-100000J0D01*
G01*
D10*
%TO.C,J13*%
X161230000Y-90110000D02*
X162560000Y-90110000D01*
X161230000Y-91440000D02*
X161230000Y-90110000D01*
X161230000Y-92710000D02*
X163890000Y-92710000D01*
X163890000Y-92710000D02*
X163890000Y-92770000D01*
X161230000Y-92710000D02*
X161230000Y-92770000D01*
X161230000Y-92770000D02*
X163890000Y-92770000D01*
%TO.C,J12*%
X140910000Y-87630000D02*
X143570000Y-87630000D01*
X140910000Y-87690000D02*
X143570000Y-87690000D01*
X140910000Y-86360000D02*
X140910000Y-85030000D01*
X140910000Y-87630000D02*
X140910000Y-87690000D01*
X143570000Y-87630000D02*
X143570000Y-87690000D01*
X140910000Y-85030000D02*
X142240000Y-85030000D01*
%TO.C,J4*%
X148650000Y-92710000D02*
X148650000Y-92770000D01*
X145990000Y-90110000D02*
X147320000Y-90110000D01*
X145990000Y-92770000D02*
X148650000Y-92770000D01*
X145990000Y-92710000D02*
X148650000Y-92710000D01*
X145990000Y-91440000D02*
X145990000Y-90110000D01*
X145990000Y-92710000D02*
X145990000Y-92770000D01*
%TO.C,J11*%
X140910000Y-87570000D02*
X142240000Y-87570000D01*
X140910000Y-90170000D02*
X140910000Y-90230000D01*
X143570000Y-90170000D02*
X143570000Y-90230000D01*
X140910000Y-90170000D02*
X143570000Y-90170000D01*
X140910000Y-90230000D02*
X143570000Y-90230000D01*
X140910000Y-88900000D02*
X140910000Y-87570000D01*
%TD*%
M02*
