%TF.GenerationSoftware,KiCad,Pcbnew,(6.0.0)*%
%TF.CreationDate,2022-01-24T17:52:03-05:00*%
%TF.ProjectId,LED direction board,4c454420-6469-4726-9563-74696f6e2062,rev?*%
%TF.SameCoordinates,Original*%
%TF.FileFunction,Legend,Top*%
%TF.FilePolarity,Positive*%
%FSLAX46Y46*%
G04 Gerber Fmt 4.6, Leading zero omitted, Abs format (unit mm)*
G04 Created by KiCad (PCBNEW (6.0.0)) date 2022-01-24 17:52:03*
%MOMM*%
%LPD*%
G01*
G04 APERTURE LIST*
%ADD10C,0.150000*%
%ADD11C,0.120000*%
G04 APERTURE END LIST*
D10*
X130810000Y-88646000D02*
X130810000Y-89154000D01*
X127627142Y-96020000D02*
X127531904Y-95972380D01*
X127389047Y-95972380D01*
X127246190Y-96020000D01*
X127150952Y-96115238D01*
X127103333Y-96210476D01*
X127055714Y-96400952D01*
X127055714Y-96543809D01*
X127103333Y-96734285D01*
X127150952Y-96829523D01*
X127246190Y-96924761D01*
X127389047Y-96972380D01*
X127484285Y-96972380D01*
X127627142Y-96924761D01*
X127674761Y-96877142D01*
X127674761Y-96543809D01*
X127484285Y-96543809D01*
X128103333Y-96305714D02*
X128103333Y-96972380D01*
X128103333Y-96400952D02*
X128150952Y-96353333D01*
X128246190Y-96305714D01*
X128389047Y-96305714D01*
X128484285Y-96353333D01*
X128531904Y-96448571D01*
X128531904Y-96972380D01*
X129436666Y-96972380D02*
X129436666Y-95972380D01*
X129436666Y-96924761D02*
X129341428Y-96972380D01*
X129150952Y-96972380D01*
X129055714Y-96924761D01*
X129008095Y-96877142D01*
X128960476Y-96781904D01*
X128960476Y-96496190D01*
X129008095Y-96400952D01*
X129055714Y-96353333D01*
X129150952Y-96305714D01*
X129341428Y-96305714D01*
X129436666Y-96353333D01*
X127079523Y-93432380D02*
X127412857Y-94432380D01*
X127746190Y-93432380D01*
X128508095Y-94384761D02*
X128412857Y-94432380D01*
X128222380Y-94432380D01*
X128127142Y-94384761D01*
X128079523Y-94337142D01*
X128031904Y-94241904D01*
X128031904Y-93956190D01*
X128079523Y-93860952D01*
X128127142Y-93813333D01*
X128222380Y-93765714D01*
X128412857Y-93765714D01*
X128508095Y-93813333D01*
X129365238Y-94384761D02*
X129270000Y-94432380D01*
X129079523Y-94432380D01*
X128984285Y-94384761D01*
X128936666Y-94337142D01*
X128889047Y-94241904D01*
X128889047Y-93956190D01*
X128936666Y-93860952D01*
X128984285Y-93813333D01*
X129079523Y-93765714D01*
X129270000Y-93765714D01*
X129365238Y-93813333D01*
X132738761Y-91122285D02*
X132786380Y-91027047D01*
X132786380Y-90836571D01*
X132738761Y-90741333D01*
X132643523Y-90693714D01*
X132595904Y-90693714D01*
X132500666Y-90741333D01*
X132453047Y-90836571D01*
X132453047Y-90979428D01*
X132405428Y-91074666D01*
X132310190Y-91122285D01*
X132262571Y-91122285D01*
X132167333Y-91074666D01*
X132119714Y-90979428D01*
X132119714Y-90836571D01*
X132167333Y-90741333D01*
X132786380Y-90265142D02*
X131786380Y-90265142D01*
X132786380Y-89836571D02*
X132262571Y-89836571D01*
X132167333Y-89884190D01*
X132119714Y-89979428D01*
X132119714Y-90122285D01*
X132167333Y-90217523D01*
X132214952Y-90265142D01*
X132786380Y-89217523D02*
X132738761Y-89312761D01*
X132691142Y-89360380D01*
X132595904Y-89408000D01*
X132310190Y-89408000D01*
X132214952Y-89360380D01*
X132167333Y-89312761D01*
X132119714Y-89217523D01*
X132119714Y-89074666D01*
X132167333Y-88979428D01*
X132214952Y-88931809D01*
X132310190Y-88884190D01*
X132595904Y-88884190D01*
X132691142Y-88931809D01*
X132738761Y-88979428D01*
X132786380Y-89074666D01*
X132786380Y-89217523D01*
X132786380Y-88455619D02*
X132119714Y-88455619D01*
X132310190Y-88455619D02*
X132214952Y-88408000D01*
X132167333Y-88360380D01*
X132119714Y-88265142D01*
X132119714Y-88169904D01*
X132119714Y-87979428D02*
X132119714Y-87598476D01*
X131786380Y-87836571D02*
X132643523Y-87836571D01*
X132738761Y-87788952D01*
X132786380Y-87693714D01*
X132786380Y-87598476D01*
D11*
%TO.C,R9*%
X128507258Y-87107500D02*
X128032742Y-87107500D01*
X128507258Y-88152500D02*
X128032742Y-88152500D01*
%TO.C,R10*%
X131332500Y-88662742D02*
X131332500Y-89137258D01*
X130287500Y-88662742D02*
X130287500Y-89137258D01*
%TO.C,D3*%
X123660000Y-84555000D02*
X125945000Y-84555000D01*
X125945000Y-84555000D02*
X125945000Y-83085000D01*
X125945000Y-83085000D02*
X123660000Y-83085000D01*
%TO.C,R3*%
X120412742Y-84342500D02*
X120887258Y-84342500D01*
X120412742Y-83297500D02*
X120887258Y-83297500D01*
%TO.C,U1*%
X126130000Y-80640000D02*
X127390000Y-80640000D01*
X126130000Y-86650000D02*
X126130000Y-80640000D01*
X132950000Y-84400000D02*
X132950000Y-80640000D01*
X132950000Y-80640000D02*
X131690000Y-80640000D01*
%TO.C,D2*%
X123660000Y-82015000D02*
X125945000Y-82015000D01*
X125945000Y-82015000D02*
X125945000Y-80545000D01*
X125945000Y-80545000D02*
X123660000Y-80545000D01*
%TO.C,D6*%
X123660000Y-92175000D02*
X125945000Y-92175000D01*
X125945000Y-90705000D02*
X123660000Y-90705000D01*
X125945000Y-92175000D02*
X125945000Y-90705000D01*
%TO.C,R8*%
X120412742Y-95997500D02*
X120887258Y-95997500D01*
X120412742Y-97042500D02*
X120887258Y-97042500D01*
%TO.C,R2*%
X120412742Y-81802500D02*
X120887258Y-81802500D01*
X120412742Y-80757500D02*
X120887258Y-80757500D01*
%TO.C,D1*%
X125945000Y-78005000D02*
X123660000Y-78005000D01*
X125945000Y-79475000D02*
X125945000Y-78005000D01*
X123660000Y-79475000D02*
X125945000Y-79475000D01*
%TO.C,D5*%
X125945000Y-89635000D02*
X125945000Y-88165000D01*
X123660000Y-89635000D02*
X125945000Y-89635000D01*
X125945000Y-88165000D02*
X123660000Y-88165000D01*
%TO.C,R5*%
X120412742Y-88377500D02*
X120887258Y-88377500D01*
X120412742Y-89422500D02*
X120887258Y-89422500D01*
%TO.C,R7*%
X120412742Y-93457500D02*
X120887258Y-93457500D01*
X120412742Y-94502500D02*
X120887258Y-94502500D01*
%TO.C,D7*%
X125945000Y-93245000D02*
X123660000Y-93245000D01*
X123660000Y-94715000D02*
X125945000Y-94715000D01*
X125945000Y-94715000D02*
X125945000Y-93245000D01*
%TO.C,J1*%
X115535000Y-97850000D02*
X118195000Y-97850000D01*
X115535000Y-80010000D02*
X118195000Y-80010000D01*
X115535000Y-80010000D02*
X115535000Y-97850000D01*
X118195000Y-77410000D02*
X118195000Y-78740000D01*
X118195000Y-80010000D02*
X118195000Y-97850000D01*
X116865000Y-77410000D02*
X118195000Y-77410000D01*
%TO.C,D8*%
X123660000Y-97255000D02*
X125945000Y-97255000D01*
X125945000Y-95785000D02*
X123660000Y-95785000D01*
X125945000Y-97255000D02*
X125945000Y-95785000D01*
%TO.C,D4*%
X125945000Y-87095000D02*
X125945000Y-85625000D01*
X125945000Y-85625000D02*
X123660000Y-85625000D01*
X123660000Y-87095000D02*
X125945000Y-87095000D01*
%TO.C,G\u002A\u002A\u002A*%
G36*
X127095645Y-90211591D02*
G01*
X127171680Y-90211906D01*
X127232901Y-90212478D01*
X127280582Y-90213346D01*
X127315996Y-90214548D01*
X127340416Y-90216123D01*
X127355117Y-90218110D01*
X127361371Y-90220546D01*
X127361538Y-90222346D01*
X127353493Y-90234492D01*
X127338563Y-90256321D01*
X127319843Y-90283311D01*
X127318108Y-90285796D01*
X127274358Y-90354943D01*
X127232861Y-90432439D01*
X127198255Y-90509436D01*
X127190936Y-90528343D01*
X127178563Y-90564061D01*
X127165692Y-90605303D01*
X127153504Y-90647759D01*
X127143180Y-90687119D01*
X127135900Y-90719073D01*
X127132844Y-90739311D01*
X127132816Y-90740532D01*
X127126796Y-90750052D01*
X127109674Y-90770154D01*
X127082862Y-90799439D01*
X127047772Y-90836505D01*
X127005813Y-90879954D01*
X126958396Y-90928385D01*
X126906934Y-90980400D01*
X126852836Y-91034597D01*
X126797513Y-91089578D01*
X126742377Y-91143943D01*
X126688838Y-91196292D01*
X126638307Y-91245225D01*
X126592196Y-91289343D01*
X126551914Y-91327246D01*
X126518874Y-91357534D01*
X126494485Y-91378807D01*
X126480159Y-91389666D01*
X126477373Y-91390782D01*
X126455774Y-91388805D01*
X126434013Y-91386464D01*
X126356079Y-91377458D01*
X126292492Y-91370164D01*
X126240357Y-91364261D01*
X126196779Y-91359427D01*
X126158864Y-91355340D01*
X126123716Y-91351678D01*
X126095462Y-91348820D01*
X126052797Y-91344417D01*
X126013165Y-91340088D01*
X125981816Y-91336419D01*
X125967420Y-91334529D01*
X125934867Y-91329791D01*
X125934867Y-90542891D01*
X125967420Y-90538152D01*
X125989651Y-90535318D01*
X126023914Y-90531415D01*
X126064954Y-90527027D01*
X126095462Y-90523925D01*
X126147369Y-90518532D01*
X126207018Y-90511977D01*
X126264929Y-90505313D01*
X126290780Y-90502207D01*
X126340838Y-90496408D01*
X126394312Y-90490754D01*
X126443277Y-90486060D01*
X126467320Y-90484034D01*
X126503289Y-90480244D01*
X126530435Y-90475417D01*
X126545136Y-90470264D01*
X126546677Y-90468493D01*
X126554428Y-90442768D01*
X126566049Y-90406974D01*
X126579895Y-90365887D01*
X126594318Y-90324284D01*
X126607674Y-90286942D01*
X126618315Y-90258637D01*
X126622531Y-90248388D01*
X126638824Y-90211495D01*
X127003523Y-90211495D01*
X127095645Y-90211591D01*
G37*
G36*
X130098143Y-90484576D02*
G01*
X130127968Y-90487882D01*
X130169141Y-90492542D01*
X130215770Y-90497885D01*
X130253562Y-90502261D01*
X130307268Y-90508358D01*
X130367055Y-90514902D01*
X130423969Y-90520922D01*
X130453220Y-90523900D01*
X130495885Y-90528287D01*
X130535518Y-90532603D01*
X130566867Y-90536265D01*
X130581261Y-90538152D01*
X130613814Y-90542891D01*
X130613814Y-91329791D01*
X130581261Y-91334529D01*
X130559030Y-91337364D01*
X130524768Y-91341266D01*
X130483727Y-91345654D01*
X130453220Y-91348757D01*
X130401312Y-91354149D01*
X130341664Y-91360705D01*
X130283753Y-91367369D01*
X130257902Y-91370475D01*
X130207843Y-91376273D01*
X130154369Y-91381928D01*
X130105404Y-91386622D01*
X130081362Y-91388648D01*
X130045411Y-91392436D01*
X130018259Y-91397262D01*
X130003536Y-91402413D01*
X130001983Y-91404188D01*
X129992236Y-91436643D01*
X129978543Y-91478966D01*
X129963054Y-91524770D01*
X129947917Y-91567666D01*
X129938156Y-91593911D01*
X129915603Y-91652506D01*
X129552884Y-91652506D01*
X129475427Y-91652415D01*
X129403625Y-91652156D01*
X129339278Y-91651748D01*
X129284183Y-91651211D01*
X129240137Y-91650563D01*
X129208940Y-91649825D01*
X129192387Y-91649016D01*
X129190164Y-91648582D01*
X129194786Y-91640113D01*
X129207032Y-91621212D01*
X129224474Y-91595602D01*
X129228742Y-91589471D01*
X129274905Y-91516605D01*
X129317866Y-91436100D01*
X129353020Y-91356711D01*
X129357745Y-91344338D01*
X129371314Y-91305143D01*
X129384879Y-91261289D01*
X129397274Y-91217114D01*
X129407337Y-91176955D01*
X129413903Y-91145149D01*
X129415865Y-91127809D01*
X129422001Y-91116983D01*
X129440443Y-91094569D01*
X129471242Y-91060513D01*
X129514450Y-91014761D01*
X129570118Y-90957258D01*
X129638298Y-90887950D01*
X129719041Y-90806783D01*
X129731379Y-90794442D01*
X130046894Y-90479016D01*
X130098143Y-90484576D01*
G37*
G36*
X126956039Y-89046436D02*
G01*
X126977745Y-89063380D01*
X127009924Y-89088852D01*
X127049637Y-89120493D01*
X127093947Y-89155943D01*
X127139915Y-89192845D01*
X127184603Y-89228837D01*
X127225074Y-89261561D01*
X127258389Y-89288657D01*
X127281609Y-89307766D01*
X127284660Y-89310318D01*
X127301377Y-89323992D01*
X127325250Y-89343099D01*
X127340881Y-89355454D01*
X127379670Y-89385942D01*
X127440710Y-89352960D01*
X127480563Y-89332444D01*
X127526624Y-89310224D01*
X127568994Y-89291075D01*
X127569406Y-89290898D01*
X127637062Y-89261817D01*
X127892765Y-89517411D01*
X127947525Y-89572287D01*
X127998271Y-89623411D01*
X128043723Y-89669474D01*
X128082603Y-89709168D01*
X128113632Y-89741185D01*
X128135533Y-89764216D01*
X128147025Y-89776953D01*
X128148469Y-89779038D01*
X128140716Y-89783601D01*
X128120983Y-89788453D01*
X128107235Y-89790664D01*
X128071307Y-89797141D01*
X128024734Y-89807772D01*
X127973279Y-89821030D01*
X127922702Y-89835387D01*
X127878765Y-89849316D01*
X127858640Y-89856578D01*
X127806897Y-89878823D01*
X127749151Y-89907198D01*
X127693039Y-89937761D01*
X127648425Y-89965083D01*
X127604123Y-89994475D01*
X126683412Y-89994475D01*
X126669990Y-89973991D01*
X126655597Y-89954040D01*
X126644957Y-89941438D01*
X126635649Y-89930665D01*
X126617724Y-89909006D01*
X126593383Y-89879155D01*
X126564828Y-89843803D01*
X126549895Y-89825199D01*
X126516581Y-89783657D01*
X126483064Y-89741937D01*
X126452702Y-89704214D01*
X126428853Y-89674662D01*
X126423627Y-89668208D01*
X126400144Y-89638827D01*
X126378527Y-89611078D01*
X126363185Y-89590627D01*
X126362374Y-89589494D01*
X126343937Y-89563602D01*
X126902775Y-89005540D01*
X126956039Y-89046436D01*
G37*
G36*
X127755479Y-90609170D02*
G01*
X127800915Y-90530627D01*
X127860703Y-90456349D01*
X127879365Y-90436742D01*
X127952627Y-90371793D01*
X128030991Y-90321972D01*
X128118082Y-90285108D01*
X128148393Y-90275691D01*
X128186888Y-90265276D01*
X128218279Y-90258919D01*
X128248898Y-90255961D01*
X128285080Y-90255736D01*
X128325094Y-90257209D01*
X128401080Y-90264002D01*
X128466180Y-90277862D01*
X128526005Y-90300449D01*
X128586167Y-90333419D01*
X128589036Y-90335214D01*
X128654465Y-90386327D01*
X128710304Y-90450467D01*
X128754966Y-90525253D01*
X128786860Y-90608304D01*
X128796162Y-90645534D01*
X128802673Y-90688089D01*
X128806166Y-90736630D01*
X128806775Y-90786999D01*
X128804633Y-90835038D01*
X128799876Y-90876590D01*
X128792636Y-90907497D01*
X128787355Y-90918905D01*
X128773086Y-90940681D01*
X127974853Y-90940681D01*
X127975158Y-90977575D01*
X127983673Y-91060333D01*
X128007001Y-91137712D01*
X128043917Y-91207660D01*
X128093197Y-91268123D01*
X128153617Y-91317049D01*
X128189920Y-91337690D01*
X128218396Y-91351478D01*
X128240778Y-91360715D01*
X128261826Y-91366312D01*
X128286302Y-91369181D01*
X128318966Y-91370233D01*
X128360685Y-91370380D01*
X128406502Y-91370056D01*
X128439514Y-91368620D01*
X128464274Y-91365375D01*
X128485332Y-91359626D01*
X128507242Y-91350676D01*
X128516023Y-91346626D01*
X128552029Y-91326771D01*
X128593747Y-91299265D01*
X128635452Y-91268290D01*
X128671418Y-91238027D01*
X128690194Y-91219417D01*
X128707853Y-91205128D01*
X128726374Y-91203219D01*
X128749019Y-91214277D01*
X128774209Y-91234542D01*
X128811888Y-91267979D01*
X128781836Y-91317656D01*
X128723496Y-91398246D01*
X128654021Y-91466289D01*
X128574735Y-91520702D01*
X128486965Y-91560405D01*
X128482349Y-91561994D01*
X128446336Y-91573109D01*
X128412676Y-91580480D01*
X128375496Y-91584992D01*
X128328925Y-91587533D01*
X128309064Y-91588126D01*
X128263101Y-91588519D01*
X128218701Y-91587520D01*
X128181441Y-91585331D01*
X128159948Y-91582755D01*
X128088983Y-91564088D01*
X128015402Y-91534187D01*
X127946505Y-91496074D01*
X127939732Y-91491647D01*
X127870831Y-91435628D01*
X127812071Y-91366762D01*
X127764009Y-91286683D01*
X127727204Y-91197020D01*
X127702215Y-91099408D01*
X127689601Y-90995477D01*
X127689920Y-90886859D01*
X127700605Y-90793108D01*
X127702564Y-90784427D01*
X127974523Y-90784427D01*
X128211240Y-90784378D01*
X128277461Y-90784044D01*
X128338483Y-90783122D01*
X128391809Y-90781695D01*
X128434943Y-90779846D01*
X128465387Y-90777656D01*
X128479617Y-90775536D01*
X128511190Y-90760391D01*
X128531398Y-90734702D01*
X128541229Y-90696768D01*
X128542557Y-90667236D01*
X128533583Y-90605517D01*
X128508921Y-90548158D01*
X128470132Y-90497575D01*
X128418782Y-90456184D01*
X128398402Y-90444458D01*
X128353130Y-90428932D01*
X128299764Y-90423305D01*
X128244386Y-90427451D01*
X128193078Y-90441245D01*
X128175764Y-90449067D01*
X128118567Y-90487970D01*
X128068713Y-90540330D01*
X128028478Y-90602999D01*
X128000141Y-90672827D01*
X127992611Y-90702233D01*
X127986280Y-90731636D01*
X127980773Y-90756802D01*
X127978962Y-90764895D01*
X127974523Y-90784427D01*
X127702564Y-90784427D01*
X127722630Y-90695491D01*
X127755479Y-90609170D01*
G37*
G36*
X129408051Y-91869937D02*
G01*
X129854245Y-91870347D01*
X129893309Y-91919643D01*
X129914961Y-91946886D01*
X129934167Y-91970910D01*
X129946763Y-91986508D01*
X129957877Y-92000210D01*
X129977148Y-92024100D01*
X130002640Y-92055769D01*
X130032418Y-92092806D01*
X130064547Y-92132801D01*
X130097093Y-92173344D01*
X130128121Y-92212025D01*
X130155696Y-92246434D01*
X130177883Y-92274160D01*
X130192746Y-92292794D01*
X130198157Y-92299656D01*
X130193764Y-92307835D01*
X130177643Y-92327309D01*
X130150534Y-92357294D01*
X130113179Y-92397004D01*
X130066320Y-92445655D01*
X130010697Y-92502463D01*
X129947053Y-92566643D01*
X129925386Y-92588337D01*
X129645717Y-92867908D01*
X129493898Y-92745599D01*
X129448922Y-92709347D01*
X129407653Y-92676046D01*
X129372306Y-92647486D01*
X129345094Y-92625456D01*
X129328231Y-92611745D01*
X129324686Y-92608832D01*
X129310508Y-92597249D01*
X129286712Y-92578016D01*
X129257248Y-92554318D01*
X129239647Y-92540208D01*
X129172000Y-92486045D01*
X129096444Y-92524326D01*
X129056514Y-92544184D01*
X129015580Y-92563928D01*
X128980601Y-92580220D01*
X128970820Y-92584591D01*
X128920751Y-92606575D01*
X128664007Y-92350269D01*
X128609277Y-92295448D01*
X128558722Y-92244451D01*
X128513595Y-92198568D01*
X128475146Y-92159090D01*
X128444630Y-92127304D01*
X128423297Y-92104503D01*
X128412402Y-92091976D01*
X128411269Y-92089957D01*
X128421287Y-92086624D01*
X128443511Y-92081860D01*
X128470679Y-92077102D01*
X128599993Y-92047751D01*
X128727178Y-92001530D01*
X128851033Y-91938905D01*
X128895885Y-91911601D01*
X128961858Y-91869526D01*
X129408051Y-91869937D01*
G37*
G36*
X127572492Y-91857189D02*
G01*
X127594321Y-91872119D01*
X127621311Y-91890838D01*
X127623796Y-91892574D01*
X127692943Y-91936323D01*
X127770439Y-91977821D01*
X127847436Y-92012426D01*
X127866343Y-92019745D01*
X127902061Y-92032119D01*
X127943303Y-92044990D01*
X127985759Y-92057177D01*
X128025119Y-92067502D01*
X128057073Y-92074782D01*
X128077311Y-92077837D01*
X128078532Y-92077865D01*
X128087124Y-92083842D01*
X128106736Y-92101008D01*
X128136174Y-92128216D01*
X128174240Y-92164318D01*
X128219740Y-92208168D01*
X128271477Y-92258618D01*
X128328255Y-92314520D01*
X128388880Y-92374728D01*
X128411620Y-92397441D01*
X128731108Y-92717016D01*
X128725761Y-92764204D01*
X128722565Y-92792214D01*
X128718018Y-92831812D01*
X128712772Y-92877338D01*
X128708354Y-92915562D01*
X128702285Y-92969271D01*
X128695764Y-93029060D01*
X128689756Y-93085977D01*
X128686782Y-93115220D01*
X128682394Y-93157885D01*
X128678078Y-93197518D01*
X128674417Y-93228867D01*
X128672529Y-93243261D01*
X128667791Y-93275814D01*
X127880891Y-93275814D01*
X127876152Y-93243261D01*
X127873318Y-93221030D01*
X127869415Y-93186768D01*
X127865027Y-93145727D01*
X127861925Y-93115220D01*
X127856532Y-93063312D01*
X127849977Y-93003664D01*
X127843313Y-92945753D01*
X127840207Y-92919902D01*
X127834408Y-92869843D01*
X127828754Y-92816369D01*
X127824060Y-92767404D01*
X127822034Y-92743362D01*
X127818244Y-92707393D01*
X127813417Y-92680247D01*
X127808264Y-92665545D01*
X127806493Y-92664004D01*
X127780768Y-92656254D01*
X127744974Y-92644632D01*
X127703887Y-92630787D01*
X127662284Y-92616363D01*
X127624942Y-92603008D01*
X127596637Y-92592367D01*
X127586388Y-92588151D01*
X127549495Y-92571858D01*
X127549495Y-92207158D01*
X127549591Y-92115036D01*
X127549906Y-92039002D01*
X127550478Y-91977781D01*
X127551346Y-91930100D01*
X127552548Y-91894686D01*
X127554123Y-91870265D01*
X127556110Y-91855565D01*
X127558546Y-91849310D01*
X127560346Y-91849143D01*
X127572492Y-91857189D01*
G37*
G36*
X128672529Y-88629420D02*
G01*
X128675364Y-88651651D01*
X128679266Y-88685914D01*
X128683654Y-88726954D01*
X128686757Y-88757462D01*
X128692149Y-88809369D01*
X128698705Y-88869018D01*
X128705369Y-88926929D01*
X128708475Y-88952780D01*
X128714273Y-89002838D01*
X128719928Y-89056312D01*
X128724622Y-89105277D01*
X128726648Y-89129320D01*
X128730438Y-89165289D01*
X128735264Y-89192435D01*
X128740418Y-89207136D01*
X128742188Y-89208677D01*
X128767913Y-89216428D01*
X128803708Y-89228049D01*
X128844794Y-89241895D01*
X128886397Y-89256318D01*
X128923739Y-89269674D01*
X128952044Y-89280315D01*
X128962294Y-89284531D01*
X128999187Y-89300824D01*
X128999187Y-89665011D01*
X128999137Y-89742622D01*
X128998994Y-89814574D01*
X128998770Y-89879074D01*
X128998473Y-89934329D01*
X128998117Y-89978546D01*
X128997710Y-90009930D01*
X128997264Y-90026690D01*
X128997017Y-90029030D01*
X128989435Y-90024347D01*
X128970792Y-90011881D01*
X128944270Y-89993776D01*
X128925400Y-89980755D01*
X128809310Y-89910675D01*
X128683706Y-89854275D01*
X128550993Y-89812608D01*
X128530424Y-89807648D01*
X128465318Y-89792563D01*
X128141944Y-89470359D01*
X127818569Y-89148154D01*
X127823419Y-89104722D01*
X127826397Y-89078377D01*
X127830754Y-89040232D01*
X127835868Y-88995732D01*
X127840327Y-88957120D01*
X127846396Y-88903411D01*
X127852918Y-88843621D01*
X127858925Y-88786705D01*
X127861900Y-88757462D01*
X127866287Y-88714796D01*
X127870603Y-88675163D01*
X127874265Y-88643815D01*
X127876152Y-88629420D01*
X127880891Y-88596867D01*
X128667791Y-88596867D01*
X128672529Y-88629420D01*
G37*
G36*
X129925386Y-89284344D02*
G01*
X129991412Y-89350691D01*
X130049650Y-89409914D01*
X130099359Y-89461228D01*
X130139798Y-89503850D01*
X130170226Y-89536993D01*
X130189901Y-89559875D01*
X130198081Y-89571709D01*
X130198157Y-89573026D01*
X130190559Y-89582655D01*
X130174029Y-89603371D01*
X130150523Y-89632735D01*
X130121999Y-89668313D01*
X130090413Y-89707668D01*
X130057723Y-89748363D01*
X130025885Y-89787962D01*
X129996857Y-89824029D01*
X129972595Y-89854128D01*
X129955056Y-89875821D01*
X129946763Y-89885995D01*
X129935205Y-89900179D01*
X129915996Y-89923974D01*
X129892322Y-89953426D01*
X129878303Y-89970917D01*
X129824234Y-90038447D01*
X129870728Y-90131481D01*
X129890311Y-90171476D01*
X129908017Y-90209103D01*
X129921741Y-90239804D01*
X129928810Y-90257341D01*
X129940397Y-90290166D01*
X129689038Y-90541637D01*
X129634643Y-90595923D01*
X129584023Y-90646185D01*
X129538496Y-90691133D01*
X129499381Y-90729478D01*
X129467993Y-90759931D01*
X129445652Y-90781202D01*
X129433674Y-90792003D01*
X129432041Y-90793108D01*
X129424518Y-90786224D01*
X129421134Y-90779376D01*
X129416758Y-90759365D01*
X129415865Y-90746288D01*
X129413187Y-90724138D01*
X129405934Y-90689975D01*
X129395275Y-90648170D01*
X129382381Y-90603092D01*
X129368420Y-90559113D01*
X129357529Y-90528343D01*
X129327099Y-90454207D01*
X129293524Y-90387571D01*
X129253988Y-90321904D01*
X129216207Y-90263038D01*
X129216207Y-89353895D01*
X129244847Y-89329123D01*
X129270112Y-89307779D01*
X129298846Y-89284197D01*
X129307783Y-89277018D01*
X129324658Y-89263504D01*
X129352517Y-89241119D01*
X129388834Y-89211896D01*
X129431081Y-89177870D01*
X129476733Y-89141073D01*
X129493898Y-89127230D01*
X129645717Y-89004774D01*
X129925386Y-89284344D01*
G37*
G36*
X127122335Y-91078527D02*
G01*
X127127414Y-91097466D01*
X127128458Y-91103446D01*
X127156590Y-91235415D01*
X127198231Y-91361660D01*
X127252255Y-91479138D01*
X127294190Y-91550462D01*
X127332475Y-91609644D01*
X127332475Y-92518787D01*
X127303834Y-92543558D01*
X127278552Y-92564902D01*
X127249804Y-92588459D01*
X127240898Y-92595595D01*
X127223701Y-92609331D01*
X127195625Y-92631827D01*
X127159317Y-92660961D01*
X127117424Y-92694607D01*
X127072593Y-92730643D01*
X127063370Y-92738060D01*
X127020303Y-92772679D01*
X126981548Y-92803793D01*
X126949245Y-92829690D01*
X126925529Y-92848657D01*
X126912539Y-92858981D01*
X126911026Y-92860157D01*
X126902847Y-92855764D01*
X126883372Y-92839643D01*
X126853388Y-92812534D01*
X126813678Y-92775179D01*
X126765026Y-92728320D01*
X126708218Y-92672697D01*
X126644038Y-92609053D01*
X126622344Y-92587386D01*
X126342774Y-92307717D01*
X126465082Y-92155898D01*
X126501335Y-92110922D01*
X126534636Y-92069653D01*
X126563196Y-92034306D01*
X126585226Y-92007094D01*
X126598936Y-91990231D01*
X126601850Y-91986686D01*
X126613433Y-91972508D01*
X126632666Y-91948712D01*
X126656363Y-91919248D01*
X126670473Y-91901647D01*
X126724637Y-91834000D01*
X126686355Y-91758444D01*
X126666361Y-91718217D01*
X126646356Y-91676696D01*
X126629746Y-91640989D01*
X126625364Y-91631176D01*
X126602653Y-91579463D01*
X126856829Y-91325178D01*
X126911554Y-91270573D01*
X126962531Y-91219987D01*
X127008445Y-91174702D01*
X127047985Y-91135999D01*
X127079836Y-91105163D01*
X127102687Y-91083474D01*
X127115224Y-91072216D01*
X127117177Y-91070893D01*
X127122335Y-91078527D01*
G37*
%TO.C,R1*%
X120412742Y-79262500D02*
X120887258Y-79262500D01*
X120412742Y-78217500D02*
X120887258Y-78217500D01*
%TO.C,R4*%
X120412742Y-85837500D02*
X120887258Y-85837500D01*
X120412742Y-86882500D02*
X120887258Y-86882500D01*
%TO.C,J2*%
X133410000Y-92650000D02*
X130750000Y-92650000D01*
X133410000Y-95250000D02*
X130750000Y-95250000D01*
X133410000Y-96520000D02*
X133410000Y-97850000D01*
X130750000Y-95250000D02*
X130750000Y-92650000D01*
X133410000Y-97850000D02*
X132080000Y-97850000D01*
X133410000Y-95250000D02*
X133410000Y-92650000D01*
%TO.C,R6*%
X120412742Y-91962500D02*
X120887258Y-91962500D01*
X120412742Y-90917500D02*
X120887258Y-90917500D01*
%TD*%
M02*
