%FSLAX45Y45*%
G04 Gerber Fmt 4.5, Leading zero omitted, Abs format (unit mm)*
G04 Created by KiCad (PCBNEW (6.0.0)) date 2022-01-24 17:52:06*
%MOMM*%
%LPD*%
G01*
G04 APERTURE LIST*
%TA.AperFunction,Profile*%
%ADD10C,0.100000*%
%TD*%
%ADD11C,0.200000*%
G04 APERTURE END LIST*
D10*
X13335000Y-9779000D02*
X13335000Y-7747000D01*
X11557000Y-7747000D02*
X11557000Y-9779000D01*
X13335000Y-7747000D02*
X11557000Y-7747000D01*
X11557000Y-9779000D02*
X13335000Y-9779000D01*
D11*
X11809619Y-10094476D02*
X11809619Y-9894476D01*
X11857238Y-9894476D01*
X11885809Y-9904000D01*
X11904857Y-9923048D01*
X11914381Y-9942095D01*
X11923905Y-9980190D01*
X11923905Y-10008762D01*
X11914381Y-10046857D01*
X11904857Y-10065905D01*
X11885809Y-10084952D01*
X11857238Y-10094476D01*
X11809619Y-10094476D01*
X12009619Y-10094476D02*
X12009619Y-9961143D01*
X12009619Y-9999238D02*
X12019143Y-9980190D01*
X12028667Y-9970667D01*
X12047714Y-9961143D01*
X12066762Y-9961143D01*
X12133428Y-10094476D02*
X12133428Y-9961143D01*
X12133428Y-9894476D02*
X12123905Y-9904000D01*
X12133428Y-9913524D01*
X12142952Y-9904000D01*
X12133428Y-9894476D01*
X12133428Y-9913524D01*
X12257238Y-10094476D02*
X12238190Y-10084952D01*
X12228667Y-10065905D01*
X12228667Y-9894476D01*
X12362000Y-10094476D02*
X12342952Y-10084952D01*
X12333428Y-10065905D01*
X12333428Y-9894476D01*
X12590571Y-10094476D02*
X12590571Y-9894476D01*
X12657238Y-10037333D01*
X12723905Y-9894476D01*
X12723905Y-10094476D01*
X12904857Y-10094476D02*
X12904857Y-9989714D01*
X12895333Y-9970667D01*
X12876286Y-9961143D01*
X12838190Y-9961143D01*
X12819143Y-9970667D01*
X12904857Y-10084952D02*
X12885809Y-10094476D01*
X12838190Y-10094476D01*
X12819143Y-10084952D01*
X12809619Y-10065905D01*
X12809619Y-10046857D01*
X12819143Y-10027810D01*
X12838190Y-10018286D01*
X12885809Y-10018286D01*
X12904857Y-10008762D01*
X13000095Y-9961143D02*
X13000095Y-10161143D01*
X13000095Y-9970667D02*
X13019143Y-9961143D01*
X13057238Y-9961143D01*
X13076286Y-9970667D01*
X13085809Y-9980190D01*
X13095333Y-9999238D01*
X13095333Y-10056381D01*
X13085809Y-10075429D01*
X13076286Y-10084952D01*
X13057238Y-10094476D01*
X13019143Y-10094476D01*
X13000095Y-10084952D01*
X13181048Y-10075429D02*
X13190571Y-10084952D01*
X13181048Y-10094476D01*
X13171524Y-10084952D01*
X13181048Y-10075429D01*
X13181048Y-10094476D01*
X13181048Y-9970667D02*
X13190571Y-9980190D01*
X13181048Y-9989714D01*
X13171524Y-9980190D01*
X13181048Y-9970667D01*
X13181048Y-9989714D01*
M02*
