G04 #@! TF.GenerationSoftware,KiCad,Pcbnew,7.0.1*
G04 #@! TF.CreationDate,2023-06-13T03:05:23-04:00*
G04 #@! TF.ProjectId,i2c 24vin,69326320-3234-4766-996e-2e6b69636164,rev?*
G04 #@! TF.SameCoordinates,Original*
G04 #@! TF.FileFunction,Legend,Bot*
G04 #@! TF.FilePolarity,Positive*
%FSLAX46Y46*%
G04 Gerber Fmt 4.6, Leading zero omitted, Abs format (unit mm)*
G04 Created by KiCad (PCBNEW 7.0.1) date 2023-06-13 03:05:23*
%MOMM*%
%LPD*%
G01*
G04 APERTURE LIST*
G04 Aperture macros list*
%AMRoundRect*
0 Rectangle with rounded corners*
0 $1 Rounding radius*
0 $2 $3 $4 $5 $6 $7 $8 $9 X,Y pos of 4 corners*
0 Add a 4 corners polygon primitive as box body*
4,1,4,$2,$3,$4,$5,$6,$7,$8,$9,$2,$3,0*
0 Add four circle primitives for the rounded corners*
1,1,$1+$1,$2,$3*
1,1,$1+$1,$4,$5*
1,1,$1+$1,$6,$7*
1,1,$1+$1,$8,$9*
0 Add four rect primitives between the rounded corners*
20,1,$1+$1,$2,$3,$4,$5,0*
20,1,$1+$1,$4,$5,$6,$7,0*
20,1,$1+$1,$6,$7,$8,$9,0*
20,1,$1+$1,$8,$9,$2,$3,0*%
G04 Aperture macros list end*
%ADD10C,0.150000*%
%ADD11C,0.120000*%
%ADD12R,2.600000X2.600000*%
%ADD13C,2.600000*%
%ADD14R,1.600000X1.600000*%
%ADD15O,1.600000X1.600000*%
%ADD16C,3.200000*%
%ADD17R,1.700000X1.700000*%
%ADD18O,1.700000X1.700000*%
%ADD19RoundRect,0.200000X-0.275000X0.200000X-0.275000X-0.200000X0.275000X-0.200000X0.275000X0.200000X0*%
G04 APERTURE END LIST*
D10*
X168886476Y-129153619D02*
X169457904Y-129153619D01*
X169172190Y-129153619D02*
X169172190Y-128153619D01*
X169172190Y-128153619D02*
X169267428Y-128296476D01*
X169267428Y-128296476D02*
X169362666Y-128391714D01*
X169362666Y-128391714D02*
X169457904Y-128439333D01*
X167934095Y-129153619D02*
X168505523Y-129153619D01*
X168219809Y-129153619D02*
X168219809Y-128153619D01*
X168219809Y-128153619D02*
X168315047Y-128296476D01*
X168315047Y-128296476D02*
X168410285Y-128391714D01*
X168410285Y-128391714D02*
X168505523Y-128439333D01*
X113038285Y-129280619D02*
X113609713Y-129280619D01*
X113323999Y-129280619D02*
X113323999Y-128280619D01*
X113323999Y-128280619D02*
X113419237Y-128423476D01*
X113419237Y-128423476D02*
X113514475Y-128518714D01*
X113514475Y-128518714D02*
X113609713Y-128566333D01*
X204009475Y-128208857D02*
X203961856Y-128161238D01*
X203961856Y-128161238D02*
X203866618Y-128113619D01*
X203866618Y-128113619D02*
X203628523Y-128113619D01*
X203628523Y-128113619D02*
X203533285Y-128161238D01*
X203533285Y-128161238D02*
X203485666Y-128208857D01*
X203485666Y-128208857D02*
X203438047Y-128304095D01*
X203438047Y-128304095D02*
X203438047Y-128399333D01*
X203438047Y-128399333D02*
X203485666Y-128542190D01*
X203485666Y-128542190D02*
X204057094Y-129113619D01*
X204057094Y-129113619D02*
X203438047Y-129113619D01*
X202580904Y-128446952D02*
X202580904Y-129113619D01*
X202818999Y-128066000D02*
X203057094Y-128780285D01*
X203057094Y-128780285D02*
X202438047Y-128780285D01*
X202199951Y-128113619D02*
X201866618Y-129113619D01*
X201866618Y-129113619D02*
X201533285Y-128113619D01*
X181713476Y-129153619D02*
X182284904Y-129153619D01*
X181999190Y-129153619D02*
X181999190Y-128153619D01*
X181999190Y-128153619D02*
X182094428Y-128296476D01*
X182094428Y-128296476D02*
X182189666Y-128391714D01*
X182189666Y-128391714D02*
X182284904Y-128439333D01*
X181380142Y-128153619D02*
X180761095Y-128153619D01*
X180761095Y-128153619D02*
X181094428Y-128534571D01*
X181094428Y-128534571D02*
X180951571Y-128534571D01*
X180951571Y-128534571D02*
X180856333Y-128582190D01*
X180856333Y-128582190D02*
X180808714Y-128629809D01*
X180808714Y-128629809D02*
X180761095Y-128725047D01*
X180761095Y-128725047D02*
X180761095Y-128963142D01*
X180761095Y-128963142D02*
X180808714Y-129058380D01*
X180808714Y-129058380D02*
X180856333Y-129106000D01*
X180856333Y-129106000D02*
X180951571Y-129153619D01*
X180951571Y-129153619D02*
X181237285Y-129153619D01*
X181237285Y-129153619D02*
X181332523Y-129106000D01*
X181332523Y-129106000D02*
X181380142Y-129058380D01*
X130190475Y-86462619D02*
X129857142Y-87462619D01*
X129857142Y-87462619D02*
X129523809Y-86462619D01*
X128761904Y-87415000D02*
X128857142Y-87462619D01*
X128857142Y-87462619D02*
X129047618Y-87462619D01*
X129047618Y-87462619D02*
X129142856Y-87415000D01*
X129142856Y-87415000D02*
X129190475Y-87367380D01*
X129190475Y-87367380D02*
X129238094Y-87272142D01*
X129238094Y-87272142D02*
X129238094Y-86986428D01*
X129238094Y-86986428D02*
X129190475Y-86891190D01*
X129190475Y-86891190D02*
X129142856Y-86843571D01*
X129142856Y-86843571D02*
X129047618Y-86795952D01*
X129047618Y-86795952D02*
X128857142Y-86795952D01*
X128857142Y-86795952D02*
X128761904Y-86843571D01*
X127904761Y-87415000D02*
X127999999Y-87462619D01*
X127999999Y-87462619D02*
X128190475Y-87462619D01*
X128190475Y-87462619D02*
X128285713Y-87415000D01*
X128285713Y-87415000D02*
X128333332Y-87367380D01*
X128333332Y-87367380D02*
X128380951Y-87272142D01*
X128380951Y-87272142D02*
X128380951Y-86986428D01*
X128380951Y-86986428D02*
X128333332Y-86891190D01*
X128333332Y-86891190D02*
X128285713Y-86843571D01*
X128285713Y-86843571D02*
X128190475Y-86795952D01*
X128190475Y-86795952D02*
X127999999Y-86795952D01*
X127999999Y-86795952D02*
X127904761Y-86843571D01*
X189523814Y-82532619D02*
X188952386Y-82532619D01*
X189238100Y-83532619D02*
X189238100Y-82532619D01*
X188619052Y-83532619D02*
X188619052Y-82532619D01*
X188190481Y-83532619D02*
X188190481Y-83008809D01*
X188190481Y-83008809D02*
X188238100Y-82913571D01*
X188238100Y-82913571D02*
X188333338Y-82865952D01*
X188333338Y-82865952D02*
X188476195Y-82865952D01*
X188476195Y-82865952D02*
X188571433Y-82913571D01*
X188571433Y-82913571D02*
X188619052Y-82961190D01*
X187714290Y-83532619D02*
X187714290Y-82865952D01*
X187714290Y-82532619D02*
X187761909Y-82580238D01*
X187761909Y-82580238D02*
X187714290Y-82627857D01*
X187714290Y-82627857D02*
X187666671Y-82580238D01*
X187666671Y-82580238D02*
X187714290Y-82532619D01*
X187714290Y-82532619D02*
X187714290Y-82627857D01*
X187285719Y-83485000D02*
X187190481Y-83532619D01*
X187190481Y-83532619D02*
X187000005Y-83532619D01*
X187000005Y-83532619D02*
X186904767Y-83485000D01*
X186904767Y-83485000D02*
X186857148Y-83389761D01*
X186857148Y-83389761D02*
X186857148Y-83342142D01*
X186857148Y-83342142D02*
X186904767Y-83246904D01*
X186904767Y-83246904D02*
X187000005Y-83199285D01*
X187000005Y-83199285D02*
X187142862Y-83199285D01*
X187142862Y-83199285D02*
X187238100Y-83151666D01*
X187238100Y-83151666D02*
X187285719Y-83056428D01*
X187285719Y-83056428D02*
X187285719Y-83008809D01*
X187285719Y-83008809D02*
X187238100Y-82913571D01*
X187238100Y-82913571D02*
X187142862Y-82865952D01*
X187142862Y-82865952D02*
X187000005Y-82865952D01*
X187000005Y-82865952D02*
X186904767Y-82913571D01*
X185238100Y-83485000D02*
X185333338Y-83532619D01*
X185333338Y-83532619D02*
X185523814Y-83532619D01*
X185523814Y-83532619D02*
X185619052Y-83485000D01*
X185619052Y-83485000D02*
X185666671Y-83437380D01*
X185666671Y-83437380D02*
X185714290Y-83342142D01*
X185714290Y-83342142D02*
X185714290Y-83056428D01*
X185714290Y-83056428D02*
X185666671Y-82961190D01*
X185666671Y-82961190D02*
X185619052Y-82913571D01*
X185619052Y-82913571D02*
X185523814Y-82865952D01*
X185523814Y-82865952D02*
X185333338Y-82865952D01*
X185333338Y-82865952D02*
X185238100Y-82913571D01*
X184380957Y-83532619D02*
X184380957Y-83008809D01*
X184380957Y-83008809D02*
X184428576Y-82913571D01*
X184428576Y-82913571D02*
X184523814Y-82865952D01*
X184523814Y-82865952D02*
X184714290Y-82865952D01*
X184714290Y-82865952D02*
X184809528Y-82913571D01*
X184380957Y-83485000D02*
X184476195Y-83532619D01*
X184476195Y-83532619D02*
X184714290Y-83532619D01*
X184714290Y-83532619D02*
X184809528Y-83485000D01*
X184809528Y-83485000D02*
X184857147Y-83389761D01*
X184857147Y-83389761D02*
X184857147Y-83294523D01*
X184857147Y-83294523D02*
X184809528Y-83199285D01*
X184809528Y-83199285D02*
X184714290Y-83151666D01*
X184714290Y-83151666D02*
X184476195Y-83151666D01*
X184476195Y-83151666D02*
X184380957Y-83104047D01*
X183904766Y-82865952D02*
X183904766Y-83532619D01*
X183904766Y-82961190D02*
X183857147Y-82913571D01*
X183857147Y-82913571D02*
X183761909Y-82865952D01*
X183761909Y-82865952D02*
X183619052Y-82865952D01*
X183619052Y-82865952D02*
X183523814Y-82913571D01*
X183523814Y-82913571D02*
X183476195Y-83008809D01*
X183476195Y-83008809D02*
X183476195Y-83532619D01*
X182238099Y-82865952D02*
X182238099Y-83865952D01*
X182238099Y-82913571D02*
X182142861Y-82865952D01*
X182142861Y-82865952D02*
X181952385Y-82865952D01*
X181952385Y-82865952D02*
X181857147Y-82913571D01*
X181857147Y-82913571D02*
X181809528Y-82961190D01*
X181809528Y-82961190D02*
X181761909Y-83056428D01*
X181761909Y-83056428D02*
X181761909Y-83342142D01*
X181761909Y-83342142D02*
X181809528Y-83437380D01*
X181809528Y-83437380D02*
X181857147Y-83485000D01*
X181857147Y-83485000D02*
X181952385Y-83532619D01*
X181952385Y-83532619D02*
X182142861Y-83532619D01*
X182142861Y-83532619D02*
X182238099Y-83485000D01*
X181190480Y-83532619D02*
X181285718Y-83485000D01*
X181285718Y-83485000D02*
X181333337Y-83437380D01*
X181333337Y-83437380D02*
X181380956Y-83342142D01*
X181380956Y-83342142D02*
X181380956Y-83056428D01*
X181380956Y-83056428D02*
X181333337Y-82961190D01*
X181333337Y-82961190D02*
X181285718Y-82913571D01*
X181285718Y-82913571D02*
X181190480Y-82865952D01*
X181190480Y-82865952D02*
X181047623Y-82865952D01*
X181047623Y-82865952D02*
X180952385Y-82913571D01*
X180952385Y-82913571D02*
X180904766Y-82961190D01*
X180904766Y-82961190D02*
X180857147Y-83056428D01*
X180857147Y-83056428D02*
X180857147Y-83342142D01*
X180857147Y-83342142D02*
X180904766Y-83437380D01*
X180904766Y-83437380D02*
X180952385Y-83485000D01*
X180952385Y-83485000D02*
X181047623Y-83532619D01*
X181047623Y-83532619D02*
X181190480Y-83532619D01*
X180571432Y-82865952D02*
X180190480Y-82865952D01*
X180428575Y-82532619D02*
X180428575Y-83389761D01*
X180428575Y-83389761D02*
X180380956Y-83485000D01*
X180380956Y-83485000D02*
X180285718Y-83532619D01*
X180285718Y-83532619D02*
X180190480Y-83532619D01*
X179476194Y-83485000D02*
X179571432Y-83532619D01*
X179571432Y-83532619D02*
X179761908Y-83532619D01*
X179761908Y-83532619D02*
X179857146Y-83485000D01*
X179857146Y-83485000D02*
X179904765Y-83389761D01*
X179904765Y-83389761D02*
X179904765Y-83008809D01*
X179904765Y-83008809D02*
X179857146Y-82913571D01*
X179857146Y-82913571D02*
X179761908Y-82865952D01*
X179761908Y-82865952D02*
X179571432Y-82865952D01*
X179571432Y-82865952D02*
X179476194Y-82913571D01*
X179476194Y-82913571D02*
X179428575Y-83008809D01*
X179428575Y-83008809D02*
X179428575Y-83104047D01*
X179428575Y-83104047D02*
X179904765Y-83199285D01*
X179000003Y-82865952D02*
X179000003Y-83532619D01*
X179000003Y-82961190D02*
X178952384Y-82913571D01*
X178952384Y-82913571D02*
X178857146Y-82865952D01*
X178857146Y-82865952D02*
X178714289Y-82865952D01*
X178714289Y-82865952D02*
X178619051Y-82913571D01*
X178619051Y-82913571D02*
X178571432Y-83008809D01*
X178571432Y-83008809D02*
X178571432Y-83532619D01*
X178238098Y-82865952D02*
X177857146Y-82865952D01*
X178095241Y-82532619D02*
X178095241Y-83389761D01*
X178095241Y-83389761D02*
X178047622Y-83485000D01*
X178047622Y-83485000D02*
X177952384Y-83532619D01*
X177952384Y-83532619D02*
X177857146Y-83532619D01*
X177523812Y-83532619D02*
X177523812Y-82865952D01*
X177523812Y-82532619D02*
X177571431Y-82580238D01*
X177571431Y-82580238D02*
X177523812Y-82627857D01*
X177523812Y-82627857D02*
X177476193Y-82580238D01*
X177476193Y-82580238D02*
X177523812Y-82532619D01*
X177523812Y-82532619D02*
X177523812Y-82627857D01*
X176619051Y-83532619D02*
X176619051Y-83008809D01*
X176619051Y-83008809D02*
X176666670Y-82913571D01*
X176666670Y-82913571D02*
X176761908Y-82865952D01*
X176761908Y-82865952D02*
X176952384Y-82865952D01*
X176952384Y-82865952D02*
X177047622Y-82913571D01*
X176619051Y-83485000D02*
X176714289Y-83532619D01*
X176714289Y-83532619D02*
X176952384Y-83532619D01*
X176952384Y-83532619D02*
X177047622Y-83485000D01*
X177047622Y-83485000D02*
X177095241Y-83389761D01*
X177095241Y-83389761D02*
X177095241Y-83294523D01*
X177095241Y-83294523D02*
X177047622Y-83199285D01*
X177047622Y-83199285D02*
X176952384Y-83151666D01*
X176952384Y-83151666D02*
X176714289Y-83151666D01*
X176714289Y-83151666D02*
X176619051Y-83104047D01*
X176000003Y-83532619D02*
X176095241Y-83485000D01*
X176095241Y-83485000D02*
X176142860Y-83389761D01*
X176142860Y-83389761D02*
X176142860Y-82532619D01*
X175476193Y-83532619D02*
X175571431Y-83485000D01*
X175571431Y-83485000D02*
X175619050Y-83389761D01*
X175619050Y-83389761D02*
X175619050Y-82532619D01*
X175190478Y-82865952D02*
X174952383Y-83532619D01*
X174714288Y-82865952D02*
X174952383Y-83532619D01*
X174952383Y-83532619D02*
X175047621Y-83770714D01*
X175047621Y-83770714D02*
X175095240Y-83818333D01*
X175095240Y-83818333D02*
X175190478Y-83865952D01*
X173714287Y-82865952D02*
X173333335Y-82865952D01*
X173571430Y-82532619D02*
X173571430Y-83389761D01*
X173571430Y-83389761D02*
X173523811Y-83485000D01*
X173523811Y-83485000D02*
X173428573Y-83532619D01*
X173428573Y-83532619D02*
X173333335Y-83532619D01*
X172571430Y-83532619D02*
X172571430Y-83008809D01*
X172571430Y-83008809D02*
X172619049Y-82913571D01*
X172619049Y-82913571D02*
X172714287Y-82865952D01*
X172714287Y-82865952D02*
X172904763Y-82865952D01*
X172904763Y-82865952D02*
X173000001Y-82913571D01*
X172571430Y-83485000D02*
X172666668Y-83532619D01*
X172666668Y-83532619D02*
X172904763Y-83532619D01*
X172904763Y-83532619D02*
X173000001Y-83485000D01*
X173000001Y-83485000D02*
X173047620Y-83389761D01*
X173047620Y-83389761D02*
X173047620Y-83294523D01*
X173047620Y-83294523D02*
X173000001Y-83199285D01*
X173000001Y-83199285D02*
X172904763Y-83151666D01*
X172904763Y-83151666D02*
X172666668Y-83151666D01*
X172666668Y-83151666D02*
X172571430Y-83104047D01*
X172095239Y-83532619D02*
X172095239Y-82532619D01*
X172000001Y-83151666D02*
X171714287Y-83532619D01*
X171714287Y-82865952D02*
X172095239Y-83246904D01*
X170904763Y-83485000D02*
X171000001Y-83532619D01*
X171000001Y-83532619D02*
X171190477Y-83532619D01*
X171190477Y-83532619D02*
X171285715Y-83485000D01*
X171285715Y-83485000D02*
X171333334Y-83389761D01*
X171333334Y-83389761D02*
X171333334Y-83008809D01*
X171333334Y-83008809D02*
X171285715Y-82913571D01*
X171285715Y-82913571D02*
X171190477Y-82865952D01*
X171190477Y-82865952D02*
X171000001Y-82865952D01*
X171000001Y-82865952D02*
X170904763Y-82913571D01*
X170904763Y-82913571D02*
X170857144Y-83008809D01*
X170857144Y-83008809D02*
X170857144Y-83104047D01*
X170857144Y-83104047D02*
X171333334Y-83199285D01*
X169238096Y-83532619D02*
X169238096Y-83008809D01*
X169238096Y-83008809D02*
X169285715Y-82913571D01*
X169285715Y-82913571D02*
X169380953Y-82865952D01*
X169380953Y-82865952D02*
X169571429Y-82865952D01*
X169571429Y-82865952D02*
X169666667Y-82913571D01*
X169238096Y-83485000D02*
X169333334Y-83532619D01*
X169333334Y-83532619D02*
X169571429Y-83532619D01*
X169571429Y-83532619D02*
X169666667Y-83485000D01*
X169666667Y-83485000D02*
X169714286Y-83389761D01*
X169714286Y-83389761D02*
X169714286Y-83294523D01*
X169714286Y-83294523D02*
X169666667Y-83199285D01*
X169666667Y-83199285D02*
X169571429Y-83151666D01*
X169571429Y-83151666D02*
X169333334Y-83151666D01*
X169333334Y-83151666D02*
X169238096Y-83104047D01*
X168000000Y-83532619D02*
X168000000Y-82865952D01*
X168000000Y-83056428D02*
X167952381Y-82961190D01*
X167952381Y-82961190D02*
X167904762Y-82913571D01*
X167904762Y-82913571D02*
X167809524Y-82865952D01*
X167809524Y-82865952D02*
X167714286Y-82865952D01*
X166952381Y-83532619D02*
X166952381Y-83008809D01*
X166952381Y-83008809D02*
X167000000Y-82913571D01*
X167000000Y-82913571D02*
X167095238Y-82865952D01*
X167095238Y-82865952D02*
X167285714Y-82865952D01*
X167285714Y-82865952D02*
X167380952Y-82913571D01*
X166952381Y-83485000D02*
X167047619Y-83532619D01*
X167047619Y-83532619D02*
X167285714Y-83532619D01*
X167285714Y-83532619D02*
X167380952Y-83485000D01*
X167380952Y-83485000D02*
X167428571Y-83389761D01*
X167428571Y-83389761D02*
X167428571Y-83294523D01*
X167428571Y-83294523D02*
X167380952Y-83199285D01*
X167380952Y-83199285D02*
X167285714Y-83151666D01*
X167285714Y-83151666D02*
X167047619Y-83151666D01*
X167047619Y-83151666D02*
X166952381Y-83104047D01*
X166476190Y-82865952D02*
X166476190Y-83532619D01*
X166476190Y-82961190D02*
X166428571Y-82913571D01*
X166428571Y-82913571D02*
X166333333Y-82865952D01*
X166333333Y-82865952D02*
X166190476Y-82865952D01*
X166190476Y-82865952D02*
X166095238Y-82913571D01*
X166095238Y-82913571D02*
X166047619Y-83008809D01*
X166047619Y-83008809D02*
X166047619Y-83532619D01*
X165142857Y-82865952D02*
X165142857Y-83675476D01*
X165142857Y-83675476D02*
X165190476Y-83770714D01*
X165190476Y-83770714D02*
X165238095Y-83818333D01*
X165238095Y-83818333D02*
X165333333Y-83865952D01*
X165333333Y-83865952D02*
X165476190Y-83865952D01*
X165476190Y-83865952D02*
X165571428Y-83818333D01*
X165142857Y-83485000D02*
X165238095Y-83532619D01*
X165238095Y-83532619D02*
X165428571Y-83532619D01*
X165428571Y-83532619D02*
X165523809Y-83485000D01*
X165523809Y-83485000D02*
X165571428Y-83437380D01*
X165571428Y-83437380D02*
X165619047Y-83342142D01*
X165619047Y-83342142D02*
X165619047Y-83056428D01*
X165619047Y-83056428D02*
X165571428Y-82961190D01*
X165571428Y-82961190D02*
X165523809Y-82913571D01*
X165523809Y-82913571D02*
X165428571Y-82865952D01*
X165428571Y-82865952D02*
X165238095Y-82865952D01*
X165238095Y-82865952D02*
X165142857Y-82913571D01*
X164285714Y-83485000D02*
X164380952Y-83532619D01*
X164380952Y-83532619D02*
X164571428Y-83532619D01*
X164571428Y-83532619D02*
X164666666Y-83485000D01*
X164666666Y-83485000D02*
X164714285Y-83389761D01*
X164714285Y-83389761D02*
X164714285Y-83008809D01*
X164714285Y-83008809D02*
X164666666Y-82913571D01*
X164666666Y-82913571D02*
X164571428Y-82865952D01*
X164571428Y-82865952D02*
X164380952Y-82865952D01*
X164380952Y-82865952D02*
X164285714Y-82913571D01*
X164285714Y-82913571D02*
X164238095Y-83008809D01*
X164238095Y-83008809D02*
X164238095Y-83104047D01*
X164238095Y-83104047D02*
X164714285Y-83199285D01*
X162904761Y-83532619D02*
X162999999Y-83485000D01*
X162999999Y-83485000D02*
X163047618Y-83437380D01*
X163047618Y-83437380D02*
X163095237Y-83342142D01*
X163095237Y-83342142D02*
X163095237Y-83056428D01*
X163095237Y-83056428D02*
X163047618Y-82961190D01*
X163047618Y-82961190D02*
X162999999Y-82913571D01*
X162999999Y-82913571D02*
X162904761Y-82865952D01*
X162904761Y-82865952D02*
X162761904Y-82865952D01*
X162761904Y-82865952D02*
X162666666Y-82913571D01*
X162666666Y-82913571D02*
X162619047Y-82961190D01*
X162619047Y-82961190D02*
X162571428Y-83056428D01*
X162571428Y-83056428D02*
X162571428Y-83342142D01*
X162571428Y-83342142D02*
X162619047Y-83437380D01*
X162619047Y-83437380D02*
X162666666Y-83485000D01*
X162666666Y-83485000D02*
X162761904Y-83532619D01*
X162761904Y-83532619D02*
X162904761Y-83532619D01*
X162285713Y-82865952D02*
X161904761Y-82865952D01*
X162142856Y-83532619D02*
X162142856Y-82675476D01*
X162142856Y-82675476D02*
X162095237Y-82580238D01*
X162095237Y-82580238D02*
X161999999Y-82532619D01*
X161999999Y-82532619D02*
X161904761Y-82532619D01*
X160809522Y-83532619D02*
X160809522Y-82865952D01*
X160809522Y-82532619D02*
X160857141Y-82580238D01*
X160857141Y-82580238D02*
X160809522Y-82627857D01*
X160809522Y-82627857D02*
X160761903Y-82580238D01*
X160761903Y-82580238D02*
X160809522Y-82532619D01*
X160809522Y-82532619D02*
X160809522Y-82627857D01*
X160333332Y-82865952D02*
X160333332Y-83532619D01*
X160333332Y-82961190D02*
X160285713Y-82913571D01*
X160285713Y-82913571D02*
X160190475Y-82865952D01*
X160190475Y-82865952D02*
X160047618Y-82865952D01*
X160047618Y-82865952D02*
X159952380Y-82913571D01*
X159952380Y-82913571D02*
X159904761Y-83008809D01*
X159904761Y-83008809D02*
X159904761Y-83532619D01*
X159428570Y-82865952D02*
X159428570Y-83865952D01*
X159428570Y-82913571D02*
X159333332Y-82865952D01*
X159333332Y-82865952D02*
X159142856Y-82865952D01*
X159142856Y-82865952D02*
X159047618Y-82913571D01*
X159047618Y-82913571D02*
X158999999Y-82961190D01*
X158999999Y-82961190D02*
X158952380Y-83056428D01*
X158952380Y-83056428D02*
X158952380Y-83342142D01*
X158952380Y-83342142D02*
X158999999Y-83437380D01*
X158999999Y-83437380D02*
X159047618Y-83485000D01*
X159047618Y-83485000D02*
X159142856Y-83532619D01*
X159142856Y-83532619D02*
X159333332Y-83532619D01*
X159333332Y-83532619D02*
X159428570Y-83485000D01*
X158095237Y-82865952D02*
X158095237Y-83532619D01*
X158523808Y-82865952D02*
X158523808Y-83389761D01*
X158523808Y-83389761D02*
X158476189Y-83485000D01*
X158476189Y-83485000D02*
X158380951Y-83532619D01*
X158380951Y-83532619D02*
X158238094Y-83532619D01*
X158238094Y-83532619D02*
X158142856Y-83485000D01*
X158142856Y-83485000D02*
X158095237Y-83437380D01*
X157761903Y-82865952D02*
X157380951Y-82865952D01*
X157619046Y-82532619D02*
X157619046Y-83389761D01*
X157619046Y-83389761D02*
X157571427Y-83485000D01*
X157571427Y-83485000D02*
X157476189Y-83532619D01*
X157476189Y-83532619D02*
X157380951Y-83532619D01*
X156380950Y-82865952D02*
X156142855Y-83532619D01*
X156142855Y-83532619D02*
X155904760Y-82865952D01*
X155380950Y-83532619D02*
X155476188Y-83485000D01*
X155476188Y-83485000D02*
X155523807Y-83437380D01*
X155523807Y-83437380D02*
X155571426Y-83342142D01*
X155571426Y-83342142D02*
X155571426Y-83056428D01*
X155571426Y-83056428D02*
X155523807Y-82961190D01*
X155523807Y-82961190D02*
X155476188Y-82913571D01*
X155476188Y-82913571D02*
X155380950Y-82865952D01*
X155380950Y-82865952D02*
X155238093Y-82865952D01*
X155238093Y-82865952D02*
X155142855Y-82913571D01*
X155142855Y-82913571D02*
X155095236Y-82961190D01*
X155095236Y-82961190D02*
X155047617Y-83056428D01*
X155047617Y-83056428D02*
X155047617Y-83342142D01*
X155047617Y-83342142D02*
X155095236Y-83437380D01*
X155095236Y-83437380D02*
X155142855Y-83485000D01*
X155142855Y-83485000D02*
X155238093Y-83532619D01*
X155238093Y-83532619D02*
X155380950Y-83532619D01*
X154476188Y-83532619D02*
X154571426Y-83485000D01*
X154571426Y-83485000D02*
X154619045Y-83389761D01*
X154619045Y-83389761D02*
X154619045Y-82532619D01*
X154238092Y-82865952D02*
X153857140Y-82865952D01*
X154095235Y-82532619D02*
X154095235Y-83389761D01*
X154095235Y-83389761D02*
X154047616Y-83485000D01*
X154047616Y-83485000D02*
X153952378Y-83532619D01*
X153952378Y-83532619D02*
X153857140Y-83532619D01*
X153095235Y-83532619D02*
X153095235Y-83008809D01*
X153095235Y-83008809D02*
X153142854Y-82913571D01*
X153142854Y-82913571D02*
X153238092Y-82865952D01*
X153238092Y-82865952D02*
X153428568Y-82865952D01*
X153428568Y-82865952D02*
X153523806Y-82913571D01*
X153095235Y-83485000D02*
X153190473Y-83532619D01*
X153190473Y-83532619D02*
X153428568Y-83532619D01*
X153428568Y-83532619D02*
X153523806Y-83485000D01*
X153523806Y-83485000D02*
X153571425Y-83389761D01*
X153571425Y-83389761D02*
X153571425Y-83294523D01*
X153571425Y-83294523D02*
X153523806Y-83199285D01*
X153523806Y-83199285D02*
X153428568Y-83151666D01*
X153428568Y-83151666D02*
X153190473Y-83151666D01*
X153190473Y-83151666D02*
X153095235Y-83104047D01*
X152190473Y-82865952D02*
X152190473Y-83675476D01*
X152190473Y-83675476D02*
X152238092Y-83770714D01*
X152238092Y-83770714D02*
X152285711Y-83818333D01*
X152285711Y-83818333D02*
X152380949Y-83865952D01*
X152380949Y-83865952D02*
X152523806Y-83865952D01*
X152523806Y-83865952D02*
X152619044Y-83818333D01*
X152190473Y-83485000D02*
X152285711Y-83532619D01*
X152285711Y-83532619D02*
X152476187Y-83532619D01*
X152476187Y-83532619D02*
X152571425Y-83485000D01*
X152571425Y-83485000D02*
X152619044Y-83437380D01*
X152619044Y-83437380D02*
X152666663Y-83342142D01*
X152666663Y-83342142D02*
X152666663Y-83056428D01*
X152666663Y-83056428D02*
X152619044Y-82961190D01*
X152619044Y-82961190D02*
X152571425Y-82913571D01*
X152571425Y-82913571D02*
X152476187Y-82865952D01*
X152476187Y-82865952D02*
X152285711Y-82865952D01*
X152285711Y-82865952D02*
X152190473Y-82913571D01*
X151333330Y-83485000D02*
X151428568Y-83532619D01*
X151428568Y-83532619D02*
X151619044Y-83532619D01*
X151619044Y-83532619D02*
X151714282Y-83485000D01*
X151714282Y-83485000D02*
X151761901Y-83389761D01*
X151761901Y-83389761D02*
X151761901Y-83008809D01*
X151761901Y-83008809D02*
X151714282Y-82913571D01*
X151714282Y-82913571D02*
X151619044Y-82865952D01*
X151619044Y-82865952D02*
X151428568Y-82865952D01*
X151428568Y-82865952D02*
X151333330Y-82913571D01*
X151333330Y-82913571D02*
X151285711Y-83008809D01*
X151285711Y-83008809D02*
X151285711Y-83104047D01*
X151285711Y-83104047D02*
X151761901Y-83199285D01*
X150904758Y-83485000D02*
X150809520Y-83532619D01*
X150809520Y-83532619D02*
X150619044Y-83532619D01*
X150619044Y-83532619D02*
X150523806Y-83485000D01*
X150523806Y-83485000D02*
X150476187Y-83389761D01*
X150476187Y-83389761D02*
X150476187Y-83342142D01*
X150476187Y-83342142D02*
X150523806Y-83246904D01*
X150523806Y-83246904D02*
X150619044Y-83199285D01*
X150619044Y-83199285D02*
X150761901Y-83199285D01*
X150761901Y-83199285D02*
X150857139Y-83151666D01*
X150857139Y-83151666D02*
X150904758Y-83056428D01*
X150904758Y-83056428D02*
X150904758Y-83008809D01*
X150904758Y-83008809D02*
X150857139Y-82913571D01*
X150857139Y-82913571D02*
X150761901Y-82865952D01*
X150761901Y-82865952D02*
X150619044Y-82865952D01*
X150619044Y-82865952D02*
X150523806Y-82913571D01*
X148857139Y-83532619D02*
X148857139Y-83008809D01*
X148857139Y-83008809D02*
X148904758Y-82913571D01*
X148904758Y-82913571D02*
X148999996Y-82865952D01*
X148999996Y-82865952D02*
X149190472Y-82865952D01*
X149190472Y-82865952D02*
X149285710Y-82913571D01*
X148857139Y-83485000D02*
X148952377Y-83532619D01*
X148952377Y-83532619D02*
X149190472Y-83532619D01*
X149190472Y-83532619D02*
X149285710Y-83485000D01*
X149285710Y-83485000D02*
X149333329Y-83389761D01*
X149333329Y-83389761D02*
X149333329Y-83294523D01*
X149333329Y-83294523D02*
X149285710Y-83199285D01*
X149285710Y-83199285D02*
X149190472Y-83151666D01*
X149190472Y-83151666D02*
X148952377Y-83151666D01*
X148952377Y-83151666D02*
X148857139Y-83104047D01*
X148380948Y-82865952D02*
X148380948Y-83532619D01*
X148380948Y-82961190D02*
X148333329Y-82913571D01*
X148333329Y-82913571D02*
X148238091Y-82865952D01*
X148238091Y-82865952D02*
X148095234Y-82865952D01*
X148095234Y-82865952D02*
X147999996Y-82913571D01*
X147999996Y-82913571D02*
X147952377Y-83008809D01*
X147952377Y-83008809D02*
X147952377Y-83532619D01*
X147047615Y-83532619D02*
X147047615Y-82532619D01*
X147047615Y-83485000D02*
X147142853Y-83532619D01*
X147142853Y-83532619D02*
X147333329Y-83532619D01*
X147333329Y-83532619D02*
X147428567Y-83485000D01*
X147428567Y-83485000D02*
X147476186Y-83437380D01*
X147476186Y-83437380D02*
X147523805Y-83342142D01*
X147523805Y-83342142D02*
X147523805Y-83056428D01*
X147523805Y-83056428D02*
X147476186Y-82961190D01*
X147476186Y-82961190D02*
X147428567Y-82913571D01*
X147428567Y-82913571D02*
X147333329Y-82865952D01*
X147333329Y-82865952D02*
X147142853Y-82865952D01*
X147142853Y-82865952D02*
X147047615Y-82913571D01*
X145666662Y-83532619D02*
X145761900Y-83485000D01*
X145761900Y-83485000D02*
X145809519Y-83389761D01*
X145809519Y-83389761D02*
X145809519Y-82532619D01*
X145142852Y-83532619D02*
X145238090Y-83485000D01*
X145238090Y-83485000D02*
X145285709Y-83437380D01*
X145285709Y-83437380D02*
X145333328Y-83342142D01*
X145333328Y-83342142D02*
X145333328Y-83056428D01*
X145333328Y-83056428D02*
X145285709Y-82961190D01*
X145285709Y-82961190D02*
X145238090Y-82913571D01*
X145238090Y-82913571D02*
X145142852Y-82865952D01*
X145142852Y-82865952D02*
X144999995Y-82865952D01*
X144999995Y-82865952D02*
X144904757Y-82913571D01*
X144904757Y-82913571D02*
X144857138Y-82961190D01*
X144857138Y-82961190D02*
X144809519Y-83056428D01*
X144809519Y-83056428D02*
X144809519Y-83342142D01*
X144809519Y-83342142D02*
X144857138Y-83437380D01*
X144857138Y-83437380D02*
X144904757Y-83485000D01*
X144904757Y-83485000D02*
X144999995Y-83532619D01*
X144999995Y-83532619D02*
X145142852Y-83532619D01*
X143952376Y-82865952D02*
X143952376Y-83675476D01*
X143952376Y-83675476D02*
X143999995Y-83770714D01*
X143999995Y-83770714D02*
X144047614Y-83818333D01*
X144047614Y-83818333D02*
X144142852Y-83865952D01*
X144142852Y-83865952D02*
X144285709Y-83865952D01*
X144285709Y-83865952D02*
X144380947Y-83818333D01*
X143952376Y-83485000D02*
X144047614Y-83532619D01*
X144047614Y-83532619D02*
X144238090Y-83532619D01*
X144238090Y-83532619D02*
X144333328Y-83485000D01*
X144333328Y-83485000D02*
X144380947Y-83437380D01*
X144380947Y-83437380D02*
X144428566Y-83342142D01*
X144428566Y-83342142D02*
X144428566Y-83056428D01*
X144428566Y-83056428D02*
X144380947Y-82961190D01*
X144380947Y-82961190D02*
X144333328Y-82913571D01*
X144333328Y-82913571D02*
X144238090Y-82865952D01*
X144238090Y-82865952D02*
X144047614Y-82865952D01*
X144047614Y-82865952D02*
X143952376Y-82913571D01*
X143476185Y-83532619D02*
X143476185Y-82865952D01*
X143476185Y-82532619D02*
X143523804Y-82580238D01*
X143523804Y-82580238D02*
X143476185Y-82627857D01*
X143476185Y-82627857D02*
X143428566Y-82580238D01*
X143428566Y-82580238D02*
X143476185Y-82532619D01*
X143476185Y-82532619D02*
X143476185Y-82627857D01*
X142571424Y-83485000D02*
X142666662Y-83532619D01*
X142666662Y-83532619D02*
X142857138Y-83532619D01*
X142857138Y-83532619D02*
X142952376Y-83485000D01*
X142952376Y-83485000D02*
X142999995Y-83437380D01*
X142999995Y-83437380D02*
X143047614Y-83342142D01*
X143047614Y-83342142D02*
X143047614Y-83056428D01*
X143047614Y-83056428D02*
X142999995Y-82961190D01*
X142999995Y-82961190D02*
X142952376Y-82913571D01*
X142952376Y-82913571D02*
X142857138Y-82865952D01*
X142857138Y-82865952D02*
X142666662Y-82865952D01*
X142666662Y-82865952D02*
X142571424Y-82913571D01*
X141476185Y-82865952D02*
X141238090Y-83532619D01*
X141238090Y-83532619D02*
X140999995Y-82865952D01*
X140476185Y-83532619D02*
X140571423Y-83485000D01*
X140571423Y-83485000D02*
X140619042Y-83437380D01*
X140619042Y-83437380D02*
X140666661Y-83342142D01*
X140666661Y-83342142D02*
X140666661Y-83056428D01*
X140666661Y-83056428D02*
X140619042Y-82961190D01*
X140619042Y-82961190D02*
X140571423Y-82913571D01*
X140571423Y-82913571D02*
X140476185Y-82865952D01*
X140476185Y-82865952D02*
X140333328Y-82865952D01*
X140333328Y-82865952D02*
X140238090Y-82913571D01*
X140238090Y-82913571D02*
X140190471Y-82961190D01*
X140190471Y-82961190D02*
X140142852Y-83056428D01*
X140142852Y-83056428D02*
X140142852Y-83342142D01*
X140142852Y-83342142D02*
X140190471Y-83437380D01*
X140190471Y-83437380D02*
X140238090Y-83485000D01*
X140238090Y-83485000D02*
X140333328Y-83532619D01*
X140333328Y-83532619D02*
X140476185Y-83532619D01*
X139571423Y-83532619D02*
X139666661Y-83485000D01*
X139666661Y-83485000D02*
X139714280Y-83389761D01*
X139714280Y-83389761D02*
X139714280Y-82532619D01*
X139333327Y-82865952D02*
X138952375Y-82865952D01*
X139190470Y-82532619D02*
X139190470Y-83389761D01*
X139190470Y-83389761D02*
X139142851Y-83485000D01*
X139142851Y-83485000D02*
X139047613Y-83532619D01*
X139047613Y-83532619D02*
X138952375Y-83532619D01*
X138190470Y-83532619D02*
X138190470Y-83008809D01*
X138190470Y-83008809D02*
X138238089Y-82913571D01*
X138238089Y-82913571D02*
X138333327Y-82865952D01*
X138333327Y-82865952D02*
X138523803Y-82865952D01*
X138523803Y-82865952D02*
X138619041Y-82913571D01*
X138190470Y-83485000D02*
X138285708Y-83532619D01*
X138285708Y-83532619D02*
X138523803Y-83532619D01*
X138523803Y-83532619D02*
X138619041Y-83485000D01*
X138619041Y-83485000D02*
X138666660Y-83389761D01*
X138666660Y-83389761D02*
X138666660Y-83294523D01*
X138666660Y-83294523D02*
X138619041Y-83199285D01*
X138619041Y-83199285D02*
X138523803Y-83151666D01*
X138523803Y-83151666D02*
X138285708Y-83151666D01*
X138285708Y-83151666D02*
X138190470Y-83104047D01*
X137285708Y-82865952D02*
X137285708Y-83675476D01*
X137285708Y-83675476D02*
X137333327Y-83770714D01*
X137333327Y-83770714D02*
X137380946Y-83818333D01*
X137380946Y-83818333D02*
X137476184Y-83865952D01*
X137476184Y-83865952D02*
X137619041Y-83865952D01*
X137619041Y-83865952D02*
X137714279Y-83818333D01*
X137285708Y-83485000D02*
X137380946Y-83532619D01*
X137380946Y-83532619D02*
X137571422Y-83532619D01*
X137571422Y-83532619D02*
X137666660Y-83485000D01*
X137666660Y-83485000D02*
X137714279Y-83437380D01*
X137714279Y-83437380D02*
X137761898Y-83342142D01*
X137761898Y-83342142D02*
X137761898Y-83056428D01*
X137761898Y-83056428D02*
X137714279Y-82961190D01*
X137714279Y-82961190D02*
X137666660Y-82913571D01*
X137666660Y-82913571D02*
X137571422Y-82865952D01*
X137571422Y-82865952D02*
X137380946Y-82865952D01*
X137380946Y-82865952D02*
X137285708Y-82913571D01*
X136428565Y-83485000D02*
X136523803Y-83532619D01*
X136523803Y-83532619D02*
X136714279Y-83532619D01*
X136714279Y-83532619D02*
X136809517Y-83485000D01*
X136809517Y-83485000D02*
X136857136Y-83389761D01*
X136857136Y-83389761D02*
X136857136Y-83008809D01*
X136857136Y-83008809D02*
X136809517Y-82913571D01*
X136809517Y-82913571D02*
X136714279Y-82865952D01*
X136714279Y-82865952D02*
X136523803Y-82865952D01*
X136523803Y-82865952D02*
X136428565Y-82913571D01*
X136428565Y-82913571D02*
X136380946Y-83008809D01*
X136380946Y-83008809D02*
X136380946Y-83104047D01*
X136380946Y-83104047D02*
X136857136Y-83199285D01*
X135999993Y-83485000D02*
X135904755Y-83532619D01*
X135904755Y-83532619D02*
X135714279Y-83532619D01*
X135714279Y-83532619D02*
X135619041Y-83485000D01*
X135619041Y-83485000D02*
X135571422Y-83389761D01*
X135571422Y-83389761D02*
X135571422Y-83342142D01*
X135571422Y-83342142D02*
X135619041Y-83246904D01*
X135619041Y-83246904D02*
X135714279Y-83199285D01*
X135714279Y-83199285D02*
X135857136Y-83199285D01*
X135857136Y-83199285D02*
X135952374Y-83151666D01*
X135952374Y-83151666D02*
X135999993Y-83056428D01*
X135999993Y-83056428D02*
X135999993Y-83008809D01*
X135999993Y-83008809D02*
X135952374Y-82913571D01*
X135952374Y-82913571D02*
X135857136Y-82865952D01*
X135857136Y-82865952D02*
X135714279Y-82865952D01*
X135714279Y-82865952D02*
X135619041Y-82913571D01*
X188404765Y-85152619D02*
X188404765Y-84152619D01*
X188071432Y-84485952D02*
X187690480Y-84485952D01*
X187928575Y-84152619D02*
X187928575Y-85009761D01*
X187928575Y-85009761D02*
X187880956Y-85105000D01*
X187880956Y-85105000D02*
X187785718Y-85152619D01*
X187785718Y-85152619D02*
X187690480Y-85152619D01*
X187309527Y-84152619D02*
X187404765Y-84343095D01*
X186928575Y-85105000D02*
X186833337Y-85152619D01*
X186833337Y-85152619D02*
X186642861Y-85152619D01*
X186642861Y-85152619D02*
X186547623Y-85105000D01*
X186547623Y-85105000D02*
X186500004Y-85009761D01*
X186500004Y-85009761D02*
X186500004Y-84962142D01*
X186500004Y-84962142D02*
X186547623Y-84866904D01*
X186547623Y-84866904D02*
X186642861Y-84819285D01*
X186642861Y-84819285D02*
X186785718Y-84819285D01*
X186785718Y-84819285D02*
X186880956Y-84771666D01*
X186880956Y-84771666D02*
X186928575Y-84676428D01*
X186928575Y-84676428D02*
X186928575Y-84628809D01*
X186928575Y-84628809D02*
X186880956Y-84533571D01*
X186880956Y-84533571D02*
X186785718Y-84485952D01*
X186785718Y-84485952D02*
X186642861Y-84485952D01*
X186642861Y-84485952D02*
X186547623Y-84533571D01*
X184880956Y-85152619D02*
X184880956Y-84152619D01*
X184880956Y-85105000D02*
X184976194Y-85152619D01*
X184976194Y-85152619D02*
X185166670Y-85152619D01*
X185166670Y-85152619D02*
X185261908Y-85105000D01*
X185261908Y-85105000D02*
X185309527Y-85057380D01*
X185309527Y-85057380D02*
X185357146Y-84962142D01*
X185357146Y-84962142D02*
X185357146Y-84676428D01*
X185357146Y-84676428D02*
X185309527Y-84581190D01*
X185309527Y-84581190D02*
X185261908Y-84533571D01*
X185261908Y-84533571D02*
X185166670Y-84485952D01*
X185166670Y-84485952D02*
X184976194Y-84485952D01*
X184976194Y-84485952D02*
X184880956Y-84533571D01*
X184023813Y-85105000D02*
X184119051Y-85152619D01*
X184119051Y-85152619D02*
X184309527Y-85152619D01*
X184309527Y-85152619D02*
X184404765Y-85105000D01*
X184404765Y-85105000D02*
X184452384Y-85009761D01*
X184452384Y-85009761D02*
X184452384Y-84628809D01*
X184452384Y-84628809D02*
X184404765Y-84533571D01*
X184404765Y-84533571D02*
X184309527Y-84485952D01*
X184309527Y-84485952D02*
X184119051Y-84485952D01*
X184119051Y-84485952D02*
X184023813Y-84533571D01*
X184023813Y-84533571D02*
X183976194Y-84628809D01*
X183976194Y-84628809D02*
X183976194Y-84724047D01*
X183976194Y-84724047D02*
X184452384Y-84819285D01*
X183595241Y-85105000D02*
X183500003Y-85152619D01*
X183500003Y-85152619D02*
X183309527Y-85152619D01*
X183309527Y-85152619D02*
X183214289Y-85105000D01*
X183214289Y-85105000D02*
X183166670Y-85009761D01*
X183166670Y-85009761D02*
X183166670Y-84962142D01*
X183166670Y-84962142D02*
X183214289Y-84866904D01*
X183214289Y-84866904D02*
X183309527Y-84819285D01*
X183309527Y-84819285D02*
X183452384Y-84819285D01*
X183452384Y-84819285D02*
X183547622Y-84771666D01*
X183547622Y-84771666D02*
X183595241Y-84676428D01*
X183595241Y-84676428D02*
X183595241Y-84628809D01*
X183595241Y-84628809D02*
X183547622Y-84533571D01*
X183547622Y-84533571D02*
X183452384Y-84485952D01*
X183452384Y-84485952D02*
X183309527Y-84485952D01*
X183309527Y-84485952D02*
X183214289Y-84533571D01*
X182738098Y-85152619D02*
X182738098Y-84485952D01*
X182738098Y-84152619D02*
X182785717Y-84200238D01*
X182785717Y-84200238D02*
X182738098Y-84247857D01*
X182738098Y-84247857D02*
X182690479Y-84200238D01*
X182690479Y-84200238D02*
X182738098Y-84152619D01*
X182738098Y-84152619D02*
X182738098Y-84247857D01*
X181833337Y-84485952D02*
X181833337Y-85295476D01*
X181833337Y-85295476D02*
X181880956Y-85390714D01*
X181880956Y-85390714D02*
X181928575Y-85438333D01*
X181928575Y-85438333D02*
X182023813Y-85485952D01*
X182023813Y-85485952D02*
X182166670Y-85485952D01*
X182166670Y-85485952D02*
X182261908Y-85438333D01*
X181833337Y-85105000D02*
X181928575Y-85152619D01*
X181928575Y-85152619D02*
X182119051Y-85152619D01*
X182119051Y-85152619D02*
X182214289Y-85105000D01*
X182214289Y-85105000D02*
X182261908Y-85057380D01*
X182261908Y-85057380D02*
X182309527Y-84962142D01*
X182309527Y-84962142D02*
X182309527Y-84676428D01*
X182309527Y-84676428D02*
X182261908Y-84581190D01*
X182261908Y-84581190D02*
X182214289Y-84533571D01*
X182214289Y-84533571D02*
X182119051Y-84485952D01*
X182119051Y-84485952D02*
X181928575Y-84485952D01*
X181928575Y-84485952D02*
X181833337Y-84533571D01*
X181357146Y-84485952D02*
X181357146Y-85152619D01*
X181357146Y-84581190D02*
X181309527Y-84533571D01*
X181309527Y-84533571D02*
X181214289Y-84485952D01*
X181214289Y-84485952D02*
X181071432Y-84485952D01*
X181071432Y-84485952D02*
X180976194Y-84533571D01*
X180976194Y-84533571D02*
X180928575Y-84628809D01*
X180928575Y-84628809D02*
X180928575Y-85152619D01*
X180071432Y-85105000D02*
X180166670Y-85152619D01*
X180166670Y-85152619D02*
X180357146Y-85152619D01*
X180357146Y-85152619D02*
X180452384Y-85105000D01*
X180452384Y-85105000D02*
X180500003Y-85009761D01*
X180500003Y-85009761D02*
X180500003Y-84628809D01*
X180500003Y-84628809D02*
X180452384Y-84533571D01*
X180452384Y-84533571D02*
X180357146Y-84485952D01*
X180357146Y-84485952D02*
X180166670Y-84485952D01*
X180166670Y-84485952D02*
X180071432Y-84533571D01*
X180071432Y-84533571D02*
X180023813Y-84628809D01*
X180023813Y-84628809D02*
X180023813Y-84724047D01*
X180023813Y-84724047D02*
X180500003Y-84819285D01*
X179166670Y-85152619D02*
X179166670Y-84152619D01*
X179166670Y-85105000D02*
X179261908Y-85152619D01*
X179261908Y-85152619D02*
X179452384Y-85152619D01*
X179452384Y-85152619D02*
X179547622Y-85105000D01*
X179547622Y-85105000D02*
X179595241Y-85057380D01*
X179595241Y-85057380D02*
X179642860Y-84962142D01*
X179642860Y-84962142D02*
X179642860Y-84676428D01*
X179642860Y-84676428D02*
X179595241Y-84581190D01*
X179595241Y-84581190D02*
X179547622Y-84533571D01*
X179547622Y-84533571D02*
X179452384Y-84485952D01*
X179452384Y-84485952D02*
X179261908Y-84485952D01*
X179261908Y-84485952D02*
X179166670Y-84533571D01*
X177500003Y-85152619D02*
X177500003Y-84628809D01*
X177500003Y-84628809D02*
X177547622Y-84533571D01*
X177547622Y-84533571D02*
X177642860Y-84485952D01*
X177642860Y-84485952D02*
X177833336Y-84485952D01*
X177833336Y-84485952D02*
X177928574Y-84533571D01*
X177500003Y-85105000D02*
X177595241Y-85152619D01*
X177595241Y-85152619D02*
X177833336Y-85152619D01*
X177833336Y-85152619D02*
X177928574Y-85105000D01*
X177928574Y-85105000D02*
X177976193Y-85009761D01*
X177976193Y-85009761D02*
X177976193Y-84914523D01*
X177976193Y-84914523D02*
X177928574Y-84819285D01*
X177928574Y-84819285D02*
X177833336Y-84771666D01*
X177833336Y-84771666D02*
X177595241Y-84771666D01*
X177595241Y-84771666D02*
X177500003Y-84724047D01*
X177023812Y-84485952D02*
X177023812Y-85152619D01*
X177023812Y-84581190D02*
X176976193Y-84533571D01*
X176976193Y-84533571D02*
X176880955Y-84485952D01*
X176880955Y-84485952D02*
X176738098Y-84485952D01*
X176738098Y-84485952D02*
X176642860Y-84533571D01*
X176642860Y-84533571D02*
X176595241Y-84628809D01*
X176595241Y-84628809D02*
X176595241Y-85152619D01*
X175690479Y-85152619D02*
X175690479Y-84152619D01*
X175690479Y-85105000D02*
X175785717Y-85152619D01*
X175785717Y-85152619D02*
X175976193Y-85152619D01*
X175976193Y-85152619D02*
X176071431Y-85105000D01*
X176071431Y-85105000D02*
X176119050Y-85057380D01*
X176119050Y-85057380D02*
X176166669Y-84962142D01*
X176166669Y-84962142D02*
X176166669Y-84676428D01*
X176166669Y-84676428D02*
X176119050Y-84581190D01*
X176119050Y-84581190D02*
X176071431Y-84533571D01*
X176071431Y-84533571D02*
X175976193Y-84485952D01*
X175976193Y-84485952D02*
X175785717Y-84485952D01*
X175785717Y-84485952D02*
X175690479Y-84533571D01*
X174595240Y-84485952D02*
X174214288Y-84485952D01*
X174452383Y-84152619D02*
X174452383Y-85009761D01*
X174452383Y-85009761D02*
X174404764Y-85105000D01*
X174404764Y-85105000D02*
X174309526Y-85152619D01*
X174309526Y-85152619D02*
X174214288Y-85152619D01*
X173880954Y-85152619D02*
X173880954Y-84152619D01*
X173452383Y-85152619D02*
X173452383Y-84628809D01*
X173452383Y-84628809D02*
X173500002Y-84533571D01*
X173500002Y-84533571D02*
X173595240Y-84485952D01*
X173595240Y-84485952D02*
X173738097Y-84485952D01*
X173738097Y-84485952D02*
X173833335Y-84533571D01*
X173833335Y-84533571D02*
X173880954Y-84581190D01*
X172595240Y-85105000D02*
X172690478Y-85152619D01*
X172690478Y-85152619D02*
X172880954Y-85152619D01*
X172880954Y-85152619D02*
X172976192Y-85105000D01*
X172976192Y-85105000D02*
X173023811Y-85009761D01*
X173023811Y-85009761D02*
X173023811Y-84628809D01*
X173023811Y-84628809D02*
X172976192Y-84533571D01*
X172976192Y-84533571D02*
X172880954Y-84485952D01*
X172880954Y-84485952D02*
X172690478Y-84485952D01*
X172690478Y-84485952D02*
X172595240Y-84533571D01*
X172595240Y-84533571D02*
X172547621Y-84628809D01*
X172547621Y-84628809D02*
X172547621Y-84724047D01*
X172547621Y-84724047D02*
X173023811Y-84819285D01*
X171357144Y-85152619D02*
X171357144Y-84485952D01*
X171357144Y-84676428D02*
X171309525Y-84581190D01*
X171309525Y-84581190D02*
X171261906Y-84533571D01*
X171261906Y-84533571D02*
X171166668Y-84485952D01*
X171166668Y-84485952D02*
X171071430Y-84485952D01*
X170357144Y-85105000D02*
X170452382Y-85152619D01*
X170452382Y-85152619D02*
X170642858Y-85152619D01*
X170642858Y-85152619D02*
X170738096Y-85105000D01*
X170738096Y-85105000D02*
X170785715Y-85009761D01*
X170785715Y-85009761D02*
X170785715Y-84628809D01*
X170785715Y-84628809D02*
X170738096Y-84533571D01*
X170738096Y-84533571D02*
X170642858Y-84485952D01*
X170642858Y-84485952D02*
X170452382Y-84485952D01*
X170452382Y-84485952D02*
X170357144Y-84533571D01*
X170357144Y-84533571D02*
X170309525Y-84628809D01*
X170309525Y-84628809D02*
X170309525Y-84724047D01*
X170309525Y-84724047D02*
X170785715Y-84819285D01*
X169928572Y-85105000D02*
X169833334Y-85152619D01*
X169833334Y-85152619D02*
X169642858Y-85152619D01*
X169642858Y-85152619D02*
X169547620Y-85105000D01*
X169547620Y-85105000D02*
X169500001Y-85009761D01*
X169500001Y-85009761D02*
X169500001Y-84962142D01*
X169500001Y-84962142D02*
X169547620Y-84866904D01*
X169547620Y-84866904D02*
X169642858Y-84819285D01*
X169642858Y-84819285D02*
X169785715Y-84819285D01*
X169785715Y-84819285D02*
X169880953Y-84771666D01*
X169880953Y-84771666D02*
X169928572Y-84676428D01*
X169928572Y-84676428D02*
X169928572Y-84628809D01*
X169928572Y-84628809D02*
X169880953Y-84533571D01*
X169880953Y-84533571D02*
X169785715Y-84485952D01*
X169785715Y-84485952D02*
X169642858Y-84485952D01*
X169642858Y-84485952D02*
X169547620Y-84533571D01*
X169071429Y-85152619D02*
X169071429Y-84485952D01*
X169071429Y-84152619D02*
X169119048Y-84200238D01*
X169119048Y-84200238D02*
X169071429Y-84247857D01*
X169071429Y-84247857D02*
X169023810Y-84200238D01*
X169023810Y-84200238D02*
X169071429Y-84152619D01*
X169071429Y-84152619D02*
X169071429Y-84247857D01*
X168642858Y-85105000D02*
X168547620Y-85152619D01*
X168547620Y-85152619D02*
X168357144Y-85152619D01*
X168357144Y-85152619D02*
X168261906Y-85105000D01*
X168261906Y-85105000D02*
X168214287Y-85009761D01*
X168214287Y-85009761D02*
X168214287Y-84962142D01*
X168214287Y-84962142D02*
X168261906Y-84866904D01*
X168261906Y-84866904D02*
X168357144Y-84819285D01*
X168357144Y-84819285D02*
X168500001Y-84819285D01*
X168500001Y-84819285D02*
X168595239Y-84771666D01*
X168595239Y-84771666D02*
X168642858Y-84676428D01*
X168642858Y-84676428D02*
X168642858Y-84628809D01*
X168642858Y-84628809D02*
X168595239Y-84533571D01*
X168595239Y-84533571D02*
X168500001Y-84485952D01*
X168500001Y-84485952D02*
X168357144Y-84485952D01*
X168357144Y-84485952D02*
X168261906Y-84533571D01*
X167928572Y-84485952D02*
X167547620Y-84485952D01*
X167785715Y-84152619D02*
X167785715Y-85009761D01*
X167785715Y-85009761D02*
X167738096Y-85105000D01*
X167738096Y-85105000D02*
X167642858Y-85152619D01*
X167642858Y-85152619D02*
X167547620Y-85152619D01*
X167071429Y-85152619D02*
X167166667Y-85105000D01*
X167166667Y-85105000D02*
X167214286Y-85057380D01*
X167214286Y-85057380D02*
X167261905Y-84962142D01*
X167261905Y-84962142D02*
X167261905Y-84676428D01*
X167261905Y-84676428D02*
X167214286Y-84581190D01*
X167214286Y-84581190D02*
X167166667Y-84533571D01*
X167166667Y-84533571D02*
X167071429Y-84485952D01*
X167071429Y-84485952D02*
X166928572Y-84485952D01*
X166928572Y-84485952D02*
X166833334Y-84533571D01*
X166833334Y-84533571D02*
X166785715Y-84581190D01*
X166785715Y-84581190D02*
X166738096Y-84676428D01*
X166738096Y-84676428D02*
X166738096Y-84962142D01*
X166738096Y-84962142D02*
X166785715Y-85057380D01*
X166785715Y-85057380D02*
X166833334Y-85105000D01*
X166833334Y-85105000D02*
X166928572Y-85152619D01*
X166928572Y-85152619D02*
X167071429Y-85152619D01*
X166309524Y-85152619D02*
X166309524Y-84485952D01*
X166309524Y-84676428D02*
X166261905Y-84581190D01*
X166261905Y-84581190D02*
X166214286Y-84533571D01*
X166214286Y-84533571D02*
X166119048Y-84485952D01*
X166119048Y-84485952D02*
X166023810Y-84485952D01*
X165738095Y-85105000D02*
X165642857Y-85152619D01*
X165642857Y-85152619D02*
X165452381Y-85152619D01*
X165452381Y-85152619D02*
X165357143Y-85105000D01*
X165357143Y-85105000D02*
X165309524Y-85009761D01*
X165309524Y-85009761D02*
X165309524Y-84962142D01*
X165309524Y-84962142D02*
X165357143Y-84866904D01*
X165357143Y-84866904D02*
X165452381Y-84819285D01*
X165452381Y-84819285D02*
X165595238Y-84819285D01*
X165595238Y-84819285D02*
X165690476Y-84771666D01*
X165690476Y-84771666D02*
X165738095Y-84676428D01*
X165738095Y-84676428D02*
X165738095Y-84628809D01*
X165738095Y-84628809D02*
X165690476Y-84533571D01*
X165690476Y-84533571D02*
X165595238Y-84485952D01*
X165595238Y-84485952D02*
X165452381Y-84485952D01*
X165452381Y-84485952D02*
X165357143Y-84533571D01*
X163690476Y-85152619D02*
X163690476Y-84628809D01*
X163690476Y-84628809D02*
X163738095Y-84533571D01*
X163738095Y-84533571D02*
X163833333Y-84485952D01*
X163833333Y-84485952D02*
X164023809Y-84485952D01*
X164023809Y-84485952D02*
X164119047Y-84533571D01*
X163690476Y-85105000D02*
X163785714Y-85152619D01*
X163785714Y-85152619D02*
X164023809Y-85152619D01*
X164023809Y-85152619D02*
X164119047Y-85105000D01*
X164119047Y-85105000D02*
X164166666Y-85009761D01*
X164166666Y-85009761D02*
X164166666Y-84914523D01*
X164166666Y-84914523D02*
X164119047Y-84819285D01*
X164119047Y-84819285D02*
X164023809Y-84771666D01*
X164023809Y-84771666D02*
X163785714Y-84771666D01*
X163785714Y-84771666D02*
X163690476Y-84724047D01*
X163214285Y-85152619D02*
X163214285Y-84485952D01*
X163214285Y-84676428D02*
X163166666Y-84581190D01*
X163166666Y-84581190D02*
X163119047Y-84533571D01*
X163119047Y-84533571D02*
X163023809Y-84485952D01*
X163023809Y-84485952D02*
X162928571Y-84485952D01*
X162214285Y-85105000D02*
X162309523Y-85152619D01*
X162309523Y-85152619D02*
X162499999Y-85152619D01*
X162499999Y-85152619D02*
X162595237Y-85105000D01*
X162595237Y-85105000D02*
X162642856Y-85009761D01*
X162642856Y-85009761D02*
X162642856Y-84628809D01*
X162642856Y-84628809D02*
X162595237Y-84533571D01*
X162595237Y-84533571D02*
X162499999Y-84485952D01*
X162499999Y-84485952D02*
X162309523Y-84485952D01*
X162309523Y-84485952D02*
X162214285Y-84533571D01*
X162214285Y-84533571D02*
X162166666Y-84628809D01*
X162166666Y-84628809D02*
X162166666Y-84724047D01*
X162166666Y-84724047D02*
X162642856Y-84819285D01*
X161023808Y-85105000D02*
X160928570Y-85152619D01*
X160928570Y-85152619D02*
X160738094Y-85152619D01*
X160738094Y-85152619D02*
X160642856Y-85105000D01*
X160642856Y-85105000D02*
X160595237Y-85009761D01*
X160595237Y-85009761D02*
X160595237Y-84962142D01*
X160595237Y-84962142D02*
X160642856Y-84866904D01*
X160642856Y-84866904D02*
X160738094Y-84819285D01*
X160738094Y-84819285D02*
X160880951Y-84819285D01*
X160880951Y-84819285D02*
X160976189Y-84771666D01*
X160976189Y-84771666D02*
X161023808Y-84676428D01*
X161023808Y-84676428D02*
X161023808Y-84628809D01*
X161023808Y-84628809D02*
X160976189Y-84533571D01*
X160976189Y-84533571D02*
X160880951Y-84485952D01*
X160880951Y-84485952D02*
X160738094Y-84485952D01*
X160738094Y-84485952D02*
X160642856Y-84533571D01*
X159785713Y-85105000D02*
X159880951Y-85152619D01*
X159880951Y-85152619D02*
X160071427Y-85152619D01*
X160071427Y-85152619D02*
X160166665Y-85105000D01*
X160166665Y-85105000D02*
X160214284Y-85009761D01*
X160214284Y-85009761D02*
X160214284Y-84628809D01*
X160214284Y-84628809D02*
X160166665Y-84533571D01*
X160166665Y-84533571D02*
X160071427Y-84485952D01*
X160071427Y-84485952D02*
X159880951Y-84485952D01*
X159880951Y-84485952D02*
X159785713Y-84533571D01*
X159785713Y-84533571D02*
X159738094Y-84628809D01*
X159738094Y-84628809D02*
X159738094Y-84724047D01*
X159738094Y-84724047D02*
X160214284Y-84819285D01*
X159452379Y-84485952D02*
X159071427Y-84485952D01*
X159309522Y-84152619D02*
X159309522Y-85009761D01*
X159309522Y-85009761D02*
X159261903Y-85105000D01*
X159261903Y-85105000D02*
X159166665Y-85152619D01*
X159166665Y-85152619D02*
X159071427Y-85152619D01*
X158119045Y-84485952D02*
X157738093Y-84485952D01*
X157976188Y-85152619D02*
X157976188Y-84295476D01*
X157976188Y-84295476D02*
X157928569Y-84200238D01*
X157928569Y-84200238D02*
X157833331Y-84152619D01*
X157833331Y-84152619D02*
X157738093Y-84152619D01*
X157261902Y-85152619D02*
X157357140Y-85105000D01*
X157357140Y-85105000D02*
X157404759Y-85057380D01*
X157404759Y-85057380D02*
X157452378Y-84962142D01*
X157452378Y-84962142D02*
X157452378Y-84676428D01*
X157452378Y-84676428D02*
X157404759Y-84581190D01*
X157404759Y-84581190D02*
X157357140Y-84533571D01*
X157357140Y-84533571D02*
X157261902Y-84485952D01*
X157261902Y-84485952D02*
X157119045Y-84485952D01*
X157119045Y-84485952D02*
X157023807Y-84533571D01*
X157023807Y-84533571D02*
X156976188Y-84581190D01*
X156976188Y-84581190D02*
X156928569Y-84676428D01*
X156928569Y-84676428D02*
X156928569Y-84962142D01*
X156928569Y-84962142D02*
X156976188Y-85057380D01*
X156976188Y-85057380D02*
X157023807Y-85105000D01*
X157023807Y-85105000D02*
X157119045Y-85152619D01*
X157119045Y-85152619D02*
X157261902Y-85152619D01*
X156499997Y-85152619D02*
X156499997Y-84485952D01*
X156499997Y-84676428D02*
X156452378Y-84581190D01*
X156452378Y-84581190D02*
X156404759Y-84533571D01*
X156404759Y-84533571D02*
X156309521Y-84485952D01*
X156309521Y-84485952D02*
X156214283Y-84485952D01*
X155166663Y-84247857D02*
X155119044Y-84200238D01*
X155119044Y-84200238D02*
X155023806Y-84152619D01*
X155023806Y-84152619D02*
X154785711Y-84152619D01*
X154785711Y-84152619D02*
X154690473Y-84200238D01*
X154690473Y-84200238D02*
X154642854Y-84247857D01*
X154642854Y-84247857D02*
X154595235Y-84343095D01*
X154595235Y-84343095D02*
X154595235Y-84438333D01*
X154595235Y-84438333D02*
X154642854Y-84581190D01*
X154642854Y-84581190D02*
X155214282Y-85152619D01*
X155214282Y-85152619D02*
X154595235Y-85152619D01*
X153738092Y-84485952D02*
X153738092Y-85152619D01*
X153976187Y-84105000D02*
X154214282Y-84819285D01*
X154214282Y-84819285D02*
X153595235Y-84819285D01*
X153309520Y-84485952D02*
X153071425Y-85152619D01*
X153071425Y-85152619D02*
X152833330Y-84485952D01*
X151690472Y-85152619D02*
X151690472Y-84485952D01*
X151690472Y-84152619D02*
X151738091Y-84200238D01*
X151738091Y-84200238D02*
X151690472Y-84247857D01*
X151690472Y-84247857D02*
X151642853Y-84200238D01*
X151642853Y-84200238D02*
X151690472Y-84152619D01*
X151690472Y-84152619D02*
X151690472Y-84247857D01*
X151214282Y-84485952D02*
X151214282Y-85152619D01*
X151214282Y-84581190D02*
X151166663Y-84533571D01*
X151166663Y-84533571D02*
X151071425Y-84485952D01*
X151071425Y-84485952D02*
X150928568Y-84485952D01*
X150928568Y-84485952D02*
X150833330Y-84533571D01*
X150833330Y-84533571D02*
X150785711Y-84628809D01*
X150785711Y-84628809D02*
X150785711Y-85152619D01*
X150309520Y-84485952D02*
X150309520Y-85485952D01*
X150309520Y-84533571D02*
X150214282Y-84485952D01*
X150214282Y-84485952D02*
X150023806Y-84485952D01*
X150023806Y-84485952D02*
X149928568Y-84533571D01*
X149928568Y-84533571D02*
X149880949Y-84581190D01*
X149880949Y-84581190D02*
X149833330Y-84676428D01*
X149833330Y-84676428D02*
X149833330Y-84962142D01*
X149833330Y-84962142D02*
X149880949Y-85057380D01*
X149880949Y-85057380D02*
X149928568Y-85105000D01*
X149928568Y-85105000D02*
X150023806Y-85152619D01*
X150023806Y-85152619D02*
X150214282Y-85152619D01*
X150214282Y-85152619D02*
X150309520Y-85105000D01*
X148976187Y-84485952D02*
X148976187Y-85152619D01*
X149404758Y-84485952D02*
X149404758Y-85009761D01*
X149404758Y-85009761D02*
X149357139Y-85105000D01*
X149357139Y-85105000D02*
X149261901Y-85152619D01*
X149261901Y-85152619D02*
X149119044Y-85152619D01*
X149119044Y-85152619D02*
X149023806Y-85105000D01*
X149023806Y-85105000D02*
X148976187Y-85057380D01*
X148642853Y-84485952D02*
X148261901Y-84485952D01*
X148499996Y-84152619D02*
X148499996Y-85009761D01*
X148499996Y-85009761D02*
X148452377Y-85105000D01*
X148452377Y-85105000D02*
X148357139Y-85152619D01*
X148357139Y-85152619D02*
X148261901Y-85152619D01*
X146738091Y-85152619D02*
X146738091Y-84628809D01*
X146738091Y-84628809D02*
X146785710Y-84533571D01*
X146785710Y-84533571D02*
X146880948Y-84485952D01*
X146880948Y-84485952D02*
X147071424Y-84485952D01*
X147071424Y-84485952D02*
X147166662Y-84533571D01*
X146738091Y-85105000D02*
X146833329Y-85152619D01*
X146833329Y-85152619D02*
X147071424Y-85152619D01*
X147071424Y-85152619D02*
X147166662Y-85105000D01*
X147166662Y-85105000D02*
X147214281Y-85009761D01*
X147214281Y-85009761D02*
X147214281Y-84914523D01*
X147214281Y-84914523D02*
X147166662Y-84819285D01*
X147166662Y-84819285D02*
X147071424Y-84771666D01*
X147071424Y-84771666D02*
X146833329Y-84771666D01*
X146833329Y-84771666D02*
X146738091Y-84724047D01*
X146261900Y-84485952D02*
X146261900Y-85152619D01*
X146261900Y-84581190D02*
X146214281Y-84533571D01*
X146214281Y-84533571D02*
X146119043Y-84485952D01*
X146119043Y-84485952D02*
X145976186Y-84485952D01*
X145976186Y-84485952D02*
X145880948Y-84533571D01*
X145880948Y-84533571D02*
X145833329Y-84628809D01*
X145833329Y-84628809D02*
X145833329Y-85152619D01*
X144928567Y-85152619D02*
X144928567Y-84152619D01*
X144928567Y-85105000D02*
X145023805Y-85152619D01*
X145023805Y-85152619D02*
X145214281Y-85152619D01*
X145214281Y-85152619D02*
X145309519Y-85105000D01*
X145309519Y-85105000D02*
X145357138Y-85057380D01*
X145357138Y-85057380D02*
X145404757Y-84962142D01*
X145404757Y-84962142D02*
X145404757Y-84676428D01*
X145404757Y-84676428D02*
X145357138Y-84581190D01*
X145357138Y-84581190D02*
X145309519Y-84533571D01*
X145309519Y-84533571D02*
X145214281Y-84485952D01*
X145214281Y-84485952D02*
X145023805Y-84485952D01*
X145023805Y-84485952D02*
X144928567Y-84533571D01*
X143785709Y-84152619D02*
X143166662Y-84152619D01*
X143166662Y-84152619D02*
X143499995Y-84533571D01*
X143499995Y-84533571D02*
X143357138Y-84533571D01*
X143357138Y-84533571D02*
X143261900Y-84581190D01*
X143261900Y-84581190D02*
X143214281Y-84628809D01*
X143214281Y-84628809D02*
X143166662Y-84724047D01*
X143166662Y-84724047D02*
X143166662Y-84962142D01*
X143166662Y-84962142D02*
X143214281Y-85057380D01*
X143214281Y-85057380D02*
X143261900Y-85105000D01*
X143261900Y-85105000D02*
X143357138Y-85152619D01*
X143357138Y-85152619D02*
X143642852Y-85152619D01*
X143642852Y-85152619D02*
X143738090Y-85105000D01*
X143738090Y-85105000D02*
X143785709Y-85057380D01*
X142738090Y-85057380D02*
X142690471Y-85105000D01*
X142690471Y-85105000D02*
X142738090Y-85152619D01*
X142738090Y-85152619D02*
X142785709Y-85105000D01*
X142785709Y-85105000D02*
X142738090Y-85057380D01*
X142738090Y-85057380D02*
X142738090Y-85152619D01*
X142357138Y-84152619D02*
X141738091Y-84152619D01*
X141738091Y-84152619D02*
X142071424Y-84533571D01*
X142071424Y-84533571D02*
X141928567Y-84533571D01*
X141928567Y-84533571D02*
X141833329Y-84581190D01*
X141833329Y-84581190D02*
X141785710Y-84628809D01*
X141785710Y-84628809D02*
X141738091Y-84724047D01*
X141738091Y-84724047D02*
X141738091Y-84962142D01*
X141738091Y-84962142D02*
X141785710Y-85057380D01*
X141785710Y-85057380D02*
X141833329Y-85105000D01*
X141833329Y-85105000D02*
X141928567Y-85152619D01*
X141928567Y-85152619D02*
X142214281Y-85152619D01*
X142214281Y-85152619D02*
X142309519Y-85105000D01*
X142309519Y-85105000D02*
X142357138Y-85057380D01*
X141404757Y-84485952D02*
X141166662Y-85152619D01*
X141166662Y-85152619D02*
X140928567Y-84485952D01*
X139642852Y-85152619D02*
X139738090Y-85105000D01*
X139738090Y-85105000D02*
X139785709Y-85009761D01*
X139785709Y-85009761D02*
X139785709Y-84152619D01*
X139119042Y-85152619D02*
X139214280Y-85105000D01*
X139214280Y-85105000D02*
X139261899Y-85057380D01*
X139261899Y-85057380D02*
X139309518Y-84962142D01*
X139309518Y-84962142D02*
X139309518Y-84676428D01*
X139309518Y-84676428D02*
X139261899Y-84581190D01*
X139261899Y-84581190D02*
X139214280Y-84533571D01*
X139214280Y-84533571D02*
X139119042Y-84485952D01*
X139119042Y-84485952D02*
X138976185Y-84485952D01*
X138976185Y-84485952D02*
X138880947Y-84533571D01*
X138880947Y-84533571D02*
X138833328Y-84581190D01*
X138833328Y-84581190D02*
X138785709Y-84676428D01*
X138785709Y-84676428D02*
X138785709Y-84962142D01*
X138785709Y-84962142D02*
X138833328Y-85057380D01*
X138833328Y-85057380D02*
X138880947Y-85105000D01*
X138880947Y-85105000D02*
X138976185Y-85152619D01*
X138976185Y-85152619D02*
X139119042Y-85152619D01*
X137928566Y-84485952D02*
X137928566Y-85295476D01*
X137928566Y-85295476D02*
X137976185Y-85390714D01*
X137976185Y-85390714D02*
X138023804Y-85438333D01*
X138023804Y-85438333D02*
X138119042Y-85485952D01*
X138119042Y-85485952D02*
X138261899Y-85485952D01*
X138261899Y-85485952D02*
X138357137Y-85438333D01*
X137928566Y-85105000D02*
X138023804Y-85152619D01*
X138023804Y-85152619D02*
X138214280Y-85152619D01*
X138214280Y-85152619D02*
X138309518Y-85105000D01*
X138309518Y-85105000D02*
X138357137Y-85057380D01*
X138357137Y-85057380D02*
X138404756Y-84962142D01*
X138404756Y-84962142D02*
X138404756Y-84676428D01*
X138404756Y-84676428D02*
X138357137Y-84581190D01*
X138357137Y-84581190D02*
X138309518Y-84533571D01*
X138309518Y-84533571D02*
X138214280Y-84485952D01*
X138214280Y-84485952D02*
X138023804Y-84485952D01*
X138023804Y-84485952D02*
X137928566Y-84533571D01*
X137452375Y-85152619D02*
X137452375Y-84485952D01*
X137452375Y-84152619D02*
X137499994Y-84200238D01*
X137499994Y-84200238D02*
X137452375Y-84247857D01*
X137452375Y-84247857D02*
X137404756Y-84200238D01*
X137404756Y-84200238D02*
X137452375Y-84152619D01*
X137452375Y-84152619D02*
X137452375Y-84247857D01*
X136547614Y-85105000D02*
X136642852Y-85152619D01*
X136642852Y-85152619D02*
X136833328Y-85152619D01*
X136833328Y-85152619D02*
X136928566Y-85105000D01*
X136928566Y-85105000D02*
X136976185Y-85057380D01*
X136976185Y-85057380D02*
X137023804Y-84962142D01*
X137023804Y-84962142D02*
X137023804Y-84676428D01*
X137023804Y-84676428D02*
X136976185Y-84581190D01*
X136976185Y-84581190D02*
X136928566Y-84533571D01*
X136928566Y-84533571D02*
X136833328Y-84485952D01*
X136833328Y-84485952D02*
X136642852Y-84485952D01*
X136642852Y-84485952D02*
X136547614Y-84533571D01*
X183023812Y-87392619D02*
X182452384Y-87392619D01*
X182738098Y-88392619D02*
X182738098Y-87392619D01*
X182119050Y-88392619D02*
X182119050Y-87392619D01*
X181690479Y-88392619D02*
X181690479Y-87868809D01*
X181690479Y-87868809D02*
X181738098Y-87773571D01*
X181738098Y-87773571D02*
X181833336Y-87725952D01*
X181833336Y-87725952D02*
X181976193Y-87725952D01*
X181976193Y-87725952D02*
X182071431Y-87773571D01*
X182071431Y-87773571D02*
X182119050Y-87821190D01*
X180833336Y-88345000D02*
X180928574Y-88392619D01*
X180928574Y-88392619D02*
X181119050Y-88392619D01*
X181119050Y-88392619D02*
X181214288Y-88345000D01*
X181214288Y-88345000D02*
X181261907Y-88249761D01*
X181261907Y-88249761D02*
X181261907Y-87868809D01*
X181261907Y-87868809D02*
X181214288Y-87773571D01*
X181214288Y-87773571D02*
X181119050Y-87725952D01*
X181119050Y-87725952D02*
X180928574Y-87725952D01*
X180928574Y-87725952D02*
X180833336Y-87773571D01*
X180833336Y-87773571D02*
X180785717Y-87868809D01*
X180785717Y-87868809D02*
X180785717Y-87964047D01*
X180785717Y-87964047D02*
X181261907Y-88059285D01*
X179166669Y-87725952D02*
X179166669Y-88392619D01*
X179404764Y-87345000D02*
X179642859Y-88059285D01*
X179642859Y-88059285D02*
X179023812Y-88059285D01*
X178642859Y-88297380D02*
X178595240Y-88345000D01*
X178595240Y-88345000D02*
X178642859Y-88392619D01*
X178642859Y-88392619D02*
X178690478Y-88345000D01*
X178690478Y-88345000D02*
X178642859Y-88297380D01*
X178642859Y-88297380D02*
X178642859Y-88392619D01*
X178261907Y-87392619D02*
X177595241Y-87392619D01*
X177595241Y-87392619D02*
X178023812Y-88392619D01*
X177214288Y-88392619D02*
X177214288Y-87392619D01*
X177119050Y-88011666D02*
X176833336Y-88392619D01*
X176833336Y-87725952D02*
X177214288Y-88106904D01*
X175642859Y-88392619D02*
X175642859Y-87725952D01*
X175642859Y-87916428D02*
X175595240Y-87821190D01*
X175595240Y-87821190D02*
X175547621Y-87773571D01*
X175547621Y-87773571D02*
X175452383Y-87725952D01*
X175452383Y-87725952D02*
X175357145Y-87725952D01*
X174642859Y-88345000D02*
X174738097Y-88392619D01*
X174738097Y-88392619D02*
X174928573Y-88392619D01*
X174928573Y-88392619D02*
X175023811Y-88345000D01*
X175023811Y-88345000D02*
X175071430Y-88249761D01*
X175071430Y-88249761D02*
X175071430Y-87868809D01*
X175071430Y-87868809D02*
X175023811Y-87773571D01*
X175023811Y-87773571D02*
X174928573Y-87725952D01*
X174928573Y-87725952D02*
X174738097Y-87725952D01*
X174738097Y-87725952D02*
X174642859Y-87773571D01*
X174642859Y-87773571D02*
X174595240Y-87868809D01*
X174595240Y-87868809D02*
X174595240Y-87964047D01*
X174595240Y-87964047D02*
X175071430Y-88059285D01*
X174214287Y-88345000D02*
X174119049Y-88392619D01*
X174119049Y-88392619D02*
X173928573Y-88392619D01*
X173928573Y-88392619D02*
X173833335Y-88345000D01*
X173833335Y-88345000D02*
X173785716Y-88249761D01*
X173785716Y-88249761D02*
X173785716Y-88202142D01*
X173785716Y-88202142D02*
X173833335Y-88106904D01*
X173833335Y-88106904D02*
X173928573Y-88059285D01*
X173928573Y-88059285D02*
X174071430Y-88059285D01*
X174071430Y-88059285D02*
X174166668Y-88011666D01*
X174166668Y-88011666D02*
X174214287Y-87916428D01*
X174214287Y-87916428D02*
X174214287Y-87868809D01*
X174214287Y-87868809D02*
X174166668Y-87773571D01*
X174166668Y-87773571D02*
X174071430Y-87725952D01*
X174071430Y-87725952D02*
X173928573Y-87725952D01*
X173928573Y-87725952D02*
X173833335Y-87773571D01*
X173357144Y-88392619D02*
X173357144Y-87725952D01*
X173357144Y-87392619D02*
X173404763Y-87440238D01*
X173404763Y-87440238D02*
X173357144Y-87487857D01*
X173357144Y-87487857D02*
X173309525Y-87440238D01*
X173309525Y-87440238D02*
X173357144Y-87392619D01*
X173357144Y-87392619D02*
X173357144Y-87487857D01*
X172928573Y-88345000D02*
X172833335Y-88392619D01*
X172833335Y-88392619D02*
X172642859Y-88392619D01*
X172642859Y-88392619D02*
X172547621Y-88345000D01*
X172547621Y-88345000D02*
X172500002Y-88249761D01*
X172500002Y-88249761D02*
X172500002Y-88202142D01*
X172500002Y-88202142D02*
X172547621Y-88106904D01*
X172547621Y-88106904D02*
X172642859Y-88059285D01*
X172642859Y-88059285D02*
X172785716Y-88059285D01*
X172785716Y-88059285D02*
X172880954Y-88011666D01*
X172880954Y-88011666D02*
X172928573Y-87916428D01*
X172928573Y-87916428D02*
X172928573Y-87868809D01*
X172928573Y-87868809D02*
X172880954Y-87773571D01*
X172880954Y-87773571D02*
X172785716Y-87725952D01*
X172785716Y-87725952D02*
X172642859Y-87725952D01*
X172642859Y-87725952D02*
X172547621Y-87773571D01*
X172214287Y-87725952D02*
X171833335Y-87725952D01*
X172071430Y-87392619D02*
X172071430Y-88249761D01*
X172071430Y-88249761D02*
X172023811Y-88345000D01*
X172023811Y-88345000D02*
X171928573Y-88392619D01*
X171928573Y-88392619D02*
X171833335Y-88392619D01*
X171357144Y-88392619D02*
X171452382Y-88345000D01*
X171452382Y-88345000D02*
X171500001Y-88297380D01*
X171500001Y-88297380D02*
X171547620Y-88202142D01*
X171547620Y-88202142D02*
X171547620Y-87916428D01*
X171547620Y-87916428D02*
X171500001Y-87821190D01*
X171500001Y-87821190D02*
X171452382Y-87773571D01*
X171452382Y-87773571D02*
X171357144Y-87725952D01*
X171357144Y-87725952D02*
X171214287Y-87725952D01*
X171214287Y-87725952D02*
X171119049Y-87773571D01*
X171119049Y-87773571D02*
X171071430Y-87821190D01*
X171071430Y-87821190D02*
X171023811Y-87916428D01*
X171023811Y-87916428D02*
X171023811Y-88202142D01*
X171023811Y-88202142D02*
X171071430Y-88297380D01*
X171071430Y-88297380D02*
X171119049Y-88345000D01*
X171119049Y-88345000D02*
X171214287Y-88392619D01*
X171214287Y-88392619D02*
X171357144Y-88392619D01*
X170595239Y-88392619D02*
X170595239Y-87725952D01*
X170595239Y-87916428D02*
X170547620Y-87821190D01*
X170547620Y-87821190D02*
X170500001Y-87773571D01*
X170500001Y-87773571D02*
X170404763Y-87725952D01*
X170404763Y-87725952D02*
X170309525Y-87725952D01*
X168785715Y-88392619D02*
X168785715Y-87868809D01*
X168785715Y-87868809D02*
X168833334Y-87773571D01*
X168833334Y-87773571D02*
X168928572Y-87725952D01*
X168928572Y-87725952D02*
X169119048Y-87725952D01*
X169119048Y-87725952D02*
X169214286Y-87773571D01*
X168785715Y-88345000D02*
X168880953Y-88392619D01*
X168880953Y-88392619D02*
X169119048Y-88392619D01*
X169119048Y-88392619D02*
X169214286Y-88345000D01*
X169214286Y-88345000D02*
X169261905Y-88249761D01*
X169261905Y-88249761D02*
X169261905Y-88154523D01*
X169261905Y-88154523D02*
X169214286Y-88059285D01*
X169214286Y-88059285D02*
X169119048Y-88011666D01*
X169119048Y-88011666D02*
X168880953Y-88011666D01*
X168880953Y-88011666D02*
X168785715Y-87964047D01*
X168309524Y-87725952D02*
X168309524Y-88392619D01*
X168309524Y-87821190D02*
X168261905Y-87773571D01*
X168261905Y-87773571D02*
X168166667Y-87725952D01*
X168166667Y-87725952D02*
X168023810Y-87725952D01*
X168023810Y-87725952D02*
X167928572Y-87773571D01*
X167928572Y-87773571D02*
X167880953Y-87868809D01*
X167880953Y-87868809D02*
X167880953Y-88392619D01*
X166976191Y-88392619D02*
X166976191Y-87392619D01*
X166976191Y-88345000D02*
X167071429Y-88392619D01*
X167071429Y-88392619D02*
X167261905Y-88392619D01*
X167261905Y-88392619D02*
X167357143Y-88345000D01*
X167357143Y-88345000D02*
X167404762Y-88297380D01*
X167404762Y-88297380D02*
X167452381Y-88202142D01*
X167452381Y-88202142D02*
X167452381Y-87916428D01*
X167452381Y-87916428D02*
X167404762Y-87821190D01*
X167404762Y-87821190D02*
X167357143Y-87773571D01*
X167357143Y-87773571D02*
X167261905Y-87725952D01*
X167261905Y-87725952D02*
X167071429Y-87725952D01*
X167071429Y-87725952D02*
X166976191Y-87773571D01*
X165261905Y-88392619D02*
X165738095Y-88392619D01*
X165738095Y-88392619D02*
X165738095Y-87392619D01*
X164928571Y-87868809D02*
X164595238Y-87868809D01*
X164452381Y-88392619D02*
X164928571Y-88392619D01*
X164928571Y-88392619D02*
X164928571Y-87392619D01*
X164928571Y-87392619D02*
X164452381Y-87392619D01*
X164023809Y-88392619D02*
X164023809Y-87392619D01*
X164023809Y-87392619D02*
X163785714Y-87392619D01*
X163785714Y-87392619D02*
X163642857Y-87440238D01*
X163642857Y-87440238D02*
X163547619Y-87535476D01*
X163547619Y-87535476D02*
X163500000Y-87630714D01*
X163500000Y-87630714D02*
X163452381Y-87821190D01*
X163452381Y-87821190D02*
X163452381Y-87964047D01*
X163452381Y-87964047D02*
X163500000Y-88154523D01*
X163500000Y-88154523D02*
X163547619Y-88249761D01*
X163547619Y-88249761D02*
X163642857Y-88345000D01*
X163642857Y-88345000D02*
X163785714Y-88392619D01*
X163785714Y-88392619D02*
X164023809Y-88392619D01*
X162119047Y-88392619D02*
X162214285Y-88345000D01*
X162214285Y-88345000D02*
X162261904Y-88297380D01*
X162261904Y-88297380D02*
X162309523Y-88202142D01*
X162309523Y-88202142D02*
X162309523Y-87916428D01*
X162309523Y-87916428D02*
X162261904Y-87821190D01*
X162261904Y-87821190D02*
X162214285Y-87773571D01*
X162214285Y-87773571D02*
X162119047Y-87725952D01*
X162119047Y-87725952D02*
X161976190Y-87725952D01*
X161976190Y-87725952D02*
X161880952Y-87773571D01*
X161880952Y-87773571D02*
X161833333Y-87821190D01*
X161833333Y-87821190D02*
X161785714Y-87916428D01*
X161785714Y-87916428D02*
X161785714Y-88202142D01*
X161785714Y-88202142D02*
X161833333Y-88297380D01*
X161833333Y-88297380D02*
X161880952Y-88345000D01*
X161880952Y-88345000D02*
X161976190Y-88392619D01*
X161976190Y-88392619D02*
X162119047Y-88392619D01*
X161357142Y-87725952D02*
X161357142Y-88392619D01*
X161357142Y-87821190D02*
X161309523Y-87773571D01*
X161309523Y-87773571D02*
X161214285Y-87725952D01*
X161214285Y-87725952D02*
X161071428Y-87725952D01*
X161071428Y-87725952D02*
X160976190Y-87773571D01*
X160976190Y-87773571D02*
X160928571Y-87868809D01*
X160928571Y-87868809D02*
X160928571Y-88392619D01*
X159309523Y-88345000D02*
X159404761Y-88392619D01*
X159404761Y-88392619D02*
X159595237Y-88392619D01*
X159595237Y-88392619D02*
X159690475Y-88345000D01*
X159690475Y-88345000D02*
X159738094Y-88249761D01*
X159738094Y-88249761D02*
X159738094Y-87868809D01*
X159738094Y-87868809D02*
X159690475Y-87773571D01*
X159690475Y-87773571D02*
X159595237Y-87725952D01*
X159595237Y-87725952D02*
X159404761Y-87725952D01*
X159404761Y-87725952D02*
X159309523Y-87773571D01*
X159309523Y-87773571D02*
X159261904Y-87868809D01*
X159261904Y-87868809D02*
X159261904Y-87964047D01*
X159261904Y-87964047D02*
X159738094Y-88059285D01*
X158404761Y-88392619D02*
X158404761Y-87868809D01*
X158404761Y-87868809D02*
X158452380Y-87773571D01*
X158452380Y-87773571D02*
X158547618Y-87725952D01*
X158547618Y-87725952D02*
X158738094Y-87725952D01*
X158738094Y-87725952D02*
X158833332Y-87773571D01*
X158404761Y-88345000D02*
X158499999Y-88392619D01*
X158499999Y-88392619D02*
X158738094Y-88392619D01*
X158738094Y-88392619D02*
X158833332Y-88345000D01*
X158833332Y-88345000D02*
X158880951Y-88249761D01*
X158880951Y-88249761D02*
X158880951Y-88154523D01*
X158880951Y-88154523D02*
X158833332Y-88059285D01*
X158833332Y-88059285D02*
X158738094Y-88011666D01*
X158738094Y-88011666D02*
X158499999Y-88011666D01*
X158499999Y-88011666D02*
X158404761Y-87964047D01*
X157499999Y-88345000D02*
X157595237Y-88392619D01*
X157595237Y-88392619D02*
X157785713Y-88392619D01*
X157785713Y-88392619D02*
X157880951Y-88345000D01*
X157880951Y-88345000D02*
X157928570Y-88297380D01*
X157928570Y-88297380D02*
X157976189Y-88202142D01*
X157976189Y-88202142D02*
X157976189Y-87916428D01*
X157976189Y-87916428D02*
X157928570Y-87821190D01*
X157928570Y-87821190D02*
X157880951Y-87773571D01*
X157880951Y-87773571D02*
X157785713Y-87725952D01*
X157785713Y-87725952D02*
X157595237Y-87725952D01*
X157595237Y-87725952D02*
X157499999Y-87773571D01*
X157071427Y-88392619D02*
X157071427Y-87392619D01*
X156642856Y-88392619D02*
X156642856Y-87868809D01*
X156642856Y-87868809D02*
X156690475Y-87773571D01*
X156690475Y-87773571D02*
X156785713Y-87725952D01*
X156785713Y-87725952D02*
X156928570Y-87725952D01*
X156928570Y-87725952D02*
X157023808Y-87773571D01*
X157023808Y-87773571D02*
X157071427Y-87821190D01*
X155404760Y-88392619D02*
X155404760Y-87725952D01*
X155404760Y-87392619D02*
X155452379Y-87440238D01*
X155452379Y-87440238D02*
X155404760Y-87487857D01*
X155404760Y-87487857D02*
X155357141Y-87440238D01*
X155357141Y-87440238D02*
X155404760Y-87392619D01*
X155404760Y-87392619D02*
X155404760Y-87487857D01*
X154928570Y-87725952D02*
X154928570Y-88392619D01*
X154928570Y-87821190D02*
X154880951Y-87773571D01*
X154880951Y-87773571D02*
X154785713Y-87725952D01*
X154785713Y-87725952D02*
X154642856Y-87725952D01*
X154642856Y-87725952D02*
X154547618Y-87773571D01*
X154547618Y-87773571D02*
X154499999Y-87868809D01*
X154499999Y-87868809D02*
X154499999Y-88392619D01*
X154023808Y-87725952D02*
X154023808Y-88725952D01*
X154023808Y-87773571D02*
X153928570Y-87725952D01*
X153928570Y-87725952D02*
X153738094Y-87725952D01*
X153738094Y-87725952D02*
X153642856Y-87773571D01*
X153642856Y-87773571D02*
X153595237Y-87821190D01*
X153595237Y-87821190D02*
X153547618Y-87916428D01*
X153547618Y-87916428D02*
X153547618Y-88202142D01*
X153547618Y-88202142D02*
X153595237Y-88297380D01*
X153595237Y-88297380D02*
X153642856Y-88345000D01*
X153642856Y-88345000D02*
X153738094Y-88392619D01*
X153738094Y-88392619D02*
X153928570Y-88392619D01*
X153928570Y-88392619D02*
X154023808Y-88345000D01*
X152690475Y-87725952D02*
X152690475Y-88392619D01*
X153119046Y-87725952D02*
X153119046Y-88249761D01*
X153119046Y-88249761D02*
X153071427Y-88345000D01*
X153071427Y-88345000D02*
X152976189Y-88392619D01*
X152976189Y-88392619D02*
X152833332Y-88392619D01*
X152833332Y-88392619D02*
X152738094Y-88345000D01*
X152738094Y-88345000D02*
X152690475Y-88297380D01*
X152357141Y-87725952D02*
X151976189Y-87725952D01*
X152214284Y-87392619D02*
X152214284Y-88249761D01*
X152214284Y-88249761D02*
X152166665Y-88345000D01*
X152166665Y-88345000D02*
X152071427Y-88392619D01*
X152071427Y-88392619D02*
X151976189Y-88392619D01*
X150452379Y-88392619D02*
X150452379Y-87868809D01*
X150452379Y-87868809D02*
X150499998Y-87773571D01*
X150499998Y-87773571D02*
X150595236Y-87725952D01*
X150595236Y-87725952D02*
X150785712Y-87725952D01*
X150785712Y-87725952D02*
X150880950Y-87773571D01*
X150452379Y-88345000D02*
X150547617Y-88392619D01*
X150547617Y-88392619D02*
X150785712Y-88392619D01*
X150785712Y-88392619D02*
X150880950Y-88345000D01*
X150880950Y-88345000D02*
X150928569Y-88249761D01*
X150928569Y-88249761D02*
X150928569Y-88154523D01*
X150928569Y-88154523D02*
X150880950Y-88059285D01*
X150880950Y-88059285D02*
X150785712Y-88011666D01*
X150785712Y-88011666D02*
X150547617Y-88011666D01*
X150547617Y-88011666D02*
X150452379Y-87964047D01*
X149976188Y-88392619D02*
X149976188Y-87725952D01*
X149976188Y-87916428D02*
X149928569Y-87821190D01*
X149928569Y-87821190D02*
X149880950Y-87773571D01*
X149880950Y-87773571D02*
X149785712Y-87725952D01*
X149785712Y-87725952D02*
X149690474Y-87725952D01*
X148976188Y-88345000D02*
X149071426Y-88392619D01*
X149071426Y-88392619D02*
X149261902Y-88392619D01*
X149261902Y-88392619D02*
X149357140Y-88345000D01*
X149357140Y-88345000D02*
X149404759Y-88249761D01*
X149404759Y-88249761D02*
X149404759Y-87868809D01*
X149404759Y-87868809D02*
X149357140Y-87773571D01*
X149357140Y-87773571D02*
X149261902Y-87725952D01*
X149261902Y-87725952D02*
X149071426Y-87725952D01*
X149071426Y-87725952D02*
X148976188Y-87773571D01*
X148976188Y-87773571D02*
X148928569Y-87868809D01*
X148928569Y-87868809D02*
X148928569Y-87964047D01*
X148928569Y-87964047D02*
X149404759Y-88059285D01*
X147595235Y-88392619D02*
X147690473Y-88345000D01*
X147690473Y-88345000D02*
X147738092Y-88297380D01*
X147738092Y-88297380D02*
X147785711Y-88202142D01*
X147785711Y-88202142D02*
X147785711Y-87916428D01*
X147785711Y-87916428D02*
X147738092Y-87821190D01*
X147738092Y-87821190D02*
X147690473Y-87773571D01*
X147690473Y-87773571D02*
X147595235Y-87725952D01*
X147595235Y-87725952D02*
X147452378Y-87725952D01*
X147452378Y-87725952D02*
X147357140Y-87773571D01*
X147357140Y-87773571D02*
X147309521Y-87821190D01*
X147309521Y-87821190D02*
X147261902Y-87916428D01*
X147261902Y-87916428D02*
X147261902Y-88202142D01*
X147261902Y-88202142D02*
X147309521Y-88297380D01*
X147309521Y-88297380D02*
X147357140Y-88345000D01*
X147357140Y-88345000D02*
X147452378Y-88392619D01*
X147452378Y-88392619D02*
X147595235Y-88392619D01*
X146833330Y-87725952D02*
X146833330Y-88725952D01*
X146833330Y-87773571D02*
X146738092Y-87725952D01*
X146738092Y-87725952D02*
X146547616Y-87725952D01*
X146547616Y-87725952D02*
X146452378Y-87773571D01*
X146452378Y-87773571D02*
X146404759Y-87821190D01*
X146404759Y-87821190D02*
X146357140Y-87916428D01*
X146357140Y-87916428D02*
X146357140Y-88202142D01*
X146357140Y-88202142D02*
X146404759Y-88297380D01*
X146404759Y-88297380D02*
X146452378Y-88345000D01*
X146452378Y-88345000D02*
X146547616Y-88392619D01*
X146547616Y-88392619D02*
X146738092Y-88392619D01*
X146738092Y-88392619D02*
X146833330Y-88345000D01*
X146071425Y-87725952D02*
X145690473Y-87725952D01*
X145928568Y-87392619D02*
X145928568Y-88249761D01*
X145928568Y-88249761D02*
X145880949Y-88345000D01*
X145880949Y-88345000D02*
X145785711Y-88392619D01*
X145785711Y-88392619D02*
X145690473Y-88392619D01*
X145357139Y-88392619D02*
X145357139Y-87725952D01*
X145357139Y-87392619D02*
X145404758Y-87440238D01*
X145404758Y-87440238D02*
X145357139Y-87487857D01*
X145357139Y-87487857D02*
X145309520Y-87440238D01*
X145309520Y-87440238D02*
X145357139Y-87392619D01*
X145357139Y-87392619D02*
X145357139Y-87487857D01*
X144738092Y-88392619D02*
X144833330Y-88345000D01*
X144833330Y-88345000D02*
X144880949Y-88297380D01*
X144880949Y-88297380D02*
X144928568Y-88202142D01*
X144928568Y-88202142D02*
X144928568Y-87916428D01*
X144928568Y-87916428D02*
X144880949Y-87821190D01*
X144880949Y-87821190D02*
X144833330Y-87773571D01*
X144833330Y-87773571D02*
X144738092Y-87725952D01*
X144738092Y-87725952D02*
X144595235Y-87725952D01*
X144595235Y-87725952D02*
X144499997Y-87773571D01*
X144499997Y-87773571D02*
X144452378Y-87821190D01*
X144452378Y-87821190D02*
X144404759Y-87916428D01*
X144404759Y-87916428D02*
X144404759Y-88202142D01*
X144404759Y-88202142D02*
X144452378Y-88297380D01*
X144452378Y-88297380D02*
X144499997Y-88345000D01*
X144499997Y-88345000D02*
X144595235Y-88392619D01*
X144595235Y-88392619D02*
X144738092Y-88392619D01*
X143976187Y-87725952D02*
X143976187Y-88392619D01*
X143976187Y-87821190D02*
X143928568Y-87773571D01*
X143928568Y-87773571D02*
X143833330Y-87725952D01*
X143833330Y-87725952D02*
X143690473Y-87725952D01*
X143690473Y-87725952D02*
X143595235Y-87773571D01*
X143595235Y-87773571D02*
X143547616Y-87868809D01*
X143547616Y-87868809D02*
X143547616Y-88392619D01*
X142642854Y-88392619D02*
X142642854Y-87868809D01*
X142642854Y-87868809D02*
X142690473Y-87773571D01*
X142690473Y-87773571D02*
X142785711Y-87725952D01*
X142785711Y-87725952D02*
X142976187Y-87725952D01*
X142976187Y-87725952D02*
X143071425Y-87773571D01*
X142642854Y-88345000D02*
X142738092Y-88392619D01*
X142738092Y-88392619D02*
X142976187Y-88392619D01*
X142976187Y-88392619D02*
X143071425Y-88345000D01*
X143071425Y-88345000D02*
X143119044Y-88249761D01*
X143119044Y-88249761D02*
X143119044Y-88154523D01*
X143119044Y-88154523D02*
X143071425Y-88059285D01*
X143071425Y-88059285D02*
X142976187Y-88011666D01*
X142976187Y-88011666D02*
X142738092Y-88011666D01*
X142738092Y-88011666D02*
X142642854Y-87964047D01*
X142023806Y-88392619D02*
X142119044Y-88345000D01*
X142119044Y-88345000D02*
X142166663Y-88249761D01*
X142166663Y-88249761D02*
X142166663Y-87392619D01*
X108291618Y-128280619D02*
X108196380Y-128280619D01*
X108196380Y-128280619D02*
X108101142Y-128328238D01*
X108101142Y-128328238D02*
X108053523Y-128375857D01*
X108053523Y-128375857D02*
X108005904Y-128471095D01*
X108005904Y-128471095D02*
X107958285Y-128661571D01*
X107958285Y-128661571D02*
X107958285Y-128899666D01*
X107958285Y-128899666D02*
X108005904Y-129090142D01*
X108005904Y-129090142D02*
X108053523Y-129185380D01*
X108053523Y-129185380D02*
X108101142Y-129233000D01*
X108101142Y-129233000D02*
X108196380Y-129280619D01*
X108196380Y-129280619D02*
X108291618Y-129280619D01*
X108291618Y-129280619D02*
X108386856Y-129233000D01*
X108386856Y-129233000D02*
X108434475Y-129185380D01*
X108434475Y-129185380D02*
X108482094Y-129090142D01*
X108482094Y-129090142D02*
X108529713Y-128899666D01*
X108529713Y-128899666D02*
X108529713Y-128661571D01*
X108529713Y-128661571D02*
X108482094Y-128471095D01*
X108482094Y-128471095D02*
X108434475Y-128375857D01*
X108434475Y-128375857D02*
X108386856Y-128328238D01*
X108386856Y-128328238D02*
X108291618Y-128280619D01*
X141073523Y-128153619D02*
X141263999Y-128153619D01*
X141263999Y-128153619D02*
X141359237Y-128201238D01*
X141359237Y-128201238D02*
X141406856Y-128248857D01*
X141406856Y-128248857D02*
X141502094Y-128391714D01*
X141502094Y-128391714D02*
X141549713Y-128582190D01*
X141549713Y-128582190D02*
X141549713Y-128963142D01*
X141549713Y-128963142D02*
X141502094Y-129058380D01*
X141502094Y-129058380D02*
X141454475Y-129106000D01*
X141454475Y-129106000D02*
X141359237Y-129153619D01*
X141359237Y-129153619D02*
X141168761Y-129153619D01*
X141168761Y-129153619D02*
X141073523Y-129106000D01*
X141073523Y-129106000D02*
X141025904Y-129058380D01*
X141025904Y-129058380D02*
X140978285Y-128963142D01*
X140978285Y-128963142D02*
X140978285Y-128725047D01*
X140978285Y-128725047D02*
X141025904Y-128629809D01*
X141025904Y-128629809D02*
X141073523Y-128582190D01*
X141073523Y-128582190D02*
X141168761Y-128534571D01*
X141168761Y-128534571D02*
X141359237Y-128534571D01*
X141359237Y-128534571D02*
X141454475Y-128582190D01*
X141454475Y-128582190D02*
X141502094Y-128629809D01*
X141502094Y-128629809D02*
X141549713Y-128725047D01*
X96642857Y-87510238D02*
X96738095Y-87462619D01*
X96738095Y-87462619D02*
X96880952Y-87462619D01*
X96880952Y-87462619D02*
X97023809Y-87510238D01*
X97023809Y-87510238D02*
X97119047Y-87605476D01*
X97119047Y-87605476D02*
X97166666Y-87700714D01*
X97166666Y-87700714D02*
X97214285Y-87891190D01*
X97214285Y-87891190D02*
X97214285Y-88034047D01*
X97214285Y-88034047D02*
X97166666Y-88224523D01*
X97166666Y-88224523D02*
X97119047Y-88319761D01*
X97119047Y-88319761D02*
X97023809Y-88415000D01*
X97023809Y-88415000D02*
X96880952Y-88462619D01*
X96880952Y-88462619D02*
X96785714Y-88462619D01*
X96785714Y-88462619D02*
X96642857Y-88415000D01*
X96642857Y-88415000D02*
X96595238Y-88367380D01*
X96595238Y-88367380D02*
X96595238Y-88034047D01*
X96595238Y-88034047D02*
X96785714Y-88034047D01*
X96166666Y-87795952D02*
X96166666Y-88462619D01*
X96166666Y-87891190D02*
X96119047Y-87843571D01*
X96119047Y-87843571D02*
X96023809Y-87795952D01*
X96023809Y-87795952D02*
X95880952Y-87795952D01*
X95880952Y-87795952D02*
X95785714Y-87843571D01*
X95785714Y-87843571D02*
X95738095Y-87938809D01*
X95738095Y-87938809D02*
X95738095Y-88462619D01*
X94833333Y-88462619D02*
X94833333Y-87462619D01*
X94833333Y-88415000D02*
X94928571Y-88462619D01*
X94928571Y-88462619D02*
X95119047Y-88462619D01*
X95119047Y-88462619D02*
X95214285Y-88415000D01*
X95214285Y-88415000D02*
X95261904Y-88367380D01*
X95261904Y-88367380D02*
X95309523Y-88272142D01*
X95309523Y-88272142D02*
X95309523Y-87986428D01*
X95309523Y-87986428D02*
X95261904Y-87891190D01*
X95261904Y-87891190D02*
X95214285Y-87843571D01*
X95214285Y-87843571D02*
X95119047Y-87795952D01*
X95119047Y-87795952D02*
X94928571Y-87795952D01*
X94928571Y-87795952D02*
X94833333Y-87843571D01*
X97190475Y-96086000D02*
X97047618Y-96133619D01*
X97047618Y-96133619D02*
X96809523Y-96133619D01*
X96809523Y-96133619D02*
X96714285Y-96086000D01*
X96714285Y-96086000D02*
X96666666Y-96038380D01*
X96666666Y-96038380D02*
X96619047Y-95943142D01*
X96619047Y-95943142D02*
X96619047Y-95847904D01*
X96619047Y-95847904D02*
X96666666Y-95752666D01*
X96666666Y-95752666D02*
X96714285Y-95705047D01*
X96714285Y-95705047D02*
X96809523Y-95657428D01*
X96809523Y-95657428D02*
X96999999Y-95609809D01*
X96999999Y-95609809D02*
X97095237Y-95562190D01*
X97095237Y-95562190D02*
X97142856Y-95514571D01*
X97142856Y-95514571D02*
X97190475Y-95419333D01*
X97190475Y-95419333D02*
X97190475Y-95324095D01*
X97190475Y-95324095D02*
X97142856Y-95228857D01*
X97142856Y-95228857D02*
X97095237Y-95181238D01*
X97095237Y-95181238D02*
X96999999Y-95133619D01*
X96999999Y-95133619D02*
X96761904Y-95133619D01*
X96761904Y-95133619D02*
X96619047Y-95181238D01*
X95619047Y-96038380D02*
X95666666Y-96086000D01*
X95666666Y-96086000D02*
X95809523Y-96133619D01*
X95809523Y-96133619D02*
X95904761Y-96133619D01*
X95904761Y-96133619D02*
X96047618Y-96086000D01*
X96047618Y-96086000D02*
X96142856Y-95990761D01*
X96142856Y-95990761D02*
X96190475Y-95895523D01*
X96190475Y-95895523D02*
X96238094Y-95705047D01*
X96238094Y-95705047D02*
X96238094Y-95562190D01*
X96238094Y-95562190D02*
X96190475Y-95371714D01*
X96190475Y-95371714D02*
X96142856Y-95276476D01*
X96142856Y-95276476D02*
X96047618Y-95181238D01*
X96047618Y-95181238D02*
X95904761Y-95133619D01*
X95904761Y-95133619D02*
X95809523Y-95133619D01*
X95809523Y-95133619D02*
X95666666Y-95181238D01*
X95666666Y-95181238D02*
X95619047Y-95228857D01*
X94714285Y-96133619D02*
X95190475Y-96133619D01*
X95190475Y-96133619D02*
X95190475Y-95133619D01*
X134190857Y-90510238D02*
X134286095Y-90462619D01*
X134286095Y-90462619D02*
X134428952Y-90462619D01*
X134428952Y-90462619D02*
X134571809Y-90510238D01*
X134571809Y-90510238D02*
X134667047Y-90605476D01*
X134667047Y-90605476D02*
X134714666Y-90700714D01*
X134714666Y-90700714D02*
X134762285Y-90891190D01*
X134762285Y-90891190D02*
X134762285Y-91034047D01*
X134762285Y-91034047D02*
X134714666Y-91224523D01*
X134714666Y-91224523D02*
X134667047Y-91319761D01*
X134667047Y-91319761D02*
X134571809Y-91415000D01*
X134571809Y-91415000D02*
X134428952Y-91462619D01*
X134428952Y-91462619D02*
X134333714Y-91462619D01*
X134333714Y-91462619D02*
X134190857Y-91415000D01*
X134190857Y-91415000D02*
X134143238Y-91367380D01*
X134143238Y-91367380D02*
X134143238Y-91034047D01*
X134143238Y-91034047D02*
X134333714Y-91034047D01*
X133714666Y-90795952D02*
X133714666Y-91462619D01*
X133714666Y-90891190D02*
X133667047Y-90843571D01*
X133667047Y-90843571D02*
X133571809Y-90795952D01*
X133571809Y-90795952D02*
X133428952Y-90795952D01*
X133428952Y-90795952D02*
X133333714Y-90843571D01*
X133333714Y-90843571D02*
X133286095Y-90938809D01*
X133286095Y-90938809D02*
X133286095Y-91462619D01*
X132381333Y-91462619D02*
X132381333Y-90462619D01*
X132381333Y-91415000D02*
X132476571Y-91462619D01*
X132476571Y-91462619D02*
X132667047Y-91462619D01*
X132667047Y-91462619D02*
X132762285Y-91415000D01*
X132762285Y-91415000D02*
X132809904Y-91367380D01*
X132809904Y-91367380D02*
X132857523Y-91272142D01*
X132857523Y-91272142D02*
X132857523Y-90986428D01*
X132857523Y-90986428D02*
X132809904Y-90891190D01*
X132809904Y-90891190D02*
X132762285Y-90843571D01*
X132762285Y-90843571D02*
X132667047Y-90795952D01*
X132667047Y-90795952D02*
X132476571Y-90795952D01*
X132476571Y-90795952D02*
X132381333Y-90843571D01*
X186666476Y-129153619D02*
X187237904Y-129153619D01*
X186952190Y-129153619D02*
X186952190Y-128153619D01*
X186952190Y-128153619D02*
X187047428Y-128296476D01*
X187047428Y-128296476D02*
X187142666Y-128391714D01*
X187142666Y-128391714D02*
X187237904Y-128439333D01*
X185809333Y-128486952D02*
X185809333Y-129153619D01*
X186047428Y-128106000D02*
X186285523Y-128820285D01*
X186285523Y-128820285D02*
X185666476Y-128820285D01*
X158980475Y-129153619D02*
X158789999Y-129153619D01*
X158789999Y-129153619D02*
X158694761Y-129106000D01*
X158694761Y-129106000D02*
X158647142Y-129058380D01*
X158647142Y-129058380D02*
X158551904Y-128915523D01*
X158551904Y-128915523D02*
X158504285Y-128725047D01*
X158504285Y-128725047D02*
X158504285Y-128344095D01*
X158504285Y-128344095D02*
X158551904Y-128248857D01*
X158551904Y-128248857D02*
X158599523Y-128201238D01*
X158599523Y-128201238D02*
X158694761Y-128153619D01*
X158694761Y-128153619D02*
X158885237Y-128153619D01*
X158885237Y-128153619D02*
X158980475Y-128201238D01*
X158980475Y-128201238D02*
X159028094Y-128248857D01*
X159028094Y-128248857D02*
X159075713Y-128344095D01*
X159075713Y-128344095D02*
X159075713Y-128582190D01*
X159075713Y-128582190D02*
X159028094Y-128677428D01*
X159028094Y-128677428D02*
X158980475Y-128725047D01*
X158980475Y-128725047D02*
X158885237Y-128772666D01*
X158885237Y-128772666D02*
X158694761Y-128772666D01*
X158694761Y-128772666D02*
X158599523Y-128725047D01*
X158599523Y-128725047D02*
X158551904Y-128677428D01*
X158551904Y-128677428D02*
X158504285Y-128582190D01*
X176506476Y-129153619D02*
X177077904Y-129153619D01*
X176792190Y-129153619D02*
X176792190Y-128153619D01*
X176792190Y-128153619D02*
X176887428Y-128296476D01*
X176887428Y-128296476D02*
X176982666Y-128391714D01*
X176982666Y-128391714D02*
X177077904Y-128439333D01*
X176125523Y-128248857D02*
X176077904Y-128201238D01*
X176077904Y-128201238D02*
X175982666Y-128153619D01*
X175982666Y-128153619D02*
X175744571Y-128153619D01*
X175744571Y-128153619D02*
X175649333Y-128201238D01*
X175649333Y-128201238D02*
X175601714Y-128248857D01*
X175601714Y-128248857D02*
X175554095Y-128344095D01*
X175554095Y-128344095D02*
X175554095Y-128439333D01*
X175554095Y-128439333D02*
X175601714Y-128582190D01*
X175601714Y-128582190D02*
X176173142Y-129153619D01*
X176173142Y-129153619D02*
X175554095Y-129153619D01*
X163933476Y-129153619D02*
X164504904Y-129153619D01*
X164219190Y-129153619D02*
X164219190Y-128153619D01*
X164219190Y-128153619D02*
X164314428Y-128296476D01*
X164314428Y-128296476D02*
X164409666Y-128391714D01*
X164409666Y-128391714D02*
X164504904Y-128439333D01*
X163314428Y-128153619D02*
X163219190Y-128153619D01*
X163219190Y-128153619D02*
X163123952Y-128201238D01*
X163123952Y-128201238D02*
X163076333Y-128248857D01*
X163076333Y-128248857D02*
X163028714Y-128344095D01*
X163028714Y-128344095D02*
X162981095Y-128534571D01*
X162981095Y-128534571D02*
X162981095Y-128772666D01*
X162981095Y-128772666D02*
X163028714Y-128963142D01*
X163028714Y-128963142D02*
X163076333Y-129058380D01*
X163076333Y-129058380D02*
X163123952Y-129106000D01*
X163123952Y-129106000D02*
X163219190Y-129153619D01*
X163219190Y-129153619D02*
X163314428Y-129153619D01*
X163314428Y-129153619D02*
X163409666Y-129106000D01*
X163409666Y-129106000D02*
X163457285Y-129058380D01*
X163457285Y-129058380D02*
X163504904Y-128963142D01*
X163504904Y-128963142D02*
X163552523Y-128772666D01*
X163552523Y-128772666D02*
X163552523Y-128534571D01*
X163552523Y-128534571D02*
X163504904Y-128344095D01*
X163504904Y-128344095D02*
X163457285Y-128248857D01*
X163457285Y-128248857D02*
X163409666Y-128201238D01*
X163409666Y-128201238D02*
X163314428Y-128153619D01*
X135818904Y-128153619D02*
X136295094Y-128153619D01*
X136295094Y-128153619D02*
X136342713Y-128629809D01*
X136342713Y-128629809D02*
X136295094Y-128582190D01*
X136295094Y-128582190D02*
X136199856Y-128534571D01*
X136199856Y-128534571D02*
X135961761Y-128534571D01*
X135961761Y-128534571D02*
X135866523Y-128582190D01*
X135866523Y-128582190D02*
X135818904Y-128629809D01*
X135818904Y-128629809D02*
X135771285Y-128725047D01*
X135771285Y-128725047D02*
X135771285Y-128963142D01*
X135771285Y-128963142D02*
X135818904Y-129058380D01*
X135818904Y-129058380D02*
X135866523Y-129106000D01*
X135866523Y-129106000D02*
X135961761Y-129153619D01*
X135961761Y-129153619D02*
X136199856Y-129153619D01*
X136199856Y-129153619D02*
X136295094Y-129106000D01*
X136295094Y-129106000D02*
X136342713Y-129058380D01*
X153805237Y-128582190D02*
X153900475Y-128534571D01*
X153900475Y-128534571D02*
X153948094Y-128486952D01*
X153948094Y-128486952D02*
X153995713Y-128391714D01*
X153995713Y-128391714D02*
X153995713Y-128344095D01*
X153995713Y-128344095D02*
X153948094Y-128248857D01*
X153948094Y-128248857D02*
X153900475Y-128201238D01*
X153900475Y-128201238D02*
X153805237Y-128153619D01*
X153805237Y-128153619D02*
X153614761Y-128153619D01*
X153614761Y-128153619D02*
X153519523Y-128201238D01*
X153519523Y-128201238D02*
X153471904Y-128248857D01*
X153471904Y-128248857D02*
X153424285Y-128344095D01*
X153424285Y-128344095D02*
X153424285Y-128391714D01*
X153424285Y-128391714D02*
X153471904Y-128486952D01*
X153471904Y-128486952D02*
X153519523Y-128534571D01*
X153519523Y-128534571D02*
X153614761Y-128582190D01*
X153614761Y-128582190D02*
X153805237Y-128582190D01*
X153805237Y-128582190D02*
X153900475Y-128629809D01*
X153900475Y-128629809D02*
X153948094Y-128677428D01*
X153948094Y-128677428D02*
X153995713Y-128772666D01*
X153995713Y-128772666D02*
X153995713Y-128963142D01*
X153995713Y-128963142D02*
X153948094Y-129058380D01*
X153948094Y-129058380D02*
X153900475Y-129106000D01*
X153900475Y-129106000D02*
X153805237Y-129153619D01*
X153805237Y-129153619D02*
X153614761Y-129153619D01*
X153614761Y-129153619D02*
X153519523Y-129106000D01*
X153519523Y-129106000D02*
X153471904Y-129058380D01*
X153471904Y-129058380D02*
X153424285Y-128963142D01*
X153424285Y-128963142D02*
X153424285Y-128772666D01*
X153424285Y-128772666D02*
X153471904Y-128677428D01*
X153471904Y-128677428D02*
X153519523Y-128629809D01*
X153519523Y-128629809D02*
X153614761Y-128582190D01*
X118689713Y-128375857D02*
X118642094Y-128328238D01*
X118642094Y-128328238D02*
X118546856Y-128280619D01*
X118546856Y-128280619D02*
X118308761Y-128280619D01*
X118308761Y-128280619D02*
X118213523Y-128328238D01*
X118213523Y-128328238D02*
X118165904Y-128375857D01*
X118165904Y-128375857D02*
X118118285Y-128471095D01*
X118118285Y-128471095D02*
X118118285Y-128566333D01*
X118118285Y-128566333D02*
X118165904Y-128709190D01*
X118165904Y-128709190D02*
X118737332Y-129280619D01*
X118737332Y-129280619D02*
X118118285Y-129280619D01*
X146550332Y-128153619D02*
X145883666Y-128153619D01*
X145883666Y-128153619D02*
X146312237Y-129153619D01*
X123817332Y-128280619D02*
X123198285Y-128280619D01*
X123198285Y-128280619D02*
X123531618Y-128661571D01*
X123531618Y-128661571D02*
X123388761Y-128661571D01*
X123388761Y-128661571D02*
X123293523Y-128709190D01*
X123293523Y-128709190D02*
X123245904Y-128756809D01*
X123245904Y-128756809D02*
X123198285Y-128852047D01*
X123198285Y-128852047D02*
X123198285Y-129090142D01*
X123198285Y-129090142D02*
X123245904Y-129185380D01*
X123245904Y-129185380D02*
X123293523Y-129233000D01*
X123293523Y-129233000D02*
X123388761Y-129280619D01*
X123388761Y-129280619D02*
X123674475Y-129280619D01*
X123674475Y-129280619D02*
X123769713Y-129233000D01*
X123769713Y-129233000D02*
X123817332Y-129185380D01*
X191619476Y-129153619D02*
X192190904Y-129153619D01*
X191905190Y-129153619D02*
X191905190Y-128153619D01*
X191905190Y-128153619D02*
X192000428Y-128296476D01*
X192000428Y-128296476D02*
X192095666Y-128391714D01*
X192095666Y-128391714D02*
X192190904Y-128439333D01*
X190714714Y-128153619D02*
X191190904Y-128153619D01*
X191190904Y-128153619D02*
X191238523Y-128629809D01*
X191238523Y-128629809D02*
X191190904Y-128582190D01*
X191190904Y-128582190D02*
X191095666Y-128534571D01*
X191095666Y-128534571D02*
X190857571Y-128534571D01*
X190857571Y-128534571D02*
X190762333Y-128582190D01*
X190762333Y-128582190D02*
X190714714Y-128629809D01*
X190714714Y-128629809D02*
X190667095Y-128725047D01*
X190667095Y-128725047D02*
X190667095Y-128963142D01*
X190667095Y-128963142D02*
X190714714Y-129058380D01*
X190714714Y-129058380D02*
X190762333Y-129106000D01*
X190762333Y-129106000D02*
X190857571Y-129153619D01*
X190857571Y-129153619D02*
X191095666Y-129153619D01*
X191095666Y-129153619D02*
X191190904Y-129106000D01*
X191190904Y-129106000D02*
X191238523Y-129058380D01*
X97190475Y-89799619D02*
X96857142Y-90799619D01*
X96857142Y-90799619D02*
X96523809Y-89799619D01*
X95761904Y-90752000D02*
X95857142Y-90799619D01*
X95857142Y-90799619D02*
X96047618Y-90799619D01*
X96047618Y-90799619D02*
X96142856Y-90752000D01*
X96142856Y-90752000D02*
X96190475Y-90704380D01*
X96190475Y-90704380D02*
X96238094Y-90609142D01*
X96238094Y-90609142D02*
X96238094Y-90323428D01*
X96238094Y-90323428D02*
X96190475Y-90228190D01*
X96190475Y-90228190D02*
X96142856Y-90180571D01*
X96142856Y-90180571D02*
X96047618Y-90132952D01*
X96047618Y-90132952D02*
X95857142Y-90132952D01*
X95857142Y-90132952D02*
X95761904Y-90180571D01*
X94904761Y-90752000D02*
X94999999Y-90799619D01*
X94999999Y-90799619D02*
X95190475Y-90799619D01*
X95190475Y-90799619D02*
X95285713Y-90752000D01*
X95285713Y-90752000D02*
X95333332Y-90704380D01*
X95333332Y-90704380D02*
X95380951Y-90609142D01*
X95380951Y-90609142D02*
X95380951Y-90323428D01*
X95380951Y-90323428D02*
X95333332Y-90228190D01*
X95333332Y-90228190D02*
X95285713Y-90180571D01*
X95285713Y-90180571D02*
X95190475Y-90132952D01*
X95190475Y-90132952D02*
X94999999Y-90132952D01*
X94999999Y-90132952D02*
X94904761Y-90180571D01*
X155654428Y-116987619D02*
X155463952Y-116987619D01*
X155463952Y-116987619D02*
X155368714Y-117035238D01*
X155368714Y-117035238D02*
X155273476Y-117130476D01*
X155273476Y-117130476D02*
X155225857Y-117320952D01*
X155225857Y-117320952D02*
X155225857Y-117654285D01*
X155225857Y-117654285D02*
X155273476Y-117844761D01*
X155273476Y-117844761D02*
X155368714Y-117940000D01*
X155368714Y-117940000D02*
X155463952Y-117987619D01*
X155463952Y-117987619D02*
X155654428Y-117987619D01*
X155654428Y-117987619D02*
X155749666Y-117940000D01*
X155749666Y-117940000D02*
X155844904Y-117844761D01*
X155844904Y-117844761D02*
X155892523Y-117654285D01*
X155892523Y-117654285D02*
X155892523Y-117320952D01*
X155892523Y-117320952D02*
X155844904Y-117130476D01*
X155844904Y-117130476D02*
X155749666Y-117035238D01*
X155749666Y-117035238D02*
X155654428Y-116987619D01*
X154797285Y-117320952D02*
X154797285Y-118320952D01*
X154797285Y-117368571D02*
X154702047Y-117320952D01*
X154702047Y-117320952D02*
X154511571Y-117320952D01*
X154511571Y-117320952D02*
X154416333Y-117368571D01*
X154416333Y-117368571D02*
X154368714Y-117416190D01*
X154368714Y-117416190D02*
X154321095Y-117511428D01*
X154321095Y-117511428D02*
X154321095Y-117797142D01*
X154321095Y-117797142D02*
X154368714Y-117892380D01*
X154368714Y-117892380D02*
X154416333Y-117940000D01*
X154416333Y-117940000D02*
X154511571Y-117987619D01*
X154511571Y-117987619D02*
X154702047Y-117987619D01*
X154702047Y-117987619D02*
X154797285Y-117940000D01*
X154035380Y-117320952D02*
X153654428Y-117320952D01*
X153892523Y-116987619D02*
X153892523Y-117844761D01*
X153892523Y-117844761D02*
X153844904Y-117940000D01*
X153844904Y-117940000D02*
X153749666Y-117987619D01*
X153749666Y-117987619D02*
X153654428Y-117987619D01*
X153321094Y-117987619D02*
X153321094Y-117320952D01*
X153321094Y-116987619D02*
X153368713Y-117035238D01*
X153368713Y-117035238D02*
X153321094Y-117082857D01*
X153321094Y-117082857D02*
X153273475Y-117035238D01*
X153273475Y-117035238D02*
X153321094Y-116987619D01*
X153321094Y-116987619D02*
X153321094Y-117082857D01*
X152702047Y-117987619D02*
X152797285Y-117940000D01*
X152797285Y-117940000D02*
X152844904Y-117892380D01*
X152844904Y-117892380D02*
X152892523Y-117797142D01*
X152892523Y-117797142D02*
X152892523Y-117511428D01*
X152892523Y-117511428D02*
X152844904Y-117416190D01*
X152844904Y-117416190D02*
X152797285Y-117368571D01*
X152797285Y-117368571D02*
X152702047Y-117320952D01*
X152702047Y-117320952D02*
X152559190Y-117320952D01*
X152559190Y-117320952D02*
X152463952Y-117368571D01*
X152463952Y-117368571D02*
X152416333Y-117416190D01*
X152416333Y-117416190D02*
X152368714Y-117511428D01*
X152368714Y-117511428D02*
X152368714Y-117797142D01*
X152368714Y-117797142D02*
X152416333Y-117892380D01*
X152416333Y-117892380D02*
X152463952Y-117940000D01*
X152463952Y-117940000D02*
X152559190Y-117987619D01*
X152559190Y-117987619D02*
X152702047Y-117987619D01*
X151940142Y-117320952D02*
X151940142Y-117987619D01*
X151940142Y-117416190D02*
X151892523Y-117368571D01*
X151892523Y-117368571D02*
X151797285Y-117320952D01*
X151797285Y-117320952D02*
X151654428Y-117320952D01*
X151654428Y-117320952D02*
X151559190Y-117368571D01*
X151559190Y-117368571D02*
X151511571Y-117463809D01*
X151511571Y-117463809D02*
X151511571Y-117987619D01*
X150606809Y-117987619D02*
X150606809Y-117463809D01*
X150606809Y-117463809D02*
X150654428Y-117368571D01*
X150654428Y-117368571D02*
X150749666Y-117320952D01*
X150749666Y-117320952D02*
X150940142Y-117320952D01*
X150940142Y-117320952D02*
X151035380Y-117368571D01*
X150606809Y-117940000D02*
X150702047Y-117987619D01*
X150702047Y-117987619D02*
X150940142Y-117987619D01*
X150940142Y-117987619D02*
X151035380Y-117940000D01*
X151035380Y-117940000D02*
X151082999Y-117844761D01*
X151082999Y-117844761D02*
X151082999Y-117749523D01*
X151082999Y-117749523D02*
X151035380Y-117654285D01*
X151035380Y-117654285D02*
X150940142Y-117606666D01*
X150940142Y-117606666D02*
X150702047Y-117606666D01*
X150702047Y-117606666D02*
X150606809Y-117559047D01*
X149987761Y-117987619D02*
X150082999Y-117940000D01*
X150082999Y-117940000D02*
X150130618Y-117844761D01*
X150130618Y-117844761D02*
X150130618Y-116987619D01*
X148844903Y-117320952D02*
X148844903Y-118320952D01*
X148844903Y-117368571D02*
X148749665Y-117320952D01*
X148749665Y-117320952D02*
X148559189Y-117320952D01*
X148559189Y-117320952D02*
X148463951Y-117368571D01*
X148463951Y-117368571D02*
X148416332Y-117416190D01*
X148416332Y-117416190D02*
X148368713Y-117511428D01*
X148368713Y-117511428D02*
X148368713Y-117797142D01*
X148368713Y-117797142D02*
X148416332Y-117892380D01*
X148416332Y-117892380D02*
X148463951Y-117940000D01*
X148463951Y-117940000D02*
X148559189Y-117987619D01*
X148559189Y-117987619D02*
X148749665Y-117987619D01*
X148749665Y-117987619D02*
X148844903Y-117940000D01*
X147511570Y-117320952D02*
X147511570Y-117987619D01*
X147940141Y-117320952D02*
X147940141Y-117844761D01*
X147940141Y-117844761D02*
X147892522Y-117940000D01*
X147892522Y-117940000D02*
X147797284Y-117987619D01*
X147797284Y-117987619D02*
X147654427Y-117987619D01*
X147654427Y-117987619D02*
X147559189Y-117940000D01*
X147559189Y-117940000D02*
X147511570Y-117892380D01*
X146892522Y-117987619D02*
X146987760Y-117940000D01*
X146987760Y-117940000D02*
X147035379Y-117844761D01*
X147035379Y-117844761D02*
X147035379Y-116987619D01*
X146368712Y-117987619D02*
X146463950Y-117940000D01*
X146463950Y-117940000D02*
X146511569Y-117844761D01*
X146511569Y-117844761D02*
X146511569Y-116987619D01*
X145987759Y-117606666D02*
X145225855Y-117606666D01*
X144321093Y-117320952D02*
X144321093Y-117987619D01*
X144749664Y-117320952D02*
X144749664Y-117844761D01*
X144749664Y-117844761D02*
X144702045Y-117940000D01*
X144702045Y-117940000D02*
X144606807Y-117987619D01*
X144606807Y-117987619D02*
X144463950Y-117987619D01*
X144463950Y-117987619D02*
X144368712Y-117940000D01*
X144368712Y-117940000D02*
X144321093Y-117892380D01*
X143844902Y-117320952D02*
X143844902Y-118320952D01*
X143844902Y-117368571D02*
X143749664Y-117320952D01*
X143749664Y-117320952D02*
X143559188Y-117320952D01*
X143559188Y-117320952D02*
X143463950Y-117368571D01*
X143463950Y-117368571D02*
X143416331Y-117416190D01*
X143416331Y-117416190D02*
X143368712Y-117511428D01*
X143368712Y-117511428D02*
X143368712Y-117797142D01*
X143368712Y-117797142D02*
X143416331Y-117892380D01*
X143416331Y-117892380D02*
X143463950Y-117940000D01*
X143463950Y-117940000D02*
X143559188Y-117987619D01*
X143559188Y-117987619D02*
X143749664Y-117987619D01*
X143749664Y-117987619D02*
X143844902Y-117940000D01*
X142987759Y-117940000D02*
X142892521Y-117987619D01*
X142892521Y-117987619D02*
X142702045Y-117987619D01*
X142702045Y-117987619D02*
X142606807Y-117940000D01*
X142606807Y-117940000D02*
X142559188Y-117844761D01*
X142559188Y-117844761D02*
X142559188Y-117797142D01*
X142559188Y-117797142D02*
X142606807Y-117701904D01*
X142606807Y-117701904D02*
X142702045Y-117654285D01*
X142702045Y-117654285D02*
X142844902Y-117654285D01*
X142844902Y-117654285D02*
X142940140Y-117606666D01*
X142940140Y-117606666D02*
X142987759Y-117511428D01*
X142987759Y-117511428D02*
X142987759Y-117463809D01*
X142987759Y-117463809D02*
X142940140Y-117368571D01*
X142940140Y-117368571D02*
X142844902Y-117320952D01*
X142844902Y-117320952D02*
X142702045Y-117320952D01*
X142702045Y-117320952D02*
X142606807Y-117368571D01*
X131040523Y-128486952D02*
X131040523Y-129153619D01*
X131278618Y-128106000D02*
X131516713Y-128820285D01*
X131516713Y-128820285D02*
X130897666Y-128820285D01*
X198508857Y-128161238D02*
X198604095Y-128113619D01*
X198604095Y-128113619D02*
X198746952Y-128113619D01*
X198746952Y-128113619D02*
X198889809Y-128161238D01*
X198889809Y-128161238D02*
X198985047Y-128256476D01*
X198985047Y-128256476D02*
X199032666Y-128351714D01*
X199032666Y-128351714D02*
X199080285Y-128542190D01*
X199080285Y-128542190D02*
X199080285Y-128685047D01*
X199080285Y-128685047D02*
X199032666Y-128875523D01*
X199032666Y-128875523D02*
X198985047Y-128970761D01*
X198985047Y-128970761D02*
X198889809Y-129066000D01*
X198889809Y-129066000D02*
X198746952Y-129113619D01*
X198746952Y-129113619D02*
X198651714Y-129113619D01*
X198651714Y-129113619D02*
X198508857Y-129066000D01*
X198508857Y-129066000D02*
X198461238Y-129018380D01*
X198461238Y-129018380D02*
X198461238Y-128685047D01*
X198461238Y-128685047D02*
X198651714Y-128685047D01*
X198032666Y-128446952D02*
X198032666Y-129113619D01*
X198032666Y-128542190D02*
X197985047Y-128494571D01*
X197985047Y-128494571D02*
X197889809Y-128446952D01*
X197889809Y-128446952D02*
X197746952Y-128446952D01*
X197746952Y-128446952D02*
X197651714Y-128494571D01*
X197651714Y-128494571D02*
X197604095Y-128589809D01*
X197604095Y-128589809D02*
X197604095Y-129113619D01*
X196699333Y-129113619D02*
X196699333Y-128113619D01*
X196699333Y-129066000D02*
X196794571Y-129113619D01*
X196794571Y-129113619D02*
X196985047Y-129113619D01*
X196985047Y-129113619D02*
X197080285Y-129066000D01*
X197080285Y-129066000D02*
X197127904Y-129018380D01*
X197127904Y-129018380D02*
X197175523Y-128923142D01*
X197175523Y-128923142D02*
X197175523Y-128637428D01*
X197175523Y-128637428D02*
X197127904Y-128542190D01*
X197127904Y-128542190D02*
X197080285Y-128494571D01*
X197080285Y-128494571D02*
X196985047Y-128446952D01*
X196985047Y-128446952D02*
X196794571Y-128446952D01*
X196794571Y-128446952D02*
X196699333Y-128494571D01*
X97214285Y-93415000D02*
X97071428Y-93462619D01*
X97071428Y-93462619D02*
X96833333Y-93462619D01*
X96833333Y-93462619D02*
X96738095Y-93415000D01*
X96738095Y-93415000D02*
X96690476Y-93367380D01*
X96690476Y-93367380D02*
X96642857Y-93272142D01*
X96642857Y-93272142D02*
X96642857Y-93176904D01*
X96642857Y-93176904D02*
X96690476Y-93081666D01*
X96690476Y-93081666D02*
X96738095Y-93034047D01*
X96738095Y-93034047D02*
X96833333Y-92986428D01*
X96833333Y-92986428D02*
X97023809Y-92938809D01*
X97023809Y-92938809D02*
X97119047Y-92891190D01*
X97119047Y-92891190D02*
X97166666Y-92843571D01*
X97166666Y-92843571D02*
X97214285Y-92748333D01*
X97214285Y-92748333D02*
X97214285Y-92653095D01*
X97214285Y-92653095D02*
X97166666Y-92557857D01*
X97166666Y-92557857D02*
X97119047Y-92510238D01*
X97119047Y-92510238D02*
X97023809Y-92462619D01*
X97023809Y-92462619D02*
X96785714Y-92462619D01*
X96785714Y-92462619D02*
X96642857Y-92510238D01*
X96214285Y-93462619D02*
X96214285Y-92462619D01*
X96214285Y-92462619D02*
X95976190Y-92462619D01*
X95976190Y-92462619D02*
X95833333Y-92510238D01*
X95833333Y-92510238D02*
X95738095Y-92605476D01*
X95738095Y-92605476D02*
X95690476Y-92700714D01*
X95690476Y-92700714D02*
X95642857Y-92891190D01*
X95642857Y-92891190D02*
X95642857Y-93034047D01*
X95642857Y-93034047D02*
X95690476Y-93224523D01*
X95690476Y-93224523D02*
X95738095Y-93319761D01*
X95738095Y-93319761D02*
X95833333Y-93415000D01*
X95833333Y-93415000D02*
X95976190Y-93462619D01*
X95976190Y-93462619D02*
X96214285Y-93462619D01*
X95261904Y-93176904D02*
X94785714Y-93176904D01*
X95357142Y-93462619D02*
X95023809Y-92462619D01*
X95023809Y-92462619D02*
X94690476Y-93462619D01*
X132289952Y-120991428D02*
X132956619Y-120991428D01*
X131909000Y-120753333D02*
X132623285Y-120515238D01*
X132623285Y-120515238D02*
X132623285Y-121134285D01*
X132861380Y-121515238D02*
X132909000Y-121562857D01*
X132909000Y-121562857D02*
X132956619Y-121515238D01*
X132956619Y-121515238D02*
X132909000Y-121467619D01*
X132909000Y-121467619D02*
X132861380Y-121515238D01*
X132861380Y-121515238D02*
X132956619Y-121515238D01*
X131956619Y-121896190D02*
X131956619Y-122562856D01*
X131956619Y-122562856D02*
X132956619Y-122134285D01*
X132956619Y-122943809D02*
X131956619Y-122943809D01*
X132575666Y-123039047D02*
X132956619Y-123324761D01*
X132289952Y-123324761D02*
X132670904Y-122943809D01*
X182454952Y-120991428D02*
X183121619Y-120991428D01*
X182074000Y-120753333D02*
X182788285Y-120515238D01*
X182788285Y-120515238D02*
X182788285Y-121134285D01*
X183026380Y-121515238D02*
X183074000Y-121562857D01*
X183074000Y-121562857D02*
X183121619Y-121515238D01*
X183121619Y-121515238D02*
X183074000Y-121467619D01*
X183074000Y-121467619D02*
X183026380Y-121515238D01*
X183026380Y-121515238D02*
X183121619Y-121515238D01*
X182121619Y-121896190D02*
X182121619Y-122562856D01*
X182121619Y-122562856D02*
X183121619Y-122134285D01*
X183121619Y-122943809D02*
X182121619Y-122943809D01*
X182740666Y-123039047D02*
X183121619Y-123324761D01*
X182454952Y-123324761D02*
X182835904Y-122943809D01*
X170008952Y-120991428D02*
X170675619Y-120991428D01*
X169628000Y-120753333D02*
X170342285Y-120515238D01*
X170342285Y-120515238D02*
X170342285Y-121134285D01*
X170580380Y-121515238D02*
X170628000Y-121562857D01*
X170628000Y-121562857D02*
X170675619Y-121515238D01*
X170675619Y-121515238D02*
X170628000Y-121467619D01*
X170628000Y-121467619D02*
X170580380Y-121515238D01*
X170580380Y-121515238D02*
X170675619Y-121515238D01*
X169675619Y-121896190D02*
X169675619Y-122562856D01*
X169675619Y-122562856D02*
X170675619Y-122134285D01*
X170675619Y-122943809D02*
X169675619Y-122943809D01*
X170294666Y-123039047D02*
X170675619Y-123324761D01*
X170008952Y-123324761D02*
X170389904Y-122943809D01*
X109556952Y-120991428D02*
X110223619Y-120991428D01*
X109176000Y-120753333D02*
X109890285Y-120515238D01*
X109890285Y-120515238D02*
X109890285Y-121134285D01*
X110128380Y-121515238D02*
X110176000Y-121562857D01*
X110176000Y-121562857D02*
X110223619Y-121515238D01*
X110223619Y-121515238D02*
X110176000Y-121467619D01*
X110176000Y-121467619D02*
X110128380Y-121515238D01*
X110128380Y-121515238D02*
X110223619Y-121515238D01*
X109223619Y-121896190D02*
X109223619Y-122562856D01*
X109223619Y-122562856D02*
X110223619Y-122134285D01*
X110223619Y-122943809D02*
X109223619Y-122943809D01*
X109842666Y-123039047D02*
X110223619Y-123324761D01*
X109556952Y-123324761D02*
X109937904Y-122943809D01*
X147275952Y-120991428D02*
X147942619Y-120991428D01*
X146895000Y-120753333D02*
X147609285Y-120515238D01*
X147609285Y-120515238D02*
X147609285Y-121134285D01*
X147847380Y-121515238D02*
X147895000Y-121562857D01*
X147895000Y-121562857D02*
X147942619Y-121515238D01*
X147942619Y-121515238D02*
X147895000Y-121467619D01*
X147895000Y-121467619D02*
X147847380Y-121515238D01*
X147847380Y-121515238D02*
X147942619Y-121515238D01*
X146942619Y-121896190D02*
X146942619Y-122562856D01*
X146942619Y-122562856D02*
X147942619Y-122134285D01*
X147942619Y-122943809D02*
X146942619Y-122943809D01*
X147561666Y-123039047D02*
X147942619Y-123324761D01*
X147275952Y-123324761D02*
X147656904Y-122943809D01*
X154895952Y-120991428D02*
X155562619Y-120991428D01*
X154515000Y-120753333D02*
X155229285Y-120515238D01*
X155229285Y-120515238D02*
X155229285Y-121134285D01*
X155467380Y-121515238D02*
X155515000Y-121562857D01*
X155515000Y-121562857D02*
X155562619Y-121515238D01*
X155562619Y-121515238D02*
X155515000Y-121467619D01*
X155515000Y-121467619D02*
X155467380Y-121515238D01*
X155467380Y-121515238D02*
X155562619Y-121515238D01*
X154562619Y-121896190D02*
X154562619Y-122562856D01*
X154562619Y-122562856D02*
X155562619Y-122134285D01*
X155562619Y-122943809D02*
X154562619Y-122943809D01*
X155181666Y-123039047D02*
X155562619Y-123324761D01*
X154895952Y-123324761D02*
X155276904Y-122943809D01*
X137369952Y-120991428D02*
X138036619Y-120991428D01*
X136989000Y-120753333D02*
X137703285Y-120515238D01*
X137703285Y-120515238D02*
X137703285Y-121134285D01*
X137941380Y-121515238D02*
X137989000Y-121562857D01*
X137989000Y-121562857D02*
X138036619Y-121515238D01*
X138036619Y-121515238D02*
X137989000Y-121467619D01*
X137989000Y-121467619D02*
X137941380Y-121515238D01*
X137941380Y-121515238D02*
X138036619Y-121515238D01*
X137036619Y-121896190D02*
X137036619Y-122562856D01*
X137036619Y-122562856D02*
X138036619Y-122134285D01*
X138036619Y-122943809D02*
X137036619Y-122943809D01*
X137655666Y-123039047D02*
X138036619Y-123324761D01*
X137369952Y-123324761D02*
X137750904Y-122943809D01*
X124669952Y-120991428D02*
X125336619Y-120991428D01*
X124289000Y-120753333D02*
X125003285Y-120515238D01*
X125003285Y-120515238D02*
X125003285Y-121134285D01*
X125241380Y-121515238D02*
X125289000Y-121562857D01*
X125289000Y-121562857D02*
X125336619Y-121515238D01*
X125336619Y-121515238D02*
X125289000Y-121467619D01*
X125289000Y-121467619D02*
X125241380Y-121515238D01*
X125241380Y-121515238D02*
X125336619Y-121515238D01*
X124336619Y-121896190D02*
X124336619Y-122562856D01*
X124336619Y-122562856D02*
X125336619Y-122134285D01*
X125336619Y-122943809D02*
X124336619Y-122943809D01*
X124955666Y-123039047D02*
X125336619Y-123324761D01*
X124669952Y-123324761D02*
X125050904Y-122943809D01*
X177501952Y-120991428D02*
X178168619Y-120991428D01*
X177121000Y-120753333D02*
X177835285Y-120515238D01*
X177835285Y-120515238D02*
X177835285Y-121134285D01*
X178073380Y-121515238D02*
X178121000Y-121562857D01*
X178121000Y-121562857D02*
X178168619Y-121515238D01*
X178168619Y-121515238D02*
X178121000Y-121467619D01*
X178121000Y-121467619D02*
X178073380Y-121515238D01*
X178073380Y-121515238D02*
X178168619Y-121515238D01*
X177168619Y-121896190D02*
X177168619Y-122562856D01*
X177168619Y-122562856D02*
X178168619Y-122134285D01*
X178168619Y-122943809D02*
X177168619Y-122943809D01*
X177787666Y-123039047D02*
X178168619Y-123324761D01*
X177501952Y-123324761D02*
X177882904Y-122943809D01*
X192487952Y-120991428D02*
X193154619Y-120991428D01*
X192107000Y-120753333D02*
X192821285Y-120515238D01*
X192821285Y-120515238D02*
X192821285Y-121134285D01*
X193059380Y-121515238D02*
X193107000Y-121562857D01*
X193107000Y-121562857D02*
X193154619Y-121515238D01*
X193154619Y-121515238D02*
X193107000Y-121467619D01*
X193107000Y-121467619D02*
X193059380Y-121515238D01*
X193059380Y-121515238D02*
X193154619Y-121515238D01*
X192154619Y-121896190D02*
X192154619Y-122562856D01*
X192154619Y-122562856D02*
X193154619Y-122134285D01*
X193154619Y-122943809D02*
X192154619Y-122943809D01*
X192773666Y-123039047D02*
X193154619Y-123324761D01*
X192487952Y-123324761D02*
X192868904Y-122943809D01*
X164928952Y-120991428D02*
X165595619Y-120991428D01*
X164548000Y-120753333D02*
X165262285Y-120515238D01*
X165262285Y-120515238D02*
X165262285Y-121134285D01*
X165500380Y-121515238D02*
X165548000Y-121562857D01*
X165548000Y-121562857D02*
X165595619Y-121515238D01*
X165595619Y-121515238D02*
X165548000Y-121467619D01*
X165548000Y-121467619D02*
X165500380Y-121515238D01*
X165500380Y-121515238D02*
X165595619Y-121515238D01*
X164595619Y-121896190D02*
X164595619Y-122562856D01*
X164595619Y-122562856D02*
X165595619Y-122134285D01*
X165595619Y-122943809D02*
X164595619Y-122943809D01*
X165214666Y-123039047D02*
X165595619Y-123324761D01*
X164928952Y-123324761D02*
X165309904Y-122943809D01*
X119589952Y-120991428D02*
X120256619Y-120991428D01*
X119209000Y-120753333D02*
X119923285Y-120515238D01*
X119923285Y-120515238D02*
X119923285Y-121134285D01*
X120161380Y-121515238D02*
X120209000Y-121562857D01*
X120209000Y-121562857D02*
X120256619Y-121515238D01*
X120256619Y-121515238D02*
X120209000Y-121467619D01*
X120209000Y-121467619D02*
X120161380Y-121515238D01*
X120161380Y-121515238D02*
X120256619Y-121515238D01*
X119256619Y-121896190D02*
X119256619Y-122562856D01*
X119256619Y-122562856D02*
X120256619Y-122134285D01*
X120256619Y-122943809D02*
X119256619Y-122943809D01*
X119875666Y-123039047D02*
X120256619Y-123324761D01*
X119589952Y-123324761D02*
X119970904Y-122943809D01*
X187534952Y-120991428D02*
X188201619Y-120991428D01*
X187154000Y-120753333D02*
X187868285Y-120515238D01*
X187868285Y-120515238D02*
X187868285Y-121134285D01*
X188106380Y-121515238D02*
X188154000Y-121562857D01*
X188154000Y-121562857D02*
X188201619Y-121515238D01*
X188201619Y-121515238D02*
X188154000Y-121467619D01*
X188154000Y-121467619D02*
X188106380Y-121515238D01*
X188106380Y-121515238D02*
X188201619Y-121515238D01*
X187201619Y-121896190D02*
X187201619Y-122562856D01*
X187201619Y-122562856D02*
X188201619Y-122134285D01*
X188201619Y-122943809D02*
X187201619Y-122943809D01*
X187820666Y-123039047D02*
X188201619Y-123324761D01*
X187534952Y-123324761D02*
X187915904Y-122943809D01*
X159975952Y-120991428D02*
X160642619Y-120991428D01*
X159595000Y-120753333D02*
X160309285Y-120515238D01*
X160309285Y-120515238D02*
X160309285Y-121134285D01*
X160547380Y-121515238D02*
X160595000Y-121562857D01*
X160595000Y-121562857D02*
X160642619Y-121515238D01*
X160642619Y-121515238D02*
X160595000Y-121467619D01*
X160595000Y-121467619D02*
X160547380Y-121515238D01*
X160547380Y-121515238D02*
X160642619Y-121515238D01*
X159642619Y-121896190D02*
X159642619Y-122562856D01*
X159642619Y-122562856D02*
X160642619Y-122134285D01*
X160642619Y-122943809D02*
X159642619Y-122943809D01*
X160261666Y-123039047D02*
X160642619Y-123324761D01*
X159975952Y-123324761D02*
X160356904Y-122943809D01*
X142322952Y-120991428D02*
X142989619Y-120991428D01*
X141942000Y-120753333D02*
X142656285Y-120515238D01*
X142656285Y-120515238D02*
X142656285Y-121134285D01*
X142894380Y-121515238D02*
X142942000Y-121562857D01*
X142942000Y-121562857D02*
X142989619Y-121515238D01*
X142989619Y-121515238D02*
X142942000Y-121467619D01*
X142942000Y-121467619D02*
X142894380Y-121515238D01*
X142894380Y-121515238D02*
X142989619Y-121515238D01*
X141989619Y-121896190D02*
X141989619Y-122562856D01*
X141989619Y-122562856D02*
X142989619Y-122134285D01*
X142989619Y-122943809D02*
X141989619Y-122943809D01*
X142608666Y-123039047D02*
X142989619Y-123324761D01*
X142322952Y-123324761D02*
X142703904Y-122943809D01*
X114509952Y-120991428D02*
X115176619Y-120991428D01*
X114129000Y-120753333D02*
X114843285Y-120515238D01*
X114843285Y-120515238D02*
X114843285Y-121134285D01*
X115081380Y-121515238D02*
X115129000Y-121562857D01*
X115129000Y-121562857D02*
X115176619Y-121515238D01*
X115176619Y-121515238D02*
X115129000Y-121467619D01*
X115129000Y-121467619D02*
X115081380Y-121515238D01*
X115081380Y-121515238D02*
X115176619Y-121515238D01*
X114176619Y-121896190D02*
X114176619Y-122562856D01*
X114176619Y-122562856D02*
X115176619Y-122134285D01*
X115176619Y-122943809D02*
X114176619Y-122943809D01*
X114795666Y-123039047D02*
X115176619Y-123324761D01*
X114509952Y-123324761D02*
X114890904Y-122943809D01*
D11*
X131586500Y-121682742D02*
X131586500Y-122157258D01*
X130541500Y-121682742D02*
X130541500Y-122157258D01*
X181751500Y-121682742D02*
X181751500Y-122157258D01*
X180706500Y-121682742D02*
X180706500Y-122157258D01*
X169305500Y-121682742D02*
X169305500Y-122157258D01*
X168260500Y-121682742D02*
X168260500Y-122157258D01*
X108853500Y-121682742D02*
X108853500Y-122157258D01*
X107808500Y-121682742D02*
X107808500Y-122157258D01*
X146572500Y-121682742D02*
X146572500Y-122157258D01*
X145527500Y-121682742D02*
X145527500Y-122157258D01*
X154192500Y-121682742D02*
X154192500Y-122157258D01*
X153147500Y-121682742D02*
X153147500Y-122157258D01*
X136666500Y-121682742D02*
X136666500Y-122157258D01*
X135621500Y-121682742D02*
X135621500Y-122157258D01*
X123966500Y-121682742D02*
X123966500Y-122157258D01*
X122921500Y-121682742D02*
X122921500Y-122157258D01*
X176798500Y-121682742D02*
X176798500Y-122157258D01*
X175753500Y-121682742D02*
X175753500Y-122157258D01*
X191784500Y-121682742D02*
X191784500Y-122157258D01*
X190739500Y-121682742D02*
X190739500Y-122157258D01*
X164225500Y-121682742D02*
X164225500Y-122157258D01*
X163180500Y-121682742D02*
X163180500Y-122157258D01*
X118886500Y-121682742D02*
X118886500Y-122157258D01*
X117841500Y-121682742D02*
X117841500Y-122157258D01*
X186831500Y-121682742D02*
X186831500Y-122157258D01*
X185786500Y-121682742D02*
X185786500Y-122157258D01*
X159272500Y-121682742D02*
X159272500Y-122157258D01*
X158227500Y-121682742D02*
X158227500Y-122157258D01*
X141619500Y-121682742D02*
X141619500Y-122157258D01*
X140574500Y-121682742D02*
X140574500Y-122157258D01*
X113806500Y-121682742D02*
X113806500Y-122157258D01*
X112761500Y-121682742D02*
X112761500Y-122157258D01*
%LPC*%
D12*
X153703000Y-125313000D03*
D13*
X158703000Y-125313000D03*
X163703000Y-125313000D03*
X168703000Y-125313000D03*
D14*
X162225000Y-114800000D03*
D15*
X164765000Y-114800000D03*
X164765000Y-107180000D03*
X162225000Y-107180000D03*
D14*
X133500000Y-114800000D03*
D15*
X136040000Y-114800000D03*
X136040000Y-107180000D03*
X133500000Y-107180000D03*
D14*
X191000000Y-114800000D03*
D15*
X193540000Y-114800000D03*
X193540000Y-107180000D03*
X191000000Y-107180000D03*
D14*
X156500000Y-114800000D03*
D15*
X159040000Y-114800000D03*
X159040000Y-107180000D03*
X156500000Y-107180000D03*
D12*
X197946000Y-125313000D03*
D13*
X202946000Y-125313000D03*
D12*
X108364000Y-125440000D03*
D13*
X113364000Y-125440000D03*
X118364000Y-125440000D03*
X123364000Y-125440000D03*
D14*
X110460000Y-114800000D03*
D15*
X113000000Y-114800000D03*
X113000000Y-107180000D03*
X110460000Y-107180000D03*
D14*
X168000000Y-114800000D03*
D15*
X170540000Y-114800000D03*
X170540000Y-107180000D03*
X168000000Y-107180000D03*
D16*
X94400000Y-83834000D03*
D12*
X131097000Y-125313000D03*
D13*
X136097000Y-125313000D03*
X141097000Y-125313000D03*
X146097000Y-125313000D03*
D17*
X99000000Y-95544000D03*
D18*
X99000000Y-93004000D03*
X99000000Y-90464000D03*
X99000000Y-87924000D03*
D14*
X150725000Y-114800000D03*
D15*
X153265000Y-114800000D03*
X153265000Y-107180000D03*
X150725000Y-107180000D03*
D14*
X139225000Y-114800000D03*
D15*
X141765000Y-114800000D03*
X141765000Y-107180000D03*
X139225000Y-107180000D03*
D12*
X176309000Y-125313000D03*
D13*
X181309000Y-125313000D03*
X186309000Y-125313000D03*
X191309000Y-125313000D03*
D17*
X130500000Y-91000000D03*
D16*
X210479000Y-83834000D03*
D14*
X127725000Y-114800000D03*
D15*
X130265000Y-114800000D03*
X130265000Y-107180000D03*
X127725000Y-107180000D03*
D14*
X179500000Y-114800000D03*
D15*
X182040000Y-114800000D03*
X182040000Y-107180000D03*
X179500000Y-107180000D03*
D14*
X116225000Y-114800000D03*
D15*
X118765000Y-114800000D03*
X118765000Y-107180000D03*
X116225000Y-107180000D03*
D17*
X126000000Y-87000000D03*
D14*
X122000000Y-114800000D03*
D15*
X124540000Y-114800000D03*
X124540000Y-107180000D03*
X122000000Y-107180000D03*
D16*
X210479000Y-126913000D03*
D14*
X173725000Y-114800000D03*
D15*
X176265000Y-114800000D03*
X176265000Y-107180000D03*
X173725000Y-107180000D03*
D14*
X145000000Y-114800000D03*
D15*
X147540000Y-114800000D03*
X147540000Y-107180000D03*
X145000000Y-107180000D03*
D14*
X185225000Y-114800000D03*
D15*
X187765000Y-114800000D03*
X187765000Y-107180000D03*
X185225000Y-107180000D03*
D16*
X94400000Y-126913000D03*
D14*
X104725000Y-114800000D03*
D15*
X107265000Y-114800000D03*
X107265000Y-107180000D03*
X104725000Y-107180000D03*
D19*
X131064000Y-121095000D03*
X131064000Y-122745000D03*
X181229000Y-121095000D03*
X181229000Y-122745000D03*
X168783000Y-121095000D03*
X168783000Y-122745000D03*
X108331000Y-121095000D03*
X108331000Y-122745000D03*
X146050000Y-121095000D03*
X146050000Y-122745000D03*
X153670000Y-121095000D03*
X153670000Y-122745000D03*
X136144000Y-121095000D03*
X136144000Y-122745000D03*
X123444000Y-121095000D03*
X123444000Y-122745000D03*
X176276000Y-121095000D03*
X176276000Y-122745000D03*
X191262000Y-121095000D03*
X191262000Y-122745000D03*
X163703000Y-121095000D03*
X163703000Y-122745000D03*
X118364000Y-121095000D03*
X118364000Y-122745000D03*
X186309000Y-121095000D03*
X186309000Y-122745000D03*
X158750000Y-121095000D03*
X158750000Y-122745000D03*
X141097000Y-121095000D03*
X141097000Y-122745000D03*
X113284000Y-121095000D03*
X113284000Y-122745000D03*
M02*
