%TF.GenerationSoftware,KiCad,Pcbnew,7.0.1*%
%TF.CreationDate,2023-06-13T03:05:33-04:00*%
%TF.ProjectId,i2c 24vin,69326320-3234-4766-996e-2e6b69636164,rev?*%
%TF.SameCoordinates,Original*%
%TF.FileFunction,Drillmap*%
%TF.FilePolarity,Positive*%
%FSLAX45Y45*%
G04 Gerber Fmt 4.5, Leading zero omitted, Abs format (unit mm)*
G04 Created by KiCad (PCBNEW 7.0.1) date 2023-06-13 03:05:33*
%MOMM*%
%LPD*%
G01*
G04 APERTURE LIST*
%ADD10C,0.100000*%
%ADD11C,0.200000*%
%ADD12C,0.040000*%
%ADD13C,0.080000*%
%ADD14C,0.130000*%
G04 APERTURE END LIST*
D10*
X9084400Y-12691300D02*
G75*
G03*
X9440000Y-13046900I355600J0D01*
G01*
X9084400Y-8383400D02*
X9084400Y-12691300D01*
X9440000Y-8027800D02*
X21047900Y-8027800D01*
X21047900Y-13047127D02*
X9440000Y-13046900D01*
X21047900Y-13047127D02*
G75*
G03*
X21403500Y-12678600I0J355827D01*
G01*
X9440000Y-8027800D02*
G75*
G03*
X9084400Y-8383400I0J-355600D01*
G01*
X21403500Y-8383400D02*
G75*
G03*
X21047900Y-8027800I-355600J0D01*
G01*
X21403500Y-8383400D02*
X21403500Y-12678600D01*
D11*
D12*
X10186800Y-9140700D02*
X10226800Y-9180700D01*
X10226800Y-9140700D02*
X10186800Y-9180700D01*
X10256250Y-9303750D02*
X10296250Y-9343750D01*
X10296250Y-9303750D02*
X10256250Y-9343750D01*
X10301100Y-9026400D02*
X10341100Y-9066400D01*
X10341100Y-9026400D02*
X10301100Y-9066400D01*
X10597200Y-8539800D02*
X10637200Y-8579800D01*
X10637200Y-8539800D02*
X10597200Y-8579800D01*
X10680000Y-11980000D02*
X10720000Y-12020000D01*
X10720000Y-11980000D02*
X10680000Y-12020000D01*
X10800400Y-8692200D02*
X10840400Y-8732200D01*
X10840400Y-8692200D02*
X10800400Y-8732200D01*
X10880000Y-8280000D02*
X10920000Y-8320000D01*
X10920000Y-8280000D02*
X10880000Y-8320000D01*
X10952800Y-8692200D02*
X10992800Y-8732200D01*
X10992800Y-8692200D02*
X10952800Y-8732200D01*
X11003600Y-8311200D02*
X11043600Y-8351200D01*
X11043600Y-8311200D02*
X11003600Y-8351200D01*
X11079800Y-12768900D02*
X11119800Y-12808900D01*
X11119800Y-12768900D02*
X11079800Y-12808900D01*
X11230000Y-11980000D02*
X11270000Y-12020000D01*
X11270000Y-11980000D02*
X11230000Y-12020000D01*
X11280000Y-8880000D02*
X11320000Y-8920000D01*
X11320000Y-8880000D02*
X11280000Y-8920000D01*
X11283000Y-8539800D02*
X11323000Y-8579800D01*
X11323000Y-8539800D02*
X11283000Y-8579800D01*
X11530000Y-9930000D02*
X11570000Y-9970000D01*
X11570000Y-9930000D02*
X11530000Y-9970000D01*
X11530000Y-10080000D02*
X11570000Y-10120000D01*
X11570000Y-10080000D02*
X11530000Y-10120000D01*
X11575100Y-12756200D02*
X11615100Y-12796200D01*
X11615100Y-12756200D02*
X11575100Y-12796200D01*
X11580000Y-8980000D02*
X11620000Y-9020000D01*
X11620000Y-8980000D02*
X11580000Y-9020000D01*
X11651300Y-8679500D02*
X11691300Y-8719500D01*
X11691300Y-8679500D02*
X11651300Y-8719500D01*
X11830000Y-11980000D02*
X11870000Y-12020000D01*
X11870000Y-11980000D02*
X11830000Y-12020000D01*
X11918000Y-8679500D02*
X11958000Y-8719500D01*
X11958000Y-8679500D02*
X11918000Y-8719500D01*
X11980000Y-8980000D02*
X12020000Y-9020000D01*
X12020000Y-8980000D02*
X11980000Y-9020000D01*
X12070400Y-12743500D02*
X12110400Y-12783500D01*
X12110400Y-12743500D02*
X12070400Y-12783500D01*
X12184700Y-8679500D02*
X12224700Y-8719500D01*
X12224700Y-8679500D02*
X12184700Y-8719500D01*
X12239500Y-9140700D02*
X12279500Y-9180700D01*
X12279500Y-9140700D02*
X12239500Y-9180700D01*
X12353800Y-9216900D02*
X12393800Y-9256900D01*
X12393800Y-9216900D02*
X12353800Y-9256900D01*
X12380000Y-11980000D02*
X12420000Y-12020000D01*
X12420000Y-11980000D02*
X12380000Y-12020000D01*
X13391200Y-12756200D02*
X13431200Y-12796200D01*
X13431200Y-12756200D02*
X13391200Y-12796200D01*
X13530000Y-11980000D02*
X13570000Y-12020000D01*
X13570000Y-11980000D02*
X13530000Y-12020000D01*
X13823000Y-12756200D02*
X13863000Y-12796200D01*
X13863000Y-12756200D02*
X13823000Y-12796200D01*
X14180000Y-11980000D02*
X14220000Y-12020000D01*
X14220000Y-11980000D02*
X14180000Y-12020000D01*
X14343700Y-12768900D02*
X14383700Y-12808900D01*
X14383700Y-12768900D02*
X14343700Y-12808900D01*
X14730000Y-11980000D02*
X14770000Y-12020000D01*
X14770000Y-11980000D02*
X14730000Y-12020000D01*
X15280000Y-11980000D02*
X15320000Y-12020000D01*
X15320000Y-11980000D02*
X15280000Y-12020000D01*
X15613700Y-12756200D02*
X15653700Y-12796200D01*
X15653700Y-12756200D02*
X15613700Y-12796200D01*
X15880000Y-11980000D02*
X15920000Y-12020000D01*
X15920000Y-11980000D02*
X15880000Y-12020000D01*
X16134400Y-12743500D02*
X16174400Y-12783500D01*
X16174400Y-12743500D02*
X16134400Y-12783500D01*
X16430000Y-11980000D02*
X16470000Y-12020000D01*
X16470000Y-11980000D02*
X16430000Y-12020000D01*
X16617000Y-12730800D02*
X16657000Y-12770800D01*
X16657000Y-12730800D02*
X16617000Y-12770800D01*
X17030000Y-11980000D02*
X17070000Y-12020000D01*
X17070000Y-11980000D02*
X17030000Y-12020000D01*
X17580000Y-11980000D02*
X17620000Y-12020000D01*
X17620000Y-11980000D02*
X17580000Y-12020000D01*
X17899700Y-12756200D02*
X17939700Y-12796200D01*
X17939700Y-12756200D02*
X17899700Y-12796200D01*
X18130000Y-11980000D02*
X18170000Y-12020000D01*
X18170000Y-11980000D02*
X18130000Y-12020000D01*
X18344200Y-12743500D02*
X18384200Y-12783500D01*
X18384200Y-12743500D02*
X18344200Y-12783500D01*
X18730000Y-11980000D02*
X18770000Y-12020000D01*
X18770000Y-11980000D02*
X18730000Y-12020000D01*
X18877600Y-12743500D02*
X18917600Y-12783500D01*
X18917600Y-12743500D02*
X18877600Y-12783500D01*
D13*
X10512500Y-10718000D02*
G75*
G03*
X10512500Y-10718000I-40000J0D01*
G01*
X10512500Y-11480000D02*
G75*
G03*
X10512500Y-11480000I-40000J0D01*
G01*
X10766500Y-10718000D02*
G75*
G03*
X10766500Y-10718000I-40000J0D01*
G01*
X10766500Y-11480000D02*
G75*
G03*
X10766500Y-11480000I-40000J0D01*
G01*
X11086000Y-10718000D02*
G75*
G03*
X11086000Y-10718000I-40000J0D01*
G01*
X11086000Y-11480000D02*
G75*
G03*
X11086000Y-11480000I-40000J0D01*
G01*
X11340000Y-10718000D02*
G75*
G03*
X11340000Y-10718000I-40000J0D01*
G01*
X11340000Y-11480000D02*
G75*
G03*
X11340000Y-11480000I-40000J0D01*
G01*
X11662500Y-10718000D02*
G75*
G03*
X11662500Y-10718000I-40000J0D01*
G01*
X11662500Y-11480000D02*
G75*
G03*
X11662500Y-11480000I-40000J0D01*
G01*
X11916500Y-10718000D02*
G75*
G03*
X11916500Y-10718000I-40000J0D01*
G01*
X11916500Y-11480000D02*
G75*
G03*
X11916500Y-11480000I-40000J0D01*
G01*
X12240000Y-10718000D02*
G75*
G03*
X12240000Y-10718000I-40000J0D01*
G01*
X12240000Y-11480000D02*
G75*
G03*
X12240000Y-11480000I-40000J0D01*
G01*
X12494000Y-10718000D02*
G75*
G03*
X12494000Y-10718000I-40000J0D01*
G01*
X12494000Y-11480000D02*
G75*
G03*
X12494000Y-11480000I-40000J0D01*
G01*
X12812500Y-10718000D02*
G75*
G03*
X12812500Y-10718000I-40000J0D01*
G01*
X12812500Y-11480000D02*
G75*
G03*
X12812500Y-11480000I-40000J0D01*
G01*
X13066500Y-10718000D02*
G75*
G03*
X13066500Y-10718000I-40000J0D01*
G01*
X13066500Y-11480000D02*
G75*
G03*
X13066500Y-11480000I-40000J0D01*
G01*
X13390000Y-10718000D02*
G75*
G03*
X13390000Y-10718000I-40000J0D01*
G01*
X13390000Y-11480000D02*
G75*
G03*
X13390000Y-11480000I-40000J0D01*
G01*
X13644000Y-10718000D02*
G75*
G03*
X13644000Y-10718000I-40000J0D01*
G01*
X13644000Y-11480000D02*
G75*
G03*
X13644000Y-11480000I-40000J0D01*
G01*
X13962500Y-10718000D02*
G75*
G03*
X13962500Y-10718000I-40000J0D01*
G01*
X13962500Y-11480000D02*
G75*
G03*
X13962500Y-11480000I-40000J0D01*
G01*
X14216500Y-10718000D02*
G75*
G03*
X14216500Y-10718000I-40000J0D01*
G01*
X14216500Y-11480000D02*
G75*
G03*
X14216500Y-11480000I-40000J0D01*
G01*
X14540000Y-10718000D02*
G75*
G03*
X14540000Y-10718000I-40000J0D01*
G01*
X14540000Y-11480000D02*
G75*
G03*
X14540000Y-11480000I-40000J0D01*
G01*
X14794000Y-10718000D02*
G75*
G03*
X14794000Y-10718000I-40000J0D01*
G01*
X14794000Y-11480000D02*
G75*
G03*
X14794000Y-11480000I-40000J0D01*
G01*
X15112500Y-10718000D02*
G75*
G03*
X15112500Y-10718000I-40000J0D01*
G01*
X15112500Y-11480000D02*
G75*
G03*
X15112500Y-11480000I-40000J0D01*
G01*
X15366500Y-10718000D02*
G75*
G03*
X15366500Y-10718000I-40000J0D01*
G01*
X15366500Y-11480000D02*
G75*
G03*
X15366500Y-11480000I-40000J0D01*
G01*
X15690000Y-10718000D02*
G75*
G03*
X15690000Y-10718000I-40000J0D01*
G01*
X15690000Y-11480000D02*
G75*
G03*
X15690000Y-11480000I-40000J0D01*
G01*
X15944000Y-10718000D02*
G75*
G03*
X15944000Y-10718000I-40000J0D01*
G01*
X15944000Y-11480000D02*
G75*
G03*
X15944000Y-11480000I-40000J0D01*
G01*
X16262500Y-10718000D02*
G75*
G03*
X16262500Y-10718000I-40000J0D01*
G01*
X16262500Y-11480000D02*
G75*
G03*
X16262500Y-11480000I-40000J0D01*
G01*
X16516500Y-10718000D02*
G75*
G03*
X16516500Y-10718000I-40000J0D01*
G01*
X16516500Y-11480000D02*
G75*
G03*
X16516500Y-11480000I-40000J0D01*
G01*
X16840000Y-10718000D02*
G75*
G03*
X16840000Y-10718000I-40000J0D01*
G01*
X16840000Y-11480000D02*
G75*
G03*
X16840000Y-11480000I-40000J0D01*
G01*
X17094000Y-10718000D02*
G75*
G03*
X17094000Y-10718000I-40000J0D01*
G01*
X17094000Y-11480000D02*
G75*
G03*
X17094000Y-11480000I-40000J0D01*
G01*
X17412500Y-10718000D02*
G75*
G03*
X17412500Y-10718000I-40000J0D01*
G01*
X17412500Y-11480000D02*
G75*
G03*
X17412500Y-11480000I-40000J0D01*
G01*
X17666500Y-10718000D02*
G75*
G03*
X17666500Y-10718000I-40000J0D01*
G01*
X17666500Y-11480000D02*
G75*
G03*
X17666500Y-11480000I-40000J0D01*
G01*
X17990000Y-10718000D02*
G75*
G03*
X17990000Y-10718000I-40000J0D01*
G01*
X17990000Y-11480000D02*
G75*
G03*
X17990000Y-11480000I-40000J0D01*
G01*
X18244000Y-10718000D02*
G75*
G03*
X18244000Y-10718000I-40000J0D01*
G01*
X18244000Y-11480000D02*
G75*
G03*
X18244000Y-11480000I-40000J0D01*
G01*
X18562500Y-10718000D02*
G75*
G03*
X18562500Y-10718000I-40000J0D01*
G01*
X18562500Y-11480000D02*
G75*
G03*
X18562500Y-11480000I-40000J0D01*
G01*
X18816500Y-10718000D02*
G75*
G03*
X18816500Y-10718000I-40000J0D01*
G01*
X18816500Y-11480000D02*
G75*
G03*
X18816500Y-11480000I-40000J0D01*
G01*
X19140000Y-10718000D02*
G75*
G03*
X19140000Y-10718000I-40000J0D01*
G01*
X19140000Y-11480000D02*
G75*
G03*
X19140000Y-11480000I-40000J0D01*
G01*
X19394000Y-10718000D02*
G75*
G03*
X19394000Y-10718000I-40000J0D01*
G01*
X19394000Y-11480000D02*
G75*
G03*
X19394000Y-11480000I-40000J0D01*
G01*
D10*
X9900000Y-8742400D02*
X9900000Y-8842400D01*
X9850000Y-8792400D02*
X9950000Y-8792400D01*
X9900000Y-8996400D02*
X9900000Y-9096400D01*
X9850000Y-9046400D02*
X9950000Y-9046400D01*
X9900000Y-9250400D02*
X9900000Y-9350400D01*
X9850000Y-9300400D02*
X9950000Y-9300400D01*
X9900000Y-9504400D02*
X9900000Y-9604400D01*
X9850000Y-9554400D02*
X9950000Y-9554400D01*
X12600000Y-8650000D02*
X12600000Y-8750000D01*
X12550000Y-8700000D02*
X12650000Y-8700000D01*
X13050000Y-9050000D02*
X13050000Y-9150000D01*
X13000000Y-9100000D02*
X13100000Y-9100000D01*
D14*
X10882362Y-12589962D02*
X10882362Y-12498038D01*
X10790438Y-12498038D01*
X10790438Y-12589962D01*
X10882362Y-12589962D01*
X11382362Y-12589962D02*
X11382362Y-12498038D01*
X11290438Y-12498038D01*
X11290438Y-12589962D01*
X11382362Y-12589962D01*
X11882362Y-12589962D02*
X11882362Y-12498038D01*
X11790438Y-12498038D01*
X11790438Y-12589962D01*
X11882362Y-12589962D01*
X12382362Y-12589962D02*
X12382362Y-12498038D01*
X12290438Y-12498038D01*
X12290438Y-12589962D01*
X12382362Y-12589962D01*
X13155662Y-12577262D02*
X13155662Y-12485338D01*
X13063738Y-12485338D01*
X13063738Y-12577262D01*
X13155662Y-12577262D01*
X13655662Y-12577262D02*
X13655662Y-12485338D01*
X13563738Y-12485338D01*
X13563738Y-12577262D01*
X13655662Y-12577262D01*
X14155662Y-12577262D02*
X14155662Y-12485338D01*
X14063738Y-12485338D01*
X14063738Y-12577262D01*
X14155662Y-12577262D01*
X14655662Y-12577262D02*
X14655662Y-12485338D01*
X14563738Y-12485338D01*
X14563738Y-12577262D01*
X14655662Y-12577262D01*
X15416262Y-12577262D02*
X15416262Y-12485338D01*
X15324338Y-12485338D01*
X15324338Y-12577262D01*
X15416262Y-12577262D01*
X15916262Y-12577262D02*
X15916262Y-12485338D01*
X15824338Y-12485338D01*
X15824338Y-12577262D01*
X15916262Y-12577262D01*
X16416262Y-12577262D02*
X16416262Y-12485338D01*
X16324338Y-12485338D01*
X16324338Y-12577262D01*
X16416262Y-12577262D01*
X16916262Y-12577262D02*
X16916262Y-12485338D01*
X16824338Y-12485338D01*
X16824338Y-12577262D01*
X16916262Y-12577262D01*
X17676862Y-12577262D02*
X17676862Y-12485338D01*
X17584938Y-12485338D01*
X17584938Y-12577262D01*
X17676862Y-12577262D01*
X18176862Y-12577262D02*
X18176862Y-12485338D01*
X18084938Y-12485338D01*
X18084938Y-12577262D01*
X18176862Y-12577262D01*
X18676862Y-12577262D02*
X18676862Y-12485338D01*
X18584938Y-12485338D01*
X18584938Y-12577262D01*
X18676862Y-12577262D01*
X19176862Y-12577262D02*
X19176862Y-12485338D01*
X19084938Y-12485338D01*
X19084938Y-12577262D01*
X19176862Y-12577262D01*
X19840562Y-12577262D02*
X19840562Y-12485338D01*
X19748638Y-12485338D01*
X19748638Y-12577262D01*
X19840562Y-12577262D01*
X20340562Y-12577262D02*
X20340562Y-12485338D01*
X20248638Y-12485338D01*
X20248638Y-12577262D01*
X20340562Y-12577262D01*
D11*
X9327019Y-13364650D02*
X9327019Y-13164650D01*
X9327019Y-13164650D02*
X9374638Y-13164650D01*
X9374638Y-13164650D02*
X9403210Y-13174174D01*
X9403210Y-13174174D02*
X9422257Y-13193222D01*
X9422257Y-13193222D02*
X9431781Y-13212269D01*
X9431781Y-13212269D02*
X9441305Y-13250365D01*
X9441305Y-13250365D02*
X9441305Y-13278936D01*
X9441305Y-13278936D02*
X9431781Y-13317031D01*
X9431781Y-13317031D02*
X9422257Y-13336079D01*
X9422257Y-13336079D02*
X9403210Y-13355127D01*
X9403210Y-13355127D02*
X9374638Y-13364650D01*
X9374638Y-13364650D02*
X9327019Y-13364650D01*
X9527019Y-13364650D02*
X9527019Y-13231317D01*
X9527019Y-13269412D02*
X9536543Y-13250365D01*
X9536543Y-13250365D02*
X9546067Y-13240841D01*
X9546067Y-13240841D02*
X9565114Y-13231317D01*
X9565114Y-13231317D02*
X9584162Y-13231317D01*
X9650829Y-13364650D02*
X9650829Y-13231317D01*
X9650829Y-13164650D02*
X9641305Y-13174174D01*
X9641305Y-13174174D02*
X9650829Y-13183698D01*
X9650829Y-13183698D02*
X9660352Y-13174174D01*
X9660352Y-13174174D02*
X9650829Y-13164650D01*
X9650829Y-13164650D02*
X9650829Y-13183698D01*
X9774638Y-13364650D02*
X9755590Y-13355127D01*
X9755590Y-13355127D02*
X9746067Y-13336079D01*
X9746067Y-13336079D02*
X9746067Y-13164650D01*
X9879400Y-13364650D02*
X9860352Y-13355127D01*
X9860352Y-13355127D02*
X9850829Y-13336079D01*
X9850829Y-13336079D02*
X9850829Y-13164650D01*
X10107971Y-13364650D02*
X10107971Y-13164650D01*
X10107971Y-13164650D02*
X10174638Y-13307508D01*
X10174638Y-13307508D02*
X10241305Y-13164650D01*
X10241305Y-13164650D02*
X10241305Y-13364650D01*
X10422257Y-13364650D02*
X10422257Y-13259889D01*
X10422257Y-13259889D02*
X10412733Y-13240841D01*
X10412733Y-13240841D02*
X10393686Y-13231317D01*
X10393686Y-13231317D02*
X10355590Y-13231317D01*
X10355590Y-13231317D02*
X10336543Y-13240841D01*
X10422257Y-13355127D02*
X10403210Y-13364650D01*
X10403210Y-13364650D02*
X10355590Y-13364650D01*
X10355590Y-13364650D02*
X10336543Y-13355127D01*
X10336543Y-13355127D02*
X10327019Y-13336079D01*
X10327019Y-13336079D02*
X10327019Y-13317031D01*
X10327019Y-13317031D02*
X10336543Y-13297984D01*
X10336543Y-13297984D02*
X10355590Y-13288460D01*
X10355590Y-13288460D02*
X10403210Y-13288460D01*
X10403210Y-13288460D02*
X10422257Y-13278936D01*
X10517495Y-13231317D02*
X10517495Y-13431317D01*
X10517495Y-13240841D02*
X10536543Y-13231317D01*
X10536543Y-13231317D02*
X10574638Y-13231317D01*
X10574638Y-13231317D02*
X10593686Y-13240841D01*
X10593686Y-13240841D02*
X10603210Y-13250365D01*
X10603210Y-13250365D02*
X10612733Y-13269412D01*
X10612733Y-13269412D02*
X10612733Y-13326555D01*
X10612733Y-13326555D02*
X10603210Y-13345603D01*
X10603210Y-13345603D02*
X10593686Y-13355127D01*
X10593686Y-13355127D02*
X10574638Y-13364650D01*
X10574638Y-13364650D02*
X10536543Y-13364650D01*
X10536543Y-13364650D02*
X10517495Y-13355127D01*
X10698448Y-13345603D02*
X10707971Y-13355127D01*
X10707971Y-13355127D02*
X10698448Y-13364650D01*
X10698448Y-13364650D02*
X10688924Y-13355127D01*
X10688924Y-13355127D02*
X10698448Y-13345603D01*
X10698448Y-13345603D02*
X10698448Y-13364650D01*
X10698448Y-13240841D02*
X10707971Y-13250365D01*
X10707971Y-13250365D02*
X10698448Y-13259889D01*
X10698448Y-13259889D02*
X10688924Y-13250365D01*
X10688924Y-13250365D02*
X10698448Y-13240841D01*
X10698448Y-13240841D02*
X10698448Y-13259889D01*
D12*
X9039400Y-13672127D02*
X9079400Y-13712127D01*
X9079400Y-13672127D02*
X9039400Y-13712127D01*
D11*
X9365114Y-13584650D02*
X9384162Y-13584650D01*
X9384162Y-13584650D02*
X9403210Y-13594174D01*
X9403210Y-13594174D02*
X9412733Y-13603698D01*
X9412733Y-13603698D02*
X9422257Y-13622746D01*
X9422257Y-13622746D02*
X9431781Y-13660841D01*
X9431781Y-13660841D02*
X9431781Y-13708460D01*
X9431781Y-13708460D02*
X9422257Y-13746555D01*
X9422257Y-13746555D02*
X9412733Y-13765603D01*
X9412733Y-13765603D02*
X9403210Y-13775127D01*
X9403210Y-13775127D02*
X9384162Y-13784650D01*
X9384162Y-13784650D02*
X9365114Y-13784650D01*
X9365114Y-13784650D02*
X9346067Y-13775127D01*
X9346067Y-13775127D02*
X9336543Y-13765603D01*
X9336543Y-13765603D02*
X9327019Y-13746555D01*
X9327019Y-13746555D02*
X9317495Y-13708460D01*
X9317495Y-13708460D02*
X9317495Y-13660841D01*
X9317495Y-13660841D02*
X9327019Y-13622746D01*
X9327019Y-13622746D02*
X9336543Y-13603698D01*
X9336543Y-13603698D02*
X9346067Y-13594174D01*
X9346067Y-13594174D02*
X9365114Y-13584650D01*
X9517495Y-13765603D02*
X9527019Y-13775127D01*
X9527019Y-13775127D02*
X9517495Y-13784650D01*
X9517495Y-13784650D02*
X9507971Y-13775127D01*
X9507971Y-13775127D02*
X9517495Y-13765603D01*
X9517495Y-13765603D02*
X9517495Y-13784650D01*
X9698448Y-13651317D02*
X9698448Y-13784650D01*
X9650829Y-13575127D02*
X9603210Y-13717984D01*
X9603210Y-13717984D02*
X9727019Y-13717984D01*
X9841305Y-13584650D02*
X9860352Y-13584650D01*
X9860352Y-13584650D02*
X9879400Y-13594174D01*
X9879400Y-13594174D02*
X9888924Y-13603698D01*
X9888924Y-13603698D02*
X9898448Y-13622746D01*
X9898448Y-13622746D02*
X9907971Y-13660841D01*
X9907971Y-13660841D02*
X9907971Y-13708460D01*
X9907971Y-13708460D02*
X9898448Y-13746555D01*
X9898448Y-13746555D02*
X9888924Y-13765603D01*
X9888924Y-13765603D02*
X9879400Y-13775127D01*
X9879400Y-13775127D02*
X9860352Y-13784650D01*
X9860352Y-13784650D02*
X9841305Y-13784650D01*
X9841305Y-13784650D02*
X9822257Y-13775127D01*
X9822257Y-13775127D02*
X9812733Y-13765603D01*
X9812733Y-13765603D02*
X9803210Y-13746555D01*
X9803210Y-13746555D02*
X9793686Y-13708460D01*
X9793686Y-13708460D02*
X9793686Y-13660841D01*
X9793686Y-13660841D02*
X9803210Y-13622746D01*
X9803210Y-13622746D02*
X9812733Y-13603698D01*
X9812733Y-13603698D02*
X9822257Y-13594174D01*
X9822257Y-13594174D02*
X9841305Y-13584650D01*
X10031781Y-13584650D02*
X10050829Y-13584650D01*
X10050829Y-13584650D02*
X10069876Y-13594174D01*
X10069876Y-13594174D02*
X10079400Y-13603698D01*
X10079400Y-13603698D02*
X10088924Y-13622746D01*
X10088924Y-13622746D02*
X10098448Y-13660841D01*
X10098448Y-13660841D02*
X10098448Y-13708460D01*
X10098448Y-13708460D02*
X10088924Y-13746555D01*
X10088924Y-13746555D02*
X10079400Y-13765603D01*
X10079400Y-13765603D02*
X10069876Y-13775127D01*
X10069876Y-13775127D02*
X10050829Y-13784650D01*
X10050829Y-13784650D02*
X10031781Y-13784650D01*
X10031781Y-13784650D02*
X10012733Y-13775127D01*
X10012733Y-13775127D02*
X10003210Y-13765603D01*
X10003210Y-13765603D02*
X9993686Y-13746555D01*
X9993686Y-13746555D02*
X9984162Y-13708460D01*
X9984162Y-13708460D02*
X9984162Y-13660841D01*
X9984162Y-13660841D02*
X9993686Y-13622746D01*
X9993686Y-13622746D02*
X10003210Y-13603698D01*
X10003210Y-13603698D02*
X10012733Y-13594174D01*
X10012733Y-13594174D02*
X10031781Y-13584650D01*
X10184162Y-13784650D02*
X10184162Y-13651317D01*
X10184162Y-13670365D02*
X10193686Y-13660841D01*
X10193686Y-13660841D02*
X10212733Y-13651317D01*
X10212733Y-13651317D02*
X10241305Y-13651317D01*
X10241305Y-13651317D02*
X10260352Y-13660841D01*
X10260352Y-13660841D02*
X10269876Y-13679889D01*
X10269876Y-13679889D02*
X10269876Y-13784650D01*
X10269876Y-13679889D02*
X10279400Y-13660841D01*
X10279400Y-13660841D02*
X10298448Y-13651317D01*
X10298448Y-13651317D02*
X10327019Y-13651317D01*
X10327019Y-13651317D02*
X10346067Y-13660841D01*
X10346067Y-13660841D02*
X10355591Y-13679889D01*
X10355591Y-13679889D02*
X10355591Y-13784650D01*
X10450829Y-13784650D02*
X10450829Y-13651317D01*
X10450829Y-13670365D02*
X10460352Y-13660841D01*
X10460352Y-13660841D02*
X10479400Y-13651317D01*
X10479400Y-13651317D02*
X10507972Y-13651317D01*
X10507972Y-13651317D02*
X10527019Y-13660841D01*
X10527019Y-13660841D02*
X10536543Y-13679889D01*
X10536543Y-13679889D02*
X10536543Y-13784650D01*
X10536543Y-13679889D02*
X10546067Y-13660841D01*
X10546067Y-13660841D02*
X10565114Y-13651317D01*
X10565114Y-13651317D02*
X10593686Y-13651317D01*
X10593686Y-13651317D02*
X10612733Y-13660841D01*
X10612733Y-13660841D02*
X10622257Y-13679889D01*
X10622257Y-13679889D02*
X10622257Y-13784650D01*
X11012733Y-13575127D02*
X10841305Y-13832269D01*
X11269876Y-13584650D02*
X11288924Y-13584650D01*
X11288924Y-13584650D02*
X11307972Y-13594174D01*
X11307972Y-13594174D02*
X11317495Y-13603698D01*
X11317495Y-13603698D02*
X11327019Y-13622746D01*
X11327019Y-13622746D02*
X11336543Y-13660841D01*
X11336543Y-13660841D02*
X11336543Y-13708460D01*
X11336543Y-13708460D02*
X11327019Y-13746555D01*
X11327019Y-13746555D02*
X11317495Y-13765603D01*
X11317495Y-13765603D02*
X11307972Y-13775127D01*
X11307972Y-13775127D02*
X11288924Y-13784650D01*
X11288924Y-13784650D02*
X11269876Y-13784650D01*
X11269876Y-13784650D02*
X11250829Y-13775127D01*
X11250829Y-13775127D02*
X11241305Y-13765603D01*
X11241305Y-13765603D02*
X11231781Y-13746555D01*
X11231781Y-13746555D02*
X11222257Y-13708460D01*
X11222257Y-13708460D02*
X11222257Y-13660841D01*
X11222257Y-13660841D02*
X11231781Y-13622746D01*
X11231781Y-13622746D02*
X11241305Y-13603698D01*
X11241305Y-13603698D02*
X11250829Y-13594174D01*
X11250829Y-13594174D02*
X11269876Y-13584650D01*
X11422257Y-13765603D02*
X11431781Y-13775127D01*
X11431781Y-13775127D02*
X11422257Y-13784650D01*
X11422257Y-13784650D02*
X11412733Y-13775127D01*
X11412733Y-13775127D02*
X11422257Y-13765603D01*
X11422257Y-13765603D02*
X11422257Y-13784650D01*
X11555591Y-13584650D02*
X11574638Y-13584650D01*
X11574638Y-13584650D02*
X11593686Y-13594174D01*
X11593686Y-13594174D02*
X11603210Y-13603698D01*
X11603210Y-13603698D02*
X11612733Y-13622746D01*
X11612733Y-13622746D02*
X11622257Y-13660841D01*
X11622257Y-13660841D02*
X11622257Y-13708460D01*
X11622257Y-13708460D02*
X11612733Y-13746555D01*
X11612733Y-13746555D02*
X11603210Y-13765603D01*
X11603210Y-13765603D02*
X11593686Y-13775127D01*
X11593686Y-13775127D02*
X11574638Y-13784650D01*
X11574638Y-13784650D02*
X11555591Y-13784650D01*
X11555591Y-13784650D02*
X11536543Y-13775127D01*
X11536543Y-13775127D02*
X11527019Y-13765603D01*
X11527019Y-13765603D02*
X11517495Y-13746555D01*
X11517495Y-13746555D02*
X11507972Y-13708460D01*
X11507972Y-13708460D02*
X11507972Y-13660841D01*
X11507972Y-13660841D02*
X11517495Y-13622746D01*
X11517495Y-13622746D02*
X11527019Y-13603698D01*
X11527019Y-13603698D02*
X11536543Y-13594174D01*
X11536543Y-13594174D02*
X11555591Y-13584650D01*
X11812733Y-13784650D02*
X11698448Y-13784650D01*
X11755591Y-13784650D02*
X11755591Y-13584650D01*
X11755591Y-13584650D02*
X11736543Y-13613222D01*
X11736543Y-13613222D02*
X11717495Y-13632269D01*
X11717495Y-13632269D02*
X11698448Y-13641793D01*
X11993686Y-13584650D02*
X11898448Y-13584650D01*
X11898448Y-13584650D02*
X11888924Y-13679889D01*
X11888924Y-13679889D02*
X11898448Y-13670365D01*
X11898448Y-13670365D02*
X11917495Y-13660841D01*
X11917495Y-13660841D02*
X11965114Y-13660841D01*
X11965114Y-13660841D02*
X11984162Y-13670365D01*
X11984162Y-13670365D02*
X11993686Y-13679889D01*
X11993686Y-13679889D02*
X12003210Y-13698936D01*
X12003210Y-13698936D02*
X12003210Y-13746555D01*
X12003210Y-13746555D02*
X11993686Y-13765603D01*
X11993686Y-13765603D02*
X11984162Y-13775127D01*
X11984162Y-13775127D02*
X11965114Y-13784650D01*
X11965114Y-13784650D02*
X11917495Y-13784650D01*
X11917495Y-13784650D02*
X11898448Y-13775127D01*
X11898448Y-13775127D02*
X11888924Y-13765603D01*
X12069876Y-13584650D02*
X12203210Y-13584650D01*
X12203210Y-13584650D02*
X12117495Y-13784650D01*
X12269876Y-13584650D02*
X12269876Y-13622746D01*
X12346067Y-13584650D02*
X12346067Y-13622746D01*
X12641305Y-13860841D02*
X12631781Y-13851317D01*
X12631781Y-13851317D02*
X12612734Y-13822746D01*
X12612734Y-13822746D02*
X12603210Y-13803698D01*
X12603210Y-13803698D02*
X12593686Y-13775127D01*
X12593686Y-13775127D02*
X12584162Y-13727508D01*
X12584162Y-13727508D02*
X12584162Y-13689412D01*
X12584162Y-13689412D02*
X12593686Y-13641793D01*
X12593686Y-13641793D02*
X12603210Y-13613222D01*
X12603210Y-13613222D02*
X12612734Y-13594174D01*
X12612734Y-13594174D02*
X12631781Y-13565603D01*
X12631781Y-13565603D02*
X12641305Y-13556079D01*
X12803210Y-13651317D02*
X12803210Y-13784650D01*
X12755591Y-13575127D02*
X12707972Y-13717984D01*
X12707972Y-13717984D02*
X12831781Y-13717984D01*
X13003210Y-13584650D02*
X12907972Y-13584650D01*
X12907972Y-13584650D02*
X12898448Y-13679889D01*
X12898448Y-13679889D02*
X12907972Y-13670365D01*
X12907972Y-13670365D02*
X12927019Y-13660841D01*
X12927019Y-13660841D02*
X12974638Y-13660841D01*
X12974638Y-13660841D02*
X12993686Y-13670365D01*
X12993686Y-13670365D02*
X13003210Y-13679889D01*
X13003210Y-13679889D02*
X13012734Y-13698936D01*
X13012734Y-13698936D02*
X13012734Y-13746555D01*
X13012734Y-13746555D02*
X13003210Y-13765603D01*
X13003210Y-13765603D02*
X12993686Y-13775127D01*
X12993686Y-13775127D02*
X12974638Y-13784650D01*
X12974638Y-13784650D02*
X12927019Y-13784650D01*
X12927019Y-13784650D02*
X12907972Y-13775127D01*
X12907972Y-13775127D02*
X12898448Y-13765603D01*
X13250829Y-13784650D02*
X13250829Y-13584650D01*
X13336543Y-13784650D02*
X13336543Y-13679889D01*
X13336543Y-13679889D02*
X13327019Y-13660841D01*
X13327019Y-13660841D02*
X13307972Y-13651317D01*
X13307972Y-13651317D02*
X13279400Y-13651317D01*
X13279400Y-13651317D02*
X13260353Y-13660841D01*
X13260353Y-13660841D02*
X13250829Y-13670365D01*
X13460353Y-13784650D02*
X13441305Y-13775127D01*
X13441305Y-13775127D02*
X13431781Y-13765603D01*
X13431781Y-13765603D02*
X13422257Y-13746555D01*
X13422257Y-13746555D02*
X13422257Y-13689412D01*
X13422257Y-13689412D02*
X13431781Y-13670365D01*
X13431781Y-13670365D02*
X13441305Y-13660841D01*
X13441305Y-13660841D02*
X13460353Y-13651317D01*
X13460353Y-13651317D02*
X13488924Y-13651317D01*
X13488924Y-13651317D02*
X13507972Y-13660841D01*
X13507972Y-13660841D02*
X13517496Y-13670365D01*
X13517496Y-13670365D02*
X13527019Y-13689412D01*
X13527019Y-13689412D02*
X13527019Y-13746555D01*
X13527019Y-13746555D02*
X13517496Y-13765603D01*
X13517496Y-13765603D02*
X13507972Y-13775127D01*
X13507972Y-13775127D02*
X13488924Y-13784650D01*
X13488924Y-13784650D02*
X13460353Y-13784650D01*
X13641305Y-13784650D02*
X13622257Y-13775127D01*
X13622257Y-13775127D02*
X13612734Y-13756079D01*
X13612734Y-13756079D02*
X13612734Y-13584650D01*
X13793686Y-13775127D02*
X13774638Y-13784650D01*
X13774638Y-13784650D02*
X13736543Y-13784650D01*
X13736543Y-13784650D02*
X13717496Y-13775127D01*
X13717496Y-13775127D02*
X13707972Y-13756079D01*
X13707972Y-13756079D02*
X13707972Y-13679889D01*
X13707972Y-13679889D02*
X13717496Y-13660841D01*
X13717496Y-13660841D02*
X13736543Y-13651317D01*
X13736543Y-13651317D02*
X13774638Y-13651317D01*
X13774638Y-13651317D02*
X13793686Y-13660841D01*
X13793686Y-13660841D02*
X13803210Y-13679889D01*
X13803210Y-13679889D02*
X13803210Y-13698936D01*
X13803210Y-13698936D02*
X13707972Y-13717984D01*
X13879400Y-13775127D02*
X13898448Y-13784650D01*
X13898448Y-13784650D02*
X13936543Y-13784650D01*
X13936543Y-13784650D02*
X13955591Y-13775127D01*
X13955591Y-13775127D02*
X13965115Y-13756079D01*
X13965115Y-13756079D02*
X13965115Y-13746555D01*
X13965115Y-13746555D02*
X13955591Y-13727508D01*
X13955591Y-13727508D02*
X13936543Y-13717984D01*
X13936543Y-13717984D02*
X13907972Y-13717984D01*
X13907972Y-13717984D02*
X13888924Y-13708460D01*
X13888924Y-13708460D02*
X13879400Y-13689412D01*
X13879400Y-13689412D02*
X13879400Y-13679889D01*
X13879400Y-13679889D02*
X13888924Y-13660841D01*
X13888924Y-13660841D02*
X13907972Y-13651317D01*
X13907972Y-13651317D02*
X13936543Y-13651317D01*
X13936543Y-13651317D02*
X13955591Y-13660841D01*
X14031781Y-13860841D02*
X14041305Y-13851317D01*
X14041305Y-13851317D02*
X14060353Y-13822746D01*
X14060353Y-13822746D02*
X14069877Y-13803698D01*
X14069877Y-13803698D02*
X14079400Y-13775127D01*
X14079400Y-13775127D02*
X14088924Y-13727508D01*
X14088924Y-13727508D02*
X14088924Y-13689412D01*
X14088924Y-13689412D02*
X14079400Y-13641793D01*
X14079400Y-13641793D02*
X14069877Y-13613222D01*
X14069877Y-13613222D02*
X14060353Y-13594174D01*
X14060353Y-13594174D02*
X14041305Y-13565603D01*
X14041305Y-13565603D02*
X14031781Y-13556079D01*
D13*
X9079400Y-13956127D02*
G75*
G03*
X9079400Y-13956127I-40000J0D01*
G01*
D11*
X9365114Y-13848650D02*
X9384162Y-13848650D01*
X9384162Y-13848650D02*
X9403210Y-13858174D01*
X9403210Y-13858174D02*
X9412733Y-13867698D01*
X9412733Y-13867698D02*
X9422257Y-13886746D01*
X9422257Y-13886746D02*
X9431781Y-13924841D01*
X9431781Y-13924841D02*
X9431781Y-13972460D01*
X9431781Y-13972460D02*
X9422257Y-14010555D01*
X9422257Y-14010555D02*
X9412733Y-14029603D01*
X9412733Y-14029603D02*
X9403210Y-14039127D01*
X9403210Y-14039127D02*
X9384162Y-14048650D01*
X9384162Y-14048650D02*
X9365114Y-14048650D01*
X9365114Y-14048650D02*
X9346067Y-14039127D01*
X9346067Y-14039127D02*
X9336543Y-14029603D01*
X9336543Y-14029603D02*
X9327019Y-14010555D01*
X9327019Y-14010555D02*
X9317495Y-13972460D01*
X9317495Y-13972460D02*
X9317495Y-13924841D01*
X9317495Y-13924841D02*
X9327019Y-13886746D01*
X9327019Y-13886746D02*
X9336543Y-13867698D01*
X9336543Y-13867698D02*
X9346067Y-13858174D01*
X9346067Y-13858174D02*
X9365114Y-13848650D01*
X9517495Y-14029603D02*
X9527019Y-14039127D01*
X9527019Y-14039127D02*
X9517495Y-14048650D01*
X9517495Y-14048650D02*
X9507971Y-14039127D01*
X9507971Y-14039127D02*
X9517495Y-14029603D01*
X9517495Y-14029603D02*
X9517495Y-14048650D01*
X9641305Y-13934365D02*
X9622257Y-13924841D01*
X9622257Y-13924841D02*
X9612733Y-13915317D01*
X9612733Y-13915317D02*
X9603210Y-13896269D01*
X9603210Y-13896269D02*
X9603210Y-13886746D01*
X9603210Y-13886746D02*
X9612733Y-13867698D01*
X9612733Y-13867698D02*
X9622257Y-13858174D01*
X9622257Y-13858174D02*
X9641305Y-13848650D01*
X9641305Y-13848650D02*
X9679400Y-13848650D01*
X9679400Y-13848650D02*
X9698448Y-13858174D01*
X9698448Y-13858174D02*
X9707971Y-13867698D01*
X9707971Y-13867698D02*
X9717495Y-13886746D01*
X9717495Y-13886746D02*
X9717495Y-13896269D01*
X9717495Y-13896269D02*
X9707971Y-13915317D01*
X9707971Y-13915317D02*
X9698448Y-13924841D01*
X9698448Y-13924841D02*
X9679400Y-13934365D01*
X9679400Y-13934365D02*
X9641305Y-13934365D01*
X9641305Y-13934365D02*
X9622257Y-13943889D01*
X9622257Y-13943889D02*
X9612733Y-13953412D01*
X9612733Y-13953412D02*
X9603210Y-13972460D01*
X9603210Y-13972460D02*
X9603210Y-14010555D01*
X9603210Y-14010555D02*
X9612733Y-14029603D01*
X9612733Y-14029603D02*
X9622257Y-14039127D01*
X9622257Y-14039127D02*
X9641305Y-14048650D01*
X9641305Y-14048650D02*
X9679400Y-14048650D01*
X9679400Y-14048650D02*
X9698448Y-14039127D01*
X9698448Y-14039127D02*
X9707971Y-14029603D01*
X9707971Y-14029603D02*
X9717495Y-14010555D01*
X9717495Y-14010555D02*
X9717495Y-13972460D01*
X9717495Y-13972460D02*
X9707971Y-13953412D01*
X9707971Y-13953412D02*
X9698448Y-13943889D01*
X9698448Y-13943889D02*
X9679400Y-13934365D01*
X9841305Y-13848650D02*
X9860352Y-13848650D01*
X9860352Y-13848650D02*
X9879400Y-13858174D01*
X9879400Y-13858174D02*
X9888924Y-13867698D01*
X9888924Y-13867698D02*
X9898448Y-13886746D01*
X9898448Y-13886746D02*
X9907971Y-13924841D01*
X9907971Y-13924841D02*
X9907971Y-13972460D01*
X9907971Y-13972460D02*
X9898448Y-14010555D01*
X9898448Y-14010555D02*
X9888924Y-14029603D01*
X9888924Y-14029603D02*
X9879400Y-14039127D01*
X9879400Y-14039127D02*
X9860352Y-14048650D01*
X9860352Y-14048650D02*
X9841305Y-14048650D01*
X9841305Y-14048650D02*
X9822257Y-14039127D01*
X9822257Y-14039127D02*
X9812733Y-14029603D01*
X9812733Y-14029603D02*
X9803210Y-14010555D01*
X9803210Y-14010555D02*
X9793686Y-13972460D01*
X9793686Y-13972460D02*
X9793686Y-13924841D01*
X9793686Y-13924841D02*
X9803210Y-13886746D01*
X9803210Y-13886746D02*
X9812733Y-13867698D01*
X9812733Y-13867698D02*
X9822257Y-13858174D01*
X9822257Y-13858174D02*
X9841305Y-13848650D01*
X10031781Y-13848650D02*
X10050829Y-13848650D01*
X10050829Y-13848650D02*
X10069876Y-13858174D01*
X10069876Y-13858174D02*
X10079400Y-13867698D01*
X10079400Y-13867698D02*
X10088924Y-13886746D01*
X10088924Y-13886746D02*
X10098448Y-13924841D01*
X10098448Y-13924841D02*
X10098448Y-13972460D01*
X10098448Y-13972460D02*
X10088924Y-14010555D01*
X10088924Y-14010555D02*
X10079400Y-14029603D01*
X10079400Y-14029603D02*
X10069876Y-14039127D01*
X10069876Y-14039127D02*
X10050829Y-14048650D01*
X10050829Y-14048650D02*
X10031781Y-14048650D01*
X10031781Y-14048650D02*
X10012733Y-14039127D01*
X10012733Y-14039127D02*
X10003210Y-14029603D01*
X10003210Y-14029603D02*
X9993686Y-14010555D01*
X9993686Y-14010555D02*
X9984162Y-13972460D01*
X9984162Y-13972460D02*
X9984162Y-13924841D01*
X9984162Y-13924841D02*
X9993686Y-13886746D01*
X9993686Y-13886746D02*
X10003210Y-13867698D01*
X10003210Y-13867698D02*
X10012733Y-13858174D01*
X10012733Y-13858174D02*
X10031781Y-13848650D01*
X10184162Y-14048650D02*
X10184162Y-13915317D01*
X10184162Y-13934365D02*
X10193686Y-13924841D01*
X10193686Y-13924841D02*
X10212733Y-13915317D01*
X10212733Y-13915317D02*
X10241305Y-13915317D01*
X10241305Y-13915317D02*
X10260352Y-13924841D01*
X10260352Y-13924841D02*
X10269876Y-13943889D01*
X10269876Y-13943889D02*
X10269876Y-14048650D01*
X10269876Y-13943889D02*
X10279400Y-13924841D01*
X10279400Y-13924841D02*
X10298448Y-13915317D01*
X10298448Y-13915317D02*
X10327019Y-13915317D01*
X10327019Y-13915317D02*
X10346067Y-13924841D01*
X10346067Y-13924841D02*
X10355591Y-13943889D01*
X10355591Y-13943889D02*
X10355591Y-14048650D01*
X10450829Y-14048650D02*
X10450829Y-13915317D01*
X10450829Y-13934365D02*
X10460352Y-13924841D01*
X10460352Y-13924841D02*
X10479400Y-13915317D01*
X10479400Y-13915317D02*
X10507972Y-13915317D01*
X10507972Y-13915317D02*
X10527019Y-13924841D01*
X10527019Y-13924841D02*
X10536543Y-13943889D01*
X10536543Y-13943889D02*
X10536543Y-14048650D01*
X10536543Y-13943889D02*
X10546067Y-13924841D01*
X10546067Y-13924841D02*
X10565114Y-13915317D01*
X10565114Y-13915317D02*
X10593686Y-13915317D01*
X10593686Y-13915317D02*
X10612733Y-13924841D01*
X10612733Y-13924841D02*
X10622257Y-13943889D01*
X10622257Y-13943889D02*
X10622257Y-14048650D01*
X11012733Y-13839127D02*
X10841305Y-14096269D01*
X11269876Y-13848650D02*
X11288924Y-13848650D01*
X11288924Y-13848650D02*
X11307972Y-13858174D01*
X11307972Y-13858174D02*
X11317495Y-13867698D01*
X11317495Y-13867698D02*
X11327019Y-13886746D01*
X11327019Y-13886746D02*
X11336543Y-13924841D01*
X11336543Y-13924841D02*
X11336543Y-13972460D01*
X11336543Y-13972460D02*
X11327019Y-14010555D01*
X11327019Y-14010555D02*
X11317495Y-14029603D01*
X11317495Y-14029603D02*
X11307972Y-14039127D01*
X11307972Y-14039127D02*
X11288924Y-14048650D01*
X11288924Y-14048650D02*
X11269876Y-14048650D01*
X11269876Y-14048650D02*
X11250829Y-14039127D01*
X11250829Y-14039127D02*
X11241305Y-14029603D01*
X11241305Y-14029603D02*
X11231781Y-14010555D01*
X11231781Y-14010555D02*
X11222257Y-13972460D01*
X11222257Y-13972460D02*
X11222257Y-13924841D01*
X11222257Y-13924841D02*
X11231781Y-13886746D01*
X11231781Y-13886746D02*
X11241305Y-13867698D01*
X11241305Y-13867698D02*
X11250829Y-13858174D01*
X11250829Y-13858174D02*
X11269876Y-13848650D01*
X11422257Y-14029603D02*
X11431781Y-14039127D01*
X11431781Y-14039127D02*
X11422257Y-14048650D01*
X11422257Y-14048650D02*
X11412733Y-14039127D01*
X11412733Y-14039127D02*
X11422257Y-14029603D01*
X11422257Y-14029603D02*
X11422257Y-14048650D01*
X11555591Y-13848650D02*
X11574638Y-13848650D01*
X11574638Y-13848650D02*
X11593686Y-13858174D01*
X11593686Y-13858174D02*
X11603210Y-13867698D01*
X11603210Y-13867698D02*
X11612733Y-13886746D01*
X11612733Y-13886746D02*
X11622257Y-13924841D01*
X11622257Y-13924841D02*
X11622257Y-13972460D01*
X11622257Y-13972460D02*
X11612733Y-14010555D01*
X11612733Y-14010555D02*
X11603210Y-14029603D01*
X11603210Y-14029603D02*
X11593686Y-14039127D01*
X11593686Y-14039127D02*
X11574638Y-14048650D01*
X11574638Y-14048650D02*
X11555591Y-14048650D01*
X11555591Y-14048650D02*
X11536543Y-14039127D01*
X11536543Y-14039127D02*
X11527019Y-14029603D01*
X11527019Y-14029603D02*
X11517495Y-14010555D01*
X11517495Y-14010555D02*
X11507972Y-13972460D01*
X11507972Y-13972460D02*
X11507972Y-13924841D01*
X11507972Y-13924841D02*
X11517495Y-13886746D01*
X11517495Y-13886746D02*
X11527019Y-13867698D01*
X11527019Y-13867698D02*
X11536543Y-13858174D01*
X11536543Y-13858174D02*
X11555591Y-13848650D01*
X11688924Y-13848650D02*
X11812733Y-13848650D01*
X11812733Y-13848650D02*
X11746067Y-13924841D01*
X11746067Y-13924841D02*
X11774638Y-13924841D01*
X11774638Y-13924841D02*
X11793686Y-13934365D01*
X11793686Y-13934365D02*
X11803210Y-13943889D01*
X11803210Y-13943889D02*
X11812733Y-13962936D01*
X11812733Y-13962936D02*
X11812733Y-14010555D01*
X11812733Y-14010555D02*
X11803210Y-14029603D01*
X11803210Y-14029603D02*
X11793686Y-14039127D01*
X11793686Y-14039127D02*
X11774638Y-14048650D01*
X11774638Y-14048650D02*
X11717495Y-14048650D01*
X11717495Y-14048650D02*
X11698448Y-14039127D01*
X11698448Y-14039127D02*
X11688924Y-14029603D01*
X12003210Y-14048650D02*
X11888924Y-14048650D01*
X11946067Y-14048650D02*
X11946067Y-13848650D01*
X11946067Y-13848650D02*
X11927019Y-13877222D01*
X11927019Y-13877222D02*
X11907972Y-13896269D01*
X11907972Y-13896269D02*
X11888924Y-13905793D01*
X12184162Y-13848650D02*
X12088924Y-13848650D01*
X12088924Y-13848650D02*
X12079400Y-13943889D01*
X12079400Y-13943889D02*
X12088924Y-13934365D01*
X12088924Y-13934365D02*
X12107972Y-13924841D01*
X12107972Y-13924841D02*
X12155591Y-13924841D01*
X12155591Y-13924841D02*
X12174638Y-13934365D01*
X12174638Y-13934365D02*
X12184162Y-13943889D01*
X12184162Y-13943889D02*
X12193686Y-13962936D01*
X12193686Y-13962936D02*
X12193686Y-14010555D01*
X12193686Y-14010555D02*
X12184162Y-14029603D01*
X12184162Y-14029603D02*
X12174638Y-14039127D01*
X12174638Y-14039127D02*
X12155591Y-14048650D01*
X12155591Y-14048650D02*
X12107972Y-14048650D01*
X12107972Y-14048650D02*
X12088924Y-14039127D01*
X12088924Y-14039127D02*
X12079400Y-14029603D01*
X12269876Y-13848650D02*
X12269876Y-13886746D01*
X12346067Y-13848650D02*
X12346067Y-13886746D01*
X12641305Y-14124841D02*
X12631781Y-14115317D01*
X12631781Y-14115317D02*
X12612734Y-14086746D01*
X12612734Y-14086746D02*
X12603210Y-14067698D01*
X12603210Y-14067698D02*
X12593686Y-14039127D01*
X12593686Y-14039127D02*
X12584162Y-13991508D01*
X12584162Y-13991508D02*
X12584162Y-13953412D01*
X12584162Y-13953412D02*
X12593686Y-13905793D01*
X12593686Y-13905793D02*
X12603210Y-13877222D01*
X12603210Y-13877222D02*
X12612734Y-13858174D01*
X12612734Y-13858174D02*
X12631781Y-13829603D01*
X12631781Y-13829603D02*
X12641305Y-13820079D01*
X12803210Y-13848650D02*
X12765114Y-13848650D01*
X12765114Y-13848650D02*
X12746067Y-13858174D01*
X12746067Y-13858174D02*
X12736543Y-13867698D01*
X12736543Y-13867698D02*
X12717495Y-13896269D01*
X12717495Y-13896269D02*
X12707972Y-13934365D01*
X12707972Y-13934365D02*
X12707972Y-14010555D01*
X12707972Y-14010555D02*
X12717495Y-14029603D01*
X12717495Y-14029603D02*
X12727019Y-14039127D01*
X12727019Y-14039127D02*
X12746067Y-14048650D01*
X12746067Y-14048650D02*
X12784162Y-14048650D01*
X12784162Y-14048650D02*
X12803210Y-14039127D01*
X12803210Y-14039127D02*
X12812734Y-14029603D01*
X12812734Y-14029603D02*
X12822257Y-14010555D01*
X12822257Y-14010555D02*
X12822257Y-13962936D01*
X12822257Y-13962936D02*
X12812734Y-13943889D01*
X12812734Y-13943889D02*
X12803210Y-13934365D01*
X12803210Y-13934365D02*
X12784162Y-13924841D01*
X12784162Y-13924841D02*
X12746067Y-13924841D01*
X12746067Y-13924841D02*
X12727019Y-13934365D01*
X12727019Y-13934365D02*
X12717495Y-13943889D01*
X12717495Y-13943889D02*
X12707972Y-13962936D01*
X12993686Y-13915317D02*
X12993686Y-14048650D01*
X12946067Y-13839127D02*
X12898448Y-13981984D01*
X12898448Y-13981984D02*
X13022257Y-13981984D01*
X13250829Y-14048650D02*
X13250829Y-13848650D01*
X13336543Y-14048650D02*
X13336543Y-13943889D01*
X13336543Y-13943889D02*
X13327019Y-13924841D01*
X13327019Y-13924841D02*
X13307972Y-13915317D01*
X13307972Y-13915317D02*
X13279400Y-13915317D01*
X13279400Y-13915317D02*
X13260353Y-13924841D01*
X13260353Y-13924841D02*
X13250829Y-13934365D01*
X13460353Y-14048650D02*
X13441305Y-14039127D01*
X13441305Y-14039127D02*
X13431781Y-14029603D01*
X13431781Y-14029603D02*
X13422257Y-14010555D01*
X13422257Y-14010555D02*
X13422257Y-13953412D01*
X13422257Y-13953412D02*
X13431781Y-13934365D01*
X13431781Y-13934365D02*
X13441305Y-13924841D01*
X13441305Y-13924841D02*
X13460353Y-13915317D01*
X13460353Y-13915317D02*
X13488924Y-13915317D01*
X13488924Y-13915317D02*
X13507972Y-13924841D01*
X13507972Y-13924841D02*
X13517496Y-13934365D01*
X13517496Y-13934365D02*
X13527019Y-13953412D01*
X13527019Y-13953412D02*
X13527019Y-14010555D01*
X13527019Y-14010555D02*
X13517496Y-14029603D01*
X13517496Y-14029603D02*
X13507972Y-14039127D01*
X13507972Y-14039127D02*
X13488924Y-14048650D01*
X13488924Y-14048650D02*
X13460353Y-14048650D01*
X13641305Y-14048650D02*
X13622257Y-14039127D01*
X13622257Y-14039127D02*
X13612734Y-14020079D01*
X13612734Y-14020079D02*
X13612734Y-13848650D01*
X13793686Y-14039127D02*
X13774638Y-14048650D01*
X13774638Y-14048650D02*
X13736543Y-14048650D01*
X13736543Y-14048650D02*
X13717496Y-14039127D01*
X13717496Y-14039127D02*
X13707972Y-14020079D01*
X13707972Y-14020079D02*
X13707972Y-13943889D01*
X13707972Y-13943889D02*
X13717496Y-13924841D01*
X13717496Y-13924841D02*
X13736543Y-13915317D01*
X13736543Y-13915317D02*
X13774638Y-13915317D01*
X13774638Y-13915317D02*
X13793686Y-13924841D01*
X13793686Y-13924841D02*
X13803210Y-13943889D01*
X13803210Y-13943889D02*
X13803210Y-13962936D01*
X13803210Y-13962936D02*
X13707972Y-13981984D01*
X13879400Y-14039127D02*
X13898448Y-14048650D01*
X13898448Y-14048650D02*
X13936543Y-14048650D01*
X13936543Y-14048650D02*
X13955591Y-14039127D01*
X13955591Y-14039127D02*
X13965115Y-14020079D01*
X13965115Y-14020079D02*
X13965115Y-14010555D01*
X13965115Y-14010555D02*
X13955591Y-13991508D01*
X13955591Y-13991508D02*
X13936543Y-13981984D01*
X13936543Y-13981984D02*
X13907972Y-13981984D01*
X13907972Y-13981984D02*
X13888924Y-13972460D01*
X13888924Y-13972460D02*
X13879400Y-13953412D01*
X13879400Y-13953412D02*
X13879400Y-13943889D01*
X13879400Y-13943889D02*
X13888924Y-13924841D01*
X13888924Y-13924841D02*
X13907972Y-13915317D01*
X13907972Y-13915317D02*
X13936543Y-13915317D01*
X13936543Y-13915317D02*
X13955591Y-13924841D01*
X14031781Y-14124841D02*
X14041305Y-14115317D01*
X14041305Y-14115317D02*
X14060353Y-14086746D01*
X14060353Y-14086746D02*
X14069877Y-14067698D01*
X14069877Y-14067698D02*
X14079400Y-14039127D01*
X14079400Y-14039127D02*
X14088924Y-13991508D01*
X14088924Y-13991508D02*
X14088924Y-13953412D01*
X14088924Y-13953412D02*
X14079400Y-13905793D01*
X14079400Y-13905793D02*
X14069877Y-13877222D01*
X14069877Y-13877222D02*
X14060353Y-13858174D01*
X14060353Y-13858174D02*
X14041305Y-13829603D01*
X14041305Y-13829603D02*
X14031781Y-13820079D01*
D10*
X9029400Y-14170127D02*
X9029400Y-14270127D01*
X8979400Y-14220127D02*
X9079400Y-14220127D01*
D11*
X9431781Y-14312650D02*
X9317495Y-14312650D01*
X9374638Y-14312650D02*
X9374638Y-14112650D01*
X9374638Y-14112650D02*
X9355590Y-14141222D01*
X9355590Y-14141222D02*
X9336543Y-14160269D01*
X9336543Y-14160269D02*
X9317495Y-14169793D01*
X9517495Y-14293603D02*
X9527019Y-14303127D01*
X9527019Y-14303127D02*
X9517495Y-14312650D01*
X9517495Y-14312650D02*
X9507971Y-14303127D01*
X9507971Y-14303127D02*
X9517495Y-14293603D01*
X9517495Y-14293603D02*
X9517495Y-14312650D01*
X9650829Y-14112650D02*
X9669876Y-14112650D01*
X9669876Y-14112650D02*
X9688924Y-14122174D01*
X9688924Y-14122174D02*
X9698448Y-14131698D01*
X9698448Y-14131698D02*
X9707971Y-14150746D01*
X9707971Y-14150746D02*
X9717495Y-14188841D01*
X9717495Y-14188841D02*
X9717495Y-14236460D01*
X9717495Y-14236460D02*
X9707971Y-14274555D01*
X9707971Y-14274555D02*
X9698448Y-14293603D01*
X9698448Y-14293603D02*
X9688924Y-14303127D01*
X9688924Y-14303127D02*
X9669876Y-14312650D01*
X9669876Y-14312650D02*
X9650829Y-14312650D01*
X9650829Y-14312650D02*
X9631781Y-14303127D01*
X9631781Y-14303127D02*
X9622257Y-14293603D01*
X9622257Y-14293603D02*
X9612733Y-14274555D01*
X9612733Y-14274555D02*
X9603210Y-14236460D01*
X9603210Y-14236460D02*
X9603210Y-14188841D01*
X9603210Y-14188841D02*
X9612733Y-14150746D01*
X9612733Y-14150746D02*
X9622257Y-14131698D01*
X9622257Y-14131698D02*
X9631781Y-14122174D01*
X9631781Y-14122174D02*
X9650829Y-14112650D01*
X9841305Y-14112650D02*
X9860352Y-14112650D01*
X9860352Y-14112650D02*
X9879400Y-14122174D01*
X9879400Y-14122174D02*
X9888924Y-14131698D01*
X9888924Y-14131698D02*
X9898448Y-14150746D01*
X9898448Y-14150746D02*
X9907971Y-14188841D01*
X9907971Y-14188841D02*
X9907971Y-14236460D01*
X9907971Y-14236460D02*
X9898448Y-14274555D01*
X9898448Y-14274555D02*
X9888924Y-14293603D01*
X9888924Y-14293603D02*
X9879400Y-14303127D01*
X9879400Y-14303127D02*
X9860352Y-14312650D01*
X9860352Y-14312650D02*
X9841305Y-14312650D01*
X9841305Y-14312650D02*
X9822257Y-14303127D01*
X9822257Y-14303127D02*
X9812733Y-14293603D01*
X9812733Y-14293603D02*
X9803210Y-14274555D01*
X9803210Y-14274555D02*
X9793686Y-14236460D01*
X9793686Y-14236460D02*
X9793686Y-14188841D01*
X9793686Y-14188841D02*
X9803210Y-14150746D01*
X9803210Y-14150746D02*
X9812733Y-14131698D01*
X9812733Y-14131698D02*
X9822257Y-14122174D01*
X9822257Y-14122174D02*
X9841305Y-14112650D01*
X10031781Y-14112650D02*
X10050829Y-14112650D01*
X10050829Y-14112650D02*
X10069876Y-14122174D01*
X10069876Y-14122174D02*
X10079400Y-14131698D01*
X10079400Y-14131698D02*
X10088924Y-14150746D01*
X10088924Y-14150746D02*
X10098448Y-14188841D01*
X10098448Y-14188841D02*
X10098448Y-14236460D01*
X10098448Y-14236460D02*
X10088924Y-14274555D01*
X10088924Y-14274555D02*
X10079400Y-14293603D01*
X10079400Y-14293603D02*
X10069876Y-14303127D01*
X10069876Y-14303127D02*
X10050829Y-14312650D01*
X10050829Y-14312650D02*
X10031781Y-14312650D01*
X10031781Y-14312650D02*
X10012733Y-14303127D01*
X10012733Y-14303127D02*
X10003210Y-14293603D01*
X10003210Y-14293603D02*
X9993686Y-14274555D01*
X9993686Y-14274555D02*
X9984162Y-14236460D01*
X9984162Y-14236460D02*
X9984162Y-14188841D01*
X9984162Y-14188841D02*
X9993686Y-14150746D01*
X9993686Y-14150746D02*
X10003210Y-14131698D01*
X10003210Y-14131698D02*
X10012733Y-14122174D01*
X10012733Y-14122174D02*
X10031781Y-14112650D01*
X10184162Y-14312650D02*
X10184162Y-14179317D01*
X10184162Y-14198365D02*
X10193686Y-14188841D01*
X10193686Y-14188841D02*
X10212733Y-14179317D01*
X10212733Y-14179317D02*
X10241305Y-14179317D01*
X10241305Y-14179317D02*
X10260352Y-14188841D01*
X10260352Y-14188841D02*
X10269876Y-14207889D01*
X10269876Y-14207889D02*
X10269876Y-14312650D01*
X10269876Y-14207889D02*
X10279400Y-14188841D01*
X10279400Y-14188841D02*
X10298448Y-14179317D01*
X10298448Y-14179317D02*
X10327019Y-14179317D01*
X10327019Y-14179317D02*
X10346067Y-14188841D01*
X10346067Y-14188841D02*
X10355591Y-14207889D01*
X10355591Y-14207889D02*
X10355591Y-14312650D01*
X10450829Y-14312650D02*
X10450829Y-14179317D01*
X10450829Y-14198365D02*
X10460352Y-14188841D01*
X10460352Y-14188841D02*
X10479400Y-14179317D01*
X10479400Y-14179317D02*
X10507972Y-14179317D01*
X10507972Y-14179317D02*
X10527019Y-14188841D01*
X10527019Y-14188841D02*
X10536543Y-14207889D01*
X10536543Y-14207889D02*
X10536543Y-14312650D01*
X10536543Y-14207889D02*
X10546067Y-14188841D01*
X10546067Y-14188841D02*
X10565114Y-14179317D01*
X10565114Y-14179317D02*
X10593686Y-14179317D01*
X10593686Y-14179317D02*
X10612733Y-14188841D01*
X10612733Y-14188841D02*
X10622257Y-14207889D01*
X10622257Y-14207889D02*
X10622257Y-14312650D01*
X11012733Y-14103127D02*
X10841305Y-14360269D01*
X11269876Y-14112650D02*
X11288924Y-14112650D01*
X11288924Y-14112650D02*
X11307972Y-14122174D01*
X11307972Y-14122174D02*
X11317495Y-14131698D01*
X11317495Y-14131698D02*
X11327019Y-14150746D01*
X11327019Y-14150746D02*
X11336543Y-14188841D01*
X11336543Y-14188841D02*
X11336543Y-14236460D01*
X11336543Y-14236460D02*
X11327019Y-14274555D01*
X11327019Y-14274555D02*
X11317495Y-14293603D01*
X11317495Y-14293603D02*
X11307972Y-14303127D01*
X11307972Y-14303127D02*
X11288924Y-14312650D01*
X11288924Y-14312650D02*
X11269876Y-14312650D01*
X11269876Y-14312650D02*
X11250829Y-14303127D01*
X11250829Y-14303127D02*
X11241305Y-14293603D01*
X11241305Y-14293603D02*
X11231781Y-14274555D01*
X11231781Y-14274555D02*
X11222257Y-14236460D01*
X11222257Y-14236460D02*
X11222257Y-14188841D01*
X11222257Y-14188841D02*
X11231781Y-14150746D01*
X11231781Y-14150746D02*
X11241305Y-14131698D01*
X11241305Y-14131698D02*
X11250829Y-14122174D01*
X11250829Y-14122174D02*
X11269876Y-14112650D01*
X11422257Y-14293603D02*
X11431781Y-14303127D01*
X11431781Y-14303127D02*
X11422257Y-14312650D01*
X11422257Y-14312650D02*
X11412733Y-14303127D01*
X11412733Y-14303127D02*
X11422257Y-14293603D01*
X11422257Y-14293603D02*
X11422257Y-14312650D01*
X11555591Y-14112650D02*
X11574638Y-14112650D01*
X11574638Y-14112650D02*
X11593686Y-14122174D01*
X11593686Y-14122174D02*
X11603210Y-14131698D01*
X11603210Y-14131698D02*
X11612733Y-14150746D01*
X11612733Y-14150746D02*
X11622257Y-14188841D01*
X11622257Y-14188841D02*
X11622257Y-14236460D01*
X11622257Y-14236460D02*
X11612733Y-14274555D01*
X11612733Y-14274555D02*
X11603210Y-14293603D01*
X11603210Y-14293603D02*
X11593686Y-14303127D01*
X11593686Y-14303127D02*
X11574638Y-14312650D01*
X11574638Y-14312650D02*
X11555591Y-14312650D01*
X11555591Y-14312650D02*
X11536543Y-14303127D01*
X11536543Y-14303127D02*
X11527019Y-14293603D01*
X11527019Y-14293603D02*
X11517495Y-14274555D01*
X11517495Y-14274555D02*
X11507972Y-14236460D01*
X11507972Y-14236460D02*
X11507972Y-14188841D01*
X11507972Y-14188841D02*
X11517495Y-14150746D01*
X11517495Y-14150746D02*
X11527019Y-14131698D01*
X11527019Y-14131698D02*
X11536543Y-14122174D01*
X11536543Y-14122174D02*
X11555591Y-14112650D01*
X11688924Y-14112650D02*
X11812733Y-14112650D01*
X11812733Y-14112650D02*
X11746067Y-14188841D01*
X11746067Y-14188841D02*
X11774638Y-14188841D01*
X11774638Y-14188841D02*
X11793686Y-14198365D01*
X11793686Y-14198365D02*
X11803210Y-14207889D01*
X11803210Y-14207889D02*
X11812733Y-14226936D01*
X11812733Y-14226936D02*
X11812733Y-14274555D01*
X11812733Y-14274555D02*
X11803210Y-14293603D01*
X11803210Y-14293603D02*
X11793686Y-14303127D01*
X11793686Y-14303127D02*
X11774638Y-14312650D01*
X11774638Y-14312650D02*
X11717495Y-14312650D01*
X11717495Y-14312650D02*
X11698448Y-14303127D01*
X11698448Y-14303127D02*
X11688924Y-14293603D01*
X11907972Y-14312650D02*
X11946067Y-14312650D01*
X11946067Y-14312650D02*
X11965114Y-14303127D01*
X11965114Y-14303127D02*
X11974638Y-14293603D01*
X11974638Y-14293603D02*
X11993686Y-14265031D01*
X11993686Y-14265031D02*
X12003210Y-14226936D01*
X12003210Y-14226936D02*
X12003210Y-14150746D01*
X12003210Y-14150746D02*
X11993686Y-14131698D01*
X11993686Y-14131698D02*
X11984162Y-14122174D01*
X11984162Y-14122174D02*
X11965114Y-14112650D01*
X11965114Y-14112650D02*
X11927019Y-14112650D01*
X11927019Y-14112650D02*
X11907972Y-14122174D01*
X11907972Y-14122174D02*
X11898448Y-14131698D01*
X11898448Y-14131698D02*
X11888924Y-14150746D01*
X11888924Y-14150746D02*
X11888924Y-14198365D01*
X11888924Y-14198365D02*
X11898448Y-14217412D01*
X11898448Y-14217412D02*
X11907972Y-14226936D01*
X11907972Y-14226936D02*
X11927019Y-14236460D01*
X11927019Y-14236460D02*
X11965114Y-14236460D01*
X11965114Y-14236460D02*
X11984162Y-14226936D01*
X11984162Y-14226936D02*
X11993686Y-14217412D01*
X11993686Y-14217412D02*
X12003210Y-14198365D01*
X12174638Y-14179317D02*
X12174638Y-14312650D01*
X12127019Y-14103127D02*
X12079400Y-14245984D01*
X12079400Y-14245984D02*
X12203210Y-14245984D01*
X12269876Y-14112650D02*
X12269876Y-14150746D01*
X12346067Y-14112650D02*
X12346067Y-14150746D01*
X12641305Y-14388841D02*
X12631781Y-14379317D01*
X12631781Y-14379317D02*
X12612734Y-14350746D01*
X12612734Y-14350746D02*
X12603210Y-14331698D01*
X12603210Y-14331698D02*
X12593686Y-14303127D01*
X12593686Y-14303127D02*
X12584162Y-14255508D01*
X12584162Y-14255508D02*
X12584162Y-14217412D01*
X12584162Y-14217412D02*
X12593686Y-14169793D01*
X12593686Y-14169793D02*
X12603210Y-14141222D01*
X12603210Y-14141222D02*
X12612734Y-14122174D01*
X12612734Y-14122174D02*
X12631781Y-14093603D01*
X12631781Y-14093603D02*
X12641305Y-14084079D01*
X12803210Y-14112650D02*
X12765114Y-14112650D01*
X12765114Y-14112650D02*
X12746067Y-14122174D01*
X12746067Y-14122174D02*
X12736543Y-14131698D01*
X12736543Y-14131698D02*
X12717495Y-14160269D01*
X12717495Y-14160269D02*
X12707972Y-14198365D01*
X12707972Y-14198365D02*
X12707972Y-14274555D01*
X12707972Y-14274555D02*
X12717495Y-14293603D01*
X12717495Y-14293603D02*
X12727019Y-14303127D01*
X12727019Y-14303127D02*
X12746067Y-14312650D01*
X12746067Y-14312650D02*
X12784162Y-14312650D01*
X12784162Y-14312650D02*
X12803210Y-14303127D01*
X12803210Y-14303127D02*
X12812734Y-14293603D01*
X12812734Y-14293603D02*
X12822257Y-14274555D01*
X12822257Y-14274555D02*
X12822257Y-14226936D01*
X12822257Y-14226936D02*
X12812734Y-14207889D01*
X12812734Y-14207889D02*
X12803210Y-14198365D01*
X12803210Y-14198365D02*
X12784162Y-14188841D01*
X12784162Y-14188841D02*
X12746067Y-14188841D01*
X12746067Y-14188841D02*
X12727019Y-14198365D01*
X12727019Y-14198365D02*
X12717495Y-14207889D01*
X12717495Y-14207889D02*
X12707972Y-14226936D01*
X13060353Y-14312650D02*
X13060353Y-14112650D01*
X13146067Y-14312650D02*
X13146067Y-14207889D01*
X13146067Y-14207889D02*
X13136543Y-14188841D01*
X13136543Y-14188841D02*
X13117496Y-14179317D01*
X13117496Y-14179317D02*
X13088924Y-14179317D01*
X13088924Y-14179317D02*
X13069876Y-14188841D01*
X13069876Y-14188841D02*
X13060353Y-14198365D01*
X13269876Y-14312650D02*
X13250829Y-14303127D01*
X13250829Y-14303127D02*
X13241305Y-14293603D01*
X13241305Y-14293603D02*
X13231781Y-14274555D01*
X13231781Y-14274555D02*
X13231781Y-14217412D01*
X13231781Y-14217412D02*
X13241305Y-14198365D01*
X13241305Y-14198365D02*
X13250829Y-14188841D01*
X13250829Y-14188841D02*
X13269876Y-14179317D01*
X13269876Y-14179317D02*
X13298448Y-14179317D01*
X13298448Y-14179317D02*
X13317496Y-14188841D01*
X13317496Y-14188841D02*
X13327019Y-14198365D01*
X13327019Y-14198365D02*
X13336543Y-14217412D01*
X13336543Y-14217412D02*
X13336543Y-14274555D01*
X13336543Y-14274555D02*
X13327019Y-14293603D01*
X13327019Y-14293603D02*
X13317496Y-14303127D01*
X13317496Y-14303127D02*
X13298448Y-14312650D01*
X13298448Y-14312650D02*
X13269876Y-14312650D01*
X13450829Y-14312650D02*
X13431781Y-14303127D01*
X13431781Y-14303127D02*
X13422257Y-14284079D01*
X13422257Y-14284079D02*
X13422257Y-14112650D01*
X13603210Y-14303127D02*
X13584162Y-14312650D01*
X13584162Y-14312650D02*
X13546067Y-14312650D01*
X13546067Y-14312650D02*
X13527019Y-14303127D01*
X13527019Y-14303127D02*
X13517496Y-14284079D01*
X13517496Y-14284079D02*
X13517496Y-14207889D01*
X13517496Y-14207889D02*
X13527019Y-14188841D01*
X13527019Y-14188841D02*
X13546067Y-14179317D01*
X13546067Y-14179317D02*
X13584162Y-14179317D01*
X13584162Y-14179317D02*
X13603210Y-14188841D01*
X13603210Y-14188841D02*
X13612734Y-14207889D01*
X13612734Y-14207889D02*
X13612734Y-14226936D01*
X13612734Y-14226936D02*
X13517496Y-14245984D01*
X13688924Y-14303127D02*
X13707972Y-14312650D01*
X13707972Y-14312650D02*
X13746067Y-14312650D01*
X13746067Y-14312650D02*
X13765115Y-14303127D01*
X13765115Y-14303127D02*
X13774638Y-14284079D01*
X13774638Y-14284079D02*
X13774638Y-14274555D01*
X13774638Y-14274555D02*
X13765115Y-14255508D01*
X13765115Y-14255508D02*
X13746067Y-14245984D01*
X13746067Y-14245984D02*
X13717496Y-14245984D01*
X13717496Y-14245984D02*
X13698448Y-14236460D01*
X13698448Y-14236460D02*
X13688924Y-14217412D01*
X13688924Y-14217412D02*
X13688924Y-14207889D01*
X13688924Y-14207889D02*
X13698448Y-14188841D01*
X13698448Y-14188841D02*
X13717496Y-14179317D01*
X13717496Y-14179317D02*
X13746067Y-14179317D01*
X13746067Y-14179317D02*
X13765115Y-14188841D01*
X13841305Y-14388841D02*
X13850829Y-14379317D01*
X13850829Y-14379317D02*
X13869877Y-14350746D01*
X13869877Y-14350746D02*
X13879400Y-14331698D01*
X13879400Y-14331698D02*
X13888924Y-14303127D01*
X13888924Y-14303127D02*
X13898448Y-14255508D01*
X13898448Y-14255508D02*
X13898448Y-14217412D01*
X13898448Y-14217412D02*
X13888924Y-14169793D01*
X13888924Y-14169793D02*
X13879400Y-14141222D01*
X13879400Y-14141222D02*
X13869877Y-14122174D01*
X13869877Y-14122174D02*
X13850829Y-14093603D01*
X13850829Y-14093603D02*
X13841305Y-14084079D01*
D14*
X9060362Y-14530089D02*
X9060362Y-14438164D01*
X8968438Y-14438164D01*
X8968438Y-14530089D01*
X9060362Y-14530089D01*
D11*
X9431781Y-14576650D02*
X9317495Y-14576650D01*
X9374638Y-14576650D02*
X9374638Y-14376650D01*
X9374638Y-14376650D02*
X9355590Y-14405222D01*
X9355590Y-14405222D02*
X9336543Y-14424269D01*
X9336543Y-14424269D02*
X9317495Y-14433793D01*
X9517495Y-14557603D02*
X9527019Y-14567127D01*
X9527019Y-14567127D02*
X9517495Y-14576650D01*
X9517495Y-14576650D02*
X9507971Y-14567127D01*
X9507971Y-14567127D02*
X9517495Y-14557603D01*
X9517495Y-14557603D02*
X9517495Y-14576650D01*
X9593686Y-14376650D02*
X9717495Y-14376650D01*
X9717495Y-14376650D02*
X9650829Y-14452841D01*
X9650829Y-14452841D02*
X9679400Y-14452841D01*
X9679400Y-14452841D02*
X9698448Y-14462365D01*
X9698448Y-14462365D02*
X9707971Y-14471889D01*
X9707971Y-14471889D02*
X9717495Y-14490936D01*
X9717495Y-14490936D02*
X9717495Y-14538555D01*
X9717495Y-14538555D02*
X9707971Y-14557603D01*
X9707971Y-14557603D02*
X9698448Y-14567127D01*
X9698448Y-14567127D02*
X9679400Y-14576650D01*
X9679400Y-14576650D02*
X9622257Y-14576650D01*
X9622257Y-14576650D02*
X9603210Y-14567127D01*
X9603210Y-14567127D02*
X9593686Y-14557603D01*
X9841305Y-14376650D02*
X9860352Y-14376650D01*
X9860352Y-14376650D02*
X9879400Y-14386174D01*
X9879400Y-14386174D02*
X9888924Y-14395698D01*
X9888924Y-14395698D02*
X9898448Y-14414746D01*
X9898448Y-14414746D02*
X9907971Y-14452841D01*
X9907971Y-14452841D02*
X9907971Y-14500460D01*
X9907971Y-14500460D02*
X9898448Y-14538555D01*
X9898448Y-14538555D02*
X9888924Y-14557603D01*
X9888924Y-14557603D02*
X9879400Y-14567127D01*
X9879400Y-14567127D02*
X9860352Y-14576650D01*
X9860352Y-14576650D02*
X9841305Y-14576650D01*
X9841305Y-14576650D02*
X9822257Y-14567127D01*
X9822257Y-14567127D02*
X9812733Y-14557603D01*
X9812733Y-14557603D02*
X9803210Y-14538555D01*
X9803210Y-14538555D02*
X9793686Y-14500460D01*
X9793686Y-14500460D02*
X9793686Y-14452841D01*
X9793686Y-14452841D02*
X9803210Y-14414746D01*
X9803210Y-14414746D02*
X9812733Y-14395698D01*
X9812733Y-14395698D02*
X9822257Y-14386174D01*
X9822257Y-14386174D02*
X9841305Y-14376650D01*
X10031781Y-14376650D02*
X10050829Y-14376650D01*
X10050829Y-14376650D02*
X10069876Y-14386174D01*
X10069876Y-14386174D02*
X10079400Y-14395698D01*
X10079400Y-14395698D02*
X10088924Y-14414746D01*
X10088924Y-14414746D02*
X10098448Y-14452841D01*
X10098448Y-14452841D02*
X10098448Y-14500460D01*
X10098448Y-14500460D02*
X10088924Y-14538555D01*
X10088924Y-14538555D02*
X10079400Y-14557603D01*
X10079400Y-14557603D02*
X10069876Y-14567127D01*
X10069876Y-14567127D02*
X10050829Y-14576650D01*
X10050829Y-14576650D02*
X10031781Y-14576650D01*
X10031781Y-14576650D02*
X10012733Y-14567127D01*
X10012733Y-14567127D02*
X10003210Y-14557603D01*
X10003210Y-14557603D02*
X9993686Y-14538555D01*
X9993686Y-14538555D02*
X9984162Y-14500460D01*
X9984162Y-14500460D02*
X9984162Y-14452841D01*
X9984162Y-14452841D02*
X9993686Y-14414746D01*
X9993686Y-14414746D02*
X10003210Y-14395698D01*
X10003210Y-14395698D02*
X10012733Y-14386174D01*
X10012733Y-14386174D02*
X10031781Y-14376650D01*
X10184162Y-14576650D02*
X10184162Y-14443317D01*
X10184162Y-14462365D02*
X10193686Y-14452841D01*
X10193686Y-14452841D02*
X10212733Y-14443317D01*
X10212733Y-14443317D02*
X10241305Y-14443317D01*
X10241305Y-14443317D02*
X10260352Y-14452841D01*
X10260352Y-14452841D02*
X10269876Y-14471889D01*
X10269876Y-14471889D02*
X10269876Y-14576650D01*
X10269876Y-14471889D02*
X10279400Y-14452841D01*
X10279400Y-14452841D02*
X10298448Y-14443317D01*
X10298448Y-14443317D02*
X10327019Y-14443317D01*
X10327019Y-14443317D02*
X10346067Y-14452841D01*
X10346067Y-14452841D02*
X10355591Y-14471889D01*
X10355591Y-14471889D02*
X10355591Y-14576650D01*
X10450829Y-14576650D02*
X10450829Y-14443317D01*
X10450829Y-14462365D02*
X10460352Y-14452841D01*
X10460352Y-14452841D02*
X10479400Y-14443317D01*
X10479400Y-14443317D02*
X10507972Y-14443317D01*
X10507972Y-14443317D02*
X10527019Y-14452841D01*
X10527019Y-14452841D02*
X10536543Y-14471889D01*
X10536543Y-14471889D02*
X10536543Y-14576650D01*
X10536543Y-14471889D02*
X10546067Y-14452841D01*
X10546067Y-14452841D02*
X10565114Y-14443317D01*
X10565114Y-14443317D02*
X10593686Y-14443317D01*
X10593686Y-14443317D02*
X10612733Y-14452841D01*
X10612733Y-14452841D02*
X10622257Y-14471889D01*
X10622257Y-14471889D02*
X10622257Y-14576650D01*
X11012733Y-14367127D02*
X10841305Y-14624269D01*
X11269876Y-14376650D02*
X11288924Y-14376650D01*
X11288924Y-14376650D02*
X11307972Y-14386174D01*
X11307972Y-14386174D02*
X11317495Y-14395698D01*
X11317495Y-14395698D02*
X11327019Y-14414746D01*
X11327019Y-14414746D02*
X11336543Y-14452841D01*
X11336543Y-14452841D02*
X11336543Y-14500460D01*
X11336543Y-14500460D02*
X11327019Y-14538555D01*
X11327019Y-14538555D02*
X11317495Y-14557603D01*
X11317495Y-14557603D02*
X11307972Y-14567127D01*
X11307972Y-14567127D02*
X11288924Y-14576650D01*
X11288924Y-14576650D02*
X11269876Y-14576650D01*
X11269876Y-14576650D02*
X11250829Y-14567127D01*
X11250829Y-14567127D02*
X11241305Y-14557603D01*
X11241305Y-14557603D02*
X11231781Y-14538555D01*
X11231781Y-14538555D02*
X11222257Y-14500460D01*
X11222257Y-14500460D02*
X11222257Y-14452841D01*
X11222257Y-14452841D02*
X11231781Y-14414746D01*
X11231781Y-14414746D02*
X11241305Y-14395698D01*
X11241305Y-14395698D02*
X11250829Y-14386174D01*
X11250829Y-14386174D02*
X11269876Y-14376650D01*
X11422257Y-14557603D02*
X11431781Y-14567127D01*
X11431781Y-14567127D02*
X11422257Y-14576650D01*
X11422257Y-14576650D02*
X11412733Y-14567127D01*
X11412733Y-14567127D02*
X11422257Y-14557603D01*
X11422257Y-14557603D02*
X11422257Y-14576650D01*
X11555591Y-14376650D02*
X11574638Y-14376650D01*
X11574638Y-14376650D02*
X11593686Y-14386174D01*
X11593686Y-14386174D02*
X11603210Y-14395698D01*
X11603210Y-14395698D02*
X11612733Y-14414746D01*
X11612733Y-14414746D02*
X11622257Y-14452841D01*
X11622257Y-14452841D02*
X11622257Y-14500460D01*
X11622257Y-14500460D02*
X11612733Y-14538555D01*
X11612733Y-14538555D02*
X11603210Y-14557603D01*
X11603210Y-14557603D02*
X11593686Y-14567127D01*
X11593686Y-14567127D02*
X11574638Y-14576650D01*
X11574638Y-14576650D02*
X11555591Y-14576650D01*
X11555591Y-14576650D02*
X11536543Y-14567127D01*
X11536543Y-14567127D02*
X11527019Y-14557603D01*
X11527019Y-14557603D02*
X11517495Y-14538555D01*
X11517495Y-14538555D02*
X11507972Y-14500460D01*
X11507972Y-14500460D02*
X11507972Y-14452841D01*
X11507972Y-14452841D02*
X11517495Y-14414746D01*
X11517495Y-14414746D02*
X11527019Y-14395698D01*
X11527019Y-14395698D02*
X11536543Y-14386174D01*
X11536543Y-14386174D02*
X11555591Y-14376650D01*
X11803210Y-14376650D02*
X11707972Y-14376650D01*
X11707972Y-14376650D02*
X11698448Y-14471889D01*
X11698448Y-14471889D02*
X11707972Y-14462365D01*
X11707972Y-14462365D02*
X11727019Y-14452841D01*
X11727019Y-14452841D02*
X11774638Y-14452841D01*
X11774638Y-14452841D02*
X11793686Y-14462365D01*
X11793686Y-14462365D02*
X11803210Y-14471889D01*
X11803210Y-14471889D02*
X11812733Y-14490936D01*
X11812733Y-14490936D02*
X11812733Y-14538555D01*
X11812733Y-14538555D02*
X11803210Y-14557603D01*
X11803210Y-14557603D02*
X11793686Y-14567127D01*
X11793686Y-14567127D02*
X11774638Y-14576650D01*
X11774638Y-14576650D02*
X11727019Y-14576650D01*
X11727019Y-14576650D02*
X11707972Y-14567127D01*
X11707972Y-14567127D02*
X11698448Y-14557603D01*
X12003210Y-14576650D02*
X11888924Y-14576650D01*
X11946067Y-14576650D02*
X11946067Y-14376650D01*
X11946067Y-14376650D02*
X11927019Y-14405222D01*
X11927019Y-14405222D02*
X11907972Y-14424269D01*
X11907972Y-14424269D02*
X11888924Y-14433793D01*
X12079400Y-14395698D02*
X12088924Y-14386174D01*
X12088924Y-14386174D02*
X12107972Y-14376650D01*
X12107972Y-14376650D02*
X12155591Y-14376650D01*
X12155591Y-14376650D02*
X12174638Y-14386174D01*
X12174638Y-14386174D02*
X12184162Y-14395698D01*
X12184162Y-14395698D02*
X12193686Y-14414746D01*
X12193686Y-14414746D02*
X12193686Y-14433793D01*
X12193686Y-14433793D02*
X12184162Y-14462365D01*
X12184162Y-14462365D02*
X12069876Y-14576650D01*
X12069876Y-14576650D02*
X12193686Y-14576650D01*
X12269876Y-14376650D02*
X12269876Y-14414746D01*
X12346067Y-14376650D02*
X12346067Y-14414746D01*
X12641305Y-14652841D02*
X12631781Y-14643317D01*
X12631781Y-14643317D02*
X12612734Y-14614746D01*
X12612734Y-14614746D02*
X12603210Y-14595698D01*
X12603210Y-14595698D02*
X12593686Y-14567127D01*
X12593686Y-14567127D02*
X12584162Y-14519508D01*
X12584162Y-14519508D02*
X12584162Y-14481412D01*
X12584162Y-14481412D02*
X12593686Y-14433793D01*
X12593686Y-14433793D02*
X12603210Y-14405222D01*
X12603210Y-14405222D02*
X12612734Y-14386174D01*
X12612734Y-14386174D02*
X12631781Y-14357603D01*
X12631781Y-14357603D02*
X12641305Y-14348079D01*
X12822257Y-14576650D02*
X12707972Y-14576650D01*
X12765114Y-14576650D02*
X12765114Y-14376650D01*
X12765114Y-14376650D02*
X12746067Y-14405222D01*
X12746067Y-14405222D02*
X12727019Y-14424269D01*
X12727019Y-14424269D02*
X12707972Y-14433793D01*
X12936543Y-14462365D02*
X12917495Y-14452841D01*
X12917495Y-14452841D02*
X12907972Y-14443317D01*
X12907972Y-14443317D02*
X12898448Y-14424269D01*
X12898448Y-14424269D02*
X12898448Y-14414746D01*
X12898448Y-14414746D02*
X12907972Y-14395698D01*
X12907972Y-14395698D02*
X12917495Y-14386174D01*
X12917495Y-14386174D02*
X12936543Y-14376650D01*
X12936543Y-14376650D02*
X12974638Y-14376650D01*
X12974638Y-14376650D02*
X12993686Y-14386174D01*
X12993686Y-14386174D02*
X13003210Y-14395698D01*
X13003210Y-14395698D02*
X13012734Y-14414746D01*
X13012734Y-14414746D02*
X13012734Y-14424269D01*
X13012734Y-14424269D02*
X13003210Y-14443317D01*
X13003210Y-14443317D02*
X12993686Y-14452841D01*
X12993686Y-14452841D02*
X12974638Y-14462365D01*
X12974638Y-14462365D02*
X12936543Y-14462365D01*
X12936543Y-14462365D02*
X12917495Y-14471889D01*
X12917495Y-14471889D02*
X12907972Y-14481412D01*
X12907972Y-14481412D02*
X12898448Y-14500460D01*
X12898448Y-14500460D02*
X12898448Y-14538555D01*
X12898448Y-14538555D02*
X12907972Y-14557603D01*
X12907972Y-14557603D02*
X12917495Y-14567127D01*
X12917495Y-14567127D02*
X12936543Y-14576650D01*
X12936543Y-14576650D02*
X12974638Y-14576650D01*
X12974638Y-14576650D02*
X12993686Y-14567127D01*
X12993686Y-14567127D02*
X13003210Y-14557603D01*
X13003210Y-14557603D02*
X13012734Y-14538555D01*
X13012734Y-14538555D02*
X13012734Y-14500460D01*
X13012734Y-14500460D02*
X13003210Y-14481412D01*
X13003210Y-14481412D02*
X12993686Y-14471889D01*
X12993686Y-14471889D02*
X12974638Y-14462365D01*
X13250829Y-14576650D02*
X13250829Y-14376650D01*
X13336543Y-14576650D02*
X13336543Y-14471889D01*
X13336543Y-14471889D02*
X13327019Y-14452841D01*
X13327019Y-14452841D02*
X13307972Y-14443317D01*
X13307972Y-14443317D02*
X13279400Y-14443317D01*
X13279400Y-14443317D02*
X13260353Y-14452841D01*
X13260353Y-14452841D02*
X13250829Y-14462365D01*
X13460353Y-14576650D02*
X13441305Y-14567127D01*
X13441305Y-14567127D02*
X13431781Y-14557603D01*
X13431781Y-14557603D02*
X13422257Y-14538555D01*
X13422257Y-14538555D02*
X13422257Y-14481412D01*
X13422257Y-14481412D02*
X13431781Y-14462365D01*
X13431781Y-14462365D02*
X13441305Y-14452841D01*
X13441305Y-14452841D02*
X13460353Y-14443317D01*
X13460353Y-14443317D02*
X13488924Y-14443317D01*
X13488924Y-14443317D02*
X13507972Y-14452841D01*
X13507972Y-14452841D02*
X13517496Y-14462365D01*
X13517496Y-14462365D02*
X13527019Y-14481412D01*
X13527019Y-14481412D02*
X13527019Y-14538555D01*
X13527019Y-14538555D02*
X13517496Y-14557603D01*
X13517496Y-14557603D02*
X13507972Y-14567127D01*
X13507972Y-14567127D02*
X13488924Y-14576650D01*
X13488924Y-14576650D02*
X13460353Y-14576650D01*
X13641305Y-14576650D02*
X13622257Y-14567127D01*
X13622257Y-14567127D02*
X13612734Y-14548079D01*
X13612734Y-14548079D02*
X13612734Y-14376650D01*
X13793686Y-14567127D02*
X13774638Y-14576650D01*
X13774638Y-14576650D02*
X13736543Y-14576650D01*
X13736543Y-14576650D02*
X13717496Y-14567127D01*
X13717496Y-14567127D02*
X13707972Y-14548079D01*
X13707972Y-14548079D02*
X13707972Y-14471889D01*
X13707972Y-14471889D02*
X13717496Y-14452841D01*
X13717496Y-14452841D02*
X13736543Y-14443317D01*
X13736543Y-14443317D02*
X13774638Y-14443317D01*
X13774638Y-14443317D02*
X13793686Y-14452841D01*
X13793686Y-14452841D02*
X13803210Y-14471889D01*
X13803210Y-14471889D02*
X13803210Y-14490936D01*
X13803210Y-14490936D02*
X13707972Y-14509984D01*
X13879400Y-14567127D02*
X13898448Y-14576650D01*
X13898448Y-14576650D02*
X13936543Y-14576650D01*
X13936543Y-14576650D02*
X13955591Y-14567127D01*
X13955591Y-14567127D02*
X13965115Y-14548079D01*
X13965115Y-14548079D02*
X13965115Y-14538555D01*
X13965115Y-14538555D02*
X13955591Y-14519508D01*
X13955591Y-14519508D02*
X13936543Y-14509984D01*
X13936543Y-14509984D02*
X13907972Y-14509984D01*
X13907972Y-14509984D02*
X13888924Y-14500460D01*
X13888924Y-14500460D02*
X13879400Y-14481412D01*
X13879400Y-14481412D02*
X13879400Y-14471889D01*
X13879400Y-14471889D02*
X13888924Y-14452841D01*
X13888924Y-14452841D02*
X13907972Y-14443317D01*
X13907972Y-14443317D02*
X13936543Y-14443317D01*
X13936543Y-14443317D02*
X13955591Y-14452841D01*
X14031781Y-14652841D02*
X14041305Y-14643317D01*
X14041305Y-14643317D02*
X14060353Y-14614746D01*
X14060353Y-14614746D02*
X14069877Y-14595698D01*
X14069877Y-14595698D02*
X14079400Y-14567127D01*
X14079400Y-14567127D02*
X14088924Y-14519508D01*
X14088924Y-14519508D02*
X14088924Y-14481412D01*
X14088924Y-14481412D02*
X14079400Y-14433793D01*
X14079400Y-14433793D02*
X14069877Y-14405222D01*
X14069877Y-14405222D02*
X14060353Y-14386174D01*
X14060353Y-14386174D02*
X14041305Y-14357603D01*
X14041305Y-14357603D02*
X14031781Y-14348079D01*
M02*
