G04 #@! TF.GenerationSoftware,KiCad,Pcbnew,7.0.1*
G04 #@! TF.CreationDate,2023-06-13T03:05:23-04:00*
G04 #@! TF.ProjectId,i2c 24vin,69326320-3234-4766-996e-2e6b69636164,rev?*
G04 #@! TF.SameCoordinates,Original*
G04 #@! TF.FileFunction,Soldermask,Bot*
G04 #@! TF.FilePolarity,Negative*
%FSLAX46Y46*%
G04 Gerber Fmt 4.6, Leading zero omitted, Abs format (unit mm)*
G04 Created by KiCad (PCBNEW 7.0.1) date 2023-06-13 03:05:23*
%MOMM*%
%LPD*%
G01*
G04 APERTURE LIST*
G04 Aperture macros list*
%AMRoundRect*
0 Rectangle with rounded corners*
0 $1 Rounding radius*
0 $2 $3 $4 $5 $6 $7 $8 $9 X,Y pos of 4 corners*
0 Add a 4 corners polygon primitive as box body*
4,1,4,$2,$3,$4,$5,$6,$7,$8,$9,$2,$3,0*
0 Add four circle primitives for the rounded corners*
1,1,$1+$1,$2,$3*
1,1,$1+$1,$4,$5*
1,1,$1+$1,$6,$7*
1,1,$1+$1,$8,$9*
0 Add four rect primitives between the rounded corners*
20,1,$1+$1,$2,$3,$4,$5,0*
20,1,$1+$1,$4,$5,$6,$7,0*
20,1,$1+$1,$6,$7,$8,$9,0*
20,1,$1+$1,$8,$9,$2,$3,0*%
G04 Aperture macros list end*
%ADD10R,2.600000X2.600000*%
%ADD11C,2.600000*%
%ADD12R,1.600000X1.600000*%
%ADD13O,1.600000X1.600000*%
%ADD14C,3.200000*%
%ADD15R,1.700000X1.700000*%
%ADD16O,1.700000X1.700000*%
%ADD17RoundRect,0.200000X-0.275000X0.200000X-0.275000X-0.200000X0.275000X-0.200000X0.275000X0.200000X0*%
G04 APERTURE END LIST*
D10*
X153703000Y-125313000D03*
D11*
X158703000Y-125313000D03*
X163703000Y-125313000D03*
X168703000Y-125313000D03*
D12*
X162225000Y-114800000D03*
D13*
X164765000Y-114800000D03*
X164765000Y-107180000D03*
X162225000Y-107180000D03*
D12*
X133500000Y-114800000D03*
D13*
X136040000Y-114800000D03*
X136040000Y-107180000D03*
X133500000Y-107180000D03*
D12*
X191000000Y-114800000D03*
D13*
X193540000Y-114800000D03*
X193540000Y-107180000D03*
X191000000Y-107180000D03*
D12*
X156500000Y-114800000D03*
D13*
X159040000Y-114800000D03*
X159040000Y-107180000D03*
X156500000Y-107180000D03*
D10*
X197946000Y-125313000D03*
D11*
X202946000Y-125313000D03*
D10*
X108364000Y-125440000D03*
D11*
X113364000Y-125440000D03*
X118364000Y-125440000D03*
X123364000Y-125440000D03*
D12*
X110460000Y-114800000D03*
D13*
X113000000Y-114800000D03*
X113000000Y-107180000D03*
X110460000Y-107180000D03*
D12*
X168000000Y-114800000D03*
D13*
X170540000Y-114800000D03*
X170540000Y-107180000D03*
X168000000Y-107180000D03*
D14*
X94400000Y-83834000D03*
D10*
X131097000Y-125313000D03*
D11*
X136097000Y-125313000D03*
X141097000Y-125313000D03*
X146097000Y-125313000D03*
D15*
X99000000Y-95544000D03*
D16*
X99000000Y-93004000D03*
X99000000Y-90464000D03*
X99000000Y-87924000D03*
D12*
X150725000Y-114800000D03*
D13*
X153265000Y-114800000D03*
X153265000Y-107180000D03*
X150725000Y-107180000D03*
D12*
X139225000Y-114800000D03*
D13*
X141765000Y-114800000D03*
X141765000Y-107180000D03*
X139225000Y-107180000D03*
D10*
X176309000Y-125313000D03*
D11*
X181309000Y-125313000D03*
X186309000Y-125313000D03*
X191309000Y-125313000D03*
D15*
X130500000Y-91000000D03*
D14*
X210479000Y-83834000D03*
D12*
X127725000Y-114800000D03*
D13*
X130265000Y-114800000D03*
X130265000Y-107180000D03*
X127725000Y-107180000D03*
D12*
X179500000Y-114800000D03*
D13*
X182040000Y-114800000D03*
X182040000Y-107180000D03*
X179500000Y-107180000D03*
D12*
X116225000Y-114800000D03*
D13*
X118765000Y-114800000D03*
X118765000Y-107180000D03*
X116225000Y-107180000D03*
D15*
X126000000Y-87000000D03*
D12*
X122000000Y-114800000D03*
D13*
X124540000Y-114800000D03*
X124540000Y-107180000D03*
X122000000Y-107180000D03*
D14*
X210479000Y-126913000D03*
D12*
X173725000Y-114800000D03*
D13*
X176265000Y-114800000D03*
X176265000Y-107180000D03*
X173725000Y-107180000D03*
D12*
X145000000Y-114800000D03*
D13*
X147540000Y-114800000D03*
X147540000Y-107180000D03*
X145000000Y-107180000D03*
D12*
X185225000Y-114800000D03*
D13*
X187765000Y-114800000D03*
X187765000Y-107180000D03*
X185225000Y-107180000D03*
D14*
X94400000Y-126913000D03*
D12*
X104725000Y-114800000D03*
D13*
X107265000Y-114800000D03*
X107265000Y-107180000D03*
X104725000Y-107180000D03*
D17*
X131064000Y-121095000D03*
X131064000Y-122745000D03*
X181229000Y-121095000D03*
X181229000Y-122745000D03*
X168783000Y-121095000D03*
X168783000Y-122745000D03*
X108331000Y-121095000D03*
X108331000Y-122745000D03*
X146050000Y-121095000D03*
X146050000Y-122745000D03*
X153670000Y-121095000D03*
X153670000Y-122745000D03*
X136144000Y-121095000D03*
X136144000Y-122745000D03*
X123444000Y-121095000D03*
X123444000Y-122745000D03*
X176276000Y-121095000D03*
X176276000Y-122745000D03*
X191262000Y-121095000D03*
X191262000Y-122745000D03*
X163703000Y-121095000D03*
X163703000Y-122745000D03*
X118364000Y-121095000D03*
X118364000Y-122745000D03*
X186309000Y-121095000D03*
X186309000Y-122745000D03*
X158750000Y-121095000D03*
X158750000Y-122745000D03*
X141097000Y-121095000D03*
X141097000Y-122745000D03*
X113284000Y-121095000D03*
X113284000Y-122745000D03*
M02*
