G04 #@! TF.GenerationSoftware,KiCad,Pcbnew,7.0.1*
G04 #@! TF.CreationDate,2023-06-13T03:05:22-04:00*
G04 #@! TF.ProjectId,i2c 24vin,69326320-3234-4766-996e-2e6b69636164,rev?*
G04 #@! TF.SameCoordinates,Original*
G04 #@! TF.FileFunction,Copper,L2,Bot*
G04 #@! TF.FilePolarity,Positive*
%FSLAX46Y46*%
G04 Gerber Fmt 4.6, Leading zero omitted, Abs format (unit mm)*
G04 Created by KiCad (PCBNEW 7.0.1) date 2023-06-13 03:05:22*
%MOMM*%
%LPD*%
G01*
G04 APERTURE LIST*
G04 Aperture macros list*
%AMRoundRect*
0 Rectangle with rounded corners*
0 $1 Rounding radius*
0 $2 $3 $4 $5 $6 $7 $8 $9 X,Y pos of 4 corners*
0 Add a 4 corners polygon primitive as box body*
4,1,4,$2,$3,$4,$5,$6,$7,$8,$9,$2,$3,0*
0 Add four circle primitives for the rounded corners*
1,1,$1+$1,$2,$3*
1,1,$1+$1,$4,$5*
1,1,$1+$1,$6,$7*
1,1,$1+$1,$8,$9*
0 Add four rect primitives between the rounded corners*
20,1,$1+$1,$2,$3,$4,$5,0*
20,1,$1+$1,$4,$5,$6,$7,0*
20,1,$1+$1,$6,$7,$8,$9,0*
20,1,$1+$1,$8,$9,$2,$3,0*%
G04 Aperture macros list end*
G04 #@! TA.AperFunction,ComponentPad*
%ADD10R,2.600000X2.600000*%
G04 #@! TD*
G04 #@! TA.AperFunction,ComponentPad*
%ADD11C,2.600000*%
G04 #@! TD*
G04 #@! TA.AperFunction,ComponentPad*
%ADD12R,1.600000X1.600000*%
G04 #@! TD*
G04 #@! TA.AperFunction,ComponentPad*
%ADD13O,1.600000X1.600000*%
G04 #@! TD*
G04 #@! TA.AperFunction,ComponentPad*
%ADD14R,1.700000X1.700000*%
G04 #@! TD*
G04 #@! TA.AperFunction,ComponentPad*
%ADD15O,1.700000X1.700000*%
G04 #@! TD*
G04 #@! TA.AperFunction,SMDPad,CuDef*
%ADD16RoundRect,0.200000X-0.275000X0.200000X-0.275000X-0.200000X0.275000X-0.200000X0.275000X0.200000X0*%
G04 #@! TD*
G04 #@! TA.AperFunction,ViaPad*
%ADD17C,0.800000*%
G04 #@! TD*
G04 #@! TA.AperFunction,Conductor*
%ADD18C,0.400000*%
G04 #@! TD*
G04 #@! TA.AperFunction,Conductor*
%ADD19C,0.250000*%
G04 #@! TD*
G04 APERTURE END LIST*
D10*
X153703000Y-125313000D03*
D11*
X158703000Y-125313000D03*
X163703000Y-125313000D03*
X168703000Y-125313000D03*
D12*
X162225000Y-114800000D03*
D13*
X164765000Y-114800000D03*
X164765000Y-107180000D03*
X162225000Y-107180000D03*
D12*
X133500000Y-114800000D03*
D13*
X136040000Y-114800000D03*
X136040000Y-107180000D03*
X133500000Y-107180000D03*
D12*
X191000000Y-114800000D03*
D13*
X193540000Y-114800000D03*
X193540000Y-107180000D03*
X191000000Y-107180000D03*
D12*
X156500000Y-114800000D03*
D13*
X159040000Y-114800000D03*
X159040000Y-107180000D03*
X156500000Y-107180000D03*
D10*
X197946000Y-125313000D03*
D11*
X202946000Y-125313000D03*
D10*
X108364000Y-125440000D03*
D11*
X113364000Y-125440000D03*
X118364000Y-125440000D03*
X123364000Y-125440000D03*
D12*
X110460000Y-114800000D03*
D13*
X113000000Y-114800000D03*
X113000000Y-107180000D03*
X110460000Y-107180000D03*
D12*
X168000000Y-114800000D03*
D13*
X170540000Y-114800000D03*
X170540000Y-107180000D03*
X168000000Y-107180000D03*
D10*
X131097000Y-125313000D03*
D11*
X136097000Y-125313000D03*
X141097000Y-125313000D03*
X146097000Y-125313000D03*
D14*
X99000000Y-95544000D03*
D15*
X99000000Y-93004000D03*
X99000000Y-90464000D03*
X99000000Y-87924000D03*
D12*
X150725000Y-114800000D03*
D13*
X153265000Y-114800000D03*
X153265000Y-107180000D03*
X150725000Y-107180000D03*
D12*
X139225000Y-114800000D03*
D13*
X141765000Y-114800000D03*
X141765000Y-107180000D03*
X139225000Y-107180000D03*
D10*
X176309000Y-125313000D03*
D11*
X181309000Y-125313000D03*
X186309000Y-125313000D03*
X191309000Y-125313000D03*
D14*
X130500000Y-91000000D03*
D12*
X127725000Y-114800000D03*
D13*
X130265000Y-114800000D03*
X130265000Y-107180000D03*
X127725000Y-107180000D03*
D12*
X179500000Y-114800000D03*
D13*
X182040000Y-114800000D03*
X182040000Y-107180000D03*
X179500000Y-107180000D03*
D12*
X116225000Y-114800000D03*
D13*
X118765000Y-114800000D03*
X118765000Y-107180000D03*
X116225000Y-107180000D03*
D14*
X126000000Y-87000000D03*
D12*
X122000000Y-114800000D03*
D13*
X124540000Y-114800000D03*
X124540000Y-107180000D03*
X122000000Y-107180000D03*
D12*
X173725000Y-114800000D03*
D13*
X176265000Y-114800000D03*
X176265000Y-107180000D03*
X173725000Y-107180000D03*
D12*
X145000000Y-114800000D03*
D13*
X147540000Y-114800000D03*
X147540000Y-107180000D03*
X145000000Y-107180000D03*
D12*
X185225000Y-114800000D03*
D13*
X187765000Y-114800000D03*
X187765000Y-107180000D03*
X185225000Y-107180000D03*
D12*
X104725000Y-114800000D03*
D13*
X107265000Y-114800000D03*
X107265000Y-107180000D03*
X104725000Y-107180000D03*
D16*
X131064000Y-121095000D03*
X131064000Y-122745000D03*
X181229000Y-121095000D03*
X181229000Y-122745000D03*
X168783000Y-121095000D03*
X168783000Y-122745000D03*
X108331000Y-121095000D03*
X108331000Y-122745000D03*
X146050000Y-121095000D03*
X146050000Y-122745000D03*
X153670000Y-121095000D03*
X153670000Y-122745000D03*
X136144000Y-121095000D03*
X136144000Y-122745000D03*
X123444000Y-121095000D03*
X123444000Y-122745000D03*
X176276000Y-121095000D03*
X176276000Y-122745000D03*
X191262000Y-121095000D03*
X191262000Y-122745000D03*
X163703000Y-121095000D03*
X163703000Y-122745000D03*
X118364000Y-121095000D03*
X118364000Y-122745000D03*
X186309000Y-121095000D03*
X186309000Y-122745000D03*
X158750000Y-121095000D03*
X158750000Y-122745000D03*
X141097000Y-121095000D03*
X141097000Y-122745000D03*
X113284000Y-121095000D03*
X113284000Y-122745000D03*
D17*
X112500000Y-120000000D03*
X113030000Y-85598000D03*
X118500000Y-120000000D03*
X110998000Y-127889000D03*
X124000000Y-120000000D03*
X106172000Y-85598000D03*
X138430000Y-127762000D03*
X135500000Y-120000000D03*
X153000000Y-120000000D03*
X179197000Y-127762000D03*
X115951000Y-127762000D03*
X115500000Y-99500000D03*
X188976000Y-127635000D03*
X143637000Y-127889000D03*
X134112000Y-127762000D03*
X187500000Y-120000000D03*
X147500000Y-120000000D03*
X176000000Y-120000000D03*
X166370000Y-127508000D03*
X107000000Y-120000000D03*
X181500000Y-120000000D03*
X164500000Y-120000000D03*
X183642000Y-127635000D03*
X115500000Y-101000000D03*
X161544000Y-127635000D03*
X170500000Y-120000000D03*
X156337000Y-127762000D03*
X142000000Y-120000000D03*
X120904000Y-127635000D03*
X159000000Y-120000000D03*
X113000000Y-89000000D03*
X116713000Y-86995000D03*
X122047000Y-86995000D03*
X119380000Y-86995000D03*
X103211000Y-90464000D03*
X108204000Y-87122000D03*
X109000000Y-83000000D03*
X102762500Y-93237500D03*
X123738000Y-92369000D03*
X102068000Y-91607000D03*
X122595000Y-91607000D03*
X110236000Y-83312000D03*
X109728000Y-87122000D03*
X120000000Y-90000000D03*
X116000000Y-90000000D03*
D18*
X131064000Y-125280000D02*
X131097000Y-125313000D01*
X131064000Y-122745000D02*
X131064000Y-125280000D01*
X108331000Y-125407000D02*
X108364000Y-125440000D01*
X108331000Y-122745000D02*
X108331000Y-125407000D01*
X113284000Y-125360000D02*
X113364000Y-125440000D01*
X113284000Y-122745000D02*
X113284000Y-125360000D01*
X118364000Y-122745000D02*
X118364000Y-125440000D01*
X123444000Y-125360000D02*
X123364000Y-125440000D01*
X123444000Y-122745000D02*
X123444000Y-125360000D01*
X136144000Y-125266000D02*
X136097000Y-125313000D01*
X136144000Y-122745000D02*
X136144000Y-125266000D01*
X141097000Y-122745000D02*
X141097000Y-125313000D01*
X103211000Y-90464000D02*
X111000000Y-90464000D01*
X111536000Y-90464000D02*
X111000000Y-90464000D01*
X113000000Y-89000000D02*
X111536000Y-90464000D01*
X99000000Y-90464000D02*
X103211000Y-90464000D01*
X125995000Y-86995000D02*
X126000000Y-87000000D01*
X116713000Y-86995000D02*
X119380000Y-86995000D01*
X119380000Y-86995000D02*
X122047000Y-86995000D01*
X115005000Y-86995000D02*
X113000000Y-89000000D01*
X116713000Y-86995000D02*
X115005000Y-86995000D01*
X122047000Y-86995000D02*
X125995000Y-86995000D01*
X146050000Y-125266000D02*
X146097000Y-125313000D01*
X146050000Y-122745000D02*
X146050000Y-125266000D01*
X123700489Y-92406511D02*
X103593489Y-92406511D01*
X100456000Y-95544000D02*
X99000000Y-95544000D01*
X123738000Y-92369000D02*
X123700489Y-92406511D01*
X103593489Y-92406511D02*
X102762500Y-93237500D01*
X102762500Y-93237500D02*
X100456000Y-95544000D01*
D19*
X109000000Y-83000000D02*
X108204000Y-83796000D01*
X108204000Y-83796000D02*
X108204000Y-87122000D01*
D18*
X100397000Y-91607000D02*
X99000000Y-93004000D01*
D19*
X109728000Y-83820000D02*
X109728000Y-87122000D01*
X110236000Y-83312000D02*
X109728000Y-83820000D01*
D18*
X122595000Y-91607000D02*
X102068000Y-91607000D01*
X102068000Y-91607000D02*
X100397000Y-91607000D01*
X176276000Y-122745000D02*
X176276000Y-125280000D01*
X176276000Y-125280000D02*
X176309000Y-125313000D01*
X153670000Y-122745000D02*
X153670000Y-125280000D01*
X153670000Y-125280000D02*
X153703000Y-125313000D01*
X158750000Y-122745000D02*
X158750000Y-125266000D01*
X158750000Y-125266000D02*
X158703000Y-125313000D01*
X163703000Y-122745000D02*
X163703000Y-125313000D01*
X168783000Y-122745000D02*
X168783000Y-125233000D01*
X168783000Y-125233000D02*
X168703000Y-125313000D01*
X181229000Y-122745000D02*
X181229000Y-125233000D01*
X181229000Y-125233000D02*
X181309000Y-125313000D01*
X186309000Y-122745000D02*
X186309000Y-125313000D01*
X191262000Y-125266000D02*
X191309000Y-125313000D01*
X191262000Y-122745000D02*
X191262000Y-125266000D01*
X116000000Y-90000000D02*
X120000000Y-90000000D01*
X196215000Y-128143000D02*
X201676000Y-128143000D01*
X163703000Y-121095000D02*
X168783000Y-121095000D01*
X194564000Y-122809000D02*
X194564000Y-126492000D01*
X181229000Y-121095000D02*
X191262000Y-121095000D01*
X123444000Y-121095000D02*
X131064000Y-121095000D01*
X168783000Y-121095000D02*
X176276000Y-121095000D01*
X118364000Y-121095000D02*
X123444000Y-121095000D01*
X153670000Y-121095000D02*
X158750000Y-121095000D01*
X113284000Y-121095000D02*
X118364000Y-121095000D01*
X191262000Y-121095000D02*
X192850000Y-121095000D01*
X201676000Y-128143000D02*
X202946000Y-126873000D01*
X131064000Y-121095000D02*
X136144000Y-121095000D01*
X146050000Y-121095000D02*
X153670000Y-121095000D01*
X136144000Y-121095000D02*
X141097000Y-121095000D01*
X194564000Y-126492000D02*
X196215000Y-128143000D01*
X141097000Y-121095000D02*
X146050000Y-121095000D01*
X202946000Y-126873000D02*
X202946000Y-125313000D01*
X158750000Y-121095000D02*
X163703000Y-121095000D01*
X108331000Y-121095000D02*
X113284000Y-121095000D01*
X176276000Y-121095000D02*
X181229000Y-121095000D01*
X192850000Y-121095000D02*
X194564000Y-122809000D01*
G04 #@! TA.AperFunction,Conductor*
G36*
X210482093Y-80278651D02*
G01*
X210631620Y-80285997D01*
X210828245Y-80296303D01*
X210840101Y-80297490D01*
X211007701Y-80322351D01*
X211008662Y-80322498D01*
X211185112Y-80350445D01*
X211195953Y-80352656D01*
X211363728Y-80394682D01*
X211365688Y-80395190D01*
X211534591Y-80440448D01*
X211544412Y-80443516D01*
X211708612Y-80502268D01*
X211711318Y-80503271D01*
X211873120Y-80565381D01*
X211881837Y-80569109D01*
X211971825Y-80611669D01*
X212040208Y-80644012D01*
X212043434Y-80645596D01*
X212197287Y-80723988D01*
X212204816Y-80728157D01*
X212290992Y-80779809D01*
X212355410Y-80818420D01*
X212359257Y-80820821D01*
X212503647Y-80914589D01*
X212510080Y-80919057D01*
X212651272Y-81023772D01*
X212655482Y-81027035D01*
X212789147Y-81135274D01*
X212794444Y-81139814D01*
X212924789Y-81257952D01*
X212929268Y-81262217D01*
X213050781Y-81383730D01*
X213055046Y-81388209D01*
X213173184Y-81518554D01*
X213177730Y-81523858D01*
X213285954Y-81657504D01*
X213289226Y-81661726D01*
X213393941Y-81802918D01*
X213398409Y-81809351D01*
X213492177Y-81953741D01*
X213494578Y-81957588D01*
X213584831Y-82108164D01*
X213589025Y-82115739D01*
X213667370Y-82269499D01*
X213669006Y-82272831D01*
X213743889Y-82431161D01*
X213747617Y-82439878D01*
X213809727Y-82601680D01*
X213810730Y-82604386D01*
X213869482Y-82768586D01*
X213872555Y-82778423D01*
X213917807Y-82947308D01*
X213918324Y-82949302D01*
X213960334Y-83117009D01*
X213962559Y-83127916D01*
X213990484Y-83304233D01*
X213990671Y-83305455D01*
X214015506Y-83472879D01*
X214016697Y-83484772D01*
X214026997Y-83681301D01*
X214027018Y-83681713D01*
X214034348Y-83830906D01*
X214034500Y-83837089D01*
X214034500Y-126736699D01*
X214033080Y-126744292D01*
X214034395Y-126782955D01*
X214034455Y-126789063D01*
X214032336Y-126935169D01*
X214032329Y-126935591D01*
X214028607Y-127144059D01*
X214027796Y-127156256D01*
X214008229Y-127325793D01*
X214008078Y-127327051D01*
X213984989Y-127510862D01*
X213983062Y-127522078D01*
X213945611Y-127693320D01*
X213945143Y-127695377D01*
X213903613Y-127871121D01*
X213900762Y-127881267D01*
X213845752Y-128049676D01*
X213844803Y-128052471D01*
X213785351Y-128220996D01*
X213781775Y-128230010D01*
X213709773Y-128392932D01*
X213708187Y-128396379D01*
X213631485Y-128556698D01*
X213627386Y-128564546D01*
X213539134Y-128719928D01*
X213536769Y-128723919D01*
X213443656Y-128874655D01*
X213439231Y-128881333D01*
X213335679Y-129027325D01*
X213332411Y-129031727D01*
X213223896Y-129171417D01*
X213219339Y-129176950D01*
X213101569Y-129311947D01*
X213097294Y-129316607D01*
X212974526Y-129443839D01*
X212970021Y-129448279D01*
X212839320Y-129570785D01*
X212833952Y-129575536D01*
X212698219Y-129688971D01*
X212693939Y-129692393D01*
X212551731Y-129801095D01*
X212545214Y-129805756D01*
X212397901Y-129904187D01*
X212393997Y-129906693D01*
X212241868Y-130000431D01*
X212234172Y-130004808D01*
X212076699Y-130087181D01*
X212073309Y-130088889D01*
X211913037Y-130166670D01*
X211904157Y-130170565D01*
X211737876Y-130235988D01*
X211735118Y-130237036D01*
X211568784Y-130298022D01*
X211558745Y-130301233D01*
X211384593Y-130349010D01*
X211382554Y-130349551D01*
X211212750Y-130393092D01*
X211201609Y-130395419D01*
X211018775Y-130425046D01*
X211017525Y-130425242D01*
X210848768Y-130450852D01*
X210836608Y-130452097D01*
X210628329Y-130463262D01*
X210627906Y-130463284D01*
X210482164Y-130470606D01*
X210475840Y-130470765D01*
X94403088Y-130468500D01*
X94396907Y-130468348D01*
X94247713Y-130461018D01*
X94247301Y-130460997D01*
X94050772Y-130450697D01*
X94038879Y-130449506D01*
X93871455Y-130424671D01*
X93870233Y-130424484D01*
X93693916Y-130396559D01*
X93683012Y-130394334D01*
X93664777Y-130389767D01*
X93515302Y-130352324D01*
X93513308Y-130351807D01*
X93344423Y-130306555D01*
X93334586Y-130303482D01*
X93170386Y-130244730D01*
X93167680Y-130243727D01*
X93005878Y-130181617D01*
X92997161Y-130177889D01*
X92838831Y-130103006D01*
X92835499Y-130101370D01*
X92807652Y-130087181D01*
X92681732Y-130023021D01*
X92674164Y-130018831D01*
X92523588Y-129928578D01*
X92519741Y-129926177D01*
X92375351Y-129832409D01*
X92368918Y-129827941D01*
X92227726Y-129723226D01*
X92223504Y-129719954D01*
X92089858Y-129611730D01*
X92084554Y-129607184D01*
X91954209Y-129489046D01*
X91949730Y-129484781D01*
X91828217Y-129363268D01*
X91823952Y-129358789D01*
X91705811Y-129228441D01*
X91701274Y-129223147D01*
X91593035Y-129089482D01*
X91589772Y-129085272D01*
X91485057Y-128944080D01*
X91480589Y-128937647D01*
X91386821Y-128793257D01*
X91384420Y-128789410D01*
X91340578Y-128716265D01*
X91294157Y-128638816D01*
X91289988Y-128631287D01*
X91211596Y-128477434D01*
X91210012Y-128474208D01*
X91166203Y-128381582D01*
X91135109Y-128315837D01*
X91131381Y-128307120D01*
X91069271Y-128145318D01*
X91068268Y-128142612D01*
X91009516Y-127978412D01*
X91006448Y-127968591D01*
X90961190Y-127799688D01*
X90960674Y-127797696D01*
X90955791Y-127778201D01*
X90918656Y-127629953D01*
X90916445Y-127619112D01*
X90888498Y-127442662D01*
X90888351Y-127441701D01*
X90863490Y-127274101D01*
X90862303Y-127262245D01*
X90851997Y-127065620D01*
X90847828Y-126980766D01*
X92545787Y-126980766D01*
X92575413Y-127250015D01*
X92581715Y-127274119D01*
X92643928Y-127512088D01*
X92749870Y-127761390D01*
X92890982Y-127992610D01*
X93064255Y-128200820D01*
X93064256Y-128200821D01*
X93064258Y-128200823D01*
X93265993Y-128381578D01*
X93265995Y-128381579D01*
X93265998Y-128381582D01*
X93491910Y-128531044D01*
X93615650Y-128589051D01*
X93737171Y-128646018D01*
X93737173Y-128646018D01*
X93737176Y-128646020D01*
X93996569Y-128724060D01*
X93996572Y-128724060D01*
X93996574Y-128724061D01*
X94264558Y-128763500D01*
X94264561Y-128763500D01*
X94467630Y-128763500D01*
X94467631Y-128763500D01*
X94670156Y-128748677D01*
X94934553Y-128689780D01*
X95187558Y-128593014D01*
X95423777Y-128460441D01*
X95638177Y-128294888D01*
X95826186Y-128099881D01*
X95983799Y-127879579D01*
X96107656Y-127638675D01*
X96195118Y-127382305D01*
X96244319Y-127115933D01*
X96254212Y-126845235D01*
X96248699Y-126795134D01*
X96247984Y-126788638D01*
X106555500Y-126788638D01*
X106562011Y-126849201D01*
X106574841Y-126883598D01*
X106613111Y-126986205D01*
X106700738Y-127103261D01*
X106817794Y-127190888D01*
X106817795Y-127190888D01*
X106817796Y-127190889D01*
X106954799Y-127241989D01*
X107015362Y-127248500D01*
X109712638Y-127248500D01*
X109773201Y-127241989D01*
X109910204Y-127190889D01*
X110027261Y-127103261D01*
X110114889Y-126986204D01*
X110165989Y-126849201D01*
X110172500Y-126788638D01*
X110172500Y-124091362D01*
X110165989Y-124030799D01*
X110114889Y-123893796D01*
X110114888Y-123893794D01*
X110027261Y-123776738D01*
X109910205Y-123689111D01*
X109822007Y-123656215D01*
X109773201Y-123638011D01*
X109712638Y-123631500D01*
X109225662Y-123631500D01*
X109168459Y-123617767D01*
X109123726Y-123579561D01*
X109101213Y-123525211D01*
X109105829Y-123466564D01*
X109136567Y-123416405D01*
X109167814Y-123385157D01*
X109167814Y-123385156D01*
X109167816Y-123385155D01*
X109256827Y-123237913D01*
X109308013Y-123073649D01*
X109314500Y-123002265D01*
X109314499Y-122487736D01*
X109311934Y-122459511D01*
X109308013Y-122416351D01*
X109298483Y-122385769D01*
X109256827Y-122252087D01*
X109167816Y-122104845D01*
X109167815Y-122104844D01*
X109167814Y-122104842D01*
X109081567Y-122018595D01*
X109050829Y-121968436D01*
X109046213Y-121909789D01*
X109068726Y-121855439D01*
X109113459Y-121817233D01*
X109170662Y-121803500D01*
X112444338Y-121803500D01*
X112501541Y-121817233D01*
X112546274Y-121855439D01*
X112568787Y-121909789D01*
X112564171Y-121968436D01*
X112533433Y-122018595D01*
X112447185Y-122104842D01*
X112358173Y-122252087D01*
X112306986Y-122416351D01*
X112300500Y-122487735D01*
X112300500Y-123002264D01*
X112306986Y-123073648D01*
X112342222Y-123186726D01*
X112358173Y-123237913D01*
X112358175Y-123237916D01*
X112447185Y-123385157D01*
X112538595Y-123476567D01*
X112565909Y-123517444D01*
X112575500Y-123565662D01*
X112575500Y-123733267D01*
X112556187Y-123800303D01*
X112504169Y-123846789D01*
X112457214Y-123869401D01*
X112233260Y-124022090D01*
X112034554Y-124206461D01*
X111865557Y-124418378D01*
X111730029Y-124653119D01*
X111631001Y-124905439D01*
X111570685Y-125169699D01*
X111550429Y-125440000D01*
X111570685Y-125710300D01*
X111631001Y-125974560D01*
X111730029Y-126226880D01*
X111865557Y-126461621D01*
X112034554Y-126673538D01*
X112034557Y-126673540D01*
X112034558Y-126673542D01*
X112233257Y-126857907D01*
X112457215Y-127010599D01*
X112526160Y-127043801D01*
X112701427Y-127128206D01*
X112759192Y-127146023D01*
X112960442Y-127208101D01*
X113228472Y-127248500D01*
X113499526Y-127248500D01*
X113499528Y-127248500D01*
X113767558Y-127208101D01*
X114026572Y-127128206D01*
X114270786Y-127010599D01*
X114494743Y-126857907D01*
X114693442Y-126673542D01*
X114862443Y-126461621D01*
X114997971Y-126226879D01*
X115096999Y-125974559D01*
X115157315Y-125710299D01*
X115177571Y-125440000D01*
X115157315Y-125169701D01*
X115096999Y-124905441D01*
X114997971Y-124653121D01*
X114862443Y-124418379D01*
X114761164Y-124291379D01*
X114693445Y-124206461D01*
X114693442Y-124206458D01*
X114494743Y-124022093D01*
X114270786Y-123869401D01*
X114270785Y-123869400D01*
X114270783Y-123869399D01*
X114063831Y-123769737D01*
X114011813Y-123723251D01*
X113992500Y-123656215D01*
X113992500Y-123565662D01*
X114002091Y-123517444D01*
X114029405Y-123476567D01*
X114120814Y-123385157D01*
X114120814Y-123385156D01*
X114120816Y-123385155D01*
X114209827Y-123237913D01*
X114261013Y-123073649D01*
X114267500Y-123002265D01*
X114267499Y-122487736D01*
X114264934Y-122459511D01*
X114261013Y-122416351D01*
X114251483Y-122385769D01*
X114209827Y-122252087D01*
X114120816Y-122104845D01*
X114120815Y-122104844D01*
X114120814Y-122104842D01*
X114034567Y-122018595D01*
X114003829Y-121968436D01*
X113999213Y-121909789D01*
X114021726Y-121855439D01*
X114066459Y-121817233D01*
X114123662Y-121803500D01*
X117524338Y-121803500D01*
X117581541Y-121817233D01*
X117626274Y-121855439D01*
X117648787Y-121909789D01*
X117644171Y-121968436D01*
X117613433Y-122018595D01*
X117527185Y-122104842D01*
X117438173Y-122252087D01*
X117386986Y-122416351D01*
X117380500Y-122487735D01*
X117380500Y-123002264D01*
X117386986Y-123073648D01*
X117422222Y-123186726D01*
X117438173Y-123237913D01*
X117438175Y-123237916D01*
X117527185Y-123385157D01*
X117618595Y-123476567D01*
X117645909Y-123517444D01*
X117655500Y-123565662D01*
X117655500Y-123694741D01*
X117636187Y-123761777D01*
X117584169Y-123808263D01*
X117457214Y-123869401D01*
X117233260Y-124022090D01*
X117034554Y-124206461D01*
X116865557Y-124418378D01*
X116730029Y-124653119D01*
X116631001Y-124905439D01*
X116570685Y-125169699D01*
X116550429Y-125440000D01*
X116570685Y-125710300D01*
X116631001Y-125974560D01*
X116730029Y-126226880D01*
X116865557Y-126461621D01*
X117034554Y-126673538D01*
X117034557Y-126673540D01*
X117034558Y-126673542D01*
X117233257Y-126857907D01*
X117457215Y-127010599D01*
X117526160Y-127043801D01*
X117701427Y-127128206D01*
X117759192Y-127146023D01*
X117960442Y-127208101D01*
X118228472Y-127248500D01*
X118499526Y-127248500D01*
X118499528Y-127248500D01*
X118767558Y-127208101D01*
X119026572Y-127128206D01*
X119270786Y-127010599D01*
X119494743Y-126857907D01*
X119693442Y-126673542D01*
X119862443Y-126461621D01*
X119997971Y-126226879D01*
X120096999Y-125974559D01*
X120157315Y-125710299D01*
X120177571Y-125440000D01*
X120157315Y-125169701D01*
X120096999Y-124905441D01*
X119997971Y-124653121D01*
X119862443Y-124418379D01*
X119761164Y-124291379D01*
X119693445Y-124206461D01*
X119693442Y-124206458D01*
X119494743Y-124022093D01*
X119270786Y-123869401D01*
X119270785Y-123869400D01*
X119270783Y-123869399D01*
X119143831Y-123808263D01*
X119091813Y-123761777D01*
X119072500Y-123694741D01*
X119072500Y-123565662D01*
X119082091Y-123517444D01*
X119109405Y-123476567D01*
X119200814Y-123385157D01*
X119200814Y-123385156D01*
X119200816Y-123385155D01*
X119289827Y-123237913D01*
X119341013Y-123073649D01*
X119347500Y-123002265D01*
X119347499Y-122487736D01*
X119344934Y-122459511D01*
X119341013Y-122416351D01*
X119331483Y-122385769D01*
X119289827Y-122252087D01*
X119200816Y-122104845D01*
X119200815Y-122104844D01*
X119200814Y-122104842D01*
X119114567Y-122018595D01*
X119083829Y-121968436D01*
X119079213Y-121909789D01*
X119101726Y-121855439D01*
X119146459Y-121817233D01*
X119203662Y-121803500D01*
X122604338Y-121803500D01*
X122661541Y-121817233D01*
X122706274Y-121855439D01*
X122728787Y-121909789D01*
X122724171Y-121968436D01*
X122693433Y-122018595D01*
X122607185Y-122104842D01*
X122518173Y-122252087D01*
X122466986Y-122416351D01*
X122460500Y-122487735D01*
X122460500Y-123002264D01*
X122466986Y-123073648D01*
X122502222Y-123186726D01*
X122518173Y-123237913D01*
X122518175Y-123237916D01*
X122607185Y-123385157D01*
X122698595Y-123476567D01*
X122725909Y-123517444D01*
X122735500Y-123565662D01*
X122735500Y-123656215D01*
X122716187Y-123723251D01*
X122664169Y-123769737D01*
X122457214Y-123869401D01*
X122233260Y-124022090D01*
X122034554Y-124206461D01*
X121865557Y-124418378D01*
X121730029Y-124653119D01*
X121631001Y-124905439D01*
X121570685Y-125169699D01*
X121550429Y-125440000D01*
X121570685Y-125710300D01*
X121631001Y-125974560D01*
X121730029Y-126226880D01*
X121865557Y-126461621D01*
X122034554Y-126673538D01*
X122034557Y-126673540D01*
X122034558Y-126673542D01*
X122233257Y-126857907D01*
X122457215Y-127010599D01*
X122526160Y-127043801D01*
X122701427Y-127128206D01*
X122759192Y-127146023D01*
X122960442Y-127208101D01*
X123228472Y-127248500D01*
X123499526Y-127248500D01*
X123499528Y-127248500D01*
X123767558Y-127208101D01*
X124026572Y-127128206D01*
X124270786Y-127010599D01*
X124494743Y-126857907D01*
X124693442Y-126673542D01*
X124862443Y-126461621D01*
X124997971Y-126226879D01*
X125096999Y-125974559D01*
X125157315Y-125710299D01*
X125177571Y-125440000D01*
X125157315Y-125169701D01*
X125096999Y-124905441D01*
X124997971Y-124653121D01*
X124862443Y-124418379D01*
X124761164Y-124291379D01*
X124693445Y-124206461D01*
X124693442Y-124206458D01*
X124494743Y-124022093D01*
X124270786Y-123869401D01*
X124223830Y-123846788D01*
X124171813Y-123800303D01*
X124152500Y-123733267D01*
X124152500Y-123565662D01*
X124162091Y-123517444D01*
X124189405Y-123476567D01*
X124280814Y-123385157D01*
X124280814Y-123385156D01*
X124280816Y-123385155D01*
X124369827Y-123237913D01*
X124421013Y-123073649D01*
X124427500Y-123002265D01*
X124427499Y-122487736D01*
X124424934Y-122459511D01*
X124421013Y-122416351D01*
X124411483Y-122385769D01*
X124369827Y-122252087D01*
X124280816Y-122104845D01*
X124280815Y-122104844D01*
X124280814Y-122104842D01*
X124194567Y-122018595D01*
X124163829Y-121968436D01*
X124159213Y-121909789D01*
X124181726Y-121855439D01*
X124226459Y-121817233D01*
X124283662Y-121803500D01*
X130224338Y-121803500D01*
X130281541Y-121817233D01*
X130326274Y-121855439D01*
X130348787Y-121909789D01*
X130344171Y-121968436D01*
X130313433Y-122018595D01*
X130227185Y-122104842D01*
X130138173Y-122252087D01*
X130086986Y-122416351D01*
X130080500Y-122487735D01*
X130080500Y-123002264D01*
X130086986Y-123073648D01*
X130138174Y-123237916D01*
X130183755Y-123313316D01*
X130201913Y-123376597D01*
X130185675Y-123440398D01*
X130139476Y-123487301D01*
X130075927Y-123504500D01*
X129748362Y-123504500D01*
X129687799Y-123511011D01*
X129550794Y-123562111D01*
X129433738Y-123649738D01*
X129346111Y-123766794D01*
X129307841Y-123869401D01*
X129295011Y-123903799D01*
X129288500Y-123964362D01*
X129288500Y-126661638D01*
X129295011Y-126722201D01*
X129320561Y-126790702D01*
X129346111Y-126859205D01*
X129433738Y-126976261D01*
X129550794Y-127063888D01*
X129550795Y-127063888D01*
X129550796Y-127063889D01*
X129687799Y-127114989D01*
X129748362Y-127121500D01*
X132445638Y-127121500D01*
X132506201Y-127114989D01*
X132643204Y-127063889D01*
X132760261Y-126976261D01*
X132847889Y-126859204D01*
X132898989Y-126722201D01*
X132905500Y-126661638D01*
X132905500Y-123964362D01*
X132898989Y-123903799D01*
X132847889Y-123766796D01*
X132829628Y-123742402D01*
X132760261Y-123649738D01*
X132643205Y-123562111D01*
X132523448Y-123517444D01*
X132506201Y-123511011D01*
X132445638Y-123504500D01*
X132052073Y-123504500D01*
X131988524Y-123487301D01*
X131942325Y-123440398D01*
X131926087Y-123376597D01*
X131944245Y-123313316D01*
X131989825Y-123237916D01*
X131989824Y-123237916D01*
X131989827Y-123237913D01*
X132041013Y-123073649D01*
X132047500Y-123002265D01*
X132047499Y-122487736D01*
X132044934Y-122459511D01*
X132041013Y-122416351D01*
X132031483Y-122385769D01*
X131989827Y-122252087D01*
X131900816Y-122104845D01*
X131900815Y-122104844D01*
X131900814Y-122104842D01*
X131814567Y-122018595D01*
X131783829Y-121968436D01*
X131779213Y-121909789D01*
X131801726Y-121855439D01*
X131846459Y-121817233D01*
X131903662Y-121803500D01*
X135304338Y-121803500D01*
X135361541Y-121817233D01*
X135406274Y-121855439D01*
X135428787Y-121909789D01*
X135424171Y-121968436D01*
X135393433Y-122018595D01*
X135307185Y-122104842D01*
X135218173Y-122252087D01*
X135166986Y-122416351D01*
X135160500Y-122487735D01*
X135160500Y-123002264D01*
X135166986Y-123073648D01*
X135202222Y-123186726D01*
X135218173Y-123237913D01*
X135218175Y-123237916D01*
X135307185Y-123385157D01*
X135384721Y-123462693D01*
X135415676Y-123513525D01*
X135419846Y-123572894D01*
X135396301Y-123627554D01*
X135350296Y-123665310D01*
X135190212Y-123742402D01*
X134966260Y-123895090D01*
X134767554Y-124079461D01*
X134598557Y-124291378D01*
X134463029Y-124526119D01*
X134364001Y-124778439D01*
X134303685Y-125042699D01*
X134283429Y-125312999D01*
X134303685Y-125583300D01*
X134364001Y-125847560D01*
X134463029Y-126099880D01*
X134598557Y-126334621D01*
X134767554Y-126546538D01*
X134767557Y-126546540D01*
X134767558Y-126546542D01*
X134966257Y-126730907D01*
X135190215Y-126883599D01*
X135297301Y-126935169D01*
X135434427Y-127001206D01*
X135492192Y-127019023D01*
X135693442Y-127081101D01*
X135961472Y-127121500D01*
X136232526Y-127121500D01*
X136232528Y-127121500D01*
X136500558Y-127081101D01*
X136759572Y-127001206D01*
X137003786Y-126883599D01*
X137227743Y-126730907D01*
X137426442Y-126546542D01*
X137595443Y-126334621D01*
X137730971Y-126099879D01*
X137829999Y-125847559D01*
X137890315Y-125583299D01*
X137910571Y-125313000D01*
X137890315Y-125042701D01*
X137829999Y-124778441D01*
X137730971Y-124526121D01*
X137595443Y-124291379D01*
X137527721Y-124206458D01*
X137426445Y-124079461D01*
X137426442Y-124079458D01*
X137227743Y-123895093D01*
X137003786Y-123742401D01*
X137003785Y-123742400D01*
X137003783Y-123742399D01*
X136923831Y-123703897D01*
X136871813Y-123657411D01*
X136852500Y-123590375D01*
X136852500Y-123565662D01*
X136862091Y-123517444D01*
X136889405Y-123476567D01*
X136980814Y-123385157D01*
X136980814Y-123385156D01*
X136980816Y-123385155D01*
X137069827Y-123237913D01*
X137121013Y-123073649D01*
X137127500Y-123002265D01*
X137127499Y-122487736D01*
X137124934Y-122459511D01*
X137121013Y-122416351D01*
X137111483Y-122385769D01*
X137069827Y-122252087D01*
X136980816Y-122104845D01*
X136980815Y-122104844D01*
X136980814Y-122104842D01*
X136894567Y-122018595D01*
X136863829Y-121968436D01*
X136859213Y-121909789D01*
X136881726Y-121855439D01*
X136926459Y-121817233D01*
X136983662Y-121803500D01*
X140257338Y-121803500D01*
X140314541Y-121817233D01*
X140359274Y-121855439D01*
X140381787Y-121909789D01*
X140377171Y-121968436D01*
X140346433Y-122018595D01*
X140260185Y-122104842D01*
X140171173Y-122252087D01*
X140119986Y-122416351D01*
X140113500Y-122487735D01*
X140113500Y-123002264D01*
X140119986Y-123073648D01*
X140155222Y-123186726D01*
X140171173Y-123237913D01*
X140171175Y-123237916D01*
X140260185Y-123385157D01*
X140351595Y-123476567D01*
X140378909Y-123517444D01*
X140388500Y-123565662D01*
X140388500Y-123567741D01*
X140369187Y-123634777D01*
X140317169Y-123681263D01*
X140190214Y-123742401D01*
X139966260Y-123895090D01*
X139767554Y-124079461D01*
X139598557Y-124291378D01*
X139463029Y-124526119D01*
X139364001Y-124778439D01*
X139303685Y-125042699D01*
X139283429Y-125312999D01*
X139303685Y-125583300D01*
X139364001Y-125847560D01*
X139463029Y-126099880D01*
X139598557Y-126334621D01*
X139767554Y-126546538D01*
X139767557Y-126546540D01*
X139767558Y-126546542D01*
X139966257Y-126730907D01*
X140190215Y-126883599D01*
X140297301Y-126935169D01*
X140434427Y-127001206D01*
X140492192Y-127019023D01*
X140693442Y-127081101D01*
X140961472Y-127121500D01*
X141232526Y-127121500D01*
X141232528Y-127121500D01*
X141500558Y-127081101D01*
X141759572Y-127001206D01*
X142003786Y-126883599D01*
X142227743Y-126730907D01*
X142426442Y-126546542D01*
X142595443Y-126334621D01*
X142730971Y-126099879D01*
X142829999Y-125847559D01*
X142890315Y-125583299D01*
X142910571Y-125313000D01*
X142890315Y-125042701D01*
X142829999Y-124778441D01*
X142730971Y-124526121D01*
X142595443Y-124291379D01*
X142527721Y-124206458D01*
X142426445Y-124079461D01*
X142426442Y-124079458D01*
X142227743Y-123895093D01*
X142003786Y-123742401D01*
X142003785Y-123742400D01*
X142003783Y-123742399D01*
X141876831Y-123681263D01*
X141824813Y-123634777D01*
X141805500Y-123567741D01*
X141805500Y-123565662D01*
X141815091Y-123517444D01*
X141842405Y-123476567D01*
X141933814Y-123385157D01*
X141933814Y-123385156D01*
X141933816Y-123385155D01*
X142022827Y-123237913D01*
X142074013Y-123073649D01*
X142080500Y-123002265D01*
X142080499Y-122487736D01*
X142077934Y-122459511D01*
X142074013Y-122416351D01*
X142064483Y-122385769D01*
X142022827Y-122252087D01*
X141933816Y-122104845D01*
X141933815Y-122104844D01*
X141933814Y-122104842D01*
X141847567Y-122018595D01*
X141816829Y-121968436D01*
X141812213Y-121909789D01*
X141834726Y-121855439D01*
X141879459Y-121817233D01*
X141936662Y-121803500D01*
X145210338Y-121803500D01*
X145267541Y-121817233D01*
X145312274Y-121855439D01*
X145334787Y-121909789D01*
X145330171Y-121968436D01*
X145299433Y-122018595D01*
X145213185Y-122104842D01*
X145124173Y-122252087D01*
X145072986Y-122416351D01*
X145066500Y-122487735D01*
X145066500Y-123002264D01*
X145072986Y-123073648D01*
X145108222Y-123186726D01*
X145124173Y-123237913D01*
X145124175Y-123237916D01*
X145213185Y-123385157D01*
X145304595Y-123476567D01*
X145331909Y-123517444D01*
X145341500Y-123565662D01*
X145341500Y-123590375D01*
X145322187Y-123657411D01*
X145270169Y-123703897D01*
X145190214Y-123742401D01*
X144966260Y-123895090D01*
X144767554Y-124079461D01*
X144598557Y-124291378D01*
X144463029Y-124526119D01*
X144364001Y-124778439D01*
X144303685Y-125042699D01*
X144283429Y-125312999D01*
X144303685Y-125583300D01*
X144364001Y-125847560D01*
X144463029Y-126099880D01*
X144598557Y-126334621D01*
X144767554Y-126546538D01*
X144767557Y-126546540D01*
X144767558Y-126546542D01*
X144966257Y-126730907D01*
X145190215Y-126883599D01*
X145297301Y-126935169D01*
X145434427Y-127001206D01*
X145492192Y-127019023D01*
X145693442Y-127081101D01*
X145961472Y-127121500D01*
X146232526Y-127121500D01*
X146232528Y-127121500D01*
X146500558Y-127081101D01*
X146759572Y-127001206D01*
X147003786Y-126883599D01*
X147227743Y-126730907D01*
X147426442Y-126546542D01*
X147595443Y-126334621D01*
X147730971Y-126099879D01*
X147829999Y-125847559D01*
X147890315Y-125583299D01*
X147910571Y-125313000D01*
X147890315Y-125042701D01*
X147829999Y-124778441D01*
X147730971Y-124526121D01*
X147595443Y-124291379D01*
X147527721Y-124206458D01*
X147426445Y-124079461D01*
X147426442Y-124079458D01*
X147227743Y-123895093D01*
X147003786Y-123742401D01*
X147003785Y-123742400D01*
X147003783Y-123742399D01*
X146860302Y-123673303D01*
X146843703Y-123665309D01*
X146797698Y-123627554D01*
X146774153Y-123572894D01*
X146778323Y-123513524D01*
X146809276Y-123462694D01*
X146886816Y-123385155D01*
X146975827Y-123237913D01*
X147027013Y-123073649D01*
X147033500Y-123002265D01*
X147033499Y-122487736D01*
X147030934Y-122459511D01*
X147027013Y-122416351D01*
X147017483Y-122385769D01*
X146975827Y-122252087D01*
X146886816Y-122104845D01*
X146886815Y-122104844D01*
X146886814Y-122104842D01*
X146800567Y-122018595D01*
X146769829Y-121968436D01*
X146765213Y-121909789D01*
X146787726Y-121855439D01*
X146832459Y-121817233D01*
X146889662Y-121803500D01*
X152830338Y-121803500D01*
X152887541Y-121817233D01*
X152932274Y-121855439D01*
X152954787Y-121909789D01*
X152950171Y-121968436D01*
X152919433Y-122018595D01*
X152833185Y-122104842D01*
X152744173Y-122252087D01*
X152692986Y-122416351D01*
X152686500Y-122487735D01*
X152686500Y-123002264D01*
X152692986Y-123073648D01*
X152744174Y-123237916D01*
X152789755Y-123313316D01*
X152807913Y-123376597D01*
X152791675Y-123440398D01*
X152745476Y-123487301D01*
X152681927Y-123504500D01*
X152354362Y-123504500D01*
X152293799Y-123511011D01*
X152156794Y-123562111D01*
X152039738Y-123649738D01*
X151952111Y-123766794D01*
X151913841Y-123869401D01*
X151901011Y-123903799D01*
X151894500Y-123964362D01*
X151894500Y-126661638D01*
X151901011Y-126722201D01*
X151926561Y-126790702D01*
X151952111Y-126859205D01*
X152039738Y-126976261D01*
X152156794Y-127063888D01*
X152156795Y-127063888D01*
X152156796Y-127063889D01*
X152293799Y-127114989D01*
X152354362Y-127121500D01*
X155051638Y-127121500D01*
X155112201Y-127114989D01*
X155249204Y-127063889D01*
X155366261Y-126976261D01*
X155453889Y-126859204D01*
X155504989Y-126722201D01*
X155511500Y-126661638D01*
X155511500Y-123964362D01*
X155504989Y-123903799D01*
X155453889Y-123766796D01*
X155435628Y-123742402D01*
X155366261Y-123649738D01*
X155249205Y-123562111D01*
X155129448Y-123517444D01*
X155112201Y-123511011D01*
X155051638Y-123504500D01*
X154658073Y-123504500D01*
X154594524Y-123487301D01*
X154548325Y-123440398D01*
X154532087Y-123376597D01*
X154550245Y-123313316D01*
X154595825Y-123237916D01*
X154595824Y-123237916D01*
X154595827Y-123237913D01*
X154647013Y-123073649D01*
X154653500Y-123002265D01*
X154653499Y-122487736D01*
X154650934Y-122459511D01*
X154647013Y-122416351D01*
X154637483Y-122385769D01*
X154595827Y-122252087D01*
X154506816Y-122104845D01*
X154506815Y-122104844D01*
X154506814Y-122104842D01*
X154420567Y-122018595D01*
X154389829Y-121968436D01*
X154385213Y-121909789D01*
X154407726Y-121855439D01*
X154452459Y-121817233D01*
X154509662Y-121803500D01*
X157910338Y-121803500D01*
X157967541Y-121817233D01*
X158012274Y-121855439D01*
X158034787Y-121909789D01*
X158030171Y-121968436D01*
X157999433Y-122018595D01*
X157913185Y-122104842D01*
X157824173Y-122252087D01*
X157772986Y-122416351D01*
X157766500Y-122487735D01*
X157766500Y-123002264D01*
X157772986Y-123073648D01*
X157808222Y-123186726D01*
X157824173Y-123237913D01*
X157824175Y-123237916D01*
X157913185Y-123385157D01*
X157990721Y-123462693D01*
X158021676Y-123513525D01*
X158025846Y-123572894D01*
X158002301Y-123627554D01*
X157956296Y-123665310D01*
X157796212Y-123742402D01*
X157572260Y-123895090D01*
X157373554Y-124079461D01*
X157204557Y-124291378D01*
X157069029Y-124526119D01*
X156970001Y-124778439D01*
X156909685Y-125042699D01*
X156889429Y-125312999D01*
X156909685Y-125583300D01*
X156970001Y-125847560D01*
X157069029Y-126099880D01*
X157204557Y-126334621D01*
X157373554Y-126546538D01*
X157373557Y-126546540D01*
X157373558Y-126546542D01*
X157572257Y-126730907D01*
X157796215Y-126883599D01*
X157903301Y-126935169D01*
X158040427Y-127001206D01*
X158098192Y-127019023D01*
X158299442Y-127081101D01*
X158567472Y-127121500D01*
X158838526Y-127121500D01*
X158838528Y-127121500D01*
X159106558Y-127081101D01*
X159365572Y-127001206D01*
X159609786Y-126883599D01*
X159833743Y-126730907D01*
X160032442Y-126546542D01*
X160201443Y-126334621D01*
X160336971Y-126099879D01*
X160435999Y-125847559D01*
X160496315Y-125583299D01*
X160516571Y-125313000D01*
X160496315Y-125042701D01*
X160435999Y-124778441D01*
X160336971Y-124526121D01*
X160201443Y-124291379D01*
X160133721Y-124206458D01*
X160032445Y-124079461D01*
X160032442Y-124079458D01*
X159833743Y-123895093D01*
X159609786Y-123742401D01*
X159609785Y-123742400D01*
X159609783Y-123742399D01*
X159529831Y-123703897D01*
X159477813Y-123657411D01*
X159458500Y-123590375D01*
X159458500Y-123565662D01*
X159468091Y-123517444D01*
X159495405Y-123476567D01*
X159586814Y-123385157D01*
X159586814Y-123385156D01*
X159586816Y-123385155D01*
X159675827Y-123237913D01*
X159727013Y-123073649D01*
X159733500Y-123002265D01*
X159733499Y-122487736D01*
X159730934Y-122459511D01*
X159727013Y-122416351D01*
X159717483Y-122385769D01*
X159675827Y-122252087D01*
X159586816Y-122104845D01*
X159586815Y-122104844D01*
X159586814Y-122104842D01*
X159500567Y-122018595D01*
X159469829Y-121968436D01*
X159465213Y-121909789D01*
X159487726Y-121855439D01*
X159532459Y-121817233D01*
X159589662Y-121803500D01*
X162863338Y-121803500D01*
X162920541Y-121817233D01*
X162965274Y-121855439D01*
X162987787Y-121909789D01*
X162983171Y-121968436D01*
X162952433Y-122018595D01*
X162866185Y-122104842D01*
X162777173Y-122252087D01*
X162725986Y-122416351D01*
X162719500Y-122487735D01*
X162719500Y-123002264D01*
X162725986Y-123073648D01*
X162761222Y-123186726D01*
X162777173Y-123237913D01*
X162777175Y-123237916D01*
X162866185Y-123385157D01*
X162957595Y-123476567D01*
X162984909Y-123517444D01*
X162994500Y-123565662D01*
X162994500Y-123567741D01*
X162975187Y-123634777D01*
X162923169Y-123681263D01*
X162796214Y-123742401D01*
X162572260Y-123895090D01*
X162373554Y-124079461D01*
X162204557Y-124291378D01*
X162069029Y-124526119D01*
X161970001Y-124778439D01*
X161909685Y-125042699D01*
X161889429Y-125312999D01*
X161909685Y-125583300D01*
X161970001Y-125847560D01*
X162069029Y-126099880D01*
X162204557Y-126334621D01*
X162373554Y-126546538D01*
X162373557Y-126546540D01*
X162373558Y-126546542D01*
X162572257Y-126730907D01*
X162796215Y-126883599D01*
X162903301Y-126935169D01*
X163040427Y-127001206D01*
X163098192Y-127019023D01*
X163299442Y-127081101D01*
X163567472Y-127121500D01*
X163838526Y-127121500D01*
X163838528Y-127121500D01*
X164106558Y-127081101D01*
X164365572Y-127001206D01*
X164609786Y-126883599D01*
X164833743Y-126730907D01*
X165032442Y-126546542D01*
X165201443Y-126334621D01*
X165336971Y-126099879D01*
X165435999Y-125847559D01*
X165496315Y-125583299D01*
X165516571Y-125313000D01*
X165496315Y-125042701D01*
X165435999Y-124778441D01*
X165336971Y-124526121D01*
X165201443Y-124291379D01*
X165133721Y-124206458D01*
X165032445Y-124079461D01*
X165032442Y-124079458D01*
X164833743Y-123895093D01*
X164609786Y-123742401D01*
X164609785Y-123742400D01*
X164609783Y-123742399D01*
X164482831Y-123681263D01*
X164430813Y-123634777D01*
X164411500Y-123567741D01*
X164411500Y-123565662D01*
X164421091Y-123517444D01*
X164448405Y-123476567D01*
X164539814Y-123385157D01*
X164539814Y-123385156D01*
X164539816Y-123385155D01*
X164628827Y-123237913D01*
X164680013Y-123073649D01*
X164686500Y-123002265D01*
X164686499Y-122487736D01*
X164683934Y-122459511D01*
X164680013Y-122416351D01*
X164670483Y-122385769D01*
X164628827Y-122252087D01*
X164539816Y-122104845D01*
X164539815Y-122104844D01*
X164539814Y-122104842D01*
X164453567Y-122018595D01*
X164422829Y-121968436D01*
X164418213Y-121909789D01*
X164440726Y-121855439D01*
X164485459Y-121817233D01*
X164542662Y-121803500D01*
X167943338Y-121803500D01*
X168000541Y-121817233D01*
X168045274Y-121855439D01*
X168067787Y-121909789D01*
X168063171Y-121968436D01*
X168032433Y-122018595D01*
X167946185Y-122104842D01*
X167857173Y-122252087D01*
X167805986Y-122416351D01*
X167799500Y-122487735D01*
X167799500Y-123002264D01*
X167805986Y-123073648D01*
X167841222Y-123186726D01*
X167857173Y-123237913D01*
X167857175Y-123237916D01*
X167946185Y-123385157D01*
X168012994Y-123451966D01*
X168043949Y-123502798D01*
X168048119Y-123562166D01*
X168024575Y-123616827D01*
X167978569Y-123654583D01*
X167796212Y-123742402D01*
X167572260Y-123895090D01*
X167373554Y-124079461D01*
X167204557Y-124291378D01*
X167069029Y-124526119D01*
X166970001Y-124778439D01*
X166909685Y-125042699D01*
X166889429Y-125312999D01*
X166909685Y-125583300D01*
X166970001Y-125847560D01*
X167069029Y-126099880D01*
X167204557Y-126334621D01*
X167373554Y-126546538D01*
X167373557Y-126546540D01*
X167373558Y-126546542D01*
X167572257Y-126730907D01*
X167796215Y-126883599D01*
X167903301Y-126935169D01*
X168040427Y-127001206D01*
X168098192Y-127019023D01*
X168299442Y-127081101D01*
X168567472Y-127121500D01*
X168838526Y-127121500D01*
X168838528Y-127121500D01*
X169106558Y-127081101D01*
X169365572Y-127001206D01*
X169609786Y-126883599D01*
X169833743Y-126730907D01*
X170032442Y-126546542D01*
X170201443Y-126334621D01*
X170336971Y-126099879D01*
X170435999Y-125847559D01*
X170496315Y-125583299D01*
X170516571Y-125313000D01*
X170496315Y-125042701D01*
X170435999Y-124778441D01*
X170336971Y-124526121D01*
X170201443Y-124291379D01*
X170133721Y-124206458D01*
X170032445Y-124079461D01*
X170032442Y-124079458D01*
X169833743Y-123895093D01*
X169609786Y-123742401D01*
X169562830Y-123719788D01*
X169510813Y-123673303D01*
X169491500Y-123606267D01*
X169491500Y-123565662D01*
X169501091Y-123517444D01*
X169528405Y-123476567D01*
X169619814Y-123385157D01*
X169619814Y-123385156D01*
X169619816Y-123385155D01*
X169708827Y-123237913D01*
X169760013Y-123073649D01*
X169766500Y-123002265D01*
X169766499Y-122487736D01*
X169763934Y-122459511D01*
X169760013Y-122416351D01*
X169750483Y-122385769D01*
X169708827Y-122252087D01*
X169619816Y-122104845D01*
X169619815Y-122104844D01*
X169619814Y-122104842D01*
X169533567Y-122018595D01*
X169502829Y-121968436D01*
X169498213Y-121909789D01*
X169520726Y-121855439D01*
X169565459Y-121817233D01*
X169622662Y-121803500D01*
X175436338Y-121803500D01*
X175493541Y-121817233D01*
X175538274Y-121855439D01*
X175560787Y-121909789D01*
X175556171Y-121968436D01*
X175525433Y-122018595D01*
X175439185Y-122104842D01*
X175350173Y-122252087D01*
X175298986Y-122416351D01*
X175292500Y-122487735D01*
X175292500Y-123002264D01*
X175298986Y-123073648D01*
X175350174Y-123237916D01*
X175395755Y-123313316D01*
X175413913Y-123376597D01*
X175397675Y-123440398D01*
X175351476Y-123487301D01*
X175287927Y-123504500D01*
X174960362Y-123504500D01*
X174899799Y-123511011D01*
X174762794Y-123562111D01*
X174645738Y-123649738D01*
X174558111Y-123766794D01*
X174519841Y-123869401D01*
X174507011Y-123903799D01*
X174500500Y-123964362D01*
X174500500Y-126661638D01*
X174507011Y-126722201D01*
X174532561Y-126790702D01*
X174558111Y-126859205D01*
X174645738Y-126976261D01*
X174762794Y-127063888D01*
X174762795Y-127063888D01*
X174762796Y-127063889D01*
X174899799Y-127114989D01*
X174960362Y-127121500D01*
X177657638Y-127121500D01*
X177718201Y-127114989D01*
X177855204Y-127063889D01*
X177972261Y-126976261D01*
X178059889Y-126859204D01*
X178110989Y-126722201D01*
X178117500Y-126661638D01*
X178117500Y-123964362D01*
X178110989Y-123903799D01*
X178059889Y-123766796D01*
X178041628Y-123742402D01*
X177972261Y-123649738D01*
X177855205Y-123562111D01*
X177735448Y-123517444D01*
X177718201Y-123511011D01*
X177657638Y-123504500D01*
X177264073Y-123504500D01*
X177200524Y-123487301D01*
X177154325Y-123440398D01*
X177138087Y-123376597D01*
X177156245Y-123313316D01*
X177201825Y-123237916D01*
X177201824Y-123237916D01*
X177201827Y-123237913D01*
X177253013Y-123073649D01*
X177259500Y-123002265D01*
X177259499Y-122487736D01*
X177256934Y-122459511D01*
X177253013Y-122416351D01*
X177243483Y-122385769D01*
X177201827Y-122252087D01*
X177112816Y-122104845D01*
X177112815Y-122104844D01*
X177112814Y-122104842D01*
X177026567Y-122018595D01*
X176995829Y-121968436D01*
X176991213Y-121909789D01*
X177013726Y-121855439D01*
X177058459Y-121817233D01*
X177115662Y-121803500D01*
X180389338Y-121803500D01*
X180446541Y-121817233D01*
X180491274Y-121855439D01*
X180513787Y-121909789D01*
X180509171Y-121968436D01*
X180478433Y-122018595D01*
X180392185Y-122104842D01*
X180303173Y-122252087D01*
X180251986Y-122416351D01*
X180245500Y-122487735D01*
X180245500Y-123002264D01*
X180251986Y-123073648D01*
X180287222Y-123186726D01*
X180303173Y-123237913D01*
X180303175Y-123237916D01*
X180392185Y-123385157D01*
X180483595Y-123476567D01*
X180510909Y-123517444D01*
X180520500Y-123565662D01*
X180520500Y-123606267D01*
X180501187Y-123673303D01*
X180449169Y-123719789D01*
X180402214Y-123742401D01*
X180178260Y-123895090D01*
X179979554Y-124079461D01*
X179810557Y-124291378D01*
X179675029Y-124526119D01*
X179576001Y-124778439D01*
X179515685Y-125042699D01*
X179495429Y-125312999D01*
X179515685Y-125583300D01*
X179576001Y-125847560D01*
X179675029Y-126099880D01*
X179810557Y-126334621D01*
X179979554Y-126546538D01*
X179979557Y-126546540D01*
X179979558Y-126546542D01*
X180178257Y-126730907D01*
X180402215Y-126883599D01*
X180509301Y-126935169D01*
X180646427Y-127001206D01*
X180704192Y-127019023D01*
X180905442Y-127081101D01*
X181173472Y-127121500D01*
X181444526Y-127121500D01*
X181444528Y-127121500D01*
X181712558Y-127081101D01*
X181971572Y-127001206D01*
X182215786Y-126883599D01*
X182439743Y-126730907D01*
X182638442Y-126546542D01*
X182807443Y-126334621D01*
X182942971Y-126099879D01*
X183041999Y-125847559D01*
X183102315Y-125583299D01*
X183122571Y-125313000D01*
X183102315Y-125042701D01*
X183041999Y-124778441D01*
X182942971Y-124526121D01*
X182807443Y-124291379D01*
X182739721Y-124206458D01*
X182638445Y-124079461D01*
X182638442Y-124079458D01*
X182439743Y-123895093D01*
X182215786Y-123742401D01*
X182215785Y-123742400D01*
X182215783Y-123742399D01*
X182033431Y-123654583D01*
X181987425Y-123616827D01*
X181963880Y-123562166D01*
X181968051Y-123502797D01*
X181999003Y-123451967D01*
X182065816Y-123385155D01*
X182154827Y-123237913D01*
X182206013Y-123073649D01*
X182212500Y-123002265D01*
X182212499Y-122487736D01*
X182209934Y-122459511D01*
X182206013Y-122416351D01*
X182196483Y-122385769D01*
X182154827Y-122252087D01*
X182065816Y-122104845D01*
X182065815Y-122104844D01*
X182065814Y-122104842D01*
X181979567Y-122018595D01*
X181948829Y-121968436D01*
X181944213Y-121909789D01*
X181966726Y-121855439D01*
X182011459Y-121817233D01*
X182068662Y-121803500D01*
X185469338Y-121803500D01*
X185526541Y-121817233D01*
X185571274Y-121855439D01*
X185593787Y-121909789D01*
X185589171Y-121968436D01*
X185558433Y-122018595D01*
X185472185Y-122104842D01*
X185383173Y-122252087D01*
X185331986Y-122416351D01*
X185325500Y-122487735D01*
X185325500Y-123002264D01*
X185331986Y-123073648D01*
X185367222Y-123186726D01*
X185383173Y-123237913D01*
X185383175Y-123237916D01*
X185472185Y-123385157D01*
X185563595Y-123476567D01*
X185590909Y-123517444D01*
X185600500Y-123565662D01*
X185600500Y-123567741D01*
X185581187Y-123634777D01*
X185529169Y-123681263D01*
X185402214Y-123742401D01*
X185178260Y-123895090D01*
X184979554Y-124079461D01*
X184810557Y-124291378D01*
X184675029Y-124526119D01*
X184576001Y-124778439D01*
X184515685Y-125042699D01*
X184495429Y-125312999D01*
X184515685Y-125583300D01*
X184576001Y-125847560D01*
X184675029Y-126099880D01*
X184810557Y-126334621D01*
X184979554Y-126546538D01*
X184979557Y-126546540D01*
X184979558Y-126546542D01*
X185178257Y-126730907D01*
X185402215Y-126883599D01*
X185509301Y-126935169D01*
X185646427Y-127001206D01*
X185704192Y-127019023D01*
X185905442Y-127081101D01*
X186173472Y-127121500D01*
X186444526Y-127121500D01*
X186444528Y-127121500D01*
X186712558Y-127081101D01*
X186971572Y-127001206D01*
X187215786Y-126883599D01*
X187439743Y-126730907D01*
X187638442Y-126546542D01*
X187807443Y-126334621D01*
X187942971Y-126099879D01*
X188041999Y-125847559D01*
X188102315Y-125583299D01*
X188122571Y-125313000D01*
X188102315Y-125042701D01*
X188041999Y-124778441D01*
X187942971Y-124526121D01*
X187807443Y-124291379D01*
X187739721Y-124206458D01*
X187638445Y-124079461D01*
X187638442Y-124079458D01*
X187439743Y-123895093D01*
X187215786Y-123742401D01*
X187215785Y-123742400D01*
X187215783Y-123742399D01*
X187088831Y-123681263D01*
X187036813Y-123634777D01*
X187017500Y-123567741D01*
X187017500Y-123565662D01*
X187027091Y-123517444D01*
X187054405Y-123476567D01*
X187145814Y-123385157D01*
X187145814Y-123385156D01*
X187145816Y-123385155D01*
X187234827Y-123237913D01*
X187286013Y-123073649D01*
X187292500Y-123002265D01*
X187292499Y-122487736D01*
X187289934Y-122459511D01*
X187286013Y-122416351D01*
X187276483Y-122385769D01*
X187234827Y-122252087D01*
X187145816Y-122104845D01*
X187145815Y-122104844D01*
X187145814Y-122104842D01*
X187059567Y-122018595D01*
X187028829Y-121968436D01*
X187024213Y-121909789D01*
X187046726Y-121855439D01*
X187091459Y-121817233D01*
X187148662Y-121803500D01*
X190422338Y-121803500D01*
X190479541Y-121817233D01*
X190524274Y-121855439D01*
X190546787Y-121909789D01*
X190542171Y-121968436D01*
X190511433Y-122018595D01*
X190425185Y-122104842D01*
X190336173Y-122252087D01*
X190284986Y-122416351D01*
X190278500Y-122487735D01*
X190278500Y-123002264D01*
X190284986Y-123073648D01*
X190320222Y-123186726D01*
X190336173Y-123237913D01*
X190336175Y-123237916D01*
X190425185Y-123385157D01*
X190516595Y-123476567D01*
X190543909Y-123517444D01*
X190553500Y-123565662D01*
X190553500Y-123590375D01*
X190534187Y-123657411D01*
X190482169Y-123703897D01*
X190402214Y-123742401D01*
X190178260Y-123895090D01*
X189979554Y-124079461D01*
X189810557Y-124291378D01*
X189675029Y-124526119D01*
X189576001Y-124778439D01*
X189515685Y-125042699D01*
X189495429Y-125312999D01*
X189515685Y-125583300D01*
X189576001Y-125847560D01*
X189675029Y-126099880D01*
X189810557Y-126334621D01*
X189979554Y-126546538D01*
X189979557Y-126546540D01*
X189979558Y-126546542D01*
X190178257Y-126730907D01*
X190402215Y-126883599D01*
X190509301Y-126935169D01*
X190646427Y-127001206D01*
X190704192Y-127019023D01*
X190905442Y-127081101D01*
X191173472Y-127121500D01*
X191444526Y-127121500D01*
X191444528Y-127121500D01*
X191712558Y-127081101D01*
X191971572Y-127001206D01*
X192215786Y-126883599D01*
X192439743Y-126730907D01*
X192638442Y-126546542D01*
X192807443Y-126334621D01*
X192942971Y-126099879D01*
X193041999Y-125847559D01*
X193102315Y-125583299D01*
X193122571Y-125313000D01*
X193102315Y-125042701D01*
X193041999Y-124778441D01*
X192942971Y-124526121D01*
X192807443Y-124291379D01*
X192739721Y-124206458D01*
X192638445Y-124079461D01*
X192638442Y-124079458D01*
X192439743Y-123895093D01*
X192215786Y-123742401D01*
X192215785Y-123742400D01*
X192215783Y-123742399D01*
X192072302Y-123673303D01*
X192055703Y-123665309D01*
X192009698Y-123627554D01*
X191986153Y-123572894D01*
X191990323Y-123513524D01*
X192021276Y-123462694D01*
X192098816Y-123385155D01*
X192187827Y-123237913D01*
X192239013Y-123073649D01*
X192245500Y-123002265D01*
X192245499Y-122487736D01*
X192242934Y-122459511D01*
X192239013Y-122416351D01*
X192229483Y-122385769D01*
X192187827Y-122252087D01*
X192098816Y-122104845D01*
X192098815Y-122104844D01*
X192098814Y-122104842D01*
X192012567Y-122018595D01*
X191981829Y-121968436D01*
X191977213Y-121909789D01*
X191999726Y-121855439D01*
X192044459Y-121817233D01*
X192101662Y-121803500D01*
X192504340Y-121803500D01*
X192552558Y-121813091D01*
X192593435Y-121840405D01*
X193818595Y-123065565D01*
X193845909Y-123106442D01*
X193855500Y-123154660D01*
X193855500Y-126466782D01*
X193855270Y-126474390D01*
X193851597Y-126535093D01*
X193862559Y-126594910D01*
X193863704Y-126602432D01*
X193871035Y-126662801D01*
X193874649Y-126672332D01*
X193880770Y-126694289D01*
X193882610Y-126704329D01*
X193907572Y-126759794D01*
X193910483Y-126766822D01*
X193932045Y-126823673D01*
X193937839Y-126832068D01*
X193949036Y-126851922D01*
X193953223Y-126861224D01*
X193990725Y-126909092D01*
X193995235Y-126915220D01*
X194008711Y-126934743D01*
X194029785Y-126965273D01*
X194061394Y-126993276D01*
X194075316Y-127005610D01*
X194080857Y-127010827D01*
X195696171Y-128626141D01*
X195701388Y-128631682D01*
X195741727Y-128677215D01*
X195772909Y-128698739D01*
X195791790Y-128711772D01*
X195797905Y-128716271D01*
X195845775Y-128753775D01*
X195855071Y-128757959D01*
X195874931Y-128769160D01*
X195883323Y-128774953D01*
X195883324Y-128774953D01*
X195883325Y-128774954D01*
X195940204Y-128796525D01*
X195947193Y-128799420D01*
X196002671Y-128824389D01*
X196012704Y-128826227D01*
X196034666Y-128832349D01*
X196044199Y-128835965D01*
X196104565Y-128843294D01*
X196112064Y-128844435D01*
X196171908Y-128855402D01*
X196232616Y-128851729D01*
X196240223Y-128851500D01*
X201650782Y-128851500D01*
X201658390Y-128851730D01*
X201719091Y-128855402D01*
X201719091Y-128855401D01*
X201719093Y-128855402D01*
X201778941Y-128844434D01*
X201786398Y-128843299D01*
X201846801Y-128835965D01*
X201856328Y-128832351D01*
X201878294Y-128826227D01*
X201888329Y-128824389D01*
X201943797Y-128799423D01*
X201950802Y-128796522D01*
X202007675Y-128774954D01*
X202016069Y-128769159D01*
X202035926Y-128757960D01*
X202045226Y-128753775D01*
X202093140Y-128716235D01*
X202099179Y-128711791D01*
X202149273Y-128677215D01*
X202189612Y-128631680D01*
X202194811Y-128626157D01*
X203429157Y-127391811D01*
X203434683Y-127386610D01*
X203439541Y-127382306D01*
X203480215Y-127346273D01*
X203514791Y-127296179D01*
X203519247Y-127290125D01*
X203556775Y-127242226D01*
X203560960Y-127232925D01*
X203572162Y-127213065D01*
X203577954Y-127204675D01*
X203599524Y-127147795D01*
X203602433Y-127140775D01*
X203627387Y-127085331D01*
X203627386Y-127085331D01*
X203627388Y-127085329D01*
X203629225Y-127075302D01*
X203635346Y-127053342D01*
X203638965Y-127043801D01*
X203638965Y-127043796D01*
X203644391Y-127029492D01*
X203646297Y-127030215D01*
X203660671Y-126993276D01*
X203675550Y-126980766D01*
X208624787Y-126980766D01*
X208654413Y-127250015D01*
X208660715Y-127274119D01*
X208722928Y-127512088D01*
X208828870Y-127761390D01*
X208969982Y-127992610D01*
X209143255Y-128200820D01*
X209143256Y-128200821D01*
X209143258Y-128200823D01*
X209344993Y-128381578D01*
X209344995Y-128381579D01*
X209344998Y-128381582D01*
X209570910Y-128531044D01*
X209694650Y-128589051D01*
X209816171Y-128646018D01*
X209816173Y-128646018D01*
X209816176Y-128646020D01*
X210075569Y-128724060D01*
X210075572Y-128724060D01*
X210075574Y-128724061D01*
X210343558Y-128763500D01*
X210343561Y-128763500D01*
X210546630Y-128763500D01*
X210546631Y-128763500D01*
X210749156Y-128748677D01*
X211013553Y-128689780D01*
X211266558Y-128593014D01*
X211502777Y-128460441D01*
X211717177Y-128294888D01*
X211905186Y-128099881D01*
X212062799Y-127879579D01*
X212186656Y-127638675D01*
X212274118Y-127382305D01*
X212323319Y-127115933D01*
X212333212Y-126845235D01*
X212327699Y-126795134D01*
X212315365Y-126683035D01*
X212303586Y-126575982D01*
X212235072Y-126313912D01*
X212129130Y-126064610D01*
X211988018Y-125833390D01*
X211814745Y-125625180D01*
X211814741Y-125625176D01*
X211613006Y-125444421D01*
X211613003Y-125444419D01*
X211613002Y-125444418D01*
X211387090Y-125294956D01*
X211387086Y-125294954D01*
X211141828Y-125179981D01*
X210882425Y-125101938D01*
X210614442Y-125062500D01*
X210614439Y-125062500D01*
X210411369Y-125062500D01*
X210377614Y-125064970D01*
X210208839Y-125077323D01*
X209944449Y-125136219D01*
X209691441Y-125232985D01*
X209455225Y-125365557D01*
X209240820Y-125531114D01*
X209052815Y-125726117D01*
X208895200Y-125946422D01*
X208771342Y-126187328D01*
X208683882Y-126443693D01*
X208634681Y-126710065D01*
X208624787Y-126980766D01*
X203675550Y-126980766D01*
X203708447Y-126953108D01*
X203852786Y-126883599D01*
X204076743Y-126730907D01*
X204275442Y-126546542D01*
X204444443Y-126334621D01*
X204579971Y-126099879D01*
X204678999Y-125847559D01*
X204739315Y-125583299D01*
X204759571Y-125313000D01*
X204739315Y-125042701D01*
X204678999Y-124778441D01*
X204579971Y-124526121D01*
X204444443Y-124291379D01*
X204376721Y-124206458D01*
X204275445Y-124079461D01*
X204275442Y-124079458D01*
X204076743Y-123895093D01*
X203852786Y-123742401D01*
X203852785Y-123742400D01*
X203852783Y-123742399D01*
X203608572Y-123624793D01*
X203405358Y-123562111D01*
X203349558Y-123544899D01*
X203081528Y-123504500D01*
X202810472Y-123504500D01*
X202542442Y-123544899D01*
X202542438Y-123544900D01*
X202542439Y-123544900D01*
X202283427Y-123624793D01*
X202039214Y-123742401D01*
X201815260Y-123895090D01*
X201616554Y-124079461D01*
X201447557Y-124291378D01*
X201312029Y-124526119D01*
X201213001Y-124778439D01*
X201152685Y-125042699D01*
X201132429Y-125312999D01*
X201152685Y-125583300D01*
X201213001Y-125847560D01*
X201312029Y-126099880D01*
X201447557Y-126334621D01*
X201616554Y-126546538D01*
X201616557Y-126546540D01*
X201616558Y-126546542D01*
X201815257Y-126730907D01*
X201850663Y-126755046D01*
X201888210Y-126795134D01*
X201905135Y-126847387D01*
X201898220Y-126901877D01*
X201868781Y-126948247D01*
X201419435Y-127397595D01*
X201378557Y-127424909D01*
X201330339Y-127434500D01*
X196560660Y-127434500D01*
X196512442Y-127424909D01*
X196471565Y-127397595D01*
X196390759Y-127316789D01*
X196357548Y-127257982D01*
X196359477Y-127190473D01*
X196395991Y-127133657D01*
X196456598Y-127103859D01*
X196523887Y-127109639D01*
X196536904Y-127114494D01*
X196597411Y-127121000D01*
X197692000Y-127121000D01*
X197692000Y-125567000D01*
X198200000Y-125567000D01*
X198200000Y-127121000D01*
X199294589Y-127121000D01*
X199355093Y-127114494D01*
X199491962Y-127063445D01*
X199608904Y-126975904D01*
X199696445Y-126858962D01*
X199747494Y-126722093D01*
X199754000Y-126661589D01*
X199754000Y-125567000D01*
X198200000Y-125567000D01*
X197692000Y-125567000D01*
X196138000Y-125567000D01*
X196138000Y-126661589D01*
X196144505Y-126722095D01*
X196149361Y-126735114D01*
X196155140Y-126802403D01*
X196125341Y-126863009D01*
X196068525Y-126899522D01*
X196001017Y-126901450D01*
X195942210Y-126868240D01*
X195309405Y-126235435D01*
X195282091Y-126194558D01*
X195272500Y-126146340D01*
X195272500Y-125059000D01*
X196138000Y-125059000D01*
X197692000Y-125059000D01*
X197692000Y-123505000D01*
X198200000Y-123505000D01*
X198200000Y-125059000D01*
X199754000Y-125059000D01*
X199754000Y-123964411D01*
X199747494Y-123903906D01*
X199696445Y-123767037D01*
X199608904Y-123650095D01*
X199491962Y-123562554D01*
X199355093Y-123511505D01*
X199294589Y-123505000D01*
X198200000Y-123505000D01*
X197692000Y-123505000D01*
X196597411Y-123505000D01*
X196536906Y-123511505D01*
X196400037Y-123562554D01*
X196283095Y-123650095D01*
X196195554Y-123767037D01*
X196144505Y-123903906D01*
X196138000Y-123964411D01*
X196138000Y-125059000D01*
X195272500Y-125059000D01*
X195272500Y-122834218D01*
X195272730Y-122826610D01*
X195276402Y-122765908D01*
X195276402Y-122765907D01*
X195265433Y-122706052D01*
X195264295Y-122698572D01*
X195256965Y-122638199D01*
X195253349Y-122628666D01*
X195247227Y-122606702D01*
X195245389Y-122596671D01*
X195220418Y-122541189D01*
X195217524Y-122534203D01*
X195195954Y-122477325D01*
X195195952Y-122477323D01*
X195195952Y-122477321D01*
X195190161Y-122468931D01*
X195178957Y-122449067D01*
X195174775Y-122439774D01*
X195137260Y-122391891D01*
X195132766Y-122385783D01*
X195098215Y-122335727D01*
X195052682Y-122295388D01*
X195047141Y-122290171D01*
X193368827Y-120611857D01*
X193363610Y-120606316D01*
X193323273Y-120560785D01*
X193292743Y-120539711D01*
X193273220Y-120526235D01*
X193267092Y-120521725D01*
X193219224Y-120484223D01*
X193209922Y-120480036D01*
X193190068Y-120468839D01*
X193188781Y-120467951D01*
X193181675Y-120463046D01*
X193181673Y-120463045D01*
X193124822Y-120441483D01*
X193117794Y-120438572D01*
X193062329Y-120413610D01*
X193052289Y-120411770D01*
X193030332Y-120405649D01*
X193020801Y-120402035D01*
X192960432Y-120394704D01*
X192952914Y-120393559D01*
X192945153Y-120392137D01*
X192893093Y-120382597D01*
X192832390Y-120386270D01*
X192824782Y-120386500D01*
X192082662Y-120386500D01*
X192034444Y-120376909D01*
X191993567Y-120349595D01*
X191977157Y-120333185D01*
X191939322Y-120310313D01*
X191829913Y-120244173D01*
X191778725Y-120228222D01*
X191665648Y-120192986D01*
X191600750Y-120187089D01*
X191594264Y-120186500D01*
X190929735Y-120186500D01*
X190858352Y-120192986D01*
X190694087Y-120244173D01*
X190546842Y-120333185D01*
X190530433Y-120349595D01*
X190489556Y-120376909D01*
X190441338Y-120386500D01*
X187129662Y-120386500D01*
X187081444Y-120376909D01*
X187040567Y-120349595D01*
X187024157Y-120333185D01*
X186986322Y-120310313D01*
X186876913Y-120244173D01*
X186825725Y-120228222D01*
X186712648Y-120192986D01*
X186647750Y-120187089D01*
X186641264Y-120186500D01*
X185976735Y-120186500D01*
X185905352Y-120192986D01*
X185741087Y-120244173D01*
X185593842Y-120333185D01*
X185577433Y-120349595D01*
X185536556Y-120376909D01*
X185488338Y-120386500D01*
X182049662Y-120386500D01*
X182001444Y-120376909D01*
X181960567Y-120349595D01*
X181944157Y-120333185D01*
X181906322Y-120310313D01*
X181796913Y-120244173D01*
X181745725Y-120228222D01*
X181632648Y-120192986D01*
X181567750Y-120187089D01*
X181561264Y-120186500D01*
X180896735Y-120186500D01*
X180825352Y-120192986D01*
X180661087Y-120244173D01*
X180513842Y-120333185D01*
X180497433Y-120349595D01*
X180456556Y-120376909D01*
X180408338Y-120386500D01*
X177096662Y-120386500D01*
X177048444Y-120376909D01*
X177007567Y-120349595D01*
X176991157Y-120333185D01*
X176953322Y-120310313D01*
X176843913Y-120244173D01*
X176792725Y-120228222D01*
X176679648Y-120192986D01*
X176614750Y-120187089D01*
X176608264Y-120186500D01*
X175943735Y-120186500D01*
X175872352Y-120192986D01*
X175708087Y-120244173D01*
X175560842Y-120333185D01*
X175544433Y-120349595D01*
X175503556Y-120376909D01*
X175455338Y-120386500D01*
X169603662Y-120386500D01*
X169555444Y-120376909D01*
X169514567Y-120349595D01*
X169498157Y-120333185D01*
X169460322Y-120310313D01*
X169350913Y-120244173D01*
X169299725Y-120228222D01*
X169186648Y-120192986D01*
X169121750Y-120187089D01*
X169115264Y-120186500D01*
X168450735Y-120186500D01*
X168379352Y-120192986D01*
X168215087Y-120244173D01*
X168067842Y-120333185D01*
X168051433Y-120349595D01*
X168010556Y-120376909D01*
X167962338Y-120386500D01*
X164523662Y-120386500D01*
X164475444Y-120376909D01*
X164434567Y-120349595D01*
X164418157Y-120333185D01*
X164380322Y-120310313D01*
X164270913Y-120244173D01*
X164219725Y-120228222D01*
X164106648Y-120192986D01*
X164041750Y-120187089D01*
X164035264Y-120186500D01*
X163370735Y-120186500D01*
X163299352Y-120192986D01*
X163135087Y-120244173D01*
X162987842Y-120333185D01*
X162971433Y-120349595D01*
X162930556Y-120376909D01*
X162882338Y-120386500D01*
X159570662Y-120386500D01*
X159522444Y-120376909D01*
X159481567Y-120349595D01*
X159465157Y-120333185D01*
X159427322Y-120310313D01*
X159317913Y-120244173D01*
X159266725Y-120228222D01*
X159153648Y-120192986D01*
X159088750Y-120187089D01*
X159082264Y-120186500D01*
X158417735Y-120186500D01*
X158346352Y-120192986D01*
X158182087Y-120244173D01*
X158034842Y-120333185D01*
X158018433Y-120349595D01*
X157977556Y-120376909D01*
X157929338Y-120386500D01*
X154490662Y-120386500D01*
X154442444Y-120376909D01*
X154401567Y-120349595D01*
X154385157Y-120333185D01*
X154347322Y-120310313D01*
X154237913Y-120244173D01*
X154186725Y-120228222D01*
X154073648Y-120192986D01*
X154008750Y-120187089D01*
X154002264Y-120186500D01*
X153337735Y-120186500D01*
X153266352Y-120192986D01*
X153102087Y-120244173D01*
X152954842Y-120333185D01*
X152938433Y-120349595D01*
X152897556Y-120376909D01*
X152849338Y-120386500D01*
X146870662Y-120386500D01*
X146822444Y-120376909D01*
X146781567Y-120349595D01*
X146765157Y-120333185D01*
X146727322Y-120310313D01*
X146617913Y-120244173D01*
X146566725Y-120228222D01*
X146453648Y-120192986D01*
X146388750Y-120187089D01*
X146382264Y-120186500D01*
X145717735Y-120186500D01*
X145646352Y-120192986D01*
X145482087Y-120244173D01*
X145334842Y-120333185D01*
X145318433Y-120349595D01*
X145277556Y-120376909D01*
X145229338Y-120386500D01*
X141917662Y-120386500D01*
X141869444Y-120376909D01*
X141828567Y-120349595D01*
X141812157Y-120333185D01*
X141774322Y-120310313D01*
X141664913Y-120244173D01*
X141613725Y-120228222D01*
X141500648Y-120192986D01*
X141435750Y-120187089D01*
X141429264Y-120186500D01*
X140764735Y-120186500D01*
X140693352Y-120192986D01*
X140529087Y-120244173D01*
X140381842Y-120333185D01*
X140365433Y-120349595D01*
X140324556Y-120376909D01*
X140276338Y-120386500D01*
X136964662Y-120386500D01*
X136916444Y-120376909D01*
X136875567Y-120349595D01*
X136859157Y-120333185D01*
X136821322Y-120310313D01*
X136711913Y-120244173D01*
X136660725Y-120228222D01*
X136547648Y-120192986D01*
X136482750Y-120187089D01*
X136476264Y-120186500D01*
X135811735Y-120186500D01*
X135740352Y-120192986D01*
X135576087Y-120244173D01*
X135428842Y-120333185D01*
X135412433Y-120349595D01*
X135371556Y-120376909D01*
X135323338Y-120386500D01*
X131884662Y-120386500D01*
X131836444Y-120376909D01*
X131795567Y-120349595D01*
X131779157Y-120333185D01*
X131741322Y-120310313D01*
X131631913Y-120244173D01*
X131580725Y-120228222D01*
X131467648Y-120192986D01*
X131402750Y-120187089D01*
X131396264Y-120186500D01*
X130731735Y-120186500D01*
X130660352Y-120192986D01*
X130496087Y-120244173D01*
X130348842Y-120333185D01*
X130332433Y-120349595D01*
X130291556Y-120376909D01*
X130243338Y-120386500D01*
X124264662Y-120386500D01*
X124216444Y-120376909D01*
X124175567Y-120349595D01*
X124159157Y-120333185D01*
X124121322Y-120310313D01*
X124011913Y-120244173D01*
X123960725Y-120228222D01*
X123847648Y-120192986D01*
X123782750Y-120187089D01*
X123776264Y-120186500D01*
X123111735Y-120186500D01*
X123040352Y-120192986D01*
X122876087Y-120244173D01*
X122728842Y-120333185D01*
X122712433Y-120349595D01*
X122671556Y-120376909D01*
X122623338Y-120386500D01*
X119184662Y-120386500D01*
X119136444Y-120376909D01*
X119095567Y-120349595D01*
X119079157Y-120333185D01*
X119041322Y-120310313D01*
X118931913Y-120244173D01*
X118880725Y-120228222D01*
X118767648Y-120192986D01*
X118702750Y-120187089D01*
X118696264Y-120186500D01*
X118031735Y-120186500D01*
X117960352Y-120192986D01*
X117796087Y-120244173D01*
X117648842Y-120333185D01*
X117632433Y-120349595D01*
X117591556Y-120376909D01*
X117543338Y-120386500D01*
X114104662Y-120386500D01*
X114056444Y-120376909D01*
X114015567Y-120349595D01*
X113999157Y-120333185D01*
X113961322Y-120310313D01*
X113851913Y-120244173D01*
X113800725Y-120228222D01*
X113687648Y-120192986D01*
X113622750Y-120187089D01*
X113616264Y-120186500D01*
X112951735Y-120186500D01*
X112880352Y-120192986D01*
X112716087Y-120244173D01*
X112568842Y-120333185D01*
X112552433Y-120349595D01*
X112511556Y-120376909D01*
X112463338Y-120386500D01*
X109151662Y-120386500D01*
X109103444Y-120376909D01*
X109062567Y-120349595D01*
X109046157Y-120333185D01*
X109008322Y-120310313D01*
X108898913Y-120244173D01*
X108847725Y-120228222D01*
X108734648Y-120192986D01*
X108669750Y-120187089D01*
X108663264Y-120186500D01*
X107998735Y-120186500D01*
X107927352Y-120192986D01*
X107763087Y-120244173D01*
X107615842Y-120333185D01*
X107494185Y-120454842D01*
X107405173Y-120602087D01*
X107353986Y-120766351D01*
X107347500Y-120837735D01*
X107347500Y-121352264D01*
X107353986Y-121423648D01*
X107389222Y-121536725D01*
X107405173Y-121587913D01*
X107471313Y-121697322D01*
X107494185Y-121735157D01*
X107589933Y-121830905D01*
X107622545Y-121887389D01*
X107622545Y-121952611D01*
X107589933Y-122009095D01*
X107494185Y-122104842D01*
X107405173Y-122252087D01*
X107353986Y-122416351D01*
X107347500Y-122487735D01*
X107347500Y-123002264D01*
X107353986Y-123073648D01*
X107389222Y-123186726D01*
X107405173Y-123237913D01*
X107405175Y-123237916D01*
X107494185Y-123385157D01*
X107525433Y-123416405D01*
X107556171Y-123466564D01*
X107560787Y-123525211D01*
X107538274Y-123579561D01*
X107493541Y-123617767D01*
X107436338Y-123631500D01*
X107015362Y-123631500D01*
X106954799Y-123638011D01*
X106817794Y-123689111D01*
X106700738Y-123776738D01*
X106613111Y-123893794D01*
X106565259Y-124022090D01*
X106562011Y-124030799D01*
X106555500Y-124091362D01*
X106555500Y-126788638D01*
X96247984Y-126788638D01*
X96236365Y-126683035D01*
X96224586Y-126575982D01*
X96156072Y-126313912D01*
X96050130Y-126064610D01*
X95909018Y-125833390D01*
X95735745Y-125625180D01*
X95735741Y-125625176D01*
X95534006Y-125444421D01*
X95534003Y-125444419D01*
X95534002Y-125444418D01*
X95308090Y-125294956D01*
X95308086Y-125294954D01*
X95062828Y-125179981D01*
X94803425Y-125101938D01*
X94535442Y-125062500D01*
X94535439Y-125062500D01*
X94332369Y-125062500D01*
X94298614Y-125064970D01*
X94129839Y-125077323D01*
X93865449Y-125136219D01*
X93612441Y-125232985D01*
X93376225Y-125365557D01*
X93161820Y-125531114D01*
X92973815Y-125726117D01*
X92816200Y-125946422D01*
X92692342Y-126187328D01*
X92604882Y-126443693D01*
X92555681Y-126710065D01*
X92545787Y-126980766D01*
X90847828Y-126980766D01*
X90844651Y-126916093D01*
X90844500Y-126909912D01*
X90844500Y-115648638D01*
X103416500Y-115648638D01*
X103423011Y-115709200D01*
X103474111Y-115846205D01*
X103561738Y-115963261D01*
X103678794Y-116050888D01*
X103678795Y-116050888D01*
X103678796Y-116050889D01*
X103815799Y-116101989D01*
X103876362Y-116108500D01*
X105573638Y-116108500D01*
X105634201Y-116101989D01*
X105771204Y-116050889D01*
X105888261Y-115963261D01*
X105975889Y-115846204D01*
X106026989Y-115709201D01*
X106027999Y-115699800D01*
X106048706Y-115642978D01*
X106093506Y-115602348D01*
X106152077Y-115587275D01*
X106210924Y-115601230D01*
X106256490Y-115640998D01*
X106258804Y-115644303D01*
X106420696Y-115806195D01*
X106608249Y-115937522D01*
X106815756Y-116034284D01*
X106875014Y-116050162D01*
X107036913Y-116093543D01*
X107265000Y-116113498D01*
X107493087Y-116093543D01*
X107714243Y-116034284D01*
X107921749Y-115937523D01*
X108109300Y-115806198D01*
X108266860Y-115648638D01*
X109151500Y-115648638D01*
X109158011Y-115709200D01*
X109209111Y-115846205D01*
X109296738Y-115963261D01*
X109413794Y-116050888D01*
X109413795Y-116050888D01*
X109413796Y-116050889D01*
X109550799Y-116101989D01*
X109611362Y-116108500D01*
X111308638Y-116108500D01*
X111369201Y-116101989D01*
X111506204Y-116050889D01*
X111623261Y-115963261D01*
X111710889Y-115846204D01*
X111761989Y-115709201D01*
X111762999Y-115699800D01*
X111783706Y-115642978D01*
X111828506Y-115602348D01*
X111887077Y-115587275D01*
X111945924Y-115601230D01*
X111991490Y-115640998D01*
X111993804Y-115644303D01*
X112155696Y-115806195D01*
X112343249Y-115937522D01*
X112550756Y-116034284D01*
X112610014Y-116050162D01*
X112771913Y-116093543D01*
X113000000Y-116113498D01*
X113228087Y-116093543D01*
X113449243Y-116034284D01*
X113656749Y-115937523D01*
X113844300Y-115806198D01*
X114001860Y-115648638D01*
X114916500Y-115648638D01*
X114923011Y-115709200D01*
X114974111Y-115846205D01*
X115061738Y-115963261D01*
X115178794Y-116050888D01*
X115178795Y-116050888D01*
X115178796Y-116050889D01*
X115315799Y-116101989D01*
X115376362Y-116108500D01*
X117073638Y-116108500D01*
X117134201Y-116101989D01*
X117271204Y-116050889D01*
X117388261Y-115963261D01*
X117475889Y-115846204D01*
X117526989Y-115709201D01*
X117527999Y-115699800D01*
X117548706Y-115642978D01*
X117593506Y-115602348D01*
X117652077Y-115587275D01*
X117710924Y-115601230D01*
X117756490Y-115640998D01*
X117758804Y-115644303D01*
X117920696Y-115806195D01*
X118108249Y-115937522D01*
X118315756Y-116034284D01*
X118375014Y-116050162D01*
X118536913Y-116093543D01*
X118765000Y-116113498D01*
X118993087Y-116093543D01*
X119214243Y-116034284D01*
X119421749Y-115937523D01*
X119609300Y-115806198D01*
X119766860Y-115648638D01*
X120691500Y-115648638D01*
X120698011Y-115709200D01*
X120749111Y-115846205D01*
X120836738Y-115963261D01*
X120953794Y-116050888D01*
X120953795Y-116050888D01*
X120953796Y-116050889D01*
X121090799Y-116101989D01*
X121151362Y-116108500D01*
X122848638Y-116108500D01*
X122909201Y-116101989D01*
X123046204Y-116050889D01*
X123163261Y-115963261D01*
X123250889Y-115846204D01*
X123301989Y-115709201D01*
X123302999Y-115699800D01*
X123323706Y-115642978D01*
X123368506Y-115602348D01*
X123427077Y-115587275D01*
X123485924Y-115601230D01*
X123531490Y-115640998D01*
X123533804Y-115644303D01*
X123695696Y-115806195D01*
X123883249Y-115937522D01*
X124090756Y-116034284D01*
X124150014Y-116050162D01*
X124311913Y-116093543D01*
X124540000Y-116113498D01*
X124768087Y-116093543D01*
X124989243Y-116034284D01*
X125196749Y-115937523D01*
X125384300Y-115806198D01*
X125541860Y-115648638D01*
X126416500Y-115648638D01*
X126423011Y-115709200D01*
X126474111Y-115846205D01*
X126561738Y-115963261D01*
X126678794Y-116050888D01*
X126678795Y-116050888D01*
X126678796Y-116050889D01*
X126815799Y-116101989D01*
X126876362Y-116108500D01*
X128573638Y-116108500D01*
X128634201Y-116101989D01*
X128771204Y-116050889D01*
X128888261Y-115963261D01*
X128975889Y-115846204D01*
X129026989Y-115709201D01*
X129027999Y-115699800D01*
X129048706Y-115642978D01*
X129093506Y-115602348D01*
X129152077Y-115587275D01*
X129210924Y-115601230D01*
X129256490Y-115640998D01*
X129258804Y-115644303D01*
X129420696Y-115806195D01*
X129608249Y-115937522D01*
X129815756Y-116034284D01*
X129875014Y-116050162D01*
X130036913Y-116093543D01*
X130265000Y-116113498D01*
X130493087Y-116093543D01*
X130714243Y-116034284D01*
X130921749Y-115937523D01*
X131109300Y-115806198D01*
X131266860Y-115648638D01*
X132191500Y-115648638D01*
X132198011Y-115709200D01*
X132249111Y-115846205D01*
X132336738Y-115963261D01*
X132453794Y-116050888D01*
X132453795Y-116050888D01*
X132453796Y-116050889D01*
X132590799Y-116101989D01*
X132651362Y-116108500D01*
X134348638Y-116108500D01*
X134409201Y-116101989D01*
X134546204Y-116050889D01*
X134663261Y-115963261D01*
X134750889Y-115846204D01*
X134801989Y-115709201D01*
X134802999Y-115699800D01*
X134823706Y-115642978D01*
X134868506Y-115602348D01*
X134927077Y-115587275D01*
X134985924Y-115601230D01*
X135031490Y-115640998D01*
X135033804Y-115644303D01*
X135195696Y-115806195D01*
X135383249Y-115937522D01*
X135590756Y-116034284D01*
X135650014Y-116050162D01*
X135811913Y-116093543D01*
X136040000Y-116113498D01*
X136268087Y-116093543D01*
X136489243Y-116034284D01*
X136696749Y-115937523D01*
X136884300Y-115806198D01*
X137041860Y-115648638D01*
X137916500Y-115648638D01*
X137923011Y-115709200D01*
X137974111Y-115846205D01*
X138061738Y-115963261D01*
X138178794Y-116050888D01*
X138178795Y-116050888D01*
X138178796Y-116050889D01*
X138315799Y-116101989D01*
X138376362Y-116108500D01*
X140073638Y-116108500D01*
X140134201Y-116101989D01*
X140271204Y-116050889D01*
X140388261Y-115963261D01*
X140475889Y-115846204D01*
X140526989Y-115709201D01*
X140527999Y-115699800D01*
X140548706Y-115642978D01*
X140593506Y-115602348D01*
X140652077Y-115587275D01*
X140710924Y-115601230D01*
X140756490Y-115640998D01*
X140758804Y-115644303D01*
X140920696Y-115806195D01*
X141108249Y-115937522D01*
X141315756Y-116034284D01*
X141375014Y-116050162D01*
X141536913Y-116093543D01*
X141765000Y-116113498D01*
X141993087Y-116093543D01*
X142214243Y-116034284D01*
X142421749Y-115937523D01*
X142609300Y-115806198D01*
X142766860Y-115648638D01*
X143691500Y-115648638D01*
X143698011Y-115709200D01*
X143749111Y-115846205D01*
X143836738Y-115963261D01*
X143953794Y-116050888D01*
X143953795Y-116050888D01*
X143953796Y-116050889D01*
X144090799Y-116101989D01*
X144151362Y-116108500D01*
X145848638Y-116108500D01*
X145909201Y-116101989D01*
X146046204Y-116050889D01*
X146163261Y-115963261D01*
X146250889Y-115846204D01*
X146301989Y-115709201D01*
X146302999Y-115699800D01*
X146323706Y-115642978D01*
X146368506Y-115602348D01*
X146427077Y-115587275D01*
X146485924Y-115601230D01*
X146531490Y-115640998D01*
X146533804Y-115644303D01*
X146695696Y-115806195D01*
X146883249Y-115937522D01*
X147090756Y-116034284D01*
X147150014Y-116050162D01*
X147311913Y-116093543D01*
X147540000Y-116113498D01*
X147768087Y-116093543D01*
X147989243Y-116034284D01*
X148196749Y-115937523D01*
X148384300Y-115806198D01*
X148541860Y-115648638D01*
X149416500Y-115648638D01*
X149423011Y-115709200D01*
X149474111Y-115846205D01*
X149561738Y-115963261D01*
X149678794Y-116050888D01*
X149678795Y-116050888D01*
X149678796Y-116050889D01*
X149815799Y-116101989D01*
X149876362Y-116108500D01*
X151573638Y-116108500D01*
X151634201Y-116101989D01*
X151771204Y-116050889D01*
X151888261Y-115963261D01*
X151975889Y-115846204D01*
X152026989Y-115709201D01*
X152027999Y-115699800D01*
X152048706Y-115642978D01*
X152093506Y-115602348D01*
X152152077Y-115587275D01*
X152210924Y-115601230D01*
X152256490Y-115640998D01*
X152258804Y-115644303D01*
X152420696Y-115806195D01*
X152608249Y-115937522D01*
X152815756Y-116034284D01*
X152875014Y-116050162D01*
X153036913Y-116093543D01*
X153265000Y-116113498D01*
X153493087Y-116093543D01*
X153714243Y-116034284D01*
X153921749Y-115937523D01*
X154109300Y-115806198D01*
X154266860Y-115648638D01*
X155191500Y-115648638D01*
X155198011Y-115709200D01*
X155249111Y-115846205D01*
X155336738Y-115963261D01*
X155453794Y-116050888D01*
X155453795Y-116050888D01*
X155453796Y-116050889D01*
X155590799Y-116101989D01*
X155651362Y-116108500D01*
X157348638Y-116108500D01*
X157409201Y-116101989D01*
X157546204Y-116050889D01*
X157663261Y-115963261D01*
X157750889Y-115846204D01*
X157801989Y-115709201D01*
X157802999Y-115699800D01*
X157823706Y-115642978D01*
X157868506Y-115602348D01*
X157927077Y-115587275D01*
X157985924Y-115601230D01*
X158031490Y-115640998D01*
X158033804Y-115644303D01*
X158195696Y-115806195D01*
X158383249Y-115937522D01*
X158590756Y-116034284D01*
X158650014Y-116050162D01*
X158811913Y-116093543D01*
X159040000Y-116113498D01*
X159268087Y-116093543D01*
X159489243Y-116034284D01*
X159696749Y-115937523D01*
X159884300Y-115806198D01*
X160041860Y-115648638D01*
X160916500Y-115648638D01*
X160923011Y-115709200D01*
X160974111Y-115846205D01*
X161061738Y-115963261D01*
X161178794Y-116050888D01*
X161178795Y-116050888D01*
X161178796Y-116050889D01*
X161315799Y-116101989D01*
X161376362Y-116108500D01*
X163073638Y-116108500D01*
X163134201Y-116101989D01*
X163271204Y-116050889D01*
X163388261Y-115963261D01*
X163475889Y-115846204D01*
X163526989Y-115709201D01*
X163527999Y-115699800D01*
X163548706Y-115642978D01*
X163593506Y-115602348D01*
X163652077Y-115587275D01*
X163710924Y-115601230D01*
X163756490Y-115640998D01*
X163758804Y-115644303D01*
X163920696Y-115806195D01*
X164108249Y-115937522D01*
X164315756Y-116034284D01*
X164375014Y-116050162D01*
X164536913Y-116093543D01*
X164765000Y-116113498D01*
X164993087Y-116093543D01*
X165214243Y-116034284D01*
X165421749Y-115937523D01*
X165609300Y-115806198D01*
X165766860Y-115648638D01*
X166691500Y-115648638D01*
X166698011Y-115709200D01*
X166749111Y-115846205D01*
X166836738Y-115963261D01*
X166953794Y-116050888D01*
X166953795Y-116050888D01*
X166953796Y-116050889D01*
X167090799Y-116101989D01*
X167151362Y-116108500D01*
X168848638Y-116108500D01*
X168909201Y-116101989D01*
X169046204Y-116050889D01*
X169163261Y-115963261D01*
X169250889Y-115846204D01*
X169301989Y-115709201D01*
X169302999Y-115699800D01*
X169323706Y-115642978D01*
X169368506Y-115602348D01*
X169427077Y-115587275D01*
X169485924Y-115601230D01*
X169531490Y-115640998D01*
X169533804Y-115644303D01*
X169695696Y-115806195D01*
X169883249Y-115937522D01*
X170090756Y-116034284D01*
X170150014Y-116050162D01*
X170311913Y-116093543D01*
X170540000Y-116113498D01*
X170768087Y-116093543D01*
X170989243Y-116034284D01*
X171196749Y-115937523D01*
X171384300Y-115806198D01*
X171541860Y-115648638D01*
X172416500Y-115648638D01*
X172423011Y-115709200D01*
X172474111Y-115846205D01*
X172561738Y-115963261D01*
X172678794Y-116050888D01*
X172678795Y-116050888D01*
X172678796Y-116050889D01*
X172815799Y-116101989D01*
X172876362Y-116108500D01*
X174573638Y-116108500D01*
X174634201Y-116101989D01*
X174771204Y-116050889D01*
X174888261Y-115963261D01*
X174975889Y-115846204D01*
X175026989Y-115709201D01*
X175027999Y-115699800D01*
X175048706Y-115642978D01*
X175093506Y-115602348D01*
X175152077Y-115587275D01*
X175210924Y-115601230D01*
X175256490Y-115640998D01*
X175258804Y-115644303D01*
X175420696Y-115806195D01*
X175608249Y-115937522D01*
X175815756Y-116034284D01*
X175875014Y-116050162D01*
X176036913Y-116093543D01*
X176265000Y-116113498D01*
X176493087Y-116093543D01*
X176714243Y-116034284D01*
X176921749Y-115937523D01*
X177109300Y-115806198D01*
X177266860Y-115648638D01*
X178191500Y-115648638D01*
X178198011Y-115709200D01*
X178249111Y-115846205D01*
X178336738Y-115963261D01*
X178453794Y-116050888D01*
X178453795Y-116050888D01*
X178453796Y-116050889D01*
X178590799Y-116101989D01*
X178651362Y-116108500D01*
X180348638Y-116108500D01*
X180409201Y-116101989D01*
X180546204Y-116050889D01*
X180663261Y-115963261D01*
X180750889Y-115846204D01*
X180801989Y-115709201D01*
X180802999Y-115699800D01*
X180823706Y-115642978D01*
X180868506Y-115602348D01*
X180927077Y-115587275D01*
X180985924Y-115601230D01*
X181031490Y-115640998D01*
X181033804Y-115644303D01*
X181195696Y-115806195D01*
X181383249Y-115937522D01*
X181590756Y-116034284D01*
X181650014Y-116050162D01*
X181811913Y-116093543D01*
X182040000Y-116113498D01*
X182268087Y-116093543D01*
X182489243Y-116034284D01*
X182696749Y-115937523D01*
X182884300Y-115806198D01*
X183041860Y-115648638D01*
X183916500Y-115648638D01*
X183923011Y-115709200D01*
X183974111Y-115846205D01*
X184061738Y-115963261D01*
X184178794Y-116050888D01*
X184178795Y-116050888D01*
X184178796Y-116050889D01*
X184315799Y-116101989D01*
X184376362Y-116108500D01*
X186073638Y-116108500D01*
X186134201Y-116101989D01*
X186271204Y-116050889D01*
X186388261Y-115963261D01*
X186475889Y-115846204D01*
X186526989Y-115709201D01*
X186527999Y-115699800D01*
X186548706Y-115642978D01*
X186593506Y-115602348D01*
X186652077Y-115587275D01*
X186710924Y-115601230D01*
X186756490Y-115640998D01*
X186758804Y-115644303D01*
X186920696Y-115806195D01*
X187108249Y-115937522D01*
X187315756Y-116034284D01*
X187375014Y-116050162D01*
X187536913Y-116093543D01*
X187765000Y-116113498D01*
X187993087Y-116093543D01*
X188214243Y-116034284D01*
X188421749Y-115937523D01*
X188609300Y-115806198D01*
X188766860Y-115648638D01*
X189691500Y-115648638D01*
X189698011Y-115709200D01*
X189749111Y-115846205D01*
X189836738Y-115963261D01*
X189953794Y-116050888D01*
X189953795Y-116050888D01*
X189953796Y-116050889D01*
X190090799Y-116101989D01*
X190151362Y-116108500D01*
X191848638Y-116108500D01*
X191909201Y-116101989D01*
X192046204Y-116050889D01*
X192163261Y-115963261D01*
X192250889Y-115846204D01*
X192301989Y-115709201D01*
X192302999Y-115699800D01*
X192323706Y-115642978D01*
X192368506Y-115602348D01*
X192427077Y-115587275D01*
X192485924Y-115601230D01*
X192531490Y-115640998D01*
X192533804Y-115644303D01*
X192695696Y-115806195D01*
X192883249Y-115937522D01*
X193090756Y-116034284D01*
X193150014Y-116050162D01*
X193311913Y-116093543D01*
X193540000Y-116113498D01*
X193768087Y-116093543D01*
X193989243Y-116034284D01*
X194196749Y-115937523D01*
X194384300Y-115806198D01*
X194546198Y-115644300D01*
X194677523Y-115456749D01*
X194774284Y-115249243D01*
X194833543Y-115028087D01*
X194853498Y-114800000D01*
X194833543Y-114571913D01*
X194774284Y-114350757D01*
X194771500Y-114344787D01*
X194677522Y-114143249D01*
X194546195Y-113955696D01*
X194384303Y-113793804D01*
X194196750Y-113662477D01*
X193989243Y-113565715D01*
X193768087Y-113506457D01*
X193540000Y-113486502D01*
X193311912Y-113506457D01*
X193090756Y-113565715D01*
X192883249Y-113662477D01*
X192695696Y-113793804D01*
X192533802Y-113955698D01*
X192531487Y-113959005D01*
X192485921Y-113998771D01*
X192427074Y-114012724D01*
X192368504Y-113997650D01*
X192323705Y-113957021D01*
X192302999Y-113900197D01*
X192301989Y-113890799D01*
X192250889Y-113753796D01*
X192250888Y-113753794D01*
X192163261Y-113636738D01*
X192046205Y-113549111D01*
X191931845Y-113506457D01*
X191909201Y-113498011D01*
X191848638Y-113491500D01*
X190151362Y-113491500D01*
X190090799Y-113498011D01*
X189953794Y-113549111D01*
X189836738Y-113636738D01*
X189749111Y-113753794D01*
X189698011Y-113890799D01*
X189691500Y-113951362D01*
X189691500Y-115648638D01*
X188766860Y-115648638D01*
X188771198Y-115644300D01*
X188902523Y-115456749D01*
X188999284Y-115249243D01*
X189058543Y-115028087D01*
X189078498Y-114800000D01*
X189058543Y-114571913D01*
X188999284Y-114350757D01*
X188996500Y-114344787D01*
X188902522Y-114143249D01*
X188771195Y-113955696D01*
X188609303Y-113793804D01*
X188421750Y-113662477D01*
X188214243Y-113565715D01*
X187993087Y-113506457D01*
X187765000Y-113486502D01*
X187536912Y-113506457D01*
X187315756Y-113565715D01*
X187108249Y-113662477D01*
X186920696Y-113793804D01*
X186758802Y-113955698D01*
X186756487Y-113959005D01*
X186710921Y-113998771D01*
X186652074Y-114012724D01*
X186593504Y-113997650D01*
X186548705Y-113957021D01*
X186527999Y-113900197D01*
X186526989Y-113890799D01*
X186475889Y-113753796D01*
X186475888Y-113753794D01*
X186388261Y-113636738D01*
X186271205Y-113549111D01*
X186156845Y-113506457D01*
X186134201Y-113498011D01*
X186073638Y-113491500D01*
X184376362Y-113491500D01*
X184315799Y-113498011D01*
X184178794Y-113549111D01*
X184061738Y-113636738D01*
X183974111Y-113753794D01*
X183923011Y-113890799D01*
X183916500Y-113951362D01*
X183916500Y-115648638D01*
X183041860Y-115648638D01*
X183046198Y-115644300D01*
X183177523Y-115456749D01*
X183274284Y-115249243D01*
X183333543Y-115028087D01*
X183353498Y-114800000D01*
X183333543Y-114571913D01*
X183274284Y-114350757D01*
X183271500Y-114344787D01*
X183177522Y-114143249D01*
X183046195Y-113955696D01*
X182884303Y-113793804D01*
X182696750Y-113662477D01*
X182489243Y-113565715D01*
X182268087Y-113506457D01*
X182040000Y-113486502D01*
X181811912Y-113506457D01*
X181590756Y-113565715D01*
X181383249Y-113662477D01*
X181195696Y-113793804D01*
X181033802Y-113955698D01*
X181031487Y-113959005D01*
X180985921Y-113998771D01*
X180927074Y-114012724D01*
X180868504Y-113997650D01*
X180823705Y-113957021D01*
X180802999Y-113900197D01*
X180801989Y-113890799D01*
X180750889Y-113753796D01*
X180750888Y-113753794D01*
X180663261Y-113636738D01*
X180546205Y-113549111D01*
X180431845Y-113506457D01*
X180409201Y-113498011D01*
X180348638Y-113491500D01*
X178651362Y-113491500D01*
X178590799Y-113498011D01*
X178453794Y-113549111D01*
X178336738Y-113636738D01*
X178249111Y-113753794D01*
X178198011Y-113890799D01*
X178191500Y-113951362D01*
X178191500Y-115648638D01*
X177266860Y-115648638D01*
X177271198Y-115644300D01*
X177402523Y-115456749D01*
X177499284Y-115249243D01*
X177558543Y-115028087D01*
X177578498Y-114800000D01*
X177558543Y-114571913D01*
X177499284Y-114350757D01*
X177496500Y-114344787D01*
X177402522Y-114143249D01*
X177271195Y-113955696D01*
X177109303Y-113793804D01*
X176921750Y-113662477D01*
X176714243Y-113565715D01*
X176493087Y-113506457D01*
X176265000Y-113486502D01*
X176036912Y-113506457D01*
X175815756Y-113565715D01*
X175608249Y-113662477D01*
X175420696Y-113793804D01*
X175258802Y-113955698D01*
X175256487Y-113959005D01*
X175210921Y-113998771D01*
X175152074Y-114012724D01*
X175093504Y-113997650D01*
X175048705Y-113957021D01*
X175027999Y-113900197D01*
X175026989Y-113890799D01*
X174975889Y-113753796D01*
X174975888Y-113753794D01*
X174888261Y-113636738D01*
X174771205Y-113549111D01*
X174656845Y-113506457D01*
X174634201Y-113498011D01*
X174573638Y-113491500D01*
X172876362Y-113491500D01*
X172815799Y-113498011D01*
X172678794Y-113549111D01*
X172561738Y-113636738D01*
X172474111Y-113753794D01*
X172423011Y-113890799D01*
X172416500Y-113951362D01*
X172416500Y-115648638D01*
X171541860Y-115648638D01*
X171546198Y-115644300D01*
X171677523Y-115456749D01*
X171774284Y-115249243D01*
X171833543Y-115028087D01*
X171853498Y-114800000D01*
X171833543Y-114571913D01*
X171774284Y-114350757D01*
X171771500Y-114344787D01*
X171677522Y-114143249D01*
X171546195Y-113955696D01*
X171384303Y-113793804D01*
X171196750Y-113662477D01*
X170989243Y-113565715D01*
X170768087Y-113506457D01*
X170540000Y-113486502D01*
X170311912Y-113506457D01*
X170090756Y-113565715D01*
X169883249Y-113662477D01*
X169695696Y-113793804D01*
X169533802Y-113955698D01*
X169531487Y-113959005D01*
X169485921Y-113998771D01*
X169427074Y-114012724D01*
X169368504Y-113997650D01*
X169323705Y-113957021D01*
X169302999Y-113900197D01*
X169301989Y-113890799D01*
X169250889Y-113753796D01*
X169250888Y-113753794D01*
X169163261Y-113636738D01*
X169046205Y-113549111D01*
X168931845Y-113506457D01*
X168909201Y-113498011D01*
X168848638Y-113491500D01*
X167151362Y-113491500D01*
X167090799Y-113498011D01*
X166953794Y-113549111D01*
X166836738Y-113636738D01*
X166749111Y-113753794D01*
X166698011Y-113890799D01*
X166691500Y-113951362D01*
X166691500Y-115648638D01*
X165766860Y-115648638D01*
X165771198Y-115644300D01*
X165902523Y-115456749D01*
X165999284Y-115249243D01*
X166058543Y-115028087D01*
X166078498Y-114800000D01*
X166058543Y-114571913D01*
X165999284Y-114350757D01*
X165996500Y-114344787D01*
X165902522Y-114143249D01*
X165771195Y-113955696D01*
X165609303Y-113793804D01*
X165421750Y-113662477D01*
X165214243Y-113565715D01*
X164993087Y-113506457D01*
X164765000Y-113486502D01*
X164536912Y-113506457D01*
X164315756Y-113565715D01*
X164108249Y-113662477D01*
X163920696Y-113793804D01*
X163758802Y-113955698D01*
X163756487Y-113959005D01*
X163710921Y-113998771D01*
X163652074Y-114012724D01*
X163593504Y-113997650D01*
X163548705Y-113957021D01*
X163527999Y-113900197D01*
X163526989Y-113890799D01*
X163475889Y-113753796D01*
X163475888Y-113753794D01*
X163388261Y-113636738D01*
X163271205Y-113549111D01*
X163156845Y-113506457D01*
X163134201Y-113498011D01*
X163073638Y-113491500D01*
X161376362Y-113491500D01*
X161315799Y-113498011D01*
X161178794Y-113549111D01*
X161061738Y-113636738D01*
X160974111Y-113753794D01*
X160923011Y-113890799D01*
X160916500Y-113951362D01*
X160916500Y-115648638D01*
X160041860Y-115648638D01*
X160046198Y-115644300D01*
X160177523Y-115456749D01*
X160274284Y-115249243D01*
X160333543Y-115028087D01*
X160353498Y-114800000D01*
X160333543Y-114571913D01*
X160274284Y-114350757D01*
X160271500Y-114344787D01*
X160177522Y-114143249D01*
X160046195Y-113955696D01*
X159884303Y-113793804D01*
X159696750Y-113662477D01*
X159489243Y-113565715D01*
X159268087Y-113506457D01*
X159040000Y-113486502D01*
X158811912Y-113506457D01*
X158590756Y-113565715D01*
X158383249Y-113662477D01*
X158195696Y-113793804D01*
X158033802Y-113955698D01*
X158031487Y-113959005D01*
X157985921Y-113998771D01*
X157927074Y-114012724D01*
X157868504Y-113997650D01*
X157823705Y-113957021D01*
X157802999Y-113900197D01*
X157801989Y-113890799D01*
X157750889Y-113753796D01*
X157750888Y-113753794D01*
X157663261Y-113636738D01*
X157546205Y-113549111D01*
X157431845Y-113506457D01*
X157409201Y-113498011D01*
X157348638Y-113491500D01*
X155651362Y-113491500D01*
X155590799Y-113498011D01*
X155453794Y-113549111D01*
X155336738Y-113636738D01*
X155249111Y-113753794D01*
X155198011Y-113890799D01*
X155191500Y-113951362D01*
X155191500Y-115648638D01*
X154266860Y-115648638D01*
X154271198Y-115644300D01*
X154402523Y-115456749D01*
X154499284Y-115249243D01*
X154558543Y-115028087D01*
X154578498Y-114800000D01*
X154558543Y-114571913D01*
X154499284Y-114350757D01*
X154496500Y-114344787D01*
X154402522Y-114143249D01*
X154271195Y-113955696D01*
X154109303Y-113793804D01*
X153921750Y-113662477D01*
X153714243Y-113565715D01*
X153493087Y-113506457D01*
X153265000Y-113486502D01*
X153036912Y-113506457D01*
X152815756Y-113565715D01*
X152608249Y-113662477D01*
X152420696Y-113793804D01*
X152258802Y-113955698D01*
X152256487Y-113959005D01*
X152210921Y-113998771D01*
X152152074Y-114012724D01*
X152093504Y-113997650D01*
X152048705Y-113957021D01*
X152027999Y-113900197D01*
X152026989Y-113890799D01*
X151975889Y-113753796D01*
X151975888Y-113753794D01*
X151888261Y-113636738D01*
X151771205Y-113549111D01*
X151656845Y-113506457D01*
X151634201Y-113498011D01*
X151573638Y-113491500D01*
X149876362Y-113491500D01*
X149815799Y-113498011D01*
X149678794Y-113549111D01*
X149561738Y-113636738D01*
X149474111Y-113753794D01*
X149423011Y-113890799D01*
X149416500Y-113951362D01*
X149416500Y-115648638D01*
X148541860Y-115648638D01*
X148546198Y-115644300D01*
X148677523Y-115456749D01*
X148774284Y-115249243D01*
X148833543Y-115028087D01*
X148853498Y-114800000D01*
X148833543Y-114571913D01*
X148774284Y-114350757D01*
X148771500Y-114344787D01*
X148677522Y-114143249D01*
X148546195Y-113955696D01*
X148384303Y-113793804D01*
X148196750Y-113662477D01*
X147989243Y-113565715D01*
X147768087Y-113506457D01*
X147540000Y-113486502D01*
X147311912Y-113506457D01*
X147090756Y-113565715D01*
X146883249Y-113662477D01*
X146695696Y-113793804D01*
X146533802Y-113955698D01*
X146531487Y-113959005D01*
X146485921Y-113998771D01*
X146427074Y-114012724D01*
X146368504Y-113997650D01*
X146323705Y-113957021D01*
X146302999Y-113900197D01*
X146301989Y-113890799D01*
X146250889Y-113753796D01*
X146250888Y-113753794D01*
X146163261Y-113636738D01*
X146046205Y-113549111D01*
X145931845Y-113506457D01*
X145909201Y-113498011D01*
X145848638Y-113491500D01*
X144151362Y-113491500D01*
X144090799Y-113498011D01*
X143953794Y-113549111D01*
X143836738Y-113636738D01*
X143749111Y-113753794D01*
X143698011Y-113890799D01*
X143691500Y-113951362D01*
X143691500Y-115648638D01*
X142766860Y-115648638D01*
X142771198Y-115644300D01*
X142902523Y-115456749D01*
X142999284Y-115249243D01*
X143058543Y-115028087D01*
X143078498Y-114800000D01*
X143058543Y-114571913D01*
X142999284Y-114350757D01*
X142996500Y-114344787D01*
X142902522Y-114143249D01*
X142771195Y-113955696D01*
X142609303Y-113793804D01*
X142421750Y-113662477D01*
X142214243Y-113565715D01*
X141993087Y-113506457D01*
X141765000Y-113486502D01*
X141536912Y-113506457D01*
X141315756Y-113565715D01*
X141108249Y-113662477D01*
X140920696Y-113793804D01*
X140758802Y-113955698D01*
X140756487Y-113959005D01*
X140710921Y-113998771D01*
X140652074Y-114012724D01*
X140593504Y-113997650D01*
X140548705Y-113957021D01*
X140527999Y-113900197D01*
X140526989Y-113890799D01*
X140475889Y-113753796D01*
X140475888Y-113753794D01*
X140388261Y-113636738D01*
X140271205Y-113549111D01*
X140156845Y-113506457D01*
X140134201Y-113498011D01*
X140073638Y-113491500D01*
X138376362Y-113491500D01*
X138315799Y-113498011D01*
X138178794Y-113549111D01*
X138061738Y-113636738D01*
X137974111Y-113753794D01*
X137923011Y-113890799D01*
X137916500Y-113951362D01*
X137916500Y-115648638D01*
X137041860Y-115648638D01*
X137046198Y-115644300D01*
X137177523Y-115456749D01*
X137274284Y-115249243D01*
X137333543Y-115028087D01*
X137353498Y-114800000D01*
X137333543Y-114571913D01*
X137274284Y-114350757D01*
X137271500Y-114344787D01*
X137177522Y-114143249D01*
X137046195Y-113955696D01*
X136884303Y-113793804D01*
X136696750Y-113662477D01*
X136489243Y-113565715D01*
X136268087Y-113506457D01*
X136040000Y-113486502D01*
X135811912Y-113506457D01*
X135590756Y-113565715D01*
X135383249Y-113662477D01*
X135195696Y-113793804D01*
X135033802Y-113955698D01*
X135031487Y-113959005D01*
X134985921Y-113998771D01*
X134927074Y-114012724D01*
X134868504Y-113997650D01*
X134823705Y-113957021D01*
X134802999Y-113900197D01*
X134801989Y-113890799D01*
X134750889Y-113753796D01*
X134750888Y-113753794D01*
X134663261Y-113636738D01*
X134546205Y-113549111D01*
X134431845Y-113506457D01*
X134409201Y-113498011D01*
X134348638Y-113491500D01*
X132651362Y-113491500D01*
X132590799Y-113498011D01*
X132453794Y-113549111D01*
X132336738Y-113636738D01*
X132249111Y-113753794D01*
X132198011Y-113890799D01*
X132191500Y-113951362D01*
X132191500Y-115648638D01*
X131266860Y-115648638D01*
X131271198Y-115644300D01*
X131402523Y-115456749D01*
X131499284Y-115249243D01*
X131558543Y-115028087D01*
X131578498Y-114800000D01*
X131558543Y-114571913D01*
X131499284Y-114350757D01*
X131496500Y-114344787D01*
X131402522Y-114143249D01*
X131271195Y-113955696D01*
X131109303Y-113793804D01*
X130921750Y-113662477D01*
X130714243Y-113565715D01*
X130493087Y-113506457D01*
X130265000Y-113486502D01*
X130036912Y-113506457D01*
X129815756Y-113565715D01*
X129608249Y-113662477D01*
X129420696Y-113793804D01*
X129258802Y-113955698D01*
X129256487Y-113959005D01*
X129210921Y-113998771D01*
X129152074Y-114012724D01*
X129093504Y-113997650D01*
X129048705Y-113957021D01*
X129027999Y-113900197D01*
X129026989Y-113890799D01*
X128975889Y-113753796D01*
X128975888Y-113753794D01*
X128888261Y-113636738D01*
X128771205Y-113549111D01*
X128656845Y-113506457D01*
X128634201Y-113498011D01*
X128573638Y-113491500D01*
X126876362Y-113491500D01*
X126815799Y-113498011D01*
X126678794Y-113549111D01*
X126561738Y-113636738D01*
X126474111Y-113753794D01*
X126423011Y-113890799D01*
X126416500Y-113951362D01*
X126416500Y-115648638D01*
X125541860Y-115648638D01*
X125546198Y-115644300D01*
X125677523Y-115456749D01*
X125774284Y-115249243D01*
X125833543Y-115028087D01*
X125853498Y-114800000D01*
X125833543Y-114571913D01*
X125774284Y-114350757D01*
X125771500Y-114344787D01*
X125677522Y-114143249D01*
X125546195Y-113955696D01*
X125384303Y-113793804D01*
X125196750Y-113662477D01*
X124989243Y-113565715D01*
X124768087Y-113506457D01*
X124540000Y-113486502D01*
X124311912Y-113506457D01*
X124090756Y-113565715D01*
X123883249Y-113662477D01*
X123695696Y-113793804D01*
X123533802Y-113955698D01*
X123531487Y-113959005D01*
X123485921Y-113998771D01*
X123427074Y-114012724D01*
X123368504Y-113997650D01*
X123323705Y-113957021D01*
X123302999Y-113900197D01*
X123301989Y-113890799D01*
X123250889Y-113753796D01*
X123250888Y-113753794D01*
X123163261Y-113636738D01*
X123046205Y-113549111D01*
X122931845Y-113506457D01*
X122909201Y-113498011D01*
X122848638Y-113491500D01*
X121151362Y-113491500D01*
X121090799Y-113498011D01*
X120953794Y-113549111D01*
X120836738Y-113636738D01*
X120749111Y-113753794D01*
X120698011Y-113890799D01*
X120691500Y-113951362D01*
X120691500Y-115648638D01*
X119766860Y-115648638D01*
X119771198Y-115644300D01*
X119902523Y-115456749D01*
X119999284Y-115249243D01*
X120058543Y-115028087D01*
X120078498Y-114800000D01*
X120058543Y-114571913D01*
X119999284Y-114350757D01*
X119996500Y-114344787D01*
X119902522Y-114143249D01*
X119771195Y-113955696D01*
X119609303Y-113793804D01*
X119421750Y-113662477D01*
X119214243Y-113565715D01*
X118993087Y-113506457D01*
X118765000Y-113486502D01*
X118536912Y-113506457D01*
X118315756Y-113565715D01*
X118108249Y-113662477D01*
X117920696Y-113793804D01*
X117758802Y-113955698D01*
X117756487Y-113959005D01*
X117710921Y-113998771D01*
X117652074Y-114012724D01*
X117593504Y-113997650D01*
X117548705Y-113957021D01*
X117527999Y-113900197D01*
X117526989Y-113890799D01*
X117475889Y-113753796D01*
X117475888Y-113753794D01*
X117388261Y-113636738D01*
X117271205Y-113549111D01*
X117156845Y-113506457D01*
X117134201Y-113498011D01*
X117073638Y-113491500D01*
X115376362Y-113491500D01*
X115315799Y-113498011D01*
X115178794Y-113549111D01*
X115061738Y-113636738D01*
X114974111Y-113753794D01*
X114923011Y-113890799D01*
X114916500Y-113951362D01*
X114916500Y-115648638D01*
X114001860Y-115648638D01*
X114006198Y-115644300D01*
X114137523Y-115456749D01*
X114234284Y-115249243D01*
X114293543Y-115028087D01*
X114313498Y-114800000D01*
X114293543Y-114571913D01*
X114234284Y-114350757D01*
X114231500Y-114344787D01*
X114137522Y-114143249D01*
X114006195Y-113955696D01*
X113844303Y-113793804D01*
X113656750Y-113662477D01*
X113449243Y-113565715D01*
X113228087Y-113506457D01*
X113000000Y-113486502D01*
X112771912Y-113506457D01*
X112550756Y-113565715D01*
X112343249Y-113662477D01*
X112155696Y-113793804D01*
X111993802Y-113955698D01*
X111991487Y-113959005D01*
X111945921Y-113998771D01*
X111887074Y-114012724D01*
X111828504Y-113997650D01*
X111783705Y-113957021D01*
X111762999Y-113900197D01*
X111761989Y-113890799D01*
X111710889Y-113753796D01*
X111710888Y-113753794D01*
X111623261Y-113636738D01*
X111506205Y-113549111D01*
X111391845Y-113506457D01*
X111369201Y-113498011D01*
X111308638Y-113491500D01*
X109611362Y-113491500D01*
X109550799Y-113498011D01*
X109413794Y-113549111D01*
X109296738Y-113636738D01*
X109209111Y-113753794D01*
X109158011Y-113890799D01*
X109151500Y-113951362D01*
X109151500Y-115648638D01*
X108266860Y-115648638D01*
X108271198Y-115644300D01*
X108402523Y-115456749D01*
X108499284Y-115249243D01*
X108558543Y-115028087D01*
X108578498Y-114800000D01*
X108558543Y-114571913D01*
X108499284Y-114350757D01*
X108496500Y-114344787D01*
X108402522Y-114143249D01*
X108271195Y-113955696D01*
X108109303Y-113793804D01*
X107921750Y-113662477D01*
X107714243Y-113565715D01*
X107493087Y-113506457D01*
X107265000Y-113486502D01*
X107036912Y-113506457D01*
X106815756Y-113565715D01*
X106608249Y-113662477D01*
X106420696Y-113793804D01*
X106258802Y-113955698D01*
X106256487Y-113959005D01*
X106210921Y-113998771D01*
X106152074Y-114012724D01*
X106093504Y-113997650D01*
X106048705Y-113957021D01*
X106027999Y-113900197D01*
X106026989Y-113890799D01*
X105975889Y-113753796D01*
X105975888Y-113753794D01*
X105888261Y-113636738D01*
X105771205Y-113549111D01*
X105656845Y-113506457D01*
X105634201Y-113498011D01*
X105573638Y-113491500D01*
X103876362Y-113491500D01*
X103815799Y-113498011D01*
X103678794Y-113549111D01*
X103561738Y-113636738D01*
X103474111Y-113753794D01*
X103423011Y-113890799D01*
X103416500Y-113951362D01*
X103416500Y-115648638D01*
X90844500Y-115648638D01*
X90844500Y-107180000D01*
X103411502Y-107180000D01*
X103431457Y-107408087D01*
X103490715Y-107629243D01*
X103587477Y-107836750D01*
X103718804Y-108024303D01*
X103880696Y-108186195D01*
X104068249Y-108317522D01*
X104275756Y-108414284D01*
X104335015Y-108430162D01*
X104496913Y-108473543D01*
X104725000Y-108493498D01*
X104953087Y-108473543D01*
X105174243Y-108414284D01*
X105381749Y-108317523D01*
X105569300Y-108186198D01*
X105731198Y-108024300D01*
X105862523Y-107836749D01*
X105881080Y-107796951D01*
X105927576Y-107743933D01*
X105995276Y-107724200D01*
X106062976Y-107743933D01*
X106109471Y-107796951D01*
X106127911Y-107836497D01*
X106259189Y-108023981D01*
X106421018Y-108185810D01*
X106608501Y-108317087D01*
X106815929Y-108413813D01*
X107011000Y-108466082D01*
X107011000Y-107434000D01*
X107519000Y-107434000D01*
X107519000Y-108466082D01*
X107714070Y-108413813D01*
X107921498Y-108317087D01*
X108108981Y-108185810D01*
X108270810Y-108023981D01*
X108402087Y-107836498D01*
X108498813Y-107629070D01*
X108551082Y-107434000D01*
X107519000Y-107434000D01*
X107011000Y-107434000D01*
X107011000Y-107180000D01*
X109146502Y-107180000D01*
X109166457Y-107408087D01*
X109225715Y-107629243D01*
X109322477Y-107836750D01*
X109453804Y-108024303D01*
X109615696Y-108186195D01*
X109803249Y-108317522D01*
X110010756Y-108414284D01*
X110070015Y-108430162D01*
X110231913Y-108473543D01*
X110460000Y-108493498D01*
X110688087Y-108473543D01*
X110909243Y-108414284D01*
X111116749Y-108317523D01*
X111304300Y-108186198D01*
X111466198Y-108024300D01*
X111597523Y-107836749D01*
X111616080Y-107796951D01*
X111662576Y-107743933D01*
X111730276Y-107724200D01*
X111797976Y-107743933D01*
X111844471Y-107796951D01*
X111862911Y-107836497D01*
X111994189Y-108023981D01*
X112156018Y-108185810D01*
X112343501Y-108317087D01*
X112550929Y-108413813D01*
X112746000Y-108466082D01*
X112746000Y-107434000D01*
X113254000Y-107434000D01*
X113254000Y-108466082D01*
X113449070Y-108413813D01*
X113656498Y-108317087D01*
X113843981Y-108185810D01*
X114005810Y-108023981D01*
X114137087Y-107836498D01*
X114233813Y-107629070D01*
X114286082Y-107434000D01*
X113254000Y-107434000D01*
X112746000Y-107434000D01*
X112746000Y-107180000D01*
X114911502Y-107180000D01*
X114931457Y-107408087D01*
X114990715Y-107629243D01*
X115087477Y-107836750D01*
X115218804Y-108024303D01*
X115380696Y-108186195D01*
X115568249Y-108317522D01*
X115775756Y-108414284D01*
X115835015Y-108430162D01*
X115996913Y-108473543D01*
X116225000Y-108493498D01*
X116453087Y-108473543D01*
X116674243Y-108414284D01*
X116881749Y-108317523D01*
X117069300Y-108186198D01*
X117231198Y-108024300D01*
X117362523Y-107836749D01*
X117381080Y-107796951D01*
X117427576Y-107743933D01*
X117495276Y-107724200D01*
X117562976Y-107743933D01*
X117609471Y-107796951D01*
X117627911Y-107836497D01*
X117759189Y-108023981D01*
X117921018Y-108185810D01*
X118108501Y-108317087D01*
X118315929Y-108413813D01*
X118511000Y-108466082D01*
X118511000Y-107434000D01*
X119019000Y-107434000D01*
X119019000Y-108466082D01*
X119214070Y-108413813D01*
X119421498Y-108317087D01*
X119608981Y-108185810D01*
X119770810Y-108023981D01*
X119902087Y-107836498D01*
X119998813Y-107629070D01*
X120051082Y-107434000D01*
X119019000Y-107434000D01*
X118511000Y-107434000D01*
X118511000Y-107180000D01*
X120686502Y-107180000D01*
X120706457Y-107408087D01*
X120765715Y-107629243D01*
X120862477Y-107836750D01*
X120993804Y-108024303D01*
X121155696Y-108186195D01*
X121343249Y-108317522D01*
X121550756Y-108414284D01*
X121610015Y-108430162D01*
X121771913Y-108473543D01*
X122000000Y-108493498D01*
X122228087Y-108473543D01*
X122449243Y-108414284D01*
X122656749Y-108317523D01*
X122844300Y-108186198D01*
X123006198Y-108024300D01*
X123137523Y-107836749D01*
X123156080Y-107796951D01*
X123202576Y-107743933D01*
X123270276Y-107724200D01*
X123337976Y-107743933D01*
X123384471Y-107796951D01*
X123402911Y-107836497D01*
X123534189Y-108023981D01*
X123696018Y-108185810D01*
X123883501Y-108317087D01*
X124090929Y-108413813D01*
X124286000Y-108466082D01*
X124286000Y-107434000D01*
X124794000Y-107434000D01*
X124794000Y-108466082D01*
X124989070Y-108413813D01*
X125196498Y-108317087D01*
X125383981Y-108185810D01*
X125545810Y-108023981D01*
X125677087Y-107836498D01*
X125773813Y-107629070D01*
X125826082Y-107434000D01*
X124794000Y-107434000D01*
X124286000Y-107434000D01*
X124286000Y-107179999D01*
X126411502Y-107179999D01*
X126431457Y-107408087D01*
X126490715Y-107629243D01*
X126587477Y-107836750D01*
X126718804Y-108024303D01*
X126880696Y-108186195D01*
X127068249Y-108317522D01*
X127275756Y-108414284D01*
X127335015Y-108430162D01*
X127496913Y-108473543D01*
X127725000Y-108493498D01*
X127953087Y-108473543D01*
X128174243Y-108414284D01*
X128381749Y-108317523D01*
X128569300Y-108186198D01*
X128731198Y-108024300D01*
X128862523Y-107836749D01*
X128881080Y-107796951D01*
X128927576Y-107743933D01*
X128995276Y-107724200D01*
X129062976Y-107743933D01*
X129109471Y-107796951D01*
X129127911Y-107836497D01*
X129259189Y-108023981D01*
X129421018Y-108185810D01*
X129608501Y-108317087D01*
X129815929Y-108413813D01*
X130011000Y-108466082D01*
X130011000Y-107434000D01*
X130519000Y-107434000D01*
X130519000Y-108466082D01*
X130714070Y-108413813D01*
X130921498Y-108317087D01*
X131108981Y-108185810D01*
X131270810Y-108023981D01*
X131402087Y-107836498D01*
X131498813Y-107629070D01*
X131551082Y-107434000D01*
X130519000Y-107434000D01*
X130011000Y-107434000D01*
X130011000Y-107179999D01*
X132186502Y-107179999D01*
X132206457Y-107408087D01*
X132265715Y-107629243D01*
X132362477Y-107836750D01*
X132493804Y-108024303D01*
X132655696Y-108186195D01*
X132843249Y-108317522D01*
X133050756Y-108414284D01*
X133110015Y-108430162D01*
X133271913Y-108473543D01*
X133500000Y-108493498D01*
X133728087Y-108473543D01*
X133949243Y-108414284D01*
X134156749Y-108317523D01*
X134344300Y-108186198D01*
X134506198Y-108024300D01*
X134637523Y-107836749D01*
X134656080Y-107796951D01*
X134702576Y-107743933D01*
X134770276Y-107724200D01*
X134837976Y-107743933D01*
X134884471Y-107796951D01*
X134902911Y-107836497D01*
X135034189Y-108023981D01*
X135196018Y-108185810D01*
X135383501Y-108317087D01*
X135590929Y-108413813D01*
X135786000Y-108466082D01*
X135786000Y-107434000D01*
X136294000Y-107434000D01*
X136294000Y-108466082D01*
X136489070Y-108413813D01*
X136696498Y-108317087D01*
X136883981Y-108185810D01*
X137045810Y-108023981D01*
X137177087Y-107836498D01*
X137273813Y-107629070D01*
X137326082Y-107434000D01*
X136294000Y-107434000D01*
X135786000Y-107434000D01*
X135786000Y-107179999D01*
X137911502Y-107179999D01*
X137931457Y-107408087D01*
X137990715Y-107629243D01*
X138087477Y-107836750D01*
X138218804Y-108024303D01*
X138380696Y-108186195D01*
X138568249Y-108317522D01*
X138775756Y-108414284D01*
X138835015Y-108430162D01*
X138996913Y-108473543D01*
X139225000Y-108493498D01*
X139453087Y-108473543D01*
X139674243Y-108414284D01*
X139881749Y-108317523D01*
X140069300Y-108186198D01*
X140231198Y-108024300D01*
X140362523Y-107836749D01*
X140381080Y-107796951D01*
X140427576Y-107743933D01*
X140495276Y-107724200D01*
X140562976Y-107743933D01*
X140609471Y-107796951D01*
X140627911Y-107836497D01*
X140759189Y-108023981D01*
X140921018Y-108185810D01*
X141108501Y-108317087D01*
X141315929Y-108413813D01*
X141511000Y-108466082D01*
X141511000Y-107434000D01*
X142019000Y-107434000D01*
X142019000Y-108466082D01*
X142214070Y-108413813D01*
X142421498Y-108317087D01*
X142608981Y-108185810D01*
X142770810Y-108023981D01*
X142902087Y-107836498D01*
X142998813Y-107629070D01*
X143051082Y-107434000D01*
X142019000Y-107434000D01*
X141511000Y-107434000D01*
X141511000Y-107179999D01*
X143686502Y-107179999D01*
X143706457Y-107408087D01*
X143765715Y-107629243D01*
X143862477Y-107836750D01*
X143993804Y-108024303D01*
X144155696Y-108186195D01*
X144343249Y-108317522D01*
X144550756Y-108414284D01*
X144610015Y-108430162D01*
X144771913Y-108473543D01*
X145000000Y-108493498D01*
X145228087Y-108473543D01*
X145449243Y-108414284D01*
X145656749Y-108317523D01*
X145844300Y-108186198D01*
X146006198Y-108024300D01*
X146137523Y-107836749D01*
X146156080Y-107796951D01*
X146202576Y-107743933D01*
X146270276Y-107724200D01*
X146337976Y-107743933D01*
X146384471Y-107796951D01*
X146402911Y-107836497D01*
X146534189Y-108023981D01*
X146696018Y-108185810D01*
X146883501Y-108317087D01*
X147090929Y-108413813D01*
X147286000Y-108466082D01*
X147286000Y-107434000D01*
X147794000Y-107434000D01*
X147794000Y-108466082D01*
X147989070Y-108413813D01*
X148196498Y-108317087D01*
X148383981Y-108185810D01*
X148545810Y-108023981D01*
X148677087Y-107836498D01*
X148773813Y-107629070D01*
X148826082Y-107434000D01*
X147794000Y-107434000D01*
X147286000Y-107434000D01*
X147286000Y-107179999D01*
X149411502Y-107179999D01*
X149431457Y-107408087D01*
X149490715Y-107629243D01*
X149587477Y-107836750D01*
X149718804Y-108024303D01*
X149880696Y-108186195D01*
X150068249Y-108317522D01*
X150275756Y-108414284D01*
X150335015Y-108430162D01*
X150496913Y-108473543D01*
X150725000Y-108493498D01*
X150953087Y-108473543D01*
X151174243Y-108414284D01*
X151381749Y-108317523D01*
X151569300Y-108186198D01*
X151731198Y-108024300D01*
X151862523Y-107836749D01*
X151881080Y-107796951D01*
X151927576Y-107743933D01*
X151995276Y-107724200D01*
X152062976Y-107743933D01*
X152109471Y-107796951D01*
X152127911Y-107836497D01*
X152259189Y-108023981D01*
X152421018Y-108185810D01*
X152608501Y-108317087D01*
X152815929Y-108413813D01*
X153011000Y-108466082D01*
X153011000Y-107434000D01*
X153519000Y-107434000D01*
X153519000Y-108466082D01*
X153714070Y-108413813D01*
X153921498Y-108317087D01*
X154108981Y-108185810D01*
X154270810Y-108023981D01*
X154402087Y-107836498D01*
X154498813Y-107629070D01*
X154551082Y-107434000D01*
X153519000Y-107434000D01*
X153011000Y-107434000D01*
X153011000Y-107179999D01*
X155186502Y-107179999D01*
X155206457Y-107408087D01*
X155265715Y-107629243D01*
X155362477Y-107836750D01*
X155493804Y-108024303D01*
X155655696Y-108186195D01*
X155843249Y-108317522D01*
X156050756Y-108414284D01*
X156110015Y-108430162D01*
X156271913Y-108473543D01*
X156500000Y-108493498D01*
X156728087Y-108473543D01*
X156949243Y-108414284D01*
X157156749Y-108317523D01*
X157344300Y-108186198D01*
X157506198Y-108024300D01*
X157637523Y-107836749D01*
X157656080Y-107796951D01*
X157702576Y-107743933D01*
X157770276Y-107724200D01*
X157837976Y-107743933D01*
X157884471Y-107796951D01*
X157902911Y-107836497D01*
X158034189Y-108023981D01*
X158196018Y-108185810D01*
X158383501Y-108317087D01*
X158590929Y-108413813D01*
X158786000Y-108466082D01*
X158786000Y-107434000D01*
X159294000Y-107434000D01*
X159294000Y-108466082D01*
X159489070Y-108413813D01*
X159696498Y-108317087D01*
X159883981Y-108185810D01*
X160045810Y-108023981D01*
X160177087Y-107836498D01*
X160273813Y-107629070D01*
X160326082Y-107434000D01*
X159294000Y-107434000D01*
X158786000Y-107434000D01*
X158786000Y-107179999D01*
X160911502Y-107179999D01*
X160931457Y-107408087D01*
X160990715Y-107629243D01*
X161087477Y-107836750D01*
X161218804Y-108024303D01*
X161380696Y-108186195D01*
X161568249Y-108317522D01*
X161775756Y-108414284D01*
X161835015Y-108430162D01*
X161996913Y-108473543D01*
X162225000Y-108493498D01*
X162453087Y-108473543D01*
X162674243Y-108414284D01*
X162881749Y-108317523D01*
X163069300Y-108186198D01*
X163231198Y-108024300D01*
X163362523Y-107836749D01*
X163381080Y-107796951D01*
X163427576Y-107743933D01*
X163495276Y-107724200D01*
X163562976Y-107743933D01*
X163609471Y-107796951D01*
X163627911Y-107836497D01*
X163759189Y-108023981D01*
X163921018Y-108185810D01*
X164108501Y-108317087D01*
X164315929Y-108413813D01*
X164511000Y-108466082D01*
X164511000Y-107434000D01*
X165019000Y-107434000D01*
X165019000Y-108466082D01*
X165214070Y-108413813D01*
X165421498Y-108317087D01*
X165608981Y-108185810D01*
X165770810Y-108023981D01*
X165902087Y-107836498D01*
X165998813Y-107629070D01*
X166051082Y-107434000D01*
X165019000Y-107434000D01*
X164511000Y-107434000D01*
X164511000Y-107179999D01*
X166686502Y-107179999D01*
X166706457Y-107408087D01*
X166765715Y-107629243D01*
X166862477Y-107836750D01*
X166993804Y-108024303D01*
X167155696Y-108186195D01*
X167343249Y-108317522D01*
X167550756Y-108414284D01*
X167610015Y-108430162D01*
X167771913Y-108473543D01*
X168000000Y-108493498D01*
X168228087Y-108473543D01*
X168449243Y-108414284D01*
X168656749Y-108317523D01*
X168844300Y-108186198D01*
X169006198Y-108024300D01*
X169137523Y-107836749D01*
X169156080Y-107796951D01*
X169202576Y-107743933D01*
X169270276Y-107724200D01*
X169337976Y-107743933D01*
X169384471Y-107796951D01*
X169402911Y-107836497D01*
X169534189Y-108023981D01*
X169696018Y-108185810D01*
X169883501Y-108317087D01*
X170090929Y-108413813D01*
X170286000Y-108466082D01*
X170286000Y-107434000D01*
X170794000Y-107434000D01*
X170794000Y-108466082D01*
X170989070Y-108413813D01*
X171196498Y-108317087D01*
X171383981Y-108185810D01*
X171545810Y-108023981D01*
X171677087Y-107836498D01*
X171773813Y-107629070D01*
X171826082Y-107434000D01*
X170794000Y-107434000D01*
X170286000Y-107434000D01*
X170286000Y-107179999D01*
X172411502Y-107179999D01*
X172431457Y-107408087D01*
X172490715Y-107629243D01*
X172587477Y-107836750D01*
X172718804Y-108024303D01*
X172880696Y-108186195D01*
X173068249Y-108317522D01*
X173275756Y-108414284D01*
X173335015Y-108430162D01*
X173496913Y-108473543D01*
X173725000Y-108493498D01*
X173953087Y-108473543D01*
X174174243Y-108414284D01*
X174381749Y-108317523D01*
X174569300Y-108186198D01*
X174731198Y-108024300D01*
X174862523Y-107836749D01*
X174881080Y-107796951D01*
X174927576Y-107743933D01*
X174995276Y-107724200D01*
X175062976Y-107743933D01*
X175109471Y-107796951D01*
X175127911Y-107836497D01*
X175259189Y-108023981D01*
X175421018Y-108185810D01*
X175608501Y-108317087D01*
X175815929Y-108413813D01*
X176011000Y-108466082D01*
X176011000Y-107434000D01*
X176519000Y-107434000D01*
X176519000Y-108466082D01*
X176714070Y-108413813D01*
X176921498Y-108317087D01*
X177108981Y-108185810D01*
X177270810Y-108023981D01*
X177402087Y-107836498D01*
X177498813Y-107629070D01*
X177551082Y-107434000D01*
X176519000Y-107434000D01*
X176011000Y-107434000D01*
X176011000Y-107179999D01*
X178186502Y-107179999D01*
X178206457Y-107408087D01*
X178265715Y-107629243D01*
X178362477Y-107836750D01*
X178493804Y-108024303D01*
X178655696Y-108186195D01*
X178843249Y-108317522D01*
X179050756Y-108414284D01*
X179110015Y-108430162D01*
X179271913Y-108473543D01*
X179500000Y-108493498D01*
X179728087Y-108473543D01*
X179949243Y-108414284D01*
X180156749Y-108317523D01*
X180344300Y-108186198D01*
X180506198Y-108024300D01*
X180637523Y-107836749D01*
X180656080Y-107796951D01*
X180702576Y-107743933D01*
X180770276Y-107724200D01*
X180837976Y-107743933D01*
X180884471Y-107796951D01*
X180902911Y-107836497D01*
X181034189Y-108023981D01*
X181196018Y-108185810D01*
X181383501Y-108317087D01*
X181590929Y-108413813D01*
X181786000Y-108466082D01*
X181786000Y-107434000D01*
X182294000Y-107434000D01*
X182294000Y-108466082D01*
X182489070Y-108413813D01*
X182696498Y-108317087D01*
X182883981Y-108185810D01*
X183045810Y-108023981D01*
X183177087Y-107836498D01*
X183273813Y-107629070D01*
X183326082Y-107434000D01*
X182294000Y-107434000D01*
X181786000Y-107434000D01*
X181786000Y-107179999D01*
X183911502Y-107179999D01*
X183931457Y-107408087D01*
X183990715Y-107629243D01*
X184087477Y-107836750D01*
X184218804Y-108024303D01*
X184380696Y-108186195D01*
X184568249Y-108317522D01*
X184775756Y-108414284D01*
X184835015Y-108430162D01*
X184996913Y-108473543D01*
X185225000Y-108493498D01*
X185453087Y-108473543D01*
X185674243Y-108414284D01*
X185881749Y-108317523D01*
X186069300Y-108186198D01*
X186231198Y-108024300D01*
X186362523Y-107836749D01*
X186381080Y-107796951D01*
X186427576Y-107743933D01*
X186495276Y-107724200D01*
X186562976Y-107743933D01*
X186609471Y-107796951D01*
X186627911Y-107836497D01*
X186759189Y-108023981D01*
X186921018Y-108185810D01*
X187108501Y-108317087D01*
X187315929Y-108413813D01*
X187511000Y-108466082D01*
X187511000Y-107434000D01*
X188019000Y-107434000D01*
X188019000Y-108466082D01*
X188214070Y-108413813D01*
X188421498Y-108317087D01*
X188608981Y-108185810D01*
X188770810Y-108023981D01*
X188902087Y-107836498D01*
X188998813Y-107629070D01*
X189051082Y-107434000D01*
X188019000Y-107434000D01*
X187511000Y-107434000D01*
X187511000Y-107179999D01*
X189686502Y-107179999D01*
X189706457Y-107408087D01*
X189765715Y-107629243D01*
X189862477Y-107836750D01*
X189993804Y-108024303D01*
X190155696Y-108186195D01*
X190343249Y-108317522D01*
X190550756Y-108414284D01*
X190610015Y-108430162D01*
X190771913Y-108473543D01*
X191000000Y-108493498D01*
X191228087Y-108473543D01*
X191449243Y-108414284D01*
X191656749Y-108317523D01*
X191844300Y-108186198D01*
X192006198Y-108024300D01*
X192137523Y-107836749D01*
X192156080Y-107796951D01*
X192202576Y-107743933D01*
X192270276Y-107724200D01*
X192337976Y-107743933D01*
X192384471Y-107796951D01*
X192402911Y-107836497D01*
X192534189Y-108023981D01*
X192696018Y-108185810D01*
X192883501Y-108317087D01*
X193090929Y-108413813D01*
X193286000Y-108466082D01*
X193286000Y-107434000D01*
X193794000Y-107434000D01*
X193794000Y-108466082D01*
X193989070Y-108413813D01*
X194196498Y-108317087D01*
X194383981Y-108185810D01*
X194545810Y-108023981D01*
X194677087Y-107836498D01*
X194773813Y-107629070D01*
X194826082Y-107434000D01*
X193794000Y-107434000D01*
X193286000Y-107434000D01*
X193286000Y-105893918D01*
X193090929Y-105946186D01*
X192883501Y-106042912D01*
X192696018Y-106174189D01*
X192534189Y-106336018D01*
X192402911Y-106523502D01*
X192384469Y-106563051D01*
X192337973Y-106616067D01*
X192270273Y-106635799D01*
X192202573Y-106616065D01*
X192156081Y-106563049D01*
X192137523Y-106523251D01*
X192006198Y-106335700D01*
X192006197Y-106335699D01*
X192006195Y-106335696D01*
X191844303Y-106173804D01*
X191656750Y-106042477D01*
X191449243Y-105945715D01*
X191255928Y-105893917D01*
X193793999Y-105893917D01*
X193794000Y-105893918D01*
X193794000Y-106926000D01*
X194826082Y-106926000D01*
X194773813Y-106730929D01*
X194677087Y-106523501D01*
X194545810Y-106336018D01*
X194383981Y-106174189D01*
X194196498Y-106042912D01*
X193989070Y-105946186D01*
X193793999Y-105893917D01*
X191255928Y-105893917D01*
X191228087Y-105886457D01*
X191000000Y-105866502D01*
X190771912Y-105886457D01*
X190550756Y-105945715D01*
X190343249Y-106042477D01*
X190155696Y-106173804D01*
X189993804Y-106335696D01*
X189862477Y-106523249D01*
X189765715Y-106730756D01*
X189706457Y-106951912D01*
X189686502Y-107179999D01*
X187511000Y-107179999D01*
X187511000Y-105893918D01*
X188019000Y-105893918D01*
X188019000Y-106926000D01*
X189051082Y-106926000D01*
X188998813Y-106730929D01*
X188902087Y-106523501D01*
X188770810Y-106336018D01*
X188608981Y-106174189D01*
X188421498Y-106042912D01*
X188214070Y-105946186D01*
X188019000Y-105893918D01*
X187511000Y-105893918D01*
X187511000Y-105893917D01*
X187315929Y-105946186D01*
X187108501Y-106042912D01*
X186921018Y-106174189D01*
X186759189Y-106336018D01*
X186627911Y-106523502D01*
X186609469Y-106563051D01*
X186562973Y-106616067D01*
X186495273Y-106635799D01*
X186427573Y-106616065D01*
X186381081Y-106563049D01*
X186362523Y-106523251D01*
X186231198Y-106335700D01*
X186231197Y-106335699D01*
X186231195Y-106335696D01*
X186069303Y-106173804D01*
X185881750Y-106042477D01*
X185674243Y-105945715D01*
X185453087Y-105886457D01*
X185225000Y-105866502D01*
X184996912Y-105886457D01*
X184775756Y-105945715D01*
X184568249Y-106042477D01*
X184380696Y-106173804D01*
X184218804Y-106335696D01*
X184087477Y-106523249D01*
X183990715Y-106730756D01*
X183931457Y-106951912D01*
X183911502Y-107179999D01*
X181786000Y-107179999D01*
X181786000Y-105893917D01*
X182293999Y-105893917D01*
X182294000Y-105893918D01*
X182294000Y-106926000D01*
X183326082Y-106926000D01*
X183273813Y-106730929D01*
X183177087Y-106523501D01*
X183045810Y-106336018D01*
X182883981Y-106174189D01*
X182696498Y-106042912D01*
X182489070Y-105946186D01*
X182293999Y-105893917D01*
X181786000Y-105893917D01*
X181590929Y-105946186D01*
X181383501Y-106042912D01*
X181196018Y-106174189D01*
X181034189Y-106336018D01*
X180902911Y-106523502D01*
X180884469Y-106563051D01*
X180837973Y-106616067D01*
X180770273Y-106635799D01*
X180702573Y-106616065D01*
X180656081Y-106563049D01*
X180637523Y-106523251D01*
X180506198Y-106335700D01*
X180506197Y-106335699D01*
X180506195Y-106335696D01*
X180344303Y-106173804D01*
X180156750Y-106042477D01*
X179949243Y-105945715D01*
X179728087Y-105886457D01*
X179500000Y-105866502D01*
X179271912Y-105886457D01*
X179050756Y-105945715D01*
X178843249Y-106042477D01*
X178655696Y-106173804D01*
X178493804Y-106335696D01*
X178362477Y-106523249D01*
X178265715Y-106730756D01*
X178206457Y-106951912D01*
X178186502Y-107179999D01*
X176011000Y-107179999D01*
X176011000Y-105893917D01*
X176518999Y-105893917D01*
X176519000Y-105893918D01*
X176519000Y-106926000D01*
X177551082Y-106926000D01*
X177498813Y-106730929D01*
X177402087Y-106523501D01*
X177270810Y-106336018D01*
X177108981Y-106174189D01*
X176921498Y-106042912D01*
X176714070Y-105946186D01*
X176518999Y-105893917D01*
X176011000Y-105893917D01*
X175815929Y-105946186D01*
X175608501Y-106042912D01*
X175421018Y-106174189D01*
X175259189Y-106336018D01*
X175127911Y-106523502D01*
X175109469Y-106563051D01*
X175062973Y-106616067D01*
X174995273Y-106635799D01*
X174927573Y-106616065D01*
X174881081Y-106563049D01*
X174862523Y-106523251D01*
X174731198Y-106335700D01*
X174731197Y-106335699D01*
X174731195Y-106335696D01*
X174569303Y-106173804D01*
X174381750Y-106042477D01*
X174174243Y-105945715D01*
X173953087Y-105886457D01*
X173725000Y-105866502D01*
X173496912Y-105886457D01*
X173275756Y-105945715D01*
X173068249Y-106042477D01*
X172880696Y-106173804D01*
X172718804Y-106335696D01*
X172587477Y-106523249D01*
X172490715Y-106730756D01*
X172431457Y-106951912D01*
X172411502Y-107179999D01*
X170286000Y-107179999D01*
X170286000Y-105893918D01*
X170794000Y-105893918D01*
X170794000Y-106926000D01*
X171826082Y-106926000D01*
X171773813Y-106730929D01*
X171677087Y-106523501D01*
X171545810Y-106336018D01*
X171383981Y-106174189D01*
X171196498Y-106042912D01*
X170989070Y-105946186D01*
X170794000Y-105893918D01*
X170286000Y-105893918D01*
X170286000Y-105893917D01*
X170090929Y-105946186D01*
X169883501Y-106042912D01*
X169696018Y-106174189D01*
X169534189Y-106336018D01*
X169402911Y-106523502D01*
X169384469Y-106563051D01*
X169337973Y-106616067D01*
X169270273Y-106635799D01*
X169202573Y-106616065D01*
X169156081Y-106563049D01*
X169137523Y-106523251D01*
X169006198Y-106335700D01*
X169006197Y-106335699D01*
X169006195Y-106335696D01*
X168844303Y-106173804D01*
X168656750Y-106042477D01*
X168449243Y-105945715D01*
X168228087Y-105886457D01*
X168000000Y-105866502D01*
X167771912Y-105886457D01*
X167550756Y-105945715D01*
X167343249Y-106042477D01*
X167155696Y-106173804D01*
X166993804Y-106335696D01*
X166862477Y-106523249D01*
X166765715Y-106730756D01*
X166706457Y-106951912D01*
X166686502Y-107179999D01*
X164511000Y-107179999D01*
X164511000Y-105893918D01*
X164315929Y-105946186D01*
X164108501Y-106042912D01*
X163921018Y-106174189D01*
X163759189Y-106336018D01*
X163627911Y-106523502D01*
X163609469Y-106563051D01*
X163562973Y-106616067D01*
X163495273Y-106635799D01*
X163427573Y-106616065D01*
X163381081Y-106563049D01*
X163362523Y-106523251D01*
X163231198Y-106335700D01*
X163231197Y-106335699D01*
X163231195Y-106335696D01*
X163069303Y-106173804D01*
X162881750Y-106042477D01*
X162674243Y-105945715D01*
X162480928Y-105893917D01*
X165018999Y-105893917D01*
X165019000Y-105893918D01*
X165019000Y-106926000D01*
X166051082Y-106926000D01*
X165998813Y-106730929D01*
X165902087Y-106523501D01*
X165770810Y-106336018D01*
X165608981Y-106174189D01*
X165421498Y-106042912D01*
X165214070Y-105946186D01*
X165018999Y-105893917D01*
X162480928Y-105893917D01*
X162453087Y-105886457D01*
X162225000Y-105866502D01*
X161996912Y-105886457D01*
X161775756Y-105945715D01*
X161568249Y-106042477D01*
X161380696Y-106173804D01*
X161218804Y-106335696D01*
X161087477Y-106523249D01*
X160990715Y-106730756D01*
X160931457Y-106951912D01*
X160911502Y-107179999D01*
X158786000Y-107179999D01*
X158786000Y-105893918D01*
X158590929Y-105946186D01*
X158383501Y-106042912D01*
X158196018Y-106174189D01*
X158034189Y-106336018D01*
X157902911Y-106523502D01*
X157884469Y-106563051D01*
X157837973Y-106616067D01*
X157770273Y-106635799D01*
X157702573Y-106616065D01*
X157656081Y-106563049D01*
X157637523Y-106523251D01*
X157506198Y-106335700D01*
X157506197Y-106335699D01*
X157506195Y-106335696D01*
X157344303Y-106173804D01*
X157156750Y-106042477D01*
X156949243Y-105945715D01*
X156755928Y-105893917D01*
X159293999Y-105893917D01*
X159294000Y-105893918D01*
X159294000Y-106926000D01*
X160326082Y-106926000D01*
X160273813Y-106730929D01*
X160177087Y-106523501D01*
X160045810Y-106336018D01*
X159883981Y-106174189D01*
X159696498Y-106042912D01*
X159489070Y-105946186D01*
X159293999Y-105893917D01*
X156755928Y-105893917D01*
X156728087Y-105886457D01*
X156500000Y-105866502D01*
X156271912Y-105886457D01*
X156050756Y-105945715D01*
X155843249Y-106042477D01*
X155655696Y-106173804D01*
X155493804Y-106335696D01*
X155362477Y-106523249D01*
X155265715Y-106730756D01*
X155206457Y-106951912D01*
X155186502Y-107179999D01*
X153011000Y-107179999D01*
X153011000Y-105893918D01*
X153519000Y-105893918D01*
X153519000Y-106926000D01*
X154551082Y-106926000D01*
X154498813Y-106730929D01*
X154402087Y-106523501D01*
X154270810Y-106336018D01*
X154108981Y-106174189D01*
X153921498Y-106042912D01*
X153714070Y-105946186D01*
X153519000Y-105893918D01*
X153011000Y-105893918D01*
X153011000Y-105893917D01*
X152815929Y-105946186D01*
X152608501Y-106042912D01*
X152421018Y-106174189D01*
X152259189Y-106336018D01*
X152127911Y-106523502D01*
X152109469Y-106563051D01*
X152062973Y-106616067D01*
X151995273Y-106635799D01*
X151927573Y-106616065D01*
X151881081Y-106563049D01*
X151862523Y-106523251D01*
X151731198Y-106335700D01*
X151731197Y-106335699D01*
X151731195Y-106335696D01*
X151569303Y-106173804D01*
X151381750Y-106042477D01*
X151174243Y-105945715D01*
X150953087Y-105886457D01*
X150725000Y-105866502D01*
X150496912Y-105886457D01*
X150275756Y-105945715D01*
X150068249Y-106042477D01*
X149880696Y-106173804D01*
X149718804Y-106335696D01*
X149587477Y-106523249D01*
X149490715Y-106730756D01*
X149431457Y-106951912D01*
X149411502Y-107179999D01*
X147286000Y-107179999D01*
X147286000Y-105893917D01*
X147793999Y-105893917D01*
X147794000Y-105893918D01*
X147794000Y-106926000D01*
X148826082Y-106926000D01*
X148773813Y-106730929D01*
X148677087Y-106523501D01*
X148545810Y-106336018D01*
X148383981Y-106174189D01*
X148196498Y-106042912D01*
X147989070Y-105946186D01*
X147793999Y-105893917D01*
X147286000Y-105893917D01*
X147090929Y-105946186D01*
X146883501Y-106042912D01*
X146696018Y-106174189D01*
X146534189Y-106336018D01*
X146402911Y-106523502D01*
X146384469Y-106563051D01*
X146337973Y-106616067D01*
X146270273Y-106635799D01*
X146202573Y-106616065D01*
X146156081Y-106563049D01*
X146137523Y-106523251D01*
X146006198Y-106335700D01*
X146006197Y-106335699D01*
X146006195Y-106335696D01*
X145844303Y-106173804D01*
X145656750Y-106042477D01*
X145449243Y-105945715D01*
X145228087Y-105886457D01*
X145000000Y-105866502D01*
X144771912Y-105886457D01*
X144550756Y-105945715D01*
X144343249Y-106042477D01*
X144155696Y-106173804D01*
X143993804Y-106335696D01*
X143862477Y-106523249D01*
X143765715Y-106730756D01*
X143706457Y-106951912D01*
X143686502Y-107179999D01*
X141511000Y-107179999D01*
X141511000Y-105893918D01*
X142019000Y-105893918D01*
X142019000Y-106926000D01*
X143051082Y-106926000D01*
X142998813Y-106730929D01*
X142902087Y-106523501D01*
X142770810Y-106336018D01*
X142608981Y-106174189D01*
X142421498Y-106042912D01*
X142214070Y-105946186D01*
X142019000Y-105893918D01*
X141511000Y-105893918D01*
X141511000Y-105893917D01*
X141315929Y-105946186D01*
X141108501Y-106042912D01*
X140921018Y-106174189D01*
X140759189Y-106336018D01*
X140627911Y-106523502D01*
X140609469Y-106563051D01*
X140562973Y-106616067D01*
X140495273Y-106635799D01*
X140427573Y-106616065D01*
X140381081Y-106563049D01*
X140362523Y-106523251D01*
X140231198Y-106335700D01*
X140231197Y-106335699D01*
X140231195Y-106335696D01*
X140069303Y-106173804D01*
X139881750Y-106042477D01*
X139674243Y-105945715D01*
X139453087Y-105886457D01*
X139225000Y-105866502D01*
X138996912Y-105886457D01*
X138775756Y-105945715D01*
X138568249Y-106042477D01*
X138380696Y-106173804D01*
X138218804Y-106335696D01*
X138087477Y-106523249D01*
X137990715Y-106730756D01*
X137931457Y-106951912D01*
X137911502Y-107179999D01*
X135786000Y-107179999D01*
X135786000Y-105893918D01*
X136294000Y-105893918D01*
X136294000Y-106926000D01*
X137326082Y-106926000D01*
X137273813Y-106730929D01*
X137177087Y-106523501D01*
X137045810Y-106336018D01*
X136883981Y-106174189D01*
X136696498Y-106042912D01*
X136489070Y-105946186D01*
X136294000Y-105893918D01*
X135786000Y-105893918D01*
X135786000Y-105893917D01*
X135590929Y-105946186D01*
X135383501Y-106042912D01*
X135196018Y-106174189D01*
X135034189Y-106336018D01*
X134902911Y-106523502D01*
X134884469Y-106563051D01*
X134837973Y-106616067D01*
X134770273Y-106635799D01*
X134702573Y-106616065D01*
X134656081Y-106563049D01*
X134637523Y-106523251D01*
X134506198Y-106335700D01*
X134506197Y-106335699D01*
X134506195Y-106335696D01*
X134344303Y-106173804D01*
X134156750Y-106042477D01*
X133949243Y-105945715D01*
X133728087Y-105886457D01*
X133500000Y-105866502D01*
X133271912Y-105886457D01*
X133050756Y-105945715D01*
X132843249Y-106042477D01*
X132655696Y-106173804D01*
X132493804Y-106335696D01*
X132362477Y-106523249D01*
X132265715Y-106730756D01*
X132206457Y-106951912D01*
X132186502Y-107179999D01*
X130011000Y-107179999D01*
X130011000Y-105893917D01*
X130518999Y-105893917D01*
X130519000Y-105893918D01*
X130519000Y-106926000D01*
X131551082Y-106926000D01*
X131498813Y-106730929D01*
X131402087Y-106523501D01*
X131270810Y-106336018D01*
X131108981Y-106174189D01*
X130921498Y-106042912D01*
X130714070Y-105946186D01*
X130518999Y-105893917D01*
X130011000Y-105893917D01*
X129815929Y-105946186D01*
X129608501Y-106042912D01*
X129421018Y-106174189D01*
X129259189Y-106336018D01*
X129127911Y-106523502D01*
X129109469Y-106563051D01*
X129062973Y-106616067D01*
X128995273Y-106635799D01*
X128927573Y-106616065D01*
X128881081Y-106563049D01*
X128862523Y-106523251D01*
X128731198Y-106335700D01*
X128731197Y-106335699D01*
X128731195Y-106335696D01*
X128569303Y-106173804D01*
X128381750Y-106042477D01*
X128174243Y-105945715D01*
X127953087Y-105886457D01*
X127725000Y-105866502D01*
X127496912Y-105886457D01*
X127275756Y-105945715D01*
X127068249Y-106042477D01*
X126880696Y-106173804D01*
X126718804Y-106335696D01*
X126587477Y-106523249D01*
X126490715Y-106730756D01*
X126431457Y-106951912D01*
X126411502Y-107179999D01*
X124286000Y-107179999D01*
X124286000Y-105893917D01*
X124793999Y-105893917D01*
X124794000Y-105893918D01*
X124794000Y-106926000D01*
X125826082Y-106926000D01*
X125773813Y-106730929D01*
X125677087Y-106523501D01*
X125545810Y-106336018D01*
X125383981Y-106174189D01*
X125196498Y-106042912D01*
X124989070Y-105946186D01*
X124793999Y-105893917D01*
X124286000Y-105893917D01*
X124090929Y-105946186D01*
X123883501Y-106042912D01*
X123696018Y-106174189D01*
X123534189Y-106336018D01*
X123402911Y-106523502D01*
X123384469Y-106563051D01*
X123337973Y-106616067D01*
X123270273Y-106635799D01*
X123202573Y-106616065D01*
X123156081Y-106563049D01*
X123137523Y-106523251D01*
X123006198Y-106335700D01*
X123006197Y-106335699D01*
X123006195Y-106335696D01*
X122844303Y-106173804D01*
X122656750Y-106042477D01*
X122449243Y-105945715D01*
X122228087Y-105886457D01*
X122000000Y-105866502D01*
X121771912Y-105886457D01*
X121550756Y-105945715D01*
X121343249Y-106042477D01*
X121155696Y-106173804D01*
X120993804Y-106335696D01*
X120862477Y-106523249D01*
X120765715Y-106730756D01*
X120706457Y-106951912D01*
X120686502Y-107180000D01*
X118511000Y-107180000D01*
X118511000Y-105893918D01*
X119019000Y-105893918D01*
X119019000Y-106926000D01*
X120051082Y-106926000D01*
X119998813Y-106730929D01*
X119902087Y-106523501D01*
X119770810Y-106336018D01*
X119608981Y-106174189D01*
X119421498Y-106042912D01*
X119214070Y-105946186D01*
X119019000Y-105893918D01*
X118511000Y-105893918D01*
X118511000Y-105893917D01*
X118315929Y-105946186D01*
X118108501Y-106042912D01*
X117921018Y-106174189D01*
X117759189Y-106336018D01*
X117627911Y-106523502D01*
X117609469Y-106563051D01*
X117562973Y-106616067D01*
X117495273Y-106635799D01*
X117427573Y-106616065D01*
X117381081Y-106563049D01*
X117362523Y-106523251D01*
X117231198Y-106335700D01*
X117231197Y-106335699D01*
X117231195Y-106335696D01*
X117069303Y-106173804D01*
X116881750Y-106042477D01*
X116674243Y-105945715D01*
X116453087Y-105886457D01*
X116225000Y-105866502D01*
X115996912Y-105886457D01*
X115775756Y-105945715D01*
X115568249Y-106042477D01*
X115380696Y-106173804D01*
X115218804Y-106335696D01*
X115087477Y-106523249D01*
X114990715Y-106730756D01*
X114931457Y-106951912D01*
X114911502Y-107180000D01*
X112746000Y-107180000D01*
X112746000Y-105893918D01*
X113254000Y-105893918D01*
X113254000Y-106926000D01*
X114286082Y-106926000D01*
X114233813Y-106730929D01*
X114137087Y-106523501D01*
X114005810Y-106336018D01*
X113843981Y-106174189D01*
X113656498Y-106042912D01*
X113449070Y-105946186D01*
X113254000Y-105893918D01*
X112746000Y-105893918D01*
X112746000Y-105893917D01*
X112550929Y-105946186D01*
X112343501Y-106042912D01*
X112156018Y-106174189D01*
X111994189Y-106336018D01*
X111862911Y-106523502D01*
X111844469Y-106563051D01*
X111797973Y-106616067D01*
X111730273Y-106635799D01*
X111662573Y-106616065D01*
X111616081Y-106563049D01*
X111597523Y-106523251D01*
X111466198Y-106335700D01*
X111466197Y-106335699D01*
X111466195Y-106335696D01*
X111304303Y-106173804D01*
X111116750Y-106042477D01*
X110909243Y-105945715D01*
X110688087Y-105886457D01*
X110460000Y-105866502D01*
X110231912Y-105886457D01*
X110010756Y-105945715D01*
X109803249Y-106042477D01*
X109615696Y-106173804D01*
X109453804Y-106335696D01*
X109322477Y-106523249D01*
X109225715Y-106730756D01*
X109166457Y-106951912D01*
X109146502Y-107180000D01*
X107011000Y-107180000D01*
X107011000Y-105893917D01*
X107518999Y-105893917D01*
X107519000Y-105893918D01*
X107519000Y-106926000D01*
X108551082Y-106926000D01*
X108498813Y-106730929D01*
X108402087Y-106523501D01*
X108270810Y-106336018D01*
X108108981Y-106174189D01*
X107921498Y-106042912D01*
X107714070Y-105946186D01*
X107518999Y-105893917D01*
X107011000Y-105893917D01*
X106815929Y-105946186D01*
X106608501Y-106042912D01*
X106421018Y-106174189D01*
X106259189Y-106336018D01*
X106127911Y-106523502D01*
X106109469Y-106563051D01*
X106062973Y-106616067D01*
X105995273Y-106635799D01*
X105927573Y-106616065D01*
X105881081Y-106563049D01*
X105862523Y-106523251D01*
X105731198Y-106335700D01*
X105731197Y-106335699D01*
X105731195Y-106335696D01*
X105569303Y-106173804D01*
X105381750Y-106042477D01*
X105174243Y-105945715D01*
X104953087Y-105886457D01*
X104725000Y-105866502D01*
X104496912Y-105886457D01*
X104275756Y-105945715D01*
X104068249Y-106042477D01*
X103880696Y-106173804D01*
X103718804Y-106335696D01*
X103587477Y-106523249D01*
X103490715Y-106730756D01*
X103431457Y-106951912D01*
X103411502Y-107180000D01*
X90844500Y-107180000D01*
X90844500Y-93004000D01*
X97636844Y-93004000D01*
X97655436Y-93228368D01*
X97655436Y-93228371D01*
X97655437Y-93228372D01*
X97710702Y-93446611D01*
X97801139Y-93652790D01*
X97924278Y-93841268D01*
X98067475Y-93996820D01*
X98096712Y-94050424D01*
X98097315Y-94111480D01*
X98069141Y-94165650D01*
X98018808Y-94200213D01*
X97992972Y-94209849D01*
X97903793Y-94243111D01*
X97786738Y-94330738D01*
X97699111Y-94447794D01*
X97648011Y-94584799D01*
X97641500Y-94645362D01*
X97641500Y-96442638D01*
X97648011Y-96503200D01*
X97699111Y-96640205D01*
X97786738Y-96757261D01*
X97903794Y-96844888D01*
X97903795Y-96844888D01*
X97903796Y-96844889D01*
X98040799Y-96895989D01*
X98101362Y-96902500D01*
X99898638Y-96902500D01*
X99959201Y-96895989D01*
X100096204Y-96844889D01*
X100213261Y-96757261D01*
X100300889Y-96640204D01*
X100351989Y-96503201D01*
X100358500Y-96442638D01*
X100358500Y-96381750D01*
X100376671Y-96316566D01*
X100425944Y-96270183D01*
X100492106Y-96255980D01*
X100499090Y-96256402D01*
X100499090Y-96256401D01*
X100499093Y-96256402D01*
X100558941Y-96245434D01*
X100566398Y-96244299D01*
X100626801Y-96236965D01*
X100636328Y-96233351D01*
X100658294Y-96227227D01*
X100668329Y-96225389D01*
X100723797Y-96200423D01*
X100730802Y-96197522D01*
X100787675Y-96175954D01*
X100796069Y-96170159D01*
X100815926Y-96158960D01*
X100825226Y-96154775D01*
X100873140Y-96117235D01*
X100879179Y-96112791D01*
X100929273Y-96078215D01*
X100969612Y-96032680D01*
X100974811Y-96027157D01*
X102829036Y-94172933D01*
X102858006Y-94151300D01*
X102891924Y-94138786D01*
X103044788Y-94106294D01*
X103219252Y-94028618D01*
X103373753Y-93916366D01*
X103501540Y-93774444D01*
X103597027Y-93609056D01*
X103656042Y-93427428D01*
X103660949Y-93380729D01*
X103672533Y-93339657D01*
X103697161Y-93304807D01*
X103850054Y-93151915D01*
X103890932Y-93124602D01*
X103939150Y-93115011D01*
X123178224Y-93115011D01*
X123217160Y-93121178D01*
X123252285Y-93139075D01*
X123281248Y-93160118D01*
X123455712Y-93237794D01*
X123642513Y-93277500D01*
X123833485Y-93277500D01*
X123833487Y-93277500D01*
X124020288Y-93237794D01*
X124194752Y-93160118D01*
X124349253Y-93047866D01*
X124477040Y-92905944D01*
X124572527Y-92740556D01*
X124631542Y-92558928D01*
X124651504Y-92369000D01*
X124631542Y-92179072D01*
X124572527Y-91997444D01*
X124572527Y-91997443D01*
X124477041Y-91832057D01*
X124349252Y-91690133D01*
X124194753Y-91577883D01*
X124194752Y-91577882D01*
X124020288Y-91500206D01*
X123833487Y-91460500D01*
X123642513Y-91460500D01*
X123642512Y-91460500D01*
X123622657Y-91464720D01*
X123561730Y-91462592D01*
X123508934Y-91432109D01*
X123476629Y-91380409D01*
X123435556Y-91254000D01*
X129142000Y-91254000D01*
X129142000Y-91898589D01*
X129148505Y-91959093D01*
X129199554Y-92095962D01*
X129287095Y-92212904D01*
X129404037Y-92300445D01*
X129540906Y-92351494D01*
X129601411Y-92358000D01*
X130246000Y-92358000D01*
X130246000Y-91254000D01*
X130754000Y-91254000D01*
X130754000Y-92358000D01*
X131398589Y-92358000D01*
X131459093Y-92351494D01*
X131595962Y-92300445D01*
X131712904Y-92212904D01*
X131800445Y-92095962D01*
X131851494Y-91959093D01*
X131858000Y-91898589D01*
X131858000Y-91254000D01*
X130754000Y-91254000D01*
X130246000Y-91254000D01*
X129142000Y-91254000D01*
X123435556Y-91254000D01*
X123429527Y-91235443D01*
X123334041Y-91070057D01*
X123206252Y-90928133D01*
X123051753Y-90815883D01*
X123051752Y-90815882D01*
X122894794Y-90746000D01*
X129142000Y-90746000D01*
X130246000Y-90746000D01*
X130246000Y-89642000D01*
X130754000Y-89642000D01*
X130754000Y-90746000D01*
X131858000Y-90746000D01*
X131858000Y-90101411D01*
X131851494Y-90040906D01*
X131800445Y-89904037D01*
X131712904Y-89787095D01*
X131595962Y-89699554D01*
X131459093Y-89648505D01*
X131398589Y-89642000D01*
X130754000Y-89642000D01*
X130246000Y-89642000D01*
X129601411Y-89642000D01*
X129540906Y-89648505D01*
X129404037Y-89699554D01*
X129287095Y-89787095D01*
X129199554Y-89904037D01*
X129148505Y-90040906D01*
X129142000Y-90101411D01*
X129142000Y-90746000D01*
X122894794Y-90746000D01*
X122877288Y-90738206D01*
X122690487Y-90698500D01*
X122499513Y-90698500D01*
X122374979Y-90724970D01*
X122312711Y-90738206D01*
X122138246Y-90815883D01*
X122057656Y-90874436D01*
X122022531Y-90892333D01*
X121983595Y-90898500D01*
X120696494Y-90898500D01*
X120640470Y-90885360D01*
X120596131Y-90848679D01*
X120572726Y-90796110D01*
X120575136Y-90738616D01*
X120602858Y-90688189D01*
X120611251Y-90678867D01*
X120611253Y-90678866D01*
X120739040Y-90536944D01*
X120834527Y-90371556D01*
X120893542Y-90189928D01*
X120913504Y-90000000D01*
X120893542Y-89810072D01*
X120857632Y-89699554D01*
X120834527Y-89628443D01*
X120739041Y-89463057D01*
X120611252Y-89321133D01*
X120456753Y-89208883D01*
X120456752Y-89208882D01*
X120282288Y-89131206D01*
X120095487Y-89091500D01*
X119904513Y-89091500D01*
X119838649Y-89105500D01*
X119717711Y-89131206D01*
X119543246Y-89208883D01*
X119462656Y-89267436D01*
X119427531Y-89285333D01*
X119388595Y-89291500D01*
X116611405Y-89291500D01*
X116572469Y-89285333D01*
X116537344Y-89267436D01*
X116456753Y-89208883D01*
X116456752Y-89208882D01*
X116282288Y-89131206D01*
X116095487Y-89091500D01*
X115904513Y-89091500D01*
X115838649Y-89105500D01*
X115717711Y-89131206D01*
X115543246Y-89208883D01*
X115388747Y-89321133D01*
X115260958Y-89463057D01*
X115165472Y-89628443D01*
X115106458Y-89810070D01*
X115086496Y-89999999D01*
X115106458Y-90189929D01*
X115165472Y-90371556D01*
X115260958Y-90536942D01*
X115397142Y-90688189D01*
X115424864Y-90738616D01*
X115427274Y-90796110D01*
X115403869Y-90848679D01*
X115359530Y-90885360D01*
X115303506Y-90898500D01*
X112407660Y-90898500D01*
X112350457Y-90884767D01*
X112305724Y-90846561D01*
X112283211Y-90792211D01*
X112287827Y-90733564D01*
X112318562Y-90683407D01*
X113066539Y-89935430D01*
X113095506Y-89913800D01*
X113129424Y-89901286D01*
X113282288Y-89868794D01*
X113456752Y-89791118D01*
X113611253Y-89678866D01*
X113739040Y-89536944D01*
X113834527Y-89371556D01*
X113893542Y-89189928D01*
X113898449Y-89143229D01*
X113910033Y-89102156D01*
X113934659Y-89067309D01*
X115261567Y-87740402D01*
X115302442Y-87713091D01*
X115350660Y-87703500D01*
X116101595Y-87703500D01*
X116140531Y-87709667D01*
X116175655Y-87727563D01*
X116256248Y-87786118D01*
X116430712Y-87863794D01*
X116617513Y-87903500D01*
X116808485Y-87903500D01*
X116808487Y-87903500D01*
X116995288Y-87863794D01*
X117169752Y-87786118D01*
X117250344Y-87727563D01*
X117285469Y-87709667D01*
X117324405Y-87703500D01*
X118768595Y-87703500D01*
X118807531Y-87709667D01*
X118842655Y-87727563D01*
X118923248Y-87786118D01*
X119097712Y-87863794D01*
X119284513Y-87903500D01*
X119475485Y-87903500D01*
X119475487Y-87903500D01*
X119662288Y-87863794D01*
X119836752Y-87786118D01*
X119917344Y-87727563D01*
X119952469Y-87709667D01*
X119991405Y-87703500D01*
X121435595Y-87703500D01*
X121474531Y-87709667D01*
X121509655Y-87727563D01*
X121590248Y-87786118D01*
X121764712Y-87863794D01*
X121951513Y-87903500D01*
X122142485Y-87903500D01*
X122142487Y-87903500D01*
X122329288Y-87863794D01*
X122503752Y-87786118D01*
X122584344Y-87727563D01*
X122619469Y-87709667D01*
X122658405Y-87703500D01*
X124515500Y-87703500D01*
X124578500Y-87720381D01*
X124624619Y-87766500D01*
X124641500Y-87829500D01*
X124641500Y-87898638D01*
X124648011Y-87959201D01*
X124659795Y-87990794D01*
X124699111Y-88096205D01*
X124786738Y-88213261D01*
X124903794Y-88300888D01*
X124903795Y-88300888D01*
X124903796Y-88300889D01*
X125040799Y-88351989D01*
X125101362Y-88358500D01*
X126898638Y-88358500D01*
X126959201Y-88351989D01*
X127096204Y-88300889D01*
X127213261Y-88213261D01*
X127300889Y-88096204D01*
X127351989Y-87959201D01*
X127358500Y-87898638D01*
X127358500Y-86101362D01*
X127351989Y-86040799D01*
X127300889Y-85903796D01*
X127300888Y-85903794D01*
X127213261Y-85786738D01*
X127096205Y-85699111D01*
X127017289Y-85669677D01*
X126959201Y-85648011D01*
X126898638Y-85641500D01*
X125101362Y-85641500D01*
X125040799Y-85648011D01*
X124903794Y-85699111D01*
X124786738Y-85786738D01*
X124699111Y-85903794D01*
X124648011Y-86040799D01*
X124641500Y-86101362D01*
X124641500Y-86160500D01*
X124624619Y-86223500D01*
X124578500Y-86269619D01*
X124515500Y-86286500D01*
X122658405Y-86286500D01*
X122619469Y-86280333D01*
X122584344Y-86262436D01*
X122503752Y-86203882D01*
X122329288Y-86126206D01*
X122142487Y-86086500D01*
X121951513Y-86086500D01*
X121826978Y-86112970D01*
X121764711Y-86126206D01*
X121590246Y-86203883D01*
X121509656Y-86262436D01*
X121474531Y-86280333D01*
X121435595Y-86286500D01*
X119991405Y-86286500D01*
X119952469Y-86280333D01*
X119917344Y-86262436D01*
X119836752Y-86203882D01*
X119662288Y-86126206D01*
X119475487Y-86086500D01*
X119284513Y-86086500D01*
X119159978Y-86112970D01*
X119097711Y-86126206D01*
X118923246Y-86203883D01*
X118842656Y-86262436D01*
X118807531Y-86280333D01*
X118768595Y-86286500D01*
X117324405Y-86286500D01*
X117285469Y-86280333D01*
X117250344Y-86262436D01*
X117169752Y-86203882D01*
X116995288Y-86126206D01*
X116808487Y-86086500D01*
X116617513Y-86086500D01*
X116492978Y-86112970D01*
X116430711Y-86126206D01*
X116256246Y-86203883D01*
X116175656Y-86262436D01*
X116140531Y-86280333D01*
X116101595Y-86286500D01*
X115030206Y-86286500D01*
X115022598Y-86286270D01*
X114961907Y-86282598D01*
X114902087Y-86293559D01*
X114894570Y-86294703D01*
X114834195Y-86302035D01*
X114824655Y-86305653D01*
X114802705Y-86311772D01*
X114792675Y-86313610D01*
X114737219Y-86338568D01*
X114730191Y-86341479D01*
X114673323Y-86363046D01*
X114664928Y-86368841D01*
X114645073Y-86380039D01*
X114635775Y-86384224D01*
X114587899Y-86421731D01*
X114581774Y-86426238D01*
X114531729Y-86460783D01*
X114531727Y-86460784D01*
X114531727Y-86460785D01*
X114528315Y-86464636D01*
X114491388Y-86506317D01*
X114486172Y-86511856D01*
X112933466Y-88064563D01*
X112904493Y-88086199D01*
X112870569Y-88098714D01*
X112717714Y-88131205D01*
X112543246Y-88208883D01*
X112388747Y-88321133D01*
X112260958Y-88463057D01*
X112165472Y-88628443D01*
X112106458Y-88810070D01*
X112101550Y-88856769D01*
X112089965Y-88897842D01*
X112065336Y-88932692D01*
X111279435Y-89718595D01*
X111238557Y-89745909D01*
X111190339Y-89755500D01*
X111042859Y-89755500D01*
X103822405Y-89755500D01*
X103783469Y-89749333D01*
X103748344Y-89731436D01*
X103730670Y-89718595D01*
X103667752Y-89672882D01*
X103493288Y-89595206D01*
X103306487Y-89555500D01*
X103115513Y-89555500D01*
X102990979Y-89581970D01*
X102928711Y-89595206D01*
X102754246Y-89672883D01*
X102673656Y-89731436D01*
X102638531Y-89749333D01*
X102599595Y-89755500D01*
X100228038Y-89755500D01*
X100168069Y-89740314D01*
X100122555Y-89698416D01*
X100075722Y-89626732D01*
X99923240Y-89461094D01*
X99923239Y-89461093D01*
X99923237Y-89461091D01*
X99808203Y-89371556D01*
X99745576Y-89322811D01*
X99711792Y-89304528D01*
X99663521Y-89258212D01*
X99645762Y-89193715D01*
X99663521Y-89129217D01*
X99711793Y-89082901D01*
X99745300Y-89064768D01*
X99922903Y-88926533D01*
X100075321Y-88760962D01*
X100198419Y-88572548D01*
X100288822Y-88366451D01*
X100336544Y-88178000D01*
X97663455Y-88178000D01*
X97711177Y-88366451D01*
X97801580Y-88572548D01*
X97924678Y-88760962D01*
X98077096Y-88926533D01*
X98254702Y-89064769D01*
X98288207Y-89082902D01*
X98336478Y-89129218D01*
X98354237Y-89193715D01*
X98336478Y-89258212D01*
X98288207Y-89304528D01*
X98254423Y-89322811D01*
X98076762Y-89461091D01*
X97924278Y-89626731D01*
X97801139Y-89815209D01*
X97710702Y-90021388D01*
X97655437Y-90239627D01*
X97655436Y-90239632D01*
X97636844Y-90464000D01*
X97655436Y-90688368D01*
X97655436Y-90688371D01*
X97655437Y-90688372D01*
X97710702Y-90906611D01*
X97801139Y-91112790D01*
X97924278Y-91301268D01*
X98076762Y-91466908D01*
X98254418Y-91605185D01*
X98254420Y-91605186D01*
X98254424Y-91605189D01*
X98287682Y-91623187D01*
X98335952Y-91669503D01*
X98353711Y-91734000D01*
X98335952Y-91798497D01*
X98287682Y-91844812D01*
X98262794Y-91858281D01*
X98254418Y-91862814D01*
X98076762Y-92001091D01*
X97924278Y-92166731D01*
X97801139Y-92355209D01*
X97710702Y-92561388D01*
X97665331Y-92740556D01*
X97655436Y-92779632D01*
X97636844Y-93004000D01*
X90844500Y-93004000D01*
X90844500Y-87669999D01*
X97663455Y-87669999D01*
X97663456Y-87670000D01*
X98746000Y-87670000D01*
X98746000Y-86589609D01*
X99254000Y-86589609D01*
X99254000Y-87670000D01*
X100336544Y-87670000D01*
X100336544Y-87669999D01*
X100288822Y-87481548D01*
X100198419Y-87275451D01*
X100098164Y-87122000D01*
X107290496Y-87122000D01*
X107310458Y-87311929D01*
X107369472Y-87493556D01*
X107464958Y-87658942D01*
X107464960Y-87658944D01*
X107592747Y-87800866D01*
X107747248Y-87913118D01*
X107921712Y-87990794D01*
X108108513Y-88030500D01*
X108299485Y-88030500D01*
X108299487Y-88030500D01*
X108486288Y-87990794D01*
X108660752Y-87913118D01*
X108815253Y-87800866D01*
X108872364Y-87737436D01*
X108931270Y-87700629D01*
X109000730Y-87700629D01*
X109059635Y-87737436D01*
X109116747Y-87800866D01*
X109271248Y-87913118D01*
X109445712Y-87990794D01*
X109632513Y-88030500D01*
X109823485Y-88030500D01*
X109823487Y-88030500D01*
X110010288Y-87990794D01*
X110184752Y-87913118D01*
X110339253Y-87800866D01*
X110467040Y-87658944D01*
X110562527Y-87493556D01*
X110621542Y-87311928D01*
X110641504Y-87122000D01*
X110621542Y-86932072D01*
X110562527Y-86750444D01*
X110562527Y-86750443D01*
X110467041Y-86585057D01*
X110393864Y-86503786D01*
X110369869Y-86464629D01*
X110361500Y-86419475D01*
X110361500Y-84316153D01*
X110374252Y-84260918D01*
X110409927Y-84216864D01*
X110461299Y-84192907D01*
X110518288Y-84180794D01*
X110692752Y-84103118D01*
X110847253Y-83990866D01*
X110927479Y-83901766D01*
X208624787Y-83901766D01*
X208654413Y-84171015D01*
X208666400Y-84216864D01*
X208722928Y-84433088D01*
X208828870Y-84682390D01*
X208969982Y-84913610D01*
X209143255Y-85121820D01*
X209143256Y-85121821D01*
X209143258Y-85121823D01*
X209344993Y-85302578D01*
X209344995Y-85302579D01*
X209344998Y-85302582D01*
X209570910Y-85452044D01*
X209703104Y-85514014D01*
X209816171Y-85567018D01*
X209816173Y-85567018D01*
X209816176Y-85567020D01*
X210075569Y-85645060D01*
X210075572Y-85645060D01*
X210075574Y-85645061D01*
X210343558Y-85684500D01*
X210343561Y-85684500D01*
X210546630Y-85684500D01*
X210546631Y-85684500D01*
X210749156Y-85669677D01*
X211013553Y-85610780D01*
X211266558Y-85514014D01*
X211502777Y-85381441D01*
X211717177Y-85215888D01*
X211905186Y-85020881D01*
X212062799Y-84800579D01*
X212186656Y-84559675D01*
X212274118Y-84303305D01*
X212323319Y-84036933D01*
X212333212Y-83766235D01*
X212303586Y-83496982D01*
X212235072Y-83234912D01*
X212129130Y-82985610D01*
X211988018Y-82754390D01*
X211814745Y-82546180D01*
X211752905Y-82490771D01*
X211613006Y-82365421D01*
X211613003Y-82365419D01*
X211613002Y-82365418D01*
X211387090Y-82215956D01*
X211372000Y-82208882D01*
X211141828Y-82100981D01*
X210882425Y-82022938D01*
X210614442Y-81983500D01*
X210614439Y-81983500D01*
X210411369Y-81983500D01*
X210377614Y-81985970D01*
X210208839Y-81998323D01*
X209944449Y-82057219D01*
X209691441Y-82153985D01*
X209455225Y-82286557D01*
X209240820Y-82452114D01*
X209052815Y-82647117D01*
X208895200Y-82867422D01*
X208771342Y-83108328D01*
X208683882Y-83364693D01*
X208634681Y-83631065D01*
X208624787Y-83901766D01*
X110927479Y-83901766D01*
X110975040Y-83848944D01*
X111070527Y-83683556D01*
X111129542Y-83501928D01*
X111149504Y-83312000D01*
X111129542Y-83122072D01*
X111095195Y-83016363D01*
X111070527Y-82940443D01*
X110975041Y-82775057D01*
X110847252Y-82633133D01*
X110770002Y-82577007D01*
X110692752Y-82520882D01*
X110518288Y-82443206D01*
X110331487Y-82403500D01*
X110140513Y-82403500D01*
X110027139Y-82427598D01*
X109953706Y-82443207D01*
X109871341Y-82479878D01*
X109820093Y-82490771D01*
X109768845Y-82479878D01*
X109726458Y-82449082D01*
X109611252Y-82321133D01*
X109466488Y-82215956D01*
X109456752Y-82208882D01*
X109282288Y-82131206D01*
X109095487Y-82091500D01*
X108904513Y-82091500D01*
X108790723Y-82115687D01*
X108717711Y-82131206D01*
X108543246Y-82208883D01*
X108388747Y-82321133D01*
X108260958Y-82463057D01*
X108165472Y-82628443D01*
X108106458Y-82810070D01*
X108089093Y-82975290D01*
X108077509Y-83016363D01*
X108052879Y-83051214D01*
X107815338Y-83288756D01*
X107799015Y-83301834D01*
X107750370Y-83353635D01*
X107747620Y-83356473D01*
X107727868Y-83376226D01*
X107727864Y-83376230D01*
X107727865Y-83376230D01*
X107725379Y-83379433D01*
X107717687Y-83388439D01*
X107687413Y-83420678D01*
X107677652Y-83438434D01*
X107666801Y-83454952D01*
X107654385Y-83470959D01*
X107636824Y-83511539D01*
X107631604Y-83522195D01*
X107610304Y-83560940D01*
X107605267Y-83580559D01*
X107598864Y-83599261D01*
X107590818Y-83617855D01*
X107583901Y-83661524D01*
X107581495Y-83673144D01*
X107570500Y-83715970D01*
X107570500Y-83736224D01*
X107568949Y-83755934D01*
X107565779Y-83775942D01*
X107569941Y-83819961D01*
X107570500Y-83831819D01*
X107570500Y-86419475D01*
X107562131Y-86464629D01*
X107538136Y-86503786D01*
X107464958Y-86585057D01*
X107369472Y-86750443D01*
X107310458Y-86932070D01*
X107290496Y-87122000D01*
X100098164Y-87122000D01*
X100075321Y-87087037D01*
X99922903Y-86921466D01*
X99745302Y-86783233D01*
X99547368Y-86676116D01*
X99334514Y-86603044D01*
X99254000Y-86589609D01*
X98746000Y-86589609D01*
X98665485Y-86603044D01*
X98452631Y-86676116D01*
X98254697Y-86783233D01*
X98077096Y-86921466D01*
X97924678Y-87087037D01*
X97801580Y-87275451D01*
X97711177Y-87481548D01*
X97663455Y-87669999D01*
X90844500Y-87669999D01*
X90844500Y-83901766D01*
X92545787Y-83901766D01*
X92575413Y-84171015D01*
X92587400Y-84216864D01*
X92643928Y-84433088D01*
X92749870Y-84682390D01*
X92890982Y-84913610D01*
X93064255Y-85121820D01*
X93064256Y-85121821D01*
X93064258Y-85121823D01*
X93265993Y-85302578D01*
X93265995Y-85302579D01*
X93265998Y-85302582D01*
X93491910Y-85452044D01*
X93624104Y-85514014D01*
X93737171Y-85567018D01*
X93737173Y-85567018D01*
X93737176Y-85567020D01*
X93996569Y-85645060D01*
X93996572Y-85645060D01*
X93996574Y-85645061D01*
X94264558Y-85684500D01*
X94264561Y-85684500D01*
X94467630Y-85684500D01*
X94467631Y-85684500D01*
X94670156Y-85669677D01*
X94934553Y-85610780D01*
X95187558Y-85514014D01*
X95423777Y-85381441D01*
X95638177Y-85215888D01*
X95826186Y-85020881D01*
X95983799Y-84800579D01*
X96107656Y-84559675D01*
X96195118Y-84303305D01*
X96244319Y-84036933D01*
X96254212Y-83766235D01*
X96224586Y-83496982D01*
X96156072Y-83234912D01*
X96050130Y-82985610D01*
X95909018Y-82754390D01*
X95735745Y-82546180D01*
X95673905Y-82490771D01*
X95534006Y-82365421D01*
X95534003Y-82365419D01*
X95534002Y-82365418D01*
X95308090Y-82215956D01*
X95293000Y-82208882D01*
X95062828Y-82100981D01*
X94803425Y-82022938D01*
X94535442Y-81983500D01*
X94535439Y-81983500D01*
X94332369Y-81983500D01*
X94298614Y-81985970D01*
X94129839Y-81998323D01*
X93865449Y-82057219D01*
X93612441Y-82153985D01*
X93376225Y-82286557D01*
X93161820Y-82452114D01*
X92973815Y-82647117D01*
X92816200Y-82867422D01*
X92692342Y-83108328D01*
X92604882Y-83364693D01*
X92555681Y-83631065D01*
X92545787Y-83901766D01*
X90844500Y-83901766D01*
X90844500Y-83837088D01*
X90844652Y-83830906D01*
X90848816Y-83746142D01*
X90851989Y-83681557D01*
X90862303Y-83484750D01*
X90863489Y-83472902D01*
X90888362Y-83305223D01*
X90888489Y-83304394D01*
X90916446Y-83127878D01*
X90918654Y-83117055D01*
X90960697Y-82949209D01*
X90961174Y-82947371D01*
X91006451Y-82778394D01*
X91009516Y-82768586D01*
X91014596Y-82754390D01*
X91052978Y-82647119D01*
X91068268Y-82604386D01*
X91069251Y-82601732D01*
X91131384Y-82439870D01*
X91135109Y-82431161D01*
X91136937Y-82427294D01*
X91210038Y-82272735D01*
X91211569Y-82269618D01*
X91290001Y-82115687D01*
X91294142Y-82108207D01*
X91384440Y-81957555D01*
X91386799Y-81953775D01*
X91480604Y-81809329D01*
X91485035Y-81802948D01*
X91589805Y-81661682D01*
X91592999Y-81657561D01*
X91701304Y-81523816D01*
X91705780Y-81518593D01*
X91823992Y-81388166D01*
X91828177Y-81383771D01*
X91949771Y-81262177D01*
X91954166Y-81257992D01*
X92084593Y-81139780D01*
X92089816Y-81135304D01*
X92223561Y-81026999D01*
X92227682Y-81023805D01*
X92368948Y-80919035D01*
X92375329Y-80914604D01*
X92519775Y-80820799D01*
X92523555Y-80818440D01*
X92674207Y-80728142D01*
X92681687Y-80724001D01*
X92835618Y-80645569D01*
X92838735Y-80644038D01*
X92997160Y-80569109D01*
X93005870Y-80565384D01*
X93167732Y-80503251D01*
X93170386Y-80502268D01*
X93248760Y-80474225D01*
X93334593Y-80443513D01*
X93344394Y-80440451D01*
X93513371Y-80395174D01*
X93515209Y-80394697D01*
X93683055Y-80352654D01*
X93693878Y-80350446D01*
X93870394Y-80322489D01*
X93871223Y-80322362D01*
X94038902Y-80297489D01*
X94050750Y-80296303D01*
X94247537Y-80285990D01*
X94396906Y-80278651D01*
X94403088Y-80278500D01*
X210475912Y-80278500D01*
X210482093Y-80278651D01*
G37*
G04 #@! TD.AperFunction*
M02*
