%FSLAX45Y45*%
G04 Gerber Fmt 4.5, Leading zero omitted, Abs format (unit mm)*
G04 Created by KiCad (PCBNEW (6.0.0)) date 2022-03-13 18:44:17*
%MOMM*%
%LPD*%
G01*
G04 APERTURE LIST*
%TA.AperFunction,Profile*%
%ADD10C,0.100000*%
%TD*%
%ADD11C,0.200000*%
G04 APERTURE END LIST*
D10*
X11557000Y-10096500D02*
X11557000Y-11811000D01*
X11557000Y-11811000D02*
X13652500Y-11811000D01*
X11557000Y-6604000D02*
X11557000Y-10096500D01*
X13652500Y-6604000D02*
X11557000Y-6604000D01*
X13652500Y-11811000D02*
X13652500Y-6604000D01*
D11*
X11809619Y-12126476D02*
X11809619Y-11926476D01*
X11857238Y-11926476D01*
X11885809Y-11936000D01*
X11904857Y-11955048D01*
X11914381Y-11974095D01*
X11923905Y-12012190D01*
X11923905Y-12040762D01*
X11914381Y-12078857D01*
X11904857Y-12097905D01*
X11885809Y-12116952D01*
X11857238Y-12126476D01*
X11809619Y-12126476D01*
X12009619Y-12126476D02*
X12009619Y-11993143D01*
X12009619Y-12031238D02*
X12019143Y-12012190D01*
X12028667Y-12002667D01*
X12047714Y-11993143D01*
X12066762Y-11993143D01*
X12133428Y-12126476D02*
X12133428Y-11993143D01*
X12133428Y-11926476D02*
X12123905Y-11936000D01*
X12133428Y-11945524D01*
X12142952Y-11936000D01*
X12133428Y-11926476D01*
X12133428Y-11945524D01*
X12257238Y-12126476D02*
X12238190Y-12116952D01*
X12228667Y-12097905D01*
X12228667Y-11926476D01*
X12362000Y-12126476D02*
X12342952Y-12116952D01*
X12333428Y-12097905D01*
X12333428Y-11926476D01*
X12590571Y-12126476D02*
X12590571Y-11926476D01*
X12657238Y-12069333D01*
X12723905Y-11926476D01*
X12723905Y-12126476D01*
X12904857Y-12126476D02*
X12904857Y-12021714D01*
X12895333Y-12002667D01*
X12876286Y-11993143D01*
X12838190Y-11993143D01*
X12819143Y-12002667D01*
X12904857Y-12116952D02*
X12885809Y-12126476D01*
X12838190Y-12126476D01*
X12819143Y-12116952D01*
X12809619Y-12097905D01*
X12809619Y-12078857D01*
X12819143Y-12059809D01*
X12838190Y-12050286D01*
X12885809Y-12050286D01*
X12904857Y-12040762D01*
X13000095Y-11993143D02*
X13000095Y-12193143D01*
X13000095Y-12002667D02*
X13019143Y-11993143D01*
X13057238Y-11993143D01*
X13076286Y-12002667D01*
X13085809Y-12012190D01*
X13095333Y-12031238D01*
X13095333Y-12088381D01*
X13085809Y-12107428D01*
X13076286Y-12116952D01*
X13057238Y-12126476D01*
X13019143Y-12126476D01*
X13000095Y-12116952D01*
X13181048Y-12107428D02*
X13190571Y-12116952D01*
X13181048Y-12126476D01*
X13171524Y-12116952D01*
X13181048Y-12107428D01*
X13181048Y-12126476D01*
X13181048Y-12002667D02*
X13190571Y-12012190D01*
X13181048Y-12021714D01*
X13171524Y-12012190D01*
X13181048Y-12002667D01*
X13181048Y-12021714D01*
M02*
