%FSLAX45Y45*%
G04 Gerber Fmt 4.5, Leading zero omitted, Abs format (unit mm)*
G04 Created by KiCad (PCBNEW (6.0.0)) date 2022-03-13 18:44:17*
%MOMM*%
%LPD*%
G01*
G04 APERTURE LIST*
%TA.AperFunction,Profile*%
%ADD10C,0.100000*%
%TD*%
%ADD11C,0.200000*%
%ADD12C,0.080000*%
G04 APERTURE END LIST*
D10*
X11557000Y-10096500D02*
X11557000Y-11811000D01*
X11557000Y-11811000D02*
X13652500Y-11811000D01*
X11557000Y-6604000D02*
X11557000Y-10096500D01*
X13652500Y-6604000D02*
X11557000Y-6604000D01*
X13652500Y-11811000D02*
X13652500Y-6604000D01*
D11*
D12*
X11680000Y-8405500D02*
X11760000Y-8485500D01*
X11760000Y-8405500D02*
X11680000Y-8485500D01*
X11680000Y-8659500D02*
X11760000Y-8739500D01*
X11760000Y-8659500D02*
X11680000Y-8739500D01*
X11680000Y-8913500D02*
X11760000Y-8993500D01*
X11760000Y-8913500D02*
X11680000Y-8993500D01*
X11680000Y-9167500D02*
X11760000Y-9247500D01*
X11760000Y-9167500D02*
X11680000Y-9247500D01*
X11680000Y-9421500D02*
X11760000Y-9501500D01*
X11760000Y-9421500D02*
X11680000Y-9501500D01*
X11680000Y-9675500D02*
X11760000Y-9755500D01*
X11760000Y-9675500D02*
X11680000Y-9755500D01*
X11806500Y-6768950D02*
X11886500Y-6848950D01*
X11886500Y-6768950D02*
X11806500Y-6848950D01*
X11806500Y-7022950D02*
X11886500Y-7102950D01*
X11886500Y-7022950D02*
X11806500Y-7102950D01*
X11806500Y-7276950D02*
X11886500Y-7356950D01*
X11886500Y-7276950D02*
X11806500Y-7356950D01*
X11806500Y-7530950D02*
X11886500Y-7610950D01*
X11886500Y-7530950D02*
X11806500Y-7610950D01*
X11806500Y-7784950D02*
X11886500Y-7864950D01*
X11886500Y-7784950D02*
X11806500Y-7864950D01*
X11806500Y-8038950D02*
X11886500Y-8118950D01*
X11886500Y-8038950D02*
X11806500Y-8118950D01*
X11806500Y-8292950D02*
X11886500Y-8372950D01*
X11886500Y-8292950D02*
X11806500Y-8372950D01*
X11806500Y-8546950D02*
X11886500Y-8626950D01*
X11886500Y-8546950D02*
X11806500Y-8626950D01*
X11806500Y-8800950D02*
X11886500Y-8880950D01*
X11886500Y-8800950D02*
X11806500Y-8880950D01*
X11806500Y-9054950D02*
X11886500Y-9134950D01*
X11886500Y-9054950D02*
X11806500Y-9134950D01*
X11806500Y-9308950D02*
X11886500Y-9388950D01*
X11886500Y-9308950D02*
X11806500Y-9388950D01*
X11806500Y-9562950D02*
X11886500Y-9642950D01*
X11886500Y-9562950D02*
X11806500Y-9642950D01*
X11806500Y-9816950D02*
X11886500Y-9896950D01*
X11886500Y-9816950D02*
X11806500Y-9896950D01*
X11806500Y-10070950D02*
X11886500Y-10150950D01*
X11886500Y-10070950D02*
X11806500Y-10150950D01*
X11806500Y-10324950D02*
X11886500Y-10404950D01*
X11886500Y-10324950D02*
X11806500Y-10404950D01*
X11806500Y-10578950D02*
X11886500Y-10658950D01*
X11886500Y-10578950D02*
X11806500Y-10658950D01*
X11806500Y-10832950D02*
X11886500Y-10912950D01*
X11886500Y-10832950D02*
X11806500Y-10912950D01*
X11806500Y-11086950D02*
X11886500Y-11166950D01*
X11886500Y-11086950D02*
X11806500Y-11166950D01*
X11806500Y-11340950D02*
X11886500Y-11420950D01*
X11886500Y-11340950D02*
X11806500Y-11420950D01*
X11806500Y-11594950D02*
X11886500Y-11674950D01*
X11886500Y-11594950D02*
X11806500Y-11674950D01*
X11934000Y-8151500D02*
X12014000Y-8231500D01*
X12014000Y-8151500D02*
X11934000Y-8231500D01*
X11934000Y-8405500D02*
X12014000Y-8485500D01*
X12014000Y-8405500D02*
X11934000Y-8485500D01*
X11934000Y-8659500D02*
X12014000Y-8739500D01*
X12014000Y-8659500D02*
X11934000Y-8739500D01*
X11934000Y-8913500D02*
X12014000Y-8993500D01*
X12014000Y-8913500D02*
X11934000Y-8993500D01*
X11934000Y-9167500D02*
X12014000Y-9247500D01*
X12014000Y-9167500D02*
X11934000Y-9247500D01*
X11934000Y-9421500D02*
X12014000Y-9501500D01*
X12014000Y-9421500D02*
X11934000Y-9501500D01*
X11934000Y-9675500D02*
X12014000Y-9755500D01*
X12014000Y-9675500D02*
X11934000Y-9755500D01*
X11934000Y-9929500D02*
X12014000Y-10009500D01*
X12014000Y-9929500D02*
X11934000Y-10009500D01*
X12188000Y-8151500D02*
X12268000Y-8231500D01*
X12268000Y-8151500D02*
X12188000Y-8231500D01*
X12188000Y-8405500D02*
X12268000Y-8485500D01*
X12268000Y-8405500D02*
X12188000Y-8485500D01*
X12188000Y-9675500D02*
X12268000Y-9755500D01*
X12268000Y-9675500D02*
X12188000Y-9755500D01*
X12188000Y-9929500D02*
X12268000Y-10009500D01*
X12268000Y-9929500D02*
X12188000Y-10009500D01*
X12442000Y-8151500D02*
X12522000Y-8231500D01*
X12522000Y-8151500D02*
X12442000Y-8231500D01*
X12442000Y-8405500D02*
X12522000Y-8485500D01*
X12522000Y-8405500D02*
X12442000Y-8485500D01*
X12442000Y-9675500D02*
X12522000Y-9755500D01*
X12522000Y-9675500D02*
X12442000Y-9755500D01*
X12442000Y-9929500D02*
X12522000Y-10009500D01*
X12522000Y-9929500D02*
X12442000Y-10009500D01*
X12696000Y-8151500D02*
X12776000Y-8231500D01*
X12776000Y-8151500D02*
X12696000Y-8231500D01*
X12696000Y-8405500D02*
X12776000Y-8485500D01*
X12776000Y-8405500D02*
X12696000Y-8485500D01*
X12696000Y-9675500D02*
X12776000Y-9755500D01*
X12776000Y-9675500D02*
X12696000Y-9755500D01*
X12696000Y-9929500D02*
X12776000Y-10009500D01*
X12776000Y-9929500D02*
X12696000Y-10009500D01*
X12950000Y-8151500D02*
X13030000Y-8231500D01*
X13030000Y-8151500D02*
X12950000Y-8231500D01*
X12950000Y-8405500D02*
X13030000Y-8485500D01*
X13030000Y-8405500D02*
X12950000Y-8485500D01*
X12950000Y-9675500D02*
X13030000Y-9755500D01*
X13030000Y-9675500D02*
X12950000Y-9755500D01*
X12950000Y-9929500D02*
X13030000Y-10009500D01*
X13030000Y-9929500D02*
X12950000Y-10009500D01*
X13204000Y-8151500D02*
X13284000Y-8231500D01*
X13284000Y-8151500D02*
X13204000Y-8231500D01*
X13204000Y-8405500D02*
X13284000Y-8485500D01*
X13284000Y-8405500D02*
X13204000Y-8485500D01*
X13204000Y-8659500D02*
X13284000Y-8739500D01*
X13284000Y-8659500D02*
X13204000Y-8739500D01*
X13204000Y-8913500D02*
X13284000Y-8993500D01*
X13284000Y-8913500D02*
X13204000Y-8993500D01*
X13204000Y-9167500D02*
X13284000Y-9247500D01*
X13284000Y-9167500D02*
X13204000Y-9247500D01*
X13204000Y-9421500D02*
X13284000Y-9501500D01*
X13284000Y-9421500D02*
X13204000Y-9501500D01*
X13204000Y-9675500D02*
X13284000Y-9755500D01*
X13284000Y-9675500D02*
X13204000Y-9755500D01*
X13204000Y-9929500D02*
X13284000Y-10009500D01*
X13284000Y-9929500D02*
X13204000Y-10009500D01*
X13330500Y-6768950D02*
X13410500Y-6848950D01*
X13410500Y-6768950D02*
X13330500Y-6848950D01*
X13330500Y-7022950D02*
X13410500Y-7102950D01*
X13410500Y-7022950D02*
X13330500Y-7102950D01*
X13330500Y-7276950D02*
X13410500Y-7356950D01*
X13410500Y-7276950D02*
X13330500Y-7356950D01*
X13330500Y-7530950D02*
X13410500Y-7610950D01*
X13410500Y-7530950D02*
X13330500Y-7610950D01*
X13330500Y-7784950D02*
X13410500Y-7864950D01*
X13410500Y-7784950D02*
X13330500Y-7864950D01*
X13330500Y-8038950D02*
X13410500Y-8118950D01*
X13410500Y-8038950D02*
X13330500Y-8118950D01*
X13330500Y-8292950D02*
X13410500Y-8372950D01*
X13410500Y-8292950D02*
X13330500Y-8372950D01*
X13330500Y-8546950D02*
X13410500Y-8626950D01*
X13410500Y-8546950D02*
X13330500Y-8626950D01*
X13330500Y-8800950D02*
X13410500Y-8880950D01*
X13410500Y-8800950D02*
X13330500Y-8880950D01*
X13330500Y-9054950D02*
X13410500Y-9134950D01*
X13410500Y-9054950D02*
X13330500Y-9134950D01*
X13330500Y-9308950D02*
X13410500Y-9388950D01*
X13410500Y-9308950D02*
X13330500Y-9388950D01*
X13330500Y-9562950D02*
X13410500Y-9642950D01*
X13410500Y-9562950D02*
X13330500Y-9642950D01*
X13330500Y-9816950D02*
X13410500Y-9896950D01*
X13410500Y-9816950D02*
X13330500Y-9896950D01*
X13330500Y-10070950D02*
X13410500Y-10150950D01*
X13410500Y-10070950D02*
X13330500Y-10150950D01*
X13330500Y-10324950D02*
X13410500Y-10404950D01*
X13410500Y-10324950D02*
X13330500Y-10404950D01*
X13330500Y-10578950D02*
X13410500Y-10658950D01*
X13410500Y-10578950D02*
X13330500Y-10658950D01*
X13330500Y-10832950D02*
X13410500Y-10912950D01*
X13410500Y-10832950D02*
X13330500Y-10912950D01*
X13330500Y-11086950D02*
X13410500Y-11166950D01*
X13410500Y-11086950D02*
X13330500Y-11166950D01*
X13330500Y-11340950D02*
X13410500Y-11420950D01*
X13410500Y-11340950D02*
X13330500Y-11420950D01*
X13330500Y-11594950D02*
X13410500Y-11674950D01*
X13410500Y-11594950D02*
X13330500Y-11674950D01*
X13458000Y-8405500D02*
X13538000Y-8485500D01*
X13538000Y-8405500D02*
X13458000Y-8485500D01*
X13458000Y-8659500D02*
X13538000Y-8739500D01*
X13538000Y-8659500D02*
X13458000Y-8739500D01*
X13458000Y-8913500D02*
X13538000Y-8993500D01*
X13538000Y-8913500D02*
X13458000Y-8993500D01*
X13458000Y-9167500D02*
X13538000Y-9247500D01*
X13538000Y-9167500D02*
X13458000Y-9247500D01*
X13458000Y-9421500D02*
X13538000Y-9501500D01*
X13538000Y-9421500D02*
X13458000Y-9501500D01*
X13458000Y-9675500D02*
X13538000Y-9755500D01*
X13538000Y-9675500D02*
X13458000Y-9755500D01*
D11*
X11809619Y-12126476D02*
X11809619Y-11926476D01*
X11857238Y-11926476D01*
X11885809Y-11936000D01*
X11904857Y-11955048D01*
X11914381Y-11974095D01*
X11923905Y-12012190D01*
X11923905Y-12040762D01*
X11914381Y-12078857D01*
X11904857Y-12097905D01*
X11885809Y-12116952D01*
X11857238Y-12126476D01*
X11809619Y-12126476D01*
X12009619Y-12126476D02*
X12009619Y-11993143D01*
X12009619Y-12031238D02*
X12019143Y-12012190D01*
X12028667Y-12002667D01*
X12047714Y-11993143D01*
X12066762Y-11993143D01*
X12133428Y-12126476D02*
X12133428Y-11993143D01*
X12133428Y-11926476D02*
X12123905Y-11936000D01*
X12133428Y-11945524D01*
X12142952Y-11936000D01*
X12133428Y-11926476D01*
X12133428Y-11945524D01*
X12257238Y-12126476D02*
X12238190Y-12116952D01*
X12228667Y-12097905D01*
X12228667Y-11926476D01*
X12362000Y-12126476D02*
X12342952Y-12116952D01*
X12333428Y-12097905D01*
X12333428Y-11926476D01*
X12590571Y-12126476D02*
X12590571Y-11926476D01*
X12657238Y-12069333D01*
X12723905Y-11926476D01*
X12723905Y-12126476D01*
X12904857Y-12126476D02*
X12904857Y-12021714D01*
X12895333Y-12002667D01*
X12876286Y-11993143D01*
X12838190Y-11993143D01*
X12819143Y-12002667D01*
X12904857Y-12116952D02*
X12885809Y-12126476D01*
X12838190Y-12126476D01*
X12819143Y-12116952D01*
X12809619Y-12097905D01*
X12809619Y-12078857D01*
X12819143Y-12059809D01*
X12838190Y-12050286D01*
X12885809Y-12050286D01*
X12904857Y-12040762D01*
X13000095Y-11993143D02*
X13000095Y-12193143D01*
X13000095Y-12002667D02*
X13019143Y-11993143D01*
X13057238Y-11993143D01*
X13076286Y-12002667D01*
X13085809Y-12012190D01*
X13095333Y-12031238D01*
X13095333Y-12088381D01*
X13085809Y-12107428D01*
X13076286Y-12116952D01*
X13057238Y-12126476D01*
X13019143Y-12126476D01*
X13000095Y-12116952D01*
X13181048Y-12107428D02*
X13190571Y-12116952D01*
X13181048Y-12126476D01*
X13171524Y-12116952D01*
X13181048Y-12107428D01*
X13181048Y-12126476D01*
X13181048Y-12002667D02*
X13190571Y-12012190D01*
X13181048Y-12021714D01*
X13171524Y-12012190D01*
X13181048Y-12002667D01*
X13181048Y-12021714D01*
D12*
X11472000Y-12416000D02*
X11552000Y-12496000D01*
X11552000Y-12416000D02*
X11472000Y-12496000D01*
D11*
X11847714Y-12346476D02*
X11866762Y-12346476D01*
X11885809Y-12356000D01*
X11895333Y-12365524D01*
X11904857Y-12384571D01*
X11914381Y-12422667D01*
X11914381Y-12470286D01*
X11904857Y-12508381D01*
X11895333Y-12527428D01*
X11885809Y-12536952D01*
X11866762Y-12546476D01*
X11847714Y-12546476D01*
X11828667Y-12536952D01*
X11819143Y-12527428D01*
X11809619Y-12508381D01*
X11800095Y-12470286D01*
X11800095Y-12422667D01*
X11809619Y-12384571D01*
X11819143Y-12365524D01*
X11828667Y-12356000D01*
X11847714Y-12346476D01*
X12000095Y-12527428D02*
X12009619Y-12536952D01*
X12000095Y-12546476D01*
X11990571Y-12536952D01*
X12000095Y-12527428D01*
X12000095Y-12546476D01*
X12123905Y-12432190D02*
X12104857Y-12422667D01*
X12095333Y-12413143D01*
X12085809Y-12394095D01*
X12085809Y-12384571D01*
X12095333Y-12365524D01*
X12104857Y-12356000D01*
X12123905Y-12346476D01*
X12162000Y-12346476D01*
X12181048Y-12356000D01*
X12190571Y-12365524D01*
X12200095Y-12384571D01*
X12200095Y-12394095D01*
X12190571Y-12413143D01*
X12181048Y-12422667D01*
X12162000Y-12432190D01*
X12123905Y-12432190D01*
X12104857Y-12441714D01*
X12095333Y-12451238D01*
X12085809Y-12470286D01*
X12085809Y-12508381D01*
X12095333Y-12527428D01*
X12104857Y-12536952D01*
X12123905Y-12546476D01*
X12162000Y-12546476D01*
X12181048Y-12536952D01*
X12190571Y-12527428D01*
X12200095Y-12508381D01*
X12200095Y-12470286D01*
X12190571Y-12451238D01*
X12181048Y-12441714D01*
X12162000Y-12432190D01*
X12323905Y-12346476D02*
X12342952Y-12346476D01*
X12362000Y-12356000D01*
X12371524Y-12365524D01*
X12381048Y-12384571D01*
X12390571Y-12422667D01*
X12390571Y-12470286D01*
X12381048Y-12508381D01*
X12371524Y-12527428D01*
X12362000Y-12536952D01*
X12342952Y-12546476D01*
X12323905Y-12546476D01*
X12304857Y-12536952D01*
X12295333Y-12527428D01*
X12285809Y-12508381D01*
X12276286Y-12470286D01*
X12276286Y-12422667D01*
X12285809Y-12384571D01*
X12295333Y-12365524D01*
X12304857Y-12356000D01*
X12323905Y-12346476D01*
X12514381Y-12346476D02*
X12533428Y-12346476D01*
X12552476Y-12356000D01*
X12562000Y-12365524D01*
X12571524Y-12384571D01*
X12581048Y-12422667D01*
X12581048Y-12470286D01*
X12571524Y-12508381D01*
X12562000Y-12527428D01*
X12552476Y-12536952D01*
X12533428Y-12546476D01*
X12514381Y-12546476D01*
X12495333Y-12536952D01*
X12485809Y-12527428D01*
X12476286Y-12508381D01*
X12466762Y-12470286D01*
X12466762Y-12422667D01*
X12476286Y-12384571D01*
X12485809Y-12365524D01*
X12495333Y-12356000D01*
X12514381Y-12346476D01*
X12666762Y-12546476D02*
X12666762Y-12413143D01*
X12666762Y-12432190D02*
X12676286Y-12422667D01*
X12695333Y-12413143D01*
X12723905Y-12413143D01*
X12742952Y-12422667D01*
X12752476Y-12441714D01*
X12752476Y-12546476D01*
X12752476Y-12441714D02*
X12762000Y-12422667D01*
X12781048Y-12413143D01*
X12809619Y-12413143D01*
X12828667Y-12422667D01*
X12838190Y-12441714D01*
X12838190Y-12546476D01*
X12933428Y-12546476D02*
X12933428Y-12413143D01*
X12933428Y-12432190D02*
X12942952Y-12422667D01*
X12962000Y-12413143D01*
X12990571Y-12413143D01*
X13009619Y-12422667D01*
X13019143Y-12441714D01*
X13019143Y-12546476D01*
X13019143Y-12441714D02*
X13028667Y-12422667D01*
X13047714Y-12413143D01*
X13076286Y-12413143D01*
X13095333Y-12422667D01*
X13104857Y-12441714D01*
X13104857Y-12546476D01*
X13495333Y-12336952D02*
X13323905Y-12594095D01*
X13752476Y-12346476D02*
X13771524Y-12346476D01*
X13790571Y-12356000D01*
X13800095Y-12365524D01*
X13809619Y-12384571D01*
X13819143Y-12422667D01*
X13819143Y-12470286D01*
X13809619Y-12508381D01*
X13800095Y-12527428D01*
X13790571Y-12536952D01*
X13771524Y-12546476D01*
X13752476Y-12546476D01*
X13733428Y-12536952D01*
X13723905Y-12527428D01*
X13714381Y-12508381D01*
X13704857Y-12470286D01*
X13704857Y-12422667D01*
X13714381Y-12384571D01*
X13723905Y-12365524D01*
X13733428Y-12356000D01*
X13752476Y-12346476D01*
X13904857Y-12527428D02*
X13914381Y-12536952D01*
X13904857Y-12546476D01*
X13895333Y-12536952D01*
X13904857Y-12527428D01*
X13904857Y-12546476D01*
X14038190Y-12346476D02*
X14057238Y-12346476D01*
X14076286Y-12356000D01*
X14085809Y-12365524D01*
X14095333Y-12384571D01*
X14104857Y-12422667D01*
X14104857Y-12470286D01*
X14095333Y-12508381D01*
X14085809Y-12527428D01*
X14076286Y-12536952D01*
X14057238Y-12546476D01*
X14038190Y-12546476D01*
X14019143Y-12536952D01*
X14009619Y-12527428D01*
X14000095Y-12508381D01*
X13990571Y-12470286D01*
X13990571Y-12422667D01*
X14000095Y-12384571D01*
X14009619Y-12365524D01*
X14019143Y-12356000D01*
X14038190Y-12346476D01*
X14171524Y-12346476D02*
X14295333Y-12346476D01*
X14228667Y-12422667D01*
X14257238Y-12422667D01*
X14276286Y-12432190D01*
X14285809Y-12441714D01*
X14295333Y-12460762D01*
X14295333Y-12508381D01*
X14285809Y-12527428D01*
X14276286Y-12536952D01*
X14257238Y-12546476D01*
X14200095Y-12546476D01*
X14181048Y-12536952D01*
X14171524Y-12527428D01*
X14485809Y-12546476D02*
X14371524Y-12546476D01*
X14428667Y-12546476D02*
X14428667Y-12346476D01*
X14409619Y-12375048D01*
X14390571Y-12394095D01*
X14371524Y-12403619D01*
X14666762Y-12346476D02*
X14571524Y-12346476D01*
X14562000Y-12441714D01*
X14571524Y-12432190D01*
X14590571Y-12422667D01*
X14638190Y-12422667D01*
X14657238Y-12432190D01*
X14666762Y-12441714D01*
X14676286Y-12460762D01*
X14676286Y-12508381D01*
X14666762Y-12527428D01*
X14657238Y-12536952D01*
X14638190Y-12546476D01*
X14590571Y-12546476D01*
X14571524Y-12536952D01*
X14562000Y-12527428D01*
X14752476Y-12346476D02*
X14752476Y-12384571D01*
X14828667Y-12346476D02*
X14828667Y-12384571D01*
X15123905Y-12622667D02*
X15114381Y-12613143D01*
X15095333Y-12584571D01*
X15085809Y-12565524D01*
X15076286Y-12536952D01*
X15066762Y-12489333D01*
X15066762Y-12451238D01*
X15076286Y-12403619D01*
X15085809Y-12375048D01*
X15095333Y-12356000D01*
X15114381Y-12327428D01*
X15123905Y-12317905D01*
X15228667Y-12432190D02*
X15209619Y-12422667D01*
X15200095Y-12413143D01*
X15190571Y-12394095D01*
X15190571Y-12384571D01*
X15200095Y-12365524D01*
X15209619Y-12356000D01*
X15228667Y-12346476D01*
X15266762Y-12346476D01*
X15285809Y-12356000D01*
X15295333Y-12365524D01*
X15304857Y-12384571D01*
X15304857Y-12394095D01*
X15295333Y-12413143D01*
X15285809Y-12422667D01*
X15266762Y-12432190D01*
X15228667Y-12432190D01*
X15209619Y-12441714D01*
X15200095Y-12451238D01*
X15190571Y-12470286D01*
X15190571Y-12508381D01*
X15200095Y-12527428D01*
X15209619Y-12536952D01*
X15228667Y-12546476D01*
X15266762Y-12546476D01*
X15285809Y-12536952D01*
X15295333Y-12527428D01*
X15304857Y-12508381D01*
X15304857Y-12470286D01*
X15295333Y-12451238D01*
X15285809Y-12441714D01*
X15266762Y-12432190D01*
X15476286Y-12413143D02*
X15476286Y-12546476D01*
X15428667Y-12336952D02*
X15381048Y-12479809D01*
X15504857Y-12479809D01*
X15733428Y-12546476D02*
X15733428Y-12346476D01*
X15819143Y-12546476D02*
X15819143Y-12441714D01*
X15809619Y-12422667D01*
X15790571Y-12413143D01*
X15762000Y-12413143D01*
X15742952Y-12422667D01*
X15733428Y-12432190D01*
X15942952Y-12546476D02*
X15923905Y-12536952D01*
X15914381Y-12527428D01*
X15904857Y-12508381D01*
X15904857Y-12451238D01*
X15914381Y-12432190D01*
X15923905Y-12422667D01*
X15942952Y-12413143D01*
X15971524Y-12413143D01*
X15990571Y-12422667D01*
X16000095Y-12432190D01*
X16009619Y-12451238D01*
X16009619Y-12508381D01*
X16000095Y-12527428D01*
X15990571Y-12536952D01*
X15971524Y-12546476D01*
X15942952Y-12546476D01*
X16123905Y-12546476D02*
X16104857Y-12536952D01*
X16095333Y-12517905D01*
X16095333Y-12346476D01*
X16276286Y-12536952D02*
X16257238Y-12546476D01*
X16219143Y-12546476D01*
X16200095Y-12536952D01*
X16190571Y-12517905D01*
X16190571Y-12441714D01*
X16200095Y-12422667D01*
X16219143Y-12413143D01*
X16257238Y-12413143D01*
X16276286Y-12422667D01*
X16285809Y-12441714D01*
X16285809Y-12460762D01*
X16190571Y-12479809D01*
X16362000Y-12536952D02*
X16381048Y-12546476D01*
X16419143Y-12546476D01*
X16438190Y-12536952D01*
X16447714Y-12517905D01*
X16447714Y-12508381D01*
X16438190Y-12489333D01*
X16419143Y-12479809D01*
X16390571Y-12479809D01*
X16371524Y-12470286D01*
X16362000Y-12451238D01*
X16362000Y-12441714D01*
X16371524Y-12422667D01*
X16390571Y-12413143D01*
X16419143Y-12413143D01*
X16438190Y-12422667D01*
X16514381Y-12622667D02*
X16523905Y-12613143D01*
X16542952Y-12584571D01*
X16552476Y-12565524D01*
X16562000Y-12536952D01*
X16571524Y-12489333D01*
X16571524Y-12451238D01*
X16562000Y-12403619D01*
X16552476Y-12375048D01*
X16542952Y-12356000D01*
X16523905Y-12327428D01*
X16514381Y-12317905D01*
M02*
