M48
; DRILL file {KiCad (6.0.0)} date Sun Mar 13 18:44:16 2022
; FORMAT={-:-/ absolute / metric / decimal}
; #@! TF.CreationDate,2022-03-13T18:44:16-04:00
; #@! TF.GenerationSoftware,Kicad,Pcbnew,(6.0.0)
; #@! TF.FileFunction,Plated,1,2,PTH
FMAT,2
METRIC
; #@! TA.AperFunction,Plated,PTH,ComponentDrill
T1C0.800
%
G90
G05
T1
X117.2Y-84.455
X117.2Y-86.995
X117.2Y-89.535
X117.2Y-92.075
X117.2Y-94.615
X117.2Y-97.155
X118.465Y-68.09
X118.465Y-70.629
X118.465Y-73.169
X118.465Y-75.709
X118.465Y-78.249
X118.465Y-80.789
X118.465Y-83.329
X118.465Y-85.87
X118.465Y-88.409
X118.465Y-90.95
X118.465Y-93.489
X118.465Y-96.029
X118.465Y-98.569
X118.465Y-101.109
X118.465Y-103.649
X118.465Y-106.189
X118.465Y-108.73
X118.465Y-111.269
X118.465Y-113.809
X118.465Y-116.349
X119.74Y-81.915
X119.74Y-84.455
X119.74Y-86.995
X119.74Y-89.535
X119.74Y-92.075
X119.74Y-94.615
X119.74Y-97.155
X119.74Y-99.695
X122.28Y-81.915
X122.28Y-84.455
X122.28Y-97.155
X122.28Y-99.695
X124.82Y-81.915
X124.82Y-84.455
X124.82Y-97.155
X124.82Y-99.695
X127.36Y-81.915
X127.36Y-84.455
X127.36Y-97.155
X127.36Y-99.695
X129.9Y-81.915
X129.9Y-84.455
X129.9Y-97.155
X129.9Y-99.695
X132.44Y-81.915
X132.44Y-84.455
X132.44Y-86.995
X132.44Y-89.535
X132.44Y-92.075
X132.44Y-94.615
X132.44Y-97.155
X132.44Y-99.695
X133.705Y-68.09
X133.705Y-70.629
X133.705Y-73.169
X133.705Y-75.709
X133.705Y-78.249
X133.705Y-80.789
X133.705Y-83.329
X133.705Y-85.87
X133.705Y-88.409
X133.705Y-90.95
X133.705Y-93.489
X133.705Y-96.029
X133.705Y-98.569
X133.705Y-101.109
X133.705Y-103.649
X133.705Y-106.189
X133.705Y-108.73
X133.705Y-111.269
X133.705Y-113.809
X133.705Y-116.349
X134.98Y-84.455
X134.98Y-86.995
X134.98Y-89.535
X134.98Y-92.075
X134.98Y-94.615
X134.98Y-97.155
T0
M30
