%TF.GenerationSoftware,KiCad,Pcbnew,(6.0.0)*%
%TF.CreationDate,2022-03-13T18:44:15-04:00*%
%TF.ProjectId,z80plcc to dip,7a383070-6c63-4632-9074-6f206469702e,rev?*%
%TF.SameCoordinates,Original*%
%TF.FileFunction,Soldermask,Bot*%
%TF.FilePolarity,Negative*%
%FSLAX46Y46*%
G04 Gerber Fmt 4.6, Leading zero omitted, Abs format (unit mm)*
G04 Created by KiCad (PCBNEW (6.0.0)) date 2022-03-13 18:44:15*
%MOMM*%
%LPD*%
G01*
G04 APERTURE LIST*
G04 Aperture macros list*
%AMRoundRect*
0 Rectangle with rounded corners*
0 $1 Rounding radius*
0 $2 $3 $4 $5 $6 $7 $8 $9 X,Y pos of 4 corners*
0 Add a 4 corners polygon primitive as box body*
4,1,4,$2,$3,$4,$5,$6,$7,$8,$9,$2,$3,0*
0 Add four circle primitives for the rounded corners*
1,1,$1+$1,$2,$3*
1,1,$1+$1,$4,$5*
1,1,$1+$1,$6,$7*
1,1,$1+$1,$8,$9*
0 Add four rect primitives between the rounded corners*
20,1,$1+$1,$2,$3,$4,$5,0*
20,1,$1+$1,$4,$5,$6,$7,0*
20,1,$1+$1,$6,$7,$8,$9,0*
20,1,$1+$1,$8,$9,$2,$3,0*%
G04 Aperture macros list end*
%ADD10R,1.422400X1.422400*%
%ADD11C,1.422400*%
%ADD12R,1.600000X1.600000*%
%ADD13O,1.600000X1.600000*%
%ADD14RoundRect,0.225000X-0.225000X-0.250000X0.225000X-0.250000X0.225000X0.250000X-0.225000X0.250000X0*%
G04 APERTURE END LIST*
D10*
%TO.C,IC1*%
X127360000Y-84455000D03*
D11*
X124820000Y-81915000D03*
X124820000Y-84455000D03*
X122280000Y-81915000D03*
X122280000Y-84455000D03*
X119740000Y-81915000D03*
X117200000Y-84455000D03*
X119740000Y-84455000D03*
X117200000Y-86995000D03*
X119740000Y-86995000D03*
X117200000Y-89535000D03*
X119740000Y-89535000D03*
X117200000Y-92075000D03*
X119740000Y-92075000D03*
X117200000Y-94615000D03*
X119740000Y-94615000D03*
X117200000Y-97155000D03*
X119740000Y-99695000D03*
X119740000Y-97155000D03*
X122280000Y-99695000D03*
X122280000Y-97155000D03*
X124820000Y-99695000D03*
X124820000Y-97155000D03*
X127360000Y-99695000D03*
X127360000Y-97155000D03*
X129900000Y-99695000D03*
X129900000Y-97155000D03*
X132440000Y-99695000D03*
X134980000Y-97155000D03*
X132440000Y-97155000D03*
X134980000Y-94615000D03*
X132440000Y-94615000D03*
X134980000Y-92075000D03*
X132440000Y-92075000D03*
X134980000Y-89535000D03*
X132440000Y-89535000D03*
X134980000Y-86995000D03*
X132440000Y-86995000D03*
X134980000Y-84455000D03*
X132440000Y-81915000D03*
X132440000Y-84455000D03*
X129900000Y-81915000D03*
X129900000Y-84455000D03*
X127360000Y-81915000D03*
%TD*%
D12*
%TO.C,U1*%
X118465000Y-68089500D03*
D13*
X118465000Y-70629500D03*
X118465000Y-73169500D03*
X118465000Y-75709500D03*
X118465000Y-78249500D03*
X118465000Y-80789500D03*
X118465000Y-83329500D03*
X118465000Y-85869500D03*
X118465000Y-88409500D03*
X118465000Y-90949500D03*
X118465000Y-93489500D03*
X118465000Y-96029500D03*
X118465000Y-98569500D03*
X118465000Y-101109500D03*
X118465000Y-103649500D03*
X118465000Y-106189500D03*
X118465000Y-108729500D03*
X118465000Y-111269500D03*
X118465000Y-113809500D03*
X118465000Y-116349500D03*
X133705000Y-116349500D03*
X133705000Y-113809500D03*
X133705000Y-111269500D03*
X133705000Y-108729500D03*
X133705000Y-106189500D03*
X133705000Y-103649500D03*
X133705000Y-101109500D03*
X133705000Y-98569500D03*
X133705000Y-96029500D03*
X133705000Y-93489500D03*
X133705000Y-90949500D03*
X133705000Y-88409500D03*
X133705000Y-85869500D03*
X133705000Y-83329500D03*
X133705000Y-80789500D03*
X133705000Y-78249500D03*
X133705000Y-75709500D03*
X133705000Y-73169500D03*
X133705000Y-70629500D03*
X133705000Y-68089500D03*
%TD*%
D14*
%TO.C,C1*%
X124955000Y-92710000D03*
X126505000Y-92710000D03*
%TD*%
M02*
