%TF.GenerationSoftware,KiCad,Pcbnew,(6.0.0)*%
%TF.CreationDate,2022-03-13T18:44:15-04:00*%
%TF.ProjectId,z80plcc to dip,7a383070-6c63-4632-9074-6f206469702e,rev?*%
%TF.SameCoordinates,Original*%
%TF.FileFunction,Copper,L2,Bot*%
%TF.FilePolarity,Positive*%
%FSLAX46Y46*%
G04 Gerber Fmt 4.6, Leading zero omitted, Abs format (unit mm)*
G04 Created by KiCad (PCBNEW (6.0.0)) date 2022-03-13 18:44:15*
%MOMM*%
%LPD*%
G01*
G04 APERTURE LIST*
G04 Aperture macros list*
%AMRoundRect*
0 Rectangle with rounded corners*
0 $1 Rounding radius*
0 $2 $3 $4 $5 $6 $7 $8 $9 X,Y pos of 4 corners*
0 Add a 4 corners polygon primitive as box body*
4,1,4,$2,$3,$4,$5,$6,$7,$8,$9,$2,$3,0*
0 Add four circle primitives for the rounded corners*
1,1,$1+$1,$2,$3*
1,1,$1+$1,$4,$5*
1,1,$1+$1,$6,$7*
1,1,$1+$1,$8,$9*
0 Add four rect primitives between the rounded corners*
20,1,$1+$1,$2,$3,$4,$5,0*
20,1,$1+$1,$4,$5,$6,$7,0*
20,1,$1+$1,$6,$7,$8,$9,0*
20,1,$1+$1,$8,$9,$2,$3,0*%
G04 Aperture macros list end*
%TA.AperFunction,ComponentPad*%
%ADD10R,1.422400X1.422400*%
%TD*%
%TA.AperFunction,ComponentPad*%
%ADD11C,1.422400*%
%TD*%
%TA.AperFunction,ComponentPad*%
%ADD12R,1.600000X1.600000*%
%TD*%
%TA.AperFunction,ComponentPad*%
%ADD13O,1.600000X1.600000*%
%TD*%
%TA.AperFunction,SMDPad,CuDef*%
%ADD14RoundRect,0.225000X-0.225000X-0.250000X0.225000X-0.250000X0.225000X0.250000X-0.225000X0.250000X0*%
%TD*%
%TA.AperFunction,Conductor*%
%ADD15C,0.500000*%
%TD*%
%TA.AperFunction,Conductor*%
%ADD16C,0.250000*%
%TD*%
G04 APERTURE END LIST*
D10*
%TO.P,IC1,1,A11*%
%TO.N,/A11*%
X127360000Y-84455000D03*
D11*
%TO.P,IC1,2,A12*%
%TO.N,/A12*%
X124820000Y-81915000D03*
%TO.P,IC1,3,A13*%
%TO.N,/A13*%
X124820000Y-84455000D03*
%TO.P,IC1,4,A14*%
%TO.N,/A14*%
X122280000Y-81915000D03*
%TO.P,IC1,5,A15*%
%TO.N,/A15*%
X122280000Y-84455000D03*
%TO.P,IC1,6,NC_1*%
%TO.N,unconnected-(IC1-Pad6)*%
X119740000Y-81915000D03*
%TO.P,IC1,7,CLK*%
%TO.N,/clk*%
X117200000Y-84455000D03*
%TO.P,IC1,8,D4*%
%TO.N,/D4*%
X119740000Y-84455000D03*
%TO.P,IC1,9,D3*%
%TO.N,/D3*%
X117200000Y-86995000D03*
%TO.P,IC1,10,D5*%
%TO.N,/D5*%
X119740000Y-86995000D03*
%TO.P,IC1,11,D6*%
%TO.N,/D6*%
X117200000Y-89535000D03*
%TO.P,IC1,12,NC_2*%
%TO.N,unconnected-(IC1-Pad12)*%
X119740000Y-89535000D03*
%TO.P,IC1,13,+5V*%
%TO.N,+5V*%
X117200000Y-92075000D03*
%TO.P,IC1,14,D2*%
%TO.N,/D2*%
X119740000Y-92075000D03*
%TO.P,IC1,15,D7*%
%TO.N,/D7*%
X117200000Y-94615000D03*
%TO.P,IC1,16,D0*%
%TO.N,/D0*%
X119740000Y-94615000D03*
%TO.P,IC1,17,D1*%
%TO.N,/D1*%
X117200000Y-97155000D03*
%TO.P,IC1,18,/INT*%
%TO.N,/int*%
X119740000Y-99695000D03*
%TO.P,IC1,19,/NMI*%
%TO.N,/nmi*%
X119740000Y-97155000D03*
%TO.P,IC1,20,/HALT*%
%TO.N,/halt*%
X122280000Y-99695000D03*
%TO.P,IC1,21,/MREQ*%
%TO.N,/mreq*%
X122280000Y-97155000D03*
%TO.P,IC1,22,/IORQ*%
%TO.N,/ioreq*%
X124820000Y-99695000D03*
%TO.P,IC1,23,/RD*%
%TO.N,/rd*%
X124820000Y-97155000D03*
%TO.P,IC1,24,NC_3*%
%TO.N,unconnected-(IC1-Pad24)*%
X127360000Y-99695000D03*
%TO.P,IC1,25,NC_4*%
%TO.N,unconnected-(IC1-Pad25)*%
X127360000Y-97155000D03*
%TO.P,IC1,26,/WR*%
%TO.N,/wr*%
X129900000Y-99695000D03*
%TO.P,IC1,27,/BUSACK*%
%TO.N,/busack*%
X129900000Y-97155000D03*
%TO.P,IC1,28,/WAIT*%
%TO.N,/wait*%
X132440000Y-99695000D03*
%TO.P,IC1,29,/BUSREQ*%
%TO.N,/busrq*%
X134980000Y-97155000D03*
%TO.P,IC1,30,/RESET*%
%TO.N,/rst*%
X132440000Y-97155000D03*
%TO.P,IC1,31,/M1*%
%TO.N,/m1*%
X134980000Y-94615000D03*
%TO.P,IC1,32,/RFSH*%
%TO.N,/rfsh*%
X132440000Y-94615000D03*
%TO.P,IC1,33,GND*%
%TO.N,GND*%
X134980000Y-92075000D03*
%TO.P,IC1,34,A0*%
%TO.N,/A0*%
X132440000Y-92075000D03*
%TO.P,IC1,35,A1*%
%TO.N,/A1*%
X134980000Y-89535000D03*
%TO.P,IC1,36,A2*%
%TO.N,/A2*%
X132440000Y-89535000D03*
%TO.P,IC1,37,A3*%
%TO.N,/A3*%
X134980000Y-86995000D03*
%TO.P,IC1,38,A4*%
%TO.N,/A4*%
X132440000Y-86995000D03*
%TO.P,IC1,39,A5*%
%TO.N,/A5*%
X134980000Y-84455000D03*
%TO.P,IC1,40,A6*%
%TO.N,/A6*%
X132440000Y-81915000D03*
%TO.P,IC1,41,A7*%
%TO.N,/A7*%
X132440000Y-84455000D03*
%TO.P,IC1,42,A8*%
%TO.N,/A8*%
X129900000Y-81915000D03*
%TO.P,IC1,43,A9*%
%TO.N,/A9*%
X129900000Y-84455000D03*
%TO.P,IC1,44,A10*%
%TO.N,/A10*%
X127360000Y-81915000D03*
%TD*%
D12*
%TO.P,U1,1,A11*%
%TO.N,/A11*%
X118465000Y-68089500D03*
D13*
%TO.P,U1,2,A12*%
%TO.N,/A12*%
X118465000Y-70629500D03*
%TO.P,U1,3,A13*%
%TO.N,/A13*%
X118465000Y-73169500D03*
%TO.P,U1,4,A14*%
%TO.N,/A14*%
X118465000Y-75709500D03*
%TO.P,U1,5,A15*%
%TO.N,/A15*%
X118465000Y-78249500D03*
%TO.P,U1,6,~{CLK}*%
%TO.N,/clk*%
X118465000Y-80789500D03*
%TO.P,U1,7,D4*%
%TO.N,/D4*%
X118465000Y-83329500D03*
%TO.P,U1,8,D3*%
%TO.N,/D3*%
X118465000Y-85869500D03*
%TO.P,U1,9,D5*%
%TO.N,/D5*%
X118465000Y-88409500D03*
%TO.P,U1,10,D6*%
%TO.N,/D6*%
X118465000Y-90949500D03*
%TO.P,U1,11,VCC*%
%TO.N,+5V*%
X118465000Y-93489500D03*
%TO.P,U1,12,D2*%
%TO.N,/D2*%
X118465000Y-96029500D03*
%TO.P,U1,13,D7*%
%TO.N,/D7*%
X118465000Y-98569500D03*
%TO.P,U1,14,D0*%
%TO.N,/D0*%
X118465000Y-101109500D03*
%TO.P,U1,15,D1*%
%TO.N,/D1*%
X118465000Y-103649500D03*
%TO.P,U1,16,~{INT}*%
%TO.N,/int*%
X118465000Y-106189500D03*
%TO.P,U1,17,~{NMI}*%
%TO.N,/nmi*%
X118465000Y-108729500D03*
%TO.P,U1,18,~{HALT}*%
%TO.N,/halt*%
X118465000Y-111269500D03*
%TO.P,U1,19,~{MREQ}*%
%TO.N,/mreq*%
X118465000Y-113809500D03*
%TO.P,U1,20,~{IORQ}*%
%TO.N,/ioreq*%
X118465000Y-116349500D03*
%TO.P,U1,21,~{RD}*%
%TO.N,/rd*%
X133705000Y-116349500D03*
%TO.P,U1,22,~{WR}*%
%TO.N,/wr*%
X133705000Y-113809500D03*
%TO.P,U1,23,~{BUSACK}*%
%TO.N,/busack*%
X133705000Y-111269500D03*
%TO.P,U1,24,~{WAIT}*%
%TO.N,/wait*%
X133705000Y-108729500D03*
%TO.P,U1,25,~{BUSRQ}*%
%TO.N,/busrq*%
X133705000Y-106189500D03*
%TO.P,U1,26,~{RESET}*%
%TO.N,/rst*%
X133705000Y-103649500D03*
%TO.P,U1,27,~{M1}*%
%TO.N,/m1*%
X133705000Y-101109500D03*
%TO.P,U1,28,~{RFSH}*%
%TO.N,/rfsh*%
X133705000Y-98569500D03*
%TO.P,U1,29,GND*%
%TO.N,GND*%
X133705000Y-96029500D03*
%TO.P,U1,30,A0*%
%TO.N,/A0*%
X133705000Y-93489500D03*
%TO.P,U1,31,A1*%
%TO.N,/A1*%
X133705000Y-90949500D03*
%TO.P,U1,32,A2*%
%TO.N,/A2*%
X133705000Y-88409500D03*
%TO.P,U1,33,A3*%
%TO.N,/A3*%
X133705000Y-85869500D03*
%TO.P,U1,34,A4*%
%TO.N,/A4*%
X133705000Y-83329500D03*
%TO.P,U1,35,A5*%
%TO.N,/A5*%
X133705000Y-80789500D03*
%TO.P,U1,36,A6*%
%TO.N,/A6*%
X133705000Y-78249500D03*
%TO.P,U1,37,A7*%
%TO.N,/A7*%
X133705000Y-75709500D03*
%TO.P,U1,38,A8*%
%TO.N,/A8*%
X133705000Y-73169500D03*
%TO.P,U1,39,A9*%
%TO.N,/A9*%
X133705000Y-70629500D03*
%TO.P,U1,40,A10*%
%TO.N,/A10*%
X133705000Y-68089500D03*
%TD*%
D14*
%TO.P,C1,1*%
%TO.N,+5V*%
X124955000Y-92710000D03*
%TO.P,C1,2*%
%TO.N,GND*%
X126505000Y-92710000D03*
%TD*%
D15*
%TO.N,+5V*%
X124210711Y-93454289D02*
X124955000Y-92710000D01*
X118500211Y-93454289D02*
X124210711Y-93454289D01*
X118465000Y-93489500D02*
X118500211Y-93454289D01*
%TO.N,GND*%
X133451211Y-95775711D02*
X133705000Y-96029500D01*
X129570711Y-95775711D02*
X133451211Y-95775711D01*
X126505000Y-92710000D02*
X129570711Y-95775711D01*
D16*
%TO.N,/D0*%
X121244289Y-99655429D02*
X121244289Y-96119289D01*
X119790218Y-101109500D02*
X121244289Y-99655429D01*
X121244289Y-96119289D02*
X119740000Y-94615000D01*
X118465000Y-101109500D02*
X119790218Y-101109500D01*
%TO.N,/D7*%
X116164289Y-97584007D02*
X116164289Y-95650711D01*
X117149782Y-98569500D02*
X116164289Y-97584007D01*
X116164289Y-95650711D02*
X117200000Y-94615000D01*
X118465000Y-98569500D02*
X117149782Y-98569500D01*
%TO.N,/rst*%
X133705000Y-103649500D02*
X131404289Y-101348789D01*
X131404289Y-101348789D02*
X131404289Y-98190711D01*
X131404289Y-98190711D02*
X132440000Y-97155000D01*
%TO.N,/A4*%
X130935711Y-84329289D02*
X130935711Y-85490711D01*
X131935500Y-83329500D02*
X130935711Y-84329289D01*
X130935711Y-85490711D02*
X132440000Y-86995000D01*
X133705000Y-83329500D02*
X131935500Y-83329500D01*
%TO.N,/m1*%
X133705000Y-101109500D02*
X136015711Y-98798789D01*
X136015711Y-98798789D02*
X136015711Y-95650711D01*
X136015711Y-95650711D02*
X134980000Y-94615000D01*
%TD*%
M02*
