%FSLAX45Y45*%
G04 Gerber Fmt 4.5, Leading zero omitted, Abs format (unit mm)*
G04 Created by KiCad (PCBNEW (6.0.0)) date 2022-03-13 20:46:12*
%MOMM*%
%LPD*%
G01*
G04 APERTURE LIST*
%TA.AperFunction,Profile*%
%ADD10C,0.100000*%
%TD*%
%ADD11C,0.200000*%
%ADD12C,0.040000*%
%ADD13C,0.075000*%
%ADD14C,0.080000*%
%ADD15C,0.100000*%
G04 APERTURE END LIST*
D10*
X7414092Y0D02*
G75*
G03*
X7033092Y381000I-381000J0D01*
G01*
X269408Y381000D02*
G75*
G03*
X-111592Y0I0J-381000D01*
G01*
X7033092Y-5636092D02*
X269408Y-5651500D01*
X7033092Y-5636092D02*
G75*
G03*
X7414092Y-5255092I0J381000D01*
G01*
X-111592Y-5270500D02*
X-111592Y0D01*
X269408Y381000D02*
X7033092Y381000D01*
X7414092Y-5255092D02*
X7414092Y0D01*
X-111592Y-5270500D02*
G75*
G03*
X269408Y-5651500I381000J0D01*
G01*
D11*
D12*
X551500Y-1250000D02*
X591500Y-1290000D01*
X591500Y-1250000D02*
X551500Y-1290000D01*
X742000Y-1313500D02*
X782000Y-1353500D01*
X782000Y-1313500D02*
X742000Y-1353500D01*
X756259Y-4601241D02*
X796259Y-4641241D01*
X796259Y-4601241D02*
X756259Y-4641241D01*
X805500Y-1123000D02*
X845500Y-1163000D01*
X845500Y-1123000D02*
X805500Y-1163000D01*
X869000Y-4869500D02*
X909000Y-4909500D01*
X909000Y-4869500D02*
X869000Y-4909500D01*
X932500Y-4215600D02*
X972500Y-4255600D01*
X972500Y-4215600D02*
X932500Y-4255600D01*
X932500Y-5250500D02*
X972500Y-5290500D01*
X972500Y-5250500D02*
X932500Y-5290500D01*
X977804Y-5078196D02*
X1017804Y-5118196D01*
X1017804Y-5078196D02*
X977804Y-5118196D01*
X1123000Y-3009100D02*
X1163000Y-3049100D01*
X1163000Y-3009100D02*
X1123000Y-3049100D01*
X1123000Y-5314000D02*
X1163000Y-5354000D01*
X1163000Y-5314000D02*
X1123000Y-5354000D01*
X1250000Y-5485600D02*
X1290000Y-5525600D01*
X1290000Y-5485600D02*
X1250000Y-5525600D01*
X1259597Y-2002403D02*
X1299597Y-2042403D01*
X1299597Y-2002403D02*
X1259597Y-2042403D01*
X1313500Y-678500D02*
X1353500Y-718500D01*
X1353500Y-678500D02*
X1313500Y-718500D01*
X1323049Y-1748451D02*
X1363049Y-1788451D01*
X1363049Y-1748451D02*
X1323049Y-1788451D01*
X1440500Y-1885000D02*
X1480500Y-1925000D01*
X1480500Y-1885000D02*
X1440500Y-1925000D01*
X1440500Y-3898100D02*
X1480500Y-3938100D01*
X1480500Y-3898100D02*
X1440500Y-3938100D01*
X1440500Y-4088600D02*
X1480500Y-4128600D01*
X1480500Y-4088600D02*
X1440500Y-4128600D01*
X1440500Y-5358600D02*
X1480500Y-5398600D01*
X1480500Y-5358600D02*
X1440500Y-5398600D01*
X1504000Y-678500D02*
X1544000Y-718500D01*
X1544000Y-678500D02*
X1504000Y-718500D01*
X1504000Y-2583500D02*
X1544000Y-2623500D01*
X1544000Y-2583500D02*
X1504000Y-2623500D01*
X1885000Y-4215600D02*
X1925000Y-4255600D01*
X1925000Y-4215600D02*
X1885000Y-4255600D01*
X2075500Y-3009100D02*
X2115500Y-3049100D01*
X2115500Y-3009100D02*
X2075500Y-3049100D01*
X2266000Y-2647000D02*
X2306000Y-2687000D01*
X2306000Y-2647000D02*
X2266000Y-2687000D01*
X2329500Y-1885000D02*
X2369500Y-1925000D01*
X2369500Y-1885000D02*
X2329500Y-1925000D01*
X2393000Y-3898100D02*
X2433000Y-3938100D01*
X2433000Y-3898100D02*
X2393000Y-3938100D01*
X2393000Y-5358600D02*
X2433000Y-5398600D01*
X2433000Y-5358600D02*
X2393000Y-5398600D01*
X2520000Y-805500D02*
X2560000Y-845500D01*
X2560000Y-805500D02*
X2520000Y-845500D01*
X2520000Y-1186500D02*
X2560000Y-1226500D01*
X2560000Y-1186500D02*
X2520000Y-1226500D01*
X2774000Y-4215600D02*
X2814000Y-4255600D01*
X2814000Y-4215600D02*
X2774000Y-4255600D01*
X2964500Y-869000D02*
X3004500Y-909000D01*
X3004500Y-869000D02*
X2964500Y-909000D01*
X2964500Y-1059500D02*
X3004500Y-1099500D01*
X3004500Y-1059500D02*
X2964500Y-1099500D01*
X2964500Y-2202500D02*
X3004500Y-2242500D01*
X3004500Y-2202500D02*
X2964500Y-2242500D01*
X3028000Y-2945600D02*
X3068000Y-2985600D01*
X3068000Y-2945600D02*
X3028000Y-2985600D01*
X3091500Y-2329500D02*
X3131500Y-2369500D01*
X3131500Y-2329500D02*
X3091500Y-2369500D01*
X3345500Y-3898100D02*
X3385500Y-3938100D01*
X3385500Y-3898100D02*
X3345500Y-3938100D01*
X3345500Y-5358600D02*
X3385500Y-5398600D01*
X3385500Y-5358600D02*
X3345500Y-5398600D01*
X3409000Y-2583500D02*
X3449000Y-2623500D01*
X3449000Y-2583500D02*
X3409000Y-2623500D01*
X3536000Y-2456500D02*
X3576000Y-2496500D01*
X3576000Y-2456500D02*
X3536000Y-2496500D01*
X3726500Y-4215600D02*
X3766500Y-4255600D01*
X3766500Y-4215600D02*
X3726500Y-4255600D01*
X3980500Y-2329500D02*
X4020500Y-2369500D01*
X4020500Y-2329500D02*
X3980500Y-2369500D01*
X3980500Y-2945600D02*
X4020500Y-2985600D01*
X4020500Y-2945600D02*
X3980500Y-2985600D01*
X4044000Y-2075500D02*
X4084000Y-2115500D01*
X4084000Y-2075500D02*
X4044000Y-2115500D01*
X4171000Y-2075500D02*
X4211000Y-2115500D01*
X4211000Y-2075500D02*
X4171000Y-2115500D01*
X4298000Y-2202500D02*
X4338000Y-2242500D01*
X4338000Y-2202500D02*
X4298000Y-2242500D01*
X4298000Y-2583500D02*
X4338000Y-2623500D01*
X4338000Y-2583500D02*
X4298000Y-2623500D01*
X4298000Y-3898100D02*
X4338000Y-3938100D01*
X4338000Y-3898100D02*
X4298000Y-3938100D01*
X4361500Y-5358600D02*
X4401500Y-5398600D01*
X4401500Y-5358600D02*
X4361500Y-5398600D01*
X4679000Y-4215600D02*
X4719000Y-4255600D01*
X4719000Y-4215600D02*
X4679000Y-4255600D01*
X4806000Y-678500D02*
X4846000Y-718500D01*
X4846000Y-678500D02*
X4806000Y-718500D01*
X4869500Y-2945600D02*
X4909500Y-2985600D01*
X4909500Y-2945600D02*
X4869500Y-2985600D01*
X4933000Y-615000D02*
X4973000Y-655000D01*
X4973000Y-615000D02*
X4933000Y-655000D01*
X5187000Y-2202500D02*
X5227000Y-2242500D01*
X5227000Y-2202500D02*
X5187000Y-2242500D01*
X5250500Y-3898100D02*
X5290500Y-3938100D01*
X5290500Y-3898100D02*
X5250500Y-3938100D01*
X5250500Y-5295100D02*
X5290500Y-5335100D01*
X5290500Y-5295100D02*
X5250500Y-5335100D01*
X5631500Y-4215600D02*
X5671500Y-4255600D01*
X5671500Y-4215600D02*
X5631500Y-4255600D01*
X5837000Y-2124000D02*
X5877000Y-2164000D01*
X5877000Y-2124000D02*
X5837000Y-2164000D01*
X5885500Y-2945600D02*
X5925500Y-2985600D01*
X5925500Y-2945600D02*
X5885500Y-2985600D01*
X5993600Y-5295100D02*
X6033600Y-5335100D01*
X6033600Y-5295100D02*
X5993600Y-5335100D01*
X6139500Y-2329500D02*
X6179500Y-2369500D01*
X6179500Y-2329500D02*
X6139500Y-2369500D01*
X6266500Y-3898100D02*
X6306500Y-3938100D01*
X6306500Y-3898100D02*
X6266500Y-3938100D01*
X6393500Y-5441000D02*
X6433500Y-5481000D01*
X6433500Y-5441000D02*
X6393500Y-5481000D01*
X6584000Y-2393000D02*
X6624000Y-2433000D01*
X6624000Y-2393000D02*
X6584000Y-2433000D01*
X6827500Y-2594000D02*
X6867500Y-2634000D01*
X6867500Y-2594000D02*
X6827500Y-2634000D01*
X6901500Y-4469600D02*
X6941500Y-4509600D01*
X6941500Y-4469600D02*
X6901500Y-4509600D01*
X7028500Y-3898100D02*
X7068500Y-3938100D01*
X7068500Y-3898100D02*
X7028500Y-3938100D01*
X7092000Y-2393000D02*
X7132000Y-2433000D01*
X7132000Y-2393000D02*
X7092000Y-2433000D01*
D13*
X1558900Y-3217300D02*
G75*
G03*
X1558900Y-3217300I-37500J0D01*
G01*
X1581800Y-4665300D02*
G75*
G03*
X1581800Y-4665300I-37500J0D01*
G01*
X1758900Y-3217300D02*
G75*
G03*
X1758900Y-3217300I-37500J0D01*
G01*
X1781800Y-4665300D02*
G75*
G03*
X1781800Y-4665300I-37500J0D01*
G01*
X1958900Y-3217300D02*
G75*
G03*
X1958900Y-3217300I-37500J0D01*
G01*
X1981800Y-4665300D02*
G75*
G03*
X1981800Y-4665300I-37500J0D01*
G01*
X2511400Y-3217300D02*
G75*
G03*
X2511400Y-3217300I-37500J0D01*
G01*
X2541400Y-4663700D02*
G75*
G03*
X2541400Y-4663700I-37500J0D01*
G01*
X2711400Y-3217300D02*
G75*
G03*
X2711400Y-3217300I-37500J0D01*
G01*
X2741400Y-4663700D02*
G75*
G03*
X2741400Y-4663700I-37500J0D01*
G01*
X2911400Y-3217300D02*
G75*
G03*
X2911400Y-3217300I-37500J0D01*
G01*
X2941400Y-4663700D02*
G75*
G03*
X2941400Y-4663700I-37500J0D01*
G01*
X3463900Y-3217300D02*
G75*
G03*
X3463900Y-3217300I-37500J0D01*
G01*
X3484400Y-4655200D02*
G75*
G03*
X3484400Y-4655200I-37500J0D01*
G01*
X3663900Y-3217300D02*
G75*
G03*
X3663900Y-3217300I-37500J0D01*
G01*
X3684400Y-4655200D02*
G75*
G03*
X3684400Y-4655200I-37500J0D01*
G01*
X3863900Y-3217300D02*
G75*
G03*
X3863900Y-3217300I-37500J0D01*
G01*
X3884400Y-4655200D02*
G75*
G03*
X3884400Y-4655200I-37500J0D01*
G01*
X4416400Y-3225800D02*
G75*
G03*
X4416400Y-3225800I-37500J0D01*
G01*
X4446400Y-4655200D02*
G75*
G03*
X4446400Y-4655200I-37500J0D01*
G01*
X4616400Y-3225800D02*
G75*
G03*
X4616400Y-3225800I-37500J0D01*
G01*
X4646400Y-4655200D02*
G75*
G03*
X4646400Y-4655200I-37500J0D01*
G01*
X4816400Y-3225800D02*
G75*
G03*
X4816400Y-3225800I-37500J0D01*
G01*
X4846400Y-4655200D02*
G75*
G03*
X4846400Y-4655200I-37500J0D01*
G01*
X5368900Y-3217300D02*
G75*
G03*
X5368900Y-3217300I-37500J0D01*
G01*
X5389400Y-4655200D02*
G75*
G03*
X5389400Y-4655200I-37500J0D01*
G01*
X5568900Y-3217300D02*
G75*
G03*
X5568900Y-3217300I-37500J0D01*
G01*
X5589400Y-4655200D02*
G75*
G03*
X5589400Y-4655200I-37500J0D01*
G01*
X5768900Y-3217300D02*
G75*
G03*
X5768900Y-3217300I-37500J0D01*
G01*
X5789400Y-4655200D02*
G75*
G03*
X5789400Y-4655200I-37500J0D01*
G01*
X6321400Y-3217300D02*
G75*
G03*
X6321400Y-3217300I-37500J0D01*
G01*
X6341900Y-4655200D02*
G75*
G03*
X6341900Y-4655200I-37500J0D01*
G01*
X6521400Y-3217300D02*
G75*
G03*
X6521400Y-3217300I-37500J0D01*
G01*
X6541900Y-4655200D02*
G75*
G03*
X6541900Y-4655200I-37500J0D01*
G01*
X6721400Y-3217300D02*
G75*
G03*
X6721400Y-3217300I-37500J0D01*
G01*
X6741900Y-4655200D02*
G75*
G03*
X6741900Y-4655200I-37500J0D01*
G01*
D14*
X3619500Y113000D02*
X3619500Y33000D01*
X3579500Y73000D02*
X3659500Y73000D01*
X3619500Y-87000D02*
X3619500Y-167000D01*
X3579500Y-127000D02*
X3659500Y-127000D01*
X6223000Y-595000D02*
X6223000Y-675000D01*
X6183000Y-635000D02*
X6263000Y-635000D01*
X6223000Y-795000D02*
X6223000Y-875000D01*
X6183000Y-835000D02*
X6263000Y-835000D01*
D15*
X64356Y-1107356D02*
X64356Y-1036644D01*
X-6356Y-1036644D01*
X-6356Y-1107356D01*
X64356Y-1107356D01*
X64356Y-1757356D02*
X64356Y-1686644D01*
X-6356Y-1686644D01*
X-6356Y-1757356D01*
X64356Y-1757356D01*
X289356Y-2765856D02*
X289356Y-2695144D01*
X218644Y-2695144D01*
X218644Y-2765856D01*
X289356Y-2765856D01*
X289356Y-3019856D02*
X289356Y-2949144D01*
X218644Y-2949144D01*
X218644Y-3019856D01*
X289356Y-3019856D01*
X289356Y-3273856D02*
X289356Y-3203144D01*
X218644Y-3203144D01*
X218644Y-3273856D01*
X289356Y-3273856D01*
X289356Y-3527856D02*
X289356Y-3457144D01*
X218644Y-3457144D01*
X218644Y-3527856D01*
X289356Y-3527856D01*
X514356Y-1107356D02*
X514356Y-1036644D01*
X443644Y-1036644D01*
X443644Y-1107356D01*
X514356Y-1107356D01*
X514356Y-1757356D02*
X514356Y-1686644D01*
X443644Y-1686644D01*
X443644Y-1757356D01*
X514356Y-1757356D01*
X4353356Y-1432356D02*
X4353356Y-1361644D01*
X4282644Y-1361644D01*
X4282644Y-1432356D01*
X4353356Y-1432356D01*
X4353356Y-1686356D02*
X4353356Y-1615644D01*
X4282644Y-1615644D01*
X4282644Y-1686356D01*
X4353356Y-1686356D01*
X4607356Y-1432356D02*
X4607356Y-1361644D01*
X4536644Y-1361644D01*
X4536644Y-1432356D01*
X4607356Y-1432356D01*
X4607356Y-1686356D02*
X4607356Y-1615644D01*
X4536644Y-1615644D01*
X4536644Y-1686356D01*
X4607356Y-1686356D01*
X4861356Y-1432356D02*
X4861356Y-1361644D01*
X4790644Y-1361644D01*
X4790644Y-1432356D01*
X4861356Y-1432356D01*
X4861356Y-1686356D02*
X4861356Y-1615644D01*
X4790644Y-1615644D01*
X4790644Y-1686356D01*
X4861356Y-1686356D01*
X6131356Y-1432356D02*
X6131356Y-1361644D01*
X6060644Y-1361644D01*
X6060644Y-1432356D01*
X6131356Y-1432356D01*
X6131356Y-1686356D02*
X6131356Y-1615644D01*
X6060644Y-1615644D01*
X6060644Y-1686356D01*
X6131356Y-1686356D01*
X6385356Y-1432356D02*
X6385356Y-1361644D01*
X6314644Y-1361644D01*
X6314644Y-1432356D01*
X6385356Y-1432356D01*
X6385356Y-1686356D02*
X6385356Y-1615644D01*
X6314644Y-1615644D01*
X6314644Y-1686356D01*
X6385356Y-1686356D01*
X6639356Y-1432356D02*
X6639356Y-1361644D01*
X6568644Y-1361644D01*
X6568644Y-1432356D01*
X6639356Y-1432356D01*
X6639356Y-1686356D02*
X6639356Y-1615644D01*
X6568644Y-1615644D01*
X6568644Y-1686356D01*
X6639356Y-1686356D01*
X6893356Y-1432356D02*
X6893356Y-1361644D01*
X6822644Y-1361644D01*
X6822644Y-1432356D01*
X6893356Y-1432356D01*
X6893356Y-1686356D02*
X6893356Y-1615644D01*
X6822644Y-1615644D01*
X6822644Y-1686356D01*
X6893356Y-1686356D01*
X7147356Y-1432356D02*
X7147356Y-1361644D01*
X7076644Y-1361644D01*
X7076644Y-1432356D01*
X7147356Y-1432356D01*
X7147356Y-1686356D02*
X7147356Y-1615644D01*
X7076644Y-1615644D01*
X7076644Y-1686356D01*
X7147356Y-1686356D01*
D11*
X141027Y-5966976D02*
X141027Y-5766976D01*
X188646Y-5766976D01*
X217217Y-5776500D01*
X236265Y-5795548D01*
X245789Y-5814595D01*
X255312Y-5852690D01*
X255312Y-5881262D01*
X245789Y-5919357D01*
X236265Y-5938405D01*
X217217Y-5957452D01*
X188646Y-5966976D01*
X141027Y-5966976D01*
X341027Y-5966976D02*
X341027Y-5833643D01*
X341027Y-5871738D02*
X350550Y-5852690D01*
X360074Y-5843167D01*
X379122Y-5833643D01*
X398170Y-5833643D01*
X464836Y-5966976D02*
X464836Y-5833643D01*
X464836Y-5766976D02*
X455312Y-5776500D01*
X464836Y-5786024D01*
X474360Y-5776500D01*
X464836Y-5766976D01*
X464836Y-5786024D01*
X588646Y-5966976D02*
X569598Y-5957452D01*
X560074Y-5938405D01*
X560074Y-5766976D01*
X693408Y-5966976D02*
X674360Y-5957452D01*
X664836Y-5938405D01*
X664836Y-5766976D01*
X921979Y-5966976D02*
X921979Y-5766976D01*
X988646Y-5909833D01*
X1055312Y-5766976D01*
X1055312Y-5966976D01*
X1236265Y-5966976D02*
X1236265Y-5862214D01*
X1226741Y-5843167D01*
X1207693Y-5833643D01*
X1169598Y-5833643D01*
X1150551Y-5843167D01*
X1236265Y-5957452D02*
X1217217Y-5966976D01*
X1169598Y-5966976D01*
X1150551Y-5957452D01*
X1141027Y-5938405D01*
X1141027Y-5919357D01*
X1150551Y-5900309D01*
X1169598Y-5890786D01*
X1217217Y-5890786D01*
X1236265Y-5881262D01*
X1331503Y-5833643D02*
X1331503Y-6033643D01*
X1331503Y-5843167D02*
X1350551Y-5833643D01*
X1388646Y-5833643D01*
X1407693Y-5843167D01*
X1417217Y-5852690D01*
X1426741Y-5871738D01*
X1426741Y-5928881D01*
X1417217Y-5947928D01*
X1407693Y-5957452D01*
X1388646Y-5966976D01*
X1350551Y-5966976D01*
X1331503Y-5957452D01*
X1512455Y-5947928D02*
X1521979Y-5957452D01*
X1512455Y-5966976D01*
X1502931Y-5957452D01*
X1512455Y-5947928D01*
X1512455Y-5966976D01*
X1512455Y-5843167D02*
X1521979Y-5852690D01*
X1512455Y-5862214D01*
X1502931Y-5852690D01*
X1512455Y-5843167D01*
X1512455Y-5862214D01*
D12*
X-156592Y-6276500D02*
X-116592Y-6316500D01*
X-116592Y-6276500D02*
X-156592Y-6316500D01*
D11*
X179122Y-6186976D02*
X198170Y-6186976D01*
X217217Y-6196500D01*
X226741Y-6206024D01*
X236265Y-6225071D01*
X245789Y-6263167D01*
X245789Y-6310786D01*
X236265Y-6348881D01*
X226741Y-6367928D01*
X217217Y-6377452D01*
X198170Y-6386976D01*
X179122Y-6386976D01*
X160074Y-6377452D01*
X150551Y-6367928D01*
X141027Y-6348881D01*
X131503Y-6310786D01*
X131503Y-6263167D01*
X141027Y-6225071D01*
X150551Y-6206024D01*
X160074Y-6196500D01*
X179122Y-6186976D01*
X331503Y-6367928D02*
X341027Y-6377452D01*
X331503Y-6386976D01*
X321979Y-6377452D01*
X331503Y-6367928D01*
X331503Y-6386976D01*
X512455Y-6253643D02*
X512455Y-6386976D01*
X464836Y-6177452D02*
X417217Y-6320309D01*
X541027Y-6320309D01*
X655312Y-6186976D02*
X674360Y-6186976D01*
X693408Y-6196500D01*
X702931Y-6206024D01*
X712455Y-6225071D01*
X721979Y-6263167D01*
X721979Y-6310786D01*
X712455Y-6348881D01*
X702931Y-6367928D01*
X693408Y-6377452D01*
X674360Y-6386976D01*
X655312Y-6386976D01*
X636265Y-6377452D01*
X626741Y-6367928D01*
X617217Y-6348881D01*
X607693Y-6310786D01*
X607693Y-6263167D01*
X617217Y-6225071D01*
X626741Y-6206024D01*
X636265Y-6196500D01*
X655312Y-6186976D01*
X845789Y-6186976D02*
X864836Y-6186976D01*
X883884Y-6196500D01*
X893408Y-6206024D01*
X902931Y-6225071D01*
X912455Y-6263167D01*
X912455Y-6310786D01*
X902931Y-6348881D01*
X893408Y-6367928D01*
X883884Y-6377452D01*
X864836Y-6386976D01*
X845789Y-6386976D01*
X826741Y-6377452D01*
X817217Y-6367928D01*
X807693Y-6348881D01*
X798170Y-6310786D01*
X798170Y-6263167D01*
X807693Y-6225071D01*
X817217Y-6206024D01*
X826741Y-6196500D01*
X845789Y-6186976D01*
X998170Y-6386976D02*
X998170Y-6253643D01*
X998170Y-6272690D02*
X1007693Y-6263167D01*
X1026741Y-6253643D01*
X1055312Y-6253643D01*
X1074360Y-6263167D01*
X1083884Y-6282214D01*
X1083884Y-6386976D01*
X1083884Y-6282214D02*
X1093408Y-6263167D01*
X1112455Y-6253643D01*
X1141027Y-6253643D01*
X1160074Y-6263167D01*
X1169598Y-6282214D01*
X1169598Y-6386976D01*
X1264836Y-6386976D02*
X1264836Y-6253643D01*
X1264836Y-6272690D02*
X1274360Y-6263167D01*
X1293408Y-6253643D01*
X1321979Y-6253643D01*
X1341027Y-6263167D01*
X1350551Y-6282214D01*
X1350551Y-6386976D01*
X1350551Y-6282214D02*
X1360074Y-6263167D01*
X1379122Y-6253643D01*
X1407693Y-6253643D01*
X1426741Y-6263167D01*
X1436265Y-6282214D01*
X1436265Y-6386976D01*
X1826741Y-6177452D02*
X1655312Y-6434595D01*
X2083884Y-6186976D02*
X2102932Y-6186976D01*
X2121979Y-6196500D01*
X2131503Y-6206024D01*
X2141027Y-6225071D01*
X2150551Y-6263167D01*
X2150551Y-6310786D01*
X2141027Y-6348881D01*
X2131503Y-6367928D01*
X2121979Y-6377452D01*
X2102932Y-6386976D01*
X2083884Y-6386976D01*
X2064836Y-6377452D01*
X2055312Y-6367928D01*
X2045789Y-6348881D01*
X2036265Y-6310786D01*
X2036265Y-6263167D01*
X2045789Y-6225071D01*
X2055312Y-6206024D01*
X2064836Y-6196500D01*
X2083884Y-6186976D01*
X2236265Y-6367928D02*
X2245789Y-6377452D01*
X2236265Y-6386976D01*
X2226741Y-6377452D01*
X2236265Y-6367928D01*
X2236265Y-6386976D01*
X2369598Y-6186976D02*
X2388646Y-6186976D01*
X2407693Y-6196500D01*
X2417217Y-6206024D01*
X2426741Y-6225071D01*
X2436265Y-6263167D01*
X2436265Y-6310786D01*
X2426741Y-6348881D01*
X2417217Y-6367928D01*
X2407693Y-6377452D01*
X2388646Y-6386976D01*
X2369598Y-6386976D01*
X2350551Y-6377452D01*
X2341027Y-6367928D01*
X2331503Y-6348881D01*
X2321979Y-6310786D01*
X2321979Y-6263167D01*
X2331503Y-6225071D01*
X2341027Y-6206024D01*
X2350551Y-6196500D01*
X2369598Y-6186976D01*
X2626741Y-6386976D02*
X2512455Y-6386976D01*
X2569598Y-6386976D02*
X2569598Y-6186976D01*
X2550551Y-6215548D01*
X2531503Y-6234595D01*
X2512455Y-6244119D01*
X2807693Y-6186976D02*
X2712455Y-6186976D01*
X2702932Y-6282214D01*
X2712455Y-6272690D01*
X2731503Y-6263167D01*
X2779122Y-6263167D01*
X2798170Y-6272690D01*
X2807693Y-6282214D01*
X2817217Y-6301262D01*
X2817217Y-6348881D01*
X2807693Y-6367928D01*
X2798170Y-6377452D01*
X2779122Y-6386976D01*
X2731503Y-6386976D01*
X2712455Y-6377452D01*
X2702932Y-6367928D01*
X2883884Y-6186976D02*
X3017217Y-6186976D01*
X2931503Y-6386976D01*
X3083884Y-6186976D02*
X3083884Y-6225071D01*
X3160074Y-6186976D02*
X3160074Y-6225071D01*
X3455312Y-6463167D02*
X3445789Y-6453643D01*
X3426741Y-6425071D01*
X3417217Y-6406024D01*
X3407693Y-6377452D01*
X3398170Y-6329833D01*
X3398170Y-6291738D01*
X3407693Y-6244119D01*
X3417217Y-6215548D01*
X3426741Y-6196500D01*
X3445789Y-6167928D01*
X3455312Y-6158405D01*
X3617217Y-6186976D02*
X3579122Y-6186976D01*
X3560074Y-6196500D01*
X3550550Y-6206024D01*
X3531503Y-6234595D01*
X3521979Y-6272690D01*
X3521979Y-6348881D01*
X3531503Y-6367928D01*
X3541027Y-6377452D01*
X3560074Y-6386976D01*
X3598170Y-6386976D01*
X3617217Y-6377452D01*
X3626741Y-6367928D01*
X3636265Y-6348881D01*
X3636265Y-6301262D01*
X3626741Y-6282214D01*
X3617217Y-6272690D01*
X3598170Y-6263167D01*
X3560074Y-6263167D01*
X3541027Y-6272690D01*
X3531503Y-6282214D01*
X3521979Y-6301262D01*
X3807693Y-6186976D02*
X3769598Y-6186976D01*
X3750550Y-6196500D01*
X3741027Y-6206024D01*
X3721979Y-6234595D01*
X3712455Y-6272690D01*
X3712455Y-6348881D01*
X3721979Y-6367928D01*
X3731503Y-6377452D01*
X3750550Y-6386976D01*
X3788646Y-6386976D01*
X3807693Y-6377452D01*
X3817217Y-6367928D01*
X3826741Y-6348881D01*
X3826741Y-6301262D01*
X3817217Y-6282214D01*
X3807693Y-6272690D01*
X3788646Y-6263167D01*
X3750550Y-6263167D01*
X3731503Y-6272690D01*
X3721979Y-6282214D01*
X3712455Y-6301262D01*
X4064836Y-6386976D02*
X4064836Y-6186976D01*
X4150550Y-6386976D02*
X4150550Y-6282214D01*
X4141027Y-6263167D01*
X4121979Y-6253643D01*
X4093408Y-6253643D01*
X4074360Y-6263167D01*
X4064836Y-6272690D01*
X4274360Y-6386976D02*
X4255312Y-6377452D01*
X4245789Y-6367928D01*
X4236265Y-6348881D01*
X4236265Y-6291738D01*
X4245789Y-6272690D01*
X4255312Y-6263167D01*
X4274360Y-6253643D01*
X4302932Y-6253643D01*
X4321979Y-6263167D01*
X4331503Y-6272690D01*
X4341027Y-6291738D01*
X4341027Y-6348881D01*
X4331503Y-6367928D01*
X4321979Y-6377452D01*
X4302932Y-6386976D01*
X4274360Y-6386976D01*
X4455312Y-6386976D02*
X4436265Y-6377452D01*
X4426741Y-6358405D01*
X4426741Y-6186976D01*
X4607693Y-6377452D02*
X4588646Y-6386976D01*
X4550551Y-6386976D01*
X4531503Y-6377452D01*
X4521979Y-6358405D01*
X4521979Y-6282214D01*
X4531503Y-6263167D01*
X4550551Y-6253643D01*
X4588646Y-6253643D01*
X4607693Y-6263167D01*
X4617217Y-6282214D01*
X4617217Y-6301262D01*
X4521979Y-6320309D01*
X4693408Y-6377452D02*
X4712455Y-6386976D01*
X4750551Y-6386976D01*
X4769598Y-6377452D01*
X4779122Y-6358405D01*
X4779122Y-6348881D01*
X4769598Y-6329833D01*
X4750551Y-6320309D01*
X4721979Y-6320309D01*
X4702932Y-6310786D01*
X4693408Y-6291738D01*
X4693408Y-6282214D01*
X4702932Y-6263167D01*
X4721979Y-6253643D01*
X4750551Y-6253643D01*
X4769598Y-6263167D01*
X4845789Y-6463167D02*
X4855312Y-6453643D01*
X4874360Y-6425071D01*
X4883884Y-6406024D01*
X4893408Y-6377452D01*
X4902932Y-6329833D01*
X4902932Y-6291738D01*
X4893408Y-6244119D01*
X4883884Y-6215548D01*
X4874360Y-6196500D01*
X4855312Y-6167928D01*
X4845789Y-6158405D01*
D13*
X-116592Y-6560500D02*
G75*
G03*
X-116592Y-6560500I-37500J0D01*
G01*
D11*
X179122Y-6450976D02*
X198170Y-6450976D01*
X217217Y-6460500D01*
X226741Y-6470024D01*
X236265Y-6489071D01*
X245789Y-6527167D01*
X245789Y-6574786D01*
X236265Y-6612881D01*
X226741Y-6631928D01*
X217217Y-6641452D01*
X198170Y-6650976D01*
X179122Y-6650976D01*
X160074Y-6641452D01*
X150551Y-6631928D01*
X141027Y-6612881D01*
X131503Y-6574786D01*
X131503Y-6527167D01*
X141027Y-6489071D01*
X150551Y-6470024D01*
X160074Y-6460500D01*
X179122Y-6450976D01*
X331503Y-6631928D02*
X341027Y-6641452D01*
X331503Y-6650976D01*
X321979Y-6641452D01*
X331503Y-6631928D01*
X331503Y-6650976D01*
X407693Y-6450976D02*
X541027Y-6450976D01*
X455312Y-6650976D01*
X712455Y-6450976D02*
X617217Y-6450976D01*
X607693Y-6546214D01*
X617217Y-6536690D01*
X636265Y-6527167D01*
X683884Y-6527167D01*
X702931Y-6536690D01*
X712455Y-6546214D01*
X721979Y-6565262D01*
X721979Y-6612881D01*
X712455Y-6631928D01*
X702931Y-6641452D01*
X683884Y-6650976D01*
X636265Y-6650976D01*
X617217Y-6641452D01*
X607693Y-6631928D01*
X845789Y-6450976D02*
X864836Y-6450976D01*
X883884Y-6460500D01*
X893408Y-6470024D01*
X902931Y-6489071D01*
X912455Y-6527167D01*
X912455Y-6574786D01*
X902931Y-6612881D01*
X893408Y-6631928D01*
X883884Y-6641452D01*
X864836Y-6650976D01*
X845789Y-6650976D01*
X826741Y-6641452D01*
X817217Y-6631928D01*
X807693Y-6612881D01*
X798170Y-6574786D01*
X798170Y-6527167D01*
X807693Y-6489071D01*
X817217Y-6470024D01*
X826741Y-6460500D01*
X845789Y-6450976D01*
X998170Y-6650976D02*
X998170Y-6517643D01*
X998170Y-6536690D02*
X1007693Y-6527167D01*
X1026741Y-6517643D01*
X1055312Y-6517643D01*
X1074360Y-6527167D01*
X1083884Y-6546214D01*
X1083884Y-6650976D01*
X1083884Y-6546214D02*
X1093408Y-6527167D01*
X1112455Y-6517643D01*
X1141027Y-6517643D01*
X1160074Y-6527167D01*
X1169598Y-6546214D01*
X1169598Y-6650976D01*
X1264836Y-6650976D02*
X1264836Y-6517643D01*
X1264836Y-6536690D02*
X1274360Y-6527167D01*
X1293408Y-6517643D01*
X1321979Y-6517643D01*
X1341027Y-6527167D01*
X1350551Y-6546214D01*
X1350551Y-6650976D01*
X1350551Y-6546214D02*
X1360074Y-6527167D01*
X1379122Y-6517643D01*
X1407693Y-6517643D01*
X1426741Y-6527167D01*
X1436265Y-6546214D01*
X1436265Y-6650976D01*
X1826741Y-6441452D02*
X1655312Y-6698595D01*
X2083884Y-6450976D02*
X2102932Y-6450976D01*
X2121979Y-6460500D01*
X2131503Y-6470024D01*
X2141027Y-6489071D01*
X2150551Y-6527167D01*
X2150551Y-6574786D01*
X2141027Y-6612881D01*
X2131503Y-6631928D01*
X2121979Y-6641452D01*
X2102932Y-6650976D01*
X2083884Y-6650976D01*
X2064836Y-6641452D01*
X2055312Y-6631928D01*
X2045789Y-6612881D01*
X2036265Y-6574786D01*
X2036265Y-6527167D01*
X2045789Y-6489071D01*
X2055312Y-6470024D01*
X2064836Y-6460500D01*
X2083884Y-6450976D01*
X2236265Y-6631928D02*
X2245789Y-6641452D01*
X2236265Y-6650976D01*
X2226741Y-6641452D01*
X2236265Y-6631928D01*
X2236265Y-6650976D01*
X2369598Y-6450976D02*
X2388646Y-6450976D01*
X2407693Y-6460500D01*
X2417217Y-6470024D01*
X2426741Y-6489071D01*
X2436265Y-6527167D01*
X2436265Y-6574786D01*
X2426741Y-6612881D01*
X2417217Y-6631928D01*
X2407693Y-6641452D01*
X2388646Y-6650976D01*
X2369598Y-6650976D01*
X2350551Y-6641452D01*
X2341027Y-6631928D01*
X2331503Y-6612881D01*
X2321979Y-6574786D01*
X2321979Y-6527167D01*
X2331503Y-6489071D01*
X2341027Y-6470024D01*
X2350551Y-6460500D01*
X2369598Y-6450976D01*
X2512455Y-6470024D02*
X2521979Y-6460500D01*
X2541027Y-6450976D01*
X2588646Y-6450976D01*
X2607693Y-6460500D01*
X2617217Y-6470024D01*
X2626741Y-6489071D01*
X2626741Y-6508119D01*
X2617217Y-6536690D01*
X2502932Y-6650976D01*
X2626741Y-6650976D01*
X2721979Y-6650976D02*
X2760074Y-6650976D01*
X2779122Y-6641452D01*
X2788646Y-6631928D01*
X2807693Y-6603357D01*
X2817217Y-6565262D01*
X2817217Y-6489071D01*
X2807693Y-6470024D01*
X2798170Y-6460500D01*
X2779122Y-6450976D01*
X2741027Y-6450976D01*
X2721979Y-6460500D01*
X2712455Y-6470024D01*
X2702932Y-6489071D01*
X2702932Y-6536690D01*
X2712455Y-6555738D01*
X2721979Y-6565262D01*
X2741027Y-6574786D01*
X2779122Y-6574786D01*
X2798170Y-6565262D01*
X2807693Y-6555738D01*
X2817217Y-6536690D01*
X2998170Y-6450976D02*
X2902931Y-6450976D01*
X2893408Y-6546214D01*
X2902931Y-6536690D01*
X2921979Y-6527167D01*
X2969598Y-6527167D01*
X2988646Y-6536690D01*
X2998170Y-6546214D01*
X3007693Y-6565262D01*
X3007693Y-6612881D01*
X2998170Y-6631928D01*
X2988646Y-6641452D01*
X2969598Y-6650976D01*
X2921979Y-6650976D01*
X2902931Y-6641452D01*
X2893408Y-6631928D01*
X3083884Y-6450976D02*
X3083884Y-6489071D01*
X3160074Y-6450976D02*
X3160074Y-6489071D01*
X3455312Y-6727167D02*
X3445789Y-6717643D01*
X3426741Y-6689071D01*
X3417217Y-6670024D01*
X3407693Y-6641452D01*
X3398170Y-6593833D01*
X3398170Y-6555738D01*
X3407693Y-6508119D01*
X3417217Y-6479548D01*
X3426741Y-6460500D01*
X3445789Y-6431928D01*
X3455312Y-6422405D01*
X3512455Y-6450976D02*
X3636265Y-6450976D01*
X3569598Y-6527167D01*
X3598170Y-6527167D01*
X3617217Y-6536690D01*
X3626741Y-6546214D01*
X3636265Y-6565262D01*
X3636265Y-6612881D01*
X3626741Y-6631928D01*
X3617217Y-6641452D01*
X3598170Y-6650976D01*
X3541027Y-6650976D01*
X3521979Y-6641452D01*
X3512455Y-6631928D01*
X3807693Y-6450976D02*
X3769598Y-6450976D01*
X3750550Y-6460500D01*
X3741027Y-6470024D01*
X3721979Y-6498595D01*
X3712455Y-6536690D01*
X3712455Y-6612881D01*
X3721979Y-6631928D01*
X3731503Y-6641452D01*
X3750550Y-6650976D01*
X3788646Y-6650976D01*
X3807693Y-6641452D01*
X3817217Y-6631928D01*
X3826741Y-6612881D01*
X3826741Y-6565262D01*
X3817217Y-6546214D01*
X3807693Y-6536690D01*
X3788646Y-6527167D01*
X3750550Y-6527167D01*
X3731503Y-6536690D01*
X3721979Y-6546214D01*
X3712455Y-6565262D01*
X4064836Y-6650976D02*
X4064836Y-6450976D01*
X4150550Y-6650976D02*
X4150550Y-6546214D01*
X4141027Y-6527167D01*
X4121979Y-6517643D01*
X4093408Y-6517643D01*
X4074360Y-6527167D01*
X4064836Y-6536690D01*
X4274360Y-6650976D02*
X4255312Y-6641452D01*
X4245789Y-6631928D01*
X4236265Y-6612881D01*
X4236265Y-6555738D01*
X4245789Y-6536690D01*
X4255312Y-6527167D01*
X4274360Y-6517643D01*
X4302932Y-6517643D01*
X4321979Y-6527167D01*
X4331503Y-6536690D01*
X4341027Y-6555738D01*
X4341027Y-6612881D01*
X4331503Y-6631928D01*
X4321979Y-6641452D01*
X4302932Y-6650976D01*
X4274360Y-6650976D01*
X4455312Y-6650976D02*
X4436265Y-6641452D01*
X4426741Y-6622405D01*
X4426741Y-6450976D01*
X4607693Y-6641452D02*
X4588646Y-6650976D01*
X4550551Y-6650976D01*
X4531503Y-6641452D01*
X4521979Y-6622405D01*
X4521979Y-6546214D01*
X4531503Y-6527167D01*
X4550551Y-6517643D01*
X4588646Y-6517643D01*
X4607693Y-6527167D01*
X4617217Y-6546214D01*
X4617217Y-6565262D01*
X4521979Y-6584309D01*
X4693408Y-6641452D02*
X4712455Y-6650976D01*
X4750551Y-6650976D01*
X4769598Y-6641452D01*
X4779122Y-6622405D01*
X4779122Y-6612881D01*
X4769598Y-6593833D01*
X4750551Y-6584309D01*
X4721979Y-6584309D01*
X4702932Y-6574786D01*
X4693408Y-6555738D01*
X4693408Y-6546214D01*
X4702932Y-6527167D01*
X4721979Y-6517643D01*
X4750551Y-6517643D01*
X4769598Y-6527167D01*
X4845789Y-6727167D02*
X4855312Y-6717643D01*
X4874360Y-6689071D01*
X4883884Y-6670024D01*
X4893408Y-6641452D01*
X4902932Y-6593833D01*
X4902932Y-6555738D01*
X4893408Y-6508119D01*
X4883884Y-6479548D01*
X4874360Y-6460500D01*
X4855312Y-6431928D01*
X4845789Y-6422405D01*
D14*
X-156592Y-6784500D02*
X-156592Y-6864500D01*
X-196592Y-6824500D02*
X-116592Y-6824500D01*
D11*
X179122Y-6714976D02*
X198170Y-6714976D01*
X217217Y-6724500D01*
X226741Y-6734024D01*
X236265Y-6753071D01*
X245789Y-6791167D01*
X245789Y-6838786D01*
X236265Y-6876881D01*
X226741Y-6895928D01*
X217217Y-6905452D01*
X198170Y-6914976D01*
X179122Y-6914976D01*
X160074Y-6905452D01*
X150551Y-6895928D01*
X141027Y-6876881D01*
X131503Y-6838786D01*
X131503Y-6791167D01*
X141027Y-6753071D01*
X150551Y-6734024D01*
X160074Y-6724500D01*
X179122Y-6714976D01*
X331503Y-6895928D02*
X341027Y-6905452D01*
X331503Y-6914976D01*
X321979Y-6905452D01*
X331503Y-6895928D01*
X331503Y-6914976D01*
X455312Y-6800690D02*
X436265Y-6791167D01*
X426741Y-6781643D01*
X417217Y-6762595D01*
X417217Y-6753071D01*
X426741Y-6734024D01*
X436265Y-6724500D01*
X455312Y-6714976D01*
X493408Y-6714976D01*
X512455Y-6724500D01*
X521979Y-6734024D01*
X531503Y-6753071D01*
X531503Y-6762595D01*
X521979Y-6781643D01*
X512455Y-6791167D01*
X493408Y-6800690D01*
X455312Y-6800690D01*
X436265Y-6810214D01*
X426741Y-6819738D01*
X417217Y-6838786D01*
X417217Y-6876881D01*
X426741Y-6895928D01*
X436265Y-6905452D01*
X455312Y-6914976D01*
X493408Y-6914976D01*
X512455Y-6905452D01*
X521979Y-6895928D01*
X531503Y-6876881D01*
X531503Y-6838786D01*
X521979Y-6819738D01*
X512455Y-6810214D01*
X493408Y-6800690D01*
X655312Y-6714976D02*
X674360Y-6714976D01*
X693408Y-6724500D01*
X702931Y-6734024D01*
X712455Y-6753071D01*
X721979Y-6791167D01*
X721979Y-6838786D01*
X712455Y-6876881D01*
X702931Y-6895928D01*
X693408Y-6905452D01*
X674360Y-6914976D01*
X655312Y-6914976D01*
X636265Y-6905452D01*
X626741Y-6895928D01*
X617217Y-6876881D01*
X607693Y-6838786D01*
X607693Y-6791167D01*
X617217Y-6753071D01*
X626741Y-6734024D01*
X636265Y-6724500D01*
X655312Y-6714976D01*
X845789Y-6714976D02*
X864836Y-6714976D01*
X883884Y-6724500D01*
X893408Y-6734024D01*
X902931Y-6753071D01*
X912455Y-6791167D01*
X912455Y-6838786D01*
X902931Y-6876881D01*
X893408Y-6895928D01*
X883884Y-6905452D01*
X864836Y-6914976D01*
X845789Y-6914976D01*
X826741Y-6905452D01*
X817217Y-6895928D01*
X807693Y-6876881D01*
X798170Y-6838786D01*
X798170Y-6791167D01*
X807693Y-6753071D01*
X817217Y-6734024D01*
X826741Y-6724500D01*
X845789Y-6714976D01*
X998170Y-6914976D02*
X998170Y-6781643D01*
X998170Y-6800690D02*
X1007693Y-6791167D01*
X1026741Y-6781643D01*
X1055312Y-6781643D01*
X1074360Y-6791167D01*
X1083884Y-6810214D01*
X1083884Y-6914976D01*
X1083884Y-6810214D02*
X1093408Y-6791167D01*
X1112455Y-6781643D01*
X1141027Y-6781643D01*
X1160074Y-6791167D01*
X1169598Y-6810214D01*
X1169598Y-6914976D01*
X1264836Y-6914976D02*
X1264836Y-6781643D01*
X1264836Y-6800690D02*
X1274360Y-6791167D01*
X1293408Y-6781643D01*
X1321979Y-6781643D01*
X1341027Y-6791167D01*
X1350551Y-6810214D01*
X1350551Y-6914976D01*
X1350551Y-6810214D02*
X1360074Y-6791167D01*
X1379122Y-6781643D01*
X1407693Y-6781643D01*
X1426741Y-6791167D01*
X1436265Y-6810214D01*
X1436265Y-6914976D01*
X1826741Y-6705452D02*
X1655312Y-6962595D01*
X2083884Y-6714976D02*
X2102932Y-6714976D01*
X2121979Y-6724500D01*
X2131503Y-6734024D01*
X2141027Y-6753071D01*
X2150551Y-6791167D01*
X2150551Y-6838786D01*
X2141027Y-6876881D01*
X2131503Y-6895928D01*
X2121979Y-6905452D01*
X2102932Y-6914976D01*
X2083884Y-6914976D01*
X2064836Y-6905452D01*
X2055312Y-6895928D01*
X2045789Y-6876881D01*
X2036265Y-6838786D01*
X2036265Y-6791167D01*
X2045789Y-6753071D01*
X2055312Y-6734024D01*
X2064836Y-6724500D01*
X2083884Y-6714976D01*
X2236265Y-6895928D02*
X2245789Y-6905452D01*
X2236265Y-6914976D01*
X2226741Y-6905452D01*
X2236265Y-6895928D01*
X2236265Y-6914976D01*
X2369598Y-6714976D02*
X2388646Y-6714976D01*
X2407693Y-6724500D01*
X2417217Y-6734024D01*
X2426741Y-6753071D01*
X2436265Y-6791167D01*
X2436265Y-6838786D01*
X2426741Y-6876881D01*
X2417217Y-6895928D01*
X2407693Y-6905452D01*
X2388646Y-6914976D01*
X2369598Y-6914976D01*
X2350551Y-6905452D01*
X2341027Y-6895928D01*
X2331503Y-6876881D01*
X2321979Y-6838786D01*
X2321979Y-6791167D01*
X2331503Y-6753071D01*
X2341027Y-6734024D01*
X2350551Y-6724500D01*
X2369598Y-6714976D01*
X2502932Y-6714976D02*
X2626741Y-6714976D01*
X2560074Y-6791167D01*
X2588646Y-6791167D01*
X2607693Y-6800690D01*
X2617217Y-6810214D01*
X2626741Y-6829262D01*
X2626741Y-6876881D01*
X2617217Y-6895928D01*
X2607693Y-6905452D01*
X2588646Y-6914976D01*
X2531503Y-6914976D01*
X2512455Y-6905452D01*
X2502932Y-6895928D01*
X2817217Y-6914976D02*
X2702932Y-6914976D01*
X2760074Y-6914976D02*
X2760074Y-6714976D01*
X2741027Y-6743548D01*
X2721979Y-6762595D01*
X2702932Y-6772119D01*
X2998170Y-6714976D02*
X2902931Y-6714976D01*
X2893408Y-6810214D01*
X2902931Y-6800690D01*
X2921979Y-6791167D01*
X2969598Y-6791167D01*
X2988646Y-6800690D01*
X2998170Y-6810214D01*
X3007693Y-6829262D01*
X3007693Y-6876881D01*
X2998170Y-6895928D01*
X2988646Y-6905452D01*
X2969598Y-6914976D01*
X2921979Y-6914976D01*
X2902931Y-6905452D01*
X2893408Y-6895928D01*
X3083884Y-6714976D02*
X3083884Y-6753071D01*
X3160074Y-6714976D02*
X3160074Y-6753071D01*
X3455312Y-6991167D02*
X3445789Y-6981643D01*
X3426741Y-6953071D01*
X3417217Y-6934024D01*
X3407693Y-6905452D01*
X3398170Y-6857833D01*
X3398170Y-6819738D01*
X3407693Y-6772119D01*
X3417217Y-6743548D01*
X3426741Y-6724500D01*
X3445789Y-6695928D01*
X3455312Y-6686405D01*
X3617217Y-6781643D02*
X3617217Y-6914976D01*
X3569598Y-6705452D02*
X3521979Y-6848309D01*
X3645789Y-6848309D01*
X3874360Y-6914976D02*
X3874360Y-6714976D01*
X3960074Y-6914976D02*
X3960074Y-6810214D01*
X3950550Y-6791167D01*
X3931503Y-6781643D01*
X3902931Y-6781643D01*
X3883884Y-6791167D01*
X3874360Y-6800690D01*
X4083884Y-6914976D02*
X4064836Y-6905452D01*
X4055312Y-6895928D01*
X4045789Y-6876881D01*
X4045789Y-6819738D01*
X4055312Y-6800690D01*
X4064836Y-6791167D01*
X4083884Y-6781643D01*
X4112455Y-6781643D01*
X4131503Y-6791167D01*
X4141027Y-6800690D01*
X4150550Y-6819738D01*
X4150550Y-6876881D01*
X4141027Y-6895928D01*
X4131503Y-6905452D01*
X4112455Y-6914976D01*
X4083884Y-6914976D01*
X4264836Y-6914976D02*
X4245789Y-6905452D01*
X4236265Y-6886405D01*
X4236265Y-6714976D01*
X4417217Y-6905452D02*
X4398170Y-6914976D01*
X4360074Y-6914976D01*
X4341027Y-6905452D01*
X4331503Y-6886405D01*
X4331503Y-6810214D01*
X4341027Y-6791167D01*
X4360074Y-6781643D01*
X4398170Y-6781643D01*
X4417217Y-6791167D01*
X4426741Y-6810214D01*
X4426741Y-6829262D01*
X4331503Y-6848309D01*
X4502932Y-6905452D02*
X4521979Y-6914976D01*
X4560074Y-6914976D01*
X4579122Y-6905452D01*
X4588646Y-6886405D01*
X4588646Y-6876881D01*
X4579122Y-6857833D01*
X4560074Y-6848309D01*
X4531503Y-6848309D01*
X4512455Y-6838786D01*
X4502932Y-6819738D01*
X4502932Y-6810214D01*
X4512455Y-6791167D01*
X4531503Y-6781643D01*
X4560074Y-6781643D01*
X4579122Y-6791167D01*
X4655312Y-6991167D02*
X4664836Y-6981643D01*
X4683884Y-6953071D01*
X4693408Y-6934024D01*
X4702932Y-6905452D01*
X4712455Y-6857833D01*
X4712455Y-6819738D01*
X4702932Y-6772119D01*
X4693408Y-6743548D01*
X4683884Y-6724500D01*
X4664836Y-6695928D01*
X4655312Y-6686405D01*
D15*
X-131237Y-7123856D02*
X-131237Y-7053144D01*
X-201948Y-7053144D01*
X-201948Y-7123856D01*
X-131237Y-7123856D01*
D11*
X245789Y-7178976D02*
X131503Y-7178976D01*
X188646Y-7178976D02*
X188646Y-6978976D01*
X169598Y-7007548D01*
X150551Y-7026595D01*
X131503Y-7036119D01*
X331503Y-7159928D02*
X341027Y-7169452D01*
X331503Y-7178976D01*
X321979Y-7169452D01*
X331503Y-7159928D01*
X331503Y-7178976D01*
X464836Y-6978976D02*
X483884Y-6978976D01*
X502931Y-6988500D01*
X512455Y-6998024D01*
X521979Y-7017071D01*
X531503Y-7055167D01*
X531503Y-7102786D01*
X521979Y-7140881D01*
X512455Y-7159928D01*
X502931Y-7169452D01*
X483884Y-7178976D01*
X464836Y-7178976D01*
X445789Y-7169452D01*
X436265Y-7159928D01*
X426741Y-7140881D01*
X417217Y-7102786D01*
X417217Y-7055167D01*
X426741Y-7017071D01*
X436265Y-6998024D01*
X445789Y-6988500D01*
X464836Y-6978976D01*
X655312Y-6978976D02*
X674360Y-6978976D01*
X693408Y-6988500D01*
X702931Y-6998024D01*
X712455Y-7017071D01*
X721979Y-7055167D01*
X721979Y-7102786D01*
X712455Y-7140881D01*
X702931Y-7159928D01*
X693408Y-7169452D01*
X674360Y-7178976D01*
X655312Y-7178976D01*
X636265Y-7169452D01*
X626741Y-7159928D01*
X617217Y-7140881D01*
X607693Y-7102786D01*
X607693Y-7055167D01*
X617217Y-7017071D01*
X626741Y-6998024D01*
X636265Y-6988500D01*
X655312Y-6978976D01*
X845789Y-6978976D02*
X864836Y-6978976D01*
X883884Y-6988500D01*
X893408Y-6998024D01*
X902931Y-7017071D01*
X912455Y-7055167D01*
X912455Y-7102786D01*
X902931Y-7140881D01*
X893408Y-7159928D01*
X883884Y-7169452D01*
X864836Y-7178976D01*
X845789Y-7178976D01*
X826741Y-7169452D01*
X817217Y-7159928D01*
X807693Y-7140881D01*
X798170Y-7102786D01*
X798170Y-7055167D01*
X807693Y-7017071D01*
X817217Y-6998024D01*
X826741Y-6988500D01*
X845789Y-6978976D01*
X998170Y-7178976D02*
X998170Y-7045643D01*
X998170Y-7064690D02*
X1007693Y-7055167D01*
X1026741Y-7045643D01*
X1055312Y-7045643D01*
X1074360Y-7055167D01*
X1083884Y-7074214D01*
X1083884Y-7178976D01*
X1083884Y-7074214D02*
X1093408Y-7055167D01*
X1112455Y-7045643D01*
X1141027Y-7045643D01*
X1160074Y-7055167D01*
X1169598Y-7074214D01*
X1169598Y-7178976D01*
X1264836Y-7178976D02*
X1264836Y-7045643D01*
X1264836Y-7064690D02*
X1274360Y-7055167D01*
X1293408Y-7045643D01*
X1321979Y-7045643D01*
X1341027Y-7055167D01*
X1350551Y-7074214D01*
X1350551Y-7178976D01*
X1350551Y-7074214D02*
X1360074Y-7055167D01*
X1379122Y-7045643D01*
X1407693Y-7045643D01*
X1426741Y-7055167D01*
X1436265Y-7074214D01*
X1436265Y-7178976D01*
X1826741Y-6969452D02*
X1655312Y-7226595D01*
X2083884Y-6978976D02*
X2102932Y-6978976D01*
X2121979Y-6988500D01*
X2131503Y-6998024D01*
X2141027Y-7017071D01*
X2150551Y-7055167D01*
X2150551Y-7102786D01*
X2141027Y-7140881D01*
X2131503Y-7159928D01*
X2121979Y-7169452D01*
X2102932Y-7178976D01*
X2083884Y-7178976D01*
X2064836Y-7169452D01*
X2055312Y-7159928D01*
X2045789Y-7140881D01*
X2036265Y-7102786D01*
X2036265Y-7055167D01*
X2045789Y-7017071D01*
X2055312Y-6998024D01*
X2064836Y-6988500D01*
X2083884Y-6978976D01*
X2236265Y-7159928D02*
X2245789Y-7169452D01*
X2236265Y-7178976D01*
X2226741Y-7169452D01*
X2236265Y-7159928D01*
X2236265Y-7178976D01*
X2369598Y-6978976D02*
X2388646Y-6978976D01*
X2407693Y-6988500D01*
X2417217Y-6998024D01*
X2426741Y-7017071D01*
X2436265Y-7055167D01*
X2436265Y-7102786D01*
X2426741Y-7140881D01*
X2417217Y-7159928D01*
X2407693Y-7169452D01*
X2388646Y-7178976D01*
X2369598Y-7178976D01*
X2350551Y-7169452D01*
X2341027Y-7159928D01*
X2331503Y-7140881D01*
X2321979Y-7102786D01*
X2321979Y-7055167D01*
X2331503Y-7017071D01*
X2341027Y-6998024D01*
X2350551Y-6988500D01*
X2369598Y-6978976D01*
X2502932Y-6978976D02*
X2626741Y-6978976D01*
X2560074Y-7055167D01*
X2588646Y-7055167D01*
X2607693Y-7064690D01*
X2617217Y-7074214D01*
X2626741Y-7093262D01*
X2626741Y-7140881D01*
X2617217Y-7159928D01*
X2607693Y-7169452D01*
X2588646Y-7178976D01*
X2531503Y-7178976D01*
X2512455Y-7169452D01*
X2502932Y-7159928D01*
X2721979Y-7178976D02*
X2760074Y-7178976D01*
X2779122Y-7169452D01*
X2788646Y-7159928D01*
X2807693Y-7131357D01*
X2817217Y-7093262D01*
X2817217Y-7017071D01*
X2807693Y-6998024D01*
X2798170Y-6988500D01*
X2779122Y-6978976D01*
X2741027Y-6978976D01*
X2721979Y-6988500D01*
X2712455Y-6998024D01*
X2702932Y-7017071D01*
X2702932Y-7064690D01*
X2712455Y-7083738D01*
X2721979Y-7093262D01*
X2741027Y-7102786D01*
X2779122Y-7102786D01*
X2798170Y-7093262D01*
X2807693Y-7083738D01*
X2817217Y-7064690D01*
X2988646Y-7045643D02*
X2988646Y-7178976D01*
X2941027Y-6969452D02*
X2893408Y-7112309D01*
X3017217Y-7112309D01*
X3083884Y-6978976D02*
X3083884Y-7017071D01*
X3160074Y-6978976D02*
X3160074Y-7017071D01*
X3455312Y-7255167D02*
X3445789Y-7245643D01*
X3426741Y-7217071D01*
X3417217Y-7198024D01*
X3407693Y-7169452D01*
X3398170Y-7121833D01*
X3398170Y-7083738D01*
X3407693Y-7036119D01*
X3417217Y-7007548D01*
X3426741Y-6988500D01*
X3445789Y-6959928D01*
X3455312Y-6950405D01*
X3521979Y-6998024D02*
X3531503Y-6988500D01*
X3550550Y-6978976D01*
X3598170Y-6978976D01*
X3617217Y-6988500D01*
X3626741Y-6998024D01*
X3636265Y-7017071D01*
X3636265Y-7036119D01*
X3626741Y-7064690D01*
X3512455Y-7178976D01*
X3636265Y-7178976D01*
X3807693Y-7045643D02*
X3807693Y-7178976D01*
X3760074Y-6969452D02*
X3712455Y-7112309D01*
X3836265Y-7112309D01*
X4064836Y-7178976D02*
X4064836Y-6978976D01*
X4150550Y-7178976D02*
X4150550Y-7074214D01*
X4141027Y-7055167D01*
X4121979Y-7045643D01*
X4093408Y-7045643D01*
X4074360Y-7055167D01*
X4064836Y-7064690D01*
X4274360Y-7178976D02*
X4255312Y-7169452D01*
X4245789Y-7159928D01*
X4236265Y-7140881D01*
X4236265Y-7083738D01*
X4245789Y-7064690D01*
X4255312Y-7055167D01*
X4274360Y-7045643D01*
X4302932Y-7045643D01*
X4321979Y-7055167D01*
X4331503Y-7064690D01*
X4341027Y-7083738D01*
X4341027Y-7140881D01*
X4331503Y-7159928D01*
X4321979Y-7169452D01*
X4302932Y-7178976D01*
X4274360Y-7178976D01*
X4455312Y-7178976D02*
X4436265Y-7169452D01*
X4426741Y-7150405D01*
X4426741Y-6978976D01*
X4607693Y-7169452D02*
X4588646Y-7178976D01*
X4550551Y-7178976D01*
X4531503Y-7169452D01*
X4521979Y-7150405D01*
X4521979Y-7074214D01*
X4531503Y-7055167D01*
X4550551Y-7045643D01*
X4588646Y-7045643D01*
X4607693Y-7055167D01*
X4617217Y-7074214D01*
X4617217Y-7093262D01*
X4521979Y-7112309D01*
X4693408Y-7169452D02*
X4712455Y-7178976D01*
X4750551Y-7178976D01*
X4769598Y-7169452D01*
X4779122Y-7150405D01*
X4779122Y-7140881D01*
X4769598Y-7121833D01*
X4750551Y-7112309D01*
X4721979Y-7112309D01*
X4702932Y-7102786D01*
X4693408Y-7083738D01*
X4693408Y-7074214D01*
X4702932Y-7055167D01*
X4721979Y-7045643D01*
X4750551Y-7045643D01*
X4769598Y-7055167D01*
X4845789Y-7255167D02*
X4855312Y-7245643D01*
X4874360Y-7217071D01*
X4883884Y-7198024D01*
X4893408Y-7169452D01*
X4902932Y-7121833D01*
X4902932Y-7083738D01*
X4893408Y-7036119D01*
X4883884Y-7007548D01*
X4874360Y-6988500D01*
X4855312Y-6959928D01*
X4845789Y-6950405D01*
M02*
