%TF.GenerationSoftware,KiCad,Pcbnew,(6.0.0)*%
%TF.CreationDate,2022-03-13T20:46:10-04:00*%
%TF.ProjectId,simple_button_breakout,73696d70-6c65-45f6-9275-74746f6e5f62,rev?*%
%TF.SameCoordinates,Original*%
%TF.FileFunction,Paste,Top*%
%TF.FilePolarity,Positive*%
%FSLAX46Y46*%
G04 Gerber Fmt 4.6, Leading zero omitted, Abs format (unit mm)*
G04 Created by KiCad (PCBNEW (6.0.0)) date 2022-03-13 20:46:10*
%MOMM*%
%LPD*%
G01*
G04 APERTURE LIST*
G04 Aperture macros list*
%AMRoundRect*
0 Rectangle with rounded corners*
0 $1 Rounding radius*
0 $2 $3 $4 $5 $6 $7 $8 $9 X,Y pos of 4 corners*
0 Add a 4 corners polygon primitive as box body*
4,1,4,$2,$3,$4,$5,$6,$7,$8,$9,$2,$3,0*
0 Add four circle primitives for the rounded corners*
1,1,$1+$1,$2,$3*
1,1,$1+$1,$4,$5*
1,1,$1+$1,$6,$7*
1,1,$1+$1,$8,$9*
0 Add four rect primitives between the rounded corners*
20,1,$1+$1,$2,$3,$4,$5,0*
20,1,$1+$1,$4,$5,$6,$7,0*
20,1,$1+$1,$6,$7,$8,$9,0*
20,1,$1+$1,$8,$9,$2,$3,0*%
G04 Aperture macros list end*
%ADD10RoundRect,0.225000X0.225000X0.250000X-0.225000X0.250000X-0.225000X-0.250000X0.225000X-0.250000X0*%
%ADD11RoundRect,0.200000X-0.200000X-0.275000X0.200000X-0.275000X0.200000X0.275000X-0.200000X0.275000X0*%
%ADD12RoundRect,0.225000X-0.225000X-0.250000X0.225000X-0.250000X0.225000X0.250000X-0.225000X0.250000X0*%
%ADD13RoundRect,0.200000X-0.275000X0.200000X-0.275000X-0.200000X0.275000X-0.200000X0.275000X0.200000X0*%
%ADD14RoundRect,0.218750X-0.218750X-0.256250X0.218750X-0.256250X0.218750X0.256250X-0.218750X0.256250X0*%
%ADD15R,2.000000X1.500000*%
%ADD16R,2.000000X3.800000*%
%ADD17R,2.000000X0.900000*%
%ADD18R,0.900000X2.000000*%
%ADD19R,5.000000X5.000000*%
%ADD20RoundRect,0.200000X0.200000X0.275000X-0.200000X0.275000X-0.200000X-0.275000X0.200000X-0.275000X0*%
%ADD21R,0.400000X1.350000*%
%ADD22R,1.900000X1.900000*%
%ADD23RoundRect,0.225000X-0.250000X0.225000X-0.250000X-0.225000X0.250000X-0.225000X0.250000X0.225000X0*%
G04 APERTURE END LIST*
D10*
%TO.C,C6*%
X47765000Y-21590000D03*
X46215000Y-21590000D03*
%TD*%
D11*
%TO.C,R27*%
X19134000Y-51632000D03*
X20784000Y-51632000D03*
%TD*%
D12*
%TO.C,C17*%
X51930000Y-42356000D03*
X53480000Y-42356000D03*
%TD*%
D11*
%TO.C,R40*%
X48705000Y-42356000D03*
X50355000Y-42356000D03*
%TD*%
%TO.C,R24*%
X66825000Y-37253000D03*
X68475000Y-37253000D03*
%TD*%
%TO.C,R12*%
X28195000Y-37222000D03*
X29845000Y-37222000D03*
%TD*%
%TO.C,R33*%
X38370000Y-51632000D03*
X40020000Y-51632000D03*
%TD*%
D12*
%TO.C,C10*%
X43055000Y-28137000D03*
X44605000Y-28137000D03*
%TD*%
D11*
%TO.C,R31*%
X20460000Y-42516000D03*
X22110000Y-42516000D03*
%TD*%
%TO.C,R22*%
X48825000Y-27977000D03*
X50475000Y-27977000D03*
%TD*%
%TO.C,R21*%
X57080000Y-37253000D03*
X58730000Y-37253000D03*
%TD*%
%TO.C,R11*%
X25020000Y-37222000D03*
X26670000Y-37222000D03*
%TD*%
%TO.C,R16*%
X30010000Y-28052000D03*
X31660000Y-28052000D03*
%TD*%
D13*
%TO.C,R2*%
X71120000Y-20765000D03*
X71120000Y-22415000D03*
%TD*%
D12*
%TO.C,C14*%
X23685000Y-42516000D03*
X25235000Y-42516000D03*
%TD*%
%TO.C,C2*%
X1765000Y-7620000D03*
X3315000Y-7620000D03*
%TD*%
D11*
%TO.C,R30*%
X28525000Y-51717000D03*
X30175000Y-51717000D03*
%TD*%
%TO.C,R13*%
X20575000Y-28332000D03*
X22225000Y-28332000D03*
%TD*%
D14*
%TO.C,D1*%
X38582500Y-6350000D03*
X40157500Y-6350000D03*
%TD*%
D11*
%TO.C,R26*%
X15959000Y-51733000D03*
X17609000Y-51733000D03*
%TD*%
%TO.C,R17*%
X44275000Y-37338000D03*
X45925000Y-37338000D03*
%TD*%
%TO.C,R32*%
X34750000Y-51632000D03*
X36400000Y-51632000D03*
%TD*%
D12*
%TO.C,C12*%
X61795000Y-28052000D03*
X63345000Y-28052000D03*
%TD*%
D11*
%TO.C,R20*%
X53905000Y-37253000D03*
X55555000Y-37253000D03*
%TD*%
%TO.C,R42*%
X63945000Y-51601000D03*
X65595000Y-51601000D03*
%TD*%
%TO.C,R38*%
X53785000Y-51632000D03*
X55435000Y-51632000D03*
%TD*%
D12*
%TO.C,C7*%
X14835000Y-28278000D03*
X16385000Y-28278000D03*
%TD*%
D15*
%TO.C,U2*%
X42570000Y1030000D03*
D16*
X48870000Y-1270000D03*
D15*
X42570000Y-1270000D03*
X42570000Y-3570000D03*
%TD*%
D11*
%TO.C,R3*%
X25845000Y-25400000D03*
X27495000Y-25400000D03*
%TD*%
%TO.C,R19*%
X39830000Y-28137000D03*
X41480000Y-28137000D03*
%TD*%
%TO.C,R39*%
X57405000Y-51632000D03*
X59055000Y-51632000D03*
%TD*%
%TO.C,R14*%
X34900000Y-37253000D03*
X36550000Y-37253000D03*
%TD*%
D12*
%TO.C,C16*%
X42500000Y-42076000D03*
X44050000Y-42076000D03*
%TD*%
D11*
%TO.C,R34*%
X29670000Y-42356000D03*
X31320000Y-42356000D03*
%TD*%
D12*
%TO.C,C13*%
X14739000Y-42742000D03*
X16289000Y-42742000D03*
%TD*%
D11*
%TO.C,R25*%
X58570000Y-28052000D03*
X60220000Y-28052000D03*
%TD*%
%TO.C,R41*%
X60770000Y-51601000D03*
X62420000Y-51601000D03*
%TD*%
D13*
%TO.C,R6*%
X66040000Y-20765000D03*
X66040000Y-22415000D03*
%TD*%
D11*
%TO.C,R15*%
X38075000Y-37253000D03*
X39725000Y-37253000D03*
%TD*%
D12*
%TO.C,C9*%
X33235000Y-28052000D03*
X34785000Y-28052000D03*
%TD*%
D11*
%TO.C,R35*%
X44990000Y-51601000D03*
X46640000Y-51601000D03*
%TD*%
D17*
%TO.C,U1*%
X10550000Y-5715000D03*
X10550000Y-6985000D03*
X10550000Y-8255000D03*
X10550000Y-9525000D03*
X10550000Y-10795000D03*
X10550000Y-12065000D03*
X10550000Y-13335000D03*
X10550000Y-14605000D03*
X10550000Y-15875000D03*
X10550000Y-17145000D03*
X10550000Y-18415000D03*
X10550000Y-19685000D03*
X10550000Y-20955000D03*
X10550000Y-22225000D03*
D18*
X13335000Y-23225000D03*
X14605000Y-23225000D03*
X15875000Y-23225000D03*
X17145000Y-23225000D03*
X18415000Y-23225000D03*
X19685000Y-23225000D03*
X20955000Y-23225000D03*
X22225000Y-23225000D03*
X23495000Y-23225000D03*
X24765000Y-23225000D03*
D17*
X27550000Y-22225000D03*
X27550000Y-20955000D03*
X27550000Y-19685000D03*
X27550000Y-18415000D03*
X27550000Y-17145000D03*
X27550000Y-15875000D03*
X27550000Y-14605000D03*
X27550000Y-13335000D03*
X27550000Y-12065000D03*
X27550000Y-10795000D03*
X27550000Y-9525000D03*
X27550000Y-8255000D03*
X27550000Y-6985000D03*
X27550000Y-5715000D03*
D19*
X18050000Y-13215000D03*
%TD*%
D11*
%TO.C,R28*%
X11514000Y-42742000D03*
X13164000Y-42742000D03*
%TD*%
%TO.C,R8*%
X15420000Y-37269000D03*
X17070000Y-37269000D03*
%TD*%
D12*
%TO.C,C8*%
X23800000Y-28332000D03*
X25350000Y-28332000D03*
%TD*%
%TO.C,C18*%
X61640000Y-42711000D03*
X63190000Y-42711000D03*
%TD*%
D11*
%TO.C,R36*%
X48165000Y-51601000D03*
X49815000Y-51601000D03*
%TD*%
%TO.C,R9*%
X18595000Y-37269000D03*
X20245000Y-37269000D03*
%TD*%
%TO.C,R43*%
X58365000Y-42711000D03*
X60015000Y-42711000D03*
%TD*%
D20*
%TO.C,R4*%
X44005000Y-6350000D03*
X42355000Y-6350000D03*
%TD*%
D13*
%TO.C,R7*%
X45720000Y-8065000D03*
X45720000Y-9715000D03*
%TD*%
D11*
%TO.C,R18*%
X47450000Y-37338000D03*
X49100000Y-37338000D03*
%TD*%
D12*
%TO.C,C15*%
X32895000Y-42356000D03*
X34445000Y-42356000D03*
%TD*%
D13*
%TO.C,R1*%
X6350000Y-2985000D03*
X6350000Y-4635000D03*
%TD*%
D12*
%TO.C,C11*%
X52050000Y-27977000D03*
X53600000Y-27977000D03*
%TD*%
D11*
%TO.C,R37*%
X39275000Y-42076000D03*
X40925000Y-42076000D03*
%TD*%
%TO.C,R10*%
X11610000Y-28278000D03*
X13260000Y-28278000D03*
%TD*%
%TO.C,R29*%
X25350000Y-51717000D03*
X27000000Y-51717000D03*
%TD*%
D21*
%TO.C,J16*%
X57815000Y-2640000D03*
X55215000Y-2640000D03*
X57165000Y-2640000D03*
X56515000Y-2640000D03*
X55865000Y-2640000D03*
D22*
X60465000Y35000D03*
X57715000Y35000D03*
X55315000Y35000D03*
X52565000Y35000D03*
%TD*%
D23*
%TO.C,C3*%
X6350000Y-6845000D03*
X6350000Y-8395000D03*
%TD*%
D10*
%TO.C,C1*%
X69355000Y-8890000D03*
X67805000Y-8890000D03*
%TD*%
D13*
%TO.C,R5*%
X68580000Y-20765000D03*
X68580000Y-22415000D03*
%TD*%
D11*
%TO.C,R23*%
X63650000Y-37253000D03*
X65300000Y-37253000D03*
%TD*%
M02*
