%TF.GenerationSoftware,KiCad,Pcbnew,(6.0.0)*%
%TF.CreationDate,2023-01-31T14:33:53-05:00*%
%TF.ProjectId,i2c 24vout,69326320-3234-4766-9f75-742e6b696361,rev?*%
%TF.SameCoordinates,Original*%
%TF.FileFunction,Soldermask,Top*%
%TF.FilePolarity,Negative*%
%FSLAX46Y46*%
G04 Gerber Fmt 4.6, Leading zero omitted, Abs format (unit mm)*
G04 Created by KiCad (PCBNEW (6.0.0)) date 2023-01-31 14:33:53*
%MOMM*%
%LPD*%
G01*
G04 APERTURE LIST*
G04 Aperture macros list*
%AMRoundRect*
0 Rectangle with rounded corners*
0 $1 Rounding radius*
0 $2 $3 $4 $5 $6 $7 $8 $9 X,Y pos of 4 corners*
0 Add a 4 corners polygon primitive as box body*
4,1,4,$2,$3,$4,$5,$6,$7,$8,$9,$2,$3,0*
0 Add four circle primitives for the rounded corners*
1,1,$1+$1,$2,$3*
1,1,$1+$1,$4,$5*
1,1,$1+$1,$6,$7*
1,1,$1+$1,$8,$9*
0 Add four rect primitives between the rounded corners*
20,1,$1+$1,$2,$3,$4,$5,0*
20,1,$1+$1,$4,$5,$6,$7,0*
20,1,$1+$1,$6,$7,$8,$9,0*
20,1,$1+$1,$8,$9,$2,$3,0*%
%AMFreePoly0*
4,1,22,0.500000,-0.750000,0.000000,-0.750000,0.000000,-0.745033,-0.079941,-0.743568,-0.215256,-0.701293,-0.333266,-0.622738,-0.424486,-0.514219,-0.481581,-0.384460,-0.499164,-0.250000,-0.500000,-0.250000,-0.500000,0.250000,-0.499164,0.250000,-0.499963,0.256109,-0.478152,0.396186,-0.417904,0.524511,-0.324060,0.630769,-0.204165,0.706417,-0.067858,0.745374,0.000000,0.744959,0.000000,0.750000,
0.500000,0.750000,0.500000,-0.750000,0.500000,-0.750000,$1*%
%AMFreePoly1*
4,1,20,0.000000,0.744959,0.073905,0.744508,0.209726,0.703889,0.328688,0.626782,0.421226,0.519385,0.479903,0.390333,0.500000,0.250000,0.500000,-0.250000,0.499851,-0.262216,0.476331,-0.402017,0.414519,-0.529596,0.319384,-0.634700,0.198574,-0.708877,0.061801,-0.746166,0.000000,-0.745033,0.000000,-0.750000,-0.500000,-0.750000,-0.500000,0.750000,0.000000,0.750000,0.000000,0.744959,
0.000000,0.744959,$1*%
G04 Aperture macros list end*
%ADD10R,2.600000X2.600000*%
%ADD11C,2.600000*%
%ADD12RoundRect,0.200000X0.200000X0.275000X-0.200000X0.275000X-0.200000X-0.275000X0.200000X-0.275000X0*%
%ADD13RoundRect,0.334400X-0.555600X0.425600X-0.555600X-0.425600X0.555600X-0.425600X0.555600X0.425600X0*%
%ADD14FreePoly0,90.000000*%
%ADD15FreePoly1,90.000000*%
%ADD16RoundRect,0.200000X0.275000X-0.200000X0.275000X0.200000X-0.275000X0.200000X-0.275000X-0.200000X0*%
%ADD17C,3.200000*%
%ADD18RoundRect,0.150000X0.150000X0.625000X-0.150000X0.625000X-0.150000X-0.625000X0.150000X-0.625000X0*%
%ADD19RoundRect,0.250000X0.350000X0.650000X-0.350000X0.650000X-0.350000X-0.650000X0.350000X-0.650000X0*%
%ADD20RoundRect,0.225000X-0.225000X-0.250000X0.225000X-0.250000X0.225000X0.250000X-0.225000X0.250000X0*%
%ADD21R,1.700000X1.700000*%
%ADD22O,1.700000X1.700000*%
%ADD23RoundRect,0.200000X-0.200000X-0.275000X0.200000X-0.275000X0.200000X0.275000X-0.200000X0.275000X0*%
%ADD24RoundRect,0.100000X-0.637500X-0.100000X0.637500X-0.100000X0.637500X0.100000X-0.637500X0.100000X0*%
G04 APERTURE END LIST*
D10*
%TO.C,J1*%
X197946000Y-125313000D03*
D11*
X202946000Y-125313000D03*
%TD*%
D10*
%TO.C,J4*%
X153703000Y-125313000D03*
D11*
X158703000Y-125313000D03*
X163703000Y-125313000D03*
X168703000Y-125313000D03*
%TD*%
D12*
%TO.C,R9*%
X154535000Y-106847000D03*
X152885000Y-106847000D03*
%TD*%
D13*
%TO.C,U1*%
X124881000Y-108702000D03*
X122341000Y-108702000D03*
X119801000Y-108702000D03*
X117261000Y-108702000D03*
X114721000Y-108702000D03*
X112181000Y-108702000D03*
X109641000Y-108702000D03*
X107101000Y-108702000D03*
X107101000Y-118222000D03*
X109641000Y-118222000D03*
X112181000Y-118222000D03*
X114721000Y-118222000D03*
X117261000Y-118222000D03*
X119801000Y-118222000D03*
X122341000Y-118222000D03*
X124881000Y-118222000D03*
%TD*%
%TO.C,U4*%
X192826000Y-108818000D03*
X190286000Y-108818000D03*
X187746000Y-108818000D03*
X185206000Y-108818000D03*
X182666000Y-108818000D03*
X180126000Y-108818000D03*
X177586000Y-108818000D03*
X175046000Y-108818000D03*
X175046000Y-118338000D03*
X177586000Y-118338000D03*
X180126000Y-118338000D03*
X182666000Y-118338000D03*
X185206000Y-118338000D03*
X187746000Y-118338000D03*
X190286000Y-118338000D03*
X192826000Y-118338000D03*
%TD*%
D14*
%TO.C,JP6*%
X130048000Y-86502000D03*
D15*
X130048000Y-85202000D03*
%TD*%
D16*
%TO.C,R33*%
X116713000Y-83405000D03*
X116713000Y-81755000D03*
%TD*%
D12*
%TO.C,R5*%
X131929000Y-106720000D03*
X130279000Y-106720000D03*
%TD*%
D14*
%TO.C,JP3*%
X122047000Y-86502000D03*
D15*
X122047000Y-85202000D03*
%TD*%
D12*
%TO.C,R2*%
X114276000Y-106720000D03*
X112626000Y-106720000D03*
%TD*%
D10*
%TO.C,J2*%
X108364000Y-125440000D03*
D11*
X113364000Y-125440000D03*
X118364000Y-125440000D03*
X123364000Y-125440000D03*
%TD*%
D14*
%TO.C,JP1*%
X116713000Y-86502000D03*
D15*
X116713000Y-85202000D03*
%TD*%
D17*
%TO.C,REF\u002A\u002A*%
X94400000Y-83834000D03*
%TD*%
D12*
%TO.C,R12*%
X169775000Y-106847000D03*
X168125000Y-106847000D03*
%TD*%
D10*
%TO.C,J3*%
X131097000Y-125313000D03*
D11*
X136097000Y-125313000D03*
X141097000Y-125313000D03*
X146097000Y-125313000D03*
%TD*%
D12*
%TO.C,R3*%
X119356000Y-106720000D03*
X117706000Y-106720000D03*
%TD*%
D18*
%TO.C,J7*%
X111736000Y-85820000D03*
X110736000Y-85820000D03*
X109736000Y-85820000D03*
X108736000Y-85820000D03*
D19*
X113036000Y-81945000D03*
X107436000Y-81945000D03*
%TD*%
D14*
%TO.C,JP2*%
X119380000Y-86502000D03*
D15*
X119380000Y-85202000D03*
%TD*%
D20*
%TO.C,C17*%
X125463000Y-92456000D03*
X127013000Y-92456000D03*
%TD*%
D12*
%TO.C,R11*%
X164695000Y-106847000D03*
X163045000Y-106847000D03*
%TD*%
%TO.C,R4*%
X124309000Y-106720000D03*
X122659000Y-106720000D03*
%TD*%
D16*
%TO.C,R38*%
X130048000Y-83390000D03*
X130048000Y-81740000D03*
%TD*%
D21*
%TO.C,J6*%
X99000000Y-95544000D03*
D22*
X99000000Y-93004000D03*
X99000000Y-90464000D03*
X99000000Y-87924000D03*
%TD*%
D23*
%TO.C,R39*%
X122583000Y-94655000D03*
X124233000Y-94655000D03*
%TD*%
D12*
%TO.C,R10*%
X159615000Y-106847000D03*
X157965000Y-106847000D03*
%TD*%
%TO.C,R14*%
X182221000Y-106847000D03*
X180571000Y-106847000D03*
%TD*%
D24*
%TO.C,U5*%
X114322500Y-91834000D03*
X114322500Y-92484000D03*
X114322500Y-93134000D03*
X114322500Y-93784000D03*
X114322500Y-94434000D03*
X114322500Y-95084000D03*
X114322500Y-95734000D03*
X114322500Y-96384000D03*
X114322500Y-97034000D03*
X114322500Y-97684000D03*
X114322500Y-98334000D03*
X114322500Y-98984000D03*
X114322500Y-99634000D03*
X114322500Y-100284000D03*
X120047500Y-100284000D03*
X120047500Y-99634000D03*
X120047500Y-98984000D03*
X120047500Y-98334000D03*
X120047500Y-97684000D03*
X120047500Y-97034000D03*
X120047500Y-96384000D03*
X120047500Y-95734000D03*
X120047500Y-95084000D03*
X120047500Y-94434000D03*
X120047500Y-93784000D03*
X120047500Y-93134000D03*
X120047500Y-92484000D03*
X120047500Y-91834000D03*
%TD*%
D10*
%TO.C,J5*%
X176309000Y-125313000D03*
D11*
X181309000Y-125313000D03*
X186309000Y-125313000D03*
X191309000Y-125313000D03*
%TD*%
D16*
%TO.C,R37*%
X127381000Y-83405000D03*
X127381000Y-81755000D03*
%TD*%
D21*
%TO.C,J10*%
X131826000Y-92710000D03*
%TD*%
D17*
%TO.C,REF\u002A\u002A*%
X210479000Y-83834000D03*
%TD*%
D12*
%TO.C,R8*%
X147042000Y-106720000D03*
X145392000Y-106720000D03*
%TD*%
D18*
%TO.C,J8*%
X103735000Y-85820000D03*
X102735000Y-85820000D03*
X101735000Y-85820000D03*
X100735000Y-85820000D03*
D19*
X99435000Y-81945000D03*
X105035000Y-81945000D03*
%TD*%
D21*
%TO.C,J9*%
X135128000Y-87630000D03*
%TD*%
D12*
%TO.C,R1*%
X109323000Y-106720000D03*
X107673000Y-106720000D03*
%TD*%
D17*
%TO.C,REF\u002A\u002A*%
X210479000Y-126913000D03*
%TD*%
D16*
%TO.C,R36*%
X124714000Y-83390000D03*
X124714000Y-81740000D03*
%TD*%
D12*
%TO.C,R16*%
X192381000Y-106847000D03*
X190731000Y-106847000D03*
%TD*%
D16*
%TO.C,R35*%
X122047000Y-83390000D03*
X122047000Y-81740000D03*
%TD*%
D14*
%TO.C,JP5*%
X127381000Y-86502000D03*
D15*
X127381000Y-85202000D03*
%TD*%
D13*
%TO.C,U2*%
X147614000Y-108702000D03*
X145074000Y-108702000D03*
X142534000Y-108702000D03*
X139994000Y-108702000D03*
X137454000Y-108702000D03*
X134914000Y-108702000D03*
X132374000Y-108702000D03*
X129834000Y-108702000D03*
X129834000Y-118222000D03*
X132374000Y-118222000D03*
X134914000Y-118222000D03*
X137454000Y-118222000D03*
X139994000Y-118222000D03*
X142534000Y-118222000D03*
X145074000Y-118222000D03*
X147614000Y-118222000D03*
%TD*%
D14*
%TO.C,JP4*%
X124714000Y-86502000D03*
D15*
X124714000Y-85202000D03*
%TD*%
D13*
%TO.C,U3*%
X170220000Y-108818000D03*
X167680000Y-108818000D03*
X165140000Y-108818000D03*
X162600000Y-108818000D03*
X160060000Y-108818000D03*
X157520000Y-108818000D03*
X154980000Y-108818000D03*
X152440000Y-108818000D03*
X152440000Y-118338000D03*
X154980000Y-118338000D03*
X157520000Y-118338000D03*
X160060000Y-118338000D03*
X162600000Y-118338000D03*
X165140000Y-118338000D03*
X167680000Y-118338000D03*
X170220000Y-118338000D03*
%TD*%
D12*
%TO.C,R13*%
X177141000Y-106847000D03*
X175491000Y-106847000D03*
%TD*%
%TO.C,R7*%
X142089000Y-106720000D03*
X140439000Y-106720000D03*
%TD*%
%TO.C,R6*%
X137009000Y-106720000D03*
X135359000Y-106720000D03*
%TD*%
D17*
%TO.C,REF\u002A\u002A*%
X94400000Y-126913000D03*
%TD*%
D16*
%TO.C,R34*%
X119380000Y-83390000D03*
X119380000Y-81740000D03*
%TD*%
D12*
%TO.C,R15*%
X187301000Y-106847000D03*
X185651000Y-106847000D03*
%TD*%
M02*
