%TF.GenerationSoftware,KiCad,Pcbnew,7.0.1*%
%TF.CreationDate,2023-06-13T03:06:22-04:00*%
%TF.ProjectId,i2c 24vout,69326320-3234-4766-9f75-742e6b696361,rev?*%
%TF.SameCoordinates,Original*%
%TF.FileFunction,Paste,Bot*%
%TF.FilePolarity,Positive*%
%FSLAX46Y46*%
G04 Gerber Fmt 4.6, Leading zero omitted, Abs format (unit mm)*
G04 Created by KiCad (PCBNEW 7.0.1) date 2023-06-13 03:06:22*
%MOMM*%
%LPD*%
G01*
G04 APERTURE LIST*
G04 Aperture macros list*
%AMRoundRect*
0 Rectangle with rounded corners*
0 $1 Rounding radius*
0 $2 $3 $4 $5 $6 $7 $8 $9 X,Y pos of 4 corners*
0 Add a 4 corners polygon primitive as box body*
4,1,4,$2,$3,$4,$5,$6,$7,$8,$9,$2,$3,0*
0 Add four circle primitives for the rounded corners*
1,1,$1+$1,$2,$3*
1,1,$1+$1,$4,$5*
1,1,$1+$1,$6,$7*
1,1,$1+$1,$8,$9*
0 Add four rect primitives between the rounded corners*
20,1,$1+$1,$2,$3,$4,$5,0*
20,1,$1+$1,$4,$5,$6,$7,0*
20,1,$1+$1,$6,$7,$8,$9,0*
20,1,$1+$1,$8,$9,$2,$3,0*%
G04 Aperture macros list end*
%ADD10RoundRect,0.200000X0.200000X0.275000X-0.200000X0.275000X-0.200000X-0.275000X0.200000X-0.275000X0*%
%ADD11RoundRect,0.225000X0.225000X0.250000X-0.225000X0.250000X-0.225000X-0.250000X0.225000X-0.250000X0*%
G04 APERTURE END LIST*
D10*
%TO.C,R21*%
X130405000Y-121706000D03*
X128755000Y-121706000D03*
%TD*%
D11*
%TO.C,C15*%
X185600000Y-120182000D03*
X184050000Y-120182000D03*
%TD*%
%TO.C,C12*%
X168074000Y-120182000D03*
X166524000Y-120182000D03*
%TD*%
D10*
%TO.C,R24*%
X145391000Y-121706000D03*
X143741000Y-121706000D03*
%TD*%
D11*
%TO.C,C1*%
X107749000Y-120182000D03*
X106199000Y-120182000D03*
%TD*%
%TO.C,C14*%
X180647000Y-120182000D03*
X179097000Y-120182000D03*
%TD*%
D10*
%TO.C,R18*%
X112752000Y-121833000D03*
X111102000Y-121833000D03*
%TD*%
%TO.C,R32*%
X190730000Y-121833000D03*
X189080000Y-121833000D03*
%TD*%
D11*
%TO.C,C10*%
X158041000Y-120182000D03*
X156491000Y-120182000D03*
%TD*%
%TO.C,C11*%
X162994000Y-120182000D03*
X161444000Y-120182000D03*
%TD*%
D10*
%TO.C,R27*%
X163044000Y-121833000D03*
X161394000Y-121833000D03*
%TD*%
D11*
%TO.C,C8*%
X145341000Y-120055000D03*
X143791000Y-120055000D03*
%TD*%
%TO.C,C7*%
X140261000Y-120055000D03*
X138711000Y-120055000D03*
%TD*%
D10*
%TO.C,R29*%
X175617000Y-121833000D03*
X173967000Y-121833000D03*
%TD*%
%TO.C,R19*%
X117705000Y-121833000D03*
X116055000Y-121833000D03*
%TD*%
%TO.C,R25*%
X153011000Y-121833000D03*
X151361000Y-121833000D03*
%TD*%
D11*
%TO.C,C16*%
X190693000Y-120182000D03*
X189143000Y-120182000D03*
%TD*%
D10*
%TO.C,R20*%
X122658000Y-121833000D03*
X121008000Y-121833000D03*
%TD*%
D11*
%TO.C,C6*%
X135308000Y-120055000D03*
X133758000Y-120055000D03*
%TD*%
D10*
%TO.C,R23*%
X140311000Y-121706000D03*
X138661000Y-121706000D03*
%TD*%
D11*
%TO.C,C2*%
X112702000Y-120182000D03*
X111152000Y-120182000D03*
%TD*%
%TO.C,C13*%
X175567000Y-120182000D03*
X174017000Y-120182000D03*
%TD*%
D10*
%TO.C,R17*%
X107799000Y-121833000D03*
X106149000Y-121833000D03*
%TD*%
%TO.C,R28*%
X168124000Y-121833000D03*
X166474000Y-121833000D03*
%TD*%
%TO.C,R22*%
X135358000Y-121706000D03*
X133708000Y-121706000D03*
%TD*%
D11*
%TO.C,C3*%
X117655000Y-120182000D03*
X116105000Y-120182000D03*
%TD*%
%TO.C,C5*%
X130355000Y-120055000D03*
X128805000Y-120055000D03*
%TD*%
D10*
%TO.C,R26*%
X158091000Y-121833000D03*
X156441000Y-121833000D03*
%TD*%
D11*
%TO.C,C4*%
X122608000Y-120182000D03*
X121058000Y-120182000D03*
%TD*%
D10*
%TO.C,R31*%
X185650000Y-121833000D03*
X184000000Y-121833000D03*
%TD*%
%TO.C,R30*%
X180697000Y-121833000D03*
X179047000Y-121833000D03*
%TD*%
D11*
%TO.C,C9*%
X152961000Y-120182000D03*
X151411000Y-120182000D03*
%TD*%
M02*
