M48
; DRILL file {KiCad (6.0.0)} date Sun Oct  9 23:28:57 2022
; FORMAT={-:-/ absolute / metric / decimal}
; #@! TF.CreationDate,2022-10-09T23:28:57-04:00
; #@! TF.GenerationSoftware,Kicad,Pcbnew,(6.0.0)
; #@! TF.FileFunction,Plated,1,2,PTH
FMAT,2
METRIC
; #@! TA.AperFunction,Plated,PTH,ViaDrill
T1C0.400
; #@! TA.AperFunction,Plated,PTH,ComponentDrill
T2C1.000
; #@! TA.AperFunction,Plated,PTH,ComponentDrill
T3C1.300
%
G90
G05
T1
X106.72Y-88.686
X109.387Y-88.686
X112.054Y-88.686
X114.721Y-88.686
X117.388Y-88.686
X120.055Y-88.686
X122.087Y-88.178
X122.595Y-91.607
X123.738Y-92.369
T2
X99.0Y-87.924
X99.0Y-90.464
X99.0Y-93.004
X99.0Y-95.544
X126.405Y-84.749
X129.072Y-89.702
T3
X108.364Y-125.44
X113.364Y-125.44
X118.364Y-125.44
X123.364Y-125.44
X131.097Y-125.313
X136.097Y-125.313
X141.097Y-125.313
X146.097Y-125.313
X153.703Y-125.313
X158.703Y-125.313
X163.703Y-125.313
X168.703Y-125.313
X176.309Y-125.313
X181.309Y-125.313
X186.309Y-125.313
X191.309Y-125.313
X197.946Y-125.313
X202.946Y-125.313
T0
M30
