M48
; DRILL file {KiCad (6.0.0)} date Tue Jan 31 14:33:54 2023
; FORMAT={-:-/ absolute / metric / decimal}
; #@! TF.CreationDate,2023-01-31T14:33:54-05:00
; #@! TF.GenerationSoftware,Kicad,Pcbnew,(6.0.0)
; #@! TF.FileFunction,Plated,1,2,PTH
FMAT,2
METRIC
; #@! TA.AperFunction,Plated,PTH,ViaDrill
T1C0.400
; #@! TA.AperFunction,Plated,PTH,ComponentDrill
T2C1.000
; #@! TA.AperFunction,Plated,PTH,ComponentDrill
T3C1.300
%
G90
G05
T1
X102.068Y-91.607
X102.762Y-93.237
X103.211Y-90.464
X106.172Y-85.598
X108.204Y-87.122
X109.22Y-82.55
X109.728Y-87.122
X110.236Y-83.312
X113.03Y-85.598
X114.3Y-101.346
X116.713Y-86.995
X119.38Y-86.995
X122.047Y-86.995
X122.595Y-91.607
X123.738Y-92.369
X124.714Y-86.995
X127.381Y-86.995
X130.048Y-86.995
T2
X99.0Y-87.924
X99.0Y-90.464
X99.0Y-93.004
X99.0Y-95.544
X131.826Y-92.71
X135.128Y-87.63
T3
X108.364Y-125.44
X113.364Y-125.44
X118.364Y-125.44
X123.364Y-125.44
X131.097Y-125.313
X136.097Y-125.313
X141.097Y-125.313
X146.097Y-125.313
X153.703Y-125.313
X158.703Y-125.313
X163.703Y-125.313
X168.703Y-125.313
X176.309Y-125.313
X181.309Y-125.313
X186.309Y-125.313
X191.309Y-125.313
X197.946Y-125.313
X202.946Y-125.313
T0
M30
