%TF.GenerationSoftware,KiCad,Pcbnew,7.0.1*%
%TF.CreationDate,2023-06-13T03:06:22-04:00*%
%TF.ProjectId,i2c 24vout,69326320-3234-4766-9f75-742e6b696361,rev?*%
%TF.SameCoordinates,Original*%
%TF.FileFunction,Copper,L1,Top*%
%TF.FilePolarity,Positive*%
%FSLAX46Y46*%
G04 Gerber Fmt 4.6, Leading zero omitted, Abs format (unit mm)*
G04 Created by KiCad (PCBNEW 7.0.1) date 2023-06-13 03:06:22*
%MOMM*%
%LPD*%
G01*
G04 APERTURE LIST*
G04 Aperture macros list*
%AMRoundRect*
0 Rectangle with rounded corners*
0 $1 Rounding radius*
0 $2 $3 $4 $5 $6 $7 $8 $9 X,Y pos of 4 corners*
0 Add a 4 corners polygon primitive as box body*
4,1,4,$2,$3,$4,$5,$6,$7,$8,$9,$2,$3,0*
0 Add four circle primitives for the rounded corners*
1,1,$1+$1,$2,$3*
1,1,$1+$1,$4,$5*
1,1,$1+$1,$6,$7*
1,1,$1+$1,$8,$9*
0 Add four rect primitives between the rounded corners*
20,1,$1+$1,$2,$3,$4,$5,0*
20,1,$1+$1,$4,$5,$6,$7,0*
20,1,$1+$1,$6,$7,$8,$9,0*
20,1,$1+$1,$8,$9,$2,$3,0*%
%AMFreePoly0*
4,1,19,0.500000,-0.750000,0.000000,-0.750000,0.000000,-0.744911,-0.071157,-0.744911,-0.207708,-0.704816,-0.327430,-0.627875,-0.420627,-0.520320,-0.479746,-0.390866,-0.500000,-0.250000,-0.500000,0.250000,-0.479746,0.390866,-0.420627,0.520320,-0.327430,0.627875,-0.207708,0.704816,-0.071157,0.744911,0.000000,0.744911,0.000000,0.750000,0.500000,0.750000,0.500000,-0.750000,0.500000,-0.750000,
$1*%
%AMFreePoly1*
4,1,19,0.000000,0.744911,0.071157,0.744911,0.207708,0.704816,0.327430,0.627875,0.420627,0.520320,0.479746,0.390866,0.500000,0.250000,0.500000,-0.250000,0.479746,-0.390866,0.420627,-0.520320,0.327430,-0.627875,0.207708,-0.704816,0.071157,-0.744911,0.000000,-0.744911,0.000000,-0.750000,-0.500000,-0.750000,-0.500000,0.750000,0.000000,0.750000,0.000000,0.744911,0.000000,0.744911,
$1*%
G04 Aperture macros list end*
%TA.AperFunction,ComponentPad*%
%ADD10R,2.600000X2.600000*%
%TD*%
%TA.AperFunction,ComponentPad*%
%ADD11C,2.600000*%
%TD*%
%TA.AperFunction,SMDPad,CuDef*%
%ADD12RoundRect,0.200000X0.200000X0.275000X-0.200000X0.275000X-0.200000X-0.275000X0.200000X-0.275000X0*%
%TD*%
%TA.AperFunction,SMDPad,CuDef*%
%ADD13RoundRect,0.334400X-0.555600X0.425600X-0.555600X-0.425600X0.555600X-0.425600X0.555600X0.425600X0*%
%TD*%
%TA.AperFunction,SMDPad,CuDef*%
%ADD14FreePoly0,90.000000*%
%TD*%
%TA.AperFunction,SMDPad,CuDef*%
%ADD15FreePoly1,90.000000*%
%TD*%
%TA.AperFunction,SMDPad,CuDef*%
%ADD16RoundRect,0.200000X0.275000X-0.200000X0.275000X0.200000X-0.275000X0.200000X-0.275000X-0.200000X0*%
%TD*%
%TA.AperFunction,SMDPad,CuDef*%
%ADD17RoundRect,0.150000X0.150000X0.625000X-0.150000X0.625000X-0.150000X-0.625000X0.150000X-0.625000X0*%
%TD*%
%TA.AperFunction,SMDPad,CuDef*%
%ADD18RoundRect,0.250000X0.350000X0.650000X-0.350000X0.650000X-0.350000X-0.650000X0.350000X-0.650000X0*%
%TD*%
%TA.AperFunction,SMDPad,CuDef*%
%ADD19RoundRect,0.225000X-0.225000X-0.250000X0.225000X-0.250000X0.225000X0.250000X-0.225000X0.250000X0*%
%TD*%
%TA.AperFunction,ComponentPad*%
%ADD20R,1.700000X1.700000*%
%TD*%
%TA.AperFunction,ComponentPad*%
%ADD21O,1.700000X1.700000*%
%TD*%
%TA.AperFunction,SMDPad,CuDef*%
%ADD22RoundRect,0.200000X-0.200000X-0.275000X0.200000X-0.275000X0.200000X0.275000X-0.200000X0.275000X0*%
%TD*%
%TA.AperFunction,SMDPad,CuDef*%
%ADD23RoundRect,0.100000X-0.637500X-0.100000X0.637500X-0.100000X0.637500X0.100000X-0.637500X0.100000X0*%
%TD*%
%TA.AperFunction,ViaPad*%
%ADD24C,0.800000*%
%TD*%
%TA.AperFunction,Conductor*%
%ADD25C,0.400000*%
%TD*%
%TA.AperFunction,Conductor*%
%ADD26C,0.250000*%
%TD*%
%TA.AperFunction,Conductor*%
%ADD27C,1.000000*%
%TD*%
G04 APERTURE END LIST*
D10*
%TO.P,J1,1,Pin_1*%
%TO.N,GND*%
X197946000Y-125313000D03*
D11*
%TO.P,J1,2,Pin_2*%
%TO.N,+24V*%
X202946000Y-125313000D03*
%TD*%
D10*
%TO.P,J4,1,Pin_1*%
%TO.N,Net-(J4-Pin_1)*%
X153703000Y-125313000D03*
D11*
%TO.P,J4,2,Pin_2*%
%TO.N,Net-(J4-Pin_2)*%
X158703000Y-125313000D03*
%TO.P,J4,3,Pin_3*%
%TO.N,Net-(J4-Pin_3)*%
X163703000Y-125313000D03*
%TO.P,J4,4,Pin_4*%
%TO.N,Net-(J4-Pin_4)*%
X168703000Y-125313000D03*
%TD*%
D12*
%TO.P,R51,1*%
%TO.N,Net-(C12-Pad1)*%
X168084000Y-118618000D03*
%TO.P,R51,2*%
%TO.N,Net-(J4-Pin_4)*%
X166434000Y-118618000D03*
%TD*%
%TO.P,R9,1*%
%TO.N,Net-(R9-Pad1)*%
X154622000Y-105206000D03*
%TO.P,R9,2*%
%TO.N,/pwm8*%
X152972000Y-105206000D03*
%TD*%
%TO.P,R49,1*%
%TO.N,Net-(C10-Pad1)*%
X158051000Y-118618000D03*
%TO.P,R49,2*%
%TO.N,Net-(J4-Pin_2)*%
X156401000Y-118618000D03*
%TD*%
D13*
%TO.P,U1,1*%
%TO.N,Net-(R4-Pad1)*%
X124968000Y-107061000D03*
%TO.P,U1,2*%
%TO.N,GND*%
X122428000Y-107061000D03*
%TO.P,U1,3*%
%TO.N,Net-(R3-Pad1)*%
X119888000Y-107061000D03*
%TO.P,U1,4*%
%TO.N,GND*%
X117348000Y-107061000D03*
%TO.P,U1,5*%
%TO.N,Net-(R2-Pad1)*%
X114808000Y-107061000D03*
%TO.P,U1,6*%
%TO.N,GND*%
X112268000Y-107061000D03*
%TO.P,U1,7*%
%TO.N,Net-(R1-Pad1)*%
X109728000Y-107061000D03*
%TO.P,U1,8*%
%TO.N,GND*%
X107188000Y-107061000D03*
%TO.P,U1,9*%
%TO.N,Net-(C1-Pad1)*%
X107188000Y-116581000D03*
%TO.P,U1,10*%
%TO.N,+24V*%
X109728000Y-116581000D03*
%TO.P,U1,11*%
%TO.N,Net-(C2-Pad1)*%
X112268000Y-116581000D03*
%TO.P,U1,12*%
%TO.N,+24V*%
X114808000Y-116581000D03*
%TO.P,U1,13*%
%TO.N,Net-(C3-Pad1)*%
X117348000Y-116581000D03*
%TO.P,U1,14*%
%TO.N,+24V*%
X119888000Y-116581000D03*
%TO.P,U1,15*%
%TO.N,Net-(C4-Pad1)*%
X122428000Y-116581000D03*
%TO.P,U1,16*%
%TO.N,+24V*%
X124968000Y-116581000D03*
%TD*%
D12*
%TO.P,R45,1*%
%TO.N,Net-(C6-Pad1)*%
X135318000Y-118491000D03*
%TO.P,R45,2*%
%TO.N,Net-(J3-Pin_2)*%
X133668000Y-118491000D03*
%TD*%
%TO.P,R46,1*%
%TO.N,Net-(C7-Pad1)*%
X140271000Y-118491000D03*
%TO.P,R46,2*%
%TO.N,Net-(J3-Pin_3)*%
X138621000Y-118491000D03*
%TD*%
D13*
%TO.P,U4,1*%
%TO.N,Net-(R16-Pad1)*%
X192913000Y-107177000D03*
%TO.P,U4,2*%
%TO.N,GND*%
X190373000Y-107177000D03*
%TO.P,U4,3*%
%TO.N,Net-(R15-Pad1)*%
X187833000Y-107177000D03*
%TO.P,U4,4*%
%TO.N,GND*%
X185293000Y-107177000D03*
%TO.P,U4,5*%
%TO.N,Net-(R14-Pad1)*%
X182753000Y-107177000D03*
%TO.P,U4,6*%
%TO.N,GND*%
X180213000Y-107177000D03*
%TO.P,U4,7*%
%TO.N,Net-(R13-Pad1)*%
X177673000Y-107177000D03*
%TO.P,U4,8*%
%TO.N,GND*%
X175133000Y-107177000D03*
%TO.P,U4,9*%
%TO.N,Net-(C13-Pad1)*%
X175133000Y-116697000D03*
%TO.P,U4,10*%
%TO.N,+24V*%
X177673000Y-116697000D03*
%TO.P,U4,11*%
%TO.N,Net-(C14-Pad1)*%
X180213000Y-116697000D03*
%TO.P,U4,12*%
%TO.N,+24V*%
X182753000Y-116697000D03*
%TO.P,U4,13*%
%TO.N,Net-(C15-Pad1)*%
X185293000Y-116697000D03*
%TO.P,U4,14*%
%TO.N,+24V*%
X187833000Y-116697000D03*
%TO.P,U4,15*%
%TO.N,Net-(C16-Pad1)*%
X190373000Y-116697000D03*
%TO.P,U4,16*%
%TO.N,+24V*%
X192913000Y-116697000D03*
%TD*%
D14*
%TO.P,JP6,1,A*%
%TO.N,VCC*%
X130048000Y-86502000D03*
D15*
%TO.P,JP6,2,B*%
%TO.N,Net-(JP6-B)*%
X130048000Y-85202000D03*
%TD*%
D16*
%TO.P,R33,1*%
%TO.N,Net-(JP1-B)*%
X116713000Y-83405000D03*
%TO.P,R33,2*%
%TO.N,GND*%
X116713000Y-81755000D03*
%TD*%
D12*
%TO.P,R5,1*%
%TO.N,Net-(R5-Pad1)*%
X132016000Y-105079000D03*
%TO.P,R5,2*%
%TO.N,/pwm4*%
X130366000Y-105079000D03*
%TD*%
D14*
%TO.P,JP3,1,A*%
%TO.N,VCC*%
X122047000Y-86502000D03*
D15*
%TO.P,JP3,2,B*%
%TO.N,Net-(JP3-B)*%
X122047000Y-85202000D03*
%TD*%
D12*
%TO.P,R48,1*%
%TO.N,Net-(C9-Pad1)*%
X152971000Y-118618000D03*
%TO.P,R48,2*%
%TO.N,Net-(J4-Pin_1)*%
X151321000Y-118618000D03*
%TD*%
%TO.P,R2,1*%
%TO.N,Net-(R2-Pad1)*%
X114363000Y-105079000D03*
%TO.P,R2,2*%
%TO.N,/pwm1*%
X112713000Y-105079000D03*
%TD*%
%TO.P,R54,1*%
%TO.N,Net-(C15-Pad1)*%
X185610000Y-118618000D03*
%TO.P,R54,2*%
%TO.N,Net-(J5-Pin_3)*%
X183960000Y-118618000D03*
%TD*%
%TO.P,R41,1*%
%TO.N,Net-(C2-Pad1)*%
X112712000Y-118618000D03*
%TO.P,R41,2*%
%TO.N,Net-(J2-Pin_2)*%
X111062000Y-118618000D03*
%TD*%
%TO.P,R43,1*%
%TO.N,Net-(C4-Pad1)*%
X122618000Y-118618000D03*
%TO.P,R43,2*%
%TO.N,Net-(J2-Pin_4)*%
X120968000Y-118618000D03*
%TD*%
D10*
%TO.P,J2,1,Pin_1*%
%TO.N,Net-(J2-Pin_1)*%
X108364000Y-125440000D03*
D11*
%TO.P,J2,2,Pin_2*%
%TO.N,Net-(J2-Pin_2)*%
X113364000Y-125440000D03*
%TO.P,J2,3,Pin_3*%
%TO.N,Net-(J2-Pin_3)*%
X118364000Y-125440000D03*
%TO.P,J2,4,Pin_4*%
%TO.N,Net-(J2-Pin_4)*%
X123364000Y-125440000D03*
%TD*%
D14*
%TO.P,JP1,1,A*%
%TO.N,VCC*%
X116713000Y-86502000D03*
D15*
%TO.P,JP1,2,B*%
%TO.N,Net-(JP1-B)*%
X116713000Y-85202000D03*
%TD*%
D12*
%TO.P,R12,1*%
%TO.N,Net-(R12-Pad1)*%
X169862000Y-105206000D03*
%TO.P,R12,2*%
%TO.N,/pwm11*%
X168212000Y-105206000D03*
%TD*%
D10*
%TO.P,J3,1,Pin_1*%
%TO.N,Net-(J3-Pin_1)*%
X131097000Y-125313000D03*
D11*
%TO.P,J3,2,Pin_2*%
%TO.N,Net-(J3-Pin_2)*%
X136097000Y-125313000D03*
%TO.P,J3,3,Pin_3*%
%TO.N,Net-(J3-Pin_3)*%
X141097000Y-125313000D03*
%TO.P,J3,4,Pin_4*%
%TO.N,Net-(J3-Pin_4)*%
X146097000Y-125313000D03*
%TD*%
D12*
%TO.P,R3,1*%
%TO.N,Net-(R3-Pad1)*%
X119443000Y-105079000D03*
%TO.P,R3,2*%
%TO.N,/pwm2*%
X117793000Y-105079000D03*
%TD*%
%TO.P,R40,1*%
%TO.N,Net-(C1-Pad1)*%
X107759000Y-118618000D03*
%TO.P,R40,2*%
%TO.N,Net-(J2-Pin_1)*%
X106109000Y-118618000D03*
%TD*%
D17*
%TO.P,J7,1,Pin_1*%
%TO.N,GND*%
X111736000Y-85820000D03*
%TO.P,J7,2,Pin_2*%
%TO.N,VCC*%
X110736000Y-85820000D03*
%TO.P,J7,3,Pin_3*%
%TO.N,/sda*%
X109736000Y-85820000D03*
%TO.P,J7,4,Pin_4*%
%TO.N,/scl*%
X108736000Y-85820000D03*
D18*
%TO.P,J7,MP*%
%TO.N,GND*%
X113036000Y-81945000D03*
X107436000Y-81945000D03*
%TD*%
D14*
%TO.P,JP2,1,A*%
%TO.N,VCC*%
X119380000Y-86502000D03*
D15*
%TO.P,JP2,2,B*%
%TO.N,Net-(JP2-B)*%
X119380000Y-85202000D03*
%TD*%
D19*
%TO.P,C17,1*%
%TO.N,VCC*%
X125463000Y-92456000D03*
%TO.P,C17,2*%
%TO.N,GND*%
X127013000Y-92456000D03*
%TD*%
D12*
%TO.P,R50,1*%
%TO.N,Net-(C11-Pad1)*%
X163004000Y-118618000D03*
%TO.P,R50,2*%
%TO.N,Net-(J4-Pin_3)*%
X161354000Y-118618000D03*
%TD*%
%TO.P,R11,1*%
%TO.N,Net-(R11-Pad1)*%
X164782000Y-105206000D03*
%TO.P,R11,2*%
%TO.N,/pwm10*%
X163132000Y-105206000D03*
%TD*%
%TO.P,R4,1*%
%TO.N,Net-(R4-Pad1)*%
X124396000Y-105079000D03*
%TO.P,R4,2*%
%TO.N,/pwm3*%
X122746000Y-105079000D03*
%TD*%
D16*
%TO.P,R38,1*%
%TO.N,Net-(JP6-B)*%
X130048000Y-83390000D03*
%TO.P,R38,2*%
%TO.N,GND*%
X130048000Y-81740000D03*
%TD*%
D12*
%TO.P,R44,1*%
%TO.N,Net-(C5-Pad1)*%
X130365000Y-118491000D03*
%TO.P,R44,2*%
%TO.N,Net-(J3-Pin_1)*%
X128715000Y-118491000D03*
%TD*%
D20*
%TO.P,J6,1,Pin_1*%
%TO.N,/scl*%
X99000000Y-95544000D03*
D21*
%TO.P,J6,2,Pin_2*%
%TO.N,/sda*%
X99000000Y-93004000D03*
%TO.P,J6,3,Pin_3*%
%TO.N,VCC*%
X99000000Y-90464000D03*
%TO.P,J6,4,Pin_4*%
%TO.N,GND*%
X99000000Y-87924000D03*
%TD*%
D22*
%TO.P,R39,1*%
%TO.N,Net-(U5-~{OE})*%
X122583000Y-94655000D03*
%TO.P,R39,2*%
%TO.N,GND*%
X124233000Y-94655000D03*
%TD*%
D12*
%TO.P,R10,1*%
%TO.N,Net-(R10-Pad1)*%
X159702000Y-105206000D03*
%TO.P,R10,2*%
%TO.N,/pwm9*%
X158052000Y-105206000D03*
%TD*%
%TO.P,R14,1*%
%TO.N,Net-(R14-Pad1)*%
X182308000Y-105206000D03*
%TO.P,R14,2*%
%TO.N,/pwm13*%
X180658000Y-105206000D03*
%TD*%
D23*
%TO.P,U5,1,A0*%
%TO.N,Net-(JP1-B)*%
X114322500Y-91834000D03*
%TO.P,U5,2,A1*%
%TO.N,Net-(JP2-B)*%
X114322500Y-92484000D03*
%TO.P,U5,3,A2*%
%TO.N,Net-(JP3-B)*%
X114322500Y-93134000D03*
%TO.P,U5,4,A3*%
%TO.N,Net-(JP4-B)*%
X114322500Y-93784000D03*
%TO.P,U5,5,A4*%
%TO.N,Net-(JP5-B)*%
X114322500Y-94434000D03*
%TO.P,U5,6,LED0*%
%TO.N,/pwm0*%
X114322500Y-95084000D03*
%TO.P,U5,7,LED1*%
%TO.N,/pwm1*%
X114322500Y-95734000D03*
%TO.P,U5,8,LED2*%
%TO.N,/pwm2*%
X114322500Y-96384000D03*
%TO.P,U5,9,LED3*%
%TO.N,/pwm3*%
X114322500Y-97034000D03*
%TO.P,U5,10,LED4*%
%TO.N,/pwm4*%
X114322500Y-97684000D03*
%TO.P,U5,11,LED5*%
%TO.N,/pwm5*%
X114322500Y-98334000D03*
%TO.P,U5,12,LED6*%
%TO.N,/pwm6*%
X114322500Y-98984000D03*
%TO.P,U5,13,LED7*%
%TO.N,/pwm7*%
X114322500Y-99634000D03*
%TO.P,U5,14,VSS*%
%TO.N,GND*%
X114322500Y-100284000D03*
%TO.P,U5,15,LED8*%
%TO.N,/pwm8*%
X120047500Y-100284000D03*
%TO.P,U5,16,LED9*%
%TO.N,/pwm9*%
X120047500Y-99634000D03*
%TO.P,U5,17,LED10*%
%TO.N,/pwm10*%
X120047500Y-98984000D03*
%TO.P,U5,18,LED11*%
%TO.N,/pwm11*%
X120047500Y-98334000D03*
%TO.P,U5,19,LED12*%
%TO.N,/pwm12*%
X120047500Y-97684000D03*
%TO.P,U5,20,LED13*%
%TO.N,/pwm13*%
X120047500Y-97034000D03*
%TO.P,U5,21,LED14*%
%TO.N,/pwm14*%
X120047500Y-96384000D03*
%TO.P,U5,22,LED15*%
%TO.N,/pwm15*%
X120047500Y-95734000D03*
%TO.P,U5,23,~{OE}*%
%TO.N,Net-(U5-~{OE})*%
X120047500Y-95084000D03*
%TO.P,U5,24,A5*%
%TO.N,Net-(JP6-B)*%
X120047500Y-94434000D03*
%TO.P,U5,25,EXTCLK*%
%TO.N,GND*%
X120047500Y-93784000D03*
%TO.P,U5,26,SCL*%
%TO.N,/scl*%
X120047500Y-93134000D03*
%TO.P,U5,27,SDA*%
%TO.N,/sda*%
X120047500Y-92484000D03*
%TO.P,U5,28,VDD*%
%TO.N,VCC*%
X120047500Y-91834000D03*
%TD*%
D10*
%TO.P,J5,1,Pin_1*%
%TO.N,Net-(J5-Pin_1)*%
X176309000Y-125313000D03*
D11*
%TO.P,J5,2,Pin_2*%
%TO.N,Net-(J5-Pin_2)*%
X181309000Y-125313000D03*
%TO.P,J5,3,Pin_3*%
%TO.N,Net-(J5-Pin_3)*%
X186309000Y-125313000D03*
%TO.P,J5,4,Pin_4*%
%TO.N,Net-(J5-Pin_4)*%
X191309000Y-125313000D03*
%TD*%
D16*
%TO.P,R37,1*%
%TO.N,Net-(JP5-B)*%
X127381000Y-83405000D03*
%TO.P,R37,2*%
%TO.N,GND*%
X127381000Y-81755000D03*
%TD*%
D20*
%TO.P,J10,1,Pin_1*%
%TO.N,GND*%
X131826000Y-92710000D03*
%TD*%
D12*
%TO.P,R8,1*%
%TO.N,Net-(R8-Pad1)*%
X147129000Y-105079000D03*
%TO.P,R8,2*%
%TO.N,/pwm7*%
X145479000Y-105079000D03*
%TD*%
%TO.P,R53,1*%
%TO.N,Net-(C14-Pad1)*%
X180657000Y-118618000D03*
%TO.P,R53,2*%
%TO.N,Net-(J5-Pin_2)*%
X179007000Y-118618000D03*
%TD*%
D17*
%TO.P,J8,1,Pin_1*%
%TO.N,GND*%
X103735000Y-85820000D03*
%TO.P,J8,2,Pin_2*%
%TO.N,VCC*%
X102735000Y-85820000D03*
%TO.P,J8,3,Pin_3*%
%TO.N,/sda*%
X101735000Y-85820000D03*
%TO.P,J8,4,Pin_4*%
%TO.N,/scl*%
X100735000Y-85820000D03*
D18*
%TO.P,J8,MP*%
%TO.N,GND*%
X105035000Y-81945000D03*
X99435000Y-81945000D03*
%TD*%
D12*
%TO.P,R52,1*%
%TO.N,Net-(C13-Pad1)*%
X175577000Y-118618000D03*
%TO.P,R52,2*%
%TO.N,Net-(J5-Pin_1)*%
X173927000Y-118618000D03*
%TD*%
D20*
%TO.P,J9,1,Pin_1*%
%TO.N,VCC*%
X135128000Y-87630000D03*
%TD*%
D12*
%TO.P,R1,1*%
%TO.N,Net-(R1-Pad1)*%
X109410000Y-105079000D03*
%TO.P,R1,2*%
%TO.N,/pwm0*%
X107760000Y-105079000D03*
%TD*%
D16*
%TO.P,R36,1*%
%TO.N,Net-(JP4-B)*%
X124714000Y-83390000D03*
%TO.P,R36,2*%
%TO.N,GND*%
X124714000Y-81740000D03*
%TD*%
D12*
%TO.P,R16,1*%
%TO.N,Net-(R16-Pad1)*%
X192468000Y-105206000D03*
%TO.P,R16,2*%
%TO.N,/pwm15*%
X190818000Y-105206000D03*
%TD*%
D16*
%TO.P,R35,1*%
%TO.N,Net-(JP3-B)*%
X122047000Y-83390000D03*
%TO.P,R35,2*%
%TO.N,GND*%
X122047000Y-81740000D03*
%TD*%
D14*
%TO.P,JP5,1,A*%
%TO.N,VCC*%
X127381000Y-86502000D03*
D15*
%TO.P,JP5,2,B*%
%TO.N,Net-(JP5-B)*%
X127381000Y-85202000D03*
%TD*%
D12*
%TO.P,R47,1*%
%TO.N,Net-(C8-Pad1)*%
X145351000Y-118491000D03*
%TO.P,R47,2*%
%TO.N,Net-(J3-Pin_4)*%
X143701000Y-118491000D03*
%TD*%
D13*
%TO.P,U2,1*%
%TO.N,Net-(R8-Pad1)*%
X147701000Y-107061000D03*
%TO.P,U2,2*%
%TO.N,GND*%
X145161000Y-107061000D03*
%TO.P,U2,3*%
%TO.N,Net-(R7-Pad1)*%
X142621000Y-107061000D03*
%TO.P,U2,4*%
%TO.N,GND*%
X140081000Y-107061000D03*
%TO.P,U2,5*%
%TO.N,Net-(R6-Pad1)*%
X137541000Y-107061000D03*
%TO.P,U2,6*%
%TO.N,GND*%
X135001000Y-107061000D03*
%TO.P,U2,7*%
%TO.N,Net-(R5-Pad1)*%
X132461000Y-107061000D03*
%TO.P,U2,8*%
%TO.N,GND*%
X129921000Y-107061000D03*
%TO.P,U2,9*%
%TO.N,Net-(C5-Pad1)*%
X129921000Y-116581000D03*
%TO.P,U2,10*%
%TO.N,+24V*%
X132461000Y-116581000D03*
%TO.P,U2,11*%
%TO.N,Net-(C6-Pad1)*%
X135001000Y-116581000D03*
%TO.P,U2,12*%
%TO.N,+24V*%
X137541000Y-116581000D03*
%TO.P,U2,13*%
%TO.N,Net-(C7-Pad1)*%
X140081000Y-116581000D03*
%TO.P,U2,14*%
%TO.N,+24V*%
X142621000Y-116581000D03*
%TO.P,U2,15*%
%TO.N,Net-(C8-Pad1)*%
X145161000Y-116581000D03*
%TO.P,U2,16*%
%TO.N,+24V*%
X147701000Y-116581000D03*
%TD*%
D14*
%TO.P,JP4,1,A*%
%TO.N,VCC*%
X124714000Y-86502000D03*
D15*
%TO.P,JP4,2,B*%
%TO.N,Net-(JP4-B)*%
X124714000Y-85202000D03*
%TD*%
D13*
%TO.P,U3,1*%
%TO.N,Net-(R12-Pad1)*%
X170307000Y-107177000D03*
%TO.P,U3,2*%
%TO.N,GND*%
X167767000Y-107177000D03*
%TO.P,U3,3*%
%TO.N,Net-(R11-Pad1)*%
X165227000Y-107177000D03*
%TO.P,U3,4*%
%TO.N,GND*%
X162687000Y-107177000D03*
%TO.P,U3,5*%
%TO.N,Net-(R10-Pad1)*%
X160147000Y-107177000D03*
%TO.P,U3,6*%
%TO.N,GND*%
X157607000Y-107177000D03*
%TO.P,U3,7*%
%TO.N,Net-(R9-Pad1)*%
X155067000Y-107177000D03*
%TO.P,U3,8*%
%TO.N,GND*%
X152527000Y-107177000D03*
%TO.P,U3,9*%
%TO.N,Net-(C9-Pad1)*%
X152527000Y-116697000D03*
%TO.P,U3,10*%
%TO.N,+24V*%
X155067000Y-116697000D03*
%TO.P,U3,11*%
%TO.N,Net-(C10-Pad1)*%
X157607000Y-116697000D03*
%TO.P,U3,12*%
%TO.N,+24V*%
X160147000Y-116697000D03*
%TO.P,U3,13*%
%TO.N,Net-(C11-Pad1)*%
X162687000Y-116697000D03*
%TO.P,U3,14*%
%TO.N,+24V*%
X165227000Y-116697000D03*
%TO.P,U3,15*%
%TO.N,Net-(C12-Pad1)*%
X167767000Y-116697000D03*
%TO.P,U3,16*%
%TO.N,+24V*%
X170307000Y-116697000D03*
%TD*%
D12*
%TO.P,R13,1*%
%TO.N,Net-(R13-Pad1)*%
X177228000Y-105206000D03*
%TO.P,R13,2*%
%TO.N,/pwm12*%
X175578000Y-105206000D03*
%TD*%
%TO.P,R42,1*%
%TO.N,Net-(C3-Pad1)*%
X117665000Y-118618000D03*
%TO.P,R42,2*%
%TO.N,Net-(J2-Pin_3)*%
X116015000Y-118618000D03*
%TD*%
%TO.P,R7,1*%
%TO.N,Net-(R7-Pad1)*%
X142176000Y-105079000D03*
%TO.P,R7,2*%
%TO.N,/pwm6*%
X140526000Y-105079000D03*
%TD*%
%TO.P,R6,1*%
%TO.N,Net-(R6-Pad1)*%
X137096000Y-105079000D03*
%TO.P,R6,2*%
%TO.N,/pwm5*%
X135446000Y-105079000D03*
%TD*%
%TO.P,R55,1*%
%TO.N,Net-(C16-Pad1)*%
X190690000Y-118618000D03*
%TO.P,R55,2*%
%TO.N,Net-(J5-Pin_4)*%
X189040000Y-118618000D03*
%TD*%
D16*
%TO.P,R34,1*%
%TO.N,Net-(JP2-B)*%
X119380000Y-83390000D03*
%TO.P,R34,2*%
%TO.N,GND*%
X119380000Y-81740000D03*
%TD*%
D12*
%TO.P,R15,1*%
%TO.N,Net-(R15-Pad1)*%
X187388000Y-105206000D03*
%TO.P,R15,2*%
%TO.N,/pwm14*%
X185738000Y-105206000D03*
%TD*%
D24*
%TO.N,Net-(C1-Pad1)*%
X107823000Y-121031000D03*
%TO.N,GND*%
X113030000Y-85598000D03*
X106172000Y-85598000D03*
X116332000Y-100838000D03*
%TO.N,Net-(C2-Pad1)*%
X112776000Y-121031000D03*
%TO.N,Net-(C3-Pad1)*%
X117729000Y-121031000D03*
%TO.N,Net-(C4-Pad1)*%
X122682000Y-121031000D03*
%TO.N,Net-(C5-Pad1)*%
X130429000Y-120904000D03*
%TO.N,Net-(C6-Pad1)*%
X135382000Y-120904000D03*
%TO.N,Net-(C7-Pad1)*%
X140335000Y-120904000D03*
%TO.N,Net-(C8-Pad1)*%
X145415000Y-120904000D03*
%TO.N,Net-(C9-Pad1)*%
X153035000Y-121031000D03*
%TO.N,Net-(C10-Pad1)*%
X158115000Y-121031000D03*
%TO.N,Net-(C11-Pad1)*%
X163068000Y-121031000D03*
%TO.N,Net-(C12-Pad1)*%
X168148000Y-121031000D03*
%TO.N,Net-(C13-Pad1)*%
X175514000Y-121031000D03*
%TO.N,Net-(C14-Pad1)*%
X180721000Y-121031000D03*
%TO.N,Net-(C15-Pad1)*%
X185674000Y-121031000D03*
%TO.N,Net-(C16-Pad1)*%
X190754000Y-121031000D03*
%TO.N,VCC*%
X130048000Y-86995000D03*
X124714000Y-86995000D03*
X116713000Y-86995000D03*
X122047000Y-86995000D03*
X119380000Y-86995000D03*
X127381000Y-86995000D03*
X103211000Y-90464000D03*
%TO.N,/scl*%
X108204000Y-87122000D03*
X109220000Y-82550000D03*
X123738000Y-92369000D03*
%TO.N,/sda*%
X102068000Y-91607000D03*
X122595000Y-91607000D03*
X110236000Y-83312000D03*
X109728000Y-87122000D03*
%TD*%
D25*
%TO.N,Net-(C1-Pad1)*%
X107188000Y-118047000D02*
X107759000Y-118618000D01*
X107759000Y-120967000D02*
X107823000Y-121031000D01*
X107759000Y-118618000D02*
X107759000Y-120967000D01*
X107188000Y-116581000D02*
X107188000Y-118047000D01*
%TO.N,GND*%
X114322500Y-100284000D02*
X115778000Y-100284000D01*
X120065500Y-93766000D02*
X120047500Y-93784000D01*
X124233000Y-94655000D02*
X123344000Y-93766000D01*
X112841000Y-81750000D02*
X113036000Y-81945000D01*
X115778000Y-100284000D02*
X116332000Y-100838000D01*
X105035000Y-81945000D02*
X107436000Y-81945000D01*
X123344000Y-93766000D02*
X120065500Y-93766000D01*
X107436000Y-81945000D02*
X107631000Y-81750000D01*
X107631000Y-81750000D02*
X112841000Y-81750000D01*
%TO.N,Net-(C2-Pad1)*%
X112712000Y-118618000D02*
X112712000Y-120967000D01*
X112268000Y-116581000D02*
X112268000Y-118174000D01*
X112268000Y-118174000D02*
X112712000Y-118618000D01*
X112712000Y-120967000D02*
X112776000Y-121031000D01*
%TO.N,Net-(C3-Pad1)*%
X117665000Y-120967000D02*
X117729000Y-121031000D01*
X117348000Y-116581000D02*
X117348000Y-118301000D01*
X117665000Y-118618000D02*
X117665000Y-120967000D01*
X117348000Y-118301000D02*
X117665000Y-118618000D01*
%TO.N,Net-(C4-Pad1)*%
X122618000Y-118618000D02*
X122618000Y-120967000D01*
X122618000Y-120967000D02*
X122682000Y-121031000D01*
X122428000Y-118428000D02*
X122618000Y-118618000D01*
X122428000Y-116581000D02*
X122428000Y-118428000D01*
%TO.N,Net-(C5-Pad1)*%
X130365000Y-120840000D02*
X130429000Y-120904000D01*
X130365000Y-118491000D02*
X130365000Y-120840000D01*
X129921000Y-116581000D02*
X129921000Y-118047000D01*
X129921000Y-118047000D02*
X130365000Y-118491000D01*
%TO.N,Net-(C6-Pad1)*%
X135001000Y-116581000D02*
X135001000Y-118174000D01*
X135318000Y-120840000D02*
X135382000Y-120904000D01*
X135001000Y-118174000D02*
X135318000Y-118491000D01*
X135318000Y-118491000D02*
X135318000Y-120840000D01*
%TO.N,Net-(C7-Pad1)*%
X140081000Y-116581000D02*
X140081000Y-118301000D01*
X140081000Y-118301000D02*
X140271000Y-118491000D01*
X140271000Y-120840000D02*
X140335000Y-120904000D01*
X140271000Y-118491000D02*
X140271000Y-120840000D01*
%TO.N,Net-(C8-Pad1)*%
X145351000Y-120840000D02*
X145415000Y-120904000D01*
X145161000Y-118301000D02*
X145351000Y-118491000D01*
X145161000Y-116581000D02*
X145161000Y-118301000D01*
X145351000Y-118491000D02*
X145351000Y-120840000D01*
%TO.N,Net-(C9-Pad1)*%
X152527000Y-116697000D02*
X152527000Y-118174000D01*
X152971000Y-120967000D02*
X153035000Y-121031000D01*
X152971000Y-118618000D02*
X152971000Y-120967000D01*
X152527000Y-118174000D02*
X152971000Y-118618000D01*
%TO.N,Net-(C10-Pad1)*%
X158051000Y-118618000D02*
X158051000Y-120967000D01*
X157607000Y-116697000D02*
X157607000Y-118174000D01*
X158051000Y-120967000D02*
X158115000Y-121031000D01*
X157607000Y-118174000D02*
X158051000Y-118618000D01*
%TO.N,Net-(C11-Pad1)*%
X162687000Y-116697000D02*
X162687000Y-118301000D01*
X162687000Y-118301000D02*
X163004000Y-118618000D01*
X163004000Y-118618000D02*
X163004000Y-120967000D01*
X163004000Y-120967000D02*
X163068000Y-121031000D01*
%TO.N,Net-(C12-Pad1)*%
X167767000Y-116697000D02*
X167767000Y-118301000D01*
X168084000Y-118618000D02*
X168084000Y-120967000D01*
X167767000Y-118301000D02*
X168084000Y-118618000D01*
X168084000Y-120967000D02*
X168148000Y-121031000D01*
%TO.N,Net-(C13-Pad1)*%
X175133000Y-118174000D02*
X175577000Y-118618000D01*
X175577000Y-120968000D02*
X175514000Y-121031000D01*
X175133000Y-116697000D02*
X175133000Y-118174000D01*
X175577000Y-118618000D02*
X175577000Y-120968000D01*
%TO.N,Net-(C14-Pad1)*%
X180657000Y-120967000D02*
X180721000Y-121031000D01*
X180213000Y-118174000D02*
X180657000Y-118618000D01*
X180213000Y-116697000D02*
X180213000Y-118174000D01*
X180657000Y-118618000D02*
X180657000Y-120967000D01*
%TO.N,Net-(C15-Pad1)*%
X185293000Y-116697000D02*
X185293000Y-118301000D01*
X185293000Y-118301000D02*
X185610000Y-118618000D01*
X185610000Y-118618000D02*
X185610000Y-120967000D01*
X185610000Y-120967000D02*
X185674000Y-121031000D01*
%TO.N,Net-(C16-Pad1)*%
X190690000Y-120967000D02*
X190754000Y-121031000D01*
X190373000Y-116697000D02*
X190373000Y-118301000D01*
X190690000Y-118618000D02*
X190690000Y-120967000D01*
X190373000Y-118301000D02*
X190690000Y-118618000D01*
D26*
%TO.N,VCC*%
X109936072Y-84574000D02*
X110736000Y-85373928D01*
D25*
X123685000Y-90678000D02*
X124199500Y-91192500D01*
D26*
X110736000Y-85373928D02*
X110736000Y-85820000D01*
D25*
X120047500Y-91834000D02*
X121018000Y-91834000D01*
D26*
X102735000Y-85820000D02*
X102735000Y-85373928D01*
D25*
X125850500Y-91192500D02*
X124199500Y-91192500D01*
X130048000Y-86995000D02*
X125850500Y-91192500D01*
X124199500Y-91192500D02*
X125463000Y-92456000D01*
D26*
X103534928Y-84574000D02*
X109936072Y-84574000D01*
D25*
X122174000Y-90678000D02*
X123685000Y-90678000D01*
D26*
X102735000Y-85373928D02*
X103534928Y-84574000D01*
D25*
X121018000Y-91834000D02*
X122174000Y-90678000D01*
D26*
X102735000Y-85820000D02*
X102735000Y-89988000D01*
X102735000Y-89988000D02*
X103211000Y-90464000D01*
D27*
%TO.N,+24V*%
X119888000Y-112699000D02*
X124841000Y-112699000D01*
X110363000Y-112699000D02*
X114808000Y-112699000D01*
X170307000Y-112826000D02*
X170180000Y-112699000D01*
X132461000Y-112826000D02*
X132588000Y-112699000D01*
X202946000Y-117221000D02*
X202946000Y-125313000D01*
X192913000Y-112953000D02*
X193167000Y-112699000D01*
X177673000Y-112699000D02*
X183007000Y-112699000D01*
X147701000Y-112699000D02*
X154813000Y-112699000D01*
X165227000Y-116697000D02*
X165227000Y-112826000D01*
X182753000Y-116697000D02*
X182753000Y-112953000D01*
X142494000Y-112699000D02*
X147701000Y-112699000D01*
X183007000Y-112699000D02*
X187833000Y-112699000D01*
X114808000Y-112699000D02*
X119888000Y-112699000D01*
X154813000Y-112699000D02*
X160020000Y-112699000D01*
X177673000Y-116697000D02*
X177673000Y-112699000D01*
X193167000Y-112699000D02*
X198424000Y-112699000D01*
X137541000Y-112699000D02*
X142494000Y-112699000D01*
X147701000Y-116581000D02*
X147701000Y-112699000D01*
X155067000Y-112953000D02*
X154813000Y-112699000D01*
X142621000Y-112826000D02*
X142494000Y-112699000D01*
X142621000Y-116581000D02*
X142621000Y-112826000D01*
X187833000Y-112699000D02*
X193167000Y-112699000D01*
X160147000Y-116697000D02*
X160147000Y-112826000D01*
X170180000Y-112699000D02*
X177673000Y-112699000D01*
X155067000Y-116697000D02*
X155067000Y-112953000D01*
X114808000Y-116581000D02*
X114808000Y-112699000D01*
X170307000Y-116697000D02*
X170307000Y-112826000D01*
X124968000Y-112826000D02*
X124841000Y-112699000D01*
X182753000Y-112953000D02*
X183007000Y-112699000D01*
X187833000Y-116697000D02*
X187833000Y-112699000D01*
X132461000Y-116581000D02*
X132461000Y-112826000D01*
X109728000Y-116581000D02*
X109728000Y-113334000D01*
X109728000Y-113334000D02*
X110363000Y-112699000D01*
X137541000Y-116581000D02*
X137541000Y-112699000D01*
X119888000Y-116581000D02*
X119888000Y-112699000D01*
X160147000Y-112826000D02*
X160020000Y-112699000D01*
X165100000Y-112699000D02*
X170180000Y-112699000D01*
X160020000Y-112699000D02*
X165100000Y-112699000D01*
X132588000Y-112699000D02*
X137541000Y-112699000D01*
X124968000Y-116581000D02*
X124968000Y-112826000D01*
X165227000Y-112826000D02*
X165100000Y-112699000D01*
X124841000Y-112699000D02*
X132588000Y-112699000D01*
X192913000Y-116697000D02*
X192913000Y-112953000D01*
X198424000Y-112699000D02*
X202946000Y-117221000D01*
D26*
%TO.N,/scl*%
X108458000Y-83312000D02*
X109220000Y-82550000D01*
D25*
X120047500Y-93134000D02*
X122973000Y-93134000D01*
D26*
X99000000Y-95544000D02*
X97825489Y-94369489D01*
X100735000Y-85820000D02*
X100735000Y-85373928D01*
X102796928Y-83312000D02*
X108458000Y-83312000D01*
X108204000Y-87122000D02*
X108736000Y-86590000D01*
X100735000Y-85373928D02*
X102796928Y-83312000D01*
X97825489Y-94369489D02*
X97825489Y-89977501D01*
D25*
X122973000Y-93134000D02*
X123738000Y-92369000D01*
D26*
X108736000Y-86590000D02*
X108736000Y-85820000D01*
X99496489Y-89098511D02*
X100735000Y-87860000D01*
X97825489Y-89977501D02*
X98704479Y-89098511D01*
X98704479Y-89098511D02*
X99496489Y-89098511D01*
X100735000Y-87860000D02*
X100735000Y-85820000D01*
%TO.N,/sda*%
X110236000Y-83312000D02*
X109423520Y-84124480D01*
X101735000Y-85373928D02*
X101735000Y-85820000D01*
D25*
X120047500Y-92484000D02*
X121718000Y-92484000D01*
D26*
X109728000Y-85828000D02*
X109736000Y-85820000D01*
X101735000Y-85820000D02*
X101735000Y-91274000D01*
X101735000Y-91274000D02*
X102068000Y-91607000D01*
D25*
X121718000Y-92484000D02*
X122595000Y-91607000D01*
D26*
X103034928Y-84074000D02*
X101735000Y-85373928D01*
X103085408Y-84124480D02*
X103034928Y-84074000D01*
X109423520Y-84124480D02*
X103085408Y-84124480D01*
X109728000Y-87122000D02*
X109728000Y-85828000D01*
D25*
%TO.N,Net-(J2-Pin_1)*%
X106109000Y-123185000D02*
X108364000Y-125440000D01*
X106109000Y-118618000D02*
X106109000Y-123185000D01*
%TO.N,Net-(J2-Pin_2)*%
X111062000Y-118618000D02*
X111062000Y-123138000D01*
X111062000Y-123138000D02*
X113364000Y-125440000D01*
%TO.N,Net-(J2-Pin_3)*%
X116015000Y-118618000D02*
X116015000Y-123091000D01*
X116015000Y-123091000D02*
X118364000Y-125440000D01*
%TO.N,Net-(J2-Pin_4)*%
X120968000Y-118618000D02*
X120968000Y-123044000D01*
X120968000Y-123044000D02*
X123364000Y-125440000D01*
%TO.N,Net-(J3-Pin_1)*%
X128715000Y-122931000D02*
X131097000Y-125313000D01*
X128715000Y-118491000D02*
X128715000Y-122931000D01*
%TO.N,Net-(J3-Pin_2)*%
X133668000Y-118491000D02*
X133668000Y-122884000D01*
X133668000Y-122884000D02*
X136097000Y-125313000D01*
%TO.N,Net-(R1-Pad1)*%
X109410000Y-106743000D02*
X109728000Y-107061000D01*
X109410000Y-105079000D02*
X109410000Y-106743000D01*
%TO.N,/pwm0*%
X107760000Y-105079000D02*
X107760000Y-99496904D01*
X107760000Y-99496904D02*
X112172904Y-95084000D01*
X112172904Y-95084000D02*
X114322500Y-95084000D01*
%TO.N,Net-(R2-Pad1)*%
X114363000Y-106616000D02*
X114808000Y-107061000D01*
X114363000Y-105079000D02*
X114363000Y-106616000D01*
%TO.N,/pwm1*%
X112370753Y-95734000D02*
X109640376Y-98464376D01*
X112713000Y-105079000D02*
X109259376Y-101625376D01*
X109259376Y-101625376D02*
X109259376Y-98845376D01*
X109640376Y-98464376D02*
X109474000Y-98630753D01*
X109640376Y-98464376D02*
X109259376Y-98845376D01*
X114322500Y-95734000D02*
X112370753Y-95734000D01*
%TO.N,Net-(R3-Pad1)*%
X119443000Y-106616000D02*
X119888000Y-107061000D01*
X119443000Y-105079000D02*
X119443000Y-106616000D01*
%TO.N,/pwm2*%
X114322500Y-96384000D02*
X112568602Y-96384000D01*
X112568602Y-96384000D02*
X110363000Y-98589602D01*
X115686528Y-105079000D02*
X117793000Y-105079000D01*
X113403781Y-104204000D02*
X114811528Y-104204000D01*
X114811528Y-104204000D02*
X115686528Y-105079000D01*
X110363000Y-101163219D02*
X113403781Y-104204000D01*
X110363000Y-98589602D02*
X110363000Y-101163219D01*
%TO.N,Net-(R4-Pad1)*%
X124396000Y-106489000D02*
X124968000Y-107061000D01*
X124396000Y-105079000D02*
X124396000Y-106489000D01*
%TO.N,/pwm3*%
X113652309Y-103604000D02*
X119352000Y-103604000D01*
X112766451Y-97034000D02*
X110998000Y-98802450D01*
X110998000Y-98802450D02*
X110998000Y-100949691D01*
X120827000Y-105079000D02*
X122746000Y-105079000D01*
X110998000Y-100949691D02*
X113652309Y-103604000D01*
X114322500Y-97034000D02*
X112766451Y-97034000D01*
X119352000Y-103604000D02*
X120827000Y-105079000D01*
%TO.N,Net-(R5-Pad1)*%
X132016000Y-106616000D02*
X132461000Y-107061000D01*
X132016000Y-105079000D02*
X132016000Y-106616000D01*
%TO.N,/pwm4*%
X113900837Y-103004000D02*
X123644528Y-103004000D01*
X125719528Y-105079000D02*
X130366000Y-105079000D01*
X123644528Y-103004000D02*
X125719528Y-105079000D01*
X111633000Y-100736163D02*
X113900837Y-103004000D01*
X111633000Y-99015300D02*
X111633000Y-100736163D01*
X114322500Y-97684000D02*
X112964301Y-97684000D01*
X112964301Y-97684000D02*
X111633000Y-99015300D01*
%TO.N,Net-(R6-Pad1)*%
X137096000Y-106616000D02*
X137541000Y-107061000D01*
X137096000Y-105079000D02*
X137096000Y-106616000D01*
%TO.N,/pwm5*%
X114322500Y-98334000D02*
X113162150Y-98334000D01*
X130664528Y-102404000D02*
X133339528Y-105079000D01*
X112303000Y-99193150D02*
X112303000Y-100557635D01*
X114149365Y-102404000D02*
X130664528Y-102404000D01*
X133339528Y-105079000D02*
X135446000Y-105079000D01*
X113162150Y-98334000D02*
X112303000Y-99193150D01*
X112303000Y-100557635D02*
X114149365Y-102404000D01*
%TO.N,Net-(R7-Pad1)*%
X142176000Y-105079000D02*
X142176000Y-106616000D01*
X142176000Y-106616000D02*
X142621000Y-107061000D01*
%TO.N,/pwm6*%
X114322500Y-98984000D02*
X113527893Y-98984000D01*
X112903000Y-99608893D02*
X112903000Y-100309107D01*
X138419528Y-105079000D02*
X140526000Y-105079000D01*
X135144528Y-101804000D02*
X138419528Y-105079000D01*
X113527893Y-98984000D02*
X112903000Y-99608893D01*
X114397893Y-101804000D02*
X135144528Y-101804000D01*
X112903000Y-100309107D02*
X114397893Y-101804000D01*
%TO.N,Net-(R8-Pad1)*%
X147129000Y-105079000D02*
X147129000Y-106489000D01*
X147129000Y-106489000D02*
X147701000Y-107061000D01*
%TO.N,/pwm7*%
X118857000Y-101204000D02*
X117287000Y-99634000D01*
X143499528Y-105079000D02*
X139624528Y-101204000D01*
X139624528Y-101204000D02*
X118857000Y-101204000D01*
X145479000Y-105079000D02*
X143499528Y-105079000D01*
X117287000Y-99634000D02*
X114322500Y-99634000D01*
%TO.N,Net-(R9-Pad1)*%
X154622000Y-105206000D02*
X154622000Y-106732000D01*
X154622000Y-106732000D02*
X155067000Y-107177000D01*
%TO.N,/pwm8*%
X120047500Y-100284000D02*
X148050000Y-100284000D01*
X148050000Y-100284000D02*
X152972000Y-105206000D01*
%TO.N,Net-(R10-Pad1)*%
X159702000Y-106732000D02*
X160147000Y-107177000D01*
X159702000Y-105206000D02*
X159702000Y-106732000D01*
%TO.N,/pwm9*%
X152480000Y-99634000D02*
X158052000Y-105206000D01*
X120047500Y-99634000D02*
X152480000Y-99634000D01*
%TO.N,Net-(R11-Pad1)*%
X164782000Y-105206000D02*
X164782000Y-106732000D01*
X164782000Y-106732000D02*
X165227000Y-107177000D01*
%TO.N,/pwm10*%
X120047500Y-98984000D02*
X156910000Y-98984000D01*
X156910000Y-98984000D02*
X163132000Y-105206000D01*
%TO.N,Net-(R12-Pad1)*%
X169862000Y-106732000D02*
X170307000Y-107177000D01*
X169862000Y-105206000D02*
X169862000Y-106732000D01*
%TO.N,/pwm11*%
X120047500Y-98334000D02*
X161340000Y-98334000D01*
X161340000Y-98334000D02*
X168212000Y-105206000D01*
%TO.N,Net-(R13-Pad1)*%
X177228000Y-106732000D02*
X177673000Y-107177000D01*
X177228000Y-105206000D02*
X177228000Y-106732000D01*
%TO.N,/pwm12*%
X173697000Y-105206000D02*
X175578000Y-105206000D01*
X166175000Y-97684000D02*
X173697000Y-105206000D01*
X120047500Y-97684000D02*
X166175000Y-97684000D01*
%TO.N,Net-(R14-Pad1)*%
X182308000Y-105206000D02*
X182308000Y-106732000D01*
X182308000Y-106732000D02*
X182753000Y-107177000D01*
%TO.N,/pwm13*%
X178612000Y-105206000D02*
X170440000Y-97034000D01*
X170440000Y-97034000D02*
X120047500Y-97034000D01*
X180658000Y-105206000D02*
X178612000Y-105206000D01*
%TO.N,Net-(R15-Pad1)*%
X187388000Y-105206000D02*
X187388000Y-106732000D01*
X187388000Y-106732000D02*
X187833000Y-107177000D01*
%TO.N,/pwm14*%
X175349000Y-96384000D02*
X184121000Y-105156000D01*
X185688000Y-105156000D02*
X185738000Y-105206000D01*
X120047500Y-96384000D02*
X175349000Y-96384000D01*
X184121000Y-105156000D02*
X185688000Y-105156000D01*
%TO.N,Net-(R16-Pad1)*%
X192468000Y-106732000D02*
X192913000Y-107177000D01*
X192468000Y-105206000D02*
X192468000Y-106732000D01*
%TO.N,/pwm15*%
X179300000Y-95734000D02*
X120047500Y-95734000D01*
X190818000Y-105206000D02*
X188772000Y-105206000D01*
X188772000Y-105206000D02*
X179300000Y-95734000D01*
%TO.N,Net-(J3-Pin_3)*%
X138621000Y-122837000D02*
X141097000Y-125313000D01*
X138621000Y-118491000D02*
X138621000Y-122837000D01*
%TO.N,Net-(J3-Pin_4)*%
X143701000Y-122917000D02*
X146097000Y-125313000D01*
X143701000Y-118491000D02*
X143701000Y-122917000D01*
%TO.N,Net-(J4-Pin_1)*%
X151321000Y-118618000D02*
X151321000Y-122931000D01*
X151321000Y-122931000D02*
X153703000Y-125313000D01*
%TO.N,Net-(J4-Pin_2)*%
X156401000Y-123011000D02*
X158703000Y-125313000D01*
X156401000Y-118618000D02*
X156401000Y-123011000D01*
%TO.N,Net-(J4-Pin_3)*%
X161354000Y-122964000D02*
X163703000Y-125313000D01*
X161354000Y-118618000D02*
X161354000Y-122964000D01*
%TO.N,Net-(J4-Pin_4)*%
X166434000Y-123044000D02*
X168703000Y-125313000D01*
X166434000Y-118618000D02*
X166434000Y-123044000D01*
%TO.N,Net-(J5-Pin_1)*%
X173927000Y-122931000D02*
X176309000Y-125313000D01*
X173927000Y-118618000D02*
X173927000Y-122931000D01*
%TO.N,Net-(J5-Pin_2)*%
X179007000Y-118618000D02*
X179007000Y-123011000D01*
X179007000Y-123011000D02*
X181309000Y-125313000D01*
%TO.N,Net-(J5-Pin_3)*%
X183960000Y-122964000D02*
X186309000Y-125313000D01*
X183960000Y-118618000D02*
X183960000Y-122964000D01*
%TO.N,Net-(J5-Pin_4)*%
X189040000Y-118618000D02*
X189040000Y-123044000D01*
X189040000Y-123044000D02*
X191309000Y-125313000D01*
%TO.N,Net-(JP1-B)*%
X116197994Y-85202000D02*
X114322500Y-87077494D01*
X116713000Y-83405000D02*
X116713000Y-85202000D01*
X114322500Y-87077494D02*
X114322500Y-91834000D01*
X116713000Y-85202000D02*
X116197994Y-85202000D01*
%TO.N,Net-(JP2-B)*%
X119380000Y-85202000D02*
X118864994Y-85202000D01*
X115483000Y-89495000D02*
X115483000Y-92117427D01*
X115116427Y-92484000D02*
X114322500Y-92484000D01*
X119380000Y-83390000D02*
X119380000Y-85202000D01*
X118864994Y-85202000D02*
X118230480Y-85836514D01*
X118230480Y-85836514D02*
X118230480Y-86747520D01*
X115483000Y-92117427D02*
X115116427Y-92484000D01*
X118230480Y-86747520D02*
X115483000Y-89495000D01*
%TO.N,Net-(JP3-B)*%
X115314277Y-93134000D02*
X114322500Y-93134000D01*
X116082520Y-92365757D02*
X115314277Y-93134000D01*
X116082520Y-89911480D02*
X116082520Y-92365757D01*
X119634000Y-88138000D02*
X117856000Y-88138000D01*
X120650000Y-87122000D02*
X119634000Y-88138000D01*
X122047000Y-85202000D02*
X121531994Y-85202000D01*
X122047000Y-83390000D02*
X122047000Y-85202000D01*
X120650000Y-86083994D02*
X120650000Y-87122000D01*
X117856000Y-88138000D02*
X116082520Y-89911480D01*
X121531994Y-85202000D02*
X120650000Y-86083994D01*
%TO.N,Net-(JP4-B)*%
X121435160Y-88737520D02*
X123444000Y-86728680D01*
X116682040Y-90159810D02*
X118104330Y-88737520D01*
X115512127Y-93784000D02*
X116682040Y-92614087D01*
X116682040Y-92614087D02*
X116682040Y-90159810D01*
X123444000Y-86728680D02*
X123444000Y-85956994D01*
X123444000Y-85956994D02*
X124198994Y-85202000D01*
X118104330Y-88737520D02*
X121435160Y-88737520D01*
X124198994Y-85202000D02*
X124714000Y-85202000D01*
X124714000Y-83390000D02*
X124714000Y-85202000D01*
X114322500Y-93784000D02*
X115512127Y-93784000D01*
%TO.N,Net-(JP5-B)*%
X117281560Y-92955052D02*
X117281560Y-90408140D01*
X125984000Y-86083994D02*
X126865994Y-85202000D01*
X125984000Y-86855680D02*
X125984000Y-86083994D01*
X118352660Y-89337040D02*
X123502640Y-89337040D01*
X117281560Y-90408140D02*
X118352660Y-89337040D01*
X127381000Y-83405000D02*
X127381000Y-85202000D01*
X114322500Y-94434000D02*
X115802613Y-94434000D01*
X123502640Y-89337040D02*
X125984000Y-86855680D01*
X115802613Y-94434000D02*
X117281560Y-92955052D01*
X126865994Y-85202000D02*
X127381000Y-85202000D01*
%TO.N,Net-(JP6-B)*%
X128898480Y-85731520D02*
X129428000Y-85202000D01*
X119253573Y-94434000D02*
X118516080Y-93696507D01*
X128898480Y-86608200D02*
X128898480Y-85731520D01*
X118516080Y-93696507D02*
X118516080Y-91353000D01*
X118516080Y-91353000D02*
X118897080Y-90972000D01*
X129428000Y-85202000D02*
X130048000Y-85202000D01*
X119867440Y-89936560D02*
X125570120Y-89936560D01*
X118897080Y-90972000D02*
X118897080Y-90906920D01*
X120047500Y-94434000D02*
X119253573Y-94434000D01*
X130048000Y-83390000D02*
X130048000Y-85202000D01*
X118897080Y-90906920D02*
X119867440Y-89936560D01*
X125570120Y-89936560D02*
X128898480Y-86608200D01*
%TO.N,Net-(U5-~{OE})*%
X120047500Y-95084000D02*
X122497000Y-95084000D01*
X122583000Y-94998000D02*
X122497000Y-95084000D01*
X122583000Y-94655000D02*
X122583000Y-94998000D01*
%TD*%
%TA.AperFunction,Conductor*%
%TO.N,GND*%
G36*
X116989558Y-100352091D02*
G01*
X117030435Y-100379405D01*
X117531435Y-100880405D01*
X117562173Y-100930564D01*
X117566789Y-100989211D01*
X117544276Y-101043561D01*
X117499543Y-101081767D01*
X117442340Y-101095500D01*
X115402688Y-101095500D01*
X115342566Y-101080231D01*
X115297016Y-101038125D01*
X115277076Y-100979387D01*
X115287581Y-100918252D01*
X115325983Y-100869538D01*
X115393629Y-100817629D01*
X115491087Y-100690622D01*
X115552350Y-100542719D01*
X115564287Y-100452053D01*
X115585996Y-100396229D01*
X115631029Y-100356737D01*
X115689209Y-100342500D01*
X116941340Y-100342500D01*
X116989558Y-100352091D01*
G37*
%TD.AperFunction*%
%TA.AperFunction,Conductor*%
G36*
X121720177Y-93859699D02*
G01*
X121766376Y-93906602D01*
X121782614Y-93970403D01*
X121764456Y-94033683D01*
X121758915Y-94042850D01*
X121732173Y-94087086D01*
X121680986Y-94251351D01*
X121680119Y-94260903D01*
X121659752Y-94318973D01*
X121614312Y-94360472D01*
X121554636Y-94375500D01*
X121414713Y-94375500D01*
X121356532Y-94361263D01*
X121311500Y-94321770D01*
X121289791Y-94265946D01*
X121281137Y-94200214D01*
X121277838Y-94175150D01*
X121270138Y-94156560D01*
X121260548Y-94108345D01*
X121270140Y-94060126D01*
X121277350Y-94042719D01*
X121289287Y-93952053D01*
X121310996Y-93896229D01*
X121356029Y-93856737D01*
X121414209Y-93842500D01*
X121656628Y-93842500D01*
X121720177Y-93859699D01*
G37*
%TD.AperFunction*%
%TA.AperFunction,Conductor*%
G36*
X210482093Y-80278651D02*
G01*
X210631620Y-80285997D01*
X210828245Y-80296303D01*
X210840101Y-80297490D01*
X211007701Y-80322351D01*
X211008662Y-80322498D01*
X211185112Y-80350445D01*
X211195953Y-80352656D01*
X211363728Y-80394682D01*
X211365688Y-80395190D01*
X211534591Y-80440448D01*
X211544412Y-80443516D01*
X211708612Y-80502268D01*
X211711318Y-80503271D01*
X211873120Y-80565381D01*
X211881837Y-80569109D01*
X211954214Y-80603340D01*
X212040208Y-80644012D01*
X212043434Y-80645596D01*
X212197287Y-80723988D01*
X212204816Y-80728157D01*
X212290992Y-80779809D01*
X212355410Y-80818420D01*
X212359257Y-80820821D01*
X212503647Y-80914589D01*
X212510080Y-80919057D01*
X212651272Y-81023772D01*
X212655482Y-81027035D01*
X212789147Y-81135274D01*
X212794441Y-81139811D01*
X212924789Y-81257952D01*
X212929268Y-81262217D01*
X213050781Y-81383730D01*
X213055046Y-81388209D01*
X213173184Y-81518554D01*
X213177730Y-81523858D01*
X213285954Y-81657504D01*
X213289226Y-81661726D01*
X213393941Y-81802918D01*
X213398409Y-81809351D01*
X213492177Y-81953741D01*
X213494578Y-81957588D01*
X213584831Y-82108164D01*
X213589021Y-82115732D01*
X213608512Y-82153985D01*
X213667370Y-82269499D01*
X213669006Y-82272831D01*
X213743889Y-82431161D01*
X213747617Y-82439878D01*
X213809727Y-82601680D01*
X213810730Y-82604386D01*
X213869482Y-82768586D01*
X213872555Y-82778423D01*
X213917807Y-82947308D01*
X213918324Y-82949302D01*
X213960334Y-83117009D01*
X213962559Y-83127916D01*
X213990484Y-83304233D01*
X213990671Y-83305455D01*
X214015506Y-83472879D01*
X214016697Y-83484772D01*
X214026997Y-83681301D01*
X214027018Y-83681713D01*
X214034348Y-83830906D01*
X214034500Y-83837089D01*
X214034500Y-126736699D01*
X214033080Y-126744292D01*
X214034395Y-126782955D01*
X214034455Y-126789063D01*
X214032336Y-126935169D01*
X214032329Y-126935591D01*
X214028607Y-127144059D01*
X214027796Y-127156256D01*
X214008229Y-127325793D01*
X214008078Y-127327051D01*
X213984989Y-127510862D01*
X213983062Y-127522078D01*
X213945611Y-127693320D01*
X213945143Y-127695377D01*
X213903613Y-127871121D01*
X213900762Y-127881267D01*
X213845752Y-128049676D01*
X213844803Y-128052471D01*
X213785351Y-128220996D01*
X213781775Y-128230010D01*
X213709773Y-128392932D01*
X213708187Y-128396379D01*
X213631485Y-128556698D01*
X213627386Y-128564546D01*
X213539134Y-128719928D01*
X213536769Y-128723919D01*
X213443656Y-128874655D01*
X213439231Y-128881333D01*
X213335679Y-129027325D01*
X213332411Y-129031727D01*
X213223896Y-129171417D01*
X213219339Y-129176950D01*
X213101569Y-129311947D01*
X213097294Y-129316607D01*
X212974526Y-129443839D01*
X212970021Y-129448279D01*
X212839320Y-129570785D01*
X212833952Y-129575536D01*
X212698219Y-129688971D01*
X212693939Y-129692393D01*
X212551731Y-129801095D01*
X212545214Y-129805756D01*
X212397901Y-129904187D01*
X212393997Y-129906693D01*
X212241868Y-130000431D01*
X212234172Y-130004808D01*
X212076699Y-130087181D01*
X212073309Y-130088889D01*
X211913037Y-130166670D01*
X211904157Y-130170565D01*
X211737876Y-130235988D01*
X211735118Y-130237036D01*
X211568784Y-130298022D01*
X211558745Y-130301233D01*
X211384593Y-130349010D01*
X211382554Y-130349551D01*
X211212750Y-130393092D01*
X211201609Y-130395419D01*
X211018775Y-130425046D01*
X211017525Y-130425242D01*
X210848768Y-130450852D01*
X210836608Y-130452097D01*
X210628329Y-130463262D01*
X210627906Y-130463284D01*
X210482164Y-130470606D01*
X210475840Y-130470765D01*
X94403088Y-130468500D01*
X94396907Y-130468348D01*
X94247713Y-130461018D01*
X94247301Y-130460997D01*
X94050772Y-130450697D01*
X94038879Y-130449506D01*
X93871455Y-130424671D01*
X93870233Y-130424484D01*
X93693916Y-130396559D01*
X93683012Y-130394334D01*
X93664777Y-130389767D01*
X93515302Y-130352324D01*
X93513308Y-130351807D01*
X93344423Y-130306555D01*
X93334586Y-130303482D01*
X93170386Y-130244730D01*
X93167680Y-130243727D01*
X93005878Y-130181617D01*
X92997161Y-130177889D01*
X92838831Y-130103006D01*
X92835499Y-130101370D01*
X92807652Y-130087181D01*
X92681732Y-130023021D01*
X92674164Y-130018831D01*
X92523588Y-129928578D01*
X92519741Y-129926177D01*
X92375351Y-129832409D01*
X92368918Y-129827941D01*
X92227726Y-129723226D01*
X92223504Y-129719954D01*
X92089858Y-129611730D01*
X92084554Y-129607184D01*
X91954209Y-129489046D01*
X91949730Y-129484781D01*
X91828217Y-129363268D01*
X91823952Y-129358789D01*
X91705811Y-129228441D01*
X91701274Y-129223147D01*
X91593035Y-129089482D01*
X91589772Y-129085272D01*
X91485057Y-128944080D01*
X91480589Y-128937647D01*
X91386821Y-128793257D01*
X91384420Y-128789410D01*
X91342774Y-128719928D01*
X91294157Y-128638816D01*
X91289988Y-128631287D01*
X91211596Y-128477434D01*
X91210012Y-128474208D01*
X91166203Y-128381582D01*
X91135109Y-128315837D01*
X91131381Y-128307120D01*
X91069271Y-128145318D01*
X91068268Y-128142612D01*
X91009516Y-127978412D01*
X91006448Y-127968591D01*
X90961190Y-127799688D01*
X90960674Y-127797696D01*
X90955791Y-127778201D01*
X90918656Y-127629953D01*
X90916445Y-127619112D01*
X90888498Y-127442662D01*
X90888351Y-127441701D01*
X90863490Y-127274101D01*
X90862303Y-127262245D01*
X90851997Y-127065620D01*
X90847828Y-126980766D01*
X92545787Y-126980766D01*
X92575413Y-127250015D01*
X92581715Y-127274119D01*
X92643928Y-127512088D01*
X92749870Y-127761390D01*
X92890982Y-127992610D01*
X93064255Y-128200820D01*
X93064256Y-128200821D01*
X93064258Y-128200823D01*
X93265993Y-128381578D01*
X93265995Y-128381579D01*
X93265998Y-128381582D01*
X93491910Y-128531044D01*
X93615650Y-128589051D01*
X93737171Y-128646018D01*
X93737173Y-128646018D01*
X93737176Y-128646020D01*
X93996569Y-128724060D01*
X93996572Y-128724060D01*
X93996574Y-128724061D01*
X94264558Y-128763500D01*
X94264561Y-128763500D01*
X94467630Y-128763500D01*
X94467631Y-128763500D01*
X94670156Y-128748677D01*
X94934553Y-128689780D01*
X95187558Y-128593014D01*
X95423777Y-128460441D01*
X95638177Y-128294888D01*
X95826186Y-128099881D01*
X95983799Y-127879579D01*
X96107656Y-127638675D01*
X96195118Y-127382305D01*
X96244319Y-127115933D01*
X96254212Y-126845235D01*
X96248031Y-126789063D01*
X96239339Y-126710065D01*
X96224586Y-126575982D01*
X96156072Y-126313912D01*
X96050130Y-126064610D01*
X95909018Y-125833390D01*
X95735745Y-125625180D01*
X95735741Y-125625176D01*
X95534006Y-125444421D01*
X95534003Y-125444419D01*
X95534002Y-125444418D01*
X95308090Y-125294956D01*
X95308086Y-125294954D01*
X95062828Y-125179981D01*
X94803425Y-125101938D01*
X94535442Y-125062500D01*
X94535439Y-125062500D01*
X94332369Y-125062500D01*
X94298614Y-125064970D01*
X94129839Y-125077323D01*
X93865449Y-125136219D01*
X93612441Y-125232985D01*
X93376225Y-125365557D01*
X93161820Y-125531114D01*
X92973815Y-125726117D01*
X92816200Y-125946422D01*
X92692342Y-126187328D01*
X92604882Y-126443693D01*
X92555681Y-126710065D01*
X92545787Y-126980766D01*
X90847828Y-126980766D01*
X90844651Y-126916093D01*
X90844500Y-126909912D01*
X90844500Y-118950264D01*
X105200500Y-118950264D01*
X105206986Y-119021647D01*
X105206987Y-119021649D01*
X105258173Y-119185913D01*
X105305042Y-119263444D01*
X105347185Y-119333157D01*
X105363595Y-119349567D01*
X105390909Y-119390444D01*
X105400500Y-119438662D01*
X105400500Y-123159782D01*
X105400270Y-123167390D01*
X105396597Y-123228093D01*
X105407559Y-123287910D01*
X105408704Y-123295432D01*
X105416035Y-123355801D01*
X105419649Y-123365332D01*
X105425770Y-123387289D01*
X105427610Y-123397327D01*
X105452571Y-123452789D01*
X105455480Y-123459811D01*
X105477046Y-123516675D01*
X105477047Y-123516676D01*
X105482839Y-123525068D01*
X105494036Y-123544922D01*
X105498223Y-123554224D01*
X105535725Y-123602092D01*
X105540235Y-123608220D01*
X105549684Y-123621909D01*
X105574785Y-123658273D01*
X105590166Y-123671899D01*
X105620316Y-123698610D01*
X105625857Y-123703827D01*
X106518595Y-124596565D01*
X106545909Y-124637442D01*
X106555500Y-124685660D01*
X106555500Y-126788638D01*
X106562011Y-126849201D01*
X106574841Y-126883598D01*
X106613111Y-126986205D01*
X106700738Y-127103261D01*
X106817794Y-127190888D01*
X106817795Y-127190888D01*
X106817796Y-127190889D01*
X106954799Y-127241989D01*
X107015362Y-127248500D01*
X109712638Y-127248500D01*
X109773201Y-127241989D01*
X109910204Y-127190889D01*
X110027261Y-127103261D01*
X110114889Y-126986204D01*
X110165989Y-126849201D01*
X110172500Y-126788638D01*
X110172500Y-124091362D01*
X110165989Y-124030799D01*
X110114889Y-123893796D01*
X110114888Y-123893794D01*
X110027261Y-123776738D01*
X109910205Y-123689111D01*
X109816409Y-123654127D01*
X109773201Y-123638011D01*
X109712638Y-123631500D01*
X107609660Y-123631500D01*
X107561442Y-123621909D01*
X107520565Y-123594595D01*
X106854405Y-122928435D01*
X106827091Y-122887558D01*
X106817500Y-122839340D01*
X106817500Y-121576661D01*
X106834381Y-121513661D01*
X106880500Y-121467542D01*
X106943500Y-121450661D01*
X107006500Y-121467542D01*
X107052619Y-121513661D01*
X107083958Y-121567942D01*
X107083960Y-121567944D01*
X107211747Y-121709866D01*
X107366248Y-121822118D01*
X107540712Y-121899794D01*
X107727513Y-121939500D01*
X107918485Y-121939500D01*
X107918487Y-121939500D01*
X108105288Y-121899794D01*
X108279752Y-121822118D01*
X108434253Y-121709866D01*
X108562040Y-121567944D01*
X108657527Y-121402556D01*
X108716542Y-121220928D01*
X108736504Y-121031000D01*
X108716542Y-120841072D01*
X108657527Y-120659444D01*
X108657527Y-120659443D01*
X108562041Y-120494057D01*
X108542521Y-120472378D01*
X108499863Y-120425002D01*
X108475869Y-120385847D01*
X108467500Y-120340692D01*
X108467500Y-119438662D01*
X108477091Y-119390444D01*
X108504405Y-119349567D01*
X108520814Y-119333157D01*
X108520814Y-119333156D01*
X108520816Y-119333155D01*
X108609827Y-119185913D01*
X108661013Y-119021649D01*
X108667500Y-118950265D01*
X108667499Y-118285736D01*
X108661013Y-118214351D01*
X108609827Y-118050087D01*
X108520816Y-117902845D01*
X108520815Y-117902844D01*
X108520814Y-117902842D01*
X108438362Y-117820390D01*
X108406359Y-117766098D01*
X108404652Y-117703099D01*
X108433669Y-117647154D01*
X108486149Y-117612259D01*
X108548963Y-117607144D01*
X108606397Y-117633089D01*
X108715761Y-117720998D01*
X108715762Y-117720998D01*
X108715764Y-117721000D01*
X108880015Y-117802461D01*
X109057938Y-117846708D01*
X109075583Y-117847904D01*
X109099106Y-117849500D01*
X109099110Y-117849500D01*
X110109029Y-117849500D01*
X110172578Y-117866700D01*
X110218777Y-117913602D01*
X110235015Y-117977404D01*
X110216857Y-118040683D01*
X110212920Y-118047196D01*
X110211172Y-118050088D01*
X110159986Y-118214351D01*
X110153500Y-118285735D01*
X110153500Y-118950264D01*
X110159986Y-119021647D01*
X110159987Y-119021649D01*
X110211173Y-119185913D01*
X110258042Y-119263444D01*
X110300185Y-119333157D01*
X110316595Y-119349567D01*
X110343909Y-119390444D01*
X110353500Y-119438662D01*
X110353500Y-123112782D01*
X110353270Y-123120390D01*
X110349597Y-123181093D01*
X110360559Y-123240910D01*
X110361704Y-123248432D01*
X110369035Y-123308801D01*
X110372649Y-123318332D01*
X110378770Y-123340289D01*
X110380610Y-123350329D01*
X110405572Y-123405794D01*
X110408483Y-123412822D01*
X110430045Y-123469673D01*
X110435839Y-123478068D01*
X110447036Y-123497922D01*
X110451223Y-123507224D01*
X110488725Y-123555092D01*
X110493235Y-123561220D01*
X110503912Y-123576687D01*
X110527785Y-123611273D01*
X110557966Y-123638011D01*
X110573316Y-123651610D01*
X110578857Y-123656827D01*
X111628042Y-124706012D01*
X111655053Y-124746164D01*
X111664937Y-124793536D01*
X111656237Y-124841140D01*
X111631001Y-124905439D01*
X111570685Y-125169699D01*
X111550429Y-125440000D01*
X111570685Y-125710300D01*
X111631001Y-125974560D01*
X111730029Y-126226880D01*
X111865557Y-126461621D01*
X112034554Y-126673538D01*
X112034557Y-126673540D01*
X112034558Y-126673542D01*
X112233257Y-126857907D01*
X112457215Y-127010599D01*
X112566951Y-127063445D01*
X112701427Y-127128206D01*
X112749554Y-127143051D01*
X112960442Y-127208101D01*
X113228472Y-127248500D01*
X113499526Y-127248500D01*
X113499528Y-127248500D01*
X113767558Y-127208101D01*
X114026572Y-127128206D01*
X114270786Y-127010599D01*
X114494743Y-126857907D01*
X114693442Y-126673542D01*
X114862443Y-126461621D01*
X114997971Y-126226879D01*
X115096999Y-125974559D01*
X115157315Y-125710299D01*
X115177571Y-125440000D01*
X115157315Y-125169701D01*
X115096999Y-124905441D01*
X114997971Y-124653121D01*
X114862443Y-124418379D01*
X114761164Y-124291379D01*
X114693445Y-124206461D01*
X114693442Y-124206458D01*
X114494743Y-124022093D01*
X114270786Y-123869401D01*
X114270785Y-123869400D01*
X114270783Y-123869399D01*
X114026572Y-123751793D01*
X113823358Y-123689111D01*
X113767558Y-123671899D01*
X113499528Y-123631500D01*
X113228472Y-123631500D01*
X112960442Y-123671899D01*
X112960438Y-123671900D01*
X112960439Y-123671900D01*
X112755891Y-123734994D01*
X112688422Y-123736887D01*
X112629657Y-123703687D01*
X111807405Y-122881435D01*
X111780091Y-122840558D01*
X111770500Y-122792340D01*
X111770500Y-121576661D01*
X111787381Y-121513661D01*
X111833500Y-121467542D01*
X111896500Y-121450661D01*
X111959500Y-121467542D01*
X112005619Y-121513661D01*
X112036958Y-121567942D01*
X112036960Y-121567944D01*
X112164747Y-121709866D01*
X112319248Y-121822118D01*
X112493712Y-121899794D01*
X112680513Y-121939500D01*
X112871485Y-121939500D01*
X112871487Y-121939500D01*
X113058288Y-121899794D01*
X113232752Y-121822118D01*
X113387253Y-121709866D01*
X113515040Y-121567944D01*
X113610527Y-121402556D01*
X113669542Y-121220928D01*
X113689504Y-121031000D01*
X113669542Y-120841072D01*
X113610527Y-120659444D01*
X113610527Y-120659443D01*
X113515041Y-120494057D01*
X113495521Y-120472378D01*
X113452863Y-120425002D01*
X113428869Y-120385847D01*
X113420500Y-120340692D01*
X113420500Y-119438662D01*
X113430091Y-119390444D01*
X113457405Y-119349567D01*
X113473814Y-119333157D01*
X113473814Y-119333156D01*
X113473816Y-119333155D01*
X113562827Y-119185913D01*
X113614013Y-119021649D01*
X113620500Y-118950265D01*
X113620499Y-118285736D01*
X113614013Y-118214351D01*
X113562827Y-118050087D01*
X113473816Y-117902845D01*
X113473815Y-117902844D01*
X113473814Y-117902842D01*
X113386053Y-117815081D01*
X113352343Y-117754182D01*
X113356112Y-117684678D01*
X113396208Y-117627780D01*
X113423134Y-117606136D01*
X113426596Y-117601829D01*
X113439793Y-117585410D01*
X113483549Y-117550723D01*
X113538000Y-117538350D01*
X113592451Y-117550723D01*
X113636207Y-117585411D01*
X113652865Y-117606136D01*
X113795761Y-117720998D01*
X113795762Y-117720998D01*
X113795764Y-117721000D01*
X113960015Y-117802461D01*
X114137938Y-117846708D01*
X114155583Y-117847904D01*
X114179106Y-117849500D01*
X114179110Y-117849500D01*
X115062029Y-117849500D01*
X115125578Y-117866700D01*
X115171777Y-117913602D01*
X115188015Y-117977404D01*
X115169857Y-118040683D01*
X115165920Y-118047196D01*
X115164172Y-118050088D01*
X115112986Y-118214351D01*
X115106500Y-118285735D01*
X115106500Y-118950264D01*
X115112986Y-119021647D01*
X115112987Y-119021649D01*
X115164173Y-119185913D01*
X115211042Y-119263444D01*
X115253185Y-119333157D01*
X115269595Y-119349567D01*
X115296909Y-119390444D01*
X115306500Y-119438662D01*
X115306500Y-123065782D01*
X115306270Y-123073390D01*
X115302597Y-123134093D01*
X115310337Y-123176329D01*
X115313086Y-123191332D01*
X115313559Y-123193910D01*
X115314704Y-123201432D01*
X115322035Y-123261801D01*
X115325649Y-123271332D01*
X115331770Y-123293289D01*
X115333610Y-123303329D01*
X115358572Y-123358794D01*
X115361483Y-123365822D01*
X115383045Y-123422673D01*
X115388839Y-123431068D01*
X115400036Y-123450922D01*
X115404223Y-123460224D01*
X115441725Y-123508092D01*
X115446235Y-123514220D01*
X115457008Y-123529827D01*
X115480785Y-123564273D01*
X115523474Y-123602092D01*
X115526316Y-123604610D01*
X115531857Y-123609827D01*
X116628042Y-124706012D01*
X116655053Y-124746164D01*
X116664937Y-124793536D01*
X116656237Y-124841140D01*
X116631001Y-124905439D01*
X116570685Y-125169699D01*
X116550429Y-125440000D01*
X116570685Y-125710300D01*
X116631001Y-125974560D01*
X116730029Y-126226880D01*
X116865557Y-126461621D01*
X117034554Y-126673538D01*
X117034557Y-126673540D01*
X117034558Y-126673542D01*
X117233257Y-126857907D01*
X117457215Y-127010599D01*
X117566951Y-127063445D01*
X117701427Y-127128206D01*
X117749554Y-127143051D01*
X117960442Y-127208101D01*
X118228472Y-127248500D01*
X118499526Y-127248500D01*
X118499528Y-127248500D01*
X118767558Y-127208101D01*
X119026572Y-127128206D01*
X119270786Y-127010599D01*
X119494743Y-126857907D01*
X119693442Y-126673542D01*
X119862443Y-126461621D01*
X119997971Y-126226879D01*
X120096999Y-125974559D01*
X120157315Y-125710299D01*
X120177571Y-125440000D01*
X120157315Y-125169701D01*
X120096999Y-124905441D01*
X119997971Y-124653121D01*
X119862443Y-124418379D01*
X119761164Y-124291379D01*
X119693445Y-124206461D01*
X119693442Y-124206458D01*
X119494743Y-124022093D01*
X119270786Y-123869401D01*
X119270785Y-123869400D01*
X119270783Y-123869399D01*
X119026572Y-123751793D01*
X118823358Y-123689111D01*
X118767558Y-123671899D01*
X118499528Y-123631500D01*
X118228472Y-123631500D01*
X117960442Y-123671899D01*
X117960438Y-123671900D01*
X117960439Y-123671900D01*
X117755891Y-123734994D01*
X117688422Y-123736887D01*
X117629657Y-123703687D01*
X116760405Y-122834435D01*
X116733091Y-122793558D01*
X116723500Y-122745340D01*
X116723500Y-121576661D01*
X116740381Y-121513661D01*
X116786500Y-121467542D01*
X116849500Y-121450661D01*
X116912500Y-121467542D01*
X116958619Y-121513661D01*
X116989958Y-121567942D01*
X116989960Y-121567944D01*
X117117747Y-121709866D01*
X117272248Y-121822118D01*
X117446712Y-121899794D01*
X117633513Y-121939500D01*
X117824485Y-121939500D01*
X117824487Y-121939500D01*
X118011288Y-121899794D01*
X118185752Y-121822118D01*
X118340253Y-121709866D01*
X118468040Y-121567944D01*
X118563527Y-121402556D01*
X118622542Y-121220928D01*
X118642504Y-121031000D01*
X118622542Y-120841072D01*
X118563527Y-120659444D01*
X118563527Y-120659443D01*
X118468041Y-120494057D01*
X118448521Y-120472378D01*
X118405863Y-120425002D01*
X118381869Y-120385847D01*
X118373500Y-120340692D01*
X118373500Y-119438662D01*
X118383091Y-119390444D01*
X118410405Y-119349567D01*
X118426814Y-119333157D01*
X118426814Y-119333156D01*
X118426816Y-119333155D01*
X118515827Y-119185913D01*
X118567013Y-119021649D01*
X118573500Y-118950265D01*
X118573499Y-118285736D01*
X118567013Y-118214351D01*
X118515827Y-118050087D01*
X118426816Y-117902845D01*
X118426815Y-117902844D01*
X118426814Y-117902842D01*
X118395646Y-117871674D01*
X118361936Y-117810775D01*
X118365705Y-117741270D01*
X118405800Y-117684374D01*
X118503135Y-117606135D01*
X118519793Y-117585410D01*
X118563549Y-117550723D01*
X118618000Y-117538350D01*
X118672451Y-117550723D01*
X118716207Y-117585411D01*
X118732865Y-117606136D01*
X118875761Y-117720998D01*
X118875762Y-117720998D01*
X118875764Y-117721000D01*
X119040015Y-117802461D01*
X119217938Y-117846708D01*
X119235583Y-117847904D01*
X119259106Y-117849500D01*
X119259110Y-117849500D01*
X120015029Y-117849500D01*
X120078578Y-117866700D01*
X120124777Y-117913602D01*
X120141015Y-117977404D01*
X120122857Y-118040683D01*
X120118920Y-118047196D01*
X120117172Y-118050088D01*
X120065986Y-118214351D01*
X120059500Y-118285735D01*
X120059500Y-118950264D01*
X120065986Y-119021647D01*
X120065987Y-119021649D01*
X120117173Y-119185913D01*
X120164042Y-119263444D01*
X120206185Y-119333157D01*
X120222595Y-119349567D01*
X120249909Y-119390444D01*
X120259500Y-119438662D01*
X120259500Y-123018782D01*
X120259270Y-123026390D01*
X120255597Y-123087093D01*
X120263337Y-123129329D01*
X120266086Y-123144332D01*
X120266559Y-123146910D01*
X120267704Y-123154432D01*
X120275035Y-123214801D01*
X120278649Y-123224332D01*
X120284770Y-123246289D01*
X120286610Y-123256329D01*
X120311572Y-123311794D01*
X120314483Y-123318822D01*
X120332123Y-123365332D01*
X120336046Y-123375675D01*
X120339186Y-123380224D01*
X120341839Y-123384068D01*
X120353036Y-123403922D01*
X120357223Y-123413224D01*
X120394725Y-123461092D01*
X120399235Y-123467220D01*
X120410008Y-123482827D01*
X120433785Y-123517273D01*
X120475494Y-123554224D01*
X120479316Y-123557610D01*
X120484857Y-123562827D01*
X121628042Y-124706012D01*
X121655053Y-124746164D01*
X121664937Y-124793536D01*
X121656237Y-124841140D01*
X121631001Y-124905439D01*
X121570685Y-125169699D01*
X121550429Y-125440000D01*
X121570685Y-125710300D01*
X121631001Y-125974560D01*
X121730029Y-126226880D01*
X121865557Y-126461621D01*
X122034554Y-126673538D01*
X122034557Y-126673540D01*
X122034558Y-126673542D01*
X122233257Y-126857907D01*
X122457215Y-127010599D01*
X122566951Y-127063445D01*
X122701427Y-127128206D01*
X122749554Y-127143051D01*
X122960442Y-127208101D01*
X123228472Y-127248500D01*
X123499526Y-127248500D01*
X123499528Y-127248500D01*
X123767558Y-127208101D01*
X124026572Y-127128206D01*
X124270786Y-127010599D01*
X124494743Y-126857907D01*
X124693442Y-126673542D01*
X124862443Y-126461621D01*
X124997971Y-126226879D01*
X125096999Y-125974559D01*
X125157315Y-125710299D01*
X125177571Y-125440000D01*
X125157315Y-125169701D01*
X125096999Y-124905441D01*
X124997971Y-124653121D01*
X124862443Y-124418379D01*
X124761164Y-124291379D01*
X124693445Y-124206461D01*
X124693442Y-124206458D01*
X124494743Y-124022093D01*
X124270786Y-123869401D01*
X124270785Y-123869400D01*
X124270783Y-123869399D01*
X124026572Y-123751793D01*
X123823358Y-123689111D01*
X123767558Y-123671899D01*
X123499528Y-123631500D01*
X123228472Y-123631500D01*
X122960442Y-123671899D01*
X122960438Y-123671900D01*
X122960439Y-123671900D01*
X122755891Y-123734994D01*
X122688422Y-123736887D01*
X122629657Y-123703687D01*
X121713405Y-122787435D01*
X121686091Y-122746558D01*
X121676500Y-122698340D01*
X121676500Y-121576661D01*
X121693381Y-121513661D01*
X121739500Y-121467542D01*
X121802500Y-121450661D01*
X121865500Y-121467542D01*
X121911619Y-121513661D01*
X121942958Y-121567942D01*
X121942960Y-121567944D01*
X122070747Y-121709866D01*
X122225248Y-121822118D01*
X122399712Y-121899794D01*
X122586513Y-121939500D01*
X122777485Y-121939500D01*
X122777487Y-121939500D01*
X122964288Y-121899794D01*
X123138752Y-121822118D01*
X123293253Y-121709866D01*
X123421040Y-121567944D01*
X123516527Y-121402556D01*
X123575542Y-121220928D01*
X123595504Y-121031000D01*
X123575542Y-120841072D01*
X123516527Y-120659444D01*
X123516527Y-120659443D01*
X123421041Y-120494057D01*
X123401521Y-120472378D01*
X123358863Y-120425002D01*
X123334869Y-120385847D01*
X123326500Y-120340692D01*
X123326500Y-119438662D01*
X123336091Y-119390444D01*
X123363405Y-119349567D01*
X123379814Y-119333157D01*
X123379814Y-119333156D01*
X123379816Y-119333155D01*
X123468827Y-119185913D01*
X123520013Y-119021649D01*
X123526500Y-118950265D01*
X123526499Y-118285736D01*
X123520013Y-118214351D01*
X123468827Y-118050087D01*
X123380035Y-117903207D01*
X123361868Y-117837059D01*
X123381045Y-117771197D01*
X123431881Y-117725143D01*
X123440236Y-117721000D01*
X123568119Y-117618205D01*
X123583134Y-117606136D01*
X123586596Y-117601829D01*
X123599793Y-117585410D01*
X123643549Y-117550723D01*
X123698000Y-117538350D01*
X123752451Y-117550723D01*
X123796207Y-117585411D01*
X123812865Y-117606136D01*
X123955761Y-117720998D01*
X123955762Y-117720998D01*
X123955764Y-117721000D01*
X124120015Y-117802461D01*
X124297938Y-117846708D01*
X124315583Y-117847904D01*
X124339106Y-117849500D01*
X124339110Y-117849500D01*
X125596890Y-117849500D01*
X125596894Y-117849500D01*
X125617475Y-117848104D01*
X125638062Y-117846708D01*
X125815985Y-117802461D01*
X125980236Y-117721000D01*
X126123135Y-117606135D01*
X126238000Y-117463236D01*
X126319461Y-117298985D01*
X126363708Y-117121062D01*
X126366500Y-117079890D01*
X126366500Y-116082110D01*
X126363708Y-116040938D01*
X126319461Y-115863015D01*
X126238000Y-115698764D01*
X126237998Y-115698761D01*
X126123135Y-115555864D01*
X126023560Y-115475824D01*
X125988872Y-115432068D01*
X125976500Y-115377618D01*
X125976500Y-113833500D01*
X125993381Y-113770500D01*
X126039500Y-113724381D01*
X126102500Y-113707500D01*
X131326500Y-113707500D01*
X131389500Y-113724381D01*
X131435619Y-113770500D01*
X131452500Y-113833500D01*
X131452500Y-115377618D01*
X131440128Y-115432068D01*
X131405440Y-115475824D01*
X131305864Y-115555864D01*
X131289206Y-115576589D01*
X131245450Y-115611277D01*
X131191000Y-115623649D01*
X131136550Y-115611277D01*
X131092794Y-115576589D01*
X131076135Y-115555864D01*
X130933238Y-115441001D01*
X130768984Y-115359538D01*
X130591058Y-115315291D01*
X130549894Y-115312500D01*
X130549890Y-115312500D01*
X129292110Y-115312500D01*
X129292106Y-115312500D01*
X129250941Y-115315291D01*
X129073015Y-115359538D01*
X128908761Y-115441001D01*
X128765864Y-115555864D01*
X128651001Y-115698761D01*
X128569538Y-115863015D01*
X128525291Y-116040941D01*
X128522500Y-116082106D01*
X128522500Y-117079894D01*
X128525291Y-117121058D01*
X128569539Y-117298986D01*
X128582697Y-117325517D01*
X128595676Y-117387468D01*
X128576893Y-117447913D01*
X128531090Y-117491598D01*
X128469824Y-117507500D01*
X128457738Y-117507500D01*
X128386351Y-117513986D01*
X128222087Y-117565173D01*
X128074842Y-117654185D01*
X127953185Y-117775842D01*
X127864173Y-117923087D01*
X127812986Y-118087351D01*
X127806500Y-118158735D01*
X127806500Y-118823264D01*
X127812986Y-118894647D01*
X127812987Y-118894649D01*
X127864173Y-119058913D01*
X127890000Y-119101636D01*
X127953185Y-119206157D01*
X127969595Y-119222567D01*
X127996909Y-119263444D01*
X128006500Y-119311662D01*
X128006500Y-122905782D01*
X128006270Y-122913390D01*
X128002597Y-122974093D01*
X128013559Y-123033910D01*
X128014704Y-123041432D01*
X128022035Y-123101801D01*
X128025649Y-123111332D01*
X128031770Y-123133289D01*
X128033610Y-123143329D01*
X128058572Y-123198794D01*
X128061483Y-123205822D01*
X128083045Y-123262673D01*
X128088839Y-123271068D01*
X128100036Y-123290922D01*
X128104223Y-123300224D01*
X128141725Y-123348092D01*
X128146235Y-123354220D01*
X128154244Y-123365822D01*
X128180785Y-123404273D01*
X128214588Y-123434220D01*
X128226316Y-123444610D01*
X128231857Y-123449827D01*
X129251595Y-124469565D01*
X129278909Y-124510442D01*
X129288500Y-124558660D01*
X129288500Y-126661638D01*
X129295011Y-126722201D01*
X129320561Y-126790702D01*
X129346111Y-126859205D01*
X129433738Y-126976261D01*
X129550794Y-127063888D01*
X129550795Y-127063888D01*
X129550796Y-127063889D01*
X129687799Y-127114989D01*
X129748362Y-127121500D01*
X132445638Y-127121500D01*
X132506201Y-127114989D01*
X132643204Y-127063889D01*
X132760261Y-126976261D01*
X132847889Y-126859204D01*
X132898989Y-126722201D01*
X132905500Y-126661638D01*
X132905500Y-123964362D01*
X132898989Y-123903799D01*
X132847889Y-123766796D01*
X132847888Y-123766794D01*
X132760261Y-123649738D01*
X132643205Y-123562111D01*
X132549409Y-123527127D01*
X132506201Y-123511011D01*
X132445638Y-123504500D01*
X130342660Y-123504500D01*
X130294442Y-123494909D01*
X130253565Y-123467595D01*
X129460405Y-122674435D01*
X129433091Y-122633558D01*
X129423500Y-122585340D01*
X129423500Y-121449661D01*
X129440381Y-121386661D01*
X129486500Y-121340542D01*
X129549500Y-121323661D01*
X129612500Y-121340542D01*
X129658619Y-121386661D01*
X129689958Y-121440942D01*
X129689960Y-121440944D01*
X129817747Y-121582866D01*
X129972248Y-121695118D01*
X130146712Y-121772794D01*
X130333513Y-121812500D01*
X130524485Y-121812500D01*
X130524487Y-121812500D01*
X130711288Y-121772794D01*
X130885752Y-121695118D01*
X131040253Y-121582866D01*
X131168040Y-121440944D01*
X131263527Y-121275556D01*
X131322542Y-121093928D01*
X131342504Y-120904000D01*
X131322542Y-120714072D01*
X131278822Y-120579517D01*
X131263527Y-120532443D01*
X131168041Y-120367057D01*
X131105864Y-120298003D01*
X131081869Y-120258847D01*
X131073500Y-120213692D01*
X131073500Y-119311662D01*
X131083091Y-119263444D01*
X131110405Y-119222567D01*
X131126814Y-119206157D01*
X131126816Y-119206155D01*
X131215827Y-119058913D01*
X131267013Y-118894649D01*
X131273500Y-118823265D01*
X131273499Y-118158736D01*
X131267013Y-118087351D01*
X131215827Y-117923087D01*
X131213030Y-117918461D01*
X131169654Y-117846708D01*
X131126816Y-117775845D01*
X131126814Y-117775843D01*
X131126682Y-117775624D01*
X131108523Y-117708602D01*
X131128628Y-117642138D01*
X131180890Y-117596418D01*
X131249436Y-117585326D01*
X131313450Y-117612233D01*
X131399388Y-117681311D01*
X131448764Y-117721000D01*
X131613015Y-117802461D01*
X131790938Y-117846708D01*
X131808583Y-117847904D01*
X131832106Y-117849500D01*
X131832110Y-117849500D01*
X132668865Y-117849500D01*
X132725728Y-117863061D01*
X132770352Y-117900824D01*
X132793130Y-117954662D01*
X132789160Y-118012985D01*
X132765986Y-118087351D01*
X132759500Y-118158735D01*
X132759500Y-118823264D01*
X132765986Y-118894647D01*
X132765987Y-118894649D01*
X132817173Y-119058913D01*
X132843000Y-119101636D01*
X132906185Y-119206157D01*
X132922595Y-119222567D01*
X132949909Y-119263444D01*
X132959500Y-119311662D01*
X132959500Y-122858782D01*
X132959270Y-122866390D01*
X132955597Y-122927093D01*
X132966559Y-122986910D01*
X132967704Y-122994432D01*
X132975035Y-123054801D01*
X132978649Y-123064332D01*
X132984770Y-123086289D01*
X132986610Y-123096329D01*
X133011572Y-123151794D01*
X133014483Y-123158822D01*
X133036045Y-123215673D01*
X133041839Y-123224068D01*
X133053036Y-123243922D01*
X133057223Y-123253224D01*
X133094725Y-123301092D01*
X133099235Y-123307220D01*
X133107244Y-123318822D01*
X133133785Y-123357273D01*
X133178999Y-123397329D01*
X133179316Y-123397610D01*
X133184857Y-123402827D01*
X134361042Y-124579012D01*
X134388053Y-124619164D01*
X134397937Y-124666536D01*
X134389237Y-124714140D01*
X134364001Y-124778439D01*
X134303685Y-125042699D01*
X134283429Y-125312999D01*
X134303685Y-125583300D01*
X134364001Y-125847560D01*
X134463029Y-126099880D01*
X134598557Y-126334621D01*
X134767554Y-126546538D01*
X134767557Y-126546540D01*
X134767558Y-126546542D01*
X134966257Y-126730907D01*
X135190215Y-126883599D01*
X135297301Y-126935169D01*
X135434427Y-127001206D01*
X135492192Y-127019023D01*
X135693442Y-127081101D01*
X135961472Y-127121500D01*
X136232526Y-127121500D01*
X136232528Y-127121500D01*
X136500558Y-127081101D01*
X136759572Y-127001206D01*
X137003786Y-126883599D01*
X137227743Y-126730907D01*
X137426442Y-126546542D01*
X137595443Y-126334621D01*
X137730971Y-126099879D01*
X137829999Y-125847559D01*
X137890315Y-125583299D01*
X137910571Y-125313000D01*
X137890315Y-125042701D01*
X137829999Y-124778441D01*
X137730971Y-124526121D01*
X137595443Y-124291379D01*
X137527721Y-124206458D01*
X137426445Y-124079461D01*
X137426442Y-124079458D01*
X137227743Y-123895093D01*
X137003786Y-123742401D01*
X137003785Y-123742400D01*
X137003783Y-123742399D01*
X136759572Y-123624793D01*
X136556358Y-123562111D01*
X136500558Y-123544899D01*
X136232528Y-123504500D01*
X135961472Y-123504500D01*
X135693442Y-123544899D01*
X135663744Y-123554059D01*
X135488891Y-123607994D01*
X135421422Y-123609887D01*
X135362657Y-123576687D01*
X134413405Y-122627435D01*
X134386091Y-122586558D01*
X134376500Y-122538340D01*
X134376500Y-121449661D01*
X134393381Y-121386661D01*
X134439500Y-121340542D01*
X134502500Y-121323661D01*
X134565500Y-121340542D01*
X134611619Y-121386661D01*
X134642958Y-121440942D01*
X134642960Y-121440944D01*
X134770747Y-121582866D01*
X134925248Y-121695118D01*
X135099712Y-121772794D01*
X135286513Y-121812500D01*
X135477485Y-121812500D01*
X135477487Y-121812500D01*
X135664288Y-121772794D01*
X135838752Y-121695118D01*
X135993253Y-121582866D01*
X136121040Y-121440944D01*
X136216527Y-121275556D01*
X136275542Y-121093928D01*
X136295504Y-120904000D01*
X136275542Y-120714072D01*
X136231822Y-120579517D01*
X136216527Y-120532443D01*
X136121041Y-120367057D01*
X136058864Y-120298003D01*
X136034869Y-120258847D01*
X136026500Y-120213692D01*
X136026500Y-119311662D01*
X136036091Y-119263444D01*
X136063405Y-119222567D01*
X136079814Y-119206157D01*
X136079816Y-119206155D01*
X136168827Y-119058913D01*
X136220013Y-118894649D01*
X136226500Y-118823265D01*
X136226499Y-118158736D01*
X136220013Y-118087351D01*
X136168827Y-117923087D01*
X136168826Y-117923085D01*
X136092756Y-117797250D01*
X136074847Y-117740196D01*
X136085258Y-117681311D01*
X136121644Y-117633859D01*
X136156135Y-117606135D01*
X136172793Y-117585410D01*
X136216549Y-117550723D01*
X136271000Y-117538350D01*
X136325451Y-117550723D01*
X136369207Y-117585411D01*
X136385865Y-117606136D01*
X136528761Y-117720998D01*
X136528762Y-117720998D01*
X136528764Y-117721000D01*
X136693015Y-117802461D01*
X136870938Y-117846708D01*
X136888583Y-117847904D01*
X136912106Y-117849500D01*
X136912110Y-117849500D01*
X137621865Y-117849500D01*
X137678728Y-117863061D01*
X137723352Y-117900824D01*
X137746130Y-117954662D01*
X137742160Y-118012985D01*
X137718986Y-118087351D01*
X137712500Y-118158735D01*
X137712500Y-118823264D01*
X137718986Y-118894647D01*
X137718987Y-118894649D01*
X137770173Y-119058913D01*
X137796000Y-119101636D01*
X137859185Y-119206157D01*
X137875595Y-119222567D01*
X137902909Y-119263444D01*
X137912500Y-119311662D01*
X137912500Y-122811782D01*
X137912270Y-122819390D01*
X137908597Y-122880093D01*
X137919559Y-122939910D01*
X137920704Y-122947432D01*
X137928035Y-123007801D01*
X137931649Y-123017332D01*
X137937770Y-123039289D01*
X137939610Y-123049329D01*
X137964572Y-123104794D01*
X137967483Y-123111822D01*
X137989045Y-123168673D01*
X137994839Y-123177068D01*
X138006036Y-123196922D01*
X138010223Y-123206224D01*
X138047725Y-123254092D01*
X138052235Y-123260220D01*
X138063764Y-123276922D01*
X138086785Y-123310273D01*
X138120588Y-123340220D01*
X138132316Y-123350610D01*
X138137857Y-123355827D01*
X139361042Y-124579012D01*
X139388053Y-124619164D01*
X139397937Y-124666536D01*
X139389237Y-124714140D01*
X139364001Y-124778439D01*
X139303685Y-125042699D01*
X139283429Y-125312999D01*
X139303685Y-125583300D01*
X139364001Y-125847560D01*
X139463029Y-126099880D01*
X139598557Y-126334621D01*
X139767554Y-126546538D01*
X139767557Y-126546540D01*
X139767558Y-126546542D01*
X139966257Y-126730907D01*
X140190215Y-126883599D01*
X140297301Y-126935169D01*
X140434427Y-127001206D01*
X140492192Y-127019023D01*
X140693442Y-127081101D01*
X140961472Y-127121500D01*
X141232526Y-127121500D01*
X141232528Y-127121500D01*
X141500558Y-127081101D01*
X141759572Y-127001206D01*
X142003786Y-126883599D01*
X142227743Y-126730907D01*
X142426442Y-126546542D01*
X142595443Y-126334621D01*
X142730971Y-126099879D01*
X142829999Y-125847559D01*
X142890315Y-125583299D01*
X142910571Y-125313000D01*
X142890315Y-125042701D01*
X142829999Y-124778441D01*
X142730971Y-124526121D01*
X142595443Y-124291379D01*
X142527721Y-124206458D01*
X142426445Y-124079461D01*
X142426442Y-124079458D01*
X142227743Y-123895093D01*
X142003786Y-123742401D01*
X142003785Y-123742400D01*
X142003783Y-123742399D01*
X141759572Y-123624793D01*
X141556358Y-123562111D01*
X141500558Y-123544899D01*
X141232528Y-123504500D01*
X140961472Y-123504500D01*
X140693442Y-123544899D01*
X140663744Y-123554059D01*
X140488891Y-123607994D01*
X140421422Y-123609887D01*
X140362657Y-123576687D01*
X139366405Y-122580435D01*
X139339091Y-122539558D01*
X139329500Y-122491340D01*
X139329500Y-121449661D01*
X139346381Y-121386661D01*
X139392500Y-121340542D01*
X139455500Y-121323661D01*
X139518500Y-121340542D01*
X139564619Y-121386661D01*
X139595958Y-121440942D01*
X139595960Y-121440944D01*
X139723747Y-121582866D01*
X139878248Y-121695118D01*
X140052712Y-121772794D01*
X140239513Y-121812500D01*
X140430485Y-121812500D01*
X140430487Y-121812500D01*
X140617288Y-121772794D01*
X140791752Y-121695118D01*
X140946253Y-121582866D01*
X141074040Y-121440944D01*
X141169527Y-121275556D01*
X141228542Y-121093928D01*
X141248504Y-120904000D01*
X141228542Y-120714072D01*
X141184822Y-120579517D01*
X141169527Y-120532443D01*
X141074041Y-120367057D01*
X141011864Y-120298003D01*
X140987869Y-120258847D01*
X140979500Y-120213692D01*
X140979500Y-119311662D01*
X140989091Y-119263444D01*
X141016405Y-119222567D01*
X141032814Y-119206157D01*
X141032816Y-119206155D01*
X141121827Y-119058913D01*
X141173013Y-118894649D01*
X141179500Y-118823265D01*
X141179499Y-118158736D01*
X141173013Y-118087351D01*
X141121827Y-117923087D01*
X141119030Y-117918461D01*
X141087287Y-117865951D01*
X141069378Y-117808897D01*
X141079789Y-117750013D01*
X141116173Y-117702562D01*
X141236135Y-117606135D01*
X141252793Y-117585410D01*
X141296549Y-117550723D01*
X141351000Y-117538350D01*
X141405451Y-117550723D01*
X141449207Y-117585411D01*
X141465865Y-117606136D01*
X141608761Y-117720998D01*
X141608762Y-117720998D01*
X141608764Y-117721000D01*
X141773015Y-117802461D01*
X141950938Y-117846708D01*
X141968583Y-117847904D01*
X141992106Y-117849500D01*
X141992110Y-117849500D01*
X142701865Y-117849500D01*
X142758728Y-117863061D01*
X142803352Y-117900824D01*
X142826130Y-117954662D01*
X142822160Y-118012985D01*
X142798986Y-118087351D01*
X142792500Y-118158735D01*
X142792500Y-118823264D01*
X142798986Y-118894647D01*
X142798987Y-118894649D01*
X142850173Y-119058913D01*
X142876000Y-119101636D01*
X142939185Y-119206157D01*
X142955595Y-119222567D01*
X142982909Y-119263444D01*
X142992500Y-119311662D01*
X142992500Y-122891782D01*
X142992270Y-122899390D01*
X142988597Y-122960093D01*
X142994199Y-122990660D01*
X142999086Y-123017332D01*
X142999559Y-123019910D01*
X143000704Y-123027432D01*
X143008035Y-123087801D01*
X143011649Y-123097332D01*
X143017770Y-123119289D01*
X143019610Y-123129329D01*
X143044572Y-123184794D01*
X143047483Y-123191822D01*
X143069045Y-123248673D01*
X143074839Y-123257068D01*
X143086036Y-123276922D01*
X143090223Y-123286224D01*
X143127725Y-123334092D01*
X143132235Y-123340220D01*
X143141899Y-123354220D01*
X143166785Y-123390273D01*
X143203357Y-123422673D01*
X143212316Y-123430610D01*
X143217857Y-123435827D01*
X144361042Y-124579012D01*
X144388053Y-124619164D01*
X144397937Y-124666536D01*
X144389237Y-124714140D01*
X144364001Y-124778439D01*
X144303685Y-125042699D01*
X144283429Y-125312999D01*
X144303685Y-125583300D01*
X144364001Y-125847560D01*
X144463029Y-126099880D01*
X144598557Y-126334621D01*
X144767554Y-126546538D01*
X144767557Y-126546540D01*
X144767558Y-126546542D01*
X144966257Y-126730907D01*
X145190215Y-126883599D01*
X145297301Y-126935169D01*
X145434427Y-127001206D01*
X145492192Y-127019023D01*
X145693442Y-127081101D01*
X145961472Y-127121500D01*
X146232526Y-127121500D01*
X146232528Y-127121500D01*
X146500558Y-127081101D01*
X146759572Y-127001206D01*
X147003786Y-126883599D01*
X147227743Y-126730907D01*
X147426442Y-126546542D01*
X147595443Y-126334621D01*
X147730971Y-126099879D01*
X147829999Y-125847559D01*
X147890315Y-125583299D01*
X147910571Y-125313000D01*
X147890315Y-125042701D01*
X147829999Y-124778441D01*
X147730971Y-124526121D01*
X147595443Y-124291379D01*
X147527721Y-124206458D01*
X147426445Y-124079461D01*
X147426442Y-124079458D01*
X147227743Y-123895093D01*
X147003786Y-123742401D01*
X147003785Y-123742400D01*
X147003783Y-123742399D01*
X146759572Y-123624793D01*
X146556358Y-123562111D01*
X146500558Y-123544899D01*
X146232528Y-123504500D01*
X145961472Y-123504500D01*
X145693442Y-123544899D01*
X145663744Y-123554059D01*
X145488891Y-123607994D01*
X145421422Y-123609887D01*
X145362657Y-123576687D01*
X144446405Y-122660435D01*
X144419091Y-122619558D01*
X144409500Y-122571340D01*
X144409500Y-121449661D01*
X144426381Y-121386661D01*
X144472500Y-121340542D01*
X144535500Y-121323661D01*
X144598500Y-121340542D01*
X144644619Y-121386661D01*
X144675958Y-121440942D01*
X144675960Y-121440944D01*
X144803747Y-121582866D01*
X144958248Y-121695118D01*
X145132712Y-121772794D01*
X145319513Y-121812500D01*
X145510485Y-121812500D01*
X145510487Y-121812500D01*
X145697288Y-121772794D01*
X145871752Y-121695118D01*
X146026253Y-121582866D01*
X146154040Y-121440944D01*
X146249527Y-121275556D01*
X146308542Y-121093928D01*
X146328504Y-120904000D01*
X146308542Y-120714072D01*
X146264822Y-120579517D01*
X146249527Y-120532443D01*
X146154041Y-120367057D01*
X146091864Y-120298003D01*
X146067869Y-120258847D01*
X146059500Y-120213692D01*
X146059500Y-119311662D01*
X146069091Y-119263444D01*
X146096405Y-119222567D01*
X146112814Y-119206157D01*
X146112816Y-119206155D01*
X146201827Y-119058913D01*
X146253013Y-118894649D01*
X146259500Y-118823265D01*
X146259499Y-118158736D01*
X146253013Y-118087351D01*
X146201827Y-117923087D01*
X146199030Y-117918461D01*
X146167287Y-117865951D01*
X146149378Y-117808897D01*
X146159789Y-117750013D01*
X146196173Y-117702562D01*
X146316135Y-117606135D01*
X146332793Y-117585410D01*
X146376549Y-117550723D01*
X146431000Y-117538350D01*
X146485451Y-117550723D01*
X146529207Y-117585411D01*
X146545865Y-117606136D01*
X146688761Y-117720998D01*
X146688762Y-117720998D01*
X146688764Y-117721000D01*
X146853015Y-117802461D01*
X147030938Y-117846708D01*
X147048583Y-117847904D01*
X147072106Y-117849500D01*
X147072110Y-117849500D01*
X148329890Y-117849500D01*
X148329894Y-117849500D01*
X148350475Y-117848104D01*
X148371062Y-117846708D01*
X148548985Y-117802461D01*
X148713236Y-117721000D01*
X148856135Y-117606135D01*
X148971000Y-117463236D01*
X149052461Y-117298985D01*
X149096708Y-117121062D01*
X149099500Y-117079890D01*
X149099500Y-116082110D01*
X149096708Y-116040938D01*
X149052461Y-115863015D01*
X148971000Y-115698764D01*
X148970998Y-115698761D01*
X148856135Y-115555864D01*
X148756560Y-115475824D01*
X148721872Y-115432068D01*
X148709500Y-115377618D01*
X148709500Y-113833500D01*
X148726381Y-113770500D01*
X148772500Y-113724381D01*
X148835500Y-113707500D01*
X153932500Y-113707500D01*
X153995500Y-113724381D01*
X154041619Y-113770500D01*
X154058500Y-113833500D01*
X154058500Y-115493618D01*
X154046128Y-115548068D01*
X154011440Y-115591824D01*
X153911864Y-115671864D01*
X153895206Y-115692589D01*
X153851450Y-115727277D01*
X153797000Y-115739649D01*
X153742550Y-115727277D01*
X153698794Y-115692589D01*
X153682135Y-115671864D01*
X153539238Y-115557001D01*
X153374984Y-115475538D01*
X153197058Y-115431291D01*
X153155894Y-115428500D01*
X153155890Y-115428500D01*
X151898110Y-115428500D01*
X151898106Y-115428500D01*
X151856941Y-115431291D01*
X151679015Y-115475538D01*
X151514761Y-115557001D01*
X151371864Y-115671864D01*
X151257001Y-115814761D01*
X151175538Y-115979015D01*
X151131291Y-116156941D01*
X151128500Y-116198106D01*
X151128500Y-117195894D01*
X151131291Y-117237058D01*
X151175539Y-117414988D01*
X151194152Y-117452516D01*
X151207132Y-117514467D01*
X151188349Y-117574913D01*
X151142545Y-117618599D01*
X151081278Y-117634500D01*
X151063737Y-117634500D01*
X150992351Y-117640986D01*
X150828087Y-117692173D01*
X150680842Y-117781185D01*
X150559185Y-117902842D01*
X150470173Y-118050087D01*
X150418986Y-118214351D01*
X150412500Y-118285735D01*
X150412500Y-118950264D01*
X150418986Y-119021647D01*
X150418987Y-119021649D01*
X150470173Y-119185913D01*
X150517042Y-119263444D01*
X150559185Y-119333157D01*
X150575595Y-119349567D01*
X150602909Y-119390444D01*
X150612500Y-119438662D01*
X150612500Y-122905782D01*
X150612270Y-122913390D01*
X150608597Y-122974093D01*
X150619559Y-123033910D01*
X150620704Y-123041432D01*
X150628035Y-123101801D01*
X150631649Y-123111332D01*
X150637770Y-123133289D01*
X150639610Y-123143329D01*
X150664572Y-123198794D01*
X150667483Y-123205822D01*
X150689045Y-123262673D01*
X150694839Y-123271068D01*
X150706036Y-123290922D01*
X150710223Y-123300224D01*
X150747725Y-123348092D01*
X150752235Y-123354220D01*
X150760244Y-123365822D01*
X150786785Y-123404273D01*
X150820588Y-123434220D01*
X150832316Y-123444610D01*
X150837857Y-123449827D01*
X151857595Y-124469565D01*
X151884909Y-124510442D01*
X151894500Y-124558660D01*
X151894500Y-126661638D01*
X151901011Y-126722201D01*
X151926561Y-126790702D01*
X151952111Y-126859205D01*
X152039738Y-126976261D01*
X152156794Y-127063888D01*
X152156795Y-127063888D01*
X152156796Y-127063889D01*
X152293799Y-127114989D01*
X152354362Y-127121500D01*
X155051638Y-127121500D01*
X155112201Y-127114989D01*
X155249204Y-127063889D01*
X155366261Y-126976261D01*
X155453889Y-126859204D01*
X155504989Y-126722201D01*
X155511500Y-126661638D01*
X155511500Y-123964362D01*
X155504989Y-123903799D01*
X155453889Y-123766796D01*
X155453888Y-123766794D01*
X155366261Y-123649738D01*
X155249205Y-123562111D01*
X155155409Y-123527127D01*
X155112201Y-123511011D01*
X155051638Y-123504500D01*
X152948660Y-123504500D01*
X152900442Y-123494909D01*
X152859565Y-123467595D01*
X152066405Y-122674435D01*
X152039091Y-122633558D01*
X152029500Y-122585340D01*
X152029500Y-121576661D01*
X152046381Y-121513661D01*
X152092500Y-121467542D01*
X152155500Y-121450661D01*
X152218500Y-121467542D01*
X152264619Y-121513661D01*
X152295958Y-121567942D01*
X152295960Y-121567944D01*
X152423747Y-121709866D01*
X152578248Y-121822118D01*
X152752712Y-121899794D01*
X152939513Y-121939500D01*
X153130485Y-121939500D01*
X153130487Y-121939500D01*
X153317288Y-121899794D01*
X153491752Y-121822118D01*
X153646253Y-121709866D01*
X153774040Y-121567944D01*
X153869527Y-121402556D01*
X153928542Y-121220928D01*
X153948504Y-121031000D01*
X153928542Y-120841072D01*
X153869527Y-120659444D01*
X153869527Y-120659443D01*
X153774041Y-120494057D01*
X153754521Y-120472378D01*
X153711863Y-120425002D01*
X153687869Y-120385847D01*
X153679500Y-120340692D01*
X153679500Y-119438662D01*
X153689091Y-119390444D01*
X153716405Y-119349567D01*
X153732814Y-119333157D01*
X153732814Y-119333156D01*
X153732816Y-119333155D01*
X153821827Y-119185913D01*
X153873013Y-119021649D01*
X153879500Y-118950265D01*
X153879499Y-118285736D01*
X153873013Y-118214351D01*
X153821827Y-118050087D01*
X153732816Y-117902845D01*
X153732815Y-117902844D01*
X153732814Y-117902842D01*
X153704122Y-117874150D01*
X153672765Y-117822034D01*
X153669477Y-117761300D01*
X153695018Y-117706106D01*
X153698805Y-117701395D01*
X153742562Y-117666717D01*
X153797009Y-117654350D01*
X153851455Y-117666725D01*
X153895206Y-117701410D01*
X153898977Y-117706102D01*
X153911865Y-117722136D01*
X154054761Y-117836998D01*
X154054762Y-117836998D01*
X154054764Y-117837000D01*
X154219015Y-117918461D01*
X154396938Y-117962708D01*
X154414583Y-117963904D01*
X154438106Y-117965500D01*
X154438110Y-117965500D01*
X155405293Y-117965500D01*
X155462156Y-117979061D01*
X155506780Y-118016824D01*
X155529558Y-118070662D01*
X155525588Y-118128985D01*
X155498986Y-118214351D01*
X155492500Y-118285735D01*
X155492500Y-118950264D01*
X155498986Y-119021647D01*
X155498987Y-119021649D01*
X155550173Y-119185913D01*
X155597042Y-119263444D01*
X155639185Y-119333157D01*
X155655595Y-119349567D01*
X155682909Y-119390444D01*
X155692500Y-119438662D01*
X155692500Y-122985782D01*
X155692270Y-122993390D01*
X155688597Y-123054093D01*
X155696337Y-123096329D01*
X155699086Y-123111332D01*
X155699559Y-123113910D01*
X155700704Y-123121432D01*
X155708035Y-123181801D01*
X155711649Y-123191332D01*
X155717770Y-123213289D01*
X155719610Y-123223329D01*
X155744572Y-123278794D01*
X155747483Y-123285822D01*
X155769045Y-123342673D01*
X155774839Y-123351068D01*
X155786036Y-123370922D01*
X155790223Y-123380224D01*
X155827725Y-123428092D01*
X155832235Y-123434220D01*
X155843008Y-123449827D01*
X155866785Y-123484273D01*
X155904033Y-123517272D01*
X155912316Y-123524610D01*
X155917857Y-123529827D01*
X156967042Y-124579012D01*
X156994053Y-124619164D01*
X157003937Y-124666536D01*
X156995237Y-124714140D01*
X156970001Y-124778439D01*
X156909685Y-125042699D01*
X156889429Y-125312999D01*
X156909685Y-125583300D01*
X156970001Y-125847560D01*
X157069029Y-126099880D01*
X157204557Y-126334621D01*
X157373554Y-126546538D01*
X157373557Y-126546540D01*
X157373558Y-126546542D01*
X157572257Y-126730907D01*
X157796215Y-126883599D01*
X157903301Y-126935169D01*
X158040427Y-127001206D01*
X158098192Y-127019023D01*
X158299442Y-127081101D01*
X158567472Y-127121500D01*
X158838526Y-127121500D01*
X158838528Y-127121500D01*
X159106558Y-127081101D01*
X159365572Y-127001206D01*
X159609786Y-126883599D01*
X159833743Y-126730907D01*
X160032442Y-126546542D01*
X160201443Y-126334621D01*
X160336971Y-126099879D01*
X160435999Y-125847559D01*
X160496315Y-125583299D01*
X160516571Y-125313000D01*
X160496315Y-125042701D01*
X160435999Y-124778441D01*
X160336971Y-124526121D01*
X160201443Y-124291379D01*
X160133721Y-124206458D01*
X160032445Y-124079461D01*
X160032442Y-124079458D01*
X159833743Y-123895093D01*
X159609786Y-123742401D01*
X159609785Y-123742400D01*
X159609783Y-123742399D01*
X159365572Y-123624793D01*
X159162358Y-123562111D01*
X159106558Y-123544899D01*
X158838528Y-123504500D01*
X158567472Y-123504500D01*
X158299442Y-123544899D01*
X158269744Y-123554059D01*
X158094891Y-123607994D01*
X158027422Y-123609887D01*
X157968657Y-123576687D01*
X157146405Y-122754435D01*
X157119091Y-122713558D01*
X157109500Y-122665340D01*
X157109500Y-121576661D01*
X157126381Y-121513661D01*
X157172500Y-121467542D01*
X157235500Y-121450661D01*
X157298500Y-121467542D01*
X157344619Y-121513661D01*
X157375958Y-121567942D01*
X157375960Y-121567944D01*
X157503747Y-121709866D01*
X157658248Y-121822118D01*
X157832712Y-121899794D01*
X158019513Y-121939500D01*
X158210485Y-121939500D01*
X158210487Y-121939500D01*
X158397288Y-121899794D01*
X158571752Y-121822118D01*
X158726253Y-121709866D01*
X158854040Y-121567944D01*
X158949527Y-121402556D01*
X159008542Y-121220928D01*
X159028504Y-121031000D01*
X159008542Y-120841072D01*
X158949527Y-120659444D01*
X158949527Y-120659443D01*
X158854041Y-120494057D01*
X158834521Y-120472378D01*
X158791863Y-120425002D01*
X158767869Y-120385847D01*
X158759500Y-120340692D01*
X158759500Y-119438662D01*
X158769091Y-119390444D01*
X158796405Y-119349567D01*
X158812814Y-119333157D01*
X158812814Y-119333156D01*
X158812816Y-119333155D01*
X158901827Y-119185913D01*
X158953013Y-119021649D01*
X158959500Y-118950265D01*
X158959499Y-118285736D01*
X158953013Y-118214351D01*
X158901827Y-118050087D01*
X158812816Y-117902845D01*
X158812815Y-117902844D01*
X158812814Y-117902842D01*
X158784122Y-117874150D01*
X158752765Y-117822034D01*
X158749477Y-117761300D01*
X158775018Y-117706106D01*
X158778805Y-117701395D01*
X158822562Y-117666717D01*
X158877009Y-117654350D01*
X158931455Y-117666725D01*
X158975206Y-117701410D01*
X158978977Y-117706102D01*
X158991865Y-117722136D01*
X159134761Y-117836998D01*
X159134762Y-117836998D01*
X159134764Y-117837000D01*
X159299015Y-117918461D01*
X159476938Y-117962708D01*
X159494583Y-117963904D01*
X159518106Y-117965500D01*
X159518110Y-117965500D01*
X160358293Y-117965500D01*
X160415156Y-117979061D01*
X160459780Y-118016824D01*
X160482558Y-118070662D01*
X160478588Y-118128985D01*
X160451986Y-118214351D01*
X160445500Y-118285735D01*
X160445500Y-118950264D01*
X160451986Y-119021647D01*
X160451987Y-119021649D01*
X160503173Y-119185913D01*
X160550042Y-119263444D01*
X160592185Y-119333157D01*
X160608595Y-119349567D01*
X160635909Y-119390444D01*
X160645500Y-119438662D01*
X160645500Y-122938782D01*
X160645270Y-122946390D01*
X160641597Y-123007093D01*
X160647890Y-123041432D01*
X160652086Y-123064332D01*
X160652559Y-123066910D01*
X160653704Y-123074432D01*
X160661035Y-123134801D01*
X160664649Y-123144332D01*
X160670770Y-123166289D01*
X160672610Y-123176329D01*
X160697572Y-123231794D01*
X160700483Y-123238822D01*
X160722045Y-123295673D01*
X160727839Y-123304068D01*
X160739036Y-123323922D01*
X160743223Y-123333224D01*
X160780725Y-123381092D01*
X160785235Y-123387220D01*
X160796008Y-123402827D01*
X160819785Y-123437273D01*
X160856357Y-123469673D01*
X160865316Y-123477610D01*
X160870857Y-123482827D01*
X161967042Y-124579012D01*
X161994053Y-124619164D01*
X162003937Y-124666536D01*
X161995237Y-124714140D01*
X161970001Y-124778439D01*
X161909685Y-125042699D01*
X161889429Y-125312999D01*
X161909685Y-125583300D01*
X161970001Y-125847560D01*
X162069029Y-126099880D01*
X162204557Y-126334621D01*
X162373554Y-126546538D01*
X162373557Y-126546540D01*
X162373558Y-126546542D01*
X162572257Y-126730907D01*
X162796215Y-126883599D01*
X162903301Y-126935169D01*
X163040427Y-127001206D01*
X163098192Y-127019023D01*
X163299442Y-127081101D01*
X163567472Y-127121500D01*
X163838526Y-127121500D01*
X163838528Y-127121500D01*
X164106558Y-127081101D01*
X164365572Y-127001206D01*
X164609786Y-126883599D01*
X164833743Y-126730907D01*
X165032442Y-126546542D01*
X165201443Y-126334621D01*
X165336971Y-126099879D01*
X165435999Y-125847559D01*
X165496315Y-125583299D01*
X165516571Y-125313000D01*
X165496315Y-125042701D01*
X165435999Y-124778441D01*
X165336971Y-124526121D01*
X165201443Y-124291379D01*
X165133721Y-124206458D01*
X165032445Y-124079461D01*
X165032442Y-124079458D01*
X164833743Y-123895093D01*
X164609786Y-123742401D01*
X164609785Y-123742400D01*
X164609783Y-123742399D01*
X164365572Y-123624793D01*
X164162358Y-123562111D01*
X164106558Y-123544899D01*
X163838528Y-123504500D01*
X163567472Y-123504500D01*
X163299442Y-123544899D01*
X163269744Y-123554059D01*
X163094891Y-123607994D01*
X163027422Y-123609887D01*
X162968657Y-123576687D01*
X162099405Y-122707435D01*
X162072091Y-122666558D01*
X162062500Y-122618340D01*
X162062500Y-121576661D01*
X162079381Y-121513661D01*
X162125500Y-121467542D01*
X162188500Y-121450661D01*
X162251500Y-121467542D01*
X162297619Y-121513661D01*
X162328958Y-121567942D01*
X162328960Y-121567944D01*
X162456747Y-121709866D01*
X162611248Y-121822118D01*
X162785712Y-121899794D01*
X162972513Y-121939500D01*
X163163485Y-121939500D01*
X163163487Y-121939500D01*
X163350288Y-121899794D01*
X163524752Y-121822118D01*
X163679253Y-121709866D01*
X163807040Y-121567944D01*
X163902527Y-121402556D01*
X163961542Y-121220928D01*
X163981504Y-121031000D01*
X163961542Y-120841072D01*
X163902527Y-120659444D01*
X163902527Y-120659443D01*
X163807041Y-120494057D01*
X163787521Y-120472378D01*
X163744863Y-120425002D01*
X163720869Y-120385847D01*
X163712500Y-120340692D01*
X163712500Y-119438662D01*
X163722091Y-119390444D01*
X163749405Y-119349567D01*
X163765814Y-119333157D01*
X163765814Y-119333156D01*
X163765816Y-119333155D01*
X163854827Y-119185913D01*
X163906013Y-119021649D01*
X163912500Y-118950265D01*
X163912499Y-118285736D01*
X163906013Y-118214351D01*
X163854827Y-118050087D01*
X163774280Y-117916846D01*
X163756372Y-117859793D01*
X163766783Y-117800908D01*
X163803168Y-117753456D01*
X163842135Y-117722135D01*
X163858793Y-117701410D01*
X163902549Y-117666723D01*
X163957000Y-117654350D01*
X164011451Y-117666723D01*
X164055206Y-117701410D01*
X164058977Y-117706102D01*
X164071865Y-117722136D01*
X164214761Y-117836998D01*
X164214762Y-117836998D01*
X164214764Y-117837000D01*
X164379015Y-117918461D01*
X164556938Y-117962708D01*
X164574583Y-117963904D01*
X164598106Y-117965500D01*
X164598110Y-117965500D01*
X165438293Y-117965500D01*
X165495156Y-117979061D01*
X165539780Y-118016824D01*
X165562558Y-118070662D01*
X165558588Y-118128985D01*
X165531986Y-118214351D01*
X165525500Y-118285735D01*
X165525500Y-118950264D01*
X165531986Y-119021647D01*
X165531987Y-119021649D01*
X165583173Y-119185913D01*
X165630042Y-119263444D01*
X165672185Y-119333157D01*
X165688595Y-119349567D01*
X165715909Y-119390444D01*
X165725500Y-119438662D01*
X165725500Y-123018782D01*
X165725270Y-123026390D01*
X165721597Y-123087093D01*
X165729337Y-123129329D01*
X165732086Y-123144332D01*
X165732559Y-123146910D01*
X165733704Y-123154432D01*
X165741035Y-123214801D01*
X165744649Y-123224332D01*
X165750770Y-123246289D01*
X165752610Y-123256329D01*
X165777572Y-123311794D01*
X165780483Y-123318822D01*
X165798123Y-123365332D01*
X165802046Y-123375675D01*
X165805186Y-123380224D01*
X165807839Y-123384068D01*
X165819036Y-123403922D01*
X165823223Y-123413224D01*
X165860725Y-123461092D01*
X165865235Y-123467220D01*
X165876008Y-123482827D01*
X165899785Y-123517273D01*
X165941494Y-123554224D01*
X165945316Y-123557610D01*
X165950857Y-123562827D01*
X166967042Y-124579012D01*
X166994053Y-124619164D01*
X167003937Y-124666536D01*
X166995237Y-124714140D01*
X166970001Y-124778439D01*
X166909685Y-125042699D01*
X166889429Y-125312999D01*
X166909685Y-125583300D01*
X166970001Y-125847560D01*
X167069029Y-126099880D01*
X167204557Y-126334621D01*
X167373554Y-126546538D01*
X167373557Y-126546540D01*
X167373558Y-126546542D01*
X167572257Y-126730907D01*
X167796215Y-126883599D01*
X167903301Y-126935169D01*
X168040427Y-127001206D01*
X168098192Y-127019023D01*
X168299442Y-127081101D01*
X168567472Y-127121500D01*
X168838526Y-127121500D01*
X168838528Y-127121500D01*
X169106558Y-127081101D01*
X169365572Y-127001206D01*
X169609786Y-126883599D01*
X169833743Y-126730907D01*
X170032442Y-126546542D01*
X170201443Y-126334621D01*
X170336971Y-126099879D01*
X170435999Y-125847559D01*
X170496315Y-125583299D01*
X170516571Y-125313000D01*
X170496315Y-125042701D01*
X170435999Y-124778441D01*
X170336971Y-124526121D01*
X170201443Y-124291379D01*
X170133721Y-124206458D01*
X170032445Y-124079461D01*
X170032442Y-124079458D01*
X169833743Y-123895093D01*
X169609786Y-123742401D01*
X169609785Y-123742400D01*
X169609783Y-123742399D01*
X169365572Y-123624793D01*
X169162358Y-123562111D01*
X169106558Y-123544899D01*
X168838528Y-123504500D01*
X168567472Y-123504500D01*
X168299442Y-123544899D01*
X168269744Y-123554059D01*
X168094891Y-123607994D01*
X168027422Y-123609887D01*
X167968657Y-123576687D01*
X167179405Y-122787435D01*
X167152091Y-122746558D01*
X167142500Y-122698340D01*
X167142500Y-121576661D01*
X167159381Y-121513661D01*
X167205500Y-121467542D01*
X167268500Y-121450661D01*
X167331500Y-121467542D01*
X167377619Y-121513661D01*
X167408958Y-121567942D01*
X167408960Y-121567944D01*
X167536747Y-121709866D01*
X167691248Y-121822118D01*
X167865712Y-121899794D01*
X168052513Y-121939500D01*
X168243485Y-121939500D01*
X168243487Y-121939500D01*
X168430288Y-121899794D01*
X168604752Y-121822118D01*
X168759253Y-121709866D01*
X168887040Y-121567944D01*
X168982527Y-121402556D01*
X169041542Y-121220928D01*
X169061504Y-121031000D01*
X169041542Y-120841072D01*
X168982527Y-120659444D01*
X168982527Y-120659443D01*
X168887041Y-120494057D01*
X168867521Y-120472378D01*
X168824863Y-120425002D01*
X168800869Y-120385847D01*
X168792500Y-120340692D01*
X168792500Y-119438662D01*
X168802091Y-119390444D01*
X168829405Y-119349567D01*
X168845814Y-119333157D01*
X168845814Y-119333156D01*
X168845816Y-119333155D01*
X168934827Y-119185913D01*
X168986013Y-119021649D01*
X168992500Y-118950265D01*
X168992499Y-118285736D01*
X168986013Y-118214351D01*
X168934827Y-118050087D01*
X168854280Y-117916846D01*
X168836372Y-117859793D01*
X168846783Y-117800908D01*
X168883168Y-117753456D01*
X168922135Y-117722135D01*
X168938793Y-117701410D01*
X168982549Y-117666723D01*
X169037000Y-117654350D01*
X169091451Y-117666723D01*
X169135206Y-117701410D01*
X169138977Y-117706102D01*
X169151865Y-117722136D01*
X169294761Y-117836998D01*
X169294762Y-117836998D01*
X169294764Y-117837000D01*
X169459015Y-117918461D01*
X169636938Y-117962708D01*
X169654583Y-117963904D01*
X169678106Y-117965500D01*
X169678110Y-117965500D01*
X170935890Y-117965500D01*
X170935894Y-117965500D01*
X170956475Y-117964104D01*
X170977062Y-117962708D01*
X171154985Y-117918461D01*
X171319236Y-117837000D01*
X171462135Y-117722135D01*
X171577000Y-117579236D01*
X171658461Y-117414985D01*
X171702708Y-117237062D01*
X171705500Y-117195890D01*
X171705500Y-116198110D01*
X171702708Y-116156938D01*
X171658461Y-115979015D01*
X171577000Y-115814764D01*
X171576998Y-115814761D01*
X171462135Y-115671864D01*
X171362560Y-115591824D01*
X171327872Y-115548068D01*
X171315500Y-115493618D01*
X171315500Y-113833500D01*
X171332381Y-113770500D01*
X171378500Y-113724381D01*
X171441500Y-113707500D01*
X176538500Y-113707500D01*
X176601500Y-113724381D01*
X176647619Y-113770500D01*
X176664500Y-113833500D01*
X176664500Y-115493618D01*
X176652128Y-115548068D01*
X176617440Y-115591824D01*
X176517864Y-115671864D01*
X176501206Y-115692589D01*
X176457450Y-115727277D01*
X176403000Y-115739649D01*
X176348550Y-115727277D01*
X176304794Y-115692589D01*
X176288135Y-115671864D01*
X176145238Y-115557001D01*
X175980984Y-115475538D01*
X175803058Y-115431291D01*
X175761894Y-115428500D01*
X175761890Y-115428500D01*
X174504110Y-115428500D01*
X174504106Y-115428500D01*
X174462941Y-115431291D01*
X174285015Y-115475538D01*
X174120761Y-115557001D01*
X173977864Y-115671864D01*
X173863001Y-115814761D01*
X173781538Y-115979015D01*
X173737291Y-116156941D01*
X173734500Y-116198106D01*
X173734500Y-117195894D01*
X173737291Y-117237058D01*
X173781539Y-117414988D01*
X173800152Y-117452516D01*
X173813132Y-117514467D01*
X173794349Y-117574913D01*
X173748545Y-117618599D01*
X173687278Y-117634500D01*
X173669737Y-117634500D01*
X173598351Y-117640986D01*
X173434087Y-117692173D01*
X173286842Y-117781185D01*
X173165185Y-117902842D01*
X173076173Y-118050087D01*
X173024986Y-118214351D01*
X173018500Y-118285735D01*
X173018500Y-118950264D01*
X173024986Y-119021647D01*
X173024987Y-119021649D01*
X173076173Y-119185913D01*
X173123042Y-119263444D01*
X173165185Y-119333157D01*
X173181595Y-119349567D01*
X173208909Y-119390444D01*
X173218500Y-119438662D01*
X173218500Y-122905782D01*
X173218270Y-122913390D01*
X173214597Y-122974093D01*
X173225559Y-123033910D01*
X173226704Y-123041432D01*
X173234035Y-123101801D01*
X173237649Y-123111332D01*
X173243770Y-123133289D01*
X173245610Y-123143329D01*
X173270572Y-123198794D01*
X173273483Y-123205822D01*
X173295045Y-123262673D01*
X173300839Y-123271068D01*
X173312036Y-123290922D01*
X173316223Y-123300224D01*
X173353725Y-123348092D01*
X173358235Y-123354220D01*
X173366244Y-123365822D01*
X173392785Y-123404273D01*
X173426588Y-123434220D01*
X173438316Y-123444610D01*
X173443857Y-123449827D01*
X174463595Y-124469565D01*
X174490909Y-124510442D01*
X174500500Y-124558660D01*
X174500500Y-126661638D01*
X174507011Y-126722201D01*
X174532561Y-126790702D01*
X174558111Y-126859205D01*
X174645738Y-126976261D01*
X174762794Y-127063888D01*
X174762795Y-127063888D01*
X174762796Y-127063889D01*
X174899799Y-127114989D01*
X174960362Y-127121500D01*
X177657638Y-127121500D01*
X177718201Y-127114989D01*
X177855204Y-127063889D01*
X177972261Y-126976261D01*
X178059889Y-126859204D01*
X178110989Y-126722201D01*
X178117500Y-126661638D01*
X178117500Y-123964362D01*
X178110989Y-123903799D01*
X178059889Y-123766796D01*
X178059888Y-123766794D01*
X177972261Y-123649738D01*
X177855205Y-123562111D01*
X177761409Y-123527127D01*
X177718201Y-123511011D01*
X177657638Y-123504500D01*
X175554660Y-123504500D01*
X175506442Y-123494909D01*
X175465565Y-123467595D01*
X174672405Y-122674435D01*
X174645091Y-122633558D01*
X174635500Y-122585340D01*
X174635500Y-121741300D01*
X174649838Y-121682925D01*
X174689590Y-121637835D01*
X174745708Y-121616294D01*
X174805420Y-121623202D01*
X174855137Y-121656989D01*
X174902747Y-121709866D01*
X175057248Y-121822118D01*
X175231712Y-121899794D01*
X175418513Y-121939500D01*
X175609485Y-121939500D01*
X175609487Y-121939500D01*
X175796288Y-121899794D01*
X175970752Y-121822118D01*
X176125253Y-121709866D01*
X176253040Y-121567944D01*
X176348527Y-121402556D01*
X176407542Y-121220928D01*
X176427504Y-121031000D01*
X176407542Y-120841072D01*
X176348527Y-120659444D01*
X176302380Y-120579516D01*
X176285500Y-120516517D01*
X176285500Y-119438662D01*
X176295091Y-119390444D01*
X176322405Y-119349567D01*
X176338814Y-119333157D01*
X176338814Y-119333156D01*
X176338816Y-119333155D01*
X176427827Y-119185913D01*
X176479013Y-119021649D01*
X176485500Y-118950265D01*
X176485499Y-118285736D01*
X176479013Y-118214351D01*
X176427827Y-118050087D01*
X176338816Y-117902845D01*
X176338815Y-117902844D01*
X176338814Y-117902842D01*
X176310122Y-117874150D01*
X176278765Y-117822034D01*
X176275477Y-117761300D01*
X176301018Y-117706106D01*
X176304805Y-117701395D01*
X176348562Y-117666717D01*
X176403009Y-117654350D01*
X176457455Y-117666725D01*
X176501206Y-117701410D01*
X176504977Y-117706102D01*
X176517865Y-117722136D01*
X176660761Y-117836998D01*
X176660762Y-117836998D01*
X176660764Y-117837000D01*
X176825015Y-117918461D01*
X177002938Y-117962708D01*
X177020583Y-117963904D01*
X177044106Y-117965500D01*
X177044110Y-117965500D01*
X178011293Y-117965500D01*
X178068156Y-117979061D01*
X178112780Y-118016824D01*
X178135558Y-118070662D01*
X178131588Y-118128985D01*
X178104986Y-118214351D01*
X178098500Y-118285735D01*
X178098500Y-118950264D01*
X178104986Y-119021647D01*
X178104987Y-119021649D01*
X178156173Y-119185913D01*
X178203042Y-119263444D01*
X178245185Y-119333157D01*
X178261595Y-119349567D01*
X178288909Y-119390444D01*
X178298500Y-119438662D01*
X178298500Y-122985782D01*
X178298270Y-122993390D01*
X178294597Y-123054093D01*
X178302337Y-123096329D01*
X178305086Y-123111332D01*
X178305559Y-123113910D01*
X178306704Y-123121432D01*
X178314035Y-123181801D01*
X178317649Y-123191332D01*
X178323770Y-123213289D01*
X178325610Y-123223329D01*
X178350572Y-123278794D01*
X178353483Y-123285822D01*
X178375045Y-123342673D01*
X178380839Y-123351068D01*
X178392036Y-123370922D01*
X178396223Y-123380224D01*
X178433725Y-123428092D01*
X178438235Y-123434220D01*
X178449008Y-123449827D01*
X178472785Y-123484273D01*
X178510033Y-123517272D01*
X178518316Y-123524610D01*
X178523857Y-123529827D01*
X179573042Y-124579012D01*
X179600053Y-124619164D01*
X179609937Y-124666536D01*
X179601237Y-124714140D01*
X179576001Y-124778439D01*
X179515685Y-125042699D01*
X179495429Y-125312999D01*
X179515685Y-125583300D01*
X179576001Y-125847560D01*
X179675029Y-126099880D01*
X179810557Y-126334621D01*
X179979554Y-126546538D01*
X179979557Y-126546540D01*
X179979558Y-126546542D01*
X180178257Y-126730907D01*
X180402215Y-126883599D01*
X180509301Y-126935169D01*
X180646427Y-127001206D01*
X180704192Y-127019023D01*
X180905442Y-127081101D01*
X181173472Y-127121500D01*
X181444526Y-127121500D01*
X181444528Y-127121500D01*
X181712558Y-127081101D01*
X181971572Y-127001206D01*
X182215786Y-126883599D01*
X182439743Y-126730907D01*
X182638442Y-126546542D01*
X182807443Y-126334621D01*
X182942971Y-126099879D01*
X183041999Y-125847559D01*
X183102315Y-125583299D01*
X183122571Y-125313000D01*
X183102315Y-125042701D01*
X183041999Y-124778441D01*
X182942971Y-124526121D01*
X182807443Y-124291379D01*
X182739721Y-124206458D01*
X182638445Y-124079461D01*
X182638442Y-124079458D01*
X182439743Y-123895093D01*
X182215786Y-123742401D01*
X182215785Y-123742400D01*
X182215783Y-123742399D01*
X181971572Y-123624793D01*
X181768358Y-123562111D01*
X181712558Y-123544899D01*
X181444528Y-123504500D01*
X181173472Y-123504500D01*
X180905442Y-123544899D01*
X180875744Y-123554059D01*
X180700891Y-123607994D01*
X180633422Y-123609887D01*
X180574657Y-123576687D01*
X179752405Y-122754435D01*
X179725091Y-122713558D01*
X179715500Y-122665340D01*
X179715500Y-121576661D01*
X179732381Y-121513661D01*
X179778500Y-121467542D01*
X179841500Y-121450661D01*
X179904500Y-121467542D01*
X179950619Y-121513661D01*
X179981958Y-121567942D01*
X179981960Y-121567944D01*
X180109747Y-121709866D01*
X180264248Y-121822118D01*
X180438712Y-121899794D01*
X180625513Y-121939500D01*
X180816485Y-121939500D01*
X180816487Y-121939500D01*
X181003288Y-121899794D01*
X181177752Y-121822118D01*
X181332253Y-121709866D01*
X181460040Y-121567944D01*
X181555527Y-121402556D01*
X181614542Y-121220928D01*
X181634504Y-121031000D01*
X181614542Y-120841072D01*
X181555527Y-120659444D01*
X181555527Y-120659443D01*
X181460041Y-120494057D01*
X181440521Y-120472378D01*
X181397863Y-120425002D01*
X181373869Y-120385847D01*
X181365500Y-120340692D01*
X181365500Y-119438662D01*
X181375091Y-119390444D01*
X181402405Y-119349567D01*
X181418814Y-119333157D01*
X181418814Y-119333156D01*
X181418816Y-119333155D01*
X181507827Y-119185913D01*
X181559013Y-119021649D01*
X181565500Y-118950265D01*
X181565499Y-118285736D01*
X181559013Y-118214351D01*
X181507827Y-118050087D01*
X181418816Y-117902845D01*
X181418815Y-117902844D01*
X181418814Y-117902842D01*
X181390122Y-117874150D01*
X181358765Y-117822034D01*
X181355477Y-117761300D01*
X181381018Y-117706106D01*
X181384805Y-117701395D01*
X181428562Y-117666717D01*
X181483009Y-117654350D01*
X181537455Y-117666725D01*
X181581206Y-117701410D01*
X181584977Y-117706102D01*
X181597865Y-117722136D01*
X181740761Y-117836998D01*
X181740762Y-117836998D01*
X181740764Y-117837000D01*
X181905015Y-117918461D01*
X182082938Y-117962708D01*
X182100583Y-117963904D01*
X182124106Y-117965500D01*
X182124110Y-117965500D01*
X182964293Y-117965500D01*
X183021156Y-117979061D01*
X183065780Y-118016824D01*
X183088558Y-118070662D01*
X183084588Y-118128985D01*
X183057986Y-118214351D01*
X183051500Y-118285735D01*
X183051500Y-118950264D01*
X183057986Y-119021647D01*
X183057987Y-119021649D01*
X183109173Y-119185913D01*
X183156042Y-119263444D01*
X183198185Y-119333157D01*
X183214595Y-119349567D01*
X183241909Y-119390444D01*
X183251500Y-119438662D01*
X183251500Y-122938782D01*
X183251270Y-122946390D01*
X183247597Y-123007093D01*
X183253890Y-123041432D01*
X183258086Y-123064332D01*
X183258559Y-123066910D01*
X183259704Y-123074432D01*
X183267035Y-123134801D01*
X183270649Y-123144332D01*
X183276770Y-123166289D01*
X183278610Y-123176329D01*
X183303572Y-123231794D01*
X183306483Y-123238822D01*
X183328045Y-123295673D01*
X183333839Y-123304068D01*
X183345036Y-123323922D01*
X183349223Y-123333224D01*
X183386725Y-123381092D01*
X183391235Y-123387220D01*
X183402008Y-123402827D01*
X183425785Y-123437273D01*
X183462357Y-123469673D01*
X183471316Y-123477610D01*
X183476857Y-123482827D01*
X184573042Y-124579012D01*
X184600053Y-124619164D01*
X184609937Y-124666536D01*
X184601237Y-124714140D01*
X184576001Y-124778439D01*
X184515685Y-125042699D01*
X184495429Y-125312999D01*
X184515685Y-125583300D01*
X184576001Y-125847560D01*
X184675029Y-126099880D01*
X184810557Y-126334621D01*
X184979554Y-126546538D01*
X184979557Y-126546540D01*
X184979558Y-126546542D01*
X185178257Y-126730907D01*
X185402215Y-126883599D01*
X185509301Y-126935169D01*
X185646427Y-127001206D01*
X185704192Y-127019023D01*
X185905442Y-127081101D01*
X186173472Y-127121500D01*
X186444526Y-127121500D01*
X186444528Y-127121500D01*
X186712558Y-127081101D01*
X186971572Y-127001206D01*
X187215786Y-126883599D01*
X187439743Y-126730907D01*
X187638442Y-126546542D01*
X187807443Y-126334621D01*
X187942971Y-126099879D01*
X188041999Y-125847559D01*
X188102315Y-125583299D01*
X188122571Y-125313000D01*
X188102315Y-125042701D01*
X188041999Y-124778441D01*
X187942971Y-124526121D01*
X187807443Y-124291379D01*
X187739721Y-124206458D01*
X187638445Y-124079461D01*
X187638442Y-124079458D01*
X187439743Y-123895093D01*
X187215786Y-123742401D01*
X187215785Y-123742400D01*
X187215783Y-123742399D01*
X186971572Y-123624793D01*
X186768358Y-123562111D01*
X186712558Y-123544899D01*
X186444528Y-123504500D01*
X186173472Y-123504500D01*
X185905442Y-123544899D01*
X185875744Y-123554059D01*
X185700891Y-123607994D01*
X185633422Y-123609887D01*
X185574657Y-123576687D01*
X184705405Y-122707435D01*
X184678091Y-122666558D01*
X184668500Y-122618340D01*
X184668500Y-121576661D01*
X184685381Y-121513661D01*
X184731500Y-121467542D01*
X184794500Y-121450661D01*
X184857500Y-121467542D01*
X184903619Y-121513661D01*
X184934958Y-121567942D01*
X184934960Y-121567944D01*
X185062747Y-121709866D01*
X185217248Y-121822118D01*
X185391712Y-121899794D01*
X185578513Y-121939500D01*
X185769485Y-121939500D01*
X185769487Y-121939500D01*
X185956288Y-121899794D01*
X186130752Y-121822118D01*
X186285253Y-121709866D01*
X186413040Y-121567944D01*
X186508527Y-121402556D01*
X186567542Y-121220928D01*
X186587504Y-121031000D01*
X186567542Y-120841072D01*
X186508527Y-120659444D01*
X186508527Y-120659443D01*
X186413041Y-120494057D01*
X186393521Y-120472378D01*
X186350863Y-120425002D01*
X186326869Y-120385847D01*
X186318500Y-120340692D01*
X186318500Y-119438662D01*
X186328091Y-119390444D01*
X186355405Y-119349567D01*
X186371814Y-119333157D01*
X186371814Y-119333156D01*
X186371816Y-119333155D01*
X186460827Y-119185913D01*
X186512013Y-119021649D01*
X186518500Y-118950265D01*
X186518499Y-118285736D01*
X186512013Y-118214351D01*
X186460827Y-118050087D01*
X186380280Y-117916846D01*
X186362372Y-117859793D01*
X186372783Y-117800908D01*
X186409168Y-117753456D01*
X186448135Y-117722135D01*
X186464793Y-117701410D01*
X186508549Y-117666723D01*
X186563000Y-117654350D01*
X186617451Y-117666723D01*
X186661206Y-117701410D01*
X186664977Y-117706102D01*
X186677865Y-117722136D01*
X186820761Y-117836998D01*
X186820762Y-117836998D01*
X186820764Y-117837000D01*
X186985015Y-117918461D01*
X187162938Y-117962708D01*
X187180583Y-117963904D01*
X187204106Y-117965500D01*
X187204110Y-117965500D01*
X188044293Y-117965500D01*
X188101156Y-117979061D01*
X188145780Y-118016824D01*
X188168558Y-118070662D01*
X188164588Y-118128985D01*
X188137986Y-118214351D01*
X188131500Y-118285735D01*
X188131500Y-118950264D01*
X188137986Y-119021647D01*
X188137987Y-119021649D01*
X188189173Y-119185913D01*
X188236042Y-119263444D01*
X188278185Y-119333157D01*
X188294595Y-119349567D01*
X188321909Y-119390444D01*
X188331500Y-119438662D01*
X188331500Y-123018782D01*
X188331270Y-123026390D01*
X188327597Y-123087093D01*
X188335337Y-123129329D01*
X188338086Y-123144332D01*
X188338559Y-123146910D01*
X188339704Y-123154432D01*
X188347035Y-123214801D01*
X188350649Y-123224332D01*
X188356770Y-123246289D01*
X188358610Y-123256329D01*
X188383572Y-123311794D01*
X188386483Y-123318822D01*
X188404123Y-123365332D01*
X188408046Y-123375675D01*
X188411186Y-123380224D01*
X188413839Y-123384068D01*
X188425036Y-123403922D01*
X188429223Y-123413224D01*
X188466725Y-123461092D01*
X188471235Y-123467220D01*
X188482008Y-123482827D01*
X188505785Y-123517273D01*
X188547494Y-123554224D01*
X188551316Y-123557610D01*
X188556857Y-123562827D01*
X189573042Y-124579012D01*
X189600053Y-124619164D01*
X189609937Y-124666536D01*
X189601237Y-124714140D01*
X189576001Y-124778439D01*
X189515685Y-125042699D01*
X189495429Y-125312999D01*
X189515685Y-125583300D01*
X189576001Y-125847560D01*
X189675029Y-126099880D01*
X189810557Y-126334621D01*
X189979554Y-126546538D01*
X189979557Y-126546540D01*
X189979558Y-126546542D01*
X190178257Y-126730907D01*
X190402215Y-126883599D01*
X190509301Y-126935169D01*
X190646427Y-127001206D01*
X190704192Y-127019023D01*
X190905442Y-127081101D01*
X191173472Y-127121500D01*
X191444526Y-127121500D01*
X191444528Y-127121500D01*
X191712558Y-127081101D01*
X191971572Y-127001206D01*
X192215786Y-126883599D01*
X192439743Y-126730907D01*
X192638442Y-126546542D01*
X192807443Y-126334621D01*
X192942971Y-126099879D01*
X193041999Y-125847559D01*
X193102315Y-125583299D01*
X193103536Y-125567000D01*
X196138000Y-125567000D01*
X196138000Y-126661589D01*
X196144505Y-126722093D01*
X196195554Y-126858962D01*
X196283095Y-126975904D01*
X196400037Y-127063445D01*
X196536906Y-127114494D01*
X196597411Y-127121000D01*
X197692000Y-127121000D01*
X197692000Y-125567000D01*
X198200000Y-125567000D01*
X198200000Y-127121000D01*
X199294589Y-127121000D01*
X199355093Y-127114494D01*
X199491962Y-127063445D01*
X199608904Y-126975904D01*
X199696445Y-126858962D01*
X199747494Y-126722093D01*
X199754000Y-126661589D01*
X199754000Y-125567000D01*
X198200000Y-125567000D01*
X197692000Y-125567000D01*
X196138000Y-125567000D01*
X193103536Y-125567000D01*
X193122571Y-125313000D01*
X193103536Y-125059000D01*
X196138000Y-125059000D01*
X197692000Y-125059000D01*
X197692000Y-123505000D01*
X198200000Y-123505000D01*
X198200000Y-125059000D01*
X199754000Y-125059000D01*
X199754000Y-123964411D01*
X199747494Y-123903906D01*
X199696445Y-123767037D01*
X199608904Y-123650095D01*
X199491962Y-123562554D01*
X199355093Y-123511505D01*
X199294589Y-123505000D01*
X198200000Y-123505000D01*
X197692000Y-123505000D01*
X196597411Y-123505000D01*
X196536906Y-123511505D01*
X196400037Y-123562554D01*
X196283095Y-123650095D01*
X196195554Y-123767037D01*
X196144505Y-123903906D01*
X196138000Y-123964411D01*
X196138000Y-125059000D01*
X193103536Y-125059000D01*
X193102315Y-125042701D01*
X193041999Y-124778441D01*
X192942971Y-124526121D01*
X192807443Y-124291379D01*
X192739721Y-124206458D01*
X192638445Y-124079461D01*
X192638442Y-124079458D01*
X192439743Y-123895093D01*
X192215786Y-123742401D01*
X192215785Y-123742400D01*
X192215783Y-123742399D01*
X191971572Y-123624793D01*
X191768358Y-123562111D01*
X191712558Y-123544899D01*
X191444528Y-123504500D01*
X191173472Y-123504500D01*
X190905442Y-123544899D01*
X190875744Y-123554059D01*
X190700891Y-123607994D01*
X190633422Y-123609887D01*
X190574657Y-123576687D01*
X189785405Y-122787435D01*
X189758091Y-122746558D01*
X189748500Y-122698340D01*
X189748500Y-121576661D01*
X189765381Y-121513661D01*
X189811500Y-121467542D01*
X189874500Y-121450661D01*
X189937500Y-121467542D01*
X189983619Y-121513661D01*
X190014958Y-121567942D01*
X190014960Y-121567944D01*
X190142747Y-121709866D01*
X190297248Y-121822118D01*
X190471712Y-121899794D01*
X190658513Y-121939500D01*
X190849485Y-121939500D01*
X190849487Y-121939500D01*
X191036288Y-121899794D01*
X191210752Y-121822118D01*
X191365253Y-121709866D01*
X191493040Y-121567944D01*
X191588527Y-121402556D01*
X191647542Y-121220928D01*
X191667504Y-121031000D01*
X191647542Y-120841072D01*
X191588527Y-120659444D01*
X191588527Y-120659443D01*
X191493041Y-120494057D01*
X191473521Y-120472378D01*
X191430863Y-120425002D01*
X191406869Y-120385847D01*
X191398500Y-120340692D01*
X191398500Y-119438662D01*
X191408091Y-119390444D01*
X191435405Y-119349567D01*
X191451814Y-119333157D01*
X191451814Y-119333156D01*
X191451816Y-119333155D01*
X191540827Y-119185913D01*
X191592013Y-119021649D01*
X191598500Y-118950265D01*
X191598499Y-118285736D01*
X191592013Y-118214351D01*
X191540827Y-118050087D01*
X191460280Y-117916846D01*
X191442372Y-117859793D01*
X191452783Y-117800908D01*
X191489168Y-117753456D01*
X191528135Y-117722135D01*
X191544793Y-117701410D01*
X191588549Y-117666723D01*
X191643000Y-117654350D01*
X191697451Y-117666723D01*
X191741206Y-117701410D01*
X191744977Y-117706102D01*
X191757865Y-117722136D01*
X191900761Y-117836998D01*
X191900762Y-117836998D01*
X191900764Y-117837000D01*
X192065015Y-117918461D01*
X192242938Y-117962708D01*
X192260583Y-117963904D01*
X192284106Y-117965500D01*
X192284110Y-117965500D01*
X193541890Y-117965500D01*
X193541894Y-117965500D01*
X193562475Y-117964104D01*
X193583062Y-117962708D01*
X193760985Y-117918461D01*
X193925236Y-117837000D01*
X194068135Y-117722135D01*
X194183000Y-117579236D01*
X194264461Y-117414985D01*
X194308708Y-117237062D01*
X194311500Y-117195890D01*
X194311500Y-116198110D01*
X194308708Y-116156938D01*
X194264461Y-115979015D01*
X194183000Y-115814764D01*
X194182998Y-115814761D01*
X194068135Y-115671864D01*
X193968560Y-115591824D01*
X193933872Y-115548068D01*
X193921500Y-115493618D01*
X193921500Y-113833500D01*
X193938381Y-113770500D01*
X193984500Y-113724381D01*
X194047500Y-113707500D01*
X197954076Y-113707500D01*
X198002294Y-113717091D01*
X198043171Y-113744405D01*
X201900595Y-117601829D01*
X201927909Y-117642706D01*
X201937500Y-117690924D01*
X201937500Y-123745156D01*
X201922899Y-123804032D01*
X201882479Y-123849262D01*
X201815258Y-123895092D01*
X201616554Y-124079461D01*
X201447557Y-124291378D01*
X201312029Y-124526119D01*
X201213001Y-124778439D01*
X201152685Y-125042699D01*
X201132429Y-125312999D01*
X201152685Y-125583300D01*
X201213001Y-125847560D01*
X201312029Y-126099880D01*
X201447557Y-126334621D01*
X201616554Y-126546538D01*
X201616557Y-126546540D01*
X201616558Y-126546542D01*
X201815257Y-126730907D01*
X202039215Y-126883599D01*
X202146301Y-126935169D01*
X202283427Y-127001206D01*
X202341192Y-127019023D01*
X202542442Y-127081101D01*
X202810472Y-127121500D01*
X203081526Y-127121500D01*
X203081528Y-127121500D01*
X203349558Y-127081101D01*
X203608572Y-127001206D01*
X203651016Y-126980766D01*
X208624787Y-126980766D01*
X208654413Y-127250015D01*
X208660715Y-127274119D01*
X208722928Y-127512088D01*
X208828870Y-127761390D01*
X208969982Y-127992610D01*
X209143255Y-128200820D01*
X209143256Y-128200821D01*
X209143258Y-128200823D01*
X209344993Y-128381578D01*
X209344995Y-128381579D01*
X209344998Y-128381582D01*
X209570910Y-128531044D01*
X209694650Y-128589051D01*
X209816171Y-128646018D01*
X209816173Y-128646018D01*
X209816176Y-128646020D01*
X210075569Y-128724060D01*
X210075572Y-128724060D01*
X210075574Y-128724061D01*
X210343558Y-128763500D01*
X210343561Y-128763500D01*
X210546630Y-128763500D01*
X210546631Y-128763500D01*
X210749156Y-128748677D01*
X211013553Y-128689780D01*
X211266558Y-128593014D01*
X211502777Y-128460441D01*
X211717177Y-128294888D01*
X211905186Y-128099881D01*
X212062799Y-127879579D01*
X212186656Y-127638675D01*
X212274118Y-127382305D01*
X212323319Y-127115933D01*
X212333212Y-126845235D01*
X212327031Y-126789063D01*
X212318339Y-126710065D01*
X212303586Y-126575982D01*
X212235072Y-126313912D01*
X212129130Y-126064610D01*
X211988018Y-125833390D01*
X211814745Y-125625180D01*
X211814741Y-125625176D01*
X211613006Y-125444421D01*
X211613003Y-125444419D01*
X211613002Y-125444418D01*
X211387090Y-125294956D01*
X211387086Y-125294954D01*
X211141828Y-125179981D01*
X210882425Y-125101938D01*
X210614442Y-125062500D01*
X210614439Y-125062500D01*
X210411369Y-125062500D01*
X210377614Y-125064970D01*
X210208839Y-125077323D01*
X209944449Y-125136219D01*
X209691441Y-125232985D01*
X209455225Y-125365557D01*
X209240820Y-125531114D01*
X209052815Y-125726117D01*
X208895200Y-125946422D01*
X208771342Y-126187328D01*
X208683882Y-126443693D01*
X208634681Y-126710065D01*
X208624787Y-126980766D01*
X203651016Y-126980766D01*
X203852786Y-126883599D01*
X204076743Y-126730907D01*
X204275442Y-126546542D01*
X204444443Y-126334621D01*
X204579971Y-126099879D01*
X204678999Y-125847559D01*
X204739315Y-125583299D01*
X204759571Y-125313000D01*
X204739315Y-125042701D01*
X204678999Y-124778441D01*
X204579971Y-124526121D01*
X204444443Y-124291379D01*
X204376721Y-124206458D01*
X204275445Y-124079461D01*
X204275442Y-124079458D01*
X204076743Y-123895093D01*
X204009520Y-123849261D01*
X203969101Y-123804032D01*
X203954500Y-123745156D01*
X203954500Y-117276737D01*
X203955107Y-117264386D01*
X203957798Y-117237062D01*
X203959380Y-117221000D01*
X203956907Y-117195894D01*
X203939909Y-117023300D01*
X203939909Y-117023299D01*
X203883134Y-116836141D01*
X203882403Y-116833499D01*
X203788593Y-116657992D01*
X203662571Y-116504434D01*
X203628857Y-116476766D01*
X203619695Y-116468461D01*
X199176532Y-112025298D01*
X199168227Y-112016135D01*
X199140569Y-111982433D01*
X198987003Y-111856404D01*
X198814534Y-111764218D01*
X198812134Y-111762858D01*
X198621701Y-111705090D01*
X198424001Y-111685619D01*
X198383741Y-111689584D01*
X198380612Y-111689893D01*
X198368263Y-111690500D01*
X193222735Y-111690500D01*
X193210384Y-111689893D01*
X193167000Y-111685619D01*
X193123616Y-111689893D01*
X193111265Y-111690500D01*
X187888735Y-111690500D01*
X187876384Y-111689893D01*
X187833000Y-111685619D01*
X187789616Y-111689893D01*
X187777265Y-111690500D01*
X183062735Y-111690500D01*
X183050384Y-111689893D01*
X183007000Y-111685619D01*
X182963616Y-111689893D01*
X182951265Y-111690500D01*
X177728735Y-111690500D01*
X177716384Y-111689893D01*
X177673000Y-111685619D01*
X177629616Y-111689893D01*
X177617265Y-111690500D01*
X170235737Y-111690500D01*
X170223387Y-111689893D01*
X170220546Y-111689613D01*
X170180000Y-111685619D01*
X170139453Y-111689613D01*
X170136612Y-111689893D01*
X170124263Y-111690500D01*
X165155737Y-111690500D01*
X165143387Y-111689893D01*
X165140546Y-111689613D01*
X165100000Y-111685619D01*
X165059453Y-111689613D01*
X165056612Y-111689893D01*
X165044263Y-111690500D01*
X160075737Y-111690500D01*
X160063387Y-111689893D01*
X160060546Y-111689613D01*
X160020000Y-111685619D01*
X159979453Y-111689613D01*
X159976612Y-111689893D01*
X159964263Y-111690500D01*
X154868737Y-111690500D01*
X154856387Y-111689893D01*
X154853546Y-111689613D01*
X154813000Y-111685619D01*
X154772453Y-111689613D01*
X154769612Y-111689893D01*
X154757263Y-111690500D01*
X147756735Y-111690500D01*
X147744384Y-111689893D01*
X147701000Y-111685619D01*
X147657616Y-111689893D01*
X147645265Y-111690500D01*
X142549737Y-111690500D01*
X142537387Y-111689893D01*
X142534546Y-111689613D01*
X142494000Y-111685619D01*
X142453453Y-111689613D01*
X142450612Y-111689893D01*
X142438263Y-111690500D01*
X137596735Y-111690500D01*
X137584384Y-111689893D01*
X137541000Y-111685619D01*
X137497616Y-111689893D01*
X137485265Y-111690500D01*
X132643735Y-111690500D01*
X132631384Y-111689893D01*
X132588000Y-111685619D01*
X132544616Y-111689893D01*
X132532265Y-111690500D01*
X124896737Y-111690500D01*
X124884387Y-111689893D01*
X124881546Y-111689613D01*
X124841000Y-111685619D01*
X124800453Y-111689613D01*
X124797612Y-111689893D01*
X124785263Y-111690500D01*
X119943735Y-111690500D01*
X119931384Y-111689893D01*
X119888000Y-111685619D01*
X119844616Y-111689893D01*
X119832265Y-111690500D01*
X114863735Y-111690500D01*
X114851384Y-111689893D01*
X114808000Y-111685619D01*
X114764616Y-111689893D01*
X114752265Y-111690500D01*
X110418737Y-111690500D01*
X110406387Y-111689893D01*
X110402905Y-111689550D01*
X110362998Y-111685619D01*
X110165299Y-111705090D01*
X110032864Y-111745265D01*
X110032862Y-111745265D01*
X109975197Y-111762758D01*
X109799996Y-111856404D01*
X109646430Y-111982433D01*
X109618765Y-112016142D01*
X109610463Y-112025301D01*
X109054301Y-112581463D01*
X109045142Y-112589765D01*
X109011431Y-112617432D01*
X108885406Y-112770994D01*
X108856005Y-112826000D01*
X108791758Y-112946197D01*
X108734090Y-113136298D01*
X108714619Y-113333998D01*
X108718893Y-113377386D01*
X108719500Y-113389737D01*
X108719500Y-115377618D01*
X108707128Y-115432068D01*
X108672440Y-115475824D01*
X108572864Y-115555864D01*
X108556206Y-115576589D01*
X108512450Y-115611277D01*
X108458000Y-115623649D01*
X108403550Y-115611277D01*
X108359794Y-115576589D01*
X108343135Y-115555864D01*
X108200238Y-115441001D01*
X108035984Y-115359538D01*
X107858058Y-115315291D01*
X107816894Y-115312500D01*
X107816890Y-115312500D01*
X106559110Y-115312500D01*
X106559106Y-115312500D01*
X106517941Y-115315291D01*
X106340015Y-115359538D01*
X106175761Y-115441001D01*
X106032864Y-115555864D01*
X105918001Y-115698761D01*
X105836538Y-115863015D01*
X105792291Y-116040941D01*
X105789500Y-116082106D01*
X105789500Y-117079894D01*
X105792291Y-117121058D01*
X105836538Y-117298984D01*
X105880423Y-117387468D01*
X105912683Y-117452516D01*
X105914677Y-117456535D01*
X105927758Y-117515636D01*
X105911770Y-117574016D01*
X105870401Y-117618205D01*
X105813200Y-117638002D01*
X105780352Y-117640986D01*
X105616087Y-117692173D01*
X105468842Y-117781185D01*
X105347185Y-117902842D01*
X105258173Y-118050087D01*
X105206986Y-118214351D01*
X105200500Y-118285735D01*
X105200500Y-118950264D01*
X90844500Y-118950264D01*
X90844500Y-107315000D01*
X105790000Y-107315000D01*
X105790000Y-107559855D01*
X105792789Y-107600989D01*
X105837012Y-107778813D01*
X105918424Y-107942966D01*
X106033220Y-108085779D01*
X106176033Y-108200575D01*
X106340186Y-108281987D01*
X106518010Y-108326210D01*
X106559145Y-108329000D01*
X106934000Y-108329000D01*
X106934000Y-107315000D01*
X105790000Y-107315000D01*
X90844500Y-107315000D01*
X90844500Y-106807000D01*
X105790000Y-106807000D01*
X107316000Y-106807000D01*
X107379000Y-106823881D01*
X107425119Y-106870000D01*
X107442000Y-106933000D01*
X107442000Y-108329000D01*
X107816855Y-108329000D01*
X107857989Y-108326210D01*
X108035813Y-108281987D01*
X108199966Y-108200575D01*
X108342776Y-108085781D01*
X108359470Y-108065013D01*
X108403226Y-108030325D01*
X108457676Y-108017951D01*
X108512126Y-108030323D01*
X108555883Y-108065010D01*
X108572863Y-108086134D01*
X108715761Y-108200998D01*
X108715762Y-108200998D01*
X108715764Y-108201000D01*
X108880015Y-108282461D01*
X109057938Y-108326708D01*
X109075583Y-108327904D01*
X109099106Y-108329500D01*
X109099110Y-108329500D01*
X110356890Y-108329500D01*
X110356894Y-108329500D01*
X110377476Y-108328103D01*
X110398062Y-108326708D01*
X110575985Y-108282461D01*
X110740236Y-108201000D01*
X110883135Y-108086135D01*
X110900114Y-108065011D01*
X110943871Y-108030324D01*
X110998321Y-108017951D01*
X111052771Y-108030324D01*
X111096528Y-108065012D01*
X111113221Y-108085780D01*
X111256033Y-108200575D01*
X111420186Y-108281987D01*
X111598010Y-108326210D01*
X111639145Y-108329000D01*
X112014000Y-108329000D01*
X112014000Y-106933000D01*
X112030881Y-106870000D01*
X112077000Y-106823881D01*
X112140000Y-106807000D01*
X112396000Y-106807000D01*
X112459000Y-106823881D01*
X112505119Y-106870000D01*
X112522000Y-106933000D01*
X112522000Y-108329000D01*
X112896855Y-108329000D01*
X112937989Y-108326210D01*
X113115813Y-108281987D01*
X113279966Y-108200575D01*
X113422776Y-108085781D01*
X113439470Y-108065013D01*
X113483226Y-108030325D01*
X113537676Y-108017951D01*
X113592126Y-108030323D01*
X113635883Y-108065010D01*
X113652863Y-108086134D01*
X113795761Y-108200998D01*
X113795762Y-108200998D01*
X113795764Y-108201000D01*
X113960015Y-108282461D01*
X114137938Y-108326708D01*
X114155583Y-108327904D01*
X114179106Y-108329500D01*
X114179110Y-108329500D01*
X115436890Y-108329500D01*
X115436894Y-108329500D01*
X115457476Y-108328103D01*
X115478062Y-108326708D01*
X115655985Y-108282461D01*
X115820236Y-108201000D01*
X115963135Y-108086135D01*
X115980114Y-108065011D01*
X116023871Y-108030324D01*
X116078321Y-108017951D01*
X116132771Y-108030324D01*
X116176528Y-108065012D01*
X116193221Y-108085780D01*
X116336033Y-108200575D01*
X116500186Y-108281987D01*
X116678010Y-108326210D01*
X116719145Y-108329000D01*
X117094000Y-108329000D01*
X117094000Y-106933000D01*
X117110881Y-106870000D01*
X117157000Y-106823881D01*
X117220000Y-106807000D01*
X117476000Y-106807000D01*
X117539000Y-106823881D01*
X117585119Y-106870000D01*
X117602000Y-106933000D01*
X117602000Y-108329000D01*
X117976855Y-108329000D01*
X118017989Y-108326210D01*
X118195813Y-108281987D01*
X118359966Y-108200575D01*
X118502776Y-108085781D01*
X118519470Y-108065013D01*
X118563226Y-108030325D01*
X118617676Y-108017951D01*
X118672126Y-108030323D01*
X118715883Y-108065010D01*
X118732863Y-108086134D01*
X118875761Y-108200998D01*
X118875762Y-108200998D01*
X118875764Y-108201000D01*
X119040015Y-108282461D01*
X119217938Y-108326708D01*
X119235583Y-108327904D01*
X119259106Y-108329500D01*
X119259110Y-108329500D01*
X120516890Y-108329500D01*
X120516894Y-108329500D01*
X120537476Y-108328103D01*
X120558062Y-108326708D01*
X120735985Y-108282461D01*
X120900236Y-108201000D01*
X121043135Y-108086135D01*
X121060114Y-108065011D01*
X121103871Y-108030324D01*
X121158321Y-108017951D01*
X121212771Y-108030324D01*
X121256528Y-108065012D01*
X121273221Y-108085780D01*
X121416033Y-108200575D01*
X121580186Y-108281987D01*
X121758010Y-108326210D01*
X121799145Y-108329000D01*
X122174000Y-108329000D01*
X122174000Y-106933000D01*
X122190881Y-106870000D01*
X122237000Y-106823881D01*
X122300000Y-106807000D01*
X122556000Y-106807000D01*
X122619000Y-106823881D01*
X122665119Y-106870000D01*
X122682000Y-106933000D01*
X122682000Y-108329000D01*
X123056855Y-108329000D01*
X123097989Y-108326210D01*
X123275813Y-108281987D01*
X123439966Y-108200575D01*
X123582776Y-108085781D01*
X123599470Y-108065013D01*
X123643226Y-108030325D01*
X123697676Y-108017951D01*
X123752126Y-108030323D01*
X123795883Y-108065010D01*
X123812863Y-108086134D01*
X123955761Y-108200998D01*
X123955762Y-108200998D01*
X123955764Y-108201000D01*
X124120015Y-108282461D01*
X124297938Y-108326708D01*
X124315583Y-108327904D01*
X124339106Y-108329500D01*
X124339110Y-108329500D01*
X125596890Y-108329500D01*
X125596894Y-108329500D01*
X125617476Y-108328103D01*
X125638062Y-108326708D01*
X125815985Y-108282461D01*
X125980236Y-108201000D01*
X126123135Y-108086135D01*
X126238000Y-107943236D01*
X126319461Y-107778985D01*
X126363708Y-107601062D01*
X126366500Y-107559890D01*
X126366500Y-107315000D01*
X128523000Y-107315000D01*
X128523000Y-107559855D01*
X128525789Y-107600989D01*
X128570012Y-107778813D01*
X128651424Y-107942966D01*
X128766220Y-108085779D01*
X128909033Y-108200575D01*
X129073186Y-108281987D01*
X129251010Y-108326210D01*
X129292145Y-108329000D01*
X129667000Y-108329000D01*
X129667000Y-107315000D01*
X128523000Y-107315000D01*
X126366500Y-107315000D01*
X126366500Y-106562110D01*
X126363708Y-106520938D01*
X126319461Y-106343015D01*
X126238000Y-106178764D01*
X126216664Y-106152221D01*
X126123137Y-106035867D01*
X126123135Y-106035865D01*
X126093078Y-106011704D01*
X126056007Y-105962663D01*
X126046554Y-105901915D01*
X126066971Y-105843925D01*
X126112398Y-105802499D01*
X126172020Y-105787500D01*
X128717778Y-105787500D01*
X128777400Y-105802499D01*
X128822827Y-105843924D01*
X128843244Y-105901914D01*
X128833791Y-105962662D01*
X128796719Y-106011706D01*
X128766219Y-106036222D01*
X128651424Y-106179033D01*
X128570012Y-106343186D01*
X128525789Y-106521010D01*
X128523000Y-106562145D01*
X128523000Y-106807000D01*
X130049000Y-106807000D01*
X130112000Y-106823881D01*
X130158119Y-106870000D01*
X130175000Y-106933000D01*
X130175000Y-108329000D01*
X130549855Y-108329000D01*
X130590989Y-108326210D01*
X130768813Y-108281987D01*
X130932966Y-108200575D01*
X131075776Y-108085781D01*
X131092470Y-108065013D01*
X131136226Y-108030325D01*
X131190676Y-108017951D01*
X131245126Y-108030323D01*
X131288883Y-108065010D01*
X131305863Y-108086134D01*
X131448761Y-108200998D01*
X131448762Y-108200998D01*
X131448764Y-108201000D01*
X131613015Y-108282461D01*
X131790938Y-108326708D01*
X131808583Y-108327904D01*
X131832106Y-108329500D01*
X131832110Y-108329500D01*
X133089890Y-108329500D01*
X133089894Y-108329500D01*
X133110476Y-108328103D01*
X133131062Y-108326708D01*
X133308985Y-108282461D01*
X133473236Y-108201000D01*
X133616135Y-108086135D01*
X133633114Y-108065011D01*
X133676871Y-108030324D01*
X133731321Y-108017951D01*
X133785771Y-108030324D01*
X133829528Y-108065012D01*
X133846221Y-108085780D01*
X133989033Y-108200575D01*
X134153186Y-108281987D01*
X134331010Y-108326210D01*
X134372145Y-108329000D01*
X134747000Y-108329000D01*
X134747000Y-106933000D01*
X134763881Y-106870000D01*
X134810000Y-106823881D01*
X134873000Y-106807000D01*
X135129000Y-106807000D01*
X135192000Y-106823881D01*
X135238119Y-106870000D01*
X135255000Y-106933000D01*
X135255000Y-108329000D01*
X135629855Y-108329000D01*
X135670989Y-108326210D01*
X135848813Y-108281987D01*
X136012966Y-108200575D01*
X136155776Y-108085781D01*
X136172470Y-108065013D01*
X136216226Y-108030325D01*
X136270676Y-108017951D01*
X136325126Y-108030323D01*
X136368883Y-108065010D01*
X136385863Y-108086134D01*
X136528761Y-108200998D01*
X136528762Y-108200998D01*
X136528764Y-108201000D01*
X136693015Y-108282461D01*
X136870938Y-108326708D01*
X136888583Y-108327904D01*
X136912106Y-108329500D01*
X136912110Y-108329500D01*
X138169890Y-108329500D01*
X138169894Y-108329500D01*
X138190476Y-108328103D01*
X138211062Y-108326708D01*
X138388985Y-108282461D01*
X138553236Y-108201000D01*
X138696135Y-108086135D01*
X138713114Y-108065011D01*
X138756871Y-108030324D01*
X138811321Y-108017951D01*
X138865771Y-108030324D01*
X138909528Y-108065012D01*
X138926221Y-108085780D01*
X139069033Y-108200575D01*
X139233186Y-108281987D01*
X139411010Y-108326210D01*
X139452145Y-108329000D01*
X139827000Y-108329000D01*
X139827000Y-106933000D01*
X139843881Y-106870000D01*
X139890000Y-106823881D01*
X139953000Y-106807000D01*
X140209000Y-106807000D01*
X140272000Y-106823881D01*
X140318119Y-106870000D01*
X140335000Y-106933000D01*
X140335000Y-108329000D01*
X140709855Y-108329000D01*
X140750989Y-108326210D01*
X140928813Y-108281987D01*
X141092966Y-108200575D01*
X141235776Y-108085781D01*
X141252470Y-108065013D01*
X141296226Y-108030325D01*
X141350676Y-108017951D01*
X141405126Y-108030323D01*
X141448883Y-108065010D01*
X141465863Y-108086134D01*
X141608761Y-108200998D01*
X141608762Y-108200998D01*
X141608764Y-108201000D01*
X141773015Y-108282461D01*
X141950938Y-108326708D01*
X141968583Y-108327904D01*
X141992106Y-108329500D01*
X141992110Y-108329500D01*
X143249890Y-108329500D01*
X143249894Y-108329500D01*
X143270476Y-108328103D01*
X143291062Y-108326708D01*
X143468985Y-108282461D01*
X143633236Y-108201000D01*
X143776135Y-108086135D01*
X143793114Y-108065011D01*
X143836871Y-108030324D01*
X143891321Y-108017951D01*
X143945771Y-108030324D01*
X143989528Y-108065012D01*
X144006221Y-108085780D01*
X144149033Y-108200575D01*
X144313186Y-108281987D01*
X144491010Y-108326210D01*
X144532145Y-108329000D01*
X144907000Y-108329000D01*
X144907000Y-106933000D01*
X144923881Y-106870000D01*
X144970000Y-106823881D01*
X145033000Y-106807000D01*
X145289000Y-106807000D01*
X145352000Y-106823881D01*
X145398119Y-106870000D01*
X145415000Y-106933000D01*
X145415000Y-108329000D01*
X145789855Y-108329000D01*
X145830989Y-108326210D01*
X146008813Y-108281987D01*
X146172966Y-108200575D01*
X146315776Y-108085781D01*
X146332470Y-108065013D01*
X146376226Y-108030325D01*
X146430676Y-108017951D01*
X146485126Y-108030323D01*
X146528883Y-108065010D01*
X146545863Y-108086134D01*
X146688761Y-108200998D01*
X146688762Y-108200998D01*
X146688764Y-108201000D01*
X146853015Y-108282461D01*
X147030938Y-108326708D01*
X147048583Y-108327904D01*
X147072106Y-108329500D01*
X147072110Y-108329500D01*
X148329890Y-108329500D01*
X148329894Y-108329500D01*
X148350476Y-108328103D01*
X148371062Y-108326708D01*
X148548985Y-108282461D01*
X148713236Y-108201000D01*
X148856135Y-108086135D01*
X148971000Y-107943236D01*
X149052461Y-107778985D01*
X149096708Y-107601062D01*
X149099500Y-107559890D01*
X149099500Y-107431000D01*
X151129000Y-107431000D01*
X151129000Y-107675855D01*
X151131789Y-107716989D01*
X151176012Y-107894813D01*
X151257424Y-108058966D01*
X151372220Y-108201779D01*
X151515033Y-108316575D01*
X151679186Y-108397987D01*
X151857010Y-108442210D01*
X151898145Y-108445000D01*
X152273000Y-108445000D01*
X152273000Y-107431000D01*
X151129000Y-107431000D01*
X149099500Y-107431000D01*
X149099500Y-106562110D01*
X149096708Y-106520938D01*
X149052461Y-106343015D01*
X148971000Y-106178764D01*
X148949666Y-106152223D01*
X148856135Y-106035864D01*
X148713238Y-105921001D01*
X148548984Y-105839538D01*
X148371058Y-105795291D01*
X148329894Y-105792500D01*
X148329890Y-105792500D01*
X148105699Y-105792500D01*
X148048836Y-105778939D01*
X148004212Y-105741176D01*
X147981434Y-105687338D01*
X147985404Y-105629015D01*
X148031013Y-105482649D01*
X148037500Y-105411265D01*
X148037499Y-104746736D01*
X148031013Y-104675351D01*
X147979827Y-104511087D01*
X147890816Y-104363845D01*
X147890815Y-104363844D01*
X147890814Y-104363842D01*
X147769157Y-104242185D01*
X147691313Y-104195127D01*
X147621913Y-104153173D01*
X147570726Y-104137222D01*
X147457648Y-104101986D01*
X147392751Y-104096089D01*
X147386264Y-104095500D01*
X146871735Y-104095500D01*
X146800351Y-104101986D01*
X146636087Y-104153173D01*
X146488842Y-104242185D01*
X146393095Y-104337933D01*
X146336611Y-104370545D01*
X146271389Y-104370545D01*
X146214905Y-104337933D01*
X146119157Y-104242185D01*
X146041313Y-104195127D01*
X145971913Y-104153173D01*
X145920726Y-104137222D01*
X145807648Y-104101986D01*
X145742751Y-104096089D01*
X145736264Y-104095500D01*
X145221735Y-104095500D01*
X145150351Y-104101986D01*
X144986087Y-104153173D01*
X144838842Y-104242185D01*
X144747433Y-104333595D01*
X144706556Y-104360909D01*
X144658338Y-104370500D01*
X143845188Y-104370500D01*
X143796970Y-104360909D01*
X143756093Y-104333595D01*
X140630093Y-101207595D01*
X140599355Y-101157436D01*
X140594739Y-101098789D01*
X140617252Y-101044439D01*
X140661985Y-101006233D01*
X140719188Y-100992500D01*
X147704340Y-100992500D01*
X147752558Y-101002091D01*
X147793435Y-101029405D01*
X152026595Y-105262565D01*
X152053909Y-105303442D01*
X152063500Y-105351659D01*
X152063500Y-105538264D01*
X152069446Y-105603702D01*
X152069987Y-105609649D01*
X152105854Y-105724753D01*
X152112324Y-105745515D01*
X152116294Y-105803838D01*
X152093516Y-105857676D01*
X152048892Y-105895439D01*
X151992029Y-105909000D01*
X151898145Y-105909000D01*
X151857010Y-105911789D01*
X151679186Y-105956012D01*
X151515033Y-106037424D01*
X151372220Y-106152220D01*
X151257424Y-106295033D01*
X151176012Y-106459186D01*
X151131789Y-106637010D01*
X151129000Y-106678145D01*
X151129000Y-106923000D01*
X152655000Y-106923000D01*
X152718000Y-106939881D01*
X152764119Y-106986000D01*
X152781000Y-107049000D01*
X152781000Y-108445000D01*
X153155855Y-108445000D01*
X153196989Y-108442210D01*
X153374813Y-108397987D01*
X153538966Y-108316575D01*
X153681776Y-108201781D01*
X153698470Y-108181013D01*
X153742226Y-108146325D01*
X153796676Y-108133951D01*
X153851126Y-108146323D01*
X153894883Y-108181010D01*
X153911863Y-108202134D01*
X154054761Y-108316998D01*
X154054762Y-108316998D01*
X154054764Y-108317000D01*
X154219015Y-108398461D01*
X154396938Y-108442708D01*
X154414583Y-108443904D01*
X154438106Y-108445500D01*
X154438110Y-108445500D01*
X155695890Y-108445500D01*
X155695894Y-108445500D01*
X155716475Y-108444104D01*
X155737062Y-108442708D01*
X155914985Y-108398461D01*
X156079236Y-108317000D01*
X156222135Y-108202135D01*
X156239114Y-108181011D01*
X156282871Y-108146324D01*
X156337321Y-108133951D01*
X156391771Y-108146324D01*
X156435528Y-108181012D01*
X156452221Y-108201780D01*
X156595033Y-108316575D01*
X156759186Y-108397987D01*
X156937010Y-108442210D01*
X156978145Y-108445000D01*
X157353000Y-108445000D01*
X157353000Y-107049000D01*
X157369881Y-106986000D01*
X157416000Y-106939881D01*
X157479000Y-106923000D01*
X157735000Y-106923000D01*
X157798000Y-106939881D01*
X157844119Y-106986000D01*
X157861000Y-107049000D01*
X157861000Y-108445000D01*
X158235855Y-108445000D01*
X158276989Y-108442210D01*
X158454813Y-108397987D01*
X158618966Y-108316575D01*
X158761776Y-108201781D01*
X158778470Y-108181013D01*
X158822226Y-108146325D01*
X158876676Y-108133951D01*
X158931126Y-108146323D01*
X158974883Y-108181010D01*
X158991863Y-108202134D01*
X159134761Y-108316998D01*
X159134762Y-108316998D01*
X159134764Y-108317000D01*
X159299015Y-108398461D01*
X159476938Y-108442708D01*
X159494583Y-108443904D01*
X159518106Y-108445500D01*
X159518110Y-108445500D01*
X160775890Y-108445500D01*
X160775894Y-108445500D01*
X160796475Y-108444104D01*
X160817062Y-108442708D01*
X160994985Y-108398461D01*
X161159236Y-108317000D01*
X161302135Y-108202135D01*
X161319114Y-108181011D01*
X161362871Y-108146324D01*
X161417321Y-108133951D01*
X161471771Y-108146324D01*
X161515528Y-108181012D01*
X161532221Y-108201780D01*
X161675033Y-108316575D01*
X161839186Y-108397987D01*
X162017010Y-108442210D01*
X162058145Y-108445000D01*
X162433000Y-108445000D01*
X162433000Y-107049000D01*
X162449881Y-106986000D01*
X162496000Y-106939881D01*
X162559000Y-106923000D01*
X162815000Y-106923000D01*
X162878000Y-106939881D01*
X162924119Y-106986000D01*
X162941000Y-107049000D01*
X162941000Y-108445000D01*
X163315855Y-108445000D01*
X163356989Y-108442210D01*
X163534813Y-108397987D01*
X163698966Y-108316575D01*
X163841776Y-108201781D01*
X163858470Y-108181013D01*
X163902226Y-108146325D01*
X163956676Y-108133951D01*
X164011126Y-108146323D01*
X164054883Y-108181010D01*
X164071863Y-108202134D01*
X164214761Y-108316998D01*
X164214762Y-108316998D01*
X164214764Y-108317000D01*
X164379015Y-108398461D01*
X164556938Y-108442708D01*
X164574583Y-108443904D01*
X164598106Y-108445500D01*
X164598110Y-108445500D01*
X165855890Y-108445500D01*
X165855894Y-108445500D01*
X165876475Y-108444104D01*
X165897062Y-108442708D01*
X166074985Y-108398461D01*
X166239236Y-108317000D01*
X166382135Y-108202135D01*
X166399114Y-108181011D01*
X166442871Y-108146324D01*
X166497321Y-108133951D01*
X166551771Y-108146324D01*
X166595528Y-108181012D01*
X166612221Y-108201780D01*
X166755033Y-108316575D01*
X166919186Y-108397987D01*
X167097010Y-108442210D01*
X167138145Y-108445000D01*
X167513000Y-108445000D01*
X167513000Y-107049000D01*
X167529881Y-106986000D01*
X167576000Y-106939881D01*
X167639000Y-106923000D01*
X167895000Y-106923000D01*
X167958000Y-106939881D01*
X168004119Y-106986000D01*
X168021000Y-107049000D01*
X168021000Y-108445000D01*
X168395855Y-108445000D01*
X168436989Y-108442210D01*
X168614813Y-108397987D01*
X168778966Y-108316575D01*
X168921776Y-108201781D01*
X168938470Y-108181013D01*
X168982226Y-108146325D01*
X169036676Y-108133951D01*
X169091126Y-108146323D01*
X169134883Y-108181010D01*
X169151863Y-108202134D01*
X169294761Y-108316998D01*
X169294762Y-108316998D01*
X169294764Y-108317000D01*
X169459015Y-108398461D01*
X169636938Y-108442708D01*
X169654583Y-108443904D01*
X169678106Y-108445500D01*
X169678110Y-108445500D01*
X170935890Y-108445500D01*
X170935894Y-108445500D01*
X170956475Y-108444104D01*
X170977062Y-108442708D01*
X171154985Y-108398461D01*
X171319236Y-108317000D01*
X171462135Y-108202135D01*
X171577000Y-108059236D01*
X171658461Y-107894985D01*
X171702708Y-107717062D01*
X171705500Y-107675890D01*
X171705500Y-107431000D01*
X173735000Y-107431000D01*
X173735000Y-107675855D01*
X173737789Y-107716989D01*
X173782012Y-107894813D01*
X173863424Y-108058966D01*
X173978220Y-108201779D01*
X174121033Y-108316575D01*
X174285186Y-108397987D01*
X174463010Y-108442210D01*
X174504145Y-108445000D01*
X174879000Y-108445000D01*
X174879000Y-107431000D01*
X173735000Y-107431000D01*
X171705500Y-107431000D01*
X171705500Y-106678110D01*
X171702708Y-106636938D01*
X171658461Y-106459015D01*
X171577000Y-106294764D01*
X171516942Y-106220048D01*
X171462135Y-106151864D01*
X171319238Y-106037001D01*
X171154984Y-105955538D01*
X170977058Y-105911291D01*
X170935894Y-105908500D01*
X170935890Y-105908500D01*
X170842127Y-105908500D01*
X170785264Y-105894939D01*
X170740640Y-105857176D01*
X170717862Y-105803338D01*
X170721832Y-105745015D01*
X170739804Y-105687338D01*
X170764013Y-105609649D01*
X170770500Y-105538265D01*
X170770499Y-104873736D01*
X170764013Y-104802351D01*
X170712827Y-104638087D01*
X170623816Y-104490845D01*
X170623815Y-104490844D01*
X170623814Y-104490842D01*
X170502157Y-104369185D01*
X170455986Y-104341274D01*
X170354913Y-104280173D01*
X170284841Y-104258338D01*
X170190648Y-104228986D01*
X170125750Y-104223089D01*
X170119264Y-104222500D01*
X169604735Y-104222500D01*
X169533351Y-104228986D01*
X169369087Y-104280173D01*
X169221842Y-104369185D01*
X169126095Y-104464933D01*
X169069611Y-104497545D01*
X169004389Y-104497545D01*
X168947905Y-104464933D01*
X168852157Y-104369185D01*
X168805986Y-104341274D01*
X168704913Y-104280173D01*
X168634841Y-104258338D01*
X168540648Y-104228986D01*
X168475750Y-104223089D01*
X168469265Y-104222500D01*
X168469264Y-104222500D01*
X168282660Y-104222500D01*
X168234442Y-104212909D01*
X168193565Y-104185595D01*
X162615565Y-98607595D01*
X162584827Y-98557436D01*
X162580211Y-98498789D01*
X162602724Y-98444439D01*
X162647457Y-98406233D01*
X162704660Y-98392500D01*
X165829340Y-98392500D01*
X165877558Y-98402091D01*
X165918434Y-98429404D01*
X169548612Y-102059583D01*
X173178179Y-105689150D01*
X173183396Y-105694691D01*
X173223728Y-105740216D01*
X173273764Y-105774753D01*
X173279896Y-105779265D01*
X173327770Y-105816773D01*
X173327773Y-105816774D01*
X173327774Y-105816775D01*
X173337071Y-105820959D01*
X173356931Y-105832161D01*
X173365322Y-105837953D01*
X173422188Y-105859519D01*
X173429220Y-105862432D01*
X173484667Y-105887387D01*
X173484668Y-105887387D01*
X173484670Y-105887388D01*
X173494702Y-105889226D01*
X173516664Y-105895349D01*
X173526199Y-105898965D01*
X173558374Y-105902871D01*
X173586579Y-105906296D01*
X173594081Y-105907437D01*
X173653907Y-105918401D01*
X173653907Y-105918400D01*
X173653908Y-105918401D01*
X173714598Y-105914730D01*
X173722206Y-105914500D01*
X173916094Y-105914500D01*
X173975716Y-105929499D01*
X174021143Y-105970925D01*
X174041560Y-106028915D01*
X174032107Y-106089663D01*
X173995034Y-106138707D01*
X173978218Y-106152223D01*
X173863424Y-106295033D01*
X173782012Y-106459186D01*
X173737789Y-106637010D01*
X173735000Y-106678145D01*
X173735000Y-106923000D01*
X175261000Y-106923000D01*
X175324000Y-106939881D01*
X175370119Y-106986000D01*
X175387000Y-107049000D01*
X175387000Y-108445000D01*
X175761855Y-108445000D01*
X175802989Y-108442210D01*
X175980813Y-108397987D01*
X176144966Y-108316575D01*
X176287776Y-108201781D01*
X176304470Y-108181013D01*
X176348226Y-108146325D01*
X176402676Y-108133951D01*
X176457126Y-108146323D01*
X176500883Y-108181010D01*
X176517863Y-108202134D01*
X176660761Y-108316998D01*
X176660762Y-108316998D01*
X176660764Y-108317000D01*
X176825015Y-108398461D01*
X177002938Y-108442708D01*
X177020583Y-108443904D01*
X177044106Y-108445500D01*
X177044110Y-108445500D01*
X178301890Y-108445500D01*
X178301894Y-108445500D01*
X178322475Y-108444104D01*
X178343062Y-108442708D01*
X178520985Y-108398461D01*
X178685236Y-108317000D01*
X178828135Y-108202135D01*
X178845114Y-108181011D01*
X178888871Y-108146324D01*
X178943321Y-108133951D01*
X178997771Y-108146324D01*
X179041528Y-108181012D01*
X179058221Y-108201780D01*
X179201033Y-108316575D01*
X179365186Y-108397987D01*
X179543010Y-108442210D01*
X179584145Y-108445000D01*
X179959000Y-108445000D01*
X179959000Y-107049000D01*
X179975881Y-106986000D01*
X180022000Y-106939881D01*
X180085000Y-106923000D01*
X180341000Y-106923000D01*
X180404000Y-106939881D01*
X180450119Y-106986000D01*
X180467000Y-107049000D01*
X180467000Y-108445000D01*
X180841855Y-108445000D01*
X180882989Y-108442210D01*
X181060813Y-108397987D01*
X181224966Y-108316575D01*
X181367776Y-108201781D01*
X181384470Y-108181013D01*
X181428226Y-108146325D01*
X181482676Y-108133951D01*
X181537126Y-108146323D01*
X181580883Y-108181010D01*
X181597863Y-108202134D01*
X181740761Y-108316998D01*
X181740762Y-108316998D01*
X181740764Y-108317000D01*
X181905015Y-108398461D01*
X182082938Y-108442708D01*
X182100583Y-108443904D01*
X182124106Y-108445500D01*
X182124110Y-108445500D01*
X183381890Y-108445500D01*
X183381894Y-108445500D01*
X183402475Y-108444104D01*
X183423062Y-108442708D01*
X183600985Y-108398461D01*
X183765236Y-108317000D01*
X183908135Y-108202135D01*
X183925114Y-108181011D01*
X183968871Y-108146324D01*
X184023321Y-108133951D01*
X184077771Y-108146324D01*
X184121528Y-108181012D01*
X184138221Y-108201780D01*
X184281033Y-108316575D01*
X184445186Y-108397987D01*
X184623010Y-108442210D01*
X184664145Y-108445000D01*
X185039000Y-108445000D01*
X185039000Y-107049000D01*
X185055881Y-106986000D01*
X185102000Y-106939881D01*
X185165000Y-106923000D01*
X185421000Y-106923000D01*
X185484000Y-106939881D01*
X185530119Y-106986000D01*
X185547000Y-107049000D01*
X185547000Y-108445000D01*
X185921855Y-108445000D01*
X185962989Y-108442210D01*
X186140813Y-108397987D01*
X186304966Y-108316575D01*
X186447776Y-108201781D01*
X186464470Y-108181013D01*
X186508226Y-108146325D01*
X186562676Y-108133951D01*
X186617126Y-108146323D01*
X186660883Y-108181010D01*
X186677863Y-108202134D01*
X186820761Y-108316998D01*
X186820762Y-108316998D01*
X186820764Y-108317000D01*
X186985015Y-108398461D01*
X187162938Y-108442708D01*
X187180583Y-108443904D01*
X187204106Y-108445500D01*
X187204110Y-108445500D01*
X188461890Y-108445500D01*
X188461894Y-108445500D01*
X188482475Y-108444104D01*
X188503062Y-108442708D01*
X188680985Y-108398461D01*
X188845236Y-108317000D01*
X188988135Y-108202135D01*
X189005114Y-108181011D01*
X189048871Y-108146324D01*
X189103321Y-108133951D01*
X189157771Y-108146324D01*
X189201528Y-108181012D01*
X189218221Y-108201780D01*
X189361033Y-108316575D01*
X189525186Y-108397987D01*
X189703010Y-108442210D01*
X189744145Y-108445000D01*
X190119000Y-108445000D01*
X190119000Y-107049000D01*
X190135881Y-106986000D01*
X190182000Y-106939881D01*
X190245000Y-106923000D01*
X190501000Y-106923000D01*
X190564000Y-106939881D01*
X190610119Y-106986000D01*
X190627000Y-107049000D01*
X190627000Y-108445000D01*
X191001855Y-108445000D01*
X191042989Y-108442210D01*
X191220813Y-108397987D01*
X191384966Y-108316575D01*
X191527776Y-108201781D01*
X191544470Y-108181013D01*
X191588226Y-108146325D01*
X191642676Y-108133951D01*
X191697126Y-108146323D01*
X191740883Y-108181010D01*
X191757863Y-108202134D01*
X191900761Y-108316998D01*
X191900762Y-108316998D01*
X191900764Y-108317000D01*
X192065015Y-108398461D01*
X192242938Y-108442708D01*
X192260583Y-108443904D01*
X192284106Y-108445500D01*
X192284110Y-108445500D01*
X193541890Y-108445500D01*
X193541894Y-108445500D01*
X193562475Y-108444104D01*
X193583062Y-108442708D01*
X193760985Y-108398461D01*
X193925236Y-108317000D01*
X194068135Y-108202135D01*
X194183000Y-108059236D01*
X194264461Y-107894985D01*
X194308708Y-107717062D01*
X194311500Y-107675890D01*
X194311500Y-106678110D01*
X194308708Y-106636938D01*
X194264461Y-106459015D01*
X194183000Y-106294764D01*
X194122942Y-106220048D01*
X194068135Y-106151864D01*
X193925238Y-106037001D01*
X193760984Y-105955538D01*
X193583058Y-105911291D01*
X193541894Y-105908500D01*
X193541890Y-105908500D01*
X193448127Y-105908500D01*
X193391264Y-105894939D01*
X193346640Y-105857176D01*
X193323862Y-105803338D01*
X193327832Y-105745015D01*
X193345804Y-105687338D01*
X193370013Y-105609649D01*
X193376500Y-105538265D01*
X193376499Y-104873736D01*
X193370013Y-104802351D01*
X193318827Y-104638087D01*
X193229816Y-104490845D01*
X193229815Y-104490844D01*
X193229814Y-104490842D01*
X193108157Y-104369185D01*
X193061986Y-104341274D01*
X192960913Y-104280173D01*
X192890841Y-104258338D01*
X192796648Y-104228986D01*
X192731750Y-104223089D01*
X192725264Y-104222500D01*
X192210735Y-104222500D01*
X192139351Y-104228986D01*
X191975087Y-104280173D01*
X191827842Y-104369185D01*
X191732095Y-104464933D01*
X191675611Y-104497545D01*
X191610389Y-104497545D01*
X191553905Y-104464933D01*
X191458157Y-104369185D01*
X191411986Y-104341274D01*
X191310913Y-104280173D01*
X191240841Y-104258338D01*
X191146648Y-104228986D01*
X191081750Y-104223089D01*
X191075264Y-104222500D01*
X190560735Y-104222500D01*
X190489351Y-104228986D01*
X190325087Y-104280173D01*
X190177842Y-104369185D01*
X190086433Y-104460595D01*
X190045556Y-104487909D01*
X189997338Y-104497500D01*
X189117660Y-104497500D01*
X189069442Y-104487909D01*
X189028565Y-104460595D01*
X179818827Y-95250857D01*
X179813610Y-95245316D01*
X179773273Y-95199785D01*
X179742743Y-95178711D01*
X179723220Y-95165235D01*
X179717092Y-95160725D01*
X179669224Y-95123223D01*
X179659922Y-95119036D01*
X179640068Y-95107839D01*
X179638781Y-95106951D01*
X179631675Y-95102046D01*
X179631673Y-95102045D01*
X179574822Y-95080483D01*
X179567794Y-95077572D01*
X179512329Y-95052610D01*
X179502289Y-95050770D01*
X179480332Y-95044649D01*
X179470801Y-95041035D01*
X179410432Y-95033704D01*
X179402914Y-95032559D01*
X179395153Y-95031137D01*
X179343093Y-95021597D01*
X179282390Y-95025270D01*
X179274782Y-95025500D01*
X125267000Y-95025500D01*
X125204000Y-95008619D01*
X125157881Y-94962500D01*
X125144476Y-94912475D01*
X125141001Y-94909000D01*
X124105000Y-94909000D01*
X124042000Y-94892119D01*
X123995881Y-94846000D01*
X123979000Y-94783000D01*
X123979000Y-93672001D01*
X123975775Y-93672001D01*
X123904443Y-93678481D01*
X123740293Y-93729633D01*
X123715630Y-93744543D01*
X123658053Y-93762484D01*
X123598734Y-93751613D01*
X123551261Y-93714420D01*
X123532169Y-93672000D01*
X124487000Y-93672000D01*
X124487000Y-94401000D01*
X125140999Y-94401000D01*
X125140999Y-94322775D01*
X125134518Y-94251443D01*
X125083366Y-94087293D01*
X124994417Y-93940153D01*
X124872846Y-93818582D01*
X124725706Y-93729633D01*
X124561555Y-93678481D01*
X124490226Y-93672000D01*
X124487000Y-93672000D01*
X123532169Y-93672000D01*
X123526510Y-93659426D01*
X123530151Y-93599228D01*
X123561351Y-93547619D01*
X123804534Y-93304436D01*
X123833507Y-93282800D01*
X123867427Y-93270285D01*
X124020288Y-93237794D01*
X124194752Y-93160118D01*
X124349253Y-93047866D01*
X124377817Y-93016142D01*
X124425444Y-92983153D01*
X124482799Y-92974965D01*
X124537756Y-92993309D01*
X124578692Y-93034304D01*
X124658715Y-93164040D01*
X124658717Y-93164043D01*
X124779956Y-93285282D01*
X124779958Y-93285283D01*
X124779960Y-93285285D01*
X124925899Y-93375302D01*
X125088664Y-93429236D01*
X125189128Y-93439500D01*
X125736868Y-93439500D01*
X125736872Y-93439500D01*
X125837336Y-93429236D01*
X126000101Y-93375302D01*
X126146040Y-93285285D01*
X126149254Y-93282070D01*
X126205735Y-93249457D01*
X126270960Y-93249455D01*
X126327447Y-93282067D01*
X126330268Y-93284888D01*
X126476114Y-93374847D01*
X126638760Y-93428743D01*
X126739161Y-93439000D01*
X126759000Y-93439000D01*
X126759000Y-92710000D01*
X127267000Y-92710000D01*
X127267000Y-93439000D01*
X127286839Y-93439000D01*
X127387239Y-93428743D01*
X127549885Y-93374847D01*
X127695731Y-93284888D01*
X127816888Y-93163731D01*
X127906847Y-93017885D01*
X127924703Y-92964000D01*
X130468000Y-92964000D01*
X130468000Y-93608589D01*
X130474505Y-93669093D01*
X130525554Y-93805962D01*
X130613095Y-93922904D01*
X130730037Y-94010445D01*
X130866906Y-94061494D01*
X130927411Y-94068000D01*
X131572000Y-94068000D01*
X131572000Y-92964000D01*
X132080000Y-92964000D01*
X132080000Y-94068000D01*
X132724589Y-94068000D01*
X132785093Y-94061494D01*
X132921962Y-94010445D01*
X133038904Y-93922904D01*
X133126445Y-93805962D01*
X133177494Y-93669093D01*
X133184000Y-93608589D01*
X133184000Y-92964000D01*
X132080000Y-92964000D01*
X131572000Y-92964000D01*
X130468000Y-92964000D01*
X127924703Y-92964000D01*
X127960743Y-92855239D01*
X127971000Y-92754839D01*
X127971000Y-92710000D01*
X127267000Y-92710000D01*
X126759000Y-92710000D01*
X126759000Y-92456000D01*
X130468000Y-92456000D01*
X131572000Y-92456000D01*
X131572000Y-91352000D01*
X132080000Y-91352000D01*
X132080000Y-92456000D01*
X133184000Y-92456000D01*
X133184000Y-91811411D01*
X133177494Y-91750906D01*
X133126445Y-91614037D01*
X133038904Y-91497095D01*
X132921962Y-91409554D01*
X132785093Y-91358505D01*
X132724589Y-91352000D01*
X132080000Y-91352000D01*
X131572000Y-91352000D01*
X130927411Y-91352000D01*
X130866906Y-91358505D01*
X130730037Y-91409554D01*
X130613095Y-91497095D01*
X130525554Y-91614037D01*
X130474505Y-91750906D01*
X130468000Y-91811411D01*
X130468000Y-92456000D01*
X126759000Y-92456000D01*
X126759000Y-91473000D01*
X127267000Y-91473000D01*
X127267000Y-92202000D01*
X127971000Y-92202000D01*
X127971000Y-92157161D01*
X127960743Y-92056760D01*
X127906847Y-91894114D01*
X127816888Y-91748268D01*
X127695731Y-91627111D01*
X127549885Y-91537152D01*
X127387239Y-91483256D01*
X127286839Y-91473000D01*
X127267000Y-91473000D01*
X126759000Y-91473000D01*
X126759000Y-91472999D01*
X126754579Y-91468578D01*
X126721967Y-91412094D01*
X126721967Y-91346872D01*
X126754575Y-91290393D01*
X129516332Y-88528638D01*
X133769500Y-88528638D01*
X133776011Y-88589201D01*
X133785562Y-88614807D01*
X133827111Y-88726205D01*
X133914738Y-88843261D01*
X134031794Y-88930888D01*
X134031795Y-88930888D01*
X134031796Y-88930889D01*
X134168799Y-88981989D01*
X134229362Y-88988500D01*
X136026638Y-88988500D01*
X136087201Y-88981989D01*
X136224204Y-88930889D01*
X136341261Y-88843261D01*
X136428889Y-88726204D01*
X136479989Y-88589201D01*
X136486500Y-88528638D01*
X136486500Y-86731362D01*
X136479989Y-86670799D01*
X136428889Y-86533796D01*
X136412200Y-86511502D01*
X136341261Y-86416738D01*
X136224205Y-86329111D01*
X136103019Y-86283911D01*
X136087201Y-86278011D01*
X136026638Y-86271500D01*
X134229362Y-86271500D01*
X134168799Y-86278011D01*
X134031794Y-86329111D01*
X133914738Y-86416738D01*
X133827111Y-86533794D01*
X133782177Y-86654267D01*
X133776011Y-86670799D01*
X133769500Y-86731362D01*
X133769500Y-88528638D01*
X129516332Y-88528638D01*
X130114537Y-87930433D01*
X130143507Y-87908800D01*
X130177427Y-87896285D01*
X130330288Y-87863794D01*
X130504752Y-87786118D01*
X130659253Y-87673866D01*
X130787040Y-87531944D01*
X130882527Y-87366556D01*
X130885124Y-87358561D01*
X130922447Y-87302269D01*
X130953397Y-87275451D01*
X131016179Y-87221051D01*
X131068011Y-87169220D01*
X131111938Y-87110540D01*
X131189670Y-86989586D01*
X131250413Y-86856577D01*
X131290920Y-86718622D01*
X131311729Y-86573889D01*
X131311729Y-86002000D01*
X131294224Y-85869037D01*
X131294221Y-85869031D01*
X131294145Y-85868448D01*
X131294145Y-85835552D01*
X131294221Y-85834968D01*
X131294224Y-85834963D01*
X131311729Y-85702000D01*
X131311729Y-85130111D01*
X131290920Y-84985378D01*
X131250413Y-84847423D01*
X131189670Y-84714414D01*
X131189669Y-84714413D01*
X131189668Y-84714410D01*
X131111941Y-84593464D01*
X131071498Y-84539438D01*
X131068011Y-84534780D01*
X131016179Y-84482949D01*
X130907518Y-84388795D01*
X130845176Y-84348730D01*
X130814379Y-84328938D01*
X130771912Y-84283325D01*
X130756500Y-84222940D01*
X130756500Y-84210662D01*
X130766091Y-84162444D01*
X130793405Y-84121567D01*
X130884814Y-84030157D01*
X130884814Y-84030156D01*
X130884816Y-84030155D01*
X130962430Y-83901766D01*
X208624787Y-83901766D01*
X208654413Y-84171015D01*
X208683741Y-84283194D01*
X208722928Y-84433088D01*
X208828870Y-84682390D01*
X208969982Y-84913610D01*
X209143255Y-85121820D01*
X209143256Y-85121821D01*
X209143258Y-85121823D01*
X209344993Y-85302578D01*
X209344995Y-85302579D01*
X209344998Y-85302582D01*
X209570910Y-85452044D01*
X209703104Y-85514014D01*
X209816171Y-85567018D01*
X209816173Y-85567018D01*
X209816176Y-85567020D01*
X210075569Y-85645060D01*
X210075572Y-85645060D01*
X210075574Y-85645061D01*
X210343558Y-85684500D01*
X210343561Y-85684500D01*
X210546630Y-85684500D01*
X210546631Y-85684500D01*
X210749156Y-85669677D01*
X211013553Y-85610780D01*
X211266558Y-85514014D01*
X211502777Y-85381441D01*
X211717177Y-85215888D01*
X211905186Y-85020881D01*
X212062799Y-84800579D01*
X212186656Y-84559675D01*
X212274118Y-84303305D01*
X212323319Y-84036933D01*
X212333212Y-83766235D01*
X212329626Y-83733648D01*
X212303586Y-83496984D01*
X212303586Y-83496982D01*
X212235072Y-83234912D01*
X212129130Y-82985610D01*
X211988018Y-82754390D01*
X211814745Y-82546180D01*
X211806925Y-82539173D01*
X211613006Y-82365421D01*
X211613003Y-82365419D01*
X211613002Y-82365418D01*
X211387090Y-82215956D01*
X211350920Y-82199000D01*
X211141828Y-82100981D01*
X210882425Y-82022938D01*
X210614442Y-81983500D01*
X210614439Y-81983500D01*
X210411369Y-81983500D01*
X210377614Y-81985970D01*
X210208839Y-81998323D01*
X209944449Y-82057219D01*
X209691441Y-82153985D01*
X209455225Y-82286557D01*
X209240820Y-82452114D01*
X209052815Y-82647117D01*
X208895200Y-82867422D01*
X208771342Y-83108328D01*
X208683882Y-83364693D01*
X208634681Y-83631065D01*
X208624787Y-83901766D01*
X130962430Y-83901766D01*
X130973827Y-83882913D01*
X131025013Y-83718649D01*
X131031500Y-83647265D01*
X131031499Y-83132736D01*
X131025013Y-83061351D01*
X130973827Y-82897087D01*
X130884816Y-82749845D01*
X130788710Y-82653739D01*
X130756100Y-82597257D01*
X130756100Y-82532035D01*
X130788712Y-82475550D01*
X130884419Y-82379843D01*
X130973366Y-82232706D01*
X131024518Y-82068555D01*
X131031000Y-81997226D01*
X131031000Y-81994000D01*
X129065001Y-81994000D01*
X129065001Y-81997225D01*
X129071481Y-82068556D01*
X129122633Y-82232706D01*
X129211582Y-82379846D01*
X129307287Y-82475551D01*
X129339899Y-82532035D01*
X129339899Y-82597257D01*
X129307287Y-82653741D01*
X129211185Y-82749842D01*
X129122173Y-82897087D01*
X129070986Y-83061351D01*
X129064500Y-83132735D01*
X129064500Y-83647264D01*
X129070986Y-83718648D01*
X129085815Y-83766235D01*
X129122173Y-83882913D01*
X129187433Y-83990866D01*
X129211185Y-84030157D01*
X129302595Y-84121567D01*
X129329909Y-84162444D01*
X129339500Y-84210662D01*
X129339500Y-84222940D01*
X129324088Y-84283325D01*
X129281621Y-84328938D01*
X129188482Y-84388795D01*
X129079820Y-84482949D01*
X129027989Y-84534779D01*
X128984058Y-84593464D01*
X128901460Y-84721992D01*
X128900001Y-84721054D01*
X128884133Y-84743894D01*
X128773556Y-84854471D01*
X128722112Y-84885619D01*
X128662089Y-84889374D01*
X128607164Y-84864880D01*
X128569847Y-84817718D01*
X128556363Y-84788193D01*
X128522670Y-84714414D01*
X128522669Y-84714413D01*
X128522668Y-84714410D01*
X128444941Y-84593464D01*
X128404498Y-84539438D01*
X128401011Y-84534780D01*
X128349179Y-84482949D01*
X128240518Y-84388795D01*
X128149033Y-84330001D01*
X128109959Y-84290223D01*
X128091878Y-84237473D01*
X128098333Y-84182086D01*
X128128059Y-84134911D01*
X128217816Y-84045155D01*
X128306827Y-83897913D01*
X128358013Y-83733649D01*
X128364500Y-83662265D01*
X128364499Y-83147736D01*
X128363828Y-83140356D01*
X128358013Y-83076351D01*
X128353339Y-83061351D01*
X128306827Y-82912087D01*
X128217816Y-82764845D01*
X128121710Y-82668739D01*
X128089100Y-82612257D01*
X128089100Y-82547035D01*
X128121712Y-82490550D01*
X128217419Y-82394843D01*
X128306366Y-82247706D01*
X128357518Y-82083555D01*
X128364000Y-82012226D01*
X128364000Y-82009000D01*
X126398001Y-82009000D01*
X126398001Y-82012225D01*
X126404481Y-82083556D01*
X126455633Y-82247706D01*
X126544582Y-82394846D01*
X126640287Y-82490551D01*
X126672899Y-82547035D01*
X126672899Y-82612257D01*
X126640287Y-82668741D01*
X126544185Y-82764842D01*
X126455173Y-82912087D01*
X126403986Y-83076351D01*
X126397500Y-83147735D01*
X126397500Y-83662264D01*
X126403986Y-83733648D01*
X126414140Y-83766233D01*
X126455173Y-83897913D01*
X126511365Y-83990866D01*
X126544185Y-84045157D01*
X126633938Y-84134910D01*
X126663666Y-84182087D01*
X126670121Y-84237473D01*
X126652040Y-84290223D01*
X126612964Y-84330003D01*
X126521482Y-84388795D01*
X126412820Y-84482949D01*
X126360989Y-84534779D01*
X126317058Y-84593464D01*
X126239331Y-84714410D01*
X126178584Y-84847429D01*
X126171013Y-84873214D01*
X126139213Y-84926809D01*
X126135165Y-84930857D01*
X126079405Y-84963272D01*
X126014909Y-84963848D01*
X125958579Y-84932434D01*
X125925174Y-84877261D01*
X125923986Y-84873214D01*
X125916413Y-84847423D01*
X125855670Y-84714414D01*
X125855669Y-84714413D01*
X125855668Y-84714410D01*
X125777941Y-84593464D01*
X125737498Y-84539438D01*
X125734011Y-84534780D01*
X125682179Y-84482949D01*
X125573518Y-84388795D01*
X125511176Y-84348730D01*
X125480379Y-84328938D01*
X125437912Y-84283325D01*
X125422500Y-84222940D01*
X125422500Y-84210662D01*
X125432091Y-84162444D01*
X125459405Y-84121567D01*
X125550814Y-84030157D01*
X125550814Y-84030156D01*
X125550816Y-84030155D01*
X125639827Y-83882913D01*
X125691013Y-83718649D01*
X125697500Y-83647265D01*
X125697499Y-83132736D01*
X125691013Y-83061351D01*
X125639827Y-82897087D01*
X125550816Y-82749845D01*
X125454710Y-82653739D01*
X125422100Y-82597257D01*
X125422100Y-82532035D01*
X125454712Y-82475550D01*
X125550419Y-82379843D01*
X125639366Y-82232706D01*
X125690518Y-82068555D01*
X125697000Y-81997226D01*
X125697000Y-81994000D01*
X123731001Y-81994000D01*
X123731001Y-81997225D01*
X123737481Y-82068556D01*
X123788633Y-82232706D01*
X123877582Y-82379846D01*
X123973287Y-82475551D01*
X124005899Y-82532035D01*
X124005899Y-82597257D01*
X123973287Y-82653741D01*
X123877185Y-82749842D01*
X123788173Y-82897087D01*
X123736986Y-83061351D01*
X123730500Y-83132735D01*
X123730500Y-83647264D01*
X123736986Y-83718648D01*
X123751815Y-83766235D01*
X123788173Y-83882913D01*
X123853433Y-83990866D01*
X123877185Y-84030157D01*
X123968595Y-84121567D01*
X123995909Y-84162444D01*
X124005500Y-84210662D01*
X124005500Y-84222940D01*
X123990088Y-84283325D01*
X123947621Y-84328938D01*
X123854482Y-84388795D01*
X123745820Y-84482949D01*
X123693989Y-84534779D01*
X123650058Y-84593464D01*
X123572331Y-84714410D01*
X123511584Y-84847429D01*
X123504013Y-84873214D01*
X123472213Y-84926809D01*
X123468165Y-84930857D01*
X123412405Y-84963272D01*
X123347909Y-84963848D01*
X123291579Y-84932434D01*
X123258174Y-84877261D01*
X123256986Y-84873214D01*
X123249413Y-84847423D01*
X123188670Y-84714414D01*
X123188669Y-84714413D01*
X123188668Y-84714410D01*
X123110941Y-84593464D01*
X123070498Y-84539438D01*
X123067011Y-84534780D01*
X123015179Y-84482949D01*
X122906518Y-84388795D01*
X122844176Y-84348730D01*
X122813379Y-84328938D01*
X122770912Y-84283325D01*
X122755500Y-84222940D01*
X122755500Y-84210662D01*
X122765091Y-84162444D01*
X122792405Y-84121567D01*
X122883814Y-84030157D01*
X122883814Y-84030156D01*
X122883816Y-84030155D01*
X122972827Y-83882913D01*
X123024013Y-83718649D01*
X123030500Y-83647265D01*
X123030499Y-83132736D01*
X123024013Y-83061351D01*
X122972827Y-82897087D01*
X122883816Y-82749845D01*
X122787710Y-82653739D01*
X122755100Y-82597257D01*
X122755100Y-82532035D01*
X122787712Y-82475550D01*
X122883419Y-82379843D01*
X122972366Y-82232706D01*
X123023518Y-82068555D01*
X123030000Y-81997226D01*
X123030000Y-81994000D01*
X121064001Y-81994000D01*
X121064001Y-81997225D01*
X121070481Y-82068556D01*
X121121633Y-82232706D01*
X121210582Y-82379846D01*
X121306287Y-82475551D01*
X121338899Y-82532035D01*
X121338899Y-82597257D01*
X121306287Y-82653741D01*
X121210185Y-82749842D01*
X121121173Y-82897087D01*
X121069986Y-83061351D01*
X121063500Y-83132735D01*
X121063500Y-83647264D01*
X121069986Y-83718648D01*
X121084815Y-83766235D01*
X121121173Y-83882913D01*
X121186433Y-83990866D01*
X121210185Y-84030157D01*
X121301595Y-84121567D01*
X121328909Y-84162444D01*
X121338500Y-84210662D01*
X121338500Y-84222940D01*
X121323088Y-84283325D01*
X121280621Y-84328938D01*
X121187482Y-84388795D01*
X121078820Y-84482949D01*
X121026989Y-84534779D01*
X120983058Y-84593464D01*
X120905331Y-84714410D01*
X120844584Y-84847429D01*
X120837013Y-84873214D01*
X120805213Y-84926809D01*
X120801165Y-84930857D01*
X120745405Y-84963272D01*
X120680909Y-84963848D01*
X120624579Y-84932434D01*
X120591174Y-84877261D01*
X120589986Y-84873214D01*
X120582413Y-84847423D01*
X120521670Y-84714414D01*
X120521669Y-84714413D01*
X120521668Y-84714410D01*
X120443941Y-84593464D01*
X120403498Y-84539438D01*
X120400011Y-84534780D01*
X120348179Y-84482949D01*
X120239518Y-84388795D01*
X120177176Y-84348730D01*
X120146379Y-84328938D01*
X120103912Y-84283325D01*
X120088500Y-84222940D01*
X120088500Y-84210662D01*
X120098091Y-84162444D01*
X120125405Y-84121567D01*
X120216814Y-84030157D01*
X120216814Y-84030156D01*
X120216816Y-84030155D01*
X120305827Y-83882913D01*
X120357013Y-83718649D01*
X120363500Y-83647265D01*
X120363499Y-83132736D01*
X120357013Y-83061351D01*
X120305827Y-82897087D01*
X120216816Y-82749845D01*
X120120710Y-82653739D01*
X120088100Y-82597257D01*
X120088100Y-82532035D01*
X120120712Y-82475550D01*
X120216419Y-82379843D01*
X120305366Y-82232706D01*
X120356518Y-82068555D01*
X120363000Y-81997226D01*
X120363000Y-81994000D01*
X118397001Y-81994000D01*
X118397001Y-81997225D01*
X118403481Y-82068556D01*
X118454633Y-82232706D01*
X118543582Y-82379846D01*
X118639287Y-82475551D01*
X118671899Y-82532035D01*
X118671899Y-82597257D01*
X118639287Y-82653741D01*
X118543185Y-82749842D01*
X118454173Y-82897087D01*
X118402986Y-83061351D01*
X118396500Y-83132735D01*
X118396500Y-83647264D01*
X118402986Y-83718648D01*
X118417815Y-83766235D01*
X118454173Y-83882913D01*
X118519433Y-83990866D01*
X118543185Y-84030157D01*
X118634595Y-84121567D01*
X118661909Y-84162444D01*
X118671500Y-84210662D01*
X118671500Y-84222940D01*
X118656088Y-84283325D01*
X118613621Y-84328938D01*
X118520482Y-84388795D01*
X118411820Y-84482949D01*
X118359989Y-84534779D01*
X118316058Y-84593464D01*
X118238331Y-84714410D01*
X118177584Y-84847429D01*
X118170013Y-84873214D01*
X118138213Y-84926809D01*
X118134165Y-84930857D01*
X118078405Y-84963272D01*
X118013909Y-84963848D01*
X117957579Y-84932434D01*
X117924174Y-84877261D01*
X117922986Y-84873214D01*
X117915413Y-84847423D01*
X117854670Y-84714414D01*
X117854669Y-84714413D01*
X117854668Y-84714410D01*
X117776941Y-84593464D01*
X117736498Y-84539438D01*
X117733011Y-84534780D01*
X117681179Y-84482949D01*
X117572518Y-84388795D01*
X117481033Y-84330001D01*
X117441959Y-84290223D01*
X117423878Y-84237473D01*
X117430333Y-84182086D01*
X117460059Y-84134911D01*
X117549816Y-84045155D01*
X117638827Y-83897913D01*
X117690013Y-83733649D01*
X117696500Y-83662265D01*
X117696499Y-83147736D01*
X117695828Y-83140356D01*
X117690013Y-83076351D01*
X117685339Y-83061351D01*
X117638827Y-82912087D01*
X117549816Y-82764845D01*
X117453710Y-82668739D01*
X117421100Y-82612257D01*
X117421100Y-82547035D01*
X117453712Y-82490550D01*
X117549419Y-82394843D01*
X117638366Y-82247706D01*
X117689518Y-82083555D01*
X117696000Y-82012226D01*
X117696000Y-82009000D01*
X115730001Y-82009000D01*
X115730001Y-82012225D01*
X115736481Y-82083556D01*
X115787633Y-82247706D01*
X115876582Y-82394846D01*
X115972287Y-82490551D01*
X116004899Y-82547035D01*
X116004899Y-82612257D01*
X115972287Y-82668741D01*
X115876185Y-82764842D01*
X115787173Y-82912087D01*
X115735986Y-83076351D01*
X115729500Y-83147735D01*
X115729500Y-83662264D01*
X115735986Y-83733648D01*
X115746140Y-83766233D01*
X115787173Y-83897913D01*
X115843365Y-83990866D01*
X115876185Y-84045157D01*
X115965938Y-84134910D01*
X115995666Y-84182087D01*
X116002121Y-84237473D01*
X115984040Y-84290223D01*
X115944964Y-84330003D01*
X115853482Y-84388795D01*
X115744820Y-84482949D01*
X115692989Y-84534779D01*
X115649058Y-84593464D01*
X115571331Y-84714410D01*
X115510584Y-84847429D01*
X115503013Y-84873214D01*
X115471213Y-84926809D01*
X113839356Y-86558666D01*
X113833817Y-86563882D01*
X113788282Y-86604223D01*
X113753738Y-86654267D01*
X113749231Y-86660392D01*
X113711724Y-86708268D01*
X113707536Y-86717572D01*
X113696343Y-86737417D01*
X113690548Y-86745813D01*
X113668982Y-86802677D01*
X113666070Y-86809705D01*
X113641111Y-86865162D01*
X113639271Y-86875204D01*
X113633151Y-86897156D01*
X113629535Y-86906691D01*
X113622205Y-86967048D01*
X113621061Y-86974565D01*
X113610097Y-87034400D01*
X113613770Y-87095104D01*
X113614000Y-87102712D01*
X113614000Y-91020583D01*
X113604409Y-91068801D01*
X113577095Y-91109679D01*
X113536218Y-91136992D01*
X113526150Y-91141161D01*
X113526150Y-91141162D01*
X113501971Y-91151176D01*
X113378124Y-91202475D01*
X113251013Y-91300013D01*
X113153475Y-91427124D01*
X113092161Y-91575151D01*
X113076500Y-91694114D01*
X113076500Y-91973885D01*
X113092161Y-92092851D01*
X113099590Y-92110785D01*
X113109180Y-92159000D01*
X113099590Y-92207215D01*
X113092161Y-92225148D01*
X113076500Y-92344114D01*
X113076500Y-92623885D01*
X113092161Y-92742850D01*
X113099589Y-92760782D01*
X113109180Y-92808998D01*
X113099590Y-92857213D01*
X113092162Y-92875146D01*
X113076500Y-92994114D01*
X113076500Y-93273885D01*
X113092161Y-93392851D01*
X113099590Y-93410785D01*
X113109180Y-93459000D01*
X113099590Y-93507215D01*
X113092161Y-93525148D01*
X113076500Y-93644114D01*
X113076500Y-93923885D01*
X113092161Y-94042850D01*
X113099589Y-94060782D01*
X113109180Y-94108998D01*
X113099590Y-94157213D01*
X113092162Y-94175146D01*
X113080208Y-94265947D01*
X113058499Y-94321771D01*
X113013466Y-94361263D01*
X112955286Y-94375500D01*
X112198127Y-94375500D01*
X112190520Y-94375270D01*
X112188444Y-94375144D01*
X112129810Y-94371597D01*
X112069994Y-94382559D01*
X112062473Y-94383704D01*
X112002101Y-94391035D01*
X111992566Y-94394651D01*
X111970615Y-94400770D01*
X111969364Y-94401000D01*
X111960572Y-94402611D01*
X111905117Y-94427569D01*
X111898090Y-94430480D01*
X111841226Y-94452046D01*
X111832830Y-94457842D01*
X111812980Y-94469038D01*
X111803680Y-94473224D01*
X111803678Y-94473225D01*
X111803679Y-94473225D01*
X111755803Y-94510731D01*
X111749689Y-94515230D01*
X111699634Y-94549781D01*
X111659292Y-94595317D01*
X111654076Y-94600856D01*
X107276856Y-98978076D01*
X107271317Y-98983292D01*
X107225782Y-99023633D01*
X107191238Y-99073677D01*
X107186731Y-99079802D01*
X107149224Y-99127678D01*
X107145036Y-99136982D01*
X107133843Y-99156827D01*
X107128048Y-99165223D01*
X107106482Y-99222087D01*
X107103570Y-99229115D01*
X107078611Y-99284572D01*
X107076771Y-99294614D01*
X107070651Y-99316566D01*
X107067035Y-99326101D01*
X107059705Y-99386458D01*
X107058561Y-99393975D01*
X107047597Y-99453810D01*
X107051270Y-99514514D01*
X107051500Y-99522122D01*
X107051500Y-104258338D01*
X107041909Y-104306556D01*
X107014595Y-104347433D01*
X106998185Y-104363842D01*
X106909173Y-104511087D01*
X106857986Y-104675351D01*
X106851500Y-104746735D01*
X106851500Y-105411264D01*
X106857986Y-105482647D01*
X106857987Y-105482649D01*
X106900632Y-105619505D01*
X106903752Y-105629515D01*
X106907722Y-105687838D01*
X106884944Y-105741676D01*
X106840320Y-105779439D01*
X106783457Y-105793000D01*
X106559145Y-105793000D01*
X106518010Y-105795789D01*
X106340186Y-105840012D01*
X106176033Y-105921424D01*
X106033220Y-106036220D01*
X105918424Y-106179033D01*
X105837012Y-106343186D01*
X105792789Y-106521010D01*
X105790000Y-106562145D01*
X105790000Y-106807000D01*
X90844500Y-106807000D01*
X90844500Y-89957443D01*
X97187268Y-89957443D01*
X97191430Y-90001462D01*
X97191989Y-90013320D01*
X97191989Y-94285636D01*
X97189693Y-94306424D01*
X97191927Y-94377475D01*
X97191989Y-94381434D01*
X97191989Y-94409346D01*
X97192496Y-94413362D01*
X97193426Y-94425185D01*
X97194815Y-94469381D01*
X97200466Y-94488830D01*
X97204475Y-94508185D01*
X97207014Y-94528283D01*
X97207014Y-94528285D01*
X97207015Y-94528286D01*
X97215525Y-94549781D01*
X97223290Y-94569392D01*
X97227133Y-94580619D01*
X97239469Y-94623079D01*
X97249783Y-94640519D01*
X97258476Y-94658263D01*
X97265937Y-94677106D01*
X97265938Y-94677108D01*
X97291920Y-94712869D01*
X97298437Y-94722790D01*
X97320947Y-94760852D01*
X97335267Y-94775172D01*
X97348107Y-94790205D01*
X97360015Y-94806594D01*
X97394087Y-94834781D01*
X97402867Y-94842771D01*
X97604595Y-95044499D01*
X97631909Y-95085376D01*
X97641500Y-95133594D01*
X97641500Y-96442638D01*
X97648011Y-96503201D01*
X97655726Y-96523885D01*
X97699111Y-96640205D01*
X97786738Y-96757261D01*
X97903794Y-96844888D01*
X97903795Y-96844888D01*
X97903796Y-96844889D01*
X98040799Y-96895989D01*
X98101362Y-96902500D01*
X99898638Y-96902500D01*
X99959201Y-96895989D01*
X100096204Y-96844889D01*
X100213261Y-96757261D01*
X100300889Y-96640204D01*
X100351989Y-96503201D01*
X100358500Y-96442638D01*
X100358500Y-94645362D01*
X100351989Y-94584799D01*
X100300889Y-94447796D01*
X100300888Y-94447794D01*
X100213261Y-94330738D01*
X100096205Y-94243111D01*
X100014493Y-94212634D01*
X99981191Y-94200213D01*
X99930858Y-94165650D01*
X99902684Y-94111480D01*
X99903287Y-94050424D01*
X99932522Y-93996822D01*
X100075722Y-93841268D01*
X100198860Y-93652791D01*
X100289296Y-93446616D01*
X100344564Y-93228368D01*
X100363156Y-93004000D01*
X100344564Y-92779632D01*
X100289296Y-92561384D01*
X100198860Y-92355209D01*
X100075722Y-92166732D01*
X99923240Y-92001094D01*
X99923239Y-92001093D01*
X99923237Y-92001091D01*
X99745579Y-91862813D01*
X99745577Y-91862812D01*
X99745576Y-91862811D01*
X99712317Y-91844812D01*
X99664047Y-91798498D01*
X99646288Y-91734000D01*
X99664047Y-91669502D01*
X99712317Y-91623187D01*
X99745576Y-91605189D01*
X99923240Y-91466906D01*
X100075722Y-91301268D01*
X100198860Y-91112791D01*
X100289296Y-90906616D01*
X100344564Y-90688368D01*
X100363156Y-90464000D01*
X100344564Y-90239632D01*
X100289296Y-90021384D01*
X100198860Y-89815209D01*
X100075722Y-89626732D01*
X100056200Y-89605526D01*
X100026344Y-89549435D01*
X100027657Y-89485904D01*
X100059806Y-89431096D01*
X100748128Y-88742776D01*
X100886405Y-88604500D01*
X100936564Y-88573763D01*
X100995211Y-88569147D01*
X101049561Y-88591660D01*
X101087767Y-88636393D01*
X101101500Y-88693596D01*
X101101500Y-91190147D01*
X101099204Y-91210935D01*
X101101438Y-91281986D01*
X101101500Y-91285945D01*
X101101500Y-91313857D01*
X101102007Y-91317873D01*
X101102937Y-91329696D01*
X101104326Y-91373892D01*
X101109977Y-91393341D01*
X101113986Y-91412696D01*
X101116525Y-91432794D01*
X101116525Y-91432796D01*
X101116526Y-91432797D01*
X101130692Y-91468578D01*
X101132801Y-91473903D01*
X101136644Y-91485129D01*
X101152262Y-91538882D01*
X101156576Y-91587207D01*
X101154496Y-91606998D01*
X101174458Y-91796929D01*
X101233472Y-91978556D01*
X101328958Y-92143942D01*
X101342516Y-92159000D01*
X101456747Y-92285866D01*
X101611248Y-92398118D01*
X101785712Y-92475794D01*
X101972513Y-92515500D01*
X102163485Y-92515500D01*
X102163487Y-92515500D01*
X102350288Y-92475794D01*
X102524752Y-92398118D01*
X102679253Y-92285866D01*
X102807040Y-92143944D01*
X102902527Y-91978556D01*
X102961542Y-91796928D01*
X102981504Y-91607000D01*
X102971358Y-91510474D01*
X102979037Y-91452154D01*
X103012359Y-91403671D01*
X103064061Y-91375601D01*
X103102270Y-91374602D01*
X103102270Y-91372500D01*
X103306485Y-91372500D01*
X103306487Y-91372500D01*
X103493288Y-91332794D01*
X103667752Y-91255118D01*
X103822253Y-91142866D01*
X103950040Y-91000944D01*
X104045527Y-90835556D01*
X104104542Y-90653928D01*
X104124504Y-90464000D01*
X104104542Y-90274072D01*
X104045527Y-90092444D01*
X104045527Y-90092443D01*
X103950041Y-89927057D01*
X103849333Y-89815209D01*
X103822253Y-89785134D01*
X103816235Y-89780762D01*
X103745002Y-89729007D01*
X103667752Y-89672882D01*
X103493288Y-89595206D01*
X103468301Y-89589894D01*
X103416927Y-89565939D01*
X103381252Y-89521884D01*
X103368500Y-89466649D01*
X103368500Y-87235125D01*
X103381788Y-87178805D01*
X103418848Y-87134364D01*
X103458070Y-87117208D01*
X103481000Y-87099993D01*
X103481000Y-86765297D01*
X103492135Y-86724592D01*
X103489704Y-86723886D01*
X103494145Y-86708601D01*
X103540562Y-86548831D01*
X103543500Y-86511502D01*
X103543500Y-86074000D01*
X103989000Y-86074000D01*
X103989000Y-87099992D01*
X104148399Y-87053681D01*
X104291501Y-86969052D01*
X104409052Y-86851501D01*
X104493681Y-86708399D01*
X104540064Y-86548752D01*
X104543000Y-86511453D01*
X104543000Y-86074000D01*
X103989000Y-86074000D01*
X103543500Y-86074000D01*
X103543500Y-85692000D01*
X103560381Y-85629000D01*
X103606500Y-85582881D01*
X103669500Y-85566000D01*
X104542999Y-85566000D01*
X104542999Y-85333500D01*
X104559880Y-85270500D01*
X104605999Y-85224381D01*
X104668999Y-85207500D01*
X107801500Y-85207500D01*
X107864500Y-85224381D01*
X107910619Y-85270500D01*
X107927500Y-85333500D01*
X107927500Y-86168804D01*
X107918325Y-86216005D01*
X107892137Y-86256331D01*
X107852749Y-86283909D01*
X107802944Y-86306084D01*
X107747247Y-86330882D01*
X107592747Y-86443133D01*
X107464958Y-86585057D01*
X107369472Y-86750443D01*
X107310458Y-86932070D01*
X107290496Y-87122000D01*
X107310458Y-87311929D01*
X107369472Y-87493556D01*
X107464958Y-87658942D01*
X107464960Y-87658944D01*
X107592747Y-87800866D01*
X107747248Y-87913118D01*
X107921712Y-87990794D01*
X108108513Y-88030500D01*
X108299485Y-88030500D01*
X108299487Y-88030500D01*
X108486288Y-87990794D01*
X108660752Y-87913118D01*
X108815253Y-87800866D01*
X108872364Y-87737436D01*
X108931270Y-87700629D01*
X109000730Y-87700629D01*
X109059635Y-87737436D01*
X109116747Y-87800866D01*
X109271248Y-87913118D01*
X109445712Y-87990794D01*
X109632513Y-88030500D01*
X109823485Y-88030500D01*
X109823487Y-88030500D01*
X110010288Y-87990794D01*
X110184752Y-87913118D01*
X110339253Y-87800866D01*
X110467040Y-87658944D01*
X110562527Y-87493556D01*
X110621542Y-87311928D01*
X110631589Y-87216327D01*
X110652440Y-87159042D01*
X110697746Y-87118249D01*
X110756899Y-87103500D01*
X110952497Y-87103500D01*
X110952502Y-87103500D01*
X110989831Y-87100562D01*
X111149601Y-87054145D01*
X111172353Y-87040689D01*
X111236490Y-87023143D01*
X111300628Y-87040688D01*
X111322599Y-87053681D01*
X111482000Y-87099992D01*
X111482000Y-86765297D01*
X111493135Y-86724592D01*
X111490704Y-86723886D01*
X111495145Y-86708601D01*
X111541562Y-86548831D01*
X111544500Y-86511502D01*
X111544500Y-86074000D01*
X111990000Y-86074000D01*
X111990000Y-87099992D01*
X112149399Y-87053681D01*
X112292501Y-86969052D01*
X112410052Y-86851501D01*
X112494681Y-86708399D01*
X112541064Y-86548752D01*
X112544000Y-86511453D01*
X112544000Y-86074000D01*
X111990000Y-86074000D01*
X111544500Y-86074000D01*
X111544500Y-85128498D01*
X111541562Y-85091169D01*
X111495145Y-84931399D01*
X111495144Y-84931397D01*
X111490704Y-84916114D01*
X111493135Y-84915407D01*
X111482000Y-84874703D01*
X111482000Y-84540007D01*
X111990000Y-84540007D01*
X111990000Y-85566000D01*
X112543999Y-85566000D01*
X112543999Y-85128546D01*
X112541064Y-85091247D01*
X112494682Y-84931601D01*
X112410052Y-84788498D01*
X112292501Y-84670947D01*
X112149399Y-84586318D01*
X111990000Y-84540007D01*
X111482000Y-84540007D01*
X111322597Y-84586319D01*
X111300626Y-84599312D01*
X111236490Y-84616856D01*
X111172353Y-84599310D01*
X111149602Y-84585855D01*
X110989833Y-84539438D01*
X110979165Y-84538598D01*
X110952502Y-84536500D01*
X110952497Y-84536500D01*
X110846667Y-84536500D01*
X110798449Y-84526909D01*
X110757572Y-84499595D01*
X110592902Y-84334925D01*
X110561664Y-84283194D01*
X110558107Y-84222868D01*
X110583047Y-84167824D01*
X110630747Y-84130723D01*
X110692752Y-84103118D01*
X110847253Y-83990866D01*
X110975040Y-83848944D01*
X111070527Y-83683556D01*
X111129542Y-83501928D01*
X111149504Y-83312000D01*
X111129542Y-83122072D01*
X111085203Y-82985611D01*
X111070527Y-82940443D01*
X110975041Y-82775057D01*
X110872901Y-82661619D01*
X110847253Y-82633134D01*
X110818518Y-82612257D01*
X110728748Y-82547035D01*
X110692752Y-82520882D01*
X110518288Y-82443206D01*
X110331487Y-82403500D01*
X110219197Y-82403500D01*
X110167948Y-82392607D01*
X110125561Y-82361811D01*
X110099364Y-82316436D01*
X110061206Y-82199000D01*
X111928000Y-82199000D01*
X111928000Y-82645503D01*
X111938606Y-82749328D01*
X111994340Y-82917522D01*
X112087367Y-83068342D01*
X112212657Y-83193632D01*
X112363477Y-83286659D01*
X112531671Y-83342393D01*
X112635497Y-83353000D01*
X112782000Y-83353000D01*
X112782000Y-82199000D01*
X113290000Y-82199000D01*
X113290000Y-83353000D01*
X113436503Y-83353000D01*
X113540328Y-83342393D01*
X113708522Y-83286659D01*
X113859342Y-83193632D01*
X113984632Y-83068342D01*
X114077659Y-82917522D01*
X114133393Y-82749328D01*
X114144000Y-82645503D01*
X114144000Y-82199000D01*
X113290000Y-82199000D01*
X112782000Y-82199000D01*
X111928000Y-82199000D01*
X110061206Y-82199000D01*
X110054527Y-82178444D01*
X109959041Y-82013057D01*
X109831252Y-81871133D01*
X109676753Y-81758883D01*
X109676752Y-81758882D01*
X109524286Y-81691000D01*
X111928000Y-81691000D01*
X112782000Y-81691000D01*
X112782000Y-80537000D01*
X113290000Y-80537000D01*
X113290000Y-81691000D01*
X114144000Y-81691000D01*
X114144000Y-81501000D01*
X115730000Y-81501000D01*
X116459000Y-81501000D01*
X116459000Y-80847001D01*
X116380775Y-80847001D01*
X116309443Y-80853481D01*
X116145293Y-80904633D01*
X115998153Y-80993582D01*
X115876582Y-81115153D01*
X115787633Y-81262293D01*
X115736481Y-81426444D01*
X115730000Y-81497774D01*
X115730000Y-81501000D01*
X114144000Y-81501000D01*
X114144000Y-81244497D01*
X114133393Y-81140671D01*
X114077659Y-80972477D01*
X114000264Y-80847000D01*
X116967000Y-80847000D01*
X116967000Y-81501000D01*
X117695999Y-81501000D01*
X126398000Y-81501000D01*
X127127000Y-81501000D01*
X127127000Y-80847001D01*
X127048775Y-80847001D01*
X126977443Y-80853481D01*
X126813293Y-80904633D01*
X126666153Y-80993582D01*
X126544582Y-81115153D01*
X126455633Y-81262293D01*
X126404481Y-81426444D01*
X126398000Y-81497774D01*
X126398000Y-81501000D01*
X117695999Y-81501000D01*
X117695999Y-81497775D01*
X117694929Y-81486000D01*
X118397000Y-81486000D01*
X119126000Y-81486000D01*
X119126000Y-80832001D01*
X119047775Y-80832001D01*
X118976443Y-80838481D01*
X118812293Y-80889633D01*
X118665153Y-80978582D01*
X118543582Y-81100153D01*
X118454633Y-81247293D01*
X118403481Y-81411444D01*
X118397000Y-81482774D01*
X118397000Y-81486000D01*
X117694929Y-81486000D01*
X117689518Y-81426443D01*
X117638366Y-81262293D01*
X117549417Y-81115153D01*
X117427846Y-80993582D01*
X117280706Y-80904633D01*
X117116555Y-80853481D01*
X117045226Y-80847000D01*
X116967000Y-80847000D01*
X114000264Y-80847000D01*
X113991012Y-80832000D01*
X119634000Y-80832000D01*
X119634000Y-81486000D01*
X120362999Y-81486000D01*
X121064000Y-81486000D01*
X121793000Y-81486000D01*
X121793000Y-80832001D01*
X121714775Y-80832001D01*
X121643443Y-80838481D01*
X121479293Y-80889633D01*
X121332153Y-80978582D01*
X121210582Y-81100153D01*
X121121633Y-81247293D01*
X121070481Y-81411444D01*
X121064000Y-81482774D01*
X121064000Y-81486000D01*
X120362999Y-81486000D01*
X120362999Y-81482775D01*
X120356518Y-81411443D01*
X120305366Y-81247293D01*
X120216417Y-81100153D01*
X120094846Y-80978582D01*
X119947706Y-80889633D01*
X119783555Y-80838481D01*
X119712226Y-80832000D01*
X122301000Y-80832000D01*
X122301000Y-81486000D01*
X123029999Y-81486000D01*
X123731000Y-81486000D01*
X124460000Y-81486000D01*
X124460000Y-80832001D01*
X124381775Y-80832001D01*
X124310443Y-80838481D01*
X124146293Y-80889633D01*
X123999153Y-80978582D01*
X123877582Y-81100153D01*
X123788633Y-81247293D01*
X123737481Y-81411444D01*
X123731000Y-81482774D01*
X123731000Y-81486000D01*
X123029999Y-81486000D01*
X123029999Y-81482775D01*
X123023518Y-81411443D01*
X122972366Y-81247293D01*
X122883417Y-81100153D01*
X122761846Y-80978582D01*
X122614706Y-80889633D01*
X122450555Y-80838481D01*
X122379226Y-80832000D01*
X124968000Y-80832000D01*
X124968000Y-81486000D01*
X125696999Y-81486000D01*
X125696999Y-81482775D01*
X125690518Y-81411443D01*
X125639366Y-81247293D01*
X125550417Y-81100153D01*
X125428846Y-80978582D01*
X125281706Y-80889633D01*
X125144893Y-80847000D01*
X127635000Y-80847000D01*
X127635000Y-81501000D01*
X128363999Y-81501000D01*
X128363999Y-81497775D01*
X128362929Y-81486000D01*
X129065000Y-81486000D01*
X129794000Y-81486000D01*
X129794000Y-80832001D01*
X129715775Y-80832001D01*
X129644443Y-80838481D01*
X129480293Y-80889633D01*
X129333153Y-80978582D01*
X129211582Y-81100153D01*
X129122633Y-81247293D01*
X129071481Y-81411444D01*
X129065000Y-81482774D01*
X129065000Y-81486000D01*
X128362929Y-81486000D01*
X128357518Y-81426443D01*
X128306366Y-81262293D01*
X128217417Y-81115153D01*
X128095846Y-80993582D01*
X127948706Y-80904633D01*
X127784555Y-80853481D01*
X127713226Y-80847000D01*
X127635000Y-80847000D01*
X125144893Y-80847000D01*
X125117555Y-80838481D01*
X125046226Y-80832000D01*
X130302000Y-80832000D01*
X130302000Y-81486000D01*
X131030999Y-81486000D01*
X131030999Y-81482775D01*
X131024518Y-81411443D01*
X130973366Y-81247293D01*
X130884417Y-81100153D01*
X130762846Y-80978582D01*
X130615706Y-80889633D01*
X130451555Y-80838481D01*
X130380226Y-80832000D01*
X130302000Y-80832000D01*
X125046226Y-80832000D01*
X124968000Y-80832000D01*
X122379226Y-80832000D01*
X122301000Y-80832000D01*
X119712226Y-80832000D01*
X119634000Y-80832000D01*
X113991012Y-80832000D01*
X113984632Y-80821657D01*
X113859342Y-80696367D01*
X113708522Y-80603340D01*
X113540328Y-80547606D01*
X113436503Y-80537000D01*
X113290000Y-80537000D01*
X112782000Y-80537000D01*
X112635497Y-80537000D01*
X112531671Y-80547606D01*
X112363477Y-80603340D01*
X112212657Y-80696367D01*
X112087367Y-80821657D01*
X111994340Y-80972477D01*
X111938606Y-81140671D01*
X111928000Y-81244497D01*
X111928000Y-81691000D01*
X109524286Y-81691000D01*
X109502288Y-81681206D01*
X109315487Y-81641500D01*
X109124513Y-81641500D01*
X109029358Y-81661726D01*
X108937711Y-81681206D01*
X108763246Y-81758883D01*
X108744060Y-81772823D01*
X108679885Y-81796498D01*
X108612797Y-81783153D01*
X108562567Y-81736721D01*
X108544000Y-81670886D01*
X108544000Y-81244497D01*
X108533393Y-81140671D01*
X108477659Y-80972477D01*
X108384632Y-80821657D01*
X108259342Y-80696367D01*
X108108522Y-80603340D01*
X107940328Y-80547606D01*
X107836503Y-80537000D01*
X107690000Y-80537000D01*
X107690000Y-82073000D01*
X107673119Y-82136000D01*
X107627000Y-82182119D01*
X107564000Y-82199000D01*
X107308000Y-82199000D01*
X107245000Y-82182119D01*
X107198881Y-82136000D01*
X107182000Y-82073000D01*
X107182000Y-80537000D01*
X107035497Y-80537000D01*
X106931671Y-80547606D01*
X106763477Y-80603340D01*
X106612657Y-80696367D01*
X106487367Y-80821657D01*
X106394340Y-80972477D01*
X106355104Y-81090887D01*
X106321432Y-81143405D01*
X106266693Y-81173332D01*
X106204307Y-81173332D01*
X106149568Y-81143405D01*
X106115896Y-81090887D01*
X106076659Y-80972477D01*
X105983632Y-80821657D01*
X105858342Y-80696367D01*
X105707522Y-80603340D01*
X105539328Y-80547606D01*
X105435503Y-80537000D01*
X105289000Y-80537000D01*
X105289000Y-82073000D01*
X105272119Y-82136000D01*
X105226000Y-82182119D01*
X105163000Y-82199000D01*
X103927000Y-82199000D01*
X103927000Y-82552500D01*
X103910119Y-82615500D01*
X103864000Y-82661619D01*
X103801000Y-82678500D01*
X102880782Y-82678500D01*
X102859992Y-82676204D01*
X102788930Y-82678438D01*
X102784972Y-82678500D01*
X102757070Y-82678500D01*
X102753062Y-82679006D01*
X102741241Y-82679936D01*
X102697037Y-82681325D01*
X102677581Y-82686978D01*
X102658229Y-82690986D01*
X102638128Y-82693526D01*
X102597022Y-82709800D01*
X102585798Y-82713643D01*
X102543333Y-82725981D01*
X102525888Y-82736297D01*
X102508145Y-82744989D01*
X102489312Y-82752446D01*
X102453544Y-82778433D01*
X102443625Y-82784949D01*
X102405564Y-82807458D01*
X102391239Y-82821783D01*
X102376212Y-82834617D01*
X102359822Y-82846525D01*
X102331629Y-82880604D01*
X102323641Y-82889381D01*
X100713428Y-84499595D01*
X100672551Y-84526909D01*
X100624333Y-84536500D01*
X100518498Y-84536500D01*
X100495167Y-84538336D01*
X100481166Y-84539438D01*
X100321400Y-84585854D01*
X100178189Y-84670549D01*
X100060549Y-84788189D01*
X99975854Y-84931400D01*
X99929438Y-85091166D01*
X99928336Y-85105167D01*
X99927026Y-85121823D01*
X99926500Y-85128503D01*
X99926500Y-86511497D01*
X99929438Y-86548833D01*
X99962746Y-86663480D01*
X99964705Y-86726160D01*
X99936208Y-86782021D01*
X99884313Y-86817226D01*
X99821874Y-86823056D01*
X99764359Y-86798065D01*
X99745305Y-86783235D01*
X99547368Y-86676116D01*
X99334514Y-86603044D01*
X99254000Y-86589609D01*
X99254000Y-88052000D01*
X99237119Y-88115000D01*
X99191000Y-88161119D01*
X99128000Y-88178000D01*
X97663455Y-88178000D01*
X97711177Y-88366451D01*
X97801582Y-88572552D01*
X97924673Y-88760957D01*
X97948940Y-88787319D01*
X97978796Y-88843411D01*
X97977483Y-88906941D01*
X97945333Y-88961750D01*
X97436827Y-89470257D01*
X97420504Y-89483335D01*
X97371859Y-89535136D01*
X97369109Y-89537974D01*
X97349357Y-89557727D01*
X97349353Y-89557731D01*
X97349354Y-89557731D01*
X97346868Y-89560934D01*
X97339176Y-89569940D01*
X97308902Y-89602179D01*
X97299141Y-89619935D01*
X97288290Y-89636453D01*
X97275874Y-89652460D01*
X97258313Y-89693040D01*
X97253093Y-89703696D01*
X97231793Y-89742441D01*
X97226756Y-89762060D01*
X97220353Y-89780762D01*
X97212307Y-89799356D01*
X97205390Y-89843025D01*
X97202984Y-89854645D01*
X97191989Y-89897471D01*
X97191989Y-89917725D01*
X97190438Y-89937435D01*
X97187268Y-89957443D01*
X90844500Y-89957443D01*
X90844500Y-87669999D01*
X97663455Y-87669999D01*
X97663456Y-87670000D01*
X98746000Y-87670000D01*
X98746000Y-86589609D01*
X98665485Y-86603044D01*
X98452631Y-86676116D01*
X98254697Y-86783233D01*
X98077096Y-86921466D01*
X97924678Y-87087037D01*
X97801580Y-87275451D01*
X97711177Y-87481548D01*
X97663455Y-87669999D01*
X90844500Y-87669999D01*
X90844500Y-83901766D01*
X92545787Y-83901766D01*
X92575413Y-84171015D01*
X92604741Y-84283194D01*
X92643928Y-84433088D01*
X92749870Y-84682390D01*
X92890982Y-84913610D01*
X93064255Y-85121820D01*
X93064256Y-85121821D01*
X93064258Y-85121823D01*
X93265993Y-85302578D01*
X93265995Y-85302579D01*
X93265998Y-85302582D01*
X93491910Y-85452044D01*
X93624104Y-85514014D01*
X93737171Y-85567018D01*
X93737173Y-85567018D01*
X93737176Y-85567020D01*
X93996569Y-85645060D01*
X93996572Y-85645060D01*
X93996574Y-85645061D01*
X94264558Y-85684500D01*
X94264561Y-85684500D01*
X94467630Y-85684500D01*
X94467631Y-85684500D01*
X94670156Y-85669677D01*
X94934553Y-85610780D01*
X95187558Y-85514014D01*
X95423777Y-85381441D01*
X95638177Y-85215888D01*
X95826186Y-85020881D01*
X95983799Y-84800579D01*
X96107656Y-84559675D01*
X96195118Y-84303305D01*
X96244319Y-84036933D01*
X96254212Y-83766235D01*
X96250626Y-83733648D01*
X96224586Y-83496984D01*
X96224586Y-83496982D01*
X96156072Y-83234912D01*
X96050130Y-82985610D01*
X95909018Y-82754390D01*
X95735745Y-82546180D01*
X95727925Y-82539173D01*
X95534006Y-82365421D01*
X95534003Y-82365419D01*
X95534002Y-82365418D01*
X95308090Y-82215956D01*
X95271920Y-82199000D01*
X98327000Y-82199000D01*
X98327000Y-82645503D01*
X98337606Y-82749328D01*
X98393340Y-82917522D01*
X98486367Y-83068342D01*
X98611657Y-83193632D01*
X98762477Y-83286659D01*
X98930671Y-83342393D01*
X99034497Y-83353000D01*
X99181000Y-83353000D01*
X99181000Y-82199000D01*
X99689000Y-82199000D01*
X99689000Y-83353000D01*
X99835503Y-83353000D01*
X99939328Y-83342393D01*
X100107522Y-83286659D01*
X100258342Y-83193632D01*
X100383632Y-83068342D01*
X100476659Y-82917522D01*
X100532393Y-82749328D01*
X100543000Y-82645503D01*
X100543000Y-82199000D01*
X99689000Y-82199000D01*
X99181000Y-82199000D01*
X98327000Y-82199000D01*
X95271920Y-82199000D01*
X95062828Y-82100981D01*
X94803425Y-82022938D01*
X94535442Y-81983500D01*
X94535439Y-81983500D01*
X94332369Y-81983500D01*
X94298614Y-81985970D01*
X94129839Y-81998323D01*
X93865449Y-82057219D01*
X93612441Y-82153985D01*
X93376225Y-82286557D01*
X93161820Y-82452114D01*
X92973815Y-82647117D01*
X92816200Y-82867422D01*
X92692342Y-83108328D01*
X92604882Y-83364693D01*
X92555681Y-83631065D01*
X92545787Y-83901766D01*
X90844500Y-83901766D01*
X90844500Y-83837088D01*
X90844652Y-83830906D01*
X90849430Y-83733648D01*
X90851989Y-83681557D01*
X90862303Y-83484750D01*
X90863489Y-83472902D01*
X90888362Y-83305223D01*
X90888489Y-83304394D01*
X90916446Y-83127878D01*
X90918654Y-83117055D01*
X90960697Y-82949209D01*
X90961174Y-82947371D01*
X91006451Y-82778394D01*
X91009516Y-82768586D01*
X91014596Y-82754390D01*
X91052978Y-82647119D01*
X91068268Y-82604386D01*
X91069251Y-82601732D01*
X91131384Y-82439870D01*
X91135109Y-82431161D01*
X91136937Y-82427294D01*
X91210038Y-82272735D01*
X91211569Y-82269618D01*
X91290001Y-82115687D01*
X91294142Y-82108207D01*
X91384440Y-81957555D01*
X91386799Y-81953775D01*
X91480604Y-81809329D01*
X91485035Y-81802948D01*
X91568061Y-81691000D01*
X98327000Y-81691000D01*
X99181000Y-81691000D01*
X99181000Y-80537000D01*
X99689000Y-80537000D01*
X99689000Y-81691000D01*
X100543000Y-81691000D01*
X103927000Y-81691000D01*
X104781000Y-81691000D01*
X104781000Y-80537000D01*
X104634497Y-80537000D01*
X104530671Y-80547606D01*
X104362477Y-80603340D01*
X104211657Y-80696367D01*
X104086367Y-80821657D01*
X103993340Y-80972477D01*
X103937606Y-81140671D01*
X103927000Y-81244497D01*
X103927000Y-81691000D01*
X100543000Y-81691000D01*
X100543000Y-81244497D01*
X100532393Y-81140671D01*
X100476659Y-80972477D01*
X100383632Y-80821657D01*
X100258342Y-80696367D01*
X100107522Y-80603340D01*
X99939328Y-80547606D01*
X99835503Y-80537000D01*
X99689000Y-80537000D01*
X99181000Y-80537000D01*
X99034497Y-80537000D01*
X98930671Y-80547606D01*
X98762477Y-80603340D01*
X98611657Y-80696367D01*
X98486367Y-80821657D01*
X98393340Y-80972477D01*
X98337606Y-81140671D01*
X98327000Y-81244497D01*
X98327000Y-81691000D01*
X91568061Y-81691000D01*
X91589805Y-81661682D01*
X91592999Y-81657561D01*
X91701304Y-81523816D01*
X91705780Y-81518593D01*
X91823992Y-81388166D01*
X91828177Y-81383771D01*
X91949771Y-81262177D01*
X91954166Y-81257992D01*
X92084593Y-81139780D01*
X92089816Y-81135304D01*
X92223561Y-81026999D01*
X92227682Y-81023805D01*
X92368948Y-80919035D01*
X92375329Y-80914604D01*
X92519775Y-80820799D01*
X92523555Y-80818440D01*
X92674207Y-80728142D01*
X92681687Y-80724001D01*
X92835618Y-80645569D01*
X92838735Y-80644038D01*
X92997160Y-80569109D01*
X93005870Y-80565384D01*
X93167732Y-80503251D01*
X93170386Y-80502268D01*
X93248760Y-80474225D01*
X93334593Y-80443513D01*
X93344394Y-80440451D01*
X93513371Y-80395174D01*
X93515209Y-80394697D01*
X93683055Y-80352654D01*
X93693878Y-80350446D01*
X93870394Y-80322489D01*
X93871223Y-80322362D01*
X94038902Y-80297489D01*
X94050750Y-80296303D01*
X94247537Y-80285990D01*
X94396906Y-80278651D01*
X94403088Y-80278500D01*
X210475912Y-80278500D01*
X210482093Y-80278651D01*
G37*
%TD.AperFunction*%
%TD*%
M02*
