%TF.GenerationSoftware,KiCad,Pcbnew,(6.0.0)*%
%TF.CreationDate,2022-08-18T22:07:18-04:00*%
%TF.ProjectId,gpib breakout,67706962-2062-4726-9561-6b6f75742e6b,rev?*%
%TF.SameCoordinates,Original*%
%TF.FileFunction,Copper,L1,Top*%
%TF.FilePolarity,Positive*%
%FSLAX46Y46*%
G04 Gerber Fmt 4.6, Leading zero omitted, Abs format (unit mm)*
G04 Created by KiCad (PCBNEW (6.0.0)) date 2022-08-18 22:07:18*
%MOMM*%
%LPD*%
G01*
G04 APERTURE LIST*
G04 Aperture macros list*
%AMRoundRect*
0 Rectangle with rounded corners*
0 $1 Rounding radius*
0 $2 $3 $4 $5 $6 $7 $8 $9 X,Y pos of 4 corners*
0 Add a 4 corners polygon primitive as box body*
4,1,4,$2,$3,$4,$5,$6,$7,$8,$9,$2,$3,0*
0 Add four circle primitives for the rounded corners*
1,1,$1+$1,$2,$3*
1,1,$1+$1,$4,$5*
1,1,$1+$1,$6,$7*
1,1,$1+$1,$8,$9*
0 Add four rect primitives between the rounded corners*
20,1,$1+$1,$2,$3,$4,$5,0*
20,1,$1+$1,$4,$5,$6,$7,0*
20,1,$1+$1,$6,$7,$8,$9,0*
20,1,$1+$1,$8,$9,$2,$3,0*%
G04 Aperture macros list end*
%TA.AperFunction,SMDPad,CuDef*%
%ADD10RoundRect,0.225000X-0.225000X-0.250000X0.225000X-0.250000X0.225000X0.250000X-0.225000X0.250000X0*%
%TD*%
%TA.AperFunction,SMDPad,CuDef*%
%ADD11RoundRect,0.200000X-0.275000X0.200000X-0.275000X-0.200000X0.275000X-0.200000X0.275000X0.200000X0*%
%TD*%
%TA.AperFunction,SMDPad,CuDef*%
%ADD12RoundRect,0.200000X-0.200000X-0.275000X0.200000X-0.275000X0.200000X0.275000X-0.200000X0.275000X0*%
%TD*%
%TA.AperFunction,SMDPad,CuDef*%
%ADD13RoundRect,0.200000X0.200000X0.275000X-0.200000X0.275000X-0.200000X-0.275000X0.200000X-0.275000X0*%
%TD*%
%TA.AperFunction,SMDPad,CuDef*%
%ADD14R,5.000000X2.000000*%
%TD*%
%TA.AperFunction,SMDPad,CuDef*%
%ADD15RoundRect,0.225000X0.250000X-0.225000X0.250000X0.225000X-0.250000X0.225000X-0.250000X-0.225000X0*%
%TD*%
%TA.AperFunction,ComponentPad*%
%ADD16R,1.600000X1.600000*%
%TD*%
%TA.AperFunction,ComponentPad*%
%ADD17O,1.600000X1.600000*%
%TD*%
%TA.AperFunction,ComponentPad*%
%ADD18C,1.500000*%
%TD*%
%TA.AperFunction,ComponentPad*%
%ADD19R,1.500000X1.500000*%
%TD*%
%TA.AperFunction,ComponentPad*%
%ADD20C,4.650000*%
%TD*%
%TA.AperFunction,ComponentPad*%
%ADD21R,1.700000X1.700000*%
%TD*%
%TA.AperFunction,ComponentPad*%
%ADD22O,1.700000X1.700000*%
%TD*%
%TA.AperFunction,ViaPad*%
%ADD23C,0.800000*%
%TD*%
%TA.AperFunction,Conductor*%
%ADD24C,0.250000*%
%TD*%
%TA.AperFunction,Conductor*%
%ADD25C,0.750000*%
%TD*%
G04 APERTURE END LIST*
D10*
%TO.P,C1,1*%
%TO.N,+5V*%
X222745000Y-71120000D03*
%TO.P,C1,2*%
%TO.N,GND*%
X224295000Y-71120000D03*
%TD*%
D11*
%TO.P,R4,1*%
%TO.N,Net-(D1-Pad1)*%
X207010000Y-112205000D03*
%TO.P,R4,2*%
%TO.N,GND*%
X207010000Y-113855000D03*
%TD*%
D12*
%TO.P,R3,1*%
%TO.N,+3V3*%
X193485000Y-95250000D03*
%TO.P,R3,2*%
%TO.N,/GPIO10*%
X195135000Y-95250000D03*
%TD*%
D13*
%TO.P,R5,1*%
%TO.N,Net-(D2-Pad2)*%
X205295000Y-120650000D03*
%TO.P,R5,2*%
%TO.N,+5V*%
X203645000Y-120650000D03*
%TD*%
D14*
%TO.P,J1,1,Pin_1*%
%TO.N,/DIO1*%
X238390500Y-73575000D03*
%TO.P,J1,2,Pin_2*%
%TO.N,/DIO2*%
X238400500Y-77525000D03*
%TO.P,J1,3,Pin_3*%
%TO.N,/DIO3*%
X238400500Y-81485000D03*
%TO.P,J1,4,Pin_4*%
%TO.N,/DIO4*%
X238410500Y-85445000D03*
%TO.P,J1,5,Pin_5*%
%TO.N,/EOI*%
X238400500Y-89405000D03*
%TO.P,J1,6,Pin_6*%
%TO.N,/DAV*%
X238400500Y-93365000D03*
%TO.P,J1,7,Pin_7*%
%TO.N,/NRFD*%
X238410500Y-97325000D03*
%TO.P,J1,8,Pin_8*%
%TO.N,/NDAC*%
X238400500Y-101285000D03*
%TO.P,J1,9,Pin_9*%
%TO.N,/IFC*%
X238400500Y-105245000D03*
%TO.P,J1,10,Pin_10*%
%TO.N,/SRQ*%
X238400500Y-109205000D03*
%TO.P,J1,11,Pin_11*%
%TO.N,/ATN*%
X238400500Y-113165000D03*
%TO.P,J1,12,Pin_12*%
%TO.N,GND*%
X238400500Y-117125000D03*
%TD*%
D15*
%TO.P,C2,1*%
%TO.N,+5V*%
X209550000Y-120650000D03*
%TO.P,C2,2*%
%TO.N,GND*%
X209550000Y-119100000D03*
%TD*%
D12*
%TO.P,R2,1*%
%TO.N,+3V3*%
X193485000Y-97790000D03*
%TO.P,R2,2*%
%TO.N,/GPIO24*%
X195135000Y-97790000D03*
%TD*%
D16*
%TO.P,U2,1,TE*%
%TO.N,/GPIO18*%
X219700000Y-120645000D03*
D17*
%TO.P,U2,2,REN_1*%
%TO.N,/REN*%
X219700000Y-118105000D03*
%TO.P,U2,3,IFC_1*%
%TO.N,/IFC*%
X219700000Y-115565000D03*
%TO.P,U2,4,NDAC_1*%
%TO.N,/NDAC*%
X219700000Y-113025000D03*
%TO.P,U2,5,NRFD_1*%
%TO.N,/NRFD*%
X219700000Y-110485000D03*
%TO.P,U2,6,DAV_1*%
%TO.N,/DAV*%
X219700000Y-107945000D03*
%TO.P,U2,7,EOI_1*%
%TO.N,/EOI*%
X219700000Y-105405000D03*
%TO.P,U2,8,ATN_1*%
%TO.N,/ATN*%
X219700000Y-102865000D03*
%TO.P,U2,9,SRQ_1*%
%TO.N,/SRQ*%
X219700000Y-100325000D03*
%TO.P,U2,10,GND*%
%TO.N,GND*%
X219700000Y-97785000D03*
%TO.P,U2,11,DC*%
%TO.N,/GPIO08*%
X212080000Y-97785000D03*
%TO.P,U2,12,SRQ_2*%
%TO.N,/GPIO11*%
X212080000Y-100325000D03*
%TO.P,U2,13,ATN_2*%
%TO.N,/GPIO25*%
X212080000Y-102865000D03*
%TO.P,U2,14,EOI_2*%
%TO.N,/GPIO09*%
X212080000Y-105405000D03*
%TO.P,U2,15,DAV_2*%
%TO.N,/GPIO10*%
X212080000Y-107945000D03*
%TO.P,U2,16,NRFD_2*%
%TO.N,/GPIO24*%
X212080000Y-110485000D03*
%TO.P,U2,17,NDAC_2*%
%TO.N,/GPIO23*%
X212080000Y-113025000D03*
%TO.P,U2,18,IFC_2*%
%TO.N,/GPIO22*%
X212080000Y-115565000D03*
%TO.P,U2,19,REN_2*%
%TO.N,/GPIO27*%
X212080000Y-118105000D03*
%TO.P,U2,20,VCC*%
%TO.N,+5V*%
X212080000Y-120645000D03*
%TD*%
D18*
%TO.P,J2,1,1*%
%TO.N,/DIO1*%
X229390000Y-84190000D03*
%TO.P,J2,2,2*%
%TO.N,/DIO2*%
X229390000Y-86350000D03*
%TO.P,J2,3,3*%
%TO.N,/DIO3*%
X229390000Y-88510000D03*
%TO.P,J2,4,4*%
%TO.N,/DIO4*%
X229390000Y-90670000D03*
%TO.P,J2,5,5*%
%TO.N,/EOI*%
X229390000Y-92830000D03*
%TO.P,J2,6,6*%
%TO.N,/DAV*%
X229390000Y-94990000D03*
%TO.P,J2,7,7*%
%TO.N,/NRFD*%
X229390000Y-97150000D03*
%TO.P,J2,8,8*%
%TO.N,/NDAC*%
X229390000Y-99310000D03*
%TO.P,J2,9,9*%
%TO.N,/IFC*%
X229390000Y-101470000D03*
%TO.P,J2,10,10*%
%TO.N,/SRQ*%
X229390000Y-103630000D03*
%TO.P,J2,11,11*%
%TO.N,/ATN*%
X229390000Y-105790000D03*
%TO.P,J2,12,12*%
%TO.N,GND*%
X229390000Y-107950000D03*
%TO.P,J2,13,13*%
%TO.N,/DIO5*%
X233680000Y-84190000D03*
%TO.P,J2,14,14*%
%TO.N,/DIO6*%
X233680000Y-86350000D03*
%TO.P,J2,15,15*%
%TO.N,/DIO7*%
X233680000Y-88510000D03*
%TO.P,J2,16,16*%
%TO.N,/DIO8*%
X233680000Y-90670000D03*
%TO.P,J2,17,17*%
%TO.N,/REN*%
X233680000Y-92830000D03*
%TO.P,J2,18,18*%
%TO.N,GND*%
X233680000Y-94990000D03*
%TO.P,J2,19,19*%
X233680000Y-97150000D03*
%TO.P,J2,20,20*%
X233680000Y-99310000D03*
%TO.P,J2,21,21*%
X233680000Y-101470000D03*
%TO.P,J2,22,22*%
X233680000Y-103630000D03*
%TO.P,J2,23,23*%
X233680000Y-105790000D03*
D19*
%TO.P,J2,24,24*%
X233680000Y-107950000D03*
D20*
%TO.P,J2,MH1,MH1*%
X231535000Y-119470000D03*
%TO.P,J2,MH2,MH2*%
X231535000Y-72670000D03*
%TD*%
D16*
%TO.P,U1,1,TE*%
%TO.N,/GPIO18*%
X212100000Y-71125000D03*
D17*
%TO.P,U1,2,B1*%
%TO.N,/DIO1*%
X212100000Y-73665000D03*
%TO.P,U1,3,B2*%
%TO.N,/DIO2*%
X212100000Y-76205000D03*
%TO.P,U1,4,B3*%
%TO.N,/DIO3*%
X212100000Y-78745000D03*
%TO.P,U1,5,B4*%
%TO.N,/DIO4*%
X212100000Y-81285000D03*
%TO.P,U1,6,B5*%
%TO.N,/DIO5*%
X212100000Y-83825000D03*
%TO.P,U1,7,B6*%
%TO.N,/DIO6*%
X212100000Y-86365000D03*
%TO.P,U1,8,B7*%
%TO.N,/DIO7*%
X212100000Y-88905000D03*
%TO.P,U1,9,B8*%
%TO.N,/DIO8*%
X212100000Y-91445000D03*
%TO.P,U1,10,GND*%
%TO.N,GND*%
X212100000Y-93985000D03*
%TO.P,U1,11,~{PE}*%
%TO.N,/GPIO07*%
X219720000Y-93985000D03*
%TO.P,U1,12,D8*%
%TO.N,/GPIO05*%
X219720000Y-91445000D03*
%TO.P,U1,13,D7*%
%TO.N,/GPIO06*%
X219720000Y-88905000D03*
%TO.P,U1,14,D6*%
%TO.N,/GPIO12*%
X219720000Y-86365000D03*
%TO.P,U1,15,D5*%
%TO.N,/GPIO13*%
X219720000Y-83825000D03*
%TO.P,U1,16,D4*%
%TO.N,/GPIO19*%
X219720000Y-81285000D03*
%TO.P,U1,17,D3*%
%TO.N,/GPIO16*%
X219720000Y-78745000D03*
%TO.P,U1,18,D2*%
%TO.N,/GPIO26*%
X219720000Y-76205000D03*
%TO.P,U1,19,D1*%
%TO.N,/GPIO20*%
X219720000Y-73665000D03*
%TO.P,U1,20,VCC*%
%TO.N,+5V*%
X219720000Y-71125000D03*
%TD*%
D12*
%TO.P,R1,1*%
%TO.N,+3V3*%
X193485000Y-100330000D03*
%TO.P,R1,2*%
%TO.N,/GPIO23*%
X195135000Y-100330000D03*
%TD*%
D21*
%TO.P,J3,1,3V3*%
%TO.N,+3V3*%
X198115000Y-119375000D03*
D22*
%TO.P,J3,2,5V*%
%TO.N,+5V*%
X200655000Y-119375000D03*
%TO.P,J3,3,SDA/GPIO2*%
%TO.N,unconnected-(J3-Pad3)*%
X198115000Y-116835000D03*
%TO.P,J3,4,5V*%
%TO.N,+5V*%
X200655000Y-116835000D03*
%TO.P,J3,5,SCL/GPIO3*%
%TO.N,unconnected-(J3-Pad5)*%
X198115000Y-114295000D03*
%TO.P,J3,6,GND*%
%TO.N,GND*%
X200655000Y-114295000D03*
%TO.P,J3,7,GCLK0/GPIO4*%
%TO.N,Net-(D1-Pad2)*%
X198115000Y-111755000D03*
%TO.P,J3,8,GPIO14/TXD*%
%TO.N,unconnected-(J3-Pad8)*%
X200655000Y-111755000D03*
%TO.P,J3,9,GND*%
%TO.N,GND*%
X198115000Y-109215000D03*
%TO.P,J3,10,GPIO15/RXD*%
%TO.N,unconnected-(J3-Pad10)*%
X200655000Y-109215000D03*
%TO.P,J3,11,GPIO17*%
%TO.N,unconnected-(J3-Pad11)*%
X198115000Y-106675000D03*
%TO.P,J3,12,GPIO18/PWM0*%
%TO.N,/GPIO18*%
X200655000Y-106675000D03*
%TO.P,J3,13,GPIO27*%
%TO.N,/GPIO27*%
X198115000Y-104135000D03*
%TO.P,J3,14,GND*%
%TO.N,GND*%
X200655000Y-104135000D03*
%TO.P,J3,15,GPIO22*%
%TO.N,/GPIO22*%
X198115000Y-101595000D03*
%TO.P,J3,16,GPIO23*%
%TO.N,/GPIO23*%
X200655000Y-101595000D03*
%TO.P,J3,17,3V3*%
%TO.N,+3V3*%
X198115000Y-99055000D03*
%TO.P,J3,18,GPIO24*%
%TO.N,/GPIO24*%
X200655000Y-99055000D03*
%TO.P,J3,19,MOSI0/GPIO10*%
%TO.N,/GPIO10*%
X198115000Y-96515000D03*
%TO.P,J3,20,GND*%
%TO.N,GND*%
X200655000Y-96515000D03*
%TO.P,J3,21,MISO0/GPIO9*%
%TO.N,/GPIO09*%
X198115000Y-93975000D03*
%TO.P,J3,22,GPIO25*%
%TO.N,/GPIO25*%
X200655000Y-93975000D03*
%TO.P,J3,23,SCLK0/GPIO11*%
%TO.N,/GPIO11*%
X198115000Y-91435000D03*
%TO.P,J3,24,~{CE0}/GPIO8*%
%TO.N,/GPIO08*%
X200655000Y-91435000D03*
%TO.P,J3,25,GND*%
%TO.N,GND*%
X198115000Y-88895000D03*
%TO.P,J3,26,~{CE1}/GPIO7*%
%TO.N,/GPIO07*%
X200655000Y-88895000D03*
%TO.P,J3,27,ID_SD/GPIO0*%
%TO.N,unconnected-(J3-Pad27)*%
X198115000Y-86355000D03*
%TO.P,J3,28,ID_SC/GPIO1*%
%TO.N,unconnected-(J3-Pad28)*%
X200655000Y-86355000D03*
%TO.P,J3,29,GCLK1/GPIO5*%
%TO.N,/GPIO05*%
X198115000Y-83815000D03*
%TO.P,J3,30,GND*%
%TO.N,GND*%
X200655000Y-83815000D03*
%TO.P,J3,31,GCLK2/GPIO6*%
%TO.N,/GPIO06*%
X198115000Y-81275000D03*
%TO.P,J3,32,PWM0/GPIO12*%
%TO.N,/GPIO12*%
X200655000Y-81275000D03*
%TO.P,J3,33,PWM1/GPIO13*%
%TO.N,/GPIO13*%
X198115000Y-78735000D03*
%TO.P,J3,34,GND*%
%TO.N,GND*%
X200655000Y-78735000D03*
%TO.P,J3,35,GPIO19/MISO1*%
%TO.N,/GPIO19*%
X198115000Y-76195000D03*
%TO.P,J3,36,GPIO16*%
%TO.N,/GPIO16*%
X200655000Y-76195000D03*
%TO.P,J3,37,GPIO26*%
%TO.N,/GPIO26*%
X198115000Y-73655000D03*
%TO.P,J3,38,GPIO20/MOSI1*%
%TO.N,/GPIO20*%
X200655000Y-73655000D03*
%TO.P,J3,39,GND*%
%TO.N,GND*%
X198115000Y-71115000D03*
%TO.P,J3,40,GPIO21/SCLK1*%
%TO.N,unconnected-(J3-Pad40)*%
X200655000Y-71115000D03*
%TD*%
D23*
%TO.N,+5V*%
X208280000Y-92710000D03*
X205740000Y-90170000D03*
%TO.N,Net-(D1-Pad1)*%
X206375000Y-111125000D03*
%TO.N,Net-(D2-Pad2)*%
X202565000Y-118110000D03*
%TD*%
D24*
%TO.N,/DIO1*%
X217455978Y-73665000D02*
X218580489Y-74789511D01*
X229390000Y-76990000D02*
X231620000Y-76990000D01*
X227189511Y-74789511D02*
X218580489Y-74789511D01*
X212100000Y-73665000D02*
X217455978Y-73665000D01*
X229390000Y-84190000D02*
X229390000Y-76990000D01*
X227189511Y-74789511D02*
X229390000Y-76990000D01*
X231620000Y-76990000D02*
X235035000Y-73575000D01*
X235035000Y-73575000D02*
X238390500Y-73575000D01*
%TO.N,/DIO2*%
X238400500Y-77525000D02*
X233788350Y-77525000D01*
X230586675Y-85153325D02*
X229390000Y-86350000D01*
X218440000Y-77470000D02*
X224790000Y-77470000D01*
X227330000Y-80010000D02*
X227330000Y-84290000D01*
X230586675Y-80726675D02*
X230586675Y-85153325D01*
X212100000Y-76205000D02*
X217175000Y-76205000D01*
X233788350Y-77525000D02*
X230586675Y-80726675D01*
X217175000Y-76205000D02*
X218440000Y-77470000D01*
X227330000Y-84290000D02*
X229390000Y-86350000D01*
X224790000Y-77470000D02*
X227330000Y-80010000D01*
%TO.N,/DIO3*%
X218590489Y-80160489D02*
X224940489Y-80160489D01*
X217175000Y-78745000D02*
X218590489Y-80160489D01*
X226880480Y-86000480D02*
X229390000Y-88510000D01*
X212100000Y-78745000D02*
X217175000Y-78745000D01*
X231186195Y-83103325D02*
X231186195Y-86713805D01*
X231186195Y-86713805D02*
X229390000Y-88510000D01*
X238400500Y-81485000D02*
X232804520Y-81485000D01*
X232804520Y-81485000D02*
X231186195Y-83103325D01*
X226880480Y-82100480D02*
X226880480Y-86000480D01*
X224940489Y-80160489D02*
X226880480Y-82100480D01*
%TO.N,/DIO4*%
X218440000Y-82550000D02*
X224790000Y-82550000D01*
X217175000Y-81285000D02*
X218440000Y-82550000D01*
X226430960Y-87710960D02*
X226430960Y-84190960D01*
X238240989Y-85275489D02*
X232224511Y-85275489D01*
X231710715Y-88349285D02*
X229390000Y-90670000D01*
X212100000Y-81285000D02*
X217175000Y-81285000D01*
X231710715Y-85789285D02*
X231710715Y-88349285D01*
X232224511Y-85275489D02*
X231710715Y-85789285D01*
X226430960Y-84190960D02*
X224790000Y-82550000D01*
X238410500Y-85445000D02*
X238240989Y-85275489D01*
X226430960Y-87710960D02*
X229390000Y-90670000D01*
%TO.N,/EOI*%
X231824511Y-89584511D02*
X238220989Y-89584511D01*
X238220989Y-89584511D02*
X238400500Y-89405000D01*
X231140000Y-91080000D02*
X231140000Y-90170000D01*
X231725489Y-89584511D02*
X231824511Y-89584511D01*
X231140000Y-90170000D02*
X231725489Y-89584511D01*
X229390000Y-92830000D02*
X231140000Y-91080000D01*
%TO.N,/DAV*%
X237860989Y-93904511D02*
X229945489Y-93904511D01*
X229390000Y-94460000D02*
X229390000Y-94990000D01*
X229945489Y-93904511D02*
X229390000Y-94460000D01*
X238400500Y-93365000D02*
X237860989Y-93904511D01*
%TO.N,/NRFD*%
X238410500Y-97325000D02*
X235374589Y-97325000D01*
X230464511Y-96075489D02*
X229390000Y-97150000D01*
X234125078Y-96075489D02*
X230464511Y-96075489D01*
X235374589Y-97325000D02*
X234125078Y-96075489D01*
%TO.N,/NDAC*%
X237510989Y-100395489D02*
X230475489Y-100395489D01*
X238400500Y-101285000D02*
X237510989Y-100395489D01*
X230475489Y-100395489D02*
X229390000Y-99310000D01*
%TO.N,/IFC*%
X232635489Y-104715489D02*
X229390000Y-101470000D01*
X237870989Y-104715489D02*
X232635489Y-104715489D01*
X238400500Y-105245000D02*
X237870989Y-104715489D01*
%TO.N,/SRQ*%
X223005000Y-103630000D02*
X219700000Y-100325000D01*
X232624511Y-106864511D02*
X229390000Y-103630000D01*
X229390000Y-103630000D02*
X223005000Y-103630000D01*
X238400500Y-109205000D02*
X236060011Y-106864511D01*
X236060011Y-106864511D02*
X232624511Y-106864511D01*
%TO.N,/ATN*%
X227740000Y-104140000D02*
X222250000Y-104140000D01*
X220975000Y-102865000D02*
X219700000Y-102865000D01*
X236765000Y-113165000D02*
X229390000Y-105790000D01*
X238400500Y-113165000D02*
X236765000Y-113165000D01*
X222250000Y-104140000D02*
X220975000Y-102865000D01*
X229390000Y-105790000D02*
X227740000Y-104140000D01*
D25*
%TO.N,+5V*%
X212080000Y-120645000D02*
X209555000Y-120645000D01*
X205740000Y-90170000D02*
X208280000Y-92710000D01*
D24*
X201930000Y-120650000D02*
X200655000Y-119375000D01*
D25*
X222740000Y-71125000D02*
X222745000Y-71120000D01*
X209555000Y-120645000D02*
X209550000Y-120650000D01*
X219720000Y-71125000D02*
X222740000Y-71125000D01*
D24*
X203645000Y-120650000D02*
X201930000Y-120650000D01*
%TO.N,Net-(D1-Pad1)*%
X207010000Y-112205000D02*
X207010000Y-111760000D01*
X207010000Y-111760000D02*
X206375000Y-111125000D01*
%TO.N,/GPIO18*%
X211591207Y-116980489D02*
X213500489Y-116980489D01*
X200655000Y-106675000D02*
X204220292Y-106675000D01*
X210367980Y-112822688D02*
X210367980Y-115757262D01*
X213500489Y-116980489D02*
X217165000Y-120645000D01*
X217165000Y-120645000D02*
X219700000Y-120645000D01*
X210367980Y-115757262D02*
X211591207Y-116980489D01*
X204220292Y-106675000D02*
X210367980Y-112822688D01*
%TO.N,/GPIO08*%
X205730000Y-91435000D02*
X200655000Y-91435000D01*
X212080000Y-97785000D02*
X205730000Y-91435000D01*
%TO.N,/GPIO11*%
X212080000Y-100325000D02*
X204470000Y-92715000D01*
X199395000Y-92715000D02*
X198115000Y-91435000D01*
X204470000Y-92715000D02*
X199395000Y-92715000D01*
%TO.N,/GPIO25*%
X212080000Y-102865000D02*
X203190000Y-93975000D01*
X203190000Y-93975000D02*
X200655000Y-93975000D01*
%TO.N,/GPIO09*%
X199395000Y-95255000D02*
X198115000Y-93975000D01*
X201930000Y-95255000D02*
X199395000Y-95255000D01*
X212080000Y-105405000D02*
X201930000Y-95255000D01*
%TO.N,/GPIO10*%
X198115000Y-96515000D02*
X196850000Y-95250000D01*
X196850000Y-95250000D02*
X195135000Y-95250000D01*
X201930000Y-97795000D02*
X199395000Y-97795000D01*
X199395000Y-97795000D02*
X198115000Y-96515000D01*
X212080000Y-107945000D02*
X201930000Y-97795000D01*
%TO.N,/GPIO24*%
X198754282Y-97790000D02*
X195135000Y-97790000D01*
X200655000Y-99060000D02*
X200655000Y-99055000D01*
X200019282Y-99055000D02*
X198754282Y-97790000D01*
X200655000Y-99055000D02*
X200019282Y-99055000D01*
X212080000Y-110485000D02*
X200655000Y-99060000D01*
%TO.N,/GPIO23*%
X200655000Y-101595000D02*
X201925000Y-101595000D01*
X201925000Y-101595000D02*
X205740000Y-105410000D01*
X208280000Y-109220000D02*
X205740000Y-106680000D01*
X200655000Y-101595000D02*
X199390000Y-100330000D01*
X208280000Y-109225000D02*
X208280000Y-109220000D01*
X212080000Y-113025000D02*
X208280000Y-109225000D01*
X199390000Y-100330000D02*
X195135000Y-100330000D01*
X205740000Y-105410000D02*
X205740000Y-106680000D01*
%TO.N,/GPIO22*%
X201051010Y-102870000D02*
X210817500Y-112636490D01*
X198115000Y-101595000D02*
X199390000Y-102870000D01*
X210817500Y-114302500D02*
X212080000Y-115565000D01*
X199390000Y-102870000D02*
X201051010Y-102870000D01*
X210817500Y-112636490D02*
X210817500Y-114302500D01*
%TO.N,/GPIO27*%
X199390000Y-105410000D02*
X199390000Y-107071010D01*
X209550000Y-115570000D02*
X209547500Y-115572500D01*
X209547500Y-115572500D02*
X212080000Y-118105000D01*
X198115000Y-104135000D02*
X199390000Y-105410000D01*
X199390000Y-107071010D02*
X200268990Y-107950000D01*
X209550000Y-113030000D02*
X209550000Y-115570000D01*
X200268990Y-107950000D02*
X204470000Y-107950000D01*
X204470000Y-107950000D02*
X209550000Y-113030000D01*
%TO.N,+3V3*%
X196850000Y-105410000D02*
X193485000Y-102045000D01*
X193485000Y-102045000D02*
X193485000Y-100330000D01*
X198115000Y-99055000D02*
X194750000Y-99055000D01*
X198115000Y-119375000D02*
X196850000Y-118110000D01*
X194750000Y-99055000D02*
X193485000Y-97790000D01*
X196850000Y-118110000D02*
X196850000Y-105410000D01*
X193485000Y-97790000D02*
X193485000Y-95250000D01*
X193485000Y-97790000D02*
X193485000Y-100330000D01*
%TO.N,/GPIO07*%
X207005000Y-88895000D02*
X200655000Y-88895000D01*
X218445000Y-93985000D02*
X217170000Y-92710000D01*
X219720000Y-93985000D02*
X218445000Y-93985000D01*
X217170000Y-92710000D02*
X210820000Y-92710000D01*
X210820000Y-92710000D02*
X207005000Y-88895000D01*
%TO.N,/GPIO05*%
X219720000Y-91445000D02*
X218445000Y-90170000D01*
X210820000Y-90170000D02*
X205740000Y-85090000D01*
X218445000Y-90170000D02*
X210820000Y-90170000D01*
X205740000Y-85090000D02*
X199390000Y-85090000D01*
X199390000Y-85090000D02*
X198115000Y-83815000D01*
%TO.N,/GPIO06*%
X211774700Y-87630000D02*
X206694700Y-82550000D01*
X199390000Y-82550000D02*
X198115000Y-81275000D01*
X206694700Y-82550000D02*
X199390000Y-82550000D01*
X219720000Y-88905000D02*
X218445000Y-87630000D01*
X218445000Y-87630000D02*
X211774700Y-87630000D01*
%TO.N,/GPIO12*%
X210970489Y-85240489D02*
X218595489Y-85240489D01*
X200655000Y-81275000D02*
X207005000Y-81275000D01*
X207005000Y-81275000D02*
X210970489Y-85240489D01*
X218595489Y-85240489D02*
X219720000Y-86365000D01*
%TO.N,/GPIO13*%
X199390000Y-80010000D02*
X198115000Y-78735000D01*
X209550000Y-82550000D02*
X207010000Y-80010000D01*
X219720000Y-83825000D02*
X218445000Y-83825000D01*
X217170000Y-82550000D02*
X209550000Y-82550000D01*
X218445000Y-83825000D02*
X217170000Y-82550000D01*
X207010000Y-80010000D02*
X199390000Y-80010000D01*
%TO.N,/GPIO19*%
X199390000Y-77470000D02*
X198115000Y-76195000D01*
X219720000Y-81285000D02*
X218445000Y-81285000D01*
X205740000Y-77470000D02*
X199390000Y-77470000D01*
X217170000Y-80010000D02*
X208280000Y-80010000D01*
X218445000Y-81285000D02*
X217170000Y-80010000D01*
X208280000Y-80010000D02*
X205740000Y-77470000D01*
%TO.N,/GPIO16*%
X205735000Y-76195000D02*
X200655000Y-76195000D01*
X217170000Y-77470000D02*
X207010000Y-77470000D01*
X218445000Y-78745000D02*
X217170000Y-77470000D01*
X219720000Y-78745000D02*
X218445000Y-78745000D01*
X207010000Y-77470000D02*
X205735000Y-76195000D01*
%TO.N,/GPIO26*%
X217170000Y-74930000D02*
X199390000Y-74930000D01*
X199390000Y-74930000D02*
X198115000Y-73655000D01*
X219720000Y-76205000D02*
X218445000Y-76205000D01*
X218445000Y-76205000D02*
X217170000Y-74930000D01*
%TO.N,/GPIO20*%
X201920000Y-72390000D02*
X200655000Y-73655000D01*
X217170000Y-72390000D02*
X201920000Y-72390000D01*
X219720000Y-73665000D02*
X218445000Y-73665000D01*
X218445000Y-73665000D02*
X217170000Y-72390000D01*
%TO.N,Net-(D2-Pad2)*%
X202755000Y-118110000D02*
X202565000Y-118110000D01*
X205295000Y-120650000D02*
X202755000Y-118110000D01*
%TD*%
%TA.AperFunction,Conductor*%
%TO.N,GND*%
G36*
X232399706Y-96728991D02*
G01*
X232446199Y-96782647D01*
X232456303Y-96852921D01*
X232453292Y-96867600D01*
X232437804Y-96925401D01*
X232435901Y-96936196D01*
X232417674Y-97144525D01*
X232417674Y-97155475D01*
X232435901Y-97363804D01*
X232437804Y-97374599D01*
X232491928Y-97576595D01*
X232495674Y-97586887D01*
X232584054Y-97776417D01*
X232589534Y-97785907D01*
X232618411Y-97827149D01*
X232628886Y-97835523D01*
X232642333Y-97828455D01*
X233590905Y-96879884D01*
X233653217Y-96845859D01*
X233724033Y-96850924D01*
X233769095Y-96879884D01*
X234718389Y-97829178D01*
X234730162Y-97835606D01*
X234742177Y-97826311D01*
X234753991Y-97809438D01*
X234809448Y-97765110D01*
X234880067Y-97757801D01*
X234946299Y-97792614D01*
X234954819Y-97801134D01*
X234958014Y-97803612D01*
X234967036Y-97811318D01*
X234999268Y-97841586D01*
X235006217Y-97845406D01*
X235017021Y-97851346D01*
X235033545Y-97862199D01*
X235049548Y-97874613D01*
X235090132Y-97892176D01*
X235100762Y-97897383D01*
X235139529Y-97918695D01*
X235147206Y-97920666D01*
X235147211Y-97920668D01*
X235159147Y-97923732D01*
X235177855Y-97930137D01*
X235196444Y-97938181D01*
X235204269Y-97939420D01*
X235204271Y-97939421D01*
X235240108Y-97945097D01*
X235251729Y-97947504D01*
X235286884Y-97956530D01*
X235286888Y-97956531D01*
X235294559Y-97958500D01*
X235294888Y-97958500D01*
X235356870Y-97985533D01*
X235396271Y-98044593D01*
X235402000Y-98082156D01*
X235402000Y-98373134D01*
X235408755Y-98435316D01*
X235459885Y-98571705D01*
X235547239Y-98688261D01*
X235663795Y-98775615D01*
X235800184Y-98826745D01*
X235862366Y-98833500D01*
X240958634Y-98833500D01*
X241020816Y-98826745D01*
X241157205Y-98775615D01*
X241273761Y-98688261D01*
X241361115Y-98571705D01*
X241412245Y-98435316D01*
X241413098Y-98427459D01*
X241413917Y-98424017D01*
X241449134Y-98362371D01*
X241512090Y-98329550D01*
X241582795Y-98335976D01*
X241638802Y-98379608D01*
X241662500Y-98453163D01*
X241662500Y-123062280D01*
X241642498Y-123130401D01*
X241588842Y-123176894D01*
X241534779Y-123188268D01*
X205469199Y-122695602D01*
X204525807Y-122682715D01*
X204506623Y-122680981D01*
X204487332Y-122677735D01*
X204487327Y-122677735D01*
X204482539Y-122676929D01*
X204476448Y-122676855D01*
X204474867Y-122676835D01*
X204474862Y-122676835D01*
X204470000Y-122676776D01*
X204464899Y-122677506D01*
X204456038Y-122678456D01*
X204221637Y-122695222D01*
X204216318Y-122695602D01*
X204154899Y-122708963D01*
X203972197Y-122748706D01*
X203972190Y-122748708D01*
X203967800Y-122749663D01*
X203963585Y-122751235D01*
X203963582Y-122751236D01*
X203853855Y-122792162D01*
X203729505Y-122838542D01*
X203506285Y-122960430D01*
X203302683Y-123112844D01*
X203122844Y-123292683D01*
X202970430Y-123496285D01*
X202848542Y-123719505D01*
X202846969Y-123723723D01*
X202771294Y-123926617D01*
X202759663Y-123957800D01*
X202758708Y-123962190D01*
X202758706Y-123962197D01*
X202719788Y-124141104D01*
X202705602Y-124206318D01*
X202705281Y-124210806D01*
X202689837Y-124426729D01*
X202688413Y-124438637D01*
X202686929Y-124447461D01*
X202686856Y-124453462D01*
X202686814Y-124453730D01*
X202686849Y-124453999D01*
X202686776Y-124460000D01*
X202687466Y-124464816D01*
X202687466Y-124464819D01*
X202688857Y-124474533D01*
X202689957Y-124498990D01*
X202674257Y-124798554D01*
X202672879Y-124811666D01*
X202643830Y-124995079D01*
X202620876Y-125140002D01*
X202618134Y-125152902D01*
X202539120Y-125447792D01*
X202532098Y-125473997D01*
X202528022Y-125486541D01*
X202408894Y-125796878D01*
X202403530Y-125808926D01*
X202252612Y-126105120D01*
X202246017Y-126116542D01*
X202064968Y-126395333D01*
X202057225Y-126405990D01*
X201848011Y-126664348D01*
X201839194Y-126674139D01*
X201604139Y-126909194D01*
X201594348Y-126918011D01*
X201335990Y-127127225D01*
X201325333Y-127134968D01*
X201046542Y-127316017D01*
X201035120Y-127322612D01*
X200738926Y-127473530D01*
X200726879Y-127478893D01*
X200416536Y-127598024D01*
X200404002Y-127602096D01*
X200116949Y-127679011D01*
X200082902Y-127688134D01*
X200070002Y-127690876D01*
X199741669Y-127742879D01*
X199728553Y-127744257D01*
X199692691Y-127746136D01*
X199396594Y-127761654D01*
X199383406Y-127761654D01*
X199087309Y-127746136D01*
X199051447Y-127744257D01*
X199038331Y-127742879D01*
X198709998Y-127690876D01*
X198697098Y-127688134D01*
X198663051Y-127679011D01*
X198375998Y-127602096D01*
X198363464Y-127598024D01*
X198053121Y-127478893D01*
X198041074Y-127473530D01*
X197744880Y-127322612D01*
X197733458Y-127316017D01*
X197454667Y-127134968D01*
X197444010Y-127127225D01*
X197185652Y-126918011D01*
X197175861Y-126909194D01*
X196940806Y-126674139D01*
X196931989Y-126664348D01*
X196722775Y-126405990D01*
X196715032Y-126395333D01*
X196533983Y-126116542D01*
X196527388Y-126105120D01*
X196376470Y-125808926D01*
X196371106Y-125796878D01*
X196251978Y-125486541D01*
X196247902Y-125473997D01*
X196240881Y-125447792D01*
X196161866Y-125152902D01*
X196159124Y-125140002D01*
X196107121Y-124811669D01*
X196105743Y-124798552D01*
X196090431Y-124506378D01*
X196092004Y-124478882D01*
X196092264Y-124477339D01*
X196092265Y-124477333D01*
X196093071Y-124472539D01*
X196093224Y-124460000D01*
X196089273Y-124432412D01*
X196088000Y-124414549D01*
X196088000Y-124287277D01*
X197527009Y-124287277D01*
X197552625Y-124555769D01*
X197553710Y-124560203D01*
X197553711Y-124560209D01*
X197612033Y-124798552D01*
X197616731Y-124817750D01*
X197717985Y-125067733D01*
X197854265Y-125300482D01*
X197857118Y-125304049D01*
X197998129Y-125480374D01*
X198022716Y-125511119D01*
X198219809Y-125695234D01*
X198441416Y-125848968D01*
X198445499Y-125850999D01*
X198445502Y-125851001D01*
X198561013Y-125908466D01*
X198682894Y-125969101D01*
X198687228Y-125970522D01*
X198687231Y-125970523D01*
X198934853Y-126051698D01*
X198934859Y-126051699D01*
X198939186Y-126053118D01*
X198943677Y-126053898D01*
X198943678Y-126053898D01*
X199201140Y-126098601D01*
X199201148Y-126098602D01*
X199204921Y-126099257D01*
X199208758Y-126099448D01*
X199288578Y-126103422D01*
X199288586Y-126103422D01*
X199290149Y-126103500D01*
X199458512Y-126103500D01*
X199460780Y-126103335D01*
X199460792Y-126103335D01*
X199591884Y-126093823D01*
X199659004Y-126088953D01*
X199663459Y-126087969D01*
X199663462Y-126087969D01*
X199917912Y-126031791D01*
X199917916Y-126031790D01*
X199922372Y-126030806D01*
X200048480Y-125983028D01*
X200170318Y-125936868D01*
X200170321Y-125936867D01*
X200174588Y-125935250D01*
X200336453Y-125845342D01*
X200406375Y-125806504D01*
X200406376Y-125806503D01*
X200410368Y-125804286D01*
X200624773Y-125640657D01*
X200813312Y-125447792D01*
X200972034Y-125229730D01*
X201055190Y-125071676D01*
X201095490Y-124995079D01*
X201095493Y-124995073D01*
X201097615Y-124991039D01*
X201160378Y-124813312D01*
X201185902Y-124741033D01*
X201185902Y-124741032D01*
X201187425Y-124736720D01*
X201235552Y-124492543D01*
X201238700Y-124476572D01*
X201238701Y-124476566D01*
X201239581Y-124472100D01*
X201239885Y-124466001D01*
X201252764Y-124207292D01*
X201252764Y-124207286D01*
X201252991Y-124202723D01*
X201227375Y-123934231D01*
X201224183Y-123921184D01*
X201164355Y-123676688D01*
X201163269Y-123672250D01*
X201062015Y-123422267D01*
X200925735Y-123189518D01*
X200807928Y-123042208D01*
X200760136Y-122982447D01*
X200760135Y-122982445D01*
X200757284Y-122978881D01*
X200560191Y-122794766D01*
X200338584Y-122641032D01*
X200334501Y-122639001D01*
X200334498Y-122638999D01*
X200169606Y-122556967D01*
X200097106Y-122520899D01*
X200092772Y-122519478D01*
X200092769Y-122519477D01*
X199845147Y-122438302D01*
X199845141Y-122438301D01*
X199840814Y-122436882D01*
X199836322Y-122436102D01*
X199578860Y-122391399D01*
X199578852Y-122391398D01*
X199575079Y-122390743D01*
X199563817Y-122390182D01*
X199491422Y-122386578D01*
X199491414Y-122386578D01*
X199489851Y-122386500D01*
X199321488Y-122386500D01*
X199319220Y-122386665D01*
X199319208Y-122386665D01*
X199188116Y-122396177D01*
X199120996Y-122401047D01*
X199116541Y-122402031D01*
X199116538Y-122402031D01*
X198862088Y-122458209D01*
X198862084Y-122458210D01*
X198857628Y-122459194D01*
X198731520Y-122506972D01*
X198609682Y-122553132D01*
X198609679Y-122553133D01*
X198605412Y-122554750D01*
X198369632Y-122685714D01*
X198155227Y-122849343D01*
X197966688Y-123042208D01*
X197807966Y-123260270D01*
X197790913Y-123292683D01*
X197684510Y-123494921D01*
X197684507Y-123494927D01*
X197682385Y-123498961D01*
X197680865Y-123503266D01*
X197680863Y-123503270D01*
X197611253Y-123700388D01*
X197592575Y-123753280D01*
X197591692Y-123757762D01*
X197552265Y-123957800D01*
X197540419Y-124017900D01*
X197540192Y-124022453D01*
X197540192Y-124022456D01*
X197530695Y-124213241D01*
X197527009Y-124287277D01*
X196088000Y-124287277D01*
X196088000Y-118526760D01*
X196108002Y-118458639D01*
X196161658Y-118412146D01*
X196231932Y-118402042D01*
X196296512Y-118431536D01*
X196315946Y-118452712D01*
X196316445Y-118453399D01*
X196322952Y-118463307D01*
X196333745Y-118481556D01*
X196345458Y-118501362D01*
X196359779Y-118515683D01*
X196372619Y-118530716D01*
X196384528Y-118547107D01*
X196399176Y-118559225D01*
X196418605Y-118575298D01*
X196427384Y-118583288D01*
X196719595Y-118875499D01*
X196753621Y-118937811D01*
X196756500Y-118964594D01*
X196756500Y-120273134D01*
X196763255Y-120335316D01*
X196814385Y-120471705D01*
X196901739Y-120588261D01*
X197018295Y-120675615D01*
X197154684Y-120726745D01*
X197216866Y-120733500D01*
X199013134Y-120733500D01*
X199075316Y-120726745D01*
X199211705Y-120675615D01*
X199328261Y-120588261D01*
X199415615Y-120471705D01*
X199452592Y-120373070D01*
X199459598Y-120354382D01*
X199502240Y-120297618D01*
X199568802Y-120272918D01*
X199638150Y-120288126D01*
X199672817Y-120316114D01*
X199701250Y-120348938D01*
X199873126Y-120491632D01*
X200066000Y-120604338D01*
X200274692Y-120684030D01*
X200279760Y-120685061D01*
X200279763Y-120685062D01*
X200387012Y-120706882D01*
X200493597Y-120728567D01*
X200498772Y-120728757D01*
X200498774Y-120728757D01*
X200711673Y-120736564D01*
X200711677Y-120736564D01*
X200716837Y-120736753D01*
X200721957Y-120736097D01*
X200721959Y-120736097D01*
X200933288Y-120709025D01*
X200933289Y-120709025D01*
X200938416Y-120708368D01*
X200943367Y-120706883D01*
X200943370Y-120706882D01*
X200984829Y-120694444D01*
X201055825Y-120694028D01*
X201110131Y-120726035D01*
X201426343Y-121042247D01*
X201433887Y-121050537D01*
X201438000Y-121057018D01*
X201483771Y-121099999D01*
X201487667Y-121103658D01*
X201490509Y-121106413D01*
X201510230Y-121126134D01*
X201513425Y-121128612D01*
X201522447Y-121136318D01*
X201554679Y-121166586D01*
X201561628Y-121170406D01*
X201572432Y-121176346D01*
X201588956Y-121187199D01*
X201604959Y-121199613D01*
X201645543Y-121217176D01*
X201656173Y-121222383D01*
X201694940Y-121243695D01*
X201702617Y-121245666D01*
X201702622Y-121245668D01*
X201714558Y-121248732D01*
X201733266Y-121255137D01*
X201751855Y-121263181D01*
X201759683Y-121264421D01*
X201759690Y-121264423D01*
X201795524Y-121270099D01*
X201807144Y-121272505D01*
X201836762Y-121280109D01*
X201849970Y-121283500D01*
X201870224Y-121283500D01*
X201889934Y-121285051D01*
X201909943Y-121288220D01*
X201917835Y-121287474D01*
X201953961Y-121284059D01*
X201965819Y-121283500D01*
X202762775Y-121283500D01*
X202830896Y-121303502D01*
X202870551Y-121344229D01*
X202883361Y-121365381D01*
X203004619Y-121486639D01*
X203151301Y-121575472D01*
X203158548Y-121577743D01*
X203158550Y-121577744D01*
X203222827Y-121597887D01*
X203314938Y-121626753D01*
X203388365Y-121633500D01*
X203391263Y-121633500D01*
X203645665Y-121633499D01*
X203901634Y-121633499D01*
X203904492Y-121633236D01*
X203904501Y-121633236D01*
X203940004Y-121629974D01*
X203975062Y-121626753D01*
X203981447Y-121624752D01*
X204131450Y-121577744D01*
X204131452Y-121577743D01*
X204138699Y-121575472D01*
X204285381Y-121486639D01*
X204380905Y-121391115D01*
X204443217Y-121357089D01*
X204514032Y-121362154D01*
X204559095Y-121391115D01*
X204654619Y-121486639D01*
X204801301Y-121575472D01*
X204808548Y-121577743D01*
X204808550Y-121577744D01*
X204872827Y-121597887D01*
X204964938Y-121626753D01*
X205038365Y-121633500D01*
X205041263Y-121633500D01*
X205295665Y-121633499D01*
X205551634Y-121633499D01*
X205554492Y-121633236D01*
X205554501Y-121633236D01*
X205590004Y-121629974D01*
X205625062Y-121626753D01*
X205631447Y-121624752D01*
X205781450Y-121577744D01*
X205781452Y-121577743D01*
X205788699Y-121575472D01*
X205935381Y-121486639D01*
X206056639Y-121365381D01*
X206145472Y-121218699D01*
X206156911Y-121182199D01*
X206180660Y-121106413D01*
X206196753Y-121055062D01*
X206203500Y-120981635D01*
X206203499Y-120318366D01*
X206196753Y-120244938D01*
X206157552Y-120119847D01*
X206147744Y-120088550D01*
X206147743Y-120088548D01*
X206145472Y-120081301D01*
X206056639Y-119934619D01*
X205935381Y-119813361D01*
X205788699Y-119724528D01*
X205781452Y-119722257D01*
X205781450Y-119722256D01*
X205671634Y-119687842D01*
X205625062Y-119673247D01*
X205551635Y-119666500D01*
X205533526Y-119666500D01*
X205259595Y-119666501D01*
X205191476Y-119646499D01*
X205170501Y-119629596D01*
X204369031Y-118828126D01*
X208567071Y-118828126D01*
X208571475Y-118843124D01*
X208572865Y-118844329D01*
X208580548Y-118846000D01*
X209277885Y-118846000D01*
X209293124Y-118841525D01*
X209294329Y-118840135D01*
X209296000Y-118832452D01*
X209296000Y-118827885D01*
X209804000Y-118827885D01*
X209808475Y-118843124D01*
X209809865Y-118844329D01*
X209817548Y-118846000D01*
X210514885Y-118846000D01*
X210530124Y-118841525D01*
X210531329Y-118840135D01*
X210533000Y-118832452D01*
X210533000Y-118829562D01*
X210532663Y-118823047D01*
X210523106Y-118730943D01*
X210520212Y-118717544D01*
X210470619Y-118568893D01*
X210464445Y-118555714D01*
X210382212Y-118422827D01*
X210373176Y-118411426D01*
X210262571Y-118301014D01*
X210251160Y-118292002D01*
X210118120Y-118209996D01*
X210104939Y-118203849D01*
X209956186Y-118154509D01*
X209942810Y-118151642D01*
X209851903Y-118142328D01*
X209845486Y-118142000D01*
X209822115Y-118142000D01*
X209806876Y-118146475D01*
X209805671Y-118147865D01*
X209804000Y-118155548D01*
X209804000Y-118827885D01*
X209296000Y-118827885D01*
X209296000Y-118160115D01*
X209291525Y-118144876D01*
X209290135Y-118143671D01*
X209282452Y-118142000D01*
X209254562Y-118142000D01*
X209248047Y-118142337D01*
X209155943Y-118151894D01*
X209142544Y-118154788D01*
X208993893Y-118204381D01*
X208980714Y-118210555D01*
X208847827Y-118292788D01*
X208836426Y-118301824D01*
X208726014Y-118412429D01*
X208717002Y-118423840D01*
X208634996Y-118556880D01*
X208628849Y-118570061D01*
X208579509Y-118718814D01*
X208576642Y-118732190D01*
X208567328Y-118823097D01*
X208567071Y-118828126D01*
X204369031Y-118828126D01*
X203478760Y-117937855D01*
X203448022Y-117887696D01*
X203446299Y-117882391D01*
X203399527Y-117738444D01*
X203304040Y-117573056D01*
X203271645Y-117537077D01*
X203180675Y-117436045D01*
X203180674Y-117436044D01*
X203176253Y-117431134D01*
X203021752Y-117318882D01*
X203015724Y-117316198D01*
X203015722Y-117316197D01*
X202853319Y-117243891D01*
X202853318Y-117243891D01*
X202847288Y-117241206D01*
X202741844Y-117218793D01*
X202666944Y-117202872D01*
X202666939Y-117202872D01*
X202660487Y-117201500D01*
X202469513Y-117201500D01*
X202463061Y-117202872D01*
X202463056Y-117202872D01*
X202388156Y-117218793D01*
X202282712Y-117241206D01*
X202276685Y-117243889D01*
X202276677Y-117243892D01*
X202151656Y-117299555D01*
X202081289Y-117308989D01*
X202016992Y-117278882D01*
X201979179Y-117218793D01*
X201979850Y-117147820D01*
X201987370Y-117123069D01*
X202016529Y-116901590D01*
X202017148Y-116876259D01*
X202018074Y-116838365D01*
X202018074Y-116838361D01*
X202018156Y-116835000D01*
X201999852Y-116612361D01*
X201945431Y-116395702D01*
X201856354Y-116190840D01*
X201816906Y-116129862D01*
X201737822Y-116007617D01*
X201737820Y-116007614D01*
X201735014Y-116003277D01*
X201584670Y-115838051D01*
X201580619Y-115834852D01*
X201580615Y-115834848D01*
X201413414Y-115702800D01*
X201413410Y-115702798D01*
X201409359Y-115699598D01*
X201367569Y-115676529D01*
X201317598Y-115626097D01*
X201302826Y-115556654D01*
X201327942Y-115490248D01*
X201355294Y-115463641D01*
X201530328Y-115338792D01*
X201538200Y-115332139D01*
X201689052Y-115181812D01*
X201695730Y-115173965D01*
X201820003Y-115001020D01*
X201825313Y-114992183D01*
X201919670Y-114801267D01*
X201923469Y-114791672D01*
X201985377Y-114587910D01*
X201987555Y-114577837D01*
X201988986Y-114566962D01*
X201986775Y-114552778D01*
X201973617Y-114549000D01*
X200527000Y-114549000D01*
X200458879Y-114528998D01*
X200412386Y-114475342D01*
X200401000Y-114423000D01*
X200401000Y-114167000D01*
X200415008Y-114119294D01*
X206027709Y-114119294D01*
X206033132Y-114178315D01*
X206035743Y-114191351D01*
X206082715Y-114341243D01*
X206088921Y-114354988D01*
X206169824Y-114488574D01*
X206179131Y-114500443D01*
X206289557Y-114610869D01*
X206301426Y-114620176D01*
X206435012Y-114701079D01*
X206448757Y-114707285D01*
X206598644Y-114754256D01*
X206611694Y-114756869D01*
X206675521Y-114762734D01*
X206681309Y-114763000D01*
X206737885Y-114763000D01*
X206753124Y-114758525D01*
X206754329Y-114757135D01*
X206756000Y-114749452D01*
X206756000Y-114744884D01*
X207264000Y-114744884D01*
X207268475Y-114760123D01*
X207269865Y-114761328D01*
X207277548Y-114762999D01*
X207338705Y-114762999D01*
X207344454Y-114762736D01*
X207408315Y-114756868D01*
X207421351Y-114754257D01*
X207571243Y-114707285D01*
X207584988Y-114701079D01*
X207718574Y-114620176D01*
X207730443Y-114610869D01*
X207840869Y-114500443D01*
X207850176Y-114488574D01*
X207931079Y-114354988D01*
X207937285Y-114341243D01*
X207984256Y-114191356D01*
X207986869Y-114178306D01*
X207991913Y-114123414D01*
X207988525Y-114111876D01*
X207987135Y-114110671D01*
X207979452Y-114109000D01*
X207282115Y-114109000D01*
X207266876Y-114113475D01*
X207265671Y-114114865D01*
X207264000Y-114122548D01*
X207264000Y-114744884D01*
X206756000Y-114744884D01*
X206756000Y-114127115D01*
X206751525Y-114111876D01*
X206750135Y-114110671D01*
X206742452Y-114109000D01*
X206045116Y-114109000D01*
X206029877Y-114113475D01*
X206028672Y-114114865D01*
X206027709Y-114119294D01*
X200415008Y-114119294D01*
X200421002Y-114098879D01*
X200474658Y-114052386D01*
X200527000Y-114041000D01*
X201973344Y-114041000D01*
X201986875Y-114037027D01*
X201988180Y-114027947D01*
X201946214Y-113860875D01*
X201942894Y-113851124D01*
X201857972Y-113655814D01*
X201853105Y-113646739D01*
X201737426Y-113467926D01*
X201731136Y-113459757D01*
X201587806Y-113302240D01*
X201580273Y-113295215D01*
X201413139Y-113163222D01*
X201404556Y-113157520D01*
X201367602Y-113137120D01*
X201317631Y-113086687D01*
X201302859Y-113017245D01*
X201327975Y-112950839D01*
X201355327Y-112924232D01*
X201378797Y-112907491D01*
X201534860Y-112796173D01*
X201693096Y-112638489D01*
X201823453Y-112457077D01*
X201844320Y-112414857D01*
X201920136Y-112261453D01*
X201920137Y-112261451D01*
X201922430Y-112256811D01*
X201987370Y-112043069D01*
X202016529Y-111821590D01*
X202017082Y-111798955D01*
X202018074Y-111758365D01*
X202018074Y-111758361D01*
X202018156Y-111755000D01*
X201999852Y-111532361D01*
X201945431Y-111315702D01*
X201856354Y-111110840D01*
X201816906Y-111049862D01*
X201737822Y-110927617D01*
X201737820Y-110927614D01*
X201735014Y-110923277D01*
X201584670Y-110758051D01*
X201580619Y-110754852D01*
X201580615Y-110754848D01*
X201413414Y-110622800D01*
X201413410Y-110622798D01*
X201409359Y-110619598D01*
X201368053Y-110596796D01*
X201318084Y-110546364D01*
X201303312Y-110476921D01*
X201328428Y-110410516D01*
X201355780Y-110383909D01*
X201399603Y-110352650D01*
X201534860Y-110256173D01*
X201693096Y-110098489D01*
X201712309Y-110071752D01*
X201820435Y-109921277D01*
X201823453Y-109917077D01*
X201836995Y-109889678D01*
X201920136Y-109721453D01*
X201920137Y-109721451D01*
X201922430Y-109716811D01*
X201987370Y-109503069D01*
X202016529Y-109281590D01*
X202016611Y-109278240D01*
X202018074Y-109218365D01*
X202018074Y-109218361D01*
X202018156Y-109215000D01*
X201999852Y-108992361D01*
X201948847Y-108789300D01*
X201946690Y-108780714D01*
X201946690Y-108780713D01*
X201945431Y-108775702D01*
X201938492Y-108759743D01*
X201929671Y-108689298D01*
X201960336Y-108625266D01*
X202020752Y-108587977D01*
X202054041Y-108583500D01*
X204155406Y-108583500D01*
X204223527Y-108603502D01*
X204244501Y-108620405D01*
X205836942Y-110212847D01*
X205870968Y-110275159D01*
X205865903Y-110345975D01*
X205821908Y-110403877D01*
X205763747Y-110446134D01*
X205759326Y-110451044D01*
X205759325Y-110451045D01*
X205673500Y-110546364D01*
X205635960Y-110588056D01*
X205619191Y-110617101D01*
X205560705Y-110718402D01*
X205540473Y-110753444D01*
X205481458Y-110935072D01*
X205480768Y-110941633D01*
X205480768Y-110941635D01*
X205466049Y-111081680D01*
X205461496Y-111125000D01*
X205481458Y-111314928D01*
X205540473Y-111496556D01*
X205635960Y-111661944D01*
X205640378Y-111666851D01*
X205640379Y-111666852D01*
X205716728Y-111751646D01*
X205763747Y-111803866D01*
X205770702Y-111808919D01*
X205911354Y-111911109D01*
X205918248Y-111916118D01*
X205924275Y-111918801D01*
X205924283Y-111918806D01*
X205951750Y-111931035D01*
X206005845Y-111977015D01*
X206026500Y-112046141D01*
X206026501Y-112256811D01*
X206026501Y-112461634D01*
X206033247Y-112535062D01*
X206035246Y-112541440D01*
X206035246Y-112541441D01*
X206042313Y-112563990D01*
X206084528Y-112698699D01*
X206173361Y-112845381D01*
X206269239Y-112941259D01*
X206303265Y-113003571D01*
X206298200Y-113074386D01*
X206269239Y-113119449D01*
X206179131Y-113209557D01*
X206169824Y-113221426D01*
X206088921Y-113355012D01*
X206082715Y-113368757D01*
X206035744Y-113518644D01*
X206033131Y-113531694D01*
X206028087Y-113586586D01*
X206031475Y-113598124D01*
X206032865Y-113599329D01*
X206040548Y-113601000D01*
X207974884Y-113601000D01*
X207990123Y-113596525D01*
X207991328Y-113595135D01*
X207992291Y-113590706D01*
X207986868Y-113531685D01*
X207984257Y-113518649D01*
X207937285Y-113368757D01*
X207931079Y-113355012D01*
X207850176Y-113221426D01*
X207840869Y-113209557D01*
X207750761Y-113119449D01*
X207716735Y-113057137D01*
X207721800Y-112986322D01*
X207750761Y-112941259D01*
X207846639Y-112845381D01*
X207935472Y-112698699D01*
X207965674Y-112602323D01*
X208005131Y-112543302D01*
X208070235Y-112514982D01*
X208140315Y-112526355D01*
X208175003Y-112550908D01*
X208879595Y-113255500D01*
X208913621Y-113317812D01*
X208916500Y-113344595D01*
X208916500Y-115477464D01*
X208913716Y-115502686D01*
X208913529Y-115504667D01*
X208911798Y-115512409D01*
X208912047Y-115520332D01*
X208912047Y-115520333D01*
X208912057Y-115520641D01*
X208910567Y-115544315D01*
X208909280Y-115552443D01*
X208910026Y-115560335D01*
X208910026Y-115560336D01*
X208914565Y-115608358D01*
X208915062Y-115616255D01*
X208915561Y-115632109D01*
X208916827Y-115672389D01*
X208919124Y-115680294D01*
X208923568Y-115703594D01*
X208924343Y-115711792D01*
X208927027Y-115719246D01*
X208943371Y-115764644D01*
X208945817Y-115772173D01*
X208959270Y-115818481D01*
X208959272Y-115818485D01*
X208961482Y-115826093D01*
X208965517Y-115832916D01*
X208965519Y-115832920D01*
X208965677Y-115833188D01*
X208975767Y-115854632D01*
X208975872Y-115854923D01*
X208975876Y-115854931D01*
X208978561Y-115862389D01*
X209010146Y-115908865D01*
X209014355Y-115915496D01*
X209042958Y-115963862D01*
X209048778Y-115969682D01*
X209063894Y-115987953D01*
X209068528Y-115994771D01*
X209074476Y-116000015D01*
X209074477Y-116000016D01*
X209110663Y-116031918D01*
X209116433Y-116037337D01*
X210770848Y-117691752D01*
X210804874Y-117754064D01*
X210803459Y-117813459D01*
X210787882Y-117871591D01*
X210787881Y-117871598D01*
X210786457Y-117876913D01*
X210766502Y-118105000D01*
X210786457Y-118333087D01*
X210787881Y-118338400D01*
X210787881Y-118338402D01*
X210842778Y-118543277D01*
X210845716Y-118554243D01*
X210848039Y-118559224D01*
X210848039Y-118559225D01*
X210940151Y-118756762D01*
X210940154Y-118756767D01*
X210942477Y-118761749D01*
X210988786Y-118827885D01*
X211064281Y-118935702D01*
X211073802Y-118949300D01*
X211235700Y-119111198D01*
X211240208Y-119114355D01*
X211240211Y-119114357D01*
X211294487Y-119152361D01*
X211423251Y-119242523D01*
X211428233Y-119244846D01*
X211428238Y-119244849D01*
X211462457Y-119260805D01*
X211515742Y-119307722D01*
X211535203Y-119375999D01*
X211514661Y-119443959D01*
X211462457Y-119489195D01*
X211428238Y-119505151D01*
X211428233Y-119505154D01*
X211423251Y-119507477D01*
X211344216Y-119562818D01*
X211240211Y-119635643D01*
X211240208Y-119635645D01*
X211235700Y-119638802D01*
X211149907Y-119724595D01*
X211087595Y-119758621D01*
X211060812Y-119761500D01*
X210602057Y-119761500D01*
X210533936Y-119741498D01*
X210487443Y-119687842D01*
X210477339Y-119617568D01*
X210482464Y-119595832D01*
X210520491Y-119481186D01*
X210523358Y-119467810D01*
X210532672Y-119376903D01*
X210532929Y-119371874D01*
X210528525Y-119356876D01*
X210527135Y-119355671D01*
X210519452Y-119354000D01*
X208585115Y-119354000D01*
X208569876Y-119358475D01*
X208568671Y-119359865D01*
X208567000Y-119367548D01*
X208567000Y-119370438D01*
X208567337Y-119376953D01*
X208576894Y-119469057D01*
X208579788Y-119482456D01*
X208629381Y-119631107D01*
X208635555Y-119644286D01*
X208717788Y-119777173D01*
X208731371Y-119794311D01*
X208729441Y-119795841D01*
X208757903Y-119847880D01*
X208752887Y-119918699D01*
X208729201Y-119955617D01*
X208730157Y-119956372D01*
X208725619Y-119962118D01*
X208720448Y-119967298D01*
X208630698Y-120112899D01*
X208576851Y-120275243D01*
X208576151Y-120282080D01*
X208576150Y-120282082D01*
X208575531Y-120288126D01*
X208566500Y-120376268D01*
X208566500Y-120923732D01*
X208577113Y-121026019D01*
X208579295Y-121032559D01*
X208625285Y-121170406D01*
X208631244Y-121188268D01*
X208635096Y-121194492D01*
X208635096Y-121194493D01*
X208682457Y-121271027D01*
X208721248Y-121333713D01*
X208842298Y-121454552D01*
X208848528Y-121458392D01*
X208848529Y-121458393D01*
X208904992Y-121493197D01*
X208987899Y-121544302D01*
X209150243Y-121598149D01*
X209157080Y-121598849D01*
X209157082Y-121598850D01*
X209198401Y-121603083D01*
X209251268Y-121608500D01*
X209848732Y-121608500D01*
X209851978Y-121608163D01*
X209851982Y-121608163D01*
X209886083Y-121604625D01*
X209951019Y-121597887D01*
X209985809Y-121586280D01*
X210106321Y-121546074D01*
X210106323Y-121546073D01*
X210113268Y-121543756D01*
X210118840Y-121540308D01*
X210171887Y-121528500D01*
X211060812Y-121528500D01*
X211128933Y-121548502D01*
X211149907Y-121565405D01*
X211235700Y-121651198D01*
X211240208Y-121654355D01*
X211240211Y-121654357D01*
X211266756Y-121672944D01*
X211423251Y-121782523D01*
X211428233Y-121784846D01*
X211428238Y-121784849D01*
X211606140Y-121867805D01*
X211630757Y-121879284D01*
X211636065Y-121880706D01*
X211636067Y-121880707D01*
X211846598Y-121937119D01*
X211846600Y-121937119D01*
X211851913Y-121938543D01*
X212080000Y-121958498D01*
X212308087Y-121938543D01*
X212313400Y-121937119D01*
X212313402Y-121937119D01*
X212523933Y-121880707D01*
X212523935Y-121880706D01*
X212529243Y-121879284D01*
X212553860Y-121867805D01*
X212731762Y-121784849D01*
X212731767Y-121784846D01*
X212736749Y-121782523D01*
X212893244Y-121672944D01*
X212919789Y-121654357D01*
X212919792Y-121654355D01*
X212924300Y-121651198D01*
X213086198Y-121489300D01*
X213107840Y-121458393D01*
X213191519Y-121338886D01*
X213217523Y-121301749D01*
X213219846Y-121296767D01*
X213219849Y-121296762D01*
X213311961Y-121099225D01*
X213311961Y-121099224D01*
X213314284Y-121094243D01*
X213324259Y-121057018D01*
X213372119Y-120878402D01*
X213372119Y-120878400D01*
X213373543Y-120873087D01*
X213393498Y-120645000D01*
X213373543Y-120416913D01*
X213355329Y-120348938D01*
X213315707Y-120201067D01*
X213315706Y-120201065D01*
X213314284Y-120195757D01*
X213311961Y-120190775D01*
X213219849Y-119993238D01*
X213219846Y-119993233D01*
X213217523Y-119988251D01*
X213112869Y-119838790D01*
X213089357Y-119805211D01*
X213089355Y-119805208D01*
X213086198Y-119800700D01*
X212924300Y-119638802D01*
X212919792Y-119635645D01*
X212919789Y-119635643D01*
X212815784Y-119562818D01*
X212736749Y-119507477D01*
X212731767Y-119505154D01*
X212731762Y-119505151D01*
X212697543Y-119489195D01*
X212644258Y-119442278D01*
X212624797Y-119374001D01*
X212645339Y-119306041D01*
X212697543Y-119260805D01*
X212731762Y-119244849D01*
X212731767Y-119244846D01*
X212736749Y-119242523D01*
X212865513Y-119152361D01*
X212919789Y-119114357D01*
X212919792Y-119114355D01*
X212924300Y-119111198D01*
X213086198Y-118949300D01*
X213095720Y-118935702D01*
X213171214Y-118827885D01*
X213217523Y-118761749D01*
X213219846Y-118756767D01*
X213219849Y-118756762D01*
X213311961Y-118559225D01*
X213311961Y-118559224D01*
X213314284Y-118554243D01*
X213317223Y-118543277D01*
X213372119Y-118338402D01*
X213372119Y-118338400D01*
X213373543Y-118333087D01*
X213393498Y-118105000D01*
X213391494Y-118082089D01*
X213405484Y-118012484D01*
X213454884Y-117961493D01*
X213524010Y-117945303D01*
X213590915Y-117969056D01*
X213606110Y-117982014D01*
X216661343Y-121037247D01*
X216668887Y-121045537D01*
X216673000Y-121052018D01*
X216678777Y-121057443D01*
X216722667Y-121098658D01*
X216725509Y-121101413D01*
X216745230Y-121121134D01*
X216748425Y-121123612D01*
X216757447Y-121131318D01*
X216789679Y-121161586D01*
X216796628Y-121165406D01*
X216807432Y-121171346D01*
X216823956Y-121182199D01*
X216839959Y-121194613D01*
X216880543Y-121212176D01*
X216891173Y-121217383D01*
X216929940Y-121238695D01*
X216937617Y-121240666D01*
X216937622Y-121240668D01*
X216949558Y-121243732D01*
X216968266Y-121250137D01*
X216986855Y-121258181D01*
X216994683Y-121259421D01*
X216994690Y-121259423D01*
X217030524Y-121265099D01*
X217042144Y-121267505D01*
X217077289Y-121276528D01*
X217084970Y-121278500D01*
X217105224Y-121278500D01*
X217124934Y-121280051D01*
X217144943Y-121283220D01*
X217152835Y-121282474D01*
X217169972Y-121280854D01*
X217188962Y-121279059D01*
X217200819Y-121278500D01*
X218265500Y-121278500D01*
X218333621Y-121298502D01*
X218380114Y-121352158D01*
X218391500Y-121404500D01*
X218391500Y-121493134D01*
X218398255Y-121555316D01*
X218449385Y-121691705D01*
X218536739Y-121808261D01*
X218653295Y-121895615D01*
X218789684Y-121946745D01*
X218851866Y-121953500D01*
X220548134Y-121953500D01*
X220610316Y-121946745D01*
X220746705Y-121895615D01*
X220863261Y-121808261D01*
X220950615Y-121691705D01*
X220967076Y-121647795D01*
X229722745Y-121647795D01*
X229722762Y-121648046D01*
X229728679Y-121656792D01*
X229746430Y-121672944D01*
X229752060Y-121677503D01*
X230011480Y-121863915D01*
X230017610Y-121867805D01*
X230296730Y-122023161D01*
X230303250Y-122026313D01*
X230598387Y-122148562D01*
X230605238Y-122150948D01*
X230912452Y-122238461D01*
X230919540Y-122240045D01*
X231234789Y-122291669D01*
X231241995Y-122292426D01*
X231561090Y-122307474D01*
X231568340Y-122307398D01*
X231887040Y-122285672D01*
X231894249Y-122284761D01*
X232208345Y-122226547D01*
X232215375Y-122224820D01*
X232520700Y-122130890D01*
X232527513Y-122128356D01*
X232820012Y-121999957D01*
X232826467Y-121996669D01*
X233102275Y-121835500D01*
X233108324Y-121831481D01*
X233338834Y-121658408D01*
X233347287Y-121647083D01*
X233340542Y-121634752D01*
X231547812Y-119842022D01*
X231533868Y-119834408D01*
X231532035Y-119834539D01*
X231525420Y-119838790D01*
X229730359Y-121633851D01*
X229722745Y-121647795D01*
X220967076Y-121647795D01*
X221001745Y-121555316D01*
X221008500Y-121493134D01*
X221008500Y-119796866D01*
X221001745Y-119734684D01*
X220950615Y-119598295D01*
X220863261Y-119481739D01*
X220746705Y-119394385D01*
X220720323Y-119384495D01*
X228698694Y-119384495D01*
X228707057Y-119703833D01*
X228707664Y-119711056D01*
X228752674Y-120027318D01*
X228754105Y-120034420D01*
X228835172Y-120343426D01*
X228837408Y-120350306D01*
X228953451Y-120647940D01*
X228956466Y-120654527D01*
X229105952Y-120936859D01*
X229109698Y-120943044D01*
X229290640Y-121206316D01*
X229295085Y-121212045D01*
X229347779Y-121272450D01*
X229360951Y-121280854D01*
X229370806Y-121274984D01*
X231162978Y-119482812D01*
X231169356Y-119471132D01*
X231899408Y-119471132D01*
X231899539Y-119472965D01*
X231903790Y-119479580D01*
X233697027Y-121272817D01*
X233710381Y-121280109D01*
X233720353Y-121273055D01*
X233810914Y-121164745D01*
X233815224Y-121158942D01*
X233990621Y-120891926D01*
X233994235Y-120885664D01*
X234137778Y-120600263D01*
X234140650Y-120593625D01*
X234250434Y-120293627D01*
X234252530Y-120286685D01*
X234327104Y-119976060D01*
X234328388Y-119968921D01*
X234366865Y-119650966D01*
X234367289Y-119645396D01*
X234372713Y-119472797D01*
X234372640Y-119467204D01*
X234354203Y-119147451D01*
X234353371Y-119140262D01*
X234298447Y-118825559D01*
X234296792Y-118818504D01*
X234206064Y-118512215D01*
X234203608Y-118505390D01*
X234078274Y-118211548D01*
X234075053Y-118205060D01*
X234054866Y-118169669D01*
X235392501Y-118169669D01*
X235392871Y-118176490D01*
X235398395Y-118227352D01*
X235402021Y-118242604D01*
X235447176Y-118363054D01*
X235455714Y-118378649D01*
X235532215Y-118480724D01*
X235544776Y-118493285D01*
X235646851Y-118569786D01*
X235662446Y-118578324D01*
X235782894Y-118623478D01*
X235798149Y-118627105D01*
X235849014Y-118632631D01*
X235855828Y-118633000D01*
X238128385Y-118633000D01*
X238143624Y-118628525D01*
X238144829Y-118627135D01*
X238146500Y-118619452D01*
X238146500Y-118614884D01*
X238654500Y-118614884D01*
X238658975Y-118630123D01*
X238660365Y-118631328D01*
X238668048Y-118632999D01*
X240945169Y-118632999D01*
X240951990Y-118632629D01*
X241002852Y-118627105D01*
X241018104Y-118623479D01*
X241138554Y-118578324D01*
X241154149Y-118569786D01*
X241256224Y-118493285D01*
X241268785Y-118480724D01*
X241345286Y-118378649D01*
X241353824Y-118363054D01*
X241398978Y-118242606D01*
X241402605Y-118227351D01*
X241408131Y-118176486D01*
X241408500Y-118169672D01*
X241408500Y-117397115D01*
X241404025Y-117381876D01*
X241402635Y-117380671D01*
X241394952Y-117379000D01*
X238672615Y-117379000D01*
X238657376Y-117383475D01*
X238656171Y-117384865D01*
X238654500Y-117392548D01*
X238654500Y-118614884D01*
X238146500Y-118614884D01*
X238146500Y-117397115D01*
X238142025Y-117381876D01*
X238140635Y-117380671D01*
X238132952Y-117379000D01*
X235410616Y-117379000D01*
X235395377Y-117383475D01*
X235394172Y-117384865D01*
X235392501Y-117392548D01*
X235392501Y-118169669D01*
X234054866Y-118169669D01*
X233916777Y-117927574D01*
X233912836Y-117921504D01*
X233723720Y-117664055D01*
X233711346Y-117656697D01*
X233710738Y-117656718D01*
X233702260Y-117661950D01*
X231907022Y-119457188D01*
X231899408Y-119471132D01*
X231169356Y-119471132D01*
X231170592Y-119468868D01*
X231170461Y-119467035D01*
X231166210Y-119460420D01*
X229372026Y-117666236D01*
X229359233Y-117659250D01*
X229348480Y-117667113D01*
X229206979Y-117847575D01*
X229202847Y-117853520D01*
X229035925Y-118125912D01*
X229032514Y-118132273D01*
X228898007Y-118422045D01*
X228895339Y-118428783D01*
X228795035Y-118732077D01*
X228793158Y-118739081D01*
X228728377Y-119051896D01*
X228727320Y-119059056D01*
X228698922Y-119377242D01*
X228698694Y-119384495D01*
X220720323Y-119384495D01*
X220610316Y-119343255D01*
X220599526Y-119342083D01*
X220597394Y-119341197D01*
X220594778Y-119340575D01*
X220594879Y-119340152D01*
X220533965Y-119314845D01*
X220493537Y-119256483D01*
X220491078Y-119185529D01*
X220527371Y-119124510D01*
X220536031Y-119117511D01*
X220539793Y-119114354D01*
X220544300Y-119111198D01*
X220706198Y-118949300D01*
X220715720Y-118935702D01*
X220791214Y-118827885D01*
X220837523Y-118761749D01*
X220839846Y-118756767D01*
X220839849Y-118756762D01*
X220931961Y-118559225D01*
X220931961Y-118559224D01*
X220934284Y-118554243D01*
X220937223Y-118543277D01*
X220992119Y-118338402D01*
X220992119Y-118338400D01*
X220993543Y-118333087D01*
X221013498Y-118105000D01*
X220993543Y-117876913D01*
X220979024Y-117822727D01*
X220935707Y-117661067D01*
X220935706Y-117661065D01*
X220934284Y-117655757D01*
X220928797Y-117643990D01*
X220839849Y-117453238D01*
X220839846Y-117453233D01*
X220837523Y-117448251D01*
X220745058Y-117316197D01*
X220730599Y-117295548D01*
X229724631Y-117295548D01*
X229731026Y-117306816D01*
X231522188Y-119097978D01*
X231536132Y-119105592D01*
X231537965Y-119105461D01*
X231544580Y-119101210D01*
X233337943Y-117307847D01*
X233345335Y-117294310D01*
X233338548Y-117284610D01*
X233253497Y-117211969D01*
X233247709Y-117207576D01*
X232982566Y-117029406D01*
X232976343Y-117025726D01*
X232692458Y-116879202D01*
X232685847Y-116876259D01*
X232623990Y-116852885D01*
X235392500Y-116852885D01*
X235396975Y-116868124D01*
X235398365Y-116869329D01*
X235406048Y-116871000D01*
X238128385Y-116871000D01*
X238143624Y-116866525D01*
X238144829Y-116865135D01*
X238146500Y-116857452D01*
X238146500Y-116852885D01*
X238654500Y-116852885D01*
X238658975Y-116868124D01*
X238660365Y-116869329D01*
X238668048Y-116871000D01*
X241390384Y-116871000D01*
X241405623Y-116866525D01*
X241406828Y-116865135D01*
X241408499Y-116857452D01*
X241408499Y-116080331D01*
X241408129Y-116073510D01*
X241402605Y-116022648D01*
X241398979Y-116007396D01*
X241353824Y-115886946D01*
X241345286Y-115871351D01*
X241268785Y-115769276D01*
X241256224Y-115756715D01*
X241154149Y-115680214D01*
X241138554Y-115671676D01*
X241018106Y-115626522D01*
X241002851Y-115622895D01*
X240951986Y-115617369D01*
X240945172Y-115617000D01*
X238672615Y-115617000D01*
X238657376Y-115621475D01*
X238656171Y-115622865D01*
X238654500Y-115630548D01*
X238654500Y-116852885D01*
X238146500Y-116852885D01*
X238146500Y-115635116D01*
X238142025Y-115619877D01*
X238140635Y-115618672D01*
X238132952Y-115617001D01*
X235855831Y-115617001D01*
X235849010Y-115617371D01*
X235798148Y-115622895D01*
X235782896Y-115626521D01*
X235662446Y-115671676D01*
X235646851Y-115680214D01*
X235544776Y-115756715D01*
X235532215Y-115769276D01*
X235455714Y-115871351D01*
X235447176Y-115886946D01*
X235402022Y-116007394D01*
X235398395Y-116022649D01*
X235392869Y-116073514D01*
X235392500Y-116080328D01*
X235392500Y-116852885D01*
X232623990Y-116852885D01*
X232387016Y-116763340D01*
X232380097Y-116761172D01*
X232070273Y-116683349D01*
X232063148Y-116681990D01*
X231746439Y-116640294D01*
X231739197Y-116639763D01*
X231419807Y-116634745D01*
X231412545Y-116635049D01*
X231094678Y-116666777D01*
X231087530Y-116667909D01*
X230775404Y-116735963D01*
X230768427Y-116737911D01*
X230466194Y-116841389D01*
X230459487Y-116844126D01*
X230171157Y-116981653D01*
X230164799Y-116985148D01*
X229894200Y-117154895D01*
X229888272Y-117159107D01*
X229733101Y-117283422D01*
X229724631Y-117295548D01*
X220730599Y-117295548D01*
X220709357Y-117265211D01*
X220709355Y-117265208D01*
X220706198Y-117260700D01*
X220544300Y-117098802D01*
X220539792Y-117095645D01*
X220539789Y-117095643D01*
X220461611Y-117040902D01*
X220356749Y-116967477D01*
X220351767Y-116965154D01*
X220351762Y-116965151D01*
X220317543Y-116949195D01*
X220264258Y-116902278D01*
X220244797Y-116834001D01*
X220265339Y-116766041D01*
X220317543Y-116720805D01*
X220351762Y-116704849D01*
X220351767Y-116704846D01*
X220356749Y-116702523D01*
X220492681Y-116607342D01*
X220539789Y-116574357D01*
X220539792Y-116574355D01*
X220544300Y-116571198D01*
X220706198Y-116409300D01*
X220715720Y-116395702D01*
X220834366Y-116226257D01*
X220837523Y-116221749D01*
X220839846Y-116216767D01*
X220839849Y-116216762D01*
X220931961Y-116019225D01*
X220931961Y-116019224D01*
X220934284Y-116014243D01*
X220936060Y-116007617D01*
X220992119Y-115798402D01*
X220992119Y-115798400D01*
X220993543Y-115793087D01*
X221013498Y-115565000D01*
X220993543Y-115336913D01*
X220934284Y-115115757D01*
X220853328Y-114942145D01*
X220839849Y-114913238D01*
X220839846Y-114913233D01*
X220837523Y-114908251D01*
X220734646Y-114761328D01*
X220709357Y-114725211D01*
X220709355Y-114725208D01*
X220706198Y-114720700D01*
X220544300Y-114558802D01*
X220539792Y-114555645D01*
X220539789Y-114555643D01*
X220425107Y-114475342D01*
X220356749Y-114427477D01*
X220351767Y-114425154D01*
X220351762Y-114425151D01*
X220317543Y-114409195D01*
X220264258Y-114362278D01*
X220244797Y-114294001D01*
X220265339Y-114226041D01*
X220317543Y-114180805D01*
X220351762Y-114164849D01*
X220351767Y-114164846D01*
X220356749Y-114162523D01*
X220485513Y-114072361D01*
X220539789Y-114034357D01*
X220539792Y-114034355D01*
X220544300Y-114031198D01*
X220706198Y-113869300D01*
X220712098Y-113860875D01*
X220834366Y-113686257D01*
X220837523Y-113681749D01*
X220839846Y-113676767D01*
X220839849Y-113676762D01*
X220931961Y-113479225D01*
X220931961Y-113479224D01*
X220934284Y-113474243D01*
X220936060Y-113467617D01*
X220992119Y-113258402D01*
X220992119Y-113258400D01*
X220993543Y-113253087D01*
X221013498Y-113025000D01*
X220993543Y-112796913D01*
X220968967Y-112705196D01*
X220935707Y-112581067D01*
X220935706Y-112581065D01*
X220934284Y-112575757D01*
X220928797Y-112563990D01*
X220839849Y-112373238D01*
X220839846Y-112373233D01*
X220837523Y-112368251D01*
X220706198Y-112180700D01*
X220544300Y-112018802D01*
X220539792Y-112015645D01*
X220539789Y-112015643D01*
X220401491Y-111918806D01*
X220356749Y-111887477D01*
X220351767Y-111885154D01*
X220351762Y-111885151D01*
X220317543Y-111869195D01*
X220264258Y-111822278D01*
X220244797Y-111754001D01*
X220265339Y-111686041D01*
X220317543Y-111640805D01*
X220351762Y-111624849D01*
X220351767Y-111624846D01*
X220356749Y-111622523D01*
X220536648Y-111496556D01*
X220539789Y-111494357D01*
X220539792Y-111494355D01*
X220544300Y-111491198D01*
X220706198Y-111329300D01*
X220711866Y-111321206D01*
X220834366Y-111146257D01*
X220837523Y-111141749D01*
X220839846Y-111136767D01*
X220839849Y-111136762D01*
X220931961Y-110939225D01*
X220931961Y-110939224D01*
X220934284Y-110934243D01*
X220936060Y-110927617D01*
X220992119Y-110718402D01*
X220992119Y-110718400D01*
X220993543Y-110713087D01*
X221013498Y-110485000D01*
X220993543Y-110256913D01*
X220991615Y-110249717D01*
X220935707Y-110041067D01*
X220935706Y-110041065D01*
X220934284Y-110035757D01*
X220928797Y-110023990D01*
X220839849Y-109833238D01*
X220839846Y-109833233D01*
X220837523Y-109828251D01*
X220706198Y-109640700D01*
X220544300Y-109478802D01*
X220539792Y-109475645D01*
X220539789Y-109475643D01*
X220375750Y-109360782D01*
X220356749Y-109347477D01*
X220351767Y-109345154D01*
X220351762Y-109345151D01*
X220317543Y-109329195D01*
X220264258Y-109282278D01*
X220244797Y-109214001D01*
X220265339Y-109146041D01*
X220317543Y-109100805D01*
X220351762Y-109084849D01*
X220351767Y-109084846D01*
X220356749Y-109082523D01*
X220474374Y-109000161D01*
X228704393Y-109000161D01*
X228713687Y-109012175D01*
X228754088Y-109040464D01*
X228763584Y-109045947D01*
X228953113Y-109134326D01*
X228963405Y-109138072D01*
X229165401Y-109192196D01*
X229176196Y-109194099D01*
X229384525Y-109212326D01*
X229395475Y-109212326D01*
X229603804Y-109194099D01*
X229614599Y-109192196D01*
X229816595Y-109138072D01*
X229826887Y-109134326D01*
X230016416Y-109045947D01*
X230025912Y-109040464D01*
X230067148Y-109011590D01*
X230075523Y-109001112D01*
X230068457Y-108987668D01*
X229402811Y-108322021D01*
X229388868Y-108314408D01*
X229387034Y-108314539D01*
X229380420Y-108318790D01*
X228710820Y-108988391D01*
X228704393Y-109000161D01*
X220474374Y-109000161D01*
X220532344Y-108959570D01*
X220539789Y-108954357D01*
X220539792Y-108954355D01*
X220544300Y-108951198D01*
X220706198Y-108789300D01*
X220710685Y-108782893D01*
X220813874Y-108635523D01*
X220837523Y-108601749D01*
X220839846Y-108596767D01*
X220839849Y-108596762D01*
X220931961Y-108399225D01*
X220931961Y-108399224D01*
X220934284Y-108394243D01*
X220943082Y-108361411D01*
X220992119Y-108178402D01*
X220992119Y-108178400D01*
X220993543Y-108173087D01*
X221012582Y-107955475D01*
X228127674Y-107955475D01*
X228145901Y-108163804D01*
X228147804Y-108174599D01*
X228201928Y-108376595D01*
X228205674Y-108386887D01*
X228294054Y-108576417D01*
X228299534Y-108585907D01*
X228328411Y-108627149D01*
X228338887Y-108635523D01*
X228352334Y-108628455D01*
X229017979Y-107962811D01*
X229025592Y-107948868D01*
X229025461Y-107947034D01*
X229021210Y-107940420D01*
X228351609Y-107270820D01*
X228339839Y-107264393D01*
X228327824Y-107273689D01*
X228299534Y-107314093D01*
X228294054Y-107323583D01*
X228205674Y-107513113D01*
X228201928Y-107523405D01*
X228147804Y-107725401D01*
X228145901Y-107736196D01*
X228127674Y-107944525D01*
X228127674Y-107955475D01*
X221012582Y-107955475D01*
X221013498Y-107945000D01*
X220993543Y-107716913D01*
X220978185Y-107659595D01*
X220935707Y-107501067D01*
X220935706Y-107501065D01*
X220934284Y-107495757D01*
X220893952Y-107409264D01*
X220839849Y-107293238D01*
X220839846Y-107293233D01*
X220837523Y-107288251D01*
X220706198Y-107100700D01*
X220544300Y-106938802D01*
X220539792Y-106935645D01*
X220539789Y-106935643D01*
X220396724Y-106835468D01*
X220356749Y-106807477D01*
X220351767Y-106805154D01*
X220351762Y-106805151D01*
X220317543Y-106789195D01*
X220264258Y-106742278D01*
X220244797Y-106674001D01*
X220265339Y-106606041D01*
X220317543Y-106560805D01*
X220351762Y-106544849D01*
X220351767Y-106544846D01*
X220356749Y-106542523D01*
X220482459Y-106454500D01*
X220539789Y-106414357D01*
X220539792Y-106414355D01*
X220544300Y-106411198D01*
X220706198Y-106249300D01*
X220728980Y-106216765D01*
X220803049Y-106110983D01*
X220837523Y-106061749D01*
X220839846Y-106056767D01*
X220839849Y-106056762D01*
X220931961Y-105859225D01*
X220931961Y-105859224D01*
X220934284Y-105854243D01*
X220936060Y-105847617D01*
X220992119Y-105638402D01*
X220992119Y-105638400D01*
X220993543Y-105633087D01*
X221013498Y-105405000D01*
X220993543Y-105176913D01*
X220992117Y-105171591D01*
X220935707Y-104961067D01*
X220935706Y-104961065D01*
X220934284Y-104955757D01*
X220866506Y-104810405D01*
X220839849Y-104753238D01*
X220839846Y-104753233D01*
X220837523Y-104748251D01*
X220746709Y-104618556D01*
X220709357Y-104565211D01*
X220709355Y-104565208D01*
X220706198Y-104560700D01*
X220544300Y-104398802D01*
X220539792Y-104395645D01*
X220539789Y-104395643D01*
X220438493Y-104324715D01*
X220356749Y-104267477D01*
X220351767Y-104265154D01*
X220351762Y-104265151D01*
X220317543Y-104249195D01*
X220264258Y-104202278D01*
X220244797Y-104134001D01*
X220265339Y-104066041D01*
X220317543Y-104020805D01*
X220351762Y-104004849D01*
X220351767Y-104004846D01*
X220356749Y-104002523D01*
X220461642Y-103929076D01*
X220539789Y-103874357D01*
X220539792Y-103874355D01*
X220544300Y-103871198D01*
X220706198Y-103709300D01*
X220709522Y-103704553D01*
X220709621Y-103704474D01*
X220712892Y-103700576D01*
X220713675Y-103701233D01*
X220764981Y-103660226D01*
X220835600Y-103652919D01*
X220901828Y-103687732D01*
X221746343Y-104532247D01*
X221753887Y-104540537D01*
X221758000Y-104547018D01*
X221763777Y-104552443D01*
X221807667Y-104593658D01*
X221810509Y-104596413D01*
X221830230Y-104616134D01*
X221833425Y-104618612D01*
X221842447Y-104626318D01*
X221874679Y-104656586D01*
X221881628Y-104660406D01*
X221892432Y-104666346D01*
X221908956Y-104677199D01*
X221924959Y-104689613D01*
X221965543Y-104707176D01*
X221976173Y-104712383D01*
X222014940Y-104733695D01*
X222022617Y-104735666D01*
X222022622Y-104735668D01*
X222034558Y-104738732D01*
X222053266Y-104745137D01*
X222071855Y-104753181D01*
X222079683Y-104754421D01*
X222079690Y-104754423D01*
X222115524Y-104760099D01*
X222127144Y-104762505D01*
X222162289Y-104771528D01*
X222169970Y-104773500D01*
X222190224Y-104773500D01*
X222209934Y-104775051D01*
X222229943Y-104778220D01*
X222237835Y-104777474D01*
X222273961Y-104774059D01*
X222285819Y-104773500D01*
X227425406Y-104773500D01*
X227493527Y-104793502D01*
X227514501Y-104810405D01*
X228121672Y-105417576D01*
X228155698Y-105479888D01*
X228154284Y-105539281D01*
X228147309Y-105565312D01*
X228147308Y-105565319D01*
X228145885Y-105570629D01*
X228126693Y-105790000D01*
X228145885Y-106009371D01*
X228202880Y-106222076D01*
X228236015Y-106293134D01*
X228293618Y-106416666D01*
X228293621Y-106416671D01*
X228295944Y-106421653D01*
X228299100Y-106426160D01*
X228299101Y-106426162D01*
X228382207Y-106544849D01*
X228422251Y-106602038D01*
X228577962Y-106757749D01*
X228582471Y-106760906D01*
X228582473Y-106760908D01*
X228647609Y-106806517D01*
X228691937Y-106861975D01*
X228694521Y-106879946D01*
X228711543Y-106912332D01*
X229390000Y-107590790D01*
X230428388Y-108629177D01*
X230440162Y-108635606D01*
X230452176Y-108626310D01*
X230480466Y-108585907D01*
X230485946Y-108576417D01*
X230574326Y-108386887D01*
X230578072Y-108376595D01*
X230627803Y-108190994D01*
X230664755Y-108130371D01*
X230728615Y-108099350D01*
X230799110Y-108107778D01*
X230838605Y-108134510D01*
X235355095Y-112651000D01*
X235389121Y-112713312D01*
X235392000Y-112740095D01*
X235392000Y-114213134D01*
X235398755Y-114275316D01*
X235449885Y-114411705D01*
X235537239Y-114528261D01*
X235653795Y-114615615D01*
X235790184Y-114666745D01*
X235852366Y-114673500D01*
X240948634Y-114673500D01*
X241010816Y-114666745D01*
X241147205Y-114615615D01*
X241263761Y-114528261D01*
X241351115Y-114411705D01*
X241402245Y-114275316D01*
X241409000Y-114213134D01*
X241409000Y-112116866D01*
X241402245Y-112054684D01*
X241351115Y-111918295D01*
X241263761Y-111801739D01*
X241147205Y-111714385D01*
X241010816Y-111663255D01*
X240948634Y-111656500D01*
X236204594Y-111656500D01*
X236136473Y-111636498D01*
X236115499Y-111619595D01*
X233918999Y-109423094D01*
X233884973Y-109360782D01*
X233890038Y-109289966D01*
X233932585Y-109233131D01*
X233999105Y-109208320D01*
X234008094Y-109207999D01*
X234474669Y-109207999D01*
X234481490Y-109207629D01*
X234532352Y-109202105D01*
X234547604Y-109198479D01*
X234668054Y-109153324D01*
X234683649Y-109144786D01*
X234785724Y-109068285D01*
X234798285Y-109055724D01*
X234874786Y-108953649D01*
X234883324Y-108938054D01*
X234928478Y-108817606D01*
X234932105Y-108802351D01*
X234937631Y-108751486D01*
X234938000Y-108744672D01*
X234938000Y-108222115D01*
X234933525Y-108206876D01*
X234932135Y-108205671D01*
X234924452Y-108204000D01*
X233552000Y-108204000D01*
X233483879Y-108183998D01*
X233437386Y-108130342D01*
X233426000Y-108078000D01*
X233426000Y-107822000D01*
X233446002Y-107753879D01*
X233499658Y-107707386D01*
X233552000Y-107696000D01*
X234919884Y-107696000D01*
X234935123Y-107691525D01*
X234936328Y-107690135D01*
X234937999Y-107682452D01*
X234937999Y-107624011D01*
X234958001Y-107555890D01*
X235011657Y-107509397D01*
X235063999Y-107498011D01*
X235642621Y-107498011D01*
X235710742Y-107518013D01*
X235757235Y-107571669D01*
X235767339Y-107641943D01*
X235737845Y-107706523D01*
X235686850Y-107741993D01*
X235662205Y-107751232D01*
X235662204Y-107751233D01*
X235653795Y-107754385D01*
X235537239Y-107841739D01*
X235449885Y-107958295D01*
X235398755Y-108094684D01*
X235392000Y-108156866D01*
X235392000Y-110253134D01*
X235398755Y-110315316D01*
X235449885Y-110451705D01*
X235537239Y-110568261D01*
X235653795Y-110655615D01*
X235790184Y-110706745D01*
X235852366Y-110713500D01*
X240948634Y-110713500D01*
X241010816Y-110706745D01*
X241147205Y-110655615D01*
X241263761Y-110568261D01*
X241351115Y-110451705D01*
X241402245Y-110315316D01*
X241409000Y-110253134D01*
X241409000Y-108156866D01*
X241402245Y-108094684D01*
X241351115Y-107958295D01*
X241263761Y-107841739D01*
X241147205Y-107754385D01*
X241010816Y-107703255D01*
X240948634Y-107696500D01*
X237840095Y-107696500D01*
X237771974Y-107676498D01*
X237751000Y-107659595D01*
X237060000Y-106968595D01*
X237025974Y-106906283D01*
X237031039Y-106835468D01*
X237073586Y-106778632D01*
X237140106Y-106753821D01*
X237149095Y-106753500D01*
X240948634Y-106753500D01*
X241010816Y-106746745D01*
X241147205Y-106695615D01*
X241263761Y-106608261D01*
X241351115Y-106491705D01*
X241402245Y-106355316D01*
X241409000Y-106293134D01*
X241409000Y-104196866D01*
X241402245Y-104134684D01*
X241351115Y-103998295D01*
X241263761Y-103881739D01*
X241147205Y-103794385D01*
X241010816Y-103743255D01*
X240948634Y-103736500D01*
X235852366Y-103736500D01*
X235790184Y-103743255D01*
X235653795Y-103794385D01*
X235537239Y-103881739D01*
X235449885Y-103998295D01*
X235446733Y-104006703D01*
X235442423Y-104014575D01*
X235439556Y-104013005D01*
X235406535Y-104056974D01*
X235339977Y-104081682D01*
X235331182Y-104081989D01*
X235025474Y-104081989D01*
X234957353Y-104061987D01*
X234910860Y-104008331D01*
X234900756Y-103938057D01*
X234903767Y-103923378D01*
X234922196Y-103854599D01*
X234924099Y-103843804D01*
X234942326Y-103635475D01*
X234942326Y-103624525D01*
X234924099Y-103416196D01*
X234922196Y-103405401D01*
X234868072Y-103203405D01*
X234864326Y-103193113D01*
X234775946Y-103003583D01*
X234770466Y-102994093D01*
X234741589Y-102952851D01*
X234731113Y-102944477D01*
X234717666Y-102951545D01*
X234039210Y-103630000D01*
X233769095Y-103900116D01*
X233706783Y-103934141D01*
X233635967Y-103929076D01*
X233590905Y-103900115D01*
X233320790Y-103630000D01*
X232641613Y-102950824D01*
X232629839Y-102944394D01*
X232617824Y-102953690D01*
X232589534Y-102994093D01*
X232584054Y-103003583D01*
X232495674Y-103193113D01*
X232491928Y-103203405D01*
X232448537Y-103365346D01*
X232411586Y-103425969D01*
X232347725Y-103456990D01*
X232277231Y-103448562D01*
X232237735Y-103421830D01*
X231338234Y-102522329D01*
X232993209Y-102522329D01*
X232994784Y-102544350D01*
X232994435Y-102566311D01*
X232993354Y-102576752D01*
X233001544Y-102592333D01*
X233667189Y-103257979D01*
X233681132Y-103265592D01*
X233682966Y-103265461D01*
X233689580Y-103261210D01*
X234359180Y-102591609D01*
X234366791Y-102577671D01*
X234365216Y-102555648D01*
X234365564Y-102533690D01*
X234366645Y-102523247D01*
X234358456Y-102507667D01*
X233692811Y-101842021D01*
X233678868Y-101834408D01*
X233677034Y-101834539D01*
X233670420Y-101838790D01*
X233000820Y-102508391D01*
X232993209Y-102522329D01*
X231338234Y-102522329D01*
X230658328Y-101842423D01*
X230624302Y-101780111D01*
X230625716Y-101720717D01*
X230632691Y-101694685D01*
X230632692Y-101694681D01*
X230634115Y-101689371D01*
X230653307Y-101470000D01*
X230634115Y-101250629D01*
X230632691Y-101245315D01*
X230632690Y-101245309D01*
X230617227Y-101187601D01*
X230618916Y-101116625D01*
X230658709Y-101057829D01*
X230723973Y-101029880D01*
X230738933Y-101028989D01*
X232331585Y-101028989D01*
X232399706Y-101048991D01*
X232446199Y-101102647D01*
X232456303Y-101172921D01*
X232453292Y-101187600D01*
X232437804Y-101245401D01*
X232435901Y-101256196D01*
X232417674Y-101464525D01*
X232417674Y-101475475D01*
X232435901Y-101683804D01*
X232437804Y-101694599D01*
X232491928Y-101896595D01*
X232495674Y-101906887D01*
X232584054Y-102096417D01*
X232589534Y-102105907D01*
X232618411Y-102147149D01*
X232628886Y-102155523D01*
X232642333Y-102148455D01*
X233590905Y-101199884D01*
X233653217Y-101165859D01*
X233724033Y-101170924D01*
X233769095Y-101199884D01*
X234718389Y-102149178D01*
X234730162Y-102155606D01*
X234742176Y-102146311D01*
X234770466Y-102105907D01*
X234775946Y-102096417D01*
X234864326Y-101906887D01*
X234868072Y-101896595D01*
X234922196Y-101694599D01*
X234924099Y-101683804D01*
X234942326Y-101475475D01*
X234942326Y-101464525D01*
X234924099Y-101256196D01*
X234922196Y-101245401D01*
X234906708Y-101187600D01*
X234908398Y-101116624D01*
X234948192Y-101057828D01*
X235013456Y-101029880D01*
X235028415Y-101028989D01*
X235266000Y-101028989D01*
X235334121Y-101048991D01*
X235380614Y-101102647D01*
X235392000Y-101154989D01*
X235392000Y-102333134D01*
X235398755Y-102395316D01*
X235449885Y-102531705D01*
X235537239Y-102648261D01*
X235653795Y-102735615D01*
X235790184Y-102786745D01*
X235852366Y-102793500D01*
X240948634Y-102793500D01*
X241010816Y-102786745D01*
X241147205Y-102735615D01*
X241263761Y-102648261D01*
X241351115Y-102531705D01*
X241402245Y-102395316D01*
X241409000Y-102333134D01*
X241409000Y-100236866D01*
X241402245Y-100174684D01*
X241351115Y-100038295D01*
X241263761Y-99921739D01*
X241147205Y-99834385D01*
X241010816Y-99783255D01*
X240948634Y-99776500D01*
X237663456Y-99776500D01*
X237632122Y-99772542D01*
X237598698Y-99763960D01*
X237598694Y-99763959D01*
X237591019Y-99761989D01*
X237570765Y-99761989D01*
X237551054Y-99760438D01*
X237538875Y-99758509D01*
X237531046Y-99757269D01*
X237488393Y-99761301D01*
X237487028Y-99761430D01*
X237475170Y-99761989D01*
X235025474Y-99761989D01*
X234957353Y-99741987D01*
X234910860Y-99688331D01*
X234900756Y-99618057D01*
X234903767Y-99603378D01*
X234922196Y-99534599D01*
X234924099Y-99523804D01*
X234942326Y-99315475D01*
X234942326Y-99304525D01*
X234924099Y-99096196D01*
X234922196Y-99085401D01*
X234868072Y-98883405D01*
X234864326Y-98873113D01*
X234775946Y-98683583D01*
X234770466Y-98674093D01*
X234741589Y-98632851D01*
X234731114Y-98624477D01*
X234717667Y-98631545D01*
X233769095Y-99580116D01*
X233706783Y-99614141D01*
X233635967Y-99609076D01*
X233590905Y-99580116D01*
X232641611Y-98630822D01*
X232629838Y-98624394D01*
X232617824Y-98633689D01*
X232589534Y-98674093D01*
X232584054Y-98683583D01*
X232495674Y-98873113D01*
X232491928Y-98883405D01*
X232437804Y-99085401D01*
X232435901Y-99096196D01*
X232417674Y-99304525D01*
X232417674Y-99315475D01*
X232435901Y-99523804D01*
X232437804Y-99534599D01*
X232456233Y-99603378D01*
X232454543Y-99674355D01*
X232414748Y-99733151D01*
X232349484Y-99761098D01*
X232334526Y-99761989D01*
X230790084Y-99761989D01*
X230721963Y-99741987D01*
X230700989Y-99725084D01*
X230658328Y-99682423D01*
X230624302Y-99620111D01*
X230625716Y-99560717D01*
X230632691Y-99534685D01*
X230632692Y-99534681D01*
X230634115Y-99529371D01*
X230653307Y-99310000D01*
X230634115Y-99090629D01*
X230577120Y-98877924D01*
X230533585Y-98784562D01*
X230486382Y-98683334D01*
X230486379Y-98683329D01*
X230484056Y-98678347D01*
X230452216Y-98632875D01*
X230360908Y-98502473D01*
X230360906Y-98502470D01*
X230357749Y-98497962D01*
X230202038Y-98342251D01*
X230197532Y-98339096D01*
X230197525Y-98339090D01*
X230189132Y-98333214D01*
X230144803Y-98277758D01*
X230137492Y-98207138D01*
X230139923Y-98202329D01*
X232993209Y-98202329D01*
X232994784Y-98224350D01*
X232994435Y-98246311D01*
X232993354Y-98256752D01*
X233001544Y-98272333D01*
X233667189Y-98937979D01*
X233681132Y-98945592D01*
X233682966Y-98945461D01*
X233689580Y-98941210D01*
X234359180Y-98271609D01*
X234366791Y-98257671D01*
X234365216Y-98235648D01*
X234365564Y-98213690D01*
X234366645Y-98203247D01*
X234358456Y-98187667D01*
X233692811Y-97522021D01*
X233678868Y-97514408D01*
X233677034Y-97514539D01*
X233670420Y-97518790D01*
X233000820Y-98188391D01*
X232993209Y-98202329D01*
X230139923Y-98202329D01*
X230169522Y-98143778D01*
X230189132Y-98126786D01*
X230197525Y-98120910D01*
X230197532Y-98120904D01*
X230202038Y-98117749D01*
X230357749Y-97962038D01*
X230369612Y-97945097D01*
X230480899Y-97786162D01*
X230480900Y-97786160D01*
X230484056Y-97781653D01*
X230486379Y-97776671D01*
X230486382Y-97776666D01*
X230574795Y-97587061D01*
X230577120Y-97582076D01*
X230634115Y-97369371D01*
X230653307Y-97150000D01*
X230634115Y-96930629D01*
X230625716Y-96899283D01*
X230627406Y-96828306D01*
X230658328Y-96777577D01*
X230690011Y-96745894D01*
X230752323Y-96711868D01*
X230779106Y-96708989D01*
X232331585Y-96708989D01*
X232399706Y-96728991D01*
G37*
%TD.AperFunction*%
%TA.AperFunction,Conductor*%
G36*
X224543527Y-83203502D02*
G01*
X224564501Y-83220405D01*
X225760555Y-84416460D01*
X225794581Y-84478772D01*
X225797460Y-84505555D01*
X225797460Y-87632193D01*
X225796933Y-87643376D01*
X225795258Y-87650869D01*
X225795507Y-87658795D01*
X225795507Y-87658796D01*
X225797398Y-87718946D01*
X225797460Y-87722905D01*
X225797460Y-87750816D01*
X225797957Y-87754750D01*
X225797957Y-87754751D01*
X225797965Y-87754816D01*
X225798898Y-87766653D01*
X225800287Y-87810849D01*
X225805938Y-87830299D01*
X225809947Y-87849660D01*
X225812486Y-87869757D01*
X225815405Y-87877128D01*
X225815405Y-87877130D01*
X225828764Y-87910872D01*
X225832609Y-87922102D01*
X225844942Y-87964553D01*
X225848975Y-87971372D01*
X225848977Y-87971377D01*
X225855253Y-87981988D01*
X225863948Y-87999736D01*
X225871408Y-88018577D01*
X225876070Y-88024993D01*
X225876070Y-88024994D01*
X225897396Y-88054347D01*
X225903912Y-88064267D01*
X225926418Y-88102322D01*
X225940739Y-88116643D01*
X225953579Y-88131676D01*
X225965488Y-88148067D01*
X225988015Y-88166703D01*
X225999565Y-88176258D01*
X226008344Y-88184248D01*
X228121672Y-90297576D01*
X228155698Y-90359888D01*
X228154284Y-90419281D01*
X228147309Y-90445312D01*
X228147308Y-90445319D01*
X228145885Y-90450629D01*
X228126693Y-90670000D01*
X228145885Y-90889371D01*
X228202880Y-91102076D01*
X228246415Y-91195438D01*
X228293618Y-91296666D01*
X228293621Y-91296671D01*
X228295944Y-91301653D01*
X228299100Y-91306160D01*
X228299101Y-91306162D01*
X228403544Y-91455321D01*
X228422251Y-91482038D01*
X228577962Y-91637749D01*
X228582468Y-91640904D01*
X228582475Y-91640910D01*
X228590868Y-91646786D01*
X228635197Y-91702242D01*
X228642508Y-91772862D01*
X228610478Y-91836222D01*
X228590868Y-91853214D01*
X228582475Y-91859090D01*
X228582468Y-91859096D01*
X228577962Y-91862251D01*
X228422251Y-92017962D01*
X228419094Y-92022470D01*
X228419092Y-92022473D01*
X228299398Y-92193414D01*
X228295944Y-92198347D01*
X228293621Y-92203329D01*
X228293618Y-92203334D01*
X228254907Y-92286351D01*
X228202880Y-92397924D01*
X228145885Y-92610629D01*
X228126693Y-92830000D01*
X228145885Y-93049371D01*
X228202880Y-93262076D01*
X228243180Y-93348500D01*
X228293618Y-93456666D01*
X228293621Y-93456671D01*
X228295944Y-93461653D01*
X228299100Y-93466160D01*
X228299101Y-93466162D01*
X228351671Y-93541239D01*
X228422251Y-93642038D01*
X228577962Y-93797749D01*
X228582468Y-93800904D01*
X228582475Y-93800910D01*
X228590868Y-93806786D01*
X228635197Y-93862242D01*
X228642508Y-93932862D01*
X228610478Y-93996222D01*
X228590868Y-94013214D01*
X228582475Y-94019090D01*
X228582468Y-94019096D01*
X228577962Y-94022251D01*
X228422251Y-94177962D01*
X228419094Y-94182470D01*
X228419092Y-94182473D01*
X228321215Y-94322256D01*
X228295944Y-94358347D01*
X228293621Y-94363329D01*
X228293618Y-94363334D01*
X228263029Y-94428933D01*
X228202880Y-94557924D01*
X228145885Y-94770629D01*
X228126693Y-94990000D01*
X228145885Y-95209371D01*
X228202880Y-95422076D01*
X228227228Y-95474290D01*
X228293618Y-95616666D01*
X228293621Y-95616671D01*
X228295944Y-95621653D01*
X228422251Y-95802038D01*
X228577962Y-95957749D01*
X228582468Y-95960904D01*
X228582475Y-95960910D01*
X228590868Y-95966786D01*
X228635197Y-96022242D01*
X228642508Y-96092862D01*
X228610478Y-96156222D01*
X228590868Y-96173214D01*
X228582475Y-96179090D01*
X228582468Y-96179096D01*
X228577962Y-96182251D01*
X228422251Y-96337962D01*
X228419094Y-96342470D01*
X228419092Y-96342473D01*
X228300469Y-96511884D01*
X228295944Y-96518347D01*
X228293621Y-96523329D01*
X228293618Y-96523334D01*
X228281294Y-96549764D01*
X228202880Y-96717924D01*
X228145885Y-96930629D01*
X228126693Y-97150000D01*
X228145885Y-97369371D01*
X228202880Y-97582076D01*
X228205205Y-97587061D01*
X228293618Y-97776666D01*
X228293621Y-97776671D01*
X228295944Y-97781653D01*
X228299100Y-97786160D01*
X228299101Y-97786162D01*
X228410389Y-97945097D01*
X228422251Y-97962038D01*
X228577962Y-98117749D01*
X228582468Y-98120904D01*
X228582475Y-98120910D01*
X228590868Y-98126786D01*
X228635197Y-98182242D01*
X228642508Y-98252862D01*
X228610478Y-98316222D01*
X228590868Y-98333214D01*
X228582475Y-98339090D01*
X228582468Y-98339096D01*
X228577962Y-98342251D01*
X228422251Y-98497962D01*
X228419094Y-98502470D01*
X228419092Y-98502473D01*
X228327784Y-98632875D01*
X228295944Y-98678347D01*
X228293621Y-98683329D01*
X228293618Y-98683334D01*
X228246415Y-98784562D01*
X228202880Y-98877924D01*
X228145885Y-99090629D01*
X228126693Y-99310000D01*
X228145885Y-99529371D01*
X228202880Y-99742076D01*
X228222082Y-99783255D01*
X228293618Y-99936666D01*
X228293621Y-99936671D01*
X228295944Y-99941653D01*
X228299100Y-99946160D01*
X228299101Y-99946162D01*
X228400937Y-100091598D01*
X228422251Y-100122038D01*
X228577962Y-100277749D01*
X228582468Y-100280904D01*
X228582475Y-100280910D01*
X228590868Y-100286786D01*
X228635197Y-100342242D01*
X228642508Y-100412862D01*
X228610478Y-100476222D01*
X228590868Y-100493214D01*
X228582475Y-100499090D01*
X228582468Y-100499096D01*
X228577962Y-100502251D01*
X228422251Y-100657962D01*
X228419094Y-100662470D01*
X228419092Y-100662473D01*
X228299101Y-100833838D01*
X228295944Y-100838347D01*
X228293621Y-100843329D01*
X228293618Y-100843334D01*
X228267801Y-100898699D01*
X228202880Y-101037924D01*
X228145885Y-101250629D01*
X228126693Y-101470000D01*
X228145885Y-101689371D01*
X228202880Y-101902076D01*
X228232797Y-101966233D01*
X228293618Y-102096666D01*
X228293621Y-102096671D01*
X228295944Y-102101653D01*
X228299100Y-102106160D01*
X228299101Y-102106162D01*
X228400120Y-102250431D01*
X228422251Y-102282038D01*
X228577962Y-102437749D01*
X228582468Y-102440904D01*
X228582475Y-102440910D01*
X228590868Y-102446786D01*
X228635197Y-102502242D01*
X228642508Y-102572862D01*
X228610478Y-102636222D01*
X228590868Y-102653214D01*
X228582475Y-102659090D01*
X228582468Y-102659096D01*
X228577962Y-102662251D01*
X228422251Y-102817962D01*
X228419094Y-102822470D01*
X228419092Y-102822473D01*
X228385481Y-102870475D01*
X228335631Y-102941669D01*
X228334859Y-102942771D01*
X228279402Y-102987099D01*
X228231646Y-102996500D01*
X223319594Y-102996500D01*
X223251473Y-102976498D01*
X223230499Y-102959595D01*
X221009152Y-100738248D01*
X220975126Y-100675936D01*
X220976541Y-100616541D01*
X220992118Y-100558409D01*
X220992120Y-100558398D01*
X220993543Y-100553087D01*
X221013498Y-100325000D01*
X220993543Y-100096913D01*
X220977836Y-100038295D01*
X220935707Y-99881067D01*
X220935706Y-99881065D01*
X220934284Y-99875757D01*
X220913522Y-99831233D01*
X220839849Y-99673238D01*
X220839846Y-99673233D01*
X220837523Y-99668251D01*
X220743939Y-99534599D01*
X220709357Y-99485211D01*
X220709355Y-99485208D01*
X220706198Y-99480700D01*
X220544300Y-99318802D01*
X220539792Y-99315645D01*
X220539789Y-99315643D01*
X220461611Y-99260902D01*
X220356749Y-99187477D01*
X220351767Y-99185154D01*
X220351762Y-99185151D01*
X220316951Y-99168919D01*
X220263666Y-99122002D01*
X220244205Y-99053725D01*
X220264747Y-98985765D01*
X220316951Y-98940529D01*
X220351511Y-98924414D01*
X220361007Y-98918931D01*
X220539467Y-98793972D01*
X220547875Y-98786916D01*
X220701916Y-98632875D01*
X220708972Y-98624467D01*
X220833931Y-98446007D01*
X220839414Y-98436511D01*
X220931490Y-98239053D01*
X220935236Y-98228761D01*
X220981394Y-98056497D01*
X220981058Y-98042401D01*
X220973116Y-98039000D01*
X218432033Y-98039000D01*
X218418502Y-98042973D01*
X218417273Y-98051522D01*
X218464764Y-98228761D01*
X218468510Y-98239053D01*
X218560586Y-98436511D01*
X218566069Y-98446007D01*
X218691028Y-98624467D01*
X218698084Y-98632875D01*
X218852125Y-98786916D01*
X218860533Y-98793972D01*
X219038993Y-98918931D01*
X219048489Y-98924414D01*
X219083049Y-98940529D01*
X219136334Y-98987446D01*
X219155795Y-99055723D01*
X219135253Y-99123683D01*
X219083049Y-99168919D01*
X219048238Y-99185151D01*
X219048233Y-99185154D01*
X219043251Y-99187477D01*
X218938389Y-99260902D01*
X218860211Y-99315643D01*
X218860208Y-99315645D01*
X218855700Y-99318802D01*
X218693802Y-99480700D01*
X218690645Y-99485208D01*
X218690643Y-99485211D01*
X218656061Y-99534599D01*
X218562477Y-99668251D01*
X218560154Y-99673233D01*
X218560151Y-99673238D01*
X218486478Y-99831233D01*
X218465716Y-99875757D01*
X218464294Y-99881065D01*
X218464293Y-99881067D01*
X218422164Y-100038295D01*
X218406457Y-100096913D01*
X218386502Y-100325000D01*
X218406457Y-100553087D01*
X218407881Y-100558400D01*
X218407881Y-100558402D01*
X218456927Y-100741441D01*
X218465716Y-100774243D01*
X218468039Y-100779224D01*
X218468039Y-100779225D01*
X218560151Y-100976762D01*
X218560154Y-100976767D01*
X218562477Y-100981749D01*
X218610797Y-101050757D01*
X218670916Y-101136615D01*
X218693802Y-101169300D01*
X218855700Y-101331198D01*
X218860208Y-101334355D01*
X218860211Y-101334357D01*
X218938389Y-101389098D01*
X219043251Y-101462523D01*
X219048233Y-101464846D01*
X219048238Y-101464849D01*
X219082457Y-101480805D01*
X219135742Y-101527722D01*
X219155203Y-101595999D01*
X219134661Y-101663959D01*
X219082457Y-101709195D01*
X219048238Y-101725151D01*
X219048233Y-101725154D01*
X219043251Y-101727477D01*
X218968888Y-101779547D01*
X218860211Y-101855643D01*
X218860208Y-101855645D01*
X218855700Y-101858802D01*
X218693802Y-102020700D01*
X218690645Y-102025208D01*
X218690643Y-102025211D01*
X218641944Y-102094760D01*
X218562477Y-102208251D01*
X218560154Y-102213233D01*
X218560151Y-102213238D01*
X218471203Y-102403990D01*
X218465716Y-102415757D01*
X218464294Y-102421065D01*
X218464293Y-102421067D01*
X218412061Y-102616000D01*
X218406457Y-102636913D01*
X218386502Y-102865000D01*
X218406457Y-103093087D01*
X218407881Y-103098400D01*
X218407881Y-103098402D01*
X218456919Y-103281411D01*
X218465716Y-103314243D01*
X218468039Y-103319224D01*
X218468039Y-103319225D01*
X218560151Y-103516762D01*
X218560154Y-103516767D01*
X218562477Y-103521749D01*
X218634442Y-103624525D01*
X218690643Y-103704788D01*
X218693802Y-103709300D01*
X218855700Y-103871198D01*
X218860208Y-103874355D01*
X218860211Y-103874357D01*
X218938358Y-103929076D01*
X219043251Y-104002523D01*
X219048233Y-104004846D01*
X219048238Y-104004849D01*
X219082457Y-104020805D01*
X219135742Y-104067722D01*
X219155203Y-104135999D01*
X219134661Y-104203959D01*
X219082457Y-104249195D01*
X219048238Y-104265151D01*
X219048233Y-104265154D01*
X219043251Y-104267477D01*
X218961507Y-104324715D01*
X218860211Y-104395643D01*
X218860208Y-104395645D01*
X218855700Y-104398802D01*
X218693802Y-104560700D01*
X218690645Y-104565208D01*
X218690643Y-104565211D01*
X218653291Y-104618556D01*
X218562477Y-104748251D01*
X218560154Y-104753233D01*
X218560151Y-104753238D01*
X218533494Y-104810405D01*
X218465716Y-104955757D01*
X218464294Y-104961065D01*
X218464293Y-104961067D01*
X218407883Y-105171591D01*
X218406457Y-105176913D01*
X218386502Y-105405000D01*
X218406457Y-105633087D01*
X218407881Y-105638400D01*
X218407881Y-105638402D01*
X218463941Y-105847617D01*
X218465716Y-105854243D01*
X218468039Y-105859224D01*
X218468039Y-105859225D01*
X218560151Y-106056762D01*
X218560154Y-106056767D01*
X218562477Y-106061749D01*
X218596951Y-106110983D01*
X218671021Y-106216765D01*
X218693802Y-106249300D01*
X218855700Y-106411198D01*
X218860208Y-106414355D01*
X218860211Y-106414357D01*
X218917541Y-106454500D01*
X219043251Y-106542523D01*
X219048233Y-106544846D01*
X219048238Y-106544849D01*
X219082457Y-106560805D01*
X219135742Y-106607722D01*
X219155203Y-106675999D01*
X219134661Y-106743959D01*
X219082457Y-106789195D01*
X219048238Y-106805151D01*
X219048233Y-106805154D01*
X219043251Y-106807477D01*
X219003276Y-106835468D01*
X218860211Y-106935643D01*
X218860208Y-106935645D01*
X218855700Y-106938802D01*
X218693802Y-107100700D01*
X218562477Y-107288251D01*
X218560154Y-107293233D01*
X218560151Y-107293238D01*
X218506048Y-107409264D01*
X218465716Y-107495757D01*
X218464294Y-107501065D01*
X218464293Y-107501067D01*
X218421815Y-107659595D01*
X218406457Y-107716913D01*
X218386502Y-107945000D01*
X218406457Y-108173087D01*
X218407881Y-108178400D01*
X218407881Y-108178402D01*
X218456919Y-108361411D01*
X218465716Y-108394243D01*
X218468039Y-108399224D01*
X218468039Y-108399225D01*
X218560151Y-108596762D01*
X218560154Y-108596767D01*
X218562477Y-108601749D01*
X218586126Y-108635523D01*
X218689316Y-108782893D01*
X218693802Y-108789300D01*
X218855700Y-108951198D01*
X218860208Y-108954355D01*
X218860211Y-108954357D01*
X218867656Y-108959570D01*
X219043251Y-109082523D01*
X219048233Y-109084846D01*
X219048238Y-109084849D01*
X219082457Y-109100805D01*
X219135742Y-109147722D01*
X219155203Y-109215999D01*
X219134661Y-109283959D01*
X219082457Y-109329195D01*
X219048238Y-109345151D01*
X219048233Y-109345154D01*
X219043251Y-109347477D01*
X219024250Y-109360782D01*
X218860211Y-109475643D01*
X218860208Y-109475645D01*
X218855700Y-109478802D01*
X218693802Y-109640700D01*
X218562477Y-109828251D01*
X218560154Y-109833233D01*
X218560151Y-109833238D01*
X218471203Y-110023990D01*
X218465716Y-110035757D01*
X218464294Y-110041065D01*
X218464293Y-110041067D01*
X218408385Y-110249717D01*
X218406457Y-110256913D01*
X218386502Y-110485000D01*
X218406457Y-110713087D01*
X218407881Y-110718400D01*
X218407881Y-110718402D01*
X218463941Y-110927617D01*
X218465716Y-110934243D01*
X218468039Y-110939224D01*
X218468039Y-110939225D01*
X218560151Y-111136762D01*
X218560154Y-111136767D01*
X218562477Y-111141749D01*
X218565634Y-111146257D01*
X218688135Y-111321206D01*
X218693802Y-111329300D01*
X218855700Y-111491198D01*
X218860208Y-111494355D01*
X218860211Y-111494357D01*
X218863352Y-111496556D01*
X219043251Y-111622523D01*
X219048233Y-111624846D01*
X219048238Y-111624849D01*
X219082457Y-111640805D01*
X219135742Y-111687722D01*
X219155203Y-111755999D01*
X219134661Y-111823959D01*
X219082457Y-111869195D01*
X219048238Y-111885151D01*
X219048233Y-111885154D01*
X219043251Y-111887477D01*
X218998509Y-111918806D01*
X218860211Y-112015643D01*
X218860208Y-112015645D01*
X218855700Y-112018802D01*
X218693802Y-112180700D01*
X218562477Y-112368251D01*
X218560154Y-112373233D01*
X218560151Y-112373238D01*
X218471203Y-112563990D01*
X218465716Y-112575757D01*
X218464294Y-112581065D01*
X218464293Y-112581067D01*
X218431033Y-112705196D01*
X218406457Y-112796913D01*
X218386502Y-113025000D01*
X218406457Y-113253087D01*
X218407881Y-113258400D01*
X218407881Y-113258402D01*
X218463941Y-113467617D01*
X218465716Y-113474243D01*
X218468039Y-113479224D01*
X218468039Y-113479225D01*
X218560151Y-113676762D01*
X218560154Y-113676767D01*
X218562477Y-113681749D01*
X218565634Y-113686257D01*
X218687903Y-113860875D01*
X218693802Y-113869300D01*
X218855700Y-114031198D01*
X218860208Y-114034355D01*
X218860211Y-114034357D01*
X218914487Y-114072361D01*
X219043251Y-114162523D01*
X219048233Y-114164846D01*
X219048238Y-114164849D01*
X219082457Y-114180805D01*
X219135742Y-114227722D01*
X219155203Y-114295999D01*
X219134661Y-114363959D01*
X219082457Y-114409195D01*
X219048238Y-114425151D01*
X219048233Y-114425154D01*
X219043251Y-114427477D01*
X218974893Y-114475342D01*
X218860211Y-114555643D01*
X218860208Y-114555645D01*
X218855700Y-114558802D01*
X218693802Y-114720700D01*
X218690645Y-114725208D01*
X218690643Y-114725211D01*
X218665354Y-114761328D01*
X218562477Y-114908251D01*
X218560154Y-114913233D01*
X218560151Y-114913238D01*
X218546672Y-114942145D01*
X218465716Y-115115757D01*
X218406457Y-115336913D01*
X218386502Y-115565000D01*
X218406457Y-115793087D01*
X218407881Y-115798400D01*
X218407881Y-115798402D01*
X218463941Y-116007617D01*
X218465716Y-116014243D01*
X218468039Y-116019224D01*
X218468039Y-116019225D01*
X218560151Y-116216762D01*
X218560154Y-116216767D01*
X218562477Y-116221749D01*
X218565634Y-116226257D01*
X218684281Y-116395702D01*
X218693802Y-116409300D01*
X218855700Y-116571198D01*
X218860208Y-116574355D01*
X218860211Y-116574357D01*
X218907319Y-116607342D01*
X219043251Y-116702523D01*
X219048233Y-116704846D01*
X219048238Y-116704849D01*
X219082457Y-116720805D01*
X219135742Y-116767722D01*
X219155203Y-116835999D01*
X219134661Y-116903959D01*
X219082457Y-116949195D01*
X219048238Y-116965151D01*
X219048233Y-116965154D01*
X219043251Y-116967477D01*
X218938389Y-117040902D01*
X218860211Y-117095643D01*
X218860208Y-117095645D01*
X218855700Y-117098802D01*
X218693802Y-117260700D01*
X218690645Y-117265208D01*
X218690643Y-117265211D01*
X218654942Y-117316197D01*
X218562477Y-117448251D01*
X218560154Y-117453233D01*
X218560151Y-117453238D01*
X218471203Y-117643990D01*
X218465716Y-117655757D01*
X218464294Y-117661065D01*
X218464293Y-117661067D01*
X218420976Y-117822727D01*
X218406457Y-117876913D01*
X218386502Y-118105000D01*
X218406457Y-118333087D01*
X218407881Y-118338400D01*
X218407881Y-118338402D01*
X218462778Y-118543277D01*
X218465716Y-118554243D01*
X218468039Y-118559224D01*
X218468039Y-118559225D01*
X218560151Y-118756762D01*
X218560154Y-118756767D01*
X218562477Y-118761749D01*
X218608786Y-118827885D01*
X218684281Y-118935702D01*
X218693802Y-118949300D01*
X218855700Y-119111198D01*
X218860211Y-119114357D01*
X218864424Y-119117892D01*
X218863473Y-119119026D01*
X218903471Y-119169071D01*
X218910776Y-119239690D01*
X218878742Y-119303049D01*
X218817538Y-119339030D01*
X218800483Y-119342082D01*
X218789684Y-119343255D01*
X218653295Y-119394385D01*
X218536739Y-119481739D01*
X218449385Y-119598295D01*
X218398255Y-119734684D01*
X218391500Y-119796866D01*
X218391500Y-119885500D01*
X218371498Y-119953621D01*
X218317842Y-120000114D01*
X218265500Y-120011500D01*
X217479595Y-120011500D01*
X217411474Y-119991498D01*
X217390500Y-119974595D01*
X214004141Y-116588236D01*
X213996601Y-116579950D01*
X213992489Y-116573471D01*
X213942837Y-116526845D01*
X213939996Y-116524091D01*
X213920259Y-116504354D01*
X213917062Y-116501874D01*
X213908040Y-116494169D01*
X213881589Y-116469330D01*
X213875810Y-116463903D01*
X213868864Y-116460084D01*
X213868861Y-116460082D01*
X213858055Y-116454141D01*
X213841536Y-116443290D01*
X213841072Y-116442930D01*
X213825530Y-116430875D01*
X213818261Y-116427730D01*
X213818257Y-116427727D01*
X213784952Y-116413315D01*
X213774302Y-116408098D01*
X213735549Y-116386794D01*
X213715926Y-116381756D01*
X213697223Y-116375352D01*
X213685909Y-116370456D01*
X213685908Y-116370456D01*
X213678634Y-116367308D01*
X213670811Y-116366069D01*
X213670801Y-116366066D01*
X213634965Y-116360390D01*
X213623345Y-116357984D01*
X213588200Y-116348961D01*
X213588199Y-116348961D01*
X213580519Y-116346989D01*
X213560265Y-116346989D01*
X213540554Y-116345438D01*
X213528375Y-116343509D01*
X213520546Y-116342269D01*
X213476782Y-116346406D01*
X213476528Y-116346430D01*
X213464670Y-116346989D01*
X213356903Y-116346989D01*
X213288782Y-116326987D01*
X213242289Y-116273331D01*
X213232185Y-116203057D01*
X213242708Y-116167739D01*
X213311961Y-116019225D01*
X213311961Y-116019224D01*
X213314284Y-116014243D01*
X213316060Y-116007617D01*
X213372119Y-115798402D01*
X213372119Y-115798400D01*
X213373543Y-115793087D01*
X213393498Y-115565000D01*
X213373543Y-115336913D01*
X213314284Y-115115757D01*
X213233328Y-114942145D01*
X213219849Y-114913238D01*
X213219846Y-114913233D01*
X213217523Y-114908251D01*
X213114646Y-114761328D01*
X213089357Y-114725211D01*
X213089355Y-114725208D01*
X213086198Y-114720700D01*
X212924300Y-114558802D01*
X212919792Y-114555645D01*
X212919789Y-114555643D01*
X212805107Y-114475342D01*
X212736749Y-114427477D01*
X212731767Y-114425154D01*
X212731762Y-114425151D01*
X212697543Y-114409195D01*
X212644258Y-114362278D01*
X212624797Y-114294001D01*
X212645339Y-114226041D01*
X212697543Y-114180805D01*
X212731762Y-114164849D01*
X212731767Y-114164846D01*
X212736749Y-114162523D01*
X212865513Y-114072361D01*
X212919789Y-114034357D01*
X212919792Y-114034355D01*
X212924300Y-114031198D01*
X213086198Y-113869300D01*
X213092098Y-113860875D01*
X213214366Y-113686257D01*
X213217523Y-113681749D01*
X213219846Y-113676767D01*
X213219849Y-113676762D01*
X213311961Y-113479225D01*
X213311961Y-113479224D01*
X213314284Y-113474243D01*
X213316060Y-113467617D01*
X213372119Y-113258402D01*
X213372119Y-113258400D01*
X213373543Y-113253087D01*
X213393498Y-113025000D01*
X213373543Y-112796913D01*
X213348967Y-112705196D01*
X213315707Y-112581067D01*
X213315706Y-112581065D01*
X213314284Y-112575757D01*
X213308797Y-112563990D01*
X213219849Y-112373238D01*
X213219846Y-112373233D01*
X213217523Y-112368251D01*
X213086198Y-112180700D01*
X212924300Y-112018802D01*
X212919792Y-112015645D01*
X212919789Y-112015643D01*
X212781491Y-111918806D01*
X212736749Y-111887477D01*
X212731767Y-111885154D01*
X212731762Y-111885151D01*
X212697543Y-111869195D01*
X212644258Y-111822278D01*
X212624797Y-111754001D01*
X212645339Y-111686041D01*
X212697543Y-111640805D01*
X212731762Y-111624849D01*
X212731767Y-111624846D01*
X212736749Y-111622523D01*
X212916648Y-111496556D01*
X212919789Y-111494357D01*
X212919792Y-111494355D01*
X212924300Y-111491198D01*
X213086198Y-111329300D01*
X213091866Y-111321206D01*
X213214366Y-111146257D01*
X213217523Y-111141749D01*
X213219846Y-111136767D01*
X213219849Y-111136762D01*
X213311961Y-110939225D01*
X213311961Y-110939224D01*
X213314284Y-110934243D01*
X213316060Y-110927617D01*
X213372119Y-110718402D01*
X213372119Y-110718400D01*
X213373543Y-110713087D01*
X213393498Y-110485000D01*
X213373543Y-110256913D01*
X213371615Y-110249717D01*
X213315707Y-110041067D01*
X213315706Y-110041065D01*
X213314284Y-110035757D01*
X213308797Y-110023990D01*
X213219849Y-109833238D01*
X213219846Y-109833233D01*
X213217523Y-109828251D01*
X213086198Y-109640700D01*
X212924300Y-109478802D01*
X212919792Y-109475645D01*
X212919789Y-109475643D01*
X212755750Y-109360782D01*
X212736749Y-109347477D01*
X212731767Y-109345154D01*
X212731762Y-109345151D01*
X212697543Y-109329195D01*
X212644258Y-109282278D01*
X212624797Y-109214001D01*
X212645339Y-109146041D01*
X212697543Y-109100805D01*
X212731762Y-109084849D01*
X212731767Y-109084846D01*
X212736749Y-109082523D01*
X212912344Y-108959570D01*
X212919789Y-108954357D01*
X212919792Y-108954355D01*
X212924300Y-108951198D01*
X213086198Y-108789300D01*
X213090685Y-108782893D01*
X213193874Y-108635523D01*
X213217523Y-108601749D01*
X213219846Y-108596767D01*
X213219849Y-108596762D01*
X213311961Y-108399225D01*
X213311961Y-108399224D01*
X213314284Y-108394243D01*
X213323082Y-108361411D01*
X213372119Y-108178402D01*
X213372119Y-108178400D01*
X213373543Y-108173087D01*
X213393498Y-107945000D01*
X213373543Y-107716913D01*
X213358185Y-107659595D01*
X213315707Y-107501067D01*
X213315706Y-107501065D01*
X213314284Y-107495757D01*
X213273952Y-107409264D01*
X213219849Y-107293238D01*
X213219846Y-107293233D01*
X213217523Y-107288251D01*
X213086198Y-107100700D01*
X212924300Y-106938802D01*
X212919792Y-106935645D01*
X212919789Y-106935643D01*
X212776724Y-106835468D01*
X212736749Y-106807477D01*
X212731767Y-106805154D01*
X212731762Y-106805151D01*
X212697543Y-106789195D01*
X212644258Y-106742278D01*
X212624797Y-106674001D01*
X212645339Y-106606041D01*
X212697543Y-106560805D01*
X212731762Y-106544849D01*
X212731767Y-106544846D01*
X212736749Y-106542523D01*
X212862459Y-106454500D01*
X212919789Y-106414357D01*
X212919792Y-106414355D01*
X212924300Y-106411198D01*
X213086198Y-106249300D01*
X213108980Y-106216765D01*
X213183049Y-106110983D01*
X213217523Y-106061749D01*
X213219846Y-106056767D01*
X213219849Y-106056762D01*
X213311961Y-105859225D01*
X213311961Y-105859224D01*
X213314284Y-105854243D01*
X213316060Y-105847617D01*
X213372119Y-105638402D01*
X213372119Y-105638400D01*
X213373543Y-105633087D01*
X213393498Y-105405000D01*
X213373543Y-105176913D01*
X213372117Y-105171591D01*
X213315707Y-104961067D01*
X213315706Y-104961065D01*
X213314284Y-104955757D01*
X213246506Y-104810405D01*
X213219849Y-104753238D01*
X213219846Y-104753233D01*
X213217523Y-104748251D01*
X213126709Y-104618556D01*
X213089357Y-104565211D01*
X213089355Y-104565208D01*
X213086198Y-104560700D01*
X212924300Y-104398802D01*
X212919792Y-104395645D01*
X212919789Y-104395643D01*
X212818493Y-104324715D01*
X212736749Y-104267477D01*
X212731767Y-104265154D01*
X212731762Y-104265151D01*
X212697543Y-104249195D01*
X212644258Y-104202278D01*
X212624797Y-104134001D01*
X212645339Y-104066041D01*
X212697543Y-104020805D01*
X212731762Y-104004849D01*
X212731767Y-104004846D01*
X212736749Y-104002523D01*
X212841642Y-103929076D01*
X212919789Y-103874357D01*
X212919792Y-103874355D01*
X212924300Y-103871198D01*
X213086198Y-103709300D01*
X213089358Y-103704788D01*
X213145558Y-103624525D01*
X213217523Y-103521749D01*
X213219846Y-103516767D01*
X213219849Y-103516762D01*
X213311961Y-103319225D01*
X213311961Y-103319224D01*
X213314284Y-103314243D01*
X213323082Y-103281411D01*
X213372119Y-103098402D01*
X213372119Y-103098400D01*
X213373543Y-103093087D01*
X213393498Y-102865000D01*
X213373543Y-102636913D01*
X213367939Y-102616000D01*
X213315707Y-102421067D01*
X213315706Y-102421065D01*
X213314284Y-102415757D01*
X213308797Y-102403990D01*
X213219849Y-102213238D01*
X213219846Y-102213233D01*
X213217523Y-102208251D01*
X213138056Y-102094760D01*
X213089357Y-102025211D01*
X213089355Y-102025208D01*
X213086198Y-102020700D01*
X212924300Y-101858802D01*
X212919792Y-101855645D01*
X212919789Y-101855643D01*
X212811112Y-101779547D01*
X212736749Y-101727477D01*
X212731767Y-101725154D01*
X212731762Y-101725151D01*
X212697543Y-101709195D01*
X212644258Y-101662278D01*
X212624797Y-101594001D01*
X212645339Y-101526041D01*
X212697543Y-101480805D01*
X212731762Y-101464849D01*
X212731767Y-101464846D01*
X212736749Y-101462523D01*
X212841611Y-101389098D01*
X212919789Y-101334357D01*
X212919792Y-101334355D01*
X212924300Y-101331198D01*
X213086198Y-101169300D01*
X213109085Y-101136615D01*
X213169203Y-101050757D01*
X213217523Y-100981749D01*
X213219846Y-100976767D01*
X213219849Y-100976762D01*
X213311961Y-100779225D01*
X213311961Y-100779224D01*
X213314284Y-100774243D01*
X213323074Y-100741441D01*
X213372119Y-100558402D01*
X213372119Y-100558400D01*
X213373543Y-100553087D01*
X213393498Y-100325000D01*
X213373543Y-100096913D01*
X213357836Y-100038295D01*
X213315707Y-99881067D01*
X213315706Y-99881065D01*
X213314284Y-99875757D01*
X213293522Y-99831233D01*
X213219849Y-99673238D01*
X213219846Y-99673233D01*
X213217523Y-99668251D01*
X213123939Y-99534599D01*
X213089357Y-99485211D01*
X213089355Y-99485208D01*
X213086198Y-99480700D01*
X212924300Y-99318802D01*
X212919792Y-99315645D01*
X212919789Y-99315643D01*
X212841611Y-99260902D01*
X212736749Y-99187477D01*
X212731767Y-99185154D01*
X212731762Y-99185151D01*
X212697543Y-99169195D01*
X212644258Y-99122278D01*
X212624797Y-99054001D01*
X212645339Y-98986041D01*
X212697543Y-98940805D01*
X212731762Y-98924849D01*
X212731767Y-98924846D01*
X212736749Y-98922523D01*
X212873534Y-98826745D01*
X212919789Y-98794357D01*
X212919792Y-98794355D01*
X212924300Y-98791198D01*
X213086198Y-98629300D01*
X213089634Y-98624394D01*
X213180891Y-98494065D01*
X213217523Y-98441749D01*
X213219846Y-98436767D01*
X213219849Y-98436762D01*
X213311961Y-98239225D01*
X213311961Y-98239224D01*
X213314284Y-98234243D01*
X213322590Y-98203247D01*
X213372119Y-98018402D01*
X213372119Y-98018400D01*
X213373543Y-98013087D01*
X213393498Y-97785000D01*
X213373543Y-97556913D01*
X213363244Y-97518478D01*
X213361911Y-97513503D01*
X218418606Y-97513503D01*
X218418942Y-97527599D01*
X218426884Y-97531000D01*
X219427885Y-97531000D01*
X219443124Y-97526525D01*
X219444329Y-97525135D01*
X219446000Y-97517452D01*
X219446000Y-97512885D01*
X219954000Y-97512885D01*
X219958475Y-97528124D01*
X219959865Y-97529329D01*
X219967548Y-97531000D01*
X220967967Y-97531000D01*
X220981498Y-97527027D01*
X220982727Y-97518478D01*
X220935236Y-97341239D01*
X220931490Y-97330947D01*
X220839414Y-97133489D01*
X220833931Y-97123993D01*
X220708972Y-96945533D01*
X220701916Y-96937125D01*
X220547875Y-96783084D01*
X220539467Y-96776028D01*
X220361007Y-96651069D01*
X220351511Y-96645586D01*
X220154053Y-96553510D01*
X220143761Y-96549764D01*
X219971497Y-96503606D01*
X219957401Y-96503942D01*
X219954000Y-96511884D01*
X219954000Y-97512885D01*
X219446000Y-97512885D01*
X219446000Y-96517033D01*
X219442027Y-96503502D01*
X219433478Y-96502273D01*
X219256239Y-96549764D01*
X219245947Y-96553510D01*
X219048489Y-96645586D01*
X219038993Y-96651069D01*
X218860533Y-96776028D01*
X218852125Y-96783084D01*
X218698084Y-96937125D01*
X218691028Y-96945533D01*
X218566069Y-97123993D01*
X218560586Y-97133489D01*
X218468510Y-97330947D01*
X218464764Y-97341239D01*
X218418606Y-97513503D01*
X213361911Y-97513503D01*
X213315707Y-97341067D01*
X213315706Y-97341065D01*
X213314284Y-97335757D01*
X213305254Y-97316392D01*
X213219849Y-97133238D01*
X213219846Y-97133233D01*
X213217523Y-97128251D01*
X213130594Y-97004104D01*
X213089357Y-96945211D01*
X213089355Y-96945208D01*
X213086198Y-96940700D01*
X212924300Y-96778802D01*
X212919792Y-96775645D01*
X212919789Y-96775643D01*
X212805107Y-96695342D01*
X212736749Y-96647477D01*
X212731767Y-96645154D01*
X212731762Y-96645151D01*
X212534225Y-96553039D01*
X212534224Y-96553039D01*
X212529243Y-96550716D01*
X212523935Y-96549294D01*
X212523933Y-96549293D01*
X212313402Y-96492881D01*
X212313400Y-96492881D01*
X212308087Y-96491457D01*
X212080000Y-96471502D01*
X211851913Y-96491457D01*
X211846602Y-96492880D01*
X211846591Y-96492882D01*
X211788459Y-96508459D01*
X211717483Y-96506770D01*
X211666752Y-96475848D01*
X209442426Y-94251522D01*
X210817273Y-94251522D01*
X210864764Y-94428761D01*
X210868510Y-94439053D01*
X210960586Y-94636511D01*
X210966069Y-94646007D01*
X211091028Y-94824467D01*
X211098084Y-94832875D01*
X211252125Y-94986916D01*
X211260533Y-94993972D01*
X211438993Y-95118931D01*
X211448489Y-95124414D01*
X211645947Y-95216490D01*
X211656239Y-95220236D01*
X211828503Y-95266394D01*
X211842599Y-95266058D01*
X211846000Y-95258116D01*
X211846000Y-95252967D01*
X212354000Y-95252967D01*
X212357973Y-95266498D01*
X212366522Y-95267727D01*
X212543761Y-95220236D01*
X212554053Y-95216490D01*
X212751511Y-95124414D01*
X212761007Y-95118931D01*
X212939467Y-94993972D01*
X212947875Y-94986916D01*
X213101916Y-94832875D01*
X213108972Y-94824467D01*
X213233931Y-94646007D01*
X213239414Y-94636511D01*
X213331490Y-94439053D01*
X213335236Y-94428761D01*
X213381394Y-94256497D01*
X213381058Y-94242401D01*
X213373116Y-94239000D01*
X212372115Y-94239000D01*
X212356876Y-94243475D01*
X212355671Y-94244865D01*
X212354000Y-94252548D01*
X212354000Y-95252967D01*
X211846000Y-95252967D01*
X211846000Y-94257115D01*
X211841525Y-94241876D01*
X211840135Y-94240671D01*
X211832452Y-94239000D01*
X210832033Y-94239000D01*
X210818502Y-94242973D01*
X210817273Y-94251522D01*
X209442426Y-94251522D01*
X208815162Y-93624258D01*
X208781136Y-93561946D01*
X208786201Y-93491131D01*
X208830196Y-93433227D01*
X208868404Y-93405467D01*
X208891253Y-93388866D01*
X208927851Y-93348220D01*
X209014621Y-93251852D01*
X209014622Y-93251851D01*
X209019040Y-93246944D01*
X209114527Y-93081556D01*
X209173542Y-92899928D01*
X209193504Y-92710000D01*
X209183636Y-92616108D01*
X209174232Y-92526635D01*
X209174232Y-92526633D01*
X209173542Y-92520072D01*
X209114527Y-92338444D01*
X209019040Y-92173056D01*
X208910776Y-92052816D01*
X208904265Y-92039249D01*
X208904159Y-92039226D01*
X208890483Y-92030574D01*
X208750579Y-91928928D01*
X208735545Y-91916087D01*
X206563053Y-89743595D01*
X206529027Y-89681283D01*
X206534092Y-89610468D01*
X206576639Y-89553632D01*
X206643159Y-89528821D01*
X206652148Y-89528500D01*
X206690406Y-89528500D01*
X206758527Y-89548502D01*
X206779501Y-89565405D01*
X209053640Y-91839544D01*
X209064603Y-91859621D01*
X209070503Y-91861232D01*
X209093508Y-91879413D01*
X210316348Y-93102253D01*
X210323888Y-93110539D01*
X210328000Y-93117018D01*
X210333777Y-93122443D01*
X210377651Y-93163643D01*
X210380493Y-93166398D01*
X210400230Y-93186135D01*
X210403427Y-93188615D01*
X210412447Y-93196318D01*
X210444679Y-93226586D01*
X210451625Y-93230405D01*
X210451628Y-93230407D01*
X210462434Y-93236348D01*
X210478953Y-93247199D01*
X210494959Y-93259614D01*
X210502228Y-93262759D01*
X210502232Y-93262762D01*
X210535537Y-93277174D01*
X210546187Y-93282391D01*
X210584940Y-93303695D01*
X210592615Y-93305666D01*
X210592616Y-93305666D01*
X210604562Y-93308733D01*
X210623267Y-93315137D01*
X210641855Y-93323181D01*
X210649678Y-93324420D01*
X210649688Y-93324423D01*
X210685524Y-93330099D01*
X210697144Y-93332505D01*
X210732289Y-93341528D01*
X210739970Y-93343500D01*
X210758137Y-93343500D01*
X210826258Y-93363502D01*
X210872751Y-93417158D01*
X210882855Y-93487432D01*
X210872333Y-93522747D01*
X210868512Y-93530941D01*
X210864764Y-93541239D01*
X210818606Y-93713503D01*
X210818942Y-93727599D01*
X210826884Y-93731000D01*
X213367967Y-93731000D01*
X213381498Y-93727027D01*
X213382727Y-93718478D01*
X213335236Y-93541239D01*
X213331488Y-93530941D01*
X213327667Y-93522747D01*
X213317008Y-93452555D01*
X213345989Y-93387743D01*
X213405410Y-93348888D01*
X213441863Y-93343500D01*
X216855406Y-93343500D01*
X216923527Y-93363502D01*
X216944501Y-93380405D01*
X217941343Y-94377247D01*
X217948887Y-94385537D01*
X217953000Y-94392018D01*
X217958777Y-94397443D01*
X218002667Y-94438658D01*
X218005509Y-94441413D01*
X218025230Y-94461134D01*
X218028425Y-94463612D01*
X218037447Y-94471318D01*
X218069679Y-94501586D01*
X218076628Y-94505406D01*
X218087432Y-94511346D01*
X218103956Y-94522199D01*
X218119959Y-94534613D01*
X218160543Y-94552176D01*
X218171173Y-94557383D01*
X218209940Y-94578695D01*
X218217617Y-94580666D01*
X218217622Y-94580668D01*
X218229558Y-94583732D01*
X218248266Y-94590137D01*
X218266855Y-94598181D01*
X218274683Y-94599421D01*
X218274690Y-94599423D01*
X218310524Y-94605099D01*
X218322144Y-94607505D01*
X218357180Y-94616500D01*
X218364970Y-94618500D01*
X218385224Y-94618500D01*
X218404934Y-94620051D01*
X218424943Y-94623220D01*
X218432835Y-94622474D01*
X218468961Y-94619059D01*
X218480819Y-94618500D01*
X218500606Y-94618500D01*
X218568727Y-94638502D01*
X218603819Y-94672229D01*
X218710418Y-94824467D01*
X218713802Y-94829300D01*
X218875700Y-94991198D01*
X218880208Y-94994355D01*
X218880211Y-94994357D01*
X218881808Y-94995475D01*
X219063251Y-95122523D01*
X219068233Y-95124846D01*
X219068238Y-95124849D01*
X219260892Y-95214684D01*
X219270757Y-95219284D01*
X219276065Y-95220706D01*
X219276067Y-95220707D01*
X219486598Y-95277119D01*
X219486600Y-95277119D01*
X219491913Y-95278543D01*
X219720000Y-95298498D01*
X219948087Y-95278543D01*
X219953400Y-95277119D01*
X219953402Y-95277119D01*
X220163933Y-95220707D01*
X220163935Y-95220706D01*
X220169243Y-95219284D01*
X220179108Y-95214684D01*
X220371762Y-95124849D01*
X220371767Y-95124846D01*
X220376749Y-95122523D01*
X220558192Y-94995475D01*
X220559789Y-94994357D01*
X220559792Y-94994355D01*
X220564300Y-94991198D01*
X220726198Y-94829300D01*
X220733574Y-94818767D01*
X220819100Y-94696622D01*
X220857523Y-94641749D01*
X220859846Y-94636767D01*
X220859849Y-94636762D01*
X220951961Y-94439225D01*
X220951961Y-94439224D01*
X220954284Y-94434243D01*
X220959880Y-94413361D01*
X221012119Y-94218402D01*
X221012119Y-94218400D01*
X221013543Y-94213087D01*
X221033498Y-93985000D01*
X221013543Y-93756913D01*
X221005535Y-93727027D01*
X220955707Y-93541067D01*
X220955706Y-93541065D01*
X220954284Y-93535757D01*
X220951961Y-93530775D01*
X220859849Y-93333238D01*
X220859846Y-93333233D01*
X220857523Y-93328251D01*
X220765144Y-93196320D01*
X220729357Y-93145211D01*
X220729355Y-93145208D01*
X220726198Y-93140700D01*
X220564300Y-92978802D01*
X220559792Y-92975645D01*
X220559789Y-92975643D01*
X220460622Y-92906206D01*
X220376749Y-92847477D01*
X220371767Y-92845154D01*
X220371762Y-92845151D01*
X220337543Y-92829195D01*
X220284258Y-92782278D01*
X220264797Y-92714001D01*
X220285339Y-92646041D01*
X220337543Y-92600805D01*
X220371762Y-92584849D01*
X220371767Y-92584846D01*
X220376749Y-92582523D01*
X220555190Y-92457577D01*
X220559789Y-92454357D01*
X220559792Y-92454355D01*
X220564300Y-92451198D01*
X220726198Y-92289300D01*
X220750437Y-92254684D01*
X220812964Y-92165386D01*
X220857523Y-92101749D01*
X220859846Y-92096767D01*
X220859849Y-92096762D01*
X220951961Y-91899225D01*
X220951961Y-91899224D01*
X220954284Y-91894243D01*
X220956493Y-91886001D01*
X221012119Y-91678402D01*
X221012119Y-91678400D01*
X221013543Y-91673087D01*
X221033498Y-91445000D01*
X221013543Y-91216913D01*
X221012117Y-91211591D01*
X220955707Y-91001067D01*
X220955706Y-91001065D01*
X220954284Y-90995757D01*
X220939618Y-90964305D01*
X220859849Y-90793238D01*
X220859846Y-90793233D01*
X220857523Y-90788251D01*
X220770889Y-90664525D01*
X220729357Y-90605211D01*
X220729355Y-90605208D01*
X220726198Y-90600700D01*
X220564300Y-90438802D01*
X220559792Y-90435645D01*
X220559789Y-90435643D01*
X220454534Y-90361943D01*
X220376749Y-90307477D01*
X220371767Y-90305154D01*
X220371762Y-90305151D01*
X220337543Y-90289195D01*
X220284258Y-90242278D01*
X220264797Y-90174001D01*
X220285339Y-90106041D01*
X220337543Y-90060805D01*
X220371762Y-90044849D01*
X220371767Y-90044846D01*
X220376749Y-90042523D01*
X220528632Y-89936173D01*
X220559789Y-89914357D01*
X220559792Y-89914355D01*
X220564300Y-89911198D01*
X220726198Y-89749300D01*
X220757925Y-89703990D01*
X220832786Y-89597077D01*
X220857523Y-89561749D01*
X220859846Y-89556767D01*
X220859849Y-89556762D01*
X220951961Y-89359225D01*
X220951961Y-89359224D01*
X220954284Y-89354243D01*
X220968112Y-89302639D01*
X221012119Y-89138402D01*
X221012119Y-89138400D01*
X221013543Y-89133087D01*
X221033498Y-88905000D01*
X221013543Y-88676913D01*
X221000517Y-88628299D01*
X220955707Y-88461067D01*
X220955706Y-88461065D01*
X220954284Y-88455757D01*
X220935928Y-88416392D01*
X220859849Y-88253238D01*
X220859846Y-88253233D01*
X220857523Y-88248251D01*
X220741977Y-88083235D01*
X220729357Y-88065211D01*
X220729355Y-88065208D01*
X220726198Y-88060700D01*
X220564300Y-87898802D01*
X220559792Y-87895645D01*
X220559789Y-87895643D01*
X220427381Y-87802930D01*
X220376749Y-87767477D01*
X220371767Y-87765154D01*
X220371762Y-87765151D01*
X220337543Y-87749195D01*
X220284258Y-87702278D01*
X220264797Y-87634001D01*
X220285339Y-87566041D01*
X220337543Y-87520805D01*
X220371762Y-87504849D01*
X220371767Y-87504846D01*
X220376749Y-87502523D01*
X220528632Y-87396173D01*
X220559789Y-87374357D01*
X220559792Y-87374355D01*
X220564300Y-87371198D01*
X220726198Y-87209300D01*
X220757925Y-87163990D01*
X220850616Y-87031613D01*
X220857523Y-87021749D01*
X220859846Y-87016767D01*
X220859849Y-87016762D01*
X220951961Y-86819225D01*
X220951961Y-86819224D01*
X220954284Y-86814243D01*
X220961568Y-86787061D01*
X221012119Y-86598402D01*
X221012119Y-86598400D01*
X221013543Y-86593087D01*
X221033498Y-86365000D01*
X221013543Y-86136913D01*
X221011859Y-86130629D01*
X220955707Y-85921067D01*
X220955706Y-85921065D01*
X220954284Y-85915757D01*
X220946818Y-85899745D01*
X220859849Y-85713238D01*
X220859846Y-85713233D01*
X220857523Y-85708251D01*
X220784098Y-85603389D01*
X220729357Y-85525211D01*
X220729355Y-85525208D01*
X220726198Y-85520700D01*
X220564300Y-85358802D01*
X220559792Y-85355645D01*
X220559789Y-85355643D01*
X220481611Y-85300902D01*
X220376749Y-85227477D01*
X220371767Y-85225154D01*
X220371762Y-85225151D01*
X220337543Y-85209195D01*
X220284258Y-85162278D01*
X220264797Y-85094001D01*
X220285339Y-85026041D01*
X220337543Y-84980805D01*
X220371762Y-84964849D01*
X220371767Y-84964846D01*
X220376749Y-84962523D01*
X220481611Y-84889098D01*
X220559789Y-84834357D01*
X220559792Y-84834355D01*
X220564300Y-84831198D01*
X220726198Y-84669300D01*
X220735496Y-84656022D01*
X220807772Y-84552801D01*
X220857523Y-84481749D01*
X220859846Y-84476767D01*
X220859849Y-84476762D01*
X220951961Y-84279225D01*
X220951961Y-84279224D01*
X220954284Y-84274243D01*
X220968112Y-84222639D01*
X221012119Y-84058402D01*
X221012119Y-84058400D01*
X221013543Y-84053087D01*
X221033498Y-83825000D01*
X221013543Y-83596913D01*
X221004546Y-83563334D01*
X220960403Y-83398595D01*
X220954284Y-83375757D01*
X220948219Y-83362750D01*
X220937557Y-83292560D01*
X220966536Y-83227747D01*
X221025955Y-83188890D01*
X221062413Y-83183500D01*
X224475406Y-83183500D01*
X224543527Y-83203502D01*
G37*
%TD.AperFunction*%
%TA.AperFunction,Conductor*%
G36*
X202056027Y-96281002D02*
G01*
X202077001Y-96297905D01*
X210770848Y-104991752D01*
X210804874Y-105054064D01*
X210803459Y-105113459D01*
X210787882Y-105171591D01*
X210787881Y-105171598D01*
X210786457Y-105176913D01*
X210766502Y-105405000D01*
X210766981Y-105410475D01*
X210766981Y-105410486D01*
X210768026Y-105422430D01*
X210754038Y-105492035D01*
X210704639Y-105543027D01*
X210635513Y-105559218D01*
X210568607Y-105535466D01*
X210553411Y-105522507D01*
X206628270Y-101597365D01*
X202433652Y-97402747D01*
X202426112Y-97394461D01*
X202422000Y-97387982D01*
X202407749Y-97374599D01*
X202372349Y-97341357D01*
X202369507Y-97338602D01*
X202349770Y-97318865D01*
X202346573Y-97316385D01*
X202337551Y-97308680D01*
X202311100Y-97283841D01*
X202305321Y-97278414D01*
X202298375Y-97274595D01*
X202298372Y-97274593D01*
X202287566Y-97268652D01*
X202271047Y-97257801D01*
X202270583Y-97257441D01*
X202255041Y-97245386D01*
X202247772Y-97242241D01*
X202247768Y-97242238D01*
X202214463Y-97227826D01*
X202203813Y-97222609D01*
X202165060Y-97201305D01*
X202145437Y-97196267D01*
X202126734Y-97189863D01*
X202115420Y-97184967D01*
X202115419Y-97184967D01*
X202108145Y-97181819D01*
X202100322Y-97180580D01*
X202100312Y-97180577D01*
X202064476Y-97174901D01*
X202052855Y-97172495D01*
X202014993Y-97162774D01*
X201953986Y-97126460D01*
X201922297Y-97062928D01*
X201925768Y-97004104D01*
X201985379Y-96807903D01*
X201987555Y-96797837D01*
X201988986Y-96786962D01*
X201986775Y-96772778D01*
X201973617Y-96769000D01*
X200527000Y-96769000D01*
X200458879Y-96748998D01*
X200412386Y-96695342D01*
X200401000Y-96643000D01*
X200401000Y-96387000D01*
X200421002Y-96318879D01*
X200474658Y-96272386D01*
X200527000Y-96261000D01*
X201987906Y-96261000D01*
X202056027Y-96281002D01*
G37*
%TD.AperFunction*%
%TA.AperFunction,Conductor*%
G36*
X199692691Y-62753864D02*
G01*
X199728553Y-62755743D01*
X199741669Y-62757121D01*
X200070002Y-62809124D01*
X200082903Y-62811866D01*
X200404002Y-62897904D01*
X200416536Y-62901976D01*
X200726878Y-63021106D01*
X200738926Y-63026470D01*
X201035120Y-63177388D01*
X201046542Y-63183983D01*
X201325333Y-63365032D01*
X201335990Y-63372775D01*
X201594348Y-63581989D01*
X201604139Y-63590806D01*
X201839194Y-63825861D01*
X201848011Y-63835652D01*
X202057225Y-64094010D01*
X202064968Y-64104667D01*
X202246017Y-64383458D01*
X202252612Y-64394880D01*
X202403530Y-64691074D01*
X202408893Y-64703121D01*
X202466943Y-64854343D01*
X202528022Y-65013459D01*
X202532096Y-65025998D01*
X202597289Y-65269304D01*
X202618134Y-65347098D01*
X202620876Y-65359998D01*
X202672879Y-65688331D01*
X202674257Y-65701445D01*
X202686958Y-65943783D01*
X202689764Y-65997329D01*
X202688436Y-66023312D01*
X202688195Y-66024856D01*
X202688195Y-66024860D01*
X202686814Y-66033730D01*
X202687978Y-66042632D01*
X202687978Y-66042635D01*
X202690936Y-66065251D01*
X202692000Y-66081589D01*
X202692000Y-67256793D01*
X202690254Y-67277697D01*
X202686929Y-67297461D01*
X202686776Y-67310000D01*
X202687466Y-67314819D01*
X202687506Y-67315098D01*
X202688456Y-67323962D01*
X202705602Y-67563682D01*
X202706558Y-67568076D01*
X202758706Y-67807803D01*
X202758708Y-67807810D01*
X202759663Y-67812200D01*
X202761235Y-67816415D01*
X202761236Y-67816418D01*
X202776000Y-67856001D01*
X202848542Y-68050495D01*
X202970430Y-68273715D01*
X203122844Y-68477317D01*
X203302683Y-68657156D01*
X203506285Y-68809570D01*
X203729505Y-68931458D01*
X203848653Y-68975898D01*
X203963582Y-69018764D01*
X203963585Y-69018765D01*
X203967800Y-69020337D01*
X203972190Y-69021292D01*
X203972197Y-69021294D01*
X204154899Y-69061037D01*
X204216318Y-69074398D01*
X204220806Y-69074719D01*
X204436729Y-69090163D01*
X204448637Y-69091587D01*
X204452661Y-69092264D01*
X204452667Y-69092265D01*
X204457461Y-69093071D01*
X204463816Y-69093149D01*
X204465141Y-69093165D01*
X204465145Y-69093165D01*
X204470000Y-69093224D01*
X204474809Y-69092535D01*
X204474813Y-69092535D01*
X204488384Y-69090591D01*
X204500412Y-69088869D01*
X204517145Y-69087601D01*
X218441816Y-68963869D01*
X241535380Y-68758664D01*
X241603676Y-68778060D01*
X241650644Y-68831300D01*
X241662500Y-68884659D01*
X241662500Y-84316837D01*
X241642498Y-84384958D01*
X241588842Y-84431451D01*
X241518568Y-84441555D01*
X241453988Y-84412061D01*
X241413917Y-84345983D01*
X241413098Y-84342540D01*
X241412245Y-84334684D01*
X241361115Y-84198295D01*
X241273761Y-84081739D01*
X241157205Y-83994385D01*
X241020816Y-83943255D01*
X240958634Y-83936500D01*
X235862366Y-83936500D01*
X235800184Y-83943255D01*
X235663795Y-83994385D01*
X235547239Y-84081739D01*
X235459885Y-84198295D01*
X235408755Y-84334684D01*
X235402000Y-84396866D01*
X235402000Y-84515989D01*
X235381998Y-84584110D01*
X235328342Y-84630603D01*
X235276000Y-84641989D01*
X235025992Y-84641989D01*
X234957871Y-84621987D01*
X234911378Y-84568331D01*
X234901274Y-84498057D01*
X234904285Y-84483378D01*
X234922692Y-84414684D01*
X234922693Y-84414677D01*
X234924115Y-84409371D01*
X234943307Y-84190000D01*
X234924115Y-83970629D01*
X234867120Y-83757924D01*
X234823585Y-83664562D01*
X234776382Y-83563334D01*
X234776379Y-83563329D01*
X234774056Y-83558347D01*
X234766774Y-83547947D01*
X234650908Y-83382473D01*
X234650906Y-83382470D01*
X234647749Y-83377962D01*
X234492038Y-83222251D01*
X234472589Y-83208632D01*
X234367230Y-83134859D01*
X234311654Y-83095944D01*
X234112076Y-83002880D01*
X233899371Y-82945885D01*
X233680000Y-82926693D01*
X233460629Y-82945885D01*
X233247924Y-83002880D01*
X233186235Y-83031646D01*
X233053334Y-83093618D01*
X233053329Y-83093621D01*
X233048347Y-83095944D01*
X233043840Y-83099100D01*
X233043838Y-83099101D01*
X232872473Y-83219092D01*
X232872470Y-83219094D01*
X232867962Y-83222251D01*
X232712251Y-83377962D01*
X232709094Y-83382470D01*
X232709092Y-83382473D01*
X232593226Y-83547947D01*
X232585944Y-83558347D01*
X232583621Y-83563329D01*
X232583618Y-83563334D01*
X232536415Y-83664562D01*
X232492880Y-83757924D01*
X232435885Y-83970629D01*
X232416693Y-84190000D01*
X232435885Y-84409371D01*
X232437307Y-84414677D01*
X232437308Y-84414684D01*
X232455715Y-84483378D01*
X232454025Y-84554354D01*
X232414231Y-84613150D01*
X232348967Y-84641098D01*
X232334008Y-84641989D01*
X232303278Y-84641989D01*
X232292095Y-84641462D01*
X232284602Y-84639787D01*
X232276676Y-84640036D01*
X232276675Y-84640036D01*
X232216525Y-84641927D01*
X232212566Y-84641989D01*
X232184655Y-84641989D01*
X232180721Y-84642486D01*
X232180720Y-84642486D01*
X232180655Y-84642494D01*
X232168818Y-84643427D01*
X232137001Y-84644427D01*
X232132540Y-84644567D01*
X232124621Y-84644816D01*
X232106965Y-84649945D01*
X232105169Y-84650467D01*
X232085817Y-84654475D01*
X232078746Y-84655369D01*
X232065714Y-84657015D01*
X232058345Y-84659932D01*
X232058343Y-84659933D01*
X232024608Y-84673289D01*
X232013382Y-84677133D01*
X231980851Y-84686585D01*
X231909855Y-84686384D01*
X231850237Y-84647832D01*
X231820927Y-84583167D01*
X231819695Y-84565589D01*
X231819695Y-83417919D01*
X231839697Y-83349798D01*
X231856600Y-83328824D01*
X233030019Y-82155405D01*
X233092331Y-82121379D01*
X233119114Y-82118500D01*
X235266000Y-82118500D01*
X235334121Y-82138502D01*
X235380614Y-82192158D01*
X235392000Y-82244500D01*
X235392000Y-82533134D01*
X235398755Y-82595316D01*
X235449885Y-82731705D01*
X235537239Y-82848261D01*
X235653795Y-82935615D01*
X235790184Y-82986745D01*
X235852366Y-82993500D01*
X240948634Y-82993500D01*
X241010816Y-82986745D01*
X241147205Y-82935615D01*
X241263761Y-82848261D01*
X241351115Y-82731705D01*
X241402245Y-82595316D01*
X241409000Y-82533134D01*
X241409000Y-80436866D01*
X241402245Y-80374684D01*
X241351115Y-80238295D01*
X241263761Y-80121739D01*
X241147205Y-80034385D01*
X241010816Y-79983255D01*
X240948634Y-79976500D01*
X235852366Y-79976500D01*
X235790184Y-79983255D01*
X235653795Y-80034385D01*
X235537239Y-80121739D01*
X235449885Y-80238295D01*
X235398755Y-80374684D01*
X235392000Y-80436866D01*
X235392000Y-80725500D01*
X235371998Y-80793621D01*
X235318342Y-80840114D01*
X235266000Y-80851500D01*
X232883287Y-80851500D01*
X232872104Y-80850973D01*
X232864611Y-80849298D01*
X232856685Y-80849547D01*
X232856684Y-80849547D01*
X232796534Y-80851438D01*
X232792575Y-80851500D01*
X232764664Y-80851500D01*
X232760730Y-80851997D01*
X232760729Y-80851997D01*
X232760664Y-80852005D01*
X232748827Y-80852938D01*
X232717010Y-80853938D01*
X232712549Y-80854078D01*
X232704630Y-80854327D01*
X232689939Y-80858595D01*
X232685178Y-80859978D01*
X232665826Y-80863986D01*
X232658755Y-80864880D01*
X232645723Y-80866526D01*
X232638354Y-80869443D01*
X232638352Y-80869444D01*
X232604617Y-80882800D01*
X232593389Y-80886645D01*
X232550927Y-80898982D01*
X232544105Y-80903016D01*
X232544099Y-80903019D01*
X232533488Y-80909294D01*
X232515738Y-80917990D01*
X232504276Y-80922528D01*
X232504271Y-80922531D01*
X232496903Y-80925448D01*
X232490488Y-80930109D01*
X232461145Y-80951427D01*
X232451227Y-80957943D01*
X232432539Y-80968995D01*
X232413157Y-80980458D01*
X232398833Y-80994782D01*
X232383801Y-81007621D01*
X232367413Y-81019528D01*
X232340882Y-81051598D01*
X232339232Y-81053593D01*
X232331242Y-81062373D01*
X231435270Y-81958345D01*
X231372958Y-81992371D01*
X231302143Y-81987306D01*
X231245307Y-81944759D01*
X231220496Y-81878239D01*
X231220175Y-81869250D01*
X231220175Y-81041269D01*
X231240177Y-80973148D01*
X231257080Y-80952174D01*
X234013849Y-78195405D01*
X234076161Y-78161379D01*
X234102944Y-78158500D01*
X235266000Y-78158500D01*
X235334121Y-78178502D01*
X235380614Y-78232158D01*
X235392000Y-78284500D01*
X235392000Y-78573134D01*
X235398755Y-78635316D01*
X235449885Y-78771705D01*
X235537239Y-78888261D01*
X235653795Y-78975615D01*
X235790184Y-79026745D01*
X235852366Y-79033500D01*
X240948634Y-79033500D01*
X241010816Y-79026745D01*
X241147205Y-78975615D01*
X241263761Y-78888261D01*
X241351115Y-78771705D01*
X241402245Y-78635316D01*
X241409000Y-78573134D01*
X241409000Y-76476866D01*
X241402245Y-76414684D01*
X241351115Y-76278295D01*
X241263761Y-76161739D01*
X241147205Y-76074385D01*
X241010816Y-76023255D01*
X240948634Y-76016500D01*
X235852366Y-76016500D01*
X235790184Y-76023255D01*
X235653795Y-76074385D01*
X235537239Y-76161739D01*
X235449885Y-76278295D01*
X235398755Y-76414684D01*
X235392000Y-76476866D01*
X235392000Y-76765500D01*
X235371998Y-76833621D01*
X235318342Y-76880114D01*
X235266000Y-76891500D01*
X233867117Y-76891500D01*
X233855934Y-76890973D01*
X233848441Y-76889298D01*
X233840515Y-76889547D01*
X233840514Y-76889547D01*
X233780364Y-76891438D01*
X233776405Y-76891500D01*
X233748494Y-76891500D01*
X233744560Y-76891997D01*
X233744559Y-76891997D01*
X233744494Y-76892005D01*
X233732657Y-76892938D01*
X233700840Y-76893938D01*
X233696379Y-76894078D01*
X233688460Y-76894327D01*
X233677180Y-76897604D01*
X233669008Y-76899978D01*
X233649656Y-76903986D01*
X233642585Y-76904880D01*
X233629553Y-76906526D01*
X233622184Y-76909443D01*
X233622182Y-76909444D01*
X233588447Y-76922800D01*
X233577219Y-76926645D01*
X233534757Y-76938982D01*
X233527935Y-76943016D01*
X233527929Y-76943019D01*
X233517318Y-76949294D01*
X233499568Y-76957990D01*
X233488106Y-76962528D01*
X233488101Y-76962531D01*
X233480733Y-76965448D01*
X233474318Y-76970109D01*
X233444975Y-76991427D01*
X233435057Y-76997943D01*
X233424833Y-77003990D01*
X233396987Y-77020458D01*
X233382663Y-77034782D01*
X233367631Y-77047621D01*
X233351243Y-77059528D01*
X233336171Y-77077747D01*
X233323062Y-77093593D01*
X233315072Y-77102373D01*
X230238595Y-80178850D01*
X230176283Y-80212876D01*
X230105468Y-80207811D01*
X230048632Y-80165264D01*
X230023821Y-80098744D01*
X230023500Y-80089755D01*
X230023500Y-77749500D01*
X230043502Y-77681379D01*
X230097158Y-77634886D01*
X230149500Y-77623500D01*
X231541233Y-77623500D01*
X231552416Y-77624027D01*
X231559909Y-77625702D01*
X231567835Y-77625453D01*
X231567836Y-77625453D01*
X231627986Y-77623562D01*
X231631945Y-77623500D01*
X231659856Y-77623500D01*
X231663791Y-77623003D01*
X231663856Y-77622995D01*
X231675693Y-77622062D01*
X231707951Y-77621048D01*
X231711970Y-77620922D01*
X231719889Y-77620673D01*
X231739343Y-77615021D01*
X231758700Y-77611013D01*
X231770930Y-77609468D01*
X231770931Y-77609468D01*
X231778797Y-77608474D01*
X231786168Y-77605555D01*
X231786170Y-77605555D01*
X231819912Y-77592196D01*
X231831142Y-77588351D01*
X231865983Y-77578229D01*
X231865984Y-77578229D01*
X231873593Y-77576018D01*
X231880412Y-77571985D01*
X231880417Y-77571983D01*
X231891028Y-77565707D01*
X231908776Y-77557012D01*
X231927617Y-77549552D01*
X231963387Y-77523564D01*
X231973307Y-77517048D01*
X232004535Y-77498580D01*
X232004538Y-77498578D01*
X232011362Y-77494542D01*
X232025683Y-77480221D01*
X232040717Y-77467380D01*
X232050694Y-77460131D01*
X232057107Y-77455472D01*
X232085298Y-77421395D01*
X232093288Y-77412616D01*
X235166905Y-74338999D01*
X235229217Y-74304973D01*
X235300032Y-74310038D01*
X235356868Y-74352585D01*
X235381679Y-74419105D01*
X235382000Y-74428094D01*
X235382000Y-74623134D01*
X235382369Y-74626531D01*
X235382685Y-74629440D01*
X235388755Y-74685316D01*
X235439885Y-74821705D01*
X235527239Y-74938261D01*
X235643795Y-75025615D01*
X235780184Y-75076745D01*
X235842366Y-75083500D01*
X240938634Y-75083500D01*
X241000816Y-75076745D01*
X241137205Y-75025615D01*
X241253761Y-74938261D01*
X241341115Y-74821705D01*
X241392245Y-74685316D01*
X241398315Y-74629440D01*
X241398631Y-74626531D01*
X241399000Y-74623134D01*
X241399000Y-72526866D01*
X241392245Y-72464684D01*
X241341115Y-72328295D01*
X241253761Y-72211739D01*
X241137205Y-72124385D01*
X241000816Y-72073255D01*
X240938634Y-72066500D01*
X235842366Y-72066500D01*
X235780184Y-72073255D01*
X235643795Y-72124385D01*
X235527239Y-72211739D01*
X235439885Y-72328295D01*
X235388755Y-72464684D01*
X235382000Y-72526866D01*
X235382000Y-72815500D01*
X235361998Y-72883621D01*
X235308342Y-72930114D01*
X235256000Y-72941500D01*
X235113767Y-72941500D01*
X235102584Y-72940973D01*
X235095091Y-72939298D01*
X235087165Y-72939547D01*
X235087164Y-72939547D01*
X235027014Y-72941438D01*
X235023055Y-72941500D01*
X234995144Y-72941500D01*
X234991210Y-72941997D01*
X234991209Y-72941997D01*
X234991144Y-72942005D01*
X234979307Y-72942938D01*
X234947490Y-72943938D01*
X234943029Y-72944078D01*
X234935110Y-72944327D01*
X234920928Y-72948447D01*
X234915658Y-72949978D01*
X234896306Y-72953986D01*
X234889235Y-72954880D01*
X234876203Y-72956526D01*
X234868834Y-72959443D01*
X234868832Y-72959444D01*
X234835097Y-72972800D01*
X234823869Y-72976645D01*
X234781407Y-72988982D01*
X234774585Y-72993016D01*
X234774579Y-72993019D01*
X234763968Y-72999294D01*
X234746218Y-73007990D01*
X234734756Y-73012528D01*
X234734751Y-73012531D01*
X234727383Y-73015448D01*
X234720968Y-73020109D01*
X234691625Y-73041427D01*
X234681707Y-73047943D01*
X234672646Y-73053302D01*
X234643637Y-73070458D01*
X234629313Y-73084782D01*
X234614281Y-73097621D01*
X234597893Y-73109528D01*
X234569712Y-73143593D01*
X234561722Y-73152373D01*
X234556561Y-73157534D01*
X234494249Y-73191560D01*
X234423434Y-73186495D01*
X234366598Y-73143948D01*
X234341787Y-73077428D01*
X234342379Y-73053302D01*
X234366865Y-72850966D01*
X234367289Y-72845396D01*
X234372713Y-72672797D01*
X234372640Y-72667204D01*
X234354203Y-72347451D01*
X234353371Y-72340262D01*
X234298447Y-72025559D01*
X234296792Y-72018504D01*
X234206064Y-71712215D01*
X234203608Y-71705390D01*
X234078274Y-71411548D01*
X234075053Y-71405060D01*
X233916777Y-71127574D01*
X233912836Y-71121504D01*
X233723720Y-70864055D01*
X233711346Y-70856697D01*
X233710738Y-70856718D01*
X233702260Y-70861950D01*
X229730359Y-74833851D01*
X229722745Y-74847795D01*
X229722762Y-74848046D01*
X229728679Y-74856792D01*
X229746430Y-74872944D01*
X229752060Y-74877503D01*
X230011480Y-75063915D01*
X230017610Y-75067805D01*
X230296730Y-75223161D01*
X230303250Y-75226313D01*
X230598387Y-75348562D01*
X230605238Y-75350948D01*
X230912452Y-75438461D01*
X230919540Y-75440045D01*
X231234789Y-75491669D01*
X231241995Y-75492426D01*
X231561090Y-75507474D01*
X231568340Y-75507398D01*
X231887040Y-75485672D01*
X231894249Y-75484761D01*
X231906577Y-75482476D01*
X231977202Y-75489729D01*
X232032695Y-75534014D01*
X232055436Y-75601269D01*
X232038206Y-75670144D01*
X232018634Y-75695461D01*
X231394500Y-76319595D01*
X231332188Y-76353621D01*
X231305405Y-76356500D01*
X229704595Y-76356500D01*
X229636474Y-76336498D01*
X229615500Y-76319595D01*
X227693163Y-74397258D01*
X227685623Y-74388972D01*
X227681511Y-74382493D01*
X227631859Y-74335867D01*
X227629018Y-74333113D01*
X227609281Y-74313376D01*
X227606084Y-74310896D01*
X227597062Y-74303191D01*
X227570611Y-74278352D01*
X227564832Y-74272925D01*
X227557886Y-74269106D01*
X227557883Y-74269104D01*
X227547077Y-74263163D01*
X227530558Y-74252312D01*
X227530094Y-74251952D01*
X227514552Y-74239897D01*
X227507283Y-74236752D01*
X227507279Y-74236749D01*
X227473974Y-74222337D01*
X227463324Y-74217120D01*
X227424571Y-74195816D01*
X227404948Y-74190778D01*
X227386245Y-74184374D01*
X227374931Y-74179478D01*
X227374930Y-74179478D01*
X227367656Y-74176330D01*
X227359833Y-74175091D01*
X227359823Y-74175088D01*
X227323987Y-74169412D01*
X227312367Y-74167006D01*
X227277222Y-74157983D01*
X227277221Y-74157983D01*
X227269541Y-74156011D01*
X227249287Y-74156011D01*
X227229576Y-74154460D01*
X227217397Y-74152531D01*
X227209568Y-74151291D01*
X227201676Y-74152037D01*
X227165550Y-74155452D01*
X227153692Y-74156011D01*
X221107299Y-74156011D01*
X221039178Y-74136009D01*
X220992685Y-74082353D01*
X220982581Y-74012079D01*
X220985592Y-73997399D01*
X221013543Y-73893087D01*
X221033498Y-73665000D01*
X221013543Y-73436913D01*
X221012119Y-73431598D01*
X220955707Y-73221067D01*
X220955706Y-73221065D01*
X220954284Y-73215757D01*
X220939618Y-73184305D01*
X220859849Y-73013238D01*
X220859846Y-73013233D01*
X220857523Y-73008251D01*
X220747391Y-72850966D01*
X220729357Y-72825211D01*
X220729355Y-72825208D01*
X220726198Y-72820700D01*
X220564300Y-72658802D01*
X220559792Y-72655645D01*
X220559789Y-72655643D01*
X220458179Y-72584495D01*
X228698694Y-72584495D01*
X228707057Y-72903833D01*
X228707664Y-72911056D01*
X228752674Y-73227318D01*
X228754105Y-73234420D01*
X228835172Y-73543426D01*
X228837408Y-73550306D01*
X228953451Y-73847940D01*
X228956466Y-73854527D01*
X229105952Y-74136859D01*
X229109698Y-74143044D01*
X229290640Y-74406316D01*
X229295085Y-74412045D01*
X229347779Y-74472450D01*
X229360951Y-74480854D01*
X229370806Y-74474984D01*
X231162978Y-72682812D01*
X231170592Y-72668868D01*
X231170461Y-72667035D01*
X231166210Y-72660420D01*
X229372026Y-70866236D01*
X229359233Y-70859250D01*
X229348480Y-70867113D01*
X229206979Y-71047575D01*
X229202847Y-71053520D01*
X229035925Y-71325912D01*
X229032514Y-71332273D01*
X228898007Y-71622045D01*
X228895339Y-71628783D01*
X228795035Y-71932077D01*
X228793158Y-71939081D01*
X228728377Y-72251896D01*
X228727320Y-72259056D01*
X228698922Y-72577242D01*
X228698694Y-72584495D01*
X220458179Y-72584495D01*
X220376749Y-72527477D01*
X220371767Y-72525154D01*
X220371762Y-72525151D01*
X220337543Y-72509195D01*
X220284258Y-72462278D01*
X220264797Y-72394001D01*
X220285339Y-72326041D01*
X220337543Y-72280805D01*
X220371762Y-72264849D01*
X220371767Y-72264846D01*
X220376749Y-72262523D01*
X220524892Y-72158792D01*
X220559789Y-72134357D01*
X220559792Y-72134355D01*
X220564300Y-72131198D01*
X220650093Y-72045405D01*
X220712405Y-72011379D01*
X220739188Y-72008500D01*
X222122215Y-72008500D01*
X222188331Y-72027240D01*
X222200020Y-72034445D01*
X222207899Y-72039302D01*
X222370243Y-72093149D01*
X222377080Y-72093849D01*
X222377082Y-72093850D01*
X222418401Y-72098083D01*
X222471268Y-72103500D01*
X223018732Y-72103500D01*
X223021978Y-72103163D01*
X223021982Y-72103163D01*
X223056083Y-72099625D01*
X223121019Y-72092887D01*
X223274726Y-72041606D01*
X223276324Y-72041073D01*
X223276326Y-72041072D01*
X223283268Y-72038756D01*
X223402798Y-71964789D01*
X223422485Y-71952606D01*
X223428713Y-71948752D01*
X223433886Y-71943570D01*
X223439623Y-71939023D01*
X223441055Y-71940830D01*
X223493575Y-71912098D01*
X223564395Y-71917108D01*
X223600853Y-71940499D01*
X223601683Y-71939448D01*
X223618840Y-71952998D01*
X223751880Y-72035004D01*
X223765061Y-72041151D01*
X223913814Y-72090491D01*
X223927190Y-72093358D01*
X224018097Y-72102672D01*
X224023126Y-72102929D01*
X224038124Y-72098525D01*
X224039329Y-72097135D01*
X224041000Y-72089452D01*
X224041000Y-72084885D01*
X224549000Y-72084885D01*
X224553475Y-72100124D01*
X224554865Y-72101329D01*
X224562548Y-72103000D01*
X224565438Y-72103000D01*
X224571953Y-72102663D01*
X224664057Y-72093106D01*
X224677456Y-72090212D01*
X224826107Y-72040619D01*
X224839286Y-72034445D01*
X224972173Y-71952212D01*
X224983574Y-71943176D01*
X225093986Y-71832571D01*
X225102998Y-71821160D01*
X225185004Y-71688120D01*
X225191151Y-71674939D01*
X225240491Y-71526186D01*
X225243358Y-71512810D01*
X225252672Y-71421903D01*
X225253000Y-71415487D01*
X225253000Y-71392115D01*
X225248525Y-71376876D01*
X225247135Y-71375671D01*
X225239452Y-71374000D01*
X224567115Y-71374000D01*
X224551876Y-71378475D01*
X224550671Y-71379865D01*
X224549000Y-71387548D01*
X224549000Y-72084885D01*
X224041000Y-72084885D01*
X224041000Y-70847885D01*
X224549000Y-70847885D01*
X224553475Y-70863124D01*
X224554865Y-70864329D01*
X224562548Y-70866000D01*
X225234885Y-70866000D01*
X225250124Y-70861525D01*
X225251329Y-70860135D01*
X225253000Y-70852452D01*
X225253000Y-70824562D01*
X225252663Y-70818047D01*
X225243106Y-70725943D01*
X225240212Y-70712544D01*
X225190619Y-70563893D01*
X225184445Y-70550714D01*
X225150307Y-70495548D01*
X229724631Y-70495548D01*
X229731026Y-70506816D01*
X231522188Y-72297978D01*
X231536132Y-72305592D01*
X231537965Y-72305461D01*
X231544580Y-72301210D01*
X233337943Y-70507847D01*
X233345335Y-70494310D01*
X233338548Y-70484610D01*
X233253497Y-70411969D01*
X233247709Y-70407576D01*
X232982566Y-70229406D01*
X232976343Y-70225726D01*
X232692458Y-70079202D01*
X232685847Y-70076259D01*
X232387016Y-69963340D01*
X232380097Y-69961172D01*
X232070273Y-69883349D01*
X232063148Y-69881990D01*
X231746439Y-69840294D01*
X231739197Y-69839763D01*
X231419807Y-69834745D01*
X231412545Y-69835049D01*
X231094678Y-69866777D01*
X231087530Y-69867909D01*
X230775404Y-69935963D01*
X230768427Y-69937911D01*
X230466194Y-70041389D01*
X230459487Y-70044126D01*
X230171157Y-70181653D01*
X230164799Y-70185148D01*
X229894200Y-70354895D01*
X229888272Y-70359107D01*
X229733101Y-70483422D01*
X229724631Y-70495548D01*
X225150307Y-70495548D01*
X225102212Y-70417827D01*
X225093176Y-70406426D01*
X224982571Y-70296014D01*
X224971160Y-70287002D01*
X224838120Y-70204996D01*
X224824939Y-70198849D01*
X224676186Y-70149509D01*
X224662810Y-70146642D01*
X224571903Y-70137328D01*
X224566874Y-70137071D01*
X224551876Y-70141475D01*
X224550671Y-70142865D01*
X224549000Y-70150548D01*
X224549000Y-70847885D01*
X224041000Y-70847885D01*
X224041000Y-70155115D01*
X224036525Y-70139876D01*
X224035135Y-70138671D01*
X224027452Y-70137000D01*
X224024562Y-70137000D01*
X224018047Y-70137337D01*
X223925943Y-70146894D01*
X223912544Y-70149788D01*
X223763893Y-70199381D01*
X223750714Y-70205555D01*
X223617827Y-70287788D01*
X223600689Y-70301371D01*
X223599159Y-70299441D01*
X223547120Y-70327903D01*
X223476301Y-70322887D01*
X223439383Y-70299201D01*
X223438628Y-70300157D01*
X223432882Y-70295619D01*
X223427702Y-70290448D01*
X223411888Y-70280700D01*
X223288331Y-70204538D01*
X223288329Y-70204537D01*
X223282101Y-70200698D01*
X223119757Y-70146851D01*
X223112920Y-70146151D01*
X223112918Y-70146150D01*
X223071599Y-70141917D01*
X223018732Y-70136500D01*
X222471268Y-70136500D01*
X222468022Y-70136837D01*
X222468018Y-70136837D01*
X222438730Y-70139876D01*
X222368981Y-70147113D01*
X222360963Y-70149788D01*
X222213676Y-70198927D01*
X222213674Y-70198928D01*
X222206732Y-70201244D01*
X222200508Y-70205096D01*
X222200507Y-70205096D01*
X222172150Y-70222644D01*
X222105847Y-70241500D01*
X220739188Y-70241500D01*
X220671067Y-70221498D01*
X220650093Y-70204595D01*
X220564300Y-70118802D01*
X220559792Y-70115645D01*
X220559789Y-70115643D01*
X220453743Y-70041389D01*
X220376749Y-69987477D01*
X220371767Y-69985154D01*
X220371762Y-69985151D01*
X220174225Y-69893039D01*
X220174224Y-69893039D01*
X220169243Y-69890716D01*
X220163935Y-69889294D01*
X220163933Y-69889293D01*
X219953402Y-69832881D01*
X219953400Y-69832881D01*
X219948087Y-69831457D01*
X219720000Y-69811502D01*
X219491913Y-69831457D01*
X219486600Y-69832881D01*
X219486598Y-69832881D01*
X219276067Y-69889293D01*
X219276065Y-69889294D01*
X219270757Y-69890716D01*
X219265776Y-69893039D01*
X219265775Y-69893039D01*
X219068238Y-69985151D01*
X219068233Y-69985154D01*
X219063251Y-69987477D01*
X218986257Y-70041389D01*
X218880211Y-70115643D01*
X218880208Y-70115645D01*
X218875700Y-70118802D01*
X218713802Y-70280700D01*
X218710645Y-70285208D01*
X218710643Y-70285211D01*
X218708839Y-70287788D01*
X218582477Y-70468251D01*
X218580154Y-70473233D01*
X218580151Y-70473238D01*
X218502491Y-70639783D01*
X218485716Y-70675757D01*
X218484294Y-70681065D01*
X218484293Y-70681067D01*
X218427881Y-70891598D01*
X218426457Y-70896913D01*
X218406502Y-71125000D01*
X218426457Y-71353087D01*
X218427881Y-71358400D01*
X218427881Y-71358402D01*
X218471889Y-71522639D01*
X218485716Y-71574243D01*
X218488039Y-71579224D01*
X218488039Y-71579225D01*
X218580151Y-71776762D01*
X218580154Y-71776767D01*
X218582477Y-71781749D01*
X218632228Y-71852801D01*
X218702113Y-71952606D01*
X218713802Y-71969300D01*
X218875700Y-72131198D01*
X218880208Y-72134355D01*
X218880211Y-72134357D01*
X218915108Y-72158792D01*
X219063251Y-72262523D01*
X219068233Y-72264846D01*
X219068238Y-72264849D01*
X219102457Y-72280805D01*
X219155742Y-72327722D01*
X219175203Y-72395999D01*
X219154661Y-72463959D01*
X219102457Y-72509195D01*
X219068238Y-72525151D01*
X219068233Y-72525154D01*
X219063251Y-72527477D01*
X218981821Y-72584495D01*
X218880211Y-72655643D01*
X218880208Y-72655645D01*
X218875700Y-72658802D01*
X218713802Y-72820700D01*
X218710644Y-72825211D01*
X218710489Y-72825432D01*
X218710395Y-72825508D01*
X218707108Y-72829424D01*
X218706322Y-72828764D01*
X218655037Y-72869767D01*
X218584418Y-72877084D01*
X218518173Y-72842268D01*
X217673652Y-71997747D01*
X217666112Y-71989461D01*
X217662000Y-71982982D01*
X217612348Y-71936356D01*
X217609507Y-71933602D01*
X217589770Y-71913865D01*
X217586573Y-71911385D01*
X217577551Y-71903680D01*
X217551100Y-71878841D01*
X217545321Y-71873414D01*
X217538375Y-71869595D01*
X217538372Y-71869593D01*
X217527566Y-71863652D01*
X217511047Y-71852801D01*
X217510583Y-71852441D01*
X217495041Y-71840386D01*
X217487772Y-71837241D01*
X217487768Y-71837238D01*
X217454463Y-71822826D01*
X217443813Y-71817609D01*
X217405060Y-71796305D01*
X217385437Y-71791267D01*
X217366734Y-71784863D01*
X217355420Y-71779967D01*
X217355419Y-71779967D01*
X217348145Y-71776819D01*
X217340322Y-71775580D01*
X217340312Y-71775577D01*
X217304476Y-71769901D01*
X217292856Y-71767495D01*
X217257711Y-71758472D01*
X217257710Y-71758472D01*
X217250030Y-71756500D01*
X217229776Y-71756500D01*
X217210065Y-71754949D01*
X217197886Y-71753020D01*
X217190057Y-71751780D01*
X217182165Y-71752526D01*
X217146039Y-71755941D01*
X217134181Y-71756500D01*
X213534500Y-71756500D01*
X213466379Y-71736498D01*
X213419886Y-71682842D01*
X213408500Y-71630500D01*
X213408500Y-70276866D01*
X213401745Y-70214684D01*
X213350615Y-70078295D01*
X213263261Y-69961739D01*
X213146705Y-69874385D01*
X213010316Y-69823255D01*
X212948134Y-69816500D01*
X211251866Y-69816500D01*
X211189684Y-69823255D01*
X211053295Y-69874385D01*
X210936739Y-69961739D01*
X210849385Y-70078295D01*
X210798255Y-70214684D01*
X210791500Y-70276866D01*
X210791500Y-71630500D01*
X210771498Y-71698621D01*
X210717842Y-71745114D01*
X210665500Y-71756500D01*
X202049958Y-71756500D01*
X201981837Y-71736498D01*
X201935344Y-71682842D01*
X201925240Y-71612568D01*
X201929399Y-71593872D01*
X201933850Y-71579225D01*
X201987370Y-71403069D01*
X202016529Y-71181590D01*
X202017997Y-71121504D01*
X202018074Y-71118365D01*
X202018074Y-71118361D01*
X202018156Y-71115000D01*
X201999852Y-70892361D01*
X201945431Y-70675702D01*
X201856354Y-70470840D01*
X201738022Y-70287926D01*
X201737822Y-70287617D01*
X201737820Y-70287614D01*
X201735014Y-70283277D01*
X201584670Y-70118051D01*
X201580619Y-70114852D01*
X201580615Y-70114848D01*
X201413414Y-69982800D01*
X201413410Y-69982798D01*
X201409359Y-69979598D01*
X201373028Y-69959542D01*
X201330314Y-69935963D01*
X201213789Y-69871638D01*
X201208920Y-69869914D01*
X201208916Y-69869912D01*
X201008087Y-69798795D01*
X201008083Y-69798794D01*
X201003212Y-69797069D01*
X200998119Y-69796162D01*
X200998116Y-69796161D01*
X200788373Y-69758800D01*
X200788367Y-69758799D01*
X200783284Y-69757894D01*
X200709452Y-69756992D01*
X200565081Y-69755228D01*
X200565079Y-69755228D01*
X200559911Y-69755165D01*
X200339091Y-69788955D01*
X200126756Y-69858357D01*
X199928607Y-69961507D01*
X199924474Y-69964610D01*
X199924471Y-69964612D01*
X199761861Y-70086703D01*
X199749965Y-70095635D01*
X199710600Y-70136828D01*
X199645362Y-70205096D01*
X199595629Y-70257138D01*
X199592715Y-70261410D01*
X199592714Y-70261411D01*
X199566772Y-70299441D01*
X199490011Y-70411969D01*
X199487898Y-70415066D01*
X199432987Y-70460069D01*
X199362462Y-70468240D01*
X199298715Y-70436986D01*
X199278018Y-70412502D01*
X199197426Y-70287926D01*
X199191136Y-70279757D01*
X199047806Y-70122240D01*
X199040273Y-70115215D01*
X198873139Y-69983222D01*
X198864552Y-69977517D01*
X198678117Y-69874599D01*
X198668705Y-69870369D01*
X198467959Y-69799280D01*
X198457988Y-69796646D01*
X198386837Y-69783972D01*
X198373540Y-69785432D01*
X198369000Y-69799989D01*
X198369000Y-71243000D01*
X198348998Y-71311121D01*
X198295342Y-71357614D01*
X198243000Y-71369000D01*
X196798225Y-71369000D01*
X196784694Y-71372973D01*
X196783257Y-71382966D01*
X196813565Y-71517446D01*
X196816645Y-71527275D01*
X196896770Y-71724603D01*
X196901413Y-71733794D01*
X197012694Y-71915388D01*
X197018777Y-71923699D01*
X197158213Y-72084667D01*
X197165580Y-72091883D01*
X197329434Y-72227916D01*
X197337881Y-72233831D01*
X197406969Y-72274203D01*
X197455693Y-72325842D01*
X197468764Y-72395625D01*
X197442033Y-72461396D01*
X197401584Y-72494752D01*
X197388607Y-72501507D01*
X197384474Y-72504610D01*
X197384471Y-72504612D01*
X197349813Y-72530634D01*
X197209965Y-72635635D01*
X197055629Y-72797138D01*
X197052720Y-72801403D01*
X197052714Y-72801411D01*
X196996634Y-72883621D01*
X196929743Y-72981680D01*
X196901046Y-73043502D01*
X196848115Y-73157534D01*
X196835688Y-73184305D01*
X196775989Y-73399570D01*
X196752251Y-73621695D01*
X196752548Y-73626848D01*
X196752548Y-73626851D01*
X196758011Y-73721590D01*
X196765110Y-73844715D01*
X196766247Y-73849761D01*
X196766248Y-73849767D01*
X196767321Y-73854527D01*
X196814222Y-74062639D01*
X196867499Y-74193845D01*
X196893708Y-74258390D01*
X196898266Y-74269616D01*
X196918841Y-74303191D01*
X196989873Y-74419105D01*
X197014987Y-74460088D01*
X197161250Y-74628938D01*
X197333126Y-74771632D01*
X197403595Y-74812811D01*
X197406445Y-74814476D01*
X197455169Y-74866114D01*
X197468240Y-74935897D01*
X197441509Y-75001669D01*
X197401055Y-75035027D01*
X197388607Y-75041507D01*
X197384474Y-75044610D01*
X197384471Y-75044612D01*
X197332677Y-75083500D01*
X197209965Y-75175635D01*
X197055629Y-75337138D01*
X196929743Y-75521680D01*
X196892339Y-75602261D01*
X196860829Y-75670144D01*
X196835688Y-75724305D01*
X196775989Y-75939570D01*
X196752251Y-76161695D01*
X196752548Y-76166848D01*
X196752548Y-76166851D01*
X196758974Y-76278295D01*
X196765110Y-76384715D01*
X196766247Y-76389761D01*
X196766248Y-76389767D01*
X196773634Y-76422540D01*
X196814222Y-76602639D01*
X196898266Y-76809616D01*
X196936046Y-76871267D01*
X197011174Y-76993865D01*
X197014987Y-77000088D01*
X197161250Y-77168938D01*
X197333126Y-77311632D01*
X197403595Y-77352811D01*
X197406445Y-77354476D01*
X197455169Y-77406114D01*
X197468240Y-77475897D01*
X197441509Y-77541669D01*
X197401055Y-77575027D01*
X197388607Y-77581507D01*
X197384474Y-77584610D01*
X197384471Y-77584612D01*
X197214100Y-77712530D01*
X197209965Y-77715635D01*
X197055629Y-77877138D01*
X196929743Y-78061680D01*
X196901046Y-78123502D01*
X196839412Y-78256283D01*
X196835688Y-78264305D01*
X196775989Y-78479570D01*
X196752251Y-78701695D01*
X196752548Y-78706848D01*
X196752548Y-78706851D01*
X196756702Y-78778891D01*
X196765110Y-78924715D01*
X196766247Y-78929761D01*
X196766248Y-78929767D01*
X196775367Y-78970229D01*
X196814222Y-79142639D01*
X196898266Y-79349616D01*
X196918759Y-79383057D01*
X197004525Y-79523015D01*
X197014987Y-79540088D01*
X197161250Y-79708938D01*
X197333126Y-79851632D01*
X197366794Y-79871306D01*
X197406445Y-79894476D01*
X197455169Y-79946114D01*
X197468240Y-80015897D01*
X197441509Y-80081669D01*
X197401055Y-80115027D01*
X197388607Y-80121507D01*
X197384474Y-80124610D01*
X197384471Y-80124612D01*
X197221861Y-80246703D01*
X197209965Y-80255635D01*
X197055629Y-80417138D01*
X197052715Y-80421410D01*
X197052714Y-80421411D01*
X196967556Y-80546249D01*
X196929743Y-80601680D01*
X196901046Y-80663502D01*
X196839412Y-80796283D01*
X196835688Y-80804305D01*
X196775989Y-81019570D01*
X196752251Y-81241695D01*
X196752548Y-81246848D01*
X196752548Y-81246851D01*
X196764812Y-81459547D01*
X196765110Y-81464715D01*
X196766247Y-81469761D01*
X196766248Y-81469767D01*
X196774776Y-81507607D01*
X196814222Y-81682639D01*
X196898266Y-81889616D01*
X196936046Y-81951267D01*
X197011174Y-82073865D01*
X197014987Y-82080088D01*
X197161250Y-82248938D01*
X197333126Y-82391632D01*
X197403595Y-82432811D01*
X197406445Y-82434476D01*
X197455169Y-82486114D01*
X197468240Y-82555897D01*
X197441509Y-82621669D01*
X197401055Y-82655027D01*
X197388607Y-82661507D01*
X197384474Y-82664610D01*
X197384471Y-82664612D01*
X197285541Y-82738891D01*
X197209965Y-82795635D01*
X197206393Y-82799373D01*
X197066383Y-82945885D01*
X197055629Y-82957138D01*
X197052715Y-82961410D01*
X197052714Y-82961411D01*
X197025397Y-83001457D01*
X196929743Y-83141680D01*
X196927564Y-83146375D01*
X196839412Y-83336283D01*
X196835688Y-83344305D01*
X196775989Y-83559570D01*
X196752251Y-83781695D01*
X196752548Y-83786848D01*
X196752548Y-83786851D01*
X196756069Y-83847909D01*
X196765110Y-84004715D01*
X196766247Y-84009761D01*
X196766248Y-84009767D01*
X196782468Y-84081739D01*
X196814222Y-84222639D01*
X196898266Y-84429616D01*
X196936046Y-84491267D01*
X197011174Y-84613865D01*
X197014987Y-84620088D01*
X197161250Y-84788938D01*
X197333126Y-84931632D01*
X197380587Y-84959366D01*
X197406445Y-84974476D01*
X197455169Y-85026114D01*
X197468240Y-85095897D01*
X197441509Y-85161669D01*
X197401055Y-85195027D01*
X197388607Y-85201507D01*
X197384474Y-85204610D01*
X197384471Y-85204612D01*
X197357116Y-85225151D01*
X197209965Y-85335635D01*
X197055629Y-85497138D01*
X196929743Y-85681680D01*
X196901046Y-85743502D01*
X196840477Y-85873989D01*
X196835688Y-85884305D01*
X196775989Y-86099570D01*
X196752251Y-86321695D01*
X196752548Y-86326848D01*
X196752548Y-86326851D01*
X196758011Y-86421590D01*
X196765110Y-86544715D01*
X196766247Y-86549761D01*
X196766248Y-86549767D01*
X196771521Y-86573163D01*
X196814222Y-86762639D01*
X196898266Y-86969616D01*
X196936258Y-87031613D01*
X197012291Y-87155688D01*
X197014987Y-87160088D01*
X197161250Y-87328938D01*
X197333126Y-87471632D01*
X197356790Y-87485460D01*
X197406955Y-87514774D01*
X197455679Y-87566412D01*
X197468750Y-87636195D01*
X197442019Y-87701967D01*
X197401562Y-87735327D01*
X197393457Y-87739546D01*
X197384738Y-87745036D01*
X197214433Y-87872905D01*
X197206726Y-87879748D01*
X197059590Y-88033717D01*
X197053104Y-88041727D01*
X196933098Y-88217649D01*
X196928000Y-88226623D01*
X196838338Y-88419783D01*
X196834775Y-88429470D01*
X196779389Y-88629183D01*
X196780912Y-88637607D01*
X196793292Y-88641000D01*
X198243000Y-88641000D01*
X198311121Y-88661002D01*
X198357614Y-88714658D01*
X198369000Y-88767000D01*
X198369000Y-89023000D01*
X198348998Y-89091121D01*
X198295342Y-89137614D01*
X198243000Y-89149000D01*
X196798225Y-89149000D01*
X196784694Y-89152973D01*
X196783257Y-89162966D01*
X196813565Y-89297446D01*
X196816645Y-89307275D01*
X196896770Y-89504603D01*
X196901413Y-89513794D01*
X197012694Y-89695388D01*
X197018777Y-89703699D01*
X197158213Y-89864667D01*
X197165580Y-89871883D01*
X197329434Y-90007916D01*
X197337881Y-90013831D01*
X197406969Y-90054203D01*
X197455693Y-90105842D01*
X197468764Y-90175625D01*
X197442033Y-90241396D01*
X197401584Y-90274752D01*
X197388607Y-90281507D01*
X197384474Y-90284610D01*
X197384471Y-90284612D01*
X197214100Y-90412530D01*
X197209965Y-90415635D01*
X197176524Y-90450629D01*
X197063886Y-90568498D01*
X197055629Y-90577138D01*
X196929743Y-90761680D01*
X196911259Y-90801500D01*
X196853091Y-90926814D01*
X196835688Y-90964305D01*
X196775989Y-91179570D01*
X196752251Y-91401695D01*
X196752548Y-91406848D01*
X196752548Y-91406851D01*
X196762282Y-91575663D01*
X196765110Y-91624715D01*
X196766247Y-91629761D01*
X196766248Y-91629767D01*
X196788192Y-91727138D01*
X196814222Y-91842639D01*
X196898266Y-92049616D01*
X196937925Y-92114334D01*
X197011174Y-92233865D01*
X197014987Y-92240088D01*
X197161250Y-92408938D01*
X197333126Y-92551632D01*
X197380445Y-92579283D01*
X197406445Y-92594476D01*
X197455169Y-92646114D01*
X197468240Y-92715897D01*
X197441509Y-92781669D01*
X197401055Y-92815027D01*
X197388607Y-92821507D01*
X197384474Y-92824610D01*
X197384471Y-92824612D01*
X197275798Y-92906206D01*
X197209965Y-92955635D01*
X197206393Y-92959373D01*
X197063886Y-93108498D01*
X197055629Y-93117138D01*
X197052715Y-93121410D01*
X197052714Y-93121411D01*
X197000910Y-93197353D01*
X196929743Y-93301680D01*
X196891552Y-93383955D01*
X196855244Y-93462176D01*
X196835688Y-93504305D01*
X196775989Y-93719570D01*
X196775440Y-93724707D01*
X196774456Y-93733913D01*
X196752251Y-93941695D01*
X196752548Y-93946848D01*
X196752548Y-93946851D01*
X196756896Y-94022251D01*
X196765110Y-94164715D01*
X196766247Y-94169761D01*
X196766248Y-94169767D01*
X196789431Y-94272635D01*
X196814222Y-94382639D01*
X196838088Y-94441413D01*
X196838771Y-94443096D01*
X196845867Y-94513737D01*
X196813645Y-94577000D01*
X196752335Y-94612801D01*
X196722028Y-94616500D01*
X196017225Y-94616500D01*
X195949104Y-94596498D01*
X195909449Y-94555771D01*
X195900576Y-94541120D01*
X195896639Y-94534619D01*
X195775381Y-94413361D01*
X195628699Y-94324528D01*
X195621452Y-94322257D01*
X195621450Y-94322256D01*
X195555164Y-94301483D01*
X195465062Y-94273247D01*
X195391635Y-94266500D01*
X195388737Y-94266500D01*
X195134335Y-94266501D01*
X194878366Y-94266501D01*
X194875508Y-94266764D01*
X194875499Y-94266764D01*
X194839996Y-94270026D01*
X194804938Y-94273247D01*
X194798560Y-94275246D01*
X194798559Y-94275246D01*
X194648550Y-94322256D01*
X194648548Y-94322257D01*
X194641301Y-94324528D01*
X194494619Y-94413361D01*
X194399095Y-94508885D01*
X194336783Y-94542911D01*
X194265968Y-94537846D01*
X194220905Y-94508885D01*
X194125381Y-94413361D01*
X193978699Y-94324528D01*
X193971452Y-94322257D01*
X193971450Y-94322256D01*
X193905164Y-94301483D01*
X193815062Y-94273247D01*
X193741635Y-94266500D01*
X193738737Y-94266500D01*
X193484335Y-94266501D01*
X193228366Y-94266501D01*
X193225508Y-94266764D01*
X193225499Y-94266764D01*
X193189996Y-94270026D01*
X193154938Y-94273247D01*
X193148560Y-94275246D01*
X193148559Y-94275246D01*
X192998550Y-94322256D01*
X192998548Y-94322257D01*
X192991301Y-94324528D01*
X192844619Y-94413361D01*
X192723361Y-94534619D01*
X192634528Y-94681301D01*
X192632257Y-94688548D01*
X192632256Y-94688550D01*
X192618125Y-94733642D01*
X192583247Y-94844938D01*
X192576500Y-94918365D01*
X192576501Y-95581634D01*
X192576764Y-95584492D01*
X192576764Y-95584501D01*
X192578129Y-95599354D01*
X192583247Y-95655062D01*
X192585246Y-95661440D01*
X192585246Y-95661441D01*
X192629307Y-95802038D01*
X192634528Y-95818699D01*
X192723361Y-95965381D01*
X192814595Y-96056615D01*
X192848621Y-96118927D01*
X192851500Y-96145710D01*
X192851500Y-96894290D01*
X192831498Y-96962411D01*
X192814595Y-96983385D01*
X192723361Y-97074619D01*
X192634528Y-97221301D01*
X192632257Y-97228548D01*
X192632256Y-97228550D01*
X192621185Y-97263879D01*
X192583247Y-97384938D01*
X192576500Y-97458365D01*
X192576501Y-98121634D01*
X192583247Y-98195062D01*
X192585246Y-98201440D01*
X192585246Y-98201441D01*
X192630595Y-98346148D01*
X192634528Y-98358699D01*
X192723361Y-98505381D01*
X192814595Y-98596615D01*
X192848621Y-98658927D01*
X192851500Y-98685710D01*
X192851500Y-99434290D01*
X192831498Y-99502411D01*
X192814595Y-99523385D01*
X192723361Y-99614619D01*
X192634528Y-99761301D01*
X192632257Y-99768548D01*
X192632256Y-99768550D01*
X192612613Y-99831233D01*
X192583247Y-99924938D01*
X192576500Y-99998365D01*
X192576501Y-100661634D01*
X192583247Y-100735062D01*
X192585246Y-100741440D01*
X192585246Y-100741441D01*
X192617178Y-100843334D01*
X192634528Y-100898699D01*
X192723361Y-101045381D01*
X192814595Y-101136615D01*
X192848621Y-101198927D01*
X192851500Y-101225710D01*
X192851500Y-101966233D01*
X192850973Y-101977416D01*
X192849298Y-101984909D01*
X192849547Y-101992835D01*
X192849547Y-101992836D01*
X192851438Y-102052986D01*
X192851500Y-102056945D01*
X192851500Y-102084856D01*
X192851997Y-102088790D01*
X192851997Y-102088791D01*
X192852005Y-102088856D01*
X192852938Y-102100693D01*
X192854327Y-102144889D01*
X192857441Y-102155606D01*
X192859978Y-102164339D01*
X192863987Y-102183700D01*
X192866526Y-102203797D01*
X192869445Y-102211168D01*
X192869445Y-102211170D01*
X192882804Y-102244912D01*
X192886649Y-102256142D01*
X192896771Y-102290983D01*
X192898982Y-102298593D01*
X192903015Y-102305412D01*
X192903017Y-102305417D01*
X192909293Y-102316028D01*
X192917988Y-102333776D01*
X192925448Y-102352617D01*
X192930110Y-102359033D01*
X192930110Y-102359034D01*
X192951436Y-102388387D01*
X192957952Y-102398307D01*
X192975251Y-102427557D01*
X192980458Y-102436362D01*
X192994779Y-102450683D01*
X193007619Y-102465716D01*
X193019528Y-102482107D01*
X193025634Y-102487158D01*
X193053605Y-102510298D01*
X193062384Y-102518288D01*
X194113199Y-103569103D01*
X194147225Y-103631415D01*
X194142160Y-103702230D01*
X194099613Y-103759066D01*
X194033093Y-103783877D01*
X193985406Y-103778058D01*
X193983176Y-103777202D01*
X193980001Y-103776351D01*
X193979994Y-103776349D01*
X193832652Y-103736869D01*
X193674585Y-103694515D01*
X193483849Y-103664305D01*
X193362288Y-103645051D01*
X193362280Y-103645050D01*
X193359040Y-103644537D01*
X193218074Y-103637149D01*
X193073079Y-103629550D01*
X193058779Y-103627978D01*
X193057343Y-103627737D01*
X193057341Y-103627737D01*
X193052539Y-103626929D01*
X193046538Y-103626856D01*
X193046270Y-103626814D01*
X193046001Y-103626849D01*
X193040000Y-103626776D01*
X193028424Y-103628434D01*
X193027977Y-103628498D01*
X193001872Y-103629501D01*
X192783015Y-103615156D01*
X192766674Y-103613005D01*
X192522176Y-103564371D01*
X192506257Y-103560105D01*
X192270210Y-103479978D01*
X192254983Y-103473671D01*
X192031408Y-103363416D01*
X192017135Y-103355175D01*
X191809867Y-103216684D01*
X191796790Y-103206651D01*
X191609368Y-103042286D01*
X191597714Y-103030632D01*
X191528786Y-102952035D01*
X191433346Y-102843206D01*
X191423316Y-102830133D01*
X191284825Y-102622865D01*
X191276584Y-102608592D01*
X191166329Y-102385017D01*
X191160022Y-102369790D01*
X191079895Y-102133743D01*
X191075629Y-102117824D01*
X191026995Y-101873327D01*
X191024844Y-101856986D01*
X191010736Y-101641732D01*
X191011761Y-101618696D01*
X191011804Y-101615146D01*
X191013186Y-101606270D01*
X191009064Y-101574748D01*
X191008000Y-101558411D01*
X191008000Y-94029328D01*
X191009500Y-94009943D01*
X191011805Y-93995142D01*
X191011805Y-93995139D01*
X191013186Y-93986270D01*
X191011059Y-93970001D01*
X191010266Y-93945433D01*
X191024844Y-93723015D01*
X191026995Y-93706674D01*
X191075629Y-93462176D01*
X191079895Y-93446257D01*
X191160022Y-93210210D01*
X191166329Y-93194983D01*
X191276584Y-92971408D01*
X191284825Y-92957135D01*
X191423316Y-92749867D01*
X191433349Y-92736790D01*
X191449515Y-92718357D01*
X191571479Y-92579283D01*
X191597714Y-92549368D01*
X191609368Y-92537714D01*
X191704929Y-92453909D01*
X191796794Y-92373346D01*
X191809867Y-92363316D01*
X192017135Y-92224825D01*
X192031408Y-92216584D01*
X192254983Y-92106329D01*
X192270210Y-92100022D01*
X192506257Y-92019895D01*
X192522176Y-92015629D01*
X192766674Y-91966995D01*
X192783015Y-91964844D01*
X192994627Y-91950974D01*
X193017783Y-91952146D01*
X193017812Y-91951828D01*
X193022656Y-91952262D01*
X193027461Y-91953071D01*
X193033462Y-91953144D01*
X193033730Y-91953186D01*
X193033999Y-91953151D01*
X193040000Y-91953224D01*
X193044807Y-91952535D01*
X193044814Y-91952535D01*
X193045851Y-91952386D01*
X193057122Y-91951285D01*
X193359040Y-91935463D01*
X193362280Y-91934950D01*
X193362288Y-91934949D01*
X193553785Y-91904618D01*
X193674585Y-91885485D01*
X193983176Y-91802798D01*
X194281435Y-91688308D01*
X194362926Y-91646786D01*
X194563150Y-91544767D01*
X194563157Y-91544763D01*
X194566091Y-91543268D01*
X194574949Y-91537516D01*
X194831253Y-91371070D01*
X194834028Y-91369268D01*
X195082309Y-91168214D01*
X195308214Y-90942309D01*
X195509268Y-90694028D01*
X195627417Y-90512094D01*
X195681470Y-90428860D01*
X195681472Y-90428857D01*
X195683268Y-90426091D01*
X195698856Y-90395499D01*
X195826810Y-90144375D01*
X195828308Y-90141435D01*
X195918183Y-89907301D01*
X195941612Y-89846266D01*
X195941613Y-89846264D01*
X195942798Y-89843176D01*
X196025485Y-89534585D01*
X196075463Y-89219040D01*
X196090450Y-88933079D01*
X196092022Y-88918779D01*
X196092263Y-88917344D01*
X196092263Y-88917340D01*
X196093071Y-88912539D01*
X196093224Y-88900000D01*
X196089273Y-88872412D01*
X196088000Y-88854549D01*
X196088000Y-70849183D01*
X196779389Y-70849183D01*
X196780912Y-70857607D01*
X196793292Y-70861000D01*
X197842885Y-70861000D01*
X197858124Y-70856525D01*
X197859329Y-70855135D01*
X197861000Y-70847452D01*
X197861000Y-69798102D01*
X197857082Y-69784758D01*
X197842806Y-69782771D01*
X197804324Y-69788660D01*
X197794288Y-69791051D01*
X197591868Y-69857212D01*
X197582359Y-69861209D01*
X197393463Y-69959542D01*
X197384738Y-69965036D01*
X197214433Y-70092905D01*
X197206726Y-70099748D01*
X197059590Y-70253717D01*
X197053104Y-70261727D01*
X196933098Y-70437649D01*
X196928000Y-70446623D01*
X196838338Y-70639783D01*
X196834775Y-70649470D01*
X196779389Y-70849183D01*
X196088000Y-70849183D01*
X196088000Y-66292277D01*
X197527009Y-66292277D01*
X197552625Y-66560769D01*
X197553710Y-66565203D01*
X197553711Y-66565209D01*
X197615645Y-66818312D01*
X197616731Y-66822750D01*
X197717985Y-67072733D01*
X197720294Y-67076676D01*
X197849569Y-67297461D01*
X197854265Y-67305482D01*
X197865486Y-67319513D01*
X197974686Y-67456060D01*
X198022716Y-67516119D01*
X198219809Y-67700234D01*
X198441416Y-67853968D01*
X198445499Y-67855999D01*
X198445502Y-67856001D01*
X198450029Y-67858253D01*
X198682894Y-67974101D01*
X198687228Y-67975522D01*
X198687231Y-67975523D01*
X198934853Y-68056698D01*
X198934859Y-68056699D01*
X198939186Y-68058118D01*
X198943677Y-68058898D01*
X198943678Y-68058898D01*
X199201140Y-68103601D01*
X199201148Y-68103602D01*
X199204921Y-68104257D01*
X199208758Y-68104448D01*
X199288578Y-68108422D01*
X199288586Y-68108422D01*
X199290149Y-68108500D01*
X199458512Y-68108500D01*
X199460780Y-68108335D01*
X199460792Y-68108335D01*
X199591884Y-68098823D01*
X199659004Y-68093953D01*
X199663459Y-68092969D01*
X199663462Y-68092969D01*
X199917912Y-68036791D01*
X199917916Y-68036790D01*
X199922372Y-68035806D01*
X200048480Y-67988028D01*
X200170318Y-67941868D01*
X200170321Y-67941867D01*
X200174588Y-67940250D01*
X200410368Y-67809286D01*
X200624773Y-67645657D01*
X200813312Y-67452792D01*
X200972034Y-67234730D01*
X201055190Y-67076676D01*
X201095490Y-67000079D01*
X201095493Y-67000073D01*
X201097615Y-66996039D01*
X201160378Y-66818312D01*
X201185902Y-66746033D01*
X201185902Y-66746032D01*
X201187425Y-66741720D01*
X201239581Y-66477100D01*
X201248782Y-66292277D01*
X201252764Y-66212292D01*
X201252764Y-66212286D01*
X201252991Y-66207723D01*
X201227375Y-65939231D01*
X201182042Y-65753967D01*
X201164355Y-65681688D01*
X201163269Y-65677250D01*
X201062015Y-65427267D01*
X200925735Y-65194518D01*
X200807928Y-65047208D01*
X200760136Y-64987447D01*
X200760135Y-64987445D01*
X200757284Y-64983881D01*
X200560191Y-64799766D01*
X200338584Y-64646032D01*
X200334501Y-64644001D01*
X200334498Y-64643999D01*
X200169606Y-64561967D01*
X200097106Y-64525899D01*
X200092772Y-64524478D01*
X200092769Y-64524477D01*
X199845147Y-64443302D01*
X199845141Y-64443301D01*
X199840814Y-64441882D01*
X199836322Y-64441102D01*
X199578860Y-64396399D01*
X199578852Y-64396398D01*
X199575079Y-64395743D01*
X199563817Y-64395182D01*
X199491422Y-64391578D01*
X199491414Y-64391578D01*
X199489851Y-64391500D01*
X199321488Y-64391500D01*
X199319220Y-64391665D01*
X199319208Y-64391665D01*
X199188116Y-64401177D01*
X199120996Y-64406047D01*
X199116541Y-64407031D01*
X199116538Y-64407031D01*
X198862088Y-64463209D01*
X198862084Y-64463210D01*
X198857628Y-64464194D01*
X198731520Y-64511972D01*
X198609682Y-64558132D01*
X198609679Y-64558133D01*
X198605412Y-64559750D01*
X198369632Y-64690714D01*
X198155227Y-64854343D01*
X197966688Y-65047208D01*
X197807966Y-65265270D01*
X197805844Y-65269304D01*
X197684510Y-65499921D01*
X197684507Y-65499927D01*
X197682385Y-65503961D01*
X197680865Y-65508266D01*
X197680863Y-65508270D01*
X197594098Y-65753967D01*
X197592575Y-65758280D01*
X197591692Y-65762762D01*
X197542885Y-66010389D01*
X197540419Y-66022900D01*
X197540192Y-66027453D01*
X197540192Y-66027456D01*
X197530991Y-66212292D01*
X197527009Y-66292277D01*
X196088000Y-66292277D01*
X196088000Y-66093207D01*
X196089746Y-66072303D01*
X196092264Y-66057335D01*
X196093071Y-66052539D01*
X196093224Y-66040000D01*
X196092326Y-66033730D01*
X196091143Y-66025465D01*
X196090044Y-66001012D01*
X196105743Y-65701448D01*
X196107121Y-65688331D01*
X196159124Y-65359998D01*
X196161866Y-65347098D01*
X196182711Y-65269304D01*
X196247904Y-65025998D01*
X196251978Y-65013459D01*
X196313058Y-64854343D01*
X196371107Y-64703121D01*
X196376470Y-64691074D01*
X196527388Y-64394880D01*
X196533983Y-64383458D01*
X196715032Y-64104667D01*
X196722775Y-64094010D01*
X196931989Y-63835652D01*
X196940806Y-63825861D01*
X197175861Y-63590806D01*
X197185652Y-63581989D01*
X197444010Y-63372775D01*
X197454667Y-63365032D01*
X197733458Y-63183983D01*
X197744880Y-63177388D01*
X198041074Y-63026470D01*
X198053122Y-63021106D01*
X198363464Y-62901976D01*
X198375998Y-62897904D01*
X198697097Y-62811866D01*
X198709998Y-62809124D01*
X199038331Y-62757121D01*
X199051447Y-62755743D01*
X199087309Y-62753864D01*
X199383406Y-62738346D01*
X199396594Y-62738346D01*
X199692691Y-62753864D01*
G37*
%TD.AperFunction*%
%TA.AperFunction,Conductor*%
G36*
X206448227Y-83203502D02*
G01*
X206469201Y-83220405D01*
X211112554Y-87863758D01*
X211146580Y-87926070D01*
X211141515Y-87996885D01*
X211112554Y-88041948D01*
X211093802Y-88060700D01*
X211090645Y-88065208D01*
X211090643Y-88065211D01*
X211078023Y-88083235D01*
X210962477Y-88248251D01*
X210960154Y-88253233D01*
X210960151Y-88253238D01*
X210884072Y-88416392D01*
X210865716Y-88455757D01*
X210864294Y-88461065D01*
X210864293Y-88461067D01*
X210819483Y-88628299D01*
X210806457Y-88676913D01*
X210786502Y-88905000D01*
X210786981Y-88910475D01*
X210786981Y-88910478D01*
X210788506Y-88927911D01*
X210774516Y-88997516D01*
X210725116Y-89048507D01*
X210655990Y-89064697D01*
X210589085Y-89040944D01*
X210573890Y-89027986D01*
X208542405Y-86996500D01*
X206243652Y-84697747D01*
X206236112Y-84689461D01*
X206232000Y-84682982D01*
X206182348Y-84636356D01*
X206179507Y-84633602D01*
X206159770Y-84613865D01*
X206156573Y-84611385D01*
X206147551Y-84603680D01*
X206115321Y-84573414D01*
X206108375Y-84569595D01*
X206108372Y-84569593D01*
X206097566Y-84563652D01*
X206081047Y-84552801D01*
X206080583Y-84552441D01*
X206065041Y-84540386D01*
X206057772Y-84537241D01*
X206057768Y-84537238D01*
X206024463Y-84522826D01*
X206013813Y-84517609D01*
X205975060Y-84496305D01*
X205967166Y-84494278D01*
X205955438Y-84491267D01*
X205936734Y-84484863D01*
X205925420Y-84479967D01*
X205925419Y-84479967D01*
X205918145Y-84476819D01*
X205910322Y-84475580D01*
X205910312Y-84475577D01*
X205874476Y-84469901D01*
X205862856Y-84467495D01*
X205827711Y-84458472D01*
X205827710Y-84458472D01*
X205820030Y-84456500D01*
X205799776Y-84456500D01*
X205780065Y-84454949D01*
X205767886Y-84453020D01*
X205760057Y-84451780D01*
X205752165Y-84452526D01*
X205716039Y-84455941D01*
X205704181Y-84456500D01*
X202049436Y-84456500D01*
X201981315Y-84436498D01*
X201934822Y-84382842D01*
X201924718Y-84312568D01*
X201928877Y-84293872D01*
X201985379Y-84107903D01*
X201987555Y-84097837D01*
X201988986Y-84086962D01*
X201986775Y-84072778D01*
X201973617Y-84069000D01*
X200527000Y-84069000D01*
X200458879Y-84048998D01*
X200412386Y-83995342D01*
X200401000Y-83943000D01*
X200401000Y-83687000D01*
X200421002Y-83618879D01*
X200474658Y-83572386D01*
X200527000Y-83561000D01*
X201973344Y-83561000D01*
X201986875Y-83557027D01*
X201988180Y-83547947D01*
X201946214Y-83380875D01*
X201942896Y-83371128D01*
X201937946Y-83359745D01*
X201929125Y-83289298D01*
X201959790Y-83225266D01*
X202020206Y-83187977D01*
X202053495Y-83183500D01*
X206380106Y-83183500D01*
X206448227Y-83203502D01*
G37*
%TD.AperFunction*%
%TA.AperFunction,Conductor*%
G36*
X205493527Y-78123502D02*
G01*
X205514501Y-78140405D01*
X206535501Y-79161405D01*
X206569527Y-79223717D01*
X206564462Y-79294532D01*
X206521915Y-79351368D01*
X206455395Y-79376179D01*
X206446406Y-79376500D01*
X202049436Y-79376500D01*
X201981315Y-79356498D01*
X201934822Y-79302842D01*
X201924718Y-79232568D01*
X201928877Y-79213872D01*
X201985379Y-79027903D01*
X201987555Y-79017837D01*
X201988986Y-79006962D01*
X201986775Y-78992778D01*
X201973617Y-78989000D01*
X200527000Y-78989000D01*
X200458879Y-78968998D01*
X200412386Y-78915342D01*
X200401000Y-78863000D01*
X200401000Y-78607000D01*
X200421002Y-78538879D01*
X200474658Y-78492386D01*
X200527000Y-78481000D01*
X201973344Y-78481000D01*
X201986875Y-78477027D01*
X201988180Y-78467947D01*
X201946214Y-78300875D01*
X201942896Y-78291128D01*
X201937946Y-78279745D01*
X201929125Y-78209298D01*
X201959790Y-78145266D01*
X202020206Y-78107977D01*
X202053495Y-78103500D01*
X205425406Y-78103500D01*
X205493527Y-78123502D01*
G37*
%TD.AperFunction*%
%TD*%
M02*
