M48
; DRILL file {KiCad (6.0.0)} date Thu Aug 18 22:07:20 2022
; FORMAT={-:-/ absolute / metric / decimal}
; #@! TF.CreationDate,2022-08-18T22:07:20-04:00
; #@! TF.GenerationSoftware,Kicad,Pcbnew,(6.0.0)
; #@! TF.FileFunction,Plated,1,2,PTH
FMAT,2
METRIC
; #@! TA.AperFunction,Plated,PTH,ViaDrill
T1C0.400
; #@! TA.AperFunction,Plated,PTH,ComponentDrill
T2C0.800
; #@! TA.AperFunction,Plated,PTH,ComponentDrill
T3C1.000
; #@! TA.AperFunction,Plated,PTH,ComponentDrill
T4C3.100
%
G90
G05
T1
X202.565Y-118.11
X205.74Y-90.17
X206.375Y-111.125
X208.28Y-92.71
T2
X212.08Y-97.785
X212.08Y-100.325
X212.08Y-102.865
X212.08Y-105.405
X212.08Y-107.945
X212.08Y-110.485
X212.08Y-113.025
X212.08Y-115.565
X212.08Y-118.105
X212.08Y-120.645
X212.1Y-71.125
X212.1Y-73.665
X212.1Y-76.205
X212.1Y-78.745
X212.1Y-81.285
X212.1Y-83.825
X212.1Y-86.365
X212.1Y-88.905
X212.1Y-91.445
X212.1Y-93.985
X219.7Y-97.785
X219.7Y-100.325
X219.7Y-102.865
X219.7Y-105.405
X219.7Y-107.945
X219.7Y-110.485
X219.7Y-113.025
X219.7Y-115.565
X219.7Y-118.105
X219.7Y-120.645
X219.72Y-71.125
X219.72Y-73.665
X219.72Y-76.205
X219.72Y-78.745
X219.72Y-81.285
X219.72Y-83.825
X219.72Y-86.365
X219.72Y-88.905
X219.72Y-91.445
X219.72Y-93.985
T3
X198.115Y-71.115
X198.115Y-73.655
X198.115Y-76.195
X198.115Y-78.735
X198.115Y-81.275
X198.115Y-83.815
X198.115Y-86.355
X198.115Y-88.895
X198.115Y-91.435
X198.115Y-93.975
X198.115Y-96.515
X198.115Y-99.055
X198.115Y-101.595
X198.115Y-104.135
X198.115Y-106.675
X198.115Y-109.215
X198.115Y-111.755
X198.115Y-114.295
X198.115Y-116.835
X198.115Y-119.375
X200.655Y-71.115
X200.655Y-73.655
X200.655Y-76.195
X200.655Y-78.735
X200.655Y-81.275
X200.655Y-83.815
X200.655Y-86.355
X200.655Y-88.895
X200.655Y-91.435
X200.655Y-93.975
X200.655Y-96.515
X200.655Y-99.055
X200.655Y-101.595
X200.655Y-104.135
X200.655Y-106.675
X200.655Y-109.215
X200.655Y-111.755
X200.655Y-114.295
X200.655Y-116.835
X200.655Y-119.375
X229.39Y-84.19
X229.39Y-86.35
X229.39Y-88.51
X229.39Y-90.67
X229.39Y-92.83
X229.39Y-94.99
X229.39Y-97.15
X229.39Y-99.31
X229.39Y-101.47
X229.39Y-103.63
X229.39Y-105.79
X229.39Y-107.95
X233.68Y-84.19
X233.68Y-86.35
X233.68Y-88.51
X233.68Y-90.67
X233.68Y-92.83
X233.68Y-94.99
X233.68Y-97.15
X233.68Y-99.31
X233.68Y-101.47
X233.68Y-103.63
X233.68Y-105.79
X233.68Y-107.95
T4
X231.535Y-72.67
X231.535Y-119.47
T0
M30
