%TF.GenerationSoftware,KiCad,Pcbnew,(6.0.0)*%
%TF.CreationDate,2022-08-18T22:07:18-04:00*%
%TF.ProjectId,gpib breakout,67706962-2062-4726-9561-6b6f75742e6b,rev?*%
%TF.SameCoordinates,Original*%
%TF.FileFunction,Legend,Top*%
%TF.FilePolarity,Positive*%
%FSLAX46Y46*%
G04 Gerber Fmt 4.6, Leading zero omitted, Abs format (unit mm)*
G04 Created by KiCad (PCBNEW (6.0.0)) date 2022-08-18 22:07:18*
%MOMM*%
%LPD*%
G01*
G04 APERTURE LIST*
G04 Aperture macros list*
%AMRoundRect*
0 Rectangle with rounded corners*
0 $1 Rounding radius*
0 $2 $3 $4 $5 $6 $7 $8 $9 X,Y pos of 4 corners*
0 Add a 4 corners polygon primitive as box body*
4,1,4,$2,$3,$4,$5,$6,$7,$8,$9,$2,$3,0*
0 Add four circle primitives for the rounded corners*
1,1,$1+$1,$2,$3*
1,1,$1+$1,$4,$5*
1,1,$1+$1,$6,$7*
1,1,$1+$1,$8,$9*
0 Add four rect primitives between the rounded corners*
20,1,$1+$1,$2,$3,$4,$5,0*
20,1,$1+$1,$4,$5,$6,$7,0*
20,1,$1+$1,$6,$7,$8,$9,0*
20,1,$1+$1,$8,$9,$2,$3,0*%
G04 Aperture macros list end*
%ADD10C,0.150000*%
%ADD11C,0.120000*%
%ADD12C,0.100000*%
%ADD13RoundRect,0.225000X-0.225000X-0.250000X0.225000X-0.250000X0.225000X0.250000X-0.225000X0.250000X0*%
%ADD14RoundRect,0.200000X-0.275000X0.200000X-0.275000X-0.200000X0.275000X-0.200000X0.275000X0.200000X0*%
%ADD15C,2.700000*%
%ADD16RoundRect,0.200000X-0.200000X-0.275000X0.200000X-0.275000X0.200000X0.275000X-0.200000X0.275000X0*%
%ADD17RoundRect,0.200000X0.200000X0.275000X-0.200000X0.275000X-0.200000X-0.275000X0.200000X-0.275000X0*%
%ADD18R,5.000000X2.000000*%
%ADD19RoundRect,0.225000X0.250000X-0.225000X0.250000X0.225000X-0.250000X0.225000X-0.250000X-0.225000X0*%
%ADD20R,1.600000X1.600000*%
%ADD21O,1.600000X1.600000*%
%ADD22C,1.500000*%
%ADD23R,1.500000X1.500000*%
%ADD24C,4.650000*%
%ADD25R,1.700000X1.700000*%
%ADD26O,1.700000X1.700000*%
G04 APERTURE END LIST*
D10*
%TO.C,C1*%
X221877142Y-72002380D02*
X221972380Y-72002380D01*
X222067619Y-72050000D01*
X222115238Y-72097619D01*
X222162857Y-72192857D01*
X222210476Y-72383333D01*
X222210476Y-72621428D01*
X222162857Y-72811904D01*
X222115238Y-72907142D01*
X222067619Y-72954761D01*
X221972380Y-73002380D01*
X221877142Y-73002380D01*
X221781904Y-72954761D01*
X221734285Y-72907142D01*
X221686666Y-72811904D01*
X221639047Y-72621428D01*
X221639047Y-72383333D01*
X221686666Y-72192857D01*
X221734285Y-72097619D01*
X221781904Y-72050000D01*
X221877142Y-72002380D01*
X222639047Y-72907142D02*
X222686666Y-72954761D01*
X222639047Y-73002380D01*
X222591428Y-72954761D01*
X222639047Y-72907142D01*
X222639047Y-73002380D01*
X223639047Y-73002380D02*
X223067619Y-73002380D01*
X223353333Y-73002380D02*
X223353333Y-72002380D01*
X223258095Y-72145238D01*
X223162857Y-72240476D01*
X223067619Y-72288095D01*
X224496190Y-72335714D02*
X224496190Y-73002380D01*
X224067619Y-72335714D02*
X224067619Y-72859523D01*
X224115238Y-72954761D01*
X224210476Y-73002380D01*
X224353333Y-73002380D01*
X224448571Y-72954761D01*
X224496190Y-72907142D01*
X225305714Y-72478571D02*
X224972380Y-72478571D01*
X224972380Y-73002380D02*
X224972380Y-72002380D01*
X225448571Y-72002380D01*
%TO.C,R4*%
X208287952Y-113482380D02*
X207716523Y-113482380D01*
X208002238Y-113482380D02*
X208002238Y-112482380D01*
X207907000Y-112625238D01*
X207811761Y-112720476D01*
X207716523Y-112768095D01*
X208716523Y-113482380D02*
X208716523Y-112482380D01*
X208811761Y-113101428D02*
X209097476Y-113482380D01*
X209097476Y-112815714D02*
X208716523Y-113196666D01*
%TO.C,R3*%
X193619523Y-94432380D02*
X193048095Y-94432380D01*
X193333809Y-94432380D02*
X193333809Y-93432380D01*
X193238571Y-93575238D01*
X193143333Y-93670476D01*
X193048095Y-93718095D01*
X194238571Y-93432380D02*
X194333809Y-93432380D01*
X194429047Y-93480000D01*
X194476666Y-93527619D01*
X194524285Y-93622857D01*
X194571904Y-93813333D01*
X194571904Y-94051428D01*
X194524285Y-94241904D01*
X194476666Y-94337142D01*
X194429047Y-94384761D01*
X194333809Y-94432380D01*
X194238571Y-94432380D01*
X194143333Y-94384761D01*
X194095714Y-94337142D01*
X194048095Y-94241904D01*
X194000476Y-94051428D01*
X194000476Y-93813333D01*
X194048095Y-93622857D01*
X194095714Y-93527619D01*
X194143333Y-93480000D01*
X194238571Y-93432380D01*
X195000476Y-94432380D02*
X195000476Y-93432380D01*
X195571904Y-94432380D02*
X195143333Y-93860952D01*
X195571904Y-93432380D02*
X195000476Y-94003809D01*
%TO.C,R5*%
X204350952Y-119832380D02*
X203779523Y-119832380D01*
X204065238Y-119832380D02*
X204065238Y-118832380D01*
X203970000Y-118975238D01*
X203874761Y-119070476D01*
X203779523Y-119118095D01*
X204779523Y-119832380D02*
X204779523Y-118832380D01*
X204874761Y-119451428D02*
X205160476Y-119832380D01*
X205160476Y-119165714D02*
X204779523Y-119546666D01*
%TO.C,J1*%
X234842880Y-122761333D02*
X235557166Y-122761333D01*
X235700023Y-122808952D01*
X235795261Y-122904190D01*
X235842880Y-123047047D01*
X235842880Y-123142285D01*
X235842880Y-121761333D02*
X235842880Y-122332761D01*
X235842880Y-122047047D02*
X234842880Y-122047047D01*
X234985738Y-122142285D01*
X235080976Y-122237523D01*
X235128595Y-122332761D01*
%TO.C,C2*%
X207732380Y-121517857D02*
X207732380Y-121422619D01*
X207780000Y-121327380D01*
X207827619Y-121279761D01*
X207922857Y-121232142D01*
X208113333Y-121184523D01*
X208351428Y-121184523D01*
X208541904Y-121232142D01*
X208637142Y-121279761D01*
X208684761Y-121327380D01*
X208732380Y-121422619D01*
X208732380Y-121517857D01*
X208684761Y-121613095D01*
X208637142Y-121660714D01*
X208541904Y-121708333D01*
X208351428Y-121755952D01*
X208113333Y-121755952D01*
X207922857Y-121708333D01*
X207827619Y-121660714D01*
X207780000Y-121613095D01*
X207732380Y-121517857D01*
X208637142Y-120755952D02*
X208684761Y-120708333D01*
X208732380Y-120755952D01*
X208684761Y-120803571D01*
X208637142Y-120755952D01*
X208732380Y-120755952D01*
X208732380Y-119755952D02*
X208732380Y-120327380D01*
X208732380Y-120041666D02*
X207732380Y-120041666D01*
X207875238Y-120136904D01*
X207970476Y-120232142D01*
X208018095Y-120327380D01*
X208065714Y-118898809D02*
X208732380Y-118898809D01*
X208065714Y-119327380D02*
X208589523Y-119327380D01*
X208684761Y-119279761D01*
X208732380Y-119184523D01*
X208732380Y-119041666D01*
X208684761Y-118946428D01*
X208637142Y-118898809D01*
X208208571Y-118089285D02*
X208208571Y-118422619D01*
X208732380Y-118422619D02*
X207732380Y-118422619D01*
X207732380Y-117946428D01*
%TO.C,R2*%
X193619523Y-96972380D02*
X193048095Y-96972380D01*
X193333809Y-96972380D02*
X193333809Y-95972380D01*
X193238571Y-96115238D01*
X193143333Y-96210476D01*
X193048095Y-96258095D01*
X194238571Y-95972380D02*
X194333809Y-95972380D01*
X194429047Y-96020000D01*
X194476666Y-96067619D01*
X194524285Y-96162857D01*
X194571904Y-96353333D01*
X194571904Y-96591428D01*
X194524285Y-96781904D01*
X194476666Y-96877142D01*
X194429047Y-96924761D01*
X194333809Y-96972380D01*
X194238571Y-96972380D01*
X194143333Y-96924761D01*
X194095714Y-96877142D01*
X194048095Y-96781904D01*
X194000476Y-96591428D01*
X194000476Y-96353333D01*
X194048095Y-96162857D01*
X194095714Y-96067619D01*
X194143333Y-96020000D01*
X194238571Y-95972380D01*
X195000476Y-96972380D02*
X195000476Y-95972380D01*
X195571904Y-96972380D02*
X195143333Y-96400952D01*
X195571904Y-95972380D02*
X195000476Y-96543809D01*
%TO.C,U2*%
X216408095Y-118832380D02*
X216408095Y-119641904D01*
X216455714Y-119737142D01*
X216503333Y-119784761D01*
X216598571Y-119832380D01*
X216789047Y-119832380D01*
X216884285Y-119784761D01*
X216931904Y-119737142D01*
X216979523Y-119641904D01*
X216979523Y-118832380D01*
X217408095Y-118927619D02*
X217455714Y-118880000D01*
X217550952Y-118832380D01*
X217789047Y-118832380D01*
X217884285Y-118880000D01*
X217931904Y-118927619D01*
X217979523Y-119022857D01*
X217979523Y-119118095D01*
X217931904Y-119260952D01*
X217360476Y-119832380D01*
X217979523Y-119832380D01*
X216294761Y-113434285D02*
X216342380Y-113291428D01*
X216342380Y-113053333D01*
X216294761Y-112958095D01*
X216247142Y-112910476D01*
X216151904Y-112862857D01*
X216056666Y-112862857D01*
X215961428Y-112910476D01*
X215913809Y-112958095D01*
X215866190Y-113053333D01*
X215818571Y-113243809D01*
X215770952Y-113339047D01*
X215723333Y-113386666D01*
X215628095Y-113434285D01*
X215532857Y-113434285D01*
X215437619Y-113386666D01*
X215390000Y-113339047D01*
X215342380Y-113243809D01*
X215342380Y-113005714D01*
X215390000Y-112862857D01*
X216342380Y-112434285D02*
X215342380Y-112434285D01*
X216342380Y-111862857D01*
X215342380Y-111862857D01*
X215342380Y-111481904D02*
X215342380Y-110815238D01*
X216342380Y-111243809D01*
X215342380Y-109958095D02*
X215342380Y-110434285D01*
X215818571Y-110481904D01*
X215770952Y-110434285D01*
X215723333Y-110339047D01*
X215723333Y-110100952D01*
X215770952Y-110005714D01*
X215818571Y-109958095D01*
X215913809Y-109910476D01*
X216151904Y-109910476D01*
X216247142Y-109958095D01*
X216294761Y-110005714D01*
X216342380Y-110100952D01*
X216342380Y-110339047D01*
X216294761Y-110434285D01*
X216247142Y-110481904D01*
X216342380Y-108958095D02*
X216342380Y-109529523D01*
X216342380Y-109243809D02*
X215342380Y-109243809D01*
X215485238Y-109339047D01*
X215580476Y-109434285D01*
X215628095Y-109529523D01*
X215342380Y-108100952D02*
X215342380Y-108291428D01*
X215390000Y-108386666D01*
X215437619Y-108434285D01*
X215580476Y-108529523D01*
X215770952Y-108577142D01*
X216151904Y-108577142D01*
X216247142Y-108529523D01*
X216294761Y-108481904D01*
X216342380Y-108386666D01*
X216342380Y-108196190D01*
X216294761Y-108100952D01*
X216247142Y-108053333D01*
X216151904Y-108005714D01*
X215913809Y-108005714D01*
X215818571Y-108053333D01*
X215770952Y-108100952D01*
X215723333Y-108196190D01*
X215723333Y-108386666D01*
X215770952Y-108481904D01*
X215818571Y-108529523D01*
X215913809Y-108577142D01*
X216342380Y-107053333D02*
X216342380Y-107624761D01*
X216342380Y-107339047D02*
X215342380Y-107339047D01*
X215485238Y-107434285D01*
X215580476Y-107529523D01*
X215628095Y-107624761D01*
X215818571Y-106291428D02*
X215866190Y-106148571D01*
X215913809Y-106100952D01*
X216009047Y-106053333D01*
X216151904Y-106053333D01*
X216247142Y-106100952D01*
X216294761Y-106148571D01*
X216342380Y-106243809D01*
X216342380Y-106624761D01*
X215342380Y-106624761D01*
X215342380Y-106291428D01*
X215390000Y-106196190D01*
X215437619Y-106148571D01*
X215532857Y-106100952D01*
X215628095Y-106100952D01*
X215723333Y-106148571D01*
X215770952Y-106196190D01*
X215818571Y-106291428D01*
X215818571Y-106624761D01*
X216342380Y-105624761D02*
X215342380Y-105624761D01*
X216342380Y-105053333D01*
X215342380Y-105053333D01*
%TO.C,U1*%
X213868095Y-71842380D02*
X213868095Y-72651904D01*
X213915714Y-72747142D01*
X213963333Y-72794761D01*
X214058571Y-72842380D01*
X214249047Y-72842380D01*
X214344285Y-72794761D01*
X214391904Y-72747142D01*
X214439523Y-72651904D01*
X214439523Y-71842380D01*
X215439523Y-72842380D02*
X214868095Y-72842380D01*
X215153809Y-72842380D02*
X215153809Y-71842380D01*
X215058571Y-71985238D01*
X214963333Y-72080476D01*
X214868095Y-72128095D01*
X216304761Y-85494285D02*
X216352380Y-85351428D01*
X216352380Y-85113333D01*
X216304761Y-85018095D01*
X216257142Y-84970476D01*
X216161904Y-84922857D01*
X216066666Y-84922857D01*
X215971428Y-84970476D01*
X215923809Y-85018095D01*
X215876190Y-85113333D01*
X215828571Y-85303809D01*
X215780952Y-85399047D01*
X215733333Y-85446666D01*
X215638095Y-85494285D01*
X215542857Y-85494285D01*
X215447619Y-85446666D01*
X215400000Y-85399047D01*
X215352380Y-85303809D01*
X215352380Y-85065714D01*
X215400000Y-84922857D01*
X216352380Y-84494285D02*
X215352380Y-84494285D01*
X216352380Y-83922857D01*
X215352380Y-83922857D01*
X215352380Y-83541904D02*
X215352380Y-82875238D01*
X216352380Y-83303809D01*
X215352380Y-82018095D02*
X215352380Y-82494285D01*
X215828571Y-82541904D01*
X215780952Y-82494285D01*
X215733333Y-82399047D01*
X215733333Y-82160952D01*
X215780952Y-82065714D01*
X215828571Y-82018095D01*
X215923809Y-81970476D01*
X216161904Y-81970476D01*
X216257142Y-82018095D01*
X216304761Y-82065714D01*
X216352380Y-82160952D01*
X216352380Y-82399047D01*
X216304761Y-82494285D01*
X216257142Y-82541904D01*
X216352380Y-81018095D02*
X216352380Y-81589523D01*
X216352380Y-81303809D02*
X215352380Y-81303809D01*
X215495238Y-81399047D01*
X215590476Y-81494285D01*
X215638095Y-81589523D01*
X215352380Y-80160952D02*
X215352380Y-80351428D01*
X215400000Y-80446666D01*
X215447619Y-80494285D01*
X215590476Y-80589523D01*
X215780952Y-80637142D01*
X216161904Y-80637142D01*
X216257142Y-80589523D01*
X216304761Y-80541904D01*
X216352380Y-80446666D01*
X216352380Y-80256190D01*
X216304761Y-80160952D01*
X216257142Y-80113333D01*
X216161904Y-80065714D01*
X215923809Y-80065714D01*
X215828571Y-80113333D01*
X215780952Y-80160952D01*
X215733333Y-80256190D01*
X215733333Y-80446666D01*
X215780952Y-80541904D01*
X215828571Y-80589523D01*
X215923809Y-80637142D01*
X215352380Y-79446666D02*
X215352380Y-79351428D01*
X215400000Y-79256190D01*
X215447619Y-79208571D01*
X215542857Y-79160952D01*
X215733333Y-79113333D01*
X215971428Y-79113333D01*
X216161904Y-79160952D01*
X216257142Y-79208571D01*
X216304761Y-79256190D01*
X216352380Y-79351428D01*
X216352380Y-79446666D01*
X216304761Y-79541904D01*
X216257142Y-79589523D01*
X216161904Y-79637142D01*
X215971428Y-79684761D01*
X215733333Y-79684761D01*
X215542857Y-79637142D01*
X215447619Y-79589523D01*
X215400000Y-79541904D01*
X215352380Y-79446666D01*
X215828571Y-78351428D02*
X215876190Y-78208571D01*
X215923809Y-78160952D01*
X216019047Y-78113333D01*
X216161904Y-78113333D01*
X216257142Y-78160952D01*
X216304761Y-78208571D01*
X216352380Y-78303809D01*
X216352380Y-78684761D01*
X215352380Y-78684761D01*
X215352380Y-78351428D01*
X215400000Y-78256190D01*
X215447619Y-78208571D01*
X215542857Y-78160952D01*
X215638095Y-78160952D01*
X215733333Y-78208571D01*
X215780952Y-78256190D01*
X215828571Y-78351428D01*
X215828571Y-78684761D01*
X216352380Y-77684761D02*
X215352380Y-77684761D01*
X216352380Y-77113333D01*
X215352380Y-77113333D01*
%TO.C,R1*%
X193619523Y-99512380D02*
X193048095Y-99512380D01*
X193333809Y-99512380D02*
X193333809Y-98512380D01*
X193238571Y-98655238D01*
X193143333Y-98750476D01*
X193048095Y-98798095D01*
X194238571Y-98512380D02*
X194333809Y-98512380D01*
X194429047Y-98560000D01*
X194476666Y-98607619D01*
X194524285Y-98702857D01*
X194571904Y-98893333D01*
X194571904Y-99131428D01*
X194524285Y-99321904D01*
X194476666Y-99417142D01*
X194429047Y-99464761D01*
X194333809Y-99512380D01*
X194238571Y-99512380D01*
X194143333Y-99464761D01*
X194095714Y-99417142D01*
X194048095Y-99321904D01*
X194000476Y-99131428D01*
X194000476Y-98893333D01*
X194048095Y-98702857D01*
X194095714Y-98607619D01*
X194143333Y-98560000D01*
X194238571Y-98512380D01*
X195000476Y-99512380D02*
X195000476Y-98512380D01*
X195571904Y-99512380D02*
X195143333Y-98940952D01*
X195571904Y-98512380D02*
X195000476Y-99083809D01*
D11*
%TO.C,C1*%
X223379420Y-71630000D02*
X223660580Y-71630000D01*
X223379420Y-70610000D02*
X223660580Y-70610000D01*
%TO.C,R4*%
X206487500Y-112792742D02*
X206487500Y-113267258D01*
X207532500Y-112792742D02*
X207532500Y-113267258D01*
%TO.C,G\u002A\u002A\u002A*%
G36*
X207525509Y-105348847D02*
G01*
X207549168Y-105352973D01*
X207559236Y-105355443D01*
X207599930Y-105369886D01*
X207638014Y-105390751D01*
X207668813Y-105415425D01*
X207671551Y-105418254D01*
X207681071Y-105429261D01*
X207682440Y-105436479D01*
X207676160Y-105445144D01*
X207674316Y-105447195D01*
X207661847Y-105459426D01*
X207645083Y-105474039D01*
X207639342Y-105478697D01*
X207616336Y-105496942D01*
X207587527Y-105476636D01*
X207568529Y-105464754D01*
X207550578Y-105458086D01*
X207528017Y-105454829D01*
X207516761Y-105454096D01*
X207476789Y-105455986D01*
X207444968Y-105466800D01*
X207420104Y-105487155D01*
X207403468Y-105512574D01*
X207395785Y-105529631D01*
X207391075Y-105546228D01*
X207388651Y-105566334D01*
X207387823Y-105593915D01*
X207387784Y-105602860D01*
X207388284Y-105633618D01*
X207390301Y-105655822D01*
X207394469Y-105673391D01*
X207401424Y-105690244D01*
X207402192Y-105691825D01*
X207422541Y-105720264D01*
X207450235Y-105740349D01*
X207482967Y-105751672D01*
X207518431Y-105753831D01*
X207554322Y-105746417D01*
X207588332Y-105729027D01*
X207593273Y-105725423D01*
X207615728Y-105708296D01*
X207639038Y-105726782D01*
X207656005Y-105741044D01*
X207670622Y-105754658D01*
X207674257Y-105758459D01*
X207682232Y-105768513D01*
X207681684Y-105775808D01*
X207674257Y-105784882D01*
X207649455Y-105806747D01*
X207617092Y-105827273D01*
X207582013Y-105843538D01*
X207570201Y-105847619D01*
X207541901Y-105855074D01*
X207516670Y-105857908D01*
X207488978Y-105856394D01*
X207464997Y-105852867D01*
X207427084Y-105841771D01*
X207388798Y-105822577D01*
X207355687Y-105798200D01*
X207349283Y-105792062D01*
X207322355Y-105756354D01*
X207302320Y-105712106D01*
X207289743Y-105661558D01*
X207285187Y-105606952D01*
X207288978Y-105552132D01*
X207302010Y-105495468D01*
X207323298Y-105448168D01*
X207352973Y-105410091D01*
X207391166Y-105381097D01*
X207438008Y-105361047D01*
X207476129Y-105352238D01*
X207503430Y-105348690D01*
X207525509Y-105348847D01*
G37*
G36*
X205728993Y-105350866D02*
G01*
X205764637Y-105356275D01*
X205797668Y-105363958D01*
X205820464Y-105371902D01*
X205844117Y-105383462D01*
X205865322Y-105395807D01*
X205881357Y-105407151D01*
X205889498Y-105415712D01*
X205889994Y-105417442D01*
X205886224Y-105424483D01*
X205876270Y-105438032D01*
X205862238Y-105455233D01*
X205861362Y-105456261D01*
X205832687Y-105489826D01*
X205797984Y-105470241D01*
X205767154Y-105457083D01*
X205732288Y-105448912D01*
X205697299Y-105446109D01*
X205666099Y-105449058D01*
X205647074Y-105455511D01*
X205627593Y-105470755D01*
X205617470Y-105489678D01*
X205616969Y-105509409D01*
X205626354Y-105527077D01*
X205639585Y-105537017D01*
X205654993Y-105542231D01*
X205677941Y-105546876D01*
X205703470Y-105549950D01*
X205703572Y-105549958D01*
X205755511Y-105555225D01*
X205796705Y-105562565D01*
X205828838Y-105572699D01*
X205853596Y-105586351D01*
X205872663Y-105604241D01*
X205887725Y-105627092D01*
X205888924Y-105629383D01*
X205900066Y-105661406D01*
X205904401Y-105697819D01*
X205901763Y-105733604D01*
X205893302Y-105761098D01*
X205871979Y-105792060D01*
X205840943Y-105817812D01*
X205802152Y-105837634D01*
X205757563Y-105850800D01*
X205709133Y-105856589D01*
X205658821Y-105854276D01*
X205646227Y-105852356D01*
X205621655Y-105846252D01*
X205593134Y-105836572D01*
X205572164Y-105827800D01*
X205549295Y-105815956D01*
X205526422Y-105802200D01*
X205506168Y-105788355D01*
X205491159Y-105776242D01*
X205484020Y-105767685D01*
X205483766Y-105766437D01*
X205488172Y-105760578D01*
X205499719Y-105748995D01*
X205516020Y-105734063D01*
X205518092Y-105732239D01*
X205552338Y-105702204D01*
X205580459Y-105721552D01*
X205618532Y-105743264D01*
X205657364Y-105755304D01*
X205701777Y-105759144D01*
X205703478Y-105759148D01*
X205744015Y-105756206D01*
X205773687Y-105747297D01*
X205792679Y-105732300D01*
X205801179Y-105711094D01*
X205801327Y-105695399D01*
X205797565Y-105680105D01*
X205788649Y-105668542D01*
X205772918Y-105659940D01*
X205748711Y-105653525D01*
X205714366Y-105648527D01*
X205696439Y-105646656D01*
X205645491Y-105639892D01*
X205605236Y-105630022D01*
X205574083Y-105616253D01*
X205550437Y-105597793D01*
X205532707Y-105573849D01*
X205526760Y-105562225D01*
X205519509Y-105539819D01*
X205515411Y-105514215D01*
X205515082Y-105506686D01*
X205520006Y-105462007D01*
X205535189Y-105424461D01*
X205560596Y-105394083D01*
X205596194Y-105370908D01*
X205641948Y-105354969D01*
X205668966Y-105349672D01*
X205695511Y-105348432D01*
X205728993Y-105350866D01*
G37*
G36*
X204339497Y-106427197D02*
G01*
X204357051Y-106395966D01*
X204368538Y-106383071D01*
X204385312Y-106369137D01*
X204403137Y-106358814D01*
X204424320Y-106351508D01*
X204451170Y-106346623D01*
X204485996Y-106343565D01*
X204528765Y-106341805D01*
X204620975Y-106339179D01*
X204620975Y-106305065D01*
X204619762Y-106283354D01*
X204616660Y-106265205D01*
X204614220Y-106258331D01*
X204600268Y-106244349D01*
X204576852Y-106234125D01*
X204546706Y-106228657D01*
X204531310Y-106228014D01*
X204496413Y-106229474D01*
X204470847Y-106234342D01*
X204451730Y-106243351D01*
X204442723Y-106250518D01*
X204426834Y-106265244D01*
X204389496Y-106236248D01*
X204371604Y-106221767D01*
X204358389Y-106209955D01*
X204352307Y-106203031D01*
X204352159Y-106202491D01*
X204356539Y-106196123D01*
X204367830Y-106184729D01*
X204378560Y-106175132D01*
X204404909Y-106156543D01*
X204434575Y-106144034D01*
X204469985Y-106137008D01*
X204513568Y-106134870D01*
X204539980Y-106135479D01*
X204572514Y-106137268D01*
X204596330Y-106139986D01*
X204615213Y-106144373D01*
X204632947Y-106151171D01*
X204642099Y-106155477D01*
X204676718Y-106177763D01*
X204701557Y-106206681D01*
X204715002Y-106234265D01*
X204717708Y-106245811D01*
X204719988Y-106265444D01*
X204721887Y-106294040D01*
X204723452Y-106332473D01*
X204724725Y-106381620D01*
X204725753Y-106442355D01*
X204725792Y-106445255D01*
X204728349Y-106634364D01*
X204620975Y-106634364D01*
X204620975Y-106595743D01*
X204602026Y-106611687D01*
X204582683Y-106624380D01*
X204561309Y-106633657D01*
X204559828Y-106634088D01*
X204530599Y-106638875D01*
X204495582Y-106639812D01*
X204460842Y-106637020D01*
X204435455Y-106631616D01*
X204395089Y-106613586D01*
X204362420Y-106587802D01*
X204339078Y-106555757D01*
X204330723Y-106535740D01*
X204325322Y-106501167D01*
X204326501Y-106487599D01*
X204421257Y-106487599D01*
X204428156Y-106508733D01*
X204443535Y-106526711D01*
X204466359Y-106538911D01*
X204474418Y-106541036D01*
X204493672Y-106543214D01*
X204519293Y-106543796D01*
X204546829Y-106542946D01*
X204571831Y-106540827D01*
X204589845Y-106537600D01*
X204592549Y-106536712D01*
X204605665Y-106525439D01*
X204615275Y-106504494D01*
X204620396Y-106476452D01*
X204620975Y-106462272D01*
X204620975Y-106427094D01*
X204537063Y-106429141D01*
X204502897Y-106430111D01*
X204478852Y-106431340D01*
X204462551Y-106433238D01*
X204451613Y-106436213D01*
X204443659Y-106440676D01*
X204437039Y-106446344D01*
X204423873Y-106465929D01*
X204421257Y-106487599D01*
X204326501Y-106487599D01*
X204328583Y-106463625D01*
X204339497Y-106427197D01*
G37*
G36*
X205118604Y-106144084D02*
G01*
X205132038Y-106149643D01*
X205149721Y-106158697D01*
X205161637Y-106166371D01*
X205164859Y-106170103D01*
X205161110Y-106176956D01*
X205151104Y-106190800D01*
X205136699Y-106209116D01*
X205130211Y-106217025D01*
X205095564Y-106258766D01*
X205075510Y-106246539D01*
X205046073Y-106235323D01*
X205015339Y-106235030D01*
X204986211Y-106244808D01*
X204961596Y-106263807D01*
X204947618Y-106284039D01*
X204943326Y-106293062D01*
X204940009Y-106302136D01*
X204937541Y-106312943D01*
X204935797Y-106327165D01*
X204934651Y-106346483D01*
X204933980Y-106372579D01*
X204933657Y-106407135D01*
X204933557Y-106451833D01*
X204933552Y-106473148D01*
X204933552Y-106634364D01*
X204833527Y-106634364D01*
X204833527Y-106140492D01*
X204933552Y-106140492D01*
X204933552Y-106191479D01*
X204958510Y-106170115D01*
X204993677Y-106147909D01*
X205033812Y-106135965D01*
X205076320Y-106134588D01*
X205118604Y-106144084D01*
G37*
G36*
X203958312Y-105352798D02*
G01*
X203958312Y-105401965D01*
X203989362Y-105381070D01*
X204029543Y-105360547D01*
X204071145Y-105350892D01*
X204112346Y-105351514D01*
X204151328Y-105361821D01*
X204186270Y-105381222D01*
X204215352Y-105409125D01*
X204236756Y-105444939D01*
X204243452Y-105463668D01*
X204247827Y-105486517D01*
X204250986Y-105518754D01*
X204252928Y-105557334D01*
X204253651Y-105599209D01*
X204253156Y-105641333D01*
X204251441Y-105680661D01*
X204248505Y-105714146D01*
X204244348Y-105738742D01*
X204243536Y-105741763D01*
X204226086Y-105780746D01*
X204199496Y-105812870D01*
X204165758Y-105836972D01*
X204126864Y-105851887D01*
X204084806Y-105856451D01*
X204053771Y-105852693D01*
X204031560Y-105845327D01*
X204006338Y-105833433D01*
X203991132Y-105824443D01*
X203958312Y-105802781D01*
X203958312Y-105993886D01*
X203958410Y-106049612D01*
X203958734Y-106093893D01*
X203959329Y-106127785D01*
X203960239Y-106152346D01*
X203961508Y-106168631D01*
X203963180Y-106177698D01*
X203965299Y-106180602D01*
X203966126Y-106180376D01*
X203976225Y-106173746D01*
X203990666Y-106163586D01*
X203992695Y-106162116D01*
X204028462Y-106143430D01*
X204068609Y-106134657D01*
X204110208Y-106135566D01*
X204150329Y-106145927D01*
X204186044Y-106165508D01*
X204201206Y-106178557D01*
X204213897Y-106191460D01*
X204224116Y-106203126D01*
X204232145Y-106215054D01*
X204238265Y-106228744D01*
X204242760Y-106245694D01*
X204245912Y-106267404D01*
X204248002Y-106295373D01*
X204249314Y-106331100D01*
X204250129Y-106376085D01*
X204250729Y-106431827D01*
X204250827Y-106442129D01*
X204252646Y-106634364D01*
X204152109Y-106634364D01*
X204152100Y-106470261D01*
X204151966Y-106415995D01*
X204151397Y-106372721D01*
X204150127Y-106338927D01*
X204147893Y-106313103D01*
X204144429Y-106293738D01*
X204139472Y-106279322D01*
X204132756Y-106268344D01*
X204124018Y-106259294D01*
X204113751Y-106251214D01*
X204086380Y-106238325D01*
X204055479Y-106235062D01*
X204024488Y-106240771D01*
X203996851Y-106254799D01*
X203976008Y-106276494D01*
X203975397Y-106277461D01*
X203971203Y-106284706D01*
X203967920Y-106292412D01*
X203965413Y-106302172D01*
X203963549Y-106315577D01*
X203962195Y-106334222D01*
X203961217Y-106359697D01*
X203960481Y-106393597D01*
X203959855Y-106437512D01*
X203959502Y-106467135D01*
X203957566Y-106634364D01*
X203858287Y-106634364D01*
X203858287Y-105615623D01*
X203957912Y-105615623D01*
X203961243Y-105655414D01*
X203969033Y-105691046D01*
X203981301Y-105719379D01*
X203987296Y-105727764D01*
X204007881Y-105743372D01*
X204035349Y-105752293D01*
X204065777Y-105754127D01*
X204095244Y-105748480D01*
X204112309Y-105740429D01*
X204125924Y-105730073D01*
X204135790Y-105717347D01*
X204142468Y-105700193D01*
X204146518Y-105676556D01*
X204148502Y-105644380D01*
X204148984Y-105605986D01*
X204148699Y-105568724D01*
X204147677Y-105541514D01*
X204145669Y-105521916D01*
X204142425Y-105507489D01*
X204137714Y-105495828D01*
X204121298Y-105472914D01*
X204098605Y-105459064D01*
X204068142Y-105453596D01*
X204045847Y-105454032D01*
X204023125Y-105456336D01*
X204008522Y-105460372D01*
X203997655Y-105467959D01*
X203988800Y-105477694D01*
X203974484Y-105502709D01*
X203964551Y-105536130D01*
X203959021Y-105574815D01*
X203957912Y-105615623D01*
X203858287Y-105615623D01*
X203858287Y-105352798D01*
X203958312Y-105352798D01*
G37*
G36*
X207128657Y-106145579D02*
G01*
X207164685Y-106164426D01*
X207167377Y-106169283D01*
X207164490Y-106177879D01*
X207155049Y-106191992D01*
X207138080Y-106213397D01*
X207137301Y-106214346D01*
X207101206Y-106258221D01*
X207076728Y-106245462D01*
X207045401Y-106235525D01*
X207013879Y-106236753D01*
X206984887Y-106248292D01*
X206961153Y-106269290D01*
X206951245Y-106284722D01*
X206947882Y-106292595D01*
X206945277Y-106302474D01*
X206943335Y-106315944D01*
X206941964Y-106334591D01*
X206941070Y-106360000D01*
X206940559Y-106393757D01*
X206940338Y-106437446D01*
X206940305Y-106470261D01*
X206940295Y-106634364D01*
X206840271Y-106634364D01*
X206840271Y-106140492D01*
X206940295Y-106140492D01*
X206940295Y-106184889D01*
X206962163Y-106168210D01*
X207000140Y-106146756D01*
X207042323Y-106135800D01*
X207086050Y-106135391D01*
X207128657Y-106145579D01*
G37*
G36*
X205174236Y-106390554D02*
G01*
X205174534Y-106339432D01*
X205175735Y-106298955D01*
X205178295Y-106267270D01*
X205182671Y-106242528D01*
X205189322Y-106222877D01*
X205198704Y-106206465D01*
X205211274Y-106191443D01*
X205227188Y-106176230D01*
X205258730Y-106152925D01*
X205292105Y-106139481D01*
X205331283Y-106134433D01*
X205340627Y-106134302D01*
X205368083Y-106137443D01*
X205397133Y-106145674D01*
X205423405Y-106157342D01*
X205442526Y-106170796D01*
X205445380Y-106173881D01*
X205454540Y-106182273D01*
X205459314Y-106184253D01*
X205461033Y-106178315D01*
X205462695Y-106161758D01*
X205464193Y-106136464D01*
X205465420Y-106104317D01*
X205466268Y-106067201D01*
X205466363Y-106060785D01*
X205468058Y-105937317D01*
X205516508Y-105935491D01*
X205564957Y-105933665D01*
X205564957Y-106634364D01*
X205464932Y-106634364D01*
X205464932Y-106612483D01*
X205463274Y-106596086D01*
X205457775Y-106591470D01*
X205447648Y-106598290D01*
X205443171Y-106602975D01*
X205426795Y-106615019D01*
X205402305Y-106626148D01*
X205374078Y-106634859D01*
X205346487Y-106639651D01*
X205334978Y-106640122D01*
X205310154Y-106637683D01*
X205285202Y-106632243D01*
X205279795Y-106630505D01*
X205246657Y-106613135D01*
X205216302Y-106587005D01*
X205192805Y-106555791D01*
X205188851Y-106548388D01*
X205183907Y-106537724D01*
X205180223Y-106527291D01*
X205177615Y-106515095D01*
X205175897Y-106499143D01*
X205174886Y-106477442D01*
X205174396Y-106447999D01*
X205174278Y-106417486D01*
X205272056Y-106417486D01*
X205276603Y-106459552D01*
X205286300Y-106491685D01*
X205301431Y-106514740D01*
X205322281Y-106529566D01*
X205328451Y-106532097D01*
X205361227Y-106539449D01*
X205392004Y-106535832D01*
X205412365Y-106527811D01*
X205430363Y-106517296D01*
X205443519Y-106504413D01*
X205452537Y-106487164D01*
X205458121Y-106463550D01*
X205460976Y-106431573D01*
X205461804Y-106389233D01*
X205461805Y-106387428D01*
X205461546Y-106352439D01*
X205460547Y-106327222D01*
X205458476Y-106309052D01*
X205455003Y-106295206D01*
X205449794Y-106282958D01*
X205448875Y-106281152D01*
X205430249Y-106257231D01*
X205405259Y-106241665D01*
X205376662Y-106234486D01*
X205347212Y-106235724D01*
X205319665Y-106245411D01*
X205296776Y-106263578D01*
X205286028Y-106279312D01*
X205279445Y-106298902D01*
X205274862Y-106329000D01*
X205272372Y-106364638D01*
X205272056Y-106417486D01*
X205174278Y-106417486D01*
X205174244Y-106408820D01*
X205174236Y-106390554D01*
G37*
G36*
X204347894Y-105469101D02*
G01*
X204369798Y-105428073D01*
X204390152Y-105403288D01*
X204426052Y-105375782D01*
X204467372Y-105358143D01*
X204511907Y-105350332D01*
X204557448Y-105352312D01*
X204601787Y-105364044D01*
X204642717Y-105385489D01*
X204670090Y-105408165D01*
X204696648Y-105440759D01*
X204715600Y-105478594D01*
X204727514Y-105523407D01*
X204732960Y-105576930D01*
X204733455Y-105601297D01*
X204733502Y-105640369D01*
X204420359Y-105640369D01*
X204424532Y-105663812D01*
X204435862Y-105699670D01*
X204455116Y-105728031D01*
X204480314Y-105746645D01*
X204516809Y-105757639D01*
X204556307Y-105757834D01*
X204596179Y-105747592D01*
X204633796Y-105727275D01*
X204636864Y-105725052D01*
X204644121Y-105720788D01*
X204651438Y-105720842D01*
X204661584Y-105726362D01*
X204677330Y-105738494D01*
X204685488Y-105745185D01*
X204721349Y-105774777D01*
X204692857Y-105800966D01*
X204670872Y-105818007D01*
X204645673Y-105833062D01*
X204631701Y-105839376D01*
X204596580Y-105849114D01*
X204556941Y-105854766D01*
X204518307Y-105855811D01*
X204490516Y-105852715D01*
X204447452Y-105838874D01*
X204408373Y-105816949D01*
X204385209Y-105797443D01*
X204359244Y-105762730D01*
X204340207Y-105720000D01*
X204328068Y-105671625D01*
X204322797Y-105619975D01*
X204324364Y-105567424D01*
X204325729Y-105559099D01*
X204421238Y-105559099D01*
X204627226Y-105559099D01*
X204627226Y-105541328D01*
X204622339Y-105517179D01*
X204609667Y-105491635D01*
X204592195Y-105469653D01*
X204577156Y-105458170D01*
X204548414Y-105448494D01*
X204516499Y-105446741D01*
X204486371Y-105452794D01*
X204470299Y-105460720D01*
X204448016Y-105482597D01*
X204431796Y-105513361D01*
X204424906Y-105538781D01*
X204421238Y-105559099D01*
X204325729Y-105559099D01*
X204332740Y-105516342D01*
X204347894Y-105469101D01*
G37*
G36*
X203371924Y-105505908D02*
G01*
X203382378Y-105470103D01*
X203398249Y-105439849D01*
X203420248Y-105412975D01*
X203429719Y-105403789D01*
X203469089Y-105375134D01*
X203512116Y-105357034D01*
X203557003Y-105349129D01*
X203601955Y-105351056D01*
X203645176Y-105362456D01*
X203684871Y-105382967D01*
X203719243Y-105412228D01*
X203746497Y-105449878D01*
X203755926Y-105469377D01*
X203763106Y-105494811D01*
X203768084Y-105529300D01*
X203770863Y-105569595D01*
X203771445Y-105612443D01*
X203769834Y-105654595D01*
X203766031Y-105692798D01*
X203760041Y-105723802D01*
X203755695Y-105736896D01*
X203733178Y-105776289D01*
X203702097Y-105809732D01*
X203665070Y-105834783D01*
X203639483Y-105845277D01*
X203602255Y-105853121D01*
X203561686Y-105855788D01*
X203526458Y-105853036D01*
X203481470Y-105838863D01*
X203440457Y-105813032D01*
X203424899Y-105799091D01*
X203401617Y-105771840D01*
X203384568Y-105741065D01*
X203373113Y-105704692D01*
X203366611Y-105660644D01*
X203364424Y-105606846D01*
X203364416Y-105602860D01*
X203467566Y-105602860D01*
X203468347Y-105643214D01*
X203471187Y-105673524D01*
X203476830Y-105696180D01*
X203486023Y-105713574D01*
X203499509Y-105728094D01*
X203508969Y-105735678D01*
X203536617Y-105749083D01*
X203569090Y-105753697D01*
X203602301Y-105749496D01*
X203632158Y-105736454D01*
X203632193Y-105736431D01*
X203647929Y-105721791D01*
X203659182Y-105700494D01*
X203666390Y-105671015D01*
X203669991Y-105631827D01*
X203670604Y-105602622D01*
X203670359Y-105569832D01*
X203669189Y-105546421D01*
X203666657Y-105529273D01*
X203662328Y-105515271D01*
X203656675Y-105503059D01*
X203637162Y-105477171D01*
X203611431Y-105460271D01*
X203581961Y-105452361D01*
X203551228Y-105453446D01*
X203521709Y-105463528D01*
X203495882Y-105482609D01*
X203480407Y-105502856D01*
X203474893Y-105513818D01*
X203471198Y-105526236D01*
X203468976Y-105542807D01*
X203467882Y-105566228D01*
X203467568Y-105599198D01*
X203467566Y-105602860D01*
X203364416Y-105602860D01*
X203366174Y-105549437D01*
X203371924Y-105505908D01*
G37*
G36*
X206336160Y-106445731D02*
G01*
X206353204Y-106408661D01*
X206380470Y-106378461D01*
X206415166Y-106356873D01*
X206428641Y-106351518D01*
X206443849Y-106347665D01*
X206463330Y-106344992D01*
X206489625Y-106343178D01*
X206525272Y-106341901D01*
X206535508Y-106341639D01*
X206627718Y-106339395D01*
X206627718Y-106303151D01*
X206625906Y-106276354D01*
X206620080Y-106258986D01*
X206616778Y-106254416D01*
X206597483Y-106240661D01*
X206570317Y-106231843D01*
X206538722Y-106227950D01*
X206506142Y-106228970D01*
X206476017Y-106234890D01*
X206451791Y-106245698D01*
X206441083Y-106255041D01*
X206435803Y-106259568D01*
X206429094Y-106259431D01*
X206418425Y-106253615D01*
X206401263Y-106241106D01*
X206395759Y-106236889D01*
X206377957Y-106222545D01*
X206364878Y-106210775D01*
X206359007Y-106203840D01*
X206358902Y-106203369D01*
X206364034Y-106193735D01*
X206377395Y-106180921D01*
X206395931Y-106167137D01*
X206416592Y-106154593D01*
X206436323Y-106145500D01*
X206440934Y-106143971D01*
X206474419Y-106137434D01*
X206514894Y-106134642D01*
X206557431Y-106135574D01*
X206597099Y-106140206D01*
X206617603Y-106144788D01*
X206650910Y-106158802D01*
X206680988Y-106180037D01*
X206704895Y-106205853D01*
X206719686Y-106233610D01*
X206720832Y-106237391D01*
X206722948Y-106251792D01*
X206724719Y-106277654D01*
X206726110Y-106313939D01*
X206727087Y-106359609D01*
X206727618Y-106413627D01*
X206727708Y-106448380D01*
X206727743Y-106634364D01*
X206627718Y-106634364D01*
X206627718Y-106595743D01*
X206608770Y-106611687D01*
X206589426Y-106624380D01*
X206568052Y-106633657D01*
X206566572Y-106634088D01*
X206535789Y-106639122D01*
X206499335Y-106639914D01*
X206463050Y-106636670D01*
X206432775Y-106629592D01*
X206432277Y-106629415D01*
X206392546Y-106609309D01*
X206361830Y-106581522D01*
X206340896Y-106547519D01*
X206330511Y-106508767D01*
X206331018Y-106485890D01*
X206427868Y-106485890D01*
X206432943Y-106510406D01*
X206447430Y-106528436D01*
X206466582Y-106537062D01*
X206484019Y-106540948D01*
X206493310Y-106543129D01*
X206511551Y-106544973D01*
X206535875Y-106544227D01*
X206561737Y-106541400D01*
X206584592Y-106537004D01*
X206599897Y-106531552D01*
X206600727Y-106531041D01*
X206616007Y-106515765D01*
X206624746Y-106493220D01*
X206627708Y-106461370D01*
X206627718Y-106458914D01*
X206627718Y-106428063D01*
X206549163Y-106428063D01*
X206506674Y-106428933D01*
X206475100Y-106432020D01*
X206452942Y-106438037D01*
X206438704Y-106447699D01*
X206430887Y-106461719D01*
X206427994Y-106480813D01*
X206427868Y-106485890D01*
X206331018Y-106485890D01*
X206331442Y-106466733D01*
X206336160Y-106445731D01*
G37*
G36*
X205074442Y-105352882D02*
G01*
X205110102Y-105363112D01*
X205117972Y-105366819D01*
X205152855Y-105389184D01*
X205178806Y-105417025D01*
X205197344Y-105449697D01*
X205201470Y-105459130D01*
X205204745Y-105468541D01*
X205207289Y-105479486D01*
X205209218Y-105493524D01*
X205210651Y-105512211D01*
X205211704Y-105537104D01*
X205212497Y-105569759D01*
X205213146Y-105611735D01*
X205213770Y-105664587D01*
X205213799Y-105667199D01*
X205215853Y-105853443D01*
X205163787Y-105851619D01*
X205111720Y-105849796D01*
X205108595Y-105681004D01*
X205107575Y-105629895D01*
X205106549Y-105589741D01*
X205105394Y-105558997D01*
X205103989Y-105536116D01*
X205102209Y-105519551D01*
X205099933Y-105507755D01*
X205097038Y-105499182D01*
X205093681Y-105492742D01*
X205073871Y-105469841D01*
X205047501Y-105456765D01*
X205015109Y-105452823D01*
X204981441Y-105456614D01*
X204955657Y-105468786D01*
X204935404Y-105490537D01*
X204932592Y-105494869D01*
X204928193Y-105502343D01*
X204924752Y-105509994D01*
X204922127Y-105519420D01*
X204920179Y-105532222D01*
X204918768Y-105550000D01*
X204917755Y-105574355D01*
X204916999Y-105606886D01*
X204916361Y-105649193D01*
X204915906Y-105685693D01*
X204913890Y-105852921D01*
X204814772Y-105852921D01*
X204814772Y-105352798D01*
X204914797Y-105352798D01*
X204914797Y-105377804D01*
X204916096Y-105395629D01*
X204920851Y-105401696D01*
X204930349Y-105396500D01*
X204939655Y-105387339D01*
X204965534Y-105368183D01*
X204998838Y-105355800D01*
X205036247Y-105350572D01*
X205074442Y-105352882D01*
G37*
G36*
X206062897Y-106309002D02*
G01*
X206077066Y-106352228D01*
X206090158Y-106391047D01*
X206101658Y-106424018D01*
X206111048Y-106449696D01*
X206117813Y-106466638D01*
X206121434Y-106473400D01*
X206121744Y-106473395D01*
X206124441Y-106466314D01*
X206129879Y-106448806D01*
X206137581Y-106422524D01*
X206147070Y-106389124D01*
X206157867Y-106350260D01*
X206168192Y-106312409D01*
X206179730Y-106269880D01*
X206190300Y-106231149D01*
X206199434Y-106197913D01*
X206206664Y-106171867D01*
X206211522Y-106154707D01*
X206213463Y-106148306D01*
X206220500Y-106143953D01*
X206238142Y-106141390D01*
X206267263Y-106140495D01*
X206269593Y-106140492D01*
X206296597Y-106140977D01*
X206312722Y-106142595D01*
X206319557Y-106145595D01*
X206319810Y-106148306D01*
X206317068Y-106156505D01*
X206311194Y-106174612D01*
X206302836Y-106200618D01*
X206292638Y-106232513D01*
X206281248Y-106268288D01*
X206281133Y-106268649D01*
X206267173Y-106312526D01*
X206250840Y-106363767D01*
X206233585Y-106417832D01*
X206216855Y-106470180D01*
X206204824Y-106507770D01*
X206164272Y-106634364D01*
X206074124Y-106634364D01*
X206024625Y-106468315D01*
X206011580Y-106424932D01*
X205999537Y-106385601D01*
X205988992Y-106351880D01*
X205980436Y-106325325D01*
X205974366Y-106307492D01*
X205971274Y-106299938D01*
X205971145Y-106299806D01*
X205968412Y-106304899D01*
X205962679Y-106320504D01*
X205954431Y-106345128D01*
X205944155Y-106377276D01*
X205932337Y-106415454D01*
X205919463Y-106458166D01*
X205917643Y-106464291D01*
X205868123Y-106631238D01*
X205822726Y-106633076D01*
X205796579Y-106633366D01*
X205781095Y-106631492D01*
X205774583Y-106627237D01*
X205774413Y-106626825D01*
X205771099Y-106616944D01*
X205764681Y-106597200D01*
X205755648Y-106569135D01*
X205744488Y-106534289D01*
X205731692Y-106494204D01*
X205717747Y-106450421D01*
X205703143Y-106404480D01*
X205688369Y-106357923D01*
X205673913Y-106312290D01*
X205660265Y-106269123D01*
X205647914Y-106229962D01*
X205637348Y-106196349D01*
X205629056Y-106169824D01*
X205623528Y-106151929D01*
X205621252Y-106144205D01*
X205621221Y-106144029D01*
X205626992Y-106142426D01*
X205642387Y-106141203D01*
X205664526Y-106140550D01*
X205674065Y-106140492D01*
X205726909Y-106140492D01*
X205732448Y-106160810D01*
X205735600Y-106172430D01*
X205741486Y-106194182D01*
X205749582Y-106224124D01*
X205759362Y-106260316D01*
X205770303Y-106300819D01*
X205778065Y-106329565D01*
X205789233Y-106370475D01*
X205799456Y-106407062D01*
X205808258Y-106437694D01*
X205815165Y-106460741D01*
X205819701Y-106474573D01*
X205821270Y-106477917D01*
X205823908Y-106472185D01*
X205829805Y-106456040D01*
X205838449Y-106430989D01*
X205849330Y-106398542D01*
X205861936Y-106360207D01*
X205875757Y-106317491D01*
X205877927Y-106310724D01*
X205931459Y-106143618D01*
X205969839Y-106141764D01*
X206008219Y-106139911D01*
X206062897Y-106309002D01*
G37*
G36*
X206560230Y-105524023D02*
G01*
X206560826Y-105575054D01*
X206561463Y-105615104D01*
X206562263Y-105645694D01*
X206563342Y-105668346D01*
X206564819Y-105684580D01*
X206566814Y-105695918D01*
X206569445Y-105703882D01*
X206572831Y-105709993D01*
X206574967Y-105712994D01*
X206596121Y-105736186D01*
X206618753Y-105749097D01*
X206646631Y-105753738D01*
X206651515Y-105753845D01*
X206686195Y-105749554D01*
X206713314Y-105735627D01*
X206734032Y-105711387D01*
X206738683Y-105702980D01*
X206742974Y-105694003D01*
X206746291Y-105684969D01*
X206748759Y-105674197D01*
X206750504Y-105660008D01*
X206751649Y-105640721D01*
X206752321Y-105614655D01*
X206752644Y-105580131D01*
X206752744Y-105535468D01*
X206752749Y-105514014D01*
X206752749Y-105352798D01*
X206852774Y-105352798D01*
X206852774Y-105852921D01*
X206752749Y-105852921D01*
X206752749Y-105803754D01*
X206721699Y-105824650D01*
X206680748Y-105845917D01*
X206638322Y-105856291D01*
X206596687Y-105855289D01*
X206587083Y-105853307D01*
X206543802Y-105836638D01*
X206507647Y-105809845D01*
X206479395Y-105773573D01*
X206470235Y-105756022D01*
X206466111Y-105746638D01*
X206462862Y-105737436D01*
X206460383Y-105726855D01*
X206458569Y-105713328D01*
X206457318Y-105695292D01*
X206456523Y-105671183D01*
X206456080Y-105639436D01*
X206455886Y-105598487D01*
X206455835Y-105546771D01*
X206455833Y-105540344D01*
X206455801Y-105355924D01*
X206507092Y-105354113D01*
X206558384Y-105352302D01*
X206560230Y-105524023D01*
G37*
G36*
X207211295Y-105351486D02*
G01*
X207248683Y-105359594D01*
X207276158Y-105372421D01*
X207296720Y-105385129D01*
X207284520Y-105401784D01*
X207273374Y-105416055D01*
X207258083Y-105434505D01*
X207248309Y-105445863D01*
X207224297Y-105473286D01*
X207204512Y-105463054D01*
X207179575Y-105455096D01*
X207150885Y-105453181D01*
X207123775Y-105457232D01*
X207107180Y-105464468D01*
X207096270Y-105471898D01*
X207087622Y-105479178D01*
X207080943Y-105487801D01*
X207075940Y-105499263D01*
X207072320Y-105515055D01*
X207069791Y-105536674D01*
X207068058Y-105565612D01*
X207066830Y-105603364D01*
X207065813Y-105651424D01*
X207065326Y-105677878D01*
X207062200Y-105849796D01*
X207010625Y-105851611D01*
X206959050Y-105853427D01*
X206959050Y-105352293D01*
X207010625Y-105354108D01*
X207062200Y-105355924D01*
X207065326Y-105380400D01*
X207067804Y-105395413D01*
X207070912Y-105399819D01*
X207076185Y-105395481D01*
X207076969Y-105394542D01*
X207102175Y-105373131D01*
X207134995Y-105358593D01*
X207172384Y-105351265D01*
X207211295Y-105351486D01*
G37*
G36*
X205965506Y-105544460D02*
G01*
X205970502Y-105505000D01*
X205978405Y-105473404D01*
X205980555Y-105467796D01*
X206003754Y-105427152D01*
X206034843Y-105394667D01*
X206072002Y-105370621D01*
X206113414Y-105355294D01*
X206157257Y-105348968D01*
X206201715Y-105351922D01*
X206244966Y-105364438D01*
X206285192Y-105386796D01*
X206317529Y-105415813D01*
X206335421Y-105437655D01*
X206348676Y-105459350D01*
X206357932Y-105483289D01*
X206363824Y-105511867D01*
X206366988Y-105547476D01*
X206368061Y-105592509D01*
X206368076Y-105605986D01*
X206367784Y-105643881D01*
X206366898Y-105671993D01*
X206365118Y-105693039D01*
X206362143Y-105709735D01*
X206357674Y-105724799D01*
X206353811Y-105735035D01*
X206335370Y-105768013D01*
X206308392Y-105799539D01*
X206276615Y-105825797D01*
X206250858Y-105840182D01*
X206216214Y-105850546D01*
X206175970Y-105855441D01*
X206136045Y-105854265D01*
X206126256Y-105852858D01*
X206080169Y-105838832D01*
X206039489Y-105814331D01*
X206006048Y-105780762D01*
X205983063Y-105742669D01*
X205973981Y-105714055D01*
X205967654Y-105676582D01*
X205964112Y-105633596D01*
X205963614Y-105602622D01*
X206065217Y-105602622D01*
X206066648Y-105648243D01*
X206071290Y-105683237D01*
X206079962Y-105709248D01*
X206093484Y-105727919D01*
X206112675Y-105740895D01*
X206138355Y-105749820D01*
X206138593Y-105749881D01*
X206175133Y-105753735D01*
X206208176Y-105746316D01*
X206227136Y-105735466D01*
X206243187Y-105721558D01*
X206254564Y-105706017D01*
X206262008Y-105686462D01*
X206266256Y-105660510D01*
X206268048Y-105625778D01*
X206268255Y-105602860D01*
X206267996Y-105568861D01*
X206266989Y-105544662D01*
X206264888Y-105527566D01*
X206261345Y-105514874D01*
X206256015Y-105503891D01*
X206255414Y-105502856D01*
X206232888Y-105475289D01*
X206204170Y-105458568D01*
X206169487Y-105452825D01*
X206168771Y-105452823D01*
X206132643Y-105457473D01*
X206104344Y-105471670D01*
X206083209Y-105495788D01*
X206079146Y-105503059D01*
X206072871Y-105516870D01*
X206068778Y-105531081D01*
X206066430Y-105548809D01*
X206065393Y-105573170D01*
X206065217Y-105602622D01*
X205963614Y-105602622D01*
X205963386Y-105588440D01*
X205965506Y-105544460D01*
G37*
G36*
X205805147Y-101639406D02*
G01*
X205855844Y-101639508D01*
X205896396Y-101639748D01*
X205927982Y-101640181D01*
X205951781Y-101640864D01*
X205968972Y-101641854D01*
X205980734Y-101643207D01*
X205988246Y-101644980D01*
X205992686Y-101647228D01*
X205995235Y-101650010D01*
X205996108Y-101651505D01*
X205998678Y-101660210D01*
X206003204Y-101679795D01*
X206009398Y-101708839D01*
X206016971Y-101745921D01*
X206025633Y-101789621D01*
X206035095Y-101838520D01*
X206045068Y-101891196D01*
X206046715Y-101900004D01*
X206056763Y-101952967D01*
X206066416Y-102002209D01*
X206075379Y-102046339D01*
X206083355Y-102083968D01*
X206090050Y-102113705D01*
X206095165Y-102134161D01*
X206098407Y-102143946D01*
X206098759Y-102144457D01*
X206107050Y-102149406D01*
X206125149Y-102158103D01*
X206151202Y-102169788D01*
X206183352Y-102183700D01*
X206219746Y-102199079D01*
X206258530Y-102215166D01*
X206297848Y-102231200D01*
X206335846Y-102246422D01*
X206370669Y-102260071D01*
X206400463Y-102271387D01*
X206423374Y-102279611D01*
X206437546Y-102283981D01*
X206440449Y-102284485D01*
X206449327Y-102281783D01*
X206466018Y-102273093D01*
X206490931Y-102258158D01*
X206524477Y-102236719D01*
X206567064Y-102208517D01*
X206619103Y-102173294D01*
X206649329Y-102152601D01*
X206701697Y-102116641D01*
X206744738Y-102087134D01*
X206779437Y-102063465D01*
X206806782Y-102045019D01*
X206827759Y-102031181D01*
X206843353Y-102021336D01*
X206854552Y-102014870D01*
X206862342Y-102011169D01*
X206867709Y-102009616D01*
X206871639Y-102009597D01*
X206875120Y-102010499D01*
X206876570Y-102010967D01*
X206884560Y-102016500D01*
X206899784Y-102029775D01*
X206921068Y-102049596D01*
X206947237Y-102074767D01*
X206977115Y-102104092D01*
X207009527Y-102136373D01*
X207043298Y-102170415D01*
X207077254Y-102205023D01*
X207110218Y-102238999D01*
X207141015Y-102271147D01*
X207168472Y-102300271D01*
X207191411Y-102325176D01*
X207208659Y-102344664D01*
X207219040Y-102357539D01*
X207221615Y-102362199D01*
X207218175Y-102370076D01*
X207208375Y-102387008D01*
X207192993Y-102411784D01*
X207172809Y-102443195D01*
X207148600Y-102480031D01*
X207121147Y-102521082D01*
X207091227Y-102565138D01*
X207087207Y-102571009D01*
X207046854Y-102630317D01*
X207013586Y-102680165D01*
X206987476Y-102720440D01*
X206968595Y-102751026D01*
X206957018Y-102771809D01*
X206952815Y-102782674D01*
X206952798Y-102783039D01*
X206955265Y-102794109D01*
X206962147Y-102814451D01*
X206972667Y-102842271D01*
X206986049Y-102875776D01*
X207001517Y-102913174D01*
X207018294Y-102952672D01*
X207035604Y-102992476D01*
X207052669Y-103030794D01*
X207068714Y-103065833D01*
X207082962Y-103095799D01*
X207094636Y-103118900D01*
X207102960Y-103133343D01*
X207106200Y-103137235D01*
X207115142Y-103140301D01*
X207134912Y-103145253D01*
X207164031Y-103151780D01*
X207201017Y-103159570D01*
X207244392Y-103168311D01*
X207292676Y-103177689D01*
X207340633Y-103186699D01*
X207392208Y-103196325D01*
X207440311Y-103205474D01*
X207483453Y-103213851D01*
X207520144Y-103221158D01*
X207548892Y-103227099D01*
X207568209Y-103231378D01*
X207576389Y-103233600D01*
X207590455Y-103239510D01*
X207590455Y-103489037D01*
X207590424Y-103551644D01*
X207590298Y-103602903D01*
X207590026Y-103643969D01*
X207589559Y-103675997D01*
X207588848Y-103700144D01*
X207587842Y-103717563D01*
X207586492Y-103729409D01*
X207584748Y-103736839D01*
X207582561Y-103741007D01*
X207579881Y-103743069D01*
X207579515Y-103743233D01*
X207571027Y-103745428D01*
X207551696Y-103749615D01*
X207522973Y-103755504D01*
X207486310Y-103762806D01*
X207443156Y-103771233D01*
X207394964Y-103780496D01*
X207343886Y-103790173D01*
X207281302Y-103802073D01*
X207230124Y-103812106D01*
X207189429Y-103820480D01*
X207158294Y-103827406D01*
X207135796Y-103833095D01*
X207121011Y-103837757D01*
X207113017Y-103841601D01*
X207111399Y-103843108D01*
X207107171Y-103851448D01*
X207098987Y-103869875D01*
X207087493Y-103896850D01*
X207073333Y-103930836D01*
X207057154Y-103970294D01*
X207039600Y-104013684D01*
X207033757Y-104028250D01*
X207010766Y-104086390D01*
X206992743Y-104133565D01*
X206979535Y-104170215D01*
X206970988Y-104196780D01*
X206966947Y-104213701D01*
X206966675Y-104219813D01*
X206970784Y-104228820D01*
X206981228Y-104246777D01*
X206997175Y-104272391D01*
X207017791Y-104304366D01*
X207042245Y-104341409D01*
X207069704Y-104382226D01*
X207095526Y-104420001D01*
X207124757Y-104462746D01*
X207151592Y-104502557D01*
X207175223Y-104538192D01*
X207194844Y-104568411D01*
X207209648Y-104591972D01*
X207218828Y-104607635D01*
X207221615Y-104613948D01*
X207217317Y-104620628D01*
X207205062Y-104635065D01*
X207185804Y-104656246D01*
X207160498Y-104683158D01*
X207130098Y-104714790D01*
X207095561Y-104750130D01*
X207057840Y-104788165D01*
X207047656Y-104798343D01*
X207002398Y-104843362D01*
X206965083Y-104880140D01*
X206934928Y-104909390D01*
X206911149Y-104931827D01*
X206892962Y-104948161D01*
X206879583Y-104959106D01*
X206870229Y-104965376D01*
X206864115Y-104967681D01*
X206861673Y-104967458D01*
X206853838Y-104962975D01*
X206836983Y-104952229D01*
X206812375Y-104936066D01*
X206781281Y-104915330D01*
X206744970Y-104890865D01*
X206704708Y-104863514D01*
X206668985Y-104839082D01*
X206626442Y-104810128D01*
X206586776Y-104783574D01*
X206551250Y-104760232D01*
X206521128Y-104740915D01*
X206497673Y-104726434D01*
X206482149Y-104717601D01*
X206476152Y-104715141D01*
X206466529Y-104717990D01*
X206448245Y-104725827D01*
X206423579Y-104737591D01*
X206394814Y-104752219D01*
X206381747Y-104759128D01*
X206352011Y-104774520D01*
X206325454Y-104787313D01*
X206304329Y-104796494D01*
X206290887Y-104801047D01*
X206287996Y-104801325D01*
X206284606Y-104798452D01*
X206279281Y-104790185D01*
X206271738Y-104775879D01*
X206261691Y-104754888D01*
X206248857Y-104726569D01*
X206232951Y-104690276D01*
X206213691Y-104645365D01*
X206190790Y-104591190D01*
X206163967Y-104527107D01*
X206132935Y-104452472D01*
X206111390Y-104400449D01*
X206083701Y-104333343D01*
X206057469Y-104269434D01*
X206033081Y-104209689D01*
X206010927Y-104155076D01*
X205991393Y-104106561D01*
X205974869Y-104065111D01*
X205961743Y-104031694D01*
X205952403Y-104007276D01*
X205947237Y-103992824D01*
X205946301Y-103989273D01*
X205951759Y-103977847D01*
X205966657Y-103964321D01*
X205972870Y-103960067D01*
X205990656Y-103948132D01*
X206014060Y-103931793D01*
X206038684Y-103914131D01*
X206044392Y-103909960D01*
X206105133Y-103857961D01*
X206156184Y-103798842D01*
X206197213Y-103733777D01*
X206227886Y-103663939D01*
X206247874Y-103590501D01*
X206256842Y-103514636D01*
X206254458Y-103437516D01*
X206240391Y-103360314D01*
X206218669Y-103294684D01*
X206199103Y-103251811D01*
X206176112Y-103213186D01*
X206147393Y-103175485D01*
X206110644Y-103135386D01*
X206102589Y-103127248D01*
X206047189Y-103077993D01*
X205989487Y-103039533D01*
X205926639Y-103010173D01*
X205880660Y-102994870D01*
X205835965Y-102985565D01*
X205783790Y-102980421D01*
X205728444Y-102979439D01*
X205674236Y-102982619D01*
X205625475Y-102989961D01*
X205605592Y-102994870D01*
X205531943Y-103022327D01*
X205463930Y-103060104D01*
X205402567Y-103107119D01*
X205348869Y-103162286D01*
X205303850Y-103224523D01*
X205268525Y-103292745D01*
X205243907Y-103365870D01*
X205239233Y-103386288D01*
X205229205Y-103464841D01*
X205231194Y-103542763D01*
X205244726Y-103618831D01*
X205269328Y-103691825D01*
X205304528Y-103760520D01*
X205349853Y-103823696D01*
X205404829Y-103880131D01*
X205441860Y-103909960D01*
X205466114Y-103927478D01*
X205490222Y-103944425D01*
X205509788Y-103957721D01*
X205513382Y-103960067D01*
X205530766Y-103973750D01*
X205539398Y-103986090D01*
X205539951Y-103989273D01*
X205537612Y-103996954D01*
X205530855Y-104015210D01*
X205520067Y-104043075D01*
X205505637Y-104079580D01*
X205487953Y-104123760D01*
X205467403Y-104174647D01*
X205444376Y-104231273D01*
X205419260Y-104292673D01*
X205392443Y-104357880D01*
X205374862Y-104400449D01*
X205341071Y-104481973D01*
X205311664Y-104552543D01*
X205286357Y-104612804D01*
X205264866Y-104663400D01*
X205246907Y-104704977D01*
X205232197Y-104738179D01*
X205220450Y-104763651D01*
X205211383Y-104782039D01*
X205204712Y-104793986D01*
X205200152Y-104800138D01*
X205198256Y-104801325D01*
X205188888Y-104799117D01*
X205170850Y-104791838D01*
X205146394Y-104780502D01*
X205117773Y-104766123D01*
X205104504Y-104759128D01*
X205074676Y-104743594D01*
X205047967Y-104730468D01*
X205026659Y-104720812D01*
X205013031Y-104715687D01*
X205010100Y-104715141D01*
X205002246Y-104718579D01*
X204985396Y-104728350D01*
X204960813Y-104743642D01*
X204929761Y-104763644D01*
X204893503Y-104787542D01*
X204853302Y-104814526D01*
X204817267Y-104839082D01*
X204774677Y-104868193D01*
X204734980Y-104895125D01*
X204699443Y-104919033D01*
X204669333Y-104939073D01*
X204645918Y-104954400D01*
X204630464Y-104964169D01*
X204624578Y-104967458D01*
X204620034Y-104967190D01*
X204612720Y-104963387D01*
X204601852Y-104955336D01*
X204586647Y-104942324D01*
X204566321Y-104923638D01*
X204540090Y-104898566D01*
X204507169Y-104866395D01*
X204466776Y-104826412D01*
X204438595Y-104798343D01*
X204400205Y-104759775D01*
X204364750Y-104723639D01*
X204333186Y-104690948D01*
X204306468Y-104662715D01*
X204285549Y-104639950D01*
X204271386Y-104623668D01*
X204264934Y-104614879D01*
X204264637Y-104613948D01*
X204268080Y-104606434D01*
X204277871Y-104589907D01*
X204293204Y-104565609D01*
X204313271Y-104534781D01*
X204337266Y-104498662D01*
X204364383Y-104458495D01*
X204390726Y-104420001D01*
X204420129Y-104376944D01*
X204447256Y-104336529D01*
X204471274Y-104300050D01*
X204491351Y-104268802D01*
X204506653Y-104244078D01*
X204516348Y-104227173D01*
X204519576Y-104219813D01*
X204518435Y-104209039D01*
X204512889Y-104188911D01*
X204502786Y-104158990D01*
X204487969Y-104118836D01*
X204468286Y-104068008D01*
X204452495Y-104028250D01*
X204434635Y-103983920D01*
X204417942Y-103943027D01*
X204403062Y-103907110D01*
X204390638Y-103877708D01*
X204381317Y-103856358D01*
X204375744Y-103844600D01*
X204374853Y-103843108D01*
X204369591Y-103839560D01*
X204357950Y-103835289D01*
X204339007Y-103830085D01*
X204311839Y-103823736D01*
X204275523Y-103816034D01*
X204229136Y-103806767D01*
X204171755Y-103795726D01*
X204142366Y-103790173D01*
X204090623Y-103780369D01*
X204042488Y-103771116D01*
X203999411Y-103762702D01*
X203962843Y-103755416D01*
X203934235Y-103749547D01*
X203915039Y-103745385D01*
X203906736Y-103743233D01*
X203903992Y-103741351D01*
X203901747Y-103737504D01*
X203899952Y-103730537D01*
X203898556Y-103719295D01*
X203897511Y-103702623D01*
X203896766Y-103679366D01*
X203896272Y-103648368D01*
X203895979Y-103608474D01*
X203895837Y-103558530D01*
X203895797Y-103497380D01*
X203895796Y-103489037D01*
X203895796Y-103239510D01*
X203909862Y-103233600D01*
X203919116Y-103231125D01*
X203939181Y-103226713D01*
X203968568Y-103220660D01*
X204005787Y-103213264D01*
X204049347Y-103204820D01*
X204097759Y-103195626D01*
X204145618Y-103186699D01*
X204197136Y-103177008D01*
X204245120Y-103167665D01*
X204288090Y-103158982D01*
X204324567Y-103151271D01*
X204353070Y-103144846D01*
X204372119Y-103140017D01*
X204380051Y-103137235D01*
X204385787Y-103129366D01*
X204395377Y-103111676D01*
X204408044Y-103085958D01*
X204423012Y-103054004D01*
X204439504Y-103017609D01*
X204456744Y-102978564D01*
X204473955Y-102938663D01*
X204490360Y-102899699D01*
X204505183Y-102863465D01*
X204517648Y-102831753D01*
X204526978Y-102806357D01*
X204532397Y-102789070D01*
X204533453Y-102783039D01*
X204529739Y-102772831D01*
X204518645Y-102752699D01*
X204500244Y-102722756D01*
X204474608Y-102683116D01*
X204441810Y-102633896D01*
X204401922Y-102575208D01*
X204399045Y-102571009D01*
X204368863Y-102526652D01*
X204341045Y-102485143D01*
X204316372Y-102447693D01*
X204295622Y-102415510D01*
X204279573Y-102389805D01*
X204269005Y-102371787D01*
X204264697Y-102362667D01*
X204264637Y-102362199D01*
X204268916Y-102355244D01*
X204280968Y-102340754D01*
X204299619Y-102319924D01*
X204323693Y-102293950D01*
X204352016Y-102264030D01*
X204383412Y-102231359D01*
X204416706Y-102197134D01*
X204450722Y-102162550D01*
X204484287Y-102128804D01*
X204516224Y-102097093D01*
X204545359Y-102068611D01*
X204570516Y-102044557D01*
X204590520Y-102026125D01*
X204604196Y-102014512D01*
X204609682Y-102010967D01*
X204613344Y-102009885D01*
X204617143Y-102009541D01*
X204622065Y-102010549D01*
X204629096Y-102013523D01*
X204639224Y-102019079D01*
X204653434Y-102027831D01*
X204672712Y-102040393D01*
X204698047Y-102057381D01*
X204730424Y-102079409D01*
X204770830Y-102107091D01*
X204820252Y-102141042D01*
X204837606Y-102152970D01*
X204894558Y-102191858D01*
X204941848Y-102223582D01*
X204979878Y-102248396D01*
X205009052Y-102266554D01*
X205029772Y-102278311D01*
X205042440Y-102283922D01*
X205045797Y-102284505D01*
X205055764Y-102281986D01*
X205075254Y-102275293D01*
X205102412Y-102265186D01*
X205135379Y-102252425D01*
X205172298Y-102237772D01*
X205211311Y-102221987D01*
X205250561Y-102205832D01*
X205288190Y-102190066D01*
X205322340Y-102175451D01*
X205351153Y-102162748D01*
X205372773Y-102152716D01*
X205385342Y-102146118D01*
X205387437Y-102144591D01*
X205390367Y-102136782D01*
X205395213Y-102118058D01*
X205401680Y-102089812D01*
X205409470Y-102053436D01*
X205418288Y-102010320D01*
X205427836Y-101961856D01*
X205437818Y-101909436D01*
X205439559Y-101900108D01*
X205449562Y-101846957D01*
X205459106Y-101797349D01*
X205467901Y-101752706D01*
X205475659Y-101714450D01*
X205482091Y-101684002D01*
X205486906Y-101662783D01*
X205489818Y-101652217D01*
X205490087Y-101651610D01*
X205492149Y-101648535D01*
X205495509Y-101646024D01*
X205501345Y-101644019D01*
X205510837Y-101642464D01*
X205525166Y-101641302D01*
X205545510Y-101640476D01*
X205573048Y-101639928D01*
X205608962Y-101639603D01*
X205654430Y-101639442D01*
X205710631Y-101639388D01*
X205743126Y-101639385D01*
X205805147Y-101639406D01*
G37*
G36*
X207208023Y-106235243D02*
G01*
X207235117Y-106195736D01*
X207269701Y-106165773D01*
X207311421Y-106145742D01*
X207359924Y-106136027D01*
X207366192Y-106135572D01*
X207418552Y-106137762D01*
X207464924Y-106150766D01*
X207504865Y-106174336D01*
X207537934Y-106208225D01*
X207559860Y-106244040D01*
X207568994Y-106263609D01*
X207575105Y-106280495D01*
X207578949Y-106298369D01*
X207581280Y-106320901D01*
X207582853Y-106351763D01*
X207583051Y-106356836D01*
X207585777Y-106428063D01*
X207276232Y-106428063D01*
X207279723Y-106454091D01*
X207289956Y-106485845D01*
X207310246Y-106512784D01*
X207338449Y-106532814D01*
X207371567Y-106543702D01*
X207399311Y-106543929D01*
X207431054Y-106537553D01*
X207461300Y-106526108D01*
X207482837Y-106512629D01*
X207501080Y-106497278D01*
X207534828Y-106525952D01*
X207551777Y-106540762D01*
X207564471Y-106552625D01*
X207570301Y-106559097D01*
X207570374Y-106559256D01*
X207567209Y-106566774D01*
X207555698Y-106578394D01*
X207538413Y-106592124D01*
X207517925Y-106605974D01*
X207496807Y-106617955D01*
X207490716Y-106620895D01*
X207459620Y-106631135D01*
X207422094Y-106637480D01*
X207382902Y-106639604D01*
X207346808Y-106637181D01*
X207324765Y-106632229D01*
X207284568Y-106615912D01*
X207253273Y-106595475D01*
X207227364Y-106568242D01*
X207212506Y-106546842D01*
X207193988Y-106507828D01*
X207181521Y-106460463D01*
X207175588Y-106407588D01*
X207176669Y-106352044D01*
X207177715Y-106341349D01*
X207177871Y-106340541D01*
X207276232Y-106340541D01*
X207483867Y-106340541D01*
X207479995Y-106320224D01*
X207467943Y-106283287D01*
X207448100Y-106255292D01*
X207421408Y-106237018D01*
X207388808Y-106229240D01*
X207370083Y-106229577D01*
X207335879Y-106238467D01*
X207308280Y-106257012D01*
X207288919Y-106283679D01*
X207279723Y-106314513D01*
X207276232Y-106340541D01*
X207177871Y-106340541D01*
X207188771Y-106283909D01*
X207208023Y-106235243D01*
G37*
G36*
X207720994Y-105521537D02*
G01*
X207738106Y-105468495D01*
X207763239Y-105424780D01*
X207796169Y-105390633D01*
X207836671Y-105366291D01*
X207879267Y-105352995D01*
X207928392Y-105349200D01*
X207976096Y-105357477D01*
X208020916Y-105377394D01*
X208058516Y-105405789D01*
X208082249Y-105431071D01*
X208099270Y-105457451D01*
X208110639Y-105487731D01*
X208117417Y-105524718D01*
X208120622Y-105570039D01*
X208123186Y-105640369D01*
X207815511Y-105640369D01*
X207815511Y-105657799D01*
X207819703Y-105679144D01*
X207830490Y-105703823D01*
X207845184Y-105726790D01*
X207860750Y-105742748D01*
X207880254Y-105751555D01*
X207907149Y-105756956D01*
X207936681Y-105758513D01*
X207964095Y-105755786D01*
X207973955Y-105753217D01*
X207994103Y-105744624D01*
X208015265Y-105732850D01*
X208018816Y-105730524D01*
X208041443Y-105715169D01*
X208075388Y-105744170D01*
X208092093Y-105759098D01*
X208104211Y-105771179D01*
X208109302Y-105777966D01*
X208109333Y-105778207D01*
X208104910Y-105784868D01*
X208093731Y-105795882D01*
X208087250Y-105801447D01*
X208041918Y-105830941D01*
X207991452Y-105849787D01*
X207938105Y-105857426D01*
X207884130Y-105853295D01*
X207881152Y-105852708D01*
X207832788Y-105837074D01*
X207792048Y-105811624D01*
X207759298Y-105776724D01*
X207734903Y-105732741D01*
X207722300Y-105693969D01*
X207718012Y-105667379D01*
X207715549Y-105633025D01*
X207714946Y-105595519D01*
X207716238Y-105559472D01*
X207716278Y-105559099D01*
X207815511Y-105559099D01*
X208023203Y-105559099D01*
X208018909Y-105535656D01*
X208007114Y-105499713D01*
X207987028Y-105472311D01*
X207959667Y-105454359D01*
X207926051Y-105446768D01*
X207919202Y-105446571D01*
X207890697Y-105449620D01*
X207866480Y-105457698D01*
X207865581Y-105458170D01*
X207846437Y-105473933D01*
X207829765Y-105497124D01*
X207818550Y-105522786D01*
X207815511Y-105541328D01*
X207815511Y-105559099D01*
X207716278Y-105559099D01*
X207719460Y-105529494D01*
X207720994Y-105521537D01*
G37*
%TO.C,R3*%
X194072742Y-95772500D02*
X194547258Y-95772500D01*
X194072742Y-94727500D02*
X194547258Y-94727500D01*
%TO.C,R5*%
X204707258Y-121172500D02*
X204232742Y-121172500D01*
X204707258Y-120127500D02*
X204232742Y-120127500D01*
%TO.C,C2*%
X210060000Y-120015580D02*
X210060000Y-119734420D01*
X209040000Y-120015580D02*
X209040000Y-119734420D01*
%TO.C,R2*%
X194072742Y-97267500D02*
X194547258Y-97267500D01*
X194072742Y-98312500D02*
X194547258Y-98312500D01*
%TO.C,U2*%
X216890000Y-121975000D02*
X218540000Y-121975000D01*
X213240000Y-121975000D02*
X214890000Y-121975000D01*
X213240000Y-96455000D02*
X213240000Y-121975000D01*
X218540000Y-96455000D02*
X213240000Y-96455000D01*
X218540000Y-121975000D02*
X218540000Y-96455000D01*
X216890000Y-121975000D02*
G75*
G03*
X214890000Y-121975000I-1000000J0D01*
G01*
D12*
%TO.C,J2*%
X242235000Y-123420000D02*
X227136000Y-123420000D01*
X250735000Y-77920000D02*
X250735000Y-114220000D01*
X227136000Y-68720000D02*
X242235000Y-68720000D01*
X242235000Y-68720000D02*
X242235000Y-123420000D01*
X227136000Y-123420000D02*
X227136000Y-68720000D01*
X242235000Y-114220000D02*
X242235000Y-77920000D01*
X242235000Y-77920000D02*
X250735000Y-77920000D01*
X250735000Y-114220000D02*
X242235000Y-114220000D01*
D11*
%TO.C,U1*%
X218560000Y-69795000D02*
X216910000Y-69795000D01*
X213260000Y-95315000D02*
X218560000Y-95315000D01*
X213260000Y-69795000D02*
X213260000Y-95315000D01*
X218560000Y-95315000D02*
X218560000Y-69795000D01*
X214910000Y-69795000D02*
X213260000Y-69795000D01*
X214910000Y-69795000D02*
G75*
G03*
X216910000Y-69795000I1000000J0D01*
G01*
%TO.C,G\u002A\u002A\u002A*%
G36*
X207568143Y-74482576D02*
G01*
X207597968Y-74485882D01*
X207639141Y-74490542D01*
X207685770Y-74495885D01*
X207723562Y-74500261D01*
X207777268Y-74506358D01*
X207837055Y-74512902D01*
X207893969Y-74518922D01*
X207923220Y-74521900D01*
X207965885Y-74526287D01*
X208005518Y-74530603D01*
X208036867Y-74534265D01*
X208051261Y-74536152D01*
X208083814Y-74540891D01*
X208083814Y-75327791D01*
X208051261Y-75332529D01*
X208029030Y-75335364D01*
X207994768Y-75339266D01*
X207953727Y-75343654D01*
X207923220Y-75346757D01*
X207871312Y-75352149D01*
X207811664Y-75358705D01*
X207753753Y-75365369D01*
X207727902Y-75368475D01*
X207677843Y-75374273D01*
X207624369Y-75379928D01*
X207575404Y-75384622D01*
X207551362Y-75386648D01*
X207515411Y-75390436D01*
X207488259Y-75395262D01*
X207473536Y-75400413D01*
X207471983Y-75402188D01*
X207462236Y-75434643D01*
X207448543Y-75476966D01*
X207433054Y-75522770D01*
X207417917Y-75565666D01*
X207408156Y-75591911D01*
X207385603Y-75650506D01*
X207022884Y-75650506D01*
X206945427Y-75650415D01*
X206873625Y-75650156D01*
X206809278Y-75649748D01*
X206754183Y-75649211D01*
X206710137Y-75648563D01*
X206678940Y-75647825D01*
X206662387Y-75647016D01*
X206660164Y-75646582D01*
X206664786Y-75638113D01*
X206677032Y-75619212D01*
X206694474Y-75593602D01*
X206698742Y-75587471D01*
X206744905Y-75514605D01*
X206787866Y-75434100D01*
X206823020Y-75354711D01*
X206827745Y-75342338D01*
X206841314Y-75303143D01*
X206854879Y-75259289D01*
X206867274Y-75215114D01*
X206877337Y-75174955D01*
X206883903Y-75143149D01*
X206885865Y-75125809D01*
X206892001Y-75114983D01*
X206910443Y-75092569D01*
X206941242Y-75058513D01*
X206984450Y-75012761D01*
X207040118Y-74955258D01*
X207108298Y-74885950D01*
X207189041Y-74804783D01*
X207201379Y-74792442D01*
X207516894Y-74477016D01*
X207568143Y-74482576D01*
G37*
G36*
X204565645Y-74209591D02*
G01*
X204641680Y-74209906D01*
X204702901Y-74210478D01*
X204750582Y-74211346D01*
X204785996Y-74212548D01*
X204810416Y-74214123D01*
X204825117Y-74216110D01*
X204831371Y-74218546D01*
X204831538Y-74220346D01*
X204823493Y-74232492D01*
X204808563Y-74254321D01*
X204789843Y-74281311D01*
X204788108Y-74283796D01*
X204744358Y-74352943D01*
X204702861Y-74430439D01*
X204668255Y-74507436D01*
X204660936Y-74526343D01*
X204648563Y-74562061D01*
X204635692Y-74603303D01*
X204623504Y-74645759D01*
X204613180Y-74685119D01*
X204605900Y-74717073D01*
X204602844Y-74737311D01*
X204602816Y-74738532D01*
X204596796Y-74748052D01*
X204579674Y-74768154D01*
X204552862Y-74797439D01*
X204517772Y-74834505D01*
X204475813Y-74877954D01*
X204428396Y-74926385D01*
X204376934Y-74978400D01*
X204322836Y-75032597D01*
X204267513Y-75087578D01*
X204212377Y-75141943D01*
X204158838Y-75194292D01*
X204108307Y-75243225D01*
X204062196Y-75287343D01*
X204021914Y-75325246D01*
X203988874Y-75355534D01*
X203964485Y-75376807D01*
X203950159Y-75387666D01*
X203947373Y-75388782D01*
X203925774Y-75386805D01*
X203904013Y-75384464D01*
X203826079Y-75375458D01*
X203762492Y-75368164D01*
X203710357Y-75362261D01*
X203666779Y-75357427D01*
X203628864Y-75353340D01*
X203593716Y-75349678D01*
X203565462Y-75346820D01*
X203522797Y-75342417D01*
X203483165Y-75338088D01*
X203451816Y-75334419D01*
X203437420Y-75332529D01*
X203404867Y-75327791D01*
X203404867Y-74540891D01*
X203437420Y-74536152D01*
X203459651Y-74533318D01*
X203493914Y-74529415D01*
X203534954Y-74525027D01*
X203565462Y-74521925D01*
X203617369Y-74516532D01*
X203677018Y-74509977D01*
X203734929Y-74503313D01*
X203760780Y-74500207D01*
X203810838Y-74494408D01*
X203864312Y-74488754D01*
X203913277Y-74484060D01*
X203937320Y-74482034D01*
X203973289Y-74478244D01*
X204000435Y-74473417D01*
X204015136Y-74468264D01*
X204016677Y-74466493D01*
X204024428Y-74440768D01*
X204036049Y-74404974D01*
X204049895Y-74363887D01*
X204064318Y-74322284D01*
X204077674Y-74284942D01*
X204088315Y-74256637D01*
X204092531Y-74246388D01*
X204108824Y-74209495D01*
X204473523Y-74209495D01*
X204565645Y-74209591D01*
G37*
G36*
X206142529Y-72627420D02*
G01*
X206145364Y-72649651D01*
X206149266Y-72683914D01*
X206153654Y-72724954D01*
X206156757Y-72755462D01*
X206162149Y-72807369D01*
X206168705Y-72867018D01*
X206175369Y-72924929D01*
X206178475Y-72950780D01*
X206184273Y-73000838D01*
X206189928Y-73054312D01*
X206194622Y-73103277D01*
X206196648Y-73127320D01*
X206200438Y-73163289D01*
X206205264Y-73190435D01*
X206210418Y-73205136D01*
X206212188Y-73206677D01*
X206237913Y-73214428D01*
X206273708Y-73226049D01*
X206314794Y-73239895D01*
X206356397Y-73254318D01*
X206393739Y-73267674D01*
X206422044Y-73278315D01*
X206432294Y-73282531D01*
X206469187Y-73298824D01*
X206469187Y-73663011D01*
X206469137Y-73740622D01*
X206468994Y-73812574D01*
X206468770Y-73877074D01*
X206468473Y-73932329D01*
X206468117Y-73976546D01*
X206467710Y-74007930D01*
X206467264Y-74024690D01*
X206467017Y-74027030D01*
X206459435Y-74022347D01*
X206440792Y-74009881D01*
X206414270Y-73991776D01*
X206395400Y-73978755D01*
X206279310Y-73908675D01*
X206153706Y-73852275D01*
X206020993Y-73810608D01*
X206000424Y-73805648D01*
X205935318Y-73790563D01*
X205611944Y-73468359D01*
X205288569Y-73146154D01*
X205293419Y-73102722D01*
X205296397Y-73076377D01*
X205300754Y-73038232D01*
X205305868Y-72993732D01*
X205310327Y-72955120D01*
X205316396Y-72901411D01*
X205322918Y-72841621D01*
X205328925Y-72784705D01*
X205331900Y-72755462D01*
X205336287Y-72712796D01*
X205340603Y-72673163D01*
X205344265Y-72641815D01*
X205346152Y-72627420D01*
X205350891Y-72594867D01*
X206137791Y-72594867D01*
X206142529Y-72627420D01*
G37*
G36*
X205042492Y-75855189D02*
G01*
X205064321Y-75870119D01*
X205091311Y-75888838D01*
X205093796Y-75890574D01*
X205162943Y-75934323D01*
X205240439Y-75975821D01*
X205317436Y-76010426D01*
X205336343Y-76017745D01*
X205372061Y-76030119D01*
X205413303Y-76042990D01*
X205455759Y-76055177D01*
X205495119Y-76065502D01*
X205527073Y-76072782D01*
X205547311Y-76075837D01*
X205548532Y-76075865D01*
X205557124Y-76081842D01*
X205576736Y-76099008D01*
X205606174Y-76126216D01*
X205644240Y-76162318D01*
X205689740Y-76206168D01*
X205741477Y-76256618D01*
X205798255Y-76312520D01*
X205858880Y-76372728D01*
X205881620Y-76395441D01*
X206201108Y-76715016D01*
X206195761Y-76762204D01*
X206192565Y-76790214D01*
X206188018Y-76829812D01*
X206182772Y-76875338D01*
X206178354Y-76913562D01*
X206172285Y-76967271D01*
X206165764Y-77027060D01*
X206159756Y-77083977D01*
X206156782Y-77113220D01*
X206152394Y-77155885D01*
X206148078Y-77195518D01*
X206144417Y-77226867D01*
X206142529Y-77241261D01*
X206137791Y-77273814D01*
X205350891Y-77273814D01*
X205346152Y-77241261D01*
X205343318Y-77219030D01*
X205339415Y-77184768D01*
X205335027Y-77143727D01*
X205331925Y-77113220D01*
X205326532Y-77061312D01*
X205319977Y-77001664D01*
X205313313Y-76943753D01*
X205310207Y-76917902D01*
X205304408Y-76867843D01*
X205298754Y-76814369D01*
X205294060Y-76765404D01*
X205292034Y-76741362D01*
X205288244Y-76705393D01*
X205283417Y-76678247D01*
X205278264Y-76663545D01*
X205276493Y-76662004D01*
X205250768Y-76654254D01*
X205214974Y-76642632D01*
X205173887Y-76628787D01*
X205132284Y-76614363D01*
X205094942Y-76601008D01*
X205066637Y-76590367D01*
X205056388Y-76586151D01*
X205019495Y-76569858D01*
X205019495Y-76205158D01*
X205019591Y-76113036D01*
X205019906Y-76037002D01*
X205020478Y-75975781D01*
X205021346Y-75928100D01*
X205022548Y-75892686D01*
X205024123Y-75868265D01*
X205026110Y-75853565D01*
X205028546Y-75847310D01*
X205030346Y-75847143D01*
X205042492Y-75855189D01*
G37*
G36*
X207395386Y-73282344D02*
G01*
X207461412Y-73348691D01*
X207519650Y-73407914D01*
X207569359Y-73459228D01*
X207609798Y-73501850D01*
X207640226Y-73534993D01*
X207659901Y-73557875D01*
X207668081Y-73569709D01*
X207668157Y-73571026D01*
X207660559Y-73580655D01*
X207644029Y-73601371D01*
X207620523Y-73630735D01*
X207591999Y-73666313D01*
X207560413Y-73705668D01*
X207527723Y-73746363D01*
X207495885Y-73785962D01*
X207466857Y-73822029D01*
X207442595Y-73852128D01*
X207425056Y-73873821D01*
X207416763Y-73883995D01*
X207405205Y-73898179D01*
X207385996Y-73921974D01*
X207362322Y-73951426D01*
X207348303Y-73968917D01*
X207294234Y-74036447D01*
X207340728Y-74129481D01*
X207360311Y-74169476D01*
X207378017Y-74207103D01*
X207391741Y-74237804D01*
X207398810Y-74255341D01*
X207410397Y-74288166D01*
X207159038Y-74539637D01*
X207104643Y-74593923D01*
X207054023Y-74644185D01*
X207008496Y-74689133D01*
X206969381Y-74727478D01*
X206937993Y-74757931D01*
X206915652Y-74779202D01*
X206903674Y-74790003D01*
X206902041Y-74791108D01*
X206894518Y-74784224D01*
X206891134Y-74777376D01*
X206886758Y-74757365D01*
X206885865Y-74744288D01*
X206883187Y-74722138D01*
X206875934Y-74687975D01*
X206865275Y-74646170D01*
X206852381Y-74601092D01*
X206838420Y-74557113D01*
X206827529Y-74526343D01*
X206797099Y-74452207D01*
X206763524Y-74385571D01*
X206723988Y-74319904D01*
X206686207Y-74261038D01*
X206686207Y-73351895D01*
X206714847Y-73327123D01*
X206740112Y-73305779D01*
X206768846Y-73282197D01*
X206777783Y-73275018D01*
X206794658Y-73261504D01*
X206822517Y-73239119D01*
X206858834Y-73209896D01*
X206901081Y-73175870D01*
X206946733Y-73139073D01*
X206963898Y-73125230D01*
X207115717Y-73002774D01*
X207395386Y-73282344D01*
G37*
G36*
X205225479Y-74607170D02*
G01*
X205270915Y-74528627D01*
X205330703Y-74454349D01*
X205349365Y-74434742D01*
X205422627Y-74369793D01*
X205500991Y-74319972D01*
X205588082Y-74283108D01*
X205618393Y-74273691D01*
X205656888Y-74263276D01*
X205688279Y-74256919D01*
X205718898Y-74253961D01*
X205755080Y-74253736D01*
X205795094Y-74255209D01*
X205871080Y-74262002D01*
X205936180Y-74275862D01*
X205996005Y-74298449D01*
X206056167Y-74331419D01*
X206059036Y-74333214D01*
X206124465Y-74384327D01*
X206180304Y-74448467D01*
X206224966Y-74523253D01*
X206256860Y-74606304D01*
X206266162Y-74643534D01*
X206272673Y-74686089D01*
X206276166Y-74734630D01*
X206276775Y-74784999D01*
X206274633Y-74833038D01*
X206269876Y-74874590D01*
X206262636Y-74905497D01*
X206257355Y-74916905D01*
X206243086Y-74938681D01*
X205444853Y-74938681D01*
X205445158Y-74975575D01*
X205453673Y-75058333D01*
X205477001Y-75135712D01*
X205513917Y-75205660D01*
X205563197Y-75266123D01*
X205623617Y-75315049D01*
X205659920Y-75335690D01*
X205688396Y-75349478D01*
X205710778Y-75358715D01*
X205731826Y-75364312D01*
X205756302Y-75367181D01*
X205788966Y-75368233D01*
X205830685Y-75368380D01*
X205876502Y-75368056D01*
X205909514Y-75366620D01*
X205934274Y-75363375D01*
X205955332Y-75357626D01*
X205977242Y-75348676D01*
X205986023Y-75344626D01*
X206022029Y-75324771D01*
X206063747Y-75297265D01*
X206105452Y-75266290D01*
X206141418Y-75236027D01*
X206160194Y-75217417D01*
X206177853Y-75203128D01*
X206196374Y-75201219D01*
X206219019Y-75212277D01*
X206244209Y-75232542D01*
X206281888Y-75265979D01*
X206251836Y-75315656D01*
X206193496Y-75396246D01*
X206124021Y-75464289D01*
X206044735Y-75518702D01*
X205956965Y-75558405D01*
X205952349Y-75559994D01*
X205916336Y-75571109D01*
X205882676Y-75578480D01*
X205845496Y-75582992D01*
X205798925Y-75585533D01*
X205779064Y-75586126D01*
X205733101Y-75586519D01*
X205688701Y-75585520D01*
X205651441Y-75583331D01*
X205629948Y-75580755D01*
X205558983Y-75562088D01*
X205485402Y-75532187D01*
X205416505Y-75494074D01*
X205409732Y-75489647D01*
X205340831Y-75433628D01*
X205282071Y-75364762D01*
X205234009Y-75284683D01*
X205197204Y-75195020D01*
X205172215Y-75097408D01*
X205159601Y-74993477D01*
X205159920Y-74884859D01*
X205170605Y-74791108D01*
X205172564Y-74782427D01*
X205444523Y-74782427D01*
X205681240Y-74782378D01*
X205747461Y-74782044D01*
X205808483Y-74781122D01*
X205861809Y-74779695D01*
X205904943Y-74777846D01*
X205935387Y-74775656D01*
X205949617Y-74773536D01*
X205981190Y-74758391D01*
X206001398Y-74732702D01*
X206011229Y-74694768D01*
X206012557Y-74665236D01*
X206003583Y-74603517D01*
X205978921Y-74546158D01*
X205940132Y-74495575D01*
X205888782Y-74454184D01*
X205868402Y-74442458D01*
X205823130Y-74426932D01*
X205769764Y-74421305D01*
X205714386Y-74425451D01*
X205663078Y-74439245D01*
X205645764Y-74447067D01*
X205588567Y-74485970D01*
X205538713Y-74538330D01*
X205498478Y-74600999D01*
X205470141Y-74670827D01*
X205462611Y-74700233D01*
X205456280Y-74729636D01*
X205450773Y-74754802D01*
X205448962Y-74762895D01*
X205444523Y-74782427D01*
X205172564Y-74782427D01*
X205192630Y-74693491D01*
X205225479Y-74607170D01*
G37*
G36*
X204592335Y-75076527D02*
G01*
X204597414Y-75095466D01*
X204598458Y-75101446D01*
X204626590Y-75233415D01*
X204668231Y-75359660D01*
X204722255Y-75477138D01*
X204764190Y-75548462D01*
X204802475Y-75607644D01*
X204802475Y-76516787D01*
X204773834Y-76541558D01*
X204748552Y-76562902D01*
X204719804Y-76586459D01*
X204710898Y-76593595D01*
X204693701Y-76607331D01*
X204665625Y-76629827D01*
X204629317Y-76658961D01*
X204587424Y-76692607D01*
X204542593Y-76728643D01*
X204533370Y-76736060D01*
X204490303Y-76770679D01*
X204451548Y-76801793D01*
X204419245Y-76827690D01*
X204395529Y-76846657D01*
X204382539Y-76856981D01*
X204381026Y-76858157D01*
X204372847Y-76853764D01*
X204353372Y-76837643D01*
X204323388Y-76810534D01*
X204283678Y-76773179D01*
X204235026Y-76726320D01*
X204178218Y-76670697D01*
X204114038Y-76607053D01*
X204092344Y-76585386D01*
X203812774Y-76305717D01*
X203935082Y-76153898D01*
X203971335Y-76108922D01*
X204004636Y-76067653D01*
X204033196Y-76032306D01*
X204055226Y-76005094D01*
X204068936Y-75988231D01*
X204071850Y-75984686D01*
X204083433Y-75970508D01*
X204102666Y-75946712D01*
X204126363Y-75917248D01*
X204140473Y-75899647D01*
X204194637Y-75832000D01*
X204156355Y-75756444D01*
X204136361Y-75716217D01*
X204116356Y-75674696D01*
X204099746Y-75638989D01*
X204095364Y-75629176D01*
X204072653Y-75577463D01*
X204326829Y-75323178D01*
X204381554Y-75268573D01*
X204432531Y-75217987D01*
X204478445Y-75172702D01*
X204517985Y-75133999D01*
X204549836Y-75103163D01*
X204572687Y-75081474D01*
X204585224Y-75070216D01*
X204587177Y-75068893D01*
X204592335Y-75076527D01*
G37*
G36*
X204426039Y-73044436D02*
G01*
X204447745Y-73061380D01*
X204479924Y-73086852D01*
X204519637Y-73118493D01*
X204563947Y-73153943D01*
X204609915Y-73190845D01*
X204654603Y-73226837D01*
X204695074Y-73259561D01*
X204728389Y-73286657D01*
X204751609Y-73305766D01*
X204754660Y-73308318D01*
X204771377Y-73321992D01*
X204795250Y-73341099D01*
X204810881Y-73353454D01*
X204849670Y-73383942D01*
X204910710Y-73350960D01*
X204950563Y-73330444D01*
X204996624Y-73308224D01*
X205038994Y-73289075D01*
X205039406Y-73288898D01*
X205107062Y-73259817D01*
X205362765Y-73515411D01*
X205417525Y-73570287D01*
X205468271Y-73621411D01*
X205513723Y-73667474D01*
X205552603Y-73707168D01*
X205583632Y-73739185D01*
X205605533Y-73762216D01*
X205617025Y-73774953D01*
X205618469Y-73777038D01*
X205610716Y-73781601D01*
X205590983Y-73786453D01*
X205577235Y-73788664D01*
X205541307Y-73795141D01*
X205494734Y-73805772D01*
X205443279Y-73819030D01*
X205392702Y-73833387D01*
X205348765Y-73847316D01*
X205328640Y-73854578D01*
X205276897Y-73876823D01*
X205219151Y-73905198D01*
X205163039Y-73935761D01*
X205118425Y-73963083D01*
X205074123Y-73992475D01*
X204153412Y-73992475D01*
X204139990Y-73971991D01*
X204125597Y-73952040D01*
X204114957Y-73939438D01*
X204105649Y-73928665D01*
X204087724Y-73907006D01*
X204063383Y-73877155D01*
X204034828Y-73841803D01*
X204019895Y-73823199D01*
X203986581Y-73781657D01*
X203953064Y-73739937D01*
X203922702Y-73702214D01*
X203898853Y-73672662D01*
X203893627Y-73666208D01*
X203870144Y-73636827D01*
X203848527Y-73609078D01*
X203833185Y-73588627D01*
X203832374Y-73587494D01*
X203813937Y-73561602D01*
X204372775Y-73003540D01*
X204426039Y-73044436D01*
G37*
G36*
X206878051Y-75867937D02*
G01*
X207324245Y-75868347D01*
X207363309Y-75917643D01*
X207384961Y-75944886D01*
X207404167Y-75968910D01*
X207416763Y-75984508D01*
X207427877Y-75998210D01*
X207447148Y-76022100D01*
X207472640Y-76053769D01*
X207502418Y-76090806D01*
X207534547Y-76130801D01*
X207567093Y-76171344D01*
X207598121Y-76210025D01*
X207625696Y-76244434D01*
X207647883Y-76272160D01*
X207662746Y-76290794D01*
X207668157Y-76297656D01*
X207663764Y-76305835D01*
X207647643Y-76325309D01*
X207620534Y-76355294D01*
X207583179Y-76395004D01*
X207536320Y-76443655D01*
X207480697Y-76500463D01*
X207417053Y-76564643D01*
X207395386Y-76586337D01*
X207115717Y-76865908D01*
X206963898Y-76743599D01*
X206918922Y-76707347D01*
X206877653Y-76674046D01*
X206842306Y-76645486D01*
X206815094Y-76623456D01*
X206798231Y-76609745D01*
X206794686Y-76606832D01*
X206780508Y-76595249D01*
X206756712Y-76576016D01*
X206727248Y-76552318D01*
X206709647Y-76538208D01*
X206642000Y-76484045D01*
X206566444Y-76522326D01*
X206526514Y-76542184D01*
X206485580Y-76561928D01*
X206450601Y-76578220D01*
X206440820Y-76582591D01*
X206390751Y-76604575D01*
X206134007Y-76348269D01*
X206079277Y-76293448D01*
X206028722Y-76242451D01*
X205983595Y-76196568D01*
X205945146Y-76157090D01*
X205914630Y-76125304D01*
X205893297Y-76102503D01*
X205882402Y-76089976D01*
X205881269Y-76087957D01*
X205891287Y-76084624D01*
X205913511Y-76079860D01*
X205940679Y-76075102D01*
X206069993Y-76045751D01*
X206197178Y-75999530D01*
X206321033Y-75936905D01*
X206365885Y-75909601D01*
X206431858Y-75867526D01*
X206878051Y-75867937D01*
G37*
%TO.C,R1*%
X194072742Y-100852500D02*
X194547258Y-100852500D01*
X194072742Y-99807500D02*
X194547258Y-99807500D01*
%TD*%
%LPC*%
D13*
%TO.C,C1*%
X222745000Y-71120000D03*
X224295000Y-71120000D03*
%TD*%
D14*
%TO.C,R4*%
X207010000Y-112205000D03*
X207010000Y-113855000D03*
%TD*%
D15*
%TO.C,REF\u002A\u002A*%
X199390000Y-66250000D03*
%TD*%
D16*
%TO.C,R3*%
X193485000Y-95250000D03*
X195135000Y-95250000D03*
%TD*%
D17*
%TO.C,R5*%
X205295000Y-120650000D03*
X203645000Y-120650000D03*
%TD*%
D18*
%TO.C,J1*%
X238390500Y-73575000D03*
X238400500Y-77525000D03*
X238400500Y-81485000D03*
X238410500Y-85445000D03*
X238400500Y-89405000D03*
X238400500Y-93365000D03*
X238410500Y-97325000D03*
X238400500Y-101285000D03*
X238400500Y-105245000D03*
X238400500Y-109205000D03*
X238400500Y-113165000D03*
X238400500Y-117125000D03*
%TD*%
D19*
%TO.C,C2*%
X209550000Y-120650000D03*
X209550000Y-119100000D03*
%TD*%
D15*
%TO.C,REF\u002A\u002A*%
X199390000Y-124245000D03*
%TD*%
D16*
%TO.C,R2*%
X193485000Y-97790000D03*
X195135000Y-97790000D03*
%TD*%
D20*
%TO.C,U2*%
X219700000Y-120645000D03*
D21*
X219700000Y-118105000D03*
X219700000Y-115565000D03*
X219700000Y-113025000D03*
X219700000Y-110485000D03*
X219700000Y-107945000D03*
X219700000Y-105405000D03*
X219700000Y-102865000D03*
X219700000Y-100325000D03*
X219700000Y-97785000D03*
X212080000Y-97785000D03*
X212080000Y-100325000D03*
X212080000Y-102865000D03*
X212080000Y-105405000D03*
X212080000Y-107945000D03*
X212080000Y-110485000D03*
X212080000Y-113025000D03*
X212080000Y-115565000D03*
X212080000Y-118105000D03*
X212080000Y-120645000D03*
%TD*%
D22*
%TO.C,J2*%
X229390000Y-84190000D03*
X229390000Y-86350000D03*
X229390000Y-88510000D03*
X229390000Y-90670000D03*
X229390000Y-92830000D03*
X229390000Y-94990000D03*
X229390000Y-97150000D03*
X229390000Y-99310000D03*
X229390000Y-101470000D03*
X229390000Y-103630000D03*
X229390000Y-105790000D03*
X229390000Y-107950000D03*
X233680000Y-84190000D03*
X233680000Y-86350000D03*
X233680000Y-88510000D03*
X233680000Y-90670000D03*
X233680000Y-92830000D03*
X233680000Y-94990000D03*
X233680000Y-97150000D03*
X233680000Y-99310000D03*
X233680000Y-101470000D03*
X233680000Y-103630000D03*
X233680000Y-105790000D03*
D23*
X233680000Y-107950000D03*
D24*
X231535000Y-119470000D03*
X231535000Y-72670000D03*
%TD*%
D20*
%TO.C,U1*%
X212100000Y-71125000D03*
D21*
X212100000Y-73665000D03*
X212100000Y-76205000D03*
X212100000Y-78745000D03*
X212100000Y-81285000D03*
X212100000Y-83825000D03*
X212100000Y-86365000D03*
X212100000Y-88905000D03*
X212100000Y-91445000D03*
X212100000Y-93985000D03*
X219720000Y-93985000D03*
X219720000Y-91445000D03*
X219720000Y-88905000D03*
X219720000Y-86365000D03*
X219720000Y-83825000D03*
X219720000Y-81285000D03*
X219720000Y-78745000D03*
X219720000Y-76205000D03*
X219720000Y-73665000D03*
X219720000Y-71125000D03*
%TD*%
D16*
%TO.C,R1*%
X193485000Y-100330000D03*
X195135000Y-100330000D03*
%TD*%
D25*
%TO.C,J3*%
X198115000Y-119375000D03*
D26*
X200655000Y-119375000D03*
X198115000Y-116835000D03*
X200655000Y-116835000D03*
X198115000Y-114295000D03*
X200655000Y-114295000D03*
X198115000Y-111755000D03*
X200655000Y-111755000D03*
X198115000Y-109215000D03*
X200655000Y-109215000D03*
X198115000Y-106675000D03*
X200655000Y-106675000D03*
X198115000Y-104135000D03*
X200655000Y-104135000D03*
X198115000Y-101595000D03*
X200655000Y-101595000D03*
X198115000Y-99055000D03*
X200655000Y-99055000D03*
X198115000Y-96515000D03*
X200655000Y-96515000D03*
X198115000Y-93975000D03*
X200655000Y-93975000D03*
X198115000Y-91435000D03*
X200655000Y-91435000D03*
X198115000Y-88895000D03*
X200655000Y-88895000D03*
X198115000Y-86355000D03*
X200655000Y-86355000D03*
X198115000Y-83815000D03*
X200655000Y-83815000D03*
X198115000Y-81275000D03*
X200655000Y-81275000D03*
X198115000Y-78735000D03*
X200655000Y-78735000D03*
X198115000Y-76195000D03*
X200655000Y-76195000D03*
X198115000Y-73655000D03*
X200655000Y-73655000D03*
X198115000Y-71115000D03*
X200655000Y-71115000D03*
%TD*%
M02*
