%FSLAX45Y45*%
G04 Gerber Fmt 4.5, Leading zero omitted, Abs format (unit mm)*
G04 Created by KiCad (PCBNEW (6.0.0)) date 2022-03-13 20:29:17*
%MOMM*%
%LPD*%
G01*
G04 APERTURE LIST*
%TA.AperFunction,Profile*%
%ADD10C,0.100000*%
%TD*%
%ADD11C,0.200000*%
%ADD12C,0.320000*%
G04 APERTURE END LIST*
D10*
X-381000Y-9207500D02*
G75*
G03*
X0Y-9588500I381000J0D01*
G01*
X9207500Y-9588500D02*
G75*
G03*
X9588500Y-9207500I0J381000D01*
G01*
X0Y381000D02*
G75*
G03*
X-381000Y0I0J-381000D01*
G01*
X9207500Y381000D02*
X0Y381000D01*
X-381000Y-9207500D02*
X-381000Y0D01*
X9588500Y-9207500D02*
X9588500Y0D01*
X9207500Y-9588500D02*
X0Y-9588500D01*
X9588500Y0D02*
G75*
G03*
X9207500Y381000I-381000J0D01*
G01*
D11*
D12*
X983000Y-9047500D02*
X1303000Y-9367500D01*
X1303000Y-9047500D02*
X983000Y-9367500D01*
X3015000Y160000D02*
X3335000Y-160000D01*
X3335000Y160000D02*
X3015000Y-160000D01*
X9047500Y160000D02*
X9367500Y-160000D01*
X9367500Y160000D02*
X9047500Y-160000D01*
X9047500Y-9047500D02*
X9367500Y-9367500D01*
X9367500Y-9047500D02*
X9047500Y-9367500D01*
D11*
X-128381Y-9903976D02*
X-128381Y-9703976D01*
X-80762Y-9703976D01*
X-52190Y-9713500D01*
X-33143Y-9732548D01*
X-23619Y-9751595D01*
X-14095Y-9789690D01*
X-14095Y-9818262D01*
X-23619Y-9856357D01*
X-33143Y-9875405D01*
X-52190Y-9894452D01*
X-80762Y-9903976D01*
X-128381Y-9903976D01*
X71619Y-9903976D02*
X71619Y-9770643D01*
X71619Y-9808738D02*
X81143Y-9789690D01*
X90667Y-9780167D01*
X109714Y-9770643D01*
X128762Y-9770643D01*
X195428Y-9903976D02*
X195428Y-9770643D01*
X195428Y-9703976D02*
X185905Y-9713500D01*
X195428Y-9723024D01*
X204952Y-9713500D01*
X195428Y-9703976D01*
X195428Y-9723024D01*
X319238Y-9903976D02*
X300190Y-9894452D01*
X290667Y-9875405D01*
X290667Y-9703976D01*
X424000Y-9903976D02*
X404952Y-9894452D01*
X395428Y-9875405D01*
X395428Y-9703976D01*
X652571Y-9903976D02*
X652571Y-9703976D01*
X719238Y-9846833D01*
X785905Y-9703976D01*
X785905Y-9903976D01*
X966857Y-9903976D02*
X966857Y-9799214D01*
X957333Y-9780167D01*
X938286Y-9770643D01*
X900190Y-9770643D01*
X881143Y-9780167D01*
X966857Y-9894452D02*
X947809Y-9903976D01*
X900190Y-9903976D01*
X881143Y-9894452D01*
X871619Y-9875405D01*
X871619Y-9856357D01*
X881143Y-9837310D01*
X900190Y-9827786D01*
X947809Y-9827786D01*
X966857Y-9818262D01*
X1062095Y-9770643D02*
X1062095Y-9970643D01*
X1062095Y-9780167D02*
X1081143Y-9770643D01*
X1119238Y-9770643D01*
X1138286Y-9780167D01*
X1147810Y-9789690D01*
X1157333Y-9808738D01*
X1157333Y-9865881D01*
X1147810Y-9884929D01*
X1138286Y-9894452D01*
X1119238Y-9903976D01*
X1081143Y-9903976D01*
X1062095Y-9894452D01*
X1243048Y-9884929D02*
X1252571Y-9894452D01*
X1243048Y-9903976D01*
X1233524Y-9894452D01*
X1243048Y-9884929D01*
X1243048Y-9903976D01*
X1243048Y-9780167D02*
X1252571Y-9789690D01*
X1243048Y-9799214D01*
X1233524Y-9789690D01*
X1243048Y-9780167D01*
X1243048Y-9799214D01*
X-586000Y-10133500D02*
X-386000Y-10333500D01*
X-386000Y-10133500D02*
X-586000Y-10333500D01*
X-147429Y-10123976D02*
X-23619Y-10123976D01*
X-90286Y-10200167D01*
X-61714Y-10200167D01*
X-42667Y-10209690D01*
X-33143Y-10219214D01*
X-23619Y-10238262D01*
X-23619Y-10285881D01*
X-33143Y-10304929D01*
X-42667Y-10314452D01*
X-61714Y-10323976D01*
X-118857Y-10323976D01*
X-137905Y-10314452D01*
X-147429Y-10304929D01*
X62095Y-10304929D02*
X71619Y-10314452D01*
X62095Y-10323976D01*
X52571Y-10314452D01*
X62095Y-10304929D01*
X62095Y-10323976D01*
X147810Y-10143024D02*
X157333Y-10133500D01*
X176381Y-10123976D01*
X224000Y-10123976D01*
X243048Y-10133500D01*
X252571Y-10143024D01*
X262095Y-10162071D01*
X262095Y-10181119D01*
X252571Y-10209690D01*
X138286Y-10323976D01*
X262095Y-10323976D01*
X385905Y-10123976D02*
X404952Y-10123976D01*
X424000Y-10133500D01*
X433524Y-10143024D01*
X443048Y-10162071D01*
X452571Y-10200167D01*
X452571Y-10247786D01*
X443048Y-10285881D01*
X433524Y-10304929D01*
X424000Y-10314452D01*
X404952Y-10323976D01*
X385905Y-10323976D01*
X366857Y-10314452D01*
X357333Y-10304929D01*
X347810Y-10285881D01*
X338286Y-10247786D01*
X338286Y-10200167D01*
X347810Y-10162071D01*
X357333Y-10143024D01*
X366857Y-10133500D01*
X385905Y-10123976D01*
X576381Y-10123976D02*
X595429Y-10123976D01*
X614476Y-10133500D01*
X624000Y-10143024D01*
X633524Y-10162071D01*
X643048Y-10200167D01*
X643048Y-10247786D01*
X633524Y-10285881D01*
X624000Y-10304929D01*
X614476Y-10314452D01*
X595429Y-10323976D01*
X576381Y-10323976D01*
X557333Y-10314452D01*
X547810Y-10304929D01*
X538286Y-10285881D01*
X528762Y-10247786D01*
X528762Y-10200167D01*
X538286Y-10162071D01*
X547810Y-10143024D01*
X557333Y-10133500D01*
X576381Y-10123976D01*
X728762Y-10323976D02*
X728762Y-10190643D01*
X728762Y-10209690D02*
X738286Y-10200167D01*
X757333Y-10190643D01*
X785905Y-10190643D01*
X804952Y-10200167D01*
X814476Y-10219214D01*
X814476Y-10323976D01*
X814476Y-10219214D02*
X824000Y-10200167D01*
X843048Y-10190643D01*
X871619Y-10190643D01*
X890667Y-10200167D01*
X900190Y-10219214D01*
X900190Y-10323976D01*
X995428Y-10323976D02*
X995428Y-10190643D01*
X995428Y-10209690D02*
X1004952Y-10200167D01*
X1024000Y-10190643D01*
X1052571Y-10190643D01*
X1071619Y-10200167D01*
X1081143Y-10219214D01*
X1081143Y-10323976D01*
X1081143Y-10219214D02*
X1090667Y-10200167D01*
X1109714Y-10190643D01*
X1138286Y-10190643D01*
X1157333Y-10200167D01*
X1166857Y-10219214D01*
X1166857Y-10323976D01*
X1557333Y-10114452D02*
X1385905Y-10371595D01*
X1814476Y-10123976D02*
X1833524Y-10123976D01*
X1852571Y-10133500D01*
X1862095Y-10143024D01*
X1871619Y-10162071D01*
X1881143Y-10200167D01*
X1881143Y-10247786D01*
X1871619Y-10285881D01*
X1862095Y-10304929D01*
X1852571Y-10314452D01*
X1833524Y-10323976D01*
X1814476Y-10323976D01*
X1795428Y-10314452D01*
X1785905Y-10304929D01*
X1776381Y-10285881D01*
X1766857Y-10247786D01*
X1766857Y-10200167D01*
X1776381Y-10162071D01*
X1785905Y-10143024D01*
X1795428Y-10133500D01*
X1814476Y-10123976D01*
X1966857Y-10304929D02*
X1976381Y-10314452D01*
X1966857Y-10323976D01*
X1957333Y-10314452D01*
X1966857Y-10304929D01*
X1966857Y-10323976D01*
X2166857Y-10323976D02*
X2052571Y-10323976D01*
X2109714Y-10323976D02*
X2109714Y-10123976D01*
X2090667Y-10152548D01*
X2071619Y-10171595D01*
X2052571Y-10181119D01*
X2243048Y-10143024D02*
X2252571Y-10133500D01*
X2271619Y-10123976D01*
X2319238Y-10123976D01*
X2338286Y-10133500D01*
X2347810Y-10143024D01*
X2357333Y-10162071D01*
X2357333Y-10181119D01*
X2347810Y-10209690D01*
X2233524Y-10323976D01*
X2357333Y-10323976D01*
X2528762Y-10123976D02*
X2490667Y-10123976D01*
X2471619Y-10133500D01*
X2462095Y-10143024D01*
X2443048Y-10171595D01*
X2433524Y-10209690D01*
X2433524Y-10285881D01*
X2443048Y-10304929D01*
X2452571Y-10314452D01*
X2471619Y-10323976D01*
X2509714Y-10323976D01*
X2528762Y-10314452D01*
X2538286Y-10304929D01*
X2547810Y-10285881D01*
X2547810Y-10238262D01*
X2538286Y-10219214D01*
X2528762Y-10209690D01*
X2509714Y-10200167D01*
X2471619Y-10200167D01*
X2452571Y-10209690D01*
X2443048Y-10219214D01*
X2433524Y-10238262D01*
X2671619Y-10123976D02*
X2690667Y-10123976D01*
X2709714Y-10133500D01*
X2719238Y-10143024D01*
X2728762Y-10162071D01*
X2738286Y-10200167D01*
X2738286Y-10247786D01*
X2728762Y-10285881D01*
X2719238Y-10304929D01*
X2709714Y-10314452D01*
X2690667Y-10323976D01*
X2671619Y-10323976D01*
X2652571Y-10314452D01*
X2643048Y-10304929D01*
X2633524Y-10285881D01*
X2624000Y-10247786D01*
X2624000Y-10200167D01*
X2633524Y-10162071D01*
X2643048Y-10143024D01*
X2652571Y-10133500D01*
X2671619Y-10123976D01*
X2814476Y-10123976D02*
X2814476Y-10162071D01*
X2890667Y-10123976D02*
X2890667Y-10162071D01*
X3185905Y-10400167D02*
X3176381Y-10390643D01*
X3157333Y-10362071D01*
X3147809Y-10343024D01*
X3138286Y-10314452D01*
X3128762Y-10266833D01*
X3128762Y-10228738D01*
X3138286Y-10181119D01*
X3147809Y-10152548D01*
X3157333Y-10133500D01*
X3176381Y-10104929D01*
X3185905Y-10095405D01*
X3347809Y-10190643D02*
X3347809Y-10323976D01*
X3300190Y-10114452D02*
X3252571Y-10257310D01*
X3376381Y-10257310D01*
X3604952Y-10323976D02*
X3604952Y-10123976D01*
X3690667Y-10323976D02*
X3690667Y-10219214D01*
X3681143Y-10200167D01*
X3662095Y-10190643D01*
X3633524Y-10190643D01*
X3614476Y-10200167D01*
X3604952Y-10209690D01*
X3814476Y-10323976D02*
X3795428Y-10314452D01*
X3785905Y-10304929D01*
X3776381Y-10285881D01*
X3776381Y-10228738D01*
X3785905Y-10209690D01*
X3795428Y-10200167D01*
X3814476Y-10190643D01*
X3843048Y-10190643D01*
X3862095Y-10200167D01*
X3871619Y-10209690D01*
X3881143Y-10228738D01*
X3881143Y-10285881D01*
X3871619Y-10304929D01*
X3862095Y-10314452D01*
X3843048Y-10323976D01*
X3814476Y-10323976D01*
X3995428Y-10323976D02*
X3976381Y-10314452D01*
X3966857Y-10295405D01*
X3966857Y-10123976D01*
X4147809Y-10314452D02*
X4128762Y-10323976D01*
X4090667Y-10323976D01*
X4071619Y-10314452D01*
X4062095Y-10295405D01*
X4062095Y-10219214D01*
X4071619Y-10200167D01*
X4090667Y-10190643D01*
X4128762Y-10190643D01*
X4147809Y-10200167D01*
X4157333Y-10219214D01*
X4157333Y-10238262D01*
X4062095Y-10257310D01*
X4233524Y-10314452D02*
X4252571Y-10323976D01*
X4290667Y-10323976D01*
X4309714Y-10314452D01*
X4319238Y-10295405D01*
X4319238Y-10285881D01*
X4309714Y-10266833D01*
X4290667Y-10257310D01*
X4262095Y-10257310D01*
X4243048Y-10247786D01*
X4233524Y-10228738D01*
X4233524Y-10219214D01*
X4243048Y-10200167D01*
X4262095Y-10190643D01*
X4290667Y-10190643D01*
X4309714Y-10200167D01*
X4385905Y-10400167D02*
X4395429Y-10390643D01*
X4414476Y-10362071D01*
X4424000Y-10343024D01*
X4433524Y-10314452D01*
X4443048Y-10266833D01*
X4443048Y-10228738D01*
X4433524Y-10181119D01*
X4424000Y-10152548D01*
X4414476Y-10133500D01*
X4395429Y-10104929D01*
X4385905Y-10095405D01*
X4747810Y-10400167D02*
X4738286Y-10390643D01*
X4719238Y-10362071D01*
X4709714Y-10343024D01*
X4700190Y-10314452D01*
X4690667Y-10266833D01*
X4690667Y-10228738D01*
X4700190Y-10181119D01*
X4709714Y-10152548D01*
X4719238Y-10133500D01*
X4738286Y-10104929D01*
X4747810Y-10095405D01*
X4824000Y-10190643D02*
X4824000Y-10323976D01*
X4824000Y-10209690D02*
X4833524Y-10200167D01*
X4852571Y-10190643D01*
X4881143Y-10190643D01*
X4900190Y-10200167D01*
X4909714Y-10219214D01*
X4909714Y-10323976D01*
X5033524Y-10323976D02*
X5014476Y-10314452D01*
X5004952Y-10304929D01*
X4995429Y-10285881D01*
X4995429Y-10228738D01*
X5004952Y-10209690D01*
X5014476Y-10200167D01*
X5033524Y-10190643D01*
X5062095Y-10190643D01*
X5081143Y-10200167D01*
X5090667Y-10209690D01*
X5100190Y-10228738D01*
X5100190Y-10285881D01*
X5090667Y-10304929D01*
X5081143Y-10314452D01*
X5062095Y-10323976D01*
X5033524Y-10323976D01*
X5157333Y-10190643D02*
X5233524Y-10190643D01*
X5185905Y-10123976D02*
X5185905Y-10295405D01*
X5195429Y-10314452D01*
X5214476Y-10323976D01*
X5233524Y-10323976D01*
X5452571Y-10190643D02*
X5452571Y-10390643D01*
X5452571Y-10200167D02*
X5471619Y-10190643D01*
X5509714Y-10190643D01*
X5528762Y-10200167D01*
X5538286Y-10209690D01*
X5547810Y-10228738D01*
X5547810Y-10285881D01*
X5538286Y-10304929D01*
X5528762Y-10314452D01*
X5509714Y-10323976D01*
X5471619Y-10323976D01*
X5452571Y-10314452D01*
X5662095Y-10323976D02*
X5643048Y-10314452D01*
X5633524Y-10295405D01*
X5633524Y-10123976D01*
X5824000Y-10323976D02*
X5824000Y-10219214D01*
X5814476Y-10200167D01*
X5795428Y-10190643D01*
X5757333Y-10190643D01*
X5738286Y-10200167D01*
X5824000Y-10314452D02*
X5804952Y-10323976D01*
X5757333Y-10323976D01*
X5738286Y-10314452D01*
X5728762Y-10295405D01*
X5728762Y-10276357D01*
X5738286Y-10257310D01*
X5757333Y-10247786D01*
X5804952Y-10247786D01*
X5824000Y-10238262D01*
X5890667Y-10190643D02*
X5966857Y-10190643D01*
X5919238Y-10123976D02*
X5919238Y-10295405D01*
X5928762Y-10314452D01*
X5947809Y-10323976D01*
X5966857Y-10323976D01*
X6109714Y-10314452D02*
X6090667Y-10323976D01*
X6052571Y-10323976D01*
X6033524Y-10314452D01*
X6024000Y-10295405D01*
X6024000Y-10219214D01*
X6033524Y-10200167D01*
X6052571Y-10190643D01*
X6090667Y-10190643D01*
X6109714Y-10200167D01*
X6119238Y-10219214D01*
X6119238Y-10238262D01*
X6024000Y-10257310D01*
X6290667Y-10323976D02*
X6290667Y-10123976D01*
X6290667Y-10314452D02*
X6271619Y-10323976D01*
X6233524Y-10323976D01*
X6214476Y-10314452D01*
X6204952Y-10304929D01*
X6195428Y-10285881D01*
X6195428Y-10228738D01*
X6204952Y-10209690D01*
X6214476Y-10200167D01*
X6233524Y-10190643D01*
X6271619Y-10190643D01*
X6290667Y-10200167D01*
X6366857Y-10400167D02*
X6376381Y-10390643D01*
X6395428Y-10362071D01*
X6404952Y-10343024D01*
X6414476Y-10314452D01*
X6424000Y-10266833D01*
X6424000Y-10228738D01*
X6414476Y-10181119D01*
X6404952Y-10152548D01*
X6395428Y-10133500D01*
X6376381Y-10104929D01*
X6366857Y-10095405D01*
M02*
