%TF.GenerationSoftware,KiCad,Pcbnew,(6.0.0)*%
%TF.CreationDate,2022-03-13T20:29:15-04:00*%
%TF.ProjectId,alarm_panel_breakout,616c6172-6d5f-4706-916e-656c5f627265,rev?*%
%TF.SameCoordinates,Original*%
%TF.FileFunction,Paste,Top*%
%TF.FilePolarity,Positive*%
%FSLAX46Y46*%
G04 Gerber Fmt 4.6, Leading zero omitted, Abs format (unit mm)*
G04 Created by KiCad (PCBNEW (6.0.0)) date 2022-03-13 20:29:15*
%MOMM*%
%LPD*%
G01*
G04 APERTURE LIST*
G04 Aperture macros list*
%AMRoundRect*
0 Rectangle with rounded corners*
0 $1 Rounding radius*
0 $2 $3 $4 $5 $6 $7 $8 $9 X,Y pos of 4 corners*
0 Add a 4 corners polygon primitive as box body*
4,1,4,$2,$3,$4,$5,$6,$7,$8,$9,$2,$3,0*
0 Add four circle primitives for the rounded corners*
1,1,$1+$1,$2,$3*
1,1,$1+$1,$4,$5*
1,1,$1+$1,$6,$7*
1,1,$1+$1,$8,$9*
0 Add four rect primitives between the rounded corners*
20,1,$1+$1,$2,$3,$4,$5,0*
20,1,$1+$1,$4,$5,$6,$7,0*
20,1,$1+$1,$6,$7,$8,$9,0*
20,1,$1+$1,$8,$9,$2,$3,0*%
G04 Aperture macros list end*
%ADD10RoundRect,0.200000X0.200000X0.275000X-0.200000X0.275000X-0.200000X-0.275000X0.200000X-0.275000X0*%
%ADD11RoundRect,0.150000X-0.587500X-0.150000X0.587500X-0.150000X0.587500X0.150000X-0.587500X0.150000X0*%
%ADD12RoundRect,0.200000X-0.200000X-0.275000X0.200000X-0.275000X0.200000X0.275000X-0.200000X0.275000X0*%
%ADD13RoundRect,0.200000X-0.275000X0.200000X-0.275000X-0.200000X0.275000X-0.200000X0.275000X0.200000X0*%
%ADD14RoundRect,0.225000X-0.250000X0.225000X-0.250000X-0.225000X0.250000X-0.225000X0.250000X0.225000X0*%
%ADD15RoundRect,0.218750X-0.256250X0.218750X-0.256250X-0.218750X0.256250X-0.218750X0.256250X0.218750X0*%
%ADD16RoundRect,0.225000X-0.225000X-0.250000X0.225000X-0.250000X0.225000X0.250000X-0.225000X0.250000X0*%
%ADD17RoundRect,0.225000X0.225000X0.250000X-0.225000X0.250000X-0.225000X-0.250000X0.225000X-0.250000X0*%
%ADD18RoundRect,0.200000X0.275000X-0.200000X0.275000X0.200000X-0.275000X0.200000X-0.275000X-0.200000X0*%
%ADD19R,1.100000X1.100000*%
%ADD20RoundRect,0.225000X0.250000X-0.225000X0.250000X0.225000X-0.250000X0.225000X-0.250000X-0.225000X0*%
%ADD21R,2.000000X0.900000*%
%ADD22R,0.900000X2.000000*%
%ADD23R,5.000000X5.000000*%
%ADD24R,2.000000X1.500000*%
%ADD25R,2.000000X3.800000*%
G04 APERTURE END LIST*
D10*
%TO.C,R2*%
X34480000Y-33655000D03*
X32830000Y-33655000D03*
%TD*%
D11*
%TO.C,Q13*%
X14937500Y-5400000D03*
X14937500Y-7300000D03*
X16812500Y-6350000D03*
%TD*%
D12*
%TO.C,R18*%
X10605000Y-39370000D03*
X12255000Y-39370000D03*
%TD*%
%TO.C,R16*%
X18860000Y-43180000D03*
X20510000Y-43180000D03*
%TD*%
D13*
%TO.C,R9*%
X55530000Y-58510000D03*
X55530000Y-60160000D03*
%TD*%
D12*
%TO.C,R17*%
X7430000Y-39370000D03*
X9080000Y-39370000D03*
%TD*%
%TO.C,R15*%
X10605000Y-42545000D03*
X12255000Y-42545000D03*
%TD*%
D14*
%TO.C,C3*%
X33655000Y-15735000D03*
X33655000Y-17285000D03*
%TD*%
D11*
%TO.C,Q12*%
X14937500Y-9210000D03*
X14937500Y-11110000D03*
X16812500Y-10160000D03*
%TD*%
D12*
%TO.C,R44*%
X8065000Y-635000D03*
X9715000Y-635000D03*
%TD*%
D15*
%TO.C,D1*%
X41910000Y-69887500D03*
X41910000Y-71462500D03*
%TD*%
D16*
%TO.C,C10*%
X18910000Y-33655000D03*
X20460000Y-33655000D03*
%TD*%
D11*
%TO.C,Q7*%
X14937500Y-32070000D03*
X14937500Y-33970000D03*
X16812500Y-33020000D03*
%TD*%
%TO.C,Q4*%
X14937500Y-43500000D03*
X14937500Y-45400000D03*
X16812500Y-44450000D03*
%TD*%
D16*
%TO.C,C16*%
X18910000Y-6985000D03*
X20460000Y-6985000D03*
%TD*%
D13*
%TO.C,R3*%
X52070000Y-37910000D03*
X52070000Y-39560000D03*
%TD*%
D12*
%TO.C,R32*%
X7430000Y-18415000D03*
X9080000Y-18415000D03*
%TD*%
D11*
%TO.C,Q5*%
X14937500Y-39690000D03*
X14937500Y-41590000D03*
X16812500Y-40640000D03*
%TD*%
D12*
%TO.C,R40*%
X18860000Y-8890000D03*
X20510000Y-8890000D03*
%TD*%
D16*
%TO.C,C7*%
X18910000Y-45085000D03*
X20460000Y-45085000D03*
%TD*%
%TO.C,C15*%
X18910000Y-10795000D03*
X20460000Y-10795000D03*
%TD*%
%TO.C,C14*%
X18910000Y-14605000D03*
X20460000Y-14605000D03*
%TD*%
D11*
%TO.C,Q6*%
X14937500Y-35880000D03*
X14937500Y-37780000D03*
X16812500Y-36830000D03*
%TD*%
D16*
%TO.C,C9*%
X18910000Y-37465000D03*
X20460000Y-37465000D03*
%TD*%
%TO.C,C18*%
X18910000Y-26035000D03*
X20460000Y-26035000D03*
%TD*%
D11*
%TO.C,Q1*%
X57767500Y-58385000D03*
X57767500Y-60285000D03*
X59642500Y-59335000D03*
%TD*%
D16*
%TO.C,C19*%
X18910000Y-3175000D03*
X20460000Y-3175000D03*
%TD*%
D17*
%TO.C,C1*%
X12840000Y-61595000D03*
X11290000Y-61595000D03*
%TD*%
D12*
%TO.C,R43*%
X18860000Y-5080000D03*
X20510000Y-5080000D03*
%TD*%
%TO.C,R8*%
X57880000Y-55525000D03*
X59530000Y-55525000D03*
%TD*%
%TO.C,R19*%
X18860000Y-39370000D03*
X20510000Y-39370000D03*
%TD*%
D18*
%TO.C,R7*%
X53975000Y-39560000D03*
X53975000Y-37910000D03*
%TD*%
D19*
%TO.C,D3*%
X63500000Y-67815000D03*
X63500000Y-70615000D03*
%TD*%
D12*
%TO.C,R50*%
X7430000Y-4445000D03*
X9080000Y-4445000D03*
%TD*%
D11*
%TO.C,Q3*%
X57785000Y-81530000D03*
X57785000Y-83430000D03*
X59660000Y-82480000D03*
%TD*%
%TO.C,Q16*%
X14937500Y-1590000D03*
X14937500Y-3490000D03*
X16812500Y-2540000D03*
%TD*%
D12*
%TO.C,R30*%
X10605000Y-21590000D03*
X12255000Y-21590000D03*
%TD*%
%TO.C,R36*%
X10795000Y-14605000D03*
X12445000Y-14605000D03*
%TD*%
D11*
%TO.C,Q10*%
X14937500Y-16830000D03*
X14937500Y-18730000D03*
X16812500Y-17780000D03*
%TD*%
D12*
%TO.C,R47*%
X7430000Y-25400000D03*
X9080000Y-25400000D03*
%TD*%
%TO.C,R49*%
X18860000Y-24130000D03*
X20510000Y-24130000D03*
%TD*%
D14*
%TO.C,C2*%
X36830000Y-4940000D03*
X36830000Y-6490000D03*
%TD*%
D12*
%TO.C,R22*%
X18860000Y-35560000D03*
X20510000Y-35560000D03*
%TD*%
D11*
%TO.C,Q8*%
X14937500Y-28260000D03*
X14937500Y-30160000D03*
X16812500Y-29210000D03*
%TD*%
D12*
%TO.C,R34*%
X18860000Y-16510000D03*
X20510000Y-16510000D03*
%TD*%
%TO.C,R14*%
X7430000Y-42545000D03*
X9080000Y-42545000D03*
%TD*%
%TO.C,R52*%
X18860000Y-1270000D03*
X20510000Y-1270000D03*
%TD*%
%TO.C,R31*%
X18860000Y-20320000D03*
X20510000Y-20320000D03*
%TD*%
D16*
%TO.C,C8*%
X18910000Y-41275000D03*
X20460000Y-41275000D03*
%TD*%
D12*
%TO.C,R23*%
X7430000Y-32385000D03*
X9080000Y-32385000D03*
%TD*%
%TO.C,R28*%
X18860000Y-27940000D03*
X20510000Y-27940000D03*
%TD*%
D20*
%TO.C,C6*%
X40640000Y-57925000D03*
X40640000Y-56375000D03*
%TD*%
D13*
%TO.C,R5*%
X41275000Y-37910000D03*
X41275000Y-39560000D03*
%TD*%
D12*
%TO.C,R29*%
X7430000Y-21590000D03*
X9080000Y-21590000D03*
%TD*%
%TO.C,R12*%
X58230000Y-78355000D03*
X59880000Y-78355000D03*
%TD*%
%TO.C,R10*%
X58230000Y-66675000D03*
X59880000Y-66675000D03*
%TD*%
D11*
%TO.C,Q15*%
X14937500Y-24450000D03*
X14937500Y-26350000D03*
X16812500Y-25400000D03*
%TD*%
D21*
%TO.C,U1*%
X37220000Y-18415000D03*
X37220000Y-19685000D03*
X37220000Y-20955000D03*
X37220000Y-22225000D03*
X37220000Y-23495000D03*
X37220000Y-24765000D03*
X37220000Y-26035000D03*
X37220000Y-27305000D03*
X37220000Y-28575000D03*
X37220000Y-29845000D03*
X37220000Y-31115000D03*
X37220000Y-32385000D03*
X37220000Y-33655000D03*
X37220000Y-34925000D03*
D22*
X40005000Y-35925000D03*
X41275000Y-35925000D03*
X42545000Y-35925000D03*
X43815000Y-35925000D03*
X45085000Y-35925000D03*
X46355000Y-35925000D03*
X47625000Y-35925000D03*
X48895000Y-35925000D03*
X50165000Y-35925000D03*
X51435000Y-35925000D03*
D21*
X54220000Y-34925000D03*
X54220000Y-33655000D03*
X54220000Y-32385000D03*
X54220000Y-31115000D03*
X54220000Y-29845000D03*
X54220000Y-28575000D03*
X54220000Y-27305000D03*
X54220000Y-26035000D03*
X54220000Y-24765000D03*
X54220000Y-23495000D03*
X54220000Y-22225000D03*
X54220000Y-20955000D03*
X54220000Y-19685000D03*
X54220000Y-18415000D03*
D23*
X44720000Y-25915000D03*
%TD*%
D11*
%TO.C,Q11*%
X14937500Y-13020000D03*
X14937500Y-14920000D03*
X16812500Y-13970000D03*
%TD*%
%TO.C,Q9*%
X14937500Y-20640000D03*
X14937500Y-22540000D03*
X16812500Y-21590000D03*
%TD*%
D12*
%TO.C,R24*%
X10605000Y-32385000D03*
X12255000Y-32385000D03*
%TD*%
%TO.C,R35*%
X7430000Y-14605000D03*
X9080000Y-14605000D03*
%TD*%
D19*
%TO.C,D4*%
X63500000Y-79495000D03*
X63500000Y-82295000D03*
%TD*%
D11*
%TO.C,Q2*%
X57482500Y-69535000D03*
X57482500Y-71435000D03*
X59357500Y-70485000D03*
%TD*%
D12*
%TO.C,R51*%
X10605000Y-4445000D03*
X12255000Y-4445000D03*
%TD*%
D13*
%TO.C,R13*%
X55880000Y-81975000D03*
X55880000Y-83625000D03*
%TD*%
D11*
%TO.C,Q14*%
X14937500Y2220000D03*
X14937500Y320000D03*
X16812500Y1270000D03*
%TD*%
D18*
%TO.C,R4*%
X41910000Y-74675000D03*
X41910000Y-73025000D03*
%TD*%
D16*
%TO.C,C12*%
X18910000Y-22225000D03*
X20460000Y-22225000D03*
%TD*%
%TO.C,C17*%
X18910000Y635000D03*
X20460000Y635000D03*
%TD*%
D12*
%TO.C,R26*%
X7430000Y-28575000D03*
X9080000Y-28575000D03*
%TD*%
%TO.C,R48*%
X10605000Y-25400000D03*
X12255000Y-25400000D03*
%TD*%
%TO.C,R38*%
X7430000Y-10795000D03*
X9080000Y-10795000D03*
%TD*%
D13*
%TO.C,R6*%
X50165000Y-37910000D03*
X50165000Y-39560000D03*
%TD*%
D19*
%TO.C,D2*%
X63785000Y-56665000D03*
X63785000Y-59465000D03*
%TD*%
D12*
%TO.C,R20*%
X7430000Y-35560000D03*
X9080000Y-35560000D03*
%TD*%
%TO.C,R39*%
X10605000Y-10795000D03*
X12255000Y-10795000D03*
%TD*%
D24*
%TO.C,U2*%
X44475000Y-71995000D03*
X44475000Y-74295000D03*
D25*
X50775000Y-74295000D03*
D24*
X44475000Y-76595000D03*
%TD*%
D12*
%TO.C,R27*%
X10605000Y-28575000D03*
X12255000Y-28575000D03*
%TD*%
%TO.C,R25*%
X18860000Y-31750000D03*
X20510000Y-31750000D03*
%TD*%
%TO.C,R21*%
X10605000Y-35560000D03*
X12255000Y-35560000D03*
%TD*%
%TO.C,R42*%
X10605000Y-7620000D03*
X12255000Y-7620000D03*
%TD*%
D16*
%TO.C,C13*%
X18910000Y-18415000D03*
X20460000Y-18415000D03*
%TD*%
D12*
%TO.C,R37*%
X18860000Y-12700000D03*
X20510000Y-12700000D03*
%TD*%
%TO.C,R41*%
X7430000Y-7620000D03*
X9080000Y-7620000D03*
%TD*%
%TO.C,R45*%
X11240000Y-635000D03*
X12890000Y-635000D03*
%TD*%
D16*
%TO.C,C11*%
X18910000Y-29845000D03*
X20460000Y-29845000D03*
%TD*%
D12*
%TO.C,R33*%
X10605000Y-18415000D03*
X12255000Y-18415000D03*
%TD*%
D13*
%TO.C,R1*%
X33655000Y-12510000D03*
X33655000Y-14160000D03*
%TD*%
D12*
%TO.C,R46*%
X18860000Y2540000D03*
X20510000Y2540000D03*
%TD*%
D13*
%TO.C,R11*%
X55245000Y-69660000D03*
X55245000Y-71310000D03*
%TD*%
M02*
