%FSLAX45Y45*%
G04 Gerber Fmt 4.5, Leading zero omitted, Abs format (unit mm)*
G04 Created by KiCad (PCBNEW (6.0.0)) date 2022-03-13 20:29:17*
%MOMM*%
%LPD*%
G01*
G04 APERTURE LIST*
%TA.AperFunction,Profile*%
%ADD10C,0.100000*%
%TD*%
%ADD11C,0.200000*%
%ADD12C,0.040000*%
%ADD13C,0.080000*%
%ADD14C,0.100000*%
%ADD15C,0.120000*%
G04 APERTURE END LIST*
D10*
X-381000Y-9207500D02*
G75*
G03*
X0Y-9588500I381000J0D01*
G01*
X9207500Y-9588500D02*
G75*
G03*
X9588500Y-9207500I0J381000D01*
G01*
X0Y381000D02*
G75*
G03*
X-381000Y0I0J-381000D01*
G01*
X9207500Y381000D02*
X0Y381000D01*
X-381000Y-9207500D02*
X-381000Y0D01*
X9588500Y-9207500D02*
X9588500Y0D01*
X9207500Y-9588500D02*
X0Y-9588500D01*
X9588500Y0D02*
G75*
G03*
X9207500Y381000I-381000J0D01*
G01*
D11*
D12*
X1428750Y-4881250D02*
X1468750Y-4921250D01*
X1468750Y-4881250D02*
X1428750Y-4921250D01*
X1567500Y-4933000D02*
X1607500Y-4973000D01*
X1607500Y-4933000D02*
X1567500Y-4973000D01*
X1631000Y-5123500D02*
X1671000Y-5163500D01*
X1671000Y-5123500D02*
X1631000Y-5163500D01*
X1694500Y-43500D02*
X1734500Y-83500D01*
X1734500Y-43500D02*
X1694500Y-83500D01*
X1694500Y-424500D02*
X1734500Y-464500D01*
X1734500Y-424500D02*
X1694500Y-464500D01*
X1694500Y-805500D02*
X1734500Y-845500D01*
X1734500Y-805500D02*
X1694500Y-845500D01*
X1694500Y-1186500D02*
X1734500Y-1226500D01*
X1734500Y-1186500D02*
X1694500Y-1226500D01*
X1694500Y-1567500D02*
X1734500Y-1607500D01*
X1734500Y-1567500D02*
X1694500Y-1607500D01*
X1694500Y-1948500D02*
X1734500Y-1988500D01*
X1734500Y-1948500D02*
X1694500Y-1988500D01*
X1694500Y-2329500D02*
X1734500Y-2369500D01*
X1734500Y-2329500D02*
X1694500Y-2369500D01*
X1694500Y-2710500D02*
X1734500Y-2750500D01*
X1734500Y-2710500D02*
X1694500Y-2750500D01*
X1694500Y-3091500D02*
X1734500Y-3131500D01*
X1734500Y-3091500D02*
X1694500Y-3131500D01*
X1694500Y-3472500D02*
X1734500Y-3512500D01*
X1734500Y-3472500D02*
X1694500Y-3512500D01*
X1694500Y-3853500D02*
X1734500Y-3893500D01*
X1734500Y-3853500D02*
X1694500Y-3893500D01*
X1694500Y-4234500D02*
X1734500Y-4274500D01*
X1734500Y-4234500D02*
X1694500Y-4274500D01*
X1694500Y-4615500D02*
X1734500Y-4655500D01*
X1734500Y-4615500D02*
X1694500Y-4655500D01*
X1758000Y274000D02*
X1798000Y234000D01*
X1798000Y274000D02*
X1758000Y234000D01*
X1758000Y-5250500D02*
X1798000Y-5290500D01*
X1798000Y-5250500D02*
X1758000Y-5290500D01*
X1821500Y-5695000D02*
X1861500Y-5735000D01*
X1861500Y-5695000D02*
X1821500Y-5735000D01*
X2162952Y-3051952D02*
X2202952Y-3091952D01*
X2202952Y-3051952D02*
X2162952Y-3091952D01*
X2162952Y-3448548D02*
X2202952Y-3488548D01*
X2202952Y-3448548D02*
X2162952Y-3488548D01*
X2178548Y-19548D02*
X2218548Y-59548D01*
X2218548Y-19548D02*
X2178548Y-59548D01*
X2178548Y-400548D02*
X2218548Y-440548D01*
X2218548Y-400548D02*
X2178548Y-440548D01*
X2178548Y-781548D02*
X2218548Y-821548D01*
X2218548Y-781548D02*
X2178548Y-821548D01*
X2178548Y-1162548D02*
X2218548Y-1202548D01*
X2218548Y-1162548D02*
X2178548Y-1202548D01*
X2178548Y-1543548D02*
X2218548Y-1583548D01*
X2218548Y-1543548D02*
X2178548Y-1583548D01*
X2178548Y-1924548D02*
X2218548Y-1964548D01*
X2218548Y-1924548D02*
X2178548Y-1964548D01*
X2178548Y-2305548D02*
X2218548Y-2345548D01*
X2218548Y-2305548D02*
X2178548Y-2345548D01*
X2178548Y-2686548D02*
X2218548Y-2726548D01*
X2218548Y-2686548D02*
X2178548Y-2726548D01*
X2178548Y-3829548D02*
X2218548Y-3869548D01*
X2218548Y-3829548D02*
X2178548Y-3869548D01*
X2202500Y-4298000D02*
X2242500Y-4338000D01*
X2242500Y-4298000D02*
X2202500Y-4338000D01*
X2202500Y-4552000D02*
X2242500Y-4592000D01*
X2242500Y-4552000D02*
X2202500Y-4592000D01*
X2266000Y-1377000D02*
X2306000Y-1417000D01*
X2306000Y-1377000D02*
X2266000Y-1417000D01*
X2329500Y-615000D02*
X2369500Y-655000D01*
X2369500Y-615000D02*
X2329500Y-655000D01*
X2329500Y-996000D02*
X2369500Y-1036000D01*
X2369500Y-996000D02*
X2329500Y-1036000D01*
X2329500Y-2202500D02*
X2369500Y-2242500D01*
X2369500Y-2202500D02*
X2329500Y-2242500D01*
X2329500Y-2520000D02*
X2369500Y-2560000D01*
X2369500Y-2520000D02*
X2329500Y-2560000D01*
X2329500Y-2964500D02*
X2369500Y-3004500D01*
X2369500Y-2964500D02*
X2329500Y-3004500D01*
X2376549Y-4377951D02*
X2416549Y-4417951D01*
X2416549Y-4377951D02*
X2376549Y-4417951D01*
X2393000Y-1821500D02*
X2433000Y-1861500D01*
X2433000Y-1821500D02*
X2393000Y-1861500D01*
X2393000Y-3155000D02*
X2433000Y-3195000D01*
X2433000Y-3155000D02*
X2393000Y-3195000D01*
X2393000Y-3536000D02*
X2433000Y-3576000D01*
X2433000Y-3536000D02*
X2393000Y-3576000D01*
X2393000Y-3917000D02*
X2433000Y-3957000D01*
X2433000Y-3917000D02*
X2393000Y-3957000D01*
X2456500Y20000D02*
X2496500Y-20000D01*
X2496500Y20000D02*
X2456500Y-20000D01*
X2456500Y-234000D02*
X2496500Y-274000D01*
X2496500Y-234000D02*
X2456500Y-274000D01*
X2520000Y-3345500D02*
X2560000Y-3385500D01*
X2560000Y-3345500D02*
X2520000Y-3385500D01*
X3218500Y-1250000D02*
X3258500Y-1290000D01*
X3258500Y-1250000D02*
X3218500Y-1290000D01*
X3409000Y-4806000D02*
X3449000Y-4846000D01*
X3449000Y-4806000D02*
X3409000Y-4846000D01*
X3472500Y-1758000D02*
X3512500Y-1798000D01*
X3512500Y-1758000D02*
X3472500Y-1798000D01*
X3726500Y-5123500D02*
X3766500Y-5163500D01*
X3766500Y-5123500D02*
X3726500Y-5163500D01*
X3853500Y-5631500D02*
X3893500Y-5671500D01*
X3893500Y-5631500D02*
X3853500Y-5671500D01*
X3917000Y-1948500D02*
X3957000Y-1988500D01*
X3957000Y-1948500D02*
X3917000Y-1988500D01*
X3980500Y-3345500D02*
X4020500Y-3385500D01*
X4020500Y-3345500D02*
X3980500Y-3385500D01*
X3980500Y-3726500D02*
X4020500Y-3766500D01*
X4020500Y-3726500D02*
X3980500Y-3766500D01*
X3980500Y-4869500D02*
X4020500Y-4909500D01*
X4020500Y-4869500D02*
X3980500Y-4909500D01*
X3980500Y-6838000D02*
X4020500Y-6878000D01*
X4020500Y-6838000D02*
X3980500Y-6878000D01*
X4091049Y-4377951D02*
X4131049Y-4417951D01*
X4131049Y-4377951D02*
X4091049Y-4417951D01*
X4171000Y-4107500D02*
X4211000Y-4147500D01*
X4211000Y-4107500D02*
X4171000Y-4147500D01*
X4298000Y-3917000D02*
X4338000Y-3957000D01*
X4338000Y-3917000D02*
X4298000Y-3957000D01*
X4329750Y-3377250D02*
X4369750Y-3417250D01*
X4369750Y-3377250D02*
X4329750Y-3417250D01*
X4488500Y-3155000D02*
X4528500Y-3195000D01*
X4528500Y-3155000D02*
X4488500Y-3195000D01*
X4552000Y-3282000D02*
X4592000Y-3322000D01*
X4592000Y-3282000D02*
X4552000Y-3322000D01*
X4552000Y-3790000D02*
X4592000Y-3830000D01*
X4592000Y-3790000D02*
X4552000Y-3830000D01*
X4679000Y-3790000D02*
X4719000Y-3830000D01*
X4719000Y-3790000D02*
X4679000Y-3830000D01*
X4933000Y-4933000D02*
X4973000Y-4973000D01*
X4973000Y-4933000D02*
X4933000Y-4973000D01*
X5123500Y-2837500D02*
X5163500Y-2877500D01*
X5163500Y-2837500D02*
X5123500Y-2877500D01*
X5123500Y-2964500D02*
X5163500Y-3004500D01*
X5163500Y-2964500D02*
X5123500Y-3004500D01*
X5123500Y-3091500D02*
X5163500Y-3131500D01*
X5163500Y-3091500D02*
X5123500Y-3131500D01*
X5123500Y-3218500D02*
X5163500Y-3258500D01*
X5163500Y-3218500D02*
X5123500Y-3258500D01*
X5123500Y-3345500D02*
X5163500Y-3385500D01*
X5163500Y-3345500D02*
X5123500Y-3385500D01*
X5187000Y-2456500D02*
X5227000Y-2496500D01*
X5227000Y-2456500D02*
X5187000Y-2496500D01*
X5187000Y-4044000D02*
X5227000Y-4084000D01*
X5227000Y-4044000D02*
X5187000Y-4084000D01*
X5187000Y-4171000D02*
X5227000Y-4211000D01*
X5227000Y-4171000D02*
X5187000Y-4211000D01*
X5199903Y-2088403D02*
X5239903Y-2128403D01*
X5239903Y-2088403D02*
X5199903Y-2128403D01*
X5504500Y-5504500D02*
X5544500Y-5544500D01*
X5544500Y-5504500D02*
X5504500Y-5544500D01*
X5504500Y-6647500D02*
X5544500Y-6687500D01*
X5544500Y-6647500D02*
X5504500Y-6687500D01*
X5504500Y-7854000D02*
X5544500Y-7894000D01*
X5544500Y-7854000D02*
X5504500Y-7894000D01*
X5568000Y-4615500D02*
X5608000Y-4655500D01*
X5608000Y-4615500D02*
X5568000Y-4655500D01*
X5758500Y-4679000D02*
X5798500Y-4719000D01*
X5798500Y-4679000D02*
X5758500Y-4719000D01*
X5949000Y-4679000D02*
X5989000Y-4719000D01*
X5989000Y-4679000D02*
X5949000Y-4719000D01*
X7269597Y-2088403D02*
X7309597Y-2128403D01*
X7309597Y-2088403D02*
X7269597Y-2128403D01*
X7282500Y-7219000D02*
X7322500Y-7259000D01*
X7322500Y-7219000D02*
X7282500Y-7259000D01*
X7409500Y-2393000D02*
X7449500Y-2433000D01*
X7449500Y-2393000D02*
X7409500Y-2433000D01*
X7409500Y-2837500D02*
X7449500Y-2877500D01*
X7449500Y-2837500D02*
X7409500Y-2877500D01*
X7409500Y-7600000D02*
X7449500Y-7640000D01*
X7449500Y-7600000D02*
X7409500Y-7640000D01*
X7437049Y-5341549D02*
X7477049Y-5381549D01*
X7477049Y-5341549D02*
X7437049Y-5381549D01*
X7536500Y-3091500D02*
X7576500Y-3131500D01*
X7576500Y-3091500D02*
X7536500Y-3131500D01*
X7600000Y-6711000D02*
X7640000Y-6751000D01*
X7640000Y-6711000D02*
X7600000Y-6751000D01*
X7790500Y-7854000D02*
X7830500Y-7894000D01*
X7830500Y-7854000D02*
X7790500Y-7894000D01*
X7893951Y-3194951D02*
X7933951Y-3234951D01*
X7933951Y-3194951D02*
X7893951Y-3234951D01*
D13*
X4739000Y-6626511D02*
G75*
G03*
X4739000Y-6626511I-40000J0D01*
G01*
X4739000Y-6826511D02*
G75*
G03*
X4739000Y-6826511I-40000J0D01*
G01*
X4739000Y-8032489D02*
G75*
G03*
X4739000Y-8032489I-40000J0D01*
G01*
X4739000Y-8232489D02*
G75*
G03*
X4739000Y-8232489I-40000J0D01*
G01*
D14*
X1194750Y-6744500D02*
X1194750Y-6844500D01*
X1144750Y-6794500D02*
X1244750Y-6794500D01*
X1194750Y-6998500D02*
X1194750Y-7098500D01*
X1144750Y-7048500D02*
X1244750Y-7048500D01*
X1194750Y-7252500D02*
X1194750Y-7352500D01*
X1144750Y-7302500D02*
X1244750Y-7302500D01*
X1194750Y-7506500D02*
X1194750Y-7606500D01*
X1144750Y-7556500D02*
X1244750Y-7556500D01*
X1194750Y-7760500D02*
X1194750Y-7860500D01*
X1144750Y-7810500D02*
X1244750Y-7810500D01*
X1448750Y-6744500D02*
X1448750Y-6844500D01*
X1398750Y-6794500D02*
X1498750Y-6794500D01*
X1448750Y-6998500D02*
X1448750Y-7098500D01*
X1398750Y-7048500D02*
X1498750Y-7048500D01*
X1448750Y-7252500D02*
X1448750Y-7352500D01*
X1398750Y-7302500D02*
X1498750Y-7302500D01*
X1448750Y-7506500D02*
X1448750Y-7606500D01*
X1398750Y-7556500D02*
X1498750Y-7556500D01*
X1448750Y-7760500D02*
X1448750Y-7860500D01*
X1398750Y-7810500D02*
X1498750Y-7810500D01*
X2540000Y-6809000D02*
X2540000Y-6909000D01*
X2490000Y-6859000D02*
X2590000Y-6859000D01*
X2540000Y-7063000D02*
X2540000Y-7163000D01*
X2490000Y-7113000D02*
X2590000Y-7113000D01*
X2540000Y-7317000D02*
X2540000Y-7417000D01*
X2490000Y-7367000D02*
X2590000Y-7367000D01*
X2540000Y-7571000D02*
X2540000Y-7671000D01*
X2490000Y-7621000D02*
X2590000Y-7621000D01*
X2786500Y-487000D02*
X2786500Y-587000D01*
X2736500Y-537000D02*
X2836500Y-537000D01*
X2786500Y-937000D02*
X2786500Y-1037000D01*
X2736500Y-987000D02*
X2836500Y-987000D01*
X3436500Y-487000D02*
X3436500Y-587000D01*
X3386500Y-537000D02*
X3486500Y-537000D01*
X3436500Y-937000D02*
X3436500Y-1037000D01*
X3386500Y-987000D02*
X3486500Y-987000D01*
X4572000Y-5220500D02*
X4572000Y-5320500D01*
X4522000Y-5270500D02*
X4622000Y-5270500D01*
X4572000Y-5474500D02*
X4572000Y-5574500D01*
X4522000Y-5524500D02*
X4622000Y-5524500D01*
X4572000Y-5728500D02*
X4572000Y-5828500D01*
X4522000Y-5778500D02*
X4622000Y-5778500D01*
X4826000Y-5220500D02*
X4826000Y-5320500D01*
X4776000Y-5270500D02*
X4876000Y-5270500D01*
X4826000Y-5474500D02*
X4826000Y-5574500D01*
X4776000Y-5524500D02*
X4876000Y-5524500D01*
X4826000Y-5728500D02*
X4826000Y-5828500D01*
X4776000Y-5778500D02*
X4876000Y-5778500D01*
X5969000Y-966000D02*
X5969000Y-1066000D01*
X5919000Y-1016000D02*
X6019000Y-1016000D01*
X5969000Y-5030000D02*
X5969000Y-5130000D01*
X5919000Y-5080000D02*
X6019000Y-5080000D01*
X6674000Y-5421500D02*
X6674000Y-5521500D01*
X6624000Y-5471500D02*
X6724000Y-5471500D01*
X6674000Y-6181500D02*
X6674000Y-6281500D01*
X6624000Y-6231500D02*
X6724000Y-6231500D01*
X6674000Y-6564500D02*
X6674000Y-6664500D01*
X6624000Y-6614500D02*
X6724000Y-6614500D01*
X6674000Y-7324500D02*
X6674000Y-7424500D01*
X6624000Y-7374500D02*
X6724000Y-7374500D01*
X6674000Y-7707500D02*
X6674000Y-7807500D01*
X6624000Y-7757500D02*
X6724000Y-7757500D01*
X6674000Y-8467500D02*
X6674000Y-8567500D01*
X6624000Y-8517500D02*
X6724000Y-8517500D01*
X7747000Y-966000D02*
X7747000Y-1066000D01*
X7697000Y-1016000D02*
X7797000Y-1016000D01*
X7747000Y-5030000D02*
X7747000Y-5130000D01*
X7697000Y-5080000D02*
X7797000Y-5080000D01*
X7944000Y-6181500D02*
X7944000Y-6281500D01*
X7894000Y-6231500D02*
X7994000Y-6231500D01*
X7944000Y-7324500D02*
X7944000Y-7424500D01*
X7894000Y-7374500D02*
X7994000Y-7374500D01*
X7944000Y-8467500D02*
X7944000Y-8567500D01*
X7894000Y-8517500D02*
X7994000Y-8517500D01*
X8191500Y-2428000D02*
X8191500Y-2528000D01*
X8141500Y-2478000D02*
X8241500Y-2478000D01*
D11*
X8231500Y-2608000D02*
X8231500Y-2348000D01*
X8151500Y-2608000D02*
X8151500Y-2348000D01*
X8231500Y-2348000D02*
G75*
G03*
X8151500Y-2348000I-40000J0D01*
G01*
X8151500Y-2608000D02*
G75*
G03*
X8231500Y-2608000I40000J0D01*
G01*
D14*
X8198000Y-5421500D02*
X8198000Y-5521500D01*
X8148000Y-5471500D02*
X8248000Y-5471500D01*
X8198000Y-6564500D02*
X8198000Y-6664500D01*
X8148000Y-6614500D02*
X8248000Y-6614500D01*
X8198000Y-7707500D02*
X8198000Y-7807500D01*
X8148000Y-7757500D02*
X8248000Y-7757500D01*
X8481500Y-1948000D02*
X8481500Y-2048000D01*
X8431500Y-1998000D02*
X8531500Y-1998000D01*
D11*
X8371500Y-2038000D02*
X8591500Y-2038000D01*
X8371500Y-1958000D02*
X8591500Y-1958000D01*
X8591500Y-2038000D02*
G75*
G03*
X8591500Y-1958000I0J40000D01*
G01*
X8371500Y-1958000D02*
G75*
G03*
X8371500Y-2038000I0J-40000D01*
G01*
D14*
X8821500Y-2428000D02*
X8821500Y-2528000D01*
X8771500Y-2478000D02*
X8871500Y-2478000D01*
D11*
X8861500Y-2588000D02*
X8861500Y-2368000D01*
X8781500Y-2588000D02*
X8781500Y-2368000D01*
X8861500Y-2368000D02*
G75*
G03*
X8781500Y-2368000I-40000J0D01*
G01*
X8781500Y-2588000D02*
G75*
G03*
X8861500Y-2588000I40000J0D01*
G01*
D15*
X486927Y-105927D02*
X486927Y-21073D01*
X402073Y-21073D01*
X402073Y-105927D01*
X486927Y-105927D01*
X486927Y-455927D02*
X486927Y-371073D01*
X402073Y-371073D01*
X402073Y-455927D01*
X486927Y-455927D01*
X486927Y-805927D02*
X486927Y-721073D01*
X402073Y-721073D01*
X402073Y-805927D01*
X486927Y-805927D01*
X486927Y-1155927D02*
X486927Y-1071073D01*
X402073Y-1071073D01*
X402073Y-1155927D01*
X486927Y-1155927D01*
X486927Y-1505927D02*
X486927Y-1421073D01*
X402073Y-1421073D01*
X402073Y-1505927D01*
X486927Y-1505927D01*
X486927Y-1855927D02*
X486927Y-1771073D01*
X402073Y-1771073D01*
X402073Y-1855927D01*
X486927Y-1855927D01*
X486927Y-2205927D02*
X486927Y-2121073D01*
X402073Y-2121073D01*
X402073Y-2205927D01*
X486927Y-2205927D01*
X486927Y-2555927D02*
X486927Y-2471073D01*
X402073Y-2471073D01*
X402073Y-2555927D01*
X486927Y-2555927D01*
X486927Y-2905927D02*
X486927Y-2821073D01*
X402073Y-2821073D01*
X402073Y-2905927D01*
X486927Y-2905927D01*
X486927Y-3255927D02*
X486927Y-3171073D01*
X402073Y-3171073D01*
X402073Y-3255927D01*
X486927Y-3255927D01*
X486927Y-3605927D02*
X486927Y-3521073D01*
X402073Y-3521073D01*
X402073Y-3605927D01*
X486927Y-3605927D01*
X486927Y-3955927D02*
X486927Y-3871073D01*
X402073Y-3871073D01*
X402073Y-3955927D01*
X486927Y-3955927D01*
X486927Y-4305927D02*
X486927Y-4221073D01*
X402073Y-4221073D01*
X402073Y-4305927D01*
X486927Y-4305927D01*
X486927Y-4931927D02*
X486927Y-4847073D01*
X402073Y-4847073D01*
X402073Y-4931927D01*
X486927Y-4931927D01*
X486927Y-5281927D02*
X486927Y-5197073D01*
X402073Y-5197073D01*
X402073Y-5281927D01*
X486927Y-5281927D01*
X486927Y-5631927D02*
X486927Y-5547073D01*
X402073Y-5547073D01*
X402073Y-5631927D01*
X486927Y-5631927D01*
X486927Y-5981927D02*
X486927Y-5897073D01*
X402073Y-5897073D01*
X402073Y-5981927D01*
X486927Y-5981927D01*
X486927Y-6331927D02*
X486927Y-6247073D01*
X402073Y-6247073D01*
X402073Y-6331927D01*
X486927Y-6331927D01*
X486927Y-6681927D02*
X486927Y-6597073D01*
X402073Y-6597073D01*
X402073Y-6681927D01*
X486927Y-6681927D01*
X486927Y-7031927D02*
X486927Y-6947073D01*
X402073Y-6947073D01*
X402073Y-7031927D01*
X486927Y-7031927D01*
X486927Y-7381927D02*
X486927Y-7297073D01*
X402073Y-7297073D01*
X402073Y-7381927D01*
X486927Y-7381927D01*
X486927Y-7731927D02*
X486927Y-7647073D01*
X402073Y-7647073D01*
X402073Y-7731927D01*
X486927Y-7731927D01*
X486927Y-8081927D02*
X486927Y-7997073D01*
X402073Y-7997073D01*
X402073Y-8081927D01*
X486927Y-8081927D01*
X486927Y-8431927D02*
X486927Y-8347073D01*
X402073Y-8347073D01*
X402073Y-8431927D01*
X486927Y-8431927D01*
X486927Y-8781927D02*
X486927Y-8697073D01*
X402073Y-8697073D01*
X402073Y-8781927D01*
X486927Y-8781927D01*
X486927Y-9131927D02*
X486927Y-9047073D01*
X402073Y-9047073D01*
X402073Y-9131927D01*
X486927Y-9131927D01*
X1884927Y-8766177D02*
X1884927Y-8681323D01*
X1800073Y-8681323D01*
X1800073Y-8766177D01*
X1884927Y-8766177D01*
X2234927Y-8766177D02*
X2234927Y-8681323D01*
X2150073Y-8681323D01*
X2150073Y-8766177D01*
X2234927Y-8766177D01*
X2584927Y-8766177D02*
X2584927Y-8681323D01*
X2500073Y-8681323D01*
X2500073Y-8766177D01*
X2584927Y-8766177D01*
X2934927Y-8766177D02*
X2934927Y-8681323D01*
X2850073Y-8681323D01*
X2850073Y-8766177D01*
X2934927Y-8766177D01*
X3284927Y-8766177D02*
X3284927Y-8681323D01*
X3200073Y-8681323D01*
X3200073Y-8766177D01*
X3284927Y-8766177D01*
X3634927Y-8766177D02*
X3634927Y-8681323D01*
X3550073Y-8681323D01*
X3550073Y-8766177D01*
X3634927Y-8766177D01*
X3984927Y-8766177D02*
X3984927Y-8681323D01*
X3900073Y-8681323D01*
X3900073Y-8766177D01*
X3984927Y-8766177D01*
X4334927Y-8766177D02*
X4334927Y-8681323D01*
X4250073Y-8681323D01*
X4250073Y-8766177D01*
X4334927Y-8766177D01*
X4350427Y-462677D02*
X4350427Y-377823D01*
X4265573Y-377823D01*
X4265573Y-462677D01*
X4350427Y-462677D01*
X4684927Y-8766177D02*
X4684927Y-8681323D01*
X4600073Y-8681323D01*
X4600073Y-8766177D01*
X4684927Y-8766177D01*
X4700427Y-462677D02*
X4700427Y-377823D01*
X4615573Y-377823D01*
X4615573Y-462677D01*
X4700427Y-462677D01*
X5034927Y-8766177D02*
X5034927Y-8681323D01*
X4950073Y-8681323D01*
X4950073Y-8766177D01*
X5034927Y-8766177D01*
X5050427Y-462677D02*
X5050427Y-377823D01*
X4965573Y-377823D01*
X4965573Y-462677D01*
X5050427Y-462677D01*
X5384927Y-8766177D02*
X5384927Y-8681323D01*
X5300073Y-8681323D01*
X5300073Y-8766177D01*
X5384927Y-8766177D01*
X5400427Y-462677D02*
X5400427Y-377823D01*
X5315573Y-377823D01*
X5315573Y-462677D01*
X5400427Y-462677D01*
X5734927Y-8766177D02*
X5734927Y-8681323D01*
X5650073Y-8681323D01*
X5650073Y-8766177D01*
X5734927Y-8766177D01*
X5750427Y-462677D02*
X5750427Y-377823D01*
X5665573Y-377823D01*
X5665573Y-462677D01*
X5750427Y-462677D01*
X6084927Y-8766177D02*
X6084927Y-8681323D01*
X6000073Y-8681323D01*
X6000073Y-8766177D01*
X6084927Y-8766177D01*
X6100427Y-462677D02*
X6100427Y-377823D01*
X6015573Y-377823D01*
X6015573Y-462677D01*
X6100427Y-462677D01*
X6450427Y-462677D02*
X6450427Y-377823D01*
X6365573Y-377823D01*
X6365573Y-462677D01*
X6450427Y-462677D01*
X6800427Y-462677D02*
X6800427Y-377823D01*
X6715573Y-377823D01*
X6715573Y-462677D01*
X6800427Y-462677D01*
X7150427Y-462677D02*
X7150427Y-377823D01*
X7065573Y-377823D01*
X7065573Y-462677D01*
X7150427Y-462677D01*
X7500427Y-462677D02*
X7500427Y-377823D01*
X7415573Y-377823D01*
X7415573Y-462677D01*
X7500427Y-462677D01*
X7850427Y-462677D02*
X7850427Y-377823D01*
X7765573Y-377823D01*
X7765573Y-462677D01*
X7850427Y-462677D01*
X8200427Y-462677D02*
X8200427Y-377823D01*
X8115573Y-377823D01*
X8115573Y-462677D01*
X8200427Y-462677D01*
X8550427Y-462677D02*
X8550427Y-377823D01*
X8465573Y-377823D01*
X8465573Y-462677D01*
X8550427Y-462677D01*
X8805427Y-3407927D02*
X8805427Y-3323073D01*
X8720573Y-3323073D01*
X8720573Y-3407927D01*
X8805427Y-3407927D01*
X8805427Y-3788927D02*
X8805427Y-3704073D01*
X8720573Y-3704073D01*
X8720573Y-3788927D01*
X8805427Y-3788927D01*
X8805427Y-4169927D02*
X8805427Y-4085073D01*
X8720573Y-4085073D01*
X8720573Y-4169927D01*
X8805427Y-4169927D01*
X8805427Y-4868427D02*
X8805427Y-4783573D01*
X8720573Y-4783573D01*
X8720573Y-4868427D01*
X8805427Y-4868427D01*
X8805427Y-5249427D02*
X8805427Y-5164573D01*
X8720573Y-5164573D01*
X8720573Y-5249427D01*
X8805427Y-5249427D01*
X8805427Y-5630427D02*
X8805427Y-5545573D01*
X8720573Y-5545573D01*
X8720573Y-5630427D01*
X8805427Y-5630427D01*
X8805427Y-6328927D02*
X8805427Y-6244073D01*
X8720573Y-6244073D01*
X8720573Y-6328927D01*
X8805427Y-6328927D01*
X8805427Y-6709927D02*
X8805427Y-6625073D01*
X8720573Y-6625073D01*
X8720573Y-6709927D01*
X8805427Y-6709927D01*
X8805427Y-7090927D02*
X8805427Y-7006073D01*
X8720573Y-7006073D01*
X8720573Y-7090927D01*
X8805427Y-7090927D01*
X8805427Y-7789427D02*
X8805427Y-7704573D01*
X8720573Y-7704573D01*
X8720573Y-7789427D01*
X8805427Y-7789427D01*
X8805427Y-8170427D02*
X8805427Y-8085573D01*
X8720573Y-8085573D01*
X8720573Y-8170427D01*
X8805427Y-8170427D01*
X8805427Y-8551427D02*
X8805427Y-8466573D01*
X8720573Y-8466573D01*
X8720573Y-8551427D01*
X8805427Y-8551427D01*
D11*
X-128381Y-9903976D02*
X-128381Y-9703976D01*
X-80762Y-9703976D01*
X-52190Y-9713500D01*
X-33143Y-9732548D01*
X-23619Y-9751595D01*
X-14095Y-9789690D01*
X-14095Y-9818262D01*
X-23619Y-9856357D01*
X-33143Y-9875405D01*
X-52190Y-9894452D01*
X-80762Y-9903976D01*
X-128381Y-9903976D01*
X71619Y-9903976D02*
X71619Y-9770643D01*
X71619Y-9808738D02*
X81143Y-9789690D01*
X90667Y-9780167D01*
X109714Y-9770643D01*
X128762Y-9770643D01*
X195428Y-9903976D02*
X195428Y-9770643D01*
X195428Y-9703976D02*
X185905Y-9713500D01*
X195428Y-9723024D01*
X204952Y-9713500D01*
X195428Y-9703976D01*
X195428Y-9723024D01*
X319238Y-9903976D02*
X300190Y-9894452D01*
X290667Y-9875405D01*
X290667Y-9703976D01*
X424000Y-9903976D02*
X404952Y-9894452D01*
X395428Y-9875405D01*
X395428Y-9703976D01*
X652571Y-9903976D02*
X652571Y-9703976D01*
X719238Y-9846833D01*
X785905Y-9703976D01*
X785905Y-9903976D01*
X966857Y-9903976D02*
X966857Y-9799214D01*
X957333Y-9780167D01*
X938286Y-9770643D01*
X900190Y-9770643D01*
X881143Y-9780167D01*
X966857Y-9894452D02*
X947809Y-9903976D01*
X900190Y-9903976D01*
X881143Y-9894452D01*
X871619Y-9875405D01*
X871619Y-9856357D01*
X881143Y-9837310D01*
X900190Y-9827786D01*
X947809Y-9827786D01*
X966857Y-9818262D01*
X1062095Y-9770643D02*
X1062095Y-9970643D01*
X1062095Y-9780167D02*
X1081143Y-9770643D01*
X1119238Y-9770643D01*
X1138286Y-9780167D01*
X1147810Y-9789690D01*
X1157333Y-9808738D01*
X1157333Y-9865881D01*
X1147810Y-9884929D01*
X1138286Y-9894452D01*
X1119238Y-9903976D01*
X1081143Y-9903976D01*
X1062095Y-9894452D01*
X1243048Y-9884929D02*
X1252571Y-9894452D01*
X1243048Y-9903976D01*
X1233524Y-9894452D01*
X1243048Y-9884929D01*
X1243048Y-9903976D01*
X1243048Y-9780167D02*
X1252571Y-9789690D01*
X1243048Y-9799214D01*
X1233524Y-9789690D01*
X1243048Y-9780167D01*
X1243048Y-9799214D01*
D12*
X-426000Y-10213500D02*
X-386000Y-10253500D01*
X-386000Y-10213500D02*
X-426000Y-10253500D01*
D11*
X-90286Y-10123976D02*
X-71238Y-10123976D01*
X-52190Y-10133500D01*
X-42667Y-10143024D01*
X-33143Y-10162071D01*
X-23619Y-10200167D01*
X-23619Y-10247786D01*
X-33143Y-10285881D01*
X-42667Y-10304929D01*
X-52190Y-10314452D01*
X-71238Y-10323976D01*
X-90286Y-10323976D01*
X-109333Y-10314452D01*
X-118857Y-10304929D01*
X-128381Y-10285881D01*
X-137905Y-10247786D01*
X-137905Y-10200167D01*
X-128381Y-10162071D01*
X-118857Y-10143024D01*
X-109333Y-10133500D01*
X-90286Y-10123976D01*
X62095Y-10304929D02*
X71619Y-10314452D01*
X62095Y-10323976D01*
X52571Y-10314452D01*
X62095Y-10304929D01*
X62095Y-10323976D01*
X243048Y-10190643D02*
X243048Y-10323976D01*
X195428Y-10114452D02*
X147810Y-10257310D01*
X271619Y-10257310D01*
X385905Y-10123976D02*
X404952Y-10123976D01*
X424000Y-10133500D01*
X433524Y-10143024D01*
X443048Y-10162071D01*
X452571Y-10200167D01*
X452571Y-10247786D01*
X443048Y-10285881D01*
X433524Y-10304929D01*
X424000Y-10314452D01*
X404952Y-10323976D01*
X385905Y-10323976D01*
X366857Y-10314452D01*
X357333Y-10304929D01*
X347810Y-10285881D01*
X338286Y-10247786D01*
X338286Y-10200167D01*
X347810Y-10162071D01*
X357333Y-10143024D01*
X366857Y-10133500D01*
X385905Y-10123976D01*
X576381Y-10123976D02*
X595429Y-10123976D01*
X614476Y-10133500D01*
X624000Y-10143024D01*
X633524Y-10162071D01*
X643048Y-10200167D01*
X643048Y-10247786D01*
X633524Y-10285881D01*
X624000Y-10304929D01*
X614476Y-10314452D01*
X595429Y-10323976D01*
X576381Y-10323976D01*
X557333Y-10314452D01*
X547810Y-10304929D01*
X538286Y-10285881D01*
X528762Y-10247786D01*
X528762Y-10200167D01*
X538286Y-10162071D01*
X547810Y-10143024D01*
X557333Y-10133500D01*
X576381Y-10123976D01*
X728762Y-10323976D02*
X728762Y-10190643D01*
X728762Y-10209690D02*
X738286Y-10200167D01*
X757333Y-10190643D01*
X785905Y-10190643D01*
X804952Y-10200167D01*
X814476Y-10219214D01*
X814476Y-10323976D01*
X814476Y-10219214D02*
X824000Y-10200167D01*
X843048Y-10190643D01*
X871619Y-10190643D01*
X890667Y-10200167D01*
X900190Y-10219214D01*
X900190Y-10323976D01*
X995428Y-10323976D02*
X995428Y-10190643D01*
X995428Y-10209690D02*
X1004952Y-10200167D01*
X1024000Y-10190643D01*
X1052571Y-10190643D01*
X1071619Y-10200167D01*
X1081143Y-10219214D01*
X1081143Y-10323976D01*
X1081143Y-10219214D02*
X1090667Y-10200167D01*
X1109714Y-10190643D01*
X1138286Y-10190643D01*
X1157333Y-10200167D01*
X1166857Y-10219214D01*
X1166857Y-10323976D01*
X1557333Y-10114452D02*
X1385905Y-10371595D01*
X1814476Y-10123976D02*
X1833524Y-10123976D01*
X1852571Y-10133500D01*
X1862095Y-10143024D01*
X1871619Y-10162071D01*
X1881143Y-10200167D01*
X1881143Y-10247786D01*
X1871619Y-10285881D01*
X1862095Y-10304929D01*
X1852571Y-10314452D01*
X1833524Y-10323976D01*
X1814476Y-10323976D01*
X1795428Y-10314452D01*
X1785905Y-10304929D01*
X1776381Y-10285881D01*
X1766857Y-10247786D01*
X1766857Y-10200167D01*
X1776381Y-10162071D01*
X1785905Y-10143024D01*
X1795428Y-10133500D01*
X1814476Y-10123976D01*
X1966857Y-10304929D02*
X1976381Y-10314452D01*
X1966857Y-10323976D01*
X1957333Y-10314452D01*
X1966857Y-10304929D01*
X1966857Y-10323976D01*
X2100190Y-10123976D02*
X2119238Y-10123976D01*
X2138286Y-10133500D01*
X2147810Y-10143024D01*
X2157333Y-10162071D01*
X2166857Y-10200167D01*
X2166857Y-10247786D01*
X2157333Y-10285881D01*
X2147810Y-10304929D01*
X2138286Y-10314452D01*
X2119238Y-10323976D01*
X2100190Y-10323976D01*
X2081143Y-10314452D01*
X2071619Y-10304929D01*
X2062095Y-10285881D01*
X2052571Y-10247786D01*
X2052571Y-10200167D01*
X2062095Y-10162071D01*
X2071619Y-10143024D01*
X2081143Y-10133500D01*
X2100190Y-10123976D01*
X2357333Y-10323976D02*
X2243048Y-10323976D01*
X2300190Y-10323976D02*
X2300190Y-10123976D01*
X2281143Y-10152548D01*
X2262095Y-10171595D01*
X2243048Y-10181119D01*
X2538286Y-10123976D02*
X2443048Y-10123976D01*
X2433524Y-10219214D01*
X2443048Y-10209690D01*
X2462095Y-10200167D01*
X2509714Y-10200167D01*
X2528762Y-10209690D01*
X2538286Y-10219214D01*
X2547810Y-10238262D01*
X2547810Y-10285881D01*
X2538286Y-10304929D01*
X2528762Y-10314452D01*
X2509714Y-10323976D01*
X2462095Y-10323976D01*
X2443048Y-10314452D01*
X2433524Y-10304929D01*
X2614476Y-10123976D02*
X2747810Y-10123976D01*
X2662095Y-10323976D01*
X2814476Y-10123976D02*
X2814476Y-10162071D01*
X2890667Y-10123976D02*
X2890667Y-10162071D01*
X3185905Y-10400167D02*
X3176381Y-10390643D01*
X3157333Y-10362071D01*
X3147809Y-10343024D01*
X3138286Y-10314452D01*
X3128762Y-10266833D01*
X3128762Y-10228738D01*
X3138286Y-10181119D01*
X3147809Y-10152548D01*
X3157333Y-10133500D01*
X3176381Y-10104929D01*
X3185905Y-10095405D01*
X3271619Y-10323976D02*
X3309714Y-10323976D01*
X3328762Y-10314452D01*
X3338286Y-10304929D01*
X3357333Y-10276357D01*
X3366857Y-10238262D01*
X3366857Y-10162071D01*
X3357333Y-10143024D01*
X3347809Y-10133500D01*
X3328762Y-10123976D01*
X3290667Y-10123976D01*
X3271619Y-10133500D01*
X3262095Y-10143024D01*
X3252571Y-10162071D01*
X3252571Y-10209690D01*
X3262095Y-10228738D01*
X3271619Y-10238262D01*
X3290667Y-10247786D01*
X3328762Y-10247786D01*
X3347809Y-10238262D01*
X3357333Y-10228738D01*
X3366857Y-10209690D01*
X3490667Y-10123976D02*
X3509714Y-10123976D01*
X3528762Y-10133500D01*
X3538286Y-10143024D01*
X3547809Y-10162071D01*
X3557333Y-10200167D01*
X3557333Y-10247786D01*
X3547809Y-10285881D01*
X3538286Y-10304929D01*
X3528762Y-10314452D01*
X3509714Y-10323976D01*
X3490667Y-10323976D01*
X3471619Y-10314452D01*
X3462095Y-10304929D01*
X3452571Y-10285881D01*
X3443048Y-10247786D01*
X3443048Y-10200167D01*
X3452571Y-10162071D01*
X3462095Y-10143024D01*
X3471619Y-10133500D01*
X3490667Y-10123976D01*
X3795428Y-10323976D02*
X3795428Y-10123976D01*
X3881143Y-10323976D02*
X3881143Y-10219214D01*
X3871619Y-10200167D01*
X3852571Y-10190643D01*
X3824000Y-10190643D01*
X3804952Y-10200167D01*
X3795428Y-10209690D01*
X4004952Y-10323976D02*
X3985905Y-10314452D01*
X3976381Y-10304929D01*
X3966857Y-10285881D01*
X3966857Y-10228738D01*
X3976381Y-10209690D01*
X3985905Y-10200167D01*
X4004952Y-10190643D01*
X4033524Y-10190643D01*
X4052571Y-10200167D01*
X4062095Y-10209690D01*
X4071619Y-10228738D01*
X4071619Y-10285881D01*
X4062095Y-10304929D01*
X4052571Y-10314452D01*
X4033524Y-10323976D01*
X4004952Y-10323976D01*
X4185905Y-10323976D02*
X4166857Y-10314452D01*
X4157333Y-10295405D01*
X4157333Y-10123976D01*
X4338286Y-10314452D02*
X4319238Y-10323976D01*
X4281143Y-10323976D01*
X4262095Y-10314452D01*
X4252571Y-10295405D01*
X4252571Y-10219214D01*
X4262095Y-10200167D01*
X4281143Y-10190643D01*
X4319238Y-10190643D01*
X4338286Y-10200167D01*
X4347810Y-10219214D01*
X4347810Y-10238262D01*
X4252571Y-10257310D01*
X4424000Y-10314452D02*
X4443048Y-10323976D01*
X4481143Y-10323976D01*
X4500190Y-10314452D01*
X4509714Y-10295405D01*
X4509714Y-10285881D01*
X4500190Y-10266833D01*
X4481143Y-10257310D01*
X4452571Y-10257310D01*
X4433524Y-10247786D01*
X4424000Y-10228738D01*
X4424000Y-10219214D01*
X4433524Y-10200167D01*
X4452571Y-10190643D01*
X4481143Y-10190643D01*
X4500190Y-10200167D01*
X4576381Y-10400167D02*
X4585905Y-10390643D01*
X4604952Y-10362071D01*
X4614476Y-10343024D01*
X4624000Y-10314452D01*
X4633524Y-10266833D01*
X4633524Y-10228738D01*
X4624000Y-10181119D01*
X4614476Y-10152548D01*
X4604952Y-10133500D01*
X4585905Y-10104929D01*
X4576381Y-10095405D01*
D13*
X-386000Y-10497500D02*
G75*
G03*
X-386000Y-10497500I-40000J0D01*
G01*
D11*
X-90286Y-10387976D02*
X-71238Y-10387976D01*
X-52190Y-10397500D01*
X-42667Y-10407024D01*
X-33143Y-10426071D01*
X-23619Y-10464167D01*
X-23619Y-10511786D01*
X-33143Y-10549881D01*
X-42667Y-10568929D01*
X-52190Y-10578452D01*
X-71238Y-10587976D01*
X-90286Y-10587976D01*
X-109333Y-10578452D01*
X-118857Y-10568929D01*
X-128381Y-10549881D01*
X-137905Y-10511786D01*
X-137905Y-10464167D01*
X-128381Y-10426071D01*
X-118857Y-10407024D01*
X-109333Y-10397500D01*
X-90286Y-10387976D01*
X62095Y-10568929D02*
X71619Y-10578452D01*
X62095Y-10587976D01*
X52571Y-10578452D01*
X62095Y-10568929D01*
X62095Y-10587976D01*
X185905Y-10473690D02*
X166857Y-10464167D01*
X157333Y-10454643D01*
X147810Y-10435595D01*
X147810Y-10426071D01*
X157333Y-10407024D01*
X166857Y-10397500D01*
X185905Y-10387976D01*
X224000Y-10387976D01*
X243048Y-10397500D01*
X252571Y-10407024D01*
X262095Y-10426071D01*
X262095Y-10435595D01*
X252571Y-10454643D01*
X243048Y-10464167D01*
X224000Y-10473690D01*
X185905Y-10473690D01*
X166857Y-10483214D01*
X157333Y-10492738D01*
X147810Y-10511786D01*
X147810Y-10549881D01*
X157333Y-10568929D01*
X166857Y-10578452D01*
X185905Y-10587976D01*
X224000Y-10587976D01*
X243048Y-10578452D01*
X252571Y-10568929D01*
X262095Y-10549881D01*
X262095Y-10511786D01*
X252571Y-10492738D01*
X243048Y-10483214D01*
X224000Y-10473690D01*
X385905Y-10387976D02*
X404952Y-10387976D01*
X424000Y-10397500D01*
X433524Y-10407024D01*
X443048Y-10426071D01*
X452571Y-10464167D01*
X452571Y-10511786D01*
X443048Y-10549881D01*
X433524Y-10568929D01*
X424000Y-10578452D01*
X404952Y-10587976D01*
X385905Y-10587976D01*
X366857Y-10578452D01*
X357333Y-10568929D01*
X347810Y-10549881D01*
X338286Y-10511786D01*
X338286Y-10464167D01*
X347810Y-10426071D01*
X357333Y-10407024D01*
X366857Y-10397500D01*
X385905Y-10387976D01*
X576381Y-10387976D02*
X595429Y-10387976D01*
X614476Y-10397500D01*
X624000Y-10407024D01*
X633524Y-10426071D01*
X643048Y-10464167D01*
X643048Y-10511786D01*
X633524Y-10549881D01*
X624000Y-10568929D01*
X614476Y-10578452D01*
X595429Y-10587976D01*
X576381Y-10587976D01*
X557333Y-10578452D01*
X547810Y-10568929D01*
X538286Y-10549881D01*
X528762Y-10511786D01*
X528762Y-10464167D01*
X538286Y-10426071D01*
X547810Y-10407024D01*
X557333Y-10397500D01*
X576381Y-10387976D01*
X728762Y-10587976D02*
X728762Y-10454643D01*
X728762Y-10473690D02*
X738286Y-10464167D01*
X757333Y-10454643D01*
X785905Y-10454643D01*
X804952Y-10464167D01*
X814476Y-10483214D01*
X814476Y-10587976D01*
X814476Y-10483214D02*
X824000Y-10464167D01*
X843048Y-10454643D01*
X871619Y-10454643D01*
X890667Y-10464167D01*
X900190Y-10483214D01*
X900190Y-10587976D01*
X995428Y-10587976D02*
X995428Y-10454643D01*
X995428Y-10473690D02*
X1004952Y-10464167D01*
X1024000Y-10454643D01*
X1052571Y-10454643D01*
X1071619Y-10464167D01*
X1081143Y-10483214D01*
X1081143Y-10587976D01*
X1081143Y-10483214D02*
X1090667Y-10464167D01*
X1109714Y-10454643D01*
X1138286Y-10454643D01*
X1157333Y-10464167D01*
X1166857Y-10483214D01*
X1166857Y-10587976D01*
X1557333Y-10378452D02*
X1385905Y-10635595D01*
X1814476Y-10387976D02*
X1833524Y-10387976D01*
X1852571Y-10397500D01*
X1862095Y-10407024D01*
X1871619Y-10426071D01*
X1881143Y-10464167D01*
X1881143Y-10511786D01*
X1871619Y-10549881D01*
X1862095Y-10568929D01*
X1852571Y-10578452D01*
X1833524Y-10587976D01*
X1814476Y-10587976D01*
X1795428Y-10578452D01*
X1785905Y-10568929D01*
X1776381Y-10549881D01*
X1766857Y-10511786D01*
X1766857Y-10464167D01*
X1776381Y-10426071D01*
X1785905Y-10407024D01*
X1795428Y-10397500D01*
X1814476Y-10387976D01*
X1966857Y-10568929D02*
X1976381Y-10578452D01*
X1966857Y-10587976D01*
X1957333Y-10578452D01*
X1966857Y-10568929D01*
X1966857Y-10587976D01*
X2100190Y-10387976D02*
X2119238Y-10387976D01*
X2138286Y-10397500D01*
X2147810Y-10407024D01*
X2157333Y-10426071D01*
X2166857Y-10464167D01*
X2166857Y-10511786D01*
X2157333Y-10549881D01*
X2147810Y-10568929D01*
X2138286Y-10578452D01*
X2119238Y-10587976D01*
X2100190Y-10587976D01*
X2081143Y-10578452D01*
X2071619Y-10568929D01*
X2062095Y-10549881D01*
X2052571Y-10511786D01*
X2052571Y-10464167D01*
X2062095Y-10426071D01*
X2071619Y-10407024D01*
X2081143Y-10397500D01*
X2100190Y-10387976D01*
X2233524Y-10387976D02*
X2357333Y-10387976D01*
X2290667Y-10464167D01*
X2319238Y-10464167D01*
X2338286Y-10473690D01*
X2347810Y-10483214D01*
X2357333Y-10502262D01*
X2357333Y-10549881D01*
X2347810Y-10568929D01*
X2338286Y-10578452D01*
X2319238Y-10587976D01*
X2262095Y-10587976D01*
X2243048Y-10578452D01*
X2233524Y-10568929D01*
X2547810Y-10587976D02*
X2433524Y-10587976D01*
X2490667Y-10587976D02*
X2490667Y-10387976D01*
X2471619Y-10416548D01*
X2452571Y-10435595D01*
X2433524Y-10445119D01*
X2728762Y-10387976D02*
X2633524Y-10387976D01*
X2624000Y-10483214D01*
X2633524Y-10473690D01*
X2652571Y-10464167D01*
X2700190Y-10464167D01*
X2719238Y-10473690D01*
X2728762Y-10483214D01*
X2738286Y-10502262D01*
X2738286Y-10549881D01*
X2728762Y-10568929D01*
X2719238Y-10578452D01*
X2700190Y-10587976D01*
X2652571Y-10587976D01*
X2633524Y-10578452D01*
X2624000Y-10568929D01*
X2814476Y-10387976D02*
X2814476Y-10426071D01*
X2890667Y-10387976D02*
X2890667Y-10426071D01*
X3185905Y-10664167D02*
X3176381Y-10654643D01*
X3157333Y-10626071D01*
X3147809Y-10607024D01*
X3138286Y-10578452D01*
X3128762Y-10530833D01*
X3128762Y-10492738D01*
X3138286Y-10445119D01*
X3147809Y-10416548D01*
X3157333Y-10397500D01*
X3176381Y-10368929D01*
X3185905Y-10359405D01*
X3347809Y-10454643D02*
X3347809Y-10587976D01*
X3300190Y-10378452D02*
X3252571Y-10521310D01*
X3376381Y-10521310D01*
X3604952Y-10587976D02*
X3604952Y-10387976D01*
X3690667Y-10587976D02*
X3690667Y-10483214D01*
X3681143Y-10464167D01*
X3662095Y-10454643D01*
X3633524Y-10454643D01*
X3614476Y-10464167D01*
X3604952Y-10473690D01*
X3814476Y-10587976D02*
X3795428Y-10578452D01*
X3785905Y-10568929D01*
X3776381Y-10549881D01*
X3776381Y-10492738D01*
X3785905Y-10473690D01*
X3795428Y-10464167D01*
X3814476Y-10454643D01*
X3843048Y-10454643D01*
X3862095Y-10464167D01*
X3871619Y-10473690D01*
X3881143Y-10492738D01*
X3881143Y-10549881D01*
X3871619Y-10568929D01*
X3862095Y-10578452D01*
X3843048Y-10587976D01*
X3814476Y-10587976D01*
X3995428Y-10587976D02*
X3976381Y-10578452D01*
X3966857Y-10559405D01*
X3966857Y-10387976D01*
X4147809Y-10578452D02*
X4128762Y-10587976D01*
X4090667Y-10587976D01*
X4071619Y-10578452D01*
X4062095Y-10559405D01*
X4062095Y-10483214D01*
X4071619Y-10464167D01*
X4090667Y-10454643D01*
X4128762Y-10454643D01*
X4147809Y-10464167D01*
X4157333Y-10483214D01*
X4157333Y-10502262D01*
X4062095Y-10521310D01*
X4233524Y-10578452D02*
X4252571Y-10587976D01*
X4290667Y-10587976D01*
X4309714Y-10578452D01*
X4319238Y-10559405D01*
X4319238Y-10549881D01*
X4309714Y-10530833D01*
X4290667Y-10521310D01*
X4262095Y-10521310D01*
X4243048Y-10511786D01*
X4233524Y-10492738D01*
X4233524Y-10483214D01*
X4243048Y-10464167D01*
X4262095Y-10454643D01*
X4290667Y-10454643D01*
X4309714Y-10464167D01*
X4385905Y-10664167D02*
X4395429Y-10654643D01*
X4414476Y-10626071D01*
X4424000Y-10607024D01*
X4433524Y-10578452D01*
X4443048Y-10530833D01*
X4443048Y-10492738D01*
X4433524Y-10445119D01*
X4424000Y-10416548D01*
X4414476Y-10397500D01*
X4395429Y-10368929D01*
X4385905Y-10359405D01*
D14*
X-436000Y-10711500D02*
X-436000Y-10811500D01*
X-486000Y-10761500D02*
X-386000Y-10761500D01*
D11*
X-23619Y-10851976D02*
X-137905Y-10851976D01*
X-80762Y-10851976D02*
X-80762Y-10651976D01*
X-99809Y-10680548D01*
X-118857Y-10699595D01*
X-137905Y-10709119D01*
X62095Y-10832929D02*
X71619Y-10842452D01*
X62095Y-10851976D01*
X52571Y-10842452D01*
X62095Y-10832929D01*
X62095Y-10851976D01*
X195428Y-10651976D02*
X214476Y-10651976D01*
X233524Y-10661500D01*
X243048Y-10671024D01*
X252571Y-10690071D01*
X262095Y-10728167D01*
X262095Y-10775786D01*
X252571Y-10813881D01*
X243048Y-10832929D01*
X233524Y-10842452D01*
X214476Y-10851976D01*
X195428Y-10851976D01*
X176381Y-10842452D01*
X166857Y-10832929D01*
X157333Y-10813881D01*
X147810Y-10775786D01*
X147810Y-10728167D01*
X157333Y-10690071D01*
X166857Y-10671024D01*
X176381Y-10661500D01*
X195428Y-10651976D01*
X385905Y-10651976D02*
X404952Y-10651976D01*
X424000Y-10661500D01*
X433524Y-10671024D01*
X443048Y-10690071D01*
X452571Y-10728167D01*
X452571Y-10775786D01*
X443048Y-10813881D01*
X433524Y-10832929D01*
X424000Y-10842452D01*
X404952Y-10851976D01*
X385905Y-10851976D01*
X366857Y-10842452D01*
X357333Y-10832929D01*
X347810Y-10813881D01*
X338286Y-10775786D01*
X338286Y-10728167D01*
X347810Y-10690071D01*
X357333Y-10671024D01*
X366857Y-10661500D01*
X385905Y-10651976D01*
X576381Y-10651976D02*
X595429Y-10651976D01*
X614476Y-10661500D01*
X624000Y-10671024D01*
X633524Y-10690071D01*
X643048Y-10728167D01*
X643048Y-10775786D01*
X633524Y-10813881D01*
X624000Y-10832929D01*
X614476Y-10842452D01*
X595429Y-10851976D01*
X576381Y-10851976D01*
X557333Y-10842452D01*
X547810Y-10832929D01*
X538286Y-10813881D01*
X528762Y-10775786D01*
X528762Y-10728167D01*
X538286Y-10690071D01*
X547810Y-10671024D01*
X557333Y-10661500D01*
X576381Y-10651976D01*
X728762Y-10851976D02*
X728762Y-10718643D01*
X728762Y-10737690D02*
X738286Y-10728167D01*
X757333Y-10718643D01*
X785905Y-10718643D01*
X804952Y-10728167D01*
X814476Y-10747214D01*
X814476Y-10851976D01*
X814476Y-10747214D02*
X824000Y-10728167D01*
X843048Y-10718643D01*
X871619Y-10718643D01*
X890667Y-10728167D01*
X900190Y-10747214D01*
X900190Y-10851976D01*
X995428Y-10851976D02*
X995428Y-10718643D01*
X995428Y-10737690D02*
X1004952Y-10728167D01*
X1024000Y-10718643D01*
X1052571Y-10718643D01*
X1071619Y-10728167D01*
X1081143Y-10747214D01*
X1081143Y-10851976D01*
X1081143Y-10747214D02*
X1090667Y-10728167D01*
X1109714Y-10718643D01*
X1138286Y-10718643D01*
X1157333Y-10728167D01*
X1166857Y-10747214D01*
X1166857Y-10851976D01*
X1557333Y-10642452D02*
X1385905Y-10899595D01*
X1814476Y-10651976D02*
X1833524Y-10651976D01*
X1852571Y-10661500D01*
X1862095Y-10671024D01*
X1871619Y-10690071D01*
X1881143Y-10728167D01*
X1881143Y-10775786D01*
X1871619Y-10813881D01*
X1862095Y-10832929D01*
X1852571Y-10842452D01*
X1833524Y-10851976D01*
X1814476Y-10851976D01*
X1795428Y-10842452D01*
X1785905Y-10832929D01*
X1776381Y-10813881D01*
X1766857Y-10775786D01*
X1766857Y-10728167D01*
X1776381Y-10690071D01*
X1785905Y-10671024D01*
X1795428Y-10661500D01*
X1814476Y-10651976D01*
X1966857Y-10832929D02*
X1976381Y-10842452D01*
X1966857Y-10851976D01*
X1957333Y-10842452D01*
X1966857Y-10832929D01*
X1966857Y-10851976D01*
X2100190Y-10651976D02*
X2119238Y-10651976D01*
X2138286Y-10661500D01*
X2147810Y-10671024D01*
X2157333Y-10690071D01*
X2166857Y-10728167D01*
X2166857Y-10775786D01*
X2157333Y-10813881D01*
X2147810Y-10832929D01*
X2138286Y-10842452D01*
X2119238Y-10851976D01*
X2100190Y-10851976D01*
X2081143Y-10842452D01*
X2071619Y-10832929D01*
X2062095Y-10813881D01*
X2052571Y-10775786D01*
X2052571Y-10728167D01*
X2062095Y-10690071D01*
X2071619Y-10671024D01*
X2081143Y-10661500D01*
X2100190Y-10651976D01*
X2233524Y-10651976D02*
X2357333Y-10651976D01*
X2290667Y-10728167D01*
X2319238Y-10728167D01*
X2338286Y-10737690D01*
X2347810Y-10747214D01*
X2357333Y-10766262D01*
X2357333Y-10813881D01*
X2347810Y-10832929D01*
X2338286Y-10842452D01*
X2319238Y-10851976D01*
X2262095Y-10851976D01*
X2243048Y-10842452D01*
X2233524Y-10832929D01*
X2452571Y-10851976D02*
X2490667Y-10851976D01*
X2509714Y-10842452D01*
X2519238Y-10832929D01*
X2538286Y-10804357D01*
X2547810Y-10766262D01*
X2547810Y-10690071D01*
X2538286Y-10671024D01*
X2528762Y-10661500D01*
X2509714Y-10651976D01*
X2471619Y-10651976D01*
X2452571Y-10661500D01*
X2443048Y-10671024D01*
X2433524Y-10690071D01*
X2433524Y-10737690D01*
X2443048Y-10756738D01*
X2452571Y-10766262D01*
X2471619Y-10775786D01*
X2509714Y-10775786D01*
X2528762Y-10766262D01*
X2538286Y-10756738D01*
X2547810Y-10737690D01*
X2719238Y-10718643D02*
X2719238Y-10851976D01*
X2671619Y-10642452D02*
X2624000Y-10785310D01*
X2747810Y-10785310D01*
X2814476Y-10651976D02*
X2814476Y-10690071D01*
X2890667Y-10651976D02*
X2890667Y-10690071D01*
X3185905Y-10928167D02*
X3176381Y-10918643D01*
X3157333Y-10890071D01*
X3147809Y-10871024D01*
X3138286Y-10842452D01*
X3128762Y-10794833D01*
X3128762Y-10756738D01*
X3138286Y-10709119D01*
X3147809Y-10680548D01*
X3157333Y-10661500D01*
X3176381Y-10632929D01*
X3185905Y-10623405D01*
X3347809Y-10718643D02*
X3347809Y-10851976D01*
X3300190Y-10642452D02*
X3252571Y-10785310D01*
X3376381Y-10785310D01*
X3490667Y-10651976D02*
X3509714Y-10651976D01*
X3528762Y-10661500D01*
X3538286Y-10671024D01*
X3547809Y-10690071D01*
X3557333Y-10728167D01*
X3557333Y-10775786D01*
X3547809Y-10813881D01*
X3538286Y-10832929D01*
X3528762Y-10842452D01*
X3509714Y-10851976D01*
X3490667Y-10851976D01*
X3471619Y-10842452D01*
X3462095Y-10832929D01*
X3452571Y-10813881D01*
X3443048Y-10775786D01*
X3443048Y-10728167D01*
X3452571Y-10690071D01*
X3462095Y-10671024D01*
X3471619Y-10661500D01*
X3490667Y-10651976D01*
X3795428Y-10851976D02*
X3795428Y-10651976D01*
X3881143Y-10851976D02*
X3881143Y-10747214D01*
X3871619Y-10728167D01*
X3852571Y-10718643D01*
X3824000Y-10718643D01*
X3804952Y-10728167D01*
X3795428Y-10737690D01*
X4004952Y-10851976D02*
X3985905Y-10842452D01*
X3976381Y-10832929D01*
X3966857Y-10813881D01*
X3966857Y-10756738D01*
X3976381Y-10737690D01*
X3985905Y-10728167D01*
X4004952Y-10718643D01*
X4033524Y-10718643D01*
X4052571Y-10728167D01*
X4062095Y-10737690D01*
X4071619Y-10756738D01*
X4071619Y-10813881D01*
X4062095Y-10832929D01*
X4052571Y-10842452D01*
X4033524Y-10851976D01*
X4004952Y-10851976D01*
X4185905Y-10851976D02*
X4166857Y-10842452D01*
X4157333Y-10823405D01*
X4157333Y-10651976D01*
X4338286Y-10842452D02*
X4319238Y-10851976D01*
X4281143Y-10851976D01*
X4262095Y-10842452D01*
X4252571Y-10823405D01*
X4252571Y-10747214D01*
X4262095Y-10728167D01*
X4281143Y-10718643D01*
X4319238Y-10718643D01*
X4338286Y-10728167D01*
X4347810Y-10747214D01*
X4347810Y-10766262D01*
X4252571Y-10785310D01*
X4424000Y-10842452D02*
X4443048Y-10851976D01*
X4481143Y-10851976D01*
X4500190Y-10842452D01*
X4509714Y-10823405D01*
X4509714Y-10813881D01*
X4500190Y-10794833D01*
X4481143Y-10785310D01*
X4452571Y-10785310D01*
X4433524Y-10775786D01*
X4424000Y-10756738D01*
X4424000Y-10747214D01*
X4433524Y-10728167D01*
X4452571Y-10718643D01*
X4481143Y-10718643D01*
X4500190Y-10728167D01*
X4747810Y-10775786D02*
X4900190Y-10775786D01*
X4824000Y-10851976D02*
X4824000Y-10699595D01*
X5128762Y-10651976D02*
X5252571Y-10651976D01*
X5185905Y-10728167D01*
X5214476Y-10728167D01*
X5233524Y-10737690D01*
X5243048Y-10747214D01*
X5252571Y-10766262D01*
X5252571Y-10813881D01*
X5243048Y-10832929D01*
X5233524Y-10842452D01*
X5214476Y-10851976D01*
X5157333Y-10851976D01*
X5138286Y-10842452D01*
X5128762Y-10832929D01*
X5481143Y-10842452D02*
X5500190Y-10851976D01*
X5538286Y-10851976D01*
X5557333Y-10842452D01*
X5566857Y-10823405D01*
X5566857Y-10813881D01*
X5557333Y-10794833D01*
X5538286Y-10785310D01*
X5509714Y-10785310D01*
X5490667Y-10775786D01*
X5481143Y-10756738D01*
X5481143Y-10747214D01*
X5490667Y-10728167D01*
X5509714Y-10718643D01*
X5538286Y-10718643D01*
X5557333Y-10728167D01*
X5681143Y-10851976D02*
X5662095Y-10842452D01*
X5652571Y-10823405D01*
X5652571Y-10651976D01*
X5785905Y-10851976D02*
X5766857Y-10842452D01*
X5757333Y-10832929D01*
X5747809Y-10813881D01*
X5747809Y-10756738D01*
X5757333Y-10737690D01*
X5766857Y-10728167D01*
X5785905Y-10718643D01*
X5814476Y-10718643D01*
X5833524Y-10728167D01*
X5843048Y-10737690D01*
X5852571Y-10756738D01*
X5852571Y-10813881D01*
X5843048Y-10832929D01*
X5833524Y-10842452D01*
X5814476Y-10851976D01*
X5785905Y-10851976D01*
X5909714Y-10718643D02*
X5985905Y-10718643D01*
X5938286Y-10651976D02*
X5938286Y-10823405D01*
X5947809Y-10842452D01*
X5966857Y-10851976D01*
X5985905Y-10851976D01*
X6043048Y-10842452D02*
X6062095Y-10851976D01*
X6100190Y-10851976D01*
X6119238Y-10842452D01*
X6128762Y-10823405D01*
X6128762Y-10813881D01*
X6119238Y-10794833D01*
X6100190Y-10785310D01*
X6071619Y-10785310D01*
X6052571Y-10775786D01*
X6043048Y-10756738D01*
X6043048Y-10747214D01*
X6052571Y-10728167D01*
X6071619Y-10718643D01*
X6100190Y-10718643D01*
X6119238Y-10728167D01*
X6195428Y-10928167D02*
X6204952Y-10918643D01*
X6224000Y-10890071D01*
X6233524Y-10871024D01*
X6243048Y-10842452D01*
X6252571Y-10794833D01*
X6252571Y-10756738D01*
X6243048Y-10709119D01*
X6233524Y-10680548D01*
X6224000Y-10661500D01*
X6204952Y-10632929D01*
X6195428Y-10623405D01*
D15*
X-403573Y-11067927D02*
X-403573Y-10983073D01*
X-488427Y-10983073D01*
X-488427Y-11067927D01*
X-403573Y-11067927D01*
D11*
X-23619Y-11115976D02*
X-137905Y-11115976D01*
X-80762Y-11115976D02*
X-80762Y-10915976D01*
X-99809Y-10944548D01*
X-118857Y-10963595D01*
X-137905Y-10973119D01*
X62095Y-11096929D02*
X71619Y-11106452D01*
X62095Y-11115976D01*
X52571Y-11106452D01*
X62095Y-11096929D01*
X62095Y-11115976D01*
X147810Y-10935024D02*
X157333Y-10925500D01*
X176381Y-10915976D01*
X224000Y-10915976D01*
X243048Y-10925500D01*
X252571Y-10935024D01*
X262095Y-10954071D01*
X262095Y-10973119D01*
X252571Y-11001690D01*
X138286Y-11115976D01*
X262095Y-11115976D01*
X385905Y-10915976D02*
X404952Y-10915976D01*
X424000Y-10925500D01*
X433524Y-10935024D01*
X443048Y-10954071D01*
X452571Y-10992167D01*
X452571Y-11039786D01*
X443048Y-11077881D01*
X433524Y-11096929D01*
X424000Y-11106452D01*
X404952Y-11115976D01*
X385905Y-11115976D01*
X366857Y-11106452D01*
X357333Y-11096929D01*
X347810Y-11077881D01*
X338286Y-11039786D01*
X338286Y-10992167D01*
X347810Y-10954071D01*
X357333Y-10935024D01*
X366857Y-10925500D01*
X385905Y-10915976D01*
X576381Y-10915976D02*
X595429Y-10915976D01*
X614476Y-10925500D01*
X624000Y-10935024D01*
X633524Y-10954071D01*
X643048Y-10992167D01*
X643048Y-11039786D01*
X633524Y-11077881D01*
X624000Y-11096929D01*
X614476Y-11106452D01*
X595429Y-11115976D01*
X576381Y-11115976D01*
X557333Y-11106452D01*
X547810Y-11096929D01*
X538286Y-11077881D01*
X528762Y-11039786D01*
X528762Y-10992167D01*
X538286Y-10954071D01*
X547810Y-10935024D01*
X557333Y-10925500D01*
X576381Y-10915976D01*
X728762Y-11115976D02*
X728762Y-10982643D01*
X728762Y-11001690D02*
X738286Y-10992167D01*
X757333Y-10982643D01*
X785905Y-10982643D01*
X804952Y-10992167D01*
X814476Y-11011214D01*
X814476Y-11115976D01*
X814476Y-11011214D02*
X824000Y-10992167D01*
X843048Y-10982643D01*
X871619Y-10982643D01*
X890667Y-10992167D01*
X900190Y-11011214D01*
X900190Y-11115976D01*
X995428Y-11115976D02*
X995428Y-10982643D01*
X995428Y-11001690D02*
X1004952Y-10992167D01*
X1024000Y-10982643D01*
X1052571Y-10982643D01*
X1071619Y-10992167D01*
X1081143Y-11011214D01*
X1081143Y-11115976D01*
X1081143Y-11011214D02*
X1090667Y-10992167D01*
X1109714Y-10982643D01*
X1138286Y-10982643D01*
X1157333Y-10992167D01*
X1166857Y-11011214D01*
X1166857Y-11115976D01*
X1557333Y-10906452D02*
X1385905Y-11163595D01*
X1814476Y-10915976D02*
X1833524Y-10915976D01*
X1852571Y-10925500D01*
X1862095Y-10935024D01*
X1871619Y-10954071D01*
X1881143Y-10992167D01*
X1881143Y-11039786D01*
X1871619Y-11077881D01*
X1862095Y-11096929D01*
X1852571Y-11106452D01*
X1833524Y-11115976D01*
X1814476Y-11115976D01*
X1795428Y-11106452D01*
X1785905Y-11096929D01*
X1776381Y-11077881D01*
X1766857Y-11039786D01*
X1766857Y-10992167D01*
X1776381Y-10954071D01*
X1785905Y-10935024D01*
X1795428Y-10925500D01*
X1814476Y-10915976D01*
X1966857Y-11096929D02*
X1976381Y-11106452D01*
X1966857Y-11115976D01*
X1957333Y-11106452D01*
X1966857Y-11096929D01*
X1966857Y-11115976D01*
X2100190Y-10915976D02*
X2119238Y-10915976D01*
X2138286Y-10925500D01*
X2147810Y-10935024D01*
X2157333Y-10954071D01*
X2166857Y-10992167D01*
X2166857Y-11039786D01*
X2157333Y-11077881D01*
X2147810Y-11096929D01*
X2138286Y-11106452D01*
X2119238Y-11115976D01*
X2100190Y-11115976D01*
X2081143Y-11106452D01*
X2071619Y-11096929D01*
X2062095Y-11077881D01*
X2052571Y-11039786D01*
X2052571Y-10992167D01*
X2062095Y-10954071D01*
X2071619Y-10935024D01*
X2081143Y-10925500D01*
X2100190Y-10915976D01*
X2338286Y-10982643D02*
X2338286Y-11115976D01*
X2290667Y-10906452D02*
X2243048Y-11049310D01*
X2366857Y-11049310D01*
X2424000Y-10915976D02*
X2557333Y-10915976D01*
X2471619Y-11115976D01*
X2624000Y-10935024D02*
X2633524Y-10925500D01*
X2652571Y-10915976D01*
X2700190Y-10915976D01*
X2719238Y-10925500D01*
X2728762Y-10935024D01*
X2738286Y-10954071D01*
X2738286Y-10973119D01*
X2728762Y-11001690D01*
X2614476Y-11115976D01*
X2738286Y-11115976D01*
X2814476Y-10915976D02*
X2814476Y-10954071D01*
X2890667Y-10915976D02*
X2890667Y-10954071D01*
X3185905Y-11192167D02*
X3176381Y-11182643D01*
X3157333Y-11154071D01*
X3147809Y-11135024D01*
X3138286Y-11106452D01*
X3128762Y-11058833D01*
X3128762Y-11020738D01*
X3138286Y-10973119D01*
X3147809Y-10944548D01*
X3157333Y-10925500D01*
X3176381Y-10896929D01*
X3185905Y-10887405D01*
X3347809Y-10915976D02*
X3309714Y-10915976D01*
X3290667Y-10925500D01*
X3281143Y-10935024D01*
X3262095Y-10963595D01*
X3252571Y-11001690D01*
X3252571Y-11077881D01*
X3262095Y-11096929D01*
X3271619Y-11106452D01*
X3290667Y-11115976D01*
X3328762Y-11115976D01*
X3347809Y-11106452D01*
X3357333Y-11096929D01*
X3366857Y-11077881D01*
X3366857Y-11030262D01*
X3357333Y-11011214D01*
X3347809Y-11001690D01*
X3328762Y-10992167D01*
X3290667Y-10992167D01*
X3271619Y-11001690D01*
X3262095Y-11011214D01*
X3252571Y-11030262D01*
X3538286Y-10982643D02*
X3538286Y-11115976D01*
X3490667Y-10906452D02*
X3443048Y-11049310D01*
X3566857Y-11049310D01*
X3795428Y-11115976D02*
X3795428Y-10915976D01*
X3881143Y-11115976D02*
X3881143Y-11011214D01*
X3871619Y-10992167D01*
X3852571Y-10982643D01*
X3824000Y-10982643D01*
X3804952Y-10992167D01*
X3795428Y-11001690D01*
X4004952Y-11115976D02*
X3985905Y-11106452D01*
X3976381Y-11096929D01*
X3966857Y-11077881D01*
X3966857Y-11020738D01*
X3976381Y-11001690D01*
X3985905Y-10992167D01*
X4004952Y-10982643D01*
X4033524Y-10982643D01*
X4052571Y-10992167D01*
X4062095Y-11001690D01*
X4071619Y-11020738D01*
X4071619Y-11077881D01*
X4062095Y-11096929D01*
X4052571Y-11106452D01*
X4033524Y-11115976D01*
X4004952Y-11115976D01*
X4185905Y-11115976D02*
X4166857Y-11106452D01*
X4157333Y-11087405D01*
X4157333Y-10915976D01*
X4338286Y-11106452D02*
X4319238Y-11115976D01*
X4281143Y-11115976D01*
X4262095Y-11106452D01*
X4252571Y-11087405D01*
X4252571Y-11011214D01*
X4262095Y-10992167D01*
X4281143Y-10982643D01*
X4319238Y-10982643D01*
X4338286Y-10992167D01*
X4347810Y-11011214D01*
X4347810Y-11030262D01*
X4252571Y-11049310D01*
X4424000Y-11106452D02*
X4443048Y-11115976D01*
X4481143Y-11115976D01*
X4500190Y-11106452D01*
X4509714Y-11087405D01*
X4509714Y-11077881D01*
X4500190Y-11058833D01*
X4481143Y-11049310D01*
X4452571Y-11049310D01*
X4433524Y-11039786D01*
X4424000Y-11020738D01*
X4424000Y-11011214D01*
X4433524Y-10992167D01*
X4452571Y-10982643D01*
X4481143Y-10982643D01*
X4500190Y-10992167D01*
X4576381Y-11192167D02*
X4585905Y-11182643D01*
X4604952Y-11154071D01*
X4614476Y-11135024D01*
X4624000Y-11106452D01*
X4633524Y-11058833D01*
X4633524Y-11020738D01*
X4624000Y-10973119D01*
X4614476Y-10944548D01*
X4604952Y-10925500D01*
X4585905Y-10896929D01*
X4576381Y-10887405D01*
M02*
