%FSLAX45Y45*%
G04 Gerber Fmt 4.5, Leading zero omitted, Abs format (unit mm)*
G04 Created by KiCad (PCBNEW (6.0.0)) date 2022-03-13 20:48:32*
%MOMM*%
%LPD*%
G01*
G04 APERTURE LIST*
%TA.AperFunction,Profile*%
%ADD10C,0.100000*%
%TD*%
%ADD11C,0.200000*%
%ADD12C,0.040000*%
%ADD13C,0.100000*%
G04 APERTURE END LIST*
D10*
X17754600Y-7772400D02*
X17754600Y-5740400D01*
X17653000Y-7772400D02*
X17754600Y-7772400D01*
X15392400Y-5740400D02*
X17703800Y-5740400D01*
X17754600Y-5740400D02*
X17703800Y-5740400D01*
X15392400Y-7772400D02*
X17653000Y-7772400D01*
X15392400Y-5740400D02*
X15392400Y-7772400D01*
D11*
D12*
X17036100Y-7561900D02*
X17076100Y-7601900D01*
X17076100Y-7561900D02*
X17036100Y-7601900D01*
X17099600Y-7066600D02*
X17139600Y-7106600D01*
X17139600Y-7066600D02*
X17099600Y-7106600D01*
X17125000Y-6558600D02*
X17165000Y-6598600D01*
X17165000Y-6558600D02*
X17125000Y-6598600D01*
X17252000Y-6101400D02*
X17292000Y-6141400D01*
X17292000Y-6101400D02*
X17252000Y-6141400D01*
X17506000Y-5847400D02*
X17546000Y-5887400D01*
X17546000Y-5847400D02*
X17506000Y-5887400D01*
D13*
X15607500Y-5842000D02*
G75*
G03*
X15607500Y-5842000I-50000J0D01*
G01*
X15607500Y-6096000D02*
G75*
G03*
X15607500Y-6096000I-50000J0D01*
G01*
X15607500Y-6350000D02*
G75*
G03*
X15607500Y-6350000I-50000J0D01*
G01*
X15607500Y-6604000D02*
G75*
G03*
X15607500Y-6604000I-50000J0D01*
G01*
X15607500Y-6858000D02*
G75*
G03*
X15607500Y-6858000I-50000J0D01*
G01*
X15607500Y-7112000D02*
G75*
G03*
X15607500Y-7112000I-50000J0D01*
G01*
X15607500Y-7366000D02*
G75*
G03*
X15607500Y-7366000I-50000J0D01*
G01*
X15607500Y-7620000D02*
G75*
G03*
X15607500Y-7620000I-50000J0D01*
G01*
X17626800Y-7314700D02*
G75*
G03*
X17626800Y-7314700I-50000J0D01*
G01*
X17626800Y-7568700D02*
G75*
G03*
X17626800Y-7568700I-50000J0D01*
G01*
D11*
X15645019Y-8087876D02*
X15645019Y-7887876D01*
X15692638Y-7887876D01*
X15721209Y-7897400D01*
X15740257Y-7916448D01*
X15749781Y-7935495D01*
X15759305Y-7973590D01*
X15759305Y-8002162D01*
X15749781Y-8040257D01*
X15740257Y-8059305D01*
X15721209Y-8078352D01*
X15692638Y-8087876D01*
X15645019Y-8087876D01*
X15845019Y-8087876D02*
X15845019Y-7954543D01*
X15845019Y-7992638D02*
X15854543Y-7973590D01*
X15864067Y-7964067D01*
X15883114Y-7954543D01*
X15902162Y-7954543D01*
X15968828Y-8087876D02*
X15968828Y-7954543D01*
X15968828Y-7887876D02*
X15959305Y-7897400D01*
X15968828Y-7906924D01*
X15978352Y-7897400D01*
X15968828Y-7887876D01*
X15968828Y-7906924D01*
X16092638Y-8087876D02*
X16073590Y-8078352D01*
X16064067Y-8059305D01*
X16064067Y-7887876D01*
X16197400Y-8087876D02*
X16178352Y-8078352D01*
X16168828Y-8059305D01*
X16168828Y-7887876D01*
X16425971Y-8087876D02*
X16425971Y-7887876D01*
X16492638Y-8030733D01*
X16559305Y-7887876D01*
X16559305Y-8087876D01*
X16740257Y-8087876D02*
X16740257Y-7983114D01*
X16730733Y-7964067D01*
X16711686Y-7954543D01*
X16673590Y-7954543D01*
X16654543Y-7964067D01*
X16740257Y-8078352D02*
X16721209Y-8087876D01*
X16673590Y-8087876D01*
X16654543Y-8078352D01*
X16645019Y-8059305D01*
X16645019Y-8040257D01*
X16654543Y-8021209D01*
X16673590Y-8011686D01*
X16721209Y-8011686D01*
X16740257Y-8002162D01*
X16835495Y-7954543D02*
X16835495Y-8154543D01*
X16835495Y-7964067D02*
X16854543Y-7954543D01*
X16892638Y-7954543D01*
X16911686Y-7964067D01*
X16921210Y-7973590D01*
X16930733Y-7992638D01*
X16930733Y-8049781D01*
X16921210Y-8068828D01*
X16911686Y-8078352D01*
X16892638Y-8087876D01*
X16854543Y-8087876D01*
X16835495Y-8078352D01*
X17016448Y-8068828D02*
X17025971Y-8078352D01*
X17016448Y-8087876D01*
X17006924Y-8078352D01*
X17016448Y-8068828D01*
X17016448Y-8087876D01*
X17016448Y-7964067D02*
X17025971Y-7973590D01*
X17016448Y-7983114D01*
X17006924Y-7973590D01*
X17016448Y-7964067D01*
X17016448Y-7983114D01*
D12*
X15347400Y-8397400D02*
X15387400Y-8437400D01*
X15387400Y-8397400D02*
X15347400Y-8437400D01*
D11*
X15683114Y-8307876D02*
X15702162Y-8307876D01*
X15721209Y-8317400D01*
X15730733Y-8326924D01*
X15740257Y-8345971D01*
X15749781Y-8384067D01*
X15749781Y-8431686D01*
X15740257Y-8469781D01*
X15730733Y-8488829D01*
X15721209Y-8498352D01*
X15702162Y-8507876D01*
X15683114Y-8507876D01*
X15664067Y-8498352D01*
X15654543Y-8488829D01*
X15645019Y-8469781D01*
X15635495Y-8431686D01*
X15635495Y-8384067D01*
X15645019Y-8345971D01*
X15654543Y-8326924D01*
X15664067Y-8317400D01*
X15683114Y-8307876D01*
X15835495Y-8488829D02*
X15845019Y-8498352D01*
X15835495Y-8507876D01*
X15825971Y-8498352D01*
X15835495Y-8488829D01*
X15835495Y-8507876D01*
X16016448Y-8374543D02*
X16016448Y-8507876D01*
X15968828Y-8298352D02*
X15921209Y-8441210D01*
X16045019Y-8441210D01*
X16159305Y-8307876D02*
X16178352Y-8307876D01*
X16197400Y-8317400D01*
X16206924Y-8326924D01*
X16216448Y-8345971D01*
X16225971Y-8384067D01*
X16225971Y-8431686D01*
X16216448Y-8469781D01*
X16206924Y-8488829D01*
X16197400Y-8498352D01*
X16178352Y-8507876D01*
X16159305Y-8507876D01*
X16140257Y-8498352D01*
X16130733Y-8488829D01*
X16121209Y-8469781D01*
X16111686Y-8431686D01*
X16111686Y-8384067D01*
X16121209Y-8345971D01*
X16130733Y-8326924D01*
X16140257Y-8317400D01*
X16159305Y-8307876D01*
X16349781Y-8307876D02*
X16368828Y-8307876D01*
X16387876Y-8317400D01*
X16397400Y-8326924D01*
X16406924Y-8345971D01*
X16416448Y-8384067D01*
X16416448Y-8431686D01*
X16406924Y-8469781D01*
X16397400Y-8488829D01*
X16387876Y-8498352D01*
X16368828Y-8507876D01*
X16349781Y-8507876D01*
X16330733Y-8498352D01*
X16321209Y-8488829D01*
X16311686Y-8469781D01*
X16302162Y-8431686D01*
X16302162Y-8384067D01*
X16311686Y-8345971D01*
X16321209Y-8326924D01*
X16330733Y-8317400D01*
X16349781Y-8307876D01*
X16502162Y-8507876D02*
X16502162Y-8374543D01*
X16502162Y-8393590D02*
X16511686Y-8384067D01*
X16530733Y-8374543D01*
X16559305Y-8374543D01*
X16578352Y-8384067D01*
X16587876Y-8403114D01*
X16587876Y-8507876D01*
X16587876Y-8403114D02*
X16597400Y-8384067D01*
X16616448Y-8374543D01*
X16645019Y-8374543D01*
X16664067Y-8384067D01*
X16673590Y-8403114D01*
X16673590Y-8507876D01*
X16768828Y-8507876D02*
X16768828Y-8374543D01*
X16768828Y-8393590D02*
X16778352Y-8384067D01*
X16797400Y-8374543D01*
X16825971Y-8374543D01*
X16845019Y-8384067D01*
X16854543Y-8403114D01*
X16854543Y-8507876D01*
X16854543Y-8403114D02*
X16864067Y-8384067D01*
X16883114Y-8374543D01*
X16911686Y-8374543D01*
X16930733Y-8384067D01*
X16940257Y-8403114D01*
X16940257Y-8507876D01*
X17330733Y-8298352D02*
X17159305Y-8555495D01*
X17587876Y-8307876D02*
X17606924Y-8307876D01*
X17625971Y-8317400D01*
X17635495Y-8326924D01*
X17645019Y-8345971D01*
X17654543Y-8384067D01*
X17654543Y-8431686D01*
X17645019Y-8469781D01*
X17635495Y-8488829D01*
X17625971Y-8498352D01*
X17606924Y-8507876D01*
X17587876Y-8507876D01*
X17568829Y-8498352D01*
X17559305Y-8488829D01*
X17549781Y-8469781D01*
X17540257Y-8431686D01*
X17540257Y-8384067D01*
X17549781Y-8345971D01*
X17559305Y-8326924D01*
X17568829Y-8317400D01*
X17587876Y-8307876D01*
X17740257Y-8488829D02*
X17749781Y-8498352D01*
X17740257Y-8507876D01*
X17730733Y-8498352D01*
X17740257Y-8488829D01*
X17740257Y-8507876D01*
X17873590Y-8307876D02*
X17892638Y-8307876D01*
X17911686Y-8317400D01*
X17921210Y-8326924D01*
X17930733Y-8345971D01*
X17940257Y-8384067D01*
X17940257Y-8431686D01*
X17930733Y-8469781D01*
X17921210Y-8488829D01*
X17911686Y-8498352D01*
X17892638Y-8507876D01*
X17873590Y-8507876D01*
X17854543Y-8498352D01*
X17845019Y-8488829D01*
X17835495Y-8469781D01*
X17825971Y-8431686D01*
X17825971Y-8384067D01*
X17835495Y-8345971D01*
X17845019Y-8326924D01*
X17854543Y-8317400D01*
X17873590Y-8307876D01*
X18130733Y-8507876D02*
X18016448Y-8507876D01*
X18073590Y-8507876D02*
X18073590Y-8307876D01*
X18054543Y-8336448D01*
X18035495Y-8355495D01*
X18016448Y-8365019D01*
X18311686Y-8307876D02*
X18216448Y-8307876D01*
X18206924Y-8403114D01*
X18216448Y-8393590D01*
X18235495Y-8384067D01*
X18283114Y-8384067D01*
X18302162Y-8393590D01*
X18311686Y-8403114D01*
X18321210Y-8422162D01*
X18321210Y-8469781D01*
X18311686Y-8488829D01*
X18302162Y-8498352D01*
X18283114Y-8507876D01*
X18235495Y-8507876D01*
X18216448Y-8498352D01*
X18206924Y-8488829D01*
X18387876Y-8307876D02*
X18521210Y-8307876D01*
X18435495Y-8507876D01*
X18587876Y-8307876D02*
X18587876Y-8345971D01*
X18664067Y-8307876D02*
X18664067Y-8345971D01*
X18959305Y-8584067D02*
X18949781Y-8574543D01*
X18930733Y-8545971D01*
X18921210Y-8526924D01*
X18911686Y-8498352D01*
X18902162Y-8450733D01*
X18902162Y-8412638D01*
X18911686Y-8365019D01*
X18921210Y-8336448D01*
X18930733Y-8317400D01*
X18949781Y-8288828D01*
X18959305Y-8279305D01*
X19130733Y-8307876D02*
X19035495Y-8307876D01*
X19025971Y-8403114D01*
X19035495Y-8393590D01*
X19054543Y-8384067D01*
X19102162Y-8384067D01*
X19121210Y-8393590D01*
X19130733Y-8403114D01*
X19140257Y-8422162D01*
X19140257Y-8469781D01*
X19130733Y-8488829D01*
X19121210Y-8498352D01*
X19102162Y-8507876D01*
X19054543Y-8507876D01*
X19035495Y-8498352D01*
X19025971Y-8488829D01*
X19378352Y-8507876D02*
X19378352Y-8307876D01*
X19464067Y-8507876D02*
X19464067Y-8403114D01*
X19454543Y-8384067D01*
X19435495Y-8374543D01*
X19406924Y-8374543D01*
X19387876Y-8384067D01*
X19378352Y-8393590D01*
X19587876Y-8507876D02*
X19568829Y-8498352D01*
X19559305Y-8488829D01*
X19549781Y-8469781D01*
X19549781Y-8412638D01*
X19559305Y-8393590D01*
X19568829Y-8384067D01*
X19587876Y-8374543D01*
X19616448Y-8374543D01*
X19635495Y-8384067D01*
X19645019Y-8393590D01*
X19654543Y-8412638D01*
X19654543Y-8469781D01*
X19645019Y-8488829D01*
X19635495Y-8498352D01*
X19616448Y-8507876D01*
X19587876Y-8507876D01*
X19768829Y-8507876D02*
X19749781Y-8498352D01*
X19740257Y-8479305D01*
X19740257Y-8307876D01*
X19921210Y-8498352D02*
X19902162Y-8507876D01*
X19864067Y-8507876D01*
X19845019Y-8498352D01*
X19835495Y-8479305D01*
X19835495Y-8403114D01*
X19845019Y-8384067D01*
X19864067Y-8374543D01*
X19902162Y-8374543D01*
X19921210Y-8384067D01*
X19930733Y-8403114D01*
X19930733Y-8422162D01*
X19835495Y-8441210D01*
X20006924Y-8498352D02*
X20025971Y-8507876D01*
X20064067Y-8507876D01*
X20083114Y-8498352D01*
X20092638Y-8479305D01*
X20092638Y-8469781D01*
X20083114Y-8450733D01*
X20064067Y-8441210D01*
X20035495Y-8441210D01*
X20016448Y-8431686D01*
X20006924Y-8412638D01*
X20006924Y-8403114D01*
X20016448Y-8384067D01*
X20035495Y-8374543D01*
X20064067Y-8374543D01*
X20083114Y-8384067D01*
X20159305Y-8584067D02*
X20168829Y-8574543D01*
X20187876Y-8545971D01*
X20197400Y-8526924D01*
X20206924Y-8498352D01*
X20216448Y-8450733D01*
X20216448Y-8412638D01*
X20206924Y-8365019D01*
X20197400Y-8336448D01*
X20187876Y-8317400D01*
X20168829Y-8288828D01*
X20159305Y-8279305D01*
D13*
X15387400Y-8681400D02*
G75*
G03*
X15387400Y-8681400I-50000J0D01*
G01*
D11*
X15749781Y-8771876D02*
X15635495Y-8771876D01*
X15692638Y-8771876D02*
X15692638Y-8571876D01*
X15673590Y-8600448D01*
X15654543Y-8619495D01*
X15635495Y-8629019D01*
X15835495Y-8752829D02*
X15845019Y-8762352D01*
X15835495Y-8771876D01*
X15825971Y-8762352D01*
X15835495Y-8752829D01*
X15835495Y-8771876D01*
X15968828Y-8571876D02*
X15987876Y-8571876D01*
X16006924Y-8581400D01*
X16016448Y-8590924D01*
X16025971Y-8609971D01*
X16035495Y-8648067D01*
X16035495Y-8695686D01*
X16025971Y-8733781D01*
X16016448Y-8752829D01*
X16006924Y-8762352D01*
X15987876Y-8771876D01*
X15968828Y-8771876D01*
X15949781Y-8762352D01*
X15940257Y-8752829D01*
X15930733Y-8733781D01*
X15921209Y-8695686D01*
X15921209Y-8648067D01*
X15930733Y-8609971D01*
X15940257Y-8590924D01*
X15949781Y-8581400D01*
X15968828Y-8571876D01*
X16159305Y-8571876D02*
X16178352Y-8571876D01*
X16197400Y-8581400D01*
X16206924Y-8590924D01*
X16216448Y-8609971D01*
X16225971Y-8648067D01*
X16225971Y-8695686D01*
X16216448Y-8733781D01*
X16206924Y-8752829D01*
X16197400Y-8762352D01*
X16178352Y-8771876D01*
X16159305Y-8771876D01*
X16140257Y-8762352D01*
X16130733Y-8752829D01*
X16121209Y-8733781D01*
X16111686Y-8695686D01*
X16111686Y-8648067D01*
X16121209Y-8609971D01*
X16130733Y-8590924D01*
X16140257Y-8581400D01*
X16159305Y-8571876D01*
X16349781Y-8571876D02*
X16368828Y-8571876D01*
X16387876Y-8581400D01*
X16397400Y-8590924D01*
X16406924Y-8609971D01*
X16416448Y-8648067D01*
X16416448Y-8695686D01*
X16406924Y-8733781D01*
X16397400Y-8752829D01*
X16387876Y-8762352D01*
X16368828Y-8771876D01*
X16349781Y-8771876D01*
X16330733Y-8762352D01*
X16321209Y-8752829D01*
X16311686Y-8733781D01*
X16302162Y-8695686D01*
X16302162Y-8648067D01*
X16311686Y-8609971D01*
X16321209Y-8590924D01*
X16330733Y-8581400D01*
X16349781Y-8571876D01*
X16502162Y-8771876D02*
X16502162Y-8638543D01*
X16502162Y-8657590D02*
X16511686Y-8648067D01*
X16530733Y-8638543D01*
X16559305Y-8638543D01*
X16578352Y-8648067D01*
X16587876Y-8667114D01*
X16587876Y-8771876D01*
X16587876Y-8667114D02*
X16597400Y-8648067D01*
X16616448Y-8638543D01*
X16645019Y-8638543D01*
X16664067Y-8648067D01*
X16673590Y-8667114D01*
X16673590Y-8771876D01*
X16768828Y-8771876D02*
X16768828Y-8638543D01*
X16768828Y-8657590D02*
X16778352Y-8648067D01*
X16797400Y-8638543D01*
X16825971Y-8638543D01*
X16845019Y-8648067D01*
X16854543Y-8667114D01*
X16854543Y-8771876D01*
X16854543Y-8667114D02*
X16864067Y-8648067D01*
X16883114Y-8638543D01*
X16911686Y-8638543D01*
X16930733Y-8648067D01*
X16940257Y-8667114D01*
X16940257Y-8771876D01*
X17330733Y-8562352D02*
X17159305Y-8819495D01*
X17587876Y-8571876D02*
X17606924Y-8571876D01*
X17625971Y-8581400D01*
X17635495Y-8590924D01*
X17645019Y-8609971D01*
X17654543Y-8648067D01*
X17654543Y-8695686D01*
X17645019Y-8733781D01*
X17635495Y-8752829D01*
X17625971Y-8762352D01*
X17606924Y-8771876D01*
X17587876Y-8771876D01*
X17568829Y-8762352D01*
X17559305Y-8752829D01*
X17549781Y-8733781D01*
X17540257Y-8695686D01*
X17540257Y-8648067D01*
X17549781Y-8609971D01*
X17559305Y-8590924D01*
X17568829Y-8581400D01*
X17587876Y-8571876D01*
X17740257Y-8752829D02*
X17749781Y-8762352D01*
X17740257Y-8771876D01*
X17730733Y-8762352D01*
X17740257Y-8752829D01*
X17740257Y-8771876D01*
X17873590Y-8571876D02*
X17892638Y-8571876D01*
X17911686Y-8581400D01*
X17921210Y-8590924D01*
X17930733Y-8609971D01*
X17940257Y-8648067D01*
X17940257Y-8695686D01*
X17930733Y-8733781D01*
X17921210Y-8752829D01*
X17911686Y-8762352D01*
X17892638Y-8771876D01*
X17873590Y-8771876D01*
X17854543Y-8762352D01*
X17845019Y-8752829D01*
X17835495Y-8733781D01*
X17825971Y-8695686D01*
X17825971Y-8648067D01*
X17835495Y-8609971D01*
X17845019Y-8590924D01*
X17854543Y-8581400D01*
X17873590Y-8571876D01*
X18006924Y-8571876D02*
X18130733Y-8571876D01*
X18064067Y-8648067D01*
X18092638Y-8648067D01*
X18111686Y-8657590D01*
X18121210Y-8667114D01*
X18130733Y-8686162D01*
X18130733Y-8733781D01*
X18121210Y-8752829D01*
X18111686Y-8762352D01*
X18092638Y-8771876D01*
X18035495Y-8771876D01*
X18016448Y-8762352D01*
X18006924Y-8752829D01*
X18225971Y-8771876D02*
X18264067Y-8771876D01*
X18283114Y-8762352D01*
X18292638Y-8752829D01*
X18311686Y-8724257D01*
X18321210Y-8686162D01*
X18321210Y-8609971D01*
X18311686Y-8590924D01*
X18302162Y-8581400D01*
X18283114Y-8571876D01*
X18245019Y-8571876D01*
X18225971Y-8581400D01*
X18216448Y-8590924D01*
X18206924Y-8609971D01*
X18206924Y-8657590D01*
X18216448Y-8676638D01*
X18225971Y-8686162D01*
X18245019Y-8695686D01*
X18283114Y-8695686D01*
X18302162Y-8686162D01*
X18311686Y-8676638D01*
X18321210Y-8657590D01*
X18492638Y-8638543D02*
X18492638Y-8771876D01*
X18445019Y-8562352D02*
X18397400Y-8705210D01*
X18521210Y-8705210D01*
X18587876Y-8571876D02*
X18587876Y-8609971D01*
X18664067Y-8571876D02*
X18664067Y-8609971D01*
X18959305Y-8848067D02*
X18949781Y-8838543D01*
X18930733Y-8809971D01*
X18921210Y-8790924D01*
X18911686Y-8762352D01*
X18902162Y-8714733D01*
X18902162Y-8676638D01*
X18911686Y-8629019D01*
X18921210Y-8600448D01*
X18930733Y-8581400D01*
X18949781Y-8552829D01*
X18959305Y-8543305D01*
X19140257Y-8771876D02*
X19025971Y-8771876D01*
X19083114Y-8771876D02*
X19083114Y-8571876D01*
X19064067Y-8600448D01*
X19045019Y-8619495D01*
X19025971Y-8629019D01*
X19264067Y-8571876D02*
X19283114Y-8571876D01*
X19302162Y-8581400D01*
X19311686Y-8590924D01*
X19321210Y-8609971D01*
X19330733Y-8648067D01*
X19330733Y-8695686D01*
X19321210Y-8733781D01*
X19311686Y-8752829D01*
X19302162Y-8762352D01*
X19283114Y-8771876D01*
X19264067Y-8771876D01*
X19245019Y-8762352D01*
X19235495Y-8752829D01*
X19225971Y-8733781D01*
X19216448Y-8695686D01*
X19216448Y-8648067D01*
X19225971Y-8609971D01*
X19235495Y-8590924D01*
X19245019Y-8581400D01*
X19264067Y-8571876D01*
X19568829Y-8771876D02*
X19568829Y-8571876D01*
X19654543Y-8771876D02*
X19654543Y-8667114D01*
X19645019Y-8648067D01*
X19625971Y-8638543D01*
X19597400Y-8638543D01*
X19578352Y-8648067D01*
X19568829Y-8657590D01*
X19778352Y-8771876D02*
X19759305Y-8762352D01*
X19749781Y-8752829D01*
X19740257Y-8733781D01*
X19740257Y-8676638D01*
X19749781Y-8657590D01*
X19759305Y-8648067D01*
X19778352Y-8638543D01*
X19806924Y-8638543D01*
X19825971Y-8648067D01*
X19835495Y-8657590D01*
X19845019Y-8676638D01*
X19845019Y-8733781D01*
X19835495Y-8752829D01*
X19825971Y-8762352D01*
X19806924Y-8771876D01*
X19778352Y-8771876D01*
X19959305Y-8771876D02*
X19940257Y-8762352D01*
X19930733Y-8743305D01*
X19930733Y-8571876D01*
X20111686Y-8762352D02*
X20092638Y-8771876D01*
X20054543Y-8771876D01*
X20035495Y-8762352D01*
X20025971Y-8743305D01*
X20025971Y-8667114D01*
X20035495Y-8648067D01*
X20054543Y-8638543D01*
X20092638Y-8638543D01*
X20111686Y-8648067D01*
X20121210Y-8667114D01*
X20121210Y-8686162D01*
X20025971Y-8705210D01*
X20197400Y-8762352D02*
X20216448Y-8771876D01*
X20254543Y-8771876D01*
X20273590Y-8762352D01*
X20283114Y-8743305D01*
X20283114Y-8733781D01*
X20273590Y-8714733D01*
X20254543Y-8705210D01*
X20225971Y-8705210D01*
X20206924Y-8695686D01*
X20197400Y-8676638D01*
X20197400Y-8667114D01*
X20206924Y-8648067D01*
X20225971Y-8638543D01*
X20254543Y-8638543D01*
X20273590Y-8648067D01*
X20349781Y-8848067D02*
X20359305Y-8838543D01*
X20378352Y-8809971D01*
X20387876Y-8790924D01*
X20397400Y-8762352D01*
X20406924Y-8714733D01*
X20406924Y-8676638D01*
X20397400Y-8629019D01*
X20387876Y-8600448D01*
X20378352Y-8581400D01*
X20359305Y-8552829D01*
X20349781Y-8543305D01*
M02*
