%TF.GenerationSoftware,KiCad,Pcbnew,(6.0.0)*%
%TF.CreationDate,2022-03-13T20:48:30-04:00*%
%TF.ProjectId,dual LED board,6475616c-204c-4454-9420-626f6172642e,rev?*%
%TF.SameCoordinates,Original*%
%TF.FileFunction,Legend,Bot*%
%TF.FilePolarity,Positive*%
%FSLAX46Y46*%
G04 Gerber Fmt 4.6, Leading zero omitted, Abs format (unit mm)*
G04 Created by KiCad (PCBNEW (6.0.0)) date 2022-03-13 20:48:30*
%MOMM*%
%LPD*%
G01*
G04 APERTURE LIST*
%ADD10C,0.150000*%
%ADD11R,1.700000X1.700000*%
%ADD12O,1.700000X1.700000*%
G04 APERTURE END LIST*
D10*
X173616857Y-72652000D02*
X173712095Y-72604380D01*
X173854952Y-72604380D01*
X173997809Y-72652000D01*
X174093047Y-72747238D01*
X174140666Y-72842476D01*
X174188285Y-73032952D01*
X174188285Y-73175809D01*
X174140666Y-73366285D01*
X174093047Y-73461523D01*
X173997809Y-73556761D01*
X173854952Y-73604380D01*
X173759714Y-73604380D01*
X173616857Y-73556761D01*
X173569238Y-73509142D01*
X173569238Y-73175809D01*
X173759714Y-73175809D01*
X173140666Y-72937714D02*
X173140666Y-73604380D01*
X173140666Y-73032952D02*
X173093047Y-72985333D01*
X172997809Y-72937714D01*
X172854952Y-72937714D01*
X172759714Y-72985333D01*
X172712095Y-73080571D01*
X172712095Y-73604380D01*
X171807333Y-73604380D02*
X171807333Y-72604380D01*
X171807333Y-73556761D02*
X171902571Y-73604380D01*
X172093047Y-73604380D01*
X172188285Y-73556761D01*
X172235904Y-73509142D01*
X172283523Y-73413904D01*
X172283523Y-73128190D01*
X172235904Y-73032952D01*
X172188285Y-72985333D01*
X172093047Y-72937714D01*
X171902571Y-72937714D01*
X171807333Y-72985333D01*
X174148571Y-75652380D02*
X173529523Y-75652380D01*
X173862857Y-76033333D01*
X173720000Y-76033333D01*
X173624761Y-76080952D01*
X173577142Y-76128571D01*
X173529523Y-76223809D01*
X173529523Y-76461904D01*
X173577142Y-76557142D01*
X173624761Y-76604761D01*
X173720000Y-76652380D01*
X174005714Y-76652380D01*
X174100952Y-76604761D01*
X174148571Y-76557142D01*
X173100952Y-76557142D02*
X173053333Y-76604761D01*
X173100952Y-76652380D01*
X173148571Y-76604761D01*
X173100952Y-76557142D01*
X173100952Y-76652380D01*
X172720000Y-75652380D02*
X172100952Y-75652380D01*
X172434285Y-76033333D01*
X172291428Y-76033333D01*
X172196190Y-76080952D01*
X172148571Y-76128571D01*
X172100952Y-76223809D01*
X172100952Y-76461904D01*
X172148571Y-76557142D01*
X172196190Y-76604761D01*
X172291428Y-76652380D01*
X172577142Y-76652380D01*
X172672380Y-76604761D01*
X172720000Y-76557142D01*
X171767619Y-75985714D02*
X171529523Y-76652380D01*
X171291428Y-75985714D01*
X170171619Y-58825380D02*
X170171619Y-57825380D01*
X169933523Y-57825380D01*
X169790666Y-57873000D01*
X169695428Y-57968238D01*
X169647809Y-58063476D01*
X169600190Y-58253952D01*
X169600190Y-58396809D01*
X169647809Y-58587285D01*
X169695428Y-58682523D01*
X169790666Y-58777761D01*
X169933523Y-58825380D01*
X170171619Y-58825380D01*
X168743047Y-58158714D02*
X168743047Y-58825380D01*
X169171619Y-58158714D02*
X169171619Y-58682523D01*
X169124000Y-58777761D01*
X169028761Y-58825380D01*
X168885904Y-58825380D01*
X168790666Y-58777761D01*
X168743047Y-58730142D01*
X167838285Y-58825380D02*
X167838285Y-58301571D01*
X167885904Y-58206333D01*
X167981142Y-58158714D01*
X168171619Y-58158714D01*
X168266857Y-58206333D01*
X167838285Y-58777761D02*
X167933523Y-58825380D01*
X168171619Y-58825380D01*
X168266857Y-58777761D01*
X168314476Y-58682523D01*
X168314476Y-58587285D01*
X168266857Y-58492047D01*
X168171619Y-58444428D01*
X167933523Y-58444428D01*
X167838285Y-58396809D01*
X167219238Y-58825380D02*
X167314476Y-58777761D01*
X167362095Y-58682523D01*
X167362095Y-57825380D01*
X165600190Y-58825380D02*
X166076380Y-58825380D01*
X166076380Y-57825380D01*
X165266857Y-58301571D02*
X164933523Y-58301571D01*
X164790666Y-58825380D02*
X165266857Y-58825380D01*
X165266857Y-57825380D01*
X164790666Y-57825380D01*
X164362095Y-58825380D02*
X164362095Y-57825380D01*
X164124000Y-57825380D01*
X163981142Y-57873000D01*
X163885904Y-57968238D01*
X163838285Y-58063476D01*
X163790666Y-58253952D01*
X163790666Y-58396809D01*
X163838285Y-58587285D01*
X163885904Y-58682523D01*
X163981142Y-58777761D01*
X164124000Y-58825380D01*
X164362095Y-58825380D01*
X175433523Y-60435380D02*
X175433523Y-59435380D01*
X175433523Y-60387761D02*
X175528761Y-60435380D01*
X175719238Y-60435380D01*
X175814476Y-60387761D01*
X175862095Y-60340142D01*
X175909714Y-60244904D01*
X175909714Y-59959190D01*
X175862095Y-59863952D01*
X175814476Y-59816333D01*
X175719238Y-59768714D01*
X175528761Y-59768714D01*
X175433523Y-59816333D01*
X174957333Y-60435380D02*
X174957333Y-59768714D01*
X174957333Y-59435380D02*
X175004952Y-59483000D01*
X174957333Y-59530619D01*
X174909714Y-59483000D01*
X174957333Y-59435380D01*
X174957333Y-59530619D01*
X174481142Y-60435380D02*
X174481142Y-59768714D01*
X174481142Y-59959190D02*
X174433523Y-59863952D01*
X174385904Y-59816333D01*
X174290666Y-59768714D01*
X174195428Y-59768714D01*
X173481142Y-60387761D02*
X173576380Y-60435380D01*
X173766857Y-60435380D01*
X173862095Y-60387761D01*
X173909714Y-60292523D01*
X173909714Y-59911571D01*
X173862095Y-59816333D01*
X173766857Y-59768714D01*
X173576380Y-59768714D01*
X173481142Y-59816333D01*
X173433523Y-59911571D01*
X173433523Y-60006809D01*
X173909714Y-60102047D01*
X172576380Y-60387761D02*
X172671619Y-60435380D01*
X172862095Y-60435380D01*
X172957333Y-60387761D01*
X173004952Y-60340142D01*
X173052571Y-60244904D01*
X173052571Y-59959190D01*
X173004952Y-59863952D01*
X172957333Y-59816333D01*
X172862095Y-59768714D01*
X172671619Y-59768714D01*
X172576380Y-59816333D01*
X172290666Y-59768714D02*
X171909714Y-59768714D01*
X172147809Y-59435380D02*
X172147809Y-60292523D01*
X172100190Y-60387761D01*
X172004952Y-60435380D01*
X171909714Y-60435380D01*
X171576380Y-60435380D02*
X171576380Y-59768714D01*
X171576380Y-59435380D02*
X171624000Y-59483000D01*
X171576380Y-59530619D01*
X171528761Y-59483000D01*
X171576380Y-59435380D01*
X171576380Y-59530619D01*
X170957333Y-60435380D02*
X171052571Y-60387761D01*
X171100190Y-60340142D01*
X171147809Y-60244904D01*
X171147809Y-59959190D01*
X171100190Y-59863952D01*
X171052571Y-59816333D01*
X170957333Y-59768714D01*
X170814476Y-59768714D01*
X170719238Y-59816333D01*
X170671619Y-59863952D01*
X170624000Y-59959190D01*
X170624000Y-60244904D01*
X170671619Y-60340142D01*
X170719238Y-60387761D01*
X170814476Y-60435380D01*
X170957333Y-60435380D01*
X170195428Y-59768714D02*
X170195428Y-60435380D01*
X170195428Y-59863952D02*
X170147809Y-59816333D01*
X170052571Y-59768714D01*
X169909714Y-59768714D01*
X169814476Y-59816333D01*
X169766857Y-59911571D01*
X169766857Y-60435380D01*
X168528761Y-60435380D02*
X168528761Y-59768714D01*
X168528761Y-59435380D02*
X168576380Y-59483000D01*
X168528761Y-59530619D01*
X168481142Y-59483000D01*
X168528761Y-59435380D01*
X168528761Y-59530619D01*
X168052571Y-59768714D02*
X168052571Y-60435380D01*
X168052571Y-59863952D02*
X168004952Y-59816333D01*
X167909714Y-59768714D01*
X167766857Y-59768714D01*
X167671619Y-59816333D01*
X167624000Y-59911571D01*
X167624000Y-60435380D01*
X166719238Y-60435380D02*
X166719238Y-59435380D01*
X166719238Y-60387761D02*
X166814476Y-60435380D01*
X167004952Y-60435380D01*
X167100190Y-60387761D01*
X167147809Y-60340142D01*
X167195428Y-60244904D01*
X167195428Y-59959190D01*
X167147809Y-59863952D01*
X167100190Y-59816333D01*
X167004952Y-59768714D01*
X166814476Y-59768714D01*
X166719238Y-59816333D01*
X166243047Y-60435380D02*
X166243047Y-59768714D01*
X166243047Y-59435380D02*
X166290666Y-59483000D01*
X166243047Y-59530619D01*
X166195428Y-59483000D01*
X166243047Y-59435380D01*
X166243047Y-59530619D01*
X165338285Y-60387761D02*
X165433523Y-60435380D01*
X165624000Y-60435380D01*
X165719238Y-60387761D01*
X165766857Y-60340142D01*
X165814476Y-60244904D01*
X165814476Y-59959190D01*
X165766857Y-59863952D01*
X165719238Y-59816333D01*
X165624000Y-59768714D01*
X165433523Y-59768714D01*
X165338285Y-59816333D01*
X164481142Y-60435380D02*
X164481142Y-59911571D01*
X164528761Y-59816333D01*
X164624000Y-59768714D01*
X164814476Y-59768714D01*
X164909714Y-59816333D01*
X164481142Y-60387761D02*
X164576380Y-60435380D01*
X164814476Y-60435380D01*
X164909714Y-60387761D01*
X164957333Y-60292523D01*
X164957333Y-60197285D01*
X164909714Y-60102047D01*
X164814476Y-60054428D01*
X164576380Y-60054428D01*
X164481142Y-60006809D01*
X164147809Y-59768714D02*
X163766857Y-59768714D01*
X164004952Y-59435380D02*
X164004952Y-60292523D01*
X163957333Y-60387761D01*
X163862095Y-60435380D01*
X163766857Y-60435380D01*
X163290666Y-60435380D02*
X163385904Y-60387761D01*
X163433523Y-60340142D01*
X163481142Y-60244904D01*
X163481142Y-59959190D01*
X163433523Y-59863952D01*
X163385904Y-59816333D01*
X163290666Y-59768714D01*
X163147809Y-59768714D01*
X163052571Y-59816333D01*
X163004952Y-59863952D01*
X162957333Y-59959190D01*
X162957333Y-60244904D01*
X163004952Y-60340142D01*
X163052571Y-60387761D01*
X163147809Y-60435380D01*
X163290666Y-60435380D01*
X162528761Y-60435380D02*
X162528761Y-59768714D01*
X162528761Y-59959190D02*
X162481142Y-59863952D01*
X162433523Y-59816333D01*
X162338285Y-59768714D01*
X162243047Y-59768714D01*
X161147809Y-60435380D02*
X161147809Y-59435380D01*
X161147809Y-59816333D02*
X161052571Y-59768714D01*
X160862095Y-59768714D01*
X160766857Y-59816333D01*
X160719238Y-59863952D01*
X160671619Y-59959190D01*
X160671619Y-60244904D01*
X160719238Y-60340142D01*
X160766857Y-60387761D01*
X160862095Y-60435380D01*
X161052571Y-60435380D01*
X161147809Y-60387761D01*
X160100190Y-60435380D02*
X160195428Y-60387761D01*
X160243047Y-60340142D01*
X160290666Y-60244904D01*
X160290666Y-59959190D01*
X160243047Y-59863952D01*
X160195428Y-59816333D01*
X160100190Y-59768714D01*
X159957333Y-59768714D01*
X159862095Y-59816333D01*
X159814476Y-59863952D01*
X159766857Y-59959190D01*
X159766857Y-60244904D01*
X159814476Y-60340142D01*
X159862095Y-60387761D01*
X159957333Y-60435380D01*
X160100190Y-60435380D01*
X158909714Y-60435380D02*
X158909714Y-59911571D01*
X158957333Y-59816333D01*
X159052571Y-59768714D01*
X159243047Y-59768714D01*
X159338285Y-59816333D01*
X158909714Y-60387761D02*
X159004952Y-60435380D01*
X159243047Y-60435380D01*
X159338285Y-60387761D01*
X159385904Y-60292523D01*
X159385904Y-60197285D01*
X159338285Y-60102047D01*
X159243047Y-60054428D01*
X159004952Y-60054428D01*
X158909714Y-60006809D01*
X158433523Y-60435380D02*
X158433523Y-59768714D01*
X158433523Y-59959190D02*
X158385904Y-59863952D01*
X158338285Y-59816333D01*
X158243047Y-59768714D01*
X158147809Y-59768714D01*
X157385904Y-60435380D02*
X157385904Y-59435380D01*
X157385904Y-60387761D02*
X157481142Y-60435380D01*
X157671619Y-60435380D01*
X157766857Y-60387761D01*
X157814476Y-60340142D01*
X157862095Y-60244904D01*
X157862095Y-59959190D01*
X157814476Y-59863952D01*
X157766857Y-59816333D01*
X157671619Y-59768714D01*
X157481142Y-59768714D01*
X157385904Y-59816333D01*
X173385904Y-63655380D02*
X173385904Y-62655380D01*
X173004952Y-62655380D01*
X172909714Y-62703000D01*
X172862095Y-62750619D01*
X172814476Y-62845857D01*
X172814476Y-62988714D01*
X172862095Y-63083952D01*
X172909714Y-63131571D01*
X173004952Y-63179190D01*
X173385904Y-63179190D01*
X172385904Y-63655380D02*
X172385904Y-62988714D01*
X172385904Y-62655380D02*
X172433523Y-62703000D01*
X172385904Y-62750619D01*
X172338285Y-62703000D01*
X172385904Y-62655380D01*
X172385904Y-62750619D01*
X171481142Y-63607761D02*
X171576380Y-63655380D01*
X171766857Y-63655380D01*
X171862095Y-63607761D01*
X171909714Y-63560142D01*
X171957333Y-63464904D01*
X171957333Y-63179190D01*
X171909714Y-63083952D01*
X171862095Y-63036333D01*
X171766857Y-62988714D01*
X171576380Y-62988714D01*
X171481142Y-63036333D01*
X171052571Y-63655380D02*
X171052571Y-62655380D01*
X170957333Y-63274428D02*
X170671619Y-63655380D01*
X170671619Y-62988714D02*
X171052571Y-63369666D01*
X169481142Y-63655380D02*
X169481142Y-62988714D01*
X169481142Y-63179190D02*
X169433523Y-63083952D01*
X169385904Y-63036333D01*
X169290666Y-62988714D01*
X169195428Y-62988714D01*
X168481142Y-63607761D02*
X168576380Y-63655380D01*
X168766857Y-63655380D01*
X168862095Y-63607761D01*
X168909714Y-63512523D01*
X168909714Y-63131571D01*
X168862095Y-63036333D01*
X168766857Y-62988714D01*
X168576380Y-62988714D01*
X168481142Y-63036333D01*
X168433523Y-63131571D01*
X168433523Y-63226809D01*
X168909714Y-63322047D01*
X168052571Y-63607761D02*
X167957333Y-63655380D01*
X167766857Y-63655380D01*
X167671619Y-63607761D01*
X167624000Y-63512523D01*
X167624000Y-63464904D01*
X167671619Y-63369666D01*
X167766857Y-63322047D01*
X167909714Y-63322047D01*
X168004952Y-63274428D01*
X168052571Y-63179190D01*
X168052571Y-63131571D01*
X168004952Y-63036333D01*
X167909714Y-62988714D01*
X167766857Y-62988714D01*
X167671619Y-63036333D01*
X167195428Y-63655380D02*
X167195428Y-62988714D01*
X167195428Y-62655380D02*
X167243047Y-62703000D01*
X167195428Y-62750619D01*
X167147809Y-62703000D01*
X167195428Y-62655380D01*
X167195428Y-62750619D01*
X166766857Y-63607761D02*
X166671619Y-63655380D01*
X166481142Y-63655380D01*
X166385904Y-63607761D01*
X166338285Y-63512523D01*
X166338285Y-63464904D01*
X166385904Y-63369666D01*
X166481142Y-63322047D01*
X166624000Y-63322047D01*
X166719238Y-63274428D01*
X166766857Y-63179190D01*
X166766857Y-63131571D01*
X166719238Y-63036333D01*
X166624000Y-62988714D01*
X166481142Y-62988714D01*
X166385904Y-63036333D01*
X166052571Y-62988714D02*
X165671619Y-62988714D01*
X165909714Y-62655380D02*
X165909714Y-63512523D01*
X165862095Y-63607761D01*
X165766857Y-63655380D01*
X165671619Y-63655380D01*
X165195428Y-63655380D02*
X165290666Y-63607761D01*
X165338285Y-63560142D01*
X165385904Y-63464904D01*
X165385904Y-63179190D01*
X165338285Y-63083952D01*
X165290666Y-63036333D01*
X165195428Y-62988714D01*
X165052571Y-62988714D01*
X164957333Y-63036333D01*
X164909714Y-63083952D01*
X164862095Y-63179190D01*
X164862095Y-63464904D01*
X164909714Y-63560142D01*
X164957333Y-63607761D01*
X165052571Y-63655380D01*
X165195428Y-63655380D01*
X164433523Y-63655380D02*
X164433523Y-62988714D01*
X164433523Y-63179190D02*
X164385904Y-63083952D01*
X164338285Y-63036333D01*
X164243047Y-62988714D01*
X164147809Y-62988714D01*
X163862095Y-63607761D02*
X163766857Y-63655380D01*
X163576380Y-63655380D01*
X163481142Y-63607761D01*
X163433523Y-63512523D01*
X163433523Y-63464904D01*
X163481142Y-63369666D01*
X163576380Y-63322047D01*
X163719238Y-63322047D01*
X163814476Y-63274428D01*
X163862095Y-63179190D01*
X163862095Y-63131571D01*
X163814476Y-63036333D01*
X163719238Y-62988714D01*
X163576380Y-62988714D01*
X163481142Y-63036333D01*
X162385904Y-62988714D02*
X162004952Y-62988714D01*
X162243047Y-63655380D02*
X162243047Y-62798238D01*
X162195428Y-62703000D01*
X162100190Y-62655380D01*
X162004952Y-62655380D01*
X161528761Y-63655380D02*
X161624000Y-63607761D01*
X161671619Y-63560142D01*
X161719238Y-63464904D01*
X161719238Y-63179190D01*
X161671619Y-63083952D01*
X161624000Y-63036333D01*
X161528761Y-62988714D01*
X161385904Y-62988714D01*
X161290666Y-63036333D01*
X161243047Y-63083952D01*
X161195428Y-63179190D01*
X161195428Y-63464904D01*
X161243047Y-63560142D01*
X161290666Y-63607761D01*
X161385904Y-63655380D01*
X161528761Y-63655380D01*
X160766857Y-63655380D02*
X160766857Y-62988714D01*
X160766857Y-63179190D02*
X160719238Y-63083952D01*
X160671619Y-63036333D01*
X160576380Y-62988714D01*
X160481142Y-62988714D01*
X170266857Y-65265380D02*
X170266857Y-64265380D01*
X170266857Y-64646333D02*
X170171619Y-64598714D01*
X169981142Y-64598714D01*
X169885904Y-64646333D01*
X169838285Y-64693952D01*
X169790666Y-64789190D01*
X169790666Y-65074904D01*
X169838285Y-65170142D01*
X169885904Y-65217761D01*
X169981142Y-65265380D01*
X170171619Y-65265380D01*
X170266857Y-65217761D01*
X169362095Y-65265380D02*
X169362095Y-64598714D01*
X169362095Y-64789190D02*
X169314476Y-64693952D01*
X169266857Y-64646333D01*
X169171619Y-64598714D01*
X169076380Y-64598714D01*
X168743047Y-65265380D02*
X168743047Y-64598714D01*
X168743047Y-64265380D02*
X168790666Y-64313000D01*
X168743047Y-64360619D01*
X168695428Y-64313000D01*
X168743047Y-64265380D01*
X168743047Y-64360619D01*
X167838285Y-64598714D02*
X167838285Y-65408238D01*
X167885904Y-65503476D01*
X167933523Y-65551095D01*
X168028761Y-65598714D01*
X168171619Y-65598714D01*
X168266857Y-65551095D01*
X167838285Y-65217761D02*
X167933523Y-65265380D01*
X168124000Y-65265380D01*
X168219238Y-65217761D01*
X168266857Y-65170142D01*
X168314476Y-65074904D01*
X168314476Y-64789190D01*
X168266857Y-64693952D01*
X168219238Y-64646333D01*
X168124000Y-64598714D01*
X167933523Y-64598714D01*
X167838285Y-64646333D01*
X167362095Y-65265380D02*
X167362095Y-64265380D01*
X166933523Y-65265380D02*
X166933523Y-64741571D01*
X166981142Y-64646333D01*
X167076380Y-64598714D01*
X167219238Y-64598714D01*
X167314476Y-64646333D01*
X167362095Y-64693952D01*
X166600190Y-64598714D02*
X166219238Y-64598714D01*
X166457333Y-64265380D02*
X166457333Y-65122523D01*
X166409714Y-65217761D01*
X166314476Y-65265380D01*
X166219238Y-65265380D01*
X165885904Y-64598714D02*
X165885904Y-65265380D01*
X165885904Y-64693952D02*
X165838285Y-64646333D01*
X165743047Y-64598714D01*
X165600190Y-64598714D01*
X165504952Y-64646333D01*
X165457333Y-64741571D01*
X165457333Y-65265380D01*
X164600190Y-65217761D02*
X164695428Y-65265380D01*
X164885904Y-65265380D01*
X164981142Y-65217761D01*
X165028761Y-65122523D01*
X165028761Y-64741571D01*
X164981142Y-64646333D01*
X164885904Y-64598714D01*
X164695428Y-64598714D01*
X164600190Y-64646333D01*
X164552571Y-64741571D01*
X164552571Y-64836809D01*
X165028761Y-64932047D01*
X164171619Y-65217761D02*
X164076380Y-65265380D01*
X163885904Y-65265380D01*
X163790666Y-65217761D01*
X163743047Y-65122523D01*
X163743047Y-65074904D01*
X163790666Y-64979666D01*
X163885904Y-64932047D01*
X164028761Y-64932047D01*
X164124000Y-64884428D01*
X164171619Y-64789190D01*
X164171619Y-64741571D01*
X164124000Y-64646333D01*
X164028761Y-64598714D01*
X163885904Y-64598714D01*
X163790666Y-64646333D01*
X163362095Y-65217761D02*
X163266857Y-65265380D01*
X163076380Y-65265380D01*
X162981142Y-65217761D01*
X162933523Y-65122523D01*
X162933523Y-65074904D01*
X162981142Y-64979666D01*
X163076380Y-64932047D01*
X163219238Y-64932047D01*
X163314476Y-64884428D01*
X163362095Y-64789190D01*
X163362095Y-64741571D01*
X163314476Y-64646333D01*
X163219238Y-64598714D01*
X163076380Y-64598714D01*
X162981142Y-64646333D01*
X167504952Y-68485380D02*
X167981142Y-68485380D01*
X167981142Y-67485380D01*
X167171619Y-67961571D02*
X166838285Y-67961571D01*
X166695428Y-68485380D02*
X167171619Y-68485380D01*
X167171619Y-67485380D01*
X166695428Y-67485380D01*
X166266857Y-68485380D02*
X166266857Y-67485380D01*
X166028761Y-67485380D01*
X165885904Y-67533000D01*
X165790666Y-67628238D01*
X165743047Y-67723476D01*
X165695428Y-67913952D01*
X165695428Y-68056809D01*
X165743047Y-68247285D01*
X165790666Y-68342523D01*
X165885904Y-68437761D01*
X166028761Y-68485380D01*
X166266857Y-68485380D01*
X165266857Y-68390142D02*
X165219238Y-68437761D01*
X165266857Y-68485380D01*
X165314476Y-68437761D01*
X165266857Y-68390142D01*
X165266857Y-68485380D01*
X165266857Y-67866333D02*
X165219238Y-67913952D01*
X165266857Y-67961571D01*
X165314476Y-67913952D01*
X165266857Y-67866333D01*
X165266857Y-67961571D01*
X171362095Y-69095380D02*
X170695428Y-70095380D01*
X170695428Y-69095380D02*
X171362095Y-70095380D01*
X170409714Y-69095380D02*
X169743047Y-69095380D01*
X170409714Y-70095380D01*
X169743047Y-70095380D01*
X169362095Y-70095380D02*
X169362095Y-69095380D01*
X169028761Y-69809666D01*
X168695428Y-69095380D01*
X168695428Y-70095380D01*
X168219238Y-70095380D02*
X168219238Y-69095380D01*
X167981142Y-69095380D01*
X167838285Y-69143000D01*
X167743047Y-69238238D01*
X167695428Y-69333476D01*
X167647809Y-69523952D01*
X167647809Y-69666809D01*
X167695428Y-69857285D01*
X167743047Y-69952523D01*
X167838285Y-70047761D01*
X167981142Y-70095380D01*
X168219238Y-70095380D01*
X167219238Y-70095380D02*
X167219238Y-69095380D01*
X166647809Y-70095380D02*
X167076380Y-69523952D01*
X166647809Y-69095380D02*
X167219238Y-69666809D01*
X166362095Y-69095380D02*
X166028761Y-70095380D01*
X165695428Y-69095380D01*
X164838285Y-69143000D02*
X164933523Y-69095380D01*
X165076380Y-69095380D01*
X165219238Y-69143000D01*
X165314476Y-69238238D01*
X165362095Y-69333476D01*
X165409714Y-69523952D01*
X165409714Y-69666809D01*
X165362095Y-69857285D01*
X165314476Y-69952523D01*
X165219238Y-70047761D01*
X165076380Y-70095380D01*
X164981142Y-70095380D01*
X164838285Y-70047761D01*
X164790666Y-70000142D01*
X164790666Y-69666809D01*
X164981142Y-69666809D01*
X163933523Y-69428714D02*
X163933523Y-70095380D01*
X164171619Y-69047761D02*
X164409714Y-69762047D01*
X163790666Y-69762047D01*
X162933523Y-69095380D02*
X163409714Y-69095380D01*
X163457333Y-69571571D01*
X163409714Y-69523952D01*
X163314476Y-69476333D01*
X163076380Y-69476333D01*
X162981142Y-69523952D01*
X162933523Y-69571571D01*
X162885904Y-69666809D01*
X162885904Y-69904904D01*
X162933523Y-70000142D01*
X162981142Y-70047761D01*
X163076380Y-70095380D01*
X163314476Y-70095380D01*
X163409714Y-70047761D01*
X163457333Y-70000142D01*
X162504952Y-70047761D02*
X162362095Y-70095380D01*
X162124000Y-70095380D01*
X162028761Y-70047761D01*
X161981142Y-70000142D01*
X161933523Y-69904904D01*
X161933523Y-69809666D01*
X161981142Y-69714428D01*
X162028761Y-69666809D01*
X162124000Y-69619190D01*
X162314476Y-69571571D01*
X162409714Y-69523952D01*
X162457333Y-69476333D01*
X162504952Y-69381095D01*
X162504952Y-69285857D01*
X162457333Y-69190619D01*
X162409714Y-69143000D01*
X162314476Y-69095380D01*
X162076380Y-69095380D01*
X161933523Y-69143000D01*
%TO.C,G\u002A\u002A\u002A*%
G36*
X162901389Y-75180644D02*
G01*
X162894887Y-75224692D01*
X162883432Y-75261065D01*
X162866383Y-75291840D01*
X162843101Y-75319091D01*
X162827543Y-75333032D01*
X162786530Y-75358863D01*
X162741542Y-75373036D01*
X162706314Y-75375788D01*
X162665745Y-75373121D01*
X162628517Y-75365277D01*
X162602930Y-75354783D01*
X162565903Y-75329732D01*
X162534822Y-75296289D01*
X162512305Y-75256896D01*
X162507959Y-75243802D01*
X162501969Y-75212798D01*
X162498166Y-75174595D01*
X162496555Y-75132443D01*
X162496688Y-75122622D01*
X162597396Y-75122622D01*
X162598009Y-75151827D01*
X162601610Y-75191015D01*
X162608818Y-75220494D01*
X162620071Y-75241791D01*
X162635807Y-75256431D01*
X162635842Y-75256454D01*
X162665699Y-75269496D01*
X162698910Y-75273697D01*
X162731383Y-75269083D01*
X162759031Y-75255678D01*
X162768491Y-75248094D01*
X162781977Y-75233574D01*
X162791170Y-75216180D01*
X162796813Y-75193524D01*
X162799653Y-75163214D01*
X162800434Y-75122860D01*
X162800432Y-75119198D01*
X162800118Y-75086228D01*
X162799024Y-75062807D01*
X162796802Y-75046236D01*
X162793107Y-75033818D01*
X162787593Y-75022856D01*
X162772118Y-75002609D01*
X162746291Y-74983528D01*
X162716772Y-74973446D01*
X162686039Y-74972361D01*
X162656569Y-74980271D01*
X162630838Y-74997171D01*
X162611325Y-75023059D01*
X162605672Y-75035271D01*
X162601343Y-75049273D01*
X162598811Y-75066421D01*
X162597641Y-75089832D01*
X162597396Y-75122622D01*
X162496688Y-75122622D01*
X162497137Y-75089595D01*
X162499916Y-75049300D01*
X162504894Y-75014811D01*
X162512074Y-74989377D01*
X162521503Y-74969878D01*
X162548757Y-74932228D01*
X162583129Y-74902967D01*
X162622824Y-74882456D01*
X162666045Y-74871056D01*
X162710997Y-74869129D01*
X162755884Y-74877034D01*
X162798911Y-74895134D01*
X162838281Y-74923789D01*
X162847752Y-74932975D01*
X162869751Y-74959849D01*
X162885622Y-74990103D01*
X162896076Y-75025908D01*
X162901826Y-75069437D01*
X162903584Y-75122860D01*
X162903576Y-75126846D01*
X162901389Y-75180644D01*
G37*
G36*
X161234188Y-75655965D02*
G01*
X161274323Y-75667909D01*
X161309490Y-75690115D01*
X161334448Y-75711479D01*
X161334448Y-75660492D01*
X161434473Y-75660492D01*
X161434473Y-76154364D01*
X161334448Y-76154364D01*
X161334448Y-75993148D01*
X161334443Y-75971833D01*
X161334343Y-75927135D01*
X161334020Y-75892579D01*
X161333349Y-75866483D01*
X161332203Y-75847165D01*
X161330459Y-75832943D01*
X161327991Y-75822136D01*
X161324674Y-75813062D01*
X161320382Y-75804039D01*
X161306404Y-75783807D01*
X161281789Y-75764808D01*
X161252661Y-75755030D01*
X161221927Y-75755323D01*
X161192490Y-75766539D01*
X161172436Y-75778766D01*
X161137789Y-75737025D01*
X161131301Y-75729116D01*
X161116896Y-75710800D01*
X161106890Y-75696956D01*
X161103141Y-75690103D01*
X161106363Y-75686371D01*
X161118279Y-75678697D01*
X161135962Y-75669643D01*
X161149396Y-75664084D01*
X161191680Y-75654588D01*
X161234188Y-75655965D01*
G37*
G36*
X158553054Y-75115519D02*
G01*
X158552451Y-75153025D01*
X158549988Y-75187379D01*
X158545700Y-75213969D01*
X158533097Y-75252741D01*
X158508702Y-75296724D01*
X158475952Y-75331624D01*
X158435212Y-75357074D01*
X158386848Y-75372708D01*
X158383870Y-75373295D01*
X158329895Y-75377426D01*
X158276548Y-75369787D01*
X158226082Y-75350941D01*
X158180750Y-75321447D01*
X158174269Y-75315882D01*
X158163090Y-75304868D01*
X158158667Y-75298207D01*
X158158698Y-75297966D01*
X158163789Y-75291179D01*
X158175907Y-75279098D01*
X158192612Y-75264170D01*
X158226557Y-75235169D01*
X158249184Y-75250524D01*
X158252735Y-75252850D01*
X158273897Y-75264624D01*
X158294045Y-75273217D01*
X158303905Y-75275786D01*
X158331319Y-75278513D01*
X158360851Y-75276956D01*
X158387746Y-75271555D01*
X158407250Y-75262748D01*
X158422816Y-75246790D01*
X158437510Y-75223823D01*
X158448297Y-75199144D01*
X158452489Y-75177799D01*
X158452489Y-75160369D01*
X158144814Y-75160369D01*
X158147378Y-75090039D01*
X158148152Y-75079099D01*
X158244797Y-75079099D01*
X158452489Y-75079099D01*
X158452489Y-75061328D01*
X158449450Y-75042786D01*
X158438235Y-75017124D01*
X158421563Y-74993933D01*
X158402419Y-74978170D01*
X158401520Y-74977698D01*
X158377303Y-74969620D01*
X158348798Y-74966571D01*
X158341949Y-74966768D01*
X158308333Y-74974359D01*
X158280972Y-74992311D01*
X158260886Y-75019713D01*
X158249091Y-75055656D01*
X158244797Y-75079099D01*
X158148152Y-75079099D01*
X158150583Y-75044718D01*
X158157361Y-75007731D01*
X158168730Y-74977451D01*
X158185751Y-74951071D01*
X158209484Y-74925789D01*
X158247084Y-74897394D01*
X158291904Y-74877477D01*
X158339608Y-74869200D01*
X158388733Y-74872995D01*
X158431329Y-74886291D01*
X158471831Y-74910633D01*
X158504761Y-74944780D01*
X158529894Y-74988495D01*
X158547006Y-75041537D01*
X158548540Y-75049494D01*
X158551722Y-75079099D01*
X158551762Y-75079472D01*
X158553054Y-75115519D01*
G37*
G36*
X159091331Y-75872044D02*
G01*
X159092412Y-75927588D01*
X159086479Y-75980463D01*
X159074012Y-76027828D01*
X159055494Y-76066842D01*
X159040636Y-76088242D01*
X159014727Y-76115475D01*
X158983432Y-76135912D01*
X158943235Y-76152229D01*
X158921192Y-76157181D01*
X158885098Y-76159604D01*
X158845906Y-76157480D01*
X158808380Y-76151135D01*
X158777284Y-76140895D01*
X158771193Y-76137955D01*
X158750075Y-76125974D01*
X158729587Y-76112124D01*
X158712302Y-76098394D01*
X158700791Y-76086774D01*
X158697626Y-76079256D01*
X158697699Y-76079097D01*
X158703529Y-76072625D01*
X158716223Y-76060762D01*
X158733172Y-76045952D01*
X158766920Y-76017278D01*
X158785163Y-76032629D01*
X158806700Y-76046108D01*
X158836946Y-76057553D01*
X158868689Y-76063929D01*
X158896433Y-76063702D01*
X158929551Y-76052814D01*
X158957754Y-76032784D01*
X158978044Y-76005845D01*
X158988277Y-75974091D01*
X158991768Y-75948063D01*
X158682223Y-75948063D01*
X158684949Y-75876836D01*
X158685147Y-75871763D01*
X158685719Y-75860541D01*
X158784133Y-75860541D01*
X158991768Y-75860541D01*
X158988277Y-75834513D01*
X158979081Y-75803679D01*
X158959720Y-75777012D01*
X158932121Y-75758467D01*
X158897917Y-75749577D01*
X158879192Y-75749240D01*
X158846592Y-75757018D01*
X158819900Y-75775292D01*
X158800057Y-75803287D01*
X158788005Y-75840224D01*
X158784133Y-75860541D01*
X158685719Y-75860541D01*
X158686720Y-75840901D01*
X158689051Y-75818369D01*
X158692895Y-75800495D01*
X158699006Y-75783609D01*
X158708140Y-75764040D01*
X158730066Y-75728225D01*
X158763135Y-75694336D01*
X158803076Y-75670766D01*
X158849448Y-75657762D01*
X158901808Y-75655572D01*
X158908076Y-75656027D01*
X158956579Y-75665742D01*
X158998299Y-75685773D01*
X159032883Y-75715736D01*
X159059977Y-75755243D01*
X159079229Y-75803909D01*
X159090129Y-75860541D01*
X159090285Y-75861349D01*
X159091331Y-75872044D01*
G37*
G36*
X161093114Y-75997442D02*
G01*
X161092103Y-76019143D01*
X161090385Y-76035095D01*
X161087777Y-76047291D01*
X161084093Y-76057724D01*
X161079149Y-76068388D01*
X161075195Y-76075791D01*
X161051698Y-76107005D01*
X161021343Y-76133135D01*
X160988205Y-76150505D01*
X160982798Y-76152243D01*
X160957846Y-76157683D01*
X160933022Y-76160122D01*
X160921513Y-76159651D01*
X160893922Y-76154859D01*
X160865695Y-76146148D01*
X160841205Y-76135019D01*
X160824829Y-76122975D01*
X160820352Y-76118290D01*
X160810225Y-76111470D01*
X160804726Y-76116086D01*
X160803068Y-76132483D01*
X160803068Y-76154364D01*
X160703043Y-76154364D01*
X160703043Y-75907428D01*
X160806195Y-75907428D01*
X160806196Y-75909233D01*
X160807024Y-75951573D01*
X160809879Y-75983550D01*
X160815463Y-76007164D01*
X160824481Y-76024413D01*
X160837637Y-76037296D01*
X160855635Y-76047811D01*
X160875996Y-76055832D01*
X160906773Y-76059449D01*
X160939549Y-76052097D01*
X160945719Y-76049566D01*
X160966569Y-76034740D01*
X160981700Y-76011685D01*
X160991397Y-75979552D01*
X160995944Y-75937486D01*
X160995628Y-75884638D01*
X160993138Y-75849000D01*
X160988555Y-75818902D01*
X160981972Y-75799312D01*
X160971224Y-75783578D01*
X160948335Y-75765411D01*
X160920788Y-75755724D01*
X160891338Y-75754486D01*
X160862741Y-75761665D01*
X160837751Y-75777231D01*
X160819125Y-75801152D01*
X160818206Y-75802958D01*
X160812997Y-75815206D01*
X160809524Y-75829052D01*
X160807453Y-75847222D01*
X160806454Y-75872439D01*
X160806195Y-75907428D01*
X160703043Y-75907428D01*
X160703043Y-75453665D01*
X160751492Y-75455491D01*
X160799942Y-75457317D01*
X160801637Y-75580785D01*
X160801732Y-75587201D01*
X160802580Y-75624317D01*
X160803807Y-75656464D01*
X160805305Y-75681758D01*
X160806967Y-75698315D01*
X160808686Y-75704253D01*
X160813460Y-75702273D01*
X160822620Y-75693881D01*
X160825474Y-75690796D01*
X160844595Y-75677342D01*
X160870867Y-75665674D01*
X160899917Y-75657443D01*
X160927373Y-75654302D01*
X160936717Y-75654433D01*
X160975895Y-75659481D01*
X161009270Y-75672925D01*
X161040812Y-75696230D01*
X161056726Y-75711443D01*
X161069296Y-75726465D01*
X161078678Y-75742877D01*
X161085329Y-75762528D01*
X161089705Y-75787270D01*
X161092265Y-75818955D01*
X161093466Y-75859432D01*
X161093764Y-75910554D01*
X161093756Y-75928820D01*
X161093722Y-75937486D01*
X161093604Y-75967999D01*
X161093114Y-75997442D01*
G37*
G36*
X160300346Y-75196582D02*
G01*
X160294019Y-75234055D01*
X160284937Y-75262669D01*
X160261952Y-75300762D01*
X160228511Y-75334331D01*
X160187831Y-75358832D01*
X160141744Y-75372858D01*
X160131955Y-75374265D01*
X160092030Y-75375441D01*
X160051786Y-75370546D01*
X160017142Y-75360182D01*
X159991385Y-75345797D01*
X159959608Y-75319539D01*
X159932630Y-75288013D01*
X159914189Y-75255035D01*
X159910326Y-75244799D01*
X159905857Y-75229735D01*
X159902882Y-75213039D01*
X159901102Y-75191993D01*
X159900216Y-75163881D01*
X159899924Y-75125986D01*
X159899927Y-75122860D01*
X159999745Y-75122860D01*
X159999952Y-75145778D01*
X160001744Y-75180510D01*
X160005992Y-75206462D01*
X160013436Y-75226017D01*
X160024813Y-75241558D01*
X160040864Y-75255466D01*
X160059824Y-75266316D01*
X160092867Y-75273735D01*
X160129407Y-75269881D01*
X160129645Y-75269820D01*
X160155325Y-75260895D01*
X160174516Y-75247919D01*
X160188038Y-75229248D01*
X160196710Y-75203237D01*
X160201352Y-75168243D01*
X160202783Y-75122622D01*
X160202607Y-75093170D01*
X160201570Y-75068809D01*
X160199222Y-75051081D01*
X160195129Y-75036870D01*
X160188854Y-75023059D01*
X160184791Y-75015788D01*
X160163656Y-74991670D01*
X160135357Y-74977473D01*
X160099229Y-74972823D01*
X160098513Y-74972825D01*
X160063830Y-74978568D01*
X160035112Y-74995289D01*
X160012586Y-75022856D01*
X160011985Y-75023891D01*
X160006655Y-75034874D01*
X160003112Y-75047566D01*
X160001011Y-75064662D01*
X160000004Y-75088861D01*
X159999745Y-75122860D01*
X159899927Y-75122860D01*
X159899939Y-75112509D01*
X159901012Y-75067476D01*
X159904176Y-75031867D01*
X159910068Y-75003289D01*
X159919324Y-74979350D01*
X159932579Y-74957655D01*
X159950471Y-74935813D01*
X159982808Y-74906796D01*
X160023034Y-74884438D01*
X160066285Y-74871922D01*
X160110743Y-74868968D01*
X160154586Y-74875294D01*
X160195998Y-74890621D01*
X160233157Y-74914667D01*
X160264246Y-74947152D01*
X160287445Y-74987796D01*
X160289595Y-74993404D01*
X160297498Y-75025000D01*
X160302494Y-75064460D01*
X160304614Y-75108440D01*
X160304386Y-75122622D01*
X160303888Y-75153596D01*
X160300346Y-75196582D01*
G37*
G36*
X159225677Y-75655800D02*
G01*
X159267860Y-75666756D01*
X159305837Y-75688210D01*
X159327705Y-75704889D01*
X159327705Y-75660492D01*
X159427729Y-75660492D01*
X159427729Y-76154364D01*
X159327705Y-76154364D01*
X159327695Y-75990261D01*
X159327662Y-75957446D01*
X159327441Y-75913757D01*
X159326930Y-75880000D01*
X159326036Y-75854591D01*
X159324665Y-75835944D01*
X159322723Y-75822474D01*
X159320118Y-75812595D01*
X159316755Y-75804722D01*
X159306847Y-75789290D01*
X159283113Y-75768292D01*
X159254121Y-75756753D01*
X159222599Y-75755525D01*
X159191272Y-75765462D01*
X159166794Y-75778221D01*
X159130699Y-75734346D01*
X159129920Y-75733397D01*
X159112951Y-75711992D01*
X159103510Y-75697879D01*
X159100623Y-75689283D01*
X159103315Y-75684426D01*
X159139343Y-75665579D01*
X159181950Y-75655391D01*
X159225677Y-75655800D01*
G37*
G36*
X159760908Y-74874113D02*
G01*
X159812199Y-74875924D01*
X159812167Y-75060344D01*
X159812165Y-75066771D01*
X159812114Y-75118487D01*
X159811920Y-75159436D01*
X159811477Y-75191183D01*
X159810682Y-75215292D01*
X159809431Y-75233328D01*
X159807617Y-75246855D01*
X159805138Y-75257436D01*
X159801889Y-75266638D01*
X159797765Y-75276022D01*
X159788605Y-75293573D01*
X159760353Y-75329845D01*
X159724198Y-75356638D01*
X159680917Y-75373307D01*
X159671313Y-75375289D01*
X159629678Y-75376291D01*
X159587252Y-75365917D01*
X159546301Y-75344650D01*
X159515251Y-75323754D01*
X159515251Y-75372921D01*
X159415226Y-75372921D01*
X159415226Y-74872798D01*
X159515251Y-74872798D01*
X159515251Y-75034014D01*
X159515256Y-75055468D01*
X159515356Y-75100131D01*
X159515679Y-75134655D01*
X159516351Y-75160721D01*
X159517496Y-75180008D01*
X159519241Y-75194197D01*
X159521709Y-75204969D01*
X159525026Y-75214003D01*
X159529317Y-75222980D01*
X159533968Y-75231387D01*
X159554686Y-75255627D01*
X159581805Y-75269554D01*
X159616485Y-75273845D01*
X159621369Y-75273738D01*
X159649247Y-75269097D01*
X159671879Y-75256186D01*
X159693033Y-75232994D01*
X159695169Y-75229993D01*
X159698555Y-75223882D01*
X159701186Y-75215918D01*
X159703181Y-75204580D01*
X159704658Y-75188346D01*
X159705737Y-75165694D01*
X159706537Y-75135104D01*
X159707174Y-75095054D01*
X159707770Y-75044023D01*
X159709616Y-74872302D01*
X159760908Y-74874113D01*
G37*
G36*
X162310434Y-76154364D02*
G01*
X162308498Y-75987135D01*
X162308145Y-75957512D01*
X162307519Y-75913597D01*
X162306783Y-75879697D01*
X162305805Y-75854222D01*
X162304451Y-75835577D01*
X162302587Y-75822172D01*
X162300080Y-75812412D01*
X162296797Y-75804706D01*
X162292603Y-75797461D01*
X162291992Y-75796494D01*
X162271149Y-75774799D01*
X162243512Y-75760771D01*
X162212521Y-75755062D01*
X162181620Y-75758325D01*
X162154249Y-75771214D01*
X162143982Y-75779294D01*
X162135244Y-75788344D01*
X162128528Y-75799322D01*
X162123571Y-75813738D01*
X162120107Y-75833103D01*
X162117873Y-75858927D01*
X162116603Y-75892721D01*
X162116034Y-75935995D01*
X162115900Y-75990261D01*
X162115891Y-76154364D01*
X162015354Y-76154364D01*
X162017173Y-75962129D01*
X162017271Y-75951827D01*
X162017871Y-75896085D01*
X162018686Y-75851100D01*
X162019998Y-75815373D01*
X162022088Y-75787404D01*
X162025240Y-75765694D01*
X162029735Y-75748744D01*
X162035855Y-75735054D01*
X162043884Y-75723126D01*
X162054103Y-75711460D01*
X162066794Y-75698557D01*
X162081956Y-75685508D01*
X162117671Y-75665927D01*
X162157792Y-75655566D01*
X162199391Y-75654657D01*
X162239538Y-75663430D01*
X162275305Y-75682116D01*
X162277334Y-75683586D01*
X162291775Y-75693746D01*
X162301874Y-75700376D01*
X162302701Y-75700602D01*
X162304820Y-75697698D01*
X162306492Y-75688631D01*
X162307761Y-75672346D01*
X162308671Y-75647785D01*
X162309266Y-75613893D01*
X162309590Y-75569612D01*
X162309688Y-75513886D01*
X162309688Y-75322781D01*
X162276868Y-75344443D01*
X162261662Y-75353433D01*
X162236440Y-75365327D01*
X162214229Y-75372693D01*
X162183194Y-75376451D01*
X162141136Y-75371887D01*
X162102242Y-75356972D01*
X162068504Y-75332870D01*
X162041914Y-75300746D01*
X162024464Y-75261763D01*
X162023652Y-75258742D01*
X162019495Y-75234146D01*
X162016559Y-75200661D01*
X162014844Y-75161333D01*
X162014429Y-75125986D01*
X162119016Y-75125986D01*
X162119498Y-75164380D01*
X162121482Y-75196556D01*
X162125532Y-75220193D01*
X162132210Y-75237347D01*
X162142076Y-75250073D01*
X162155691Y-75260429D01*
X162172756Y-75268480D01*
X162202223Y-75274127D01*
X162232651Y-75272293D01*
X162260119Y-75263372D01*
X162280704Y-75247764D01*
X162286699Y-75239379D01*
X162298967Y-75211046D01*
X162306757Y-75175414D01*
X162310088Y-75135623D01*
X162308979Y-75094815D01*
X162303449Y-75056130D01*
X162293516Y-75022709D01*
X162279200Y-74997694D01*
X162270345Y-74987959D01*
X162259478Y-74980372D01*
X162244875Y-74976336D01*
X162222153Y-74974032D01*
X162199858Y-74973596D01*
X162169395Y-74979064D01*
X162146702Y-74992914D01*
X162130286Y-75015828D01*
X162125575Y-75027489D01*
X162122331Y-75041916D01*
X162120323Y-75061514D01*
X162119301Y-75088724D01*
X162119016Y-75125986D01*
X162014429Y-75125986D01*
X162014349Y-75119209D01*
X162015072Y-75077334D01*
X162017014Y-75038754D01*
X162020173Y-75006517D01*
X162024548Y-74983668D01*
X162031244Y-74964939D01*
X162052648Y-74929125D01*
X162081730Y-74901222D01*
X162116672Y-74881821D01*
X162155654Y-74871514D01*
X162196855Y-74870892D01*
X162238457Y-74880547D01*
X162278638Y-74901070D01*
X162309688Y-74921965D01*
X162309688Y-74872798D01*
X162409713Y-74872798D01*
X162409713Y-76154364D01*
X162310434Y-76154364D01*
G37*
G36*
X160599034Y-74869672D02*
G01*
X160626052Y-74874969D01*
X160671806Y-74890908D01*
X160707404Y-74914083D01*
X160732811Y-74944461D01*
X160747994Y-74982007D01*
X160752918Y-75026686D01*
X160752589Y-75034215D01*
X160748491Y-75059819D01*
X160741240Y-75082225D01*
X160735293Y-75093849D01*
X160717563Y-75117793D01*
X160693917Y-75136253D01*
X160662764Y-75150022D01*
X160622509Y-75159892D01*
X160571561Y-75166656D01*
X160553634Y-75168527D01*
X160519289Y-75173525D01*
X160495082Y-75179940D01*
X160479351Y-75188542D01*
X160470435Y-75200105D01*
X160466673Y-75215399D01*
X160466821Y-75231094D01*
X160475321Y-75252300D01*
X160494313Y-75267297D01*
X160523985Y-75276206D01*
X160564522Y-75279148D01*
X160566223Y-75279144D01*
X160610636Y-75275304D01*
X160649468Y-75263264D01*
X160687541Y-75241552D01*
X160715662Y-75222204D01*
X160749908Y-75252239D01*
X160751980Y-75254063D01*
X160768281Y-75268995D01*
X160779828Y-75280578D01*
X160784234Y-75286437D01*
X160783980Y-75287685D01*
X160776841Y-75296242D01*
X160761832Y-75308355D01*
X160741578Y-75322200D01*
X160718705Y-75335956D01*
X160695836Y-75347800D01*
X160674866Y-75356572D01*
X160646345Y-75366252D01*
X160621773Y-75372356D01*
X160609179Y-75374276D01*
X160558867Y-75376589D01*
X160510437Y-75370800D01*
X160465848Y-75357634D01*
X160427057Y-75337812D01*
X160396021Y-75312060D01*
X160374698Y-75281098D01*
X160366237Y-75253604D01*
X160363599Y-75217819D01*
X160367934Y-75181406D01*
X160379076Y-75149383D01*
X160380275Y-75147092D01*
X160395337Y-75124241D01*
X160414404Y-75106351D01*
X160439162Y-75092699D01*
X160471295Y-75082565D01*
X160512489Y-75075225D01*
X160564428Y-75069958D01*
X160564530Y-75069950D01*
X160590059Y-75066876D01*
X160613007Y-75062231D01*
X160628415Y-75057017D01*
X160641646Y-75047077D01*
X160651031Y-75029409D01*
X160650530Y-75009678D01*
X160640407Y-74990755D01*
X160620926Y-74975511D01*
X160601901Y-74969058D01*
X160570701Y-74966109D01*
X160535712Y-74968912D01*
X160500846Y-74977083D01*
X160470016Y-74990241D01*
X160435313Y-75009826D01*
X160406638Y-74976261D01*
X160405762Y-74975233D01*
X160391730Y-74958032D01*
X160381776Y-74944483D01*
X160378006Y-74937442D01*
X160378502Y-74935712D01*
X160386643Y-74927151D01*
X160402678Y-74915807D01*
X160423883Y-74903462D01*
X160447536Y-74891902D01*
X160470332Y-74883958D01*
X160503363Y-74876275D01*
X160539007Y-74870866D01*
X160572489Y-74868432D01*
X160599034Y-74869672D01*
G37*
G36*
X159133005Y-74878593D02*
G01*
X159165825Y-74893131D01*
X159191031Y-74914542D01*
X159191815Y-74915481D01*
X159197088Y-74919819D01*
X159200196Y-74915413D01*
X159202674Y-74900400D01*
X159205800Y-74875924D01*
X159257375Y-74874108D01*
X159308950Y-74872293D01*
X159308950Y-75373427D01*
X159257375Y-75371611D01*
X159205800Y-75369796D01*
X159202674Y-75197878D01*
X159202187Y-75171424D01*
X159201170Y-75123364D01*
X159199942Y-75085612D01*
X159198209Y-75056674D01*
X159195680Y-75035055D01*
X159192060Y-75019263D01*
X159187057Y-75007801D01*
X159180378Y-74999178D01*
X159171730Y-74991898D01*
X159160820Y-74984468D01*
X159144225Y-74977232D01*
X159117115Y-74973181D01*
X159088425Y-74975096D01*
X159063488Y-74983054D01*
X159043703Y-74993286D01*
X159019691Y-74965863D01*
X159009917Y-74954505D01*
X158994626Y-74936055D01*
X158983480Y-74921784D01*
X158971280Y-74905129D01*
X158991842Y-74892421D01*
X159019317Y-74879594D01*
X159056705Y-74871486D01*
X159095616Y-74871265D01*
X159133005Y-74878593D01*
G37*
G36*
X159927104Y-76067519D02*
G01*
X159906170Y-76101522D01*
X159875454Y-76129309D01*
X159835723Y-76149415D01*
X159835225Y-76149592D01*
X159804950Y-76156670D01*
X159768665Y-76159914D01*
X159732211Y-76159122D01*
X159701428Y-76154088D01*
X159699948Y-76153657D01*
X159678574Y-76144380D01*
X159659230Y-76131687D01*
X159640282Y-76115743D01*
X159640282Y-76154364D01*
X159540257Y-76154364D01*
X159540290Y-75978914D01*
X159640282Y-75978914D01*
X159640292Y-75981370D01*
X159643254Y-76013220D01*
X159651993Y-76035765D01*
X159667273Y-76051041D01*
X159668103Y-76051552D01*
X159683408Y-76057004D01*
X159706263Y-76061400D01*
X159732125Y-76064227D01*
X159756449Y-76064973D01*
X159774690Y-76063129D01*
X159783981Y-76060948D01*
X159801418Y-76057062D01*
X159820570Y-76048436D01*
X159835057Y-76030406D01*
X159840132Y-76005890D01*
X159840006Y-76000813D01*
X159837113Y-75981719D01*
X159829296Y-75967699D01*
X159815058Y-75958037D01*
X159792900Y-75952020D01*
X159761326Y-75948933D01*
X159718837Y-75948063D01*
X159640282Y-75948063D01*
X159640282Y-75978914D01*
X159540290Y-75978914D01*
X159540292Y-75968380D01*
X159540382Y-75933627D01*
X159540913Y-75879609D01*
X159541890Y-75833939D01*
X159543281Y-75797654D01*
X159545052Y-75771792D01*
X159547168Y-75757391D01*
X159548314Y-75753610D01*
X159563105Y-75725853D01*
X159587012Y-75700037D01*
X159617090Y-75678802D01*
X159650397Y-75664788D01*
X159670901Y-75660206D01*
X159710569Y-75655574D01*
X159753106Y-75654642D01*
X159793581Y-75657434D01*
X159827066Y-75663971D01*
X159831677Y-75665500D01*
X159851408Y-75674593D01*
X159872069Y-75687137D01*
X159890605Y-75700921D01*
X159903966Y-75713735D01*
X159909098Y-75723369D01*
X159908993Y-75723840D01*
X159903122Y-75730775D01*
X159890043Y-75742545D01*
X159872241Y-75756889D01*
X159866737Y-75761106D01*
X159849575Y-75773615D01*
X159838906Y-75779431D01*
X159832197Y-75779568D01*
X159826917Y-75775041D01*
X159816209Y-75765698D01*
X159791983Y-75754890D01*
X159761858Y-75748970D01*
X159729278Y-75747950D01*
X159697683Y-75751843D01*
X159670517Y-75760661D01*
X159651222Y-75774416D01*
X159647920Y-75778986D01*
X159642094Y-75796354D01*
X159640282Y-75823151D01*
X159640282Y-75859395D01*
X159732492Y-75861639D01*
X159742728Y-75861901D01*
X159778375Y-75863178D01*
X159804670Y-75864992D01*
X159824151Y-75867665D01*
X159839359Y-75871518D01*
X159852834Y-75876873D01*
X159887530Y-75898461D01*
X159914796Y-75928661D01*
X159931840Y-75965731D01*
X159936558Y-75986733D01*
X159936982Y-76005890D01*
X159937489Y-76028767D01*
X159927104Y-76067519D01*
G37*
G36*
X161269162Y-74875800D02*
G01*
X161302466Y-74888183D01*
X161328345Y-74907339D01*
X161337651Y-74916500D01*
X161347149Y-74921696D01*
X161351904Y-74915629D01*
X161353203Y-74897804D01*
X161353203Y-74872798D01*
X161453228Y-74872798D01*
X161453228Y-75372921D01*
X161354110Y-75372921D01*
X161352094Y-75205693D01*
X161351639Y-75169193D01*
X161351001Y-75126886D01*
X161350245Y-75094355D01*
X161349232Y-75070000D01*
X161347821Y-75052222D01*
X161345873Y-75039420D01*
X161343248Y-75029994D01*
X161339807Y-75022343D01*
X161335408Y-75014869D01*
X161332596Y-75010537D01*
X161312343Y-74988786D01*
X161286559Y-74976614D01*
X161252891Y-74972823D01*
X161220499Y-74976765D01*
X161194129Y-74989841D01*
X161174319Y-75012742D01*
X161170962Y-75019182D01*
X161168067Y-75027755D01*
X161165791Y-75039551D01*
X161164011Y-75056116D01*
X161162606Y-75078997D01*
X161161451Y-75109741D01*
X161160425Y-75149895D01*
X161159405Y-75201004D01*
X161156280Y-75369796D01*
X161104213Y-75371619D01*
X161052147Y-75373443D01*
X161054201Y-75187199D01*
X161054230Y-75184587D01*
X161054854Y-75131735D01*
X161055503Y-75089759D01*
X161056296Y-75057104D01*
X161057349Y-75032211D01*
X161058782Y-75013524D01*
X161060711Y-74999486D01*
X161063255Y-74988541D01*
X161066530Y-74979130D01*
X161070656Y-74969697D01*
X161089194Y-74937025D01*
X161115145Y-74909184D01*
X161150028Y-74886819D01*
X161157898Y-74883112D01*
X161193558Y-74872882D01*
X161231753Y-74870572D01*
X161269162Y-74875800D01*
G37*
G36*
X161937277Y-76055740D02*
G01*
X161928922Y-76075757D01*
X161905580Y-76107802D01*
X161872911Y-76133586D01*
X161832545Y-76151616D01*
X161807158Y-76157020D01*
X161772418Y-76159812D01*
X161737401Y-76158875D01*
X161708172Y-76154088D01*
X161706691Y-76153657D01*
X161685317Y-76144380D01*
X161665974Y-76131687D01*
X161647025Y-76115743D01*
X161647025Y-76154364D01*
X161539651Y-76154364D01*
X161541978Y-75982272D01*
X161647025Y-75982272D01*
X161647604Y-75996452D01*
X161652725Y-76024494D01*
X161662335Y-76045439D01*
X161675451Y-76056712D01*
X161678155Y-76057600D01*
X161696169Y-76060827D01*
X161721171Y-76062946D01*
X161748707Y-76063796D01*
X161774328Y-76063214D01*
X161793582Y-76061036D01*
X161801641Y-76058911D01*
X161824465Y-76046711D01*
X161839844Y-76028733D01*
X161846743Y-76007599D01*
X161844127Y-75985929D01*
X161830961Y-75966344D01*
X161824341Y-75960676D01*
X161816387Y-75956213D01*
X161805449Y-75953238D01*
X161789148Y-75951340D01*
X161765103Y-75950111D01*
X161730937Y-75949141D01*
X161647025Y-75947094D01*
X161647025Y-75982272D01*
X161541978Y-75982272D01*
X161542208Y-75965255D01*
X161542247Y-75962355D01*
X161543275Y-75901620D01*
X161544548Y-75852473D01*
X161546113Y-75814040D01*
X161548012Y-75785444D01*
X161550292Y-75765811D01*
X161552998Y-75754265D01*
X161566443Y-75726681D01*
X161591282Y-75697763D01*
X161625901Y-75675477D01*
X161635053Y-75671171D01*
X161652787Y-75664373D01*
X161671670Y-75659986D01*
X161695486Y-75657268D01*
X161728020Y-75655479D01*
X161754432Y-75654870D01*
X161798015Y-75657008D01*
X161833425Y-75664034D01*
X161863091Y-75676543D01*
X161889440Y-75695132D01*
X161900170Y-75704729D01*
X161911461Y-75716123D01*
X161915841Y-75722491D01*
X161915693Y-75723031D01*
X161909611Y-75729955D01*
X161896396Y-75741767D01*
X161878504Y-75756248D01*
X161841166Y-75785244D01*
X161825277Y-75770518D01*
X161816270Y-75763351D01*
X161797153Y-75754342D01*
X161771587Y-75749474D01*
X161736690Y-75748014D01*
X161721294Y-75748657D01*
X161691148Y-75754125D01*
X161667732Y-75764349D01*
X161653780Y-75778331D01*
X161651340Y-75785205D01*
X161648238Y-75803354D01*
X161647025Y-75825065D01*
X161647025Y-75859179D01*
X161739235Y-75861805D01*
X161782004Y-75863565D01*
X161816830Y-75866623D01*
X161843680Y-75871508D01*
X161864863Y-75878814D01*
X161882688Y-75889137D01*
X161899462Y-75903071D01*
X161910949Y-75915966D01*
X161928503Y-75947197D01*
X161939417Y-75983625D01*
X161941499Y-76007599D01*
X161942678Y-76021167D01*
X161937277Y-76055740D01*
G37*
G36*
X161945203Y-75139975D02*
G01*
X161939932Y-75191625D01*
X161927793Y-75240000D01*
X161908756Y-75282730D01*
X161882791Y-75317443D01*
X161859627Y-75336949D01*
X161820548Y-75358874D01*
X161777484Y-75372715D01*
X161749693Y-75375811D01*
X161711059Y-75374766D01*
X161671420Y-75369114D01*
X161636299Y-75359376D01*
X161622327Y-75353062D01*
X161597128Y-75338007D01*
X161575143Y-75320966D01*
X161546651Y-75294777D01*
X161582512Y-75265185D01*
X161590670Y-75258494D01*
X161606416Y-75246362D01*
X161616562Y-75240842D01*
X161623879Y-75240788D01*
X161631136Y-75245052D01*
X161634204Y-75247275D01*
X161671821Y-75267592D01*
X161711693Y-75277834D01*
X161751191Y-75277639D01*
X161787686Y-75266645D01*
X161812884Y-75248031D01*
X161832138Y-75219670D01*
X161843468Y-75183812D01*
X161847641Y-75160369D01*
X161534498Y-75160369D01*
X161534545Y-75121297D01*
X161535040Y-75096930D01*
X161536854Y-75079099D01*
X161640774Y-75079099D01*
X161846762Y-75079099D01*
X161843094Y-75058781D01*
X161836204Y-75033361D01*
X161819984Y-75002597D01*
X161797701Y-74980720D01*
X161781629Y-74972794D01*
X161751501Y-74966741D01*
X161719586Y-74968494D01*
X161690844Y-74978170D01*
X161675805Y-74989653D01*
X161658333Y-75011635D01*
X161645661Y-75037179D01*
X161640774Y-75061328D01*
X161640774Y-75079099D01*
X161536854Y-75079099D01*
X161540486Y-75043407D01*
X161552400Y-74998594D01*
X161571352Y-74960759D01*
X161597910Y-74928165D01*
X161625283Y-74905489D01*
X161666213Y-74884044D01*
X161710552Y-74872312D01*
X161756093Y-74870332D01*
X161800628Y-74878143D01*
X161841948Y-74895782D01*
X161877848Y-74923288D01*
X161898202Y-74948073D01*
X161920106Y-74989101D01*
X161935260Y-75036342D01*
X161942271Y-75079099D01*
X161943636Y-75087424D01*
X161945203Y-75139975D01*
G37*
G36*
X158791871Y-74872238D02*
G01*
X158829992Y-74881047D01*
X158876834Y-74901097D01*
X158915027Y-74930091D01*
X158944702Y-74968168D01*
X158965990Y-75015468D01*
X158979022Y-75072132D01*
X158982813Y-75126952D01*
X158978257Y-75181558D01*
X158965680Y-75232106D01*
X158945645Y-75276354D01*
X158918717Y-75312062D01*
X158912313Y-75318200D01*
X158879202Y-75342577D01*
X158840916Y-75361771D01*
X158803003Y-75372867D01*
X158779022Y-75376394D01*
X158751330Y-75377908D01*
X158726099Y-75375074D01*
X158697799Y-75367619D01*
X158685987Y-75363538D01*
X158650908Y-75347273D01*
X158618545Y-75326747D01*
X158593743Y-75304882D01*
X158586316Y-75295808D01*
X158585768Y-75288513D01*
X158593743Y-75278459D01*
X158597378Y-75274658D01*
X158611995Y-75261044D01*
X158628962Y-75246782D01*
X158652272Y-75228296D01*
X158674727Y-75245423D01*
X158679668Y-75249027D01*
X158713678Y-75266417D01*
X158749569Y-75273831D01*
X158785033Y-75271672D01*
X158817765Y-75260349D01*
X158845459Y-75240264D01*
X158865808Y-75211825D01*
X158866576Y-75210244D01*
X158873531Y-75193391D01*
X158877699Y-75175822D01*
X158879716Y-75153618D01*
X158880216Y-75122860D01*
X158880177Y-75113915D01*
X158879349Y-75086334D01*
X158876925Y-75066228D01*
X158872215Y-75049631D01*
X158864532Y-75032574D01*
X158847896Y-75007155D01*
X158823032Y-74986800D01*
X158791211Y-74975986D01*
X158751239Y-74974096D01*
X158739983Y-74974829D01*
X158717422Y-74978086D01*
X158699471Y-74984754D01*
X158680473Y-74996636D01*
X158651664Y-75016942D01*
X158628658Y-74998697D01*
X158622917Y-74994039D01*
X158606153Y-74979426D01*
X158593684Y-74967195D01*
X158591840Y-74965144D01*
X158585560Y-74956479D01*
X158586929Y-74949261D01*
X158596449Y-74938254D01*
X158599187Y-74935425D01*
X158629986Y-74910751D01*
X158668070Y-74889886D01*
X158708764Y-74875443D01*
X158718832Y-74872973D01*
X158742491Y-74868847D01*
X158764570Y-74868690D01*
X158791871Y-74872238D01*
G37*
G36*
X160557369Y-71159388D02*
G01*
X160613570Y-71159442D01*
X160659038Y-71159603D01*
X160694952Y-71159928D01*
X160722490Y-71160476D01*
X160742834Y-71161302D01*
X160757163Y-71162464D01*
X160766655Y-71164019D01*
X160772491Y-71166024D01*
X160775851Y-71168535D01*
X160777913Y-71171610D01*
X160778182Y-71172217D01*
X160781094Y-71182783D01*
X160785909Y-71204002D01*
X160792341Y-71234450D01*
X160800099Y-71272706D01*
X160808894Y-71317349D01*
X160818438Y-71366957D01*
X160828441Y-71420108D01*
X160830182Y-71429436D01*
X160840164Y-71481856D01*
X160849712Y-71530320D01*
X160858530Y-71573436D01*
X160866320Y-71609812D01*
X160872787Y-71638058D01*
X160877633Y-71656782D01*
X160880563Y-71664591D01*
X160882658Y-71666118D01*
X160895227Y-71672716D01*
X160916847Y-71682748D01*
X160945660Y-71695451D01*
X160979810Y-71710066D01*
X161017439Y-71725832D01*
X161056689Y-71741987D01*
X161095702Y-71757772D01*
X161132621Y-71772425D01*
X161165588Y-71785186D01*
X161192746Y-71795293D01*
X161212236Y-71801986D01*
X161222203Y-71804505D01*
X161225560Y-71803922D01*
X161238228Y-71798311D01*
X161258948Y-71786554D01*
X161288122Y-71768396D01*
X161326152Y-71743582D01*
X161373442Y-71711858D01*
X161430394Y-71672970D01*
X161447748Y-71661042D01*
X161497170Y-71627091D01*
X161537576Y-71599409D01*
X161569953Y-71577381D01*
X161595288Y-71560393D01*
X161614566Y-71547831D01*
X161628776Y-71539079D01*
X161638904Y-71533523D01*
X161645935Y-71530549D01*
X161650857Y-71529541D01*
X161654656Y-71529885D01*
X161658318Y-71530967D01*
X161663804Y-71534512D01*
X161677480Y-71546125D01*
X161697484Y-71564557D01*
X161722641Y-71588611D01*
X161751776Y-71617093D01*
X161783713Y-71648804D01*
X161817278Y-71682550D01*
X161851294Y-71717134D01*
X161884588Y-71751359D01*
X161915984Y-71784030D01*
X161944307Y-71813950D01*
X161968381Y-71839924D01*
X161987032Y-71860754D01*
X161999084Y-71875244D01*
X162003363Y-71882199D01*
X162003303Y-71882667D01*
X161998995Y-71891787D01*
X161988427Y-71909805D01*
X161972378Y-71935510D01*
X161951628Y-71967693D01*
X161926955Y-72005143D01*
X161899137Y-72046652D01*
X161868955Y-72091009D01*
X161866078Y-72095208D01*
X161826190Y-72153896D01*
X161793392Y-72203116D01*
X161767756Y-72242756D01*
X161749355Y-72272699D01*
X161738261Y-72292831D01*
X161734547Y-72303039D01*
X161735603Y-72309070D01*
X161741022Y-72326357D01*
X161750352Y-72351753D01*
X161762817Y-72383465D01*
X161777640Y-72419699D01*
X161794045Y-72458663D01*
X161811256Y-72498564D01*
X161828496Y-72537609D01*
X161844988Y-72574004D01*
X161859956Y-72605958D01*
X161872623Y-72631676D01*
X161882213Y-72649366D01*
X161887949Y-72657235D01*
X161895881Y-72660017D01*
X161914930Y-72664846D01*
X161943433Y-72671271D01*
X161979910Y-72678982D01*
X162022880Y-72687665D01*
X162070864Y-72697008D01*
X162122382Y-72706699D01*
X162170241Y-72715626D01*
X162218653Y-72724820D01*
X162262213Y-72733264D01*
X162299432Y-72740660D01*
X162328819Y-72746713D01*
X162348884Y-72751125D01*
X162358138Y-72753600D01*
X162372204Y-72759510D01*
X162372204Y-73009037D01*
X162372203Y-73017380D01*
X162372163Y-73078530D01*
X162372021Y-73128474D01*
X162371728Y-73168368D01*
X162371234Y-73199366D01*
X162370489Y-73222623D01*
X162369444Y-73239295D01*
X162368048Y-73250537D01*
X162366253Y-73257504D01*
X162364008Y-73261351D01*
X162361264Y-73263233D01*
X162352961Y-73265385D01*
X162333765Y-73269547D01*
X162305157Y-73275416D01*
X162268589Y-73282702D01*
X162225512Y-73291116D01*
X162177377Y-73300369D01*
X162125634Y-73310173D01*
X162096245Y-73315726D01*
X162038864Y-73326767D01*
X161992477Y-73336034D01*
X161956161Y-73343736D01*
X161928993Y-73350085D01*
X161910050Y-73355289D01*
X161898409Y-73359560D01*
X161893147Y-73363108D01*
X161892256Y-73364600D01*
X161886683Y-73376358D01*
X161877362Y-73397708D01*
X161864938Y-73427110D01*
X161850058Y-73463027D01*
X161833365Y-73503920D01*
X161815505Y-73548250D01*
X161799714Y-73588008D01*
X161780031Y-73638836D01*
X161765214Y-73678990D01*
X161755111Y-73708911D01*
X161749565Y-73729039D01*
X161748424Y-73739813D01*
X161751652Y-73747173D01*
X161761347Y-73764078D01*
X161776649Y-73788802D01*
X161796726Y-73820050D01*
X161820744Y-73856529D01*
X161847871Y-73896944D01*
X161877274Y-73940001D01*
X161903617Y-73978495D01*
X161930734Y-74018662D01*
X161954729Y-74054781D01*
X161974796Y-74085609D01*
X161990129Y-74109907D01*
X161999920Y-74126434D01*
X162003363Y-74133948D01*
X162003066Y-74134879D01*
X161996614Y-74143668D01*
X161982451Y-74159950D01*
X161961532Y-74182715D01*
X161934814Y-74210948D01*
X161903250Y-74243639D01*
X161867795Y-74279775D01*
X161829405Y-74318343D01*
X161801224Y-74346412D01*
X161760831Y-74386395D01*
X161727910Y-74418566D01*
X161701679Y-74443638D01*
X161681353Y-74462324D01*
X161666148Y-74475336D01*
X161655280Y-74483387D01*
X161647966Y-74487190D01*
X161643422Y-74487458D01*
X161637536Y-74484169D01*
X161622082Y-74474400D01*
X161598667Y-74459073D01*
X161568557Y-74439033D01*
X161533020Y-74415125D01*
X161493323Y-74388193D01*
X161450733Y-74359082D01*
X161414698Y-74334526D01*
X161374497Y-74307542D01*
X161338239Y-74283644D01*
X161307187Y-74263642D01*
X161282604Y-74248350D01*
X161265754Y-74238579D01*
X161257900Y-74235141D01*
X161254969Y-74235687D01*
X161241341Y-74240812D01*
X161220033Y-74250468D01*
X161193324Y-74263594D01*
X161163496Y-74279128D01*
X161150227Y-74286123D01*
X161121606Y-74300502D01*
X161097150Y-74311838D01*
X161079112Y-74319117D01*
X161069744Y-74321325D01*
X161067848Y-74320138D01*
X161063288Y-74313986D01*
X161056617Y-74302039D01*
X161047550Y-74283651D01*
X161035803Y-74258179D01*
X161021093Y-74224977D01*
X161003134Y-74183400D01*
X160981643Y-74132804D01*
X160956336Y-74072543D01*
X160926929Y-74001973D01*
X160893138Y-73920449D01*
X160875557Y-73877880D01*
X160848740Y-73812673D01*
X160823624Y-73751273D01*
X160800597Y-73694647D01*
X160780047Y-73643760D01*
X160762363Y-73599580D01*
X160747933Y-73563075D01*
X160737145Y-73535210D01*
X160730388Y-73516954D01*
X160728049Y-73509273D01*
X160728602Y-73506090D01*
X160737234Y-73493750D01*
X160754618Y-73480067D01*
X160758212Y-73477721D01*
X160777778Y-73464425D01*
X160801886Y-73447478D01*
X160826140Y-73429960D01*
X160863171Y-73400131D01*
X160918147Y-73343696D01*
X160963472Y-73280520D01*
X160998672Y-73211825D01*
X161023274Y-73138831D01*
X161036806Y-73062763D01*
X161038795Y-72984841D01*
X161028767Y-72906288D01*
X161024093Y-72885870D01*
X160999475Y-72812745D01*
X160964150Y-72744523D01*
X160919131Y-72682286D01*
X160865433Y-72627119D01*
X160804070Y-72580104D01*
X160736057Y-72542327D01*
X160662408Y-72514870D01*
X160642525Y-72509961D01*
X160593764Y-72502619D01*
X160539556Y-72499439D01*
X160484210Y-72500421D01*
X160432035Y-72505565D01*
X160387340Y-72514870D01*
X160341361Y-72530173D01*
X160278513Y-72559533D01*
X160220811Y-72597993D01*
X160165411Y-72647248D01*
X160157356Y-72655386D01*
X160120607Y-72695485D01*
X160091888Y-72733186D01*
X160068897Y-72771811D01*
X160049331Y-72814684D01*
X160027609Y-72880314D01*
X160013542Y-72957516D01*
X160011158Y-73034636D01*
X160020126Y-73110501D01*
X160040114Y-73183939D01*
X160070787Y-73253777D01*
X160111816Y-73318842D01*
X160162867Y-73377961D01*
X160223608Y-73429960D01*
X160229316Y-73434131D01*
X160253940Y-73451793D01*
X160277344Y-73468132D01*
X160295130Y-73480067D01*
X160301343Y-73484321D01*
X160316241Y-73497847D01*
X160321699Y-73509273D01*
X160320763Y-73512824D01*
X160315597Y-73527276D01*
X160306257Y-73551694D01*
X160293131Y-73585111D01*
X160276607Y-73626561D01*
X160257073Y-73675076D01*
X160234919Y-73729689D01*
X160210531Y-73789434D01*
X160184299Y-73853343D01*
X160156610Y-73920449D01*
X160135065Y-73972472D01*
X160104033Y-74047107D01*
X160077210Y-74111190D01*
X160054309Y-74165365D01*
X160035049Y-74210276D01*
X160019143Y-74246569D01*
X160006309Y-74274888D01*
X159996262Y-74295879D01*
X159988719Y-74310185D01*
X159983394Y-74318452D01*
X159980004Y-74321325D01*
X159977113Y-74321047D01*
X159963671Y-74316494D01*
X159942546Y-74307313D01*
X159915989Y-74294520D01*
X159886253Y-74279128D01*
X159873186Y-74272219D01*
X159844421Y-74257591D01*
X159819755Y-74245827D01*
X159801471Y-74237990D01*
X159791848Y-74235141D01*
X159785851Y-74237601D01*
X159770327Y-74246434D01*
X159746872Y-74260915D01*
X159716750Y-74280232D01*
X159681224Y-74303574D01*
X159641558Y-74330128D01*
X159599015Y-74359082D01*
X159563292Y-74383514D01*
X159523030Y-74410865D01*
X159486719Y-74435330D01*
X159455625Y-74456066D01*
X159431017Y-74472229D01*
X159414162Y-74482975D01*
X159406327Y-74487458D01*
X159403885Y-74487681D01*
X159397771Y-74485376D01*
X159388417Y-74479106D01*
X159375038Y-74468161D01*
X159356851Y-74451827D01*
X159333072Y-74429390D01*
X159302917Y-74400140D01*
X159265602Y-74363362D01*
X159220344Y-74318343D01*
X159210160Y-74308165D01*
X159172439Y-74270130D01*
X159137902Y-74234790D01*
X159107502Y-74203158D01*
X159082196Y-74176246D01*
X159062938Y-74155065D01*
X159050683Y-74140628D01*
X159046385Y-74133948D01*
X159049172Y-74127635D01*
X159058352Y-74111972D01*
X159073156Y-74088411D01*
X159092777Y-74058192D01*
X159116408Y-74022557D01*
X159143243Y-73982746D01*
X159172474Y-73940001D01*
X159198296Y-73902226D01*
X159225755Y-73861409D01*
X159250209Y-73824366D01*
X159270825Y-73792391D01*
X159286772Y-73766777D01*
X159297216Y-73748820D01*
X159301325Y-73739813D01*
X159301053Y-73733701D01*
X159297012Y-73716780D01*
X159288465Y-73690215D01*
X159275257Y-73653565D01*
X159257234Y-73606390D01*
X159234243Y-73548250D01*
X159228400Y-73533684D01*
X159210846Y-73490294D01*
X159194667Y-73450836D01*
X159180507Y-73416850D01*
X159169013Y-73389875D01*
X159160829Y-73371448D01*
X159156601Y-73363108D01*
X159154983Y-73361601D01*
X159146989Y-73357757D01*
X159132204Y-73353095D01*
X159109706Y-73347406D01*
X159078571Y-73340480D01*
X159037876Y-73332106D01*
X158986698Y-73322073D01*
X158924114Y-73310173D01*
X158873036Y-73300496D01*
X158824844Y-73291233D01*
X158781690Y-73282806D01*
X158745027Y-73275504D01*
X158716304Y-73269615D01*
X158696973Y-73265428D01*
X158688485Y-73263233D01*
X158688119Y-73263069D01*
X158685439Y-73261007D01*
X158683252Y-73256839D01*
X158681508Y-73249409D01*
X158680158Y-73237563D01*
X158679152Y-73220144D01*
X158678441Y-73195997D01*
X158677974Y-73163969D01*
X158677702Y-73122903D01*
X158677576Y-73071644D01*
X158677545Y-73009037D01*
X158677545Y-72759510D01*
X158691611Y-72753600D01*
X158699791Y-72751378D01*
X158719108Y-72747099D01*
X158747856Y-72741158D01*
X158784547Y-72733851D01*
X158827689Y-72725474D01*
X158875792Y-72716325D01*
X158927367Y-72706699D01*
X158975324Y-72697689D01*
X159023608Y-72688311D01*
X159066983Y-72679570D01*
X159103969Y-72671780D01*
X159133088Y-72665253D01*
X159152858Y-72660301D01*
X159161800Y-72657235D01*
X159165040Y-72653343D01*
X159173364Y-72638900D01*
X159185038Y-72615799D01*
X159199286Y-72585833D01*
X159215331Y-72550794D01*
X159232396Y-72512476D01*
X159249706Y-72472672D01*
X159266483Y-72433174D01*
X159281951Y-72395776D01*
X159295333Y-72362271D01*
X159305853Y-72334451D01*
X159312735Y-72314109D01*
X159315202Y-72303039D01*
X159315185Y-72302674D01*
X159310982Y-72291809D01*
X159299405Y-72271026D01*
X159280524Y-72240440D01*
X159254414Y-72200165D01*
X159221146Y-72150317D01*
X159180793Y-72091009D01*
X159176773Y-72085138D01*
X159146853Y-72041082D01*
X159119400Y-72000031D01*
X159095191Y-71963195D01*
X159075007Y-71931784D01*
X159059625Y-71907008D01*
X159049825Y-71890076D01*
X159046385Y-71882199D01*
X159048960Y-71877539D01*
X159059341Y-71864664D01*
X159076589Y-71845176D01*
X159099528Y-71820271D01*
X159126985Y-71791147D01*
X159157782Y-71758999D01*
X159190746Y-71725023D01*
X159224702Y-71690415D01*
X159258473Y-71656373D01*
X159290885Y-71624092D01*
X159320763Y-71594767D01*
X159346932Y-71569596D01*
X159368216Y-71549775D01*
X159383440Y-71536500D01*
X159391430Y-71530967D01*
X159392880Y-71530499D01*
X159396361Y-71529597D01*
X159400291Y-71529616D01*
X159405658Y-71531169D01*
X159413448Y-71534870D01*
X159424647Y-71541336D01*
X159440241Y-71551181D01*
X159461218Y-71565019D01*
X159488563Y-71583465D01*
X159523262Y-71607134D01*
X159566303Y-71636641D01*
X159618671Y-71672601D01*
X159648897Y-71693294D01*
X159700936Y-71728517D01*
X159743523Y-71756719D01*
X159777069Y-71778158D01*
X159801982Y-71793093D01*
X159818673Y-71801783D01*
X159827551Y-71804485D01*
X159830454Y-71803981D01*
X159844626Y-71799611D01*
X159867537Y-71791387D01*
X159897331Y-71780071D01*
X159932154Y-71766422D01*
X159970152Y-71751200D01*
X160009470Y-71735166D01*
X160048254Y-71719079D01*
X160084648Y-71703700D01*
X160116798Y-71689788D01*
X160142851Y-71678103D01*
X160160950Y-71669406D01*
X160169241Y-71664457D01*
X160169593Y-71663946D01*
X160172835Y-71654161D01*
X160177950Y-71633705D01*
X160184645Y-71603968D01*
X160192621Y-71566339D01*
X160201584Y-71522209D01*
X160211237Y-71472967D01*
X160221285Y-71420004D01*
X160222932Y-71411196D01*
X160232905Y-71358520D01*
X160242367Y-71309621D01*
X160251029Y-71265921D01*
X160258602Y-71228839D01*
X160264796Y-71199795D01*
X160269322Y-71180210D01*
X160271892Y-71171505D01*
X160272765Y-71170010D01*
X160275314Y-71167228D01*
X160279754Y-71164980D01*
X160287266Y-71163207D01*
X160299028Y-71161854D01*
X160316219Y-71160864D01*
X160340018Y-71160181D01*
X160371604Y-71159748D01*
X160412156Y-71159508D01*
X160462853Y-71159406D01*
X160524874Y-71159385D01*
X160557369Y-71159388D01*
G37*
G36*
X160298161Y-75661764D02*
G01*
X160336541Y-75663618D01*
X160390073Y-75830724D01*
X160392243Y-75837491D01*
X160406064Y-75880207D01*
X160418670Y-75918542D01*
X160429551Y-75950989D01*
X160438195Y-75976040D01*
X160444092Y-75992185D01*
X160446730Y-75997917D01*
X160448299Y-75994573D01*
X160452835Y-75980741D01*
X160459742Y-75957694D01*
X160468544Y-75927062D01*
X160478767Y-75890475D01*
X160489935Y-75849565D01*
X160497697Y-75820819D01*
X160508638Y-75780316D01*
X160518418Y-75744124D01*
X160526514Y-75714182D01*
X160532400Y-75692430D01*
X160535552Y-75680810D01*
X160541091Y-75660492D01*
X160593935Y-75660492D01*
X160603474Y-75660550D01*
X160625613Y-75661203D01*
X160641008Y-75662426D01*
X160646779Y-75664029D01*
X160646748Y-75664205D01*
X160644472Y-75671929D01*
X160638944Y-75689824D01*
X160630652Y-75716349D01*
X160620086Y-75749962D01*
X160607735Y-75789123D01*
X160594087Y-75832290D01*
X160579631Y-75877923D01*
X160564857Y-75924480D01*
X160550253Y-75970421D01*
X160536308Y-76014204D01*
X160523512Y-76054289D01*
X160512352Y-76089135D01*
X160503319Y-76117200D01*
X160496901Y-76136944D01*
X160493587Y-76146825D01*
X160493417Y-76147237D01*
X160486905Y-76151492D01*
X160471421Y-76153366D01*
X160445274Y-76153076D01*
X160399877Y-76151238D01*
X160350357Y-75984291D01*
X160348537Y-75978166D01*
X160335663Y-75935454D01*
X160323845Y-75897276D01*
X160313569Y-75865128D01*
X160305321Y-75840504D01*
X160299588Y-75824899D01*
X160296855Y-75819806D01*
X160296726Y-75819938D01*
X160293634Y-75827492D01*
X160287564Y-75845325D01*
X160279008Y-75871880D01*
X160268463Y-75905601D01*
X160256420Y-75944932D01*
X160243375Y-75988315D01*
X160193876Y-76154364D01*
X160103728Y-76154364D01*
X160063176Y-76027770D01*
X160051145Y-75990180D01*
X160034415Y-75937832D01*
X160017160Y-75883767D01*
X160000827Y-75832526D01*
X159986867Y-75788649D01*
X159986752Y-75788288D01*
X159975362Y-75752513D01*
X159965164Y-75720618D01*
X159956806Y-75694612D01*
X159950932Y-75676505D01*
X159948190Y-75668306D01*
X159948443Y-75665595D01*
X159955278Y-75662595D01*
X159971403Y-75660977D01*
X159998407Y-75660492D01*
X160000737Y-75660495D01*
X160029858Y-75661390D01*
X160047500Y-75663953D01*
X160054537Y-75668306D01*
X160056478Y-75674707D01*
X160061336Y-75691867D01*
X160068566Y-75717913D01*
X160077700Y-75751149D01*
X160088270Y-75789880D01*
X160099808Y-75832409D01*
X160110133Y-75870260D01*
X160120930Y-75909124D01*
X160130419Y-75942524D01*
X160138121Y-75968806D01*
X160143559Y-75986314D01*
X160146256Y-75993395D01*
X160146566Y-75993400D01*
X160150187Y-75986638D01*
X160156952Y-75969696D01*
X160166342Y-75944018D01*
X160177842Y-75911047D01*
X160190934Y-75872228D01*
X160205103Y-75829002D01*
X160259781Y-75659911D01*
X160298161Y-75661764D01*
G37*
G36*
X173020102Y-65759230D02*
G01*
X173037267Y-65773073D01*
X173082919Y-65809870D01*
X173125166Y-65843896D01*
X173161483Y-65873119D01*
X173189342Y-65895504D01*
X173206217Y-65909018D01*
X173215154Y-65916197D01*
X173243888Y-65939779D01*
X173269153Y-65961123D01*
X173297793Y-65985895D01*
X173297793Y-66895038D01*
X173260012Y-66953904D01*
X173220476Y-67019571D01*
X173186901Y-67086207D01*
X173156471Y-67160343D01*
X173145580Y-67191113D01*
X173131619Y-67235092D01*
X173118725Y-67280170D01*
X173108066Y-67321975D01*
X173100813Y-67356138D01*
X173098135Y-67378288D01*
X173097242Y-67391365D01*
X173092866Y-67411376D01*
X173089482Y-67418224D01*
X173081959Y-67425108D01*
X173080326Y-67424003D01*
X173068348Y-67413202D01*
X173046007Y-67391931D01*
X173014619Y-67361478D01*
X172975504Y-67323133D01*
X172929977Y-67278185D01*
X172879357Y-67227923D01*
X172824962Y-67173637D01*
X172573603Y-66922166D01*
X172585190Y-66889341D01*
X172592259Y-66871804D01*
X172605983Y-66841103D01*
X172623689Y-66803476D01*
X172643272Y-66763481D01*
X172689766Y-66670447D01*
X172635697Y-66602917D01*
X172621678Y-66585426D01*
X172598004Y-66555974D01*
X172578795Y-66532179D01*
X172567237Y-66517995D01*
X172558944Y-66507821D01*
X172541405Y-66486128D01*
X172517143Y-66456029D01*
X172488115Y-66419962D01*
X172456277Y-66380363D01*
X172423587Y-66339668D01*
X172392001Y-66300313D01*
X172363477Y-66264735D01*
X172339971Y-66235371D01*
X172323441Y-66214655D01*
X172315843Y-66205026D01*
X172315919Y-66203709D01*
X172324099Y-66191875D01*
X172343774Y-66168993D01*
X172374202Y-66135850D01*
X172414641Y-66093228D01*
X172464350Y-66041914D01*
X172522588Y-65982691D01*
X172588614Y-65916344D01*
X172868283Y-65636774D01*
X173020102Y-65759230D01*
G37*
G36*
X174637848Y-65261420D02*
G01*
X174639735Y-65275815D01*
X174643397Y-65307163D01*
X174647713Y-65346796D01*
X174652100Y-65389462D01*
X174655075Y-65418705D01*
X174661082Y-65475621D01*
X174667604Y-65535411D01*
X174673673Y-65589120D01*
X174678132Y-65627732D01*
X174683246Y-65672232D01*
X174687603Y-65710377D01*
X174690581Y-65736722D01*
X174695431Y-65780154D01*
X174372056Y-66102359D01*
X174048682Y-66424563D01*
X173983576Y-66439648D01*
X173963007Y-66444608D01*
X173830294Y-66486275D01*
X173704690Y-66542675D01*
X173588600Y-66612755D01*
X173569730Y-66625776D01*
X173543208Y-66643881D01*
X173524565Y-66656347D01*
X173516983Y-66661030D01*
X173516736Y-66658690D01*
X173516290Y-66641930D01*
X173515883Y-66610546D01*
X173515527Y-66566329D01*
X173515230Y-66511074D01*
X173515006Y-66446574D01*
X173514863Y-66374622D01*
X173514813Y-66297011D01*
X173514813Y-65932824D01*
X173551706Y-65916531D01*
X173561956Y-65912315D01*
X173590261Y-65901674D01*
X173627603Y-65888318D01*
X173669206Y-65873895D01*
X173710292Y-65860049D01*
X173746087Y-65848428D01*
X173771812Y-65840677D01*
X173773582Y-65839136D01*
X173778736Y-65824435D01*
X173783562Y-65797289D01*
X173787352Y-65761320D01*
X173789378Y-65737277D01*
X173794072Y-65688312D01*
X173799727Y-65634838D01*
X173805525Y-65584780D01*
X173808631Y-65558929D01*
X173815295Y-65501018D01*
X173821851Y-65441369D01*
X173827243Y-65389462D01*
X173830346Y-65358954D01*
X173834734Y-65317914D01*
X173838636Y-65283651D01*
X173841471Y-65261420D01*
X173846209Y-65228867D01*
X174633109Y-65228867D01*
X174637848Y-65261420D01*
G37*
G36*
X175891469Y-66880388D02*
G01*
X175895685Y-66890637D01*
X175906326Y-66918942D01*
X175919682Y-66956284D01*
X175934105Y-66997887D01*
X175947951Y-67038974D01*
X175959572Y-67074768D01*
X175967323Y-67100493D01*
X175968864Y-67102264D01*
X175983565Y-67107417D01*
X176010711Y-67112244D01*
X176046680Y-67116034D01*
X176070723Y-67118060D01*
X176119688Y-67122754D01*
X176173162Y-67128408D01*
X176223220Y-67134207D01*
X176249071Y-67137313D01*
X176306982Y-67143977D01*
X176366631Y-67150532D01*
X176418538Y-67155925D01*
X176449046Y-67159027D01*
X176490086Y-67163415D01*
X176524349Y-67167318D01*
X176546580Y-67170152D01*
X176579133Y-67174891D01*
X176579133Y-67961791D01*
X176546580Y-67966529D01*
X176532184Y-67968419D01*
X176500835Y-67972088D01*
X176461203Y-67976417D01*
X176418538Y-67980820D01*
X176390284Y-67983678D01*
X176355136Y-67987340D01*
X176317221Y-67991427D01*
X176273643Y-67996261D01*
X176221508Y-68002164D01*
X176157921Y-68009458D01*
X176079987Y-68018464D01*
X176058226Y-68020805D01*
X176036627Y-68022782D01*
X176033841Y-68021666D01*
X176019515Y-68010807D01*
X175995126Y-67989534D01*
X175962086Y-67959246D01*
X175921804Y-67921343D01*
X175875693Y-67877225D01*
X175825162Y-67828292D01*
X175771623Y-67775943D01*
X175716487Y-67721578D01*
X175661164Y-67666597D01*
X175607066Y-67612400D01*
X175555604Y-67560385D01*
X175508187Y-67511954D01*
X175466228Y-67468505D01*
X175431138Y-67431439D01*
X175404326Y-67402154D01*
X175387204Y-67382052D01*
X175381184Y-67372532D01*
X175381156Y-67371311D01*
X175378100Y-67351073D01*
X175370820Y-67319119D01*
X175360496Y-67279759D01*
X175348308Y-67237303D01*
X175335437Y-67196061D01*
X175323064Y-67160343D01*
X175315745Y-67141436D01*
X175281139Y-67064439D01*
X175239642Y-66986943D01*
X175195892Y-66917796D01*
X175194157Y-66915311D01*
X175175437Y-66888321D01*
X175160507Y-66866492D01*
X175152462Y-66854346D01*
X175152629Y-66852546D01*
X175158883Y-66850110D01*
X175173584Y-66848123D01*
X175198004Y-66846548D01*
X175233418Y-66845346D01*
X175281099Y-66844478D01*
X175342320Y-66843906D01*
X175418355Y-66843591D01*
X175510477Y-66843495D01*
X175875176Y-66843495D01*
X175891469Y-66880388D01*
G37*
G36*
X174824080Y-67518859D02*
G01*
X174824399Y-67627477D01*
X174811785Y-67731408D01*
X174786796Y-67829020D01*
X174749991Y-67918683D01*
X174701929Y-67998762D01*
X174643169Y-68067628D01*
X174574268Y-68123647D01*
X174567495Y-68128074D01*
X174498598Y-68166187D01*
X174425017Y-68196088D01*
X174354052Y-68214755D01*
X174332559Y-68217331D01*
X174295299Y-68219520D01*
X174250899Y-68220519D01*
X174204936Y-68220126D01*
X174185075Y-68219533D01*
X174138504Y-68216992D01*
X174101324Y-68212480D01*
X174067664Y-68205109D01*
X174031651Y-68193994D01*
X174027035Y-68192405D01*
X173939265Y-68152702D01*
X173859979Y-68098289D01*
X173790504Y-68030246D01*
X173732164Y-67949656D01*
X173702112Y-67899979D01*
X173739791Y-67866542D01*
X173764981Y-67846277D01*
X173787626Y-67835219D01*
X173806147Y-67837128D01*
X173823806Y-67851417D01*
X173842582Y-67870027D01*
X173878548Y-67900290D01*
X173920253Y-67931265D01*
X173961971Y-67958771D01*
X173997977Y-67978626D01*
X174006758Y-67982676D01*
X174028668Y-67991626D01*
X174049726Y-67997375D01*
X174074486Y-68000620D01*
X174107498Y-68002056D01*
X174153315Y-68002380D01*
X174195034Y-68002233D01*
X174227698Y-68001181D01*
X174252174Y-67998312D01*
X174273222Y-67992715D01*
X174295604Y-67983478D01*
X174324080Y-67969690D01*
X174360383Y-67949049D01*
X174420803Y-67900123D01*
X174470083Y-67839660D01*
X174506999Y-67769712D01*
X174530327Y-67692333D01*
X174538842Y-67609575D01*
X174539147Y-67572681D01*
X173740914Y-67572681D01*
X173726645Y-67550905D01*
X173721364Y-67539497D01*
X173714124Y-67508590D01*
X173709367Y-67467038D01*
X173707225Y-67418999D01*
X173707834Y-67368630D01*
X173711327Y-67320089D01*
X173714518Y-67299236D01*
X173971443Y-67299236D01*
X173972771Y-67328768D01*
X173982602Y-67366702D01*
X174002810Y-67392391D01*
X174034383Y-67407536D01*
X174048613Y-67409656D01*
X174079057Y-67411846D01*
X174122191Y-67413695D01*
X174175517Y-67415122D01*
X174236539Y-67416044D01*
X174302760Y-67416378D01*
X174539477Y-67416427D01*
X174535038Y-67396895D01*
X174533227Y-67388802D01*
X174527720Y-67363636D01*
X174521389Y-67334233D01*
X174513859Y-67304827D01*
X174485522Y-67234999D01*
X174445287Y-67172330D01*
X174395433Y-67119970D01*
X174338236Y-67081067D01*
X174320922Y-67073245D01*
X174269614Y-67059451D01*
X174214236Y-67055305D01*
X174160870Y-67060932D01*
X174115598Y-67076458D01*
X174095218Y-67088184D01*
X174043868Y-67129575D01*
X174005079Y-67180158D01*
X173980417Y-67237517D01*
X173971443Y-67299236D01*
X173714518Y-67299236D01*
X173717838Y-67277534D01*
X173727140Y-67240304D01*
X173759034Y-67157253D01*
X173803696Y-67082467D01*
X173859535Y-67018327D01*
X173924964Y-66967214D01*
X173927833Y-66965419D01*
X173987995Y-66932449D01*
X174047820Y-66909862D01*
X174112920Y-66896002D01*
X174188906Y-66889209D01*
X174228920Y-66887736D01*
X174265102Y-66887961D01*
X174295721Y-66890919D01*
X174327112Y-66897276D01*
X174365607Y-66907691D01*
X174395918Y-66917108D01*
X174483009Y-66953972D01*
X174561373Y-67003793D01*
X174634635Y-67068742D01*
X174653297Y-67088349D01*
X174713085Y-67162627D01*
X174758521Y-67241170D01*
X174791370Y-67327491D01*
X174811436Y-67416427D01*
X174813395Y-67425108D01*
X174824080Y-67518859D01*
G37*
G36*
X176170063Y-66195602D02*
G01*
X176151626Y-66221494D01*
X176150815Y-66222627D01*
X176135473Y-66243078D01*
X176113856Y-66270827D01*
X176090373Y-66300208D01*
X176085147Y-66306662D01*
X176061298Y-66336214D01*
X176030936Y-66373937D01*
X175997419Y-66415657D01*
X175964105Y-66457199D01*
X175949172Y-66475803D01*
X175920617Y-66511155D01*
X175896276Y-66541006D01*
X175878351Y-66562665D01*
X175869043Y-66573438D01*
X175858403Y-66586040D01*
X175844010Y-66605991D01*
X175830588Y-66626475D01*
X174909877Y-66626475D01*
X174865575Y-66597083D01*
X174820961Y-66569761D01*
X174764849Y-66539198D01*
X174707103Y-66510823D01*
X174655360Y-66488578D01*
X174635235Y-66481316D01*
X174591298Y-66467387D01*
X174540721Y-66453030D01*
X174489266Y-66439772D01*
X174442693Y-66429141D01*
X174406765Y-66422664D01*
X174393017Y-66420453D01*
X174373284Y-66415601D01*
X174365531Y-66411038D01*
X174366975Y-66408953D01*
X174378467Y-66396216D01*
X174400368Y-66373185D01*
X174431397Y-66341168D01*
X174470277Y-66301474D01*
X174515729Y-66255411D01*
X174566475Y-66204287D01*
X174621235Y-66149411D01*
X174876938Y-65893817D01*
X174944594Y-65922898D01*
X174945006Y-65923075D01*
X174987376Y-65942224D01*
X175033437Y-65964444D01*
X175073290Y-65984960D01*
X175134330Y-66017942D01*
X175173119Y-65987454D01*
X175188750Y-65975099D01*
X175212623Y-65955992D01*
X175229340Y-65942318D01*
X175232391Y-65939766D01*
X175255611Y-65920657D01*
X175288926Y-65893561D01*
X175329397Y-65860837D01*
X175374085Y-65824845D01*
X175420053Y-65787943D01*
X175464363Y-65752493D01*
X175504076Y-65720852D01*
X175536255Y-65695380D01*
X175557961Y-65678436D01*
X175611225Y-65637540D01*
X176170063Y-66195602D01*
G37*
G36*
X173618115Y-68543601D02*
G01*
X173662967Y-68570905D01*
X173786822Y-68633530D01*
X173914007Y-68679751D01*
X174043321Y-68709102D01*
X174070489Y-68713860D01*
X174092713Y-68718624D01*
X174102731Y-68721957D01*
X174101598Y-68723976D01*
X174090703Y-68736503D01*
X174069370Y-68759304D01*
X174038854Y-68791090D01*
X174000405Y-68830568D01*
X173955278Y-68876451D01*
X173904723Y-68927448D01*
X173849993Y-68982269D01*
X173593249Y-69238575D01*
X173543180Y-69216591D01*
X173533399Y-69212220D01*
X173498420Y-69195928D01*
X173457486Y-69176184D01*
X173417556Y-69156326D01*
X173342000Y-69118045D01*
X173274353Y-69172208D01*
X173256752Y-69186318D01*
X173227288Y-69210016D01*
X173203492Y-69229249D01*
X173189314Y-69240832D01*
X173185769Y-69243745D01*
X173168906Y-69257456D01*
X173141694Y-69279486D01*
X173106347Y-69308046D01*
X173065078Y-69341347D01*
X173020102Y-69377599D01*
X172868283Y-69499908D01*
X172588614Y-69220337D01*
X172566947Y-69198643D01*
X172503303Y-69134463D01*
X172447680Y-69077655D01*
X172400821Y-69029004D01*
X172363466Y-68989294D01*
X172336357Y-68959309D01*
X172320236Y-68939835D01*
X172315843Y-68931656D01*
X172321254Y-68924794D01*
X172336117Y-68906160D01*
X172358304Y-68878434D01*
X172385879Y-68844025D01*
X172416907Y-68805344D01*
X172449453Y-68764801D01*
X172481582Y-68724806D01*
X172511360Y-68687769D01*
X172536852Y-68656100D01*
X172556123Y-68632210D01*
X172567237Y-68618508D01*
X172579833Y-68602910D01*
X172599039Y-68578886D01*
X172620691Y-68551643D01*
X172659755Y-68502347D01*
X173105949Y-68501937D01*
X173552142Y-68501526D01*
X173618115Y-68543601D01*
G37*
G36*
X172782621Y-67426442D02*
G01*
X172794959Y-67438783D01*
X172875702Y-67519950D01*
X172943882Y-67589258D01*
X172999550Y-67646761D01*
X173042758Y-67692513D01*
X173073557Y-67726569D01*
X173091999Y-67748983D01*
X173098135Y-67759809D01*
X173100097Y-67777149D01*
X173106663Y-67808955D01*
X173116726Y-67849114D01*
X173129121Y-67893289D01*
X173142686Y-67937143D01*
X173156255Y-67976338D01*
X173160980Y-67988711D01*
X173196134Y-68068100D01*
X173239095Y-68148605D01*
X173285258Y-68221471D01*
X173289526Y-68227602D01*
X173306968Y-68253212D01*
X173319214Y-68272113D01*
X173323836Y-68280582D01*
X173321613Y-68281016D01*
X173305060Y-68281825D01*
X173273863Y-68282563D01*
X173229817Y-68283211D01*
X173174722Y-68283748D01*
X173110375Y-68284156D01*
X173038573Y-68284415D01*
X172961116Y-68284506D01*
X172598397Y-68284506D01*
X172575844Y-68225911D01*
X172566083Y-68199666D01*
X172550946Y-68156770D01*
X172535457Y-68110966D01*
X172521764Y-68068643D01*
X172512017Y-68036188D01*
X172510464Y-68034413D01*
X172495741Y-68029262D01*
X172468589Y-68024436D01*
X172432638Y-68020648D01*
X172408596Y-68018622D01*
X172359631Y-68013928D01*
X172306157Y-68008273D01*
X172256098Y-68002475D01*
X172230247Y-67999369D01*
X172172336Y-67992705D01*
X172112688Y-67986149D01*
X172060780Y-67980757D01*
X172030273Y-67977654D01*
X171989232Y-67973266D01*
X171954970Y-67969364D01*
X171932739Y-67966529D01*
X171900186Y-67961791D01*
X171900186Y-67174891D01*
X171932739Y-67170152D01*
X171947133Y-67168265D01*
X171978482Y-67164603D01*
X172018115Y-67160287D01*
X172060780Y-67155900D01*
X172090031Y-67152922D01*
X172146945Y-67146902D01*
X172206732Y-67140358D01*
X172260438Y-67134261D01*
X172298230Y-67129885D01*
X172344859Y-67124542D01*
X172386032Y-67119882D01*
X172415857Y-67116576D01*
X172467106Y-67111016D01*
X172782621Y-67426442D01*
G37*
G36*
X175398776Y-67704216D02*
G01*
X175411313Y-67715474D01*
X175434164Y-67737163D01*
X175466015Y-67767999D01*
X175505555Y-67806702D01*
X175551469Y-67851987D01*
X175602446Y-67902573D01*
X175657171Y-67957178D01*
X175911347Y-68211463D01*
X175888636Y-68263176D01*
X175884254Y-68272989D01*
X175867644Y-68308696D01*
X175847639Y-68350217D01*
X175827645Y-68390444D01*
X175789363Y-68466000D01*
X175843527Y-68533647D01*
X175857637Y-68551248D01*
X175881334Y-68580712D01*
X175900567Y-68604508D01*
X175912150Y-68618686D01*
X175915064Y-68622231D01*
X175928774Y-68639094D01*
X175950804Y-68666306D01*
X175979364Y-68701653D01*
X176012665Y-68742922D01*
X176048918Y-68787898D01*
X176171226Y-68939717D01*
X175891656Y-69219386D01*
X175869962Y-69241053D01*
X175805782Y-69304697D01*
X175748974Y-69360320D01*
X175700322Y-69407179D01*
X175660612Y-69444534D01*
X175630628Y-69471643D01*
X175611153Y-69487764D01*
X175602974Y-69492157D01*
X175601461Y-69490981D01*
X175588471Y-69480657D01*
X175564755Y-69461690D01*
X175532452Y-69435793D01*
X175493697Y-69404679D01*
X175450630Y-69370060D01*
X175441407Y-69362643D01*
X175396576Y-69326607D01*
X175354683Y-69292961D01*
X175318375Y-69263827D01*
X175290299Y-69241331D01*
X175273102Y-69227595D01*
X175264196Y-69220459D01*
X175235448Y-69196902D01*
X175210166Y-69175558D01*
X175181525Y-69150787D01*
X175181525Y-68241644D01*
X175219810Y-68182462D01*
X175261745Y-68111138D01*
X175315769Y-67993660D01*
X175357410Y-67867415D01*
X175385542Y-67735446D01*
X175386586Y-67729466D01*
X175391665Y-67710527D01*
X175396823Y-67702893D01*
X175398776Y-67704216D01*
G37*
G36*
X174955454Y-68481310D02*
G01*
X174957890Y-68487565D01*
X174959877Y-68502265D01*
X174961452Y-68526686D01*
X174962654Y-68562100D01*
X174963522Y-68609781D01*
X174964094Y-68671002D01*
X174964409Y-68747036D01*
X174964505Y-68839158D01*
X174964505Y-69203858D01*
X174927612Y-69220151D01*
X174917363Y-69224367D01*
X174889058Y-69235008D01*
X174851716Y-69248363D01*
X174810113Y-69262787D01*
X174769026Y-69276632D01*
X174733232Y-69288254D01*
X174707507Y-69296004D01*
X174705736Y-69297545D01*
X174700583Y-69312247D01*
X174695756Y-69339393D01*
X174691966Y-69375362D01*
X174689940Y-69399404D01*
X174685246Y-69448369D01*
X174679592Y-69501843D01*
X174673793Y-69551902D01*
X174670687Y-69577753D01*
X174664023Y-69635664D01*
X174657468Y-69695312D01*
X174652075Y-69747220D01*
X174648973Y-69777727D01*
X174644585Y-69818768D01*
X174640682Y-69853030D01*
X174637848Y-69875261D01*
X174633109Y-69907814D01*
X173846209Y-69907814D01*
X173841471Y-69875261D01*
X173839583Y-69860867D01*
X173835922Y-69829518D01*
X173831606Y-69789885D01*
X173827218Y-69747220D01*
X173824244Y-69717977D01*
X173818236Y-69661060D01*
X173811715Y-69601271D01*
X173805646Y-69547562D01*
X173801228Y-69509338D01*
X173795982Y-69463812D01*
X173791435Y-69424214D01*
X173788239Y-69396204D01*
X173782892Y-69349016D01*
X174102380Y-69029441D01*
X174125120Y-69006728D01*
X174185745Y-68946520D01*
X174242523Y-68890618D01*
X174294260Y-68840168D01*
X174339760Y-68796318D01*
X174377826Y-68760216D01*
X174407264Y-68733008D01*
X174426876Y-68715842D01*
X174435468Y-68709865D01*
X174436689Y-68709837D01*
X174456927Y-68706782D01*
X174488881Y-68699502D01*
X174528241Y-68689177D01*
X174570697Y-68676990D01*
X174611939Y-68664119D01*
X174647657Y-68651745D01*
X174666564Y-68644426D01*
X174743561Y-68609821D01*
X174821057Y-68568323D01*
X174890204Y-68524574D01*
X174892689Y-68522838D01*
X174919679Y-68504119D01*
X174941508Y-68489189D01*
X174953654Y-68481143D01*
X174955454Y-68481310D01*
G37*
%TD*%
%LPC*%
D11*
%TO.C,J2*%
X155575000Y-58420000D03*
D12*
X155575000Y-60960000D03*
X155575000Y-63500000D03*
X155575000Y-66040000D03*
X155575000Y-68580000D03*
X155575000Y-71120000D03*
X155575000Y-73660000D03*
X155575000Y-76200000D03*
%TD*%
D11*
%TO.C,J1*%
X175768000Y-73147000D03*
D12*
X175768000Y-75687000D03*
%TD*%
M02*
