%TF.GenerationSoftware,KiCad,Pcbnew,(6.0.0)*%
%TF.CreationDate,2022-03-13T20:48:30-04:00*%
%TF.ProjectId,dual LED board,6475616c-204c-4454-9420-626f6172642e,rev?*%
%TF.SameCoordinates,Original*%
%TF.FileFunction,Copper,L2,Bot*%
%TF.FilePolarity,Positive*%
%FSLAX46Y46*%
G04 Gerber Fmt 4.6, Leading zero omitted, Abs format (unit mm)*
G04 Created by KiCad (PCBNEW (6.0.0)) date 2022-03-13 20:48:30*
%MOMM*%
%LPD*%
G01*
G04 APERTURE LIST*
%TA.AperFunction,ComponentPad*%
%ADD10R,1.700000X1.700000*%
%TD*%
%TA.AperFunction,ComponentPad*%
%ADD11O,1.700000X1.700000*%
%TD*%
%TA.AperFunction,ViaPad*%
%ADD12C,0.800000*%
%TD*%
%TA.AperFunction,Conductor*%
%ADD13C,0.250000*%
%TD*%
G04 APERTURE END LIST*
D10*
%TO.P,J2,1,Pin_1*%
%TO.N,Net-(J2-Pad1)*%
X155575000Y-58420000D03*
D11*
%TO.P,J2,2,Pin_2*%
%TO.N,Net-(J2-Pad2)*%
X155575000Y-60960000D03*
%TO.P,J2,3,Pin_3*%
%TO.N,Net-(J2-Pad3)*%
X155575000Y-63500000D03*
%TO.P,J2,4,Pin_4*%
%TO.N,Net-(J2-Pad4)*%
X155575000Y-66040000D03*
%TO.P,J2,5,Pin_5*%
%TO.N,Net-(J2-Pad5)*%
X155575000Y-68580000D03*
%TO.P,J2,6,Pin_6*%
%TO.N,Net-(J2-Pad6)*%
X155575000Y-71120000D03*
%TO.P,J2,7,Pin_7*%
%TO.N,Net-(J2-Pad7)*%
X155575000Y-73660000D03*
%TO.P,J2,8,Pin_8*%
%TO.N,Net-(J2-Pad8)*%
X155575000Y-76200000D03*
%TD*%
D10*
%TO.P,J1,1,Pin_1*%
%TO.N,GND*%
X175768000Y-73147000D03*
D11*
%TO.P,J1,2,Pin_2*%
%TO.N,+3V3*%
X175768000Y-75687000D03*
%TD*%
D12*
%TO.N,+3V3*%
X170561000Y-75819000D03*
X172720000Y-61214000D03*
X171196000Y-70866000D03*
X175260000Y-58674000D03*
X171450000Y-65786000D03*
%TD*%
D13*
%TO.N,+3V3*%
X175260000Y-58674000D02*
X172720000Y-61214000D01*
X171450000Y-62484000D02*
X171450000Y-65786000D01*
X170693000Y-75687000D02*
X175768000Y-75687000D01*
X171450000Y-70612000D02*
X171196000Y-70866000D01*
X171196000Y-70866000D02*
X171196000Y-75184000D01*
X171196000Y-75184000D02*
X170561000Y-75819000D01*
X171450000Y-65786000D02*
X171450000Y-70612000D01*
X172720000Y-61214000D02*
X171450000Y-62484000D01*
X170561000Y-75819000D02*
X170693000Y-75687000D01*
%TD*%
%TA.AperFunction,Conductor*%
%TO.N,GND*%
G36*
X176980121Y-57932002D02*
G01*
X177026614Y-57985658D01*
X177038000Y-58038000D01*
X177038000Y-71730657D01*
X177017998Y-71798778D01*
X176964342Y-71845271D01*
X176894068Y-71855375D01*
X176864904Y-71845650D01*
X176864462Y-71846828D01*
X176735606Y-71798522D01*
X176720351Y-71794895D01*
X176669486Y-71789369D01*
X176662672Y-71789000D01*
X176040115Y-71789000D01*
X176024876Y-71793475D01*
X176023671Y-71794865D01*
X176022000Y-71802548D01*
X176022000Y-73275000D01*
X176001998Y-73343121D01*
X175948342Y-73389614D01*
X175896000Y-73401000D01*
X174428116Y-73401000D01*
X174412877Y-73405475D01*
X174411672Y-73406865D01*
X174410001Y-73414548D01*
X174410001Y-74041669D01*
X174410371Y-74048490D01*
X174415895Y-74099352D01*
X174419521Y-74114604D01*
X174464676Y-74235054D01*
X174473214Y-74250649D01*
X174549715Y-74352724D01*
X174562276Y-74365285D01*
X174664351Y-74441786D01*
X174679946Y-74450324D01*
X174788827Y-74491142D01*
X174845591Y-74533784D01*
X174870291Y-74600345D01*
X174855083Y-74669694D01*
X174835691Y-74696175D01*
X174748083Y-74787852D01*
X174708629Y-74829138D01*
X174705715Y-74833410D01*
X174705714Y-74833411D01*
X174593095Y-74998504D01*
X174538184Y-75043507D01*
X174489007Y-75053500D01*
X171955500Y-75053500D01*
X171887379Y-75033498D01*
X171840886Y-74979842D01*
X171829500Y-74927500D01*
X171829500Y-72874885D01*
X174410000Y-72874885D01*
X174414475Y-72890124D01*
X174415865Y-72891329D01*
X174423548Y-72893000D01*
X175495885Y-72893000D01*
X175511124Y-72888525D01*
X175512329Y-72887135D01*
X175514000Y-72879452D01*
X175514000Y-71807116D01*
X175509525Y-71791877D01*
X175508135Y-71790672D01*
X175500452Y-71789001D01*
X174873331Y-71789001D01*
X174866510Y-71789371D01*
X174815648Y-71794895D01*
X174800396Y-71798521D01*
X174679946Y-71843676D01*
X174664351Y-71852214D01*
X174562276Y-71928715D01*
X174549715Y-71941276D01*
X174473214Y-72043351D01*
X174464676Y-72058946D01*
X174419522Y-72179394D01*
X174415895Y-72194649D01*
X174410369Y-72245514D01*
X174410000Y-72252328D01*
X174410000Y-72874885D01*
X171829500Y-72874885D01*
X171829500Y-71568524D01*
X171849502Y-71500403D01*
X171861858Y-71484221D01*
X171935040Y-71402944D01*
X172030527Y-71237556D01*
X172089542Y-71055928D01*
X172109504Y-70866000D01*
X172089542Y-70676072D01*
X172089259Y-70675200D01*
X172088545Y-70647866D01*
X172086730Y-70647809D01*
X172086979Y-70639890D01*
X172088220Y-70632057D01*
X172084059Y-70588038D01*
X172083500Y-70576181D01*
X172083500Y-66488524D01*
X172103502Y-66420403D01*
X172115858Y-66404221D01*
X172189040Y-66322944D01*
X172284527Y-66157556D01*
X172343542Y-65975928D01*
X172363504Y-65786000D01*
X172343542Y-65596072D01*
X172284527Y-65414444D01*
X172276529Y-65400590D01*
X172192341Y-65254774D01*
X172189040Y-65249056D01*
X172115863Y-65167785D01*
X172085147Y-65103779D01*
X172083500Y-65083476D01*
X172083500Y-62798594D01*
X172103502Y-62730473D01*
X172120405Y-62709499D01*
X172670499Y-62159405D01*
X172732811Y-62125379D01*
X172759594Y-62122500D01*
X172815487Y-62122500D01*
X172821939Y-62121128D01*
X172821944Y-62121128D01*
X172908887Y-62102647D01*
X173002288Y-62082794D01*
X173010266Y-62079242D01*
X173170722Y-62007803D01*
X173170724Y-62007802D01*
X173176752Y-62005118D01*
X173187198Y-61997529D01*
X173293255Y-61920473D01*
X173331253Y-61892866D01*
X173459040Y-61750944D01*
X173554527Y-61585556D01*
X173613542Y-61403928D01*
X173630907Y-61238706D01*
X173657920Y-61173050D01*
X173667122Y-61162782D01*
X175210499Y-59619405D01*
X175272811Y-59585379D01*
X175299594Y-59582500D01*
X175355487Y-59582500D01*
X175361939Y-59581128D01*
X175361944Y-59581128D01*
X175448888Y-59562647D01*
X175542288Y-59542794D01*
X175584745Y-59523891D01*
X175710722Y-59467803D01*
X175710724Y-59467802D01*
X175716752Y-59465118D01*
X175871253Y-59352866D01*
X175902526Y-59318134D01*
X175994621Y-59215852D01*
X175994622Y-59215851D01*
X175999040Y-59210944D01*
X176094527Y-59045556D01*
X176153542Y-58863928D01*
X176173504Y-58674000D01*
X176153542Y-58484072D01*
X176094527Y-58302444D01*
X175999040Y-58137056D01*
X175985762Y-58122309D01*
X175955045Y-58058301D01*
X175963810Y-57987848D01*
X176009274Y-57933317D01*
X176079399Y-57912000D01*
X176912000Y-57912000D01*
X176980121Y-57932002D01*
G37*
%TD.AperFunction*%
%TD*%
M02*
