%FSLAX45Y45*%
G04 Gerber Fmt 4.5, Leading zero omitted, Abs format (unit mm)*
G04 Created by KiCad (PCBNEW (6.0.0)) date 2022-03-13 20:48:32*
%MOMM*%
%LPD*%
G01*
G04 APERTURE LIST*
%TA.AperFunction,Profile*%
%ADD10C,0.100000*%
%TD*%
%ADD11C,0.200000*%
G04 APERTURE END LIST*
D10*
X17754600Y-7772400D02*
X17754600Y-5740400D01*
X17653000Y-7772400D02*
X17754600Y-7772400D01*
X15392400Y-5740400D02*
X17703800Y-5740400D01*
X17754600Y-5740400D02*
X17703800Y-5740400D01*
X15392400Y-7772400D02*
X17653000Y-7772400D01*
X15392400Y-5740400D02*
X15392400Y-7772400D01*
D11*
X15645019Y-8087876D02*
X15645019Y-7887876D01*
X15692638Y-7887876D01*
X15721209Y-7897400D01*
X15740257Y-7916448D01*
X15749781Y-7935495D01*
X15759305Y-7973590D01*
X15759305Y-8002162D01*
X15749781Y-8040257D01*
X15740257Y-8059305D01*
X15721209Y-8078352D01*
X15692638Y-8087876D01*
X15645019Y-8087876D01*
X15845019Y-8087876D02*
X15845019Y-7954543D01*
X15845019Y-7992638D02*
X15854543Y-7973590D01*
X15864067Y-7964067D01*
X15883114Y-7954543D01*
X15902162Y-7954543D01*
X15968828Y-8087876D02*
X15968828Y-7954543D01*
X15968828Y-7887876D02*
X15959305Y-7897400D01*
X15968828Y-7906924D01*
X15978352Y-7897400D01*
X15968828Y-7887876D01*
X15968828Y-7906924D01*
X16092638Y-8087876D02*
X16073590Y-8078352D01*
X16064067Y-8059305D01*
X16064067Y-7887876D01*
X16197400Y-8087876D02*
X16178352Y-8078352D01*
X16168828Y-8059305D01*
X16168828Y-7887876D01*
X16425971Y-8087876D02*
X16425971Y-7887876D01*
X16492638Y-8030733D01*
X16559305Y-7887876D01*
X16559305Y-8087876D01*
X16740257Y-8087876D02*
X16740257Y-7983114D01*
X16730733Y-7964067D01*
X16711686Y-7954543D01*
X16673590Y-7954543D01*
X16654543Y-7964067D01*
X16740257Y-8078352D02*
X16721209Y-8087876D01*
X16673590Y-8087876D01*
X16654543Y-8078352D01*
X16645019Y-8059305D01*
X16645019Y-8040257D01*
X16654543Y-8021209D01*
X16673590Y-8011686D01*
X16721209Y-8011686D01*
X16740257Y-8002162D01*
X16835495Y-7954543D02*
X16835495Y-8154543D01*
X16835495Y-7964067D02*
X16854543Y-7954543D01*
X16892638Y-7954543D01*
X16911686Y-7964067D01*
X16921210Y-7973590D01*
X16930733Y-7992638D01*
X16930733Y-8049781D01*
X16921210Y-8068828D01*
X16911686Y-8078352D01*
X16892638Y-8087876D01*
X16854543Y-8087876D01*
X16835495Y-8078352D01*
X17016448Y-8068828D02*
X17025971Y-8078352D01*
X17016448Y-8087876D01*
X17006924Y-8078352D01*
X17016448Y-8068828D01*
X17016448Y-8087876D01*
X17016448Y-7964067D02*
X17025971Y-7973590D01*
X17016448Y-7983114D01*
X17006924Y-7973590D01*
X17016448Y-7964067D01*
X17016448Y-7983114D01*
M02*
