M48
; DRILL file {KiCad (6.0.0)} date Tue Jan 31 14:33:07 2023
; FORMAT={-:-/ absolute / metric / decimal}
; #@! TF.CreationDate,2023-01-31T14:33:07-05:00
; #@! TF.GenerationSoftware,Kicad,Pcbnew,(6.0.0)
; #@! TF.FileFunction,Plated,1,4,PTH
FMAT,2
METRIC
; #@! TA.AperFunction,Plated,PTH,ViaDrill
T1C0.400
; #@! TA.AperFunction,Plated,PTH,ComponentDrill
T2C0.950
; #@! TA.AperFunction,Plated,PTH,ComponentDrill
T3C1.000
; #@! TA.AperFunction,Plated,PTH,ComponentDrill
T4C1.100
; #@! TA.AperFunction,Plated,PTH,ComponentDrill
T5C1.300
%
G90
G05
T1
X103.378Y-105.156
X103.378Y-106.172
X103.378Y-107.188
X103.378Y-108.204
X104.648Y-105.156
X104.648Y-106.172
X104.648Y-107.188
X104.648Y-108.204
X105.156Y-112.776
X105.156Y-113.792
X105.156Y-114.808
X105.156Y-115.824
X105.156Y-116.84
X106.172Y-112.776
X106.172Y-113.792
X106.172Y-114.808
X106.172Y-115.824
X106.172Y-116.84
X107.188Y-112.776
X107.188Y-113.792
X107.188Y-114.808
X107.188Y-115.824
X107.188Y-116.84
X108.204Y-112.776
X108.204Y-113.792
X108.204Y-114.808
X108.204Y-115.824
X108.204Y-116.84
X109.22Y-112.776
X109.22Y-113.792
X109.22Y-114.808
X109.22Y-115.824
X109.22Y-116.84
X109.728Y-103.124
X110.236Y-112.776
X110.236Y-113.792
X110.236Y-114.808
X110.236Y-115.824
X110.236Y-116.84
X111.252Y-112.776
X111.252Y-113.792
X111.252Y-114.808
X111.252Y-115.824
X111.252Y-116.84
X112.268Y-105.156
X112.268Y-106.172
X112.268Y-107.188
X112.268Y-108.204
X113.284Y-105.156
X113.284Y-106.172
X113.284Y-107.188
X113.284Y-108.204
X114.554Y-105.156
X114.554Y-106.172
X114.554Y-107.188
X114.554Y-108.204
X115.57Y-105.156
X115.57Y-106.172
X115.57Y-107.188
X115.57Y-108.204
X115.824Y-94.742
X115.824Y-112.776
X115.824Y-113.792
X115.824Y-114.808
X115.824Y-115.824
X115.824Y-116.84
X116.586Y-93.98
X116.84Y-112.776
X116.84Y-113.792
X116.84Y-114.808
X116.84Y-115.824
X116.84Y-116.84
X117.856Y-112.776
X117.856Y-113.792
X117.856Y-114.808
X117.856Y-115.824
X117.856Y-116.84
X118.872Y-112.776
X118.872Y-113.792
X118.872Y-114.808
X118.872Y-115.824
X118.872Y-116.84
X119.38Y-90.678
X119.888Y-112.776
X119.888Y-113.792
X119.888Y-114.808
X119.888Y-115.824
X119.888Y-116.84
X120.65Y-88.646
X120.65Y-103.124
X120.904Y-112.776
X120.904Y-113.792
X120.904Y-114.808
X120.904Y-115.824
X120.904Y-116.84
X121.666Y-98.298
X121.92Y-112.776
X121.92Y-113.792
X121.92Y-114.808
X121.92Y-115.824
X121.92Y-116.84
X123.19Y-105.156
X123.19Y-106.172
X123.19Y-107.188
X123.19Y-108.204
X123.825Y-92.329
X124.206Y-98.298
X124.206Y-105.156
X124.206Y-106.172
X124.206Y-107.188
X124.206Y-108.204
X125.476Y-105.156
X125.476Y-106.172
X125.476Y-107.188
X125.476Y-108.204
X126.238Y-92.456
X126.492Y-105.156
X126.492Y-106.172
X126.492Y-107.188
X126.492Y-108.204
X126.746Y-98.298
X126.746Y-112.776
X126.746Y-113.792
X126.746Y-114.808
X126.746Y-115.824
X126.746Y-116.84
X127.762Y-112.776
X127.762Y-113.792
X127.762Y-114.808
X127.762Y-115.824
X127.762Y-116.84
X128.778Y-112.776
X128.778Y-113.792
X128.778Y-114.808
X128.778Y-115.824
X128.778Y-116.84
X129.032Y-92.456
X129.286Y-98.298
X129.794Y-112.776
X129.794Y-113.792
X129.794Y-114.808
X129.794Y-115.824
X129.794Y-116.84
X130.81Y-112.776
X130.81Y-113.792
X130.81Y-114.808
X130.81Y-115.824
X130.81Y-116.84
X131.572Y-92.456
X131.572Y-103.124
X131.826Y-112.776
X131.826Y-113.792
X131.826Y-114.808
X131.826Y-115.824
X131.826Y-116.84
X132.842Y-83.566
X132.842Y-112.776
X132.842Y-113.792
X132.842Y-114.808
X132.842Y-115.824
X132.842Y-116.84
X133.35Y-87.63
X133.858Y-85.852
X134.112Y-105.156
X134.112Y-106.172
X134.112Y-107.188
X134.112Y-108.204
X135.128Y-105.156
X135.128Y-106.172
X135.128Y-107.188
X135.128Y-108.204
X136.398Y-105.156
X136.398Y-106.172
X136.398Y-107.188
X136.398Y-108.204
X136.652Y-84.836
X137.414Y-105.156
X137.414Y-106.172
X137.414Y-107.188
X137.414Y-108.204
X137.668Y-112.776
X137.668Y-113.792
X137.668Y-114.808
X137.668Y-115.824
X137.668Y-116.84
X138.684Y-112.776
X138.684Y-113.792
X138.684Y-114.808
X138.684Y-115.824
X138.684Y-116.84
X139.7Y-112.776
X139.7Y-113.792
X139.7Y-114.808
X139.7Y-115.824
X139.7Y-116.84
X140.716Y-112.776
X140.716Y-113.792
X140.716Y-114.808
X140.716Y-115.824
X140.716Y-116.84
X141.732Y-112.776
X141.732Y-113.792
X141.732Y-114.808
X141.732Y-115.824
X141.732Y-116.84
X142.494Y-103.114
X142.621Y-90.043
X142.748Y-112.776
X142.748Y-113.792
X142.748Y-114.808
X142.748Y-115.824
X142.748Y-116.84
X143.764Y-112.776
X143.764Y-113.792
X143.764Y-114.808
X143.764Y-115.824
X143.764Y-116.84
X145.034Y-89.916
X145.034Y-105.156
X145.034Y-106.172
X145.034Y-107.188
X145.034Y-108.204
X146.05Y-105.156
X146.05Y-106.172
X146.05Y-107.188
X146.05Y-108.204
X147.574Y-89.916
X148.082Y-105.156
X148.082Y-106.172
X148.082Y-107.188
X148.082Y-108.204
X149.352Y-89.154
X149.352Y-105.156
X149.352Y-106.172
X149.352Y-107.188
X149.352Y-108.204
X149.606Y-112.776
X149.606Y-113.792
X149.606Y-114.808
X149.606Y-115.824
X149.606Y-116.84
X150.622Y-112.776
X150.622Y-113.792
X150.622Y-114.808
X150.622Y-115.824
X150.622Y-116.84
X151.638Y-112.776
X151.638Y-113.792
X151.638Y-114.808
X151.638Y-115.824
X151.638Y-116.84
X151.892Y-89.154
X152.654Y-112.776
X152.654Y-113.792
X152.654Y-114.808
X152.654Y-115.824
X152.654Y-116.84
X153.218Y-87.574
X153.67Y-83.058
X153.67Y-112.776
X153.67Y-113.792
X153.67Y-114.808
X153.67Y-115.824
X153.67Y-116.84
X153.924Y-84.074
X153.924Y-85.09
X153.943Y-86.849
X154.432Y-103.124
X154.686Y-112.776
X154.686Y-113.792
X154.686Y-114.808
X154.686Y-115.824
X154.686Y-116.84
X155.702Y-112.776
X155.702Y-113.792
X155.702Y-114.808
X155.702Y-115.824
X155.702Y-116.84
X156.972Y-105.156
X156.972Y-106.172
X156.972Y-107.188
X156.972Y-108.204
X157.48Y-88.646
X157.988Y-105.156
X157.988Y-106.172
X157.988Y-107.188
X157.988Y-108.204
X158.242Y-87.884
X159.258Y-105.156
X159.258Y-106.172
X159.258Y-107.188
X159.258Y-108.204
X159.512Y-87.376
X160.274Y-105.156
X160.274Y-106.172
X160.274Y-107.188
X160.274Y-108.204
X160.528Y-112.776
X160.528Y-113.792
X160.528Y-114.808
X160.528Y-115.824
X160.528Y-116.84
X161.036Y-85.344
X161.544Y-112.776
X161.544Y-113.792
X161.544Y-114.808
X161.544Y-115.824
X161.544Y-116.84
X162.306Y-85.344
X162.56Y-112.776
X162.56Y-113.792
X162.56Y-114.808
X162.56Y-115.824
X162.56Y-116.84
X162.814Y-87.122
X163.576Y-112.776
X163.576Y-113.792
X163.576Y-114.808
X163.576Y-115.824
X163.576Y-116.84
X164.592Y-112.776
X164.592Y-113.792
X164.592Y-114.808
X164.592Y-115.824
X164.592Y-116.84
X165.608Y-112.776
X165.608Y-113.792
X165.608Y-114.808
X165.608Y-115.824
X165.608Y-116.84
X165.862Y-103.378
X166.37Y-89.662
X166.624Y-112.776
X166.624Y-113.792
X166.624Y-114.808
X166.624Y-115.824
X166.624Y-116.84
X167.894Y-105.156
X167.894Y-106.172
X167.894Y-107.188
X167.894Y-108.204
X168.402Y-97.536
X168.91Y-105.156
X168.91Y-106.172
X168.91Y-107.188
X168.91Y-108.204
X170.18Y-105.156
X170.18Y-106.172
X170.18Y-107.188
X170.18Y-108.204
X170.942Y-92.202
X170.942Y-97.536
X171.196Y-105.156
X171.196Y-106.172
X171.196Y-107.188
X171.196Y-108.204
X171.45Y-112.776
X171.45Y-113.792
X171.45Y-114.808
X171.45Y-115.824
X171.45Y-116.84
X172.466Y-112.776
X172.466Y-113.792
X172.466Y-114.808
X172.466Y-115.824
X172.466Y-116.84
X173.482Y-92.202
X173.482Y-97.536
X173.482Y-112.776
X173.482Y-113.792
X173.482Y-114.808
X173.482Y-115.824
X173.482Y-116.84
X174.498Y-112.776
X174.498Y-113.792
X174.498Y-114.808
X174.498Y-115.824
X174.498Y-116.84
X175.514Y-112.776
X175.514Y-113.792
X175.514Y-114.808
X175.514Y-115.824
X175.514Y-116.84
X175.768Y-92.202
X176.022Y-97.536
X176.276Y-102.87
X176.53Y-112.776
X176.53Y-113.792
X176.53Y-114.808
X176.53Y-115.824
X176.53Y-116.84
X177.546Y-112.776
X177.546Y-113.792
X177.546Y-114.808
X177.546Y-115.824
X177.546Y-116.84
X178.562Y-92.202
X178.816Y-105.156
X178.816Y-106.172
X178.816Y-107.188
X178.816Y-108.204
X179.578Y-96.266
X179.832Y-105.156
X179.832Y-106.172
X179.832Y-107.188
X179.832Y-108.204
X181.102Y-105.156
X181.102Y-106.172
X181.102Y-107.188
X181.102Y-108.204
X182.118Y-105.156
X182.118Y-106.172
X182.118Y-107.188
X182.118Y-108.204
X182.372Y-112.776
X182.372Y-113.792
X182.372Y-114.808
X182.372Y-115.824
X182.372Y-116.84
X183.388Y-112.776
X183.388Y-113.792
X183.388Y-114.808
X183.388Y-115.824
X183.388Y-116.84
X184.404Y-112.776
X184.404Y-113.792
X184.404Y-114.808
X184.404Y-115.824
X184.404Y-116.84
X185.42Y-112.776
X185.42Y-113.792
X185.42Y-114.808
X185.42Y-115.824
X185.42Y-116.84
X186.436Y-112.776
X186.436Y-113.792
X186.436Y-114.808
X186.436Y-115.824
X186.436Y-116.84
X187.198Y-103.124
X187.452Y-112.776
X187.452Y-113.792
X187.452Y-114.808
X187.452Y-115.824
X187.452Y-116.84
X188.468Y-112.776
X188.468Y-113.792
X188.468Y-114.808
X188.468Y-115.824
X188.468Y-116.84
X189.738Y-105.156
X189.738Y-106.172
X189.738Y-107.188
X189.738Y-108.204
X190.754Y-105.156
X190.754Y-106.172
X190.754Y-107.188
X190.754Y-108.204
X209.804Y-91.948
X213.512Y-96.622
X216.408Y-123.698
T2
X141.983Y-126.983
X144.483Y-126.983
X146.983Y-126.983
X149.483Y-126.983
X187.195Y-126.746
X189.695Y-126.746
X192.195Y-126.746
X194.695Y-126.746
T3
X102.534Y-94.488
X107.534Y-94.488
X111.257Y-90.932
X113.797Y-90.932
X123.889Y-86.36
X126.429Y-86.36
X128.969Y-86.36
X131.509Y-86.36
X182.621Y-86.614
X185.161Y-86.614
X189.91Y-98.806
X194.91Y-98.806
T4
X200.152Y-100.203
X200.152Y-118.745
X202.692Y-100.203
X202.692Y-118.745
X210.82Y-100.203
X210.82Y-118.745
X213.36Y-100.203
X213.36Y-118.745
T5
X116.683Y-126.964
X121.683Y-126.964
X126.683Y-126.964
X131.683Y-126.964
X162.022Y-126.837
X167.022Y-126.837
X172.022Y-126.837
X177.022Y-126.837
X206.265Y-126.837
X211.265Y-126.837
T0
M30
