G04 #@! TF.GenerationSoftware,KiCad,Pcbnew,(6.0.0)*
G04 #@! TF.CreationDate,2023-01-31T14:33:05-05:00*
G04 #@! TF.ProjectId,i2c BTS7960,69326320-4254-4533-9739-36302e6b6963,rev?*
G04 #@! TF.SameCoordinates,Original*
G04 #@! TF.FileFunction,Paste,Top*
G04 #@! TF.FilePolarity,Positive*
%FSLAX46Y46*%
G04 Gerber Fmt 4.6, Leading zero omitted, Abs format (unit mm)*
G04 Created by KiCad (PCBNEW (6.0.0)) date 2023-01-31 14:33:05*
%MOMM*%
%LPD*%
G01*
G04 APERTURE LIST*
G04 Aperture macros list*
%AMRoundRect*
0 Rectangle with rounded corners*
0 $1 Rounding radius*
0 $2 $3 $4 $5 $6 $7 $8 $9 X,Y pos of 4 corners*
0 Add a 4 corners polygon primitive as box body*
4,1,4,$2,$3,$4,$5,$6,$7,$8,$9,$2,$3,0*
0 Add four circle primitives for the rounded corners*
1,1,$1+$1,$2,$3*
1,1,$1+$1,$4,$5*
1,1,$1+$1,$6,$7*
1,1,$1+$1,$8,$9*
0 Add four rect primitives between the rounded corners*
20,1,$1+$1,$2,$3,$4,$5,0*
20,1,$1+$1,$4,$5,$6,$7,0*
20,1,$1+$1,$6,$7,$8,$9,0*
20,1,$1+$1,$8,$9,$2,$3,0*%
G04 Aperture macros list end*
%ADD10C,0.010000*%
%ADD11RoundRect,0.200000X-0.200000X-0.275000X0.200000X-0.275000X0.200000X0.275000X-0.200000X0.275000X0*%
%ADD12RoundRect,0.200000X0.275000X-0.200000X0.275000X0.200000X-0.275000X0.200000X-0.275000X-0.200000X0*%
%ADD13RoundRect,0.200000X-0.275000X0.200000X-0.275000X-0.200000X0.275000X-0.200000X0.275000X0.200000X0*%
%ADD14RoundRect,0.218750X0.256250X-0.218750X0.256250X0.218750X-0.256250X0.218750X-0.256250X-0.218750X0*%
%ADD15RoundRect,0.218750X0.218750X0.256250X-0.218750X0.256250X-0.218750X-0.256250X0.218750X-0.256250X0*%
%ADD16R,1.500000X2.000000*%
%ADD17R,3.800000X2.000000*%
%ADD18RoundRect,0.150000X0.150000X-0.875000X0.150000X0.875000X-0.150000X0.875000X-0.150000X-0.875000X0*%
%ADD19RoundRect,0.225000X0.225000X0.250000X-0.225000X0.250000X-0.225000X-0.250000X0.225000X-0.250000X0*%
%ADD20RoundRect,0.200000X0.200000X0.275000X-0.200000X0.275000X-0.200000X-0.275000X0.200000X-0.275000X0*%
%ADD21R,0.800000X3.810000*%
%ADD22RoundRect,0.150000X0.150000X0.625000X-0.150000X0.625000X-0.150000X-0.625000X0.150000X-0.625000X0*%
%ADD23RoundRect,0.250000X0.350000X0.650000X-0.350000X0.650000X-0.350000X-0.650000X0.350000X-0.650000X0*%
%ADD24RoundRect,0.250000X-0.650000X0.325000X-0.650000X-0.325000X0.650000X-0.325000X0.650000X0.325000X0*%
%ADD25RoundRect,0.218750X-0.218750X-0.256250X0.218750X-0.256250X0.218750X0.256250X-0.218750X0.256250X0*%
%ADD26RoundRect,0.250000X0.650000X-0.325000X0.650000X0.325000X-0.650000X0.325000X-0.650000X-0.325000X0*%
G04 APERTURE END LIST*
D10*
X151967000Y-112897000D02*
X151967000Y-114247000D01*
X151967000Y-114247000D02*
X150317000Y-114247000D01*
X150317000Y-114247000D02*
X150317000Y-112897000D01*
X150317000Y-112897000D02*
X151967000Y-112897000D01*
G36*
X151967000Y-114247000D02*
G01*
X150317000Y-114247000D01*
X150317000Y-112897000D01*
X151967000Y-112897000D01*
X151967000Y-114247000D01*
G37*
X151967000Y-114247000D02*
X150317000Y-114247000D01*
X150317000Y-112897000D01*
X151967000Y-112897000D01*
X151967000Y-114247000D01*
X149947000Y-118417000D02*
X149947000Y-119767000D01*
X149947000Y-119767000D02*
X148297000Y-119767000D01*
X148297000Y-119767000D02*
X148297000Y-118417000D01*
X148297000Y-118417000D02*
X149947000Y-118417000D01*
G36*
X149947000Y-119767000D02*
G01*
X148297000Y-119767000D01*
X148297000Y-118417000D01*
X149947000Y-118417000D01*
X149947000Y-119767000D01*
G37*
X149947000Y-119767000D02*
X148297000Y-119767000D01*
X148297000Y-118417000D01*
X149947000Y-118417000D01*
X149947000Y-119767000D01*
X149947000Y-115657000D02*
X149947000Y-117007000D01*
X149947000Y-117007000D02*
X148297000Y-117007000D01*
X148297000Y-117007000D02*
X148297000Y-115657000D01*
X148297000Y-115657000D02*
X149947000Y-115657000D01*
G36*
X149947000Y-117007000D02*
G01*
X148297000Y-117007000D01*
X148297000Y-115657000D01*
X149947000Y-115657000D01*
X149947000Y-117007000D01*
G37*
X149947000Y-117007000D02*
X148297000Y-117007000D01*
X148297000Y-115657000D01*
X149947000Y-115657000D01*
X149947000Y-117007000D01*
X153987000Y-118417000D02*
X153987000Y-119767000D01*
X153987000Y-119767000D02*
X152337000Y-119767000D01*
X152337000Y-119767000D02*
X152337000Y-118417000D01*
X152337000Y-118417000D02*
X153987000Y-118417000D01*
G36*
X153987000Y-119767000D02*
G01*
X152337000Y-119767000D01*
X152337000Y-118417000D01*
X153987000Y-118417000D01*
X153987000Y-119767000D01*
G37*
X153987000Y-119767000D02*
X152337000Y-119767000D01*
X152337000Y-118417000D01*
X153987000Y-118417000D01*
X153987000Y-119767000D01*
X149947000Y-112897000D02*
X149947000Y-114247000D01*
X149947000Y-114247000D02*
X148297000Y-114247000D01*
X148297000Y-114247000D02*
X148297000Y-112897000D01*
X148297000Y-112897000D02*
X149947000Y-112897000D01*
G36*
X149947000Y-114247000D02*
G01*
X148297000Y-114247000D01*
X148297000Y-112897000D01*
X149947000Y-112897000D01*
X149947000Y-114247000D01*
G37*
X149947000Y-114247000D02*
X148297000Y-114247000D01*
X148297000Y-112897000D01*
X149947000Y-112897000D01*
X149947000Y-114247000D01*
X156007000Y-112897000D02*
X156007000Y-114247000D01*
X156007000Y-114247000D02*
X154357000Y-114247000D01*
X154357000Y-114247000D02*
X154357000Y-112897000D01*
X154357000Y-112897000D02*
X156007000Y-112897000D01*
G36*
X156007000Y-114247000D02*
G01*
X154357000Y-114247000D01*
X154357000Y-112897000D01*
X156007000Y-112897000D01*
X156007000Y-114247000D01*
G37*
X156007000Y-114247000D02*
X154357000Y-114247000D01*
X154357000Y-112897000D01*
X156007000Y-112897000D01*
X156007000Y-114247000D01*
X158027000Y-118417000D02*
X158027000Y-119767000D01*
X158027000Y-119767000D02*
X156377000Y-119767000D01*
X156377000Y-119767000D02*
X156377000Y-118417000D01*
X156377000Y-118417000D02*
X158027000Y-118417000D01*
G36*
X158027000Y-119767000D02*
G01*
X156377000Y-119767000D01*
X156377000Y-118417000D01*
X158027000Y-118417000D01*
X158027000Y-119767000D01*
G37*
X158027000Y-119767000D02*
X156377000Y-119767000D01*
X156377000Y-118417000D01*
X158027000Y-118417000D01*
X158027000Y-119767000D01*
X153987000Y-115657000D02*
X153987000Y-117007000D01*
X153987000Y-117007000D02*
X152337000Y-117007000D01*
X152337000Y-117007000D02*
X152337000Y-115657000D01*
X152337000Y-115657000D02*
X153987000Y-115657000D01*
G36*
X153987000Y-117007000D02*
G01*
X152337000Y-117007000D01*
X152337000Y-115657000D01*
X153987000Y-115657000D01*
X153987000Y-117007000D01*
G37*
X153987000Y-117007000D02*
X152337000Y-117007000D01*
X152337000Y-115657000D01*
X153987000Y-115657000D01*
X153987000Y-117007000D01*
X156007000Y-115657000D02*
X156007000Y-117007000D01*
X156007000Y-117007000D02*
X154357000Y-117007000D01*
X154357000Y-117007000D02*
X154357000Y-115657000D01*
X154357000Y-115657000D02*
X156007000Y-115657000D01*
G36*
X156007000Y-117007000D02*
G01*
X154357000Y-117007000D01*
X154357000Y-115657000D01*
X156007000Y-115657000D01*
X156007000Y-117007000D01*
G37*
X156007000Y-117007000D02*
X154357000Y-117007000D01*
X154357000Y-115657000D01*
X156007000Y-115657000D01*
X156007000Y-117007000D01*
X153987000Y-112897000D02*
X153987000Y-114247000D01*
X153987000Y-114247000D02*
X152337000Y-114247000D01*
X152337000Y-114247000D02*
X152337000Y-112897000D01*
X152337000Y-112897000D02*
X153987000Y-112897000D01*
G36*
X153987000Y-114247000D02*
G01*
X152337000Y-114247000D01*
X152337000Y-112897000D01*
X153987000Y-112897000D01*
X153987000Y-114247000D01*
G37*
X153987000Y-114247000D02*
X152337000Y-114247000D01*
X152337000Y-112897000D01*
X153987000Y-112897000D01*
X153987000Y-114247000D01*
X158027000Y-115657000D02*
X158027000Y-117007000D01*
X158027000Y-117007000D02*
X156377000Y-117007000D01*
X156377000Y-117007000D02*
X156377000Y-115657000D01*
X156377000Y-115657000D02*
X158027000Y-115657000D01*
G36*
X158027000Y-117007000D02*
G01*
X156377000Y-117007000D01*
X156377000Y-115657000D01*
X158027000Y-115657000D01*
X158027000Y-117007000D01*
G37*
X158027000Y-117007000D02*
X156377000Y-117007000D01*
X156377000Y-115657000D01*
X158027000Y-115657000D01*
X158027000Y-117007000D01*
X158027000Y-112897000D02*
X158027000Y-114247000D01*
X158027000Y-114247000D02*
X156377000Y-114247000D01*
X156377000Y-114247000D02*
X156377000Y-112897000D01*
X156377000Y-112897000D02*
X158027000Y-112897000D01*
G36*
X158027000Y-114247000D02*
G01*
X156377000Y-114247000D01*
X156377000Y-112897000D01*
X158027000Y-112897000D01*
X158027000Y-114247000D01*
G37*
X158027000Y-114247000D02*
X156377000Y-114247000D01*
X156377000Y-112897000D01*
X158027000Y-112897000D01*
X158027000Y-114247000D01*
X151967000Y-115657000D02*
X151967000Y-117007000D01*
X151967000Y-117007000D02*
X150317000Y-117007000D01*
X150317000Y-117007000D02*
X150317000Y-115657000D01*
X150317000Y-115657000D02*
X151967000Y-115657000D01*
G36*
X151967000Y-117007000D02*
G01*
X150317000Y-117007000D01*
X150317000Y-115657000D01*
X151967000Y-115657000D01*
X151967000Y-117007000D01*
G37*
X151967000Y-117007000D02*
X150317000Y-117007000D01*
X150317000Y-115657000D01*
X151967000Y-115657000D01*
X151967000Y-117007000D01*
X151967000Y-118417000D02*
X151967000Y-119767000D01*
X151967000Y-119767000D02*
X150317000Y-119767000D01*
X150317000Y-119767000D02*
X150317000Y-118417000D01*
X150317000Y-118417000D02*
X151967000Y-118417000D01*
G36*
X151967000Y-119767000D02*
G01*
X150317000Y-119767000D01*
X150317000Y-118417000D01*
X151967000Y-118417000D01*
X151967000Y-119767000D01*
G37*
X151967000Y-119767000D02*
X150317000Y-119767000D01*
X150317000Y-118417000D01*
X151967000Y-118417000D01*
X151967000Y-119767000D01*
X156007000Y-118417000D02*
X156007000Y-119767000D01*
X156007000Y-119767000D02*
X154357000Y-119767000D01*
X154357000Y-119767000D02*
X154357000Y-118417000D01*
X154357000Y-118417000D02*
X156007000Y-118417000D01*
G36*
X156007000Y-119767000D02*
G01*
X154357000Y-119767000D01*
X154357000Y-118417000D01*
X156007000Y-118417000D01*
X156007000Y-119767000D01*
G37*
X156007000Y-119767000D02*
X154357000Y-119767000D01*
X154357000Y-118417000D01*
X156007000Y-118417000D01*
X156007000Y-119767000D01*
X127087000Y-112897000D02*
X127087000Y-114247000D01*
X127087000Y-114247000D02*
X125437000Y-114247000D01*
X125437000Y-114247000D02*
X125437000Y-112897000D01*
X125437000Y-112897000D02*
X127087000Y-112897000D01*
G36*
X127087000Y-114247000D02*
G01*
X125437000Y-114247000D01*
X125437000Y-112897000D01*
X127087000Y-112897000D01*
X127087000Y-114247000D01*
G37*
X127087000Y-114247000D02*
X125437000Y-114247000D01*
X125437000Y-112897000D01*
X127087000Y-112897000D01*
X127087000Y-114247000D01*
X131127000Y-115657000D02*
X131127000Y-117007000D01*
X131127000Y-117007000D02*
X129477000Y-117007000D01*
X129477000Y-117007000D02*
X129477000Y-115657000D01*
X129477000Y-115657000D02*
X131127000Y-115657000D01*
G36*
X131127000Y-117007000D02*
G01*
X129477000Y-117007000D01*
X129477000Y-115657000D01*
X131127000Y-115657000D01*
X131127000Y-117007000D01*
G37*
X131127000Y-117007000D02*
X129477000Y-117007000D01*
X129477000Y-115657000D01*
X131127000Y-115657000D01*
X131127000Y-117007000D01*
X129107000Y-115657000D02*
X129107000Y-117007000D01*
X129107000Y-117007000D02*
X127457000Y-117007000D01*
X127457000Y-117007000D02*
X127457000Y-115657000D01*
X127457000Y-115657000D02*
X129107000Y-115657000D01*
G36*
X129107000Y-117007000D02*
G01*
X127457000Y-117007000D01*
X127457000Y-115657000D01*
X129107000Y-115657000D01*
X129107000Y-117007000D01*
G37*
X129107000Y-117007000D02*
X127457000Y-117007000D01*
X127457000Y-115657000D01*
X129107000Y-115657000D01*
X129107000Y-117007000D01*
X135167000Y-118417000D02*
X135167000Y-119767000D01*
X135167000Y-119767000D02*
X133517000Y-119767000D01*
X133517000Y-119767000D02*
X133517000Y-118417000D01*
X133517000Y-118417000D02*
X135167000Y-118417000D01*
G36*
X135167000Y-119767000D02*
G01*
X133517000Y-119767000D01*
X133517000Y-118417000D01*
X135167000Y-118417000D01*
X135167000Y-119767000D01*
G37*
X135167000Y-119767000D02*
X133517000Y-119767000D01*
X133517000Y-118417000D01*
X135167000Y-118417000D01*
X135167000Y-119767000D01*
X135167000Y-115657000D02*
X135167000Y-117007000D01*
X135167000Y-117007000D02*
X133517000Y-117007000D01*
X133517000Y-117007000D02*
X133517000Y-115657000D01*
X133517000Y-115657000D02*
X135167000Y-115657000D01*
G36*
X135167000Y-117007000D02*
G01*
X133517000Y-117007000D01*
X133517000Y-115657000D01*
X135167000Y-115657000D01*
X135167000Y-117007000D01*
G37*
X135167000Y-117007000D02*
X133517000Y-117007000D01*
X133517000Y-115657000D01*
X135167000Y-115657000D01*
X135167000Y-117007000D01*
X131127000Y-118417000D02*
X131127000Y-119767000D01*
X131127000Y-119767000D02*
X129477000Y-119767000D01*
X129477000Y-119767000D02*
X129477000Y-118417000D01*
X129477000Y-118417000D02*
X131127000Y-118417000D01*
G36*
X131127000Y-119767000D02*
G01*
X129477000Y-119767000D01*
X129477000Y-118417000D01*
X131127000Y-118417000D01*
X131127000Y-119767000D01*
G37*
X131127000Y-119767000D02*
X129477000Y-119767000D01*
X129477000Y-118417000D01*
X131127000Y-118417000D01*
X131127000Y-119767000D01*
X127087000Y-118417000D02*
X127087000Y-119767000D01*
X127087000Y-119767000D02*
X125437000Y-119767000D01*
X125437000Y-119767000D02*
X125437000Y-118417000D01*
X125437000Y-118417000D02*
X127087000Y-118417000D01*
G36*
X127087000Y-119767000D02*
G01*
X125437000Y-119767000D01*
X125437000Y-118417000D01*
X127087000Y-118417000D01*
X127087000Y-119767000D01*
G37*
X127087000Y-119767000D02*
X125437000Y-119767000D01*
X125437000Y-118417000D01*
X127087000Y-118417000D01*
X127087000Y-119767000D01*
X133147000Y-118417000D02*
X133147000Y-119767000D01*
X133147000Y-119767000D02*
X131497000Y-119767000D01*
X131497000Y-119767000D02*
X131497000Y-118417000D01*
X131497000Y-118417000D02*
X133147000Y-118417000D01*
G36*
X133147000Y-119767000D02*
G01*
X131497000Y-119767000D01*
X131497000Y-118417000D01*
X133147000Y-118417000D01*
X133147000Y-119767000D01*
G37*
X133147000Y-119767000D02*
X131497000Y-119767000D01*
X131497000Y-118417000D01*
X133147000Y-118417000D01*
X133147000Y-119767000D01*
X135167000Y-112897000D02*
X135167000Y-114247000D01*
X135167000Y-114247000D02*
X133517000Y-114247000D01*
X133517000Y-114247000D02*
X133517000Y-112897000D01*
X133517000Y-112897000D02*
X135167000Y-112897000D01*
G36*
X135167000Y-114247000D02*
G01*
X133517000Y-114247000D01*
X133517000Y-112897000D01*
X135167000Y-112897000D01*
X135167000Y-114247000D01*
G37*
X135167000Y-114247000D02*
X133517000Y-114247000D01*
X133517000Y-112897000D01*
X135167000Y-112897000D01*
X135167000Y-114247000D01*
X129107000Y-118417000D02*
X129107000Y-119767000D01*
X129107000Y-119767000D02*
X127457000Y-119767000D01*
X127457000Y-119767000D02*
X127457000Y-118417000D01*
X127457000Y-118417000D02*
X129107000Y-118417000D01*
G36*
X129107000Y-119767000D02*
G01*
X127457000Y-119767000D01*
X127457000Y-118417000D01*
X129107000Y-118417000D01*
X129107000Y-119767000D01*
G37*
X129107000Y-119767000D02*
X127457000Y-119767000D01*
X127457000Y-118417000D01*
X129107000Y-118417000D01*
X129107000Y-119767000D01*
X129107000Y-112897000D02*
X129107000Y-114247000D01*
X129107000Y-114247000D02*
X127457000Y-114247000D01*
X127457000Y-114247000D02*
X127457000Y-112897000D01*
X127457000Y-112897000D02*
X129107000Y-112897000D01*
G36*
X129107000Y-114247000D02*
G01*
X127457000Y-114247000D01*
X127457000Y-112897000D01*
X129107000Y-112897000D01*
X129107000Y-114247000D01*
G37*
X129107000Y-114247000D02*
X127457000Y-114247000D01*
X127457000Y-112897000D01*
X129107000Y-112897000D01*
X129107000Y-114247000D01*
X127087000Y-115657000D02*
X127087000Y-117007000D01*
X127087000Y-117007000D02*
X125437000Y-117007000D01*
X125437000Y-117007000D02*
X125437000Y-115657000D01*
X125437000Y-115657000D02*
X127087000Y-115657000D01*
G36*
X127087000Y-117007000D02*
G01*
X125437000Y-117007000D01*
X125437000Y-115657000D01*
X127087000Y-115657000D01*
X127087000Y-117007000D01*
G37*
X127087000Y-117007000D02*
X125437000Y-117007000D01*
X125437000Y-115657000D01*
X127087000Y-115657000D01*
X127087000Y-117007000D01*
X131127000Y-112897000D02*
X131127000Y-114247000D01*
X131127000Y-114247000D02*
X129477000Y-114247000D01*
X129477000Y-114247000D02*
X129477000Y-112897000D01*
X129477000Y-112897000D02*
X131127000Y-112897000D01*
G36*
X131127000Y-114247000D02*
G01*
X129477000Y-114247000D01*
X129477000Y-112897000D01*
X131127000Y-112897000D01*
X131127000Y-114247000D01*
G37*
X131127000Y-114247000D02*
X129477000Y-114247000D01*
X129477000Y-112897000D01*
X131127000Y-112897000D01*
X131127000Y-114247000D01*
X133147000Y-115657000D02*
X133147000Y-117007000D01*
X133147000Y-117007000D02*
X131497000Y-117007000D01*
X131497000Y-117007000D02*
X131497000Y-115657000D01*
X131497000Y-115657000D02*
X133147000Y-115657000D01*
G36*
X133147000Y-117007000D02*
G01*
X131497000Y-117007000D01*
X131497000Y-115657000D01*
X133147000Y-115657000D01*
X133147000Y-117007000D01*
G37*
X133147000Y-117007000D02*
X131497000Y-117007000D01*
X131497000Y-115657000D01*
X133147000Y-115657000D01*
X133147000Y-117007000D01*
X133147000Y-112897000D02*
X133147000Y-114247000D01*
X133147000Y-114247000D02*
X131497000Y-114247000D01*
X131497000Y-114247000D02*
X131497000Y-112897000D01*
X131497000Y-112897000D02*
X133147000Y-112897000D01*
G36*
X133147000Y-114247000D02*
G01*
X131497000Y-114247000D01*
X131497000Y-112897000D01*
X133147000Y-112897000D01*
X133147000Y-114247000D01*
G37*
X133147000Y-114247000D02*
X131497000Y-114247000D01*
X131497000Y-112897000D01*
X133147000Y-112897000D01*
X133147000Y-114247000D01*
X188773000Y-115657000D02*
X188773000Y-117007000D01*
X188773000Y-117007000D02*
X187123000Y-117007000D01*
X187123000Y-117007000D02*
X187123000Y-115657000D01*
X187123000Y-115657000D02*
X188773000Y-115657000D01*
G36*
X188773000Y-117007000D02*
G01*
X187123000Y-117007000D01*
X187123000Y-115657000D01*
X188773000Y-115657000D01*
X188773000Y-117007000D01*
G37*
X188773000Y-117007000D02*
X187123000Y-117007000D01*
X187123000Y-115657000D01*
X188773000Y-115657000D01*
X188773000Y-117007000D01*
X188773000Y-118417000D02*
X188773000Y-119767000D01*
X188773000Y-119767000D02*
X187123000Y-119767000D01*
X187123000Y-119767000D02*
X187123000Y-118417000D01*
X187123000Y-118417000D02*
X188773000Y-118417000D01*
G36*
X188773000Y-119767000D02*
G01*
X187123000Y-119767000D01*
X187123000Y-118417000D01*
X188773000Y-118417000D01*
X188773000Y-119767000D01*
G37*
X188773000Y-119767000D02*
X187123000Y-119767000D01*
X187123000Y-118417000D01*
X188773000Y-118417000D01*
X188773000Y-119767000D01*
X188773000Y-112897000D02*
X188773000Y-114247000D01*
X188773000Y-114247000D02*
X187123000Y-114247000D01*
X187123000Y-114247000D02*
X187123000Y-112897000D01*
X187123000Y-112897000D02*
X188773000Y-112897000D01*
G36*
X188773000Y-114247000D02*
G01*
X187123000Y-114247000D01*
X187123000Y-112897000D01*
X188773000Y-112897000D01*
X188773000Y-114247000D01*
G37*
X188773000Y-114247000D02*
X187123000Y-114247000D01*
X187123000Y-112897000D01*
X188773000Y-112897000D01*
X188773000Y-114247000D01*
X184733000Y-112897000D02*
X184733000Y-114247000D01*
X184733000Y-114247000D02*
X183083000Y-114247000D01*
X183083000Y-114247000D02*
X183083000Y-112897000D01*
X183083000Y-112897000D02*
X184733000Y-112897000D01*
G36*
X184733000Y-114247000D02*
G01*
X183083000Y-114247000D01*
X183083000Y-112897000D01*
X184733000Y-112897000D01*
X184733000Y-114247000D01*
G37*
X184733000Y-114247000D02*
X183083000Y-114247000D01*
X183083000Y-112897000D01*
X184733000Y-112897000D01*
X184733000Y-114247000D01*
X184733000Y-118417000D02*
X184733000Y-119767000D01*
X184733000Y-119767000D02*
X183083000Y-119767000D01*
X183083000Y-119767000D02*
X183083000Y-118417000D01*
X183083000Y-118417000D02*
X184733000Y-118417000D01*
G36*
X184733000Y-119767000D02*
G01*
X183083000Y-119767000D01*
X183083000Y-118417000D01*
X184733000Y-118417000D01*
X184733000Y-119767000D01*
G37*
X184733000Y-119767000D02*
X183083000Y-119767000D01*
X183083000Y-118417000D01*
X184733000Y-118417000D01*
X184733000Y-119767000D01*
X186753000Y-112897000D02*
X186753000Y-114247000D01*
X186753000Y-114247000D02*
X185103000Y-114247000D01*
X185103000Y-114247000D02*
X185103000Y-112897000D01*
X185103000Y-112897000D02*
X186753000Y-112897000D01*
G36*
X186753000Y-114247000D02*
G01*
X185103000Y-114247000D01*
X185103000Y-112897000D01*
X186753000Y-112897000D01*
X186753000Y-114247000D01*
G37*
X186753000Y-114247000D02*
X185103000Y-114247000D01*
X185103000Y-112897000D01*
X186753000Y-112897000D01*
X186753000Y-114247000D01*
X184733000Y-115657000D02*
X184733000Y-117007000D01*
X184733000Y-117007000D02*
X183083000Y-117007000D01*
X183083000Y-117007000D02*
X183083000Y-115657000D01*
X183083000Y-115657000D02*
X184733000Y-115657000D01*
G36*
X184733000Y-117007000D02*
G01*
X183083000Y-117007000D01*
X183083000Y-115657000D01*
X184733000Y-115657000D01*
X184733000Y-117007000D01*
G37*
X184733000Y-117007000D02*
X183083000Y-117007000D01*
X183083000Y-115657000D01*
X184733000Y-115657000D01*
X184733000Y-117007000D01*
X190793000Y-118417000D02*
X190793000Y-119767000D01*
X190793000Y-119767000D02*
X189143000Y-119767000D01*
X189143000Y-119767000D02*
X189143000Y-118417000D01*
X189143000Y-118417000D02*
X190793000Y-118417000D01*
G36*
X190793000Y-119767000D02*
G01*
X189143000Y-119767000D01*
X189143000Y-118417000D01*
X190793000Y-118417000D01*
X190793000Y-119767000D01*
G37*
X190793000Y-119767000D02*
X189143000Y-119767000D01*
X189143000Y-118417000D01*
X190793000Y-118417000D01*
X190793000Y-119767000D01*
X190793000Y-115657000D02*
X190793000Y-117007000D01*
X190793000Y-117007000D02*
X189143000Y-117007000D01*
X189143000Y-117007000D02*
X189143000Y-115657000D01*
X189143000Y-115657000D02*
X190793000Y-115657000D01*
G36*
X190793000Y-117007000D02*
G01*
X189143000Y-117007000D01*
X189143000Y-115657000D01*
X190793000Y-115657000D01*
X190793000Y-117007000D01*
G37*
X190793000Y-117007000D02*
X189143000Y-117007000D01*
X189143000Y-115657000D01*
X190793000Y-115657000D01*
X190793000Y-117007000D01*
X190793000Y-112897000D02*
X190793000Y-114247000D01*
X190793000Y-114247000D02*
X189143000Y-114247000D01*
X189143000Y-114247000D02*
X189143000Y-112897000D01*
X189143000Y-112897000D02*
X190793000Y-112897000D01*
G36*
X190793000Y-114247000D02*
G01*
X189143000Y-114247000D01*
X189143000Y-112897000D01*
X190793000Y-112897000D01*
X190793000Y-114247000D01*
G37*
X190793000Y-114247000D02*
X189143000Y-114247000D01*
X189143000Y-112897000D01*
X190793000Y-112897000D01*
X190793000Y-114247000D01*
X182713000Y-115657000D02*
X182713000Y-117007000D01*
X182713000Y-117007000D02*
X181063000Y-117007000D01*
X181063000Y-117007000D02*
X181063000Y-115657000D01*
X181063000Y-115657000D02*
X182713000Y-115657000D01*
G36*
X182713000Y-117007000D02*
G01*
X181063000Y-117007000D01*
X181063000Y-115657000D01*
X182713000Y-115657000D01*
X182713000Y-117007000D01*
G37*
X182713000Y-117007000D02*
X181063000Y-117007000D01*
X181063000Y-115657000D01*
X182713000Y-115657000D01*
X182713000Y-117007000D01*
X186753000Y-118417000D02*
X186753000Y-119767000D01*
X186753000Y-119767000D02*
X185103000Y-119767000D01*
X185103000Y-119767000D02*
X185103000Y-118417000D01*
X185103000Y-118417000D02*
X186753000Y-118417000D01*
G36*
X186753000Y-119767000D02*
G01*
X185103000Y-119767000D01*
X185103000Y-118417000D01*
X186753000Y-118417000D01*
X186753000Y-119767000D01*
G37*
X186753000Y-119767000D02*
X185103000Y-119767000D01*
X185103000Y-118417000D01*
X186753000Y-118417000D01*
X186753000Y-119767000D01*
X182713000Y-112897000D02*
X182713000Y-114247000D01*
X182713000Y-114247000D02*
X181063000Y-114247000D01*
X181063000Y-114247000D02*
X181063000Y-112897000D01*
X181063000Y-112897000D02*
X182713000Y-112897000D01*
G36*
X182713000Y-114247000D02*
G01*
X181063000Y-114247000D01*
X181063000Y-112897000D01*
X182713000Y-112897000D01*
X182713000Y-114247000D01*
G37*
X182713000Y-114247000D02*
X181063000Y-114247000D01*
X181063000Y-112897000D01*
X182713000Y-112897000D01*
X182713000Y-114247000D01*
X186753000Y-115657000D02*
X186753000Y-117007000D01*
X186753000Y-117007000D02*
X185103000Y-117007000D01*
X185103000Y-117007000D02*
X185103000Y-115657000D01*
X185103000Y-115657000D02*
X186753000Y-115657000D01*
G36*
X186753000Y-117007000D02*
G01*
X185103000Y-117007000D01*
X185103000Y-115657000D01*
X186753000Y-115657000D01*
X186753000Y-117007000D01*
G37*
X186753000Y-117007000D02*
X185103000Y-117007000D01*
X185103000Y-115657000D01*
X186753000Y-115657000D01*
X186753000Y-117007000D01*
X182713000Y-118417000D02*
X182713000Y-119767000D01*
X182713000Y-119767000D02*
X181063000Y-119767000D01*
X181063000Y-119767000D02*
X181063000Y-118417000D01*
X181063000Y-118417000D02*
X182713000Y-118417000D01*
G36*
X182713000Y-119767000D02*
G01*
X181063000Y-119767000D01*
X181063000Y-118417000D01*
X182713000Y-118417000D01*
X182713000Y-119767000D01*
G37*
X182713000Y-119767000D02*
X181063000Y-119767000D01*
X181063000Y-118417000D01*
X182713000Y-118417000D01*
X182713000Y-119767000D01*
X173811000Y-115657000D02*
X173811000Y-117007000D01*
X173811000Y-117007000D02*
X172161000Y-117007000D01*
X172161000Y-117007000D02*
X172161000Y-115657000D01*
X172161000Y-115657000D02*
X173811000Y-115657000D01*
G36*
X173811000Y-117007000D02*
G01*
X172161000Y-117007000D01*
X172161000Y-115657000D01*
X173811000Y-115657000D01*
X173811000Y-117007000D01*
G37*
X173811000Y-117007000D02*
X172161000Y-117007000D01*
X172161000Y-115657000D01*
X173811000Y-115657000D01*
X173811000Y-117007000D01*
X171791000Y-115657000D02*
X171791000Y-117007000D01*
X171791000Y-117007000D02*
X170141000Y-117007000D01*
X170141000Y-117007000D02*
X170141000Y-115657000D01*
X170141000Y-115657000D02*
X171791000Y-115657000D01*
G36*
X171791000Y-117007000D02*
G01*
X170141000Y-117007000D01*
X170141000Y-115657000D01*
X171791000Y-115657000D01*
X171791000Y-117007000D01*
G37*
X171791000Y-117007000D02*
X170141000Y-117007000D01*
X170141000Y-115657000D01*
X171791000Y-115657000D01*
X171791000Y-117007000D01*
X179871000Y-112897000D02*
X179871000Y-114247000D01*
X179871000Y-114247000D02*
X178221000Y-114247000D01*
X178221000Y-114247000D02*
X178221000Y-112897000D01*
X178221000Y-112897000D02*
X179871000Y-112897000D01*
G36*
X179871000Y-114247000D02*
G01*
X178221000Y-114247000D01*
X178221000Y-112897000D01*
X179871000Y-112897000D01*
X179871000Y-114247000D01*
G37*
X179871000Y-114247000D02*
X178221000Y-114247000D01*
X178221000Y-112897000D01*
X179871000Y-112897000D01*
X179871000Y-114247000D01*
X175831000Y-115657000D02*
X175831000Y-117007000D01*
X175831000Y-117007000D02*
X174181000Y-117007000D01*
X174181000Y-117007000D02*
X174181000Y-115657000D01*
X174181000Y-115657000D02*
X175831000Y-115657000D01*
G36*
X175831000Y-117007000D02*
G01*
X174181000Y-117007000D01*
X174181000Y-115657000D01*
X175831000Y-115657000D01*
X175831000Y-117007000D01*
G37*
X175831000Y-117007000D02*
X174181000Y-117007000D01*
X174181000Y-115657000D01*
X175831000Y-115657000D01*
X175831000Y-117007000D01*
X171791000Y-112897000D02*
X171791000Y-114247000D01*
X171791000Y-114247000D02*
X170141000Y-114247000D01*
X170141000Y-114247000D02*
X170141000Y-112897000D01*
X170141000Y-112897000D02*
X171791000Y-112897000D01*
G36*
X171791000Y-114247000D02*
G01*
X170141000Y-114247000D01*
X170141000Y-112897000D01*
X171791000Y-112897000D01*
X171791000Y-114247000D01*
G37*
X171791000Y-114247000D02*
X170141000Y-114247000D01*
X170141000Y-112897000D01*
X171791000Y-112897000D01*
X171791000Y-114247000D01*
X177851000Y-118417000D02*
X177851000Y-119767000D01*
X177851000Y-119767000D02*
X176201000Y-119767000D01*
X176201000Y-119767000D02*
X176201000Y-118417000D01*
X176201000Y-118417000D02*
X177851000Y-118417000D01*
G36*
X177851000Y-119767000D02*
G01*
X176201000Y-119767000D01*
X176201000Y-118417000D01*
X177851000Y-118417000D01*
X177851000Y-119767000D01*
G37*
X177851000Y-119767000D02*
X176201000Y-119767000D01*
X176201000Y-118417000D01*
X177851000Y-118417000D01*
X177851000Y-119767000D01*
X179871000Y-118417000D02*
X179871000Y-119767000D01*
X179871000Y-119767000D02*
X178221000Y-119767000D01*
X178221000Y-119767000D02*
X178221000Y-118417000D01*
X178221000Y-118417000D02*
X179871000Y-118417000D01*
G36*
X179871000Y-119767000D02*
G01*
X178221000Y-119767000D01*
X178221000Y-118417000D01*
X179871000Y-118417000D01*
X179871000Y-119767000D01*
G37*
X179871000Y-119767000D02*
X178221000Y-119767000D01*
X178221000Y-118417000D01*
X179871000Y-118417000D01*
X179871000Y-119767000D01*
X179871000Y-115657000D02*
X179871000Y-117007000D01*
X179871000Y-117007000D02*
X178221000Y-117007000D01*
X178221000Y-117007000D02*
X178221000Y-115657000D01*
X178221000Y-115657000D02*
X179871000Y-115657000D01*
G36*
X179871000Y-117007000D02*
G01*
X178221000Y-117007000D01*
X178221000Y-115657000D01*
X179871000Y-115657000D01*
X179871000Y-117007000D01*
G37*
X179871000Y-117007000D02*
X178221000Y-117007000D01*
X178221000Y-115657000D01*
X179871000Y-115657000D01*
X179871000Y-117007000D01*
X177851000Y-112897000D02*
X177851000Y-114247000D01*
X177851000Y-114247000D02*
X176201000Y-114247000D01*
X176201000Y-114247000D02*
X176201000Y-112897000D01*
X176201000Y-112897000D02*
X177851000Y-112897000D01*
G36*
X177851000Y-114247000D02*
G01*
X176201000Y-114247000D01*
X176201000Y-112897000D01*
X177851000Y-112897000D01*
X177851000Y-114247000D01*
G37*
X177851000Y-114247000D02*
X176201000Y-114247000D01*
X176201000Y-112897000D01*
X177851000Y-112897000D01*
X177851000Y-114247000D01*
X175831000Y-112897000D02*
X175831000Y-114247000D01*
X175831000Y-114247000D02*
X174181000Y-114247000D01*
X174181000Y-114247000D02*
X174181000Y-112897000D01*
X174181000Y-112897000D02*
X175831000Y-112897000D01*
G36*
X175831000Y-114247000D02*
G01*
X174181000Y-114247000D01*
X174181000Y-112897000D01*
X175831000Y-112897000D01*
X175831000Y-114247000D01*
G37*
X175831000Y-114247000D02*
X174181000Y-114247000D01*
X174181000Y-112897000D01*
X175831000Y-112897000D01*
X175831000Y-114247000D01*
X175831000Y-118417000D02*
X175831000Y-119767000D01*
X175831000Y-119767000D02*
X174181000Y-119767000D01*
X174181000Y-119767000D02*
X174181000Y-118417000D01*
X174181000Y-118417000D02*
X175831000Y-118417000D01*
G36*
X175831000Y-119767000D02*
G01*
X174181000Y-119767000D01*
X174181000Y-118417000D01*
X175831000Y-118417000D01*
X175831000Y-119767000D01*
G37*
X175831000Y-119767000D02*
X174181000Y-119767000D01*
X174181000Y-118417000D01*
X175831000Y-118417000D01*
X175831000Y-119767000D01*
X177851000Y-115657000D02*
X177851000Y-117007000D01*
X177851000Y-117007000D02*
X176201000Y-117007000D01*
X176201000Y-117007000D02*
X176201000Y-115657000D01*
X176201000Y-115657000D02*
X177851000Y-115657000D01*
G36*
X177851000Y-117007000D02*
G01*
X176201000Y-117007000D01*
X176201000Y-115657000D01*
X177851000Y-115657000D01*
X177851000Y-117007000D01*
G37*
X177851000Y-117007000D02*
X176201000Y-117007000D01*
X176201000Y-115657000D01*
X177851000Y-115657000D01*
X177851000Y-117007000D01*
X173811000Y-118417000D02*
X173811000Y-119767000D01*
X173811000Y-119767000D02*
X172161000Y-119767000D01*
X172161000Y-119767000D02*
X172161000Y-118417000D01*
X172161000Y-118417000D02*
X173811000Y-118417000D01*
G36*
X173811000Y-119767000D02*
G01*
X172161000Y-119767000D01*
X172161000Y-118417000D01*
X173811000Y-118417000D01*
X173811000Y-119767000D01*
G37*
X173811000Y-119767000D02*
X172161000Y-119767000D01*
X172161000Y-118417000D01*
X173811000Y-118417000D01*
X173811000Y-119767000D01*
X173811000Y-112897000D02*
X173811000Y-114247000D01*
X173811000Y-114247000D02*
X172161000Y-114247000D01*
X172161000Y-114247000D02*
X172161000Y-112897000D01*
X172161000Y-112897000D02*
X173811000Y-112897000D01*
G36*
X173811000Y-114247000D02*
G01*
X172161000Y-114247000D01*
X172161000Y-112897000D01*
X173811000Y-112897000D01*
X173811000Y-114247000D01*
G37*
X173811000Y-114247000D02*
X172161000Y-114247000D01*
X172161000Y-112897000D01*
X173811000Y-112897000D01*
X173811000Y-114247000D01*
X171791000Y-118417000D02*
X171791000Y-119767000D01*
X171791000Y-119767000D02*
X170141000Y-119767000D01*
X170141000Y-119767000D02*
X170141000Y-118417000D01*
X170141000Y-118417000D02*
X171791000Y-118417000D01*
G36*
X171791000Y-119767000D02*
G01*
X170141000Y-119767000D01*
X170141000Y-118417000D01*
X171791000Y-118417000D01*
X171791000Y-119767000D01*
G37*
X171791000Y-119767000D02*
X170141000Y-119767000D01*
X170141000Y-118417000D01*
X171791000Y-118417000D01*
X171791000Y-119767000D01*
X146089000Y-118417000D02*
X146089000Y-119767000D01*
X146089000Y-119767000D02*
X144439000Y-119767000D01*
X144439000Y-119767000D02*
X144439000Y-118417000D01*
X144439000Y-118417000D02*
X146089000Y-118417000D01*
G36*
X146089000Y-119767000D02*
G01*
X144439000Y-119767000D01*
X144439000Y-118417000D01*
X146089000Y-118417000D01*
X146089000Y-119767000D01*
G37*
X146089000Y-119767000D02*
X144439000Y-119767000D01*
X144439000Y-118417000D01*
X146089000Y-118417000D01*
X146089000Y-119767000D01*
X140029000Y-115657000D02*
X140029000Y-117007000D01*
X140029000Y-117007000D02*
X138379000Y-117007000D01*
X138379000Y-117007000D02*
X138379000Y-115657000D01*
X138379000Y-115657000D02*
X140029000Y-115657000D01*
G36*
X140029000Y-117007000D02*
G01*
X138379000Y-117007000D01*
X138379000Y-115657000D01*
X140029000Y-115657000D01*
X140029000Y-117007000D01*
G37*
X140029000Y-117007000D02*
X138379000Y-117007000D01*
X138379000Y-115657000D01*
X140029000Y-115657000D01*
X140029000Y-117007000D01*
X138009000Y-118417000D02*
X138009000Y-119767000D01*
X138009000Y-119767000D02*
X136359000Y-119767000D01*
X136359000Y-119767000D02*
X136359000Y-118417000D01*
X136359000Y-118417000D02*
X138009000Y-118417000D01*
G36*
X138009000Y-119767000D02*
G01*
X136359000Y-119767000D01*
X136359000Y-118417000D01*
X138009000Y-118417000D01*
X138009000Y-119767000D01*
G37*
X138009000Y-119767000D02*
X136359000Y-119767000D01*
X136359000Y-118417000D01*
X138009000Y-118417000D01*
X138009000Y-119767000D01*
X144069000Y-112897000D02*
X144069000Y-114247000D01*
X144069000Y-114247000D02*
X142419000Y-114247000D01*
X142419000Y-114247000D02*
X142419000Y-112897000D01*
X142419000Y-112897000D02*
X144069000Y-112897000D01*
G36*
X144069000Y-114247000D02*
G01*
X142419000Y-114247000D01*
X142419000Y-112897000D01*
X144069000Y-112897000D01*
X144069000Y-114247000D01*
G37*
X144069000Y-114247000D02*
X142419000Y-114247000D01*
X142419000Y-112897000D01*
X144069000Y-112897000D01*
X144069000Y-114247000D01*
X142049000Y-115657000D02*
X142049000Y-117007000D01*
X142049000Y-117007000D02*
X140399000Y-117007000D01*
X140399000Y-117007000D02*
X140399000Y-115657000D01*
X140399000Y-115657000D02*
X142049000Y-115657000D01*
G36*
X142049000Y-117007000D02*
G01*
X140399000Y-117007000D01*
X140399000Y-115657000D01*
X142049000Y-115657000D01*
X142049000Y-117007000D01*
G37*
X142049000Y-117007000D02*
X140399000Y-117007000D01*
X140399000Y-115657000D01*
X142049000Y-115657000D01*
X142049000Y-117007000D01*
X138009000Y-115657000D02*
X138009000Y-117007000D01*
X138009000Y-117007000D02*
X136359000Y-117007000D01*
X136359000Y-117007000D02*
X136359000Y-115657000D01*
X136359000Y-115657000D02*
X138009000Y-115657000D01*
G36*
X138009000Y-117007000D02*
G01*
X136359000Y-117007000D01*
X136359000Y-115657000D01*
X138009000Y-115657000D01*
X138009000Y-117007000D01*
G37*
X138009000Y-117007000D02*
X136359000Y-117007000D01*
X136359000Y-115657000D01*
X138009000Y-115657000D01*
X138009000Y-117007000D01*
X144069000Y-115657000D02*
X144069000Y-117007000D01*
X144069000Y-117007000D02*
X142419000Y-117007000D01*
X142419000Y-117007000D02*
X142419000Y-115657000D01*
X142419000Y-115657000D02*
X144069000Y-115657000D01*
G36*
X144069000Y-117007000D02*
G01*
X142419000Y-117007000D01*
X142419000Y-115657000D01*
X144069000Y-115657000D01*
X144069000Y-117007000D01*
G37*
X144069000Y-117007000D02*
X142419000Y-117007000D01*
X142419000Y-115657000D01*
X144069000Y-115657000D01*
X144069000Y-117007000D01*
X142049000Y-118417000D02*
X142049000Y-119767000D01*
X142049000Y-119767000D02*
X140399000Y-119767000D01*
X140399000Y-119767000D02*
X140399000Y-118417000D01*
X140399000Y-118417000D02*
X142049000Y-118417000D01*
G36*
X142049000Y-119767000D02*
G01*
X140399000Y-119767000D01*
X140399000Y-118417000D01*
X142049000Y-118417000D01*
X142049000Y-119767000D01*
G37*
X142049000Y-119767000D02*
X140399000Y-119767000D01*
X140399000Y-118417000D01*
X142049000Y-118417000D01*
X142049000Y-119767000D01*
X140029000Y-118417000D02*
X140029000Y-119767000D01*
X140029000Y-119767000D02*
X138379000Y-119767000D01*
X138379000Y-119767000D02*
X138379000Y-118417000D01*
X138379000Y-118417000D02*
X140029000Y-118417000D01*
G36*
X140029000Y-119767000D02*
G01*
X138379000Y-119767000D01*
X138379000Y-118417000D01*
X140029000Y-118417000D01*
X140029000Y-119767000D01*
G37*
X140029000Y-119767000D02*
X138379000Y-119767000D01*
X138379000Y-118417000D01*
X140029000Y-118417000D01*
X140029000Y-119767000D01*
X144069000Y-118417000D02*
X144069000Y-119767000D01*
X144069000Y-119767000D02*
X142419000Y-119767000D01*
X142419000Y-119767000D02*
X142419000Y-118417000D01*
X142419000Y-118417000D02*
X144069000Y-118417000D01*
G36*
X144069000Y-119767000D02*
G01*
X142419000Y-119767000D01*
X142419000Y-118417000D01*
X144069000Y-118417000D01*
X144069000Y-119767000D01*
G37*
X144069000Y-119767000D02*
X142419000Y-119767000D01*
X142419000Y-118417000D01*
X144069000Y-118417000D01*
X144069000Y-119767000D01*
X142049000Y-112897000D02*
X142049000Y-114247000D01*
X142049000Y-114247000D02*
X140399000Y-114247000D01*
X140399000Y-114247000D02*
X140399000Y-112897000D01*
X140399000Y-112897000D02*
X142049000Y-112897000D01*
G36*
X142049000Y-114247000D02*
G01*
X140399000Y-114247000D01*
X140399000Y-112897000D01*
X142049000Y-112897000D01*
X142049000Y-114247000D01*
G37*
X142049000Y-114247000D02*
X140399000Y-114247000D01*
X140399000Y-112897000D01*
X142049000Y-112897000D01*
X142049000Y-114247000D01*
X146089000Y-112897000D02*
X146089000Y-114247000D01*
X146089000Y-114247000D02*
X144439000Y-114247000D01*
X144439000Y-114247000D02*
X144439000Y-112897000D01*
X144439000Y-112897000D02*
X146089000Y-112897000D01*
G36*
X146089000Y-114247000D02*
G01*
X144439000Y-114247000D01*
X144439000Y-112897000D01*
X146089000Y-112897000D01*
X146089000Y-114247000D01*
G37*
X146089000Y-114247000D02*
X144439000Y-114247000D01*
X144439000Y-112897000D01*
X146089000Y-112897000D01*
X146089000Y-114247000D01*
X138009000Y-112897000D02*
X138009000Y-114247000D01*
X138009000Y-114247000D02*
X136359000Y-114247000D01*
X136359000Y-114247000D02*
X136359000Y-112897000D01*
X136359000Y-112897000D02*
X138009000Y-112897000D01*
G36*
X138009000Y-114247000D02*
G01*
X136359000Y-114247000D01*
X136359000Y-112897000D01*
X138009000Y-112897000D01*
X138009000Y-114247000D01*
G37*
X138009000Y-114247000D02*
X136359000Y-114247000D01*
X136359000Y-112897000D01*
X138009000Y-112897000D01*
X138009000Y-114247000D01*
X140029000Y-112897000D02*
X140029000Y-114247000D01*
X140029000Y-114247000D02*
X138379000Y-114247000D01*
X138379000Y-114247000D02*
X138379000Y-112897000D01*
X138379000Y-112897000D02*
X140029000Y-112897000D01*
G36*
X140029000Y-114247000D02*
G01*
X138379000Y-114247000D01*
X138379000Y-112897000D01*
X140029000Y-112897000D01*
X140029000Y-114247000D01*
G37*
X140029000Y-114247000D02*
X138379000Y-114247000D01*
X138379000Y-112897000D01*
X140029000Y-112897000D01*
X140029000Y-114247000D01*
X146089000Y-115657000D02*
X146089000Y-117007000D01*
X146089000Y-117007000D02*
X144439000Y-117007000D01*
X144439000Y-117007000D02*
X144439000Y-115657000D01*
X144439000Y-115657000D02*
X146089000Y-115657000D01*
G36*
X146089000Y-117007000D02*
G01*
X144439000Y-117007000D01*
X144439000Y-115657000D01*
X146089000Y-115657000D01*
X146089000Y-117007000D01*
G37*
X146089000Y-117007000D02*
X144439000Y-117007000D01*
X144439000Y-115657000D01*
X146089000Y-115657000D01*
X146089000Y-117007000D01*
X107263000Y-115657000D02*
X107263000Y-117007000D01*
X107263000Y-117007000D02*
X105613000Y-117007000D01*
X105613000Y-117007000D02*
X105613000Y-115657000D01*
X105613000Y-115657000D02*
X107263000Y-115657000D01*
G36*
X107263000Y-117007000D02*
G01*
X105613000Y-117007000D01*
X105613000Y-115657000D01*
X107263000Y-115657000D01*
X107263000Y-117007000D01*
G37*
X107263000Y-117007000D02*
X105613000Y-117007000D01*
X105613000Y-115657000D01*
X107263000Y-115657000D01*
X107263000Y-117007000D01*
X111303000Y-112897000D02*
X111303000Y-114247000D01*
X111303000Y-114247000D02*
X109653000Y-114247000D01*
X109653000Y-114247000D02*
X109653000Y-112897000D01*
X109653000Y-112897000D02*
X111303000Y-112897000D01*
G36*
X111303000Y-114247000D02*
G01*
X109653000Y-114247000D01*
X109653000Y-112897000D01*
X111303000Y-112897000D01*
X111303000Y-114247000D01*
G37*
X111303000Y-114247000D02*
X109653000Y-114247000D01*
X109653000Y-112897000D01*
X111303000Y-112897000D01*
X111303000Y-114247000D01*
X107263000Y-112897000D02*
X107263000Y-114247000D01*
X107263000Y-114247000D02*
X105613000Y-114247000D01*
X105613000Y-114247000D02*
X105613000Y-112897000D01*
X105613000Y-112897000D02*
X107263000Y-112897000D01*
G36*
X107263000Y-114247000D02*
G01*
X105613000Y-114247000D01*
X105613000Y-112897000D01*
X107263000Y-112897000D01*
X107263000Y-114247000D01*
G37*
X107263000Y-114247000D02*
X105613000Y-114247000D01*
X105613000Y-112897000D01*
X107263000Y-112897000D01*
X107263000Y-114247000D01*
X105243000Y-115657000D02*
X105243000Y-117007000D01*
X105243000Y-117007000D02*
X103593000Y-117007000D01*
X103593000Y-117007000D02*
X103593000Y-115657000D01*
X103593000Y-115657000D02*
X105243000Y-115657000D01*
G36*
X105243000Y-117007000D02*
G01*
X103593000Y-117007000D01*
X103593000Y-115657000D01*
X105243000Y-115657000D01*
X105243000Y-117007000D01*
G37*
X105243000Y-117007000D02*
X103593000Y-117007000D01*
X103593000Y-115657000D01*
X105243000Y-115657000D01*
X105243000Y-117007000D01*
X111303000Y-118417000D02*
X111303000Y-119767000D01*
X111303000Y-119767000D02*
X109653000Y-119767000D01*
X109653000Y-119767000D02*
X109653000Y-118417000D01*
X109653000Y-118417000D02*
X111303000Y-118417000D01*
G36*
X111303000Y-119767000D02*
G01*
X109653000Y-119767000D01*
X109653000Y-118417000D01*
X111303000Y-118417000D01*
X111303000Y-119767000D01*
G37*
X111303000Y-119767000D02*
X109653000Y-119767000D01*
X109653000Y-118417000D01*
X111303000Y-118417000D01*
X111303000Y-119767000D01*
X113323000Y-115657000D02*
X113323000Y-117007000D01*
X113323000Y-117007000D02*
X111673000Y-117007000D01*
X111673000Y-117007000D02*
X111673000Y-115657000D01*
X111673000Y-115657000D02*
X113323000Y-115657000D01*
G36*
X113323000Y-117007000D02*
G01*
X111673000Y-117007000D01*
X111673000Y-115657000D01*
X113323000Y-115657000D01*
X113323000Y-117007000D01*
G37*
X113323000Y-117007000D02*
X111673000Y-117007000D01*
X111673000Y-115657000D01*
X113323000Y-115657000D01*
X113323000Y-117007000D01*
X109283000Y-118417000D02*
X109283000Y-119767000D01*
X109283000Y-119767000D02*
X107633000Y-119767000D01*
X107633000Y-119767000D02*
X107633000Y-118417000D01*
X107633000Y-118417000D02*
X109283000Y-118417000D01*
G36*
X109283000Y-119767000D02*
G01*
X107633000Y-119767000D01*
X107633000Y-118417000D01*
X109283000Y-118417000D01*
X109283000Y-119767000D01*
G37*
X109283000Y-119767000D02*
X107633000Y-119767000D01*
X107633000Y-118417000D01*
X109283000Y-118417000D01*
X109283000Y-119767000D01*
X113323000Y-112897000D02*
X113323000Y-114247000D01*
X113323000Y-114247000D02*
X111673000Y-114247000D01*
X111673000Y-114247000D02*
X111673000Y-112897000D01*
X111673000Y-112897000D02*
X113323000Y-112897000D01*
G36*
X113323000Y-114247000D02*
G01*
X111673000Y-114247000D01*
X111673000Y-112897000D01*
X113323000Y-112897000D01*
X113323000Y-114247000D01*
G37*
X113323000Y-114247000D02*
X111673000Y-114247000D01*
X111673000Y-112897000D01*
X113323000Y-112897000D01*
X113323000Y-114247000D01*
X105243000Y-112897000D02*
X105243000Y-114247000D01*
X105243000Y-114247000D02*
X103593000Y-114247000D01*
X103593000Y-114247000D02*
X103593000Y-112897000D01*
X103593000Y-112897000D02*
X105243000Y-112897000D01*
G36*
X105243000Y-114247000D02*
G01*
X103593000Y-114247000D01*
X103593000Y-112897000D01*
X105243000Y-112897000D01*
X105243000Y-114247000D01*
G37*
X105243000Y-114247000D02*
X103593000Y-114247000D01*
X103593000Y-112897000D01*
X105243000Y-112897000D01*
X105243000Y-114247000D01*
X107263000Y-118417000D02*
X107263000Y-119767000D01*
X107263000Y-119767000D02*
X105613000Y-119767000D01*
X105613000Y-119767000D02*
X105613000Y-118417000D01*
X105613000Y-118417000D02*
X107263000Y-118417000D01*
G36*
X107263000Y-119767000D02*
G01*
X105613000Y-119767000D01*
X105613000Y-118417000D01*
X107263000Y-118417000D01*
X107263000Y-119767000D01*
G37*
X107263000Y-119767000D02*
X105613000Y-119767000D01*
X105613000Y-118417000D01*
X107263000Y-118417000D01*
X107263000Y-119767000D01*
X111303000Y-115657000D02*
X111303000Y-117007000D01*
X111303000Y-117007000D02*
X109653000Y-117007000D01*
X109653000Y-117007000D02*
X109653000Y-115657000D01*
X109653000Y-115657000D02*
X111303000Y-115657000D01*
G36*
X111303000Y-117007000D02*
G01*
X109653000Y-117007000D01*
X109653000Y-115657000D01*
X111303000Y-115657000D01*
X111303000Y-117007000D01*
G37*
X111303000Y-117007000D02*
X109653000Y-117007000D01*
X109653000Y-115657000D01*
X111303000Y-115657000D01*
X111303000Y-117007000D01*
X109283000Y-115657000D02*
X109283000Y-117007000D01*
X109283000Y-117007000D02*
X107633000Y-117007000D01*
X107633000Y-117007000D02*
X107633000Y-115657000D01*
X107633000Y-115657000D02*
X109283000Y-115657000D01*
G36*
X109283000Y-117007000D02*
G01*
X107633000Y-117007000D01*
X107633000Y-115657000D01*
X109283000Y-115657000D01*
X109283000Y-117007000D01*
G37*
X109283000Y-117007000D02*
X107633000Y-117007000D01*
X107633000Y-115657000D01*
X109283000Y-115657000D01*
X109283000Y-117007000D01*
X109283000Y-112897000D02*
X109283000Y-114247000D01*
X109283000Y-114247000D02*
X107633000Y-114247000D01*
X107633000Y-114247000D02*
X107633000Y-112897000D01*
X107633000Y-112897000D02*
X109283000Y-112897000D01*
G36*
X109283000Y-114247000D02*
G01*
X107633000Y-114247000D01*
X107633000Y-112897000D01*
X109283000Y-112897000D01*
X109283000Y-114247000D01*
G37*
X109283000Y-114247000D02*
X107633000Y-114247000D01*
X107633000Y-112897000D01*
X109283000Y-112897000D01*
X109283000Y-114247000D01*
X113323000Y-118417000D02*
X113323000Y-119767000D01*
X113323000Y-119767000D02*
X111673000Y-119767000D01*
X111673000Y-119767000D02*
X111673000Y-118417000D01*
X111673000Y-118417000D02*
X113323000Y-118417000D01*
G36*
X113323000Y-119767000D02*
G01*
X111673000Y-119767000D01*
X111673000Y-118417000D01*
X113323000Y-118417000D01*
X113323000Y-119767000D01*
G37*
X113323000Y-119767000D02*
X111673000Y-119767000D01*
X111673000Y-118417000D01*
X113323000Y-118417000D01*
X113323000Y-119767000D01*
X105243000Y-118417000D02*
X105243000Y-119767000D01*
X105243000Y-119767000D02*
X103593000Y-119767000D01*
X103593000Y-119767000D02*
X103593000Y-118417000D01*
X103593000Y-118417000D02*
X105243000Y-118417000D01*
G36*
X105243000Y-119767000D02*
G01*
X103593000Y-119767000D01*
X103593000Y-118417000D01*
X105243000Y-118417000D01*
X105243000Y-119767000D01*
G37*
X105243000Y-119767000D02*
X103593000Y-119767000D01*
X103593000Y-118417000D01*
X105243000Y-118417000D01*
X105243000Y-119767000D01*
X164909000Y-112897000D02*
X164909000Y-114247000D01*
X164909000Y-114247000D02*
X163259000Y-114247000D01*
X163259000Y-114247000D02*
X163259000Y-112897000D01*
X163259000Y-112897000D02*
X164909000Y-112897000D01*
G36*
X164909000Y-114247000D02*
G01*
X163259000Y-114247000D01*
X163259000Y-112897000D01*
X164909000Y-112897000D01*
X164909000Y-114247000D01*
G37*
X164909000Y-114247000D02*
X163259000Y-114247000D01*
X163259000Y-112897000D01*
X164909000Y-112897000D01*
X164909000Y-114247000D01*
X164909000Y-115657000D02*
X164909000Y-117007000D01*
X164909000Y-117007000D02*
X163259000Y-117007000D01*
X163259000Y-117007000D02*
X163259000Y-115657000D01*
X163259000Y-115657000D02*
X164909000Y-115657000D01*
G36*
X164909000Y-117007000D02*
G01*
X163259000Y-117007000D01*
X163259000Y-115657000D01*
X164909000Y-115657000D01*
X164909000Y-117007000D01*
G37*
X164909000Y-117007000D02*
X163259000Y-117007000D01*
X163259000Y-115657000D01*
X164909000Y-115657000D01*
X164909000Y-117007000D01*
X162889000Y-112897000D02*
X162889000Y-114247000D01*
X162889000Y-114247000D02*
X161239000Y-114247000D01*
X161239000Y-114247000D02*
X161239000Y-112897000D01*
X161239000Y-112897000D02*
X162889000Y-112897000D01*
G36*
X162889000Y-114247000D02*
G01*
X161239000Y-114247000D01*
X161239000Y-112897000D01*
X162889000Y-112897000D01*
X162889000Y-114247000D01*
G37*
X162889000Y-114247000D02*
X161239000Y-114247000D01*
X161239000Y-112897000D01*
X162889000Y-112897000D01*
X162889000Y-114247000D01*
X160869000Y-118417000D02*
X160869000Y-119767000D01*
X160869000Y-119767000D02*
X159219000Y-119767000D01*
X159219000Y-119767000D02*
X159219000Y-118417000D01*
X159219000Y-118417000D02*
X160869000Y-118417000D01*
G36*
X160869000Y-119767000D02*
G01*
X159219000Y-119767000D01*
X159219000Y-118417000D01*
X160869000Y-118417000D01*
X160869000Y-119767000D01*
G37*
X160869000Y-119767000D02*
X159219000Y-119767000D01*
X159219000Y-118417000D01*
X160869000Y-118417000D01*
X160869000Y-119767000D01*
X162889000Y-118417000D02*
X162889000Y-119767000D01*
X162889000Y-119767000D02*
X161239000Y-119767000D01*
X161239000Y-119767000D02*
X161239000Y-118417000D01*
X161239000Y-118417000D02*
X162889000Y-118417000D01*
G36*
X162889000Y-119767000D02*
G01*
X161239000Y-119767000D01*
X161239000Y-118417000D01*
X162889000Y-118417000D01*
X162889000Y-119767000D01*
G37*
X162889000Y-119767000D02*
X161239000Y-119767000D01*
X161239000Y-118417000D01*
X162889000Y-118417000D01*
X162889000Y-119767000D01*
X166929000Y-118417000D02*
X166929000Y-119767000D01*
X166929000Y-119767000D02*
X165279000Y-119767000D01*
X165279000Y-119767000D02*
X165279000Y-118417000D01*
X165279000Y-118417000D02*
X166929000Y-118417000D01*
G36*
X166929000Y-119767000D02*
G01*
X165279000Y-119767000D01*
X165279000Y-118417000D01*
X166929000Y-118417000D01*
X166929000Y-119767000D01*
G37*
X166929000Y-119767000D02*
X165279000Y-119767000D01*
X165279000Y-118417000D01*
X166929000Y-118417000D01*
X166929000Y-119767000D01*
X160869000Y-112897000D02*
X160869000Y-114247000D01*
X160869000Y-114247000D02*
X159219000Y-114247000D01*
X159219000Y-114247000D02*
X159219000Y-112897000D01*
X159219000Y-112897000D02*
X160869000Y-112897000D01*
G36*
X160869000Y-114247000D02*
G01*
X159219000Y-114247000D01*
X159219000Y-112897000D01*
X160869000Y-112897000D01*
X160869000Y-114247000D01*
G37*
X160869000Y-114247000D02*
X159219000Y-114247000D01*
X159219000Y-112897000D01*
X160869000Y-112897000D01*
X160869000Y-114247000D01*
X162889000Y-115657000D02*
X162889000Y-117007000D01*
X162889000Y-117007000D02*
X161239000Y-117007000D01*
X161239000Y-117007000D02*
X161239000Y-115657000D01*
X161239000Y-115657000D02*
X162889000Y-115657000D01*
G36*
X162889000Y-117007000D02*
G01*
X161239000Y-117007000D01*
X161239000Y-115657000D01*
X162889000Y-115657000D01*
X162889000Y-117007000D01*
G37*
X162889000Y-117007000D02*
X161239000Y-117007000D01*
X161239000Y-115657000D01*
X162889000Y-115657000D01*
X162889000Y-117007000D01*
X168949000Y-115657000D02*
X168949000Y-117007000D01*
X168949000Y-117007000D02*
X167299000Y-117007000D01*
X167299000Y-117007000D02*
X167299000Y-115657000D01*
X167299000Y-115657000D02*
X168949000Y-115657000D01*
G36*
X168949000Y-117007000D02*
G01*
X167299000Y-117007000D01*
X167299000Y-115657000D01*
X168949000Y-115657000D01*
X168949000Y-117007000D01*
G37*
X168949000Y-117007000D02*
X167299000Y-117007000D01*
X167299000Y-115657000D01*
X168949000Y-115657000D01*
X168949000Y-117007000D01*
X166929000Y-112897000D02*
X166929000Y-114247000D01*
X166929000Y-114247000D02*
X165279000Y-114247000D01*
X165279000Y-114247000D02*
X165279000Y-112897000D01*
X165279000Y-112897000D02*
X166929000Y-112897000D01*
G36*
X166929000Y-114247000D02*
G01*
X165279000Y-114247000D01*
X165279000Y-112897000D01*
X166929000Y-112897000D01*
X166929000Y-114247000D01*
G37*
X166929000Y-114247000D02*
X165279000Y-114247000D01*
X165279000Y-112897000D01*
X166929000Y-112897000D01*
X166929000Y-114247000D01*
X164909000Y-118417000D02*
X164909000Y-119767000D01*
X164909000Y-119767000D02*
X163259000Y-119767000D01*
X163259000Y-119767000D02*
X163259000Y-118417000D01*
X163259000Y-118417000D02*
X164909000Y-118417000D01*
G36*
X164909000Y-119767000D02*
G01*
X163259000Y-119767000D01*
X163259000Y-118417000D01*
X164909000Y-118417000D01*
X164909000Y-119767000D01*
G37*
X164909000Y-119767000D02*
X163259000Y-119767000D01*
X163259000Y-118417000D01*
X164909000Y-118417000D01*
X164909000Y-119767000D01*
X168949000Y-118417000D02*
X168949000Y-119767000D01*
X168949000Y-119767000D02*
X167299000Y-119767000D01*
X167299000Y-119767000D02*
X167299000Y-118417000D01*
X167299000Y-118417000D02*
X168949000Y-118417000D01*
G36*
X168949000Y-119767000D02*
G01*
X167299000Y-119767000D01*
X167299000Y-118417000D01*
X168949000Y-118417000D01*
X168949000Y-119767000D01*
G37*
X168949000Y-119767000D02*
X167299000Y-119767000D01*
X167299000Y-118417000D01*
X168949000Y-118417000D01*
X168949000Y-119767000D01*
X160869000Y-115657000D02*
X160869000Y-117007000D01*
X160869000Y-117007000D02*
X159219000Y-117007000D01*
X159219000Y-117007000D02*
X159219000Y-115657000D01*
X159219000Y-115657000D02*
X160869000Y-115657000D01*
G36*
X160869000Y-117007000D02*
G01*
X159219000Y-117007000D01*
X159219000Y-115657000D01*
X160869000Y-115657000D01*
X160869000Y-117007000D01*
G37*
X160869000Y-117007000D02*
X159219000Y-117007000D01*
X159219000Y-115657000D01*
X160869000Y-115657000D01*
X160869000Y-117007000D01*
X168949000Y-112897000D02*
X168949000Y-114247000D01*
X168949000Y-114247000D02*
X167299000Y-114247000D01*
X167299000Y-114247000D02*
X167299000Y-112897000D01*
X167299000Y-112897000D02*
X168949000Y-112897000D01*
G36*
X168949000Y-114247000D02*
G01*
X167299000Y-114247000D01*
X167299000Y-112897000D01*
X168949000Y-112897000D01*
X168949000Y-114247000D01*
G37*
X168949000Y-114247000D02*
X167299000Y-114247000D01*
X167299000Y-112897000D01*
X168949000Y-112897000D01*
X168949000Y-114247000D01*
X166929000Y-115657000D02*
X166929000Y-117007000D01*
X166929000Y-117007000D02*
X165279000Y-117007000D01*
X165279000Y-117007000D02*
X165279000Y-115657000D01*
X165279000Y-115657000D02*
X166929000Y-115657000D01*
G36*
X166929000Y-117007000D02*
G01*
X165279000Y-117007000D01*
X165279000Y-115657000D01*
X166929000Y-115657000D01*
X166929000Y-117007000D01*
G37*
X166929000Y-117007000D02*
X165279000Y-117007000D01*
X165279000Y-115657000D01*
X166929000Y-115657000D01*
X166929000Y-117007000D01*
X116165000Y-118417000D02*
X116165000Y-119767000D01*
X116165000Y-119767000D02*
X114515000Y-119767000D01*
X114515000Y-119767000D02*
X114515000Y-118417000D01*
X114515000Y-118417000D02*
X116165000Y-118417000D01*
G36*
X116165000Y-119767000D02*
G01*
X114515000Y-119767000D01*
X114515000Y-118417000D01*
X116165000Y-118417000D01*
X116165000Y-119767000D01*
G37*
X116165000Y-119767000D02*
X114515000Y-119767000D01*
X114515000Y-118417000D01*
X116165000Y-118417000D01*
X116165000Y-119767000D01*
X124245000Y-118417000D02*
X124245000Y-119767000D01*
X124245000Y-119767000D02*
X122595000Y-119767000D01*
X122595000Y-119767000D02*
X122595000Y-118417000D01*
X122595000Y-118417000D02*
X124245000Y-118417000D01*
G36*
X124245000Y-119767000D02*
G01*
X122595000Y-119767000D01*
X122595000Y-118417000D01*
X124245000Y-118417000D01*
X124245000Y-119767000D01*
G37*
X124245000Y-119767000D02*
X122595000Y-119767000D01*
X122595000Y-118417000D01*
X124245000Y-118417000D01*
X124245000Y-119767000D01*
X118185000Y-112897000D02*
X118185000Y-114247000D01*
X118185000Y-114247000D02*
X116535000Y-114247000D01*
X116535000Y-114247000D02*
X116535000Y-112897000D01*
X116535000Y-112897000D02*
X118185000Y-112897000D01*
G36*
X118185000Y-114247000D02*
G01*
X116535000Y-114247000D01*
X116535000Y-112897000D01*
X118185000Y-112897000D01*
X118185000Y-114247000D01*
G37*
X118185000Y-114247000D02*
X116535000Y-114247000D01*
X116535000Y-112897000D01*
X118185000Y-112897000D01*
X118185000Y-114247000D01*
X124245000Y-115657000D02*
X124245000Y-117007000D01*
X124245000Y-117007000D02*
X122595000Y-117007000D01*
X122595000Y-117007000D02*
X122595000Y-115657000D01*
X122595000Y-115657000D02*
X124245000Y-115657000D01*
G36*
X124245000Y-117007000D02*
G01*
X122595000Y-117007000D01*
X122595000Y-115657000D01*
X124245000Y-115657000D01*
X124245000Y-117007000D01*
G37*
X124245000Y-117007000D02*
X122595000Y-117007000D01*
X122595000Y-115657000D01*
X124245000Y-115657000D01*
X124245000Y-117007000D01*
X118185000Y-115657000D02*
X118185000Y-117007000D01*
X118185000Y-117007000D02*
X116535000Y-117007000D01*
X116535000Y-117007000D02*
X116535000Y-115657000D01*
X116535000Y-115657000D02*
X118185000Y-115657000D01*
G36*
X118185000Y-117007000D02*
G01*
X116535000Y-117007000D01*
X116535000Y-115657000D01*
X118185000Y-115657000D01*
X118185000Y-117007000D01*
G37*
X118185000Y-117007000D02*
X116535000Y-117007000D01*
X116535000Y-115657000D01*
X118185000Y-115657000D01*
X118185000Y-117007000D01*
X122225000Y-115657000D02*
X122225000Y-117007000D01*
X122225000Y-117007000D02*
X120575000Y-117007000D01*
X120575000Y-117007000D02*
X120575000Y-115657000D01*
X120575000Y-115657000D02*
X122225000Y-115657000D01*
G36*
X122225000Y-117007000D02*
G01*
X120575000Y-117007000D01*
X120575000Y-115657000D01*
X122225000Y-115657000D01*
X122225000Y-117007000D01*
G37*
X122225000Y-117007000D02*
X120575000Y-117007000D01*
X120575000Y-115657000D01*
X122225000Y-115657000D01*
X122225000Y-117007000D01*
X120205000Y-115657000D02*
X120205000Y-117007000D01*
X120205000Y-117007000D02*
X118555000Y-117007000D01*
X118555000Y-117007000D02*
X118555000Y-115657000D01*
X118555000Y-115657000D02*
X120205000Y-115657000D01*
G36*
X120205000Y-117007000D02*
G01*
X118555000Y-117007000D01*
X118555000Y-115657000D01*
X120205000Y-115657000D01*
X120205000Y-117007000D01*
G37*
X120205000Y-117007000D02*
X118555000Y-117007000D01*
X118555000Y-115657000D01*
X120205000Y-115657000D01*
X120205000Y-117007000D01*
X120205000Y-118417000D02*
X120205000Y-119767000D01*
X120205000Y-119767000D02*
X118555000Y-119767000D01*
X118555000Y-119767000D02*
X118555000Y-118417000D01*
X118555000Y-118417000D02*
X120205000Y-118417000D01*
G36*
X120205000Y-119767000D02*
G01*
X118555000Y-119767000D01*
X118555000Y-118417000D01*
X120205000Y-118417000D01*
X120205000Y-119767000D01*
G37*
X120205000Y-119767000D02*
X118555000Y-119767000D01*
X118555000Y-118417000D01*
X120205000Y-118417000D01*
X120205000Y-119767000D01*
X124245000Y-112897000D02*
X124245000Y-114247000D01*
X124245000Y-114247000D02*
X122595000Y-114247000D01*
X122595000Y-114247000D02*
X122595000Y-112897000D01*
X122595000Y-112897000D02*
X124245000Y-112897000D01*
G36*
X124245000Y-114247000D02*
G01*
X122595000Y-114247000D01*
X122595000Y-112897000D01*
X124245000Y-112897000D01*
X124245000Y-114247000D01*
G37*
X124245000Y-114247000D02*
X122595000Y-114247000D01*
X122595000Y-112897000D01*
X124245000Y-112897000D01*
X124245000Y-114247000D01*
X116165000Y-115657000D02*
X116165000Y-117007000D01*
X116165000Y-117007000D02*
X114515000Y-117007000D01*
X114515000Y-117007000D02*
X114515000Y-115657000D01*
X114515000Y-115657000D02*
X116165000Y-115657000D01*
G36*
X116165000Y-117007000D02*
G01*
X114515000Y-117007000D01*
X114515000Y-115657000D01*
X116165000Y-115657000D01*
X116165000Y-117007000D01*
G37*
X116165000Y-117007000D02*
X114515000Y-117007000D01*
X114515000Y-115657000D01*
X116165000Y-115657000D01*
X116165000Y-117007000D01*
X122225000Y-112897000D02*
X122225000Y-114247000D01*
X122225000Y-114247000D02*
X120575000Y-114247000D01*
X120575000Y-114247000D02*
X120575000Y-112897000D01*
X120575000Y-112897000D02*
X122225000Y-112897000D01*
G36*
X122225000Y-114247000D02*
G01*
X120575000Y-114247000D01*
X120575000Y-112897000D01*
X122225000Y-112897000D01*
X122225000Y-114247000D01*
G37*
X122225000Y-114247000D02*
X120575000Y-114247000D01*
X120575000Y-112897000D01*
X122225000Y-112897000D01*
X122225000Y-114247000D01*
X116165000Y-112897000D02*
X116165000Y-114247000D01*
X116165000Y-114247000D02*
X114515000Y-114247000D01*
X114515000Y-114247000D02*
X114515000Y-112897000D01*
X114515000Y-112897000D02*
X116165000Y-112897000D01*
G36*
X116165000Y-114247000D02*
G01*
X114515000Y-114247000D01*
X114515000Y-112897000D01*
X116165000Y-112897000D01*
X116165000Y-114247000D01*
G37*
X116165000Y-114247000D02*
X114515000Y-114247000D01*
X114515000Y-112897000D01*
X116165000Y-112897000D01*
X116165000Y-114247000D01*
X122225000Y-118417000D02*
X122225000Y-119767000D01*
X122225000Y-119767000D02*
X120575000Y-119767000D01*
X120575000Y-119767000D02*
X120575000Y-118417000D01*
X120575000Y-118417000D02*
X122225000Y-118417000D01*
G36*
X122225000Y-119767000D02*
G01*
X120575000Y-119767000D01*
X120575000Y-118417000D01*
X122225000Y-118417000D01*
X122225000Y-119767000D01*
G37*
X122225000Y-119767000D02*
X120575000Y-119767000D01*
X120575000Y-118417000D01*
X122225000Y-118417000D01*
X122225000Y-119767000D01*
X118185000Y-118417000D02*
X118185000Y-119767000D01*
X118185000Y-119767000D02*
X116535000Y-119767000D01*
X116535000Y-119767000D02*
X116535000Y-118417000D01*
X116535000Y-118417000D02*
X118185000Y-118417000D01*
G36*
X118185000Y-119767000D02*
G01*
X116535000Y-119767000D01*
X116535000Y-118417000D01*
X118185000Y-118417000D01*
X118185000Y-119767000D01*
G37*
X118185000Y-119767000D02*
X116535000Y-119767000D01*
X116535000Y-118417000D01*
X118185000Y-118417000D01*
X118185000Y-119767000D01*
X120205000Y-112897000D02*
X120205000Y-114247000D01*
X120205000Y-114247000D02*
X118555000Y-114247000D01*
X118555000Y-114247000D02*
X118555000Y-112897000D01*
X118555000Y-112897000D02*
X120205000Y-112897000D01*
G36*
X120205000Y-114247000D02*
G01*
X118555000Y-114247000D01*
X118555000Y-112897000D01*
X120205000Y-112897000D01*
X120205000Y-114247000D01*
G37*
X120205000Y-114247000D02*
X118555000Y-114247000D01*
X118555000Y-112897000D01*
X120205000Y-112897000D01*
X120205000Y-114247000D01*
D11*
X216599000Y-123698000D03*
X218249000Y-123698000D03*
D12*
X172466000Y-103695000D03*
X172466000Y-102045000D03*
X161544000Y-103695000D03*
X161544000Y-102045000D03*
X183071000Y-127063000D03*
X183071000Y-125413000D03*
X140208000Y-103695000D03*
X140208000Y-102045000D03*
D13*
X151892000Y-87567000D03*
X151892000Y-89217000D03*
D14*
X181293000Y-130327500D03*
X181293000Y-128752500D03*
D12*
X118364000Y-103695000D03*
X118364000Y-102045000D03*
D15*
X221259500Y-123698000D03*
X219684500Y-123698000D03*
D13*
X149352000Y-87567000D03*
X149352000Y-89217000D03*
D16*
X207504000Y-96622000D03*
D17*
X209804000Y-90322000D03*
D16*
X209804000Y-96622000D03*
X212104000Y-96622000D03*
D12*
X116840000Y-103695000D03*
X116840000Y-102045000D03*
D11*
X216536000Y-120396000D03*
X218186000Y-120396000D03*
D12*
X183388000Y-103695000D03*
X183388000Y-102045000D03*
D18*
X120269000Y-99900000D03*
X121539000Y-99900000D03*
X122809000Y-99900000D03*
X124079000Y-99900000D03*
X125349000Y-99900000D03*
X126619000Y-99900000D03*
X127889000Y-99900000D03*
X129159000Y-99900000D03*
X130429000Y-99900000D03*
X131699000Y-99900000D03*
X131699000Y-90600000D03*
X130429000Y-90600000D03*
X129159000Y-90600000D03*
X127889000Y-90600000D03*
X126619000Y-90600000D03*
X125349000Y-90600000D03*
X124079000Y-90600000D03*
X122809000Y-90600000D03*
X121539000Y-90600000D03*
X120269000Y-90600000D03*
D14*
X183071000Y-130327500D03*
X183071000Y-128752500D03*
X136335000Y-130327500D03*
X136335000Y-128752500D03*
X153353000Y-130327500D03*
X153353000Y-128752500D03*
D13*
X144272000Y-87567000D03*
X144272000Y-89217000D03*
D12*
X184912000Y-103695000D03*
X184912000Y-102045000D03*
X138684000Y-103695000D03*
X138684000Y-102045000D03*
D19*
X118377000Y-90678000D03*
X116827000Y-90678000D03*
D14*
X198819000Y-130327500D03*
X198819000Y-128752500D03*
D15*
X221259500Y-117094000D03*
X219684500Y-117094000D03*
D13*
X200597000Y-125413000D03*
X200597000Y-127063000D03*
X139192000Y-87567000D03*
X139192000Y-89217000D03*
D20*
X135699000Y-84328000D03*
X134049000Y-84328000D03*
D21*
X156972000Y-106672000D03*
X155702000Y-106672000D03*
X154432000Y-106672000D03*
X153162000Y-106672000D03*
X151892000Y-106672000D03*
X150622000Y-106672000D03*
X149352000Y-106672000D03*
X134112000Y-106672000D03*
X132842000Y-106672000D03*
X131572000Y-106672000D03*
X130302000Y-106672000D03*
X129032000Y-106672000D03*
X127762000Y-106672000D03*
X126492000Y-106672000D03*
D14*
X138113000Y-130327500D03*
X138113000Y-128752500D03*
D19*
X165367000Y-89662000D03*
X163817000Y-89662000D03*
D12*
X152146000Y-103695000D03*
X152146000Y-102045000D03*
D22*
X111673000Y-87090000D03*
X110673000Y-87090000D03*
X109673000Y-87090000D03*
X108673000Y-87090000D03*
D23*
X107373000Y-83215000D03*
X112973000Y-83215000D03*
D12*
X127762000Y-103695000D03*
X127762000Y-102045000D03*
D24*
X204978000Y-94029000D03*
X204978000Y-96979000D03*
D12*
X163068000Y-103695000D03*
X163068000Y-102045000D03*
X105918000Y-103695000D03*
X105918000Y-102045000D03*
D14*
X155131000Y-130327500D03*
X155131000Y-128752500D03*
D13*
X155131000Y-125667000D03*
X155131000Y-127317000D03*
D12*
X198819000Y-127063000D03*
X198819000Y-125413000D03*
D21*
X189738000Y-106672000D03*
X188468000Y-106672000D03*
X187198000Y-106672000D03*
X185928000Y-106672000D03*
X184658000Y-106672000D03*
X183388000Y-106672000D03*
X182118000Y-106672000D03*
D25*
X134086500Y-82804000D03*
X135661500Y-82804000D03*
D21*
X178816000Y-106672000D03*
X177546000Y-106672000D03*
X176276000Y-106672000D03*
X175006000Y-106672000D03*
X173736000Y-106672000D03*
X172466000Y-106672000D03*
X171196000Y-106672000D03*
D12*
X173990000Y-103695000D03*
X173990000Y-102045000D03*
X107442000Y-103695000D03*
X107442000Y-102045000D03*
D14*
X200597000Y-130327500D03*
X200597000Y-128752500D03*
D21*
X145034000Y-106672000D03*
X143764000Y-106672000D03*
X142494000Y-106672000D03*
X141224000Y-106672000D03*
X139954000Y-106672000D03*
X138684000Y-106672000D03*
X137414000Y-106672000D03*
D12*
X138113000Y-127317000D03*
X138113000Y-125667000D03*
D26*
X214630000Y-96979000D03*
X214630000Y-94029000D03*
D21*
X112268000Y-106672000D03*
X110998000Y-106672000D03*
X109728000Y-106672000D03*
X108458000Y-106672000D03*
X107188000Y-106672000D03*
X105918000Y-106672000D03*
X104648000Y-106672000D03*
X167894000Y-106672000D03*
X166624000Y-106672000D03*
X165354000Y-106672000D03*
X164084000Y-106672000D03*
X162814000Y-106672000D03*
X161544000Y-106672000D03*
X160274000Y-106672000D03*
D18*
X167259000Y-99392000D03*
X168529000Y-99392000D03*
X169799000Y-99392000D03*
X171069000Y-99392000D03*
X172339000Y-99392000D03*
X173609000Y-99392000D03*
X174879000Y-99392000D03*
X176149000Y-99392000D03*
X177419000Y-99392000D03*
X178689000Y-99392000D03*
X178689000Y-90092000D03*
X177419000Y-90092000D03*
X176149000Y-90092000D03*
X174879000Y-90092000D03*
X173609000Y-90092000D03*
X172339000Y-90092000D03*
X171069000Y-90092000D03*
X169799000Y-90092000D03*
X168529000Y-90092000D03*
X167259000Y-90092000D03*
D13*
X181293000Y-125413000D03*
X181293000Y-127063000D03*
D12*
X150622000Y-103695000D03*
X150622000Y-102045000D03*
X129286000Y-103695000D03*
X129286000Y-102045000D03*
D13*
X146812000Y-87567000D03*
X146812000Y-89217000D03*
X141732000Y-87567000D03*
X141732000Y-89217000D03*
D21*
X123190000Y-106672000D03*
X121920000Y-106672000D03*
X120650000Y-106672000D03*
X119380000Y-106672000D03*
X118110000Y-106672000D03*
X116840000Y-106672000D03*
X115570000Y-106672000D03*
D22*
X119547000Y-87090000D03*
X118547000Y-87090000D03*
X117547000Y-87090000D03*
X116547000Y-87090000D03*
D23*
X115247000Y-83215000D03*
X120847000Y-83215000D03*
D12*
X153353000Y-127317000D03*
X153353000Y-125667000D03*
D13*
X136335000Y-125667000D03*
X136335000Y-127317000D03*
D15*
X221259500Y-120396000D03*
X219684500Y-120396000D03*
D11*
X216599000Y-117094000D03*
X218249000Y-117094000D03*
M02*
