G04 #@! TF.GenerationSoftware,KiCad,Pcbnew,(6.0.0)*
G04 #@! TF.CreationDate,2023-01-31T14:33:05-05:00*
G04 #@! TF.ProjectId,i2c BTS7960,69326320-4254-4533-9739-36302e6b6963,rev?*
G04 #@! TF.SameCoordinates,Original*
G04 #@! TF.FileFunction,Paste,Bot*
G04 #@! TF.FilePolarity,Positive*
%FSLAX46Y46*%
G04 Gerber Fmt 4.6, Leading zero omitted, Abs format (unit mm)*
G04 Created by KiCad (PCBNEW (6.0.0)) date 2023-01-31 14:33:05*
%MOMM*%
%LPD*%
G01*
G04 APERTURE LIST*
G04 Aperture macros list*
%AMRoundRect*
0 Rectangle with rounded corners*
0 $1 Rounding radius*
0 $2 $3 $4 $5 $6 $7 $8 $9 X,Y pos of 4 corners*
0 Add a 4 corners polygon primitive as box body*
4,1,4,$2,$3,$4,$5,$6,$7,$8,$9,$2,$3,0*
0 Add four circle primitives for the rounded corners*
1,1,$1+$1,$2,$3*
1,1,$1+$1,$4,$5*
1,1,$1+$1,$6,$7*
1,1,$1+$1,$8,$9*
0 Add four rect primitives between the rounded corners*
20,1,$1+$1,$2,$3,$4,$5,0*
20,1,$1+$1,$4,$5,$6,$7,0*
20,1,$1+$1,$6,$7,$8,$9,0*
20,1,$1+$1,$8,$9,$2,$3,0*%
G04 Aperture macros list end*
%ADD10RoundRect,0.200000X-0.275000X0.200000X-0.275000X-0.200000X0.275000X-0.200000X0.275000X0.200000X0*%
%ADD11R,1.800000X2.500000*%
%ADD12RoundRect,0.150000X-0.825000X-0.150000X0.825000X-0.150000X0.825000X0.150000X-0.825000X0.150000X0*%
%ADD13RoundRect,0.200000X-0.200000X-0.275000X0.200000X-0.275000X0.200000X0.275000X-0.200000X0.275000X0*%
%ADD14RoundRect,0.225000X0.225000X0.250000X-0.225000X0.250000X-0.225000X-0.250000X0.225000X-0.250000X0*%
%ADD15RoundRect,0.100000X0.637500X0.100000X-0.637500X0.100000X-0.637500X-0.100000X0.637500X-0.100000X0*%
%ADD16RoundRect,0.225000X-0.225000X-0.250000X0.225000X-0.250000X0.225000X0.250000X-0.225000X0.250000X0*%
%ADD17RoundRect,0.200000X0.275000X-0.200000X0.275000X0.200000X-0.275000X0.200000X-0.275000X-0.200000X0*%
%ADD18RoundRect,0.200000X0.200000X0.275000X-0.200000X0.275000X-0.200000X-0.275000X0.200000X-0.275000X0*%
G04 APERTURE END LIST*
D10*
X176022000Y-97981000D03*
X176022000Y-99631000D03*
D11*
X131826000Y-105696000D03*
X131826000Y-109696000D03*
D12*
X135193000Y-88011000D03*
X135193000Y-86741000D03*
X135193000Y-85471000D03*
X135193000Y-84201000D03*
X140143000Y-84201000D03*
X140143000Y-85471000D03*
X140143000Y-86741000D03*
X140143000Y-88011000D03*
D13*
X126683000Y-84074000D03*
X128333000Y-84074000D03*
D11*
X162306000Y-109442000D03*
X162306000Y-105442000D03*
X154940000Y-105696000D03*
X154940000Y-109696000D03*
D13*
X123127000Y-84074000D03*
X124777000Y-84074000D03*
D14*
X139967000Y-89662000D03*
X138417000Y-89662000D03*
D10*
X121666000Y-98743000D03*
X121666000Y-100393000D03*
D11*
X183896000Y-109442000D03*
X183896000Y-105442000D03*
D15*
X161104500Y-86199000D03*
X161104500Y-86849000D03*
X161104500Y-87499000D03*
X161104500Y-88149000D03*
X161104500Y-88799000D03*
X161104500Y-89449000D03*
X161104500Y-90099000D03*
X161104500Y-90749000D03*
X161104500Y-91399000D03*
X161104500Y-92049000D03*
X161104500Y-92699000D03*
X161104500Y-93349000D03*
X161104500Y-93999000D03*
X161104500Y-94649000D03*
X155379500Y-94649000D03*
X155379500Y-93999000D03*
X155379500Y-93349000D03*
X155379500Y-92699000D03*
X155379500Y-92049000D03*
X155379500Y-91399000D03*
X155379500Y-90749000D03*
X155379500Y-90099000D03*
X155379500Y-89449000D03*
X155379500Y-88799000D03*
X155379500Y-88149000D03*
X155379500Y-87499000D03*
X155379500Y-86849000D03*
X155379500Y-86199000D03*
D11*
X120904000Y-105696000D03*
X120904000Y-109696000D03*
X142748000Y-105696000D03*
X142748000Y-109696000D03*
D16*
X130035000Y-84074000D03*
X131585000Y-84074000D03*
D11*
X109982000Y-105442000D03*
X109982000Y-109442000D03*
X176530000Y-105442000D03*
X176530000Y-109442000D03*
X139192000Y-109696000D03*
X139192000Y-105696000D03*
D17*
X123698000Y-92202000D03*
X123698000Y-90552000D03*
D16*
X191503000Y-96774000D03*
X193053000Y-96774000D03*
D11*
X165862000Y-105442000D03*
X165862000Y-109442000D03*
X117348000Y-109696000D03*
X117348000Y-105696000D03*
D10*
X173482000Y-97981000D03*
X173482000Y-99631000D03*
D16*
X104127000Y-92456000D03*
X105677000Y-92456000D03*
D17*
X129032000Y-92011000D03*
X129032000Y-90361000D03*
D11*
X128270000Y-109696000D03*
X128270000Y-105696000D03*
X172974000Y-109442000D03*
X172974000Y-105442000D03*
D17*
X173482000Y-91757000D03*
X173482000Y-90107000D03*
X126238000Y-92202000D03*
X126238000Y-90552000D03*
D11*
X151384000Y-109696000D03*
X151384000Y-105696000D03*
D17*
X175768000Y-91757000D03*
X175768000Y-90107000D03*
D18*
X145859000Y-88646000D03*
X144209000Y-88646000D03*
D17*
X131572000Y-91948000D03*
X131572000Y-90298000D03*
D10*
X124206000Y-98806000D03*
X124206000Y-100456000D03*
X129286000Y-98743000D03*
X129286000Y-100393000D03*
X170942000Y-97981000D03*
X170942000Y-99631000D03*
X142494000Y-86805000D03*
X142494000Y-88455000D03*
X144018000Y-85535000D03*
X144018000Y-87185000D03*
D17*
X178562000Y-91757000D03*
X178562000Y-90107000D03*
D10*
X168402000Y-97981000D03*
X168402000Y-99631000D03*
D11*
X187452000Y-105442000D03*
X187452000Y-109442000D03*
X106426000Y-109442000D03*
X106426000Y-105442000D03*
D17*
X170942000Y-91757000D03*
X170942000Y-90107000D03*
D14*
X139967000Y-91186000D03*
X138417000Y-91186000D03*
D10*
X126746000Y-98743000D03*
X126746000Y-100393000D03*
M02*
