G04 #@! TF.GenerationSoftware,KiCad,Pcbnew,7.0.1*
G04 #@! TF.CreationDate,2023-04-30T12:57:05-04:00*
G04 #@! TF.ProjectId,cord reel detent ring,636f7264-2072-4656-956c-20646574656e,rev?*
G04 #@! TF.SameCoordinates,Original*
G04 #@! TF.FileFunction,Legend,Bot*
G04 #@! TF.FilePolarity,Positive*
%FSLAX46Y46*%
G04 Gerber Fmt 4.6, Leading zero omitted, Abs format (unit mm)*
G04 Created by KiCad (PCBNEW 7.0.1) date 2023-04-30 12:57:05*
%MOMM*%
%LPD*%
G01*
G04 APERTURE LIST*
G04 APERTURE END LIST*
G36*
X8466433Y9608313D02*
G01*
X8466433Y8474134D01*
X8466433Y6779867D01*
X8116378Y6779867D01*
X7766323Y6779867D01*
X7766323Y7423969D01*
X7766323Y8068070D01*
X7294070Y8068070D01*
X7191845Y8068701D01*
X7024836Y8072294D01*
X6873571Y8078533D01*
X6751469Y8086803D01*
X6671951Y8096492D01*
X6480492Y8150322D01*
X6277370Y8257176D01*
X6107648Y8408926D01*
X5972076Y8605026D01*
X5970891Y8607211D01*
X5931346Y8682194D01*
X5904673Y8743641D01*
X5888338Y8805459D01*
X5879808Y8881559D01*
X5876549Y8985849D01*
X5876057Y9123183D01*
X6576135Y9123183D01*
X6581521Y9032091D01*
X6621476Y8892756D01*
X6703521Y8786701D01*
X6831376Y8707871D01*
X6860618Y8696187D01*
X6937242Y8675009D01*
X7038993Y8659011D01*
X7176162Y8646812D01*
X7359039Y8637030D01*
X7766323Y8619439D01*
X7766323Y9113876D01*
X7766323Y9608313D01*
X7448094Y9608313D01*
X7423078Y9608273D01*
X7204105Y9603119D01*
X7031339Y9587614D01*
X6896356Y9559328D01*
X6790733Y9515832D01*
X6706047Y9454696D01*
X6633874Y9373492D01*
X6603922Y9322605D01*
X6582343Y9240748D01*
X6576135Y9123183D01*
X5876057Y9123183D01*
X5876025Y9132238D01*
X5876129Y9191574D01*
X5878118Y9326073D01*
X5884108Y9422886D01*
X5896006Y9495523D01*
X5915715Y9557496D01*
X5945142Y9622315D01*
X5947049Y9626143D01*
X6028487Y9755231D01*
X6136999Y9882437D01*
X6256534Y9991091D01*
X6371036Y10064526D01*
X6399780Y10077434D01*
X6469808Y10103191D01*
X6550246Y10123751D01*
X6647604Y10139658D01*
X6768395Y10151454D01*
X6919131Y10159683D01*
X7106322Y10164889D01*
X7336482Y10167613D01*
X7616121Y10168401D01*
X8466433Y10168401D01*
X8466433Y9608313D01*
G37*
G36*
X4047886Y10140341D02*
G01*
X4273129Y10129394D01*
X4468967Y10095740D01*
X4657595Y10034011D01*
X4861213Y9938839D01*
X4948901Y9889824D01*
X5188146Y9714874D01*
X5387799Y9501893D01*
X5544477Y9254975D01*
X5654798Y8978213D01*
X5668953Y8922391D01*
X5694134Y8754978D01*
X5705321Y8561782D01*
X5702510Y8362806D01*
X5685700Y8178053D01*
X5654890Y8027528D01*
X5613550Y7904883D01*
X5482997Y7633144D01*
X5310927Y7396349D01*
X5100587Y7197811D01*
X4855225Y7040846D01*
X4578089Y6928767D01*
X4549291Y6920171D01*
X4456480Y6895664D01*
X4369040Y6880144D01*
X4271649Y6872169D01*
X4148985Y6870299D01*
X3985727Y6873096D01*
X3888122Y6876006D01*
X3736561Y6884099D01*
X3618900Y6897090D01*
X3520645Y6916850D01*
X3427304Y6945253D01*
X3286709Y7005158D01*
X3109500Y7102560D01*
X2930677Y7220539D01*
X2768945Y7347662D01*
X2658337Y7443919D01*
X2850680Y7657979D01*
X2909599Y7722930D01*
X2981193Y7799916D01*
X3032379Y7852545D01*
X3054785Y7872039D01*
X3079538Y7855521D01*
X3134351Y7811302D01*
X3207097Y7749089D01*
X3247717Y7714973D01*
X3454804Y7578595D01*
X3675596Y7487766D01*
X3903094Y7441382D01*
X4130297Y7438337D01*
X4350205Y7477528D01*
X4555817Y7557850D01*
X4740134Y7678199D01*
X4896154Y7837472D01*
X5016878Y8034563D01*
X5042667Y8092697D01*
X5068187Y8166949D01*
X5082995Y8246304D01*
X5089886Y8347716D01*
X5091655Y8488136D01*
X5090699Y8610315D01*
X5085153Y8715068D01*
X5071971Y8796314D01*
X5048143Y8871508D01*
X5010663Y8958107D01*
X5002943Y8974310D01*
X4901368Y9135820D01*
X4766412Y9285207D01*
X4612928Y9408219D01*
X4455770Y9490603D01*
X4442259Y9495550D01*
X4188924Y9559021D01*
X3937800Y9566950D01*
X3691275Y9519780D01*
X3451739Y9417953D01*
X3221580Y9261913D01*
X3059866Y9130195D01*
X2853165Y9317403D01*
X2819589Y9348300D01*
X2728832Y9438904D01*
X2674811Y9505801D01*
X2661630Y9544132D01*
X2663025Y9547382D01*
X2702738Y9597532D01*
X2778566Y9666435D01*
X2879137Y9745572D01*
X2993082Y9826423D01*
X3109028Y9900468D01*
X3215606Y9959189D01*
X3369960Y10028288D01*
X3572957Y10093785D01*
X3785011Y10129547D01*
X4027734Y10140397D01*
X4047886Y10140341D01*
G37*
G36*
X-4848610Y7628023D02*
G01*
X-4842258Y7571318D01*
X-4841669Y7421354D01*
X-4859729Y7297518D01*
X-4860607Y7294316D01*
X-4941287Y7103234D01*
X-5066162Y6940947D01*
X-5227669Y6815096D01*
X-5418243Y6733321D01*
X-5534921Y6710364D01*
X-5742992Y6709020D01*
X-5957491Y6750625D01*
X-6164552Y6831958D01*
X-6350305Y6949799D01*
X-6459918Y7036613D01*
X-6459918Y6908240D01*
X-6459918Y6779867D01*
X-6865982Y6779867D01*
X-7272046Y6779867D01*
X-7272046Y7428537D01*
X-6459918Y7428537D01*
X-6354901Y7363517D01*
X-6266590Y7324964D01*
X-6139144Y7296883D01*
X-6002333Y7286799D01*
X-5876450Y7296042D01*
X-5781787Y7325944D01*
X-5768282Y7334379D01*
X-5702646Y7409629D01*
X-5667641Y7513062D01*
X-5664151Y7628023D01*
X-5693059Y7737857D01*
X-5755251Y7825909D01*
X-5792787Y7853628D01*
X-5908364Y7905845D01*
X-6064277Y7946585D01*
X-6250168Y7972775D01*
X-6459918Y7991782D01*
X-6459918Y7710160D01*
X-6459918Y7428537D01*
X-7272046Y7428537D01*
X-7272046Y7754939D01*
X-7272026Y7827334D01*
X-7271318Y8102122D01*
X-7269058Y8328294D01*
X-7264518Y8511830D01*
X-7256971Y8658712D01*
X-7245688Y8774919D01*
X-7229942Y8866434D01*
X-7209006Y8939235D01*
X-7182152Y8999306D01*
X-7148652Y9052625D01*
X-7107779Y9105175D01*
X-7076638Y9139385D01*
X-6943139Y9244259D01*
X-6769874Y9334005D01*
X-6568990Y9401933D01*
X-6534740Y9410156D01*
X-6345872Y9438844D01*
X-6121466Y9451600D01*
X-5876335Y9448935D01*
X-5625291Y9431361D01*
X-5383146Y9399387D01*
X-5164714Y9353524D01*
X-5059697Y9326110D01*
X-5059697Y9015962D01*
X-5059697Y8705815D01*
X-5136709Y8721024D01*
X-5151235Y8724196D01*
X-5226318Y8743616D01*
X-5331208Y8773302D01*
X-5447931Y8808216D01*
X-5470798Y8815072D01*
X-5681396Y8862203D01*
X-5880413Y8879448D01*
X-6061090Y8868377D01*
X-6216669Y8830555D01*
X-6340393Y8767552D01*
X-6425502Y8680934D01*
X-6465240Y8572268D01*
X-6466302Y8563048D01*
X-6464691Y8528604D01*
X-6443010Y8507521D01*
X-6389373Y8493487D01*
X-6291891Y8480187D01*
X-6032994Y8447100D01*
X-5810073Y8414331D01*
X-5628983Y8381444D01*
X-5482545Y8346417D01*
X-5363577Y8307227D01*
X-5264900Y8261854D01*
X-5179333Y8208274D01*
X-5099697Y8144466D01*
X-5048847Y8095291D01*
X-4970844Y8004210D01*
X-4916068Y7920978D01*
X-4891233Y7859448D01*
X-4859458Y7724865D01*
X-4848610Y7628023D01*
G37*
G36*
X2473489Y9580308D02*
G01*
X2473489Y8487287D01*
X2473489Y8269726D01*
X2473489Y6745528D01*
X1598351Y6759684D01*
X1326493Y6764903D01*
X1087242Y6771549D01*
X895991Y6779527D01*
X748612Y6789052D01*
X640977Y6800341D01*
X568957Y6813611D01*
X549534Y6818828D01*
X381644Y6879061D01*
X216020Y6962009D01*
X70415Y7057651D01*
X-37419Y7155962D01*
X-49546Y7170068D01*
X-121717Y7258368D01*
X-171180Y7334328D01*
X-201914Y7411603D01*
X-217897Y7503849D01*
X-223108Y7624722D01*
X-221525Y7787877D01*
X-219577Y7844035D01*
X625198Y7844035D01*
X628794Y7766785D01*
X660979Y7637914D01*
X730991Y7542880D01*
X844221Y7472539D01*
X906089Y7448929D01*
X1001506Y7426143D01*
X1124925Y7411061D01*
X1290303Y7401459D01*
X1605353Y7388916D01*
X1605353Y7829321D01*
X1605353Y8269726D01*
X1248296Y8259088D01*
X1139918Y8254497D01*
X957887Y8236508D01*
X822276Y8203627D01*
X727142Y8151897D01*
X666546Y8077360D01*
X634545Y7976059D01*
X625198Y7844035D01*
X-219577Y7844035D01*
X-216611Y7929562D01*
X-208056Y8060765D01*
X-197105Y8165115D01*
X-184970Y8228033D01*
X-152814Y8291260D01*
X-73636Y8387170D01*
X32620Y8481679D01*
X151359Y8562270D01*
X267981Y8616428D01*
X413176Y8664654D01*
X344160Y8708125D01*
X261494Y8769810D01*
X150396Y8880500D01*
X57607Y9003415D01*
X-1076Y9119724D01*
X-20218Y9192964D01*
X-30438Y9258758D01*
X839255Y9258758D01*
X843906Y9139743D01*
X872431Y9043283D01*
X874566Y9039453D01*
X927060Y8976492D01*
X998451Y8921059D01*
X1007087Y8916169D01*
X1083748Y8887142D01*
X1192963Y8868120D01*
X1346312Y8856968D01*
X1605353Y8845513D01*
X1605353Y9212911D01*
X1605353Y9580308D01*
X1357492Y9580308D01*
X1281995Y9579465D01*
X1129941Y9569250D01*
X1019839Y9545296D01*
X942313Y9504909D01*
X887988Y9445395D01*
X857451Y9373772D01*
X839255Y9258758D01*
X-30438Y9258758D01*
X-39457Y9316819D01*
X-46908Y9439776D01*
X-33714Y9596948D01*
X23126Y9772729D01*
X126601Y9921006D01*
X278627Y10044341D01*
X481120Y10145293D01*
X497761Y10151803D01*
X543012Y10167823D01*
X590743Y10180628D01*
X647646Y10190674D01*
X720410Y10198416D01*
X815728Y10204311D01*
X940289Y10208815D01*
X1100785Y10212382D01*
X1303907Y10215470D01*
X1556345Y10218532D01*
X2473489Y10229047D01*
X2473489Y9580308D01*
G37*
G36*
X-2205805Y10119393D02*
G01*
X-2205313Y10117515D01*
X-2191457Y10063361D01*
X-2165827Y9962089D01*
X-2130117Y9820439D01*
X-2086024Y9645150D01*
X-2035242Y9442961D01*
X-1979466Y9220610D01*
X-1920392Y8984837D01*
X-1910939Y8947129D01*
X-1853484Y8719752D01*
X-1800185Y8511830D01*
X-1752588Y8329182D01*
X-1712239Y8177629D01*
X-1680685Y8062990D01*
X-1659472Y7991085D01*
X-1650147Y7967734D01*
X-1648174Y7973112D01*
X-1635928Y8022544D01*
X-1614259Y8118685D01*
X-1584422Y8255685D01*
X-1547669Y8427694D01*
X-1505256Y8628865D01*
X-1458435Y8853346D01*
X-1408460Y9095290D01*
X-1179210Y10210408D01*
X-722966Y10218112D01*
X-627926Y10219634D01*
X-484910Y10221094D01*
X-386254Y10220040D01*
X-324318Y10215742D01*
X-291467Y10207472D01*
X-280062Y10194503D01*
X-282466Y10176106D01*
X-282502Y10175993D01*
X-292820Y10138052D01*
X-315131Y10052479D01*
X-348000Y9924934D01*
X-389992Y9761079D01*
X-439674Y9566575D01*
X-495609Y9347085D01*
X-556363Y9108269D01*
X-620502Y8855789D01*
X-686591Y8595307D01*
X-753195Y8332484D01*
X-818880Y8072981D01*
X-882210Y7822461D01*
X-941750Y7586584D01*
X-996067Y7371012D01*
X-1043726Y7181406D01*
X-1083291Y7023428D01*
X-1113328Y6902740D01*
X-1132403Y6825003D01*
X-1139080Y6795878D01*
X-1157410Y6791518D01*
X-1223441Y6786869D01*
X-1328987Y6783178D01*
X-1465026Y6780745D01*
X-1622534Y6779867D01*
X-2105988Y6779867D01*
X-2368730Y7833265D01*
X-2384092Y7894660D01*
X-2441797Y8121701D01*
X-2495556Y8327771D01*
X-2543822Y8507294D01*
X-2585043Y8654696D01*
X-2617670Y8764401D01*
X-2640153Y8830836D01*
X-2650943Y8848425D01*
X-2651332Y8847580D01*
X-2663511Y8808658D01*
X-2687743Y8722185D01*
X-2722364Y8594404D01*
X-2765713Y8431557D01*
X-2816128Y8239883D01*
X-2871946Y8025626D01*
X-2931504Y7795027D01*
X-3192594Y6779867D01*
X-3671585Y6779867D01*
X-4150576Y6779867D01*
X-4585979Y8495137D01*
X-5021382Y10210408D01*
X-4588533Y10218140D01*
X-4502937Y10219514D01*
X-4364415Y10221011D01*
X-4252636Y10221281D01*
X-4177352Y10220324D01*
X-4148311Y10218140D01*
X-4145756Y10209371D01*
X-4132814Y10154721D01*
X-4110492Y10056118D01*
X-4080314Y9920576D01*
X-4043800Y9755109D01*
X-4002474Y9566733D01*
X-3957858Y9362460D01*
X-3911474Y9149305D01*
X-3864846Y8934282D01*
X-3819495Y8724406D01*
X-3776944Y8526690D01*
X-3738716Y8348149D01*
X-3706332Y8195798D01*
X-3681316Y8076650D01*
X-3665190Y7997719D01*
X-3659477Y7966020D01*
X-3658366Y7955637D01*
X-3651438Y7962566D01*
X-3637676Y8001408D01*
X-3616516Y8074431D01*
X-3587391Y8183904D01*
X-3549739Y8332096D01*
X-3502994Y8521276D01*
X-3446591Y8753712D01*
X-3379966Y9031674D01*
X-3302554Y9357430D01*
X-3213791Y9733249D01*
X-3113112Y10161400D01*
X-3108356Y10178757D01*
X-3096584Y10197704D01*
X-3071373Y10210517D01*
X-3024210Y10218394D01*
X-2946581Y10222536D01*
X-2829971Y10224141D01*
X-2665866Y10224410D01*
X-2233410Y10224410D01*
X-2205805Y10119393D01*
G37*
G36*
X-8910059Y8586152D02*
G01*
X-8888016Y8515529D01*
X-8826480Y8320591D01*
X-8770482Y8146375D01*
X-8722199Y7999445D01*
X-8683808Y7886367D01*
X-8657486Y7813705D01*
X-8645410Y7788026D01*
X-8642752Y7791477D01*
X-8624449Y7834708D01*
X-8591842Y7922300D01*
X-8547222Y8047748D01*
X-8492884Y8204543D01*
X-8431118Y8386180D01*
X-8364218Y8586152D01*
X-8099280Y9384277D01*
X-7668664Y9384277D01*
X-7617416Y9384252D01*
X-7468000Y9383501D01*
X-7364665Y9381016D01*
X-7299659Y9375873D01*
X-7265231Y9367150D01*
X-7253628Y9353923D01*
X-7257100Y9335270D01*
X-7268632Y9304980D01*
X-7298352Y9226492D01*
X-7343939Y9105925D01*
X-7403349Y8948685D01*
X-7474541Y8760181D01*
X-7555472Y8545820D01*
X-7644098Y8311008D01*
X-7738378Y8061155D01*
X-8200605Y6836047D01*
X-8097420Y6569742D01*
X-8066231Y6490825D01*
X-8024983Y6391619D01*
X-7993276Y6321578D01*
X-7976194Y6292332D01*
X-7971969Y6291350D01*
X-7924993Y6291511D01*
X-7836081Y6296709D01*
X-7715926Y6306224D01*
X-7575222Y6319336D01*
X-7565964Y6320255D01*
X-7437586Y6332512D01*
X-7294007Y6345292D01*
X-7129414Y6359044D01*
X-6937995Y6374222D01*
X-6713937Y6391276D01*
X-6451429Y6410659D01*
X-6144658Y6432822D01*
X-5787812Y6458216D01*
X-5529930Y6474308D01*
X-5151376Y6492149D01*
X-4731657Y6506503D01*
X-4279102Y6517368D01*
X-3802042Y6524746D01*
X-3308806Y6528635D01*
X-2807724Y6529037D01*
X-2307125Y6525952D01*
X-1815339Y6519378D01*
X-1340695Y6509317D01*
X-891524Y6495768D01*
X-476155Y6478732D01*
X-102917Y6458207D01*
X-9404Y6452207D01*
X948548Y6385787D01*
X1862385Y6312847D01*
X2742744Y6232287D01*
X3600257Y6143006D01*
X4445559Y6043904D01*
X5289284Y5933880D01*
X6142067Y5811834D01*
X6217800Y5800470D01*
X6511798Y5755278D01*
X6820678Y5706297D01*
X7134395Y5655219D01*
X7442906Y5603735D01*
X7736166Y5553537D01*
X8004130Y5506315D01*
X8236756Y5463762D01*
X8423999Y5427568D01*
X8731620Y5365645D01*
X8763365Y5221664D01*
X8773302Y5175938D01*
X8796539Y5064966D01*
X8814801Y4972725D01*
X8834492Y4867766D01*
X8741477Y4886480D01*
X8579430Y4918789D01*
X8051461Y5020591D01*
X7483221Y5125500D01*
X6886348Y5231576D01*
X6272481Y5336879D01*
X5653261Y5439470D01*
X5040326Y5537409D01*
X4445316Y5628757D01*
X3879870Y5711575D01*
X3355628Y5783922D01*
X2881036Y5844949D01*
X2114660Y5935177D01*
X1337552Y6016959D01*
X556247Y6089891D01*
X-222723Y6153567D01*
X-992826Y6207582D01*
X-1747528Y6251531D01*
X-2480297Y6285008D01*
X-3184601Y6307608D01*
X-3853906Y6318927D01*
X-4481680Y6318558D01*
X-5061390Y6306096D01*
X-5062660Y6306053D01*
X-5250383Y6298812D01*
X-5465991Y6288961D01*
X-5703035Y6276923D01*
X-5955068Y6263120D01*
X-6215643Y6247976D01*
X-6478312Y6231914D01*
X-6736627Y6215357D01*
X-6984141Y6198727D01*
X-7214406Y6182447D01*
X-7420974Y6166941D01*
X-7597399Y6152632D01*
X-7737232Y6139942D01*
X-7834026Y6129294D01*
X-7881333Y6121111D01*
X-7897258Y6103053D01*
X-7892288Y6055477D01*
X-7863020Y5968545D01*
X-7809510Y5827717D01*
X-8250458Y5827717D01*
X-8691405Y5827717D01*
X-8724411Y5937882D01*
X-8731468Y5960907D01*
X-8755734Y6018611D01*
X-8788805Y6038988D01*
X-8847863Y6035648D01*
X-8858154Y6034289D01*
X-8949322Y6024214D01*
X-9079573Y6011894D01*
X-9237052Y5998245D01*
X-9409899Y5984183D01*
X-9586257Y5970624D01*
X-9754268Y5958484D01*
X-9902075Y5948678D01*
X-10017819Y5942123D01*
X-10089644Y5939735D01*
X-10104159Y5939856D01*
X-10210427Y5951616D01*
X-10268517Y5981742D01*
X-10286852Y6010408D01*
X-10271848Y6023748D01*
X-10258548Y6024755D01*
X-10196566Y6031222D01*
X-10093895Y6042709D01*
X-9960132Y6058078D01*
X-9804873Y6076196D01*
X-9637714Y6095926D01*
X-9468253Y6116134D01*
X-9306085Y6135684D01*
X-9160808Y6153440D01*
X-9042018Y6168268D01*
X-8959311Y6179032D01*
X-8927804Y6184333D01*
X-8865186Y6202925D01*
X-8840292Y6223689D01*
X-8848308Y6250124D01*
X-8874182Y6325019D01*
X-8916278Y6443437D01*
X-8972898Y6600697D01*
X-9042342Y6792118D01*
X-9122911Y7013016D01*
X-9212907Y7258710D01*
X-9310631Y7524519D01*
X-9414383Y7805759D01*
X-9510800Y8066858D01*
X-9608922Y8332956D01*
X-9699456Y8578873D01*
X-9780709Y8799988D01*
X-9850988Y8991680D01*
X-9908597Y9149330D01*
X-9951843Y9268315D01*
X-9979034Y9344016D01*
X-9988473Y9371812D01*
X-9982383Y9373940D01*
X-9932909Y9378024D01*
X-9841771Y9381303D01*
X-9718710Y9383485D01*
X-9573463Y9384277D01*
X-9158453Y9384277D01*
X-8910059Y8586152D01*
G37*
G36*
X-667323Y-8980800D02*
G01*
X-625140Y-8991756D01*
X-587163Y-9013210D01*
X-565295Y-9029889D01*
X-565295Y-8985492D01*
X-465271Y-8985492D01*
X-465271Y-9479364D01*
X-565295Y-9479364D01*
X-565305Y-9315261D01*
X-565338Y-9282446D01*
X-565559Y-9238757D01*
X-566070Y-9205000D01*
X-566964Y-9179591D01*
X-568335Y-9160944D01*
X-570277Y-9147474D01*
X-572882Y-9137595D01*
X-576245Y-9129722D01*
X-586153Y-9114290D01*
X-609887Y-9093292D01*
X-638879Y-9081753D01*
X-670401Y-9080525D01*
X-701728Y-9090462D01*
X-726206Y-9103221D01*
X-762301Y-9059346D01*
X-763080Y-9058397D01*
X-780049Y-9036992D01*
X-789490Y-9022879D01*
X-792377Y-9014283D01*
X-789685Y-9009426D01*
X-753657Y-8990579D01*
X-711050Y-8980391D01*
X-667323Y-8980800D01*
G37*
G36*
X1341188Y-8980965D02*
G01*
X1381323Y-8992909D01*
X1416490Y-9015115D01*
X1441448Y-9036479D01*
X1441448Y-8985492D01*
X1541473Y-8985492D01*
X1541473Y-9479364D01*
X1441448Y-9479364D01*
X1441448Y-9318148D01*
X1441443Y-9296833D01*
X1441343Y-9252135D01*
X1441020Y-9217579D01*
X1440349Y-9191483D01*
X1439203Y-9172165D01*
X1437459Y-9157943D01*
X1434991Y-9147136D01*
X1431674Y-9138062D01*
X1427382Y-9129039D01*
X1413404Y-9108807D01*
X1388789Y-9089808D01*
X1359661Y-9080030D01*
X1328927Y-9080323D01*
X1299490Y-9091539D01*
X1279436Y-9103766D01*
X1244789Y-9062025D01*
X1238301Y-9054116D01*
X1223896Y-9035800D01*
X1213890Y-9021956D01*
X1210141Y-9015103D01*
X1213363Y-9011371D01*
X1225279Y-9003697D01*
X1242962Y-8994643D01*
X1256396Y-8989084D01*
X1298680Y-8979588D01*
X1341188Y-8980965D01*
G37*
G36*
X-759995Y-8203593D02*
G01*
X-727175Y-8218131D01*
X-701969Y-8239542D01*
X-701185Y-8240481D01*
X-695912Y-8244819D01*
X-692804Y-8240413D01*
X-690326Y-8225400D01*
X-687200Y-8200924D01*
X-635625Y-8199108D01*
X-584050Y-8197293D01*
X-584050Y-8698427D01*
X-635625Y-8696611D01*
X-687200Y-8694796D01*
X-690326Y-8522878D01*
X-690813Y-8496424D01*
X-691830Y-8448364D01*
X-693058Y-8410612D01*
X-694791Y-8381674D01*
X-697320Y-8360055D01*
X-700940Y-8344263D01*
X-705943Y-8332801D01*
X-712622Y-8324178D01*
X-721270Y-8316898D01*
X-732180Y-8309468D01*
X-748775Y-8302232D01*
X-775885Y-8298181D01*
X-804575Y-8300096D01*
X-829512Y-8308054D01*
X-849297Y-8318286D01*
X-873309Y-8290863D01*
X-883083Y-8279505D01*
X-898374Y-8261055D01*
X-909520Y-8246784D01*
X-921720Y-8230129D01*
X-901158Y-8217421D01*
X-873683Y-8204594D01*
X-836295Y-8196486D01*
X-797384Y-8196265D01*
X-759995Y-8203593D01*
G37*
G36*
X-132092Y-8199113D02*
G01*
X-80801Y-8200924D01*
X-80833Y-8385344D01*
X-80835Y-8391771D01*
X-80886Y-8443487D01*
X-81080Y-8484436D01*
X-81523Y-8516183D01*
X-82318Y-8540292D01*
X-83569Y-8558328D01*
X-85383Y-8571855D01*
X-87862Y-8582436D01*
X-91111Y-8591638D01*
X-95235Y-8601022D01*
X-104395Y-8618573D01*
X-132647Y-8654845D01*
X-168802Y-8681638D01*
X-212083Y-8698307D01*
X-221687Y-8700289D01*
X-263322Y-8701291D01*
X-305748Y-8690917D01*
X-346699Y-8669650D01*
X-377749Y-8648754D01*
X-377749Y-8697921D01*
X-477774Y-8697921D01*
X-477774Y-8197798D01*
X-377749Y-8197798D01*
X-377749Y-8359014D01*
X-377744Y-8380468D01*
X-377644Y-8425131D01*
X-377321Y-8459655D01*
X-376649Y-8485721D01*
X-375504Y-8505008D01*
X-373759Y-8519197D01*
X-371291Y-8529969D01*
X-367974Y-8539003D01*
X-363683Y-8547980D01*
X-359032Y-8556387D01*
X-338314Y-8580627D01*
X-311195Y-8594554D01*
X-276515Y-8598845D01*
X-271631Y-8598738D01*
X-243753Y-8594097D01*
X-221121Y-8581186D01*
X-199967Y-8557994D01*
X-197831Y-8554993D01*
X-194445Y-8548882D01*
X-191814Y-8540918D01*
X-189819Y-8529580D01*
X-188342Y-8513346D01*
X-187263Y-8490694D01*
X-186463Y-8460104D01*
X-185826Y-8420054D01*
X-185230Y-8369023D01*
X-183384Y-8197302D01*
X-132092Y-8199113D01*
G37*
G36*
X1376162Y-8200800D02*
G01*
X1409466Y-8213183D01*
X1435345Y-8232339D01*
X1444651Y-8241500D01*
X1454149Y-8246696D01*
X1458904Y-8240629D01*
X1460203Y-8222804D01*
X1460203Y-8197798D01*
X1560228Y-8197798D01*
X1560228Y-8697921D01*
X1461110Y-8697921D01*
X1459094Y-8530693D01*
X1458639Y-8494193D01*
X1458001Y-8451886D01*
X1457245Y-8419355D01*
X1456232Y-8395000D01*
X1454821Y-8377222D01*
X1452873Y-8364420D01*
X1450248Y-8354994D01*
X1446807Y-8347343D01*
X1442408Y-8339869D01*
X1439596Y-8335537D01*
X1419343Y-8313786D01*
X1393559Y-8301614D01*
X1359891Y-8297823D01*
X1327499Y-8301765D01*
X1301129Y-8314841D01*
X1281319Y-8337742D01*
X1277962Y-8344182D01*
X1275067Y-8352755D01*
X1272791Y-8364551D01*
X1271011Y-8381116D01*
X1269606Y-8403997D01*
X1268451Y-8434741D01*
X1267425Y-8474895D01*
X1266405Y-8526004D01*
X1263280Y-8694796D01*
X1211213Y-8696619D01*
X1159147Y-8698443D01*
X1161201Y-8512199D01*
X1161230Y-8509587D01*
X1161854Y-8456735D01*
X1162503Y-8414759D01*
X1163296Y-8382104D01*
X1164349Y-8357211D01*
X1165782Y-8338524D01*
X1167711Y-8324486D01*
X1170255Y-8313541D01*
X1173530Y-8304130D01*
X1177656Y-8294697D01*
X1196194Y-8262025D01*
X1222145Y-8234184D01*
X1257028Y-8211819D01*
X1264898Y-8208112D01*
X1300558Y-8197882D01*
X1338753Y-8195572D01*
X1376162Y-8200800D01*
G37*
G36*
X2049271Y-8404099D02*
G01*
X2050636Y-8412424D01*
X2052203Y-8464975D01*
X2046932Y-8516625D01*
X2034793Y-8565000D01*
X2015756Y-8607730D01*
X1989791Y-8642443D01*
X1966627Y-8661949D01*
X1927548Y-8683874D01*
X1884484Y-8697715D01*
X1856693Y-8700811D01*
X1818059Y-8699766D01*
X1778420Y-8694114D01*
X1743299Y-8684376D01*
X1729327Y-8678062D01*
X1704128Y-8663007D01*
X1682143Y-8645966D01*
X1653651Y-8619777D01*
X1689512Y-8590185D01*
X1697670Y-8583494D01*
X1713416Y-8571362D01*
X1723562Y-8565842D01*
X1730879Y-8565788D01*
X1738136Y-8570052D01*
X1741204Y-8572275D01*
X1778821Y-8592592D01*
X1818693Y-8602834D01*
X1858191Y-8602639D01*
X1894686Y-8591645D01*
X1919884Y-8573031D01*
X1939138Y-8544670D01*
X1950468Y-8508812D01*
X1954641Y-8485369D01*
X1641498Y-8485369D01*
X1641545Y-8446297D01*
X1642040Y-8421930D01*
X1643854Y-8404099D01*
X1747774Y-8404099D01*
X1953762Y-8404099D01*
X1950094Y-8383781D01*
X1943204Y-8358361D01*
X1926984Y-8327597D01*
X1904701Y-8305720D01*
X1888629Y-8297794D01*
X1858501Y-8291741D01*
X1826586Y-8293494D01*
X1797844Y-8303170D01*
X1782805Y-8314653D01*
X1765333Y-8336635D01*
X1752661Y-8362179D01*
X1747774Y-8386328D01*
X1747774Y-8404099D01*
X1643854Y-8404099D01*
X1647486Y-8368407D01*
X1659400Y-8323594D01*
X1678352Y-8285759D01*
X1704910Y-8253165D01*
X1732283Y-8230489D01*
X1773213Y-8209044D01*
X1817552Y-8197312D01*
X1863093Y-8195332D01*
X1907628Y-8203143D01*
X1948948Y-8220782D01*
X1984848Y-8248288D01*
X2005202Y-8273073D01*
X2027106Y-8314101D01*
X2042260Y-8361342D01*
X2049271Y-8404099D01*
G37*
G36*
X-802871Y-9185541D02*
G01*
X-802715Y-9186349D01*
X-801669Y-9197044D01*
X-800588Y-9252588D01*
X-806521Y-9305463D01*
X-818988Y-9352828D01*
X-837506Y-9391842D01*
X-852364Y-9413242D01*
X-878273Y-9440475D01*
X-909568Y-9460912D01*
X-949765Y-9477229D01*
X-971808Y-9482181D01*
X-1007902Y-9484604D01*
X-1047094Y-9482480D01*
X-1084620Y-9476135D01*
X-1115716Y-9465895D01*
X-1121807Y-9462955D01*
X-1142925Y-9450974D01*
X-1163413Y-9437124D01*
X-1180698Y-9423394D01*
X-1192209Y-9411774D01*
X-1195374Y-9404256D01*
X-1195301Y-9404097D01*
X-1189471Y-9397625D01*
X-1176777Y-9385762D01*
X-1159828Y-9370952D01*
X-1126080Y-9342278D01*
X-1107837Y-9357629D01*
X-1086300Y-9371108D01*
X-1056054Y-9382553D01*
X-1024311Y-9388929D01*
X-996567Y-9388702D01*
X-963449Y-9377814D01*
X-935246Y-9357784D01*
X-914956Y-9330845D01*
X-904723Y-9299091D01*
X-901232Y-9273063D01*
X-1210777Y-9273063D01*
X-1208051Y-9201836D01*
X-1207853Y-9196763D01*
X-1207281Y-9185541D01*
X-1108867Y-9185541D01*
X-901232Y-9185541D01*
X-904723Y-9159513D01*
X-913919Y-9128679D01*
X-933280Y-9102012D01*
X-960879Y-9083467D01*
X-995083Y-9074577D01*
X-1013808Y-9074240D01*
X-1046408Y-9082018D01*
X-1073100Y-9100292D01*
X-1092943Y-9128287D01*
X-1104995Y-9165224D01*
X-1108867Y-9185541D01*
X-1207281Y-9185541D01*
X-1206280Y-9165901D01*
X-1203949Y-9143369D01*
X-1200105Y-9125495D01*
X-1193994Y-9108609D01*
X-1184860Y-9089040D01*
X-1162934Y-9053225D01*
X-1129865Y-9019336D01*
X-1089924Y-8995766D01*
X-1043552Y-8982762D01*
X-991192Y-8980572D01*
X-984924Y-8981027D01*
X-936421Y-8990742D01*
X-894701Y-9010773D01*
X-860117Y-9040736D01*
X-833023Y-9080243D01*
X-813771Y-9128909D01*
X-802871Y-9185541D01*
G37*
G36*
X-1341278Y-8404099D02*
G01*
X-1341238Y-8404472D01*
X-1339946Y-8440519D01*
X-1340549Y-8478025D01*
X-1343012Y-8512379D01*
X-1347300Y-8538969D01*
X-1359903Y-8577741D01*
X-1384298Y-8621724D01*
X-1417048Y-8656624D01*
X-1457788Y-8682074D01*
X-1506152Y-8697708D01*
X-1509130Y-8698295D01*
X-1563105Y-8702426D01*
X-1616452Y-8694787D01*
X-1666918Y-8675941D01*
X-1712250Y-8646447D01*
X-1718731Y-8640882D01*
X-1729910Y-8629868D01*
X-1734333Y-8623207D01*
X-1734302Y-8622966D01*
X-1729211Y-8616179D01*
X-1717093Y-8604098D01*
X-1700388Y-8589170D01*
X-1666443Y-8560169D01*
X-1643816Y-8575524D01*
X-1640265Y-8577850D01*
X-1619103Y-8589624D01*
X-1598955Y-8598217D01*
X-1589095Y-8600786D01*
X-1561681Y-8603513D01*
X-1532149Y-8601956D01*
X-1505254Y-8596555D01*
X-1485750Y-8587748D01*
X-1470184Y-8571790D01*
X-1455490Y-8548823D01*
X-1444703Y-8524144D01*
X-1440511Y-8502799D01*
X-1440511Y-8485369D01*
X-1748186Y-8485369D01*
X-1745622Y-8415039D01*
X-1744848Y-8404099D01*
X-1648203Y-8404099D01*
X-1440511Y-8404099D01*
X-1440511Y-8386328D01*
X-1443550Y-8367786D01*
X-1454765Y-8342124D01*
X-1471437Y-8318933D01*
X-1490581Y-8303170D01*
X-1491480Y-8302698D01*
X-1515697Y-8294620D01*
X-1544202Y-8291571D01*
X-1551051Y-8291768D01*
X-1584667Y-8299359D01*
X-1612028Y-8317311D01*
X-1632114Y-8344713D01*
X-1643909Y-8380656D01*
X-1648203Y-8404099D01*
X-1744848Y-8404099D01*
X-1742417Y-8369718D01*
X-1735639Y-8332731D01*
X-1724270Y-8302451D01*
X-1707249Y-8276071D01*
X-1683516Y-8250789D01*
X-1645916Y-8222394D01*
X-1601096Y-8202477D01*
X-1553392Y-8194200D01*
X-1504267Y-8197995D01*
X-1461671Y-8211291D01*
X-1421169Y-8235633D01*
X-1388239Y-8269780D01*
X-1363106Y-8313495D01*
X-1345994Y-8366537D01*
X-1344460Y-8374494D01*
X-1341278Y-8404099D01*
G37*
G36*
X-1101129Y-8197238D02*
G01*
X-1063008Y-8206047D01*
X-1016166Y-8226097D01*
X-977973Y-8255091D01*
X-948298Y-8293168D01*
X-927010Y-8340468D01*
X-913978Y-8397132D01*
X-910187Y-8451952D01*
X-914743Y-8506558D01*
X-927320Y-8557106D01*
X-947355Y-8601354D01*
X-974283Y-8637062D01*
X-980687Y-8643200D01*
X-1013798Y-8667577D01*
X-1052084Y-8686771D01*
X-1089997Y-8697867D01*
X-1113978Y-8701394D01*
X-1141670Y-8702908D01*
X-1166901Y-8700074D01*
X-1195201Y-8692619D01*
X-1207013Y-8688538D01*
X-1242092Y-8672273D01*
X-1274455Y-8651747D01*
X-1299257Y-8629882D01*
X-1306684Y-8620808D01*
X-1307232Y-8613513D01*
X-1299257Y-8603459D01*
X-1295622Y-8599658D01*
X-1281005Y-8586044D01*
X-1264038Y-8571782D01*
X-1240728Y-8553296D01*
X-1218273Y-8570423D01*
X-1213332Y-8574027D01*
X-1179322Y-8591417D01*
X-1143431Y-8598831D01*
X-1107967Y-8596672D01*
X-1075235Y-8585349D01*
X-1047541Y-8565264D01*
X-1027192Y-8536825D01*
X-1026424Y-8535244D01*
X-1019469Y-8518391D01*
X-1015301Y-8500822D01*
X-1013284Y-8478618D01*
X-1012784Y-8447860D01*
X-1012823Y-8438915D01*
X-1013651Y-8411334D01*
X-1016075Y-8391228D01*
X-1020785Y-8374631D01*
X-1028468Y-8357574D01*
X-1045104Y-8332155D01*
X-1069968Y-8311800D01*
X-1101789Y-8300986D01*
X-1141761Y-8299096D01*
X-1153017Y-8299829D01*
X-1175578Y-8303086D01*
X-1193529Y-8309754D01*
X-1212527Y-8321636D01*
X-1241336Y-8341942D01*
X-1264342Y-8323697D01*
X-1270083Y-8319039D01*
X-1286847Y-8304426D01*
X-1299316Y-8292195D01*
X-1301160Y-8290144D01*
X-1307440Y-8281479D01*
X-1306071Y-8274261D01*
X-1296551Y-8263254D01*
X-1293813Y-8260425D01*
X-1263014Y-8235751D01*
X-1224930Y-8214886D01*
X-1184236Y-8200443D01*
X-1174168Y-8197973D01*
X-1150509Y-8193847D01*
X-1128430Y-8193690D01*
X-1101129Y-8197238D01*
G37*
G36*
X3010584Y-8447860D02*
G01*
X3010576Y-8451846D01*
X3008389Y-8505644D01*
X3001887Y-8549692D01*
X2990432Y-8586065D01*
X2973383Y-8616840D01*
X2950101Y-8644091D01*
X2934543Y-8658032D01*
X2893530Y-8683863D01*
X2848542Y-8698036D01*
X2813314Y-8700788D01*
X2772745Y-8698121D01*
X2735517Y-8690277D01*
X2709930Y-8679783D01*
X2672903Y-8654732D01*
X2641822Y-8621289D01*
X2619305Y-8581896D01*
X2614959Y-8568802D01*
X2608969Y-8537798D01*
X2605166Y-8499595D01*
X2603555Y-8457443D01*
X2603688Y-8447622D01*
X2704396Y-8447622D01*
X2705009Y-8476827D01*
X2708610Y-8516015D01*
X2715818Y-8545494D01*
X2727071Y-8566791D01*
X2742807Y-8581431D01*
X2742842Y-8581454D01*
X2772699Y-8594496D01*
X2805910Y-8598697D01*
X2838383Y-8594083D01*
X2866031Y-8580678D01*
X2875491Y-8573094D01*
X2888977Y-8558574D01*
X2898170Y-8541180D01*
X2903813Y-8518524D01*
X2906653Y-8488214D01*
X2907434Y-8447860D01*
X2907432Y-8444198D01*
X2907118Y-8411228D01*
X2906024Y-8387807D01*
X2903802Y-8371236D01*
X2900107Y-8358818D01*
X2894593Y-8347856D01*
X2879118Y-8327609D01*
X2853291Y-8308528D01*
X2823772Y-8298446D01*
X2793039Y-8297361D01*
X2763569Y-8305271D01*
X2737838Y-8322171D01*
X2718325Y-8348059D01*
X2712672Y-8360271D01*
X2708343Y-8374273D01*
X2705811Y-8391421D01*
X2704641Y-8414832D01*
X2704396Y-8447622D01*
X2603688Y-8447622D01*
X2604137Y-8414595D01*
X2606916Y-8374300D01*
X2611894Y-8339811D01*
X2619074Y-8314377D01*
X2628503Y-8294878D01*
X2655757Y-8257228D01*
X2690129Y-8227967D01*
X2729824Y-8207456D01*
X2773045Y-8196056D01*
X2817997Y-8194129D01*
X2862884Y-8202034D01*
X2905911Y-8220134D01*
X2945281Y-8248789D01*
X2954752Y-8257975D01*
X2976751Y-8284849D01*
X2992622Y-8315103D01*
X3003076Y-8350908D01*
X3008826Y-8394437D01*
X3010584Y-8447860D01*
G37*
G36*
X411386Y-8447622D02*
G01*
X410888Y-8478596D01*
X407346Y-8521582D01*
X401019Y-8559055D01*
X391937Y-8587669D01*
X368952Y-8625762D01*
X335511Y-8659331D01*
X294831Y-8683832D01*
X248744Y-8697858D01*
X238955Y-8699265D01*
X199030Y-8700441D01*
X158786Y-8695546D01*
X124142Y-8685182D01*
X98385Y-8670797D01*
X66608Y-8644539D01*
X39630Y-8613013D01*
X21189Y-8580035D01*
X17326Y-8569799D01*
X12857Y-8554735D01*
X9882Y-8538039D01*
X8102Y-8516993D01*
X7216Y-8488881D01*
X6924Y-8450986D01*
X6927Y-8447860D01*
X106745Y-8447860D01*
X106952Y-8470778D01*
X108744Y-8505510D01*
X112992Y-8531462D01*
X120436Y-8551017D01*
X131813Y-8566558D01*
X147864Y-8580466D01*
X166824Y-8591316D01*
X199867Y-8598735D01*
X236407Y-8594881D01*
X236645Y-8594820D01*
X262325Y-8585895D01*
X281516Y-8572919D01*
X295038Y-8554248D01*
X303710Y-8528237D01*
X308352Y-8493243D01*
X309783Y-8447622D01*
X309607Y-8418170D01*
X308570Y-8393809D01*
X306222Y-8376081D01*
X302129Y-8361870D01*
X295854Y-8348059D01*
X291791Y-8340788D01*
X270656Y-8316670D01*
X242357Y-8302473D01*
X206229Y-8297823D01*
X205513Y-8297825D01*
X170830Y-8303568D01*
X142112Y-8320289D01*
X119586Y-8347856D01*
X118985Y-8348891D01*
X113655Y-8359874D01*
X110112Y-8372566D01*
X108011Y-8389662D01*
X107004Y-8413861D01*
X106745Y-8447860D01*
X6927Y-8447860D01*
X6939Y-8437509D01*
X8012Y-8392476D01*
X11176Y-8356867D01*
X17068Y-8328289D01*
X26324Y-8304350D01*
X39579Y-8282655D01*
X57471Y-8260813D01*
X89808Y-8231796D01*
X130034Y-8209438D01*
X173285Y-8196922D01*
X217743Y-8193968D01*
X261586Y-8200294D01*
X302998Y-8215621D01*
X340157Y-8239667D01*
X371246Y-8272152D01*
X394445Y-8312796D01*
X396595Y-8318404D01*
X404498Y-8350000D01*
X409494Y-8389460D01*
X411614Y-8433440D01*
X411386Y-8447622D01*
G37*
G36*
X1200722Y-9262486D02*
G01*
X1200604Y-9292999D01*
X1200114Y-9322442D01*
X1199103Y-9344143D01*
X1197385Y-9360095D01*
X1194777Y-9372291D01*
X1191093Y-9382724D01*
X1186149Y-9393388D01*
X1182195Y-9400791D01*
X1158698Y-9432005D01*
X1128343Y-9458135D01*
X1095205Y-9475505D01*
X1089798Y-9477243D01*
X1064846Y-9482683D01*
X1040022Y-9485122D01*
X1028513Y-9484651D01*
X1000922Y-9479859D01*
X972695Y-9471148D01*
X948205Y-9460019D01*
X931829Y-9447975D01*
X927352Y-9443290D01*
X917225Y-9436470D01*
X911726Y-9441086D01*
X910068Y-9457483D01*
X910068Y-9479364D01*
X810043Y-9479364D01*
X810043Y-9232428D01*
X913195Y-9232428D01*
X913196Y-9234233D01*
X914024Y-9276573D01*
X916879Y-9308550D01*
X922463Y-9332164D01*
X931481Y-9349413D01*
X944637Y-9362296D01*
X962635Y-9372811D01*
X982996Y-9380832D01*
X1013773Y-9384449D01*
X1046549Y-9377097D01*
X1052719Y-9374566D01*
X1073569Y-9359740D01*
X1088700Y-9336685D01*
X1098397Y-9304552D01*
X1102944Y-9262486D01*
X1102628Y-9209638D01*
X1100138Y-9174000D01*
X1095555Y-9143902D01*
X1088972Y-9124312D01*
X1078224Y-9108578D01*
X1055335Y-9090411D01*
X1027788Y-9080724D01*
X998338Y-9079486D01*
X969741Y-9086665D01*
X944751Y-9102231D01*
X926125Y-9126152D01*
X925206Y-9127958D01*
X919997Y-9140206D01*
X916524Y-9154052D01*
X914453Y-9172222D01*
X913454Y-9197439D01*
X913195Y-9232428D01*
X810043Y-9232428D01*
X810043Y-8778665D01*
X858492Y-8780491D01*
X906942Y-8782317D01*
X908637Y-8905785D01*
X908732Y-8912201D01*
X909580Y-8949317D01*
X910807Y-8981464D01*
X912305Y-9006758D01*
X913967Y-9023315D01*
X915686Y-9029253D01*
X920460Y-9027273D01*
X929620Y-9018881D01*
X932474Y-9015796D01*
X951595Y-9002342D01*
X977867Y-8990674D01*
X1006917Y-8982443D01*
X1034373Y-8979302D01*
X1043717Y-8979433D01*
X1082895Y-8984481D01*
X1116270Y-8997925D01*
X1147812Y-9021230D01*
X1163726Y-9036443D01*
X1176296Y-9051465D01*
X1185678Y-9067877D01*
X1192329Y-9087528D01*
X1196705Y-9112270D01*
X1199265Y-9143955D01*
X1200466Y-9184432D01*
X1200764Y-9235554D01*
X1200756Y-9253820D01*
X1200722Y-9262486D01*
G37*
G36*
X706034Y-8194672D02*
G01*
X733052Y-8199969D01*
X778806Y-8215908D01*
X814404Y-8239083D01*
X839811Y-8269461D01*
X854994Y-8307007D01*
X859918Y-8351686D01*
X859589Y-8359215D01*
X855491Y-8384819D01*
X848240Y-8407225D01*
X842293Y-8418849D01*
X824563Y-8442793D01*
X800917Y-8461253D01*
X769764Y-8475022D01*
X729509Y-8484892D01*
X678561Y-8491656D01*
X660634Y-8493527D01*
X626289Y-8498525D01*
X602082Y-8504940D01*
X586351Y-8513542D01*
X577435Y-8525105D01*
X573673Y-8540399D01*
X573821Y-8556094D01*
X582321Y-8577300D01*
X601313Y-8592297D01*
X630985Y-8601206D01*
X671522Y-8604148D01*
X673223Y-8604144D01*
X717636Y-8600304D01*
X756468Y-8588264D01*
X794541Y-8566552D01*
X822662Y-8547204D01*
X856908Y-8577239D01*
X858980Y-8579063D01*
X875281Y-8593995D01*
X886828Y-8605578D01*
X891234Y-8611437D01*
X890980Y-8612685D01*
X883841Y-8621242D01*
X868832Y-8633355D01*
X848578Y-8647200D01*
X825705Y-8660956D01*
X802836Y-8672800D01*
X781866Y-8681572D01*
X753345Y-8691252D01*
X728773Y-8697356D01*
X716179Y-8699276D01*
X665867Y-8701589D01*
X617437Y-8695800D01*
X572848Y-8682634D01*
X534057Y-8662812D01*
X503021Y-8637060D01*
X481698Y-8606098D01*
X473237Y-8578604D01*
X470599Y-8542819D01*
X474934Y-8506406D01*
X486076Y-8474383D01*
X487275Y-8472092D01*
X502337Y-8449241D01*
X521404Y-8431351D01*
X546162Y-8417699D01*
X578295Y-8407565D01*
X619489Y-8400225D01*
X671428Y-8394958D01*
X671530Y-8394950D01*
X697059Y-8391876D01*
X720007Y-8387231D01*
X735415Y-8382017D01*
X748646Y-8372077D01*
X758031Y-8354409D01*
X757530Y-8334678D01*
X747407Y-8315755D01*
X727926Y-8300511D01*
X708901Y-8294058D01*
X677701Y-8291109D01*
X642712Y-8293912D01*
X607846Y-8302083D01*
X577016Y-8315241D01*
X542313Y-8334826D01*
X513638Y-8301261D01*
X512762Y-8300233D01*
X498730Y-8283032D01*
X488776Y-8269483D01*
X485006Y-8262442D01*
X485502Y-8260712D01*
X493643Y-8252151D01*
X509678Y-8240807D01*
X530883Y-8228462D01*
X554536Y-8216902D01*
X577332Y-8208958D01*
X610363Y-8201275D01*
X646007Y-8195866D01*
X679489Y-8193432D01*
X706034Y-8194672D01*
G37*
G36*
X2048499Y-9332599D02*
G01*
X2049678Y-9346167D01*
X2044277Y-9380740D01*
X2035922Y-9400757D01*
X2012580Y-9432802D01*
X1979911Y-9458586D01*
X1939545Y-9476616D01*
X1914158Y-9482020D01*
X1879418Y-9484812D01*
X1844401Y-9483875D01*
X1815172Y-9479088D01*
X1813691Y-9478657D01*
X1792317Y-9469380D01*
X1772974Y-9456687D01*
X1754025Y-9440743D01*
X1754025Y-9479364D01*
X1646651Y-9479364D01*
X1648978Y-9307272D01*
X1754025Y-9307272D01*
X1754604Y-9321452D01*
X1759725Y-9349494D01*
X1769335Y-9370439D01*
X1782451Y-9381712D01*
X1785155Y-9382600D01*
X1803169Y-9385827D01*
X1828171Y-9387946D01*
X1855707Y-9388796D01*
X1881328Y-9388214D01*
X1900582Y-9386036D01*
X1908641Y-9383911D01*
X1931465Y-9371711D01*
X1946844Y-9353733D01*
X1953743Y-9332599D01*
X1951127Y-9310929D01*
X1937961Y-9291344D01*
X1931341Y-9285676D01*
X1923387Y-9281213D01*
X1912449Y-9278238D01*
X1896148Y-9276340D01*
X1872103Y-9275111D01*
X1837937Y-9274141D01*
X1754025Y-9272094D01*
X1754025Y-9307272D01*
X1648978Y-9307272D01*
X1649208Y-9290255D01*
X1649247Y-9287355D01*
X1650275Y-9226620D01*
X1651548Y-9177473D01*
X1653113Y-9139040D01*
X1655012Y-9110444D01*
X1657292Y-9090811D01*
X1659998Y-9079265D01*
X1673443Y-9051681D01*
X1698282Y-9022763D01*
X1732901Y-9000477D01*
X1742053Y-8996171D01*
X1759787Y-8989373D01*
X1778670Y-8984986D01*
X1802486Y-8982268D01*
X1835020Y-8980479D01*
X1861432Y-8979870D01*
X1905015Y-8982008D01*
X1940425Y-8989034D01*
X1970091Y-9001543D01*
X1996440Y-9020132D01*
X2007170Y-9029729D01*
X2018461Y-9041123D01*
X2022841Y-9047491D01*
X2022693Y-9048031D01*
X2016611Y-9054955D01*
X2003396Y-9066767D01*
X1985504Y-9081248D01*
X1948166Y-9110244D01*
X1932277Y-9095518D01*
X1923270Y-9088351D01*
X1904153Y-9079342D01*
X1878587Y-9074474D01*
X1843690Y-9073014D01*
X1828294Y-9073657D01*
X1798148Y-9079125D01*
X1774732Y-9089349D01*
X1760780Y-9103331D01*
X1758340Y-9110205D01*
X1755238Y-9128354D01*
X1754025Y-9150065D01*
X1754025Y-9184179D01*
X1846235Y-9186805D01*
X1889004Y-9188565D01*
X1923830Y-9191623D01*
X1950680Y-9196508D01*
X1971863Y-9203814D01*
X1989688Y-9214137D01*
X2006462Y-9228071D01*
X2017949Y-9240966D01*
X2035503Y-9272197D01*
X2046417Y-9308625D01*
X2048499Y-9332599D01*
G37*
G36*
X43982Y-9330890D02*
G01*
X44489Y-9353767D01*
X34104Y-9392519D01*
X13170Y-9426522D01*
X-17546Y-9454309D01*
X-57277Y-9474415D01*
X-57775Y-9474592D01*
X-88050Y-9481670D01*
X-124335Y-9484914D01*
X-160789Y-9484122D01*
X-191572Y-9479088D01*
X-193052Y-9478657D01*
X-214426Y-9469380D01*
X-233770Y-9456687D01*
X-252718Y-9440743D01*
X-252718Y-9479364D01*
X-352743Y-9479364D01*
X-352710Y-9303914D01*
X-252718Y-9303914D01*
X-252708Y-9306370D01*
X-249746Y-9338220D01*
X-241007Y-9360765D01*
X-225727Y-9376041D01*
X-224897Y-9376552D01*
X-209592Y-9382004D01*
X-186737Y-9386400D01*
X-160875Y-9389227D01*
X-136551Y-9389973D01*
X-118310Y-9388129D01*
X-109019Y-9385948D01*
X-91582Y-9382062D01*
X-72430Y-9373436D01*
X-57943Y-9355406D01*
X-52868Y-9330890D01*
X-52994Y-9325813D01*
X-55887Y-9306719D01*
X-63704Y-9292699D01*
X-77942Y-9283037D01*
X-100100Y-9277020D01*
X-131674Y-9273933D01*
X-174163Y-9273063D01*
X-252718Y-9273063D01*
X-252718Y-9303914D01*
X-352710Y-9303914D01*
X-352708Y-9293380D01*
X-352618Y-9258627D01*
X-352087Y-9204609D01*
X-351110Y-9158939D01*
X-349719Y-9122654D01*
X-347948Y-9096792D01*
X-345832Y-9082391D01*
X-344686Y-9078610D01*
X-329895Y-9050853D01*
X-305988Y-9025037D01*
X-275910Y-9003802D01*
X-242603Y-8989788D01*
X-222099Y-8985206D01*
X-182431Y-8980574D01*
X-139894Y-8979642D01*
X-99419Y-8982434D01*
X-65934Y-8988971D01*
X-61323Y-8990500D01*
X-41592Y-8999593D01*
X-20931Y-9012137D01*
X-2395Y-9025921D01*
X10966Y-9038735D01*
X16098Y-9048369D01*
X15993Y-9048840D01*
X10122Y-9055775D01*
X-2957Y-9067545D01*
X-20759Y-9081889D01*
X-26263Y-9086106D01*
X-43425Y-9098615D01*
X-54094Y-9104431D01*
X-60803Y-9104568D01*
X-66083Y-9100041D01*
X-76791Y-9090698D01*
X-101017Y-9079890D01*
X-131142Y-9073970D01*
X-163722Y-9072950D01*
X-195317Y-9076843D01*
X-222483Y-9085661D01*
X-241778Y-9099416D01*
X-245080Y-9103986D01*
X-250906Y-9121354D01*
X-252718Y-9148151D01*
X-252718Y-9184395D01*
X-160508Y-9186639D01*
X-150272Y-9186901D01*
X-114625Y-9188178D01*
X-88330Y-9189992D01*
X-68849Y-9192665D01*
X-53641Y-9196518D01*
X-40166Y-9201873D01*
X-5470Y-9223461D01*
X21796Y-9253661D01*
X38840Y-9290731D01*
X43558Y-9311733D01*
X43982Y-9330890D01*
G37*
G36*
X405161Y-8986764D02*
G01*
X443541Y-8988618D01*
X497073Y-9155724D01*
X499243Y-9162491D01*
X513064Y-9205207D01*
X525670Y-9243542D01*
X536551Y-9275989D01*
X545195Y-9301040D01*
X551092Y-9317185D01*
X553730Y-9322917D01*
X555299Y-9319573D01*
X559835Y-9305741D01*
X566742Y-9282694D01*
X575544Y-9252062D01*
X585767Y-9215475D01*
X596935Y-9174565D01*
X604697Y-9145819D01*
X615638Y-9105316D01*
X625418Y-9069124D01*
X633514Y-9039182D01*
X639400Y-9017430D01*
X642552Y-9005810D01*
X648091Y-8985492D01*
X700935Y-8985492D01*
X710474Y-8985550D01*
X732613Y-8986203D01*
X748008Y-8987426D01*
X753779Y-8989029D01*
X753748Y-8989205D01*
X751472Y-8996929D01*
X745944Y-9014824D01*
X737652Y-9041349D01*
X727086Y-9074962D01*
X714735Y-9114123D01*
X701087Y-9157290D01*
X686631Y-9202923D01*
X671857Y-9249480D01*
X657253Y-9295421D01*
X643308Y-9339204D01*
X630512Y-9379289D01*
X619352Y-9414135D01*
X610319Y-9442200D01*
X603901Y-9461944D01*
X600587Y-9471825D01*
X600417Y-9472237D01*
X593905Y-9476492D01*
X578421Y-9478366D01*
X552274Y-9478076D01*
X506877Y-9476238D01*
X457357Y-9309291D01*
X455537Y-9303166D01*
X442663Y-9260454D01*
X430845Y-9222276D01*
X420569Y-9190128D01*
X412321Y-9165504D01*
X406588Y-9149899D01*
X403855Y-9144806D01*
X403726Y-9144938D01*
X400634Y-9152492D01*
X394564Y-9170325D01*
X386008Y-9196880D01*
X375463Y-9230601D01*
X363420Y-9269932D01*
X350375Y-9313315D01*
X300876Y-9479364D01*
X210728Y-9479364D01*
X170176Y-9352770D01*
X158145Y-9315180D01*
X141415Y-9262832D01*
X124160Y-9208767D01*
X107827Y-9157526D01*
X93867Y-9113649D01*
X93752Y-9113288D01*
X82362Y-9077513D01*
X72164Y-9045618D01*
X63806Y-9019612D01*
X57932Y-9001505D01*
X55190Y-8993306D01*
X55443Y-8990595D01*
X62278Y-8987595D01*
X78403Y-8985977D01*
X105407Y-8985492D01*
X107737Y-8985495D01*
X136858Y-8986390D01*
X154500Y-8988953D01*
X161537Y-8993306D01*
X163478Y-8999707D01*
X168336Y-9016867D01*
X175566Y-9042913D01*
X184700Y-9076149D01*
X195270Y-9114880D01*
X206808Y-9157409D01*
X217133Y-9195260D01*
X227930Y-9234124D01*
X237419Y-9267524D01*
X245121Y-9293806D01*
X250559Y-9311314D01*
X253256Y-9318395D01*
X253566Y-9318400D01*
X257187Y-9311638D01*
X263952Y-9294696D01*
X273342Y-9269018D01*
X284842Y-9236047D01*
X297934Y-9197228D01*
X312103Y-9154002D01*
X366781Y-8984911D01*
X405161Y-8986764D01*
G37*
G36*
X2516713Y-8460623D02*
G01*
X2516713Y-9479364D01*
X2417434Y-9479364D01*
X2415498Y-9312135D01*
X2415145Y-9282512D01*
X2414519Y-9238597D01*
X2413783Y-9204697D01*
X2412805Y-9179222D01*
X2411451Y-9160577D01*
X2409587Y-9147172D01*
X2407080Y-9137412D01*
X2403797Y-9129706D01*
X2399603Y-9122461D01*
X2398992Y-9121494D01*
X2378149Y-9099799D01*
X2350512Y-9085771D01*
X2319521Y-9080062D01*
X2288620Y-9083325D01*
X2261249Y-9096214D01*
X2250982Y-9104294D01*
X2242244Y-9113344D01*
X2235528Y-9124322D01*
X2230571Y-9138738D01*
X2227107Y-9158103D01*
X2224873Y-9183927D01*
X2223603Y-9217721D01*
X2223034Y-9260995D01*
X2222900Y-9315261D01*
X2222891Y-9479364D01*
X2122354Y-9479364D01*
X2124173Y-9287129D01*
X2124271Y-9276827D01*
X2124871Y-9221085D01*
X2125686Y-9176100D01*
X2126998Y-9140373D01*
X2129088Y-9112404D01*
X2132240Y-9090694D01*
X2136735Y-9073744D01*
X2142855Y-9060054D01*
X2150884Y-9048126D01*
X2161103Y-9036460D01*
X2173794Y-9023557D01*
X2188956Y-9010508D01*
X2224671Y-8990927D01*
X2264792Y-8980566D01*
X2306391Y-8979657D01*
X2346538Y-8988430D01*
X2382305Y-9007116D01*
X2384334Y-9008586D01*
X2398775Y-9018746D01*
X2408874Y-9025376D01*
X2409701Y-9025602D01*
X2411820Y-9022698D01*
X2413492Y-9013631D01*
X2414761Y-8997346D01*
X2415671Y-8972785D01*
X2416266Y-8938893D01*
X2416590Y-8894612D01*
X2416688Y-8838886D01*
X2416688Y-8647781D01*
X2383868Y-8669443D01*
X2368662Y-8678433D01*
X2343440Y-8690327D01*
X2321229Y-8697693D01*
X2290194Y-8701451D01*
X2248136Y-8696887D01*
X2209242Y-8681972D01*
X2175504Y-8657870D01*
X2148914Y-8625746D01*
X2131464Y-8586763D01*
X2130652Y-8583742D01*
X2126495Y-8559146D01*
X2123559Y-8525661D01*
X2121844Y-8486333D01*
X2121429Y-8450986D01*
X2226016Y-8450986D01*
X2226498Y-8489380D01*
X2228482Y-8521556D01*
X2232532Y-8545193D01*
X2239210Y-8562347D01*
X2249076Y-8575073D01*
X2262691Y-8585429D01*
X2279756Y-8593480D01*
X2309223Y-8599127D01*
X2339651Y-8597293D01*
X2367119Y-8588372D01*
X2387704Y-8572764D01*
X2393699Y-8564379D01*
X2405967Y-8536046D01*
X2413757Y-8500414D01*
X2417088Y-8460623D01*
X2415979Y-8419815D01*
X2410449Y-8381130D01*
X2400516Y-8347709D01*
X2386200Y-8322694D01*
X2377345Y-8312959D01*
X2366478Y-8305372D01*
X2351875Y-8301336D01*
X2329153Y-8299032D01*
X2306858Y-8298596D01*
X2276395Y-8304064D01*
X2253702Y-8317914D01*
X2237286Y-8340828D01*
X2232575Y-8352489D01*
X2229331Y-8366916D01*
X2227323Y-8386514D01*
X2226301Y-8413724D01*
X2226016Y-8450986D01*
X2121429Y-8450986D01*
X2121349Y-8444209D01*
X2122072Y-8402334D01*
X2124014Y-8363754D01*
X2127173Y-8331517D01*
X2131548Y-8308668D01*
X2138244Y-8289939D01*
X2159648Y-8254125D01*
X2188730Y-8226222D01*
X2223672Y-8206821D01*
X2262654Y-8196514D01*
X2303855Y-8195892D01*
X2345457Y-8205547D01*
X2385638Y-8226070D01*
X2416688Y-8246965D01*
X2416688Y-8197798D01*
X2516713Y-8197798D01*
X2516713Y-8460623D01*
G37*
G36*
X664369Y-4484388D02*
G01*
X720570Y-4484442D01*
X766038Y-4484603D01*
X801952Y-4484928D01*
X829490Y-4485476D01*
X849834Y-4486302D01*
X864163Y-4487464D01*
X873655Y-4489019D01*
X879491Y-4491024D01*
X882851Y-4493535D01*
X884913Y-4496610D01*
X885182Y-4497217D01*
X888094Y-4507783D01*
X892909Y-4529002D01*
X899341Y-4559450D01*
X907099Y-4597706D01*
X915894Y-4642349D01*
X925438Y-4691957D01*
X935441Y-4745108D01*
X937182Y-4754436D01*
X947164Y-4806856D01*
X956712Y-4855320D01*
X965530Y-4898436D01*
X973320Y-4934812D01*
X979787Y-4963058D01*
X984633Y-4981782D01*
X987563Y-4989591D01*
X989658Y-4991118D01*
X1002227Y-4997716D01*
X1023847Y-5007748D01*
X1052660Y-5020451D01*
X1086810Y-5035066D01*
X1124439Y-5050832D01*
X1163689Y-5066987D01*
X1202702Y-5082772D01*
X1239621Y-5097425D01*
X1272588Y-5110186D01*
X1299746Y-5120293D01*
X1319236Y-5126986D01*
X1329203Y-5129505D01*
X1332560Y-5128922D01*
X1345228Y-5123311D01*
X1365948Y-5111554D01*
X1395122Y-5093396D01*
X1433152Y-5068582D01*
X1480442Y-5036858D01*
X1537394Y-4997970D01*
X1554748Y-4986042D01*
X1604170Y-4952091D01*
X1644576Y-4924409D01*
X1676953Y-4902381D01*
X1702288Y-4885393D01*
X1721566Y-4872831D01*
X1735776Y-4864079D01*
X1745904Y-4858523D01*
X1752935Y-4855549D01*
X1757857Y-4854541D01*
X1761656Y-4854885D01*
X1765318Y-4855967D01*
X1770804Y-4859512D01*
X1784480Y-4871125D01*
X1804484Y-4889557D01*
X1829641Y-4913611D01*
X1858776Y-4942093D01*
X1890713Y-4973804D01*
X1924278Y-5007550D01*
X1958294Y-5042134D01*
X1991588Y-5076359D01*
X2022984Y-5109030D01*
X2051307Y-5138950D01*
X2075381Y-5164924D01*
X2094032Y-5185754D01*
X2106084Y-5200244D01*
X2110363Y-5207199D01*
X2110303Y-5207667D01*
X2105995Y-5216787D01*
X2095427Y-5234805D01*
X2079378Y-5260510D01*
X2058628Y-5292693D01*
X2033955Y-5330143D01*
X2006137Y-5371652D01*
X1975955Y-5416009D01*
X1973078Y-5420208D01*
X1933190Y-5478896D01*
X1900392Y-5528116D01*
X1874756Y-5567756D01*
X1856355Y-5597699D01*
X1845261Y-5617831D01*
X1841547Y-5628039D01*
X1842603Y-5634070D01*
X1848022Y-5651357D01*
X1857352Y-5676753D01*
X1869817Y-5708465D01*
X1884640Y-5744699D01*
X1901045Y-5783663D01*
X1918256Y-5823564D01*
X1935496Y-5862609D01*
X1951988Y-5899004D01*
X1966956Y-5930958D01*
X1979623Y-5956676D01*
X1989213Y-5974366D01*
X1994949Y-5982235D01*
X2002881Y-5985017D01*
X2021930Y-5989846D01*
X2050433Y-5996271D01*
X2086910Y-6003982D01*
X2129880Y-6012665D01*
X2177864Y-6022008D01*
X2229382Y-6031699D01*
X2277241Y-6040626D01*
X2325653Y-6049820D01*
X2369213Y-6058264D01*
X2406432Y-6065660D01*
X2435819Y-6071713D01*
X2455884Y-6076125D01*
X2465138Y-6078600D01*
X2479204Y-6084510D01*
X2479204Y-6334037D01*
X2479203Y-6342380D01*
X2479163Y-6403530D01*
X2479021Y-6453474D01*
X2478728Y-6493368D01*
X2478234Y-6524366D01*
X2477489Y-6547623D01*
X2476444Y-6564295D01*
X2475048Y-6575537D01*
X2473253Y-6582504D01*
X2471008Y-6586351D01*
X2468264Y-6588233D01*
X2459961Y-6590385D01*
X2440765Y-6594547D01*
X2412157Y-6600416D01*
X2375589Y-6607702D01*
X2332512Y-6616116D01*
X2284377Y-6625369D01*
X2232634Y-6635173D01*
X2203245Y-6640726D01*
X2145864Y-6651767D01*
X2099477Y-6661034D01*
X2063161Y-6668736D01*
X2035993Y-6675085D01*
X2017050Y-6680289D01*
X2005409Y-6684560D01*
X2000147Y-6688108D01*
X1999256Y-6689600D01*
X1993683Y-6701358D01*
X1984362Y-6722708D01*
X1971938Y-6752110D01*
X1957058Y-6788027D01*
X1940365Y-6828920D01*
X1922505Y-6873250D01*
X1906714Y-6913008D01*
X1887031Y-6963836D01*
X1872214Y-7003990D01*
X1862111Y-7033911D01*
X1856565Y-7054039D01*
X1855424Y-7064813D01*
X1858652Y-7072173D01*
X1868347Y-7089078D01*
X1883649Y-7113802D01*
X1903726Y-7145050D01*
X1927744Y-7181529D01*
X1954871Y-7221944D01*
X1984274Y-7265001D01*
X2010617Y-7303495D01*
X2037734Y-7343662D01*
X2061729Y-7379781D01*
X2081796Y-7410609D01*
X2097129Y-7434907D01*
X2106920Y-7451434D01*
X2110363Y-7458948D01*
X2110066Y-7459879D01*
X2103614Y-7468668D01*
X2089451Y-7484950D01*
X2068532Y-7507715D01*
X2041814Y-7535948D01*
X2010250Y-7568639D01*
X1974795Y-7604775D01*
X1936405Y-7643343D01*
X1908224Y-7671412D01*
X1867831Y-7711395D01*
X1834910Y-7743566D01*
X1808679Y-7768638D01*
X1788353Y-7787324D01*
X1773148Y-7800336D01*
X1762280Y-7808387D01*
X1754966Y-7812190D01*
X1750422Y-7812458D01*
X1744536Y-7809169D01*
X1729082Y-7799400D01*
X1705667Y-7784073D01*
X1675557Y-7764033D01*
X1640020Y-7740125D01*
X1600323Y-7713193D01*
X1557733Y-7684082D01*
X1521698Y-7659526D01*
X1481497Y-7632542D01*
X1445239Y-7608644D01*
X1414187Y-7588642D01*
X1389604Y-7573350D01*
X1372754Y-7563579D01*
X1364900Y-7560141D01*
X1361969Y-7560687D01*
X1348341Y-7565812D01*
X1327033Y-7575468D01*
X1300324Y-7588594D01*
X1270496Y-7604128D01*
X1257227Y-7611123D01*
X1228606Y-7625502D01*
X1204150Y-7636838D01*
X1186112Y-7644117D01*
X1176744Y-7646325D01*
X1174848Y-7645138D01*
X1170288Y-7638986D01*
X1163617Y-7627039D01*
X1154550Y-7608651D01*
X1142803Y-7583179D01*
X1128093Y-7549977D01*
X1110134Y-7508400D01*
X1088643Y-7457804D01*
X1063336Y-7397543D01*
X1033929Y-7326973D01*
X1000138Y-7245449D01*
X982557Y-7202880D01*
X955740Y-7137673D01*
X930624Y-7076273D01*
X907597Y-7019647D01*
X887047Y-6968760D01*
X869363Y-6924580D01*
X854933Y-6888075D01*
X844145Y-6860210D01*
X837388Y-6841954D01*
X835049Y-6834273D01*
X835602Y-6831090D01*
X844234Y-6818750D01*
X861618Y-6805067D01*
X865212Y-6802721D01*
X884778Y-6789425D01*
X908886Y-6772478D01*
X933140Y-6754960D01*
X970171Y-6725131D01*
X1025147Y-6668696D01*
X1070472Y-6605520D01*
X1105672Y-6536825D01*
X1130274Y-6463831D01*
X1143806Y-6387763D01*
X1145795Y-6309841D01*
X1135767Y-6231288D01*
X1131093Y-6210870D01*
X1106475Y-6137745D01*
X1071150Y-6069523D01*
X1026131Y-6007286D01*
X972433Y-5952119D01*
X911070Y-5905104D01*
X843057Y-5867327D01*
X769408Y-5839870D01*
X749525Y-5834961D01*
X700764Y-5827619D01*
X646556Y-5824439D01*
X591210Y-5825421D01*
X539035Y-5830565D01*
X494340Y-5839870D01*
X448361Y-5855173D01*
X385513Y-5884533D01*
X327811Y-5922993D01*
X272411Y-5972248D01*
X264356Y-5980386D01*
X227607Y-6020485D01*
X198888Y-6058186D01*
X175897Y-6096811D01*
X156331Y-6139684D01*
X134609Y-6205314D01*
X120542Y-6282516D01*
X118158Y-6359636D01*
X127126Y-6435501D01*
X147114Y-6508939D01*
X177787Y-6578777D01*
X218816Y-6643842D01*
X269867Y-6702961D01*
X330608Y-6754960D01*
X336316Y-6759131D01*
X360940Y-6776793D01*
X384344Y-6793132D01*
X402130Y-6805067D01*
X408343Y-6809321D01*
X423241Y-6822847D01*
X428699Y-6834273D01*
X427763Y-6837824D01*
X422597Y-6852276D01*
X413257Y-6876694D01*
X400131Y-6910111D01*
X383607Y-6951561D01*
X364073Y-7000076D01*
X341919Y-7054689D01*
X317531Y-7114434D01*
X291299Y-7178343D01*
X263610Y-7245449D01*
X242065Y-7297472D01*
X211033Y-7372107D01*
X184210Y-7436190D01*
X161309Y-7490365D01*
X142049Y-7535276D01*
X126143Y-7571569D01*
X113309Y-7599888D01*
X103262Y-7620879D01*
X95719Y-7635185D01*
X90394Y-7643452D01*
X87004Y-7646325D01*
X84113Y-7646047D01*
X70671Y-7641494D01*
X49546Y-7632313D01*
X22989Y-7619520D01*
X-6747Y-7604128D01*
X-19814Y-7597219D01*
X-48579Y-7582591D01*
X-73245Y-7570827D01*
X-91529Y-7562990D01*
X-101152Y-7560141D01*
X-107149Y-7562601D01*
X-122673Y-7571434D01*
X-146128Y-7585915D01*
X-176250Y-7605232D01*
X-211776Y-7628574D01*
X-251442Y-7655128D01*
X-293985Y-7684082D01*
X-329708Y-7708514D01*
X-369970Y-7735865D01*
X-406281Y-7760330D01*
X-437375Y-7781066D01*
X-461983Y-7797229D01*
X-478838Y-7807975D01*
X-486673Y-7812458D01*
X-489115Y-7812681D01*
X-495229Y-7810376D01*
X-504583Y-7804106D01*
X-517962Y-7793161D01*
X-536149Y-7776827D01*
X-559928Y-7754390D01*
X-590083Y-7725140D01*
X-627398Y-7688362D01*
X-672656Y-7643343D01*
X-682840Y-7633165D01*
X-720561Y-7595130D01*
X-755098Y-7559790D01*
X-785498Y-7528158D01*
X-810804Y-7501246D01*
X-830062Y-7480065D01*
X-842317Y-7465628D01*
X-846615Y-7458948D01*
X-843828Y-7452635D01*
X-834648Y-7436972D01*
X-819844Y-7413411D01*
X-800223Y-7383192D01*
X-776592Y-7347557D01*
X-749757Y-7307746D01*
X-720526Y-7265001D01*
X-694704Y-7227226D01*
X-667245Y-7186409D01*
X-642791Y-7149366D01*
X-622175Y-7117391D01*
X-606228Y-7091777D01*
X-595784Y-7073820D01*
X-591675Y-7064813D01*
X-591947Y-7058701D01*
X-595988Y-7041780D01*
X-604535Y-7015215D01*
X-617743Y-6978565D01*
X-635766Y-6931390D01*
X-658757Y-6873250D01*
X-664600Y-6858684D01*
X-682154Y-6815294D01*
X-698333Y-6775836D01*
X-712493Y-6741850D01*
X-723987Y-6714875D01*
X-732171Y-6696448D01*
X-736399Y-6688108D01*
X-738017Y-6686601D01*
X-746011Y-6682757D01*
X-760796Y-6678095D01*
X-783294Y-6672406D01*
X-814429Y-6665480D01*
X-855124Y-6657106D01*
X-906302Y-6647073D01*
X-968886Y-6635173D01*
X-1019964Y-6625496D01*
X-1068156Y-6616233D01*
X-1111310Y-6607806D01*
X-1147973Y-6600504D01*
X-1176696Y-6594615D01*
X-1196027Y-6590428D01*
X-1204515Y-6588233D01*
X-1204881Y-6588069D01*
X-1207561Y-6586007D01*
X-1209748Y-6581839D01*
X-1211492Y-6574409D01*
X-1212842Y-6562563D01*
X-1213848Y-6545144D01*
X-1214559Y-6520997D01*
X-1215026Y-6488969D01*
X-1215298Y-6447903D01*
X-1215424Y-6396644D01*
X-1215455Y-6334037D01*
X-1215455Y-6084510D01*
X-1201389Y-6078600D01*
X-1193209Y-6076378D01*
X-1173892Y-6072099D01*
X-1145144Y-6066158D01*
X-1108453Y-6058851D01*
X-1065311Y-6050474D01*
X-1017208Y-6041325D01*
X-965633Y-6031699D01*
X-917676Y-6022689D01*
X-869392Y-6013311D01*
X-826017Y-6004570D01*
X-789031Y-5996780D01*
X-759912Y-5990253D01*
X-740142Y-5985301D01*
X-731200Y-5982235D01*
X-727960Y-5978343D01*
X-719636Y-5963900D01*
X-707962Y-5940799D01*
X-693714Y-5910833D01*
X-677669Y-5875794D01*
X-660604Y-5837476D01*
X-643294Y-5797672D01*
X-626517Y-5758174D01*
X-611049Y-5720776D01*
X-597667Y-5687271D01*
X-587147Y-5659451D01*
X-580265Y-5639109D01*
X-577798Y-5628039D01*
X-577815Y-5627674D01*
X-582018Y-5616809D01*
X-593595Y-5596026D01*
X-612476Y-5565440D01*
X-638586Y-5525165D01*
X-671854Y-5475317D01*
X-712207Y-5416009D01*
X-716227Y-5410138D01*
X-746147Y-5366082D01*
X-773600Y-5325031D01*
X-797809Y-5288195D01*
X-817993Y-5256784D01*
X-833375Y-5232008D01*
X-843175Y-5215076D01*
X-846615Y-5207199D01*
X-844040Y-5202539D01*
X-833659Y-5189664D01*
X-816411Y-5170176D01*
X-793472Y-5145271D01*
X-766015Y-5116147D01*
X-735218Y-5083999D01*
X-702254Y-5050023D01*
X-668298Y-5015415D01*
X-634527Y-4981373D01*
X-602115Y-4949092D01*
X-572237Y-4919767D01*
X-546068Y-4894596D01*
X-524784Y-4874775D01*
X-509560Y-4861500D01*
X-501570Y-4855967D01*
X-500120Y-4855499D01*
X-496639Y-4854597D01*
X-492709Y-4854616D01*
X-487342Y-4856169D01*
X-479552Y-4859870D01*
X-468353Y-4866336D01*
X-452759Y-4876181D01*
X-431782Y-4890019D01*
X-404437Y-4908465D01*
X-369738Y-4932134D01*
X-326697Y-4961641D01*
X-274329Y-4997601D01*
X-244103Y-5018294D01*
X-192064Y-5053517D01*
X-149477Y-5081719D01*
X-115931Y-5103158D01*
X-91018Y-5118093D01*
X-74327Y-5126783D01*
X-65449Y-5129485D01*
X-62546Y-5128981D01*
X-48374Y-5124611D01*
X-25463Y-5116387D01*
X4331Y-5105071D01*
X39154Y-5091422D01*
X77152Y-5076200D01*
X116470Y-5060166D01*
X155254Y-5044079D01*
X191648Y-5028700D01*
X223798Y-5014788D01*
X249851Y-5003103D01*
X267950Y-4994406D01*
X276241Y-4989457D01*
X276593Y-4988946D01*
X279835Y-4979161D01*
X284950Y-4958705D01*
X291645Y-4928968D01*
X299621Y-4891339D01*
X308584Y-4847209D01*
X318237Y-4797967D01*
X328285Y-4745004D01*
X329932Y-4736196D01*
X339905Y-4683520D01*
X349367Y-4634621D01*
X358029Y-4590921D01*
X365602Y-4553839D01*
X371796Y-4524795D01*
X376322Y-4505210D01*
X378892Y-4496505D01*
X379765Y-4495010D01*
X382314Y-4492228D01*
X386754Y-4489980D01*
X394266Y-4488207D01*
X406028Y-4486854D01*
X423219Y-4485864D01*
X447018Y-4485181D01*
X478604Y-4484748D01*
X519156Y-4484508D01*
X569853Y-4484406D01*
X631874Y-4484385D01*
X664369Y-4484388D01*
G37*
M02*
