G04 #@! TF.GenerationSoftware,KiCad,Pcbnew,7.0.1*
G04 #@! TF.CreationDate,2023-04-30T12:57:05-04:00*
G04 #@! TF.ProjectId,cord reel detent ring,636f7264-2072-4656-956c-20646574656e,rev?*
G04 #@! TF.SameCoordinates,Original*
G04 #@! TF.FileFunction,Copper,L2,Bot*
G04 #@! TF.FilePolarity,Positive*
%FSLAX46Y46*%
G04 Gerber Fmt 4.6, Leading zero omitted, Abs format (unit mm)*
G04 Created by KiCad (PCBNEW 7.0.1) date 2023-04-30 12:57:05*
%MOMM*%
%LPD*%
G01*
G04 APERTURE LIST*
G04 #@! TA.AperFunction,ComponentPad*
%ADD10R,1.700000X1.700000*%
G04 #@! TD*
G04 APERTURE END LIST*
D10*
X-3175000Y-6985000D03*
X3810000Y12065000D03*
X10550000Y-270000D03*
X-3175000Y12065000D03*
X-10390000Y-310000D03*
G04 #@! TA.AperFunction,Conductor*
G36*
X-3239302Y16600895D02*
G01*
X-3204748Y16563561D01*
X-2178936Y14852824D01*
X-1472584Y13674847D01*
X-1466873Y13657786D01*
X-1458327Y13650879D01*
X-1454031Y13651387D01*
X-1338011Y13661349D01*
X-1337499Y13661392D01*
X-843027Y13701785D01*
X-838406Y13702076D01*
X-585691Y13713246D01*
X-584149Y13713305D01*
X-210462Y13725164D01*
X-206862Y13725226D01*
X65704Y13725958D01*
X68276Y13725938D01*
X427381Y13719453D01*
X429952Y13719380D01*
X702303Y13708807D01*
X705899Y13708615D01*
X1078900Y13683272D01*
X1080439Y13683158D01*
X1332604Y13662869D01*
X1337211Y13662411D01*
X1829900Y13604190D01*
X1830409Y13604129D01*
X1948666Y13589658D01*
X1950415Y13589425D01*
X1956088Y13593674D01*
X1961473Y13609720D01*
X1973219Y13630967D01*
X3554353Y16491207D01*
X3589617Y16531262D01*
X3638450Y16552787D01*
X3691807Y16551793D01*
X4239532Y16420368D01*
X4242868Y16419519D01*
X4480532Y16355466D01*
X4482523Y16354912D01*
X4905471Y16233328D01*
X4907450Y16232741D01*
X5142828Y16160813D01*
X5146107Y16159761D01*
X5684336Y15978799D01*
X5685035Y15978561D01*
X5685665Y15978345D01*
X5729425Y15952284D01*
X5759017Y15910831D01*
X5769449Y15860979D01*
X5767576Y12507941D01*
X5763700Y12490379D01*
X5767451Y12480145D01*
X5771147Y12478471D01*
X5848464Y12440628D01*
X5849083Y12440323D01*
X6380632Y12176479D01*
X6384913Y12174249D01*
X6611188Y12050730D01*
X6612996Y12049723D01*
X6994476Y11833141D01*
X6997451Y11831397D01*
X7234574Y11687909D01*
X7237500Y11686082D01*
X7606327Y11448638D01*
X7608058Y11447504D01*
X7822492Y11304338D01*
X7826454Y11301579D01*
X8306847Y10953069D01*
X8307404Y10952663D01*
X8377191Y10901440D01*
X8382127Y10897622D01*
X8383144Y10896792D01*
X8388606Y10898486D01*
X8405970Y10912911D01*
X8440084Y10930189D01*
X8444532Y10934465D01*
X11358160Y12516277D01*
X11407398Y12530903D01*
X11458339Y12524321D01*
X11502243Y12497660D01*
X11506662Y12493507D01*
X11507117Y12493077D01*
X11882594Y12136615D01*
X11884901Y12134367D01*
X12052465Y11966802D01*
X12053820Y11965425D01*
X12335273Y11675058D01*
X12336607Y11673660D01*
X12498916Y11500904D01*
X12501091Y11498528D01*
X12845497Y11112327D01*
X12845918Y11111852D01*
X12848813Y11108572D01*
X12874336Y11063068D01*
X12878883Y11011094D01*
X12861648Y10961850D01*
X11119983Y8112298D01*
X11108120Y8099442D01*
X11106776Y8090973D01*
X11107893Y8089400D01*
X11154028Y8022739D01*
X11154451Y8022122D01*
X11527093Y7476684D01*
X11529957Y7472296D01*
X11674109Y7240883D01*
X11675279Y7238967D01*
X11923512Y6823904D01*
X11925384Y6820663D01*
X12068952Y6563281D01*
X12070726Y6559985D01*
X12293465Y6130702D01*
X12294481Y6128700D01*
X12415635Y5884482D01*
X12417864Y5879740D01*
X12686156Y5276140D01*
X12686457Y5275456D01*
X12718502Y5202175D01*
X12719657Y5199375D01*
X12728397Y5195710D01*
X12745815Y5198916D01*
X16106143Y5123129D01*
X16156345Y5111265D01*
X16197375Y5079999D01*
X16222132Y5034743D01*
X16224387Y5027215D01*
X16224568Y5026604D01*
X16366179Y4544867D01*
X16367031Y4541829D01*
X16427401Y4315314D01*
X16427874Y4313481D01*
X16523384Y3931781D01*
X16523830Y3929941D01*
X16577256Y3701685D01*
X16577936Y3698604D01*
X16679846Y3207176D01*
X16679973Y3206555D01*
X16681627Y3198369D01*
X16681126Y3146893D01*
X16659763Y3100055D01*
X16621220Y3065930D01*
X13703426Y1412387D01*
X13686488Y1406984D01*
X13680401Y1399520D01*
X13680401Y1399519D01*
X13680347Y1399453D01*
X13680662Y1396328D01*
X13680739Y1395359D01*
X13687079Y1314622D01*
X13687133Y1313896D01*
X13733458Y675942D01*
X13733723Y670841D01*
X13742109Y402995D01*
X13742158Y400807D01*
X13748564Y-68626D01*
X13748561Y-72274D01*
X13743997Y-361509D01*
X13743885Y-365155D01*
X13722673Y-834161D01*
X13722555Y-836348D01*
X13705721Y-1103802D01*
X13705295Y-1108891D01*
X13638879Y-1744939D01*
X13638802Y-1745663D01*
X13629762Y-1827579D01*
X13629397Y-1830379D01*
X13635146Y-1837879D01*
X13651892Y-1843731D01*
X14517210Y-2363449D01*
X16491403Y-3549166D01*
X16529253Y-3584515D01*
X16549363Y-3632240D01*
X16548226Y-3684017D01*
X16538297Y-3725982D01*
X16538191Y-3726430D01*
X16409479Y-4261555D01*
X16408438Y-4265582D01*
X16333486Y-4536844D01*
X16333110Y-4538178D01*
X16218078Y-4937074D01*
X16217141Y-4940170D01*
X16125584Y-5229125D01*
X16124866Y-5231320D01*
X15997329Y-5609231D01*
X15996570Y-5611413D01*
X15894308Y-5896773D01*
X15893177Y-5899804D01*
X15742989Y-6286798D01*
X15742480Y-6288087D01*
X15637718Y-6549335D01*
X15636106Y-6553168D01*
X15416639Y-7051412D01*
X15372346Y-7104331D01*
X15306626Y-7125379D01*
X15239832Y-7108036D01*
X9808458Y-3881669D01*
X9792419Y-3868333D01*
X9782470Y-3864395D01*
X9773721Y-3860092D01*
X9771693Y-3860967D01*
X9768500Y-3867482D01*
X9766115Y-3875884D01*
X9524727Y-4436969D01*
X9521581Y-4443716D01*
X9326345Y-4831592D01*
X9326217Y-4831847D01*
X9237420Y-5007253D01*
X9234004Y-5013543D01*
X9037939Y-5350988D01*
X9037698Y-5351400D01*
X8915881Y-5559212D01*
X8912191Y-5565120D01*
X8706731Y-5874389D01*
X8706360Y-5874945D01*
X8561418Y-6090590D01*
X8557486Y-6096108D01*
X8340019Y-6384305D01*
X8339499Y-6384989D01*
X8175351Y-6599417D01*
X8171212Y-6604537D01*
X7941013Y-6874284D01*
X7940327Y-6875080D01*
X7759092Y-7083844D01*
X7754778Y-7088562D01*
X7512026Y-7340669D01*
X7511161Y-7341559D01*
X7314164Y-7542092D01*
X7309707Y-7546407D01*
X7054624Y-7781321D01*
X7053566Y-7782284D01*
X6842264Y-7972419D01*
X6837698Y-7976331D01*
X6570915Y-8193941D01*
X6569651Y-8194959D01*
X6345090Y-8373286D01*
X6340448Y-8376798D01*
X6062618Y-8576907D01*
X6061139Y-8577956D01*
X5824499Y-8743196D01*
X5819810Y-8746314D01*
X5531742Y-8928590D01*
X5530040Y-8929648D01*
X5282436Y-9080773D01*
X5277731Y-9083505D01*
X4980212Y-9247634D01*
X4978281Y-9248677D01*
X4720897Y-9384780D01*
X4716207Y-9387134D01*
X4410200Y-9532727D01*
X4408035Y-9533732D01*
X4141917Y-9654123D01*
X4137267Y-9656113D01*
X3823831Y-9782776D01*
X3821432Y-9783717D01*
X3547692Y-9887775D01*
X3543109Y-9889415D01*
X3223195Y-9996858D01*
X3220562Y-9997710D01*
X2940398Y-10084894D01*
X2935907Y-10086199D01*
X2610529Y-10174144D01*
X2607664Y-10174881D01*
X2322285Y-10244753D01*
X2317909Y-10245741D01*
X1988244Y-10313920D01*
X1985153Y-10314519D01*
X1695613Y-10366771D01*
X1691374Y-10367460D01*
X1358505Y-10415695D01*
X1355193Y-10416130D01*
X1062728Y-10450496D01*
X1058644Y-10450907D01*
X723649Y-10479068D01*
X720127Y-10479314D01*
X426013Y-10495622D01*
X422103Y-10495777D01*
X86056Y-10503787D01*
X82335Y-10503820D01*
X-212252Y-10501999D01*
X-215974Y-10501920D01*
X-551911Y-10489753D01*
X-555819Y-10489549D01*
X-849673Y-10469607D01*
X-853193Y-10469318D01*
X-1187864Y-10437009D01*
X-1191941Y-10436547D01*
X-1483895Y-10398576D01*
X-1487202Y-10398101D01*
X-1819485Y-10345746D01*
X-1823714Y-10345004D01*
X-2112588Y-10289175D01*
X-2115673Y-10288538D01*
X-2444457Y-10216288D01*
X-2448820Y-10215246D01*
X-2733363Y-10141836D01*
X-2736218Y-10141063D01*
X-3060418Y-10049119D01*
X-3064892Y-10047759D01*
X-3343973Y-9957111D01*
X-3346596Y-9956226D01*
X-3665172Y-9844829D01*
X-3669734Y-9843133D01*
X-3942148Y-9735703D01*
X-3944535Y-9734733D01*
X-4256396Y-9604195D01*
X-4261021Y-9602147D01*
X-4525643Y-9478469D01*
X-4527795Y-9477438D01*
X-4831943Y-9328089D01*
X-4836605Y-9325676D01*
X-5092335Y-9186372D01*
X-5094253Y-9185305D01*
X-5389670Y-9017535D01*
X-5394340Y-9014746D01*
X-5640070Y-8860563D01*
X-5641759Y-8859484D01*
X-5927558Y-8673654D01*
X-5932208Y-8670478D01*
X-6166739Y-8502357D01*
X-6168205Y-8501290D01*
X-6443595Y-8297718D01*
X-6448194Y-8294148D01*
X-6670454Y-8113119D01*
X-6671705Y-8112087D01*
X-6935832Y-7891148D01*
X-6940348Y-7887180D01*
X-7149334Y-7694399D01*
X-7150381Y-7693421D01*
X-7402498Y-7455405D01*
X-7406900Y-7451036D01*
X-7601368Y-7248118D01*
X-7602223Y-7247218D01*
X-7613700Y-7235000D01*
X-4525000Y-7235000D01*
X-4525000Y-7882824D01*
X-4518597Y-7942375D01*
X-4468352Y-8077089D01*
X-4382188Y-8192188D01*
X-4267089Y-8278352D01*
X-4132375Y-8328597D01*
X-4072824Y-8335000D01*
X-3425000Y-8335000D01*
X-3425000Y-7235000D01*
X-2925000Y-7235000D01*
X-2925000Y-8335000D01*
X-2277176Y-8335000D01*
X-2217624Y-8328597D01*
X-2082910Y-8278352D01*
X-1967811Y-8192188D01*
X-1881647Y-8077089D01*
X-1831402Y-7942375D01*
X-1825000Y-7882824D01*
X-1825000Y-7235000D01*
X-2925000Y-7235000D01*
X-3425000Y-7235000D01*
X-4525000Y-7235000D01*
X-7613700Y-7235000D01*
X-7841858Y-6992107D01*
X-7846114Y-6987335D01*
X-8024817Y-6776269D01*
X-8025492Y-6775465D01*
X-8059168Y-6735000D01*
X-4525000Y-6735000D01*
X-3425000Y-6735000D01*
X-3425000Y-5635000D01*
X-2925000Y-5635000D01*
X-2925000Y-6735000D01*
X-1825000Y-6735000D01*
X-1825000Y-6087176D01*
X-1831402Y-6027624D01*
X-1881647Y-5892910D01*
X-1967811Y-5777811D01*
X-2082910Y-5691647D01*
X-2217624Y-5641402D01*
X-2277176Y-5635000D01*
X-2925000Y-5635000D01*
X-3425000Y-5635000D01*
X-4072824Y-5635000D01*
X-4132375Y-5641402D01*
X-4267089Y-5691647D01*
X-4382188Y-5777811D01*
X-4468352Y-5892910D01*
X-4518597Y-6027624D01*
X-4525000Y-6087176D01*
X-4525000Y-6735000D01*
X-8059168Y-6735000D01*
X-8252282Y-6502958D01*
X-8256358Y-6497787D01*
X-8417810Y-6281385D01*
X-8418321Y-6280695D01*
X-8632240Y-5989786D01*
X-8636104Y-5984219D01*
X-8778246Y-5766982D01*
X-8778610Y-5766423D01*
X-8980354Y-5454444D01*
X-8983971Y-5448489D01*
X-9103189Y-5239218D01*
X-9103424Y-5238804D01*
X-9295302Y-4898959D01*
X-9298640Y-4892627D01*
X-9385505Y-4715639D01*
X-9385631Y-4715382D01*
X-9575817Y-4325605D01*
X-9578878Y-4318821D01*
X-9813281Y-3754856D01*
X-9815523Y-3746550D01*
X-9818720Y-3739797D01*
X-9820674Y-3738923D01*
X-9829301Y-3743015D01*
X-9839729Y-3746996D01*
X-9855928Y-3760131D01*
X-15339690Y-6920931D01*
X-15406713Y-6937394D01*
X-15472157Y-6915477D01*
X-15515747Y-6861970D01*
X-15737718Y-6339296D01*
X-15739327Y-6335317D01*
X-15842278Y-6067496D01*
X-15842784Y-6066157D01*
X-15993397Y-5660428D01*
X-15994516Y-5657284D01*
X-16094598Y-5363693D01*
X-16095346Y-5361429D01*
X-16221758Y-4965842D01*
X-16222462Y-4963564D01*
X-16311200Y-4666277D01*
X-16312111Y-4663065D01*
X-16424680Y-4245210D01*
X-16425044Y-4243827D01*
X-16496471Y-3965972D01*
X-16497468Y-3961799D01*
X-16621553Y-3399014D01*
X-16621655Y-3398547D01*
X-16630974Y-3355493D01*
X-16631417Y-3305166D01*
X-16611822Y-3258809D01*
X-16575417Y-3224057D01*
X-13692767Y-1425572D01*
X-13675618Y-1419705D01*
X-13667761Y-1410053D01*
X-13668426Y-1404675D01*
X-13675685Y-1315954D01*
X-13675737Y-1315301D01*
X-13717945Y-763571D01*
X-13718210Y-758991D01*
X-13726045Y-560000D01*
X-11740000Y-560000D01*
X-11740000Y-1207824D01*
X-11733597Y-1267375D01*
X-11683352Y-1402089D01*
X-11597188Y-1517188D01*
X-11482089Y-1603352D01*
X-11347375Y-1653597D01*
X-11287824Y-1660000D01*
X-10640000Y-1660000D01*
X-10640000Y-560000D01*
X-10140000Y-560000D01*
X-10140000Y-1660000D01*
X-9492176Y-1660000D01*
X-9432624Y-1653597D01*
X-9297910Y-1603352D01*
X-9182811Y-1517188D01*
X-9096647Y-1402089D01*
X-9046402Y-1267375D01*
X-9040000Y-1207824D01*
X-9040000Y-560000D01*
X-10140000Y-560000D01*
X-10640000Y-560000D01*
X-11740000Y-560000D01*
X-13726045Y-560000D01*
X-13728014Y-509990D01*
X-13728076Y-508024D01*
X-13737750Y-96406D01*
X-13737783Y-93129D01*
X-13737686Y-60000D01*
X-11740000Y-60000D01*
X-10640000Y-60000D01*
X-10640000Y1040000D01*
X-10140000Y1040000D01*
X-10140000Y-60000D01*
X-9040000Y-60000D01*
X-9040000Y242083D01*
X-6373580Y242083D01*
X-6373566Y-242445D01*
X-6336771Y-725574D01*
X-6263407Y-1204515D01*
X-6153898Y-1676506D01*
X-6008874Y-2138821D01*
X-5829174Y-2588794D01*
X-5829171Y-2588801D01*
X-5767220Y-2715127D01*
X-5615835Y-3023826D01*
X-5500058Y-3220556D01*
X-5370094Y-3441398D01*
X-5370090Y-3441402D01*
X-5370087Y-3441409D01*
X-5093348Y-3839131D01*
X-4787216Y-4214698D01*
X-4636675Y-4373169D01*
X-4635074Y-4375659D01*
X-4620498Y-4390267D01*
X-4620072Y-4390705D01*
X-4620018Y-4390706D01*
X-4620018Y-4390707D01*
X-4620017Y-4390706D01*
X-4577445Y-4391871D01*
X-4570308Y-4390500D01*
X4590474Y-4390500D01*
X4621188Y-4396384D01*
X4645296Y-4395701D01*
X4645297Y-4395699D01*
X4645299Y-4395701D01*
X4645642Y-4395338D01*
X4645641Y-4395337D01*
X4812123Y-4219372D01*
X5117513Y-3843265D01*
X5393578Y-3445134D01*
X5638734Y-3027261D01*
X5851578Y-2592040D01*
X6030889Y-2141965D01*
X6175640Y-1679616D01*
X6285001Y-1207641D01*
X6358346Y-728746D01*
X6374295Y-520000D01*
X9200000Y-520000D01*
X9200000Y-1167824D01*
X9206402Y-1227375D01*
X9256647Y-1362089D01*
X9342811Y-1477188D01*
X9457910Y-1563352D01*
X9592624Y-1613597D01*
X9652176Y-1620000D01*
X10300000Y-1620000D01*
X10300000Y-520000D01*
X10800000Y-520000D01*
X10800000Y-1620000D01*
X11447824Y-1620000D01*
X11507375Y-1613597D01*
X11642089Y-1563352D01*
X11757188Y-1477188D01*
X11843352Y-1362089D01*
X11893597Y-1227375D01*
X11900000Y-1167824D01*
X11900000Y-520000D01*
X10800000Y-520000D01*
X10300000Y-520000D01*
X9200000Y-520000D01*
X6374295Y-520000D01*
X6395255Y-245675D01*
X6395376Y-20000D01*
X9200000Y-20000D01*
X10300000Y-20000D01*
X10300000Y1080000D01*
X10800000Y1080000D01*
X10800000Y-20000D01*
X11900000Y-20000D01*
X11900000Y627824D01*
X11893597Y687375D01*
X11843352Y822089D01*
X11757188Y937188D01*
X11642089Y1023352D01*
X11507375Y1073597D01*
X11447824Y1080000D01*
X10800000Y1080000D01*
X10300000Y1080000D01*
X9652176Y1080000D01*
X9592624Y1073597D01*
X9457910Y1023352D01*
X9342811Y937188D01*
X9256647Y822089D01*
X9206402Y687375D01*
X9200000Y627824D01*
X9200000Y-20000D01*
X6395376Y-20000D01*
X6395515Y238803D01*
X6359126Y721914D01*
X6286296Y1200887D01*
X6177442Y1672979D01*
X6033188Y2135483D01*
X5854361Y2585750D01*
X5641985Y3021200D01*
X5397278Y3439336D01*
X5121641Y3837764D01*
X4816656Y4214199D01*
X4666485Y4373264D01*
X4664684Y4376074D01*
X4650747Y4390018D01*
X4650081Y4390704D01*
X4650021Y4390705D01*
X4650020Y4390707D01*
X4650018Y4390705D01*
X4607988Y4391939D01*
X4600467Y4390497D01*
X-4570556Y4390238D01*
X-4577688Y4391609D01*
X-4620265Y4390442D01*
X-4620267Y4390444D01*
X-4620268Y4390442D01*
X-4620327Y4390441D01*
X-4620948Y4389804D01*
X-4634960Y4375831D01*
X-4636694Y4373149D01*
X-4787456Y4214426D01*
X-5093566Y3838842D01*
X-5370282Y3441104D01*
X-5616007Y3023507D01*
X-5829321Y2588462D01*
X-6008996Y2138480D01*
X-6153993Y1676156D01*
X-6263476Y1204159D01*
X-6336813Y725214D01*
X-6373580Y242083D01*
X-9040000Y242083D01*
X-9040000Y587824D01*
X-9046402Y647375D01*
X-9096647Y782089D01*
X-9182811Y897188D01*
X-9297910Y983352D01*
X-9432624Y1033597D01*
X-9492176Y1040000D01*
X-10140000Y1040000D01*
X-10640000Y1040000D01*
X-11287824Y1040000D01*
X-11347375Y1033597D01*
X-11482089Y983352D01*
X-11597188Y897188D01*
X-11683352Y782089D01*
X-11733597Y647375D01*
X-11740000Y587824D01*
X-11740000Y-60000D01*
X-13737686Y-60000D01*
X-13736999Y173700D01*
X-13736947Y176976D01*
X-13724858Y588598D01*
X-13724784Y590564D01*
X-13713522Y839435D01*
X-13713230Y844013D01*
X-13667797Y1395359D01*
X-13667742Y1396012D01*
X-13659918Y1485196D01*
X-13659280Y1490234D01*
X-13659448Y1490442D01*
X-13659448Y1490443D01*
X-13666979Y1499775D01*
X-13684083Y1505696D01*
X-16562419Y3311247D01*
X-16598731Y3346076D01*
X-16618215Y3392466D01*
X-16617663Y3442779D01*
X-16616459Y3448285D01*
X-16616318Y3448920D01*
X-16498305Y3975356D01*
X-16497536Y3978583D01*
X-16438593Y4212074D01*
X-16438091Y4214000D01*
X-16328761Y4619545D01*
X-16328227Y4621461D01*
X-16261834Y4852895D01*
X-16260877Y4856071D01*
X-16098269Y5370556D01*
X-16098065Y5371195D01*
X-16097316Y5373521D01*
X-16071584Y5418319D01*
X-16029831Y5448743D01*
X-15979303Y5459513D01*
X-12678650Y5459995D01*
X-12648976Y5454096D01*
X-12641757Y5454318D01*
X-12637395Y5456044D01*
X-12628243Y5458642D01*
X-12626495Y5462656D01*
X-12592555Y5536275D01*
X-12592243Y5536947D01*
X-12316121Y6126596D01*
X-12313828Y6131237D01*
X-12188935Y6371308D01*
X-12187894Y6373267D01*
X-11960066Y6792700D01*
X-11958253Y6795922D01*
X-11811104Y7048560D01*
X-11809195Y7051727D01*
X-11556803Y7456782D01*
X-11555613Y7458655D01*
X-11408384Y7685780D01*
X-11405478Y7690064D01*
X-11028881Y8221073D01*
X-11028453Y8221674D01*
X-10982246Y8286012D01*
X-10979265Y8289855D01*
X-10980893Y8301383D01*
X-10992550Y8315146D01*
X-12318589Y10857811D01*
X-12542767Y11287670D01*
X-12556512Y11336268D01*
X-12549737Y11386316D01*
X-12523567Y11429512D01*
X-12516380Y11437230D01*
X-12515950Y11437689D01*
X-12174064Y11801119D01*
X-12171880Y11803384D01*
X-12007542Y11969427D01*
X-12006204Y11970758D01*
X-11726817Y12244579D01*
X-11725459Y12245889D01*
X-11556117Y12406879D01*
X-11553809Y12409018D01*
X-11183560Y12743537D01*
X-11183097Y12743953D01*
X-11175946Y12750349D01*
X-11131845Y12775775D01*
X-11081245Y12781340D01*
X-11032673Y12766104D01*
X-8107095Y11127063D01*
X-8093673Y11115130D01*
X-8082952Y11113420D01*
X-8079579Y11115917D01*
X-8010485Y11163803D01*
X-8009905Y11164202D01*
X-7506301Y11509016D01*
X-7502176Y11511722D01*
X-7280653Y11650789D01*
X-7278853Y11651897D01*
X-7008928Y11815000D01*
X-4525000Y11815000D01*
X-4525000Y11167176D01*
X-4518597Y11107624D01*
X-4468352Y10972910D01*
X-4382188Y10857811D01*
X-4267089Y10771647D01*
X-4132375Y10721402D01*
X-4072824Y10715000D01*
X-3425000Y10715000D01*
X-3425000Y11815000D01*
X-2925000Y11815000D01*
X-2925000Y10715000D01*
X-2277176Y10715000D01*
X-2217624Y10721402D01*
X-2082910Y10771647D01*
X-1967811Y10857811D01*
X-1881647Y10972910D01*
X-1831402Y11107624D01*
X-1825000Y11167176D01*
X-1825000Y11815000D01*
X2460000Y11815000D01*
X2460000Y11167176D01*
X2466402Y11107624D01*
X2516647Y10972910D01*
X2602811Y10857811D01*
X2717910Y10771647D01*
X2852624Y10721402D01*
X2912176Y10715000D01*
X3560000Y10715000D01*
X3560000Y11815000D01*
X4060000Y11815000D01*
X4060000Y10715000D01*
X4707824Y10715000D01*
X4767375Y10721402D01*
X4902089Y10771647D01*
X5017188Y10857811D01*
X5103352Y10972910D01*
X5153597Y11107624D01*
X5160000Y11167176D01*
X5160000Y11815000D01*
X4060000Y11815000D01*
X3560000Y11815000D01*
X2460000Y11815000D01*
X-1825000Y11815000D01*
X-2925000Y11815000D01*
X-3425000Y11815000D01*
X-4525000Y11815000D01*
X-7008928Y11815000D01*
X-6893774Y11884582D01*
X-6890733Y11886362D01*
X-6645696Y12025079D01*
X-6642605Y12026771D01*
X-6244861Y12237243D01*
X-6242984Y12238216D01*
X-6091695Y12315000D01*
X-4525000Y12315000D01*
X-3425000Y12315000D01*
X-3425000Y13415000D01*
X-2925000Y13415000D01*
X-2925000Y12315000D01*
X-1825000Y12315000D01*
X2460000Y12315000D01*
X3560000Y12315000D01*
X3560000Y13415000D01*
X4060000Y13415000D01*
X4060000Y12315000D01*
X5160000Y12315000D01*
X5160000Y12962824D01*
X5153597Y13022375D01*
X5103352Y13157089D01*
X5017188Y13272188D01*
X4902089Y13358352D01*
X4767375Y13408597D01*
X4707824Y13415000D01*
X4060000Y13415000D01*
X3560000Y13415000D01*
X2912176Y13415000D01*
X2852624Y13408597D01*
X2717910Y13358352D01*
X2602811Y13272188D01*
X2516647Y13157089D01*
X2466402Y13022375D01*
X2460000Y12962824D01*
X2460000Y12315000D01*
X-1825000Y12315000D01*
X-1825000Y12962824D01*
X-1831402Y13022375D01*
X-1881647Y13157089D01*
X-1967811Y13272188D01*
X-2082910Y13358352D01*
X-2217624Y13408597D01*
X-2277176Y13415000D01*
X-2925000Y13415000D01*
X-3425000Y13415000D01*
X-4072824Y13415000D01*
X-4132375Y13408597D01*
X-4267089Y13358352D01*
X-4382188Y13272188D01*
X-4468352Y13157089D01*
X-4518597Y13022375D01*
X-4525000Y12962824D01*
X-4525000Y12315000D01*
X-6091695Y12315000D01*
X-6009795Y12356567D01*
X-6005352Y12358711D01*
X-5450453Y12613113D01*
X-5449813Y12613405D01*
X-5388183Y12641238D01*
X-5371825Y12648625D01*
X-5368096Y12650228D01*
X-5365421Y12659473D01*
X-5363790Y12663523D01*
X-5363485Y12672224D01*
X-5369060Y12701224D01*
X-5340764Y16000780D01*
X-5329593Y16051163D01*
X-5298881Y16092634D01*
X-5253947Y16118013D01*
X-5250571Y16119074D01*
X-5249941Y16119269D01*
X-4740119Y16276522D01*
X-4736958Y16277452D01*
X-4506060Y16342005D01*
X-4504152Y16342522D01*
X-4101910Y16448095D01*
X-4099993Y16448582D01*
X-3867183Y16505733D01*
X-3863972Y16506476D01*
X-3341533Y16620092D01*
X-3340902Y16620227D01*
X-3336813Y16621094D01*
X-3285941Y16621213D01*
X-3239302Y16600895D01*
G37*
G04 #@! TD.AperFunction*
M02*
