%TF.GenerationSoftware,KiCad,Pcbnew,(6.0.0)*%
%TF.CreationDate,2022-01-04T00:38:58-05:00*%
%TF.ProjectId,4x relay board,34782072-656c-4617-9920-626f6172642e,rev?*%
%TF.SameCoordinates,Original*%
%TF.FileFunction,Copper,L1,Top*%
%TF.FilePolarity,Positive*%
%FSLAX46Y46*%
G04 Gerber Fmt 4.6, Leading zero omitted, Abs format (unit mm)*
G04 Created by KiCad (PCBNEW (6.0.0)) date 2022-01-04 00:38:58*
%MOMM*%
%LPD*%
G01*
G04 APERTURE LIST*
G04 Aperture macros list*
%AMRoundRect*
0 Rectangle with rounded corners*
0 $1 Rounding radius*
0 $2 $3 $4 $5 $6 $7 $8 $9 X,Y pos of 4 corners*
0 Add a 4 corners polygon primitive as box body*
4,1,4,$2,$3,$4,$5,$6,$7,$8,$9,$2,$3,0*
0 Add four circle primitives for the rounded corners*
1,1,$1+$1,$2,$3*
1,1,$1+$1,$4,$5*
1,1,$1+$1,$6,$7*
1,1,$1+$1,$8,$9*
0 Add four rect primitives between the rounded corners*
20,1,$1+$1,$2,$3,$4,$5,0*
20,1,$1+$1,$4,$5,$6,$7,0*
20,1,$1+$1,$6,$7,$8,$9,0*
20,1,$1+$1,$8,$9,$2,$3,0*%
G04 Aperture macros list end*
%TA.AperFunction,SMDPad,CuDef*%
%ADD10RoundRect,0.200000X-0.275000X0.200000X-0.275000X-0.200000X0.275000X-0.200000X0.275000X0.200000X0*%
%TD*%
%TA.AperFunction,ComponentPad*%
%ADD11R,1.700000X1.700000*%
%TD*%
%TA.AperFunction,ComponentPad*%
%ADD12O,1.700000X1.700000*%
%TD*%
%TA.AperFunction,ComponentPad*%
%ADD13RoundRect,0.250000X1.550000X-0.650000X1.550000X0.650000X-1.550000X0.650000X-1.550000X-0.650000X0*%
%TD*%
%TA.AperFunction,ComponentPad*%
%ADD14O,3.600000X1.800000*%
%TD*%
%TA.AperFunction,SMDPad,CuDef*%
%ADD15R,1.100000X1.100000*%
%TD*%
%TA.AperFunction,SMDPad,CuDef*%
%ADD16RoundRect,0.200000X-0.200000X-0.275000X0.200000X-0.275000X0.200000X0.275000X-0.200000X0.275000X0*%
%TD*%
%TA.AperFunction,ComponentPad*%
%ADD17C,1.400000*%
%TD*%
%TA.AperFunction,SMDPad,CuDef*%
%ADD18RoundRect,0.150000X-0.587500X-0.150000X0.587500X-0.150000X0.587500X0.150000X-0.587500X0.150000X0*%
%TD*%
%TA.AperFunction,ComponentPad*%
%ADD19R,1.600000X1.600000*%
%TD*%
%TA.AperFunction,ComponentPad*%
%ADD20C,1.600000*%
%TD*%
%TA.AperFunction,Conductor*%
%ADD21C,0.400000*%
%TD*%
%TA.AperFunction,Conductor*%
%ADD22C,1.000000*%
%TD*%
G04 APERTURE END LIST*
D10*
%TO.P,R7,1*%
%TO.N,Net-(Q3-Pad1)*%
X140208000Y-63945000D03*
%TO.P,R7,2*%
%TO.N,GND*%
X140208000Y-65595000D03*
%TD*%
D11*
%TO.P,J1,1,Pin_1*%
%TO.N,+5V*%
X130048000Y-66289000D03*
D12*
%TO.P,J1,2,Pin_2*%
%TO.N,GND*%
X130048000Y-68829000D03*
%TD*%
D13*
%TO.P,J3,1,Pin_1*%
%TO.N,/R1-1*%
X178677500Y-80775000D03*
D14*
%TO.P,J3,2,Pin_2*%
%TO.N,/R1-2*%
X178677500Y-77275000D03*
%TO.P,J3,3,Pin_3*%
%TO.N,/R2-1*%
X178677500Y-73775000D03*
%TO.P,J3,4,Pin_4*%
%TO.N,/R2-2*%
X178677500Y-70275000D03*
%TO.P,J3,5,Pin_5*%
%TO.N,/R3-1*%
X178677500Y-66775000D03*
%TO.P,J3,6,Pin_6*%
%TO.N,/R3-2*%
X178677500Y-63275000D03*
%TO.P,J3,7,Pin_7*%
%TO.N,/R4-1*%
X178677500Y-59775000D03*
%TO.P,J3,8,Pin_8*%
%TO.N,/R4-2*%
X178677500Y-56275000D03*
%TD*%
D15*
%TO.P,D4,1,K*%
%TO.N,+5V*%
X147320000Y-50670000D03*
%TO.P,D4,2,A*%
%TO.N,Net-(D4-Pad2)*%
X147320000Y-53470000D03*
%TD*%
D16*
%TO.P,R2,1*%
%TO.N,/D2*%
X136589000Y-75438000D03*
%TO.P,R2,2*%
%TO.N,Net-(Q2-Pad1)*%
X138239000Y-75438000D03*
%TD*%
D17*
%TO.P,K2,1*%
%TO.N,+5V*%
X152465000Y-69955000D03*
%TO.P,K2,2*%
%TO.N,/R2-2*%
X167705000Y-69955000D03*
%TO.P,K2,3*%
%TO.N,/R2-1*%
X165165000Y-77555000D03*
%TO.P,K2,4*%
%TO.N,Net-(D2-Pad2)*%
X152465000Y-77555000D03*
%TD*%
D18*
%TO.P,Q2,1,G*%
%TO.N,Net-(Q2-Pad1)*%
X142572500Y-75250000D03*
%TO.P,Q2,2,S*%
%TO.N,GND*%
X142572500Y-77150000D03*
%TO.P,Q2,3,D*%
%TO.N,Net-(D2-Pad2)*%
X144447500Y-76200000D03*
%TD*%
D16*
%TO.P,R4,1*%
%TO.N,/D4*%
X135827000Y-52070000D03*
%TO.P,R4,2*%
%TO.N,Net-(Q4-Pad1)*%
X137477000Y-52070000D03*
%TD*%
D19*
%TO.P,C1,1*%
%TO.N,+5V*%
X130810000Y-58867113D03*
D20*
%TO.P,C1,2*%
%TO.N,GND*%
X130810000Y-56867113D03*
%TD*%
D15*
%TO.P,D3,1,K*%
%TO.N,+5V*%
X147320000Y-62100000D03*
%TO.P,D3,2,A*%
%TO.N,Net-(D3-Pad2)*%
X147320000Y-64900000D03*
%TD*%
D18*
%TO.P,Q4,1,G*%
%TO.N,Net-(Q4-Pad1)*%
X142240000Y-52070000D03*
%TO.P,Q4,2,S*%
%TO.N,GND*%
X142240000Y-53970000D03*
%TO.P,Q4,3,D*%
%TO.N,Net-(D4-Pad2)*%
X144115000Y-53020000D03*
%TD*%
D11*
%TO.P,J2,1,Pin_1*%
%TO.N,/D1*%
X130048000Y-80503000D03*
D12*
%TO.P,J2,2,Pin_2*%
%TO.N,/D2*%
X130048000Y-77963000D03*
%TO.P,J2,3,Pin_3*%
%TO.N,/D3*%
X130048000Y-75423000D03*
%TO.P,J2,4,Pin_4*%
%TO.N,/D4*%
X130048000Y-72883000D03*
%TD*%
D10*
%TO.P,R6,1*%
%TO.N,Net-(Q2-Pad1)*%
X140208000Y-75375000D03*
%TO.P,R6,2*%
%TO.N,GND*%
X140208000Y-77025000D03*
%TD*%
D17*
%TO.P,K1,1*%
%TO.N,+5V*%
X152465000Y-81385000D03*
%TO.P,K1,2*%
%TO.N,/R1-2*%
X167705000Y-81385000D03*
%TO.P,K1,3*%
%TO.N,/R1-1*%
X165165000Y-88985000D03*
%TO.P,K1,4*%
%TO.N,Net-(D1-Pad2)*%
X152465000Y-88985000D03*
%TD*%
D10*
%TO.P,R5,1*%
%TO.N,Net-(Q1-Pad1)*%
X140462000Y-86805000D03*
%TO.P,R5,2*%
%TO.N,GND*%
X140462000Y-88455000D03*
%TD*%
D18*
%TO.P,Q1,1,G*%
%TO.N,Net-(Q1-Pad1)*%
X142572500Y-86680000D03*
%TO.P,Q1,2,S*%
%TO.N,GND*%
X142572500Y-88580000D03*
%TO.P,Q1,3,D*%
%TO.N,Net-(D1-Pad2)*%
X144447500Y-87630000D03*
%TD*%
D16*
%TO.P,R1,1*%
%TO.N,/D1*%
X137097000Y-86868000D03*
%TO.P,R1,2*%
%TO.N,Net-(Q1-Pad1)*%
X138747000Y-86868000D03*
%TD*%
D15*
%TO.P,D1,1,K*%
%TO.N,+5V*%
X147320000Y-84960000D03*
%TO.P,D1,2,A*%
%TO.N,Net-(D1-Pad2)*%
X147320000Y-87760000D03*
%TD*%
D16*
%TO.P,R3,1*%
%TO.N,/D3*%
X136589000Y-64008000D03*
%TO.P,R3,2*%
%TO.N,Net-(Q3-Pad1)*%
X138239000Y-64008000D03*
%TD*%
D17*
%TO.P,K4,1*%
%TO.N,+5V*%
X152465000Y-47095000D03*
%TO.P,K4,2*%
%TO.N,/R4-2*%
X167705000Y-47095000D03*
%TO.P,K4,3*%
%TO.N,/R4-1*%
X165165000Y-54695000D03*
%TO.P,K4,4*%
%TO.N,Net-(D4-Pad2)*%
X152465000Y-54695000D03*
%TD*%
D15*
%TO.P,D2,1,K*%
%TO.N,+5V*%
X147320000Y-73530000D03*
%TO.P,D2,2,A*%
%TO.N,Net-(D2-Pad2)*%
X147320000Y-76330000D03*
%TD*%
D10*
%TO.P,R8,1*%
%TO.N,Net-(Q4-Pad1)*%
X139700000Y-52261000D03*
%TO.P,R8,2*%
%TO.N,GND*%
X139700000Y-53911000D03*
%TD*%
D17*
%TO.P,K3,1*%
%TO.N,+5V*%
X152465000Y-58525000D03*
%TO.P,K3,2*%
%TO.N,/R3-2*%
X167705000Y-58525000D03*
%TO.P,K3,3*%
%TO.N,/R3-1*%
X165165000Y-66125000D03*
%TO.P,K3,4*%
%TO.N,Net-(D3-Pad2)*%
X152465000Y-66125000D03*
%TD*%
D18*
%TO.P,Q3,1,G*%
%TO.N,Net-(Q3-Pad1)*%
X142572500Y-63820000D03*
%TO.P,Q3,2,S*%
%TO.N,GND*%
X142572500Y-65720000D03*
%TO.P,Q3,3,D*%
%TO.N,Net-(D3-Pad2)*%
X144447500Y-64770000D03*
%TD*%
D21*
%TO.N,Net-(Q1-Pad1)*%
X140462000Y-86805000D02*
X138810000Y-86805000D01*
X138810000Y-86805000D02*
X138747000Y-86868000D01*
X142572500Y-86680000D02*
X140587000Y-86680000D01*
X140587000Y-86680000D02*
X140462000Y-86805000D01*
%TO.N,Net-(D1-Pad2)*%
X144447500Y-87630000D02*
X147190000Y-87630000D01*
X147959213Y-88399213D02*
X147320000Y-87760000D01*
X147190000Y-87630000D02*
X147320000Y-87760000D01*
X152465000Y-88985000D02*
X149373427Y-88985000D01*
X149373427Y-88984999D02*
G75*
G02*
X147959214Y-88399212I0J1999999D01*
G01*
%TO.N,+5V*%
X149475787Y-61514213D02*
X152465000Y-58525000D01*
X147320000Y-62100000D02*
X148061573Y-62100000D01*
X147320000Y-73530000D02*
X148061573Y-73530000D01*
X149475787Y-84374213D02*
X152465000Y-81385000D01*
X152465000Y-47095000D02*
X149475786Y-50084214D01*
X149475787Y-72944213D02*
X152465000Y-69955000D01*
X147320000Y-84960000D02*
X148061573Y-84960000D01*
X148061573Y-50670000D02*
X147320000Y-50670000D01*
X149475786Y-50084214D02*
G75*
G02*
X148061573Y-50670000I-1414213J1414214D01*
G01*
X149475787Y-84374213D02*
G75*
G02*
X148061573Y-84960000I-1414214J1414213D01*
G01*
X149475787Y-72944213D02*
G75*
G02*
X148061573Y-73530000I-1414214J1414213D01*
G01*
X148061573Y-62099999D02*
G75*
G03*
X149475786Y-61514212I0J1999999D01*
G01*
%TO.N,Net-(D2-Pad2)*%
X147320000Y-76330000D02*
X150411573Y-76330000D01*
X151825787Y-76915787D02*
X152465000Y-77555000D01*
X144447500Y-76200000D02*
X147190000Y-76200000D01*
X147190000Y-76200000D02*
X147320000Y-76330000D01*
X150411573Y-76330001D02*
G75*
G02*
X151825786Y-76915788I0J-1999999D01*
G01*
%TO.N,Net-(D3-Pad2)*%
X147320000Y-64900000D02*
X144577500Y-64900000D01*
X151825787Y-65485787D02*
X152465000Y-66125000D01*
X147320000Y-64900000D02*
X150411573Y-64900000D01*
X144577500Y-64900000D02*
X144447500Y-64770000D01*
X151825787Y-65485787D02*
G75*
G03*
X150411573Y-64900000I-1414214J-1414213D01*
G01*
%TO.N,Net-(D4-Pad2)*%
X147320000Y-53470000D02*
X150411573Y-53470000D01*
X147320000Y-53470000D02*
X144565000Y-53470000D01*
X151825787Y-54055787D02*
X152465000Y-54695000D01*
X144565000Y-53470000D02*
X144115000Y-53020000D01*
X150411573Y-53470001D02*
G75*
G02*
X151825786Y-54055788I0J-1999999D01*
G01*
%TO.N,/D1*%
X130048000Y-80503000D02*
X130732000Y-80503000D01*
X130732000Y-80503000D02*
X137097000Y-86868000D01*
%TO.N,/D2*%
X130048000Y-77963000D02*
X133235573Y-77963000D01*
X134649787Y-77377213D02*
X136589000Y-75438000D01*
X133235573Y-77962999D02*
G75*
G03*
X134649786Y-77377212I0J1999999D01*
G01*
%TO.N,/D3*%
X130048000Y-75423000D02*
X132028573Y-75423000D01*
X136589000Y-70862573D02*
X136589000Y-64008000D01*
X133442787Y-74837213D02*
X136003214Y-72276786D01*
X133442787Y-74837213D02*
G75*
G02*
X132028573Y-75423000I-1414214J1414213D01*
G01*
X136003214Y-72276786D02*
G75*
G03*
X136589000Y-70862573I-1414214J1414213D01*
G01*
%TO.N,/D4*%
X130048000Y-72883000D02*
X133780214Y-69150786D01*
X134366000Y-67736573D02*
X134366000Y-54359427D01*
X134951787Y-52945213D02*
X135827000Y-52070000D01*
X134951787Y-52945213D02*
G75*
G03*
X134366000Y-54359427I1414213J-1414214D01*
G01*
X133780214Y-69150786D02*
G75*
G03*
X134366000Y-67736573I-1414214J1414213D01*
G01*
D22*
%TO.N,/R1-1*%
X172789213Y-81360787D02*
X165165000Y-88985000D01*
X178677500Y-80775000D02*
X174203427Y-80775000D01*
X172789213Y-81360787D02*
G75*
G02*
X174203427Y-80775000I1414214J-1414213D01*
G01*
%TO.N,/R1-2*%
X171229213Y-77860787D02*
X167705000Y-81385000D01*
X178618500Y-77216000D02*
X178677500Y-77275000D01*
X178677500Y-77275000D02*
X172643427Y-77275000D01*
X171229213Y-77860787D02*
G75*
G02*
X172643427Y-77275000I1414214J-1414213D01*
G01*
%TO.N,/R2-1*%
X178677500Y-73775000D02*
X169773427Y-73775000D01*
X178308500Y-73406000D02*
X178677500Y-73775000D01*
X168359213Y-74360787D02*
X165165000Y-77555000D01*
X169773427Y-73775001D02*
G75*
G03*
X168359214Y-74360788I0J-1999999D01*
G01*
%TO.N,/R2-2*%
X168025000Y-70275000D02*
X167705000Y-69955000D01*
X178677500Y-70275000D02*
X168025000Y-70275000D01*
%TO.N,/R3-1*%
X165229213Y-66189213D02*
X165165000Y-66125000D01*
D21*
X178613287Y-66710787D02*
X178677500Y-66775000D01*
D22*
X178677500Y-66775000D02*
X166643427Y-66775000D01*
X165229213Y-66189213D02*
G75*
G03*
X166643427Y-66775000I1414214J1414213D01*
G01*
%TO.N,/R3-2*%
X171869213Y-62689213D02*
X167705000Y-58525000D01*
X178677500Y-63275000D02*
X173283427Y-63275000D01*
X171869213Y-62689213D02*
G75*
G03*
X173283427Y-63275000I1414214J1414213D01*
G01*
%TO.N,/R4-1*%
X169182573Y-54695000D02*
X165165000Y-54695000D01*
X174505213Y-59189213D02*
X170596786Y-55280786D01*
X178677500Y-59775000D02*
X175919427Y-59775000D01*
X169182573Y-54695001D02*
G75*
G02*
X170596785Y-55280787I0J-1999999D01*
G01*
X174505213Y-59189213D02*
G75*
G03*
X175919427Y-59775000I1414214J1414213D01*
G01*
%TO.N,/R4-2*%
X176299213Y-55689213D02*
X167705000Y-47095000D01*
X178677500Y-56275000D02*
X177713427Y-56275000D01*
X176299213Y-55689213D02*
G75*
G03*
X177713427Y-56275000I1414214J1414213D01*
G01*
D21*
%TO.N,Net-(Q2-Pad1)*%
X142572500Y-75250000D02*
X140333000Y-75250000D01*
X140333000Y-75250000D02*
X140208000Y-75375000D01*
X140208000Y-75375000D02*
X138302000Y-75375000D01*
X138302000Y-75375000D02*
X138239000Y-75438000D01*
%TO.N,Net-(Q3-Pad1)*%
X142572500Y-63820000D02*
X140333000Y-63820000D01*
X140208000Y-63945000D02*
X138302000Y-63945000D01*
X138302000Y-63945000D02*
X138239000Y-64008000D01*
X140333000Y-63820000D02*
X140208000Y-63945000D01*
%TO.N,Net-(Q4-Pad1)*%
X139700000Y-52261000D02*
X137668000Y-52261000D01*
X142240000Y-52070000D02*
X139891000Y-52070000D01*
X137668000Y-52261000D02*
X137477000Y-52070000D01*
X139891000Y-52070000D02*
X139700000Y-52261000D01*
%TD*%
%TA.AperFunction,Conductor*%
%TO.N,GND*%
G36*
X182596057Y-44959500D02*
G01*
X182610858Y-44961805D01*
X182610861Y-44961805D01*
X182619730Y-44963186D01*
X182639054Y-44960659D01*
X182661570Y-44959747D01*
X182968373Y-44974820D01*
X182980667Y-44976030D01*
X183313625Y-45025421D01*
X183325731Y-45027828D01*
X183652244Y-45109615D01*
X183664076Y-45113204D01*
X183980994Y-45226599D01*
X183992418Y-45231331D01*
X184296693Y-45375242D01*
X184307598Y-45381071D01*
X184596302Y-45554114D01*
X184606583Y-45560984D01*
X184876931Y-45761488D01*
X184886489Y-45769332D01*
X185135885Y-45995371D01*
X185144629Y-46004115D01*
X185370668Y-46253511D01*
X185378512Y-46263069D01*
X185579016Y-46533417D01*
X185585886Y-46543698D01*
X185610821Y-46585299D01*
X185753411Y-46823195D01*
X185758929Y-46832402D01*
X185764756Y-46843303D01*
X185829206Y-46979571D01*
X185908669Y-47147582D01*
X185913401Y-47159006D01*
X186026796Y-47475924D01*
X186030385Y-47487754D01*
X186112172Y-47814269D01*
X186114579Y-47826375D01*
X186163969Y-48159328D01*
X186165180Y-48171627D01*
X186179891Y-48471065D01*
X186178542Y-48496632D01*
X186178195Y-48498857D01*
X186178195Y-48498861D01*
X186176814Y-48507730D01*
X186177978Y-48516632D01*
X186177978Y-48516635D01*
X186180936Y-48539251D01*
X186182000Y-48555589D01*
X186182000Y-87326672D01*
X186180500Y-87346056D01*
X186176814Y-87369730D01*
X186179269Y-87388500D01*
X186179341Y-87389050D01*
X186180253Y-87411570D01*
X186165390Y-87714121D01*
X186165181Y-87718367D01*
X186163970Y-87730667D01*
X186115178Y-88059594D01*
X186114581Y-88063616D01*
X186112172Y-88075731D01*
X186033666Y-88389145D01*
X186030385Y-88402244D01*
X186026796Y-88414076D01*
X185913401Y-88730994D01*
X185908669Y-88742418D01*
X185829239Y-88910358D01*
X185786738Y-89000221D01*
X185764758Y-89046693D01*
X185758931Y-89057594D01*
X185731372Y-89103574D01*
X185585886Y-89346302D01*
X185579016Y-89356583D01*
X185378512Y-89626931D01*
X185370668Y-89636489D01*
X185144629Y-89885885D01*
X185135885Y-89894629D01*
X184886489Y-90120668D01*
X184876931Y-90128512D01*
X184606583Y-90329016D01*
X184596302Y-90335886D01*
X184307598Y-90508929D01*
X184296693Y-90514758D01*
X183992418Y-90658669D01*
X183980994Y-90663401D01*
X183664076Y-90776796D01*
X183652246Y-90780385D01*
X183325731Y-90862172D01*
X183313625Y-90864579D01*
X182980667Y-90913970D01*
X182968373Y-90915180D01*
X182668935Y-90929891D01*
X182643368Y-90928542D01*
X182641143Y-90928195D01*
X182641139Y-90928195D01*
X182632270Y-90926814D01*
X182623368Y-90927978D01*
X182623365Y-90927978D01*
X182604083Y-90930500D01*
X182601728Y-90930808D01*
X182600749Y-90930936D01*
X182584411Y-90932000D01*
X129843328Y-90932000D01*
X129823943Y-90930500D01*
X129809142Y-90928195D01*
X129809139Y-90928195D01*
X129800270Y-90926814D01*
X129780946Y-90929341D01*
X129758430Y-90930253D01*
X129451627Y-90915180D01*
X129439333Y-90913970D01*
X129106375Y-90864579D01*
X129094269Y-90862172D01*
X128767754Y-90780385D01*
X128755924Y-90776796D01*
X128439006Y-90663401D01*
X128427582Y-90658669D01*
X128123307Y-90514758D01*
X128112402Y-90508929D01*
X127823698Y-90335886D01*
X127813417Y-90329016D01*
X127543069Y-90128512D01*
X127533511Y-90120668D01*
X127284115Y-89894629D01*
X127275371Y-89885885D01*
X127049332Y-89636489D01*
X127041488Y-89626931D01*
X126840984Y-89356583D01*
X126834114Y-89346302D01*
X126688628Y-89103574D01*
X126661069Y-89057594D01*
X126655242Y-89046693D01*
X126633263Y-89000221D01*
X126590761Y-88910358D01*
X126511331Y-88742418D01*
X126506599Y-88730994D01*
X126393204Y-88414076D01*
X126389615Y-88402244D01*
X126386334Y-88389145D01*
X126307828Y-88075731D01*
X126305419Y-88063616D01*
X126304823Y-88059594D01*
X126256030Y-87730667D01*
X126254819Y-87718366D01*
X126254611Y-87714121D01*
X126244728Y-87512951D01*
X126244519Y-87508703D01*
X127684743Y-87508703D01*
X127685302Y-87512947D01*
X127685302Y-87512951D01*
X127694962Y-87586322D01*
X127722268Y-87793734D01*
X127798129Y-88071036D01*
X127799813Y-88074984D01*
X127885308Y-88275422D01*
X127910923Y-88335476D01*
X127936638Y-88378442D01*
X128054515Y-88575400D01*
X128058561Y-88582161D01*
X128238313Y-88806528D01*
X128446851Y-89004423D01*
X128680317Y-89172186D01*
X128684112Y-89174195D01*
X128684113Y-89174196D01*
X128705869Y-89185715D01*
X128934392Y-89306712D01*
X128958699Y-89315607D01*
X129189068Y-89399910D01*
X129204373Y-89405511D01*
X129485264Y-89466755D01*
X129513841Y-89469004D01*
X129708282Y-89484307D01*
X129708291Y-89484307D01*
X129710739Y-89484500D01*
X129866271Y-89484500D01*
X129868407Y-89484354D01*
X129868418Y-89484354D01*
X130076548Y-89470165D01*
X130076554Y-89470164D01*
X130080825Y-89469873D01*
X130085020Y-89469004D01*
X130085022Y-89469004D01*
X130271101Y-89430469D01*
X130362342Y-89411574D01*
X130633343Y-89315607D01*
X130856702Y-89200323D01*
X130885005Y-89185715D01*
X130885006Y-89185715D01*
X130888812Y-89183750D01*
X130892313Y-89181289D01*
X130892317Y-89181287D01*
X131083824Y-89046693D01*
X131124023Y-89018441D01*
X131289628Y-88864551D01*
X131331479Y-88825661D01*
X131331481Y-88825658D01*
X131334622Y-88822740D01*
X131419291Y-88719294D01*
X139479709Y-88719294D01*
X139485132Y-88778315D01*
X139487743Y-88791351D01*
X139534715Y-88941243D01*
X139540921Y-88954988D01*
X139621824Y-89088574D01*
X139631131Y-89100443D01*
X139741557Y-89210869D01*
X139753426Y-89220176D01*
X139887012Y-89301079D01*
X139900757Y-89307285D01*
X140050644Y-89354256D01*
X140063694Y-89356869D01*
X140127521Y-89362734D01*
X140133309Y-89363000D01*
X140189885Y-89363000D01*
X140205124Y-89358525D01*
X140206329Y-89357135D01*
X140208000Y-89349452D01*
X140208000Y-89344884D01*
X140716000Y-89344884D01*
X140720475Y-89360123D01*
X140721865Y-89361328D01*
X140729548Y-89362999D01*
X140790705Y-89362999D01*
X140796454Y-89362736D01*
X140860315Y-89356868D01*
X140873351Y-89354257D01*
X141023243Y-89307285D01*
X141036988Y-89301079D01*
X141170574Y-89220176D01*
X141182443Y-89210869D01*
X141271423Y-89121889D01*
X141333735Y-89087863D01*
X141404550Y-89092928D01*
X141460077Y-89133757D01*
X141466554Y-89142107D01*
X141572896Y-89248449D01*
X141585322Y-89258089D01*
X141714779Y-89334648D01*
X141729210Y-89340893D01*
X141875065Y-89383269D01*
X141887667Y-89385570D01*
X141916084Y-89387807D01*
X141921014Y-89388000D01*
X142300385Y-89388000D01*
X142315624Y-89383525D01*
X142316829Y-89382135D01*
X142318500Y-89374452D01*
X142318500Y-89369884D01*
X142826500Y-89369884D01*
X142830975Y-89385123D01*
X142832365Y-89386328D01*
X142840048Y-89387999D01*
X143223984Y-89387999D01*
X143228920Y-89387805D01*
X143257336Y-89385570D01*
X143269931Y-89383270D01*
X143415790Y-89340893D01*
X143430221Y-89334648D01*
X143559678Y-89258089D01*
X143572104Y-89248449D01*
X143678449Y-89142104D01*
X143688089Y-89129678D01*
X143764648Y-89000221D01*
X143770893Y-88985790D01*
X143809939Y-88851395D01*
X143809899Y-88837294D01*
X143802630Y-88834000D01*
X142844615Y-88834000D01*
X142829376Y-88838475D01*
X142828171Y-88839865D01*
X142826500Y-88847548D01*
X142826500Y-89369884D01*
X142318500Y-89369884D01*
X142318500Y-88852115D01*
X142314025Y-88836876D01*
X142312635Y-88835671D01*
X142304952Y-88834000D01*
X141412706Y-88834000D01*
X141344585Y-88813998D01*
X141298092Y-88760342D01*
X141291810Y-88743497D01*
X141282526Y-88711876D01*
X141281135Y-88710671D01*
X141273452Y-88709000D01*
X140734115Y-88709000D01*
X140718876Y-88713475D01*
X140717671Y-88714865D01*
X140716000Y-88722548D01*
X140716000Y-89344884D01*
X140208000Y-89344884D01*
X140208000Y-88727115D01*
X140203525Y-88711876D01*
X140202135Y-88710671D01*
X140194452Y-88709000D01*
X139497116Y-88709000D01*
X139481877Y-88713475D01*
X139480672Y-88714865D01*
X139479709Y-88719294D01*
X131419291Y-88719294D01*
X131516713Y-88600268D01*
X131666927Y-88355142D01*
X131679720Y-88326000D01*
X131780757Y-88095830D01*
X131782483Y-88091898D01*
X131793695Y-88052540D01*
X131841753Y-87883831D01*
X131861244Y-87815406D01*
X131893847Y-87586322D01*
X131901146Y-87535036D01*
X131901146Y-87535034D01*
X131901751Y-87530784D01*
X131901775Y-87526316D01*
X131903235Y-87247583D01*
X131903235Y-87247576D01*
X131903257Y-87243297D01*
X131892537Y-87161866D01*
X131866292Y-86962522D01*
X131865732Y-86958266D01*
X131789871Y-86680964D01*
X131735353Y-86553150D01*
X131678763Y-86420476D01*
X131678761Y-86420472D01*
X131677077Y-86416524D01*
X131529439Y-86169839D01*
X131349687Y-85945472D01*
X131226289Y-85828372D01*
X131144258Y-85750527D01*
X131144255Y-85750525D01*
X131141149Y-85747577D01*
X130907683Y-85579814D01*
X130885843Y-85568250D01*
X130860283Y-85554717D01*
X130653608Y-85445288D01*
X130383627Y-85346489D01*
X130102736Y-85285245D01*
X130071685Y-85282801D01*
X129879718Y-85267693D01*
X129879709Y-85267693D01*
X129877261Y-85267500D01*
X129721729Y-85267500D01*
X129719593Y-85267646D01*
X129719582Y-85267646D01*
X129511452Y-85281835D01*
X129511446Y-85281836D01*
X129507175Y-85282127D01*
X129502980Y-85282996D01*
X129502978Y-85282996D01*
X129366416Y-85311277D01*
X129225658Y-85340426D01*
X128954657Y-85436393D01*
X128699188Y-85568250D01*
X128695687Y-85570711D01*
X128695683Y-85570713D01*
X128614578Y-85627715D01*
X128463977Y-85733559D01*
X128445717Y-85750527D01*
X128258079Y-85924892D01*
X128253378Y-85929260D01*
X128071287Y-86151732D01*
X127921073Y-86396858D01*
X127919347Y-86400791D01*
X127919346Y-86400792D01*
X127892898Y-86461042D01*
X127805517Y-86660102D01*
X127804342Y-86664229D01*
X127804341Y-86664230D01*
X127791010Y-86711029D01*
X127726756Y-86936594D01*
X127719600Y-86986879D01*
X127689321Y-87199634D01*
X127686249Y-87221216D01*
X127686227Y-87225505D01*
X127686226Y-87225512D01*
X127684765Y-87504417D01*
X127684743Y-87508703D01*
X126244519Y-87508703D01*
X126240293Y-87422665D01*
X126241886Y-87395586D01*
X126242264Y-87393340D01*
X126242265Y-87393331D01*
X126243071Y-87388539D01*
X126243224Y-87376000D01*
X126239273Y-87348412D01*
X126238000Y-87330549D01*
X126238000Y-77929695D01*
X128685251Y-77929695D01*
X128685548Y-77934848D01*
X128685548Y-77934851D01*
X128694144Y-78083926D01*
X128698110Y-78152715D01*
X128699247Y-78157761D01*
X128699248Y-78157767D01*
X128701118Y-78166063D01*
X128747222Y-78370639D01*
X128831266Y-78577616D01*
X128869945Y-78640734D01*
X128935838Y-78748262D01*
X128947987Y-78768088D01*
X129094250Y-78936938D01*
X129098230Y-78940242D01*
X129102981Y-78944187D01*
X129142616Y-79003090D01*
X129144113Y-79074071D01*
X129106997Y-79134593D01*
X129066724Y-79159112D01*
X128951295Y-79202385D01*
X128834739Y-79289739D01*
X128747385Y-79406295D01*
X128696255Y-79542684D01*
X128689500Y-79604866D01*
X128689500Y-81401134D01*
X128696255Y-81463316D01*
X128747385Y-81599705D01*
X128834739Y-81716261D01*
X128951295Y-81803615D01*
X129087684Y-81854745D01*
X129149866Y-81861500D01*
X130946134Y-81861500D01*
X130961802Y-81859798D01*
X131008316Y-81854745D01*
X131008520Y-81856625D01*
X131069273Y-81859798D01*
X131116613Y-81889583D01*
X133634276Y-84407247D01*
X136151596Y-86924567D01*
X136185622Y-86986879D01*
X136188501Y-87013662D01*
X136188501Y-87199634D01*
X136195247Y-87273062D01*
X136197246Y-87279440D01*
X136197246Y-87279441D01*
X136231596Y-87389050D01*
X136246528Y-87436699D01*
X136335361Y-87583381D01*
X136456619Y-87704639D01*
X136603301Y-87793472D01*
X136610548Y-87795743D01*
X136610550Y-87795744D01*
X136617625Y-87797961D01*
X136766938Y-87844753D01*
X136840365Y-87851500D01*
X136843263Y-87851500D01*
X137097665Y-87851499D01*
X137353634Y-87851499D01*
X137356492Y-87851236D01*
X137356501Y-87851236D01*
X137398609Y-87847367D01*
X137427062Y-87844753D01*
X137433447Y-87842752D01*
X137583450Y-87795744D01*
X137583452Y-87795743D01*
X137590699Y-87793472D01*
X137737381Y-87704639D01*
X137832905Y-87609115D01*
X137895217Y-87575089D01*
X137966032Y-87580154D01*
X138011095Y-87609115D01*
X138106619Y-87704639D01*
X138253301Y-87793472D01*
X138260548Y-87795743D01*
X138260550Y-87795744D01*
X138267625Y-87797961D01*
X138416938Y-87844753D01*
X138490365Y-87851500D01*
X138493263Y-87851500D01*
X138747665Y-87851499D01*
X139003634Y-87851499D01*
X139006492Y-87851236D01*
X139006501Y-87851236D01*
X139048609Y-87847367D01*
X139077062Y-87844753D01*
X139083447Y-87842752D01*
X139233450Y-87795744D01*
X139233452Y-87795743D01*
X139240699Y-87793472D01*
X139387381Y-87704639D01*
X139424940Y-87667080D01*
X139487252Y-87633054D01*
X139498839Y-87633883D01*
X139512591Y-87576856D01*
X139514189Y-87574218D01*
X139566591Y-87526316D01*
X139621958Y-87513500D01*
X139622998Y-87513500D01*
X139691119Y-87533502D01*
X139737612Y-87587158D01*
X139747716Y-87657432D01*
X139718222Y-87722012D01*
X139712093Y-87728595D01*
X139709455Y-87731233D01*
X139647143Y-87765259D01*
X139635557Y-87764430D01*
X139621811Y-87821446D01*
X139540923Y-87955008D01*
X139534715Y-87968757D01*
X139487744Y-88118644D01*
X139485131Y-88131694D01*
X139480087Y-88186586D01*
X139483475Y-88198124D01*
X139484865Y-88199329D01*
X139492548Y-88201000D01*
X141359294Y-88201000D01*
X141427415Y-88221002D01*
X141473908Y-88274658D01*
X141480190Y-88291503D01*
X141489474Y-88323124D01*
X141490865Y-88324329D01*
X141498548Y-88326000D01*
X142300385Y-88326000D01*
X142315624Y-88321525D01*
X142316829Y-88320135D01*
X142318500Y-88312452D01*
X142318500Y-87790116D01*
X142314025Y-87774877D01*
X142312635Y-87773672D01*
X142304952Y-87772001D01*
X141921017Y-87772001D01*
X141916080Y-87772195D01*
X141887664Y-87774430D01*
X141875069Y-87776730D01*
X141729210Y-87819107D01*
X141714779Y-87825352D01*
X141585322Y-87901911D01*
X141572896Y-87911551D01*
X141551910Y-87932537D01*
X141489598Y-87966563D01*
X141418783Y-87961498D01*
X141361947Y-87918951D01*
X141355039Y-87908713D01*
X141302178Y-87821429D01*
X141292869Y-87809557D01*
X141202761Y-87719449D01*
X141168735Y-87657137D01*
X141173800Y-87586322D01*
X141202761Y-87541259D01*
X141298639Y-87445381D01*
X141302575Y-87438882D01*
X141304246Y-87436751D01*
X141362020Y-87395488D01*
X141403398Y-87388500D01*
X141601294Y-87388500D01*
X141665431Y-87406045D01*
X141721399Y-87439145D01*
X141729010Y-87441356D01*
X141729012Y-87441357D01*
X141781231Y-87456528D01*
X141881169Y-87485562D01*
X141887574Y-87486066D01*
X141887579Y-87486067D01*
X141916042Y-87488307D01*
X141916050Y-87488307D01*
X141918498Y-87488500D01*
X143075500Y-87488500D01*
X143143621Y-87508502D01*
X143190114Y-87562158D01*
X143201500Y-87614500D01*
X143201500Y-87646000D01*
X143181498Y-87714121D01*
X143127842Y-87760614D01*
X143075500Y-87772000D01*
X142844615Y-87772000D01*
X142829376Y-87776475D01*
X142828171Y-87777865D01*
X142826500Y-87785548D01*
X142826500Y-88307885D01*
X142830975Y-88323124D01*
X142832365Y-88324329D01*
X142840048Y-88326000D01*
X143455158Y-88326000D01*
X143519297Y-88343547D01*
X143596399Y-88389145D01*
X143604010Y-88391356D01*
X143604012Y-88391357D01*
X143656231Y-88406528D01*
X143756169Y-88435562D01*
X143762574Y-88436066D01*
X143762579Y-88436067D01*
X143791042Y-88438307D01*
X143791050Y-88438307D01*
X143793498Y-88438500D01*
X145101502Y-88438500D01*
X145103950Y-88438307D01*
X145103958Y-88438307D01*
X145132421Y-88436067D01*
X145132426Y-88436066D01*
X145138831Y-88435562D01*
X145238769Y-88406528D01*
X145290988Y-88391357D01*
X145290990Y-88391356D01*
X145298601Y-88389145D01*
X145354569Y-88356045D01*
X145418706Y-88338500D01*
X146150262Y-88338500D01*
X146218383Y-88358502D01*
X146264876Y-88412158D01*
X146267750Y-88420505D01*
X146268255Y-88420316D01*
X146319385Y-88556705D01*
X146406739Y-88673261D01*
X146523295Y-88760615D01*
X146659684Y-88811745D01*
X146721866Y-88818500D01*
X147324340Y-88818500D01*
X147392461Y-88838502D01*
X147413435Y-88855405D01*
X147416271Y-88858241D01*
X147427935Y-88871682D01*
X147444090Y-88893198D01*
X147454548Y-88903878D01*
X147457789Y-88906419D01*
X147462812Y-88910358D01*
X147469020Y-88915558D01*
X147679411Y-89103574D01*
X147679421Y-89103582D01*
X147682044Y-89105926D01*
X147930147Y-89281965D01*
X148196401Y-89429118D01*
X148477456Y-89545535D01*
X148769779Y-89629752D01*
X149069693Y-89680710D01*
X149174218Y-89686580D01*
X149334320Y-89695571D01*
X149345007Y-89696630D01*
X149352113Y-89697641D01*
X149358480Y-89698547D01*
X149365528Y-89698621D01*
X149369293Y-89698661D01*
X149369299Y-89698661D01*
X149373427Y-89698704D01*
X149408887Y-89694413D01*
X149424022Y-89693500D01*
X151420199Y-89693500D01*
X151488320Y-89713502D01*
X151523411Y-89747228D01*
X151532538Y-89760262D01*
X151535699Y-89764776D01*
X151685224Y-89914301D01*
X151858442Y-90035589D01*
X151863420Y-90037910D01*
X151863423Y-90037912D01*
X152040894Y-90120668D01*
X152050090Y-90124956D01*
X152055398Y-90126378D01*
X152055400Y-90126379D01*
X152249030Y-90178262D01*
X152249032Y-90178262D01*
X152254345Y-90179686D01*
X152465000Y-90198116D01*
X152675655Y-90179686D01*
X152680968Y-90178262D01*
X152680970Y-90178262D01*
X152874600Y-90126379D01*
X152874602Y-90126378D01*
X152879910Y-90124956D01*
X152889106Y-90120668D01*
X153066577Y-90037912D01*
X153066580Y-90037910D01*
X153071558Y-90035589D01*
X153244776Y-89914301D01*
X153394301Y-89764776D01*
X153515589Y-89591558D01*
X153536594Y-89546514D01*
X153602633Y-89404892D01*
X153602634Y-89404891D01*
X153604956Y-89399910D01*
X153608799Y-89385570D01*
X153658262Y-89200970D01*
X153658262Y-89200968D01*
X153659686Y-89195655D01*
X153678116Y-88985000D01*
X163951884Y-88985000D01*
X163970314Y-89195655D01*
X163971738Y-89200968D01*
X163971738Y-89200970D01*
X164021202Y-89385570D01*
X164025044Y-89399910D01*
X164027366Y-89404891D01*
X164027367Y-89404892D01*
X164093407Y-89546514D01*
X164114411Y-89591558D01*
X164235699Y-89764776D01*
X164385224Y-89914301D01*
X164558442Y-90035589D01*
X164563420Y-90037910D01*
X164563423Y-90037912D01*
X164740894Y-90120668D01*
X164750090Y-90124956D01*
X164755398Y-90126378D01*
X164755400Y-90126379D01*
X164949030Y-90178262D01*
X164949032Y-90178262D01*
X164954345Y-90179686D01*
X165165000Y-90198116D01*
X165375655Y-90179686D01*
X165380968Y-90178262D01*
X165380970Y-90178262D01*
X165574600Y-90126379D01*
X165574602Y-90126378D01*
X165579910Y-90124956D01*
X165589106Y-90120668D01*
X165766577Y-90037912D01*
X165766580Y-90037910D01*
X165771558Y-90035589D01*
X165944776Y-89914301D01*
X166094301Y-89764776D01*
X166215589Y-89591558D01*
X166236594Y-89546514D01*
X166302633Y-89404892D01*
X166302634Y-89404891D01*
X166304956Y-89399910D01*
X166308799Y-89385570D01*
X166337107Y-89279919D01*
X166343300Y-89256806D01*
X166375912Y-89200323D01*
X170590913Y-84985321D01*
X177866320Y-84985321D01*
X177872444Y-85245187D01*
X177889169Y-85339557D01*
X177900612Y-85404119D01*
X177917806Y-85501137D01*
X178001360Y-85747281D01*
X178121185Y-85977954D01*
X178124000Y-85981808D01*
X178124003Y-85981812D01*
X178254845Y-86160911D01*
X178274523Y-86187847D01*
X178345874Y-86259573D01*
X178454471Y-86368741D01*
X178454476Y-86368745D01*
X178457845Y-86372132D01*
X178461697Y-86374977D01*
X178461698Y-86374978D01*
X178539684Y-86432579D01*
X178666934Y-86526567D01*
X178671172Y-86528797D01*
X178671174Y-86528798D01*
X178717460Y-86553150D01*
X178896976Y-86647598D01*
X178901495Y-86649159D01*
X178901501Y-86649161D01*
X179081159Y-86711197D01*
X179142679Y-86732440D01*
X179398388Y-86779141D01*
X179481561Y-86783500D01*
X179643599Y-86783500D01*
X179645978Y-86783319D01*
X179645979Y-86783319D01*
X179831923Y-86769175D01*
X179831928Y-86769174D01*
X179836690Y-86768812D01*
X179841344Y-86767733D01*
X179841346Y-86767733D01*
X180085260Y-86711197D01*
X180089915Y-86710118D01*
X180331348Y-86613795D01*
X180443717Y-86547737D01*
X180512577Y-86530458D01*
X180579850Y-86553150D01*
X180624174Y-86608611D01*
X180631478Y-86679231D01*
X180628750Y-86690877D01*
X180590193Y-86826233D01*
X180558756Y-86936594D01*
X180551600Y-86986879D01*
X180521321Y-87199634D01*
X180518249Y-87221216D01*
X180518227Y-87225505D01*
X180518226Y-87225512D01*
X180516765Y-87504417D01*
X180516743Y-87508703D01*
X180517302Y-87512947D01*
X180517302Y-87512951D01*
X180526962Y-87586322D01*
X180554268Y-87793734D01*
X180630129Y-88071036D01*
X180631813Y-88074984D01*
X180717308Y-88275422D01*
X180742923Y-88335476D01*
X180768638Y-88378442D01*
X180886515Y-88575400D01*
X180890561Y-88582161D01*
X181070313Y-88806528D01*
X181278851Y-89004423D01*
X181512317Y-89172186D01*
X181516112Y-89174195D01*
X181516113Y-89174196D01*
X181537869Y-89185715D01*
X181766392Y-89306712D01*
X181790699Y-89315607D01*
X182021068Y-89399910D01*
X182036373Y-89405511D01*
X182317264Y-89466755D01*
X182345841Y-89469004D01*
X182540282Y-89484307D01*
X182540291Y-89484307D01*
X182542739Y-89484500D01*
X182698271Y-89484500D01*
X182700407Y-89484354D01*
X182700418Y-89484354D01*
X182908548Y-89470165D01*
X182908554Y-89470164D01*
X182912825Y-89469873D01*
X182917020Y-89469004D01*
X182917022Y-89469004D01*
X183103101Y-89430469D01*
X183194342Y-89411574D01*
X183465343Y-89315607D01*
X183688702Y-89200323D01*
X183717005Y-89185715D01*
X183717006Y-89185715D01*
X183720812Y-89183750D01*
X183724313Y-89181289D01*
X183724317Y-89181287D01*
X183915824Y-89046693D01*
X183956023Y-89018441D01*
X184121628Y-88864551D01*
X184163479Y-88825661D01*
X184163481Y-88825658D01*
X184166622Y-88822740D01*
X184348713Y-88600268D01*
X184498927Y-88355142D01*
X184511720Y-88326000D01*
X184612757Y-88095830D01*
X184614483Y-88091898D01*
X184625695Y-88052540D01*
X184673753Y-87883831D01*
X184693244Y-87815406D01*
X184725847Y-87586322D01*
X184733146Y-87535036D01*
X184733146Y-87535034D01*
X184733751Y-87530784D01*
X184733775Y-87526316D01*
X184735235Y-87247583D01*
X184735235Y-87247576D01*
X184735257Y-87243297D01*
X184724537Y-87161866D01*
X184698292Y-86962522D01*
X184697732Y-86958266D01*
X184621871Y-86680964D01*
X184567353Y-86553150D01*
X184510763Y-86420476D01*
X184510761Y-86420472D01*
X184509077Y-86416524D01*
X184361439Y-86169839D01*
X184181687Y-85945472D01*
X184058289Y-85828372D01*
X183976258Y-85750527D01*
X183976255Y-85750525D01*
X183973149Y-85747577D01*
X183739683Y-85579814D01*
X183717843Y-85568250D01*
X183692283Y-85554717D01*
X183485608Y-85445288D01*
X183215627Y-85346489D01*
X182934736Y-85285245D01*
X182903685Y-85282801D01*
X182711718Y-85267693D01*
X182711709Y-85267693D01*
X182709261Y-85267500D01*
X182553729Y-85267500D01*
X182551593Y-85267646D01*
X182551582Y-85267646D01*
X182343452Y-85281835D01*
X182343446Y-85281836D01*
X182339175Y-85282127D01*
X182334980Y-85282996D01*
X182334978Y-85282996D01*
X182198416Y-85311277D01*
X182057658Y-85340426D01*
X181786657Y-85436393D01*
X181531188Y-85568250D01*
X181527687Y-85570711D01*
X181527683Y-85570713D01*
X181425299Y-85642670D01*
X181358064Y-85665475D01*
X181289174Y-85648310D01*
X181240500Y-85596625D01*
X181227495Y-85526830D01*
X181231759Y-85504747D01*
X181254105Y-85427075D01*
X181254106Y-85427070D01*
X181255426Y-85422482D01*
X181288680Y-85164679D01*
X181282556Y-84904813D01*
X181237194Y-84648863D01*
X181153640Y-84402719D01*
X181033815Y-84172046D01*
X181022173Y-84156109D01*
X180883300Y-83966017D01*
X180883299Y-83966016D01*
X180880477Y-83962153D01*
X180764158Y-83845223D01*
X180700529Y-83781259D01*
X180700524Y-83781255D01*
X180697155Y-83777868D01*
X180488066Y-83623433D01*
X180258024Y-83502402D01*
X180253505Y-83500841D01*
X180253499Y-83500839D01*
X180016839Y-83419120D01*
X180016838Y-83419120D01*
X180012321Y-83417560D01*
X179756612Y-83370859D01*
X179673439Y-83366500D01*
X179511401Y-83366500D01*
X179509022Y-83366681D01*
X179509021Y-83366681D01*
X179323077Y-83380825D01*
X179323072Y-83380826D01*
X179318310Y-83381188D01*
X179313656Y-83382267D01*
X179313654Y-83382267D01*
X179165095Y-83416701D01*
X179065085Y-83439882D01*
X178823652Y-83536205D01*
X178599566Y-83667938D01*
X178397985Y-83832051D01*
X178223547Y-84024767D01*
X178080267Y-84241651D01*
X178078266Y-84245991D01*
X178078264Y-84245995D01*
X178006013Y-84402719D01*
X177971441Y-84477712D01*
X177899574Y-84727518D01*
X177866320Y-84985321D01*
X170590913Y-84985321D01*
X173457204Y-82119030D01*
X173467690Y-82109654D01*
X173468055Y-82109363D01*
X173495706Y-82087289D01*
X173499683Y-82082583D01*
X173499688Y-82082578D01*
X173512564Y-82067341D01*
X173526971Y-82052859D01*
X173613098Y-81979300D01*
X173629093Y-81967679D01*
X173744836Y-81896751D01*
X173762454Y-81887774D01*
X173887880Y-81835822D01*
X173906682Y-81829713D01*
X173992598Y-81809086D01*
X174038678Y-81798022D01*
X174058200Y-81794930D01*
X174131879Y-81789131D01*
X174158083Y-81787069D01*
X174182011Y-81787466D01*
X174189278Y-81788281D01*
X174240951Y-81783942D01*
X174251494Y-81783500D01*
X176387131Y-81783500D01*
X176455252Y-81803502D01*
X176494272Y-81843193D01*
X176529022Y-81899348D01*
X176654197Y-82024305D01*
X176660427Y-82028145D01*
X176660428Y-82028146D01*
X176797590Y-82112694D01*
X176804762Y-82117115D01*
X176884505Y-82143564D01*
X176966111Y-82170632D01*
X176966113Y-82170632D01*
X176972639Y-82172797D01*
X176979475Y-82173497D01*
X176979478Y-82173498D01*
X177022531Y-82177909D01*
X177077100Y-82183500D01*
X180277900Y-82183500D01*
X180281146Y-82183163D01*
X180281150Y-82183163D01*
X180376808Y-82173238D01*
X180376812Y-82173237D01*
X180383666Y-82172526D01*
X180390202Y-82170345D01*
X180390204Y-82170345D01*
X180522306Y-82126272D01*
X180551446Y-82116550D01*
X180701848Y-82023478D01*
X180826805Y-81898303D01*
X180865319Y-81835822D01*
X180915775Y-81753968D01*
X180915776Y-81753966D01*
X180919615Y-81747738D01*
X180949775Y-81656807D01*
X180973132Y-81586389D01*
X180973132Y-81586387D01*
X180975297Y-81579861D01*
X180986000Y-81475400D01*
X180986000Y-80074600D01*
X180975026Y-79968834D01*
X180919050Y-79801054D01*
X180825978Y-79650652D01*
X180700803Y-79525695D01*
X180694572Y-79521854D01*
X180556468Y-79436725D01*
X180556466Y-79436724D01*
X180550238Y-79432885D01*
X180389754Y-79379655D01*
X180388889Y-79379368D01*
X180388887Y-79379368D01*
X180382361Y-79377203D01*
X180375525Y-79376503D01*
X180375522Y-79376502D01*
X180332469Y-79372091D01*
X180277900Y-79366500D01*
X177077100Y-79366500D01*
X177073854Y-79366837D01*
X177073850Y-79366837D01*
X176978192Y-79376762D01*
X176978188Y-79376763D01*
X176971334Y-79377474D01*
X176964798Y-79379655D01*
X176964796Y-79379655D01*
X176906486Y-79399109D01*
X176803554Y-79433450D01*
X176653152Y-79526522D01*
X176528195Y-79651697D01*
X176524356Y-79657925D01*
X176524352Y-79657930D01*
X176494341Y-79706617D01*
X176441569Y-79754110D01*
X176387082Y-79766500D01*
X174275149Y-79766500D01*
X174259371Y-79765508D01*
X174231722Y-79762015D01*
X174203427Y-79761620D01*
X174199939Y-79761962D01*
X174180877Y-79763831D01*
X174174764Y-79764280D01*
X173911276Y-79777224D01*
X173911271Y-79777224D01*
X173908187Y-79777376D01*
X173615790Y-79820749D01*
X173329052Y-79892573D01*
X173050735Y-79992157D01*
X173047945Y-79993477D01*
X173047944Y-79993477D01*
X172883296Y-80071350D01*
X172783519Y-80118541D01*
X172780877Y-80120124D01*
X172780878Y-80120124D01*
X172532628Y-80268919D01*
X172532619Y-80268925D01*
X172529978Y-80270508D01*
X172527493Y-80272351D01*
X172439561Y-80337566D01*
X172292553Y-80446594D01*
X172119670Y-80603286D01*
X172112301Y-80609467D01*
X172095725Y-80622324D01*
X172095719Y-80622329D01*
X172092932Y-80624491D01*
X172090401Y-80626952D01*
X172090399Y-80626954D01*
X172075170Y-80641763D01*
X172075165Y-80641768D01*
X172072645Y-80644219D01*
X172070415Y-80646934D01*
X172070414Y-80646935D01*
X172044806Y-80678111D01*
X172036536Y-80687230D01*
X164949679Y-87774087D01*
X164893195Y-87806699D01*
X164876550Y-87811159D01*
X164755400Y-87843621D01*
X164755398Y-87843622D01*
X164750090Y-87845044D01*
X164745109Y-87847366D01*
X164745108Y-87847367D01*
X164563423Y-87932088D01*
X164563420Y-87932090D01*
X164558442Y-87934411D01*
X164385224Y-88055699D01*
X164235699Y-88205224D01*
X164114411Y-88378442D01*
X164112090Y-88383420D01*
X164112088Y-88383423D01*
X164027367Y-88565108D01*
X164025044Y-88570090D01*
X164023622Y-88575398D01*
X164023621Y-88575400D01*
X163985065Y-88719294D01*
X163970314Y-88774345D01*
X163951884Y-88985000D01*
X153678116Y-88985000D01*
X153659686Y-88774345D01*
X153644935Y-88719294D01*
X153606379Y-88575400D01*
X153606378Y-88575398D01*
X153604956Y-88570090D01*
X153602633Y-88565108D01*
X153517912Y-88383423D01*
X153517910Y-88383420D01*
X153515589Y-88378442D01*
X153394301Y-88205224D01*
X153244776Y-88055699D01*
X153071558Y-87934411D01*
X153066580Y-87932090D01*
X153066577Y-87932088D01*
X152884892Y-87847367D01*
X152884891Y-87847366D01*
X152879910Y-87845044D01*
X152874602Y-87843622D01*
X152874600Y-87843621D01*
X152680970Y-87791738D01*
X152680968Y-87791738D01*
X152675655Y-87790314D01*
X152465000Y-87771884D01*
X152254345Y-87790314D01*
X152249032Y-87791738D01*
X152249030Y-87791738D01*
X152055400Y-87843621D01*
X152055398Y-87843622D01*
X152050090Y-87845044D01*
X152045109Y-87847366D01*
X152045108Y-87847367D01*
X151863423Y-87932088D01*
X151863420Y-87932090D01*
X151858442Y-87934411D01*
X151685224Y-88055699D01*
X151535699Y-88205224D01*
X151532540Y-88209736D01*
X151532538Y-88209738D01*
X151523411Y-88222772D01*
X151467953Y-88267100D01*
X151420199Y-88276500D01*
X149428391Y-88276500D01*
X149411945Y-88275422D01*
X149388432Y-88272326D01*
X149388428Y-88272326D01*
X149380901Y-88271335D01*
X149362322Y-88273386D01*
X149338615Y-88273759D01*
X149181277Y-88261376D01*
X149161749Y-88258283D01*
X148983968Y-88215601D01*
X148965173Y-88209494D01*
X148871456Y-88170676D01*
X148796256Y-88139527D01*
X148778639Y-88130550D01*
X148622758Y-88035025D01*
X148606763Y-88023404D01*
X148542779Y-87968757D01*
X148492558Y-87925864D01*
X148474429Y-87906761D01*
X148469135Y-87899861D01*
X148437813Y-87874767D01*
X148427499Y-87865528D01*
X148415405Y-87853434D01*
X148381379Y-87791122D01*
X148378500Y-87764339D01*
X148378500Y-87161866D01*
X148371745Y-87099684D01*
X148320615Y-86963295D01*
X148233261Y-86846739D01*
X148116705Y-86759385D01*
X147980316Y-86708255D01*
X147918134Y-86701500D01*
X146721866Y-86701500D01*
X146659684Y-86708255D01*
X146523295Y-86759385D01*
X146406739Y-86846739D01*
X146388666Y-86870855D01*
X146388509Y-86871064D01*
X146331650Y-86913580D01*
X146287682Y-86921500D01*
X145418706Y-86921500D01*
X145354569Y-86903955D01*
X145298601Y-86870855D01*
X145290990Y-86868644D01*
X145290988Y-86868643D01*
X145215592Y-86846739D01*
X145138831Y-86824438D01*
X145132426Y-86823934D01*
X145132421Y-86823933D01*
X145103958Y-86821693D01*
X145103950Y-86821693D01*
X145101502Y-86821500D01*
X143944500Y-86821500D01*
X143876379Y-86801498D01*
X143829886Y-86747842D01*
X143818500Y-86695500D01*
X143818500Y-86463498D01*
X143815562Y-86426169D01*
X143769145Y-86266399D01*
X143724695Y-86191238D01*
X143688491Y-86130020D01*
X143688489Y-86130017D01*
X143684453Y-86123193D01*
X143566807Y-86005547D01*
X143559983Y-86001511D01*
X143559980Y-86001509D01*
X143430427Y-85924892D01*
X143430428Y-85924892D01*
X143423601Y-85920855D01*
X143415990Y-85918644D01*
X143415988Y-85918643D01*
X143339773Y-85896501D01*
X143263831Y-85874438D01*
X143257426Y-85873934D01*
X143257421Y-85873933D01*
X143228958Y-85871693D01*
X143228950Y-85871693D01*
X143226502Y-85871500D01*
X141918498Y-85871500D01*
X141916050Y-85871693D01*
X141916042Y-85871693D01*
X141887579Y-85873933D01*
X141887574Y-85873934D01*
X141881169Y-85874438D01*
X141805227Y-85896501D01*
X141729012Y-85918643D01*
X141729010Y-85918644D01*
X141721399Y-85920855D01*
X141665431Y-85953955D01*
X141601294Y-85971500D01*
X141093198Y-85971500D01*
X141041350Y-85960338D01*
X141037194Y-85958462D01*
X141030699Y-85954528D01*
X141023452Y-85952257D01*
X141023450Y-85952256D01*
X140936121Y-85924889D01*
X140867062Y-85903247D01*
X140793635Y-85896500D01*
X140790737Y-85896500D01*
X140461140Y-85896501D01*
X140130366Y-85896501D01*
X140127508Y-85896764D01*
X140127499Y-85896764D01*
X140091996Y-85900026D01*
X140056938Y-85903247D01*
X140050560Y-85905246D01*
X140050559Y-85905246D01*
X139900550Y-85952256D01*
X139900548Y-85952257D01*
X139893301Y-85954528D01*
X139746619Y-86043361D01*
X139730385Y-86059595D01*
X139668073Y-86093621D01*
X139641290Y-86096500D01*
X139504710Y-86096500D01*
X139436589Y-86076498D01*
X139415615Y-86059595D01*
X139387381Y-86031361D01*
X139240699Y-85942528D01*
X139233452Y-85940257D01*
X139233450Y-85940256D01*
X139131634Y-85908349D01*
X139077062Y-85891247D01*
X139003635Y-85884500D01*
X139000737Y-85884500D01*
X138746335Y-85884501D01*
X138490366Y-85884501D01*
X138487508Y-85884764D01*
X138487499Y-85884764D01*
X138451996Y-85888026D01*
X138416938Y-85891247D01*
X138410560Y-85893246D01*
X138410559Y-85893246D01*
X138260550Y-85940256D01*
X138260548Y-85940257D01*
X138253301Y-85942528D01*
X138106619Y-86031361D01*
X138011095Y-86126885D01*
X137948783Y-86160911D01*
X137877968Y-86155846D01*
X137832905Y-86126885D01*
X137737381Y-86031361D01*
X137590699Y-85942528D01*
X137583452Y-85940257D01*
X137583450Y-85940256D01*
X137481634Y-85908349D01*
X137427062Y-85891247D01*
X137353635Y-85884500D01*
X137167660Y-85884500D01*
X137099539Y-85864498D01*
X137078565Y-85847595D01*
X136789104Y-85558134D01*
X146261500Y-85558134D01*
X146268255Y-85620316D01*
X146319385Y-85756705D01*
X146406739Y-85873261D01*
X146523295Y-85960615D01*
X146659684Y-86011745D01*
X146721866Y-86018500D01*
X147918134Y-86018500D01*
X147980316Y-86011745D01*
X148116705Y-85960615D01*
X148233261Y-85873261D01*
X148252497Y-85847595D01*
X148315233Y-85763887D01*
X148315235Y-85763884D01*
X148320615Y-85756705D01*
X148332575Y-85724801D01*
X148375214Y-85668039D01*
X148429448Y-85644813D01*
X148665221Y-85604753D01*
X148957544Y-85520536D01*
X149238599Y-85404119D01*
X149504853Y-85256966D01*
X149752957Y-85080927D01*
X149950593Y-84904308D01*
X149958901Y-84897498D01*
X149966469Y-84891816D01*
X149966470Y-84891815D01*
X149969772Y-84889336D01*
X149972719Y-84886451D01*
X149972724Y-84886446D01*
X149977506Y-84881763D01*
X149977508Y-84881761D01*
X149980452Y-84878878D01*
X150002501Y-84850758D01*
X150012560Y-84839410D01*
X152229294Y-82622676D01*
X152291606Y-82588650D01*
X152329371Y-82586250D01*
X152459525Y-82597637D01*
X152465000Y-82598116D01*
X152675655Y-82579686D01*
X152680968Y-82578262D01*
X152680970Y-82578262D01*
X152874600Y-82526379D01*
X152874602Y-82526378D01*
X152879910Y-82524956D01*
X152884892Y-82522633D01*
X153066577Y-82437912D01*
X153066580Y-82437910D01*
X153071558Y-82435589D01*
X153244776Y-82314301D01*
X153394301Y-82164776D01*
X153515589Y-81991558D01*
X153563985Y-81887774D01*
X153602633Y-81804892D01*
X153602634Y-81804891D01*
X153604956Y-81799910D01*
X153608291Y-81787466D01*
X153658262Y-81600970D01*
X153658262Y-81600968D01*
X153659686Y-81595655D01*
X153678116Y-81385000D01*
X166491884Y-81385000D01*
X166510314Y-81595655D01*
X166511738Y-81600968D01*
X166511738Y-81600970D01*
X166561710Y-81787466D01*
X166565044Y-81799910D01*
X166567366Y-81804891D01*
X166567367Y-81804892D01*
X166606016Y-81887774D01*
X166654411Y-81991558D01*
X166775699Y-82164776D01*
X166925224Y-82314301D01*
X167098442Y-82435589D01*
X167103420Y-82437910D01*
X167103423Y-82437912D01*
X167285108Y-82522633D01*
X167290090Y-82524956D01*
X167295398Y-82526378D01*
X167295400Y-82526379D01*
X167489030Y-82578262D01*
X167489032Y-82578262D01*
X167494345Y-82579686D01*
X167705000Y-82598116D01*
X167915655Y-82579686D01*
X167920968Y-82578262D01*
X167920970Y-82578262D01*
X168114600Y-82526379D01*
X168114602Y-82526378D01*
X168119910Y-82524956D01*
X168124892Y-82522633D01*
X168306577Y-82437912D01*
X168306580Y-82437910D01*
X168311558Y-82435589D01*
X168484776Y-82314301D01*
X168634301Y-82164776D01*
X168755589Y-81991558D01*
X168803985Y-81887774D01*
X168842633Y-81804892D01*
X168842634Y-81804891D01*
X168844956Y-81799910D01*
X168848291Y-81787466D01*
X168883300Y-81656807D01*
X168915912Y-81600323D01*
X171897204Y-78619030D01*
X171907690Y-78609654D01*
X171916734Y-78602434D01*
X171935706Y-78587289D01*
X171939683Y-78582583D01*
X171939688Y-78582578D01*
X171952564Y-78567341D01*
X171966971Y-78552859D01*
X172053098Y-78479300D01*
X172069093Y-78467679D01*
X172184836Y-78396751D01*
X172202454Y-78387774D01*
X172327880Y-78335822D01*
X172346682Y-78329713D01*
X172432598Y-78309086D01*
X172478678Y-78298022D01*
X172498200Y-78294930D01*
X172580928Y-78288419D01*
X172598083Y-78287069D01*
X172622011Y-78287466D01*
X172629278Y-78288281D01*
X172680951Y-78283942D01*
X172691494Y-78283500D01*
X176740942Y-78283500D01*
X176809063Y-78303502D01*
X176820833Y-78312066D01*
X176972705Y-78436594D01*
X176972711Y-78436598D01*
X176976833Y-78439978D01*
X176981469Y-78442617D01*
X176981472Y-78442619D01*
X177094886Y-78507178D01*
X177184566Y-78558227D01*
X177409253Y-78639784D01*
X177414502Y-78640733D01*
X177414505Y-78640734D01*
X177640385Y-78681580D01*
X177640393Y-78681581D01*
X177644469Y-78682318D01*
X177662859Y-78683185D01*
X177668044Y-78683430D01*
X177668051Y-78683430D01*
X177669532Y-78683500D01*
X179637512Y-78683500D01*
X179815675Y-78668383D01*
X179820839Y-78667043D01*
X179820843Y-78667042D01*
X180041875Y-78609673D01*
X180041880Y-78609671D01*
X180047040Y-78608332D01*
X180125854Y-78572829D01*
X180260119Y-78512347D01*
X180260122Y-78512346D01*
X180264980Y-78510157D01*
X180463262Y-78376666D01*
X180474867Y-78365596D01*
X180632361Y-78215353D01*
X180636218Y-78211674D01*
X180778902Y-78019900D01*
X180801786Y-77974892D01*
X180884814Y-77811586D01*
X180884814Y-77811585D01*
X180887233Y-77806828D01*
X180933267Y-77658574D01*
X180956532Y-77583651D01*
X180956533Y-77583645D01*
X180958116Y-77578548D01*
X180981251Y-77404000D01*
X180988823Y-77346873D01*
X180988823Y-77346869D01*
X180989523Y-77341589D01*
X180987414Y-77285401D01*
X180983880Y-77191288D01*
X180980555Y-77102726D01*
X180937389Y-76897000D01*
X180932567Y-76874016D01*
X180932566Y-76874013D01*
X180931470Y-76868789D01*
X180843671Y-76646467D01*
X180719668Y-76442117D01*
X180704275Y-76424378D01*
X180566507Y-76265614D01*
X180566505Y-76265612D01*
X180563007Y-76261581D01*
X180558881Y-76258198D01*
X180558877Y-76258194D01*
X180404361Y-76131500D01*
X180378167Y-76110022D01*
X180373531Y-76107383D01*
X180373528Y-76107381D01*
X180175077Y-75994416D01*
X180170434Y-75991773D01*
X179945747Y-75910216D01*
X179940498Y-75909267D01*
X179940495Y-75909266D01*
X179714615Y-75868420D01*
X179714607Y-75868419D01*
X179710531Y-75867682D01*
X179692141Y-75866815D01*
X179686956Y-75866570D01*
X179686949Y-75866570D01*
X179685468Y-75866500D01*
X177717488Y-75866500D01*
X177539325Y-75881617D01*
X177534161Y-75882957D01*
X177534157Y-75882958D01*
X177313125Y-75940327D01*
X177313120Y-75940329D01*
X177307960Y-75941668D01*
X177303094Y-75943860D01*
X177094881Y-76037653D01*
X177094878Y-76037654D01*
X177090020Y-76039843D01*
X177085596Y-76042822D01*
X177085595Y-76042822D01*
X177069338Y-76053767D01*
X176891738Y-76173334D01*
X176887881Y-76177013D01*
X176887879Y-76177015D01*
X176830586Y-76231670D01*
X176767489Y-76264217D01*
X176743614Y-76266500D01*
X172715149Y-76266500D01*
X172699371Y-76265508D01*
X172671722Y-76262015D01*
X172643427Y-76261620D01*
X172639939Y-76261962D01*
X172620877Y-76263831D01*
X172614764Y-76264280D01*
X172351276Y-76277224D01*
X172351271Y-76277224D01*
X172348187Y-76277376D01*
X172055790Y-76320749D01*
X171769052Y-76392573D01*
X171490735Y-76492157D01*
X171487945Y-76493477D01*
X171487944Y-76493477D01*
X171233964Y-76613601D01*
X171223519Y-76618541D01*
X171220877Y-76620124D01*
X171220878Y-76620124D01*
X170972628Y-76768919D01*
X170972619Y-76768925D01*
X170969978Y-76770508D01*
X170967493Y-76772351D01*
X170736136Y-76943937D01*
X170732553Y-76946594D01*
X170559670Y-77103286D01*
X170552301Y-77109467D01*
X170535725Y-77122324D01*
X170535719Y-77122329D01*
X170532932Y-77124491D01*
X170530401Y-77126952D01*
X170530399Y-77126954D01*
X170515170Y-77141763D01*
X170515165Y-77141768D01*
X170512645Y-77144219D01*
X170510415Y-77146934D01*
X170510414Y-77146935D01*
X170484806Y-77178111D01*
X170476536Y-77187230D01*
X167489679Y-80174087D01*
X167433195Y-80206699D01*
X167295400Y-80243621D01*
X167295398Y-80243622D01*
X167290090Y-80245044D01*
X167285109Y-80247366D01*
X167285108Y-80247367D01*
X167103423Y-80332088D01*
X167103420Y-80332090D01*
X167098442Y-80334411D01*
X166925224Y-80455699D01*
X166775699Y-80605224D01*
X166654411Y-80778442D01*
X166565044Y-80970090D01*
X166510314Y-81174345D01*
X166491884Y-81385000D01*
X153678116Y-81385000D01*
X153659686Y-81174345D01*
X153604956Y-80970090D01*
X153515589Y-80778442D01*
X153394301Y-80605224D01*
X153244776Y-80455699D01*
X153071558Y-80334411D01*
X153066580Y-80332090D01*
X153066577Y-80332088D01*
X152884892Y-80247367D01*
X152884891Y-80247366D01*
X152879910Y-80245044D01*
X152874602Y-80243622D01*
X152874600Y-80243621D01*
X152680970Y-80191738D01*
X152680968Y-80191738D01*
X152675655Y-80190314D01*
X152465000Y-80171884D01*
X152254345Y-80190314D01*
X152249032Y-80191738D01*
X152249030Y-80191738D01*
X152055400Y-80243621D01*
X152055398Y-80243622D01*
X152050090Y-80245044D01*
X152045109Y-80247366D01*
X152045108Y-80247367D01*
X151863423Y-80332088D01*
X151863420Y-80332090D01*
X151858442Y-80334411D01*
X151685224Y-80455699D01*
X151535699Y-80605224D01*
X151414411Y-80778442D01*
X151325044Y-80970090D01*
X151270314Y-81174345D01*
X151251884Y-81385000D01*
X151252363Y-81390475D01*
X151263750Y-81520629D01*
X151249761Y-81590234D01*
X151227324Y-81620706D01*
X149013675Y-83834355D01*
X149001284Y-83845223D01*
X148982457Y-83859669D01*
X148982455Y-83859671D01*
X148976434Y-83864291D01*
X148964741Y-83878886D01*
X148948239Y-83895914D01*
X148828238Y-83998404D01*
X148812243Y-84010025D01*
X148656356Y-84105554D01*
X148638745Y-84114528D01*
X148469827Y-84184496D01*
X148451033Y-84190602D01*
X148438402Y-84193635D01*
X148367495Y-84190088D01*
X148308163Y-84146681D01*
X148238642Y-84053919D01*
X148233261Y-84046739D01*
X148116705Y-83959385D01*
X147980316Y-83908255D01*
X147918134Y-83901500D01*
X146721866Y-83901500D01*
X146659684Y-83908255D01*
X146523295Y-83959385D01*
X146406739Y-84046739D01*
X146319385Y-84163295D01*
X146268255Y-84299684D01*
X146261500Y-84361866D01*
X146261500Y-85558134D01*
X136789104Y-85558134D01*
X131443405Y-80212435D01*
X131409379Y-80150123D01*
X131406500Y-80123340D01*
X131406500Y-79604866D01*
X131399745Y-79542684D01*
X131348615Y-79406295D01*
X131261261Y-79289739D01*
X131144705Y-79202385D01*
X131132132Y-79197672D01*
X131026203Y-79157960D01*
X130969439Y-79115318D01*
X130944739Y-79048756D01*
X130959947Y-78979408D01*
X130981493Y-78950727D01*
X131082435Y-78850137D01*
X131086096Y-78846489D01*
X131174132Y-78723974D01*
X131230127Y-78680326D01*
X131276455Y-78671500D01*
X133176242Y-78671500D01*
X133193996Y-78672757D01*
X133216543Y-78675966D01*
X133216544Y-78675966D01*
X133220626Y-78676547D01*
X133228100Y-78676626D01*
X133231448Y-78676661D01*
X133231453Y-78676661D01*
X133235573Y-78676704D01*
X133239670Y-78676208D01*
X133239675Y-78676208D01*
X133246002Y-78675443D01*
X133254068Y-78674729D01*
X133434968Y-78664570D01*
X133539307Y-78658710D01*
X133839221Y-78607752D01*
X134131544Y-78523535D01*
X134412599Y-78407118D01*
X134678853Y-78259965D01*
X134926956Y-78083926D01*
X135124585Y-77907314D01*
X135132893Y-77900504D01*
X135140469Y-77894816D01*
X135140470Y-77894815D01*
X135143772Y-77892336D01*
X135146719Y-77889451D01*
X135146724Y-77889446D01*
X135151506Y-77884763D01*
X135151508Y-77884761D01*
X135154452Y-77881878D01*
X135176501Y-77853758D01*
X135186560Y-77842410D01*
X135739676Y-77289294D01*
X139225709Y-77289294D01*
X139231132Y-77348315D01*
X139233743Y-77361351D01*
X139280715Y-77511243D01*
X139286921Y-77524988D01*
X139367824Y-77658574D01*
X139377131Y-77670443D01*
X139487557Y-77780869D01*
X139499426Y-77790176D01*
X139633012Y-77871079D01*
X139646757Y-77877285D01*
X139796644Y-77924256D01*
X139809694Y-77926869D01*
X139873521Y-77932734D01*
X139879309Y-77933000D01*
X139935885Y-77933000D01*
X139951124Y-77928525D01*
X139952329Y-77927135D01*
X139954000Y-77919452D01*
X139954000Y-77297115D01*
X139949525Y-77281876D01*
X139948135Y-77280671D01*
X139940452Y-77279000D01*
X139243116Y-77279000D01*
X139227877Y-77283475D01*
X139226672Y-77284865D01*
X139225709Y-77289294D01*
X135739676Y-77289294D01*
X136570566Y-76458404D01*
X136632878Y-76424378D01*
X136659661Y-76421499D01*
X136845634Y-76421499D01*
X136848492Y-76421236D01*
X136848501Y-76421236D01*
X136884004Y-76417974D01*
X136919062Y-76414753D01*
X136965373Y-76400240D01*
X137075450Y-76365744D01*
X137075452Y-76365743D01*
X137082699Y-76363472D01*
X137229381Y-76274639D01*
X137324905Y-76179115D01*
X137387217Y-76145089D01*
X137458032Y-76150154D01*
X137503095Y-76179115D01*
X137598619Y-76274639D01*
X137745301Y-76363472D01*
X137752548Y-76365743D01*
X137752550Y-76365744D01*
X137759625Y-76367961D01*
X137908938Y-76414753D01*
X137982365Y-76421500D01*
X137985263Y-76421500D01*
X138239665Y-76421499D01*
X138495634Y-76421499D01*
X138498492Y-76421236D01*
X138498501Y-76421236D01*
X138534004Y-76417974D01*
X138569062Y-76414753D01*
X138615373Y-76400240D01*
X138725450Y-76365744D01*
X138725452Y-76365743D01*
X138732699Y-76363472D01*
X138879381Y-76274639D01*
X139000639Y-76153381D01*
X139005661Y-76145089D01*
X139006184Y-76144226D01*
X139007855Y-76142698D01*
X139009262Y-76140904D01*
X139009561Y-76141139D01*
X139058583Y-76096321D01*
X139113958Y-76083500D01*
X139368998Y-76083500D01*
X139437119Y-76103502D01*
X139483612Y-76157158D01*
X139493716Y-76227432D01*
X139464222Y-76292012D01*
X139458093Y-76298595D01*
X139377131Y-76379557D01*
X139367824Y-76391426D01*
X139286921Y-76525012D01*
X139280715Y-76538757D01*
X139233744Y-76688644D01*
X139231131Y-76701694D01*
X139226087Y-76756586D01*
X139229475Y-76768124D01*
X139230865Y-76769329D01*
X139238548Y-76771000D01*
X140336000Y-76771000D01*
X140404121Y-76791002D01*
X140450614Y-76844658D01*
X140462000Y-76897000D01*
X140462000Y-77914884D01*
X140466475Y-77930123D01*
X140467865Y-77931328D01*
X140475548Y-77932999D01*
X140536705Y-77932999D01*
X140542454Y-77932736D01*
X140606315Y-77926868D01*
X140619351Y-77924257D01*
X140769243Y-77877285D01*
X140782988Y-77871079D01*
X140916574Y-77790176D01*
X140928443Y-77780869D01*
X141038869Y-77670443D01*
X141048176Y-77658574D01*
X141129081Y-77524984D01*
X141132181Y-77518119D01*
X141178444Y-77464265D01*
X141246479Y-77443972D01*
X141314684Y-77463683D01*
X141361406Y-77517140D01*
X141368014Y-77534819D01*
X141374105Y-77555786D01*
X141380352Y-77570221D01*
X141456911Y-77699678D01*
X141466551Y-77712104D01*
X141572896Y-77818449D01*
X141585322Y-77828089D01*
X141714779Y-77904648D01*
X141729210Y-77910893D01*
X141875065Y-77953269D01*
X141887667Y-77955570D01*
X141916084Y-77957807D01*
X141921014Y-77958000D01*
X142300385Y-77958000D01*
X142315624Y-77953525D01*
X142316829Y-77952135D01*
X142318500Y-77944452D01*
X142318500Y-77939884D01*
X142826500Y-77939884D01*
X142830975Y-77955123D01*
X142832365Y-77956328D01*
X142840048Y-77957999D01*
X143223984Y-77957999D01*
X143228920Y-77957805D01*
X143257336Y-77955570D01*
X143269931Y-77953270D01*
X143415790Y-77910893D01*
X143430221Y-77904648D01*
X143559678Y-77828089D01*
X143572104Y-77818449D01*
X143678449Y-77712104D01*
X143688089Y-77699678D01*
X143764648Y-77570221D01*
X143770893Y-77555790D01*
X143809939Y-77421395D01*
X143809899Y-77407294D01*
X143802630Y-77404000D01*
X142844615Y-77404000D01*
X142829376Y-77408475D01*
X142828171Y-77409865D01*
X142826500Y-77417548D01*
X142826500Y-77939884D01*
X142318500Y-77939884D01*
X142318500Y-76360116D01*
X142314025Y-76344877D01*
X142312635Y-76343672D01*
X142304952Y-76342001D01*
X141921017Y-76342001D01*
X141916080Y-76342195D01*
X141887664Y-76344430D01*
X141875069Y-76346730D01*
X141729210Y-76389107D01*
X141714779Y-76395352D01*
X141585322Y-76471911D01*
X141572896Y-76481551D01*
X141466551Y-76587896D01*
X141456911Y-76600323D01*
X141403354Y-76690884D01*
X141351461Y-76739336D01*
X141281611Y-76752042D01*
X141215979Y-76724967D01*
X141174666Y-76664424D01*
X141135285Y-76538757D01*
X141129079Y-76525012D01*
X141048176Y-76391426D01*
X141038869Y-76379557D01*
X140948761Y-76289449D01*
X140914735Y-76227137D01*
X140919800Y-76156322D01*
X140948761Y-76111259D01*
X141044639Y-76015381D01*
X141048575Y-76008882D01*
X141050246Y-76006751D01*
X141108020Y-75965488D01*
X141149398Y-75958500D01*
X141601294Y-75958500D01*
X141665431Y-75976045D01*
X141721399Y-76009145D01*
X141729010Y-76011356D01*
X141729012Y-76011357D01*
X141781231Y-76026528D01*
X141881169Y-76055562D01*
X141887574Y-76056066D01*
X141887579Y-76056067D01*
X141916042Y-76058307D01*
X141916050Y-76058307D01*
X141918498Y-76058500D01*
X143075500Y-76058500D01*
X143143621Y-76078502D01*
X143190114Y-76132158D01*
X143201500Y-76184500D01*
X143201500Y-76216000D01*
X143181498Y-76284121D01*
X143127842Y-76330614D01*
X143075500Y-76342000D01*
X142844615Y-76342000D01*
X142829376Y-76346475D01*
X142828171Y-76347865D01*
X142826500Y-76355548D01*
X142826500Y-76877885D01*
X142830975Y-76893124D01*
X142832365Y-76894329D01*
X142840048Y-76896000D01*
X143455158Y-76896000D01*
X143519297Y-76913547D01*
X143596399Y-76959145D01*
X143604010Y-76961356D01*
X143604012Y-76961357D01*
X143633315Y-76969870D01*
X143756169Y-77005562D01*
X143762574Y-77006066D01*
X143762579Y-77006067D01*
X143791042Y-77008307D01*
X143791050Y-77008307D01*
X143793498Y-77008500D01*
X145101502Y-77008500D01*
X145103950Y-77008307D01*
X145103958Y-77008307D01*
X145132421Y-77006067D01*
X145132426Y-77006066D01*
X145138831Y-77005562D01*
X145261685Y-76969870D01*
X145290988Y-76961357D01*
X145290990Y-76961356D01*
X145298601Y-76959145D01*
X145354569Y-76926045D01*
X145418706Y-76908500D01*
X146150262Y-76908500D01*
X146218383Y-76928502D01*
X146264876Y-76982158D01*
X146267750Y-76990505D01*
X146268255Y-76990316D01*
X146319385Y-77126705D01*
X146406739Y-77243261D01*
X146523295Y-77330615D01*
X146659684Y-77381745D01*
X146721866Y-77388500D01*
X147918134Y-77388500D01*
X147980316Y-77381745D01*
X148116705Y-77330615D01*
X148233261Y-77243261D01*
X148320615Y-77126705D01*
X148323767Y-77118296D01*
X148328077Y-77110425D01*
X148329741Y-77111336D01*
X148365663Y-77063510D01*
X148432224Y-77038807D01*
X148441009Y-77038500D01*
X150356609Y-77038500D01*
X150373055Y-77039578D01*
X150396568Y-77042674D01*
X150396572Y-77042674D01*
X150404099Y-77043665D01*
X150422678Y-77041614D01*
X150446385Y-77041241D01*
X150603723Y-77053624D01*
X150623250Y-77056717D01*
X150801032Y-77099399D01*
X150819827Y-77105506D01*
X150872823Y-77127457D01*
X150988744Y-77175473D01*
X151006354Y-77184445D01*
X151162249Y-77279979D01*
X151178232Y-77291592D01*
X151217617Y-77325229D01*
X151218860Y-77326291D01*
X151257669Y-77385742D01*
X151262550Y-77433083D01*
X151252363Y-77549524D01*
X151251884Y-77555000D01*
X151270314Y-77765655D01*
X151271738Y-77770968D01*
X151271738Y-77770970D01*
X151321202Y-77955570D01*
X151325044Y-77969910D01*
X151327366Y-77974891D01*
X151327367Y-77974892D01*
X151407878Y-78147547D01*
X151414411Y-78161558D01*
X151535699Y-78334776D01*
X151685224Y-78484301D01*
X151858442Y-78605589D01*
X151863420Y-78607910D01*
X151863423Y-78607912D01*
X152045108Y-78692633D01*
X152050090Y-78694956D01*
X152055398Y-78696378D01*
X152055400Y-78696379D01*
X152249030Y-78748262D01*
X152249032Y-78748262D01*
X152254345Y-78749686D01*
X152465000Y-78768116D01*
X152675655Y-78749686D01*
X152680968Y-78748262D01*
X152680970Y-78748262D01*
X152874600Y-78696379D01*
X152874602Y-78696378D01*
X152879910Y-78694956D01*
X152884892Y-78692633D01*
X153066577Y-78607912D01*
X153066580Y-78607910D01*
X153071558Y-78605589D01*
X153244776Y-78484301D01*
X153394301Y-78334776D01*
X153515589Y-78161558D01*
X153522123Y-78147547D01*
X153602633Y-77974892D01*
X153602634Y-77974891D01*
X153604956Y-77969910D01*
X153608799Y-77955570D01*
X153658262Y-77770970D01*
X153658262Y-77770968D01*
X153659686Y-77765655D01*
X153678116Y-77555000D01*
X163951884Y-77555000D01*
X163970314Y-77765655D01*
X163971738Y-77770968D01*
X163971738Y-77770970D01*
X164021202Y-77955570D01*
X164025044Y-77969910D01*
X164027366Y-77974891D01*
X164027367Y-77974892D01*
X164107878Y-78147547D01*
X164114411Y-78161558D01*
X164235699Y-78334776D01*
X164385224Y-78484301D01*
X164558442Y-78605589D01*
X164563420Y-78607910D01*
X164563423Y-78607912D01*
X164745108Y-78692633D01*
X164750090Y-78694956D01*
X164755398Y-78696378D01*
X164755400Y-78696379D01*
X164949030Y-78748262D01*
X164949032Y-78748262D01*
X164954345Y-78749686D01*
X165165000Y-78768116D01*
X165375655Y-78749686D01*
X165380968Y-78748262D01*
X165380970Y-78748262D01*
X165574600Y-78696379D01*
X165574602Y-78696378D01*
X165579910Y-78694956D01*
X165584892Y-78692633D01*
X165766577Y-78607912D01*
X165766580Y-78607910D01*
X165771558Y-78605589D01*
X165944776Y-78484301D01*
X166094301Y-78334776D01*
X166215589Y-78161558D01*
X166222123Y-78147547D01*
X166302633Y-77974892D01*
X166302634Y-77974891D01*
X166304956Y-77969910D01*
X166308799Y-77955570D01*
X166339119Y-77842410D01*
X166343300Y-77826806D01*
X166375912Y-77770323D01*
X169027204Y-75119030D01*
X169037690Y-75109654D01*
X169042092Y-75106140D01*
X169065706Y-75087289D01*
X169069688Y-75082577D01*
X169082559Y-75067347D01*
X169096965Y-75052865D01*
X169119641Y-75033498D01*
X169183101Y-74979298D01*
X169199089Y-74967683D01*
X169314842Y-74896749D01*
X169332453Y-74887775D01*
X169457879Y-74835821D01*
X169476673Y-74829715D01*
X169608680Y-74798023D01*
X169628207Y-74794930D01*
X169728089Y-74787069D01*
X169752012Y-74787466D01*
X169759278Y-74788281D01*
X169765423Y-74787765D01*
X169765425Y-74787765D01*
X169810951Y-74783942D01*
X169821494Y-74783500D01*
X176740942Y-74783500D01*
X176809063Y-74803502D01*
X176820830Y-74812064D01*
X176850509Y-74836399D01*
X176972705Y-74936594D01*
X176972711Y-74936598D01*
X176976833Y-74939978D01*
X176981469Y-74942617D01*
X176981472Y-74942619D01*
X177145463Y-75035968D01*
X177184566Y-75058227D01*
X177409253Y-75139784D01*
X177414502Y-75140733D01*
X177414505Y-75140734D01*
X177640385Y-75181580D01*
X177640393Y-75181581D01*
X177644469Y-75182318D01*
X177662859Y-75183185D01*
X177668044Y-75183430D01*
X177668051Y-75183430D01*
X177669532Y-75183500D01*
X179637512Y-75183500D01*
X179815675Y-75168383D01*
X179820839Y-75167043D01*
X179820843Y-75167042D01*
X180041875Y-75109673D01*
X180041880Y-75109671D01*
X180047040Y-75108332D01*
X180213165Y-75033498D01*
X180260119Y-75012347D01*
X180260122Y-75012346D01*
X180264980Y-75010157D01*
X180463262Y-74876666D01*
X180506077Y-74835823D01*
X180621362Y-74725846D01*
X180636218Y-74711674D01*
X180647669Y-74696284D01*
X180775716Y-74524182D01*
X180778902Y-74519900D01*
X180782651Y-74512528D01*
X180884814Y-74311586D01*
X180884814Y-74311585D01*
X180887233Y-74306828D01*
X180928060Y-74175344D01*
X180956532Y-74083651D01*
X180956533Y-74083645D01*
X180958116Y-74078548D01*
X180987489Y-73856938D01*
X180988823Y-73846873D01*
X180988823Y-73846869D01*
X180989523Y-73841589D01*
X180980555Y-73602726D01*
X180948880Y-73451763D01*
X180932567Y-73374016D01*
X180932566Y-73374013D01*
X180931470Y-73368789D01*
X180843671Y-73146467D01*
X180719668Y-72942117D01*
X180707825Y-72928469D01*
X180566507Y-72765614D01*
X180566505Y-72765612D01*
X180563007Y-72761581D01*
X180558881Y-72758198D01*
X180558877Y-72758194D01*
X180399568Y-72627570D01*
X180378167Y-72610022D01*
X180373531Y-72607383D01*
X180373528Y-72607381D01*
X180175077Y-72494416D01*
X180170434Y-72491773D01*
X179945747Y-72410216D01*
X179940498Y-72409267D01*
X179940495Y-72409266D01*
X179714615Y-72368420D01*
X179714607Y-72368419D01*
X179710531Y-72367682D01*
X179692141Y-72366815D01*
X179686956Y-72366570D01*
X179686949Y-72366570D01*
X179685468Y-72366500D01*
X177717488Y-72366500D01*
X177539325Y-72381617D01*
X177534161Y-72382957D01*
X177534157Y-72382958D01*
X177313125Y-72440327D01*
X177313120Y-72440329D01*
X177307960Y-72441668D01*
X177303094Y-72443860D01*
X177094881Y-72537653D01*
X177094878Y-72537654D01*
X177090020Y-72539843D01*
X176891738Y-72673334D01*
X176887881Y-72677013D01*
X176887879Y-72677015D01*
X176830586Y-72731670D01*
X176767489Y-72764217D01*
X176743614Y-72766500D01*
X169845149Y-72766500D01*
X169829371Y-72765508D01*
X169801722Y-72762015D01*
X169773427Y-72761620D01*
X169769940Y-72761962D01*
X169769938Y-72761962D01*
X169750856Y-72763833D01*
X169744745Y-72764282D01*
X169719808Y-72765507D01*
X169481275Y-72777225D01*
X169481269Y-72777226D01*
X169478187Y-72777377D01*
X169185790Y-72820750D01*
X169182795Y-72821500D01*
X169182796Y-72821500D01*
X168950664Y-72879646D01*
X168899052Y-72892574D01*
X168620735Y-72992158D01*
X168617945Y-72993478D01*
X168617944Y-72993478D01*
X168439730Y-73077767D01*
X168353520Y-73118541D01*
X168350878Y-73120124D01*
X168350879Y-73120124D01*
X168102628Y-73268919D01*
X168102619Y-73268925D01*
X168099978Y-73270508D01*
X168097493Y-73272351D01*
X167905440Y-73414788D01*
X167862553Y-73446595D01*
X167831977Y-73474308D01*
X167689688Y-73603271D01*
X167682296Y-73609471D01*
X167662932Y-73624491D01*
X167660415Y-73626939D01*
X167660410Y-73626943D01*
X167645170Y-73641763D01*
X167645165Y-73641768D01*
X167642645Y-73644219D01*
X167640415Y-73646934D01*
X167640414Y-73646935D01*
X167614811Y-73678105D01*
X167606541Y-73687224D01*
X164949678Y-76344087D01*
X164893194Y-76376699D01*
X164836762Y-76391820D01*
X164758644Y-76412752D01*
X164750090Y-76415044D01*
X164692032Y-76442117D01*
X164563423Y-76502088D01*
X164563420Y-76502090D01*
X164558442Y-76504411D01*
X164385224Y-76625699D01*
X164235699Y-76775224D01*
X164114411Y-76948442D01*
X164112090Y-76953420D01*
X164112088Y-76953423D01*
X164027367Y-77135108D01*
X164025044Y-77140090D01*
X164023622Y-77145398D01*
X164023621Y-77145400D01*
X163971738Y-77339030D01*
X163970314Y-77344345D01*
X163951884Y-77555000D01*
X153678116Y-77555000D01*
X153659686Y-77344345D01*
X153658262Y-77339030D01*
X153606379Y-77145400D01*
X153606378Y-77145398D01*
X153604956Y-77140090D01*
X153602633Y-77135108D01*
X153517912Y-76953423D01*
X153517910Y-76953420D01*
X153515589Y-76948442D01*
X153394301Y-76775224D01*
X153244776Y-76625699D01*
X153071558Y-76504411D01*
X153066580Y-76502090D01*
X153066577Y-76502088D01*
X152884892Y-76417367D01*
X152884891Y-76417366D01*
X152879910Y-76415044D01*
X152874602Y-76413622D01*
X152874600Y-76413621D01*
X152680970Y-76361738D01*
X152680968Y-76361738D01*
X152675655Y-76360314D01*
X152465000Y-76341884D01*
X152459525Y-76342363D01*
X152324902Y-76354141D01*
X152255297Y-76340152D01*
X152229961Y-76322571D01*
X152105589Y-76211426D01*
X152105579Y-76211418D01*
X152102956Y-76209074D01*
X151854853Y-76033035D01*
X151588599Y-75885882D01*
X151307544Y-75769465D01*
X151015221Y-75685248D01*
X150715307Y-75634290D01*
X150610782Y-75628420D01*
X150450680Y-75619429D01*
X150439993Y-75618370D01*
X150432887Y-75617359D01*
X150426520Y-75616453D01*
X150419472Y-75616379D01*
X150415707Y-75616339D01*
X150415701Y-75616339D01*
X150411573Y-75616296D01*
X150376113Y-75620587D01*
X150360978Y-75621500D01*
X148441009Y-75621500D01*
X148372888Y-75601498D01*
X148326395Y-75547842D01*
X148324097Y-75542306D01*
X148323768Y-75541704D01*
X148320615Y-75533295D01*
X148233261Y-75416739D01*
X148116705Y-75329385D01*
X147980316Y-75278255D01*
X147918134Y-75271500D01*
X146721866Y-75271500D01*
X146659684Y-75278255D01*
X146523295Y-75329385D01*
X146406739Y-75416739D01*
X146388666Y-75440855D01*
X146388509Y-75441064D01*
X146331650Y-75483580D01*
X146287682Y-75491500D01*
X145418706Y-75491500D01*
X145354569Y-75473955D01*
X145298601Y-75440855D01*
X145290990Y-75438644D01*
X145290988Y-75438643D01*
X145215592Y-75416739D01*
X145138831Y-75394438D01*
X145132426Y-75393934D01*
X145132421Y-75393933D01*
X145103958Y-75391693D01*
X145103950Y-75391693D01*
X145101502Y-75391500D01*
X143944500Y-75391500D01*
X143876379Y-75371498D01*
X143829886Y-75317842D01*
X143818500Y-75265500D01*
X143818500Y-75033498D01*
X143818307Y-75031042D01*
X143816067Y-75002579D01*
X143816066Y-75002574D01*
X143815562Y-74996169D01*
X143769145Y-74836399D01*
X143720636Y-74754375D01*
X143688491Y-74700020D01*
X143688489Y-74700017D01*
X143684453Y-74693193D01*
X143566807Y-74575547D01*
X143559983Y-74571511D01*
X143559980Y-74571509D01*
X143430427Y-74494892D01*
X143430428Y-74494892D01*
X143423601Y-74490855D01*
X143415990Y-74488644D01*
X143415988Y-74488643D01*
X143339773Y-74466501D01*
X143263831Y-74444438D01*
X143257426Y-74443934D01*
X143257421Y-74443933D01*
X143228958Y-74441693D01*
X143228950Y-74441693D01*
X143226502Y-74441500D01*
X141918498Y-74441500D01*
X141916050Y-74441693D01*
X141916042Y-74441693D01*
X141887579Y-74443933D01*
X141887574Y-74443934D01*
X141881169Y-74444438D01*
X141805227Y-74466501D01*
X141729012Y-74488643D01*
X141729010Y-74488644D01*
X141721399Y-74490855D01*
X141665431Y-74523955D01*
X141601294Y-74541500D01*
X140839198Y-74541500D01*
X140787350Y-74530338D01*
X140783194Y-74528462D01*
X140776699Y-74524528D01*
X140769452Y-74522257D01*
X140769450Y-74522256D01*
X140682121Y-74494889D01*
X140613062Y-74473247D01*
X140539635Y-74466500D01*
X140536737Y-74466500D01*
X140207140Y-74466501D01*
X139876366Y-74466501D01*
X139873508Y-74466764D01*
X139873499Y-74466764D01*
X139837996Y-74470026D01*
X139802938Y-74473247D01*
X139796560Y-74475246D01*
X139796559Y-74475246D01*
X139646550Y-74522256D01*
X139646548Y-74522257D01*
X139639301Y-74524528D01*
X139492619Y-74613361D01*
X139476385Y-74629595D01*
X139414073Y-74663621D01*
X139387290Y-74666500D01*
X138996710Y-74666500D01*
X138928589Y-74646498D01*
X138907615Y-74629595D01*
X138879381Y-74601361D01*
X138732699Y-74512528D01*
X138725452Y-74510257D01*
X138725450Y-74510256D01*
X138656482Y-74488643D01*
X138569062Y-74461247D01*
X138495635Y-74454500D01*
X138492737Y-74454500D01*
X138238335Y-74454501D01*
X137982366Y-74454501D01*
X137979508Y-74454764D01*
X137979499Y-74454764D01*
X137943996Y-74458026D01*
X137908938Y-74461247D01*
X137902560Y-74463246D01*
X137902559Y-74463246D01*
X137752550Y-74510256D01*
X137752548Y-74510257D01*
X137745301Y-74512528D01*
X137598619Y-74601361D01*
X137503095Y-74696885D01*
X137440783Y-74730911D01*
X137369968Y-74725846D01*
X137324905Y-74696885D01*
X137229381Y-74601361D01*
X137082699Y-74512528D01*
X137075452Y-74510257D01*
X137075450Y-74510256D01*
X137006482Y-74488643D01*
X136919062Y-74461247D01*
X136845635Y-74454500D01*
X136842737Y-74454500D01*
X136588335Y-74454501D01*
X136332366Y-74454501D01*
X136329508Y-74454764D01*
X136329499Y-74454764D01*
X136293996Y-74458026D01*
X136258938Y-74461247D01*
X136252560Y-74463246D01*
X136252559Y-74463246D01*
X136102550Y-74510256D01*
X136102548Y-74510257D01*
X136095301Y-74512528D01*
X135948619Y-74601361D01*
X135827361Y-74722619D01*
X135738528Y-74869301D01*
X135736257Y-74876548D01*
X135736256Y-74876550D01*
X135731550Y-74891568D01*
X135687247Y-75032938D01*
X135680500Y-75106365D01*
X135680500Y-75292340D01*
X135660498Y-75360461D01*
X135643595Y-75381435D01*
X134187675Y-76837355D01*
X134175284Y-76848223D01*
X134156457Y-76862669D01*
X134156455Y-76862671D01*
X134150434Y-76867291D01*
X134144696Y-76874453D01*
X134138745Y-76881881D01*
X134122241Y-76898911D01*
X134002237Y-77001404D01*
X133986242Y-77013025D01*
X133830361Y-77108550D01*
X133812744Y-77117527D01*
X133788771Y-77127457D01*
X133643827Y-77187494D01*
X133625032Y-77193601D01*
X133497582Y-77224199D01*
X133447250Y-77236283D01*
X133427722Y-77239376D01*
X133278001Y-77251160D01*
X133251668Y-77250470D01*
X133250578Y-77250326D01*
X133250574Y-77250326D01*
X133243047Y-77249335D01*
X133203157Y-77253739D01*
X133189330Y-77254500D01*
X131276286Y-77254500D01*
X131208165Y-77234498D01*
X131170494Y-77196941D01*
X131164212Y-77187230D01*
X131128014Y-77131277D01*
X130977670Y-76966051D01*
X130973619Y-76962852D01*
X130973615Y-76962848D01*
X130806414Y-76830800D01*
X130806410Y-76830798D01*
X130802359Y-76827598D01*
X130761053Y-76804796D01*
X130711084Y-76754364D01*
X130696312Y-76684921D01*
X130721428Y-76618516D01*
X130748780Y-76591909D01*
X130792603Y-76560650D01*
X130927860Y-76464173D01*
X130970683Y-76421500D01*
X131026634Y-76365744D01*
X131086096Y-76306489D01*
X131089112Y-76302292D01*
X131174132Y-76183974D01*
X131230127Y-76140326D01*
X131276455Y-76131500D01*
X131969242Y-76131500D01*
X131986996Y-76132757D01*
X132009543Y-76135966D01*
X132009544Y-76135966D01*
X132013626Y-76136547D01*
X132021046Y-76136625D01*
X132024447Y-76136661D01*
X132024452Y-76136661D01*
X132028573Y-76136704D01*
X132036087Y-76135795D01*
X132038981Y-76135445D01*
X132047049Y-76134731D01*
X132179078Y-76127316D01*
X132332307Y-76118711D01*
X132632221Y-76067753D01*
X132924544Y-75983536D01*
X132942627Y-75976046D01*
X133028860Y-75940327D01*
X133205599Y-75867119D01*
X133471853Y-75719966D01*
X133719957Y-75543927D01*
X133917593Y-75367308D01*
X133925901Y-75360498D01*
X133933469Y-75354816D01*
X133933470Y-75354815D01*
X133936772Y-75352336D01*
X133939719Y-75349451D01*
X133939724Y-75349446D01*
X133944506Y-75344763D01*
X133944508Y-75344761D01*
X133947452Y-75341878D01*
X133969501Y-75313758D01*
X133979560Y-75302410D01*
X135153836Y-74128134D01*
X146261500Y-74128134D01*
X146268255Y-74190316D01*
X146319385Y-74326705D01*
X146406739Y-74443261D01*
X146523295Y-74530615D01*
X146659684Y-74581745D01*
X146721866Y-74588500D01*
X147918134Y-74588500D01*
X147980316Y-74581745D01*
X148116705Y-74530615D01*
X148233261Y-74443261D01*
X148309240Y-74341883D01*
X148315233Y-74333887D01*
X148315235Y-74333884D01*
X148320615Y-74326705D01*
X148332575Y-74294801D01*
X148375214Y-74238039D01*
X148429448Y-74214813D01*
X148665221Y-74174753D01*
X148957544Y-74090536D01*
X149238599Y-73974119D01*
X149504853Y-73826966D01*
X149752957Y-73650927D01*
X149950593Y-73474308D01*
X149958901Y-73467498D01*
X149966469Y-73461816D01*
X149966470Y-73461815D01*
X149969772Y-73459336D01*
X149972719Y-73456451D01*
X149972724Y-73456446D01*
X149977506Y-73451763D01*
X149977508Y-73451761D01*
X149980452Y-73448878D01*
X150002501Y-73420758D01*
X150012560Y-73409410D01*
X152229294Y-71192676D01*
X152291606Y-71158650D01*
X152329371Y-71156250D01*
X152459525Y-71167637D01*
X152465000Y-71168116D01*
X152675655Y-71149686D01*
X152680968Y-71148262D01*
X152680970Y-71148262D01*
X152874600Y-71096379D01*
X152874602Y-71096378D01*
X152879910Y-71094956D01*
X152924312Y-71074251D01*
X153066577Y-71007912D01*
X153066580Y-71007910D01*
X153071558Y-71005589D01*
X153244776Y-70884301D01*
X153394301Y-70734776D01*
X153515589Y-70561558D01*
X153604956Y-70369910D01*
X153659686Y-70165655D01*
X153678116Y-69955000D01*
X166491884Y-69955000D01*
X166510314Y-70165655D01*
X166565044Y-70369910D01*
X166654411Y-70561558D01*
X166775699Y-70734776D01*
X166925224Y-70884301D01*
X167098442Y-71005589D01*
X167103420Y-71007910D01*
X167103423Y-71007912D01*
X167245688Y-71074251D01*
X167290090Y-71094956D01*
X167295398Y-71096378D01*
X167295400Y-71096379D01*
X167489033Y-71148263D01*
X167489037Y-71148264D01*
X167494345Y-71149686D01*
X167499821Y-71150165D01*
X167499832Y-71150167D01*
X167501457Y-71150309D01*
X167502589Y-71150653D01*
X167505244Y-71151121D01*
X167505187Y-71151442D01*
X167551173Y-71165414D01*
X167552798Y-71166307D01*
X167625787Y-71206433D01*
X167630869Y-71208045D01*
X167635563Y-71210562D01*
X167724531Y-71237762D01*
X167725559Y-71238082D01*
X167814306Y-71266235D01*
X167819602Y-71266829D01*
X167824698Y-71268387D01*
X167917257Y-71277790D01*
X167918393Y-71277911D01*
X167952008Y-71281681D01*
X167964730Y-71283108D01*
X167964734Y-71283108D01*
X167968227Y-71283500D01*
X167971754Y-71283500D01*
X167972739Y-71283555D01*
X167978419Y-71284002D01*
X168007825Y-71286989D01*
X168015337Y-71287752D01*
X168015339Y-71287752D01*
X168021462Y-71288374D01*
X168067108Y-71284059D01*
X168078967Y-71283500D01*
X176740942Y-71283500D01*
X176809063Y-71303502D01*
X176820833Y-71312066D01*
X176972705Y-71436594D01*
X176972711Y-71436598D01*
X176976833Y-71439978D01*
X176981469Y-71442617D01*
X176981472Y-71442619D01*
X177127765Y-71525894D01*
X177184566Y-71558227D01*
X177409253Y-71639784D01*
X177414502Y-71640733D01*
X177414505Y-71640734D01*
X177640385Y-71681580D01*
X177640393Y-71681581D01*
X177644469Y-71682318D01*
X177662859Y-71683185D01*
X177668044Y-71683430D01*
X177668051Y-71683430D01*
X177669532Y-71683500D01*
X179637512Y-71683500D01*
X179815675Y-71668383D01*
X179820839Y-71667043D01*
X179820843Y-71667042D01*
X180041875Y-71609673D01*
X180041880Y-71609671D01*
X180047040Y-71608332D01*
X180067733Y-71599010D01*
X180260119Y-71512347D01*
X180260122Y-71512346D01*
X180264980Y-71510157D01*
X180463262Y-71376666D01*
X180636218Y-71211674D01*
X180640856Y-71205441D01*
X180775716Y-71024182D01*
X180778902Y-71019900D01*
X180787783Y-71002434D01*
X180884814Y-70811586D01*
X180884814Y-70811585D01*
X180887233Y-70806828D01*
X180922674Y-70692688D01*
X180956532Y-70583651D01*
X180956533Y-70583645D01*
X180958116Y-70578548D01*
X180985109Y-70374892D01*
X180988823Y-70346873D01*
X180988823Y-70346869D01*
X180989523Y-70341589D01*
X180980555Y-70102726D01*
X180931470Y-69868789D01*
X180843671Y-69646467D01*
X180719668Y-69442117D01*
X180704891Y-69425088D01*
X180566507Y-69265614D01*
X180566505Y-69265612D01*
X180563007Y-69261581D01*
X180558881Y-69258198D01*
X180558877Y-69258194D01*
X180382295Y-69113407D01*
X180378167Y-69110022D01*
X180373531Y-69107383D01*
X180373528Y-69107381D01*
X180175077Y-68994416D01*
X180170434Y-68991773D01*
X179945747Y-68910216D01*
X179940498Y-68909267D01*
X179940495Y-68909266D01*
X179714615Y-68868420D01*
X179714607Y-68868419D01*
X179710531Y-68867682D01*
X179692141Y-68866815D01*
X179686956Y-68866570D01*
X179686949Y-68866570D01*
X179685468Y-68866500D01*
X177717488Y-68866500D01*
X177539325Y-68881617D01*
X177534161Y-68882957D01*
X177534157Y-68882958D01*
X177313125Y-68940327D01*
X177313120Y-68940329D01*
X177307960Y-68941668D01*
X177303094Y-68943860D01*
X177094881Y-69037653D01*
X177094878Y-69037654D01*
X177090020Y-69039843D01*
X176891738Y-69173334D01*
X176887881Y-69177013D01*
X176887879Y-69177015D01*
X176830586Y-69231670D01*
X176767489Y-69264217D01*
X176743614Y-69266500D01*
X168763805Y-69266500D01*
X168695684Y-69246498D01*
X168660592Y-69212771D01*
X168637460Y-69179735D01*
X168637458Y-69179732D01*
X168634301Y-69175224D01*
X168484776Y-69025699D01*
X168311558Y-68904411D01*
X168306580Y-68902090D01*
X168306577Y-68902088D01*
X168124892Y-68817367D01*
X168124891Y-68817366D01*
X168119910Y-68815044D01*
X168114602Y-68813622D01*
X168114600Y-68813621D01*
X167920970Y-68761738D01*
X167920968Y-68761738D01*
X167915655Y-68760314D01*
X167705000Y-68741884D01*
X167494345Y-68760314D01*
X167489032Y-68761738D01*
X167489030Y-68761738D01*
X167295400Y-68813621D01*
X167295398Y-68813622D01*
X167290090Y-68815044D01*
X167285109Y-68817366D01*
X167285108Y-68817367D01*
X167103423Y-68902088D01*
X167103420Y-68902090D01*
X167098442Y-68904411D01*
X166925224Y-69025699D01*
X166775699Y-69175224D01*
X166654411Y-69348442D01*
X166652090Y-69353420D01*
X166652088Y-69353423D01*
X166608603Y-69446677D01*
X166565044Y-69540090D01*
X166563622Y-69545398D01*
X166563621Y-69545400D01*
X166531331Y-69665909D01*
X166510314Y-69744345D01*
X166491884Y-69955000D01*
X153678116Y-69955000D01*
X153659686Y-69744345D01*
X153638669Y-69665909D01*
X153606379Y-69545400D01*
X153606378Y-69545398D01*
X153604956Y-69540090D01*
X153561397Y-69446677D01*
X153517912Y-69353423D01*
X153517910Y-69353420D01*
X153515589Y-69348442D01*
X153394301Y-69175224D01*
X153244776Y-69025699D01*
X153071558Y-68904411D01*
X153066580Y-68902090D01*
X153066577Y-68902088D01*
X152884892Y-68817367D01*
X152884891Y-68817366D01*
X152879910Y-68815044D01*
X152874602Y-68813622D01*
X152874600Y-68813621D01*
X152680970Y-68761738D01*
X152680968Y-68761738D01*
X152675655Y-68760314D01*
X152465000Y-68741884D01*
X152254345Y-68760314D01*
X152249032Y-68761738D01*
X152249030Y-68761738D01*
X152055400Y-68813621D01*
X152055398Y-68813622D01*
X152050090Y-68815044D01*
X152045109Y-68817366D01*
X152045108Y-68817367D01*
X151863423Y-68902088D01*
X151863420Y-68902090D01*
X151858442Y-68904411D01*
X151685224Y-69025699D01*
X151535699Y-69175224D01*
X151414411Y-69348442D01*
X151412090Y-69353420D01*
X151412088Y-69353423D01*
X151368603Y-69446677D01*
X151325044Y-69540090D01*
X151323622Y-69545398D01*
X151323621Y-69545400D01*
X151291331Y-69665909D01*
X151270314Y-69744345D01*
X151251884Y-69955000D01*
X151252363Y-69960475D01*
X151263750Y-70090629D01*
X151249761Y-70160234D01*
X151227324Y-70190706D01*
X149013675Y-72404355D01*
X149001284Y-72415223D01*
X148982457Y-72429669D01*
X148982455Y-72429671D01*
X148976434Y-72434291D01*
X148964741Y-72448886D01*
X148948239Y-72465914D01*
X148828238Y-72568404D01*
X148812243Y-72580025D01*
X148656356Y-72675554D01*
X148638745Y-72684528D01*
X148469827Y-72754496D01*
X148451033Y-72760602D01*
X148438402Y-72763635D01*
X148367495Y-72760088D01*
X148308163Y-72716681D01*
X148275677Y-72673334D01*
X148233261Y-72616739D01*
X148116705Y-72529385D01*
X147980316Y-72478255D01*
X147918134Y-72471500D01*
X146721866Y-72471500D01*
X146659684Y-72478255D01*
X146523295Y-72529385D01*
X146406739Y-72616739D01*
X146319385Y-72733295D01*
X146268255Y-72869684D01*
X146261500Y-72931866D01*
X146261500Y-74128134D01*
X135153836Y-74128134D01*
X136462242Y-72819728D01*
X136475684Y-72808063D01*
X136478968Y-72805598D01*
X136497199Y-72791909D01*
X136507879Y-72781451D01*
X136514361Y-72773185D01*
X136519534Y-72767006D01*
X136709928Y-72553956D01*
X136885967Y-72305852D01*
X137033120Y-72039598D01*
X137146090Y-71766864D01*
X137148183Y-71761812D01*
X137148183Y-71761811D01*
X137149537Y-71758543D01*
X137233753Y-71466220D01*
X137284711Y-71166307D01*
X137299573Y-70901664D01*
X137300632Y-70890977D01*
X137301965Y-70881607D01*
X137302547Y-70877520D01*
X137302704Y-70862573D01*
X137298413Y-70827113D01*
X137297500Y-70811978D01*
X137297500Y-65859294D01*
X139225709Y-65859294D01*
X139231132Y-65918315D01*
X139233743Y-65931351D01*
X139280715Y-66081243D01*
X139286921Y-66094988D01*
X139367824Y-66228574D01*
X139377131Y-66240443D01*
X139487557Y-66350869D01*
X139499426Y-66360176D01*
X139633012Y-66441079D01*
X139646757Y-66447285D01*
X139796644Y-66494256D01*
X139809694Y-66496869D01*
X139873521Y-66502734D01*
X139879309Y-66503000D01*
X139935885Y-66503000D01*
X139951124Y-66498525D01*
X139952329Y-66497135D01*
X139954000Y-66489452D01*
X139954000Y-65867115D01*
X139949525Y-65851876D01*
X139948135Y-65850671D01*
X139940452Y-65849000D01*
X139243116Y-65849000D01*
X139227877Y-65853475D01*
X139226672Y-65854865D01*
X139225709Y-65859294D01*
X137297500Y-65859294D01*
X137297500Y-64847710D01*
X137317502Y-64779589D01*
X137371158Y-64733096D01*
X137441432Y-64722992D01*
X137506012Y-64752486D01*
X137512595Y-64758615D01*
X137598619Y-64844639D01*
X137745301Y-64933472D01*
X137752548Y-64935743D01*
X137752550Y-64935744D01*
X137766224Y-64940029D01*
X137908938Y-64984753D01*
X137982365Y-64991500D01*
X137985263Y-64991500D01*
X138239665Y-64991499D01*
X138495634Y-64991499D01*
X138498492Y-64991236D01*
X138498501Y-64991236D01*
X138540609Y-64987367D01*
X138569062Y-64984753D01*
X138575447Y-64982752D01*
X138725450Y-64935744D01*
X138725452Y-64935743D01*
X138732699Y-64933472D01*
X138879381Y-64844639D01*
X139000639Y-64723381D01*
X139004578Y-64716877D01*
X139006184Y-64714226D01*
X139007855Y-64712698D01*
X139009262Y-64710904D01*
X139009561Y-64711139D01*
X139058583Y-64666321D01*
X139113958Y-64653500D01*
X139368998Y-64653500D01*
X139437119Y-64673502D01*
X139483612Y-64727158D01*
X139493716Y-64797432D01*
X139464222Y-64862012D01*
X139458093Y-64868595D01*
X139377131Y-64949557D01*
X139367824Y-64961426D01*
X139286921Y-65095012D01*
X139280715Y-65108757D01*
X139233744Y-65258644D01*
X139231131Y-65271694D01*
X139226087Y-65326586D01*
X139229475Y-65338124D01*
X139230865Y-65339329D01*
X139238548Y-65341000D01*
X140336000Y-65341000D01*
X140404121Y-65361002D01*
X140450614Y-65414658D01*
X140462000Y-65467000D01*
X140462000Y-66484884D01*
X140466475Y-66500123D01*
X140467865Y-66501328D01*
X140475548Y-66502999D01*
X140536705Y-66502999D01*
X140542454Y-66502736D01*
X140606315Y-66496868D01*
X140619351Y-66494257D01*
X140769243Y-66447285D01*
X140782988Y-66441079D01*
X140916574Y-66360176D01*
X140928443Y-66350869D01*
X141038869Y-66240443D01*
X141048176Y-66228574D01*
X141129081Y-66094984D01*
X141132181Y-66088119D01*
X141178444Y-66034265D01*
X141246479Y-66013972D01*
X141314684Y-66033683D01*
X141361406Y-66087140D01*
X141368014Y-66104819D01*
X141374105Y-66125786D01*
X141380352Y-66140221D01*
X141456911Y-66269678D01*
X141466551Y-66282104D01*
X141572896Y-66388449D01*
X141585322Y-66398089D01*
X141714779Y-66474648D01*
X141729210Y-66480893D01*
X141875065Y-66523269D01*
X141887667Y-66525570D01*
X141916084Y-66527807D01*
X141921014Y-66528000D01*
X142300385Y-66528000D01*
X142315624Y-66523525D01*
X142316829Y-66522135D01*
X142318500Y-66514452D01*
X142318500Y-66509884D01*
X142826500Y-66509884D01*
X142830975Y-66525123D01*
X142832365Y-66526328D01*
X142840048Y-66527999D01*
X143223984Y-66527999D01*
X143228920Y-66527805D01*
X143257336Y-66525570D01*
X143269931Y-66523270D01*
X143415790Y-66480893D01*
X143430221Y-66474648D01*
X143559678Y-66398089D01*
X143572104Y-66388449D01*
X143678449Y-66282104D01*
X143688089Y-66269678D01*
X143764648Y-66140221D01*
X143770893Y-66125790D01*
X143809939Y-65991395D01*
X143809899Y-65977294D01*
X143802630Y-65974000D01*
X142844615Y-65974000D01*
X142829376Y-65978475D01*
X142828171Y-65979865D01*
X142826500Y-65987548D01*
X142826500Y-66509884D01*
X142318500Y-66509884D01*
X142318500Y-64930116D01*
X142314025Y-64914877D01*
X142312635Y-64913672D01*
X142304952Y-64912001D01*
X141921017Y-64912001D01*
X141916080Y-64912195D01*
X141887664Y-64914430D01*
X141875069Y-64916730D01*
X141729210Y-64959107D01*
X141714779Y-64965352D01*
X141585322Y-65041911D01*
X141572896Y-65051551D01*
X141466551Y-65157896D01*
X141456911Y-65170323D01*
X141403354Y-65260884D01*
X141351461Y-65309336D01*
X141281611Y-65322042D01*
X141215979Y-65294967D01*
X141174666Y-65234424D01*
X141135285Y-65108757D01*
X141129079Y-65095012D01*
X141048176Y-64961426D01*
X141038869Y-64949557D01*
X140948761Y-64859449D01*
X140914735Y-64797137D01*
X140919800Y-64726322D01*
X140948761Y-64681259D01*
X141044639Y-64585381D01*
X141048575Y-64578882D01*
X141050246Y-64576751D01*
X141108020Y-64535488D01*
X141149398Y-64528500D01*
X141601294Y-64528500D01*
X141665431Y-64546045D01*
X141721399Y-64579145D01*
X141729010Y-64581356D01*
X141729012Y-64581357D01*
X141781231Y-64596528D01*
X141881169Y-64625562D01*
X141887574Y-64626066D01*
X141887579Y-64626067D01*
X141916042Y-64628307D01*
X141916050Y-64628307D01*
X141918498Y-64628500D01*
X143075500Y-64628500D01*
X143143621Y-64648502D01*
X143190114Y-64702158D01*
X143201500Y-64754500D01*
X143201500Y-64786000D01*
X143181498Y-64854121D01*
X143127842Y-64900614D01*
X143075500Y-64912000D01*
X142844615Y-64912000D01*
X142829376Y-64916475D01*
X142828171Y-64917865D01*
X142826500Y-64925548D01*
X142826500Y-65447885D01*
X142830975Y-65463124D01*
X142832365Y-65464329D01*
X142840048Y-65466000D01*
X143455158Y-65466000D01*
X143519297Y-65483547D01*
X143537676Y-65494416D01*
X143596399Y-65529145D01*
X143604010Y-65531356D01*
X143604012Y-65531357D01*
X143625684Y-65537653D01*
X143756169Y-65575562D01*
X143762574Y-65576066D01*
X143762579Y-65576067D01*
X143791042Y-65578307D01*
X143791050Y-65578307D01*
X143793498Y-65578500D01*
X144339720Y-65578500D01*
X144363855Y-65582193D01*
X144364068Y-65581045D01*
X144370813Y-65582295D01*
X144390348Y-65587859D01*
X144392928Y-65588521D01*
X144400009Y-65591282D01*
X144407542Y-65592274D01*
X144407543Y-65592274D01*
X144440199Y-65596573D01*
X144463357Y-65599622D01*
X144469855Y-65600650D01*
X144532687Y-65612296D01*
X144540267Y-65611859D01*
X144540268Y-65611859D01*
X144594893Y-65608709D01*
X144602147Y-65608500D01*
X146198991Y-65608500D01*
X146267112Y-65628502D01*
X146313605Y-65682158D01*
X146315903Y-65687694D01*
X146316232Y-65688296D01*
X146319385Y-65696705D01*
X146406739Y-65813261D01*
X146523295Y-65900615D01*
X146659684Y-65951745D01*
X146721866Y-65958500D01*
X147918134Y-65958500D01*
X147980316Y-65951745D01*
X148116705Y-65900615D01*
X148233261Y-65813261D01*
X148320615Y-65696705D01*
X148323767Y-65688296D01*
X148328077Y-65680425D01*
X148329741Y-65681336D01*
X148365663Y-65633510D01*
X148432224Y-65608807D01*
X148441009Y-65608500D01*
X150356609Y-65608500D01*
X150373055Y-65609578D01*
X150396568Y-65612674D01*
X150396572Y-65612674D01*
X150404099Y-65613665D01*
X150422686Y-65611613D01*
X150446390Y-65611240D01*
X150603725Y-65623623D01*
X150623250Y-65626716D01*
X150801033Y-65669398D01*
X150819827Y-65675504D01*
X150988745Y-65745472D01*
X151006356Y-65754446D01*
X151162243Y-65849975D01*
X151178239Y-65861596D01*
X151218860Y-65896290D01*
X151257669Y-65955741D01*
X151262550Y-66003082D01*
X151251884Y-66125000D01*
X151270314Y-66335655D01*
X151271738Y-66340968D01*
X151271738Y-66340970D01*
X151321202Y-66525570D01*
X151325044Y-66539910D01*
X151327366Y-66544891D01*
X151327367Y-66544892D01*
X151354336Y-66602726D01*
X151414411Y-66731558D01*
X151535699Y-66904776D01*
X151685224Y-67054301D01*
X151858442Y-67175589D01*
X151863420Y-67177910D01*
X151863423Y-67177912D01*
X152016550Y-67249316D01*
X152050090Y-67264956D01*
X152055398Y-67266378D01*
X152055400Y-67266379D01*
X152249030Y-67318262D01*
X152249032Y-67318262D01*
X152254345Y-67319686D01*
X152465000Y-67338116D01*
X152675655Y-67319686D01*
X152680968Y-67318262D01*
X152680970Y-67318262D01*
X152874600Y-67266379D01*
X152874602Y-67266378D01*
X152879910Y-67264956D01*
X152913450Y-67249316D01*
X153066577Y-67177912D01*
X153066580Y-67177910D01*
X153071558Y-67175589D01*
X153244776Y-67054301D01*
X153394301Y-66904776D01*
X153515589Y-66731558D01*
X153575665Y-66602726D01*
X153602633Y-66544892D01*
X153602634Y-66544891D01*
X153604956Y-66539910D01*
X153608799Y-66525570D01*
X153658262Y-66340970D01*
X153658262Y-66340968D01*
X153659686Y-66335655D01*
X153678116Y-66125000D01*
X163951884Y-66125000D01*
X163970314Y-66335655D01*
X163971738Y-66340968D01*
X163971738Y-66340970D01*
X164021202Y-66525570D01*
X164025044Y-66539910D01*
X164027366Y-66544891D01*
X164027367Y-66544892D01*
X164054336Y-66602726D01*
X164114411Y-66731558D01*
X164235699Y-66904776D01*
X164385224Y-67054301D01*
X164558442Y-67175589D01*
X164563420Y-67177910D01*
X164563423Y-67177912D01*
X164716550Y-67249316D01*
X164750090Y-67264956D01*
X164755398Y-67266378D01*
X164755400Y-67266379D01*
X164819118Y-67283452D01*
X164954345Y-67319686D01*
X165022264Y-67325628D01*
X165076060Y-67343075D01*
X165223519Y-67431459D01*
X165490735Y-67557843D01*
X165769052Y-67657427D01*
X166055790Y-67729251D01*
X166348187Y-67772624D01*
X166351271Y-67772775D01*
X166351276Y-67772776D01*
X166489725Y-67779577D01*
X166581210Y-67784071D01*
X166590811Y-67784912D01*
X166615132Y-67787985D01*
X166629280Y-67788183D01*
X166639904Y-67788331D01*
X166639907Y-67788331D01*
X166643427Y-67788380D01*
X166687066Y-67784101D01*
X166699363Y-67783500D01*
X176740942Y-67783500D01*
X176809063Y-67803502D01*
X176820830Y-67812064D01*
X176853387Y-67838759D01*
X176972705Y-67936594D01*
X176972711Y-67936598D01*
X176976833Y-67939978D01*
X176981469Y-67942617D01*
X176981472Y-67942619D01*
X177094886Y-68007178D01*
X177184566Y-68058227D01*
X177409253Y-68139784D01*
X177414502Y-68140733D01*
X177414505Y-68140734D01*
X177640385Y-68181580D01*
X177640393Y-68181581D01*
X177644469Y-68182318D01*
X177662859Y-68183185D01*
X177668044Y-68183430D01*
X177668051Y-68183430D01*
X177669532Y-68183500D01*
X179637512Y-68183500D01*
X179815675Y-68168383D01*
X179820839Y-68167043D01*
X179820843Y-68167042D01*
X180041875Y-68109673D01*
X180041880Y-68109671D01*
X180047040Y-68108332D01*
X180164136Y-68055584D01*
X180260119Y-68012347D01*
X180260122Y-68012346D01*
X180264980Y-68010157D01*
X180463262Y-67876666D01*
X180506230Y-67835677D01*
X180556172Y-67788034D01*
X180636218Y-67711674D01*
X180778902Y-67519900D01*
X180785135Y-67507642D01*
X180884814Y-67311586D01*
X180884814Y-67311585D01*
X180887233Y-67306828D01*
X180928964Y-67172434D01*
X180956532Y-67083651D01*
X180956533Y-67083645D01*
X180958116Y-67078548D01*
X180989523Y-66841589D01*
X180980555Y-66602726D01*
X180954992Y-66480893D01*
X180932567Y-66374016D01*
X180932566Y-66374013D01*
X180931470Y-66368789D01*
X180843671Y-66146467D01*
X180719668Y-65942117D01*
X180686390Y-65903767D01*
X180566507Y-65765614D01*
X180566505Y-65765612D01*
X180563007Y-65761581D01*
X180558881Y-65758198D01*
X180558877Y-65758194D01*
X180395703Y-65624401D01*
X180378167Y-65610022D01*
X180373531Y-65607383D01*
X180373528Y-65607381D01*
X180175077Y-65494416D01*
X180170434Y-65491773D01*
X179945747Y-65410216D01*
X179940498Y-65409267D01*
X179940495Y-65409266D01*
X179714615Y-65368420D01*
X179714607Y-65368419D01*
X179710531Y-65367682D01*
X179692141Y-65366815D01*
X179686956Y-65366570D01*
X179686949Y-65366570D01*
X179685468Y-65366500D01*
X177717488Y-65366500D01*
X177539325Y-65381617D01*
X177534161Y-65382957D01*
X177534157Y-65382958D01*
X177313125Y-65440327D01*
X177313120Y-65440329D01*
X177307960Y-65441668D01*
X177303094Y-65443860D01*
X177094881Y-65537653D01*
X177094878Y-65537654D01*
X177090020Y-65539843D01*
X176891738Y-65673334D01*
X176887881Y-65677013D01*
X176887879Y-65677015D01*
X176830586Y-65731670D01*
X176767489Y-65764217D01*
X176743614Y-65766500D01*
X166707246Y-65766500D01*
X166693201Y-65765715D01*
X166663701Y-65762406D01*
X166657576Y-65761719D01*
X166639683Y-65763222D01*
X166631556Y-65763904D01*
X166611126Y-65763958D01*
X166580774Y-65761569D01*
X166498199Y-65755070D01*
X166478688Y-65751980D01*
X166364143Y-65724480D01*
X166302578Y-65689130D01*
X166279368Y-65655216D01*
X166226958Y-65542822D01*
X166217912Y-65523423D01*
X166217910Y-65523420D01*
X166215589Y-65518442D01*
X166094301Y-65345224D01*
X165944776Y-65195699D01*
X165771558Y-65074411D01*
X165766580Y-65072090D01*
X165766577Y-65072088D01*
X165584892Y-64987367D01*
X165584891Y-64987366D01*
X165579910Y-64985044D01*
X165574602Y-64983622D01*
X165574600Y-64983621D01*
X165380970Y-64931738D01*
X165380968Y-64931738D01*
X165375655Y-64930314D01*
X165165000Y-64911884D01*
X164954345Y-64930314D01*
X164949032Y-64931738D01*
X164949030Y-64931738D01*
X164755400Y-64983621D01*
X164755398Y-64983622D01*
X164750090Y-64985044D01*
X164745109Y-64987366D01*
X164745108Y-64987367D01*
X164563423Y-65072088D01*
X164563420Y-65072090D01*
X164558442Y-65074411D01*
X164385224Y-65195699D01*
X164235699Y-65345224D01*
X164114411Y-65518442D01*
X164112090Y-65523420D01*
X164112088Y-65523423D01*
X164027367Y-65705108D01*
X164025044Y-65710090D01*
X164023622Y-65715398D01*
X164023621Y-65715400D01*
X163986174Y-65855155D01*
X163970314Y-65914345D01*
X163951884Y-66125000D01*
X153678116Y-66125000D01*
X153659686Y-65914345D01*
X153643826Y-65855155D01*
X153606379Y-65715400D01*
X153606378Y-65715398D01*
X153604956Y-65710090D01*
X153602633Y-65705108D01*
X153517912Y-65523423D01*
X153517910Y-65523420D01*
X153515589Y-65518442D01*
X153394301Y-65345224D01*
X153244776Y-65195699D01*
X153071558Y-65074411D01*
X153066580Y-65072090D01*
X153066577Y-65072088D01*
X152884892Y-64987367D01*
X152884891Y-64987366D01*
X152879910Y-64985044D01*
X152874602Y-64983622D01*
X152874600Y-64983621D01*
X152680970Y-64931738D01*
X152680968Y-64931738D01*
X152675655Y-64930314D01*
X152465000Y-64911884D01*
X152459525Y-64912363D01*
X152324902Y-64924141D01*
X152255297Y-64910152D01*
X152229960Y-64892570D01*
X152105591Y-64781426D01*
X152105582Y-64781418D01*
X152102957Y-64779073D01*
X151854853Y-64603034D01*
X151588599Y-64455881D01*
X151307544Y-64339464D01*
X151015221Y-64255247D01*
X150715307Y-64204289D01*
X150519331Y-64193283D01*
X150450664Y-64189427D01*
X150439977Y-64188368D01*
X150438713Y-64188188D01*
X150426520Y-64186453D01*
X150419369Y-64186378D01*
X150415707Y-64186339D01*
X150415701Y-64186339D01*
X150411573Y-64186296D01*
X150376113Y-64190587D01*
X150360978Y-64191500D01*
X148441009Y-64191500D01*
X148372888Y-64171498D01*
X148326395Y-64117842D01*
X148324097Y-64112306D01*
X148323768Y-64111704D01*
X148320615Y-64103295D01*
X148233261Y-63986739D01*
X148116705Y-63899385D01*
X147980316Y-63848255D01*
X147918134Y-63841500D01*
X146721866Y-63841500D01*
X146659684Y-63848255D01*
X146523295Y-63899385D01*
X146406739Y-63986739D01*
X146319385Y-64103295D01*
X146316233Y-64111704D01*
X146311923Y-64119575D01*
X146310259Y-64118664D01*
X146274337Y-64166490D01*
X146207776Y-64191193D01*
X146198991Y-64191500D01*
X145589950Y-64191500D01*
X145521829Y-64171498D01*
X145500855Y-64154595D01*
X145441807Y-64095547D01*
X145434983Y-64091511D01*
X145434980Y-64091509D01*
X145305427Y-64014892D01*
X145305428Y-64014892D01*
X145298601Y-64010855D01*
X145290990Y-64008644D01*
X145290988Y-64008643D01*
X145215592Y-63986739D01*
X145138831Y-63964438D01*
X145132426Y-63963934D01*
X145132421Y-63963933D01*
X145103958Y-63961693D01*
X145103950Y-63961693D01*
X145101502Y-63961500D01*
X143944500Y-63961500D01*
X143876379Y-63941498D01*
X143829886Y-63887842D01*
X143818500Y-63835500D01*
X143818500Y-63603498D01*
X143818307Y-63601042D01*
X143816067Y-63572579D01*
X143816066Y-63572574D01*
X143815562Y-63566169D01*
X143773708Y-63422105D01*
X143771357Y-63414012D01*
X143771356Y-63414010D01*
X143769145Y-63406399D01*
X143733941Y-63346873D01*
X143688491Y-63270020D01*
X143688489Y-63270017D01*
X143684453Y-63263193D01*
X143566807Y-63145547D01*
X143559983Y-63141511D01*
X143559980Y-63141509D01*
X143430427Y-63064892D01*
X143430428Y-63064892D01*
X143423601Y-63060855D01*
X143415990Y-63058644D01*
X143415988Y-63058643D01*
X143339773Y-63036501D01*
X143263831Y-63014438D01*
X143257426Y-63013934D01*
X143257421Y-63013933D01*
X143228958Y-63011693D01*
X143228950Y-63011693D01*
X143226502Y-63011500D01*
X141918498Y-63011500D01*
X141916050Y-63011693D01*
X141916042Y-63011693D01*
X141887579Y-63013933D01*
X141887574Y-63013934D01*
X141881169Y-63014438D01*
X141805227Y-63036501D01*
X141729012Y-63058643D01*
X141729010Y-63058644D01*
X141721399Y-63060855D01*
X141665431Y-63093955D01*
X141601294Y-63111500D01*
X140839198Y-63111500D01*
X140787350Y-63100338D01*
X140783194Y-63098462D01*
X140776699Y-63094528D01*
X140769452Y-63092257D01*
X140769450Y-63092256D01*
X140682121Y-63064889D01*
X140613062Y-63043247D01*
X140539635Y-63036500D01*
X140536737Y-63036500D01*
X140207140Y-63036501D01*
X139876366Y-63036501D01*
X139873508Y-63036764D01*
X139873499Y-63036764D01*
X139837996Y-63040026D01*
X139802938Y-63043247D01*
X139796560Y-63045246D01*
X139796559Y-63045246D01*
X139646550Y-63092256D01*
X139646548Y-63092257D01*
X139639301Y-63094528D01*
X139492619Y-63183361D01*
X139476385Y-63199595D01*
X139414073Y-63233621D01*
X139387290Y-63236500D01*
X138996710Y-63236500D01*
X138928589Y-63216498D01*
X138907615Y-63199595D01*
X138879381Y-63171361D01*
X138732699Y-63082528D01*
X138725452Y-63080257D01*
X138725450Y-63080256D01*
X138656482Y-63058643D01*
X138569062Y-63031247D01*
X138495635Y-63024500D01*
X138492737Y-63024500D01*
X138238335Y-63024501D01*
X137982366Y-63024501D01*
X137979508Y-63024764D01*
X137979499Y-63024764D01*
X137943996Y-63028026D01*
X137908938Y-63031247D01*
X137902560Y-63033246D01*
X137902559Y-63033246D01*
X137752550Y-63080256D01*
X137752548Y-63080257D01*
X137745301Y-63082528D01*
X137598619Y-63171361D01*
X137503095Y-63266885D01*
X137440783Y-63300911D01*
X137369968Y-63295846D01*
X137324905Y-63266885D01*
X137229381Y-63171361D01*
X137082699Y-63082528D01*
X137075452Y-63080257D01*
X137075450Y-63080256D01*
X137006482Y-63058643D01*
X136919062Y-63031247D01*
X136845635Y-63024500D01*
X136842737Y-63024500D01*
X136588335Y-63024501D01*
X136332366Y-63024501D01*
X136329508Y-63024764D01*
X136329499Y-63024764D01*
X136293996Y-63028026D01*
X136258938Y-63031247D01*
X136252560Y-63033246D01*
X136252559Y-63033246D01*
X136102550Y-63080256D01*
X136102548Y-63080257D01*
X136095301Y-63082528D01*
X135948619Y-63171361D01*
X135827361Y-63292619D01*
X135738528Y-63439301D01*
X135687247Y-63602938D01*
X135680500Y-63676365D01*
X135680501Y-64339634D01*
X135687247Y-64413062D01*
X135689246Y-64419440D01*
X135689246Y-64419441D01*
X135701202Y-64457591D01*
X135738528Y-64576699D01*
X135827361Y-64723381D01*
X135843595Y-64739615D01*
X135877621Y-64801927D01*
X135880500Y-64828710D01*
X135880500Y-70807609D01*
X135879422Y-70824055D01*
X135875335Y-70855099D01*
X135877387Y-70873686D01*
X135877760Y-70897395D01*
X135865378Y-71054723D01*
X135862285Y-71074250D01*
X135822947Y-71238108D01*
X135819605Y-71252027D01*
X135813497Y-71270826D01*
X135743528Y-71439744D01*
X135734558Y-71457349D01*
X135639025Y-71613246D01*
X135627409Y-71629234D01*
X135529872Y-71743435D01*
X135510771Y-71761561D01*
X135509889Y-71762238D01*
X135509887Y-71762240D01*
X135503861Y-71766864D01*
X135479178Y-71797674D01*
X135478769Y-71798184D01*
X135469530Y-71808499D01*
X132980675Y-74297355D01*
X132968284Y-74308223D01*
X132949457Y-74322669D01*
X132949455Y-74322671D01*
X132943434Y-74327291D01*
X132938687Y-74333216D01*
X132938146Y-74333891D01*
X132931741Y-74341886D01*
X132915239Y-74358914D01*
X132795238Y-74461404D01*
X132779243Y-74473025D01*
X132623356Y-74568554D01*
X132605745Y-74577528D01*
X132436827Y-74647496D01*
X132418033Y-74653602D01*
X132253126Y-74693193D01*
X132240251Y-74696284D01*
X132220723Y-74699377D01*
X132071002Y-74711160D01*
X132044677Y-74710471D01*
X132043579Y-74710326D01*
X132043575Y-74710326D01*
X132036047Y-74709335D01*
X131996157Y-74713739D01*
X131982330Y-74714500D01*
X131276286Y-74714500D01*
X131208165Y-74694498D01*
X131170494Y-74656941D01*
X131166838Y-74651289D01*
X131128014Y-74591277D01*
X130977670Y-74426051D01*
X130973619Y-74422852D01*
X130973615Y-74422848D01*
X130806414Y-74290800D01*
X130806410Y-74290798D01*
X130802359Y-74287598D01*
X130761053Y-74264796D01*
X130711084Y-74214364D01*
X130696312Y-74144921D01*
X130721428Y-74078516D01*
X130748780Y-74051909D01*
X130792603Y-74020650D01*
X130927860Y-73924173D01*
X131086096Y-73766489D01*
X131145594Y-73683689D01*
X131213435Y-73589277D01*
X131216453Y-73585077D01*
X131272968Y-73470728D01*
X131313136Y-73389453D01*
X131313137Y-73389451D01*
X131315430Y-73384811D01*
X131380370Y-73171069D01*
X131409529Y-72949590D01*
X131410922Y-72892574D01*
X131411074Y-72886365D01*
X131411074Y-72886361D01*
X131411156Y-72883000D01*
X131392852Y-72660361D01*
X131391593Y-72655348D01*
X131391591Y-72655337D01*
X131386115Y-72633540D01*
X131388918Y-72562598D01*
X131419223Y-72513747D01*
X134239242Y-69693728D01*
X134252684Y-69682063D01*
X134255968Y-69679598D01*
X134274199Y-69665909D01*
X134284879Y-69655451D01*
X134291361Y-69647185D01*
X134296534Y-69641006D01*
X134486928Y-69427956D01*
X134662967Y-69179852D01*
X134810120Y-68913598D01*
X134923090Y-68640864D01*
X134925183Y-68635812D01*
X134925183Y-68635811D01*
X134926537Y-68632543D01*
X135010753Y-68340220D01*
X135061711Y-68040307D01*
X135076573Y-67775664D01*
X135077632Y-67764977D01*
X135078965Y-67755607D01*
X135079547Y-67751520D01*
X135079704Y-67736573D01*
X135075413Y-67701113D01*
X135074500Y-67685978D01*
X135074500Y-62698134D01*
X146261500Y-62698134D01*
X146268255Y-62760316D01*
X146319385Y-62896705D01*
X146406739Y-63013261D01*
X146523295Y-63100615D01*
X146659684Y-63151745D01*
X146721866Y-63158500D01*
X147918134Y-63158500D01*
X147980316Y-63151745D01*
X148116705Y-63100615D01*
X148233261Y-63013261D01*
X148251019Y-62989567D01*
X148315233Y-62903887D01*
X148315235Y-62903884D01*
X148320615Y-62896705D01*
X148332575Y-62864801D01*
X148375217Y-62808037D01*
X148429450Y-62784812D01*
X148665221Y-62744752D01*
X148957544Y-62660535D01*
X149238599Y-62544118D01*
X149504853Y-62396965D01*
X149752956Y-62220926D01*
X149950585Y-62044314D01*
X149958893Y-62037504D01*
X149966469Y-62031816D01*
X149966470Y-62031815D01*
X149969772Y-62029336D01*
X149972719Y-62026451D01*
X149972724Y-62026446D01*
X149977506Y-62021763D01*
X149977508Y-62021761D01*
X149980452Y-62018878D01*
X150002501Y-61990758D01*
X150012560Y-61979410D01*
X152229294Y-59762676D01*
X152291606Y-59728650D01*
X152329371Y-59726250D01*
X152459525Y-59737637D01*
X152465000Y-59738116D01*
X152675655Y-59719686D01*
X152680968Y-59718262D01*
X152680970Y-59718262D01*
X152874600Y-59666379D01*
X152874602Y-59666378D01*
X152879910Y-59664956D01*
X152884892Y-59662633D01*
X153066577Y-59577912D01*
X153066580Y-59577910D01*
X153071558Y-59575589D01*
X153244776Y-59454301D01*
X153394301Y-59304776D01*
X153515589Y-59131558D01*
X153601801Y-58946677D01*
X153602633Y-58944892D01*
X153602634Y-58944891D01*
X153604956Y-58939910D01*
X153651632Y-58765715D01*
X153658262Y-58740970D01*
X153658262Y-58740968D01*
X153659686Y-58735655D01*
X153678116Y-58525000D01*
X166491884Y-58525000D01*
X166510314Y-58735655D01*
X166511738Y-58740968D01*
X166511738Y-58740970D01*
X166518369Y-58765715D01*
X166565044Y-58939910D01*
X166567366Y-58944891D01*
X166567367Y-58944892D01*
X166568200Y-58946677D01*
X166654411Y-59131558D01*
X166775699Y-59304776D01*
X166925224Y-59454301D01*
X167098442Y-59575589D01*
X167103420Y-59577910D01*
X167103423Y-59577912D01*
X167285108Y-59662633D01*
X167290090Y-59664956D01*
X167295398Y-59666378D01*
X167295400Y-59666379D01*
X167362343Y-59684316D01*
X167433194Y-59703300D01*
X167489677Y-59735912D01*
X171105377Y-63351612D01*
X171115841Y-63363480D01*
X171132917Y-63385494D01*
X171152645Y-63405781D01*
X171155366Y-63408016D01*
X171155367Y-63408017D01*
X171170148Y-63420158D01*
X171174786Y-63424161D01*
X171199489Y-63446550D01*
X171372553Y-63603406D01*
X171375039Y-63605250D01*
X171375043Y-63605253D01*
X171605627Y-63776265D01*
X171609978Y-63779492D01*
X171612619Y-63781075D01*
X171612628Y-63781081D01*
X171804748Y-63896233D01*
X171863519Y-63931459D01*
X171866298Y-63932773D01*
X171866301Y-63932775D01*
X172031387Y-64010855D01*
X172130735Y-64057843D01*
X172409052Y-64157427D01*
X172412057Y-64158180D01*
X172412058Y-64158180D01*
X172465227Y-64171498D01*
X172695790Y-64229251D01*
X172988187Y-64272624D01*
X172991271Y-64272775D01*
X172991276Y-64272776D01*
X173129725Y-64279577D01*
X173221210Y-64284071D01*
X173230811Y-64284912D01*
X173255132Y-64287985D01*
X173269280Y-64288183D01*
X173279904Y-64288331D01*
X173279907Y-64288331D01*
X173283427Y-64288380D01*
X173327066Y-64284101D01*
X173339363Y-64283500D01*
X176740942Y-64283500D01*
X176809063Y-64303502D01*
X176820833Y-64312066D01*
X176972705Y-64436594D01*
X176972711Y-64436598D01*
X176976833Y-64439978D01*
X176981469Y-64442617D01*
X176981472Y-64442619D01*
X177002397Y-64454530D01*
X177184566Y-64558227D01*
X177409253Y-64639784D01*
X177414502Y-64640733D01*
X177414505Y-64640734D01*
X177640385Y-64681580D01*
X177640393Y-64681581D01*
X177644469Y-64682318D01*
X177662859Y-64683185D01*
X177668044Y-64683430D01*
X177668051Y-64683430D01*
X177669532Y-64683500D01*
X179637512Y-64683500D01*
X179815675Y-64668383D01*
X179820839Y-64667043D01*
X179820843Y-64667042D01*
X180041875Y-64609673D01*
X180041880Y-64609671D01*
X180047040Y-64608332D01*
X180185310Y-64546046D01*
X180260119Y-64512347D01*
X180260122Y-64512346D01*
X180264980Y-64510157D01*
X180463262Y-64376666D01*
X180500841Y-64340818D01*
X180556172Y-64288034D01*
X180636218Y-64211674D01*
X180778902Y-64019900D01*
X180781449Y-64014892D01*
X180884814Y-63811586D01*
X180884814Y-63811585D01*
X180887233Y-63806828D01*
X180950369Y-63603498D01*
X180956532Y-63583651D01*
X180956533Y-63583645D01*
X180958116Y-63578548D01*
X180989523Y-63341589D01*
X180987685Y-63292619D01*
X180985469Y-63233621D01*
X180980555Y-63102726D01*
X180938835Y-62903891D01*
X180932567Y-62874016D01*
X180932566Y-62874013D01*
X180931470Y-62868789D01*
X180843671Y-62646467D01*
X180719668Y-62442117D01*
X180716171Y-62438087D01*
X180566507Y-62265614D01*
X180566505Y-62265612D01*
X180563007Y-62261581D01*
X180558881Y-62258198D01*
X180558877Y-62258194D01*
X180382295Y-62113407D01*
X180378167Y-62110022D01*
X180373531Y-62107383D01*
X180373528Y-62107381D01*
X180175077Y-61994416D01*
X180170434Y-61991773D01*
X179945747Y-61910216D01*
X179940498Y-61909267D01*
X179940495Y-61909266D01*
X179714615Y-61868420D01*
X179714607Y-61868419D01*
X179710531Y-61867682D01*
X179692141Y-61866815D01*
X179686956Y-61866570D01*
X179686949Y-61866570D01*
X179685468Y-61866500D01*
X177717488Y-61866500D01*
X177539325Y-61881617D01*
X177534161Y-61882957D01*
X177534157Y-61882958D01*
X177313125Y-61940327D01*
X177313120Y-61940329D01*
X177307960Y-61941668D01*
X177303094Y-61943860D01*
X177094881Y-62037653D01*
X177094878Y-62037654D01*
X177090020Y-62039843D01*
X176891738Y-62173334D01*
X176887881Y-62177013D01*
X176887879Y-62177015D01*
X176830586Y-62231670D01*
X176767489Y-62264217D01*
X176743614Y-62266500D01*
X173347246Y-62266500D01*
X173333201Y-62265715D01*
X173303701Y-62262406D01*
X173297576Y-62261719D01*
X173279683Y-62263222D01*
X173271556Y-62263904D01*
X173251126Y-62263958D01*
X173220774Y-62261569D01*
X173138199Y-62255070D01*
X173118678Y-62251978D01*
X173072598Y-62240914D01*
X172986682Y-62220287D01*
X172967880Y-62214178D01*
X172842454Y-62162226D01*
X172824836Y-62153249D01*
X172709093Y-62082321D01*
X172693102Y-62070703D01*
X172616922Y-62005640D01*
X172600289Y-61988447D01*
X172599562Y-61987536D01*
X172599554Y-61987528D01*
X172595716Y-61982720D01*
X172556098Y-61949240D01*
X172548332Y-61942098D01*
X168915913Y-58309679D01*
X168883301Y-58253195D01*
X168846379Y-58115400D01*
X168846378Y-58115398D01*
X168844956Y-58110090D01*
X168777138Y-57964653D01*
X168757912Y-57923423D01*
X168757910Y-57923420D01*
X168755589Y-57918442D01*
X168634301Y-57745224D01*
X168484776Y-57595699D01*
X168311558Y-57474411D01*
X168306580Y-57472090D01*
X168306577Y-57472088D01*
X168124892Y-57387367D01*
X168124891Y-57387366D01*
X168119910Y-57385044D01*
X168114602Y-57383622D01*
X168114600Y-57383621D01*
X167920970Y-57331738D01*
X167920968Y-57331738D01*
X167915655Y-57330314D01*
X167705000Y-57311884D01*
X167494345Y-57330314D01*
X167489032Y-57331738D01*
X167489030Y-57331738D01*
X167295400Y-57383621D01*
X167295398Y-57383622D01*
X167290090Y-57385044D01*
X167285109Y-57387366D01*
X167285108Y-57387367D01*
X167103423Y-57472088D01*
X167103420Y-57472090D01*
X167098442Y-57474411D01*
X166925224Y-57595699D01*
X166775699Y-57745224D01*
X166654411Y-57918442D01*
X166652090Y-57923420D01*
X166652088Y-57923423D01*
X166632862Y-57964653D01*
X166565044Y-58110090D01*
X166510314Y-58314345D01*
X166491884Y-58525000D01*
X153678116Y-58525000D01*
X153659686Y-58314345D01*
X153604956Y-58110090D01*
X153537138Y-57964653D01*
X153517912Y-57923423D01*
X153517910Y-57923420D01*
X153515589Y-57918442D01*
X153394301Y-57745224D01*
X153244776Y-57595699D01*
X153071558Y-57474411D01*
X153066580Y-57472090D01*
X153066577Y-57472088D01*
X152884892Y-57387367D01*
X152884891Y-57387366D01*
X152879910Y-57385044D01*
X152874602Y-57383622D01*
X152874600Y-57383621D01*
X152680970Y-57331738D01*
X152680968Y-57331738D01*
X152675655Y-57330314D01*
X152465000Y-57311884D01*
X152254345Y-57330314D01*
X152249032Y-57331738D01*
X152249030Y-57331738D01*
X152055400Y-57383621D01*
X152055398Y-57383622D01*
X152050090Y-57385044D01*
X152045109Y-57387366D01*
X152045108Y-57387367D01*
X151863423Y-57472088D01*
X151863420Y-57472090D01*
X151858442Y-57474411D01*
X151685224Y-57595699D01*
X151535699Y-57745224D01*
X151414411Y-57918442D01*
X151412090Y-57923420D01*
X151412088Y-57923423D01*
X151392862Y-57964653D01*
X151325044Y-58110090D01*
X151270314Y-58314345D01*
X151251884Y-58525000D01*
X151252363Y-58530475D01*
X151263750Y-58660629D01*
X151249761Y-58730234D01*
X151227324Y-58760706D01*
X149013675Y-60974355D01*
X149001284Y-60985223D01*
X148982457Y-60999669D01*
X148982455Y-60999671D01*
X148976434Y-61004291D01*
X148971686Y-61010218D01*
X148964745Y-61018881D01*
X148948241Y-61035911D01*
X148828237Y-61138404D01*
X148812242Y-61150025D01*
X148656361Y-61245550D01*
X148638744Y-61254527D01*
X148562594Y-61286069D01*
X148469827Y-61324494D01*
X148451031Y-61330602D01*
X148438401Y-61333634D01*
X148367494Y-61330087D01*
X148308165Y-61286683D01*
X148233261Y-61186739D01*
X148116705Y-61099385D01*
X147980316Y-61048255D01*
X147918134Y-61041500D01*
X146721866Y-61041500D01*
X146659684Y-61048255D01*
X146523295Y-61099385D01*
X146406739Y-61186739D01*
X146319385Y-61303295D01*
X146268255Y-61439684D01*
X146261500Y-61501866D01*
X146261500Y-62698134D01*
X135074500Y-62698134D01*
X135074500Y-54418758D01*
X135075757Y-54401004D01*
X135078966Y-54378457D01*
X135078966Y-54378456D01*
X135079547Y-54374374D01*
X135079704Y-54359427D01*
X135078062Y-54345856D01*
X135077537Y-54320838D01*
X135077960Y-54315473D01*
X135088992Y-54175294D01*
X138717709Y-54175294D01*
X138723132Y-54234315D01*
X138725743Y-54247351D01*
X138772715Y-54397243D01*
X138778921Y-54410988D01*
X138859824Y-54544574D01*
X138869131Y-54556443D01*
X138979557Y-54666869D01*
X138991426Y-54676176D01*
X139125012Y-54757079D01*
X139138757Y-54763285D01*
X139288644Y-54810256D01*
X139301694Y-54812869D01*
X139365521Y-54818734D01*
X139371309Y-54819000D01*
X139427885Y-54819000D01*
X139443124Y-54814525D01*
X139444329Y-54813135D01*
X139446000Y-54805452D01*
X139446000Y-54800884D01*
X139954000Y-54800884D01*
X139958475Y-54816123D01*
X139959865Y-54817328D01*
X139967548Y-54818999D01*
X140028705Y-54818999D01*
X140034454Y-54818736D01*
X140098315Y-54812868D01*
X140111351Y-54810257D01*
X140261243Y-54763285D01*
X140274988Y-54757079D01*
X140408574Y-54676176D01*
X140420443Y-54666869D01*
X140530869Y-54556443D01*
X140540176Y-54544574D01*
X140621079Y-54410988D01*
X140627285Y-54397243D01*
X140674256Y-54247356D01*
X140676556Y-54235871D01*
X141000956Y-54235871D01*
X141041607Y-54375790D01*
X141047852Y-54390221D01*
X141124411Y-54519678D01*
X141134051Y-54532104D01*
X141240396Y-54638449D01*
X141252822Y-54648089D01*
X141382279Y-54724648D01*
X141396710Y-54730893D01*
X141542565Y-54773269D01*
X141555167Y-54775570D01*
X141583584Y-54777807D01*
X141588514Y-54778000D01*
X141967885Y-54778000D01*
X141983124Y-54773525D01*
X141984329Y-54772135D01*
X141986000Y-54764452D01*
X141986000Y-54759884D01*
X142494000Y-54759884D01*
X142498475Y-54775123D01*
X142499865Y-54776328D01*
X142507548Y-54777999D01*
X142891484Y-54777999D01*
X142896420Y-54777805D01*
X142924836Y-54775570D01*
X142937431Y-54773270D01*
X143083290Y-54730893D01*
X143097721Y-54724648D01*
X143227178Y-54648089D01*
X143239604Y-54638449D01*
X143345949Y-54532104D01*
X143355589Y-54519678D01*
X143432148Y-54390221D01*
X143438393Y-54375790D01*
X143477439Y-54241395D01*
X143477399Y-54227294D01*
X143470130Y-54224000D01*
X142512115Y-54224000D01*
X142496876Y-54228475D01*
X142495671Y-54229865D01*
X142494000Y-54237548D01*
X142494000Y-54759884D01*
X141986000Y-54759884D01*
X141986000Y-54242115D01*
X141981525Y-54226876D01*
X141980135Y-54225671D01*
X141972452Y-54224000D01*
X141015622Y-54224000D01*
X141002091Y-54227973D01*
X141000956Y-54235871D01*
X140676556Y-54235871D01*
X140676869Y-54234306D01*
X140681913Y-54179414D01*
X140678525Y-54167876D01*
X140677135Y-54166671D01*
X140669452Y-54165000D01*
X139972115Y-54165000D01*
X139956876Y-54169475D01*
X139955671Y-54170865D01*
X139954000Y-54178548D01*
X139954000Y-54800884D01*
X139446000Y-54800884D01*
X139446000Y-54183115D01*
X139441525Y-54167876D01*
X139440135Y-54166671D01*
X139432452Y-54165000D01*
X138735116Y-54165000D01*
X138719877Y-54169475D01*
X138718672Y-54170865D01*
X138717709Y-54175294D01*
X135088992Y-54175294D01*
X135089623Y-54167277D01*
X135092716Y-54147749D01*
X135104422Y-54098990D01*
X135135398Y-53969967D01*
X135141506Y-53951168D01*
X135141769Y-53950533D01*
X135211472Y-53782255D01*
X135220446Y-53764644D01*
X135260915Y-53698605D01*
X141002561Y-53698605D01*
X141002601Y-53712706D01*
X141009870Y-53716000D01*
X141967885Y-53716000D01*
X141983124Y-53711525D01*
X141984329Y-53710135D01*
X141986000Y-53702452D01*
X141986000Y-53180116D01*
X141981525Y-53164877D01*
X141980135Y-53163672D01*
X141972452Y-53162001D01*
X141588517Y-53162001D01*
X141583580Y-53162195D01*
X141555164Y-53164430D01*
X141542569Y-53166730D01*
X141396710Y-53209107D01*
X141382279Y-53215352D01*
X141252822Y-53291911D01*
X141240396Y-53301551D01*
X141134051Y-53407896D01*
X141124411Y-53420322D01*
X141047852Y-53549779D01*
X141041607Y-53564210D01*
X141002561Y-53698605D01*
X135260915Y-53698605D01*
X135315975Y-53608757D01*
X135327596Y-53592762D01*
X135425131Y-53478563D01*
X135444237Y-53460431D01*
X135445116Y-53459757D01*
X135445117Y-53459756D01*
X135451139Y-53455135D01*
X135476237Y-53423808D01*
X135485476Y-53413494D01*
X135808566Y-53090404D01*
X135870878Y-53056378D01*
X135897661Y-53053499D01*
X136083634Y-53053499D01*
X136086492Y-53053236D01*
X136086501Y-53053236D01*
X136122004Y-53049974D01*
X136157062Y-53046753D01*
X136168534Y-53043158D01*
X136313450Y-52997744D01*
X136313452Y-52997743D01*
X136320699Y-52995472D01*
X136467381Y-52906639D01*
X136562905Y-52811115D01*
X136625217Y-52777089D01*
X136696032Y-52782154D01*
X136741095Y-52811115D01*
X136836619Y-52906639D01*
X136983301Y-52995472D01*
X136990548Y-52997743D01*
X136990550Y-52997744D01*
X137012109Y-53004500D01*
X137146938Y-53046753D01*
X137220365Y-53053500D01*
X137223263Y-53053500D01*
X137477665Y-53053499D01*
X137733634Y-53053499D01*
X137736492Y-53053236D01*
X137736501Y-53053236D01*
X137772004Y-53049974D01*
X137807062Y-53046753D01*
X137818534Y-53043158D01*
X137963450Y-52997744D01*
X137963452Y-52997743D01*
X137970699Y-52995472D01*
X137977196Y-52991538D01*
X137977199Y-52991536D01*
X137983495Y-52987723D01*
X138048764Y-52969500D01*
X138860998Y-52969500D01*
X138929119Y-52989502D01*
X138975612Y-53043158D01*
X138985716Y-53113432D01*
X138956222Y-53178012D01*
X138950093Y-53184595D01*
X138869131Y-53265557D01*
X138859824Y-53277426D01*
X138778921Y-53411012D01*
X138772715Y-53424757D01*
X138725744Y-53574644D01*
X138723131Y-53587694D01*
X138718087Y-53642586D01*
X138721475Y-53654124D01*
X138722865Y-53655329D01*
X138730548Y-53657000D01*
X140664884Y-53657000D01*
X140680123Y-53652525D01*
X140681328Y-53651135D01*
X140682291Y-53646706D01*
X140676868Y-53587685D01*
X140674257Y-53574649D01*
X140627285Y-53424757D01*
X140621079Y-53411012D01*
X140540176Y-53277426D01*
X140530869Y-53265557D01*
X140440761Y-53175449D01*
X140406735Y-53113137D01*
X140411800Y-53042322D01*
X140440761Y-52997259D01*
X140536639Y-52901381D01*
X140574280Y-52839228D01*
X140626676Y-52791323D01*
X140682055Y-52778500D01*
X141268794Y-52778500D01*
X141332931Y-52796045D01*
X141388899Y-52829145D01*
X141396510Y-52831356D01*
X141396512Y-52831357D01*
X141448731Y-52846528D01*
X141548669Y-52875562D01*
X141555074Y-52876066D01*
X141555079Y-52876067D01*
X141583542Y-52878307D01*
X141583550Y-52878307D01*
X141585998Y-52878500D01*
X142743000Y-52878500D01*
X142811121Y-52898502D01*
X142857614Y-52952158D01*
X142869000Y-53004500D01*
X142869000Y-53036000D01*
X142848998Y-53104121D01*
X142795342Y-53150614D01*
X142743000Y-53162000D01*
X142512115Y-53162000D01*
X142496876Y-53166475D01*
X142495671Y-53167865D01*
X142494000Y-53175548D01*
X142494000Y-53697885D01*
X142498475Y-53713124D01*
X142499865Y-53714329D01*
X142507548Y-53716000D01*
X143122658Y-53716000D01*
X143186797Y-53733547D01*
X143263899Y-53779145D01*
X143271510Y-53781356D01*
X143271512Y-53781357D01*
X143274624Y-53782261D01*
X143423669Y-53825562D01*
X143430074Y-53826066D01*
X143430079Y-53826067D01*
X143458542Y-53828307D01*
X143458550Y-53828307D01*
X143460998Y-53828500D01*
X143869338Y-53828500D01*
X143937459Y-53848502D01*
X143958433Y-53865404D01*
X144043563Y-53950533D01*
X144049417Y-53956799D01*
X144087439Y-54000385D01*
X144139729Y-54037136D01*
X144144971Y-54041028D01*
X144195282Y-54080476D01*
X144202201Y-54083600D01*
X144204493Y-54084988D01*
X144219165Y-54093357D01*
X144221525Y-54094622D01*
X144227739Y-54098990D01*
X144234818Y-54101750D01*
X144234820Y-54101751D01*
X144287275Y-54122202D01*
X144293344Y-54124753D01*
X144351573Y-54151045D01*
X144359046Y-54152430D01*
X144361612Y-54153234D01*
X144377835Y-54157855D01*
X144380427Y-54158520D01*
X144387509Y-54161282D01*
X144395044Y-54162274D01*
X144450861Y-54169622D01*
X144457377Y-54170654D01*
X144495770Y-54177770D01*
X144520186Y-54182295D01*
X144527766Y-54181858D01*
X144527767Y-54181858D01*
X144577384Y-54178997D01*
X144582380Y-54178709D01*
X144589633Y-54178500D01*
X146198991Y-54178500D01*
X146267112Y-54198502D01*
X146313605Y-54252158D01*
X146315903Y-54257694D01*
X146316232Y-54258296D01*
X146319385Y-54266705D01*
X146406739Y-54383261D01*
X146523295Y-54470615D01*
X146659684Y-54521745D01*
X146721866Y-54528500D01*
X147918134Y-54528500D01*
X147980316Y-54521745D01*
X148116705Y-54470615D01*
X148233261Y-54383261D01*
X148320615Y-54266705D01*
X148323767Y-54258296D01*
X148328077Y-54250425D01*
X148329741Y-54251336D01*
X148365663Y-54203510D01*
X148432224Y-54178807D01*
X148441009Y-54178500D01*
X150356609Y-54178500D01*
X150373055Y-54179578D01*
X150396568Y-54182674D01*
X150396572Y-54182674D01*
X150404099Y-54183665D01*
X150422678Y-54181614D01*
X150446385Y-54181241D01*
X150603723Y-54193624D01*
X150623250Y-54196717D01*
X150801032Y-54239399D01*
X150819827Y-54245506D01*
X150888356Y-54273891D01*
X150988744Y-54315473D01*
X151006354Y-54324445D01*
X151162249Y-54419979D01*
X151178232Y-54431592D01*
X151217617Y-54465229D01*
X151218860Y-54466291D01*
X151257669Y-54525742D01*
X151262550Y-54573083D01*
X151255988Y-54648089D01*
X151251884Y-54695000D01*
X151270314Y-54905655D01*
X151271738Y-54910968D01*
X151271738Y-54910970D01*
X151306270Y-55039843D01*
X151325044Y-55109910D01*
X151414411Y-55301558D01*
X151535699Y-55474776D01*
X151685224Y-55624301D01*
X151858442Y-55745589D01*
X151863420Y-55747910D01*
X151863423Y-55747912D01*
X151999934Y-55811568D01*
X152050090Y-55834956D01*
X152055398Y-55836378D01*
X152055400Y-55836379D01*
X152249030Y-55888262D01*
X152249032Y-55888262D01*
X152254345Y-55889686D01*
X152465000Y-55908116D01*
X152675655Y-55889686D01*
X152680968Y-55888262D01*
X152680970Y-55888262D01*
X152874600Y-55836379D01*
X152874602Y-55836378D01*
X152879910Y-55834956D01*
X152930066Y-55811568D01*
X153066577Y-55747912D01*
X153066580Y-55747910D01*
X153071558Y-55745589D01*
X153244776Y-55624301D01*
X153394301Y-55474776D01*
X153515589Y-55301558D01*
X153604956Y-55109910D01*
X153623731Y-55039843D01*
X153658262Y-54910970D01*
X153658262Y-54910968D01*
X153659686Y-54905655D01*
X153678116Y-54695000D01*
X163951884Y-54695000D01*
X163970314Y-54905655D01*
X163971738Y-54910968D01*
X163971738Y-54910970D01*
X164006270Y-55039843D01*
X164025044Y-55109910D01*
X164114411Y-55301558D01*
X164235699Y-55474776D01*
X164385224Y-55624301D01*
X164558442Y-55745589D01*
X164563420Y-55747910D01*
X164563423Y-55747912D01*
X164699934Y-55811568D01*
X164750090Y-55834956D01*
X164755398Y-55836378D01*
X164755400Y-55836379D01*
X164949030Y-55888262D01*
X164949032Y-55888262D01*
X164954345Y-55889686D01*
X165165000Y-55908116D01*
X165375655Y-55889686D01*
X165380968Y-55888262D01*
X165380970Y-55888262D01*
X165574600Y-55836379D01*
X165574602Y-55836378D01*
X165579910Y-55834956D01*
X165630066Y-55811568D01*
X165766573Y-55747914D01*
X165766577Y-55747912D01*
X165771558Y-55745589D01*
X165776060Y-55742437D01*
X165776063Y-55742435D01*
X165799126Y-55726286D01*
X165871396Y-55703500D01*
X169118754Y-55703500D01*
X169132798Y-55704285D01*
X169168424Y-55708281D01*
X169174570Y-55707765D01*
X169194440Y-55706097D01*
X169214866Y-55706043D01*
X169327792Y-55714930D01*
X169347320Y-55718023D01*
X169479327Y-55749715D01*
X169498121Y-55755821D01*
X169623547Y-55807775D01*
X169641158Y-55816749D01*
X169756906Y-55887680D01*
X169772901Y-55899301D01*
X169849086Y-55964369D01*
X169865727Y-55981571D01*
X169870284Y-55987279D01*
X169874987Y-55991253D01*
X169909890Y-56020749D01*
X169917657Y-56027892D01*
X173741377Y-59851612D01*
X173751841Y-59863480D01*
X173768917Y-59885494D01*
X173788645Y-59905781D01*
X173791366Y-59908016D01*
X173791367Y-59908017D01*
X173806148Y-59920158D01*
X173810786Y-59924161D01*
X173961026Y-60060330D01*
X174008553Y-60103406D01*
X174011039Y-60105250D01*
X174011043Y-60105253D01*
X174105913Y-60175613D01*
X174245978Y-60279492D01*
X174248619Y-60281075D01*
X174248628Y-60281081D01*
X174299523Y-60311586D01*
X174499519Y-60431459D01*
X174766735Y-60557843D01*
X175045052Y-60657427D01*
X175331790Y-60729251D01*
X175624187Y-60772624D01*
X175627271Y-60772775D01*
X175627276Y-60772776D01*
X175765725Y-60779577D01*
X175857210Y-60784071D01*
X175866811Y-60784912D01*
X175891132Y-60787985D01*
X175905279Y-60788182D01*
X175915904Y-60788331D01*
X175915907Y-60788331D01*
X175919427Y-60788380D01*
X175963066Y-60784101D01*
X175975363Y-60783500D01*
X176740942Y-60783500D01*
X176809063Y-60803502D01*
X176820833Y-60812066D01*
X176972705Y-60936594D01*
X176972711Y-60936598D01*
X176976833Y-60939978D01*
X176981469Y-60942617D01*
X176981472Y-60942619D01*
X177103967Y-61012347D01*
X177184566Y-61058227D01*
X177409253Y-61139784D01*
X177414502Y-61140733D01*
X177414505Y-61140734D01*
X177640385Y-61181580D01*
X177640393Y-61181581D01*
X177644469Y-61182318D01*
X177662859Y-61183185D01*
X177668044Y-61183430D01*
X177668051Y-61183430D01*
X177669532Y-61183500D01*
X179637512Y-61183500D01*
X179815675Y-61168383D01*
X179820839Y-61167043D01*
X179820843Y-61167042D01*
X180041875Y-61109673D01*
X180041880Y-61109671D01*
X180047040Y-61108332D01*
X180180406Y-61048255D01*
X180260119Y-61012347D01*
X180260122Y-61012346D01*
X180264980Y-61010157D01*
X180280559Y-60999669D01*
X180374247Y-60936594D01*
X180463262Y-60876666D01*
X180636218Y-60711674D01*
X180778902Y-60519900D01*
X180823199Y-60432775D01*
X180884814Y-60311586D01*
X180884814Y-60311585D01*
X180887233Y-60306828D01*
X180922674Y-60192688D01*
X180956532Y-60083651D01*
X180956533Y-60083645D01*
X180958116Y-60078548D01*
X180989523Y-59841589D01*
X180980555Y-59602726D01*
X180931470Y-59368789D01*
X180843671Y-59146467D01*
X180719668Y-58942117D01*
X180713145Y-58934600D01*
X180566507Y-58765614D01*
X180566505Y-58765612D01*
X180563007Y-58761581D01*
X180558881Y-58758198D01*
X180558877Y-58758194D01*
X180382295Y-58613407D01*
X180378167Y-58610022D01*
X180373531Y-58607383D01*
X180373528Y-58607381D01*
X180175077Y-58494416D01*
X180170434Y-58491773D01*
X179945747Y-58410216D01*
X179940498Y-58409267D01*
X179940495Y-58409266D01*
X179714615Y-58368420D01*
X179714607Y-58368419D01*
X179710531Y-58367682D01*
X179692141Y-58366815D01*
X179686956Y-58366570D01*
X179686949Y-58366570D01*
X179685468Y-58366500D01*
X177717488Y-58366500D01*
X177539325Y-58381617D01*
X177534161Y-58382957D01*
X177534157Y-58382958D01*
X177313125Y-58440327D01*
X177313120Y-58440329D01*
X177307960Y-58441668D01*
X177303094Y-58443860D01*
X177094881Y-58537653D01*
X177094878Y-58537654D01*
X177090020Y-58539843D01*
X176891738Y-58673334D01*
X176887881Y-58677013D01*
X176887879Y-58677015D01*
X176830586Y-58731670D01*
X176767489Y-58764217D01*
X176743614Y-58766500D01*
X175983246Y-58766500D01*
X175969201Y-58765715D01*
X175939701Y-58762406D01*
X175933576Y-58761719D01*
X175915683Y-58763222D01*
X175907556Y-58763904D01*
X175887126Y-58763958D01*
X175856774Y-58761569D01*
X175774199Y-58755070D01*
X175754678Y-58751978D01*
X175686691Y-58735655D01*
X175622682Y-58720287D01*
X175603880Y-58714178D01*
X175478454Y-58662226D01*
X175460836Y-58653249D01*
X175345093Y-58582321D01*
X175329102Y-58570703D01*
X175252922Y-58505640D01*
X175236289Y-58488447D01*
X175235562Y-58487536D01*
X175235554Y-58487528D01*
X175231716Y-58482720D01*
X175192098Y-58449240D01*
X175184332Y-58442098D01*
X171360625Y-54618391D01*
X171350160Y-54606522D01*
X171333082Y-54584505D01*
X171313354Y-54564218D01*
X171295837Y-54549830D01*
X171291195Y-54545824D01*
X171158058Y-54425156D01*
X171093445Y-54366594D01*
X171089356Y-54363561D01*
X170858505Y-54192350D01*
X170856020Y-54190507D01*
X170853380Y-54188924D01*
X170853370Y-54188918D01*
X170605120Y-54040124D01*
X170605121Y-54040124D01*
X170602479Y-54038541D01*
X170599462Y-54037114D01*
X170338056Y-53913477D01*
X170338047Y-53913473D01*
X170335264Y-53912157D01*
X170185184Y-53858458D01*
X170059852Y-53813613D01*
X170059844Y-53813611D01*
X170056947Y-53812574D01*
X169865600Y-53764644D01*
X169773213Y-53741502D01*
X169773209Y-53741501D01*
X169770210Y-53740750D01*
X169767148Y-53740296D01*
X169767144Y-53740295D01*
X169592094Y-53714329D01*
X169477813Y-53697377D01*
X169474729Y-53697226D01*
X169474724Y-53697225D01*
X169297002Y-53688495D01*
X169244807Y-53685931D01*
X169235201Y-53685089D01*
X169210868Y-53682015D01*
X169197608Y-53681830D01*
X169186096Y-53681669D01*
X169186093Y-53681669D01*
X169182573Y-53681620D01*
X169142654Y-53685534D01*
X169138933Y-53685899D01*
X169126637Y-53686500D01*
X165871396Y-53686500D01*
X165799126Y-53663714D01*
X165776063Y-53647565D01*
X165776060Y-53647563D01*
X165771558Y-53644411D01*
X165766577Y-53642088D01*
X165766573Y-53642086D01*
X165584892Y-53557367D01*
X165584891Y-53557366D01*
X165579910Y-53555044D01*
X165574602Y-53553622D01*
X165574600Y-53553621D01*
X165380970Y-53501738D01*
X165380968Y-53501738D01*
X165375655Y-53500314D01*
X165165000Y-53481884D01*
X164954345Y-53500314D01*
X164949032Y-53501738D01*
X164949030Y-53501738D01*
X164755400Y-53553621D01*
X164755398Y-53553622D01*
X164750090Y-53555044D01*
X164745109Y-53557366D01*
X164745108Y-53557367D01*
X164563423Y-53642088D01*
X164563420Y-53642090D01*
X164558442Y-53644411D01*
X164385224Y-53765699D01*
X164235699Y-53915224D01*
X164114411Y-54088442D01*
X164112090Y-54093420D01*
X164112088Y-54093423D01*
X164027367Y-54275108D01*
X164025044Y-54280090D01*
X164023622Y-54285398D01*
X164023621Y-54285400D01*
X163973993Y-54470615D01*
X163970314Y-54484345D01*
X163951884Y-54695000D01*
X153678116Y-54695000D01*
X153659686Y-54484345D01*
X153656007Y-54470615D01*
X153606379Y-54285400D01*
X153606378Y-54285398D01*
X153604956Y-54280090D01*
X153602633Y-54275108D01*
X153517912Y-54093423D01*
X153517910Y-54093420D01*
X153515589Y-54088442D01*
X153394301Y-53915224D01*
X153244776Y-53765699D01*
X153071558Y-53644411D01*
X153066580Y-53642090D01*
X153066577Y-53642088D01*
X152884892Y-53557367D01*
X152884891Y-53557366D01*
X152879910Y-53555044D01*
X152874602Y-53553622D01*
X152874600Y-53553621D01*
X152680970Y-53501738D01*
X152680968Y-53501738D01*
X152675655Y-53500314D01*
X152465000Y-53481884D01*
X152459525Y-53482363D01*
X152324902Y-53494141D01*
X152255297Y-53480152D01*
X152229961Y-53462571D01*
X152105589Y-53351426D01*
X152105579Y-53351418D01*
X152102956Y-53349074D01*
X151854853Y-53173035D01*
X151588599Y-53025882D01*
X151307544Y-52909465D01*
X151015221Y-52825248D01*
X150715307Y-52774290D01*
X150610782Y-52768420D01*
X150450680Y-52759429D01*
X150439993Y-52758370D01*
X150432887Y-52757359D01*
X150426520Y-52756453D01*
X150419472Y-52756379D01*
X150415707Y-52756339D01*
X150415701Y-52756339D01*
X150411573Y-52756296D01*
X150376113Y-52760587D01*
X150360978Y-52761500D01*
X148441009Y-52761500D01*
X148372888Y-52741498D01*
X148326395Y-52687842D01*
X148324097Y-52682306D01*
X148323768Y-52681704D01*
X148320615Y-52673295D01*
X148233261Y-52556739D01*
X148116705Y-52469385D01*
X147980316Y-52418255D01*
X147918134Y-52411500D01*
X146721866Y-52411500D01*
X146659684Y-52418255D01*
X146523295Y-52469385D01*
X146406739Y-52556739D01*
X146319385Y-52673295D01*
X146316233Y-52681704D01*
X146311923Y-52689575D01*
X146310259Y-52688664D01*
X146274337Y-52736490D01*
X146207776Y-52761193D01*
X146198991Y-52761500D01*
X145451310Y-52761500D01*
X145383189Y-52741498D01*
X145336696Y-52687842D01*
X145330313Y-52670654D01*
X145313856Y-52614010D01*
X145311645Y-52606399D01*
X145279094Y-52551358D01*
X145230991Y-52470020D01*
X145230989Y-52470017D01*
X145226953Y-52463193D01*
X145109307Y-52345547D01*
X145102483Y-52341511D01*
X145102480Y-52341509D01*
X144972927Y-52264892D01*
X144972928Y-52264892D01*
X144966101Y-52260855D01*
X144958490Y-52258644D01*
X144958488Y-52258643D01*
X144906269Y-52243472D01*
X144806331Y-52214438D01*
X144799926Y-52213934D01*
X144799921Y-52213933D01*
X144771458Y-52211693D01*
X144771450Y-52211693D01*
X144769002Y-52211500D01*
X143612000Y-52211500D01*
X143543879Y-52191498D01*
X143497386Y-52137842D01*
X143486000Y-52085500D01*
X143486000Y-51853498D01*
X143483062Y-51816169D01*
X143440775Y-51670615D01*
X143438857Y-51664012D01*
X143438856Y-51664010D01*
X143436645Y-51656399D01*
X143419565Y-51627518D01*
X143355991Y-51520020D01*
X143355989Y-51520017D01*
X143351953Y-51513193D01*
X143234307Y-51395547D01*
X143227483Y-51391511D01*
X143227480Y-51391509D01*
X143097927Y-51314892D01*
X143097928Y-51314892D01*
X143091101Y-51310855D01*
X143083490Y-51308644D01*
X143083488Y-51308643D01*
X143031269Y-51293472D01*
X142944053Y-51268134D01*
X146261500Y-51268134D01*
X146268255Y-51330316D01*
X146319385Y-51466705D01*
X146406739Y-51583261D01*
X146523295Y-51670615D01*
X146659684Y-51721745D01*
X146721866Y-51728500D01*
X147918134Y-51728500D01*
X147980316Y-51721745D01*
X148116705Y-51670615D01*
X148233261Y-51583261D01*
X148259041Y-51548863D01*
X148315233Y-51473887D01*
X148315235Y-51473884D01*
X148320615Y-51466705D01*
X148332575Y-51434801D01*
X148375214Y-51378039D01*
X148429448Y-51354813D01*
X148665220Y-51314753D01*
X148957543Y-51230537D01*
X149238598Y-51114120D01*
X149504852Y-50966967D01*
X149752956Y-50790928D01*
X149950596Y-50614306D01*
X149958894Y-50607503D01*
X149969771Y-50599337D01*
X149980451Y-50588879D01*
X149982994Y-50585635D01*
X149983000Y-50585629D01*
X150002495Y-50560765D01*
X150012554Y-50549416D01*
X152229294Y-48332676D01*
X152291606Y-48298650D01*
X152329371Y-48296250D01*
X152459525Y-48307637D01*
X152465000Y-48308116D01*
X152675655Y-48289686D01*
X152680968Y-48288262D01*
X152680970Y-48288262D01*
X152874600Y-48236379D01*
X152874602Y-48236378D01*
X152879910Y-48234956D01*
X153042095Y-48159328D01*
X153066577Y-48147912D01*
X153066580Y-48147910D01*
X153071558Y-48145589D01*
X153244776Y-48024301D01*
X153394301Y-47874776D01*
X153515589Y-47701558D01*
X153585872Y-47550837D01*
X153602633Y-47514892D01*
X153602634Y-47514891D01*
X153604956Y-47509910D01*
X153659686Y-47305655D01*
X153678116Y-47095000D01*
X166491884Y-47095000D01*
X166510314Y-47305655D01*
X166565044Y-47509910D01*
X166567366Y-47514891D01*
X166567367Y-47514892D01*
X166584129Y-47550837D01*
X166654411Y-47701558D01*
X166775699Y-47874776D01*
X166925224Y-48024301D01*
X167098442Y-48145589D01*
X167103420Y-48147910D01*
X167103423Y-48147912D01*
X167127905Y-48159328D01*
X167290090Y-48234956D01*
X167295398Y-48236378D01*
X167295400Y-48236379D01*
X167362343Y-48254316D01*
X167433194Y-48273300D01*
X167489677Y-48305912D01*
X175535374Y-56351608D01*
X175545838Y-56363476D01*
X175562917Y-56385494D01*
X175582645Y-56405781D01*
X175585366Y-56408016D01*
X175585367Y-56408017D01*
X175600148Y-56420158D01*
X175604786Y-56424161D01*
X175691302Y-56502574D01*
X175802553Y-56603406D01*
X175805039Y-56605250D01*
X175805043Y-56605253D01*
X176035627Y-56776265D01*
X176039978Y-56779492D01*
X176042619Y-56781075D01*
X176042628Y-56781081D01*
X176093523Y-56811586D01*
X176293519Y-56931459D01*
X176560735Y-57057843D01*
X176576540Y-57063498D01*
X176634877Y-57107133D01*
X176635332Y-57107883D01*
X176695885Y-57177664D01*
X176728590Y-57215353D01*
X176791993Y-57288419D01*
X176796119Y-57291802D01*
X176796123Y-57291806D01*
X176909836Y-57385044D01*
X176976833Y-57439978D01*
X176981469Y-57442617D01*
X176981472Y-57442619D01*
X177033242Y-57472088D01*
X177184566Y-57558227D01*
X177409253Y-57639784D01*
X177414502Y-57640733D01*
X177414505Y-57640734D01*
X177640385Y-57681580D01*
X177640393Y-57681581D01*
X177644469Y-57682318D01*
X177662859Y-57683185D01*
X177668044Y-57683430D01*
X177668051Y-57683430D01*
X177669532Y-57683500D01*
X179637512Y-57683500D01*
X179815675Y-57668383D01*
X179820839Y-57667043D01*
X179820843Y-57667042D01*
X180041875Y-57609673D01*
X180041880Y-57609671D01*
X180047040Y-57608332D01*
X180122257Y-57574449D01*
X180260119Y-57512347D01*
X180260122Y-57512346D01*
X180264980Y-57510157D01*
X180463262Y-57376666D01*
X180512354Y-57329835D01*
X180632361Y-57215353D01*
X180636218Y-57211674D01*
X180778902Y-57019900D01*
X180823199Y-56932775D01*
X180884814Y-56811586D01*
X180884814Y-56811585D01*
X180887233Y-56806828D01*
X180937608Y-56644594D01*
X180956532Y-56583651D01*
X180956533Y-56583645D01*
X180958116Y-56578548D01*
X180989523Y-56341589D01*
X180980555Y-56102726D01*
X180931470Y-55868789D01*
X180843671Y-55646467D01*
X180719668Y-55442117D01*
X180716171Y-55438087D01*
X180566507Y-55265614D01*
X180566505Y-55265612D01*
X180563007Y-55261581D01*
X180558881Y-55258198D01*
X180558877Y-55258194D01*
X180382295Y-55113407D01*
X180378167Y-55110022D01*
X180373531Y-55107383D01*
X180373528Y-55107381D01*
X180175077Y-54994416D01*
X180170434Y-54991773D01*
X179945747Y-54910216D01*
X179940498Y-54909267D01*
X179940495Y-54909266D01*
X179714615Y-54868420D01*
X179714607Y-54868419D01*
X179710531Y-54867682D01*
X179692141Y-54866815D01*
X179686956Y-54866570D01*
X179686949Y-54866570D01*
X179685468Y-54866500D01*
X177717488Y-54866500D01*
X177539325Y-54881617D01*
X177534161Y-54882957D01*
X177534157Y-54882958D01*
X177313125Y-54940327D01*
X177313120Y-54940329D01*
X177307960Y-54941668D01*
X177163865Y-55006578D01*
X177093541Y-55016319D01*
X177029113Y-54986494D01*
X177027528Y-54984990D01*
X177025716Y-54982720D01*
X176986098Y-54949240D01*
X176978332Y-54942098D01*
X173921555Y-51885321D01*
X177866320Y-51885321D01*
X177872444Y-52145187D01*
X177917806Y-52401137D01*
X178001360Y-52647281D01*
X178121185Y-52877954D01*
X178124000Y-52881808D01*
X178124003Y-52881812D01*
X178251533Y-53056378D01*
X178274523Y-53087847D01*
X178352740Y-53166475D01*
X178454471Y-53268741D01*
X178454476Y-53268745D01*
X178457845Y-53272132D01*
X178461697Y-53274977D01*
X178461698Y-53274978D01*
X178484624Y-53291911D01*
X178666934Y-53426567D01*
X178896976Y-53547598D01*
X178901495Y-53549159D01*
X178901501Y-53549161D01*
X179078034Y-53610118D01*
X179142679Y-53632440D01*
X179398388Y-53679141D01*
X179481561Y-53683500D01*
X179643599Y-53683500D01*
X179645978Y-53683319D01*
X179645979Y-53683319D01*
X179831923Y-53669175D01*
X179831928Y-53669174D01*
X179836690Y-53668812D01*
X179841344Y-53667733D01*
X179841346Y-53667733D01*
X180085260Y-53611197D01*
X180089915Y-53610118D01*
X180331348Y-53513795D01*
X180555434Y-53382062D01*
X180757015Y-53217949D01*
X180931453Y-53025233D01*
X180949934Y-52997259D01*
X181059533Y-52831357D01*
X181074733Y-52808349D01*
X181085322Y-52785381D01*
X181181553Y-52576640D01*
X181181554Y-52576637D01*
X181183559Y-52572288D01*
X181214945Y-52463193D01*
X181254105Y-52327075D01*
X181254106Y-52327070D01*
X181255426Y-52322482D01*
X181288680Y-52064679D01*
X181283762Y-51855968D01*
X181282669Y-51809592D01*
X181282669Y-51809587D01*
X181282556Y-51804813D01*
X181244244Y-51588642D01*
X181238028Y-51553567D01*
X181238027Y-51553563D01*
X181237194Y-51548863D01*
X181153640Y-51302719D01*
X181033815Y-51072046D01*
X180958302Y-50968681D01*
X180883300Y-50866017D01*
X180883299Y-50866016D01*
X180880477Y-50862153D01*
X180788816Y-50770010D01*
X180700529Y-50681259D01*
X180700524Y-50681255D01*
X180697155Y-50677868D01*
X180622193Y-50622500D01*
X180586928Y-50596453D01*
X180488066Y-50523433D01*
X180258024Y-50402402D01*
X180253505Y-50400841D01*
X180253499Y-50400839D01*
X180016839Y-50319120D01*
X180016838Y-50319120D01*
X180012321Y-50317560D01*
X179756612Y-50270859D01*
X179673439Y-50266500D01*
X179511401Y-50266500D01*
X179509022Y-50266681D01*
X179509021Y-50266681D01*
X179323077Y-50280825D01*
X179323072Y-50280826D01*
X179318310Y-50281188D01*
X179313656Y-50282267D01*
X179313654Y-50282267D01*
X179069740Y-50338803D01*
X179065085Y-50339882D01*
X178823652Y-50436205D01*
X178599566Y-50567938D01*
X178397985Y-50732051D01*
X178223547Y-50924767D01*
X178080267Y-51141651D01*
X178078266Y-51145991D01*
X178078264Y-51145995D01*
X177976793Y-51366103D01*
X177971441Y-51377712D01*
X177970117Y-51382313D01*
X177970117Y-51382314D01*
X177935886Y-51501301D01*
X177899574Y-51627518D01*
X177866320Y-51885321D01*
X173921555Y-51885321D01*
X170682937Y-48646703D01*
X180516743Y-48646703D01*
X180554268Y-48931734D01*
X180630129Y-49209036D01*
X180742923Y-49473476D01*
X180754693Y-49493142D01*
X180863396Y-49674771D01*
X180890561Y-49720161D01*
X181070313Y-49944528D01*
X181278851Y-50142423D01*
X181512317Y-50310186D01*
X181516112Y-50312195D01*
X181516113Y-50312196D01*
X181537869Y-50323715D01*
X181766392Y-50444712D01*
X182036373Y-50543511D01*
X182317264Y-50604755D01*
X182345841Y-50607004D01*
X182540282Y-50622307D01*
X182540291Y-50622307D01*
X182542739Y-50622500D01*
X182698271Y-50622500D01*
X182700407Y-50622354D01*
X182700418Y-50622354D01*
X182908548Y-50608165D01*
X182908554Y-50608164D01*
X182912825Y-50607873D01*
X182917020Y-50607004D01*
X182917022Y-50607004D01*
X183053583Y-50578724D01*
X183194342Y-50549574D01*
X183465343Y-50453607D01*
X183720812Y-50321750D01*
X183724313Y-50319289D01*
X183724317Y-50319287D01*
X183838418Y-50239095D01*
X183956023Y-50156441D01*
X184113952Y-50009684D01*
X184163479Y-49963661D01*
X184163481Y-49963658D01*
X184166622Y-49960740D01*
X184348713Y-49738268D01*
X184498927Y-49493142D01*
X184614483Y-49229898D01*
X184693244Y-48953406D01*
X184733751Y-48668784D01*
X184733845Y-48650951D01*
X184735235Y-48385583D01*
X184735235Y-48385576D01*
X184735257Y-48381297D01*
X184725560Y-48307637D01*
X184698292Y-48100522D01*
X184697732Y-48096266D01*
X184621871Y-47818964D01*
X184509077Y-47554524D01*
X184361439Y-47307839D01*
X184181687Y-47083472D01*
X184039766Y-46948794D01*
X183976258Y-46888527D01*
X183976255Y-46888525D01*
X183973149Y-46885577D01*
X183739683Y-46717814D01*
X183717843Y-46706250D01*
X183668435Y-46680090D01*
X183485608Y-46583288D01*
X183349329Y-46533417D01*
X183219658Y-46485964D01*
X183219656Y-46485963D01*
X183215627Y-46484489D01*
X182934736Y-46423245D01*
X182903685Y-46420801D01*
X182711718Y-46405693D01*
X182711709Y-46405693D01*
X182709261Y-46405500D01*
X182553729Y-46405500D01*
X182551593Y-46405646D01*
X182551582Y-46405646D01*
X182343452Y-46419835D01*
X182343446Y-46419836D01*
X182339175Y-46420127D01*
X182334980Y-46420996D01*
X182334978Y-46420996D01*
X182198416Y-46449277D01*
X182057658Y-46478426D01*
X181786657Y-46574393D01*
X181531188Y-46706250D01*
X181527687Y-46708711D01*
X181527683Y-46708713D01*
X181517594Y-46715804D01*
X181295977Y-46871559D01*
X181085378Y-47067260D01*
X180903287Y-47289732D01*
X180753073Y-47534858D01*
X180637517Y-47798102D01*
X180558756Y-48074594D01*
X180518249Y-48359216D01*
X180518227Y-48363505D01*
X180518226Y-48363512D01*
X180517159Y-48567207D01*
X180516743Y-48646703D01*
X170682937Y-48646703D01*
X168915913Y-46879679D01*
X168883301Y-46823195D01*
X168846379Y-46685400D01*
X168846378Y-46685398D01*
X168844956Y-46680090D01*
X168800754Y-46585299D01*
X168757912Y-46493423D01*
X168757910Y-46493420D01*
X168755589Y-46488442D01*
X168634301Y-46315224D01*
X168484776Y-46165699D01*
X168311558Y-46044411D01*
X168306580Y-46042090D01*
X168306577Y-46042088D01*
X168124892Y-45957367D01*
X168124891Y-45957366D01*
X168119910Y-45955044D01*
X168114602Y-45953622D01*
X168114600Y-45953621D01*
X167920970Y-45901738D01*
X167920968Y-45901738D01*
X167915655Y-45900314D01*
X167705000Y-45881884D01*
X167494345Y-45900314D01*
X167489032Y-45901738D01*
X167489030Y-45901738D01*
X167295400Y-45953621D01*
X167295398Y-45953622D01*
X167290090Y-45955044D01*
X167285109Y-45957366D01*
X167285108Y-45957367D01*
X167103423Y-46042088D01*
X167103420Y-46042090D01*
X167098442Y-46044411D01*
X166925224Y-46165699D01*
X166775699Y-46315224D01*
X166654411Y-46488442D01*
X166652090Y-46493420D01*
X166652088Y-46493423D01*
X166609246Y-46585299D01*
X166565044Y-46680090D01*
X166510314Y-46884345D01*
X166491884Y-47095000D01*
X153678116Y-47095000D01*
X153659686Y-46884345D01*
X153604956Y-46680090D01*
X153560754Y-46585299D01*
X153517912Y-46493423D01*
X153517910Y-46493420D01*
X153515589Y-46488442D01*
X153394301Y-46315224D01*
X153244776Y-46165699D01*
X153071558Y-46044411D01*
X153066580Y-46042090D01*
X153066577Y-46042088D01*
X152884892Y-45957367D01*
X152884891Y-45957366D01*
X152879910Y-45955044D01*
X152874602Y-45953622D01*
X152874600Y-45953621D01*
X152680970Y-45901738D01*
X152680968Y-45901738D01*
X152675655Y-45900314D01*
X152465000Y-45881884D01*
X152254345Y-45900314D01*
X152249032Y-45901738D01*
X152249030Y-45901738D01*
X152055400Y-45953621D01*
X152055398Y-45953622D01*
X152050090Y-45955044D01*
X152045109Y-45957366D01*
X152045108Y-45957367D01*
X151863423Y-46042088D01*
X151863420Y-46042090D01*
X151858442Y-46044411D01*
X151685224Y-46165699D01*
X151535699Y-46315224D01*
X151414411Y-46488442D01*
X151412090Y-46493420D01*
X151412088Y-46493423D01*
X151369246Y-46585299D01*
X151325044Y-46680090D01*
X151270314Y-46884345D01*
X151251884Y-47095000D01*
X151252363Y-47100475D01*
X151263750Y-47230629D01*
X151249761Y-47300234D01*
X151227324Y-47330706D01*
X149013667Y-49544363D01*
X149001276Y-49555230D01*
X148982462Y-49569666D01*
X148982459Y-49569668D01*
X148976434Y-49574292D01*
X148964742Y-49588887D01*
X148948244Y-49605911D01*
X148867619Y-49674771D01*
X148828241Y-49708403D01*
X148812248Y-49720023D01*
X148656349Y-49815558D01*
X148638744Y-49824528D01*
X148469822Y-49894498D01*
X148451024Y-49900605D01*
X148438401Y-49903636D01*
X148367493Y-49900088D01*
X148308164Y-49856682D01*
X148238642Y-49763919D01*
X148233261Y-49756739D01*
X148116705Y-49669385D01*
X147980316Y-49618255D01*
X147918134Y-49611500D01*
X146721866Y-49611500D01*
X146659684Y-49618255D01*
X146523295Y-49669385D01*
X146406739Y-49756739D01*
X146319385Y-49873295D01*
X146268255Y-50009684D01*
X146261500Y-50071866D01*
X146261500Y-51268134D01*
X142944053Y-51268134D01*
X142931331Y-51264438D01*
X142924926Y-51263934D01*
X142924921Y-51263933D01*
X142896458Y-51261693D01*
X142896450Y-51261693D01*
X142894002Y-51261500D01*
X141585998Y-51261500D01*
X141583550Y-51261693D01*
X141583542Y-51261693D01*
X141555079Y-51263933D01*
X141555074Y-51263934D01*
X141548669Y-51264438D01*
X141448731Y-51293472D01*
X141396512Y-51308643D01*
X141396510Y-51308644D01*
X141388899Y-51310855D01*
X141332931Y-51343955D01*
X141268794Y-51361500D01*
X140125200Y-51361500D01*
X140106259Y-51359622D01*
X140105062Y-51359247D01*
X140031635Y-51352500D01*
X140028737Y-51352500D01*
X139699140Y-51352501D01*
X139368366Y-51352501D01*
X139365508Y-51352764D01*
X139365499Y-51352764D01*
X139329996Y-51356026D01*
X139294938Y-51359247D01*
X139288560Y-51361246D01*
X139288559Y-51361246D01*
X139138550Y-51408256D01*
X139138548Y-51408257D01*
X139131301Y-51410528D01*
X138984619Y-51499361D01*
X138968385Y-51515595D01*
X138906073Y-51549621D01*
X138879290Y-51552500D01*
X138429476Y-51552500D01*
X138361355Y-51532498D01*
X138321700Y-51491771D01*
X138310870Y-51473887D01*
X138238639Y-51354619D01*
X138117381Y-51233361D01*
X137970699Y-51144528D01*
X137963452Y-51142257D01*
X137963450Y-51142256D01*
X137873667Y-51114120D01*
X137807062Y-51093247D01*
X137733635Y-51086500D01*
X137730737Y-51086500D01*
X137476335Y-51086501D01*
X137220366Y-51086501D01*
X137217508Y-51086764D01*
X137217499Y-51086764D01*
X137181996Y-51090026D01*
X137146938Y-51093247D01*
X137140560Y-51095246D01*
X137140559Y-51095246D01*
X136990550Y-51142256D01*
X136990548Y-51142257D01*
X136983301Y-51144528D01*
X136836619Y-51233361D01*
X136741095Y-51328885D01*
X136678783Y-51362911D01*
X136607968Y-51357846D01*
X136562905Y-51328885D01*
X136467381Y-51233361D01*
X136320699Y-51144528D01*
X136313452Y-51142257D01*
X136313450Y-51142256D01*
X136223667Y-51114120D01*
X136157062Y-51093247D01*
X136083635Y-51086500D01*
X136080737Y-51086500D01*
X135826335Y-51086501D01*
X135570366Y-51086501D01*
X135567508Y-51086764D01*
X135567499Y-51086764D01*
X135531996Y-51090026D01*
X135496938Y-51093247D01*
X135490560Y-51095246D01*
X135490559Y-51095246D01*
X135340550Y-51142256D01*
X135340548Y-51142257D01*
X135333301Y-51144528D01*
X135186619Y-51233361D01*
X135065361Y-51354619D01*
X134976528Y-51501301D01*
X134974257Y-51508548D01*
X134974256Y-51508550D01*
X134970662Y-51520020D01*
X134925247Y-51664938D01*
X134918500Y-51738365D01*
X134918500Y-51924340D01*
X134898498Y-51992461D01*
X134881595Y-52013435D01*
X134492759Y-52402271D01*
X134479318Y-52413935D01*
X134457802Y-52430090D01*
X134447122Y-52440548D01*
X134444578Y-52443792D01*
X134444575Y-52443796D01*
X134440656Y-52448795D01*
X134435453Y-52455009D01*
X134245073Y-52668043D01*
X134243038Y-52670910D01*
X134243038Y-52670911D01*
X134234953Y-52682306D01*
X134069034Y-52916147D01*
X133921881Y-53182401D01*
X133805464Y-53463456D01*
X133721247Y-53755779D01*
X133670289Y-54055693D01*
X133659820Y-54242115D01*
X133654895Y-54329812D01*
X133654016Y-54339187D01*
X133652335Y-54351953D01*
X133654967Y-54375790D01*
X133656739Y-54391843D01*
X133657500Y-54405670D01*
X133657500Y-67681609D01*
X133656422Y-67698055D01*
X133654145Y-67715353D01*
X133652335Y-67729099D01*
X133654387Y-67747686D01*
X133654760Y-67771392D01*
X133653696Y-67784913D01*
X133642378Y-67928723D01*
X133639285Y-67948250D01*
X133613517Y-68055584D01*
X133596605Y-68126027D01*
X133590497Y-68144826D01*
X133520528Y-68313744D01*
X133511558Y-68331349D01*
X133416025Y-68487246D01*
X133404409Y-68503234D01*
X133306872Y-68617435D01*
X133287771Y-68635561D01*
X133286889Y-68636238D01*
X133286887Y-68636240D01*
X133280861Y-68640864D01*
X133256178Y-68671674D01*
X133255769Y-68672184D01*
X133246530Y-68682499D01*
X131820973Y-70108057D01*
X130415316Y-71513714D01*
X130353004Y-71547740D01*
X130304125Y-71548666D01*
X130181373Y-71526800D01*
X130181367Y-71526799D01*
X130176284Y-71525894D01*
X130102452Y-71524992D01*
X129958081Y-71523228D01*
X129958079Y-71523228D01*
X129952911Y-71523165D01*
X129732091Y-71556955D01*
X129519756Y-71626357D01*
X129321607Y-71729507D01*
X129317474Y-71732610D01*
X129317471Y-71732612D01*
X129216399Y-71808499D01*
X129142965Y-71863635D01*
X128988629Y-72025138D01*
X128862743Y-72209680D01*
X128860564Y-72214375D01*
X128789059Y-72368420D01*
X128768688Y-72412305D01*
X128708989Y-72627570D01*
X128685251Y-72849695D01*
X128685548Y-72854848D01*
X128685548Y-72854851D01*
X128690843Y-72946677D01*
X128698110Y-73072715D01*
X128699247Y-73077761D01*
X128699248Y-73077767D01*
X128714731Y-73146467D01*
X128747222Y-73290639D01*
X128831266Y-73497616D01*
X128833965Y-73502020D01*
X128944783Y-73682859D01*
X128947987Y-73688088D01*
X129094250Y-73856938D01*
X129266126Y-73999632D01*
X129336595Y-74040811D01*
X129339445Y-74042476D01*
X129388169Y-74094114D01*
X129401240Y-74163897D01*
X129374509Y-74229669D01*
X129334055Y-74263027D01*
X129321607Y-74269507D01*
X129317474Y-74272610D01*
X129317471Y-74272612D01*
X129147100Y-74400530D01*
X129142965Y-74403635D01*
X129088494Y-74460636D01*
X129027768Y-74524182D01*
X128988629Y-74565138D01*
X128985715Y-74569410D01*
X128985714Y-74569411D01*
X128929861Y-74651289D01*
X128862743Y-74749680D01*
X128822757Y-74835823D01*
X128775981Y-74936594D01*
X128768688Y-74952305D01*
X128708989Y-75167570D01*
X128685251Y-75389695D01*
X128685548Y-75394848D01*
X128685548Y-75394851D01*
X128697463Y-75601498D01*
X128698110Y-75612715D01*
X128699247Y-75617761D01*
X128699248Y-75617767D01*
X128714323Y-75684657D01*
X128747222Y-75830639D01*
X128831266Y-76037616D01*
X128844064Y-76058500D01*
X128937777Y-76211426D01*
X128947987Y-76228088D01*
X129094250Y-76396938D01*
X129266126Y-76539632D01*
X129336595Y-76580811D01*
X129339445Y-76582476D01*
X129388169Y-76634114D01*
X129401240Y-76703897D01*
X129374509Y-76769669D01*
X129334055Y-76803027D01*
X129321607Y-76809507D01*
X129317474Y-76812610D01*
X129317471Y-76812612D01*
X129166391Y-76926046D01*
X129142965Y-76943635D01*
X128988629Y-77105138D01*
X128985715Y-77109410D01*
X128985714Y-77109411D01*
X128975427Y-77124491D01*
X128862743Y-77289680D01*
X128836195Y-77346873D01*
X128781704Y-77464265D01*
X128768688Y-77492305D01*
X128708989Y-77707570D01*
X128685251Y-77929695D01*
X126238000Y-77929695D01*
X126238000Y-69096966D01*
X128716257Y-69096966D01*
X128746565Y-69231446D01*
X128749645Y-69241275D01*
X128829770Y-69438603D01*
X128834413Y-69447794D01*
X128945694Y-69629388D01*
X128951777Y-69637699D01*
X129091213Y-69798667D01*
X129098580Y-69805883D01*
X129262434Y-69941916D01*
X129270881Y-69947831D01*
X129454756Y-70055279D01*
X129464042Y-70059729D01*
X129663001Y-70135703D01*
X129672899Y-70138579D01*
X129776250Y-70159606D01*
X129790299Y-70158410D01*
X129794000Y-70148065D01*
X129794000Y-70147517D01*
X130302000Y-70147517D01*
X130306064Y-70161359D01*
X130319478Y-70163393D01*
X130326184Y-70162534D01*
X130336262Y-70160392D01*
X130540255Y-70099191D01*
X130549842Y-70095433D01*
X130741095Y-70001739D01*
X130749945Y-69996464D01*
X130923328Y-69872792D01*
X130931200Y-69866139D01*
X131082052Y-69715812D01*
X131088730Y-69707965D01*
X131213003Y-69535020D01*
X131218313Y-69526183D01*
X131312670Y-69335267D01*
X131316469Y-69325672D01*
X131378377Y-69121910D01*
X131380555Y-69111837D01*
X131381986Y-69100962D01*
X131379775Y-69086778D01*
X131366617Y-69083000D01*
X130320115Y-69083000D01*
X130304876Y-69087475D01*
X130303671Y-69088865D01*
X130302000Y-69096548D01*
X130302000Y-70147517D01*
X129794000Y-70147517D01*
X129794000Y-69101115D01*
X129789525Y-69085876D01*
X129788135Y-69084671D01*
X129780452Y-69083000D01*
X128731225Y-69083000D01*
X128717694Y-69086973D01*
X128716257Y-69096966D01*
X126238000Y-69096966D01*
X126238000Y-67187134D01*
X128689500Y-67187134D01*
X128696255Y-67249316D01*
X128747385Y-67385705D01*
X128834739Y-67502261D01*
X128951295Y-67589615D01*
X128959704Y-67592767D01*
X128959705Y-67592768D01*
X129068960Y-67633726D01*
X129125725Y-67676367D01*
X129150425Y-67742929D01*
X129135218Y-67812278D01*
X129115825Y-67838759D01*
X128992590Y-67967717D01*
X128986104Y-67975727D01*
X128866098Y-68151649D01*
X128861000Y-68160623D01*
X128771338Y-68353783D01*
X128767775Y-68363470D01*
X128712389Y-68563183D01*
X128713912Y-68571607D01*
X128726292Y-68575000D01*
X131366344Y-68575000D01*
X131379875Y-68571027D01*
X131381180Y-68561947D01*
X131339214Y-68394875D01*
X131335894Y-68385124D01*
X131250972Y-68189814D01*
X131246105Y-68180739D01*
X131130426Y-68001926D01*
X131124136Y-67993757D01*
X130980293Y-67835677D01*
X130949241Y-67771831D01*
X130957635Y-67701333D01*
X131002812Y-67646564D01*
X131029256Y-67632895D01*
X131136297Y-67592767D01*
X131144705Y-67589615D01*
X131261261Y-67502261D01*
X131348615Y-67385705D01*
X131399745Y-67249316D01*
X131406500Y-67187134D01*
X131406500Y-65390866D01*
X131399745Y-65328684D01*
X131348615Y-65192295D01*
X131261261Y-65075739D01*
X131144705Y-64988385D01*
X131008316Y-64937255D01*
X130946134Y-64930500D01*
X129149866Y-64930500D01*
X129087684Y-64937255D01*
X128951295Y-64988385D01*
X128834739Y-65075739D01*
X128747385Y-65192295D01*
X128696255Y-65328684D01*
X128689500Y-65390866D01*
X128689500Y-67187134D01*
X126238000Y-67187134D01*
X126238000Y-56872588D01*
X129497483Y-56872588D01*
X129516472Y-57089632D01*
X129518375Y-57100425D01*
X129574764Y-57310874D01*
X129578510Y-57321166D01*
X129670586Y-57518624D01*
X129676071Y-57528124D01*
X129676701Y-57529023D01*
X129676856Y-57529483D01*
X129678818Y-57532881D01*
X129678135Y-57533275D01*
X129699388Y-57596297D01*
X129682102Y-57665157D01*
X129659066Y-57690916D01*
X129660270Y-57692120D01*
X129653919Y-57698471D01*
X129646739Y-57703852D01*
X129641358Y-57711032D01*
X129641355Y-57711035D01*
X129615732Y-57745224D01*
X129559385Y-57820408D01*
X129508255Y-57956797D01*
X129501500Y-58018979D01*
X129501500Y-59715247D01*
X129508255Y-59777429D01*
X129559385Y-59913818D01*
X129646739Y-60030374D01*
X129763295Y-60117728D01*
X129899684Y-60168858D01*
X129961866Y-60175613D01*
X131658134Y-60175613D01*
X131720316Y-60168858D01*
X131856705Y-60117728D01*
X131973261Y-60030374D01*
X132060615Y-59913818D01*
X132111745Y-59777429D01*
X132118500Y-59715247D01*
X132118500Y-58018979D01*
X132111745Y-57956797D01*
X132060615Y-57820408D01*
X132004268Y-57745224D01*
X131978645Y-57711035D01*
X131978642Y-57711032D01*
X131973261Y-57703852D01*
X131966081Y-57698471D01*
X131959730Y-57692120D01*
X131961872Y-57689978D01*
X131928436Y-57645267D01*
X131923406Y-57574449D01*
X131941523Y-57533078D01*
X131941182Y-57532881D01*
X131942952Y-57529815D01*
X131943299Y-57529023D01*
X131943929Y-57528124D01*
X131949414Y-57518624D01*
X132041490Y-57321166D01*
X132045236Y-57310874D01*
X132101625Y-57100425D01*
X132103528Y-57089632D01*
X132122517Y-56872588D01*
X132122517Y-56861638D01*
X132103528Y-56644594D01*
X132101625Y-56633801D01*
X132045236Y-56423352D01*
X132041490Y-56413060D01*
X131949414Y-56215602D01*
X131943931Y-56206107D01*
X131907491Y-56154065D01*
X131897012Y-56145689D01*
X131883566Y-56152757D01*
X130899095Y-57137228D01*
X130836783Y-57171254D01*
X130765968Y-57166189D01*
X130720905Y-57137228D01*
X129735713Y-56152036D01*
X129723938Y-56145606D01*
X129711923Y-56154902D01*
X129676069Y-56206107D01*
X129670586Y-56215602D01*
X129578510Y-56413060D01*
X129574764Y-56423352D01*
X129518375Y-56633801D01*
X129516472Y-56644594D01*
X129497483Y-56861638D01*
X129497483Y-56872588D01*
X126238000Y-56872588D01*
X126238000Y-55780101D01*
X130088576Y-55780101D01*
X130095644Y-55793547D01*
X130797188Y-56495091D01*
X130811132Y-56502705D01*
X130812965Y-56502574D01*
X130819580Y-56498323D01*
X131525077Y-55792826D01*
X131531507Y-55781051D01*
X131522211Y-55769036D01*
X131471006Y-55733182D01*
X131461511Y-55727699D01*
X131264053Y-55635623D01*
X131253761Y-55631877D01*
X131043312Y-55575488D01*
X131032519Y-55573585D01*
X130815475Y-55554596D01*
X130804525Y-55554596D01*
X130587481Y-55573585D01*
X130576688Y-55575488D01*
X130366239Y-55631877D01*
X130355947Y-55635623D01*
X130158489Y-55727699D01*
X130148994Y-55733182D01*
X130096952Y-55769622D01*
X130088576Y-55780101D01*
X126238000Y-55780101D01*
X126238000Y-48646703D01*
X127684743Y-48646703D01*
X127722268Y-48931734D01*
X127798129Y-49209036D01*
X127910923Y-49473476D01*
X127922693Y-49493142D01*
X128031396Y-49674771D01*
X128058561Y-49720161D01*
X128238313Y-49944528D01*
X128446851Y-50142423D01*
X128680317Y-50310186D01*
X128684112Y-50312195D01*
X128684113Y-50312196D01*
X128705869Y-50323715D01*
X128934392Y-50444712D01*
X129204373Y-50543511D01*
X129485264Y-50604755D01*
X129513841Y-50607004D01*
X129708282Y-50622307D01*
X129708291Y-50622307D01*
X129710739Y-50622500D01*
X129866271Y-50622500D01*
X129868407Y-50622354D01*
X129868418Y-50622354D01*
X130076548Y-50608165D01*
X130076554Y-50608164D01*
X130080825Y-50607873D01*
X130085020Y-50607004D01*
X130085022Y-50607004D01*
X130221583Y-50578724D01*
X130362342Y-50549574D01*
X130633343Y-50453607D01*
X130888812Y-50321750D01*
X130892313Y-50319289D01*
X130892317Y-50319287D01*
X131006418Y-50239095D01*
X131124023Y-50156441D01*
X131281952Y-50009684D01*
X131331479Y-49963661D01*
X131331481Y-49963658D01*
X131334622Y-49960740D01*
X131516713Y-49738268D01*
X131666927Y-49493142D01*
X131782483Y-49229898D01*
X131861244Y-48953406D01*
X131901751Y-48668784D01*
X131901845Y-48650951D01*
X131903235Y-48385583D01*
X131903235Y-48385576D01*
X131903257Y-48381297D01*
X131893560Y-48307637D01*
X131866292Y-48100522D01*
X131865732Y-48096266D01*
X131789871Y-47818964D01*
X131677077Y-47554524D01*
X131529439Y-47307839D01*
X131349687Y-47083472D01*
X131207766Y-46948794D01*
X131144258Y-46888527D01*
X131144255Y-46888525D01*
X131141149Y-46885577D01*
X130907683Y-46717814D01*
X130885843Y-46706250D01*
X130836435Y-46680090D01*
X130653608Y-46583288D01*
X130517329Y-46533417D01*
X130387658Y-46485964D01*
X130387656Y-46485963D01*
X130383627Y-46484489D01*
X130102736Y-46423245D01*
X130071685Y-46420801D01*
X129879718Y-46405693D01*
X129879709Y-46405693D01*
X129877261Y-46405500D01*
X129721729Y-46405500D01*
X129719593Y-46405646D01*
X129719582Y-46405646D01*
X129511452Y-46419835D01*
X129511446Y-46419836D01*
X129507175Y-46420127D01*
X129502980Y-46420996D01*
X129502978Y-46420996D01*
X129366416Y-46449277D01*
X129225658Y-46478426D01*
X128954657Y-46574393D01*
X128699188Y-46706250D01*
X128695687Y-46708711D01*
X128695683Y-46708713D01*
X128685594Y-46715804D01*
X128463977Y-46871559D01*
X128253378Y-47067260D01*
X128071287Y-47289732D01*
X127921073Y-47534858D01*
X127805517Y-47798102D01*
X127726756Y-48074594D01*
X127686249Y-48359216D01*
X127686227Y-48363505D01*
X127686226Y-48363512D01*
X127685159Y-48567207D01*
X127684743Y-48646703D01*
X126238000Y-48646703D01*
X126238000Y-48567207D01*
X126239746Y-48546303D01*
X126242264Y-48531335D01*
X126243071Y-48526539D01*
X126243224Y-48514000D01*
X126241048Y-48498804D01*
X126239927Y-48474763D01*
X126244728Y-48377049D01*
X126254820Y-48171627D01*
X126256031Y-48159328D01*
X126305421Y-47826375D01*
X126307828Y-47814269D01*
X126389615Y-47487754D01*
X126393204Y-47475924D01*
X126506599Y-47159006D01*
X126511331Y-47147582D01*
X126590794Y-46979571D01*
X126655244Y-46843303D01*
X126661071Y-46832402D01*
X126666590Y-46823195D01*
X126809179Y-46585299D01*
X126834114Y-46543698D01*
X126840984Y-46533417D01*
X127041488Y-46263069D01*
X127049332Y-46253511D01*
X127275371Y-46004115D01*
X127284115Y-45995371D01*
X127533511Y-45769332D01*
X127543069Y-45761488D01*
X127813417Y-45560984D01*
X127823698Y-45554114D01*
X128112402Y-45381071D01*
X128123307Y-45375242D01*
X128427582Y-45231331D01*
X128439006Y-45226599D01*
X128755924Y-45113204D01*
X128767756Y-45109615D01*
X129094269Y-45027828D01*
X129106375Y-45025421D01*
X129439333Y-44976030D01*
X129451627Y-44974820D01*
X129751065Y-44960109D01*
X129776632Y-44961458D01*
X129778857Y-44961805D01*
X129778861Y-44961805D01*
X129787730Y-44963186D01*
X129796632Y-44962022D01*
X129796635Y-44962022D01*
X129816791Y-44959386D01*
X129819252Y-44959064D01*
X129835589Y-44958000D01*
X182576672Y-44958000D01*
X182596057Y-44959500D01*
G37*
%TD.AperFunction*%
%TD*%
M02*
