%TF.GenerationSoftware,KiCad,Pcbnew,(6.0.0)*%
%TF.CreationDate,2022-01-04T00:38:58-05:00*%
%TF.ProjectId,4x relay board,34782072-656c-4617-9920-626f6172642e,rev?*%
%TF.SameCoordinates,Original*%
%TF.FileFunction,Legend,Top*%
%TF.FilePolarity,Positive*%
%FSLAX46Y46*%
G04 Gerber Fmt 4.6, Leading zero omitted, Abs format (unit mm)*
G04 Created by KiCad (PCBNEW (6.0.0)) date 2022-01-04 00:38:58*
%MOMM*%
%LPD*%
G01*
G04 APERTURE LIST*
%ADD10C,0.150000*%
%ADD11C,0.120000*%
G04 APERTURE END LIST*
D10*
X133032476Y-72683714D02*
X133032476Y-73350380D01*
X132794380Y-72302761D02*
X132556285Y-73017047D01*
X133175333Y-73017047D01*
X130080857Y-46172380D02*
X130080857Y-45648571D01*
X130033238Y-45553333D01*
X129938000Y-45505714D01*
X129747523Y-45505714D01*
X129652285Y-45553333D01*
X130080857Y-46124761D02*
X129985619Y-46172380D01*
X129747523Y-46172380D01*
X129652285Y-46124761D01*
X129604666Y-46029523D01*
X129604666Y-45934285D01*
X129652285Y-45839047D01*
X129747523Y-45791428D01*
X129985619Y-45791428D01*
X130080857Y-45743809D01*
X130557047Y-46172380D02*
X130557047Y-45172380D01*
X130557047Y-45553333D02*
X130652285Y-45505714D01*
X130842761Y-45505714D01*
X130938000Y-45553333D01*
X130985619Y-45600952D01*
X131033238Y-45696190D01*
X131033238Y-45981904D01*
X130985619Y-46077142D01*
X130938000Y-46124761D01*
X130842761Y-46172380D01*
X130652285Y-46172380D01*
X130557047Y-46124761D01*
X131366571Y-45505714D02*
X131890380Y-45505714D01*
X131366571Y-46172380D01*
X131890380Y-46172380D01*
X132271333Y-46172380D02*
X132271333Y-45505714D01*
X132271333Y-45600952D02*
X132318952Y-45553333D01*
X132414190Y-45505714D01*
X132557047Y-45505714D01*
X132652285Y-45553333D01*
X132699904Y-45648571D01*
X132699904Y-46172380D01*
X132699904Y-45648571D02*
X132747523Y-45553333D01*
X132842761Y-45505714D01*
X132985619Y-45505714D01*
X133080857Y-45553333D01*
X133128476Y-45648571D01*
X133128476Y-46172380D01*
X134033238Y-46172380D02*
X134033238Y-45648571D01*
X133985619Y-45553333D01*
X133890380Y-45505714D01*
X133699904Y-45505714D01*
X133604666Y-45553333D01*
X134033238Y-46124761D02*
X133938000Y-46172380D01*
X133699904Y-46172380D01*
X133604666Y-46124761D01*
X133557047Y-46029523D01*
X133557047Y-45934285D01*
X133604666Y-45839047D01*
X133699904Y-45791428D01*
X133938000Y-45791428D01*
X134033238Y-45743809D01*
X134509428Y-45505714D02*
X134509428Y-46172380D01*
X134509428Y-45600952D02*
X134557047Y-45553333D01*
X134652285Y-45505714D01*
X134795142Y-45505714D01*
X134890380Y-45553333D01*
X134938000Y-45648571D01*
X134938000Y-46172380D01*
X135366571Y-45267619D02*
X135414190Y-45220000D01*
X135509428Y-45172380D01*
X135747523Y-45172380D01*
X135842761Y-45220000D01*
X135890380Y-45267619D01*
X135938000Y-45362857D01*
X135938000Y-45458095D01*
X135890380Y-45600952D01*
X135318952Y-46172380D01*
X135938000Y-46172380D01*
X136366571Y-46172380D02*
X136366571Y-45172380D01*
X136461809Y-45791428D02*
X136747523Y-46172380D01*
X136747523Y-45505714D02*
X136366571Y-45886666D01*
X137176095Y-46077142D02*
X137223714Y-46124761D01*
X137176095Y-46172380D01*
X137128476Y-46124761D01*
X137176095Y-46077142D01*
X137176095Y-46172380D01*
X137557047Y-45505714D02*
X137747523Y-46172380D01*
X137938000Y-45696190D01*
X138128476Y-46172380D01*
X138318952Y-45505714D01*
X138842761Y-46172380D02*
X138747523Y-46124761D01*
X138699904Y-46077142D01*
X138652285Y-45981904D01*
X138652285Y-45696190D01*
X138699904Y-45600952D01*
X138747523Y-45553333D01*
X138842761Y-45505714D01*
X138985619Y-45505714D01*
X139080857Y-45553333D01*
X139128476Y-45600952D01*
X139176095Y-45696190D01*
X139176095Y-45981904D01*
X139128476Y-46077142D01*
X139080857Y-46124761D01*
X138985619Y-46172380D01*
X138842761Y-46172380D01*
X139604666Y-46172380D02*
X139604666Y-45505714D01*
X139604666Y-45696190D02*
X139652285Y-45600952D01*
X139699904Y-45553333D01*
X139795142Y-45505714D01*
X139890380Y-45505714D01*
X140652285Y-46172380D02*
X140652285Y-45172380D01*
X140652285Y-46124761D02*
X140557047Y-46172380D01*
X140366571Y-46172380D01*
X140271333Y-46124761D01*
X140223714Y-46077142D01*
X140176095Y-45981904D01*
X140176095Y-45696190D01*
X140223714Y-45600952D01*
X140271333Y-45553333D01*
X140366571Y-45505714D01*
X140557047Y-45505714D01*
X140652285Y-45553333D01*
X141128476Y-45505714D02*
X141128476Y-46505714D01*
X141128476Y-45553333D02*
X141223714Y-45505714D01*
X141414190Y-45505714D01*
X141509428Y-45553333D01*
X141557047Y-45600952D01*
X141604666Y-45696190D01*
X141604666Y-45981904D01*
X141557047Y-46077142D01*
X141509428Y-46124761D01*
X141414190Y-46172380D01*
X141223714Y-46172380D01*
X141128476Y-46124761D01*
X142033238Y-46172380D02*
X142033238Y-45505714D01*
X142033238Y-45696190D02*
X142080857Y-45600952D01*
X142128476Y-45553333D01*
X142223714Y-45505714D01*
X142318952Y-45505714D01*
X143033238Y-46124761D02*
X142938000Y-46172380D01*
X142747523Y-46172380D01*
X142652285Y-46124761D01*
X142604666Y-46029523D01*
X142604666Y-45648571D01*
X142652285Y-45553333D01*
X142747523Y-45505714D01*
X142938000Y-45505714D01*
X143033238Y-45553333D01*
X143080857Y-45648571D01*
X143080857Y-45743809D01*
X142604666Y-45839047D01*
X143461809Y-46124761D02*
X143557047Y-46172380D01*
X143747523Y-46172380D01*
X143842761Y-46124761D01*
X143890380Y-46029523D01*
X143890380Y-45981904D01*
X143842761Y-45886666D01*
X143747523Y-45839047D01*
X143604666Y-45839047D01*
X143509428Y-45791428D01*
X143461809Y-45696190D01*
X143461809Y-45648571D01*
X143509428Y-45553333D01*
X143604666Y-45505714D01*
X143747523Y-45505714D01*
X143842761Y-45553333D01*
X144271333Y-46124761D02*
X144366571Y-46172380D01*
X144557047Y-46172380D01*
X144652285Y-46124761D01*
X144699904Y-46029523D01*
X144699904Y-45981904D01*
X144652285Y-45886666D01*
X144557047Y-45839047D01*
X144414190Y-45839047D01*
X144318952Y-45791428D01*
X144271333Y-45696190D01*
X144271333Y-45648571D01*
X144318952Y-45553333D01*
X144414190Y-45505714D01*
X144557047Y-45505714D01*
X144652285Y-45553333D01*
X145128476Y-46077142D02*
X145176095Y-46124761D01*
X145128476Y-46172380D01*
X145080857Y-46124761D01*
X145128476Y-46077142D01*
X145128476Y-46172380D01*
X146033238Y-46124761D02*
X145938000Y-46172380D01*
X145747523Y-46172380D01*
X145652285Y-46124761D01*
X145604666Y-46077142D01*
X145557047Y-45981904D01*
X145557047Y-45696190D01*
X145604666Y-45600952D01*
X145652285Y-45553333D01*
X145747523Y-45505714D01*
X145938000Y-45505714D01*
X146033238Y-45553333D01*
X146604666Y-46172380D02*
X146509428Y-46124761D01*
X146461809Y-46077142D01*
X146414190Y-45981904D01*
X146414190Y-45696190D01*
X146461809Y-45600952D01*
X146509428Y-45553333D01*
X146604666Y-45505714D01*
X146747523Y-45505714D01*
X146842761Y-45553333D01*
X146890380Y-45600952D01*
X146938000Y-45696190D01*
X146938000Y-45981904D01*
X146890380Y-46077142D01*
X146842761Y-46124761D01*
X146747523Y-46172380D01*
X146604666Y-46172380D01*
X147366571Y-46172380D02*
X147366571Y-45505714D01*
X147366571Y-45600952D02*
X147414190Y-45553333D01*
X147509428Y-45505714D01*
X147652285Y-45505714D01*
X147747523Y-45553333D01*
X147795142Y-45648571D01*
X147795142Y-46172380D01*
X147795142Y-45648571D02*
X147842761Y-45553333D01*
X147938000Y-45505714D01*
X148080857Y-45505714D01*
X148176095Y-45553333D01*
X148223714Y-45648571D01*
X148223714Y-46172380D01*
X132453142Y-68334000D02*
X132357904Y-68286380D01*
X132215047Y-68286380D01*
X132072190Y-68334000D01*
X131976952Y-68429238D01*
X131929333Y-68524476D01*
X131881714Y-68714952D01*
X131881714Y-68857809D01*
X131929333Y-69048285D01*
X131976952Y-69143523D01*
X132072190Y-69238761D01*
X132215047Y-69286380D01*
X132310285Y-69286380D01*
X132453142Y-69238761D01*
X132500761Y-69191142D01*
X132500761Y-68857809D01*
X132310285Y-68857809D01*
X132929333Y-68619714D02*
X132929333Y-69286380D01*
X132929333Y-68714952D02*
X132976952Y-68667333D01*
X133072190Y-68619714D01*
X133215047Y-68619714D01*
X133310285Y-68667333D01*
X133357904Y-68762571D01*
X133357904Y-69286380D01*
X134262666Y-69286380D02*
X134262666Y-68286380D01*
X134262666Y-69238761D02*
X134167428Y-69286380D01*
X133976952Y-69286380D01*
X133881714Y-69238761D01*
X133834095Y-69191142D01*
X133786476Y-69095904D01*
X133786476Y-68810190D01*
X133834095Y-68714952D01*
X133881714Y-68667333D01*
X133976952Y-68619714D01*
X134167428Y-68619714D01*
X134262666Y-68667333D01*
X132191142Y-65492380D02*
X131714952Y-65492380D01*
X131667333Y-65968571D01*
X131714952Y-65920952D01*
X131810190Y-65873333D01*
X132048285Y-65873333D01*
X132143523Y-65920952D01*
X132191142Y-65968571D01*
X132238761Y-66063809D01*
X132238761Y-66301904D01*
X132191142Y-66397142D01*
X132143523Y-66444761D01*
X132048285Y-66492380D01*
X131810190Y-66492380D01*
X131714952Y-66444761D01*
X131667333Y-66397142D01*
X132572095Y-65825714D02*
X132810190Y-66492380D01*
X133048285Y-65825714D01*
X132508666Y-74890380D02*
X133127714Y-74890380D01*
X132794380Y-75271333D01*
X132937238Y-75271333D01*
X133032476Y-75318952D01*
X133080095Y-75366571D01*
X133127714Y-75461809D01*
X133127714Y-75699904D01*
X133080095Y-75795142D01*
X133032476Y-75842761D01*
X132937238Y-75890380D01*
X132651523Y-75890380D01*
X132556285Y-75842761D01*
X132508666Y-75795142D01*
X135787428Y-80557714D02*
X135787428Y-81224380D01*
X135549333Y-80176761D02*
X135311238Y-80891047D01*
X135930285Y-80891047D01*
X136216000Y-81224380D02*
X136739809Y-80557714D01*
X136216000Y-80557714D02*
X136739809Y-81224380D01*
X137882666Y-81224380D02*
X137882666Y-80557714D01*
X137882666Y-80748190D02*
X137930285Y-80652952D01*
X137977904Y-80605333D01*
X138073142Y-80557714D01*
X138168380Y-80557714D01*
X138882666Y-81176761D02*
X138787428Y-81224380D01*
X138596952Y-81224380D01*
X138501714Y-81176761D01*
X138454095Y-81081523D01*
X138454095Y-80700571D01*
X138501714Y-80605333D01*
X138596952Y-80557714D01*
X138787428Y-80557714D01*
X138882666Y-80605333D01*
X138930285Y-80700571D01*
X138930285Y-80795809D01*
X138454095Y-80891047D01*
X139501714Y-81224380D02*
X139406476Y-81176761D01*
X139358857Y-81081523D01*
X139358857Y-80224380D01*
X140311238Y-81224380D02*
X140311238Y-80700571D01*
X140263619Y-80605333D01*
X140168380Y-80557714D01*
X139977904Y-80557714D01*
X139882666Y-80605333D01*
X140311238Y-81176761D02*
X140216000Y-81224380D01*
X139977904Y-81224380D01*
X139882666Y-81176761D01*
X139835047Y-81081523D01*
X139835047Y-80986285D01*
X139882666Y-80891047D01*
X139977904Y-80843428D01*
X140216000Y-80843428D01*
X140311238Y-80795809D01*
X140692190Y-80557714D02*
X140930285Y-81224380D01*
X141168380Y-80557714D02*
X140930285Y-81224380D01*
X140835047Y-81462476D01*
X140787428Y-81510095D01*
X140692190Y-81557714D01*
X142311238Y-81224380D02*
X142311238Y-80224380D01*
X142311238Y-80605333D02*
X142406476Y-80557714D01*
X142596952Y-80557714D01*
X142692190Y-80605333D01*
X142739809Y-80652952D01*
X142787428Y-80748190D01*
X142787428Y-81033904D01*
X142739809Y-81129142D01*
X142692190Y-81176761D01*
X142596952Y-81224380D01*
X142406476Y-81224380D01*
X142311238Y-81176761D01*
X143358857Y-81224380D02*
X143263619Y-81176761D01*
X143216000Y-81129142D01*
X143168380Y-81033904D01*
X143168380Y-80748190D01*
X143216000Y-80652952D01*
X143263619Y-80605333D01*
X143358857Y-80557714D01*
X143501714Y-80557714D01*
X143596952Y-80605333D01*
X143644571Y-80652952D01*
X143692190Y-80748190D01*
X143692190Y-81033904D01*
X143644571Y-81129142D01*
X143596952Y-81176761D01*
X143501714Y-81224380D01*
X143358857Y-81224380D01*
X144549333Y-81224380D02*
X144549333Y-80700571D01*
X144501714Y-80605333D01*
X144406476Y-80557714D01*
X144216000Y-80557714D01*
X144120761Y-80605333D01*
X144549333Y-81176761D02*
X144454095Y-81224380D01*
X144216000Y-81224380D01*
X144120761Y-81176761D01*
X144073142Y-81081523D01*
X144073142Y-80986285D01*
X144120761Y-80891047D01*
X144216000Y-80843428D01*
X144454095Y-80843428D01*
X144549333Y-80795809D01*
X145025523Y-81224380D02*
X145025523Y-80557714D01*
X145025523Y-80748190D02*
X145073142Y-80652952D01*
X145120761Y-80605333D01*
X145216000Y-80557714D01*
X145311238Y-80557714D01*
X146073142Y-81224380D02*
X146073142Y-80224380D01*
X146073142Y-81176761D02*
X145977904Y-81224380D01*
X145787428Y-81224380D01*
X145692190Y-81176761D01*
X145644571Y-81129142D01*
X145596952Y-81033904D01*
X145596952Y-80748190D01*
X145644571Y-80652952D01*
X145692190Y-80605333D01*
X145787428Y-80557714D01*
X145977904Y-80557714D01*
X146073142Y-80605333D01*
X133127714Y-81224380D02*
X132556285Y-81224380D01*
X132842000Y-81224380D02*
X132842000Y-80224380D01*
X132746761Y-80367238D01*
X132651523Y-80462476D01*
X132556285Y-80510095D01*
X175093333Y-58364380D02*
X174760000Y-57888190D01*
X174521904Y-58364380D02*
X174521904Y-57364380D01*
X174902857Y-57364380D01*
X174998095Y-57412000D01*
X175045714Y-57459619D01*
X175093333Y-57554857D01*
X175093333Y-57697714D01*
X175045714Y-57792952D01*
X174998095Y-57840571D01*
X174902857Y-57888190D01*
X174521904Y-57888190D01*
X175950476Y-57697714D02*
X175950476Y-58364380D01*
X175712380Y-57316761D02*
X175474285Y-58031047D01*
X176093333Y-58031047D01*
X175093333Y-65222380D02*
X174760000Y-64746190D01*
X174521904Y-65222380D02*
X174521904Y-64222380D01*
X174902857Y-64222380D01*
X174998095Y-64270000D01*
X175045714Y-64317619D01*
X175093333Y-64412857D01*
X175093333Y-64555714D01*
X175045714Y-64650952D01*
X174998095Y-64698571D01*
X174902857Y-64746190D01*
X174521904Y-64746190D01*
X175426666Y-64222380D02*
X176045714Y-64222380D01*
X175712380Y-64603333D01*
X175855238Y-64603333D01*
X175950476Y-64650952D01*
X175998095Y-64698571D01*
X176045714Y-64793809D01*
X176045714Y-65031904D01*
X175998095Y-65127142D01*
X175950476Y-65174761D01*
X175855238Y-65222380D01*
X175569523Y-65222380D01*
X175474285Y-65174761D01*
X175426666Y-65127142D01*
X175093333Y-79954380D02*
X174760000Y-79478190D01*
X174521904Y-79954380D02*
X174521904Y-78954380D01*
X174902857Y-78954380D01*
X174998095Y-79002000D01*
X175045714Y-79049619D01*
X175093333Y-79144857D01*
X175093333Y-79287714D01*
X175045714Y-79382952D01*
X174998095Y-79430571D01*
X174902857Y-79478190D01*
X174521904Y-79478190D01*
X176045714Y-79954380D02*
X175474285Y-79954380D01*
X175760000Y-79954380D02*
X175760000Y-78954380D01*
X175664761Y-79097238D01*
X175569523Y-79192476D01*
X175474285Y-79240095D01*
X175093333Y-72334380D02*
X174760000Y-71858190D01*
X174521904Y-72334380D02*
X174521904Y-71334380D01*
X174902857Y-71334380D01*
X174998095Y-71382000D01*
X175045714Y-71429619D01*
X175093333Y-71524857D01*
X175093333Y-71667714D01*
X175045714Y-71762952D01*
X174998095Y-71810571D01*
X174902857Y-71858190D01*
X174521904Y-71858190D01*
X175474285Y-71429619D02*
X175521904Y-71382000D01*
X175617142Y-71334380D01*
X175855238Y-71334380D01*
X175950476Y-71382000D01*
X175998095Y-71429619D01*
X176045714Y-71524857D01*
X176045714Y-71620095D01*
X175998095Y-71762952D01*
X175426666Y-72334380D01*
X176045714Y-72334380D01*
X132556285Y-77525619D02*
X132603904Y-77478000D01*
X132699142Y-77430380D01*
X132937238Y-77430380D01*
X133032476Y-77478000D01*
X133080095Y-77525619D01*
X133127714Y-77620857D01*
X133127714Y-77716095D01*
X133080095Y-77858952D01*
X132508666Y-78430380D01*
X133127714Y-78430380D01*
%TO.C,R7*%
X140660380Y-62142666D02*
X140184190Y-62476000D01*
X140660380Y-62714095D02*
X139660380Y-62714095D01*
X139660380Y-62333142D01*
X139708000Y-62237904D01*
X139755619Y-62190285D01*
X139850857Y-62142666D01*
X139993714Y-62142666D01*
X140088952Y-62190285D01*
X140136571Y-62237904D01*
X140184190Y-62333142D01*
X140184190Y-62714095D01*
X139660380Y-61809333D02*
X139660380Y-61142666D01*
X140660380Y-61571238D01*
%TO.C,D4*%
X149677380Y-52681095D02*
X148677380Y-52681095D01*
X148677380Y-52443000D01*
X148725000Y-52300142D01*
X148820238Y-52204904D01*
X148915476Y-52157285D01*
X149105952Y-52109666D01*
X149248809Y-52109666D01*
X149439285Y-52157285D01*
X149534523Y-52204904D01*
X149629761Y-52300142D01*
X149677380Y-52443000D01*
X149677380Y-52681095D01*
X149010714Y-51252523D02*
X149677380Y-51252523D01*
X148629761Y-51490619D02*
X149344047Y-51728714D01*
X149344047Y-51109666D01*
X147772380Y-59546857D02*
X147772380Y-60118285D01*
X147772380Y-59832571D02*
X146772380Y-59832571D01*
X146915238Y-59927809D01*
X147010476Y-60023047D01*
X147058095Y-60118285D01*
X147772380Y-59118285D02*
X146772380Y-59118285D01*
X147772380Y-58546857D01*
X146772380Y-58546857D01*
X147105714Y-57642095D02*
X147772380Y-57642095D01*
X146724761Y-57880190D02*
X147439047Y-58118285D01*
X147439047Y-57499238D01*
X147772380Y-56594476D02*
X147772380Y-57165904D01*
X147772380Y-56880190D02*
X146772380Y-56880190D01*
X146915238Y-56975428D01*
X147010476Y-57070666D01*
X147058095Y-57165904D01*
X147105714Y-55737333D02*
X147772380Y-55737333D01*
X146724761Y-55975428D02*
X147439047Y-56213523D01*
X147439047Y-55594476D01*
X147200952Y-55070666D02*
X147153333Y-55165904D01*
X147105714Y-55213523D01*
X147010476Y-55261142D01*
X146962857Y-55261142D01*
X146867619Y-55213523D01*
X146820000Y-55165904D01*
X146772380Y-55070666D01*
X146772380Y-54880190D01*
X146820000Y-54784952D01*
X146867619Y-54737333D01*
X146962857Y-54689714D01*
X147010476Y-54689714D01*
X147105714Y-54737333D01*
X147153333Y-54784952D01*
X147200952Y-54880190D01*
X147200952Y-55070666D01*
X147248571Y-55165904D01*
X147296190Y-55213523D01*
X147391428Y-55261142D01*
X147581904Y-55261142D01*
X147677142Y-55213523D01*
X147724761Y-55165904D01*
X147772380Y-55070666D01*
X147772380Y-54880190D01*
X147724761Y-54784952D01*
X147677142Y-54737333D01*
X147581904Y-54689714D01*
X147391428Y-54689714D01*
X147296190Y-54737333D01*
X147248571Y-54784952D01*
X147200952Y-54880190D01*
%TO.C,R2*%
X137247333Y-74460380D02*
X136914000Y-73984190D01*
X136675904Y-74460380D02*
X136675904Y-73460380D01*
X137056857Y-73460380D01*
X137152095Y-73508000D01*
X137199714Y-73555619D01*
X137247333Y-73650857D01*
X137247333Y-73793714D01*
X137199714Y-73888952D01*
X137152095Y-73936571D01*
X137056857Y-73984190D01*
X136675904Y-73984190D01*
X137628285Y-73555619D02*
X137675904Y-73508000D01*
X137771142Y-73460380D01*
X138009238Y-73460380D01*
X138104476Y-73508000D01*
X138152095Y-73555619D01*
X138199714Y-73650857D01*
X138199714Y-73746095D01*
X138152095Y-73888952D01*
X137580666Y-74460380D01*
X138199714Y-74460380D01*
%TO.C,K2*%
X147851904Y-70302380D02*
X147851904Y-69302380D01*
X148423333Y-70302380D02*
X147994761Y-69730952D01*
X148423333Y-69302380D02*
X147851904Y-69873809D01*
X148804285Y-69397619D02*
X148851904Y-69350000D01*
X148947142Y-69302380D01*
X149185238Y-69302380D01*
X149280476Y-69350000D01*
X149328095Y-69397619D01*
X149375714Y-69492857D01*
X149375714Y-69588095D01*
X149328095Y-69730952D01*
X148756666Y-70302380D01*
X149375714Y-70302380D01*
%TO.C,Q2*%
X143414761Y-74347619D02*
X143319523Y-74300000D01*
X143224285Y-74204761D01*
X143081428Y-74061904D01*
X142986190Y-74014285D01*
X142890952Y-74014285D01*
X142938571Y-74252380D02*
X142843333Y-74204761D01*
X142748095Y-74109523D01*
X142700476Y-73919047D01*
X142700476Y-73585714D01*
X142748095Y-73395238D01*
X142843333Y-73300000D01*
X142938571Y-73252380D01*
X143129047Y-73252380D01*
X143224285Y-73300000D01*
X143319523Y-73395238D01*
X143367142Y-73585714D01*
X143367142Y-73919047D01*
X143319523Y-74109523D01*
X143224285Y-74204761D01*
X143129047Y-74252380D01*
X142938571Y-74252380D01*
X143748095Y-73347619D02*
X143795714Y-73300000D01*
X143890952Y-73252380D01*
X144129047Y-73252380D01*
X144224285Y-73300000D01*
X144271904Y-73347619D01*
X144319523Y-73442857D01*
X144319523Y-73538095D01*
X144271904Y-73680952D01*
X143700476Y-74252380D01*
X144319523Y-74252380D01*
%TO.C,R4*%
X136485333Y-49220380D02*
X136152000Y-48744190D01*
X135913904Y-49220380D02*
X135913904Y-48220380D01*
X136294857Y-48220380D01*
X136390095Y-48268000D01*
X136437714Y-48315619D01*
X136485333Y-48410857D01*
X136485333Y-48553714D01*
X136437714Y-48648952D01*
X136390095Y-48696571D01*
X136294857Y-48744190D01*
X135913904Y-48744190D01*
X137342476Y-48553714D02*
X137342476Y-49220380D01*
X137104380Y-48172761D02*
X136866285Y-48887047D01*
X137485333Y-48887047D01*
X136437714Y-50744380D02*
X135866285Y-50744380D01*
X136152000Y-50744380D02*
X136152000Y-49744380D01*
X136056761Y-49887238D01*
X135961523Y-49982476D01*
X135866285Y-50030095D01*
X136866285Y-50744380D02*
X136866285Y-49744380D01*
X137437714Y-50744380D02*
X137009142Y-50172952D01*
X137437714Y-49744380D02*
X136866285Y-50315809D01*
%TO.C,C1*%
X130643333Y-54398255D02*
X130595714Y-54445874D01*
X130452857Y-54493493D01*
X130357619Y-54493493D01*
X130214761Y-54445874D01*
X130119523Y-54350636D01*
X130071904Y-54255398D01*
X130024285Y-54064922D01*
X130024285Y-53922065D01*
X130071904Y-53731589D01*
X130119523Y-53636351D01*
X130214761Y-53541113D01*
X130357619Y-53493493D01*
X130452857Y-53493493D01*
X130595714Y-53541113D01*
X130643333Y-53588732D01*
X131595714Y-54493493D02*
X131024285Y-54493493D01*
X131310000Y-54493493D02*
X131310000Y-53493493D01*
X131214761Y-53636351D01*
X131119523Y-53731589D01*
X131024285Y-53779208D01*
X129516380Y-62113493D02*
X128944952Y-62113493D01*
X129230666Y-62113493D02*
X129230666Y-61113493D01*
X129135428Y-61256351D01*
X129040190Y-61351589D01*
X128944952Y-61399208D01*
X130135428Y-61113493D02*
X130230666Y-61113493D01*
X130325904Y-61161113D01*
X130373523Y-61208732D01*
X130421142Y-61303970D01*
X130468761Y-61494446D01*
X130468761Y-61732541D01*
X130421142Y-61923017D01*
X130373523Y-62018255D01*
X130325904Y-62065874D01*
X130230666Y-62113493D01*
X130135428Y-62113493D01*
X130040190Y-62065874D01*
X129992571Y-62018255D01*
X129944952Y-61923017D01*
X129897333Y-61732541D01*
X129897333Y-61494446D01*
X129944952Y-61303970D01*
X129992571Y-61208732D01*
X130040190Y-61161113D01*
X130135428Y-61113493D01*
X131087809Y-61113493D02*
X131183047Y-61113493D01*
X131278285Y-61161113D01*
X131325904Y-61208732D01*
X131373523Y-61303970D01*
X131421142Y-61494446D01*
X131421142Y-61732541D01*
X131373523Y-61923017D01*
X131325904Y-62018255D01*
X131278285Y-62065874D01*
X131183047Y-62113493D01*
X131087809Y-62113493D01*
X130992571Y-62065874D01*
X130944952Y-62018255D01*
X130897333Y-61923017D01*
X130849714Y-61732541D01*
X130849714Y-61494446D01*
X130897333Y-61303970D01*
X130944952Y-61208732D01*
X130992571Y-61161113D01*
X131087809Y-61113493D01*
X132278285Y-61446827D02*
X132278285Y-62113493D01*
X131849714Y-61446827D02*
X131849714Y-61970636D01*
X131897333Y-62065874D01*
X131992571Y-62113493D01*
X132135428Y-62113493D01*
X132230666Y-62065874D01*
X132278285Y-62018255D01*
X133087809Y-61589684D02*
X132754476Y-61589684D01*
X132754476Y-62113493D02*
X132754476Y-61113493D01*
X133230666Y-61113493D01*
%TO.C,D3*%
X149677380Y-64111095D02*
X148677380Y-64111095D01*
X148677380Y-63873000D01*
X148725000Y-63730142D01*
X148820238Y-63634904D01*
X148915476Y-63587285D01*
X149105952Y-63539666D01*
X149248809Y-63539666D01*
X149439285Y-63587285D01*
X149534523Y-63634904D01*
X149629761Y-63730142D01*
X149677380Y-63873000D01*
X149677380Y-64111095D01*
X148677380Y-63206333D02*
X148677380Y-62587285D01*
X149058333Y-62920619D01*
X149058333Y-62777761D01*
X149105952Y-62682523D01*
X149153571Y-62634904D01*
X149248809Y-62587285D01*
X149486904Y-62587285D01*
X149582142Y-62634904D01*
X149629761Y-62682523D01*
X149677380Y-62777761D01*
X149677380Y-63063476D01*
X149629761Y-63158714D01*
X149582142Y-63206333D01*
%TO.C,Q4*%
X143082261Y-51167619D02*
X142987023Y-51120000D01*
X142891785Y-51024761D01*
X142748928Y-50881904D01*
X142653690Y-50834285D01*
X142558452Y-50834285D01*
X142606071Y-51072380D02*
X142510833Y-51024761D01*
X142415595Y-50929523D01*
X142367976Y-50739047D01*
X142367976Y-50405714D01*
X142415595Y-50215238D01*
X142510833Y-50120000D01*
X142606071Y-50072380D01*
X142796547Y-50072380D01*
X142891785Y-50120000D01*
X142987023Y-50215238D01*
X143034642Y-50405714D01*
X143034642Y-50739047D01*
X142987023Y-50929523D01*
X142891785Y-51024761D01*
X142796547Y-51072380D01*
X142606071Y-51072380D01*
X143891785Y-50405714D02*
X143891785Y-51072380D01*
X143653690Y-50024761D02*
X143415595Y-50739047D01*
X144034642Y-50739047D01*
X140463214Y-55173619D02*
X140510833Y-55126000D01*
X140606071Y-55078380D01*
X140844166Y-55078380D01*
X140939404Y-55126000D01*
X140987023Y-55173619D01*
X141034642Y-55268857D01*
X141034642Y-55364095D01*
X140987023Y-55506952D01*
X140415595Y-56078380D01*
X141034642Y-56078380D01*
X141463214Y-56078380D02*
X141463214Y-55078380D01*
X142034642Y-56078380D01*
X142034642Y-55078380D01*
X142415595Y-55078380D02*
X143082261Y-55078380D01*
X142653690Y-56078380D01*
X143653690Y-55078380D02*
X143748928Y-55078380D01*
X143844166Y-55126000D01*
X143891785Y-55173619D01*
X143939404Y-55268857D01*
X143987023Y-55459333D01*
X143987023Y-55697428D01*
X143939404Y-55887904D01*
X143891785Y-55983142D01*
X143844166Y-56030761D01*
X143748928Y-56078380D01*
X143653690Y-56078380D01*
X143558452Y-56030761D01*
X143510833Y-55983142D01*
X143463214Y-55887904D01*
X143415595Y-55697428D01*
X143415595Y-55459333D01*
X143463214Y-55268857D01*
X143510833Y-55173619D01*
X143558452Y-55126000D01*
X143653690Y-55078380D01*
X144606071Y-55078380D02*
X144701309Y-55078380D01*
X144796547Y-55126000D01*
X144844166Y-55173619D01*
X144891785Y-55268857D01*
X144939404Y-55459333D01*
X144939404Y-55697428D01*
X144891785Y-55887904D01*
X144844166Y-55983142D01*
X144796547Y-56030761D01*
X144701309Y-56078380D01*
X144606071Y-56078380D01*
X144510833Y-56030761D01*
X144463214Y-55983142D01*
X144415595Y-55887904D01*
X144367976Y-55697428D01*
X144367976Y-55459333D01*
X144415595Y-55268857D01*
X144463214Y-55173619D01*
X144510833Y-55126000D01*
X144606071Y-55078380D01*
X145320357Y-55173619D02*
X145367976Y-55126000D01*
X145463214Y-55078380D01*
X145701309Y-55078380D01*
X145796547Y-55126000D01*
X145844166Y-55173619D01*
X145891785Y-55268857D01*
X145891785Y-55364095D01*
X145844166Y-55506952D01*
X145272738Y-56078380D01*
X145891785Y-56078380D01*
%TO.C,R6*%
X140660380Y-73572666D02*
X140184190Y-73906000D01*
X140660380Y-74144095D02*
X139660380Y-74144095D01*
X139660380Y-73763142D01*
X139708000Y-73667904D01*
X139755619Y-73620285D01*
X139850857Y-73572666D01*
X139993714Y-73572666D01*
X140088952Y-73620285D01*
X140136571Y-73667904D01*
X140184190Y-73763142D01*
X140184190Y-74144095D01*
X139660380Y-72715523D02*
X139660380Y-72906000D01*
X139708000Y-73001238D01*
X139755619Y-73048857D01*
X139898476Y-73144095D01*
X140088952Y-73191714D01*
X140469904Y-73191714D01*
X140565142Y-73144095D01*
X140612761Y-73096476D01*
X140660380Y-73001238D01*
X140660380Y-72810761D01*
X140612761Y-72715523D01*
X140565142Y-72667904D01*
X140469904Y-72620285D01*
X140231809Y-72620285D01*
X140136571Y-72667904D01*
X140088952Y-72715523D01*
X140041333Y-72810761D01*
X140041333Y-73001238D01*
X140088952Y-73096476D01*
X140136571Y-73144095D01*
X140231809Y-73191714D01*
%TO.C,K1*%
X147851904Y-81732380D02*
X147851904Y-80732380D01*
X148423333Y-81732380D02*
X147994761Y-81160952D01*
X148423333Y-80732380D02*
X147851904Y-81303809D01*
X149375714Y-81732380D02*
X148804285Y-81732380D01*
X149090000Y-81732380D02*
X149090000Y-80732380D01*
X148994761Y-80875238D01*
X148899523Y-80970476D01*
X148804285Y-81018095D01*
%TO.C,R5*%
X140914380Y-85256666D02*
X140438190Y-85590000D01*
X140914380Y-85828095D02*
X139914380Y-85828095D01*
X139914380Y-85447142D01*
X139962000Y-85351904D01*
X140009619Y-85304285D01*
X140104857Y-85256666D01*
X140247714Y-85256666D01*
X140342952Y-85304285D01*
X140390571Y-85351904D01*
X140438190Y-85447142D01*
X140438190Y-85828095D01*
X139914380Y-84351904D02*
X139914380Y-84828095D01*
X140390571Y-84875714D01*
X140342952Y-84828095D01*
X140295333Y-84732857D01*
X140295333Y-84494761D01*
X140342952Y-84399523D01*
X140390571Y-84351904D01*
X140485809Y-84304285D01*
X140723904Y-84304285D01*
X140819142Y-84351904D01*
X140866761Y-84399523D01*
X140914380Y-84494761D01*
X140914380Y-84732857D01*
X140866761Y-84828095D01*
X140819142Y-84875714D01*
%TO.C,Q1*%
X143414761Y-85777619D02*
X143319523Y-85730000D01*
X143224285Y-85634761D01*
X143081428Y-85491904D01*
X142986190Y-85444285D01*
X142890952Y-85444285D01*
X142938571Y-85682380D02*
X142843333Y-85634761D01*
X142748095Y-85539523D01*
X142700476Y-85349047D01*
X142700476Y-85015714D01*
X142748095Y-84825238D01*
X142843333Y-84730000D01*
X142938571Y-84682380D01*
X143129047Y-84682380D01*
X143224285Y-84730000D01*
X143319523Y-84825238D01*
X143367142Y-85015714D01*
X143367142Y-85349047D01*
X143319523Y-85539523D01*
X143224285Y-85634761D01*
X143129047Y-85682380D01*
X142938571Y-85682380D01*
X144319523Y-85682380D02*
X143748095Y-85682380D01*
X144033809Y-85682380D02*
X144033809Y-84682380D01*
X143938571Y-84825238D01*
X143843333Y-84920476D01*
X143748095Y-84968095D01*
%TO.C,R1*%
X137755333Y-85890380D02*
X137422000Y-85414190D01*
X137183904Y-85890380D02*
X137183904Y-84890380D01*
X137564857Y-84890380D01*
X137660095Y-84938000D01*
X137707714Y-84985619D01*
X137755333Y-85080857D01*
X137755333Y-85223714D01*
X137707714Y-85318952D01*
X137660095Y-85366571D01*
X137564857Y-85414190D01*
X137183904Y-85414190D01*
X138707714Y-85890380D02*
X138136285Y-85890380D01*
X138422000Y-85890380D02*
X138422000Y-84890380D01*
X138326761Y-85033238D01*
X138231523Y-85128476D01*
X138136285Y-85176095D01*
%TO.C,D1*%
X149677380Y-86971095D02*
X148677380Y-86971095D01*
X148677380Y-86733000D01*
X148725000Y-86590142D01*
X148820238Y-86494904D01*
X148915476Y-86447285D01*
X149105952Y-86399666D01*
X149248809Y-86399666D01*
X149439285Y-86447285D01*
X149534523Y-86494904D01*
X149629761Y-86590142D01*
X149677380Y-86733000D01*
X149677380Y-86971095D01*
X149677380Y-85447285D02*
X149677380Y-86018714D01*
X149677380Y-85733000D02*
X148677380Y-85733000D01*
X148820238Y-85828238D01*
X148915476Y-85923476D01*
X148963095Y-86018714D01*
%TO.C,R3*%
X137247333Y-63030380D02*
X136914000Y-62554190D01*
X136675904Y-63030380D02*
X136675904Y-62030380D01*
X137056857Y-62030380D01*
X137152095Y-62078000D01*
X137199714Y-62125619D01*
X137247333Y-62220857D01*
X137247333Y-62363714D01*
X137199714Y-62458952D01*
X137152095Y-62506571D01*
X137056857Y-62554190D01*
X136675904Y-62554190D01*
X137580666Y-62030380D02*
X138199714Y-62030380D01*
X137866380Y-62411333D01*
X138009238Y-62411333D01*
X138104476Y-62458952D01*
X138152095Y-62506571D01*
X138199714Y-62601809D01*
X138199714Y-62839904D01*
X138152095Y-62935142D01*
X138104476Y-62982761D01*
X138009238Y-63030380D01*
X137723523Y-63030380D01*
X137628285Y-62982761D01*
X137580666Y-62935142D01*
%TO.C,K4*%
X148867904Y-46934380D02*
X148867904Y-45934380D01*
X149439333Y-46934380D02*
X149010761Y-46362952D01*
X149439333Y-45934380D02*
X148867904Y-46505809D01*
X150296476Y-46267714D02*
X150296476Y-46934380D01*
X150058380Y-45886761D02*
X149820285Y-46601047D01*
X150439333Y-46601047D01*
%TO.C,D2*%
X150312380Y-75668095D02*
X149312380Y-75668095D01*
X149312380Y-75430000D01*
X149360000Y-75287142D01*
X149455238Y-75191904D01*
X149550476Y-75144285D01*
X149740952Y-75096666D01*
X149883809Y-75096666D01*
X150074285Y-75144285D01*
X150169523Y-75191904D01*
X150264761Y-75287142D01*
X150312380Y-75430000D01*
X150312380Y-75668095D01*
X149407619Y-74715714D02*
X149360000Y-74668095D01*
X149312380Y-74572857D01*
X149312380Y-74334761D01*
X149360000Y-74239523D01*
X149407619Y-74191904D01*
X149502857Y-74144285D01*
X149598095Y-74144285D01*
X149740952Y-74191904D01*
X150312380Y-74763333D01*
X150312380Y-74144285D01*
%TO.C,R8*%
X141422380Y-50204666D02*
X140946190Y-50538000D01*
X141422380Y-50776095D02*
X140422380Y-50776095D01*
X140422380Y-50395142D01*
X140470000Y-50299904D01*
X140517619Y-50252285D01*
X140612857Y-50204666D01*
X140755714Y-50204666D01*
X140850952Y-50252285D01*
X140898571Y-50299904D01*
X140946190Y-50395142D01*
X140946190Y-50776095D01*
X140850952Y-49633238D02*
X140803333Y-49728476D01*
X140755714Y-49776095D01*
X140660476Y-49823714D01*
X140612857Y-49823714D01*
X140517619Y-49776095D01*
X140470000Y-49728476D01*
X140422380Y-49633238D01*
X140422380Y-49442761D01*
X140470000Y-49347523D01*
X140517619Y-49299904D01*
X140612857Y-49252285D01*
X140660476Y-49252285D01*
X140755714Y-49299904D01*
X140803333Y-49347523D01*
X140850952Y-49442761D01*
X140850952Y-49633238D01*
X140898571Y-49728476D01*
X140946190Y-49776095D01*
X141041428Y-49823714D01*
X141231904Y-49823714D01*
X141327142Y-49776095D01*
X141374761Y-49728476D01*
X141422380Y-49633238D01*
X141422380Y-49442761D01*
X141374761Y-49347523D01*
X141327142Y-49299904D01*
X141231904Y-49252285D01*
X141041428Y-49252285D01*
X140946190Y-49299904D01*
X140898571Y-49347523D01*
X140850952Y-49442761D01*
X139644380Y-50728476D02*
X139644380Y-51299904D01*
X139644380Y-51014190D02*
X138644380Y-51014190D01*
X138787238Y-51109428D01*
X138882476Y-51204666D01*
X138930095Y-51299904D01*
X138644380Y-50109428D02*
X138644380Y-50014190D01*
X138692000Y-49918952D01*
X138739619Y-49871333D01*
X138834857Y-49823714D01*
X139025333Y-49776095D01*
X139263428Y-49776095D01*
X139453904Y-49823714D01*
X139549142Y-49871333D01*
X139596761Y-49918952D01*
X139644380Y-50014190D01*
X139644380Y-50109428D01*
X139596761Y-50204666D01*
X139549142Y-50252285D01*
X139453904Y-50299904D01*
X139263428Y-50347523D01*
X139025333Y-50347523D01*
X138834857Y-50299904D01*
X138739619Y-50252285D01*
X138692000Y-50204666D01*
X138644380Y-50109428D01*
X139644380Y-49347523D02*
X138644380Y-49347523D01*
X139644380Y-48776095D02*
X139072952Y-49204666D01*
X138644380Y-48776095D02*
X139215809Y-49347523D01*
%TO.C,K3*%
X148867904Y-58618380D02*
X148867904Y-57618380D01*
X149439333Y-58618380D02*
X149010761Y-58046952D01*
X149439333Y-57618380D02*
X148867904Y-58189809D01*
X149772666Y-57618380D02*
X150391714Y-57618380D01*
X150058380Y-57999333D01*
X150201238Y-57999333D01*
X150296476Y-58046952D01*
X150344095Y-58094571D01*
X150391714Y-58189809D01*
X150391714Y-58427904D01*
X150344095Y-58523142D01*
X150296476Y-58570761D01*
X150201238Y-58618380D01*
X149915523Y-58618380D01*
X149820285Y-58570761D01*
X149772666Y-58523142D01*
%TO.C,Q3*%
X143414761Y-62917619D02*
X143319523Y-62870000D01*
X143224285Y-62774761D01*
X143081428Y-62631904D01*
X142986190Y-62584285D01*
X142890952Y-62584285D01*
X142938571Y-62822380D02*
X142843333Y-62774761D01*
X142748095Y-62679523D01*
X142700476Y-62489047D01*
X142700476Y-62155714D01*
X142748095Y-61965238D01*
X142843333Y-61870000D01*
X142938571Y-61822380D01*
X143129047Y-61822380D01*
X143224285Y-61870000D01*
X143319523Y-61965238D01*
X143367142Y-62155714D01*
X143367142Y-62489047D01*
X143319523Y-62679523D01*
X143224285Y-62774761D01*
X143129047Y-62822380D01*
X142938571Y-62822380D01*
X143700476Y-61822380D02*
X144319523Y-61822380D01*
X143986190Y-62203333D01*
X144129047Y-62203333D01*
X144224285Y-62250952D01*
X144271904Y-62298571D01*
X144319523Y-62393809D01*
X144319523Y-62631904D01*
X144271904Y-62727142D01*
X144224285Y-62774761D01*
X144129047Y-62822380D01*
X143843333Y-62822380D01*
X143748095Y-62774761D01*
X143700476Y-62727142D01*
D11*
%TO.C,R7*%
X140730500Y-64532742D02*
X140730500Y-65007258D01*
X139685500Y-64532742D02*
X139685500Y-65007258D01*
%TO.C,J1*%
X128718000Y-70159000D02*
X131378000Y-70159000D01*
X128718000Y-66289000D02*
X128718000Y-64959000D01*
X128718000Y-67559000D02*
X128718000Y-70159000D01*
X128718000Y-64959000D02*
X130048000Y-64959000D01*
X131378000Y-67559000D02*
X131378000Y-70159000D01*
X128718000Y-67559000D02*
X131378000Y-67559000D01*
%TO.C,J3*%
X176677500Y-80775000D02*
X176077500Y-81075000D01*
X177367500Y-62225000D02*
X177367500Y-60825000D01*
X177367500Y-69225000D02*
X177367500Y-67825000D01*
X176077500Y-80475000D02*
X176677500Y-80775000D01*
X177367500Y-87785000D02*
X177367500Y-81825000D01*
X177367500Y-54065000D02*
X186787500Y-54065000D01*
X186787500Y-87785000D02*
X186787500Y-49265000D01*
X177367500Y-65725000D02*
X177367500Y-64325000D01*
X177367500Y-72725000D02*
X177367500Y-71325000D01*
X177367500Y-58725000D02*
X177367500Y-57325000D01*
X177367500Y-87785000D02*
X186787500Y-87785000D01*
X176077500Y-81075000D02*
X176077500Y-80475000D01*
X177367500Y-79725000D02*
X177367500Y-78325000D01*
X177367500Y-49265000D02*
X177367500Y-55225000D01*
X186787500Y-49265000D02*
X177367500Y-49265000D01*
X177367500Y-76225000D02*
X177367500Y-74825000D01*
X177367500Y-82985000D02*
X186787500Y-82985000D01*
X183477500Y-82985000D02*
X183477500Y-54065000D01*
%TO.C,D4*%
X148320000Y-49870000D02*
X148320000Y-53720000D01*
X146320000Y-49870000D02*
X146320000Y-53720000D01*
X148320000Y-49870000D02*
X146320000Y-49870000D01*
%TO.C,R2*%
X137176742Y-74915500D02*
X137651258Y-74915500D01*
X137176742Y-75960500D02*
X137651258Y-75960500D01*
%TO.C,K2*%
X151015000Y-68655000D02*
X169215000Y-68655000D01*
X169215000Y-68655000D02*
X169215000Y-78855000D01*
X169215000Y-78855000D02*
X151015000Y-78855000D01*
X151015000Y-78855000D02*
X151015000Y-68655000D01*
%TO.C,Q2*%
X143510000Y-77760000D02*
X142860000Y-77760000D01*
X143510000Y-77760000D02*
X144160000Y-77760000D01*
X143510000Y-74640000D02*
X141835000Y-74640000D01*
X143510000Y-74640000D02*
X144160000Y-74640000D01*
%TO.C,R4*%
X136414742Y-52592500D02*
X136889258Y-52592500D01*
X136414742Y-51547500D02*
X136889258Y-51547500D01*
%TO.C,C1*%
X131850000Y-56986113D02*
X133238000Y-56986113D01*
X131850000Y-57267113D02*
X133321000Y-57267113D01*
X131850000Y-57026113D02*
X133252000Y-57026113D01*
X131850000Y-56866113D02*
X133192000Y-56866113D01*
X131850000Y-56226113D02*
X132814000Y-56226113D01*
X131850000Y-57187113D02*
X133301000Y-57187113D01*
X131850000Y-57787113D02*
X133389000Y-57787113D01*
X131850000Y-57146113D02*
X133290000Y-57146113D01*
X128445000Y-56826113D02*
X129770000Y-56826113D01*
X131850000Y-57747113D02*
X133388000Y-57747113D01*
X128230000Y-57827113D02*
X129770000Y-57827113D01*
X129205000Y-55826113D02*
X132415000Y-55826113D01*
X131850000Y-57627113D02*
X133379000Y-57627113D01*
X128775000Y-56266113D02*
X129770000Y-56266113D01*
X131850000Y-55866113D02*
X132463000Y-55866113D01*
X128946000Y-56066113D02*
X129770000Y-56066113D01*
X128661000Y-56426113D02*
X129770000Y-56426113D01*
X131850000Y-56826113D02*
X133175000Y-56826113D01*
X129427000Y-55666113D02*
X132193000Y-55666113D01*
X128319000Y-57187113D02*
X129770000Y-57187113D01*
X128231000Y-57787113D02*
X129770000Y-57787113D01*
X128396000Y-56946113D02*
X129770000Y-56946113D01*
X128500000Y-56706113D02*
X129770000Y-56706113D01*
X129367000Y-55706113D02*
X132253000Y-55706113D01*
X131850000Y-57066113D02*
X133265000Y-57066113D01*
X128299000Y-57267113D02*
X129770000Y-57267113D01*
X129632000Y-55546113D02*
X131988000Y-55546113D01*
X128368000Y-57026113D02*
X129770000Y-57026113D01*
X129310000Y-55746113D02*
X132310000Y-55746113D01*
X130005000Y-55386113D02*
X131615000Y-55386113D01*
X131850000Y-56706113D02*
X133120000Y-56706113D01*
X131850000Y-56026113D02*
X132636000Y-56026113D01*
X128635000Y-56466113D02*
X129770000Y-56466113D01*
X128412000Y-56906113D02*
X129770000Y-56906113D01*
X128806000Y-56226113D02*
X129770000Y-56226113D01*
X129559000Y-55586113D02*
X132061000Y-55586113D01*
X128610000Y-56506113D02*
X129770000Y-56506113D01*
X129111000Y-55906113D02*
X129770000Y-55906113D01*
X129157000Y-55866113D02*
X129770000Y-55866113D01*
X128309000Y-57227113D02*
X129770000Y-57227113D01*
X128688000Y-56386113D02*
X129770000Y-56386113D01*
X128542000Y-56626113D02*
X129770000Y-56626113D01*
X131850000Y-57827113D02*
X133390000Y-57827113D01*
X129335000Y-60671888D02*
X129335000Y-60171888D01*
X128873000Y-56146113D02*
X129770000Y-56146113D01*
X128330000Y-57146113D02*
X129770000Y-57146113D01*
X128909000Y-56106113D02*
X129770000Y-56106113D01*
X131850000Y-57547113D02*
X133371000Y-57547113D01*
X128274000Y-57387113D02*
X129770000Y-57387113D01*
X130292000Y-55306113D02*
X131328000Y-55306113D01*
X131850000Y-57347113D02*
X133338000Y-57347113D01*
X128237000Y-57667113D02*
X129770000Y-57667113D01*
X131850000Y-57106113D02*
X133278000Y-57106113D01*
X129067000Y-55946113D02*
X129770000Y-55946113D01*
X131850000Y-56586113D02*
X133057000Y-56586113D01*
X129799000Y-55466113D02*
X131821000Y-55466113D01*
X128462000Y-56786113D02*
X129770000Y-56786113D01*
X131850000Y-56626113D02*
X133078000Y-56626113D01*
X131850000Y-56946113D02*
X133224000Y-56946113D01*
X131850000Y-56546113D02*
X133034000Y-56546113D01*
X131850000Y-56386113D02*
X132932000Y-56386113D01*
X129085000Y-60421888D02*
X129585000Y-60421888D01*
X128249000Y-57547113D02*
X129770000Y-57547113D01*
X128290000Y-57307113D02*
X129770000Y-57307113D01*
X131850000Y-57307113D02*
X133330000Y-57307113D01*
X128745000Y-56306113D02*
X129770000Y-56306113D01*
X131850000Y-56146113D02*
X132747000Y-56146113D01*
X129491000Y-55626113D02*
X132129000Y-55626113D01*
X128232000Y-57747113D02*
X129770000Y-57747113D01*
X131850000Y-56106113D02*
X132711000Y-56106113D01*
X128481000Y-56746113D02*
X129770000Y-56746113D01*
X131850000Y-57467113D02*
X133360000Y-57467113D01*
X131850000Y-55906113D02*
X132509000Y-55906113D01*
X131850000Y-56906113D02*
X133208000Y-56906113D01*
X128282000Y-57347113D02*
X129770000Y-57347113D01*
X128342000Y-57106113D02*
X129770000Y-57106113D01*
X131850000Y-56306113D02*
X132875000Y-56306113D01*
X128230000Y-57867113D02*
X129770000Y-57867113D01*
X131850000Y-57667113D02*
X133383000Y-57667113D01*
X129895000Y-55426113D02*
X131725000Y-55426113D01*
X128260000Y-57467113D02*
X129770000Y-57467113D01*
X130133000Y-55346113D02*
X131487000Y-55346113D01*
X128355000Y-57066113D02*
X129770000Y-57066113D01*
X128241000Y-57627113D02*
X129770000Y-57627113D01*
X131850000Y-56786113D02*
X133158000Y-56786113D01*
X130526000Y-55266113D02*
X131094000Y-55266113D01*
X131850000Y-57587113D02*
X133375000Y-57587113D01*
X131850000Y-56746113D02*
X133139000Y-56746113D01*
X128245000Y-57587113D02*
X129770000Y-57587113D01*
X131850000Y-57227113D02*
X133311000Y-57227113D01*
X128520000Y-56666113D02*
X129770000Y-56666113D01*
X129256000Y-55786113D02*
X132364000Y-55786113D01*
X131850000Y-57867113D02*
X133390000Y-57867113D01*
X131850000Y-56506113D02*
X133010000Y-56506113D01*
X131850000Y-56346113D02*
X132905000Y-56346113D01*
X128839000Y-56186113D02*
X129770000Y-56186113D01*
X128586000Y-56546113D02*
X129770000Y-56546113D01*
X128715000Y-56346113D02*
X129770000Y-56346113D01*
X131850000Y-56426113D02*
X132959000Y-56426113D01*
X131850000Y-56466113D02*
X132985000Y-56466113D01*
X131850000Y-56066113D02*
X132674000Y-56066113D01*
X131850000Y-57707113D02*
X133386000Y-57707113D01*
X128428000Y-56866113D02*
X129770000Y-56866113D01*
X131850000Y-56266113D02*
X132845000Y-56266113D01*
X131850000Y-56666113D02*
X133100000Y-56666113D01*
X128254000Y-57507113D02*
X129770000Y-57507113D01*
X128267000Y-57427113D02*
X129770000Y-57427113D01*
X131850000Y-57507113D02*
X133366000Y-57507113D01*
X129712000Y-55506113D02*
X131908000Y-55506113D01*
X131850000Y-57427113D02*
X133353000Y-57427113D01*
X128984000Y-56026113D02*
X129770000Y-56026113D01*
X131850000Y-55946113D02*
X132553000Y-55946113D01*
X131850000Y-57387113D02*
X133346000Y-57387113D01*
X131850000Y-56186113D02*
X132781000Y-56186113D01*
X128563000Y-56586113D02*
X129770000Y-56586113D01*
X128382000Y-56986113D02*
X129770000Y-56986113D01*
X128234000Y-57707113D02*
X129770000Y-57707113D01*
X129025000Y-55986113D02*
X129770000Y-55986113D01*
X131850000Y-55986113D02*
X132595000Y-55986113D01*
X133430000Y-57867113D02*
G75*
G03*
X133430000Y-57867113I-2620000J0D01*
G01*
%TO.C,D3*%
X146320000Y-61300000D02*
X146320000Y-65150000D01*
X148320000Y-61300000D02*
X148320000Y-65150000D01*
X148320000Y-61300000D02*
X146320000Y-61300000D01*
%TO.C,Q4*%
X143177500Y-51460000D02*
X141502500Y-51460000D01*
X143177500Y-51460000D02*
X143827500Y-51460000D01*
X143177500Y-54580000D02*
X142527500Y-54580000D01*
X143177500Y-54580000D02*
X143827500Y-54580000D01*
%TO.C,J2*%
X131378000Y-81833000D02*
X130048000Y-81833000D01*
X128718000Y-79233000D02*
X128718000Y-71553000D01*
X131378000Y-79233000D02*
X131378000Y-71553000D01*
X131378000Y-80503000D02*
X131378000Y-81833000D01*
X131378000Y-71553000D02*
X128718000Y-71553000D01*
X131378000Y-79233000D02*
X128718000Y-79233000D01*
%TO.C,R6*%
X139685500Y-75962742D02*
X139685500Y-76437258D01*
X140730500Y-75962742D02*
X140730500Y-76437258D01*
%TO.C,G\u002A\u002A\u002A*%
G36*
X141093497Y-71883197D02*
G01*
X141111051Y-71851966D01*
X141122538Y-71839071D01*
X141139312Y-71825137D01*
X141157137Y-71814814D01*
X141178320Y-71807508D01*
X141205170Y-71802623D01*
X141239996Y-71799565D01*
X141282765Y-71797805D01*
X141374975Y-71795179D01*
X141374975Y-71761065D01*
X141373762Y-71739354D01*
X141370660Y-71721205D01*
X141368220Y-71714331D01*
X141354268Y-71700349D01*
X141330852Y-71690125D01*
X141300706Y-71684657D01*
X141285310Y-71684014D01*
X141250413Y-71685474D01*
X141224847Y-71690342D01*
X141205730Y-71699351D01*
X141196723Y-71706518D01*
X141180834Y-71721244D01*
X141143496Y-71692248D01*
X141125604Y-71677767D01*
X141112389Y-71665955D01*
X141106307Y-71659031D01*
X141106159Y-71658491D01*
X141110539Y-71652123D01*
X141121830Y-71640729D01*
X141132560Y-71631132D01*
X141158909Y-71612543D01*
X141188575Y-71600034D01*
X141223985Y-71593008D01*
X141267568Y-71590870D01*
X141293980Y-71591479D01*
X141326514Y-71593268D01*
X141350330Y-71595986D01*
X141369213Y-71600373D01*
X141386947Y-71607171D01*
X141396099Y-71611477D01*
X141430718Y-71633763D01*
X141455557Y-71662681D01*
X141469002Y-71690265D01*
X141471708Y-71701811D01*
X141473988Y-71721444D01*
X141475887Y-71750040D01*
X141477452Y-71788473D01*
X141478725Y-71837620D01*
X141479753Y-71898355D01*
X141479792Y-71901255D01*
X141482349Y-72090364D01*
X141374975Y-72090364D01*
X141374975Y-72051743D01*
X141356026Y-72067687D01*
X141336683Y-72080380D01*
X141315309Y-72089657D01*
X141313828Y-72090088D01*
X141284599Y-72094875D01*
X141249582Y-72095812D01*
X141214842Y-72093020D01*
X141189455Y-72087616D01*
X141149089Y-72069586D01*
X141116420Y-72043802D01*
X141093078Y-72011757D01*
X141084723Y-71991740D01*
X141079322Y-71957167D01*
X141080501Y-71943599D01*
X141175257Y-71943599D01*
X141182156Y-71964733D01*
X141197535Y-71982711D01*
X141220359Y-71994911D01*
X141228418Y-71997036D01*
X141247672Y-71999214D01*
X141273293Y-71999796D01*
X141300829Y-71998946D01*
X141325831Y-71996827D01*
X141343845Y-71993600D01*
X141346549Y-71992712D01*
X141359665Y-71981439D01*
X141369275Y-71960494D01*
X141374396Y-71932452D01*
X141374975Y-71918272D01*
X141374975Y-71883094D01*
X141291063Y-71885141D01*
X141256897Y-71886111D01*
X141232852Y-71887340D01*
X141216551Y-71889238D01*
X141205613Y-71892213D01*
X141197659Y-71896676D01*
X141191039Y-71902344D01*
X141177873Y-71921929D01*
X141175257Y-71943599D01*
X141080501Y-71943599D01*
X141082583Y-71919625D01*
X141093497Y-71883197D01*
G37*
G36*
X141101894Y-70925101D02*
G01*
X141123798Y-70884073D01*
X141144152Y-70859288D01*
X141180052Y-70831782D01*
X141221372Y-70814143D01*
X141265907Y-70806332D01*
X141311448Y-70808312D01*
X141355787Y-70820044D01*
X141396717Y-70841489D01*
X141424090Y-70864165D01*
X141450648Y-70896759D01*
X141469600Y-70934594D01*
X141481514Y-70979407D01*
X141486960Y-71032930D01*
X141487455Y-71057297D01*
X141487502Y-71096369D01*
X141174359Y-71096369D01*
X141178532Y-71119812D01*
X141189862Y-71155670D01*
X141209116Y-71184031D01*
X141234314Y-71202645D01*
X141270809Y-71213639D01*
X141310307Y-71213834D01*
X141350179Y-71203592D01*
X141387796Y-71183275D01*
X141390864Y-71181052D01*
X141398121Y-71176788D01*
X141405438Y-71176842D01*
X141415584Y-71182362D01*
X141431330Y-71194494D01*
X141439488Y-71201185D01*
X141475349Y-71230777D01*
X141446857Y-71256966D01*
X141424872Y-71274007D01*
X141399673Y-71289062D01*
X141385701Y-71295376D01*
X141350580Y-71305114D01*
X141310941Y-71310766D01*
X141272307Y-71311811D01*
X141244516Y-71308715D01*
X141201452Y-71294874D01*
X141162373Y-71272949D01*
X141139209Y-71253443D01*
X141113244Y-71218730D01*
X141094207Y-71176000D01*
X141082068Y-71127625D01*
X141076797Y-71075975D01*
X141078364Y-71023424D01*
X141079729Y-71015099D01*
X141175238Y-71015099D01*
X141381226Y-71015099D01*
X141381226Y-70997328D01*
X141376339Y-70973179D01*
X141363667Y-70947635D01*
X141346195Y-70925653D01*
X141331156Y-70914170D01*
X141302414Y-70904494D01*
X141270499Y-70902741D01*
X141240371Y-70908794D01*
X141224299Y-70916720D01*
X141202016Y-70938597D01*
X141185796Y-70969361D01*
X141178906Y-70994781D01*
X141175238Y-71015099D01*
X141079729Y-71015099D01*
X141086740Y-70972342D01*
X141101894Y-70925101D01*
G37*
G36*
X140712312Y-70808798D02*
G01*
X140712312Y-70857965D01*
X140743362Y-70837070D01*
X140783543Y-70816547D01*
X140825145Y-70806892D01*
X140866346Y-70807514D01*
X140905328Y-70817821D01*
X140940270Y-70837222D01*
X140969352Y-70865125D01*
X140990756Y-70900939D01*
X140997452Y-70919668D01*
X141001827Y-70942517D01*
X141004986Y-70974754D01*
X141006928Y-71013334D01*
X141007651Y-71055209D01*
X141007156Y-71097333D01*
X141005441Y-71136661D01*
X141002505Y-71170146D01*
X140998348Y-71194742D01*
X140997536Y-71197763D01*
X140980086Y-71236746D01*
X140953496Y-71268870D01*
X140919758Y-71292972D01*
X140880864Y-71307887D01*
X140838806Y-71312451D01*
X140807771Y-71308693D01*
X140785560Y-71301327D01*
X140760338Y-71289433D01*
X140745132Y-71280443D01*
X140712312Y-71258781D01*
X140712312Y-71449886D01*
X140712410Y-71505612D01*
X140712734Y-71549893D01*
X140713329Y-71583785D01*
X140714239Y-71608346D01*
X140715508Y-71624631D01*
X140717180Y-71633698D01*
X140719299Y-71636602D01*
X140720126Y-71636376D01*
X140730225Y-71629746D01*
X140744666Y-71619586D01*
X140746695Y-71618116D01*
X140782462Y-71599430D01*
X140822609Y-71590657D01*
X140864208Y-71591566D01*
X140904329Y-71601927D01*
X140940044Y-71621508D01*
X140955206Y-71634557D01*
X140967897Y-71647460D01*
X140978116Y-71659126D01*
X140986145Y-71671054D01*
X140992265Y-71684744D01*
X140996760Y-71701694D01*
X140999912Y-71723404D01*
X141002002Y-71751373D01*
X141003314Y-71787100D01*
X141004129Y-71832085D01*
X141004729Y-71887827D01*
X141004827Y-71898129D01*
X141006646Y-72090364D01*
X140906109Y-72090364D01*
X140906100Y-71926261D01*
X140905966Y-71871995D01*
X140905397Y-71828721D01*
X140904127Y-71794927D01*
X140901893Y-71769103D01*
X140898429Y-71749738D01*
X140893472Y-71735322D01*
X140886756Y-71724344D01*
X140878018Y-71715294D01*
X140867751Y-71707214D01*
X140840380Y-71694325D01*
X140809479Y-71691062D01*
X140778488Y-71696771D01*
X140750851Y-71710799D01*
X140730008Y-71732494D01*
X140729397Y-71733461D01*
X140725203Y-71740706D01*
X140721920Y-71748412D01*
X140719413Y-71758172D01*
X140717549Y-71771577D01*
X140716195Y-71790222D01*
X140715217Y-71815697D01*
X140714481Y-71849597D01*
X140713855Y-71893512D01*
X140713502Y-71923135D01*
X140711566Y-72090364D01*
X140612287Y-72090364D01*
X140612287Y-71071623D01*
X140711912Y-71071623D01*
X140715243Y-71111414D01*
X140723033Y-71147046D01*
X140735301Y-71175379D01*
X140741296Y-71183764D01*
X140761881Y-71199372D01*
X140789349Y-71208293D01*
X140819777Y-71210127D01*
X140849244Y-71204480D01*
X140866309Y-71196429D01*
X140879924Y-71186073D01*
X140889790Y-71173347D01*
X140896468Y-71156193D01*
X140900518Y-71132556D01*
X140902502Y-71100380D01*
X140902984Y-71061986D01*
X140902699Y-71024724D01*
X140901677Y-70997514D01*
X140899669Y-70977916D01*
X140896425Y-70963489D01*
X140891714Y-70951828D01*
X140875298Y-70928914D01*
X140852605Y-70915064D01*
X140822142Y-70909596D01*
X140799847Y-70910032D01*
X140777125Y-70912336D01*
X140762522Y-70916372D01*
X140751655Y-70923959D01*
X140742800Y-70933694D01*
X140728484Y-70958709D01*
X140718551Y-70992130D01*
X140713021Y-71030815D01*
X140711912Y-71071623D01*
X140612287Y-71071623D01*
X140612287Y-70808798D01*
X140712312Y-70808798D01*
G37*
G36*
X141828442Y-70808882D02*
G01*
X141864102Y-70819112D01*
X141871972Y-70822819D01*
X141906855Y-70845184D01*
X141932806Y-70873025D01*
X141951344Y-70905697D01*
X141955470Y-70915130D01*
X141958745Y-70924541D01*
X141961289Y-70935486D01*
X141963218Y-70949524D01*
X141964651Y-70968211D01*
X141965704Y-70993104D01*
X141966497Y-71025759D01*
X141967146Y-71067735D01*
X141967770Y-71120587D01*
X141967799Y-71123199D01*
X141969853Y-71309443D01*
X141917787Y-71307619D01*
X141865720Y-71305796D01*
X141862595Y-71137004D01*
X141861575Y-71085895D01*
X141860549Y-71045741D01*
X141859394Y-71014997D01*
X141857989Y-70992116D01*
X141856209Y-70975551D01*
X141853933Y-70963755D01*
X141851038Y-70955182D01*
X141847681Y-70948742D01*
X141827871Y-70925841D01*
X141801501Y-70912765D01*
X141769109Y-70908823D01*
X141735441Y-70912614D01*
X141709657Y-70924786D01*
X141689404Y-70946537D01*
X141686592Y-70950869D01*
X141682193Y-70958343D01*
X141678752Y-70965994D01*
X141676127Y-70975420D01*
X141674179Y-70988222D01*
X141672768Y-71006000D01*
X141671755Y-71030355D01*
X141670999Y-71062886D01*
X141670361Y-71105193D01*
X141669906Y-71141693D01*
X141667890Y-71308921D01*
X141568772Y-71308921D01*
X141568772Y-70808798D01*
X141668797Y-70808798D01*
X141668797Y-70833804D01*
X141670096Y-70851629D01*
X141674851Y-70857696D01*
X141684349Y-70852500D01*
X141693655Y-70843339D01*
X141719534Y-70824183D01*
X141752838Y-70811800D01*
X141790247Y-70806572D01*
X141828442Y-70808882D01*
G37*
G36*
X141872604Y-71600084D02*
G01*
X141886038Y-71605643D01*
X141903721Y-71614697D01*
X141915637Y-71622371D01*
X141918859Y-71626103D01*
X141915110Y-71632956D01*
X141905104Y-71646800D01*
X141890699Y-71665116D01*
X141884211Y-71673025D01*
X141849564Y-71714766D01*
X141829510Y-71702539D01*
X141800073Y-71691323D01*
X141769339Y-71691030D01*
X141740211Y-71700808D01*
X141715596Y-71719807D01*
X141701618Y-71740039D01*
X141697326Y-71749062D01*
X141694009Y-71758136D01*
X141691541Y-71768943D01*
X141689797Y-71783165D01*
X141688651Y-71802483D01*
X141687980Y-71828579D01*
X141687657Y-71863135D01*
X141687557Y-71907833D01*
X141687552Y-71929148D01*
X141687552Y-72090364D01*
X141587527Y-72090364D01*
X141587527Y-71596492D01*
X141687552Y-71596492D01*
X141687552Y-71647479D01*
X141712510Y-71626115D01*
X141747677Y-71603909D01*
X141787812Y-71591965D01*
X141830320Y-71590588D01*
X141872604Y-71600084D01*
G37*
G36*
X140125924Y-70961908D02*
G01*
X140136378Y-70926103D01*
X140152249Y-70895849D01*
X140174248Y-70868975D01*
X140183719Y-70859789D01*
X140223089Y-70831134D01*
X140266116Y-70813034D01*
X140311003Y-70805129D01*
X140355955Y-70807056D01*
X140399176Y-70818456D01*
X140438871Y-70838967D01*
X140473243Y-70868228D01*
X140500497Y-70905878D01*
X140509926Y-70925377D01*
X140517106Y-70950811D01*
X140522084Y-70985300D01*
X140524863Y-71025595D01*
X140525445Y-71068443D01*
X140523834Y-71110595D01*
X140520031Y-71148798D01*
X140514041Y-71179802D01*
X140509695Y-71192896D01*
X140487178Y-71232289D01*
X140456097Y-71265732D01*
X140419070Y-71290783D01*
X140393483Y-71301277D01*
X140356255Y-71309121D01*
X140315686Y-71311788D01*
X140280458Y-71309036D01*
X140235470Y-71294863D01*
X140194457Y-71269032D01*
X140178899Y-71255091D01*
X140155617Y-71227840D01*
X140138568Y-71197065D01*
X140127113Y-71160692D01*
X140120611Y-71116644D01*
X140118424Y-71062846D01*
X140118416Y-71058860D01*
X140221566Y-71058860D01*
X140222347Y-71099214D01*
X140225187Y-71129524D01*
X140230830Y-71152180D01*
X140240023Y-71169574D01*
X140253509Y-71184094D01*
X140262969Y-71191678D01*
X140290617Y-71205083D01*
X140323090Y-71209697D01*
X140356301Y-71205496D01*
X140386158Y-71192454D01*
X140386193Y-71192431D01*
X140401929Y-71177791D01*
X140413182Y-71156494D01*
X140420390Y-71127015D01*
X140423991Y-71087827D01*
X140424604Y-71058622D01*
X140424359Y-71025832D01*
X140423189Y-71002421D01*
X140420657Y-70985273D01*
X140416328Y-70971271D01*
X140410675Y-70959059D01*
X140391162Y-70933171D01*
X140365431Y-70916271D01*
X140335961Y-70908361D01*
X140305228Y-70909446D01*
X140275709Y-70919528D01*
X140249882Y-70938609D01*
X140234407Y-70958856D01*
X140228893Y-70969818D01*
X140225198Y-70982236D01*
X140222976Y-70998807D01*
X140221882Y-71022228D01*
X140221568Y-71055198D01*
X140221566Y-71058860D01*
X140118416Y-71058860D01*
X140120174Y-71005437D01*
X140125924Y-70961908D01*
G37*
G36*
X142816897Y-71765002D02*
G01*
X142831066Y-71808228D01*
X142844158Y-71847047D01*
X142855658Y-71880018D01*
X142865048Y-71905696D01*
X142871813Y-71922638D01*
X142875434Y-71929400D01*
X142875744Y-71929395D01*
X142878441Y-71922314D01*
X142883879Y-71904806D01*
X142891581Y-71878524D01*
X142901070Y-71845124D01*
X142911867Y-71806260D01*
X142922192Y-71768409D01*
X142933730Y-71725880D01*
X142944300Y-71687149D01*
X142953434Y-71653913D01*
X142960664Y-71627867D01*
X142965522Y-71610707D01*
X142967463Y-71604306D01*
X142974500Y-71599953D01*
X142992142Y-71597390D01*
X143021263Y-71596495D01*
X143023593Y-71596492D01*
X143050597Y-71596977D01*
X143066722Y-71598595D01*
X143073557Y-71601595D01*
X143073810Y-71604306D01*
X143071068Y-71612505D01*
X143065194Y-71630612D01*
X143056836Y-71656618D01*
X143046638Y-71688513D01*
X143035248Y-71724288D01*
X143035133Y-71724649D01*
X143021173Y-71768526D01*
X143004840Y-71819767D01*
X142987585Y-71873832D01*
X142970855Y-71926180D01*
X142958824Y-71963770D01*
X142918272Y-72090364D01*
X142828124Y-72090364D01*
X142778625Y-71924315D01*
X142765580Y-71880932D01*
X142753537Y-71841601D01*
X142742992Y-71807880D01*
X142734436Y-71781325D01*
X142728366Y-71763492D01*
X142725274Y-71755938D01*
X142725145Y-71755806D01*
X142722412Y-71760899D01*
X142716679Y-71776504D01*
X142708431Y-71801128D01*
X142698155Y-71833276D01*
X142686337Y-71871454D01*
X142673463Y-71914166D01*
X142671643Y-71920291D01*
X142622123Y-72087238D01*
X142576726Y-72089076D01*
X142550579Y-72089366D01*
X142535095Y-72087492D01*
X142528583Y-72083237D01*
X142528413Y-72082825D01*
X142525099Y-72072944D01*
X142518681Y-72053200D01*
X142509648Y-72025135D01*
X142498488Y-71990289D01*
X142485692Y-71950204D01*
X142471747Y-71906421D01*
X142457143Y-71860480D01*
X142442369Y-71813923D01*
X142427913Y-71768290D01*
X142414265Y-71725123D01*
X142401914Y-71685962D01*
X142391348Y-71652349D01*
X142383056Y-71625824D01*
X142377528Y-71607929D01*
X142375252Y-71600205D01*
X142375221Y-71600029D01*
X142380992Y-71598426D01*
X142396387Y-71597203D01*
X142418526Y-71596550D01*
X142428065Y-71596492D01*
X142480909Y-71596492D01*
X142486448Y-71616810D01*
X142489600Y-71628430D01*
X142495486Y-71650182D01*
X142503582Y-71680124D01*
X142513362Y-71716316D01*
X142524303Y-71756819D01*
X142532065Y-71785565D01*
X142543233Y-71826475D01*
X142553456Y-71863062D01*
X142562258Y-71893694D01*
X142569165Y-71916741D01*
X142573701Y-71930573D01*
X142575270Y-71933917D01*
X142577908Y-71928185D01*
X142583805Y-71912040D01*
X142592449Y-71886989D01*
X142603330Y-71854542D01*
X142615936Y-71816207D01*
X142629757Y-71773491D01*
X142631927Y-71766724D01*
X142685459Y-71599618D01*
X142723839Y-71597764D01*
X142762219Y-71595911D01*
X142816897Y-71765002D01*
G37*
G36*
X143965295Y-70807486D02*
G01*
X144002683Y-70815594D01*
X144030158Y-70828421D01*
X144050720Y-70841129D01*
X144038520Y-70857784D01*
X144027374Y-70872055D01*
X144012083Y-70890505D01*
X144002309Y-70901863D01*
X143978297Y-70929286D01*
X143958512Y-70919054D01*
X143933575Y-70911096D01*
X143904885Y-70909181D01*
X143877775Y-70913232D01*
X143861180Y-70920468D01*
X143850270Y-70927898D01*
X143841622Y-70935178D01*
X143834943Y-70943801D01*
X143829940Y-70955263D01*
X143826320Y-70971055D01*
X143823791Y-70992674D01*
X143822058Y-71021612D01*
X143820830Y-71059364D01*
X143819813Y-71107424D01*
X143819326Y-71133878D01*
X143816200Y-71305796D01*
X143764625Y-71307611D01*
X143713050Y-71309427D01*
X143713050Y-70808293D01*
X143764625Y-70810108D01*
X143816200Y-70811924D01*
X143819326Y-70836400D01*
X143821804Y-70851413D01*
X143824912Y-70855819D01*
X143830185Y-70851481D01*
X143830969Y-70850542D01*
X143856175Y-70829131D01*
X143888995Y-70814593D01*
X143926384Y-70807265D01*
X143965295Y-70807486D01*
G37*
G36*
X143882657Y-71601579D02*
G01*
X143918685Y-71620426D01*
X143921377Y-71625283D01*
X143918490Y-71633879D01*
X143909049Y-71647992D01*
X143892080Y-71669397D01*
X143891301Y-71670346D01*
X143855206Y-71714221D01*
X143830728Y-71701462D01*
X143799401Y-71691525D01*
X143767879Y-71692753D01*
X143738887Y-71704292D01*
X143715153Y-71725290D01*
X143705245Y-71740722D01*
X143701882Y-71748595D01*
X143699277Y-71758474D01*
X143697335Y-71771944D01*
X143695964Y-71790591D01*
X143695070Y-71816000D01*
X143694559Y-71849757D01*
X143694338Y-71893446D01*
X143694305Y-71926261D01*
X143694295Y-72090364D01*
X143594271Y-72090364D01*
X143594271Y-71596492D01*
X143694295Y-71596492D01*
X143694295Y-71640889D01*
X143716163Y-71624210D01*
X143754140Y-71602756D01*
X143796323Y-71591800D01*
X143840050Y-71591391D01*
X143882657Y-71601579D01*
G37*
G36*
X144474994Y-70977537D02*
G01*
X144492106Y-70924495D01*
X144517239Y-70880780D01*
X144550169Y-70846633D01*
X144590671Y-70822291D01*
X144633267Y-70808995D01*
X144682392Y-70805200D01*
X144730096Y-70813477D01*
X144774916Y-70833394D01*
X144812516Y-70861789D01*
X144836249Y-70887071D01*
X144853270Y-70913451D01*
X144864639Y-70943731D01*
X144871417Y-70980718D01*
X144874622Y-71026039D01*
X144877186Y-71096369D01*
X144569511Y-71096369D01*
X144569511Y-71113799D01*
X144573703Y-71135144D01*
X144584490Y-71159823D01*
X144599184Y-71182790D01*
X144614750Y-71198748D01*
X144634254Y-71207555D01*
X144661149Y-71212956D01*
X144690681Y-71214513D01*
X144718095Y-71211786D01*
X144727955Y-71209217D01*
X144748103Y-71200624D01*
X144769265Y-71188850D01*
X144772816Y-71186524D01*
X144795443Y-71171169D01*
X144829388Y-71200170D01*
X144846093Y-71215098D01*
X144858211Y-71227179D01*
X144863302Y-71233966D01*
X144863333Y-71234207D01*
X144858910Y-71240868D01*
X144847731Y-71251882D01*
X144841250Y-71257447D01*
X144795918Y-71286941D01*
X144745452Y-71305787D01*
X144692105Y-71313426D01*
X144638130Y-71309295D01*
X144635152Y-71308708D01*
X144586788Y-71293074D01*
X144546048Y-71267624D01*
X144513298Y-71232724D01*
X144488903Y-71188741D01*
X144476300Y-71149969D01*
X144472012Y-71123379D01*
X144469549Y-71089025D01*
X144468946Y-71051519D01*
X144470238Y-71015472D01*
X144470278Y-71015099D01*
X144569511Y-71015099D01*
X144777203Y-71015099D01*
X144772909Y-70991656D01*
X144761114Y-70955713D01*
X144741028Y-70928311D01*
X144713667Y-70910359D01*
X144680051Y-70902768D01*
X144673202Y-70902571D01*
X144644697Y-70905620D01*
X144620480Y-70913698D01*
X144619581Y-70914170D01*
X144600437Y-70929933D01*
X144583765Y-70953124D01*
X144572550Y-70978786D01*
X144569511Y-70997328D01*
X144569511Y-71015099D01*
X144470278Y-71015099D01*
X144473460Y-70985494D01*
X144474994Y-70977537D01*
G37*
G36*
X141928236Y-71846554D02*
G01*
X141928534Y-71795432D01*
X141929735Y-71754955D01*
X141932295Y-71723270D01*
X141936671Y-71698528D01*
X141943322Y-71678877D01*
X141952704Y-71662465D01*
X141965274Y-71647443D01*
X141981188Y-71632230D01*
X142012730Y-71608925D01*
X142046105Y-71595481D01*
X142085283Y-71590433D01*
X142094627Y-71590302D01*
X142122083Y-71593443D01*
X142151133Y-71601674D01*
X142177405Y-71613342D01*
X142196526Y-71626796D01*
X142199380Y-71629881D01*
X142208540Y-71638273D01*
X142213314Y-71640253D01*
X142215033Y-71634315D01*
X142216695Y-71617758D01*
X142218193Y-71592464D01*
X142219420Y-71560317D01*
X142220268Y-71523201D01*
X142220363Y-71516785D01*
X142222058Y-71393317D01*
X142270508Y-71391491D01*
X142318957Y-71389665D01*
X142318957Y-72090364D01*
X142218932Y-72090364D01*
X142218932Y-72068483D01*
X142217274Y-72052086D01*
X142211775Y-72047470D01*
X142201648Y-72054290D01*
X142197171Y-72058975D01*
X142180795Y-72071019D01*
X142156305Y-72082148D01*
X142128078Y-72090859D01*
X142100487Y-72095651D01*
X142088978Y-72096122D01*
X142064154Y-72093683D01*
X142039202Y-72088243D01*
X142033795Y-72086505D01*
X142000657Y-72069135D01*
X141970302Y-72043005D01*
X141946805Y-72011791D01*
X141942851Y-72004388D01*
X141937907Y-71993724D01*
X141934223Y-71983291D01*
X141931615Y-71971095D01*
X141929897Y-71955143D01*
X141928886Y-71933442D01*
X141928396Y-71903999D01*
X141928278Y-71873486D01*
X142026056Y-71873486D01*
X142030603Y-71915552D01*
X142040300Y-71947685D01*
X142055431Y-71970740D01*
X142076281Y-71985566D01*
X142082451Y-71988097D01*
X142115227Y-71995449D01*
X142146004Y-71991832D01*
X142166365Y-71983811D01*
X142184363Y-71973296D01*
X142197519Y-71960413D01*
X142206537Y-71943164D01*
X142212121Y-71919550D01*
X142214976Y-71887573D01*
X142215804Y-71845233D01*
X142215805Y-71843428D01*
X142215546Y-71808439D01*
X142214547Y-71783222D01*
X142212476Y-71765052D01*
X142209003Y-71751206D01*
X142203794Y-71738958D01*
X142202875Y-71737152D01*
X142184249Y-71713231D01*
X142159259Y-71697665D01*
X142130662Y-71690486D01*
X142101212Y-71691724D01*
X142073665Y-71701411D01*
X142050776Y-71719578D01*
X142040028Y-71735312D01*
X142033445Y-71754902D01*
X142028862Y-71785000D01*
X142026372Y-71820638D01*
X142026056Y-71873486D01*
X141928278Y-71873486D01*
X141928244Y-71864820D01*
X141928236Y-71846554D01*
G37*
G36*
X142559147Y-67095406D02*
G01*
X142609844Y-67095508D01*
X142650396Y-67095748D01*
X142681982Y-67096181D01*
X142705781Y-67096864D01*
X142722972Y-67097854D01*
X142734734Y-67099207D01*
X142742246Y-67100980D01*
X142746686Y-67103228D01*
X142749235Y-67106010D01*
X142750108Y-67107505D01*
X142752678Y-67116210D01*
X142757204Y-67135795D01*
X142763398Y-67164839D01*
X142770971Y-67201921D01*
X142779633Y-67245621D01*
X142789095Y-67294520D01*
X142799068Y-67347196D01*
X142800715Y-67356004D01*
X142810763Y-67408967D01*
X142820416Y-67458209D01*
X142829379Y-67502339D01*
X142837355Y-67539968D01*
X142844050Y-67569705D01*
X142849165Y-67590161D01*
X142852407Y-67599946D01*
X142852759Y-67600457D01*
X142861050Y-67605406D01*
X142879149Y-67614103D01*
X142905202Y-67625788D01*
X142937352Y-67639700D01*
X142973746Y-67655079D01*
X143012530Y-67671166D01*
X143051848Y-67687200D01*
X143089846Y-67702422D01*
X143124669Y-67716071D01*
X143154463Y-67727387D01*
X143177374Y-67735611D01*
X143191546Y-67739981D01*
X143194449Y-67740485D01*
X143203327Y-67737783D01*
X143220018Y-67729093D01*
X143244931Y-67714158D01*
X143278477Y-67692719D01*
X143321064Y-67664517D01*
X143373103Y-67629294D01*
X143403329Y-67608601D01*
X143455697Y-67572641D01*
X143498738Y-67543134D01*
X143533437Y-67519465D01*
X143560782Y-67501019D01*
X143581759Y-67487181D01*
X143597353Y-67477336D01*
X143608552Y-67470870D01*
X143616342Y-67467169D01*
X143621709Y-67465616D01*
X143625639Y-67465597D01*
X143629120Y-67466499D01*
X143630570Y-67466967D01*
X143638560Y-67472500D01*
X143653784Y-67485775D01*
X143675068Y-67505596D01*
X143701237Y-67530767D01*
X143731115Y-67560092D01*
X143763527Y-67592373D01*
X143797298Y-67626415D01*
X143831254Y-67661023D01*
X143864218Y-67694999D01*
X143895015Y-67727147D01*
X143922472Y-67756271D01*
X143945411Y-67781176D01*
X143962659Y-67800664D01*
X143973040Y-67813539D01*
X143975615Y-67818199D01*
X143972175Y-67826076D01*
X143962375Y-67843008D01*
X143946993Y-67867784D01*
X143926809Y-67899195D01*
X143902600Y-67936031D01*
X143875147Y-67977082D01*
X143845227Y-68021138D01*
X143841207Y-68027009D01*
X143800854Y-68086317D01*
X143767586Y-68136165D01*
X143741476Y-68176440D01*
X143722595Y-68207026D01*
X143711018Y-68227809D01*
X143706815Y-68238674D01*
X143706798Y-68239039D01*
X143709265Y-68250109D01*
X143716147Y-68270451D01*
X143726667Y-68298271D01*
X143740049Y-68331776D01*
X143755517Y-68369174D01*
X143772294Y-68408672D01*
X143789604Y-68448476D01*
X143806669Y-68486794D01*
X143822714Y-68521833D01*
X143836962Y-68551799D01*
X143848636Y-68574900D01*
X143856960Y-68589343D01*
X143860200Y-68593235D01*
X143869142Y-68596301D01*
X143888912Y-68601253D01*
X143918031Y-68607780D01*
X143955017Y-68615570D01*
X143998392Y-68624311D01*
X144046676Y-68633689D01*
X144094633Y-68642699D01*
X144146208Y-68652325D01*
X144194311Y-68661474D01*
X144237453Y-68669851D01*
X144274144Y-68677158D01*
X144302892Y-68683099D01*
X144322209Y-68687378D01*
X144330389Y-68689600D01*
X144344455Y-68695510D01*
X144344455Y-68945037D01*
X144344424Y-69007644D01*
X144344298Y-69058903D01*
X144344026Y-69099969D01*
X144343559Y-69131997D01*
X144342848Y-69156144D01*
X144341842Y-69173563D01*
X144340492Y-69185409D01*
X144338748Y-69192839D01*
X144336561Y-69197007D01*
X144333881Y-69199069D01*
X144333515Y-69199233D01*
X144325027Y-69201428D01*
X144305696Y-69205615D01*
X144276973Y-69211504D01*
X144240310Y-69218806D01*
X144197156Y-69227233D01*
X144148964Y-69236496D01*
X144097886Y-69246173D01*
X144035302Y-69258073D01*
X143984124Y-69268106D01*
X143943429Y-69276480D01*
X143912294Y-69283406D01*
X143889796Y-69289095D01*
X143875011Y-69293757D01*
X143867017Y-69297601D01*
X143865399Y-69299108D01*
X143861171Y-69307448D01*
X143852987Y-69325875D01*
X143841493Y-69352850D01*
X143827333Y-69386836D01*
X143811154Y-69426294D01*
X143793600Y-69469684D01*
X143787757Y-69484250D01*
X143764766Y-69542390D01*
X143746743Y-69589565D01*
X143733535Y-69626215D01*
X143724988Y-69652780D01*
X143720947Y-69669701D01*
X143720675Y-69675813D01*
X143724784Y-69684820D01*
X143735228Y-69702777D01*
X143751175Y-69728391D01*
X143771791Y-69760366D01*
X143796245Y-69797409D01*
X143823704Y-69838226D01*
X143849526Y-69876001D01*
X143878757Y-69918746D01*
X143905592Y-69958557D01*
X143929223Y-69994192D01*
X143948844Y-70024411D01*
X143963648Y-70047972D01*
X143972828Y-70063635D01*
X143975615Y-70069948D01*
X143971317Y-70076628D01*
X143959062Y-70091065D01*
X143939804Y-70112246D01*
X143914498Y-70139158D01*
X143884098Y-70170790D01*
X143849561Y-70206130D01*
X143811840Y-70244165D01*
X143801656Y-70254343D01*
X143756398Y-70299362D01*
X143719083Y-70336140D01*
X143688928Y-70365390D01*
X143665149Y-70387827D01*
X143646962Y-70404161D01*
X143633583Y-70415106D01*
X143624229Y-70421376D01*
X143618115Y-70423681D01*
X143615673Y-70423458D01*
X143607838Y-70418975D01*
X143590983Y-70408229D01*
X143566375Y-70392066D01*
X143535281Y-70371330D01*
X143498970Y-70346865D01*
X143458708Y-70319514D01*
X143422985Y-70295082D01*
X143380442Y-70266128D01*
X143340776Y-70239574D01*
X143305250Y-70216232D01*
X143275128Y-70196915D01*
X143251673Y-70182434D01*
X143236149Y-70173601D01*
X143230152Y-70171141D01*
X143220529Y-70173990D01*
X143202245Y-70181827D01*
X143177579Y-70193591D01*
X143148814Y-70208219D01*
X143135747Y-70215128D01*
X143106011Y-70230520D01*
X143079454Y-70243313D01*
X143058329Y-70252494D01*
X143044887Y-70257047D01*
X143041996Y-70257325D01*
X143038606Y-70254452D01*
X143033281Y-70246185D01*
X143025738Y-70231879D01*
X143015691Y-70210888D01*
X143002857Y-70182569D01*
X142986951Y-70146276D01*
X142967691Y-70101365D01*
X142944790Y-70047190D01*
X142917967Y-69983107D01*
X142886935Y-69908472D01*
X142865390Y-69856449D01*
X142837701Y-69789343D01*
X142811469Y-69725434D01*
X142787081Y-69665689D01*
X142764927Y-69611076D01*
X142745393Y-69562561D01*
X142728869Y-69521111D01*
X142715743Y-69487694D01*
X142706403Y-69463276D01*
X142701237Y-69448824D01*
X142700301Y-69445273D01*
X142705759Y-69433847D01*
X142720657Y-69420321D01*
X142726870Y-69416067D01*
X142744656Y-69404132D01*
X142768060Y-69387793D01*
X142792684Y-69370131D01*
X142798392Y-69365960D01*
X142859133Y-69313961D01*
X142910184Y-69254842D01*
X142951213Y-69189777D01*
X142981886Y-69119939D01*
X143001874Y-69046501D01*
X143010842Y-68970636D01*
X143008458Y-68893516D01*
X142994391Y-68816314D01*
X142972669Y-68750684D01*
X142953103Y-68707811D01*
X142930112Y-68669186D01*
X142901393Y-68631485D01*
X142864644Y-68591386D01*
X142856589Y-68583248D01*
X142801189Y-68533993D01*
X142743487Y-68495533D01*
X142680639Y-68466173D01*
X142634660Y-68450870D01*
X142589965Y-68441565D01*
X142537790Y-68436421D01*
X142482444Y-68435439D01*
X142428236Y-68438619D01*
X142379475Y-68445961D01*
X142359592Y-68450870D01*
X142285943Y-68478327D01*
X142217930Y-68516104D01*
X142156567Y-68563119D01*
X142102869Y-68618286D01*
X142057850Y-68680523D01*
X142022525Y-68748745D01*
X141997907Y-68821870D01*
X141993233Y-68842288D01*
X141983205Y-68920841D01*
X141985194Y-68998763D01*
X141998726Y-69074831D01*
X142023328Y-69147825D01*
X142058528Y-69216520D01*
X142103853Y-69279696D01*
X142158829Y-69336131D01*
X142195860Y-69365960D01*
X142220114Y-69383478D01*
X142244222Y-69400425D01*
X142263788Y-69413721D01*
X142267382Y-69416067D01*
X142284766Y-69429750D01*
X142293398Y-69442090D01*
X142293951Y-69445273D01*
X142291612Y-69452954D01*
X142284855Y-69471210D01*
X142274067Y-69499075D01*
X142259637Y-69535580D01*
X142241953Y-69579760D01*
X142221403Y-69630647D01*
X142198376Y-69687273D01*
X142173260Y-69748673D01*
X142146443Y-69813880D01*
X142128862Y-69856449D01*
X142095071Y-69937973D01*
X142065664Y-70008543D01*
X142040357Y-70068804D01*
X142018866Y-70119400D01*
X142000907Y-70160977D01*
X141986197Y-70194179D01*
X141974450Y-70219651D01*
X141965383Y-70238039D01*
X141958712Y-70249986D01*
X141954152Y-70256138D01*
X141952256Y-70257325D01*
X141942888Y-70255117D01*
X141924850Y-70247838D01*
X141900394Y-70236502D01*
X141871773Y-70222123D01*
X141858504Y-70215128D01*
X141828676Y-70199594D01*
X141801967Y-70186468D01*
X141780659Y-70176812D01*
X141767031Y-70171687D01*
X141764100Y-70171141D01*
X141756246Y-70174579D01*
X141739396Y-70184350D01*
X141714813Y-70199642D01*
X141683761Y-70219644D01*
X141647503Y-70243542D01*
X141607302Y-70270526D01*
X141571267Y-70295082D01*
X141528677Y-70324193D01*
X141488980Y-70351125D01*
X141453443Y-70375033D01*
X141423333Y-70395073D01*
X141399918Y-70410400D01*
X141384464Y-70420169D01*
X141378578Y-70423458D01*
X141374034Y-70423190D01*
X141366720Y-70419387D01*
X141355852Y-70411336D01*
X141340647Y-70398324D01*
X141320321Y-70379638D01*
X141294090Y-70354566D01*
X141261169Y-70322395D01*
X141220776Y-70282412D01*
X141192595Y-70254343D01*
X141154205Y-70215775D01*
X141118750Y-70179639D01*
X141087186Y-70146948D01*
X141060468Y-70118715D01*
X141039549Y-70095950D01*
X141025386Y-70079668D01*
X141018934Y-70070879D01*
X141018637Y-70069948D01*
X141022080Y-70062434D01*
X141031871Y-70045907D01*
X141047204Y-70021609D01*
X141067271Y-69990781D01*
X141091266Y-69954662D01*
X141118383Y-69914495D01*
X141144726Y-69876001D01*
X141174129Y-69832944D01*
X141201256Y-69792529D01*
X141225274Y-69756050D01*
X141245351Y-69724802D01*
X141260653Y-69700078D01*
X141270348Y-69683173D01*
X141273576Y-69675813D01*
X141272435Y-69665039D01*
X141266889Y-69644911D01*
X141256786Y-69614990D01*
X141241969Y-69574836D01*
X141222286Y-69524008D01*
X141206495Y-69484250D01*
X141188635Y-69439920D01*
X141171942Y-69399027D01*
X141157062Y-69363110D01*
X141144638Y-69333708D01*
X141135317Y-69312358D01*
X141129744Y-69300600D01*
X141128853Y-69299108D01*
X141123591Y-69295560D01*
X141111950Y-69291289D01*
X141093007Y-69286085D01*
X141065839Y-69279736D01*
X141029523Y-69272034D01*
X140983136Y-69262767D01*
X140925755Y-69251726D01*
X140896366Y-69246173D01*
X140844623Y-69236369D01*
X140796488Y-69227116D01*
X140753411Y-69218702D01*
X140716843Y-69211416D01*
X140688235Y-69205547D01*
X140669039Y-69201385D01*
X140660736Y-69199233D01*
X140657992Y-69197351D01*
X140655747Y-69193504D01*
X140653952Y-69186537D01*
X140652556Y-69175295D01*
X140651511Y-69158623D01*
X140650766Y-69135366D01*
X140650272Y-69104368D01*
X140649979Y-69064474D01*
X140649837Y-69014530D01*
X140649797Y-68953380D01*
X140649796Y-68945037D01*
X140649796Y-68695510D01*
X140663862Y-68689600D01*
X140673116Y-68687125D01*
X140693181Y-68682713D01*
X140722568Y-68676660D01*
X140759787Y-68669264D01*
X140803347Y-68660820D01*
X140851759Y-68651626D01*
X140899618Y-68642699D01*
X140951136Y-68633008D01*
X140999120Y-68623665D01*
X141042090Y-68614982D01*
X141078567Y-68607271D01*
X141107070Y-68600846D01*
X141126119Y-68596017D01*
X141134051Y-68593235D01*
X141139787Y-68585366D01*
X141149377Y-68567676D01*
X141162044Y-68541958D01*
X141177012Y-68510004D01*
X141193504Y-68473609D01*
X141210744Y-68434564D01*
X141227955Y-68394663D01*
X141244360Y-68355699D01*
X141259183Y-68319465D01*
X141271648Y-68287753D01*
X141280978Y-68262357D01*
X141286397Y-68245070D01*
X141287453Y-68239039D01*
X141283739Y-68228831D01*
X141272645Y-68208699D01*
X141254244Y-68178756D01*
X141228608Y-68139116D01*
X141195810Y-68089896D01*
X141155922Y-68031208D01*
X141153045Y-68027009D01*
X141122863Y-67982652D01*
X141095045Y-67941143D01*
X141070372Y-67903693D01*
X141049622Y-67871510D01*
X141033573Y-67845805D01*
X141023005Y-67827787D01*
X141018697Y-67818667D01*
X141018637Y-67818199D01*
X141022916Y-67811244D01*
X141034968Y-67796754D01*
X141053619Y-67775924D01*
X141077693Y-67749950D01*
X141106016Y-67720030D01*
X141137412Y-67687359D01*
X141170706Y-67653134D01*
X141204722Y-67618550D01*
X141238287Y-67584804D01*
X141270224Y-67553093D01*
X141299359Y-67524611D01*
X141324516Y-67500557D01*
X141344520Y-67482125D01*
X141358196Y-67470512D01*
X141363682Y-67466967D01*
X141367344Y-67465885D01*
X141371143Y-67465541D01*
X141376065Y-67466549D01*
X141383096Y-67469523D01*
X141393224Y-67475079D01*
X141407434Y-67483831D01*
X141426712Y-67496393D01*
X141452047Y-67513381D01*
X141484424Y-67535409D01*
X141524830Y-67563091D01*
X141574252Y-67597042D01*
X141591606Y-67608970D01*
X141648558Y-67647858D01*
X141695848Y-67679582D01*
X141733878Y-67704396D01*
X141763052Y-67722554D01*
X141783772Y-67734311D01*
X141796440Y-67739922D01*
X141799797Y-67740505D01*
X141809764Y-67737986D01*
X141829254Y-67731293D01*
X141856412Y-67721186D01*
X141889379Y-67708425D01*
X141926298Y-67693772D01*
X141965311Y-67677987D01*
X142004561Y-67661832D01*
X142042190Y-67646066D01*
X142076340Y-67631451D01*
X142105153Y-67618748D01*
X142126773Y-67608716D01*
X142139342Y-67602118D01*
X142141437Y-67600591D01*
X142144367Y-67592782D01*
X142149213Y-67574058D01*
X142155680Y-67545812D01*
X142163470Y-67509436D01*
X142172288Y-67466320D01*
X142181836Y-67417856D01*
X142191818Y-67365436D01*
X142193559Y-67356108D01*
X142203562Y-67302957D01*
X142213106Y-67253349D01*
X142221901Y-67208706D01*
X142229659Y-67170450D01*
X142236091Y-67140002D01*
X142240906Y-67118783D01*
X142243818Y-67108217D01*
X142244087Y-67107610D01*
X142246149Y-67104535D01*
X142249509Y-67102024D01*
X142255345Y-67100019D01*
X142264837Y-67098464D01*
X142279166Y-67097302D01*
X142299510Y-67096476D01*
X142327048Y-67095928D01*
X142362962Y-67095603D01*
X142408430Y-67095442D01*
X142464631Y-67095388D01*
X142497126Y-67095385D01*
X142559147Y-67095406D01*
G37*
G36*
X143090160Y-71901731D02*
G01*
X143107204Y-71864661D01*
X143134470Y-71834461D01*
X143169166Y-71812873D01*
X143182641Y-71807518D01*
X143197849Y-71803665D01*
X143217330Y-71800992D01*
X143243625Y-71799178D01*
X143279272Y-71797901D01*
X143289508Y-71797639D01*
X143381718Y-71795395D01*
X143381718Y-71759151D01*
X143379906Y-71732354D01*
X143374080Y-71714986D01*
X143370778Y-71710416D01*
X143351483Y-71696661D01*
X143324317Y-71687843D01*
X143292722Y-71683950D01*
X143260142Y-71684970D01*
X143230017Y-71690890D01*
X143205791Y-71701698D01*
X143195083Y-71711041D01*
X143189803Y-71715568D01*
X143183094Y-71715431D01*
X143172425Y-71709615D01*
X143155263Y-71697106D01*
X143149759Y-71692889D01*
X143131957Y-71678545D01*
X143118878Y-71666775D01*
X143113007Y-71659840D01*
X143112902Y-71659369D01*
X143118034Y-71649735D01*
X143131395Y-71636921D01*
X143149931Y-71623137D01*
X143170592Y-71610593D01*
X143190323Y-71601500D01*
X143194934Y-71599971D01*
X143228419Y-71593434D01*
X143268894Y-71590642D01*
X143311431Y-71591574D01*
X143351099Y-71596206D01*
X143371603Y-71600788D01*
X143404910Y-71614802D01*
X143434988Y-71636037D01*
X143458895Y-71661853D01*
X143473686Y-71689610D01*
X143474832Y-71693391D01*
X143476948Y-71707792D01*
X143478719Y-71733654D01*
X143480110Y-71769939D01*
X143481087Y-71815609D01*
X143481618Y-71869627D01*
X143481708Y-71904380D01*
X143481743Y-72090364D01*
X143381718Y-72090364D01*
X143381718Y-72051743D01*
X143362770Y-72067687D01*
X143343426Y-72080380D01*
X143322052Y-72089657D01*
X143320572Y-72090088D01*
X143289789Y-72095122D01*
X143253335Y-72095914D01*
X143217050Y-72092670D01*
X143186775Y-72085592D01*
X143186277Y-72085415D01*
X143146546Y-72065309D01*
X143115830Y-72037522D01*
X143094896Y-72003519D01*
X143084511Y-71964767D01*
X143085018Y-71941890D01*
X143181868Y-71941890D01*
X143186943Y-71966406D01*
X143201430Y-71984436D01*
X143220582Y-71993062D01*
X143238019Y-71996948D01*
X143247310Y-71999129D01*
X143265551Y-72000973D01*
X143289875Y-72000227D01*
X143315737Y-71997400D01*
X143338592Y-71993004D01*
X143353897Y-71987552D01*
X143354727Y-71987041D01*
X143370007Y-71971765D01*
X143378746Y-71949220D01*
X143381708Y-71917370D01*
X143381718Y-71914914D01*
X143381718Y-71884063D01*
X143303163Y-71884063D01*
X143260674Y-71884933D01*
X143229100Y-71888020D01*
X143206942Y-71894037D01*
X143192704Y-71903699D01*
X143184887Y-71917719D01*
X143181994Y-71936813D01*
X143181868Y-71941890D01*
X143085018Y-71941890D01*
X143085442Y-71922733D01*
X143090160Y-71901731D01*
G37*
G36*
X142719506Y-71000460D02*
G01*
X142724502Y-70961000D01*
X142732405Y-70929404D01*
X142734555Y-70923796D01*
X142757754Y-70883152D01*
X142788843Y-70850667D01*
X142826002Y-70826621D01*
X142867414Y-70811294D01*
X142911257Y-70804968D01*
X142955715Y-70807922D01*
X142998966Y-70820438D01*
X143039192Y-70842796D01*
X143071529Y-70871813D01*
X143089421Y-70893655D01*
X143102676Y-70915350D01*
X143111932Y-70939289D01*
X143117824Y-70967867D01*
X143120988Y-71003476D01*
X143122061Y-71048509D01*
X143122076Y-71061986D01*
X143121784Y-71099881D01*
X143120898Y-71127993D01*
X143119118Y-71149039D01*
X143116143Y-71165735D01*
X143111674Y-71180799D01*
X143107811Y-71191035D01*
X143089370Y-71224013D01*
X143062392Y-71255539D01*
X143030615Y-71281797D01*
X143004858Y-71296182D01*
X142970214Y-71306546D01*
X142929970Y-71311441D01*
X142890045Y-71310265D01*
X142880256Y-71308858D01*
X142834169Y-71294832D01*
X142793489Y-71270331D01*
X142760048Y-71236762D01*
X142737063Y-71198669D01*
X142727981Y-71170055D01*
X142721654Y-71132582D01*
X142718112Y-71089596D01*
X142717614Y-71058622D01*
X142819217Y-71058622D01*
X142820648Y-71104243D01*
X142825290Y-71139237D01*
X142833962Y-71165248D01*
X142847484Y-71183919D01*
X142866675Y-71196895D01*
X142892355Y-71205820D01*
X142892593Y-71205881D01*
X142929133Y-71209735D01*
X142962176Y-71202316D01*
X142981136Y-71191466D01*
X142997187Y-71177558D01*
X143008564Y-71162017D01*
X143016008Y-71142462D01*
X143020256Y-71116510D01*
X143022048Y-71081778D01*
X143022255Y-71058860D01*
X143021996Y-71024861D01*
X143020989Y-71000662D01*
X143018888Y-70983566D01*
X143015345Y-70970874D01*
X143010015Y-70959891D01*
X143009414Y-70958856D01*
X142986888Y-70931289D01*
X142958170Y-70914568D01*
X142923487Y-70908825D01*
X142922771Y-70908823D01*
X142886643Y-70913473D01*
X142858344Y-70927670D01*
X142837209Y-70951788D01*
X142833146Y-70959059D01*
X142826871Y-70972870D01*
X142822778Y-70987081D01*
X142820430Y-71004809D01*
X142819393Y-71029170D01*
X142819217Y-71058622D01*
X142717614Y-71058622D01*
X142717386Y-71044440D01*
X142719506Y-71000460D01*
G37*
G36*
X144279509Y-70804847D02*
G01*
X144303168Y-70808973D01*
X144313236Y-70811443D01*
X144353930Y-70825886D01*
X144392014Y-70846751D01*
X144422813Y-70871425D01*
X144425551Y-70874254D01*
X144435071Y-70885261D01*
X144436440Y-70892479D01*
X144430160Y-70901144D01*
X144428316Y-70903195D01*
X144415847Y-70915426D01*
X144399083Y-70930039D01*
X144393342Y-70934697D01*
X144370336Y-70952942D01*
X144341527Y-70932636D01*
X144322529Y-70920754D01*
X144304578Y-70914086D01*
X144282017Y-70910829D01*
X144270761Y-70910096D01*
X144230789Y-70911986D01*
X144198968Y-70922800D01*
X144174104Y-70943155D01*
X144157468Y-70968574D01*
X144149785Y-70985631D01*
X144145075Y-71002228D01*
X144142651Y-71022334D01*
X144141823Y-71049915D01*
X144141784Y-71058860D01*
X144142284Y-71089618D01*
X144144301Y-71111822D01*
X144148469Y-71129391D01*
X144155424Y-71146244D01*
X144156192Y-71147825D01*
X144176541Y-71176264D01*
X144204235Y-71196349D01*
X144236967Y-71207672D01*
X144272431Y-71209831D01*
X144308322Y-71202417D01*
X144342332Y-71185027D01*
X144347273Y-71181423D01*
X144369728Y-71164296D01*
X144393038Y-71182782D01*
X144410005Y-71197044D01*
X144424622Y-71210658D01*
X144428257Y-71214459D01*
X144436232Y-71224513D01*
X144435684Y-71231808D01*
X144428257Y-71240882D01*
X144403455Y-71262747D01*
X144371092Y-71283273D01*
X144336013Y-71299538D01*
X144324201Y-71303619D01*
X144295901Y-71311074D01*
X144270670Y-71313908D01*
X144242978Y-71312394D01*
X144218997Y-71308867D01*
X144181084Y-71297771D01*
X144142798Y-71278577D01*
X144109687Y-71254200D01*
X144103283Y-71248062D01*
X144076355Y-71212354D01*
X144056320Y-71168106D01*
X144043743Y-71117558D01*
X144039187Y-71062952D01*
X144042978Y-71008132D01*
X144056010Y-70951468D01*
X144077298Y-70904168D01*
X144106973Y-70866091D01*
X144145166Y-70837097D01*
X144192008Y-70817047D01*
X144230129Y-70808238D01*
X144257430Y-70804690D01*
X144279509Y-70804847D01*
G37*
G36*
X142482993Y-70806866D02*
G01*
X142518637Y-70812275D01*
X142551668Y-70819958D01*
X142574464Y-70827902D01*
X142598117Y-70839462D01*
X142619322Y-70851807D01*
X142635357Y-70863151D01*
X142643498Y-70871712D01*
X142643994Y-70873442D01*
X142640224Y-70880483D01*
X142630270Y-70894032D01*
X142616238Y-70911233D01*
X142615362Y-70912261D01*
X142586687Y-70945826D01*
X142551984Y-70926241D01*
X142521154Y-70913083D01*
X142486288Y-70904912D01*
X142451299Y-70902109D01*
X142420099Y-70905058D01*
X142401074Y-70911511D01*
X142381593Y-70926755D01*
X142371470Y-70945678D01*
X142370969Y-70965409D01*
X142380354Y-70983077D01*
X142393585Y-70993017D01*
X142408993Y-70998231D01*
X142431941Y-71002876D01*
X142457470Y-71005950D01*
X142457572Y-71005958D01*
X142509511Y-71011225D01*
X142550705Y-71018565D01*
X142582838Y-71028699D01*
X142607596Y-71042351D01*
X142626663Y-71060241D01*
X142641725Y-71083092D01*
X142642924Y-71085383D01*
X142654066Y-71117406D01*
X142658401Y-71153819D01*
X142655763Y-71189604D01*
X142647302Y-71217098D01*
X142625979Y-71248060D01*
X142594943Y-71273812D01*
X142556152Y-71293634D01*
X142511563Y-71306800D01*
X142463133Y-71312589D01*
X142412821Y-71310276D01*
X142400227Y-71308356D01*
X142375655Y-71302252D01*
X142347134Y-71292572D01*
X142326164Y-71283800D01*
X142303295Y-71271956D01*
X142280422Y-71258200D01*
X142260168Y-71244355D01*
X142245159Y-71232242D01*
X142238020Y-71223685D01*
X142237766Y-71222437D01*
X142242172Y-71216578D01*
X142253719Y-71204995D01*
X142270020Y-71190063D01*
X142272092Y-71188239D01*
X142306338Y-71158204D01*
X142334459Y-71177552D01*
X142372532Y-71199264D01*
X142411364Y-71211304D01*
X142455777Y-71215144D01*
X142457478Y-71215148D01*
X142498015Y-71212206D01*
X142527687Y-71203297D01*
X142546679Y-71188300D01*
X142555179Y-71167094D01*
X142555327Y-71151399D01*
X142551565Y-71136105D01*
X142542649Y-71124542D01*
X142526918Y-71115940D01*
X142502711Y-71109525D01*
X142468366Y-71104527D01*
X142450439Y-71102656D01*
X142399491Y-71095892D01*
X142359236Y-71086022D01*
X142328083Y-71072253D01*
X142304437Y-71053793D01*
X142286707Y-71029849D01*
X142280760Y-71018225D01*
X142273509Y-70995819D01*
X142269411Y-70970215D01*
X142269082Y-70962686D01*
X142274006Y-70918007D01*
X142289189Y-70880461D01*
X142314596Y-70850083D01*
X142350194Y-70826908D01*
X142395948Y-70810969D01*
X142422966Y-70805672D01*
X142449511Y-70804432D01*
X142482993Y-70806866D01*
G37*
G36*
X143962023Y-71691243D02*
G01*
X143989117Y-71651736D01*
X144023701Y-71621773D01*
X144065421Y-71601742D01*
X144113924Y-71592027D01*
X144120192Y-71591572D01*
X144172552Y-71593762D01*
X144218924Y-71606766D01*
X144258865Y-71630336D01*
X144291934Y-71664225D01*
X144313860Y-71700040D01*
X144322994Y-71719609D01*
X144329105Y-71736495D01*
X144332949Y-71754369D01*
X144335280Y-71776901D01*
X144336853Y-71807763D01*
X144337051Y-71812836D01*
X144339777Y-71884063D01*
X144030232Y-71884063D01*
X144033723Y-71910091D01*
X144043956Y-71941845D01*
X144064246Y-71968784D01*
X144092449Y-71988814D01*
X144125567Y-71999702D01*
X144153311Y-71999929D01*
X144185054Y-71993553D01*
X144215300Y-71982108D01*
X144236837Y-71968629D01*
X144255080Y-71953278D01*
X144288828Y-71981952D01*
X144305777Y-71996762D01*
X144318471Y-72008625D01*
X144324301Y-72015097D01*
X144324374Y-72015256D01*
X144321209Y-72022774D01*
X144309698Y-72034394D01*
X144292413Y-72048124D01*
X144271925Y-72061974D01*
X144250807Y-72073955D01*
X144244716Y-72076895D01*
X144213620Y-72087135D01*
X144176094Y-72093480D01*
X144136902Y-72095604D01*
X144100808Y-72093181D01*
X144078765Y-72088229D01*
X144038568Y-72071912D01*
X144007273Y-72051475D01*
X143981364Y-72024242D01*
X143966506Y-72002842D01*
X143947988Y-71963828D01*
X143935521Y-71916463D01*
X143929588Y-71863588D01*
X143930669Y-71808044D01*
X143931715Y-71797349D01*
X143931871Y-71796541D01*
X144030232Y-71796541D01*
X144237867Y-71796541D01*
X144233995Y-71776224D01*
X144221943Y-71739287D01*
X144202100Y-71711292D01*
X144175408Y-71693018D01*
X144142808Y-71685240D01*
X144124083Y-71685577D01*
X144089879Y-71694467D01*
X144062280Y-71713012D01*
X144042919Y-71739679D01*
X144033723Y-71770513D01*
X144030232Y-71796541D01*
X143931871Y-71796541D01*
X143942771Y-71739909D01*
X143962023Y-71691243D01*
G37*
G36*
X143314230Y-70980023D02*
G01*
X143314826Y-71031054D01*
X143315463Y-71071104D01*
X143316263Y-71101694D01*
X143317342Y-71124346D01*
X143318819Y-71140580D01*
X143320814Y-71151918D01*
X143323445Y-71159882D01*
X143326831Y-71165993D01*
X143328967Y-71168994D01*
X143350121Y-71192186D01*
X143372753Y-71205097D01*
X143400631Y-71209738D01*
X143405515Y-71209845D01*
X143440195Y-71205554D01*
X143467314Y-71191627D01*
X143488032Y-71167387D01*
X143492683Y-71158980D01*
X143496974Y-71150003D01*
X143500291Y-71140969D01*
X143502759Y-71130197D01*
X143504504Y-71116008D01*
X143505649Y-71096721D01*
X143506321Y-71070655D01*
X143506644Y-71036131D01*
X143506744Y-70991468D01*
X143506749Y-70970014D01*
X143506749Y-70808798D01*
X143606774Y-70808798D01*
X143606774Y-71308921D01*
X143506749Y-71308921D01*
X143506749Y-71259754D01*
X143475699Y-71280650D01*
X143434748Y-71301917D01*
X143392322Y-71312291D01*
X143350687Y-71311289D01*
X143341083Y-71309307D01*
X143297802Y-71292638D01*
X143261647Y-71265845D01*
X143233395Y-71229573D01*
X143224235Y-71212022D01*
X143220111Y-71202638D01*
X143216862Y-71193436D01*
X143214383Y-71182855D01*
X143212569Y-71169328D01*
X143211318Y-71151292D01*
X143210523Y-71127183D01*
X143210080Y-71095436D01*
X143209886Y-71054487D01*
X143209835Y-71002771D01*
X143209833Y-70996344D01*
X143209801Y-70811924D01*
X143261092Y-70810113D01*
X143312384Y-70808302D01*
X143314230Y-70980023D01*
G37*
%TO.C,K1*%
X151015000Y-80085000D02*
X169215000Y-80085000D01*
X169215000Y-80085000D02*
X169215000Y-90285000D01*
X169215000Y-90285000D02*
X151015000Y-90285000D01*
X151015000Y-90285000D02*
X151015000Y-80085000D01*
%TO.C,R5*%
X139939500Y-87392742D02*
X139939500Y-87867258D01*
X140984500Y-87392742D02*
X140984500Y-87867258D01*
%TO.C,Q1*%
X143510000Y-86070000D02*
X144160000Y-86070000D01*
X143510000Y-89190000D02*
X142860000Y-89190000D01*
X143510000Y-89190000D02*
X144160000Y-89190000D01*
X143510000Y-86070000D02*
X141835000Y-86070000D01*
%TO.C,R1*%
X137684742Y-86345500D02*
X138159258Y-86345500D01*
X137684742Y-87390500D02*
X138159258Y-87390500D01*
%TO.C,D1*%
X146320000Y-84160000D02*
X146320000Y-88010000D01*
X148320000Y-84160000D02*
X148320000Y-88010000D01*
X148320000Y-84160000D02*
X146320000Y-84160000D01*
%TO.C,R3*%
X137176742Y-63485500D02*
X137651258Y-63485500D01*
X137176742Y-64530500D02*
X137651258Y-64530500D01*
%TO.C,K4*%
X151015000Y-45795000D02*
X169215000Y-45795000D01*
X169215000Y-45795000D02*
X169215000Y-55995000D01*
X169215000Y-55995000D02*
X151015000Y-55995000D01*
X151015000Y-55995000D02*
X151015000Y-45795000D01*
%TO.C,D2*%
X146320000Y-72730000D02*
X146320000Y-76580000D01*
X148320000Y-72730000D02*
X146320000Y-72730000D01*
X148320000Y-72730000D02*
X148320000Y-76580000D01*
%TO.C,R8*%
X140222500Y-52848742D02*
X140222500Y-53323258D01*
X139177500Y-52848742D02*
X139177500Y-53323258D01*
%TO.C,REF\u002A\u002A*%
G36*
X137282335Y-58820527D02*
G01*
X137287414Y-58839466D01*
X137288458Y-58845446D01*
X137316590Y-58977415D01*
X137358231Y-59103660D01*
X137412255Y-59221138D01*
X137454190Y-59292462D01*
X137492475Y-59351644D01*
X137492475Y-60260787D01*
X137463834Y-60285558D01*
X137438552Y-60306902D01*
X137409804Y-60330459D01*
X137400898Y-60337595D01*
X137383701Y-60351331D01*
X137355625Y-60373827D01*
X137319317Y-60402961D01*
X137277424Y-60436607D01*
X137232593Y-60472643D01*
X137223370Y-60480060D01*
X137180303Y-60514679D01*
X137141548Y-60545793D01*
X137109245Y-60571690D01*
X137085529Y-60590657D01*
X137072539Y-60600981D01*
X137071026Y-60602157D01*
X137062847Y-60597764D01*
X137043372Y-60581643D01*
X137013388Y-60554534D01*
X136973678Y-60517179D01*
X136925026Y-60470320D01*
X136868218Y-60414697D01*
X136804038Y-60351053D01*
X136782344Y-60329386D01*
X136502774Y-60049717D01*
X136625082Y-59897898D01*
X136661335Y-59852922D01*
X136694636Y-59811653D01*
X136723196Y-59776306D01*
X136745226Y-59749094D01*
X136758936Y-59732231D01*
X136761850Y-59728686D01*
X136773433Y-59714508D01*
X136792666Y-59690712D01*
X136816363Y-59661248D01*
X136830473Y-59643647D01*
X136884637Y-59576000D01*
X136846355Y-59500444D01*
X136826361Y-59460217D01*
X136806356Y-59418696D01*
X136789746Y-59382989D01*
X136785364Y-59373176D01*
X136762653Y-59321463D01*
X137016829Y-59067178D01*
X137071554Y-59012573D01*
X137122531Y-58961987D01*
X137168445Y-58916702D01*
X137207985Y-58877999D01*
X137239836Y-58847163D01*
X137262687Y-58825474D01*
X137275224Y-58814216D01*
X137277177Y-58812893D01*
X137282335Y-58820527D01*
G37*
G36*
X137915479Y-58351170D02*
G01*
X137960915Y-58272627D01*
X138020703Y-58198349D01*
X138039365Y-58178742D01*
X138112627Y-58113793D01*
X138190991Y-58063972D01*
X138278082Y-58027108D01*
X138308393Y-58017691D01*
X138346888Y-58007276D01*
X138378279Y-58000919D01*
X138408898Y-57997961D01*
X138445080Y-57997736D01*
X138485094Y-57999209D01*
X138561080Y-58006002D01*
X138626180Y-58019862D01*
X138686005Y-58042449D01*
X138746167Y-58075419D01*
X138749036Y-58077214D01*
X138814465Y-58128327D01*
X138870304Y-58192467D01*
X138914966Y-58267253D01*
X138946860Y-58350304D01*
X138956162Y-58387534D01*
X138962673Y-58430089D01*
X138966166Y-58478630D01*
X138966775Y-58528999D01*
X138964633Y-58577038D01*
X138959876Y-58618590D01*
X138952636Y-58649497D01*
X138947355Y-58660905D01*
X138933086Y-58682681D01*
X138134853Y-58682681D01*
X138135158Y-58719575D01*
X138143673Y-58802333D01*
X138167001Y-58879712D01*
X138203917Y-58949660D01*
X138253197Y-59010123D01*
X138313617Y-59059049D01*
X138349920Y-59079690D01*
X138378396Y-59093478D01*
X138400778Y-59102715D01*
X138421826Y-59108312D01*
X138446302Y-59111181D01*
X138478966Y-59112233D01*
X138520685Y-59112380D01*
X138566502Y-59112056D01*
X138599514Y-59110620D01*
X138624274Y-59107375D01*
X138645332Y-59101626D01*
X138667242Y-59092676D01*
X138676023Y-59088626D01*
X138712029Y-59068771D01*
X138753747Y-59041265D01*
X138795452Y-59010290D01*
X138831418Y-58980027D01*
X138850194Y-58961417D01*
X138867853Y-58947128D01*
X138886374Y-58945219D01*
X138909019Y-58956277D01*
X138934209Y-58976542D01*
X138971888Y-59009979D01*
X138941836Y-59059656D01*
X138883496Y-59140246D01*
X138814021Y-59208289D01*
X138734735Y-59262702D01*
X138646965Y-59302405D01*
X138642349Y-59303994D01*
X138606336Y-59315109D01*
X138572676Y-59322480D01*
X138535496Y-59326992D01*
X138488925Y-59329533D01*
X138469064Y-59330126D01*
X138423101Y-59330519D01*
X138378701Y-59329520D01*
X138341441Y-59327331D01*
X138319948Y-59324755D01*
X138248983Y-59306088D01*
X138175402Y-59276187D01*
X138106505Y-59238074D01*
X138099732Y-59233647D01*
X138030831Y-59177628D01*
X137972071Y-59108762D01*
X137924009Y-59028683D01*
X137887204Y-58939020D01*
X137862215Y-58841408D01*
X137849601Y-58737477D01*
X137849920Y-58628859D01*
X137860605Y-58535108D01*
X137862564Y-58526427D01*
X138134523Y-58526427D01*
X138371240Y-58526378D01*
X138437461Y-58526044D01*
X138498483Y-58525122D01*
X138551809Y-58523695D01*
X138594943Y-58521846D01*
X138625387Y-58519656D01*
X138639617Y-58517536D01*
X138671190Y-58502391D01*
X138691398Y-58476702D01*
X138701229Y-58438768D01*
X138702557Y-58409236D01*
X138693583Y-58347517D01*
X138668921Y-58290158D01*
X138630132Y-58239575D01*
X138578782Y-58198184D01*
X138558402Y-58186458D01*
X138513130Y-58170932D01*
X138459764Y-58165305D01*
X138404386Y-58169451D01*
X138353078Y-58183245D01*
X138335764Y-58191067D01*
X138278567Y-58229970D01*
X138228713Y-58282330D01*
X138188478Y-58344999D01*
X138160141Y-58414827D01*
X138152611Y-58444233D01*
X138146280Y-58473636D01*
X138140773Y-58498802D01*
X138138962Y-58506895D01*
X138134523Y-58526427D01*
X137862564Y-58526427D01*
X137882630Y-58437491D01*
X137915479Y-58351170D01*
G37*
G36*
X140085386Y-57026344D02*
G01*
X140151412Y-57092691D01*
X140209650Y-57151914D01*
X140259359Y-57203228D01*
X140299798Y-57245850D01*
X140330226Y-57278993D01*
X140349901Y-57301875D01*
X140358081Y-57313709D01*
X140358157Y-57315026D01*
X140350559Y-57324655D01*
X140334029Y-57345371D01*
X140310523Y-57374735D01*
X140281999Y-57410313D01*
X140250413Y-57449668D01*
X140217723Y-57490363D01*
X140185885Y-57529962D01*
X140156857Y-57566029D01*
X140132595Y-57596128D01*
X140115056Y-57617821D01*
X140106763Y-57627995D01*
X140095205Y-57642179D01*
X140075996Y-57665974D01*
X140052322Y-57695426D01*
X140038303Y-57712917D01*
X139984234Y-57780447D01*
X140030728Y-57873481D01*
X140050311Y-57913476D01*
X140068017Y-57951103D01*
X140081741Y-57981804D01*
X140088810Y-57999341D01*
X140100397Y-58032166D01*
X139849038Y-58283637D01*
X139794643Y-58337923D01*
X139744023Y-58388185D01*
X139698496Y-58433133D01*
X139659381Y-58471478D01*
X139627993Y-58501931D01*
X139605652Y-58523202D01*
X139593674Y-58534003D01*
X139592041Y-58535108D01*
X139584518Y-58528224D01*
X139581134Y-58521376D01*
X139576758Y-58501365D01*
X139575865Y-58488288D01*
X139573187Y-58466138D01*
X139565934Y-58431975D01*
X139555275Y-58390170D01*
X139542381Y-58345092D01*
X139528420Y-58301113D01*
X139517529Y-58270343D01*
X139487099Y-58196207D01*
X139453524Y-58129571D01*
X139413988Y-58063904D01*
X139376207Y-58005038D01*
X139376207Y-57095895D01*
X139404847Y-57071123D01*
X139430112Y-57049779D01*
X139458846Y-57026197D01*
X139467783Y-57019018D01*
X139484658Y-57005504D01*
X139512517Y-56983119D01*
X139548834Y-56953896D01*
X139591081Y-56919870D01*
X139636733Y-56883073D01*
X139653898Y-56869230D01*
X139805717Y-56746774D01*
X140085386Y-57026344D01*
G37*
G36*
X137255645Y-57953591D02*
G01*
X137331680Y-57953906D01*
X137392901Y-57954478D01*
X137440582Y-57955346D01*
X137475996Y-57956548D01*
X137500416Y-57958123D01*
X137515117Y-57960110D01*
X137521371Y-57962546D01*
X137521538Y-57964346D01*
X137513493Y-57976492D01*
X137498563Y-57998321D01*
X137479843Y-58025311D01*
X137478108Y-58027796D01*
X137434358Y-58096943D01*
X137392861Y-58174439D01*
X137358255Y-58251436D01*
X137350936Y-58270343D01*
X137338563Y-58306061D01*
X137325692Y-58347303D01*
X137313504Y-58389759D01*
X137303180Y-58429119D01*
X137295900Y-58461073D01*
X137292844Y-58481311D01*
X137292816Y-58482532D01*
X137286796Y-58492052D01*
X137269674Y-58512154D01*
X137242862Y-58541439D01*
X137207772Y-58578505D01*
X137165813Y-58621954D01*
X137118396Y-58670385D01*
X137066934Y-58722400D01*
X137012836Y-58776597D01*
X136957513Y-58831578D01*
X136902377Y-58885943D01*
X136848838Y-58938292D01*
X136798307Y-58987225D01*
X136752196Y-59031343D01*
X136711914Y-59069246D01*
X136678874Y-59099534D01*
X136654485Y-59120807D01*
X136640159Y-59131666D01*
X136637373Y-59132782D01*
X136615774Y-59130805D01*
X136594013Y-59128464D01*
X136516079Y-59119458D01*
X136452492Y-59112164D01*
X136400357Y-59106261D01*
X136356779Y-59101427D01*
X136318864Y-59097340D01*
X136283716Y-59093678D01*
X136255462Y-59090820D01*
X136212797Y-59086417D01*
X136173165Y-59082088D01*
X136141816Y-59078419D01*
X136127420Y-59076529D01*
X136094867Y-59071791D01*
X136094867Y-58284891D01*
X136127420Y-58280152D01*
X136149651Y-58277318D01*
X136183914Y-58273415D01*
X136224954Y-58269027D01*
X136255462Y-58265925D01*
X136307369Y-58260532D01*
X136367018Y-58253977D01*
X136424929Y-58247313D01*
X136450780Y-58244207D01*
X136500838Y-58238408D01*
X136554312Y-58232754D01*
X136603277Y-58228060D01*
X136627320Y-58226034D01*
X136663289Y-58222244D01*
X136690435Y-58217417D01*
X136705136Y-58212264D01*
X136706677Y-58210493D01*
X136714428Y-58184768D01*
X136726049Y-58148974D01*
X136739895Y-58107887D01*
X136754318Y-58066284D01*
X136767674Y-58028942D01*
X136778315Y-58000637D01*
X136782531Y-57990388D01*
X136798824Y-57953495D01*
X137163523Y-57953495D01*
X137255645Y-57953591D01*
G37*
G36*
X137732492Y-59599189D02*
G01*
X137754321Y-59614119D01*
X137781311Y-59632838D01*
X137783796Y-59634574D01*
X137852943Y-59678323D01*
X137930439Y-59719821D01*
X138007436Y-59754426D01*
X138026343Y-59761745D01*
X138062061Y-59774119D01*
X138103303Y-59786990D01*
X138145759Y-59799177D01*
X138185119Y-59809502D01*
X138217073Y-59816782D01*
X138237311Y-59819837D01*
X138238532Y-59819865D01*
X138247124Y-59825842D01*
X138266736Y-59843008D01*
X138296174Y-59870216D01*
X138334240Y-59906318D01*
X138379740Y-59950168D01*
X138431477Y-60000618D01*
X138488255Y-60056520D01*
X138548880Y-60116728D01*
X138571620Y-60139441D01*
X138891108Y-60459016D01*
X138885761Y-60506204D01*
X138882565Y-60534214D01*
X138878018Y-60573812D01*
X138872772Y-60619338D01*
X138868354Y-60657562D01*
X138862285Y-60711271D01*
X138855764Y-60771060D01*
X138849756Y-60827977D01*
X138846782Y-60857220D01*
X138842394Y-60899885D01*
X138838078Y-60939518D01*
X138834417Y-60970867D01*
X138832529Y-60985261D01*
X138827791Y-61017814D01*
X138040891Y-61017814D01*
X138036152Y-60985261D01*
X138033318Y-60963030D01*
X138029415Y-60928768D01*
X138025027Y-60887727D01*
X138021925Y-60857220D01*
X138016532Y-60805312D01*
X138009977Y-60745664D01*
X138003313Y-60687753D01*
X138000207Y-60661902D01*
X137994408Y-60611843D01*
X137988754Y-60558369D01*
X137984060Y-60509404D01*
X137982034Y-60485362D01*
X137978244Y-60449393D01*
X137973417Y-60422247D01*
X137968264Y-60407545D01*
X137966493Y-60406004D01*
X137940768Y-60398254D01*
X137904974Y-60386632D01*
X137863887Y-60372787D01*
X137822284Y-60358363D01*
X137784942Y-60345008D01*
X137756637Y-60334367D01*
X137746388Y-60330151D01*
X137709495Y-60313858D01*
X137709495Y-59949158D01*
X137709591Y-59857036D01*
X137709906Y-59781002D01*
X137710478Y-59719781D01*
X137711346Y-59672100D01*
X137712548Y-59636686D01*
X137714123Y-59612265D01*
X137716110Y-59597565D01*
X137718546Y-59591310D01*
X137720346Y-59591143D01*
X137732492Y-59599189D01*
G37*
G36*
X138832529Y-56371420D02*
G01*
X138835364Y-56393651D01*
X138839266Y-56427914D01*
X138843654Y-56468954D01*
X138846757Y-56499462D01*
X138852149Y-56551369D01*
X138858705Y-56611018D01*
X138865369Y-56668929D01*
X138868475Y-56694780D01*
X138874273Y-56744838D01*
X138879928Y-56798312D01*
X138884622Y-56847277D01*
X138886648Y-56871320D01*
X138890438Y-56907289D01*
X138895264Y-56934435D01*
X138900418Y-56949136D01*
X138902188Y-56950677D01*
X138927913Y-56958428D01*
X138963708Y-56970049D01*
X139004794Y-56983895D01*
X139046397Y-56998318D01*
X139083739Y-57011674D01*
X139112044Y-57022315D01*
X139122294Y-57026531D01*
X139159187Y-57042824D01*
X139159187Y-57407011D01*
X139159137Y-57484622D01*
X139158994Y-57556574D01*
X139158770Y-57621074D01*
X139158473Y-57676329D01*
X139158117Y-57720546D01*
X139157710Y-57751930D01*
X139157264Y-57768690D01*
X139157017Y-57771030D01*
X139149435Y-57766347D01*
X139130792Y-57753881D01*
X139104270Y-57735776D01*
X139085400Y-57722755D01*
X138969310Y-57652675D01*
X138843706Y-57596275D01*
X138710993Y-57554608D01*
X138690424Y-57549648D01*
X138625318Y-57534563D01*
X138301944Y-57212359D01*
X137978569Y-56890154D01*
X137983419Y-56846722D01*
X137986397Y-56820377D01*
X137990754Y-56782232D01*
X137995868Y-56737732D01*
X138000327Y-56699120D01*
X138006396Y-56645411D01*
X138012918Y-56585621D01*
X138018925Y-56528705D01*
X138021900Y-56499462D01*
X138026287Y-56456796D01*
X138030603Y-56417163D01*
X138034265Y-56385815D01*
X138036152Y-56371420D01*
X138040891Y-56338867D01*
X138827791Y-56338867D01*
X138832529Y-56371420D01*
G37*
G36*
X140258143Y-58226576D02*
G01*
X140287968Y-58229882D01*
X140329141Y-58234542D01*
X140375770Y-58239885D01*
X140413562Y-58244261D01*
X140467268Y-58250358D01*
X140527055Y-58256902D01*
X140583969Y-58262922D01*
X140613220Y-58265900D01*
X140655885Y-58270287D01*
X140695518Y-58274603D01*
X140726867Y-58278265D01*
X140741261Y-58280152D01*
X140773814Y-58284891D01*
X140773814Y-59071791D01*
X140741261Y-59076529D01*
X140719030Y-59079364D01*
X140684768Y-59083266D01*
X140643727Y-59087654D01*
X140613220Y-59090757D01*
X140561312Y-59096149D01*
X140501664Y-59102705D01*
X140443753Y-59109369D01*
X140417902Y-59112475D01*
X140367843Y-59118273D01*
X140314369Y-59123928D01*
X140265404Y-59128622D01*
X140241362Y-59130648D01*
X140205411Y-59134436D01*
X140178259Y-59139262D01*
X140163536Y-59144413D01*
X140161983Y-59146188D01*
X140152236Y-59178643D01*
X140138543Y-59220966D01*
X140123054Y-59266770D01*
X140107917Y-59309666D01*
X140098156Y-59335911D01*
X140075603Y-59394506D01*
X139712884Y-59394506D01*
X139635427Y-59394415D01*
X139563625Y-59394156D01*
X139499278Y-59393748D01*
X139444183Y-59393211D01*
X139400137Y-59392563D01*
X139368940Y-59391825D01*
X139352387Y-59391016D01*
X139350164Y-59390582D01*
X139354786Y-59382113D01*
X139367032Y-59363212D01*
X139384474Y-59337602D01*
X139388742Y-59331471D01*
X139434905Y-59258605D01*
X139477866Y-59178100D01*
X139513020Y-59098711D01*
X139517745Y-59086338D01*
X139531314Y-59047143D01*
X139544879Y-59003289D01*
X139557274Y-58959114D01*
X139567337Y-58918955D01*
X139573903Y-58887149D01*
X139575865Y-58869809D01*
X139582001Y-58858983D01*
X139600443Y-58836569D01*
X139631242Y-58802513D01*
X139674450Y-58756761D01*
X139730118Y-58699258D01*
X139798298Y-58629950D01*
X139879041Y-58548783D01*
X139891379Y-58536442D01*
X140206894Y-58221016D01*
X140258143Y-58226576D01*
G37*
G36*
X139568051Y-59611937D02*
G01*
X140014245Y-59612347D01*
X140053309Y-59661643D01*
X140074961Y-59688886D01*
X140094167Y-59712910D01*
X140106763Y-59728508D01*
X140117877Y-59742210D01*
X140137148Y-59766100D01*
X140162640Y-59797769D01*
X140192418Y-59834806D01*
X140224547Y-59874801D01*
X140257093Y-59915344D01*
X140288121Y-59954025D01*
X140315696Y-59988434D01*
X140337883Y-60016160D01*
X140352746Y-60034794D01*
X140358157Y-60041656D01*
X140353764Y-60049835D01*
X140337643Y-60069309D01*
X140310534Y-60099294D01*
X140273179Y-60139004D01*
X140226320Y-60187655D01*
X140170697Y-60244463D01*
X140107053Y-60308643D01*
X140085386Y-60330337D01*
X139805717Y-60609908D01*
X139653898Y-60487599D01*
X139608922Y-60451347D01*
X139567653Y-60418046D01*
X139532306Y-60389486D01*
X139505094Y-60367456D01*
X139488231Y-60353745D01*
X139484686Y-60350832D01*
X139470508Y-60339249D01*
X139446712Y-60320016D01*
X139417248Y-60296318D01*
X139399647Y-60282208D01*
X139332000Y-60228045D01*
X139256444Y-60266326D01*
X139216514Y-60286184D01*
X139175580Y-60305928D01*
X139140601Y-60322220D01*
X139130820Y-60326591D01*
X139080751Y-60348575D01*
X138824007Y-60092269D01*
X138769277Y-60037448D01*
X138718722Y-59986451D01*
X138673595Y-59940568D01*
X138635146Y-59901090D01*
X138604630Y-59869304D01*
X138583297Y-59846503D01*
X138572402Y-59833976D01*
X138571269Y-59831957D01*
X138581287Y-59828624D01*
X138603511Y-59823860D01*
X138630679Y-59819102D01*
X138759993Y-59789751D01*
X138887178Y-59743530D01*
X139011033Y-59680905D01*
X139055885Y-59653601D01*
X139121858Y-59611526D01*
X139568051Y-59611937D01*
G37*
G36*
X137116039Y-56788436D02*
G01*
X137137745Y-56805380D01*
X137169924Y-56830852D01*
X137209637Y-56862493D01*
X137253947Y-56897943D01*
X137299915Y-56934845D01*
X137344603Y-56970837D01*
X137385074Y-57003561D01*
X137418389Y-57030657D01*
X137441609Y-57049766D01*
X137444660Y-57052318D01*
X137461377Y-57065992D01*
X137485250Y-57085099D01*
X137500881Y-57097454D01*
X137539670Y-57127942D01*
X137600710Y-57094960D01*
X137640563Y-57074444D01*
X137686624Y-57052224D01*
X137728994Y-57033075D01*
X137729406Y-57032898D01*
X137797062Y-57003817D01*
X138052765Y-57259411D01*
X138107525Y-57314287D01*
X138158271Y-57365411D01*
X138203723Y-57411474D01*
X138242603Y-57451168D01*
X138273632Y-57483185D01*
X138295533Y-57506216D01*
X138307025Y-57518953D01*
X138308469Y-57521038D01*
X138300716Y-57525601D01*
X138280983Y-57530453D01*
X138267235Y-57532664D01*
X138231307Y-57539141D01*
X138184734Y-57549772D01*
X138133279Y-57563030D01*
X138082702Y-57577387D01*
X138038765Y-57591316D01*
X138018640Y-57598578D01*
X137966897Y-57620823D01*
X137909151Y-57649198D01*
X137853039Y-57679761D01*
X137808425Y-57707083D01*
X137764123Y-57736475D01*
X136843412Y-57736475D01*
X136829990Y-57715991D01*
X136815597Y-57696040D01*
X136804957Y-57683438D01*
X136795649Y-57672665D01*
X136777724Y-57651006D01*
X136753383Y-57621155D01*
X136724828Y-57585803D01*
X136709895Y-57567199D01*
X136676581Y-57525657D01*
X136643064Y-57483937D01*
X136612702Y-57446214D01*
X136588853Y-57416662D01*
X136583627Y-57410208D01*
X136560144Y-57380827D01*
X136538527Y-57353078D01*
X136523185Y-57332627D01*
X136522374Y-57331494D01*
X136503937Y-57305602D01*
X137062775Y-56747540D01*
X137116039Y-56788436D01*
G37*
%TO.C,K3*%
X151015000Y-57225000D02*
X169215000Y-57225000D01*
X169215000Y-57225000D02*
X169215000Y-67425000D01*
X169215000Y-67425000D02*
X151015000Y-67425000D01*
X151015000Y-67425000D02*
X151015000Y-57225000D01*
%TO.C,Q3*%
X143510000Y-66330000D02*
X144160000Y-66330000D01*
X143510000Y-63210000D02*
X141835000Y-63210000D01*
X143510000Y-63210000D02*
X144160000Y-63210000D01*
X143510000Y-66330000D02*
X142860000Y-66330000D01*
%TD*%
M02*
