%FSLAX45Y45*%
G04 Gerber Fmt 4.5, Leading zero omitted, Abs format (unit mm)*
G04 Created by KiCad (PCBNEW (6.0.0)) date 2022-01-04 00:39:00*
%MOMM*%
%LPD*%
G01*
G04 APERTURE LIST*
%TA.AperFunction,Profile*%
%ADD10C,0.100000*%
%TD*%
%ADD11C,0.200000*%
%ADD12C,0.240000*%
%ADD13C,0.320000*%
G04 APERTURE END LIST*
D10*
X12979400Y-4445000D02*
X18262600Y-4445000D01*
X12573000Y-8737600D02*
X12573000Y-4851400D01*
X12979400Y-4445000D02*
G75*
G03*
X12573000Y-4851400I0J-406400D01*
G01*
X18669000Y-4851400D02*
X18669000Y-8737600D01*
X18262600Y-9144000D02*
X12979400Y-9144000D01*
X12573000Y-8737600D02*
G75*
G03*
X12979400Y-9144000I406400J0D01*
G01*
X18669000Y-4851400D02*
G75*
G03*
X18262600Y-4445000I-406400J0D01*
G01*
X18262600Y-9144000D02*
G75*
G03*
X18669000Y-8737600I0J406400D01*
G01*
D11*
D12*
X17837750Y-5077500D02*
X18077750Y-5317500D01*
X18077750Y-5077500D02*
X17837750Y-5317500D01*
X17837750Y-8387500D02*
X18077750Y-8627500D01*
X18077750Y-8387500D02*
X17837750Y-8627500D01*
D13*
X13139400Y-4851400D02*
G75*
G03*
X13139400Y-4851400I-160000J0D01*
G01*
X13139400Y-8737600D02*
G75*
G03*
X13139400Y-8737600I-160000J0D01*
G01*
X18422600Y-4851400D02*
G75*
G03*
X18422600Y-4851400I-160000J0D01*
G01*
X18422600Y-8737600D02*
G75*
G03*
X18422600Y-8737600I-160000J0D01*
G01*
D11*
X12825619Y-9459476D02*
X12825619Y-9259476D01*
X12873238Y-9259476D01*
X12901809Y-9269000D01*
X12920857Y-9288048D01*
X12930381Y-9307095D01*
X12939905Y-9345190D01*
X12939905Y-9373762D01*
X12930381Y-9411857D01*
X12920857Y-9430905D01*
X12901809Y-9449952D01*
X12873238Y-9459476D01*
X12825619Y-9459476D01*
X13025619Y-9459476D02*
X13025619Y-9326143D01*
X13025619Y-9364238D02*
X13035143Y-9345190D01*
X13044667Y-9335667D01*
X13063714Y-9326143D01*
X13082762Y-9326143D01*
X13149428Y-9459476D02*
X13149428Y-9326143D01*
X13149428Y-9259476D02*
X13139905Y-9269000D01*
X13149428Y-9278524D01*
X13158952Y-9269000D01*
X13149428Y-9259476D01*
X13149428Y-9278524D01*
X13273238Y-9459476D02*
X13254190Y-9449952D01*
X13244667Y-9430905D01*
X13244667Y-9259476D01*
X13378000Y-9459476D02*
X13358952Y-9449952D01*
X13349428Y-9430905D01*
X13349428Y-9259476D01*
X13606571Y-9459476D02*
X13606571Y-9259476D01*
X13673238Y-9402333D01*
X13739905Y-9259476D01*
X13739905Y-9459476D01*
X13920857Y-9459476D02*
X13920857Y-9354714D01*
X13911333Y-9335667D01*
X13892286Y-9326143D01*
X13854190Y-9326143D01*
X13835143Y-9335667D01*
X13920857Y-9449952D02*
X13901809Y-9459476D01*
X13854190Y-9459476D01*
X13835143Y-9449952D01*
X13825619Y-9430905D01*
X13825619Y-9411857D01*
X13835143Y-9392810D01*
X13854190Y-9383286D01*
X13901809Y-9383286D01*
X13920857Y-9373762D01*
X14016095Y-9326143D02*
X14016095Y-9526143D01*
X14016095Y-9335667D02*
X14035143Y-9326143D01*
X14073238Y-9326143D01*
X14092286Y-9335667D01*
X14101809Y-9345190D01*
X14111333Y-9364238D01*
X14111333Y-9421381D01*
X14101809Y-9440429D01*
X14092286Y-9449952D01*
X14073238Y-9459476D01*
X14035143Y-9459476D01*
X14016095Y-9449952D01*
X14197048Y-9440429D02*
X14206571Y-9449952D01*
X14197048Y-9459476D01*
X14187524Y-9449952D01*
X14197048Y-9440429D01*
X14197048Y-9459476D01*
X14197048Y-9335667D02*
X14206571Y-9345190D01*
X14197048Y-9354714D01*
X14187524Y-9345190D01*
X14197048Y-9335667D01*
X14197048Y-9354714D01*
X12368000Y-9689000D02*
X12568000Y-9889000D01*
X12568000Y-9689000D02*
X12368000Y-9889000D01*
X12816095Y-9698524D02*
X12825619Y-9689000D01*
X12844667Y-9679476D01*
X12892286Y-9679476D01*
X12911333Y-9689000D01*
X12920857Y-9698524D01*
X12930381Y-9717571D01*
X12930381Y-9736619D01*
X12920857Y-9765190D01*
X12806571Y-9879476D01*
X12930381Y-9879476D01*
X13016095Y-9860429D02*
X13025619Y-9869952D01*
X13016095Y-9879476D01*
X13006571Y-9869952D01*
X13016095Y-9860429D01*
X13016095Y-9879476D01*
X13197048Y-9746143D02*
X13197048Y-9879476D01*
X13149428Y-9669952D02*
X13101809Y-9812810D01*
X13225619Y-9812810D01*
X13339905Y-9679476D02*
X13358952Y-9679476D01*
X13378000Y-9689000D01*
X13387524Y-9698524D01*
X13397048Y-9717571D01*
X13406571Y-9755667D01*
X13406571Y-9803286D01*
X13397048Y-9841381D01*
X13387524Y-9860429D01*
X13378000Y-9869952D01*
X13358952Y-9879476D01*
X13339905Y-9879476D01*
X13320857Y-9869952D01*
X13311333Y-9860429D01*
X13301809Y-9841381D01*
X13292286Y-9803286D01*
X13292286Y-9755667D01*
X13301809Y-9717571D01*
X13311333Y-9698524D01*
X13320857Y-9689000D01*
X13339905Y-9679476D01*
X13530381Y-9679476D02*
X13549428Y-9679476D01*
X13568476Y-9689000D01*
X13578000Y-9698524D01*
X13587524Y-9717571D01*
X13597048Y-9755667D01*
X13597048Y-9803286D01*
X13587524Y-9841381D01*
X13578000Y-9860429D01*
X13568476Y-9869952D01*
X13549428Y-9879476D01*
X13530381Y-9879476D01*
X13511333Y-9869952D01*
X13501809Y-9860429D01*
X13492286Y-9841381D01*
X13482762Y-9803286D01*
X13482762Y-9755667D01*
X13492286Y-9717571D01*
X13501809Y-9698524D01*
X13511333Y-9689000D01*
X13530381Y-9679476D01*
X13682762Y-9879476D02*
X13682762Y-9746143D01*
X13682762Y-9765190D02*
X13692286Y-9755667D01*
X13711333Y-9746143D01*
X13739905Y-9746143D01*
X13758952Y-9755667D01*
X13768476Y-9774714D01*
X13768476Y-9879476D01*
X13768476Y-9774714D02*
X13778000Y-9755667D01*
X13797048Y-9746143D01*
X13825619Y-9746143D01*
X13844667Y-9755667D01*
X13854190Y-9774714D01*
X13854190Y-9879476D01*
X13949428Y-9879476D02*
X13949428Y-9746143D01*
X13949428Y-9765190D02*
X13958952Y-9755667D01*
X13978000Y-9746143D01*
X14006571Y-9746143D01*
X14025619Y-9755667D01*
X14035143Y-9774714D01*
X14035143Y-9879476D01*
X14035143Y-9774714D02*
X14044667Y-9755667D01*
X14063714Y-9746143D01*
X14092286Y-9746143D01*
X14111333Y-9755667D01*
X14120857Y-9774714D01*
X14120857Y-9879476D01*
X14511333Y-9669952D02*
X14339905Y-9927095D01*
X14768476Y-9679476D02*
X14787524Y-9679476D01*
X14806571Y-9689000D01*
X14816095Y-9698524D01*
X14825619Y-9717571D01*
X14835143Y-9755667D01*
X14835143Y-9803286D01*
X14825619Y-9841381D01*
X14816095Y-9860429D01*
X14806571Y-9869952D01*
X14787524Y-9879476D01*
X14768476Y-9879476D01*
X14749428Y-9869952D01*
X14739905Y-9860429D01*
X14730381Y-9841381D01*
X14720857Y-9803286D01*
X14720857Y-9755667D01*
X14730381Y-9717571D01*
X14739905Y-9698524D01*
X14749428Y-9689000D01*
X14768476Y-9679476D01*
X14920857Y-9860429D02*
X14930381Y-9869952D01*
X14920857Y-9879476D01*
X14911333Y-9869952D01*
X14920857Y-9860429D01*
X14920857Y-9879476D01*
X15054190Y-9679476D02*
X15073238Y-9679476D01*
X15092286Y-9689000D01*
X15101809Y-9698524D01*
X15111333Y-9717571D01*
X15120857Y-9755667D01*
X15120857Y-9803286D01*
X15111333Y-9841381D01*
X15101809Y-9860429D01*
X15092286Y-9869952D01*
X15073238Y-9879476D01*
X15054190Y-9879476D01*
X15035143Y-9869952D01*
X15025619Y-9860429D01*
X15016095Y-9841381D01*
X15006571Y-9803286D01*
X15006571Y-9755667D01*
X15016095Y-9717571D01*
X15025619Y-9698524D01*
X15035143Y-9689000D01*
X15054190Y-9679476D01*
X15216095Y-9879476D02*
X15254190Y-9879476D01*
X15273238Y-9869952D01*
X15282762Y-9860429D01*
X15301809Y-9831857D01*
X15311333Y-9793762D01*
X15311333Y-9717571D01*
X15301809Y-9698524D01*
X15292286Y-9689000D01*
X15273238Y-9679476D01*
X15235143Y-9679476D01*
X15216095Y-9689000D01*
X15206571Y-9698524D01*
X15197048Y-9717571D01*
X15197048Y-9765190D01*
X15206571Y-9784238D01*
X15216095Y-9793762D01*
X15235143Y-9803286D01*
X15273238Y-9803286D01*
X15292286Y-9793762D01*
X15301809Y-9784238D01*
X15311333Y-9765190D01*
X15482762Y-9746143D02*
X15482762Y-9879476D01*
X15435143Y-9669952D02*
X15387524Y-9812810D01*
X15511333Y-9812810D01*
X15682762Y-9679476D02*
X15587524Y-9679476D01*
X15578000Y-9774714D01*
X15587524Y-9765190D01*
X15606571Y-9755667D01*
X15654190Y-9755667D01*
X15673238Y-9765190D01*
X15682762Y-9774714D01*
X15692286Y-9793762D01*
X15692286Y-9841381D01*
X15682762Y-9860429D01*
X15673238Y-9869952D01*
X15654190Y-9879476D01*
X15606571Y-9879476D01*
X15587524Y-9869952D01*
X15578000Y-9860429D01*
X15768476Y-9679476D02*
X15768476Y-9717571D01*
X15844667Y-9679476D02*
X15844667Y-9717571D01*
X16139905Y-9955667D02*
X16130381Y-9946143D01*
X16111333Y-9917571D01*
X16101809Y-9898524D01*
X16092286Y-9869952D01*
X16082762Y-9822333D01*
X16082762Y-9784238D01*
X16092286Y-9736619D01*
X16101809Y-9708048D01*
X16111333Y-9689000D01*
X16130381Y-9660429D01*
X16139905Y-9650905D01*
X16206571Y-9698524D02*
X16216095Y-9689000D01*
X16235143Y-9679476D01*
X16282762Y-9679476D01*
X16301809Y-9689000D01*
X16311333Y-9698524D01*
X16320857Y-9717571D01*
X16320857Y-9736619D01*
X16311333Y-9765190D01*
X16197048Y-9879476D01*
X16320857Y-9879476D01*
X16558952Y-9879476D02*
X16558952Y-9679476D01*
X16644667Y-9879476D02*
X16644667Y-9774714D01*
X16635143Y-9755667D01*
X16616095Y-9746143D01*
X16587524Y-9746143D01*
X16568476Y-9755667D01*
X16558952Y-9765190D01*
X16768476Y-9879476D02*
X16749428Y-9869952D01*
X16739905Y-9860429D01*
X16730381Y-9841381D01*
X16730381Y-9784238D01*
X16739905Y-9765190D01*
X16749428Y-9755667D01*
X16768476Y-9746143D01*
X16797048Y-9746143D01*
X16816095Y-9755667D01*
X16825619Y-9765190D01*
X16835143Y-9784238D01*
X16835143Y-9841381D01*
X16825619Y-9860429D01*
X16816095Y-9869952D01*
X16797048Y-9879476D01*
X16768476Y-9879476D01*
X16949429Y-9879476D02*
X16930381Y-9869952D01*
X16920857Y-9850905D01*
X16920857Y-9679476D01*
X17101810Y-9869952D02*
X17082762Y-9879476D01*
X17044667Y-9879476D01*
X17025619Y-9869952D01*
X17016095Y-9850905D01*
X17016095Y-9774714D01*
X17025619Y-9755667D01*
X17044667Y-9746143D01*
X17082762Y-9746143D01*
X17101810Y-9755667D01*
X17111333Y-9774714D01*
X17111333Y-9793762D01*
X17016095Y-9812810D01*
X17187524Y-9869952D02*
X17206571Y-9879476D01*
X17244667Y-9879476D01*
X17263714Y-9869952D01*
X17273238Y-9850905D01*
X17273238Y-9841381D01*
X17263714Y-9822333D01*
X17244667Y-9812810D01*
X17216095Y-9812810D01*
X17197048Y-9803286D01*
X17187524Y-9784238D01*
X17187524Y-9774714D01*
X17197048Y-9755667D01*
X17216095Y-9746143D01*
X17244667Y-9746143D01*
X17263714Y-9755667D01*
X17339905Y-9955667D02*
X17349429Y-9946143D01*
X17368476Y-9917571D01*
X17378000Y-9898524D01*
X17387524Y-9869952D01*
X17397048Y-9822333D01*
X17397048Y-9784238D01*
X17387524Y-9736619D01*
X17378000Y-9708048D01*
X17368476Y-9689000D01*
X17349429Y-9660429D01*
X17339905Y-9650905D01*
X17701810Y-9955667D02*
X17692286Y-9946143D01*
X17673238Y-9917571D01*
X17663714Y-9898524D01*
X17654190Y-9869952D01*
X17644667Y-9822333D01*
X17644667Y-9784238D01*
X17654190Y-9736619D01*
X17663714Y-9708048D01*
X17673238Y-9689000D01*
X17692286Y-9660429D01*
X17701810Y-9650905D01*
X17778000Y-9746143D02*
X17778000Y-9879476D01*
X17778000Y-9765190D02*
X17787524Y-9755667D01*
X17806571Y-9746143D01*
X17835143Y-9746143D01*
X17854190Y-9755667D01*
X17863714Y-9774714D01*
X17863714Y-9879476D01*
X17987524Y-9879476D02*
X17968476Y-9869952D01*
X17958952Y-9860429D01*
X17949429Y-9841381D01*
X17949429Y-9784238D01*
X17958952Y-9765190D01*
X17968476Y-9755667D01*
X17987524Y-9746143D01*
X18016095Y-9746143D01*
X18035143Y-9755667D01*
X18044667Y-9765190D01*
X18054190Y-9784238D01*
X18054190Y-9841381D01*
X18044667Y-9860429D01*
X18035143Y-9869952D01*
X18016095Y-9879476D01*
X17987524Y-9879476D01*
X18111333Y-9746143D02*
X18187524Y-9746143D01*
X18139905Y-9679476D02*
X18139905Y-9850905D01*
X18149429Y-9869952D01*
X18168476Y-9879476D01*
X18187524Y-9879476D01*
X18406571Y-9746143D02*
X18406571Y-9946143D01*
X18406571Y-9755667D02*
X18425619Y-9746143D01*
X18463714Y-9746143D01*
X18482762Y-9755667D01*
X18492286Y-9765190D01*
X18501810Y-9784238D01*
X18501810Y-9841381D01*
X18492286Y-9860429D01*
X18482762Y-9869952D01*
X18463714Y-9879476D01*
X18425619Y-9879476D01*
X18406571Y-9869952D01*
X18616095Y-9879476D02*
X18597048Y-9869952D01*
X18587524Y-9850905D01*
X18587524Y-9679476D01*
X18778000Y-9879476D02*
X18778000Y-9774714D01*
X18768476Y-9755667D01*
X18749429Y-9746143D01*
X18711333Y-9746143D01*
X18692286Y-9755667D01*
X18778000Y-9869952D02*
X18758952Y-9879476D01*
X18711333Y-9879476D01*
X18692286Y-9869952D01*
X18682762Y-9850905D01*
X18682762Y-9831857D01*
X18692286Y-9812810D01*
X18711333Y-9803286D01*
X18758952Y-9803286D01*
X18778000Y-9793762D01*
X18844667Y-9746143D02*
X18920857Y-9746143D01*
X18873238Y-9679476D02*
X18873238Y-9850905D01*
X18882762Y-9869952D01*
X18901810Y-9879476D01*
X18920857Y-9879476D01*
X19063714Y-9869952D02*
X19044667Y-9879476D01*
X19006571Y-9879476D01*
X18987524Y-9869952D01*
X18978000Y-9850905D01*
X18978000Y-9774714D01*
X18987524Y-9755667D01*
X19006571Y-9746143D01*
X19044667Y-9746143D01*
X19063714Y-9755667D01*
X19073238Y-9774714D01*
X19073238Y-9793762D01*
X18978000Y-9812810D01*
X19244667Y-9879476D02*
X19244667Y-9679476D01*
X19244667Y-9869952D02*
X19225619Y-9879476D01*
X19187524Y-9879476D01*
X19168476Y-9869952D01*
X19158952Y-9860429D01*
X19149429Y-9841381D01*
X19149429Y-9784238D01*
X19158952Y-9765190D01*
X19168476Y-9755667D01*
X19187524Y-9746143D01*
X19225619Y-9746143D01*
X19244667Y-9755667D01*
X19320857Y-9955667D02*
X19330381Y-9946143D01*
X19349429Y-9917571D01*
X19358952Y-9898524D01*
X19368476Y-9869952D01*
X19378000Y-9822333D01*
X19378000Y-9784238D01*
X19368476Y-9736619D01*
X19358952Y-9708048D01*
X19349429Y-9689000D01*
X19330381Y-9660429D01*
X19320857Y-9650905D01*
X12568000Y-10109000D02*
G75*
G03*
X12568000Y-10109000I-100000J0D01*
G01*
X12806571Y-9999476D02*
X12930381Y-9999476D01*
X12863714Y-10075667D01*
X12892286Y-10075667D01*
X12911333Y-10085190D01*
X12920857Y-10094714D01*
X12930381Y-10113762D01*
X12930381Y-10161381D01*
X12920857Y-10180429D01*
X12911333Y-10189952D01*
X12892286Y-10199476D01*
X12835143Y-10199476D01*
X12816095Y-10189952D01*
X12806571Y-10180429D01*
X13016095Y-10180429D02*
X13025619Y-10189952D01*
X13016095Y-10199476D01*
X13006571Y-10189952D01*
X13016095Y-10180429D01*
X13016095Y-10199476D01*
X13101809Y-10018524D02*
X13111333Y-10009000D01*
X13130381Y-9999476D01*
X13178000Y-9999476D01*
X13197048Y-10009000D01*
X13206571Y-10018524D01*
X13216095Y-10037571D01*
X13216095Y-10056619D01*
X13206571Y-10085190D01*
X13092286Y-10199476D01*
X13216095Y-10199476D01*
X13339905Y-9999476D02*
X13358952Y-9999476D01*
X13378000Y-10009000D01*
X13387524Y-10018524D01*
X13397048Y-10037571D01*
X13406571Y-10075667D01*
X13406571Y-10123286D01*
X13397048Y-10161381D01*
X13387524Y-10180429D01*
X13378000Y-10189952D01*
X13358952Y-10199476D01*
X13339905Y-10199476D01*
X13320857Y-10189952D01*
X13311333Y-10180429D01*
X13301809Y-10161381D01*
X13292286Y-10123286D01*
X13292286Y-10075667D01*
X13301809Y-10037571D01*
X13311333Y-10018524D01*
X13320857Y-10009000D01*
X13339905Y-9999476D01*
X13530381Y-9999476D02*
X13549428Y-9999476D01*
X13568476Y-10009000D01*
X13578000Y-10018524D01*
X13587524Y-10037571D01*
X13597048Y-10075667D01*
X13597048Y-10123286D01*
X13587524Y-10161381D01*
X13578000Y-10180429D01*
X13568476Y-10189952D01*
X13549428Y-10199476D01*
X13530381Y-10199476D01*
X13511333Y-10189952D01*
X13501809Y-10180429D01*
X13492286Y-10161381D01*
X13482762Y-10123286D01*
X13482762Y-10075667D01*
X13492286Y-10037571D01*
X13501809Y-10018524D01*
X13511333Y-10009000D01*
X13530381Y-9999476D01*
X13682762Y-10199476D02*
X13682762Y-10066143D01*
X13682762Y-10085190D02*
X13692286Y-10075667D01*
X13711333Y-10066143D01*
X13739905Y-10066143D01*
X13758952Y-10075667D01*
X13768476Y-10094714D01*
X13768476Y-10199476D01*
X13768476Y-10094714D02*
X13778000Y-10075667D01*
X13797048Y-10066143D01*
X13825619Y-10066143D01*
X13844667Y-10075667D01*
X13854190Y-10094714D01*
X13854190Y-10199476D01*
X13949428Y-10199476D02*
X13949428Y-10066143D01*
X13949428Y-10085190D02*
X13958952Y-10075667D01*
X13978000Y-10066143D01*
X14006571Y-10066143D01*
X14025619Y-10075667D01*
X14035143Y-10094714D01*
X14035143Y-10199476D01*
X14035143Y-10094714D02*
X14044667Y-10075667D01*
X14063714Y-10066143D01*
X14092286Y-10066143D01*
X14111333Y-10075667D01*
X14120857Y-10094714D01*
X14120857Y-10199476D01*
X14511333Y-9989952D02*
X14339905Y-10247095D01*
X14768476Y-9999476D02*
X14787524Y-9999476D01*
X14806571Y-10009000D01*
X14816095Y-10018524D01*
X14825619Y-10037571D01*
X14835143Y-10075667D01*
X14835143Y-10123286D01*
X14825619Y-10161381D01*
X14816095Y-10180429D01*
X14806571Y-10189952D01*
X14787524Y-10199476D01*
X14768476Y-10199476D01*
X14749428Y-10189952D01*
X14739905Y-10180429D01*
X14730381Y-10161381D01*
X14720857Y-10123286D01*
X14720857Y-10075667D01*
X14730381Y-10037571D01*
X14739905Y-10018524D01*
X14749428Y-10009000D01*
X14768476Y-9999476D01*
X14920857Y-10180429D02*
X14930381Y-10189952D01*
X14920857Y-10199476D01*
X14911333Y-10189952D01*
X14920857Y-10180429D01*
X14920857Y-10199476D01*
X15120857Y-10199476D02*
X15006571Y-10199476D01*
X15063714Y-10199476D02*
X15063714Y-9999476D01*
X15044667Y-10028048D01*
X15025619Y-10047095D01*
X15006571Y-10056619D01*
X15197048Y-10018524D02*
X15206571Y-10009000D01*
X15225619Y-9999476D01*
X15273238Y-9999476D01*
X15292286Y-10009000D01*
X15301809Y-10018524D01*
X15311333Y-10037571D01*
X15311333Y-10056619D01*
X15301809Y-10085190D01*
X15187524Y-10199476D01*
X15311333Y-10199476D01*
X15482762Y-9999476D02*
X15444667Y-9999476D01*
X15425619Y-10009000D01*
X15416095Y-10018524D01*
X15397048Y-10047095D01*
X15387524Y-10085190D01*
X15387524Y-10161381D01*
X15397048Y-10180429D01*
X15406571Y-10189952D01*
X15425619Y-10199476D01*
X15463714Y-10199476D01*
X15482762Y-10189952D01*
X15492286Y-10180429D01*
X15501809Y-10161381D01*
X15501809Y-10113762D01*
X15492286Y-10094714D01*
X15482762Y-10085190D01*
X15463714Y-10075667D01*
X15425619Y-10075667D01*
X15406571Y-10085190D01*
X15397048Y-10094714D01*
X15387524Y-10113762D01*
X15625619Y-9999476D02*
X15644667Y-9999476D01*
X15663714Y-10009000D01*
X15673238Y-10018524D01*
X15682762Y-10037571D01*
X15692286Y-10075667D01*
X15692286Y-10123286D01*
X15682762Y-10161381D01*
X15673238Y-10180429D01*
X15663714Y-10189952D01*
X15644667Y-10199476D01*
X15625619Y-10199476D01*
X15606571Y-10189952D01*
X15597048Y-10180429D01*
X15587524Y-10161381D01*
X15578000Y-10123286D01*
X15578000Y-10075667D01*
X15587524Y-10037571D01*
X15597048Y-10018524D01*
X15606571Y-10009000D01*
X15625619Y-9999476D01*
X15768476Y-9999476D02*
X15768476Y-10037571D01*
X15844667Y-9999476D02*
X15844667Y-10037571D01*
X16139905Y-10275667D02*
X16130381Y-10266143D01*
X16111333Y-10237571D01*
X16101809Y-10218524D01*
X16092286Y-10189952D01*
X16082762Y-10142333D01*
X16082762Y-10104238D01*
X16092286Y-10056619D01*
X16101809Y-10028048D01*
X16111333Y-10009000D01*
X16130381Y-9980429D01*
X16139905Y-9970905D01*
X16301809Y-10066143D02*
X16301809Y-10199476D01*
X16254190Y-9989952D02*
X16206571Y-10132810D01*
X16330381Y-10132810D01*
X16558952Y-10199476D02*
X16558952Y-9999476D01*
X16644667Y-10199476D02*
X16644667Y-10094714D01*
X16635143Y-10075667D01*
X16616095Y-10066143D01*
X16587524Y-10066143D01*
X16568476Y-10075667D01*
X16558952Y-10085190D01*
X16768476Y-10199476D02*
X16749428Y-10189952D01*
X16739905Y-10180429D01*
X16730381Y-10161381D01*
X16730381Y-10104238D01*
X16739905Y-10085190D01*
X16749428Y-10075667D01*
X16768476Y-10066143D01*
X16797048Y-10066143D01*
X16816095Y-10075667D01*
X16825619Y-10085190D01*
X16835143Y-10104238D01*
X16835143Y-10161381D01*
X16825619Y-10180429D01*
X16816095Y-10189952D01*
X16797048Y-10199476D01*
X16768476Y-10199476D01*
X16949429Y-10199476D02*
X16930381Y-10189952D01*
X16920857Y-10170905D01*
X16920857Y-9999476D01*
X17101810Y-10189952D02*
X17082762Y-10199476D01*
X17044667Y-10199476D01*
X17025619Y-10189952D01*
X17016095Y-10170905D01*
X17016095Y-10094714D01*
X17025619Y-10075667D01*
X17044667Y-10066143D01*
X17082762Y-10066143D01*
X17101810Y-10075667D01*
X17111333Y-10094714D01*
X17111333Y-10113762D01*
X17016095Y-10132810D01*
X17187524Y-10189952D02*
X17206571Y-10199476D01*
X17244667Y-10199476D01*
X17263714Y-10189952D01*
X17273238Y-10170905D01*
X17273238Y-10161381D01*
X17263714Y-10142333D01*
X17244667Y-10132810D01*
X17216095Y-10132810D01*
X17197048Y-10123286D01*
X17187524Y-10104238D01*
X17187524Y-10094714D01*
X17197048Y-10075667D01*
X17216095Y-10066143D01*
X17244667Y-10066143D01*
X17263714Y-10075667D01*
X17339905Y-10275667D02*
X17349429Y-10266143D01*
X17368476Y-10237571D01*
X17378000Y-10218524D01*
X17387524Y-10189952D01*
X17397048Y-10142333D01*
X17397048Y-10104238D01*
X17387524Y-10056619D01*
X17378000Y-10028048D01*
X17368476Y-10009000D01*
X17349429Y-9980429D01*
X17339905Y-9970905D01*
X17701810Y-10275667D02*
X17692286Y-10266143D01*
X17673238Y-10237571D01*
X17663714Y-10218524D01*
X17654190Y-10189952D01*
X17644667Y-10142333D01*
X17644667Y-10104238D01*
X17654190Y-10056619D01*
X17663714Y-10028048D01*
X17673238Y-10009000D01*
X17692286Y-9980429D01*
X17701810Y-9970905D01*
X17778000Y-10066143D02*
X17778000Y-10199476D01*
X17778000Y-10085190D02*
X17787524Y-10075667D01*
X17806571Y-10066143D01*
X17835143Y-10066143D01*
X17854190Y-10075667D01*
X17863714Y-10094714D01*
X17863714Y-10199476D01*
X17987524Y-10199476D02*
X17968476Y-10189952D01*
X17958952Y-10180429D01*
X17949429Y-10161381D01*
X17949429Y-10104238D01*
X17958952Y-10085190D01*
X17968476Y-10075667D01*
X17987524Y-10066143D01*
X18016095Y-10066143D01*
X18035143Y-10075667D01*
X18044667Y-10085190D01*
X18054190Y-10104238D01*
X18054190Y-10161381D01*
X18044667Y-10180429D01*
X18035143Y-10189952D01*
X18016095Y-10199476D01*
X17987524Y-10199476D01*
X18111333Y-10066143D02*
X18187524Y-10066143D01*
X18139905Y-9999476D02*
X18139905Y-10170905D01*
X18149429Y-10189952D01*
X18168476Y-10199476D01*
X18187524Y-10199476D01*
X18406571Y-10066143D02*
X18406571Y-10266143D01*
X18406571Y-10075667D02*
X18425619Y-10066143D01*
X18463714Y-10066143D01*
X18482762Y-10075667D01*
X18492286Y-10085190D01*
X18501810Y-10104238D01*
X18501810Y-10161381D01*
X18492286Y-10180429D01*
X18482762Y-10189952D01*
X18463714Y-10199476D01*
X18425619Y-10199476D01*
X18406571Y-10189952D01*
X18616095Y-10199476D02*
X18597048Y-10189952D01*
X18587524Y-10170905D01*
X18587524Y-9999476D01*
X18778000Y-10199476D02*
X18778000Y-10094714D01*
X18768476Y-10075667D01*
X18749429Y-10066143D01*
X18711333Y-10066143D01*
X18692286Y-10075667D01*
X18778000Y-10189952D02*
X18758952Y-10199476D01*
X18711333Y-10199476D01*
X18692286Y-10189952D01*
X18682762Y-10170905D01*
X18682762Y-10151857D01*
X18692286Y-10132810D01*
X18711333Y-10123286D01*
X18758952Y-10123286D01*
X18778000Y-10113762D01*
X18844667Y-10066143D02*
X18920857Y-10066143D01*
X18873238Y-9999476D02*
X18873238Y-10170905D01*
X18882762Y-10189952D01*
X18901810Y-10199476D01*
X18920857Y-10199476D01*
X19063714Y-10189952D02*
X19044667Y-10199476D01*
X19006571Y-10199476D01*
X18987524Y-10189952D01*
X18978000Y-10170905D01*
X18978000Y-10094714D01*
X18987524Y-10075667D01*
X19006571Y-10066143D01*
X19044667Y-10066143D01*
X19063714Y-10075667D01*
X19073238Y-10094714D01*
X19073238Y-10113762D01*
X18978000Y-10132810D01*
X19244667Y-10199476D02*
X19244667Y-9999476D01*
X19244667Y-10189952D02*
X19225619Y-10199476D01*
X19187524Y-10199476D01*
X19168476Y-10189952D01*
X19158952Y-10180429D01*
X19149429Y-10161381D01*
X19149429Y-10104238D01*
X19158952Y-10085190D01*
X19168476Y-10075667D01*
X19187524Y-10066143D01*
X19225619Y-10066143D01*
X19244667Y-10075667D01*
X19320857Y-10275667D02*
X19330381Y-10266143D01*
X19349429Y-10237571D01*
X19358952Y-10218524D01*
X19368476Y-10189952D01*
X19378000Y-10142333D01*
X19378000Y-10104238D01*
X19368476Y-10056619D01*
X19358952Y-10028048D01*
X19349429Y-10009000D01*
X19330381Y-9980429D01*
X19320857Y-9970905D01*
M02*
