M48
; DRILL file {KiCad (6.0.4)} date Fri Dec 30 23:52:17 2022
; FORMAT={-:-/ absolute / metric / decimal}
; #@! TF.CreationDate,2022-12-30T23:52:17-05:00
; #@! TF.GenerationSoftware,Kicad,Pcbnew,(6.0.4)
; #@! TF.FileFunction,Plated,1,2,PTH
FMAT,2
METRIC
; #@! TA.AperFunction,Plated,PTH,ComponentDrill
T1C1.000
; #@! TA.AperFunction,Plated,PTH,ComponentDrill
T2C1.321
%
G90
G05
T1
X108.585Y-161.925
X110.49Y-165.735
X112.395Y-161.925
X114.3Y-165.735
X116.205Y-161.925
X118.11Y-165.735
X120.015Y-161.925
X121.92Y-165.735
X123.825Y-161.925
X125.73Y-165.735
X127.635Y-161.925
X129.54Y-165.735
X131.445Y-161.925
X133.35Y-165.735
X135.255Y-161.925
X137.16Y-165.735
X139.065Y-161.925
X140.97Y-165.735
X142.875Y-161.925
X144.78Y-165.735
X146.685Y-161.925
T2
X108.585Y-175.768
X110.49Y-180.848
X112.395Y-175.768
X114.3Y-180.848
X116.205Y-175.768
X118.11Y-180.848
X120.015Y-175.768
X121.92Y-180.848
X123.825Y-175.768
X125.73Y-180.848
X127.635Y-175.768
X129.54Y-180.848
X131.445Y-175.768
X133.35Y-180.848
X135.255Y-175.768
X137.16Y-180.848
X139.065Y-175.768
X140.97Y-180.848
X142.875Y-175.768
X144.78Y-180.848
X146.685Y-175.768
T0
M30
