%FSLAX45Y45*%
G04 Gerber Fmt 4.5, Leading zero omitted, Abs format (unit mm)*
G04 Created by KiCad (PCBNEW (6.0.4)) date 2022-12-30 23:52:18*
%MOMM*%
%LPD*%
G01*
G04 APERTURE LIST*
%TA.AperFunction,Profile*%
%ADD10C,0.100000*%
%TD*%
%ADD11C,0.200000*%
%ADD12C,0.100000*%
%ADD13C,0.132080*%
G04 APERTURE END LIST*
D10*
X12827000Y-18796000D02*
X16065500Y-18796000D01*
X16065500Y-18097500D02*
X16065500Y-16764000D01*
X10350500Y-15875000D02*
X15176500Y-15875000D01*
X9461500Y-18796000D02*
X12827000Y-18796000D01*
X16065500Y-18796000D02*
X16065500Y-18097500D01*
X9461500Y-18097500D02*
X9461500Y-16764000D01*
X16065500Y-16764000D02*
G75*
G03*
X15176500Y-15875000I-889000J0D01*
G01*
X9461500Y-18796000D02*
X9461500Y-18097500D01*
X10350500Y-15875000D02*
G75*
G03*
X9461500Y-16764000I0J-889000D01*
G01*
D11*
D12*
X10808500Y-16142500D02*
X10908500Y-16242500D01*
X10908500Y-16142500D02*
X10808500Y-16242500D01*
X10999000Y-16523500D02*
X11099000Y-16623500D01*
X11099000Y-16523500D02*
X10999000Y-16623500D01*
X11189500Y-16142500D02*
X11289500Y-16242500D01*
X11289500Y-16142500D02*
X11189500Y-16242500D01*
X11380000Y-16523500D02*
X11480000Y-16623500D01*
X11480000Y-16523500D02*
X11380000Y-16623500D01*
X11570500Y-16142500D02*
X11670500Y-16242500D01*
X11670500Y-16142500D02*
X11570500Y-16242500D01*
X11761000Y-16523500D02*
X11861000Y-16623500D01*
X11861000Y-16523500D02*
X11761000Y-16623500D01*
X11951500Y-16142500D02*
X12051500Y-16242500D01*
X12051500Y-16142500D02*
X11951500Y-16242500D01*
X12142000Y-16523500D02*
X12242000Y-16623500D01*
X12242000Y-16523500D02*
X12142000Y-16623500D01*
X12332500Y-16142500D02*
X12432500Y-16242500D01*
X12432500Y-16142500D02*
X12332500Y-16242500D01*
X12523000Y-16523500D02*
X12623000Y-16623500D01*
X12623000Y-16523500D02*
X12523000Y-16623500D01*
X12713500Y-16142500D02*
X12813500Y-16242500D01*
X12813500Y-16142500D02*
X12713500Y-16242500D01*
X12904000Y-16523500D02*
X13004000Y-16623500D01*
X13004000Y-16523500D02*
X12904000Y-16623500D01*
X13094500Y-16142500D02*
X13194500Y-16242500D01*
X13194500Y-16142500D02*
X13094500Y-16242500D01*
X13285000Y-16523500D02*
X13385000Y-16623500D01*
X13385000Y-16523500D02*
X13285000Y-16623500D01*
X13475500Y-16142500D02*
X13575500Y-16242500D01*
X13575500Y-16142500D02*
X13475500Y-16242500D01*
X13666000Y-16523500D02*
X13766000Y-16623500D01*
X13766000Y-16523500D02*
X13666000Y-16623500D01*
X13856500Y-16142500D02*
X13956500Y-16242500D01*
X13956500Y-16142500D02*
X13856500Y-16242500D01*
X14047000Y-16523500D02*
X14147000Y-16623500D01*
X14147000Y-16523500D02*
X14047000Y-16623500D01*
X14237500Y-16142500D02*
X14337500Y-16242500D01*
X14337500Y-16142500D02*
X14237500Y-16242500D01*
X14428000Y-16523500D02*
X14528000Y-16623500D01*
X14528000Y-16523500D02*
X14428000Y-16623500D01*
X14618500Y-16142500D02*
X14718500Y-16242500D01*
X14718500Y-16142500D02*
X14618500Y-16242500D01*
D13*
X10924540Y-17576800D02*
G75*
G03*
X10924540Y-17576800I-66040J0D01*
G01*
X11115040Y-18084800D02*
G75*
G03*
X11115040Y-18084800I-66040J0D01*
G01*
X11305540Y-17576800D02*
G75*
G03*
X11305540Y-17576800I-66040J0D01*
G01*
X11496040Y-18084800D02*
G75*
G03*
X11496040Y-18084800I-66040J0D01*
G01*
X11686540Y-17576800D02*
G75*
G03*
X11686540Y-17576800I-66040J0D01*
G01*
X11877040Y-18084800D02*
G75*
G03*
X11877040Y-18084800I-66040J0D01*
G01*
X12067540Y-17576800D02*
G75*
G03*
X12067540Y-17576800I-66040J0D01*
G01*
X12258040Y-18084800D02*
G75*
G03*
X12258040Y-18084800I-66040J0D01*
G01*
X12448540Y-17576800D02*
G75*
G03*
X12448540Y-17576800I-66040J0D01*
G01*
X12639040Y-18084800D02*
G75*
G03*
X12639040Y-18084800I-66040J0D01*
G01*
X12829540Y-17576800D02*
G75*
G03*
X12829540Y-17576800I-66040J0D01*
G01*
X13020040Y-18084800D02*
G75*
G03*
X13020040Y-18084800I-66040J0D01*
G01*
X13210540Y-17576800D02*
G75*
G03*
X13210540Y-17576800I-66040J0D01*
G01*
X13401040Y-18084800D02*
G75*
G03*
X13401040Y-18084800I-66040J0D01*
G01*
X13591540Y-17576800D02*
G75*
G03*
X13591540Y-17576800I-66040J0D01*
G01*
X13782040Y-18084800D02*
G75*
G03*
X13782040Y-18084800I-66040J0D01*
G01*
X13972540Y-17576800D02*
G75*
G03*
X13972540Y-17576800I-66040J0D01*
G01*
X14163040Y-18084800D02*
G75*
G03*
X14163040Y-18084800I-66040J0D01*
G01*
X14353540Y-17576800D02*
G75*
G03*
X14353540Y-17576800I-66040J0D01*
G01*
X14544040Y-18084800D02*
G75*
G03*
X14544040Y-18084800I-66040J0D01*
G01*
X14734540Y-17576800D02*
G75*
G03*
X14734540Y-17576800I-66040J0D01*
G01*
D11*
X9714119Y-19111476D02*
X9714119Y-18911476D01*
X9761738Y-18911476D01*
X9790310Y-18921000D01*
X9809357Y-18940048D01*
X9818881Y-18959095D01*
X9828405Y-18997190D01*
X9828405Y-19025762D01*
X9818881Y-19063857D01*
X9809357Y-19082905D01*
X9790310Y-19101952D01*
X9761738Y-19111476D01*
X9714119Y-19111476D01*
X9914119Y-19111476D02*
X9914119Y-18978143D01*
X9914119Y-19016238D02*
X9923643Y-18997190D01*
X9933167Y-18987667D01*
X9952214Y-18978143D01*
X9971262Y-18978143D01*
X10037929Y-19111476D02*
X10037929Y-18978143D01*
X10037929Y-18911476D02*
X10028405Y-18921000D01*
X10037929Y-18930524D01*
X10047452Y-18921000D01*
X10037929Y-18911476D01*
X10037929Y-18930524D01*
X10161738Y-19111476D02*
X10142690Y-19101952D01*
X10133167Y-19082905D01*
X10133167Y-18911476D01*
X10266500Y-19111476D02*
X10247452Y-19101952D01*
X10237929Y-19082905D01*
X10237929Y-18911476D01*
X10495071Y-19111476D02*
X10495071Y-18911476D01*
X10561738Y-19054333D01*
X10628405Y-18911476D01*
X10628405Y-19111476D01*
X10809357Y-19111476D02*
X10809357Y-19006714D01*
X10799833Y-18987667D01*
X10780786Y-18978143D01*
X10742690Y-18978143D01*
X10723643Y-18987667D01*
X10809357Y-19101952D02*
X10790310Y-19111476D01*
X10742690Y-19111476D01*
X10723643Y-19101952D01*
X10714119Y-19082905D01*
X10714119Y-19063857D01*
X10723643Y-19044810D01*
X10742690Y-19035286D01*
X10790310Y-19035286D01*
X10809357Y-19025762D01*
X10904595Y-18978143D02*
X10904595Y-19178143D01*
X10904595Y-18987667D02*
X10923643Y-18978143D01*
X10961738Y-18978143D01*
X10980786Y-18987667D01*
X10990310Y-18997190D01*
X10999833Y-19016238D01*
X10999833Y-19073381D01*
X10990310Y-19092429D01*
X10980786Y-19101952D01*
X10961738Y-19111476D01*
X10923643Y-19111476D01*
X10904595Y-19101952D01*
X11085548Y-19092429D02*
X11095071Y-19101952D01*
X11085548Y-19111476D01*
X11076024Y-19101952D01*
X11085548Y-19092429D01*
X11085548Y-19111476D01*
X11085548Y-18987667D02*
X11095071Y-18997190D01*
X11085548Y-19006714D01*
X11076024Y-18997190D01*
X11085548Y-18987667D01*
X11085548Y-19006714D01*
D12*
X9356500Y-19391000D02*
X9456500Y-19491000D01*
X9456500Y-19391000D02*
X9356500Y-19491000D01*
D11*
X9818881Y-19531476D02*
X9704595Y-19531476D01*
X9761738Y-19531476D02*
X9761738Y-19331476D01*
X9742690Y-19360048D01*
X9723643Y-19379095D01*
X9704595Y-19388619D01*
X9904595Y-19512429D02*
X9914119Y-19521952D01*
X9904595Y-19531476D01*
X9895071Y-19521952D01*
X9904595Y-19512429D01*
X9904595Y-19531476D01*
X10037929Y-19331476D02*
X10056976Y-19331476D01*
X10076024Y-19341000D01*
X10085548Y-19350524D01*
X10095071Y-19369571D01*
X10104595Y-19407667D01*
X10104595Y-19455286D01*
X10095071Y-19493381D01*
X10085548Y-19512429D01*
X10076024Y-19521952D01*
X10056976Y-19531476D01*
X10037929Y-19531476D01*
X10018881Y-19521952D01*
X10009357Y-19512429D01*
X9999833Y-19493381D01*
X9990310Y-19455286D01*
X9990310Y-19407667D01*
X9999833Y-19369571D01*
X10009357Y-19350524D01*
X10018881Y-19341000D01*
X10037929Y-19331476D01*
X10228405Y-19331476D02*
X10247452Y-19331476D01*
X10266500Y-19341000D01*
X10276024Y-19350524D01*
X10285548Y-19369571D01*
X10295071Y-19407667D01*
X10295071Y-19455286D01*
X10285548Y-19493381D01*
X10276024Y-19512429D01*
X10266500Y-19521952D01*
X10247452Y-19531476D01*
X10228405Y-19531476D01*
X10209357Y-19521952D01*
X10199833Y-19512429D01*
X10190310Y-19493381D01*
X10180786Y-19455286D01*
X10180786Y-19407667D01*
X10190310Y-19369571D01*
X10199833Y-19350524D01*
X10209357Y-19341000D01*
X10228405Y-19331476D01*
X10418881Y-19331476D02*
X10437929Y-19331476D01*
X10456976Y-19341000D01*
X10466500Y-19350524D01*
X10476024Y-19369571D01*
X10485548Y-19407667D01*
X10485548Y-19455286D01*
X10476024Y-19493381D01*
X10466500Y-19512429D01*
X10456976Y-19521952D01*
X10437929Y-19531476D01*
X10418881Y-19531476D01*
X10399833Y-19521952D01*
X10390310Y-19512429D01*
X10380786Y-19493381D01*
X10371262Y-19455286D01*
X10371262Y-19407667D01*
X10380786Y-19369571D01*
X10390310Y-19350524D01*
X10399833Y-19341000D01*
X10418881Y-19331476D01*
X10571262Y-19531476D02*
X10571262Y-19398143D01*
X10571262Y-19417190D02*
X10580786Y-19407667D01*
X10599833Y-19398143D01*
X10628405Y-19398143D01*
X10647452Y-19407667D01*
X10656976Y-19426714D01*
X10656976Y-19531476D01*
X10656976Y-19426714D02*
X10666500Y-19407667D01*
X10685548Y-19398143D01*
X10714119Y-19398143D01*
X10733167Y-19407667D01*
X10742690Y-19426714D01*
X10742690Y-19531476D01*
X10837929Y-19531476D02*
X10837929Y-19398143D01*
X10837929Y-19417190D02*
X10847452Y-19407667D01*
X10866500Y-19398143D01*
X10895071Y-19398143D01*
X10914119Y-19407667D01*
X10923643Y-19426714D01*
X10923643Y-19531476D01*
X10923643Y-19426714D02*
X10933167Y-19407667D01*
X10952214Y-19398143D01*
X10980786Y-19398143D01*
X10999833Y-19407667D01*
X11009357Y-19426714D01*
X11009357Y-19531476D01*
X11399833Y-19321952D02*
X11228405Y-19579095D01*
X11656976Y-19331476D02*
X11676024Y-19331476D01*
X11695071Y-19341000D01*
X11704595Y-19350524D01*
X11714119Y-19369571D01*
X11723643Y-19407667D01*
X11723643Y-19455286D01*
X11714119Y-19493381D01*
X11704595Y-19512429D01*
X11695071Y-19521952D01*
X11676024Y-19531476D01*
X11656976Y-19531476D01*
X11637928Y-19521952D01*
X11628405Y-19512429D01*
X11618881Y-19493381D01*
X11609357Y-19455286D01*
X11609357Y-19407667D01*
X11618881Y-19369571D01*
X11628405Y-19350524D01*
X11637928Y-19341000D01*
X11656976Y-19331476D01*
X11809357Y-19512429D02*
X11818881Y-19521952D01*
X11809357Y-19531476D01*
X11799833Y-19521952D01*
X11809357Y-19512429D01*
X11809357Y-19531476D01*
X11942690Y-19331476D02*
X11961738Y-19331476D01*
X11980786Y-19341000D01*
X11990309Y-19350524D01*
X11999833Y-19369571D01*
X12009357Y-19407667D01*
X12009357Y-19455286D01*
X11999833Y-19493381D01*
X11990309Y-19512429D01*
X11980786Y-19521952D01*
X11961738Y-19531476D01*
X11942690Y-19531476D01*
X11923643Y-19521952D01*
X11914119Y-19512429D01*
X11904595Y-19493381D01*
X11895071Y-19455286D01*
X11895071Y-19407667D01*
X11904595Y-19369571D01*
X11914119Y-19350524D01*
X11923643Y-19341000D01*
X11942690Y-19331476D01*
X12076024Y-19331476D02*
X12199833Y-19331476D01*
X12133167Y-19407667D01*
X12161738Y-19407667D01*
X12180786Y-19417190D01*
X12190309Y-19426714D01*
X12199833Y-19445762D01*
X12199833Y-19493381D01*
X12190309Y-19512429D01*
X12180786Y-19521952D01*
X12161738Y-19531476D01*
X12104595Y-19531476D01*
X12085548Y-19521952D01*
X12076024Y-19512429D01*
X12295071Y-19531476D02*
X12333167Y-19531476D01*
X12352214Y-19521952D01*
X12361738Y-19512429D01*
X12380786Y-19483857D01*
X12390309Y-19445762D01*
X12390309Y-19369571D01*
X12380786Y-19350524D01*
X12371262Y-19341000D01*
X12352214Y-19331476D01*
X12314119Y-19331476D01*
X12295071Y-19341000D01*
X12285548Y-19350524D01*
X12276024Y-19369571D01*
X12276024Y-19417190D01*
X12285548Y-19436238D01*
X12295071Y-19445762D01*
X12314119Y-19455286D01*
X12352214Y-19455286D01*
X12371262Y-19445762D01*
X12380786Y-19436238D01*
X12390309Y-19417190D01*
X12561738Y-19398143D02*
X12561738Y-19531476D01*
X12514119Y-19321952D02*
X12466500Y-19464810D01*
X12590309Y-19464810D01*
X12656976Y-19331476D02*
X12656976Y-19369571D01*
X12733167Y-19331476D02*
X12733167Y-19369571D01*
X13028405Y-19607667D02*
X13018881Y-19598143D01*
X12999833Y-19569571D01*
X12990309Y-19550524D01*
X12980786Y-19521952D01*
X12971262Y-19474333D01*
X12971262Y-19436238D01*
X12980786Y-19388619D01*
X12990309Y-19360048D01*
X12999833Y-19341000D01*
X13018881Y-19312429D01*
X13028405Y-19302905D01*
X13095071Y-19350524D02*
X13104595Y-19341000D01*
X13123643Y-19331476D01*
X13171262Y-19331476D01*
X13190309Y-19341000D01*
X13199833Y-19350524D01*
X13209357Y-19369571D01*
X13209357Y-19388619D01*
X13199833Y-19417190D01*
X13085548Y-19531476D01*
X13209357Y-19531476D01*
X13399833Y-19531476D02*
X13285548Y-19531476D01*
X13342690Y-19531476D02*
X13342690Y-19331476D01*
X13323643Y-19360048D01*
X13304595Y-19379095D01*
X13285548Y-19388619D01*
X13637928Y-19531476D02*
X13637928Y-19331476D01*
X13723643Y-19531476D02*
X13723643Y-19426714D01*
X13714119Y-19407667D01*
X13695071Y-19398143D01*
X13666500Y-19398143D01*
X13647452Y-19407667D01*
X13637928Y-19417190D01*
X13847452Y-19531476D02*
X13828405Y-19521952D01*
X13818881Y-19512429D01*
X13809357Y-19493381D01*
X13809357Y-19436238D01*
X13818881Y-19417190D01*
X13828405Y-19407667D01*
X13847452Y-19398143D01*
X13876024Y-19398143D01*
X13895071Y-19407667D01*
X13904595Y-19417190D01*
X13914119Y-19436238D01*
X13914119Y-19493381D01*
X13904595Y-19512429D01*
X13895071Y-19521952D01*
X13876024Y-19531476D01*
X13847452Y-19531476D01*
X14028405Y-19531476D02*
X14009357Y-19521952D01*
X13999833Y-19502905D01*
X13999833Y-19331476D01*
X14180786Y-19521952D02*
X14161738Y-19531476D01*
X14123643Y-19531476D01*
X14104595Y-19521952D01*
X14095071Y-19502905D01*
X14095071Y-19426714D01*
X14104595Y-19407667D01*
X14123643Y-19398143D01*
X14161738Y-19398143D01*
X14180786Y-19407667D01*
X14190309Y-19426714D01*
X14190309Y-19445762D01*
X14095071Y-19464810D01*
X14266500Y-19521952D02*
X14285548Y-19531476D01*
X14323643Y-19531476D01*
X14342690Y-19521952D01*
X14352214Y-19502905D01*
X14352214Y-19493381D01*
X14342690Y-19474333D01*
X14323643Y-19464810D01*
X14295071Y-19464810D01*
X14276024Y-19455286D01*
X14266500Y-19436238D01*
X14266500Y-19426714D01*
X14276024Y-19407667D01*
X14295071Y-19398143D01*
X14323643Y-19398143D01*
X14342690Y-19407667D01*
X14418881Y-19607667D02*
X14428405Y-19598143D01*
X14447452Y-19569571D01*
X14456976Y-19550524D01*
X14466500Y-19521952D01*
X14476024Y-19474333D01*
X14476024Y-19436238D01*
X14466500Y-19388619D01*
X14456976Y-19360048D01*
X14447452Y-19341000D01*
X14428405Y-19312429D01*
X14418881Y-19302905D01*
D13*
X9456500Y-19705000D02*
G75*
G03*
X9456500Y-19705000I-66040J0D01*
G01*
D11*
X9818881Y-19795476D02*
X9704595Y-19795476D01*
X9761738Y-19795476D02*
X9761738Y-19595476D01*
X9742690Y-19624048D01*
X9723643Y-19643095D01*
X9704595Y-19652619D01*
X9904595Y-19776429D02*
X9914119Y-19785952D01*
X9904595Y-19795476D01*
X9895071Y-19785952D01*
X9904595Y-19776429D01*
X9904595Y-19795476D01*
X9980786Y-19595476D02*
X10104595Y-19595476D01*
X10037929Y-19671667D01*
X10066500Y-19671667D01*
X10085548Y-19681190D01*
X10095071Y-19690714D01*
X10104595Y-19709762D01*
X10104595Y-19757381D01*
X10095071Y-19776429D01*
X10085548Y-19785952D01*
X10066500Y-19795476D01*
X10009357Y-19795476D01*
X9990310Y-19785952D01*
X9980786Y-19776429D01*
X10180786Y-19614524D02*
X10190310Y-19605000D01*
X10209357Y-19595476D01*
X10256976Y-19595476D01*
X10276024Y-19605000D01*
X10285548Y-19614524D01*
X10295071Y-19633571D01*
X10295071Y-19652619D01*
X10285548Y-19681190D01*
X10171262Y-19795476D01*
X10295071Y-19795476D01*
X10485548Y-19795476D02*
X10371262Y-19795476D01*
X10428405Y-19795476D02*
X10428405Y-19595476D01*
X10409357Y-19624048D01*
X10390310Y-19643095D01*
X10371262Y-19652619D01*
X10571262Y-19795476D02*
X10571262Y-19662143D01*
X10571262Y-19681190D02*
X10580786Y-19671667D01*
X10599833Y-19662143D01*
X10628405Y-19662143D01*
X10647452Y-19671667D01*
X10656976Y-19690714D01*
X10656976Y-19795476D01*
X10656976Y-19690714D02*
X10666500Y-19671667D01*
X10685548Y-19662143D01*
X10714119Y-19662143D01*
X10733167Y-19671667D01*
X10742690Y-19690714D01*
X10742690Y-19795476D01*
X10837929Y-19795476D02*
X10837929Y-19662143D01*
X10837929Y-19681190D02*
X10847452Y-19671667D01*
X10866500Y-19662143D01*
X10895071Y-19662143D01*
X10914119Y-19671667D01*
X10923643Y-19690714D01*
X10923643Y-19795476D01*
X10923643Y-19690714D02*
X10933167Y-19671667D01*
X10952214Y-19662143D01*
X10980786Y-19662143D01*
X10999833Y-19671667D01*
X11009357Y-19690714D01*
X11009357Y-19795476D01*
X11399833Y-19585952D02*
X11228405Y-19843095D01*
X11656976Y-19595476D02*
X11676024Y-19595476D01*
X11695071Y-19605000D01*
X11704595Y-19614524D01*
X11714119Y-19633571D01*
X11723643Y-19671667D01*
X11723643Y-19719286D01*
X11714119Y-19757381D01*
X11704595Y-19776429D01*
X11695071Y-19785952D01*
X11676024Y-19795476D01*
X11656976Y-19795476D01*
X11637928Y-19785952D01*
X11628405Y-19776429D01*
X11618881Y-19757381D01*
X11609357Y-19719286D01*
X11609357Y-19671667D01*
X11618881Y-19633571D01*
X11628405Y-19614524D01*
X11637928Y-19605000D01*
X11656976Y-19595476D01*
X11809357Y-19776429D02*
X11818881Y-19785952D01*
X11809357Y-19795476D01*
X11799833Y-19785952D01*
X11809357Y-19776429D01*
X11809357Y-19795476D01*
X11942690Y-19595476D02*
X11961738Y-19595476D01*
X11980786Y-19605000D01*
X11990309Y-19614524D01*
X11999833Y-19633571D01*
X12009357Y-19671667D01*
X12009357Y-19719286D01*
X11999833Y-19757381D01*
X11990309Y-19776429D01*
X11980786Y-19785952D01*
X11961738Y-19795476D01*
X11942690Y-19795476D01*
X11923643Y-19785952D01*
X11914119Y-19776429D01*
X11904595Y-19757381D01*
X11895071Y-19719286D01*
X11895071Y-19671667D01*
X11904595Y-19633571D01*
X11914119Y-19614524D01*
X11923643Y-19605000D01*
X11942690Y-19595476D01*
X12190309Y-19595476D02*
X12095071Y-19595476D01*
X12085548Y-19690714D01*
X12095071Y-19681190D01*
X12114119Y-19671667D01*
X12161738Y-19671667D01*
X12180786Y-19681190D01*
X12190309Y-19690714D01*
X12199833Y-19709762D01*
X12199833Y-19757381D01*
X12190309Y-19776429D01*
X12180786Y-19785952D01*
X12161738Y-19795476D01*
X12114119Y-19795476D01*
X12095071Y-19785952D01*
X12085548Y-19776429D01*
X12276024Y-19614524D02*
X12285548Y-19605000D01*
X12304595Y-19595476D01*
X12352214Y-19595476D01*
X12371262Y-19605000D01*
X12380786Y-19614524D01*
X12390309Y-19633571D01*
X12390309Y-19652619D01*
X12380786Y-19681190D01*
X12266500Y-19795476D01*
X12390309Y-19795476D01*
X12514119Y-19595476D02*
X12533167Y-19595476D01*
X12552214Y-19605000D01*
X12561738Y-19614524D01*
X12571262Y-19633571D01*
X12580786Y-19671667D01*
X12580786Y-19719286D01*
X12571262Y-19757381D01*
X12561738Y-19776429D01*
X12552214Y-19785952D01*
X12533167Y-19795476D01*
X12514119Y-19795476D01*
X12495071Y-19785952D01*
X12485548Y-19776429D01*
X12476024Y-19757381D01*
X12466500Y-19719286D01*
X12466500Y-19671667D01*
X12476024Y-19633571D01*
X12485548Y-19614524D01*
X12495071Y-19605000D01*
X12514119Y-19595476D01*
X12656976Y-19595476D02*
X12656976Y-19633571D01*
X12733167Y-19595476D02*
X12733167Y-19633571D01*
X13028405Y-19871667D02*
X13018881Y-19862143D01*
X12999833Y-19833571D01*
X12990309Y-19814524D01*
X12980786Y-19785952D01*
X12971262Y-19738333D01*
X12971262Y-19700238D01*
X12980786Y-19652619D01*
X12990309Y-19624048D01*
X12999833Y-19605000D01*
X13018881Y-19576429D01*
X13028405Y-19566905D01*
X13095071Y-19614524D02*
X13104595Y-19605000D01*
X13123643Y-19595476D01*
X13171262Y-19595476D01*
X13190309Y-19605000D01*
X13199833Y-19614524D01*
X13209357Y-19633571D01*
X13209357Y-19652619D01*
X13199833Y-19681190D01*
X13085548Y-19795476D01*
X13209357Y-19795476D01*
X13399833Y-19795476D02*
X13285548Y-19795476D01*
X13342690Y-19795476D02*
X13342690Y-19595476D01*
X13323643Y-19624048D01*
X13304595Y-19643095D01*
X13285548Y-19652619D01*
X13637928Y-19795476D02*
X13637928Y-19595476D01*
X13723643Y-19795476D02*
X13723643Y-19690714D01*
X13714119Y-19671667D01*
X13695071Y-19662143D01*
X13666500Y-19662143D01*
X13647452Y-19671667D01*
X13637928Y-19681190D01*
X13847452Y-19795476D02*
X13828405Y-19785952D01*
X13818881Y-19776429D01*
X13809357Y-19757381D01*
X13809357Y-19700238D01*
X13818881Y-19681190D01*
X13828405Y-19671667D01*
X13847452Y-19662143D01*
X13876024Y-19662143D01*
X13895071Y-19671667D01*
X13904595Y-19681190D01*
X13914119Y-19700238D01*
X13914119Y-19757381D01*
X13904595Y-19776429D01*
X13895071Y-19785952D01*
X13876024Y-19795476D01*
X13847452Y-19795476D01*
X14028405Y-19795476D02*
X14009357Y-19785952D01*
X13999833Y-19766905D01*
X13999833Y-19595476D01*
X14180786Y-19785952D02*
X14161738Y-19795476D01*
X14123643Y-19795476D01*
X14104595Y-19785952D01*
X14095071Y-19766905D01*
X14095071Y-19690714D01*
X14104595Y-19671667D01*
X14123643Y-19662143D01*
X14161738Y-19662143D01*
X14180786Y-19671667D01*
X14190309Y-19690714D01*
X14190309Y-19709762D01*
X14095071Y-19728810D01*
X14266500Y-19785952D02*
X14285548Y-19795476D01*
X14323643Y-19795476D01*
X14342690Y-19785952D01*
X14352214Y-19766905D01*
X14352214Y-19757381D01*
X14342690Y-19738333D01*
X14323643Y-19728810D01*
X14295071Y-19728810D01*
X14276024Y-19719286D01*
X14266500Y-19700238D01*
X14266500Y-19690714D01*
X14276024Y-19671667D01*
X14295071Y-19662143D01*
X14323643Y-19662143D01*
X14342690Y-19671667D01*
X14418881Y-19871667D02*
X14428405Y-19862143D01*
X14447452Y-19833571D01*
X14456976Y-19814524D01*
X14466500Y-19785952D01*
X14476024Y-19738333D01*
X14476024Y-19700238D01*
X14466500Y-19652619D01*
X14456976Y-19624048D01*
X14447452Y-19605000D01*
X14428405Y-19576429D01*
X14418881Y-19566905D01*
M02*
