%FSLAX45Y45*%
G04 Gerber Fmt 4.5, Leading zero omitted, Abs format (unit mm)*
G04 Created by KiCad (PCBNEW (6.0.4)) date 2022-12-30 23:52:18*
%MOMM*%
%LPD*%
G01*
G04 APERTURE LIST*
%TA.AperFunction,Profile*%
%ADD10C,0.100000*%
%TD*%
%ADD11C,0.200000*%
%ADD12C,0.320000*%
G04 APERTURE END LIST*
D10*
X12827000Y-18796000D02*
X16065500Y-18796000D01*
X16065500Y-18097500D02*
X16065500Y-16764000D01*
X10350500Y-15875000D02*
X15176500Y-15875000D01*
X9461500Y-18796000D02*
X12827000Y-18796000D01*
X16065500Y-18796000D02*
X16065500Y-18097500D01*
X9461500Y-18097500D02*
X9461500Y-16764000D01*
X16065500Y-16764000D02*
G75*
G03*
X15176500Y-15875000I-889000J0D01*
G01*
X9461500Y-18796000D02*
X9461500Y-18097500D01*
X10350500Y-15875000D02*
G75*
G03*
X9461500Y-16764000I0J-889000D01*
G01*
D11*
D12*
X10063500Y-16413500D02*
X10383500Y-16733500D01*
X10383500Y-16413500D02*
X10063500Y-16733500D01*
X15143500Y-16413500D02*
X15463500Y-16733500D01*
X15463500Y-16413500D02*
X15143500Y-16733500D01*
D11*
X9714119Y-19111476D02*
X9714119Y-18911476D01*
X9761738Y-18911476D01*
X9790310Y-18921000D01*
X9809357Y-18940048D01*
X9818881Y-18959095D01*
X9828405Y-18997190D01*
X9828405Y-19025762D01*
X9818881Y-19063857D01*
X9809357Y-19082905D01*
X9790310Y-19101952D01*
X9761738Y-19111476D01*
X9714119Y-19111476D01*
X9914119Y-19111476D02*
X9914119Y-18978143D01*
X9914119Y-19016238D02*
X9923643Y-18997190D01*
X9933167Y-18987667D01*
X9952214Y-18978143D01*
X9971262Y-18978143D01*
X10037929Y-19111476D02*
X10037929Y-18978143D01*
X10037929Y-18911476D02*
X10028405Y-18921000D01*
X10037929Y-18930524D01*
X10047452Y-18921000D01*
X10037929Y-18911476D01*
X10037929Y-18930524D01*
X10161738Y-19111476D02*
X10142690Y-19101952D01*
X10133167Y-19082905D01*
X10133167Y-18911476D01*
X10266500Y-19111476D02*
X10247452Y-19101952D01*
X10237929Y-19082905D01*
X10237929Y-18911476D01*
X10495071Y-19111476D02*
X10495071Y-18911476D01*
X10561738Y-19054333D01*
X10628405Y-18911476D01*
X10628405Y-19111476D01*
X10809357Y-19111476D02*
X10809357Y-19006714D01*
X10799833Y-18987667D01*
X10780786Y-18978143D01*
X10742690Y-18978143D01*
X10723643Y-18987667D01*
X10809357Y-19101952D02*
X10790310Y-19111476D01*
X10742690Y-19111476D01*
X10723643Y-19101952D01*
X10714119Y-19082905D01*
X10714119Y-19063857D01*
X10723643Y-19044810D01*
X10742690Y-19035286D01*
X10790310Y-19035286D01*
X10809357Y-19025762D01*
X10904595Y-18978143D02*
X10904595Y-19178143D01*
X10904595Y-18987667D02*
X10923643Y-18978143D01*
X10961738Y-18978143D01*
X10980786Y-18987667D01*
X10990310Y-18997190D01*
X10999833Y-19016238D01*
X10999833Y-19073381D01*
X10990310Y-19092429D01*
X10980786Y-19101952D01*
X10961738Y-19111476D01*
X10923643Y-19111476D01*
X10904595Y-19101952D01*
X11085548Y-19092429D02*
X11095071Y-19101952D01*
X11085548Y-19111476D01*
X11076024Y-19101952D01*
X11085548Y-19092429D01*
X11085548Y-19111476D01*
X11085548Y-18987667D02*
X11095071Y-18997190D01*
X11085548Y-19006714D01*
X11076024Y-18997190D01*
X11085548Y-18987667D01*
X11085548Y-19006714D01*
X9256500Y-19341000D02*
X9456500Y-19541000D01*
X9456500Y-19341000D02*
X9256500Y-19541000D01*
X9695071Y-19331476D02*
X9818881Y-19331476D01*
X9752214Y-19407667D01*
X9780786Y-19407667D01*
X9799833Y-19417190D01*
X9809357Y-19426714D01*
X9818881Y-19445762D01*
X9818881Y-19493381D01*
X9809357Y-19512429D01*
X9799833Y-19521952D01*
X9780786Y-19531476D01*
X9723643Y-19531476D01*
X9704595Y-19521952D01*
X9695071Y-19512429D01*
X9904595Y-19512429D02*
X9914119Y-19521952D01*
X9904595Y-19531476D01*
X9895071Y-19521952D01*
X9904595Y-19512429D01*
X9904595Y-19531476D01*
X9990310Y-19350524D02*
X9999833Y-19341000D01*
X10018881Y-19331476D01*
X10066500Y-19331476D01*
X10085548Y-19341000D01*
X10095071Y-19350524D01*
X10104595Y-19369571D01*
X10104595Y-19388619D01*
X10095071Y-19417190D01*
X9980786Y-19531476D01*
X10104595Y-19531476D01*
X10228405Y-19331476D02*
X10247452Y-19331476D01*
X10266500Y-19341000D01*
X10276024Y-19350524D01*
X10285548Y-19369571D01*
X10295071Y-19407667D01*
X10295071Y-19455286D01*
X10285548Y-19493381D01*
X10276024Y-19512429D01*
X10266500Y-19521952D01*
X10247452Y-19531476D01*
X10228405Y-19531476D01*
X10209357Y-19521952D01*
X10199833Y-19512429D01*
X10190310Y-19493381D01*
X10180786Y-19455286D01*
X10180786Y-19407667D01*
X10190310Y-19369571D01*
X10199833Y-19350524D01*
X10209357Y-19341000D01*
X10228405Y-19331476D01*
X10418881Y-19331476D02*
X10437929Y-19331476D01*
X10456976Y-19341000D01*
X10466500Y-19350524D01*
X10476024Y-19369571D01*
X10485548Y-19407667D01*
X10485548Y-19455286D01*
X10476024Y-19493381D01*
X10466500Y-19512429D01*
X10456976Y-19521952D01*
X10437929Y-19531476D01*
X10418881Y-19531476D01*
X10399833Y-19521952D01*
X10390310Y-19512429D01*
X10380786Y-19493381D01*
X10371262Y-19455286D01*
X10371262Y-19407667D01*
X10380786Y-19369571D01*
X10390310Y-19350524D01*
X10399833Y-19341000D01*
X10418881Y-19331476D01*
X10571262Y-19531476D02*
X10571262Y-19398143D01*
X10571262Y-19417190D02*
X10580786Y-19407667D01*
X10599833Y-19398143D01*
X10628405Y-19398143D01*
X10647452Y-19407667D01*
X10656976Y-19426714D01*
X10656976Y-19531476D01*
X10656976Y-19426714D02*
X10666500Y-19407667D01*
X10685548Y-19398143D01*
X10714119Y-19398143D01*
X10733167Y-19407667D01*
X10742690Y-19426714D01*
X10742690Y-19531476D01*
X10837929Y-19531476D02*
X10837929Y-19398143D01*
X10837929Y-19417190D02*
X10847452Y-19407667D01*
X10866500Y-19398143D01*
X10895071Y-19398143D01*
X10914119Y-19407667D01*
X10923643Y-19426714D01*
X10923643Y-19531476D01*
X10923643Y-19426714D02*
X10933167Y-19407667D01*
X10952214Y-19398143D01*
X10980786Y-19398143D01*
X10999833Y-19407667D01*
X11009357Y-19426714D01*
X11009357Y-19531476D01*
X11399833Y-19321952D02*
X11228405Y-19579095D01*
X11656976Y-19331476D02*
X11676024Y-19331476D01*
X11695071Y-19341000D01*
X11704595Y-19350524D01*
X11714119Y-19369571D01*
X11723643Y-19407667D01*
X11723643Y-19455286D01*
X11714119Y-19493381D01*
X11704595Y-19512429D01*
X11695071Y-19521952D01*
X11676024Y-19531476D01*
X11656976Y-19531476D01*
X11637928Y-19521952D01*
X11628405Y-19512429D01*
X11618881Y-19493381D01*
X11609357Y-19455286D01*
X11609357Y-19407667D01*
X11618881Y-19369571D01*
X11628405Y-19350524D01*
X11637928Y-19341000D01*
X11656976Y-19331476D01*
X11809357Y-19512429D02*
X11818881Y-19521952D01*
X11809357Y-19531476D01*
X11799833Y-19521952D01*
X11809357Y-19512429D01*
X11809357Y-19531476D01*
X12009357Y-19531476D02*
X11895071Y-19531476D01*
X11952214Y-19531476D02*
X11952214Y-19331476D01*
X11933167Y-19360048D01*
X11914119Y-19379095D01*
X11895071Y-19388619D01*
X12085548Y-19350524D02*
X12095071Y-19341000D01*
X12114119Y-19331476D01*
X12161738Y-19331476D01*
X12180786Y-19341000D01*
X12190309Y-19350524D01*
X12199833Y-19369571D01*
X12199833Y-19388619D01*
X12190309Y-19417190D01*
X12076024Y-19531476D01*
X12199833Y-19531476D01*
X12371262Y-19331476D02*
X12333167Y-19331476D01*
X12314119Y-19341000D01*
X12304595Y-19350524D01*
X12285548Y-19379095D01*
X12276024Y-19417190D01*
X12276024Y-19493381D01*
X12285548Y-19512429D01*
X12295071Y-19521952D01*
X12314119Y-19531476D01*
X12352214Y-19531476D01*
X12371262Y-19521952D01*
X12380786Y-19512429D01*
X12390309Y-19493381D01*
X12390309Y-19445762D01*
X12380786Y-19426714D01*
X12371262Y-19417190D01*
X12352214Y-19407667D01*
X12314119Y-19407667D01*
X12295071Y-19417190D01*
X12285548Y-19426714D01*
X12276024Y-19445762D01*
X12514119Y-19331476D02*
X12533167Y-19331476D01*
X12552214Y-19341000D01*
X12561738Y-19350524D01*
X12571262Y-19369571D01*
X12580786Y-19407667D01*
X12580786Y-19455286D01*
X12571262Y-19493381D01*
X12561738Y-19512429D01*
X12552214Y-19521952D01*
X12533167Y-19531476D01*
X12514119Y-19531476D01*
X12495071Y-19521952D01*
X12485548Y-19512429D01*
X12476024Y-19493381D01*
X12466500Y-19455286D01*
X12466500Y-19407667D01*
X12476024Y-19369571D01*
X12485548Y-19350524D01*
X12495071Y-19341000D01*
X12514119Y-19331476D01*
X12656976Y-19331476D02*
X12656976Y-19369571D01*
X12733167Y-19331476D02*
X12733167Y-19369571D01*
X13028405Y-19607667D02*
X13018881Y-19598143D01*
X12999833Y-19569571D01*
X12990309Y-19550524D01*
X12980786Y-19521952D01*
X12971262Y-19474333D01*
X12971262Y-19436238D01*
X12980786Y-19388619D01*
X12990309Y-19360048D01*
X12999833Y-19341000D01*
X13018881Y-19312429D01*
X13028405Y-19302905D01*
X13095071Y-19350524D02*
X13104595Y-19341000D01*
X13123643Y-19331476D01*
X13171262Y-19331476D01*
X13190309Y-19341000D01*
X13199833Y-19350524D01*
X13209357Y-19369571D01*
X13209357Y-19388619D01*
X13199833Y-19417190D01*
X13085548Y-19531476D01*
X13209357Y-19531476D01*
X13447452Y-19531476D02*
X13447452Y-19331476D01*
X13533167Y-19531476D02*
X13533167Y-19426714D01*
X13523643Y-19407667D01*
X13504595Y-19398143D01*
X13476024Y-19398143D01*
X13456976Y-19407667D01*
X13447452Y-19417190D01*
X13656976Y-19531476D02*
X13637928Y-19521952D01*
X13628405Y-19512429D01*
X13618881Y-19493381D01*
X13618881Y-19436238D01*
X13628405Y-19417190D01*
X13637928Y-19407667D01*
X13656976Y-19398143D01*
X13685548Y-19398143D01*
X13704595Y-19407667D01*
X13714119Y-19417190D01*
X13723643Y-19436238D01*
X13723643Y-19493381D01*
X13714119Y-19512429D01*
X13704595Y-19521952D01*
X13685548Y-19531476D01*
X13656976Y-19531476D01*
X13837928Y-19531476D02*
X13818881Y-19521952D01*
X13809357Y-19502905D01*
X13809357Y-19331476D01*
X13990309Y-19521952D02*
X13971262Y-19531476D01*
X13933167Y-19531476D01*
X13914119Y-19521952D01*
X13904595Y-19502905D01*
X13904595Y-19426714D01*
X13914119Y-19407667D01*
X13933167Y-19398143D01*
X13971262Y-19398143D01*
X13990309Y-19407667D01*
X13999833Y-19426714D01*
X13999833Y-19445762D01*
X13904595Y-19464810D01*
X14076024Y-19521952D02*
X14095071Y-19531476D01*
X14133167Y-19531476D01*
X14152214Y-19521952D01*
X14161738Y-19502905D01*
X14161738Y-19493381D01*
X14152214Y-19474333D01*
X14133167Y-19464810D01*
X14104595Y-19464810D01*
X14085548Y-19455286D01*
X14076024Y-19436238D01*
X14076024Y-19426714D01*
X14085548Y-19407667D01*
X14104595Y-19398143D01*
X14133167Y-19398143D01*
X14152214Y-19407667D01*
X14228405Y-19607667D02*
X14237928Y-19598143D01*
X14256976Y-19569571D01*
X14266500Y-19550524D01*
X14276024Y-19521952D01*
X14285548Y-19474333D01*
X14285548Y-19436238D01*
X14276024Y-19388619D01*
X14266500Y-19360048D01*
X14256976Y-19341000D01*
X14237928Y-19312429D01*
X14228405Y-19302905D01*
X14590309Y-19607667D02*
X14580786Y-19598143D01*
X14561738Y-19569571D01*
X14552214Y-19550524D01*
X14542690Y-19521952D01*
X14533167Y-19474333D01*
X14533167Y-19436238D01*
X14542690Y-19388619D01*
X14552214Y-19360048D01*
X14561738Y-19341000D01*
X14580786Y-19312429D01*
X14590309Y-19302905D01*
X14666500Y-19398143D02*
X14666500Y-19531476D01*
X14666500Y-19417190D02*
X14676024Y-19407667D01*
X14695071Y-19398143D01*
X14723643Y-19398143D01*
X14742690Y-19407667D01*
X14752214Y-19426714D01*
X14752214Y-19531476D01*
X14876024Y-19531476D02*
X14856976Y-19521952D01*
X14847452Y-19512429D01*
X14837928Y-19493381D01*
X14837928Y-19436238D01*
X14847452Y-19417190D01*
X14856976Y-19407667D01*
X14876024Y-19398143D01*
X14904595Y-19398143D01*
X14923643Y-19407667D01*
X14933167Y-19417190D01*
X14942690Y-19436238D01*
X14942690Y-19493381D01*
X14933167Y-19512429D01*
X14923643Y-19521952D01*
X14904595Y-19531476D01*
X14876024Y-19531476D01*
X14999833Y-19398143D02*
X15076024Y-19398143D01*
X15028405Y-19331476D02*
X15028405Y-19502905D01*
X15037928Y-19521952D01*
X15056976Y-19531476D01*
X15076024Y-19531476D01*
X15295071Y-19398143D02*
X15295071Y-19598143D01*
X15295071Y-19407667D02*
X15314119Y-19398143D01*
X15352214Y-19398143D01*
X15371262Y-19407667D01*
X15380786Y-19417190D01*
X15390309Y-19436238D01*
X15390309Y-19493381D01*
X15380786Y-19512429D01*
X15371262Y-19521952D01*
X15352214Y-19531476D01*
X15314119Y-19531476D01*
X15295071Y-19521952D01*
X15504595Y-19531476D02*
X15485548Y-19521952D01*
X15476024Y-19502905D01*
X15476024Y-19331476D01*
X15666500Y-19531476D02*
X15666500Y-19426714D01*
X15656976Y-19407667D01*
X15637928Y-19398143D01*
X15599833Y-19398143D01*
X15580786Y-19407667D01*
X15666500Y-19521952D02*
X15647452Y-19531476D01*
X15599833Y-19531476D01*
X15580786Y-19521952D01*
X15571262Y-19502905D01*
X15571262Y-19483857D01*
X15580786Y-19464810D01*
X15599833Y-19455286D01*
X15647452Y-19455286D01*
X15666500Y-19445762D01*
X15733167Y-19398143D02*
X15809357Y-19398143D01*
X15761738Y-19331476D02*
X15761738Y-19502905D01*
X15771262Y-19521952D01*
X15790309Y-19531476D01*
X15809357Y-19531476D01*
X15952214Y-19521952D02*
X15933167Y-19531476D01*
X15895071Y-19531476D01*
X15876024Y-19521952D01*
X15866500Y-19502905D01*
X15866500Y-19426714D01*
X15876024Y-19407667D01*
X15895071Y-19398143D01*
X15933167Y-19398143D01*
X15952214Y-19407667D01*
X15961738Y-19426714D01*
X15961738Y-19445762D01*
X15866500Y-19464810D01*
X16133167Y-19531476D02*
X16133167Y-19331476D01*
X16133167Y-19521952D02*
X16114119Y-19531476D01*
X16076024Y-19531476D01*
X16056976Y-19521952D01*
X16047452Y-19512429D01*
X16037928Y-19493381D01*
X16037928Y-19436238D01*
X16047452Y-19417190D01*
X16056976Y-19407667D01*
X16076024Y-19398143D01*
X16114119Y-19398143D01*
X16133167Y-19407667D01*
X16209357Y-19607667D02*
X16218881Y-19598143D01*
X16237928Y-19569571D01*
X16247452Y-19550524D01*
X16256976Y-19521952D01*
X16266500Y-19474333D01*
X16266500Y-19436238D01*
X16256976Y-19388619D01*
X16247452Y-19360048D01*
X16237928Y-19341000D01*
X16218881Y-19312429D01*
X16209357Y-19302905D01*
M02*
