%TF.GenerationSoftware,KiCad,Pcbnew,(6.0.0)*%
%TF.CreationDate,2022-01-04T00:37:29-05:00*%
%TF.ProjectId,spi led breakout,73706920-6c65-4642-9062-7265616b6f75,rev?*%
%TF.SameCoordinates,Original*%
%TF.FileFunction,Legend,Bot*%
%TF.FilePolarity,Positive*%
%FSLAX46Y46*%
G04 Gerber Fmt 4.6, Leading zero omitted, Abs format (unit mm)*
G04 Created by KiCad (PCBNEW (6.0.0)) date 2022-01-04 00:37:29*
%MOMM*%
%LPD*%
G01*
G04 APERTURE LIST*
%ADD10C,3.200000*%
%ADD11R,1.600000X1.600000*%
%ADD12C,1.600000*%
%ADD13R,1.524000X2.524000*%
%ADD14O,1.524000X2.524000*%
%ADD15R,1.700000X1.700000*%
%ADD16O,1.700000X1.700000*%
%ADD17C,1.400000*%
%ADD18O,1.400000X1.400000*%
G04 APERTURE END LIST*
%LPC*%
D10*
%TO.C,H2*%
X190754000Y-122682000D03*
%TD*%
%TO.C,H1*%
X190754000Y-90678000D03*
%TD*%
D11*
%TO.C,C1*%
X118049112Y-118745000D03*
D12*
X116049112Y-118745000D03*
%TD*%
D13*
%TO.C,LED2*%
X136144000Y-104140000D03*
D14*
X138684000Y-104140000D03*
X141224000Y-104140000D03*
X143764000Y-104140000D03*
X146304000Y-104140000D03*
X146304000Y-88900000D03*
X143764000Y-88900000D03*
X141224000Y-88900000D03*
X138684000Y-88900000D03*
X136144000Y-88900000D03*
%TD*%
D10*
%TO.C,H4*%
X108204000Y-90678000D03*
%TD*%
D15*
%TO.C,J4*%
X166248000Y-98298000D03*
D16*
X163708000Y-98298000D03*
%TD*%
D13*
%TO.C,LED5*%
X136144000Y-124460000D03*
D14*
X138684000Y-124460000D03*
X141224000Y-124460000D03*
X143764000Y-124460000D03*
X146304000Y-124460000D03*
X146304000Y-109220000D03*
X143764000Y-109220000D03*
X141224000Y-109220000D03*
X138684000Y-109220000D03*
X136144000Y-109220000D03*
%TD*%
D13*
%TO.C,LED3*%
X149479000Y-104140000D03*
D14*
X152019000Y-104140000D03*
X154559000Y-104140000D03*
X157099000Y-104140000D03*
X159639000Y-104140000D03*
X159639000Y-88900000D03*
X157099000Y-88900000D03*
X154559000Y-88900000D03*
X152019000Y-88900000D03*
X149479000Y-88900000D03*
%TD*%
D13*
%TO.C,LED6*%
X149479000Y-124460000D03*
D14*
X152019000Y-124460000D03*
X154559000Y-124460000D03*
X157099000Y-124460000D03*
X159639000Y-124460000D03*
X159639000Y-109220000D03*
X157099000Y-109220000D03*
X154559000Y-109220000D03*
X152019000Y-109220000D03*
X149479000Y-109220000D03*
%TD*%
D17*
%TO.C,R1*%
X185166000Y-114935000D03*
D18*
X185166000Y-122555000D03*
%TD*%
D10*
%TO.C,H3*%
X108204000Y-122682000D03*
%TD*%
D12*
%TO.C,C2*%
X182499000Y-115082000D03*
X182499000Y-117582000D03*
%TD*%
D13*
%TO.C,LED1*%
X122809000Y-104140000D03*
D14*
X125349000Y-104140000D03*
X127889000Y-104140000D03*
X130429000Y-104140000D03*
X132969000Y-104140000D03*
X132969000Y-88900000D03*
X130429000Y-88900000D03*
X127889000Y-88900000D03*
X125349000Y-88900000D03*
X122809000Y-88900000D03*
%TD*%
D13*
%TO.C,LED4*%
X122809000Y-124460000D03*
D14*
X125349000Y-124460000D03*
X127889000Y-124460000D03*
X130429000Y-124460000D03*
X132969000Y-124460000D03*
X132969000Y-109220000D03*
X130429000Y-109220000D03*
X127889000Y-109220000D03*
X125349000Y-109220000D03*
X122809000Y-109220000D03*
%TD*%
D15*
%TO.C,J3*%
X182499000Y-88900000D03*
D16*
X179959000Y-88900000D03*
X177419000Y-88900000D03*
X174879000Y-88900000D03*
X172339000Y-88900000D03*
X169799000Y-88900000D03*
X167259000Y-88900000D03*
X164719000Y-88900000D03*
%TD*%
D15*
%TO.C,J2*%
X185039000Y-101605000D03*
D16*
X185039000Y-104145000D03*
X185039000Y-106685000D03*
X185039000Y-109225000D03*
X185039000Y-111765000D03*
%TD*%
D15*
%TO.C,J1*%
X113849000Y-111755000D03*
D16*
X113849000Y-109215000D03*
X113849000Y-106675000D03*
X113849000Y-104135000D03*
X113849000Y-101595000D03*
%TD*%
M02*
