M48
; DRILL file {KiCad (6.0.0)} date Tue Jan  4 00:37:32 2022
; FORMAT={-:-/ absolute / metric / decimal}
; #@! TF.CreationDate,2022-01-04T00:37:32-05:00
; #@! TF.GenerationSoftware,Kicad,Pcbnew,(6.0.0)
; #@! TF.FileFunction,Plated,1,2,PTH
FMAT,2
METRIC
; #@! TA.AperFunction,Plated,PTH,ViaDrill
T1C0.400
; #@! TA.AperFunction,Plated,PTH,ComponentDrill
T2C0.700
; #@! TA.AperFunction,Plated,PTH,ComponentDrill
T3C0.800
; #@! TA.AperFunction,Plated,PTH,ComponentDrill
T4C1.000
%
G90
G05
T1
X120.269Y-94.488
X121.722Y-121.991
X124.262Y-94.559
X124.262Y-120.975
X129.342Y-119.959
X131.882Y-91.44
X131.882Y-118.943
X134.874Y-95.631
X135.057Y-121.864
X137.597Y-94.488
X137.597Y-120.848
X141.097Y-112.268
X142.677Y-120.086
X145.217Y-91.44
X145.217Y-119.07
X147.574Y-95.377
X148.392Y-121.737
X149.225Y-92.456
X150.566Y-94.417
X150.932Y-121.737
X152.019Y-92.456
X152.273Y-112.268
X152.527Y-113.792
X152.527Y-116.078
X153.797Y-112.268
X154.559Y-114.808
X156.012Y-121.991
X157.099Y-92.456
X158.186Y-121.849
X158.552Y-91.44
X159.893Y-96.012
X161.927Y-104.392
X162.433Y-121.412
X162.687Y-113.538
X163.576Y-122.555
X164.338Y-117.475
X165.608Y-108.585
X169.641Y-93.63
X169.641Y-97.44
X171.831Y-93.472
X171.831Y-97.282
X172.085Y-124.46
X174.625Y-94.742
X174.625Y-97.536
X174.879Y-102.362
X176.403Y-104.902
X179.197Y-125.222
X179.324Y-122.555
X179.705Y-104.902
X179.705Y-108.712
X179.705Y-110.236
X179.959Y-111.76
T2
X185.166Y-114.935
X185.166Y-122.555
T3
X116.049Y-118.745
X118.049Y-118.745
X122.809Y-88.9
X122.809Y-104.14
X122.809Y-109.22
X122.809Y-124.46
X125.349Y-88.9
X125.349Y-104.14
X125.349Y-109.22
X125.349Y-124.46
X127.889Y-88.9
X127.889Y-104.14
X127.889Y-109.22
X127.889Y-124.46
X130.429Y-88.9
X130.429Y-104.14
X130.429Y-109.22
X130.429Y-124.46
X132.969Y-88.9
X132.969Y-104.14
X132.969Y-109.22
X132.969Y-124.46
X136.144Y-88.9
X136.144Y-104.14
X136.144Y-109.22
X136.144Y-124.46
X138.684Y-88.9
X138.684Y-104.14
X138.684Y-109.22
X138.684Y-124.46
X141.224Y-88.9
X141.224Y-104.14
X141.224Y-109.22
X141.224Y-124.46
X143.764Y-88.9
X143.764Y-104.14
X143.764Y-109.22
X143.764Y-124.46
X146.304Y-88.9
X146.304Y-104.14
X146.304Y-109.22
X146.304Y-124.46
X149.479Y-88.9
X149.479Y-104.14
X149.479Y-109.22
X149.479Y-124.46
X152.019Y-88.9
X152.019Y-104.14
X152.019Y-109.22
X152.019Y-124.46
X154.559Y-88.9
X154.559Y-104.14
X154.559Y-109.22
X154.559Y-124.46
X157.099Y-88.9
X157.099Y-104.14
X157.099Y-109.22
X157.099Y-124.46
X159.639Y-88.9
X159.639Y-104.14
X159.639Y-109.22
X159.639Y-124.46
X182.499Y-115.082
X182.499Y-117.582
T4
X113.849Y-101.595
X113.849Y-104.135
X113.849Y-106.675
X113.849Y-109.215
X113.849Y-111.755
X163.708Y-98.298
X164.719Y-88.9
X166.248Y-98.298
X167.259Y-88.9
X169.799Y-88.9
X172.339Y-88.9
X174.879Y-88.9
X177.419Y-88.9
X179.959Y-88.9
X182.499Y-88.9
X185.039Y-101.605
X185.039Y-104.145
X185.039Y-106.685
X185.039Y-109.225
X185.039Y-111.765
T0
M30
