%TF.GenerationSoftware,KiCad,Pcbnew,(6.0.0)*%
%TF.CreationDate,2022-01-04T00:37:29-05:00*%
%TF.ProjectId,spi led breakout,73706920-6c65-4642-9062-7265616b6f75,rev?*%
%TF.SameCoordinates,Original*%
%TF.FileFunction,Legend,Top*%
%TF.FilePolarity,Positive*%
%FSLAX46Y46*%
G04 Gerber Fmt 4.6, Leading zero omitted, Abs format (unit mm)*
G04 Created by KiCad (PCBNEW (6.0.0)) date 2022-01-04 00:37:29*
%MOMM*%
%LPD*%
G01*
G04 APERTURE LIST*
G04 Aperture macros list*
%AMRoundRect*
0 Rectangle with rounded corners*
0 $1 Rounding radius*
0 $2 $3 $4 $5 $6 $7 $8 $9 X,Y pos of 4 corners*
0 Add a 4 corners polygon primitive as box body*
4,1,4,$2,$3,$4,$5,$6,$7,$8,$9,$2,$3,0*
0 Add four circle primitives for the rounded corners*
1,1,$1+$1,$2,$3*
1,1,$1+$1,$4,$5*
1,1,$1+$1,$6,$7*
1,1,$1+$1,$8,$9*
0 Add four rect primitives between the rounded corners*
20,1,$1+$1,$2,$3,$4,$5,0*
20,1,$1+$1,$4,$5,$6,$7,0*
20,1,$1+$1,$6,$7,$8,$9,0*
20,1,$1+$1,$8,$9,$2,$3,0*%
G04 Aperture macros list end*
%ADD10C,0.150000*%
%ADD11C,0.120000*%
%ADD12C,3.200000*%
%ADD13R,1.600000X1.600000*%
%ADD14C,1.600000*%
%ADD15R,1.524000X2.524000*%
%ADD16O,1.524000X2.524000*%
%ADD17R,1.700000X1.700000*%
%ADD18O,1.700000X1.700000*%
%ADD19C,1.400000*%
%ADD20O,1.400000X1.400000*%
%ADD21RoundRect,0.137500X-0.862500X-0.137500X0.862500X-0.137500X0.862500X0.137500X-0.862500X0.137500X0*%
G04 APERTURE END LIST*
D10*
X181737095Y-91638380D02*
X181737095Y-90638380D01*
X181975190Y-90638380D01*
X182118047Y-90686000D01*
X182213285Y-90781238D01*
X182260904Y-90876476D01*
X182308523Y-91066952D01*
X182308523Y-91209809D01*
X182260904Y-91400285D01*
X182213285Y-91495523D01*
X182118047Y-91590761D01*
X181975190Y-91638380D01*
X181737095Y-91638380D01*
X182737095Y-91638380D02*
X182737095Y-90638380D01*
X183118047Y-90638380D01*
X183213285Y-90686000D01*
X183260904Y-90733619D01*
X183308523Y-90828857D01*
X183308523Y-90971714D01*
X183260904Y-91066952D01*
X183213285Y-91114571D01*
X183118047Y-91162190D01*
X182737095Y-91162190D01*
X180689380Y-107132380D02*
X180213190Y-107132380D01*
X180213190Y-106132380D01*
X181165571Y-107132380D02*
X181070333Y-107084761D01*
X181022714Y-107037142D01*
X180975095Y-106941904D01*
X180975095Y-106656190D01*
X181022714Y-106560952D01*
X181070333Y-106513333D01*
X181165571Y-106465714D01*
X181308428Y-106465714D01*
X181403666Y-106513333D01*
X181451285Y-106560952D01*
X181498904Y-106656190D01*
X181498904Y-106941904D01*
X181451285Y-107037142D01*
X181403666Y-107084761D01*
X181308428Y-107132380D01*
X181165571Y-107132380D01*
X182356047Y-107132380D02*
X182356047Y-106608571D01*
X182308428Y-106513333D01*
X182213190Y-106465714D01*
X182022714Y-106465714D01*
X181927476Y-106513333D01*
X182356047Y-107084761D02*
X182260809Y-107132380D01*
X182022714Y-107132380D01*
X181927476Y-107084761D01*
X181879857Y-106989523D01*
X181879857Y-106894285D01*
X181927476Y-106799047D01*
X182022714Y-106751428D01*
X182260809Y-106751428D01*
X182356047Y-106703809D01*
X183260809Y-107132380D02*
X183260809Y-106132380D01*
X183260809Y-107084761D02*
X183165571Y-107132380D01*
X182975095Y-107132380D01*
X182879857Y-107084761D01*
X182832238Y-107037142D01*
X182784619Y-106941904D01*
X182784619Y-106656190D01*
X182832238Y-106560952D01*
X182879857Y-106513333D01*
X182975095Y-106465714D01*
X183165571Y-106465714D01*
X183260809Y-106513333D01*
X182356142Y-101052380D02*
X181879952Y-101052380D01*
X181832333Y-101528571D01*
X181879952Y-101480952D01*
X181975190Y-101433333D01*
X182213285Y-101433333D01*
X182308523Y-101480952D01*
X182356142Y-101528571D01*
X182403761Y-101623809D01*
X182403761Y-101861904D01*
X182356142Y-101957142D01*
X182308523Y-102004761D01*
X182213285Y-102052380D01*
X181975190Y-102052380D01*
X181879952Y-102004761D01*
X181832333Y-101957142D01*
X182737095Y-101385714D02*
X182975190Y-102052380D01*
X183213285Y-101385714D01*
X116355857Y-109577142D02*
X116308238Y-109624761D01*
X116165380Y-109672380D01*
X116070142Y-109672380D01*
X115927285Y-109624761D01*
X115832047Y-109529523D01*
X115784428Y-109434285D01*
X115736809Y-109243809D01*
X115736809Y-109100952D01*
X115784428Y-108910476D01*
X115832047Y-108815238D01*
X115927285Y-108720000D01*
X116070142Y-108672380D01*
X116165380Y-108672380D01*
X116308238Y-108720000D01*
X116355857Y-108767619D01*
X116927285Y-109672380D02*
X116832047Y-109624761D01*
X116784428Y-109529523D01*
X116784428Y-108672380D01*
X117308238Y-109672380D02*
X117308238Y-108672380D01*
X117403476Y-109291428D02*
X117689190Y-109672380D01*
X117689190Y-109005714D02*
X117308238Y-109386666D01*
X180220904Y-90686000D02*
X180125666Y-90638380D01*
X179982809Y-90638380D01*
X179839952Y-90686000D01*
X179744714Y-90781238D01*
X179697095Y-90876476D01*
X179649476Y-91066952D01*
X179649476Y-91209809D01*
X179697095Y-91400285D01*
X179744714Y-91495523D01*
X179839952Y-91590761D01*
X179982809Y-91638380D01*
X180078047Y-91638380D01*
X180220904Y-91590761D01*
X180268523Y-91543142D01*
X180268523Y-91209809D01*
X180078047Y-91209809D01*
X170108523Y-91543142D02*
X170060904Y-91590761D01*
X169918047Y-91638380D01*
X169822809Y-91638380D01*
X169679952Y-91590761D01*
X169584714Y-91495523D01*
X169537095Y-91400285D01*
X169489476Y-91209809D01*
X169489476Y-91066952D01*
X169537095Y-90876476D01*
X169584714Y-90781238D01*
X169679952Y-90686000D01*
X169822809Y-90638380D01*
X169918047Y-90638380D01*
X170060904Y-90686000D01*
X170108523Y-90733619D01*
X167330428Y-91114571D02*
X167473285Y-91162190D01*
X167520904Y-91209809D01*
X167568523Y-91305047D01*
X167568523Y-91447904D01*
X167520904Y-91543142D01*
X167473285Y-91590761D01*
X167378047Y-91638380D01*
X166997095Y-91638380D01*
X166997095Y-90638380D01*
X167330428Y-90638380D01*
X167425666Y-90686000D01*
X167473285Y-90733619D01*
X167520904Y-90828857D01*
X167520904Y-90924095D01*
X167473285Y-91019333D01*
X167425666Y-91066952D01*
X167330428Y-91114571D01*
X166997095Y-91114571D01*
X115760619Y-104338380D02*
X115760619Y-103338380D01*
X115998714Y-103338380D01*
X116141571Y-103386000D01*
X116236809Y-103481238D01*
X116284428Y-103576476D01*
X116332047Y-103766952D01*
X116332047Y-103909809D01*
X116284428Y-104100285D01*
X116236809Y-104195523D01*
X116141571Y-104290761D01*
X115998714Y-104338380D01*
X115760619Y-104338380D01*
X116760619Y-104338380D02*
X116760619Y-103671714D01*
X116760619Y-103338380D02*
X116713000Y-103386000D01*
X116760619Y-103433619D01*
X116808238Y-103386000D01*
X116760619Y-103338380D01*
X116760619Y-103433619D01*
X117236809Y-103671714D02*
X117236809Y-104338380D01*
X117236809Y-103766952D02*
X117284428Y-103719333D01*
X117379666Y-103671714D01*
X117522523Y-103671714D01*
X117617761Y-103719333D01*
X117665380Y-103814571D01*
X117665380Y-104338380D01*
X169196857Y-96464380D02*
X169196857Y-95940571D01*
X169149238Y-95845333D01*
X169054000Y-95797714D01*
X168863523Y-95797714D01*
X168768285Y-95845333D01*
X169196857Y-96416761D02*
X169101619Y-96464380D01*
X168863523Y-96464380D01*
X168768285Y-96416761D01*
X168720666Y-96321523D01*
X168720666Y-96226285D01*
X168768285Y-96131047D01*
X168863523Y-96083428D01*
X169101619Y-96083428D01*
X169196857Y-96035809D01*
X169673047Y-96464380D02*
X169673047Y-95464380D01*
X169673047Y-95845333D02*
X169768285Y-95797714D01*
X169958761Y-95797714D01*
X170054000Y-95845333D01*
X170101619Y-95892952D01*
X170149238Y-95988190D01*
X170149238Y-96273904D01*
X170101619Y-96369142D01*
X170054000Y-96416761D01*
X169958761Y-96464380D01*
X169768285Y-96464380D01*
X169673047Y-96416761D01*
X170482571Y-95797714D02*
X171006380Y-95797714D01*
X170482571Y-96464380D01*
X171006380Y-96464380D01*
X171387333Y-96464380D02*
X171387333Y-95797714D01*
X171387333Y-95892952D02*
X171434952Y-95845333D01*
X171530190Y-95797714D01*
X171673047Y-95797714D01*
X171768285Y-95845333D01*
X171815904Y-95940571D01*
X171815904Y-96464380D01*
X171815904Y-95940571D02*
X171863523Y-95845333D01*
X171958761Y-95797714D01*
X172101619Y-95797714D01*
X172196857Y-95845333D01*
X172244476Y-95940571D01*
X172244476Y-96464380D01*
X173149238Y-96464380D02*
X173149238Y-95940571D01*
X173101619Y-95845333D01*
X173006380Y-95797714D01*
X172815904Y-95797714D01*
X172720666Y-95845333D01*
X173149238Y-96416761D02*
X173054000Y-96464380D01*
X172815904Y-96464380D01*
X172720666Y-96416761D01*
X172673047Y-96321523D01*
X172673047Y-96226285D01*
X172720666Y-96131047D01*
X172815904Y-96083428D01*
X173054000Y-96083428D01*
X173149238Y-96035809D01*
X173625428Y-95797714D02*
X173625428Y-96464380D01*
X173625428Y-95892952D02*
X173673047Y-95845333D01*
X173768285Y-95797714D01*
X173911142Y-95797714D01*
X174006380Y-95845333D01*
X174054000Y-95940571D01*
X174054000Y-96464380D01*
X174482571Y-95559619D02*
X174530190Y-95512000D01*
X174625428Y-95464380D01*
X174863523Y-95464380D01*
X174958761Y-95512000D01*
X175006380Y-95559619D01*
X175054000Y-95654857D01*
X175054000Y-95750095D01*
X175006380Y-95892952D01*
X174434952Y-96464380D01*
X175054000Y-96464380D01*
X175482571Y-96464380D02*
X175482571Y-95464380D01*
X175577809Y-96083428D02*
X175863523Y-96464380D01*
X175863523Y-95797714D02*
X175482571Y-96178666D01*
X176292095Y-96369142D02*
X176339714Y-96416761D01*
X176292095Y-96464380D01*
X176244476Y-96416761D01*
X176292095Y-96369142D01*
X176292095Y-96464380D01*
X176673047Y-95797714D02*
X176863523Y-96464380D01*
X177054000Y-95988190D01*
X177244476Y-96464380D01*
X177434952Y-95797714D01*
X177958761Y-96464380D02*
X177863523Y-96416761D01*
X177815904Y-96369142D01*
X177768285Y-96273904D01*
X177768285Y-95988190D01*
X177815904Y-95892952D01*
X177863523Y-95845333D01*
X177958761Y-95797714D01*
X178101619Y-95797714D01*
X178196857Y-95845333D01*
X178244476Y-95892952D01*
X178292095Y-95988190D01*
X178292095Y-96273904D01*
X178244476Y-96369142D01*
X178196857Y-96416761D01*
X178101619Y-96464380D01*
X177958761Y-96464380D01*
X178720666Y-96464380D02*
X178720666Y-95797714D01*
X178720666Y-95988190D02*
X178768285Y-95892952D01*
X178815904Y-95845333D01*
X178911142Y-95797714D01*
X179006380Y-95797714D01*
X179768285Y-96464380D02*
X179768285Y-95464380D01*
X179768285Y-96416761D02*
X179673047Y-96464380D01*
X179482571Y-96464380D01*
X179387333Y-96416761D01*
X179339714Y-96369142D01*
X179292095Y-96273904D01*
X179292095Y-95988190D01*
X179339714Y-95892952D01*
X179387333Y-95845333D01*
X179482571Y-95797714D01*
X179673047Y-95797714D01*
X179768285Y-95845333D01*
X180244476Y-95797714D02*
X180244476Y-96797714D01*
X180244476Y-95845333D02*
X180339714Y-95797714D01*
X180530190Y-95797714D01*
X180625428Y-95845333D01*
X180673047Y-95892952D01*
X180720666Y-95988190D01*
X180720666Y-96273904D01*
X180673047Y-96369142D01*
X180625428Y-96416761D01*
X180530190Y-96464380D01*
X180339714Y-96464380D01*
X180244476Y-96416761D01*
X181149238Y-96464380D02*
X181149238Y-95797714D01*
X181149238Y-95988190D02*
X181196857Y-95892952D01*
X181244476Y-95845333D01*
X181339714Y-95797714D01*
X181434952Y-95797714D01*
X182149238Y-96416761D02*
X182054000Y-96464380D01*
X181863523Y-96464380D01*
X181768285Y-96416761D01*
X181720666Y-96321523D01*
X181720666Y-95940571D01*
X181768285Y-95845333D01*
X181863523Y-95797714D01*
X182054000Y-95797714D01*
X182149238Y-95845333D01*
X182196857Y-95940571D01*
X182196857Y-96035809D01*
X181720666Y-96131047D01*
X182577809Y-96416761D02*
X182673047Y-96464380D01*
X182863523Y-96464380D01*
X182958761Y-96416761D01*
X183006380Y-96321523D01*
X183006380Y-96273904D01*
X182958761Y-96178666D01*
X182863523Y-96131047D01*
X182720666Y-96131047D01*
X182625428Y-96083428D01*
X182577809Y-95988190D01*
X182577809Y-95940571D01*
X182625428Y-95845333D01*
X182720666Y-95797714D01*
X182863523Y-95797714D01*
X182958761Y-95845333D01*
X183387333Y-96416761D02*
X183482571Y-96464380D01*
X183673047Y-96464380D01*
X183768285Y-96416761D01*
X183815904Y-96321523D01*
X183815904Y-96273904D01*
X183768285Y-96178666D01*
X183673047Y-96131047D01*
X183530190Y-96131047D01*
X183434952Y-96083428D01*
X183387333Y-95988190D01*
X183387333Y-95940571D01*
X183434952Y-95845333D01*
X183530190Y-95797714D01*
X183673047Y-95797714D01*
X183768285Y-95845333D01*
X184244476Y-96369142D02*
X184292095Y-96416761D01*
X184244476Y-96464380D01*
X184196857Y-96416761D01*
X184244476Y-96369142D01*
X184244476Y-96464380D01*
X185149238Y-96416761D02*
X185054000Y-96464380D01*
X184863523Y-96464380D01*
X184768285Y-96416761D01*
X184720666Y-96369142D01*
X184673047Y-96273904D01*
X184673047Y-95988190D01*
X184720666Y-95892952D01*
X184768285Y-95845333D01*
X184863523Y-95797714D01*
X185054000Y-95797714D01*
X185149238Y-95845333D01*
X185720666Y-96464380D02*
X185625428Y-96416761D01*
X185577809Y-96369142D01*
X185530190Y-96273904D01*
X185530190Y-95988190D01*
X185577809Y-95892952D01*
X185625428Y-95845333D01*
X185720666Y-95797714D01*
X185863523Y-95797714D01*
X185958761Y-95845333D01*
X186006380Y-95892952D01*
X186054000Y-95988190D01*
X186054000Y-96273904D01*
X186006380Y-96369142D01*
X185958761Y-96416761D01*
X185863523Y-96464380D01*
X185720666Y-96464380D01*
X186482571Y-96464380D02*
X186482571Y-95797714D01*
X186482571Y-95892952D02*
X186530190Y-95845333D01*
X186625428Y-95797714D01*
X186768285Y-95797714D01*
X186863523Y-95845333D01*
X186911142Y-95940571D01*
X186911142Y-96464380D01*
X186911142Y-95940571D02*
X186958761Y-95845333D01*
X187054000Y-95797714D01*
X187196857Y-95797714D01*
X187292095Y-95845333D01*
X187339714Y-95940571D01*
X187339714Y-96464380D01*
X164480904Y-91352666D02*
X164957095Y-91352666D01*
X164385666Y-91638380D02*
X164719000Y-90638380D01*
X165052333Y-91638380D01*
X180030619Y-104846380D02*
X180030619Y-103846380D01*
X180268714Y-103846380D01*
X180411571Y-103894000D01*
X180506809Y-103989238D01*
X180554428Y-104084476D01*
X180602047Y-104274952D01*
X180602047Y-104417809D01*
X180554428Y-104608285D01*
X180506809Y-104703523D01*
X180411571Y-104798761D01*
X180268714Y-104846380D01*
X180030619Y-104846380D01*
X181173476Y-104846380D02*
X181078238Y-104798761D01*
X181030619Y-104751142D01*
X180983000Y-104655904D01*
X180983000Y-104370190D01*
X181030619Y-104274952D01*
X181078238Y-104227333D01*
X181173476Y-104179714D01*
X181316333Y-104179714D01*
X181411571Y-104227333D01*
X181459190Y-104274952D01*
X181506809Y-104370190D01*
X181506809Y-104655904D01*
X181459190Y-104751142D01*
X181411571Y-104798761D01*
X181316333Y-104846380D01*
X181173476Y-104846380D01*
X182363952Y-104179714D02*
X182363952Y-104846380D01*
X181935380Y-104179714D02*
X181935380Y-104703523D01*
X181983000Y-104798761D01*
X182078238Y-104846380D01*
X182221095Y-104846380D01*
X182316333Y-104798761D01*
X182363952Y-104751142D01*
X182697285Y-104179714D02*
X183078238Y-104179714D01*
X182840142Y-103846380D02*
X182840142Y-104703523D01*
X182887761Y-104798761D01*
X182983000Y-104846380D01*
X183078238Y-104846380D01*
X116324142Y-111260000D02*
X116228904Y-111212380D01*
X116086047Y-111212380D01*
X115943190Y-111260000D01*
X115847952Y-111355238D01*
X115800333Y-111450476D01*
X115752714Y-111640952D01*
X115752714Y-111783809D01*
X115800333Y-111974285D01*
X115847952Y-112069523D01*
X115943190Y-112164761D01*
X116086047Y-112212380D01*
X116181285Y-112212380D01*
X116324142Y-112164761D01*
X116371761Y-112117142D01*
X116371761Y-111783809D01*
X116181285Y-111783809D01*
X116800333Y-111545714D02*
X116800333Y-112212380D01*
X116800333Y-111640952D02*
X116847952Y-111593333D01*
X116943190Y-111545714D01*
X117086047Y-111545714D01*
X117181285Y-111593333D01*
X117228904Y-111688571D01*
X117228904Y-112212380D01*
X118133666Y-112212380D02*
X118133666Y-111212380D01*
X118133666Y-112164761D02*
X118038428Y-112212380D01*
X117847952Y-112212380D01*
X117752714Y-112164761D01*
X117705095Y-112117142D01*
X117657476Y-112021904D01*
X117657476Y-111736190D01*
X117705095Y-111640952D01*
X117752714Y-111593333D01*
X117847952Y-111545714D01*
X118038428Y-111545714D01*
X118133666Y-111593333D01*
X174664714Y-91114571D02*
X174998047Y-91114571D01*
X175140904Y-91638380D02*
X174664714Y-91638380D01*
X174664714Y-90638380D01*
X175140904Y-90638380D01*
X162710904Y-101290380D02*
X162710904Y-100290380D01*
X162949000Y-100290380D01*
X163091857Y-100338000D01*
X163187095Y-100433238D01*
X163234714Y-100528476D01*
X163282333Y-100718952D01*
X163282333Y-100861809D01*
X163234714Y-101052285D01*
X163187095Y-101147523D01*
X163091857Y-101242761D01*
X162949000Y-101290380D01*
X162710904Y-101290380D01*
X163615666Y-100290380D02*
X164282333Y-100290380D01*
X163853761Y-101290380D01*
X172077095Y-91638380D02*
X172077095Y-90638380D01*
X172315190Y-90638380D01*
X172458047Y-90686000D01*
X172553285Y-90781238D01*
X172600904Y-90876476D01*
X172648523Y-91066952D01*
X172648523Y-91209809D01*
X172600904Y-91400285D01*
X172553285Y-91495523D01*
X172458047Y-91590761D01*
X172315190Y-91638380D01*
X172077095Y-91638380D01*
X113093857Y-91298380D02*
X113093857Y-90298380D01*
X113331952Y-90298380D01*
X113474809Y-90346000D01*
X113570047Y-90441238D01*
X113617666Y-90536476D01*
X113665285Y-90726952D01*
X113665285Y-90869809D01*
X113617666Y-91060285D01*
X113570047Y-91155523D01*
X113474809Y-91250761D01*
X113331952Y-91298380D01*
X113093857Y-91298380D01*
X114093857Y-91298380D02*
X114093857Y-90631714D01*
X114093857Y-90298380D02*
X114046238Y-90346000D01*
X114093857Y-90393619D01*
X114141476Y-90346000D01*
X114093857Y-90298380D01*
X114093857Y-90393619D01*
X114522428Y-91250761D02*
X114617666Y-91298380D01*
X114808142Y-91298380D01*
X114903380Y-91250761D01*
X114951000Y-91155523D01*
X114951000Y-91107904D01*
X114903380Y-91012666D01*
X114808142Y-90965047D01*
X114665285Y-90965047D01*
X114570047Y-90917428D01*
X114522428Y-90822190D01*
X114522428Y-90774571D01*
X114570047Y-90679333D01*
X114665285Y-90631714D01*
X114808142Y-90631714D01*
X114903380Y-90679333D01*
X115379571Y-90631714D02*
X115379571Y-91631714D01*
X115379571Y-90679333D02*
X115474809Y-90631714D01*
X115665285Y-90631714D01*
X115760523Y-90679333D01*
X115808142Y-90726952D01*
X115855761Y-90822190D01*
X115855761Y-91107904D01*
X115808142Y-91203142D01*
X115760523Y-91250761D01*
X115665285Y-91298380D01*
X115474809Y-91298380D01*
X115379571Y-91250761D01*
X116427190Y-91298380D02*
X116331952Y-91250761D01*
X116284333Y-91155523D01*
X116284333Y-90298380D01*
X117236714Y-91298380D02*
X117236714Y-90774571D01*
X117189095Y-90679333D01*
X117093857Y-90631714D01*
X116903380Y-90631714D01*
X116808142Y-90679333D01*
X117236714Y-91250761D02*
X117141476Y-91298380D01*
X116903380Y-91298380D01*
X116808142Y-91250761D01*
X116760523Y-91155523D01*
X116760523Y-91060285D01*
X116808142Y-90965047D01*
X116903380Y-90917428D01*
X117141476Y-90917428D01*
X117236714Y-90869809D01*
X117617666Y-90631714D02*
X117855761Y-91298380D01*
X118093857Y-90631714D02*
X117855761Y-91298380D01*
X117760523Y-91536476D01*
X117712904Y-91584095D01*
X117617666Y-91631714D01*
X118427190Y-91250761D02*
X118522428Y-91298380D01*
X118712904Y-91298380D01*
X118808142Y-91250761D01*
X118855761Y-91155523D01*
X118855761Y-91107904D01*
X118808142Y-91012666D01*
X118712904Y-90965047D01*
X118570047Y-90965047D01*
X118474809Y-90917428D01*
X118427190Y-90822190D01*
X118427190Y-90774571D01*
X118474809Y-90679333D01*
X118570047Y-90631714D01*
X118712904Y-90631714D01*
X118808142Y-90679333D01*
X114046238Y-92908380D02*
X113474809Y-92908380D01*
X113760523Y-92908380D02*
X113760523Y-91908380D01*
X113665285Y-92051238D01*
X113570047Y-92146476D01*
X113474809Y-92194095D01*
X114474809Y-92527428D02*
X115236714Y-92527428D01*
X115665285Y-92003619D02*
X115712904Y-91956000D01*
X115808142Y-91908380D01*
X116046238Y-91908380D01*
X116141476Y-91956000D01*
X116189095Y-92003619D01*
X116236714Y-92098857D01*
X116236714Y-92194095D01*
X116189095Y-92336952D01*
X115617666Y-92908380D01*
X116236714Y-92908380D01*
X116665285Y-92527428D02*
X117427190Y-92527428D01*
X117808142Y-91908380D02*
X118427190Y-91908380D01*
X118093857Y-92289333D01*
X118236714Y-92289333D01*
X118331952Y-92336952D01*
X118379571Y-92384571D01*
X118427190Y-92479809D01*
X118427190Y-92717904D01*
X118379571Y-92813142D01*
X118331952Y-92860761D01*
X118236714Y-92908380D01*
X117951000Y-92908380D01*
X117855761Y-92860761D01*
X117808142Y-92813142D01*
X113951000Y-93851714D02*
X113951000Y-94518380D01*
X113712904Y-93470761D02*
X113474809Y-94185047D01*
X114093857Y-94185047D01*
X114474809Y-94137428D02*
X115236714Y-94137428D01*
X116189095Y-93518380D02*
X115712904Y-93518380D01*
X115665285Y-93994571D01*
X115712904Y-93946952D01*
X115808142Y-93899333D01*
X116046238Y-93899333D01*
X116141476Y-93946952D01*
X116189095Y-93994571D01*
X116236714Y-94089809D01*
X116236714Y-94327904D01*
X116189095Y-94423142D01*
X116141476Y-94470761D01*
X116046238Y-94518380D01*
X115808142Y-94518380D01*
X115712904Y-94470761D01*
X115665285Y-94423142D01*
X116665285Y-94137428D02*
X117427190Y-94137428D01*
X118331952Y-93518380D02*
X118141476Y-93518380D01*
X118046238Y-93566000D01*
X117998619Y-93613619D01*
X117903380Y-93756476D01*
X117855761Y-93946952D01*
X117855761Y-94327904D01*
X117903380Y-94423142D01*
X117951000Y-94470761D01*
X118046238Y-94518380D01*
X118236714Y-94518380D01*
X118331952Y-94470761D01*
X118379571Y-94423142D01*
X118427190Y-94327904D01*
X118427190Y-94089809D01*
X118379571Y-93994571D01*
X118331952Y-93946952D01*
X118236714Y-93899333D01*
X118046238Y-93899333D01*
X117951000Y-93946952D01*
X117903380Y-93994571D01*
X117855761Y-94089809D01*
X116173380Y-107132380D02*
X115697190Y-107132380D01*
X115697190Y-106132380D01*
X116649571Y-107132380D02*
X116554333Y-107084761D01*
X116506714Y-107037142D01*
X116459095Y-106941904D01*
X116459095Y-106656190D01*
X116506714Y-106560952D01*
X116554333Y-106513333D01*
X116649571Y-106465714D01*
X116792428Y-106465714D01*
X116887666Y-106513333D01*
X116935285Y-106560952D01*
X116982904Y-106656190D01*
X116982904Y-106941904D01*
X116935285Y-107037142D01*
X116887666Y-107084761D01*
X116792428Y-107132380D01*
X116649571Y-107132380D01*
X117840047Y-107132380D02*
X117840047Y-106608571D01*
X117792428Y-106513333D01*
X117697190Y-106465714D01*
X117506714Y-106465714D01*
X117411476Y-106513333D01*
X117840047Y-107084761D02*
X117744809Y-107132380D01*
X117506714Y-107132380D01*
X117411476Y-107084761D01*
X117363857Y-106989523D01*
X117363857Y-106894285D01*
X117411476Y-106799047D01*
X117506714Y-106751428D01*
X117744809Y-106751428D01*
X117840047Y-106703809D01*
X118744809Y-107132380D02*
X118744809Y-106132380D01*
X118744809Y-107084761D02*
X118649571Y-107132380D01*
X118459095Y-107132380D01*
X118363857Y-107084761D01*
X118316238Y-107037142D01*
X118268619Y-106941904D01*
X118268619Y-106656190D01*
X118316238Y-106560952D01*
X118363857Y-106513333D01*
X118459095Y-106465714D01*
X118649571Y-106465714D01*
X118744809Y-106513333D01*
X177561857Y-91114571D02*
X177228523Y-91114571D01*
X177228523Y-91638380D02*
X177228523Y-90638380D01*
X177704714Y-90638380D01*
X116316142Y-101052380D02*
X115839952Y-101052380D01*
X115792333Y-101528571D01*
X115839952Y-101480952D01*
X115935190Y-101433333D01*
X116173285Y-101433333D01*
X116268523Y-101480952D01*
X116316142Y-101528571D01*
X116363761Y-101623809D01*
X116363761Y-101861904D01*
X116316142Y-101957142D01*
X116268523Y-102004761D01*
X116173285Y-102052380D01*
X115935190Y-102052380D01*
X115839952Y-102004761D01*
X115792333Y-101957142D01*
X116697095Y-101385714D02*
X116935190Y-102052380D01*
X117173285Y-101385714D01*
X181633857Y-109831142D02*
X181586238Y-109878761D01*
X181443380Y-109926380D01*
X181348142Y-109926380D01*
X181205285Y-109878761D01*
X181110047Y-109783523D01*
X181062428Y-109688285D01*
X181014809Y-109497809D01*
X181014809Y-109354952D01*
X181062428Y-109164476D01*
X181110047Y-109069238D01*
X181205285Y-108974000D01*
X181348142Y-108926380D01*
X181443380Y-108926380D01*
X181586238Y-108974000D01*
X181633857Y-109021619D01*
X182205285Y-109926380D02*
X182110047Y-109878761D01*
X182062428Y-109783523D01*
X182062428Y-108926380D01*
X182586238Y-109926380D02*
X182586238Y-108926380D01*
X182681476Y-109545428D02*
X182967190Y-109926380D01*
X182967190Y-109259714D02*
X182586238Y-109640666D01*
X165504904Y-101290380D02*
X165504904Y-100290380D01*
X165743000Y-100290380D01*
X165885857Y-100338000D01*
X165981095Y-100433238D01*
X166028714Y-100528476D01*
X166076333Y-100718952D01*
X166076333Y-100861809D01*
X166028714Y-101052285D01*
X165981095Y-101147523D01*
X165885857Y-101242761D01*
X165743000Y-101290380D01*
X165504904Y-101290380D01*
X166647761Y-100718952D02*
X166552523Y-100671333D01*
X166504904Y-100623714D01*
X166457285Y-100528476D01*
X166457285Y-100480857D01*
X166504904Y-100385619D01*
X166552523Y-100338000D01*
X166647761Y-100290380D01*
X166838238Y-100290380D01*
X166933476Y-100338000D01*
X166981095Y-100385619D01*
X167028714Y-100480857D01*
X167028714Y-100528476D01*
X166981095Y-100623714D01*
X166933476Y-100671333D01*
X166838238Y-100718952D01*
X166647761Y-100718952D01*
X166552523Y-100766571D01*
X166504904Y-100814190D01*
X166457285Y-100909428D01*
X166457285Y-101099904D01*
X166504904Y-101195142D01*
X166552523Y-101242761D01*
X166647761Y-101290380D01*
X166838238Y-101290380D01*
X166933476Y-101242761D01*
X166981095Y-101195142D01*
X167028714Y-101099904D01*
X167028714Y-100909428D01*
X166981095Y-100814190D01*
X166933476Y-100766571D01*
X166838238Y-100718952D01*
X181602142Y-111260000D02*
X181506904Y-111212380D01*
X181364047Y-111212380D01*
X181221190Y-111260000D01*
X181125952Y-111355238D01*
X181078333Y-111450476D01*
X181030714Y-111640952D01*
X181030714Y-111783809D01*
X181078333Y-111974285D01*
X181125952Y-112069523D01*
X181221190Y-112164761D01*
X181364047Y-112212380D01*
X181459285Y-112212380D01*
X181602142Y-112164761D01*
X181649761Y-112117142D01*
X181649761Y-111783809D01*
X181459285Y-111783809D01*
X182078333Y-111545714D02*
X182078333Y-112212380D01*
X182078333Y-111640952D02*
X182125952Y-111593333D01*
X182221190Y-111545714D01*
X182364047Y-111545714D01*
X182459285Y-111593333D01*
X182506904Y-111688571D01*
X182506904Y-112212380D01*
X183411666Y-112212380D02*
X183411666Y-111212380D01*
X183411666Y-112164761D02*
X183316428Y-112212380D01*
X183125952Y-112212380D01*
X183030714Y-112164761D01*
X182983095Y-112117142D01*
X182935476Y-112021904D01*
X182935476Y-111736190D01*
X182983095Y-111640952D01*
X183030714Y-111593333D01*
X183125952Y-111545714D01*
X183316428Y-111545714D01*
X183411666Y-111593333D01*
X165108761Y-102830380D02*
X164918285Y-102830380D01*
X164823047Y-102878000D01*
X164775428Y-102925619D01*
X164680190Y-103068476D01*
X164632571Y-103258952D01*
X164632571Y-103639904D01*
X164680190Y-103735142D01*
X164727809Y-103782761D01*
X164823047Y-103830380D01*
X165013523Y-103830380D01*
X165108761Y-103782761D01*
X165156380Y-103735142D01*
X165204000Y-103639904D01*
X165204000Y-103401809D01*
X165156380Y-103306571D01*
X165108761Y-103258952D01*
X165013523Y-103211333D01*
X164823047Y-103211333D01*
X164727809Y-103258952D01*
X164680190Y-103306571D01*
X164632571Y-103401809D01*
X165537333Y-103830380D02*
X166061142Y-103163714D01*
X165537333Y-103163714D02*
X166061142Y-103830380D01*
X167108761Y-102830380D02*
X167775428Y-102830380D01*
X167346857Y-103830380D01*
X168156380Y-103449428D02*
X168918285Y-103449428D01*
X169346857Y-103782761D02*
X169442095Y-103830380D01*
X169632571Y-103830380D01*
X169727809Y-103782761D01*
X169775428Y-103687523D01*
X169775428Y-103639904D01*
X169727809Y-103544666D01*
X169632571Y-103497047D01*
X169489714Y-103497047D01*
X169394476Y-103449428D01*
X169346857Y-103354190D01*
X169346857Y-103306571D01*
X169394476Y-103211333D01*
X169489714Y-103163714D01*
X169632571Y-103163714D01*
X169727809Y-103211333D01*
X170584952Y-103782761D02*
X170489714Y-103830380D01*
X170299238Y-103830380D01*
X170204000Y-103782761D01*
X170156380Y-103687523D01*
X170156380Y-103306571D01*
X170204000Y-103211333D01*
X170299238Y-103163714D01*
X170489714Y-103163714D01*
X170584952Y-103211333D01*
X170632571Y-103306571D01*
X170632571Y-103401809D01*
X170156380Y-103497047D01*
X171489714Y-103163714D02*
X171489714Y-103973238D01*
X171442095Y-104068476D01*
X171394476Y-104116095D01*
X171299238Y-104163714D01*
X171156380Y-104163714D01*
X171061142Y-104116095D01*
X171489714Y-103782761D02*
X171394476Y-103830380D01*
X171204000Y-103830380D01*
X171108761Y-103782761D01*
X171061142Y-103735142D01*
X171013523Y-103639904D01*
X171013523Y-103354190D01*
X171061142Y-103258952D01*
X171108761Y-103211333D01*
X171204000Y-103163714D01*
X171394476Y-103163714D01*
X171489714Y-103211333D01*
X172727809Y-103830380D02*
X172727809Y-102830380D01*
X172727809Y-103211333D02*
X172823047Y-103163714D01*
X173013523Y-103163714D01*
X173108761Y-103211333D01*
X173156380Y-103258952D01*
X173204000Y-103354190D01*
X173204000Y-103639904D01*
X173156380Y-103735142D01*
X173108761Y-103782761D01*
X173013523Y-103830380D01*
X172823047Y-103830380D01*
X172727809Y-103782761D01*
X173632571Y-103830380D02*
X173632571Y-103163714D01*
X173632571Y-103354190D02*
X173680190Y-103258952D01*
X173727809Y-103211333D01*
X173823047Y-103163714D01*
X173918285Y-103163714D01*
X174632571Y-103782761D02*
X174537333Y-103830380D01*
X174346857Y-103830380D01*
X174251619Y-103782761D01*
X174204000Y-103687523D01*
X174204000Y-103306571D01*
X174251619Y-103211333D01*
X174346857Y-103163714D01*
X174537333Y-103163714D01*
X174632571Y-103211333D01*
X174680190Y-103306571D01*
X174680190Y-103401809D01*
X174204000Y-103497047D01*
X175537333Y-103830380D02*
X175537333Y-103306571D01*
X175489714Y-103211333D01*
X175394476Y-103163714D01*
X175204000Y-103163714D01*
X175108761Y-103211333D01*
X175537333Y-103782761D02*
X175442095Y-103830380D01*
X175204000Y-103830380D01*
X175108761Y-103782761D01*
X175061142Y-103687523D01*
X175061142Y-103592285D01*
X175108761Y-103497047D01*
X175204000Y-103449428D01*
X175442095Y-103449428D01*
X175537333Y-103401809D01*
X176013523Y-103830380D02*
X176013523Y-102830380D01*
X176108761Y-103449428D02*
X176394476Y-103830380D01*
X176394476Y-103163714D02*
X176013523Y-103544666D01*
X176965904Y-103830380D02*
X176870666Y-103782761D01*
X176823047Y-103735142D01*
X176775428Y-103639904D01*
X176775428Y-103354190D01*
X176823047Y-103258952D01*
X176870666Y-103211333D01*
X176965904Y-103163714D01*
X177108761Y-103163714D01*
X177204000Y-103211333D01*
X177251619Y-103258952D01*
X177299238Y-103354190D01*
X177299238Y-103639904D01*
X177251619Y-103735142D01*
X177204000Y-103782761D01*
X177108761Y-103830380D01*
X176965904Y-103830380D01*
X178156380Y-103163714D02*
X178156380Y-103830380D01*
X177727809Y-103163714D02*
X177727809Y-103687523D01*
X177775428Y-103782761D01*
X177870666Y-103830380D01*
X178013523Y-103830380D01*
X178108761Y-103782761D01*
X178156380Y-103735142D01*
X178489714Y-103163714D02*
X178870666Y-103163714D01*
X178632571Y-102830380D02*
X178632571Y-103687523D01*
X178680190Y-103782761D01*
X178775428Y-103830380D01*
X178870666Y-103830380D01*
%TO.C,C1*%
X116882445Y-122852142D02*
X116834826Y-122899761D01*
X116691969Y-122947380D01*
X116596731Y-122947380D01*
X116453873Y-122899761D01*
X116358635Y-122804523D01*
X116311016Y-122709285D01*
X116263397Y-122518809D01*
X116263397Y-122375952D01*
X116311016Y-122185476D01*
X116358635Y-122090238D01*
X116453873Y-121995000D01*
X116596731Y-121947380D01*
X116691969Y-121947380D01*
X116834826Y-121995000D01*
X116882445Y-122042619D01*
X117834826Y-122947380D02*
X117263397Y-122947380D01*
X117549112Y-122947380D02*
X117549112Y-121947380D01*
X117453873Y-122090238D01*
X117358635Y-122185476D01*
X117263397Y-122233095D01*
X115977683Y-115447380D02*
X115406254Y-115447380D01*
X115691969Y-115447380D02*
X115691969Y-114447380D01*
X115596731Y-114590238D01*
X115501492Y-114685476D01*
X115406254Y-114733095D01*
X116596731Y-114447380D02*
X116691969Y-114447380D01*
X116787207Y-114495000D01*
X116834826Y-114542619D01*
X116882445Y-114637857D01*
X116930064Y-114828333D01*
X116930064Y-115066428D01*
X116882445Y-115256904D01*
X116834826Y-115352142D01*
X116787207Y-115399761D01*
X116691969Y-115447380D01*
X116596731Y-115447380D01*
X116501492Y-115399761D01*
X116453873Y-115352142D01*
X116406254Y-115256904D01*
X116358635Y-115066428D01*
X116358635Y-114828333D01*
X116406254Y-114637857D01*
X116453873Y-114542619D01*
X116501492Y-114495000D01*
X116596731Y-114447380D01*
X117787207Y-114780714D02*
X117787207Y-115447380D01*
X117358635Y-114780714D02*
X117358635Y-115304523D01*
X117406254Y-115399761D01*
X117501492Y-115447380D01*
X117644350Y-115447380D01*
X117739588Y-115399761D01*
X117787207Y-115352142D01*
X118596731Y-114923571D02*
X118263397Y-114923571D01*
X118263397Y-115447380D02*
X118263397Y-114447380D01*
X118739588Y-114447380D01*
%TO.C,LED2*%
X136723380Y-93829047D02*
X136723380Y-94305238D01*
X135723380Y-94305238D01*
X136199571Y-93495714D02*
X136199571Y-93162380D01*
X136723380Y-93019523D02*
X136723380Y-93495714D01*
X135723380Y-93495714D01*
X135723380Y-93019523D01*
X136723380Y-92590952D02*
X135723380Y-92590952D01*
X135723380Y-92352857D01*
X135771000Y-92210000D01*
X135866238Y-92114761D01*
X135961476Y-92067142D01*
X136151952Y-92019523D01*
X136294809Y-92019523D01*
X136485285Y-92067142D01*
X136580523Y-92114761D01*
X136675761Y-92210000D01*
X136723380Y-92352857D01*
X136723380Y-92590952D01*
X135818619Y-91638571D02*
X135771000Y-91590952D01*
X135723380Y-91495714D01*
X135723380Y-91257619D01*
X135771000Y-91162380D01*
X135818619Y-91114761D01*
X135913857Y-91067142D01*
X136009095Y-91067142D01*
X136151952Y-91114761D01*
X136723380Y-91686190D01*
X136723380Y-91067142D01*
%TO.C,LED5*%
X136723380Y-114149047D02*
X136723380Y-114625238D01*
X135723380Y-114625238D01*
X136199571Y-113815714D02*
X136199571Y-113482380D01*
X136723380Y-113339523D02*
X136723380Y-113815714D01*
X135723380Y-113815714D01*
X135723380Y-113339523D01*
X136723380Y-112910952D02*
X135723380Y-112910952D01*
X135723380Y-112672857D01*
X135771000Y-112530000D01*
X135866238Y-112434761D01*
X135961476Y-112387142D01*
X136151952Y-112339523D01*
X136294809Y-112339523D01*
X136485285Y-112387142D01*
X136580523Y-112434761D01*
X136675761Y-112530000D01*
X136723380Y-112672857D01*
X136723380Y-112910952D01*
X135723380Y-111434761D02*
X135723380Y-111910952D01*
X136199571Y-111958571D01*
X136151952Y-111910952D01*
X136104333Y-111815714D01*
X136104333Y-111577619D01*
X136151952Y-111482380D01*
X136199571Y-111434761D01*
X136294809Y-111387142D01*
X136532904Y-111387142D01*
X136628142Y-111434761D01*
X136675761Y-111482380D01*
X136723380Y-111577619D01*
X136723380Y-111815714D01*
X136675761Y-111910952D01*
X136628142Y-111958571D01*
%TO.C,LED3*%
X149677380Y-98909047D02*
X149677380Y-99385238D01*
X148677380Y-99385238D01*
X149153571Y-98575714D02*
X149153571Y-98242380D01*
X149677380Y-98099523D02*
X149677380Y-98575714D01*
X148677380Y-98575714D01*
X148677380Y-98099523D01*
X149677380Y-97670952D02*
X148677380Y-97670952D01*
X148677380Y-97432857D01*
X148725000Y-97290000D01*
X148820238Y-97194761D01*
X148915476Y-97147142D01*
X149105952Y-97099523D01*
X149248809Y-97099523D01*
X149439285Y-97147142D01*
X149534523Y-97194761D01*
X149629761Y-97290000D01*
X149677380Y-97432857D01*
X149677380Y-97670952D01*
X148677380Y-96766190D02*
X148677380Y-96147142D01*
X149058333Y-96480476D01*
X149058333Y-96337619D01*
X149105952Y-96242380D01*
X149153571Y-96194761D01*
X149248809Y-96147142D01*
X149486904Y-96147142D01*
X149582142Y-96194761D01*
X149629761Y-96242380D01*
X149677380Y-96337619D01*
X149677380Y-96623333D01*
X149629761Y-96718571D01*
X149582142Y-96766190D01*
%TO.C,LED6*%
X150185380Y-114149047D02*
X150185380Y-114625238D01*
X149185380Y-114625238D01*
X149661571Y-113815714D02*
X149661571Y-113482380D01*
X150185380Y-113339523D02*
X150185380Y-113815714D01*
X149185380Y-113815714D01*
X149185380Y-113339523D01*
X150185380Y-112910952D02*
X149185380Y-112910952D01*
X149185380Y-112672857D01*
X149233000Y-112530000D01*
X149328238Y-112434761D01*
X149423476Y-112387142D01*
X149613952Y-112339523D01*
X149756809Y-112339523D01*
X149947285Y-112387142D01*
X150042523Y-112434761D01*
X150137761Y-112530000D01*
X150185380Y-112672857D01*
X150185380Y-112910952D01*
X149185380Y-111482380D02*
X149185380Y-111672857D01*
X149233000Y-111768095D01*
X149280619Y-111815714D01*
X149423476Y-111910952D01*
X149613952Y-111958571D01*
X149994904Y-111958571D01*
X150090142Y-111910952D01*
X150137761Y-111863333D01*
X150185380Y-111768095D01*
X150185380Y-111577619D01*
X150137761Y-111482380D01*
X150090142Y-111434761D01*
X149994904Y-111387142D01*
X149756809Y-111387142D01*
X149661571Y-111434761D01*
X149613952Y-111482380D01*
X149566333Y-111577619D01*
X149566333Y-111768095D01*
X149613952Y-111863333D01*
X149661571Y-111910952D01*
X149756809Y-111958571D01*
%TO.C,R1*%
X183713380Y-122848666D02*
X183237190Y-123182000D01*
X183713380Y-123420095D02*
X182713380Y-123420095D01*
X182713380Y-123039142D01*
X182761000Y-122943904D01*
X182808619Y-122896285D01*
X182903857Y-122848666D01*
X183046714Y-122848666D01*
X183141952Y-122896285D01*
X183189571Y-122943904D01*
X183237190Y-123039142D01*
X183237190Y-123420095D01*
X183713380Y-121896285D02*
X183713380Y-122467714D01*
X183713380Y-122182000D02*
X182713380Y-122182000D01*
X182856238Y-122277238D01*
X182951476Y-122372476D01*
X182999095Y-122467714D01*
X185745380Y-126166476D02*
X185745380Y-126737904D01*
X185745380Y-126452190D02*
X184745380Y-126452190D01*
X184888238Y-126547428D01*
X184983476Y-126642666D01*
X185031095Y-126737904D01*
X184840619Y-125785523D02*
X184793000Y-125737904D01*
X184745380Y-125642666D01*
X184745380Y-125404571D01*
X184793000Y-125309333D01*
X184840619Y-125261714D01*
X184935857Y-125214095D01*
X185031095Y-125214095D01*
X185173952Y-125261714D01*
X185745380Y-125833142D01*
X185745380Y-125214095D01*
X185745380Y-124785523D02*
X184745380Y-124785523D01*
X185745380Y-124214095D02*
X185173952Y-124642666D01*
X184745380Y-124214095D02*
X185316809Y-124785523D01*
%TO.C,C2*%
X182856142Y-120308666D02*
X182903761Y-120356285D01*
X182951380Y-120499142D01*
X182951380Y-120594380D01*
X182903761Y-120737238D01*
X182808523Y-120832476D01*
X182713285Y-120880095D01*
X182522809Y-120927714D01*
X182379952Y-120927714D01*
X182189476Y-120880095D01*
X182094238Y-120832476D01*
X181999000Y-120737238D01*
X181951380Y-120594380D01*
X181951380Y-120499142D01*
X181999000Y-120356285D01*
X182046619Y-120308666D01*
X182046619Y-119927714D02*
X181999000Y-119880095D01*
X181951380Y-119784857D01*
X181951380Y-119546761D01*
X181999000Y-119451523D01*
X182046619Y-119403904D01*
X182141857Y-119356285D01*
X182237095Y-119356285D01*
X182379952Y-119403904D01*
X182951380Y-119975333D01*
X182951380Y-119356285D01*
X180451380Y-117879619D02*
X180451380Y-118451047D01*
X180451380Y-118165333D02*
X179451380Y-118165333D01*
X179594238Y-118260571D01*
X179689476Y-118355809D01*
X179737095Y-118451047D01*
X179451380Y-117260571D02*
X179451380Y-117165333D01*
X179499000Y-117070095D01*
X179546619Y-117022476D01*
X179641857Y-116974857D01*
X179832333Y-116927238D01*
X180070428Y-116927238D01*
X180260904Y-116974857D01*
X180356142Y-117022476D01*
X180403761Y-117070095D01*
X180451380Y-117165333D01*
X180451380Y-117260571D01*
X180403761Y-117355809D01*
X180356142Y-117403428D01*
X180260904Y-117451047D01*
X180070428Y-117498666D01*
X179832333Y-117498666D01*
X179641857Y-117451047D01*
X179546619Y-117403428D01*
X179499000Y-117355809D01*
X179451380Y-117260571D01*
X179451380Y-116308190D02*
X179451380Y-116212952D01*
X179499000Y-116117714D01*
X179546619Y-116070095D01*
X179641857Y-116022476D01*
X179832333Y-115974857D01*
X180070428Y-115974857D01*
X180260904Y-116022476D01*
X180356142Y-116070095D01*
X180403761Y-116117714D01*
X180451380Y-116212952D01*
X180451380Y-116308190D01*
X180403761Y-116403428D01*
X180356142Y-116451047D01*
X180260904Y-116498666D01*
X180070428Y-116546285D01*
X179832333Y-116546285D01*
X179641857Y-116498666D01*
X179546619Y-116451047D01*
X179499000Y-116403428D01*
X179451380Y-116308190D01*
X179784714Y-115546285D02*
X180451380Y-115546285D01*
X179879952Y-115546285D02*
X179832333Y-115498666D01*
X179784714Y-115403428D01*
X179784714Y-115260571D01*
X179832333Y-115165333D01*
X179927571Y-115117714D01*
X180451380Y-115117714D01*
X179927571Y-114308190D02*
X179927571Y-114641523D01*
X180451380Y-114641523D02*
X179451380Y-114641523D01*
X179451380Y-114165333D01*
%TO.C,LED1*%
X123261380Y-93829047D02*
X123261380Y-94305238D01*
X122261380Y-94305238D01*
X122737571Y-93495714D02*
X122737571Y-93162380D01*
X123261380Y-93019523D02*
X123261380Y-93495714D01*
X122261380Y-93495714D01*
X122261380Y-93019523D01*
X123261380Y-92590952D02*
X122261380Y-92590952D01*
X122261380Y-92352857D01*
X122309000Y-92210000D01*
X122404238Y-92114761D01*
X122499476Y-92067142D01*
X122689952Y-92019523D01*
X122832809Y-92019523D01*
X123023285Y-92067142D01*
X123118523Y-92114761D01*
X123213761Y-92210000D01*
X123261380Y-92352857D01*
X123261380Y-92590952D01*
X123261380Y-91067142D02*
X123261380Y-91638571D01*
X123261380Y-91352857D02*
X122261380Y-91352857D01*
X122404238Y-91448095D01*
X122499476Y-91543333D01*
X122547095Y-91638571D01*
%TO.C,LED4*%
X123261380Y-114149047D02*
X123261380Y-114625238D01*
X122261380Y-114625238D01*
X122737571Y-113815714D02*
X122737571Y-113482380D01*
X123261380Y-113339523D02*
X123261380Y-113815714D01*
X122261380Y-113815714D01*
X122261380Y-113339523D01*
X123261380Y-112910952D02*
X122261380Y-112910952D01*
X122261380Y-112672857D01*
X122309000Y-112530000D01*
X122404238Y-112434761D01*
X122499476Y-112387142D01*
X122689952Y-112339523D01*
X122832809Y-112339523D01*
X123023285Y-112387142D01*
X123118523Y-112434761D01*
X123213761Y-112530000D01*
X123261380Y-112672857D01*
X123261380Y-112910952D01*
X122594714Y-111482380D02*
X123261380Y-111482380D01*
X122213761Y-111720476D02*
X122928047Y-111958571D01*
X122928047Y-111339523D01*
%TO.C,U1*%
X171577095Y-106372380D02*
X171577095Y-107181904D01*
X171624714Y-107277142D01*
X171672333Y-107324761D01*
X171767571Y-107372380D01*
X171958047Y-107372380D01*
X172053285Y-107324761D01*
X172100904Y-107277142D01*
X172148523Y-107181904D01*
X172148523Y-106372380D01*
X173148523Y-107372380D02*
X172577095Y-107372380D01*
X172862809Y-107372380D02*
X172862809Y-106372380D01*
X172767571Y-106515238D01*
X172672333Y-106610476D01*
X172577095Y-106658095D01*
X169196142Y-126182380D02*
X169196142Y-125182380D01*
X169529476Y-125896666D01*
X169862809Y-125182380D01*
X169862809Y-126182380D01*
X170291380Y-125896666D02*
X170767571Y-125896666D01*
X170196142Y-126182380D02*
X170529476Y-125182380D01*
X170862809Y-126182380D01*
X171100904Y-125182380D02*
X171767571Y-126182380D01*
X171767571Y-125182380D02*
X171100904Y-126182380D01*
X172053285Y-125182380D02*
X172719952Y-125182380D01*
X172291380Y-126182380D01*
X173053285Y-125277619D02*
X173100904Y-125230000D01*
X173196142Y-125182380D01*
X173434238Y-125182380D01*
X173529476Y-125230000D01*
X173577095Y-125277619D01*
X173624714Y-125372857D01*
X173624714Y-125468095D01*
X173577095Y-125610952D01*
X173005666Y-126182380D01*
X173624714Y-126182380D01*
X174577095Y-126182380D02*
X174005666Y-126182380D01*
X174291380Y-126182380D02*
X174291380Y-125182380D01*
X174196142Y-125325238D01*
X174100904Y-125420476D01*
X174005666Y-125468095D01*
X175053285Y-126182380D02*
X175243761Y-126182380D01*
X175339000Y-126134761D01*
X175386619Y-126087142D01*
X175481857Y-125944285D01*
X175529476Y-125753809D01*
X175529476Y-125372857D01*
X175481857Y-125277619D01*
X175434238Y-125230000D01*
X175339000Y-125182380D01*
X175148523Y-125182380D01*
X175053285Y-125230000D01*
X175005666Y-125277619D01*
X174958047Y-125372857D01*
X174958047Y-125610952D01*
X175005666Y-125706190D01*
X175053285Y-125753809D01*
X175148523Y-125801428D01*
X175339000Y-125801428D01*
X175434238Y-125753809D01*
X175481857Y-125706190D01*
X175529476Y-125610952D01*
D11*
%TO.C,C1*%
X116769112Y-121310000D02*
X116769112Y-119785000D01*
X115488112Y-120810000D02*
X115488112Y-119785000D01*
X116008112Y-117705000D02*
X116008112Y-116380000D01*
X116889112Y-121321000D02*
X116889112Y-119785000D01*
X114648112Y-119756000D02*
X114648112Y-117734000D01*
X115448112Y-120780000D02*
X115448112Y-119785000D01*
X117009112Y-121325000D02*
X117009112Y-119785000D01*
X115528112Y-120840000D02*
X115528112Y-119785000D01*
X116649112Y-121295000D02*
X116649112Y-119785000D01*
X116609112Y-117705000D02*
X116609112Y-116202000D01*
X115688112Y-120945000D02*
X115688112Y-119785000D01*
X116128112Y-121159000D02*
X116128112Y-119785000D01*
X119603887Y-120470000D02*
X119603887Y-119970000D01*
X114808112Y-120064000D02*
X114808112Y-117426000D01*
X115248112Y-120609000D02*
X115248112Y-119785000D01*
X115288112Y-117705000D02*
X115288112Y-116844000D01*
X116569112Y-117705000D02*
X116569112Y-116209000D01*
X116929112Y-117705000D02*
X116929112Y-116167000D01*
X117049112Y-121325000D02*
X117049112Y-119785000D01*
X115168112Y-117705000D02*
X115168112Y-116960000D01*
X116609112Y-121288000D02*
X116609112Y-119785000D01*
X115248112Y-117705000D02*
X115248112Y-116881000D01*
X116569112Y-121281000D02*
X116569112Y-119785000D01*
X115048112Y-120398000D02*
X115048112Y-119785000D01*
X116208112Y-117705000D02*
X116208112Y-116303000D01*
X114848112Y-120128000D02*
X114848112Y-117362000D01*
X115688112Y-117705000D02*
X115688112Y-116545000D01*
X115768112Y-120992000D02*
X115768112Y-119785000D01*
X115848112Y-121035000D02*
X115848112Y-119785000D01*
X116248112Y-117705000D02*
X116248112Y-116290000D01*
X115128112Y-117705000D02*
X115128112Y-117002000D01*
X114688112Y-119843000D02*
X114688112Y-117647000D01*
X116288112Y-121213000D02*
X116288112Y-119785000D01*
X116769112Y-117705000D02*
X116769112Y-116180000D01*
X115288112Y-120646000D02*
X115288112Y-119785000D01*
X116369112Y-117705000D02*
X116369112Y-116254000D01*
X115568112Y-120867000D02*
X115568112Y-119785000D01*
X115968112Y-117705000D02*
X115968112Y-116397000D01*
X116489112Y-121265000D02*
X116489112Y-119785000D01*
X116248112Y-121200000D02*
X116248112Y-119785000D01*
X115208112Y-117705000D02*
X115208112Y-116919000D01*
X116809112Y-117705000D02*
X116809112Y-116176000D01*
X116128112Y-117705000D02*
X116128112Y-116331000D01*
X114448112Y-119029000D02*
X114448112Y-118461000D01*
X116008112Y-121110000D02*
X116008112Y-119785000D01*
X115848112Y-117705000D02*
X115848112Y-116455000D01*
X116529112Y-117705000D02*
X116529112Y-116217000D01*
X115648112Y-117705000D02*
X115648112Y-116570000D01*
X115648112Y-120920000D02*
X115648112Y-119785000D01*
X115488112Y-117705000D02*
X115488112Y-116680000D01*
X117049112Y-117705000D02*
X117049112Y-116165000D01*
X116449112Y-117705000D02*
X116449112Y-116234000D01*
X114928112Y-120245000D02*
X114928112Y-117245000D01*
X114608112Y-119660000D02*
X114608112Y-117830000D01*
X116088112Y-117705000D02*
X116088112Y-116347000D01*
X114568112Y-119550000D02*
X114568112Y-117940000D01*
X115928112Y-117705000D02*
X115928112Y-116416000D01*
X115808112Y-117705000D02*
X115808112Y-116477000D01*
X116889112Y-117705000D02*
X116889112Y-116169000D01*
X115168112Y-120530000D02*
X115168112Y-119785000D01*
X115368112Y-117705000D02*
X115368112Y-116774000D01*
X116168112Y-117705000D02*
X116168112Y-116317000D01*
X115368112Y-120716000D02*
X115368112Y-119785000D01*
X116849112Y-117705000D02*
X116849112Y-116172000D01*
X116689112Y-117705000D02*
X116689112Y-116189000D01*
X115128112Y-120488000D02*
X115128112Y-119785000D01*
X116369112Y-121236000D02*
X116369112Y-119785000D01*
X115728112Y-120969000D02*
X115728112Y-119785000D01*
X116328112Y-121225000D02*
X116328112Y-119785000D01*
X116168112Y-121173000D02*
X116168112Y-119785000D01*
X116729112Y-121306000D02*
X116729112Y-119785000D01*
X116088112Y-121143000D02*
X116088112Y-119785000D01*
X116809112Y-121314000D02*
X116809112Y-119785000D01*
X116689112Y-121301000D02*
X116689112Y-119785000D01*
X119853887Y-120220000D02*
X119353887Y-120220000D01*
X115048112Y-117705000D02*
X115048112Y-117092000D01*
X116208112Y-121187000D02*
X116208112Y-119785000D01*
X115328112Y-120682000D02*
X115328112Y-119785000D01*
X116048112Y-117705000D02*
X116048112Y-116363000D01*
X114968112Y-120299000D02*
X114968112Y-117191000D01*
X117009112Y-117705000D02*
X117009112Y-116165000D01*
X116969112Y-117705000D02*
X116969112Y-116166000D01*
X115408112Y-120749000D02*
X115408112Y-119785000D01*
X116288112Y-117705000D02*
X116288112Y-116277000D01*
X116649112Y-117705000D02*
X116649112Y-116195000D01*
X115888112Y-117705000D02*
X115888112Y-116435000D01*
X115448112Y-117705000D02*
X115448112Y-116710000D01*
X115408112Y-117705000D02*
X115408112Y-116741000D01*
X116929112Y-121323000D02*
X116929112Y-119785000D01*
X116409112Y-121246000D02*
X116409112Y-119785000D01*
X115008112Y-120350000D02*
X115008112Y-117140000D01*
X116409112Y-117705000D02*
X116409112Y-116244000D01*
X115928112Y-121074000D02*
X115928112Y-119785000D01*
X115888112Y-121055000D02*
X115888112Y-119785000D01*
X116529112Y-121273000D02*
X116529112Y-119785000D01*
X114768112Y-119996000D02*
X114768112Y-117494000D01*
X116849112Y-121318000D02*
X116849112Y-119785000D01*
X116449112Y-121256000D02*
X116449112Y-119785000D01*
X115568112Y-117705000D02*
X115568112Y-116623000D01*
X116489112Y-117705000D02*
X116489112Y-116225000D01*
X115208112Y-120571000D02*
X115208112Y-119785000D01*
X114888112Y-120188000D02*
X114888112Y-117302000D01*
X115528112Y-117705000D02*
X115528112Y-116650000D01*
X115608112Y-117705000D02*
X115608112Y-116596000D01*
X114488112Y-119263000D02*
X114488112Y-118227000D01*
X115968112Y-121093000D02*
X115968112Y-119785000D01*
X116969112Y-121324000D02*
X116969112Y-119785000D01*
X115728112Y-117705000D02*
X115728112Y-116521000D01*
X115608112Y-120894000D02*
X115608112Y-119785000D01*
X115328112Y-117705000D02*
X115328112Y-116808000D01*
X116328112Y-117705000D02*
X116328112Y-116265000D01*
X116729112Y-117705000D02*
X116729112Y-116184000D01*
X114528112Y-119422000D02*
X114528112Y-118068000D01*
X115808112Y-121013000D02*
X115808112Y-119785000D01*
X115088112Y-120444000D02*
X115088112Y-119785000D01*
X116048112Y-121127000D02*
X116048112Y-119785000D01*
X115088112Y-117705000D02*
X115088112Y-117046000D01*
X115768112Y-117705000D02*
X115768112Y-116498000D01*
X114728112Y-119923000D02*
X114728112Y-117567000D01*
X119669112Y-118745000D02*
G75*
G03*
X119669112Y-118745000I-2620000J0D01*
G01*
%TO.C,LED2*%
X144224000Y-96520000D02*
X137224000Y-96520000D01*
X138224000Y-91520000D02*
X137224000Y-96520000D01*
X137224000Y-96520000D02*
X136224000Y-101520000D01*
X147524000Y-86885000D02*
X134924000Y-86885000D01*
X134814000Y-102235000D02*
X134814000Y-90805000D01*
X145224000Y-91520000D02*
X144224000Y-96520000D01*
X138224000Y-91520000D02*
X145224000Y-91520000D01*
X147634000Y-102235000D02*
X147634000Y-90805000D01*
X143224000Y-101520000D02*
X144224000Y-96520000D01*
X135924000Y-106155000D02*
X147524000Y-106155000D01*
X136224000Y-101520000D02*
X143224000Y-101520000D01*
X145671214Y-101520000D02*
G75*
G03*
X145671214Y-101520000I-447214J0D01*
G01*
%TO.C,J4*%
X167578000Y-96968000D02*
X167578000Y-98298000D01*
X166248000Y-96968000D02*
X167578000Y-96968000D01*
X164978000Y-96968000D02*
X162378000Y-96968000D01*
X164978000Y-99628000D02*
X162378000Y-99628000D01*
X164978000Y-96968000D02*
X164978000Y-99628000D01*
X162378000Y-96968000D02*
X162378000Y-99628000D01*
%TO.C,LED5*%
X143224000Y-121840000D02*
X144224000Y-116840000D01*
X147634000Y-122555000D02*
X147634000Y-111125000D01*
X138224000Y-111840000D02*
X145224000Y-111840000D01*
X137224000Y-116840000D02*
X136224000Y-121840000D01*
X136224000Y-121840000D02*
X143224000Y-121840000D01*
X144224000Y-116840000D02*
X137224000Y-116840000D01*
X135924000Y-126475000D02*
X147524000Y-126475000D01*
X145224000Y-111840000D02*
X144224000Y-116840000D01*
X138224000Y-111840000D02*
X137224000Y-116840000D01*
X147524000Y-107205000D02*
X134924000Y-107205000D01*
X134814000Y-122555000D02*
X134814000Y-111125000D01*
X145671214Y-121840000D02*
G75*
G03*
X145671214Y-121840000I-447214J0D01*
G01*
%TO.C,LED3*%
X148149000Y-102235000D02*
X148149000Y-90805000D01*
X151559000Y-91520000D02*
X150559000Y-96520000D01*
X151559000Y-91520000D02*
X158559000Y-91520000D01*
X149259000Y-106155000D02*
X160859000Y-106155000D01*
X160969000Y-102235000D02*
X160969000Y-90805000D01*
X150559000Y-96520000D02*
X149559000Y-101520000D01*
X157559000Y-96520000D02*
X150559000Y-96520000D01*
X149559000Y-101520000D02*
X156559000Y-101520000D01*
X158559000Y-91520000D02*
X157559000Y-96520000D01*
X156559000Y-101520000D02*
X157559000Y-96520000D01*
X160859000Y-86885000D02*
X148259000Y-86885000D01*
X159006214Y-101520000D02*
G75*
G03*
X159006214Y-101520000I-447214J0D01*
G01*
%TO.C,LED6*%
X148149000Y-122555000D02*
X148149000Y-111125000D01*
X158559000Y-111840000D02*
X157559000Y-116840000D01*
X149559000Y-121840000D02*
X156559000Y-121840000D01*
X149259000Y-126475000D02*
X160859000Y-126475000D01*
X156559000Y-121840000D02*
X157559000Y-116840000D01*
X160859000Y-107205000D02*
X148259000Y-107205000D01*
X157559000Y-116840000D02*
X150559000Y-116840000D01*
X151559000Y-111840000D02*
X158559000Y-111840000D01*
X151559000Y-111840000D02*
X150559000Y-116840000D01*
X160969000Y-122555000D02*
X160969000Y-111125000D01*
X150559000Y-116840000D02*
X149559000Y-121840000D01*
X159006214Y-121840000D02*
G75*
G03*
X159006214Y-121840000I-447214J0D01*
G01*
%TO.C,R1*%
X184246000Y-120665000D02*
X186086000Y-120665000D01*
X185166000Y-121615000D02*
X185166000Y-120665000D01*
X185166000Y-115875000D02*
X185166000Y-116825000D01*
X184246000Y-116825000D02*
X184246000Y-120665000D01*
X186086000Y-120665000D02*
X186086000Y-116825000D01*
X186086000Y-116825000D02*
X184246000Y-116825000D01*
%TO.C,C2*%
X181129000Y-113712000D02*
X181129000Y-118952000D01*
X183869000Y-113712000D02*
X183869000Y-118952000D01*
X183869000Y-113712000D02*
X181129000Y-113712000D01*
X183869000Y-118952000D02*
X181129000Y-118952000D01*
%TO.C,LED1*%
X124889000Y-91520000D02*
X123889000Y-96520000D01*
X134189000Y-86885000D02*
X121589000Y-86885000D01*
X123889000Y-96520000D02*
X122889000Y-101520000D01*
X122889000Y-101520000D02*
X129889000Y-101520000D01*
X130889000Y-96520000D02*
X123889000Y-96520000D01*
X122589000Y-106155000D02*
X134189000Y-106155000D01*
X134299000Y-102235000D02*
X134299000Y-90805000D01*
X124889000Y-91520000D02*
X131889000Y-91520000D01*
X121479000Y-102235000D02*
X121479000Y-90805000D01*
X129889000Y-101520000D02*
X130889000Y-96520000D01*
X131889000Y-91520000D02*
X130889000Y-96520000D01*
X132336214Y-101520000D02*
G75*
G03*
X132336214Y-101520000I-447214J0D01*
G01*
%TO.C,LED4*%
X134189000Y-107205000D02*
X121589000Y-107205000D01*
X122589000Y-126475000D02*
X134189000Y-126475000D01*
X124889000Y-111840000D02*
X131889000Y-111840000D01*
X123889000Y-116840000D02*
X122889000Y-121840000D01*
X122889000Y-121840000D02*
X129889000Y-121840000D01*
X131889000Y-111840000D02*
X130889000Y-116840000D01*
X134299000Y-122555000D02*
X134299000Y-111125000D01*
X124889000Y-111840000D02*
X123889000Y-116840000D01*
X129889000Y-121840000D02*
X130889000Y-116840000D01*
X130889000Y-116840000D02*
X123889000Y-116840000D01*
X121479000Y-122555000D02*
X121479000Y-111125000D01*
X132336214Y-121840000D02*
G75*
G03*
X132336214Y-121840000I-447214J0D01*
G01*
%TO.C,J3*%
X183829000Y-87570000D02*
X183829000Y-88900000D01*
X181229000Y-87570000D02*
X181229000Y-90230000D01*
X163389000Y-87570000D02*
X163389000Y-90230000D01*
X181229000Y-87570000D02*
X163389000Y-87570000D01*
X182499000Y-87570000D02*
X183829000Y-87570000D01*
X181229000Y-90230000D02*
X163389000Y-90230000D01*
%TO.C,J2*%
X189139000Y-106305000D02*
X195139000Y-106305000D01*
X195139000Y-103765000D02*
X195139000Y-104525000D01*
X186081929Y-108845000D02*
X186479000Y-108845000D01*
X186479000Y-113095000D02*
X189139000Y-113095000D01*
X189139000Y-101225000D02*
X195139000Y-101225000D01*
X195139000Y-101225000D02*
X195139000Y-101985000D01*
X186479000Y-102875000D02*
X189139000Y-102875000D01*
X186479000Y-107955000D02*
X189139000Y-107955000D01*
X189139000Y-108845000D02*
X195139000Y-108845000D01*
X186479000Y-105415000D02*
X189139000Y-105415000D01*
X186081929Y-103765000D02*
X186479000Y-103765000D01*
X186081929Y-107065000D02*
X186479000Y-107065000D01*
X195139000Y-106305000D02*
X195139000Y-107065000D01*
X195139000Y-109605000D02*
X189139000Y-109605000D01*
X186479000Y-110495000D02*
X189139000Y-110495000D01*
X189139000Y-101285000D02*
X195139000Y-101285000D01*
X186081929Y-109605000D02*
X186479000Y-109605000D01*
X186081929Y-104525000D02*
X186479000Y-104525000D01*
X189139000Y-103765000D02*
X195139000Y-103765000D01*
X186149000Y-101985000D02*
X186479000Y-101985000D01*
X189139000Y-101525000D02*
X195139000Y-101525000D01*
X195139000Y-101985000D02*
X189139000Y-101985000D01*
X183769000Y-100335000D02*
X185039000Y-100335000D01*
X189139000Y-101645000D02*
X195139000Y-101645000D01*
X195139000Y-104525000D02*
X189139000Y-104525000D01*
X183769000Y-101605000D02*
X183769000Y-100335000D01*
X186081929Y-112145000D02*
X186479000Y-112145000D01*
X195139000Y-112145000D02*
X189139000Y-112145000D01*
X189139000Y-101405000D02*
X195139000Y-101405000D01*
X189139000Y-101765000D02*
X195139000Y-101765000D01*
X189139000Y-111385000D02*
X195139000Y-111385000D01*
X195139000Y-107065000D02*
X189139000Y-107065000D01*
X186149000Y-101225000D02*
X186479000Y-101225000D01*
X189139000Y-113095000D02*
X189139000Y-100275000D01*
X189139000Y-100275000D02*
X186479000Y-100275000D01*
X186479000Y-100275000D02*
X186479000Y-113095000D01*
X195139000Y-111385000D02*
X195139000Y-112145000D01*
X186081929Y-106305000D02*
X186479000Y-106305000D01*
X195139000Y-108845000D02*
X195139000Y-109605000D01*
X186081929Y-111385000D02*
X186479000Y-111385000D01*
X189139000Y-101885000D02*
X195139000Y-101885000D01*
%TO.C,J1*%
X109749000Y-111955000D02*
X103749000Y-111955000D01*
X103749000Y-101975000D02*
X103749000Y-101215000D01*
X112409000Y-113085000D02*
X112409000Y-100265000D01*
X109749000Y-100265000D02*
X109749000Y-113085000D01*
X103749000Y-111375000D02*
X109749000Y-111375000D01*
X112409000Y-100265000D02*
X109749000Y-100265000D01*
X103749000Y-103755000D02*
X109749000Y-103755000D01*
X103749000Y-108835000D02*
X109749000Y-108835000D01*
X109749000Y-112135000D02*
X103749000Y-112135000D01*
X109749000Y-111835000D02*
X103749000Y-111835000D01*
X109749000Y-112075000D02*
X103749000Y-112075000D01*
X109749000Y-111475000D02*
X103749000Y-111475000D01*
X109749000Y-113085000D02*
X112409000Y-113085000D01*
X112806071Y-106295000D02*
X112409000Y-106295000D01*
X103749000Y-112135000D02*
X103749000Y-111375000D01*
X115119000Y-111755000D02*
X115119000Y-113025000D01*
X112806071Y-108835000D02*
X112409000Y-108835000D01*
X112806071Y-103755000D02*
X112409000Y-103755000D01*
X112806071Y-107055000D02*
X112409000Y-107055000D01*
X112739000Y-111375000D02*
X112409000Y-111375000D01*
X103749000Y-109595000D02*
X103749000Y-108835000D01*
X112409000Y-102865000D02*
X109749000Y-102865000D01*
X109749000Y-111715000D02*
X103749000Y-111715000D01*
X112739000Y-112135000D02*
X112409000Y-112135000D01*
X112409000Y-105405000D02*
X109749000Y-105405000D01*
X103749000Y-104515000D02*
X103749000Y-103755000D01*
X109749000Y-111595000D02*
X103749000Y-111595000D01*
X103749000Y-107055000D02*
X103749000Y-106295000D01*
X115119000Y-113025000D02*
X113849000Y-113025000D01*
X109749000Y-104515000D02*
X103749000Y-104515000D01*
X112409000Y-107945000D02*
X109749000Y-107945000D01*
X103749000Y-106295000D02*
X109749000Y-106295000D01*
X109749000Y-107055000D02*
X103749000Y-107055000D01*
X109749000Y-109595000D02*
X103749000Y-109595000D01*
X112806071Y-101975000D02*
X112409000Y-101975000D01*
X112409000Y-110485000D02*
X109749000Y-110485000D01*
X112806071Y-101215000D02*
X112409000Y-101215000D01*
X112806071Y-109595000D02*
X112409000Y-109595000D01*
X112806071Y-104515000D02*
X112409000Y-104515000D01*
X109749000Y-101975000D02*
X103749000Y-101975000D01*
X103749000Y-101215000D02*
X109749000Y-101215000D01*
%TO.C,U1*%
X168479000Y-123380000D02*
X168479000Y-123090000D01*
X172339000Y-123380000D02*
X176199000Y-123380000D01*
X172339000Y-107760000D02*
X168479000Y-107760000D01*
X172339000Y-107760000D02*
X176199000Y-107760000D01*
X168479000Y-107760000D02*
X168479000Y-108050000D01*
X172339000Y-123380000D02*
X168479000Y-123380000D01*
X176199000Y-123380000D02*
X176199000Y-123090000D01*
X176199000Y-107760000D02*
X176199000Y-108050000D01*
X168479000Y-108050000D02*
X166689000Y-108050000D01*
%TO.C,G\u002A\u002A\u002A*%
G36*
X170427479Y-99753170D02*
G01*
X170472915Y-99674627D01*
X170532703Y-99600349D01*
X170551365Y-99580742D01*
X170624627Y-99515793D01*
X170702991Y-99465972D01*
X170790082Y-99429108D01*
X170820393Y-99419691D01*
X170858888Y-99409276D01*
X170890279Y-99402919D01*
X170920898Y-99399961D01*
X170957080Y-99399736D01*
X170997094Y-99401209D01*
X171073080Y-99408002D01*
X171138180Y-99421862D01*
X171198005Y-99444449D01*
X171258167Y-99477419D01*
X171261036Y-99479214D01*
X171326465Y-99530327D01*
X171382304Y-99594467D01*
X171426966Y-99669253D01*
X171458860Y-99752304D01*
X171468162Y-99789534D01*
X171474673Y-99832089D01*
X171478166Y-99880630D01*
X171478775Y-99930999D01*
X171476633Y-99979038D01*
X171471876Y-100020590D01*
X171464636Y-100051497D01*
X171459355Y-100062905D01*
X171445086Y-100084681D01*
X170646853Y-100084681D01*
X170647158Y-100121575D01*
X170655673Y-100204333D01*
X170679001Y-100281712D01*
X170715917Y-100351660D01*
X170765197Y-100412123D01*
X170825617Y-100461049D01*
X170861920Y-100481690D01*
X170890396Y-100495478D01*
X170912778Y-100504715D01*
X170933826Y-100510312D01*
X170958302Y-100513181D01*
X170990966Y-100514233D01*
X171032685Y-100514380D01*
X171078502Y-100514056D01*
X171111514Y-100512620D01*
X171136274Y-100509375D01*
X171157332Y-100503626D01*
X171179242Y-100494676D01*
X171188023Y-100490626D01*
X171224029Y-100470771D01*
X171265747Y-100443265D01*
X171307452Y-100412290D01*
X171343418Y-100382027D01*
X171362194Y-100363417D01*
X171379853Y-100349128D01*
X171398374Y-100347219D01*
X171421019Y-100358277D01*
X171446209Y-100378542D01*
X171483888Y-100411979D01*
X171453836Y-100461656D01*
X171395496Y-100542246D01*
X171326021Y-100610289D01*
X171246735Y-100664702D01*
X171158965Y-100704405D01*
X171154349Y-100705994D01*
X171118336Y-100717109D01*
X171084676Y-100724480D01*
X171047496Y-100728992D01*
X171000925Y-100731533D01*
X170981064Y-100732126D01*
X170935101Y-100732519D01*
X170890701Y-100731520D01*
X170853441Y-100729331D01*
X170831948Y-100726755D01*
X170760983Y-100708088D01*
X170687402Y-100678187D01*
X170618505Y-100640074D01*
X170611732Y-100635647D01*
X170542831Y-100579628D01*
X170484071Y-100510762D01*
X170436009Y-100430683D01*
X170399204Y-100341020D01*
X170374215Y-100243408D01*
X170361601Y-100139477D01*
X170361920Y-100030859D01*
X170372605Y-99937108D01*
X170374564Y-99928427D01*
X170646523Y-99928427D01*
X170883240Y-99928378D01*
X170949461Y-99928044D01*
X171010483Y-99927122D01*
X171063809Y-99925695D01*
X171106943Y-99923846D01*
X171137387Y-99921656D01*
X171151617Y-99919536D01*
X171183190Y-99904391D01*
X171203398Y-99878702D01*
X171213229Y-99840768D01*
X171214557Y-99811236D01*
X171205583Y-99749517D01*
X171180921Y-99692158D01*
X171142132Y-99641575D01*
X171090782Y-99600184D01*
X171070402Y-99588458D01*
X171025130Y-99572932D01*
X170971764Y-99567305D01*
X170916386Y-99571451D01*
X170865078Y-99585245D01*
X170847764Y-99593067D01*
X170790567Y-99631970D01*
X170740713Y-99684330D01*
X170700478Y-99746999D01*
X170672141Y-99816827D01*
X170664611Y-99846233D01*
X170658280Y-99875636D01*
X170652773Y-99900802D01*
X170650962Y-99908895D01*
X170646523Y-99928427D01*
X170374564Y-99928427D01*
X170394630Y-99839491D01*
X170427479Y-99753170D01*
G37*
G36*
X172597386Y-98428344D02*
G01*
X172663412Y-98494691D01*
X172721650Y-98553914D01*
X172771359Y-98605228D01*
X172811798Y-98647850D01*
X172842226Y-98680993D01*
X172861901Y-98703875D01*
X172870081Y-98715709D01*
X172870157Y-98717026D01*
X172862559Y-98726655D01*
X172846029Y-98747371D01*
X172822523Y-98776735D01*
X172793999Y-98812313D01*
X172762413Y-98851668D01*
X172729723Y-98892363D01*
X172697885Y-98931962D01*
X172668857Y-98968029D01*
X172644595Y-98998128D01*
X172627056Y-99019821D01*
X172618763Y-99029995D01*
X172607205Y-99044179D01*
X172587996Y-99067974D01*
X172564322Y-99097426D01*
X172550303Y-99114917D01*
X172496234Y-99182447D01*
X172542728Y-99275481D01*
X172562311Y-99315476D01*
X172580017Y-99353103D01*
X172593741Y-99383804D01*
X172600810Y-99401341D01*
X172612397Y-99434166D01*
X172361038Y-99685637D01*
X172306643Y-99739923D01*
X172256023Y-99790185D01*
X172210496Y-99835133D01*
X172171381Y-99873478D01*
X172139993Y-99903931D01*
X172117652Y-99925202D01*
X172105674Y-99936003D01*
X172104041Y-99937108D01*
X172096518Y-99930224D01*
X172093134Y-99923376D01*
X172088758Y-99903365D01*
X172087865Y-99890288D01*
X172085187Y-99868138D01*
X172077934Y-99833975D01*
X172067275Y-99792170D01*
X172054381Y-99747092D01*
X172040420Y-99703113D01*
X172029529Y-99672343D01*
X171999099Y-99598207D01*
X171965524Y-99531571D01*
X171925988Y-99465904D01*
X171888207Y-99407038D01*
X171888207Y-98497895D01*
X171916847Y-98473123D01*
X171942112Y-98451779D01*
X171970846Y-98428197D01*
X171979783Y-98421018D01*
X171996658Y-98407504D01*
X172024517Y-98385119D01*
X172060834Y-98355896D01*
X172103081Y-98321870D01*
X172148733Y-98285073D01*
X172165898Y-98271230D01*
X172317717Y-98148774D01*
X172597386Y-98428344D01*
G37*
G36*
X172770143Y-99628576D02*
G01*
X172799968Y-99631882D01*
X172841141Y-99636542D01*
X172887770Y-99641885D01*
X172925562Y-99646261D01*
X172979268Y-99652358D01*
X173039055Y-99658902D01*
X173095969Y-99664922D01*
X173125220Y-99667900D01*
X173167885Y-99672287D01*
X173207518Y-99676603D01*
X173238867Y-99680265D01*
X173253261Y-99682152D01*
X173285814Y-99686891D01*
X173285814Y-100473791D01*
X173253261Y-100478529D01*
X173231030Y-100481364D01*
X173196768Y-100485266D01*
X173155727Y-100489654D01*
X173125220Y-100492757D01*
X173073312Y-100498149D01*
X173013664Y-100504705D01*
X172955753Y-100511369D01*
X172929902Y-100514475D01*
X172879843Y-100520273D01*
X172826369Y-100525928D01*
X172777404Y-100530622D01*
X172753362Y-100532648D01*
X172717411Y-100536436D01*
X172690259Y-100541262D01*
X172675536Y-100546413D01*
X172673983Y-100548188D01*
X172664236Y-100580643D01*
X172650543Y-100622966D01*
X172635054Y-100668770D01*
X172619917Y-100711666D01*
X172610156Y-100737911D01*
X172587603Y-100796506D01*
X172224884Y-100796506D01*
X172147427Y-100796415D01*
X172075625Y-100796156D01*
X172011278Y-100795748D01*
X171956183Y-100795211D01*
X171912137Y-100794563D01*
X171880940Y-100793825D01*
X171864387Y-100793016D01*
X171862164Y-100792582D01*
X171866786Y-100784113D01*
X171879032Y-100765212D01*
X171896474Y-100739602D01*
X171900742Y-100733471D01*
X171946905Y-100660605D01*
X171989866Y-100580100D01*
X172025020Y-100500711D01*
X172029745Y-100488338D01*
X172043314Y-100449143D01*
X172056879Y-100405289D01*
X172069274Y-100361114D01*
X172079337Y-100320955D01*
X172085903Y-100289149D01*
X172087865Y-100271809D01*
X172094001Y-100260983D01*
X172112443Y-100238569D01*
X172143242Y-100204513D01*
X172186450Y-100158761D01*
X172242118Y-100101258D01*
X172310298Y-100031950D01*
X172391041Y-99950783D01*
X172403379Y-99938442D01*
X172718894Y-99623016D01*
X172770143Y-99628576D01*
G37*
G36*
X169767645Y-99355591D02*
G01*
X169843680Y-99355906D01*
X169904901Y-99356478D01*
X169952582Y-99357346D01*
X169987996Y-99358548D01*
X170012416Y-99360123D01*
X170027117Y-99362110D01*
X170033371Y-99364546D01*
X170033538Y-99366346D01*
X170025493Y-99378492D01*
X170010563Y-99400321D01*
X169991843Y-99427311D01*
X169990108Y-99429796D01*
X169946358Y-99498943D01*
X169904861Y-99576439D01*
X169870255Y-99653436D01*
X169862936Y-99672343D01*
X169850563Y-99708061D01*
X169837692Y-99749303D01*
X169825504Y-99791759D01*
X169815180Y-99831119D01*
X169807900Y-99863073D01*
X169804844Y-99883311D01*
X169804816Y-99884532D01*
X169798796Y-99894052D01*
X169781674Y-99914154D01*
X169754862Y-99943439D01*
X169719772Y-99980505D01*
X169677813Y-100023954D01*
X169630396Y-100072385D01*
X169578934Y-100124400D01*
X169524836Y-100178597D01*
X169469513Y-100233578D01*
X169414377Y-100287943D01*
X169360838Y-100340292D01*
X169310307Y-100389225D01*
X169264196Y-100433343D01*
X169223914Y-100471246D01*
X169190874Y-100501534D01*
X169166485Y-100522807D01*
X169152159Y-100533666D01*
X169149373Y-100534782D01*
X169127774Y-100532805D01*
X169106013Y-100530464D01*
X169028079Y-100521458D01*
X168964492Y-100514164D01*
X168912357Y-100508261D01*
X168868779Y-100503427D01*
X168830864Y-100499340D01*
X168795716Y-100495678D01*
X168767462Y-100492820D01*
X168724797Y-100488417D01*
X168685165Y-100484088D01*
X168653816Y-100480419D01*
X168639420Y-100478529D01*
X168606867Y-100473791D01*
X168606867Y-99686891D01*
X168639420Y-99682152D01*
X168661651Y-99679318D01*
X168695914Y-99675415D01*
X168736954Y-99671027D01*
X168767462Y-99667925D01*
X168819369Y-99662532D01*
X168879018Y-99655977D01*
X168936929Y-99649313D01*
X168962780Y-99646207D01*
X169012838Y-99640408D01*
X169066312Y-99634754D01*
X169115277Y-99630060D01*
X169139320Y-99628034D01*
X169175289Y-99624244D01*
X169202435Y-99619417D01*
X169217136Y-99614264D01*
X169218677Y-99612493D01*
X169226428Y-99586768D01*
X169238049Y-99550974D01*
X169251895Y-99509887D01*
X169266318Y-99468284D01*
X169279674Y-99430942D01*
X169290315Y-99402637D01*
X169294531Y-99392388D01*
X169310824Y-99355495D01*
X169675523Y-99355495D01*
X169767645Y-99355591D01*
G37*
G36*
X171344529Y-97773420D02*
G01*
X171347364Y-97795651D01*
X171351266Y-97829914D01*
X171355654Y-97870954D01*
X171358757Y-97901462D01*
X171364149Y-97953369D01*
X171370705Y-98013018D01*
X171377369Y-98070929D01*
X171380475Y-98096780D01*
X171386273Y-98146838D01*
X171391928Y-98200312D01*
X171396622Y-98249277D01*
X171398648Y-98273320D01*
X171402438Y-98309289D01*
X171407264Y-98336435D01*
X171412418Y-98351136D01*
X171414188Y-98352677D01*
X171439913Y-98360428D01*
X171475708Y-98372049D01*
X171516794Y-98385895D01*
X171558397Y-98400318D01*
X171595739Y-98413674D01*
X171624044Y-98424315D01*
X171634294Y-98428531D01*
X171671187Y-98444824D01*
X171671187Y-98809011D01*
X171671137Y-98886622D01*
X171670994Y-98958574D01*
X171670770Y-99023074D01*
X171670473Y-99078329D01*
X171670117Y-99122546D01*
X171669710Y-99153930D01*
X171669264Y-99170690D01*
X171669017Y-99173030D01*
X171661435Y-99168347D01*
X171642792Y-99155881D01*
X171616270Y-99137776D01*
X171597400Y-99124755D01*
X171481310Y-99054675D01*
X171355706Y-98998275D01*
X171222993Y-98956608D01*
X171202424Y-98951648D01*
X171137318Y-98936563D01*
X170813944Y-98614359D01*
X170490569Y-98292154D01*
X170495419Y-98248722D01*
X170498397Y-98222377D01*
X170502754Y-98184232D01*
X170507868Y-98139732D01*
X170512327Y-98101120D01*
X170518396Y-98047411D01*
X170524918Y-97987621D01*
X170530925Y-97930705D01*
X170533900Y-97901462D01*
X170538287Y-97858796D01*
X170542603Y-97819163D01*
X170546265Y-97787815D01*
X170548152Y-97773420D01*
X170552891Y-97740867D01*
X171339791Y-97740867D01*
X171344529Y-97773420D01*
G37*
G36*
X170244492Y-101001189D02*
G01*
X170266321Y-101016119D01*
X170293311Y-101034838D01*
X170295796Y-101036574D01*
X170364943Y-101080323D01*
X170442439Y-101121821D01*
X170519436Y-101156426D01*
X170538343Y-101163745D01*
X170574061Y-101176119D01*
X170615303Y-101188990D01*
X170657759Y-101201177D01*
X170697119Y-101211502D01*
X170729073Y-101218782D01*
X170749311Y-101221837D01*
X170750532Y-101221865D01*
X170759124Y-101227842D01*
X170778736Y-101245008D01*
X170808174Y-101272216D01*
X170846240Y-101308318D01*
X170891740Y-101352168D01*
X170943477Y-101402618D01*
X171000255Y-101458520D01*
X171060880Y-101518728D01*
X171083620Y-101541441D01*
X171403108Y-101861016D01*
X171397761Y-101908204D01*
X171394565Y-101936214D01*
X171390018Y-101975812D01*
X171384772Y-102021338D01*
X171380354Y-102059562D01*
X171374285Y-102113271D01*
X171367764Y-102173060D01*
X171361756Y-102229977D01*
X171358782Y-102259220D01*
X171354394Y-102301885D01*
X171350078Y-102341518D01*
X171346417Y-102372867D01*
X171344529Y-102387261D01*
X171339791Y-102419814D01*
X170552891Y-102419814D01*
X170548152Y-102387261D01*
X170545318Y-102365030D01*
X170541415Y-102330768D01*
X170537027Y-102289727D01*
X170533925Y-102259220D01*
X170528532Y-102207312D01*
X170521977Y-102147664D01*
X170515313Y-102089753D01*
X170512207Y-102063902D01*
X170506408Y-102013843D01*
X170500754Y-101960369D01*
X170496060Y-101911404D01*
X170494034Y-101887362D01*
X170490244Y-101851393D01*
X170485417Y-101824247D01*
X170480264Y-101809545D01*
X170478493Y-101808004D01*
X170452768Y-101800254D01*
X170416974Y-101788632D01*
X170375887Y-101774787D01*
X170334284Y-101760363D01*
X170296942Y-101747008D01*
X170268637Y-101736367D01*
X170258388Y-101732151D01*
X170221495Y-101715858D01*
X170221495Y-101351158D01*
X170221591Y-101259036D01*
X170221906Y-101183002D01*
X170222478Y-101121781D01*
X170223346Y-101074100D01*
X170224548Y-101038686D01*
X170226123Y-101014265D01*
X170228110Y-100999565D01*
X170230546Y-100993310D01*
X170232346Y-100993143D01*
X170244492Y-101001189D01*
G37*
G36*
X169628039Y-98190436D02*
G01*
X169649745Y-98207380D01*
X169681924Y-98232852D01*
X169721637Y-98264493D01*
X169765947Y-98299943D01*
X169811915Y-98336845D01*
X169856603Y-98372837D01*
X169897074Y-98405561D01*
X169930389Y-98432657D01*
X169953609Y-98451766D01*
X169956660Y-98454318D01*
X169973377Y-98467992D01*
X169997250Y-98487099D01*
X170012881Y-98499454D01*
X170051670Y-98529942D01*
X170112710Y-98496960D01*
X170152563Y-98476444D01*
X170198624Y-98454224D01*
X170240994Y-98435075D01*
X170241406Y-98434898D01*
X170309062Y-98405817D01*
X170564765Y-98661411D01*
X170619525Y-98716287D01*
X170670271Y-98767411D01*
X170715723Y-98813474D01*
X170754603Y-98853168D01*
X170785632Y-98885185D01*
X170807533Y-98908216D01*
X170819025Y-98920953D01*
X170820469Y-98923038D01*
X170812716Y-98927601D01*
X170792983Y-98932453D01*
X170779235Y-98934664D01*
X170743307Y-98941141D01*
X170696734Y-98951772D01*
X170645279Y-98965030D01*
X170594702Y-98979387D01*
X170550765Y-98993316D01*
X170530640Y-99000578D01*
X170478897Y-99022823D01*
X170421151Y-99051198D01*
X170365039Y-99081761D01*
X170320425Y-99109083D01*
X170276123Y-99138475D01*
X169355412Y-99138475D01*
X169341990Y-99117991D01*
X169327597Y-99098040D01*
X169316957Y-99085438D01*
X169307649Y-99074665D01*
X169289724Y-99053006D01*
X169265383Y-99023155D01*
X169236828Y-98987803D01*
X169221895Y-98969199D01*
X169188581Y-98927657D01*
X169155064Y-98885937D01*
X169124702Y-98848214D01*
X169100853Y-98818662D01*
X169095627Y-98812208D01*
X169072144Y-98782827D01*
X169050527Y-98755078D01*
X169035185Y-98734627D01*
X169034374Y-98733494D01*
X169015937Y-98707602D01*
X169574775Y-98149540D01*
X169628039Y-98190436D01*
G37*
G36*
X169794335Y-100222527D02*
G01*
X169799414Y-100241466D01*
X169800458Y-100247446D01*
X169828590Y-100379415D01*
X169870231Y-100505660D01*
X169924255Y-100623138D01*
X169966190Y-100694462D01*
X170004475Y-100753644D01*
X170004475Y-101662787D01*
X169975834Y-101687558D01*
X169950552Y-101708902D01*
X169921804Y-101732459D01*
X169912898Y-101739595D01*
X169895701Y-101753331D01*
X169867625Y-101775827D01*
X169831317Y-101804961D01*
X169789424Y-101838607D01*
X169744593Y-101874643D01*
X169735370Y-101882060D01*
X169692303Y-101916679D01*
X169653548Y-101947793D01*
X169621245Y-101973690D01*
X169597529Y-101992657D01*
X169584539Y-102002981D01*
X169583026Y-102004157D01*
X169574847Y-101999764D01*
X169555372Y-101983643D01*
X169525388Y-101956534D01*
X169485678Y-101919179D01*
X169437026Y-101872320D01*
X169380218Y-101816697D01*
X169316038Y-101753053D01*
X169294344Y-101731386D01*
X169014774Y-101451717D01*
X169137082Y-101299898D01*
X169173335Y-101254922D01*
X169206636Y-101213653D01*
X169235196Y-101178306D01*
X169257226Y-101151094D01*
X169270936Y-101134231D01*
X169273850Y-101130686D01*
X169285433Y-101116508D01*
X169304666Y-101092712D01*
X169328363Y-101063248D01*
X169342473Y-101045647D01*
X169396637Y-100978000D01*
X169358355Y-100902444D01*
X169338361Y-100862217D01*
X169318356Y-100820696D01*
X169301746Y-100784989D01*
X169297364Y-100775176D01*
X169274653Y-100723463D01*
X169528829Y-100469178D01*
X169583554Y-100414573D01*
X169634531Y-100363987D01*
X169680445Y-100318702D01*
X169719985Y-100279999D01*
X169751836Y-100249163D01*
X169774687Y-100227474D01*
X169787224Y-100216216D01*
X169789177Y-100214893D01*
X169794335Y-100222527D01*
G37*
G36*
X172080051Y-101013937D02*
G01*
X172526245Y-101014347D01*
X172565309Y-101063643D01*
X172586961Y-101090886D01*
X172606167Y-101114910D01*
X172618763Y-101130508D01*
X172629877Y-101144210D01*
X172649148Y-101168100D01*
X172674640Y-101199769D01*
X172704418Y-101236806D01*
X172736547Y-101276801D01*
X172769093Y-101317344D01*
X172800121Y-101356025D01*
X172827696Y-101390434D01*
X172849883Y-101418160D01*
X172864746Y-101436794D01*
X172870157Y-101443656D01*
X172865764Y-101451835D01*
X172849643Y-101471309D01*
X172822534Y-101501294D01*
X172785179Y-101541004D01*
X172738320Y-101589655D01*
X172682697Y-101646463D01*
X172619053Y-101710643D01*
X172597386Y-101732337D01*
X172317717Y-102011908D01*
X172165898Y-101889599D01*
X172120922Y-101853347D01*
X172079653Y-101820046D01*
X172044306Y-101791486D01*
X172017094Y-101769456D01*
X172000231Y-101755745D01*
X171996686Y-101752832D01*
X171982508Y-101741249D01*
X171958712Y-101722016D01*
X171929248Y-101698318D01*
X171911647Y-101684208D01*
X171844000Y-101630045D01*
X171768444Y-101668326D01*
X171728514Y-101688184D01*
X171687580Y-101707928D01*
X171652601Y-101724220D01*
X171642820Y-101728591D01*
X171592751Y-101750575D01*
X171336007Y-101494269D01*
X171281277Y-101439448D01*
X171230722Y-101388451D01*
X171185595Y-101342568D01*
X171147146Y-101303090D01*
X171116630Y-101271304D01*
X171095297Y-101248503D01*
X171084402Y-101235976D01*
X171083269Y-101233957D01*
X171093287Y-101230624D01*
X171115511Y-101225860D01*
X171142679Y-101221102D01*
X171271993Y-101191751D01*
X171399178Y-101145530D01*
X171523033Y-101082905D01*
X171567885Y-101055601D01*
X171633858Y-101013526D01*
X172080051Y-101013937D01*
G37*
G36*
X180601509Y-101030847D02*
G01*
X180625168Y-101034973D01*
X180635236Y-101037443D01*
X180675930Y-101051886D01*
X180714014Y-101072751D01*
X180744813Y-101097425D01*
X180747551Y-101100254D01*
X180757071Y-101111261D01*
X180758440Y-101118479D01*
X180752160Y-101127144D01*
X180750316Y-101129195D01*
X180737847Y-101141426D01*
X180721083Y-101156039D01*
X180715342Y-101160697D01*
X180692336Y-101178942D01*
X180663527Y-101158636D01*
X180644529Y-101146754D01*
X180626578Y-101140086D01*
X180604017Y-101136829D01*
X180592761Y-101136096D01*
X180552789Y-101137986D01*
X180520968Y-101148800D01*
X180496104Y-101169155D01*
X180479468Y-101194574D01*
X180471785Y-101211631D01*
X180467075Y-101228228D01*
X180464651Y-101248334D01*
X180463823Y-101275915D01*
X180463784Y-101284860D01*
X180464284Y-101315618D01*
X180466301Y-101337822D01*
X180470469Y-101355391D01*
X180477424Y-101372244D01*
X180478192Y-101373825D01*
X180498541Y-101402264D01*
X180526235Y-101422349D01*
X180558967Y-101433672D01*
X180594431Y-101435831D01*
X180630322Y-101428417D01*
X180664332Y-101411027D01*
X180669273Y-101407423D01*
X180691728Y-101390296D01*
X180715038Y-101408782D01*
X180732005Y-101423044D01*
X180746622Y-101436658D01*
X180750257Y-101440459D01*
X180758232Y-101450513D01*
X180757684Y-101457808D01*
X180750257Y-101466882D01*
X180725455Y-101488747D01*
X180693092Y-101509273D01*
X180658013Y-101525538D01*
X180646201Y-101529619D01*
X180617901Y-101537074D01*
X180592670Y-101539908D01*
X180564978Y-101538394D01*
X180540997Y-101534867D01*
X180503084Y-101523771D01*
X180464798Y-101504577D01*
X180431687Y-101480200D01*
X180425283Y-101474062D01*
X180398355Y-101438354D01*
X180378320Y-101394106D01*
X180365743Y-101343558D01*
X180361187Y-101288952D01*
X180364978Y-101234132D01*
X180378010Y-101177468D01*
X180399298Y-101130168D01*
X180428973Y-101092091D01*
X180467166Y-101063097D01*
X180514008Y-101043047D01*
X180552129Y-101034238D01*
X180579430Y-101030690D01*
X180601509Y-101030847D01*
G37*
G36*
X178804993Y-101032866D02*
G01*
X178840637Y-101038275D01*
X178873668Y-101045958D01*
X178896464Y-101053902D01*
X178920117Y-101065462D01*
X178941322Y-101077807D01*
X178957357Y-101089151D01*
X178965498Y-101097712D01*
X178965994Y-101099442D01*
X178962224Y-101106483D01*
X178952270Y-101120032D01*
X178938238Y-101137233D01*
X178937362Y-101138261D01*
X178908687Y-101171826D01*
X178873984Y-101152241D01*
X178843154Y-101139083D01*
X178808288Y-101130912D01*
X178773299Y-101128109D01*
X178742099Y-101131058D01*
X178723074Y-101137511D01*
X178703593Y-101152755D01*
X178693470Y-101171678D01*
X178692969Y-101191409D01*
X178702354Y-101209077D01*
X178715585Y-101219017D01*
X178730993Y-101224231D01*
X178753941Y-101228876D01*
X178779470Y-101231950D01*
X178779572Y-101231958D01*
X178831511Y-101237225D01*
X178872705Y-101244565D01*
X178904838Y-101254699D01*
X178929596Y-101268351D01*
X178948663Y-101286241D01*
X178963725Y-101309092D01*
X178964924Y-101311383D01*
X178976066Y-101343406D01*
X178980401Y-101379819D01*
X178977763Y-101415604D01*
X178969302Y-101443098D01*
X178947979Y-101474060D01*
X178916943Y-101499812D01*
X178878152Y-101519634D01*
X178833563Y-101532800D01*
X178785133Y-101538589D01*
X178734821Y-101536276D01*
X178722227Y-101534356D01*
X178697655Y-101528252D01*
X178669134Y-101518572D01*
X178648164Y-101509800D01*
X178625295Y-101497956D01*
X178602422Y-101484200D01*
X178582168Y-101470355D01*
X178567159Y-101458242D01*
X178560020Y-101449685D01*
X178559766Y-101448437D01*
X178564172Y-101442578D01*
X178575719Y-101430995D01*
X178592020Y-101416063D01*
X178594092Y-101414239D01*
X178628338Y-101384204D01*
X178656459Y-101403552D01*
X178694532Y-101425264D01*
X178733364Y-101437304D01*
X178777777Y-101441144D01*
X178779478Y-101441148D01*
X178820015Y-101438206D01*
X178849687Y-101429297D01*
X178868679Y-101414300D01*
X178877179Y-101393094D01*
X178877327Y-101377399D01*
X178873565Y-101362105D01*
X178864649Y-101350542D01*
X178848918Y-101341940D01*
X178824711Y-101335525D01*
X178790366Y-101330527D01*
X178772439Y-101328656D01*
X178721491Y-101321892D01*
X178681236Y-101312022D01*
X178650083Y-101298253D01*
X178626437Y-101279793D01*
X178608707Y-101255849D01*
X178602760Y-101244225D01*
X178595509Y-101221819D01*
X178591411Y-101196215D01*
X178591082Y-101188686D01*
X178596006Y-101144007D01*
X178611189Y-101106461D01*
X178636596Y-101076083D01*
X178672194Y-101052908D01*
X178717948Y-101036969D01*
X178744966Y-101031672D01*
X178771511Y-101030432D01*
X178804993Y-101032866D01*
G37*
G36*
X180204657Y-101827579D02*
G01*
X180240685Y-101846426D01*
X180243377Y-101851283D01*
X180240490Y-101859879D01*
X180231049Y-101873992D01*
X180214080Y-101895397D01*
X180213301Y-101896346D01*
X180177206Y-101940221D01*
X180152728Y-101927462D01*
X180121401Y-101917525D01*
X180089879Y-101918753D01*
X180060887Y-101930292D01*
X180037153Y-101951290D01*
X180027245Y-101966722D01*
X180023882Y-101974595D01*
X180021277Y-101984474D01*
X180019335Y-101997944D01*
X180017964Y-102016591D01*
X180017070Y-102042000D01*
X180016559Y-102075757D01*
X180016338Y-102119446D01*
X180016305Y-102152261D01*
X180016295Y-102316364D01*
X179916271Y-102316364D01*
X179916271Y-101822492D01*
X180016295Y-101822492D01*
X180016295Y-101866889D01*
X180038163Y-101850210D01*
X180076140Y-101828756D01*
X180118323Y-101817800D01*
X180162050Y-101817391D01*
X180204657Y-101827579D01*
G37*
G36*
X179041506Y-101226460D02*
G01*
X179046502Y-101187000D01*
X179054405Y-101155404D01*
X179056555Y-101149796D01*
X179079754Y-101109152D01*
X179110843Y-101076667D01*
X179148002Y-101052621D01*
X179189414Y-101037294D01*
X179233257Y-101030968D01*
X179277715Y-101033922D01*
X179320966Y-101046438D01*
X179361192Y-101068796D01*
X179393529Y-101097813D01*
X179411421Y-101119655D01*
X179424676Y-101141350D01*
X179433932Y-101165289D01*
X179439824Y-101193867D01*
X179442988Y-101229476D01*
X179444061Y-101274509D01*
X179444076Y-101287986D01*
X179443784Y-101325881D01*
X179442898Y-101353993D01*
X179441118Y-101375039D01*
X179438143Y-101391735D01*
X179433674Y-101406799D01*
X179429811Y-101417035D01*
X179411370Y-101450013D01*
X179384392Y-101481539D01*
X179352615Y-101507797D01*
X179326858Y-101522182D01*
X179292214Y-101532546D01*
X179251970Y-101537441D01*
X179212045Y-101536265D01*
X179202256Y-101534858D01*
X179156169Y-101520832D01*
X179115489Y-101496331D01*
X179082048Y-101462762D01*
X179059063Y-101424669D01*
X179049981Y-101396055D01*
X179043654Y-101358582D01*
X179040112Y-101315596D01*
X179039614Y-101284622D01*
X179141217Y-101284622D01*
X179142648Y-101330243D01*
X179147290Y-101365237D01*
X179155962Y-101391248D01*
X179169484Y-101409919D01*
X179188675Y-101422895D01*
X179214355Y-101431820D01*
X179214593Y-101431881D01*
X179251133Y-101435735D01*
X179284176Y-101428316D01*
X179303136Y-101417466D01*
X179319187Y-101403558D01*
X179330564Y-101388017D01*
X179338008Y-101368462D01*
X179342256Y-101342510D01*
X179344048Y-101307778D01*
X179344255Y-101284860D01*
X179343996Y-101250861D01*
X179342989Y-101226662D01*
X179340888Y-101209566D01*
X179337345Y-101196874D01*
X179332015Y-101185891D01*
X179331414Y-101184856D01*
X179308888Y-101157289D01*
X179280170Y-101140568D01*
X179245487Y-101134825D01*
X179244771Y-101134823D01*
X179208643Y-101139473D01*
X179180344Y-101153670D01*
X179159209Y-101177788D01*
X179155146Y-101185059D01*
X179148871Y-101198870D01*
X179144778Y-101213081D01*
X179142430Y-101230809D01*
X179141393Y-101255170D01*
X179141217Y-101284622D01*
X179039614Y-101284622D01*
X179039386Y-101270440D01*
X179041506Y-101226460D01*
G37*
G36*
X178194604Y-101826084D02*
G01*
X178208038Y-101831643D01*
X178225721Y-101840697D01*
X178237637Y-101848371D01*
X178240859Y-101852103D01*
X178237110Y-101858956D01*
X178227104Y-101872800D01*
X178212699Y-101891116D01*
X178206211Y-101899025D01*
X178171564Y-101940766D01*
X178151510Y-101928539D01*
X178122073Y-101917323D01*
X178091339Y-101917030D01*
X178062211Y-101926808D01*
X178037596Y-101945807D01*
X178023618Y-101966039D01*
X178019326Y-101975062D01*
X178016009Y-101984136D01*
X178013541Y-101994943D01*
X178011797Y-102009165D01*
X178010651Y-102028483D01*
X178009980Y-102054579D01*
X178009657Y-102089135D01*
X178009557Y-102133833D01*
X178009552Y-102155148D01*
X178009552Y-102316364D01*
X177909527Y-102316364D01*
X177909527Y-101822492D01*
X178009552Y-101822492D01*
X178009552Y-101873479D01*
X178034510Y-101852115D01*
X178069677Y-101829909D01*
X178109812Y-101817965D01*
X178152320Y-101816588D01*
X178194604Y-101826084D01*
G37*
G36*
X179412160Y-102127731D02*
G01*
X179429204Y-102090661D01*
X179456470Y-102060461D01*
X179491166Y-102038873D01*
X179504641Y-102033518D01*
X179519849Y-102029665D01*
X179539330Y-102026992D01*
X179565625Y-102025178D01*
X179601272Y-102023901D01*
X179611508Y-102023639D01*
X179703718Y-102021395D01*
X179703718Y-101985151D01*
X179701906Y-101958354D01*
X179696080Y-101940986D01*
X179692778Y-101936416D01*
X179673483Y-101922661D01*
X179646317Y-101913843D01*
X179614722Y-101909950D01*
X179582142Y-101910970D01*
X179552017Y-101916890D01*
X179527791Y-101927698D01*
X179517083Y-101937041D01*
X179511803Y-101941568D01*
X179505094Y-101941431D01*
X179494425Y-101935615D01*
X179477263Y-101923106D01*
X179471759Y-101918889D01*
X179453957Y-101904545D01*
X179440878Y-101892775D01*
X179435007Y-101885840D01*
X179434902Y-101885369D01*
X179440034Y-101875735D01*
X179453395Y-101862921D01*
X179471931Y-101849137D01*
X179492592Y-101836593D01*
X179512323Y-101827500D01*
X179516934Y-101825971D01*
X179550419Y-101819434D01*
X179590894Y-101816642D01*
X179633431Y-101817574D01*
X179673099Y-101822206D01*
X179693603Y-101826788D01*
X179726910Y-101840802D01*
X179756988Y-101862037D01*
X179780895Y-101887853D01*
X179795686Y-101915610D01*
X179796832Y-101919391D01*
X179798948Y-101933792D01*
X179800719Y-101959654D01*
X179802110Y-101995939D01*
X179803087Y-102041609D01*
X179803618Y-102095627D01*
X179803708Y-102130380D01*
X179803743Y-102316364D01*
X179703718Y-102316364D01*
X179703718Y-102277743D01*
X179684770Y-102293687D01*
X179665426Y-102306380D01*
X179644052Y-102315657D01*
X179642572Y-102316088D01*
X179611789Y-102321122D01*
X179575335Y-102321914D01*
X179539050Y-102318670D01*
X179508775Y-102311592D01*
X179508277Y-102311415D01*
X179468546Y-102291309D01*
X179437830Y-102263522D01*
X179416896Y-102229519D01*
X179406511Y-102190767D01*
X179407018Y-102167890D01*
X179503868Y-102167890D01*
X179508943Y-102192406D01*
X179523430Y-102210436D01*
X179542582Y-102219062D01*
X179560019Y-102222948D01*
X179569310Y-102225129D01*
X179587551Y-102226973D01*
X179611875Y-102226227D01*
X179637737Y-102223400D01*
X179660592Y-102219004D01*
X179675897Y-102213552D01*
X179676727Y-102213041D01*
X179692007Y-102197765D01*
X179700746Y-102175220D01*
X179703708Y-102143370D01*
X179703718Y-102140914D01*
X179703718Y-102110063D01*
X179625163Y-102110063D01*
X179582674Y-102110933D01*
X179551100Y-102114020D01*
X179528942Y-102120037D01*
X179514704Y-102129699D01*
X179506887Y-102143719D01*
X179503994Y-102162813D01*
X179503868Y-102167890D01*
X179407018Y-102167890D01*
X179407442Y-102148733D01*
X179412160Y-102127731D01*
G37*
G36*
X178150442Y-101034882D02*
G01*
X178186102Y-101045112D01*
X178193972Y-101048819D01*
X178228855Y-101071184D01*
X178254806Y-101099025D01*
X178273344Y-101131697D01*
X178277470Y-101141130D01*
X178280745Y-101150541D01*
X178283289Y-101161486D01*
X178285218Y-101175524D01*
X178286651Y-101194211D01*
X178287704Y-101219104D01*
X178288497Y-101251759D01*
X178289146Y-101293735D01*
X178289770Y-101346587D01*
X178289799Y-101349199D01*
X178291853Y-101535443D01*
X178239787Y-101533619D01*
X178187720Y-101531796D01*
X178184595Y-101363004D01*
X178183575Y-101311895D01*
X178182549Y-101271741D01*
X178181394Y-101240997D01*
X178179989Y-101218116D01*
X178178209Y-101201551D01*
X178175933Y-101189755D01*
X178173038Y-101181182D01*
X178169681Y-101174742D01*
X178149871Y-101151841D01*
X178123501Y-101138765D01*
X178091109Y-101134823D01*
X178057441Y-101138614D01*
X178031657Y-101150786D01*
X178011404Y-101172537D01*
X178008592Y-101176869D01*
X178004193Y-101184343D01*
X178000752Y-101191994D01*
X177998127Y-101201420D01*
X177996179Y-101214222D01*
X177994768Y-101232000D01*
X177993755Y-101256355D01*
X177992999Y-101288886D01*
X177992361Y-101331193D01*
X177991906Y-101367693D01*
X177989890Y-101534921D01*
X177890772Y-101534921D01*
X177890772Y-101034798D01*
X177990797Y-101034798D01*
X177990797Y-101059804D01*
X177992096Y-101077629D01*
X177996851Y-101083696D01*
X178006349Y-101078500D01*
X178015655Y-101069339D01*
X178041534Y-101050183D01*
X178074838Y-101037800D01*
X178112247Y-101032572D01*
X178150442Y-101034882D01*
G37*
G36*
X180796994Y-101203537D02*
G01*
X180814106Y-101150495D01*
X180839239Y-101106780D01*
X180872169Y-101072633D01*
X180912671Y-101048291D01*
X180955267Y-101034995D01*
X181004392Y-101031200D01*
X181052096Y-101039477D01*
X181096916Y-101059394D01*
X181134516Y-101087789D01*
X181158249Y-101113071D01*
X181175270Y-101139451D01*
X181186639Y-101169731D01*
X181193417Y-101206718D01*
X181196622Y-101252039D01*
X181199186Y-101322369D01*
X180891511Y-101322369D01*
X180891511Y-101339799D01*
X180895703Y-101361144D01*
X180906490Y-101385823D01*
X180921184Y-101408790D01*
X180936750Y-101424748D01*
X180956254Y-101433555D01*
X180983149Y-101438956D01*
X181012681Y-101440513D01*
X181040095Y-101437786D01*
X181049955Y-101435217D01*
X181070103Y-101426624D01*
X181091265Y-101414850D01*
X181094816Y-101412524D01*
X181117443Y-101397169D01*
X181151388Y-101426170D01*
X181168093Y-101441098D01*
X181180211Y-101453179D01*
X181185302Y-101459966D01*
X181185333Y-101460207D01*
X181180910Y-101466868D01*
X181169731Y-101477882D01*
X181163250Y-101483447D01*
X181117918Y-101512941D01*
X181067452Y-101531787D01*
X181014105Y-101539426D01*
X180960130Y-101535295D01*
X180957152Y-101534708D01*
X180908788Y-101519074D01*
X180868048Y-101493624D01*
X180835298Y-101458724D01*
X180810903Y-101414741D01*
X180798300Y-101375969D01*
X180794012Y-101349379D01*
X180791549Y-101315025D01*
X180790946Y-101277519D01*
X180792238Y-101241472D01*
X180792278Y-101241099D01*
X180891511Y-101241099D01*
X181099203Y-101241099D01*
X181094909Y-101217656D01*
X181083114Y-101181713D01*
X181063028Y-101154311D01*
X181035667Y-101136359D01*
X181002051Y-101128768D01*
X180995202Y-101128571D01*
X180966697Y-101131620D01*
X180942480Y-101139698D01*
X180941581Y-101140170D01*
X180922437Y-101155933D01*
X180905765Y-101179124D01*
X180894550Y-101204786D01*
X180891511Y-101223328D01*
X180891511Y-101241099D01*
X180792278Y-101241099D01*
X180795460Y-101211494D01*
X180796994Y-101203537D01*
G37*
G36*
X179636230Y-101206023D02*
G01*
X179636826Y-101257054D01*
X179637463Y-101297104D01*
X179638263Y-101327694D01*
X179639342Y-101350346D01*
X179640819Y-101366580D01*
X179642814Y-101377918D01*
X179645445Y-101385882D01*
X179648831Y-101391993D01*
X179650967Y-101394994D01*
X179672121Y-101418186D01*
X179694753Y-101431097D01*
X179722631Y-101435738D01*
X179727515Y-101435845D01*
X179762195Y-101431554D01*
X179789314Y-101417627D01*
X179810032Y-101393387D01*
X179814683Y-101384980D01*
X179818974Y-101376003D01*
X179822291Y-101366969D01*
X179824759Y-101356197D01*
X179826504Y-101342008D01*
X179827649Y-101322721D01*
X179828321Y-101296655D01*
X179828644Y-101262131D01*
X179828744Y-101217468D01*
X179828749Y-101196014D01*
X179828749Y-101034798D01*
X179928774Y-101034798D01*
X179928774Y-101534921D01*
X179828749Y-101534921D01*
X179828749Y-101485754D01*
X179797699Y-101506650D01*
X179756748Y-101527917D01*
X179714322Y-101538291D01*
X179672687Y-101537289D01*
X179663083Y-101535307D01*
X179619802Y-101518638D01*
X179583647Y-101491845D01*
X179555395Y-101455573D01*
X179546235Y-101438022D01*
X179542111Y-101428638D01*
X179538862Y-101419436D01*
X179536383Y-101408855D01*
X179534569Y-101395328D01*
X179533318Y-101377292D01*
X179532523Y-101353183D01*
X179532080Y-101321436D01*
X179531886Y-101280487D01*
X179531835Y-101228771D01*
X179531833Y-101222344D01*
X179531801Y-101037924D01*
X179583092Y-101036113D01*
X179634384Y-101034302D01*
X179636230Y-101206023D01*
G37*
G36*
X179138897Y-101991002D02*
G01*
X179153066Y-102034228D01*
X179166158Y-102073047D01*
X179177658Y-102106018D01*
X179187048Y-102131696D01*
X179193813Y-102148638D01*
X179197434Y-102155400D01*
X179197744Y-102155395D01*
X179200441Y-102148314D01*
X179205879Y-102130806D01*
X179213581Y-102104524D01*
X179223070Y-102071124D01*
X179233867Y-102032260D01*
X179244192Y-101994409D01*
X179255730Y-101951880D01*
X179266300Y-101913149D01*
X179275434Y-101879913D01*
X179282664Y-101853867D01*
X179287522Y-101836707D01*
X179289463Y-101830306D01*
X179296500Y-101825953D01*
X179314142Y-101823390D01*
X179343263Y-101822495D01*
X179345593Y-101822492D01*
X179372597Y-101822977D01*
X179388722Y-101824595D01*
X179395557Y-101827595D01*
X179395810Y-101830306D01*
X179393068Y-101838505D01*
X179387194Y-101856612D01*
X179378836Y-101882618D01*
X179368638Y-101914513D01*
X179357248Y-101950288D01*
X179357133Y-101950649D01*
X179343173Y-101994526D01*
X179326840Y-102045767D01*
X179309585Y-102099832D01*
X179292855Y-102152180D01*
X179280824Y-102189770D01*
X179240272Y-102316364D01*
X179150124Y-102316364D01*
X179100625Y-102150315D01*
X179087580Y-102106932D01*
X179075537Y-102067601D01*
X179064992Y-102033880D01*
X179056436Y-102007325D01*
X179050366Y-101989492D01*
X179047274Y-101981938D01*
X179047145Y-101981806D01*
X179044412Y-101986899D01*
X179038679Y-102002504D01*
X179030431Y-102027128D01*
X179020155Y-102059276D01*
X179008337Y-102097454D01*
X178995463Y-102140166D01*
X178993643Y-102146291D01*
X178944123Y-102313238D01*
X178898726Y-102315076D01*
X178872579Y-102315366D01*
X178857095Y-102313492D01*
X178850583Y-102309237D01*
X178850413Y-102308825D01*
X178847099Y-102298944D01*
X178840681Y-102279200D01*
X178831648Y-102251135D01*
X178820488Y-102216289D01*
X178807692Y-102176204D01*
X178793747Y-102132421D01*
X178779143Y-102086480D01*
X178764369Y-102039923D01*
X178749913Y-101994290D01*
X178736265Y-101951123D01*
X178723914Y-101911962D01*
X178713348Y-101878349D01*
X178705056Y-101851824D01*
X178699528Y-101833929D01*
X178697252Y-101826205D01*
X178697221Y-101826029D01*
X178702992Y-101824426D01*
X178718387Y-101823203D01*
X178740526Y-101822550D01*
X178750065Y-101822492D01*
X178802909Y-101822492D01*
X178808448Y-101842810D01*
X178811600Y-101854430D01*
X178817486Y-101876182D01*
X178825582Y-101906124D01*
X178835362Y-101942316D01*
X178846303Y-101982819D01*
X178854065Y-102011565D01*
X178865233Y-102052475D01*
X178875456Y-102089062D01*
X178884258Y-102119694D01*
X178891165Y-102142741D01*
X178895701Y-102156573D01*
X178897270Y-102159917D01*
X178899908Y-102154185D01*
X178905805Y-102138040D01*
X178914449Y-102112989D01*
X178925330Y-102080542D01*
X178937936Y-102042207D01*
X178951757Y-101999491D01*
X178953927Y-101992724D01*
X179007459Y-101825618D01*
X179045839Y-101823764D01*
X179084219Y-101821911D01*
X179138897Y-101991002D01*
G37*
G36*
X178881147Y-97321406D02*
G01*
X178931844Y-97321508D01*
X178972396Y-97321748D01*
X179003982Y-97322181D01*
X179027781Y-97322864D01*
X179044972Y-97323854D01*
X179056734Y-97325207D01*
X179064246Y-97326980D01*
X179068686Y-97329228D01*
X179071235Y-97332010D01*
X179072108Y-97333505D01*
X179074678Y-97342210D01*
X179079204Y-97361795D01*
X179085398Y-97390839D01*
X179092971Y-97427921D01*
X179101633Y-97471621D01*
X179111095Y-97520520D01*
X179121068Y-97573196D01*
X179122715Y-97582004D01*
X179132763Y-97634967D01*
X179142416Y-97684209D01*
X179151379Y-97728339D01*
X179159355Y-97765968D01*
X179166050Y-97795705D01*
X179171165Y-97816161D01*
X179174407Y-97825946D01*
X179174759Y-97826457D01*
X179183050Y-97831406D01*
X179201149Y-97840103D01*
X179227202Y-97851788D01*
X179259352Y-97865700D01*
X179295746Y-97881079D01*
X179334530Y-97897166D01*
X179373848Y-97913200D01*
X179411846Y-97928422D01*
X179446669Y-97942071D01*
X179476463Y-97953387D01*
X179499374Y-97961611D01*
X179513546Y-97965981D01*
X179516449Y-97966485D01*
X179525327Y-97963783D01*
X179542018Y-97955093D01*
X179566931Y-97940158D01*
X179600477Y-97918719D01*
X179643064Y-97890517D01*
X179695103Y-97855294D01*
X179725329Y-97834601D01*
X179777697Y-97798641D01*
X179820738Y-97769134D01*
X179855437Y-97745465D01*
X179882782Y-97727019D01*
X179903759Y-97713181D01*
X179919353Y-97703336D01*
X179930552Y-97696870D01*
X179938342Y-97693169D01*
X179943709Y-97691616D01*
X179947639Y-97691597D01*
X179951120Y-97692499D01*
X179952570Y-97692967D01*
X179960560Y-97698500D01*
X179975784Y-97711775D01*
X179997068Y-97731596D01*
X180023237Y-97756767D01*
X180053115Y-97786092D01*
X180085527Y-97818373D01*
X180119298Y-97852415D01*
X180153254Y-97887023D01*
X180186218Y-97920999D01*
X180217015Y-97953147D01*
X180244472Y-97982271D01*
X180267411Y-98007176D01*
X180284659Y-98026664D01*
X180295040Y-98039539D01*
X180297615Y-98044199D01*
X180294175Y-98052076D01*
X180284375Y-98069008D01*
X180268993Y-98093784D01*
X180248809Y-98125195D01*
X180224600Y-98162031D01*
X180197147Y-98203082D01*
X180167227Y-98247138D01*
X180163207Y-98253009D01*
X180122854Y-98312317D01*
X180089586Y-98362165D01*
X180063476Y-98402440D01*
X180044595Y-98433026D01*
X180033018Y-98453809D01*
X180028815Y-98464674D01*
X180028798Y-98465039D01*
X180031265Y-98476109D01*
X180038147Y-98496451D01*
X180048667Y-98524271D01*
X180062049Y-98557776D01*
X180077517Y-98595174D01*
X180094294Y-98634672D01*
X180111604Y-98674476D01*
X180128669Y-98712794D01*
X180144714Y-98747833D01*
X180158962Y-98777799D01*
X180170636Y-98800900D01*
X180178960Y-98815343D01*
X180182200Y-98819235D01*
X180191142Y-98822301D01*
X180210912Y-98827253D01*
X180240031Y-98833780D01*
X180277017Y-98841570D01*
X180320392Y-98850311D01*
X180368676Y-98859689D01*
X180416633Y-98868699D01*
X180468208Y-98878325D01*
X180516311Y-98887474D01*
X180559453Y-98895851D01*
X180596144Y-98903158D01*
X180624892Y-98909099D01*
X180644209Y-98913378D01*
X180652389Y-98915600D01*
X180666455Y-98921510D01*
X180666455Y-99171037D01*
X180666424Y-99233644D01*
X180666298Y-99284903D01*
X180666026Y-99325969D01*
X180665559Y-99357997D01*
X180664848Y-99382144D01*
X180663842Y-99399563D01*
X180662492Y-99411409D01*
X180660748Y-99418839D01*
X180658561Y-99423007D01*
X180655881Y-99425069D01*
X180655515Y-99425233D01*
X180647027Y-99427428D01*
X180627696Y-99431615D01*
X180598973Y-99437504D01*
X180562310Y-99444806D01*
X180519156Y-99453233D01*
X180470964Y-99462496D01*
X180419886Y-99472173D01*
X180357302Y-99484073D01*
X180306124Y-99494106D01*
X180265429Y-99502480D01*
X180234294Y-99509406D01*
X180211796Y-99515095D01*
X180197011Y-99519757D01*
X180189017Y-99523601D01*
X180187399Y-99525108D01*
X180183171Y-99533448D01*
X180174987Y-99551875D01*
X180163493Y-99578850D01*
X180149333Y-99612836D01*
X180133154Y-99652294D01*
X180115600Y-99695684D01*
X180109757Y-99710250D01*
X180086766Y-99768390D01*
X180068743Y-99815565D01*
X180055535Y-99852215D01*
X180046988Y-99878780D01*
X180042947Y-99895701D01*
X180042675Y-99901813D01*
X180046784Y-99910820D01*
X180057228Y-99928777D01*
X180073175Y-99954391D01*
X180093791Y-99986366D01*
X180118245Y-100023409D01*
X180145704Y-100064226D01*
X180171526Y-100102001D01*
X180200757Y-100144746D01*
X180227592Y-100184557D01*
X180251223Y-100220192D01*
X180270844Y-100250411D01*
X180285648Y-100273972D01*
X180294828Y-100289635D01*
X180297615Y-100295948D01*
X180293317Y-100302628D01*
X180281062Y-100317065D01*
X180261804Y-100338246D01*
X180236498Y-100365158D01*
X180206098Y-100396790D01*
X180171561Y-100432130D01*
X180133840Y-100470165D01*
X180123656Y-100480343D01*
X180078398Y-100525362D01*
X180041083Y-100562140D01*
X180010928Y-100591390D01*
X179987149Y-100613827D01*
X179968962Y-100630161D01*
X179955583Y-100641106D01*
X179946229Y-100647376D01*
X179940115Y-100649681D01*
X179937673Y-100649458D01*
X179929838Y-100644975D01*
X179912983Y-100634229D01*
X179888375Y-100618066D01*
X179857281Y-100597330D01*
X179820970Y-100572865D01*
X179780708Y-100545514D01*
X179744985Y-100521082D01*
X179702442Y-100492128D01*
X179662776Y-100465574D01*
X179627250Y-100442232D01*
X179597128Y-100422915D01*
X179573673Y-100408434D01*
X179558149Y-100399601D01*
X179552152Y-100397141D01*
X179542529Y-100399990D01*
X179524245Y-100407827D01*
X179499579Y-100419591D01*
X179470814Y-100434219D01*
X179457747Y-100441128D01*
X179428011Y-100456520D01*
X179401454Y-100469313D01*
X179380329Y-100478494D01*
X179366887Y-100483047D01*
X179363996Y-100483325D01*
X179360606Y-100480452D01*
X179355281Y-100472185D01*
X179347738Y-100457879D01*
X179337691Y-100436888D01*
X179324857Y-100408569D01*
X179308951Y-100372276D01*
X179289691Y-100327365D01*
X179266790Y-100273190D01*
X179239967Y-100209107D01*
X179208935Y-100134472D01*
X179187390Y-100082449D01*
X179159701Y-100015343D01*
X179133469Y-99951434D01*
X179109081Y-99891689D01*
X179086927Y-99837076D01*
X179067393Y-99788561D01*
X179050869Y-99747111D01*
X179037743Y-99713694D01*
X179028403Y-99689276D01*
X179023237Y-99674824D01*
X179022301Y-99671273D01*
X179027759Y-99659847D01*
X179042657Y-99646321D01*
X179048870Y-99642067D01*
X179066656Y-99630132D01*
X179090060Y-99613793D01*
X179114684Y-99596131D01*
X179120392Y-99591960D01*
X179181133Y-99539961D01*
X179232184Y-99480842D01*
X179273213Y-99415777D01*
X179303886Y-99345939D01*
X179323874Y-99272501D01*
X179332842Y-99196636D01*
X179330458Y-99119516D01*
X179316391Y-99042314D01*
X179294669Y-98976684D01*
X179275103Y-98933811D01*
X179252112Y-98895186D01*
X179223393Y-98857485D01*
X179186644Y-98817386D01*
X179178589Y-98809248D01*
X179123189Y-98759993D01*
X179065487Y-98721533D01*
X179002639Y-98692173D01*
X178956660Y-98676870D01*
X178911965Y-98667565D01*
X178859790Y-98662421D01*
X178804444Y-98661439D01*
X178750236Y-98664619D01*
X178701475Y-98671961D01*
X178681592Y-98676870D01*
X178607943Y-98704327D01*
X178539930Y-98742104D01*
X178478567Y-98789119D01*
X178424869Y-98844286D01*
X178379850Y-98906523D01*
X178344525Y-98974745D01*
X178319907Y-99047870D01*
X178315233Y-99068288D01*
X178305205Y-99146841D01*
X178307194Y-99224763D01*
X178320726Y-99300831D01*
X178345328Y-99373825D01*
X178380528Y-99442520D01*
X178425853Y-99505696D01*
X178480829Y-99562131D01*
X178517860Y-99591960D01*
X178542114Y-99609478D01*
X178566222Y-99626425D01*
X178585788Y-99639721D01*
X178589382Y-99642067D01*
X178606766Y-99655750D01*
X178615398Y-99668090D01*
X178615951Y-99671273D01*
X178613612Y-99678954D01*
X178606855Y-99697210D01*
X178596067Y-99725075D01*
X178581637Y-99761580D01*
X178563953Y-99805760D01*
X178543403Y-99856647D01*
X178520376Y-99913273D01*
X178495260Y-99974673D01*
X178468443Y-100039880D01*
X178450862Y-100082449D01*
X178417071Y-100163973D01*
X178387664Y-100234543D01*
X178362357Y-100294804D01*
X178340866Y-100345400D01*
X178322907Y-100386977D01*
X178308197Y-100420179D01*
X178296450Y-100445651D01*
X178287383Y-100464039D01*
X178280712Y-100475986D01*
X178276152Y-100482138D01*
X178274256Y-100483325D01*
X178264888Y-100481117D01*
X178246850Y-100473838D01*
X178222394Y-100462502D01*
X178193773Y-100448123D01*
X178180504Y-100441128D01*
X178150676Y-100425594D01*
X178123967Y-100412468D01*
X178102659Y-100402812D01*
X178089031Y-100397687D01*
X178086100Y-100397141D01*
X178078246Y-100400579D01*
X178061396Y-100410350D01*
X178036813Y-100425642D01*
X178005761Y-100445644D01*
X177969503Y-100469542D01*
X177929302Y-100496526D01*
X177893267Y-100521082D01*
X177850677Y-100550193D01*
X177810980Y-100577125D01*
X177775443Y-100601033D01*
X177745333Y-100621073D01*
X177721918Y-100636400D01*
X177706464Y-100646169D01*
X177700578Y-100649458D01*
X177696034Y-100649190D01*
X177688720Y-100645387D01*
X177677852Y-100637336D01*
X177662647Y-100624324D01*
X177642321Y-100605638D01*
X177616090Y-100580566D01*
X177583169Y-100548395D01*
X177542776Y-100508412D01*
X177514595Y-100480343D01*
X177476205Y-100441775D01*
X177440750Y-100405639D01*
X177409186Y-100372948D01*
X177382468Y-100344715D01*
X177361549Y-100321950D01*
X177347386Y-100305668D01*
X177340934Y-100296879D01*
X177340637Y-100295948D01*
X177344080Y-100288434D01*
X177353871Y-100271907D01*
X177369204Y-100247609D01*
X177389271Y-100216781D01*
X177413266Y-100180662D01*
X177440383Y-100140495D01*
X177466726Y-100102001D01*
X177496129Y-100058944D01*
X177523256Y-100018529D01*
X177547274Y-99982050D01*
X177567351Y-99950802D01*
X177582653Y-99926078D01*
X177592348Y-99909173D01*
X177595576Y-99901813D01*
X177594435Y-99891039D01*
X177588889Y-99870911D01*
X177578786Y-99840990D01*
X177563969Y-99800836D01*
X177544286Y-99750008D01*
X177528495Y-99710250D01*
X177510635Y-99665920D01*
X177493942Y-99625027D01*
X177479062Y-99589110D01*
X177466638Y-99559708D01*
X177457317Y-99538358D01*
X177451744Y-99526600D01*
X177450853Y-99525108D01*
X177445591Y-99521560D01*
X177433950Y-99517289D01*
X177415007Y-99512085D01*
X177387839Y-99505736D01*
X177351523Y-99498034D01*
X177305136Y-99488767D01*
X177247755Y-99477726D01*
X177218366Y-99472173D01*
X177166623Y-99462369D01*
X177118488Y-99453116D01*
X177075411Y-99444702D01*
X177038843Y-99437416D01*
X177010235Y-99431547D01*
X176991039Y-99427385D01*
X176982736Y-99425233D01*
X176979992Y-99423351D01*
X176977747Y-99419504D01*
X176975952Y-99412537D01*
X176974556Y-99401295D01*
X176973511Y-99384623D01*
X176972766Y-99361366D01*
X176972272Y-99330368D01*
X176971979Y-99290474D01*
X176971837Y-99240530D01*
X176971797Y-99179380D01*
X176971796Y-99171037D01*
X176971796Y-98921510D01*
X176985862Y-98915600D01*
X176995116Y-98913125D01*
X177015181Y-98908713D01*
X177044568Y-98902660D01*
X177081787Y-98895264D01*
X177125347Y-98886820D01*
X177173759Y-98877626D01*
X177221618Y-98868699D01*
X177273136Y-98859008D01*
X177321120Y-98849665D01*
X177364090Y-98840982D01*
X177400567Y-98833271D01*
X177429070Y-98826846D01*
X177448119Y-98822017D01*
X177456051Y-98819235D01*
X177461787Y-98811366D01*
X177471377Y-98793676D01*
X177484044Y-98767958D01*
X177499012Y-98736004D01*
X177515504Y-98699609D01*
X177532744Y-98660564D01*
X177549955Y-98620663D01*
X177566360Y-98581699D01*
X177581183Y-98545465D01*
X177593648Y-98513753D01*
X177602978Y-98488357D01*
X177608397Y-98471070D01*
X177609453Y-98465039D01*
X177605739Y-98454831D01*
X177594645Y-98434699D01*
X177576244Y-98404756D01*
X177550608Y-98365116D01*
X177517810Y-98315896D01*
X177477922Y-98257208D01*
X177475045Y-98253009D01*
X177444863Y-98208652D01*
X177417045Y-98167143D01*
X177392372Y-98129693D01*
X177371622Y-98097510D01*
X177355573Y-98071805D01*
X177345005Y-98053787D01*
X177340697Y-98044667D01*
X177340637Y-98044199D01*
X177344916Y-98037244D01*
X177356968Y-98022754D01*
X177375619Y-98001924D01*
X177399693Y-97975950D01*
X177428016Y-97946030D01*
X177459412Y-97913359D01*
X177492706Y-97879134D01*
X177526722Y-97844550D01*
X177560287Y-97810804D01*
X177592224Y-97779093D01*
X177621359Y-97750611D01*
X177646516Y-97726557D01*
X177666520Y-97708125D01*
X177680196Y-97696512D01*
X177685682Y-97692967D01*
X177689344Y-97691885D01*
X177693143Y-97691541D01*
X177698065Y-97692549D01*
X177705096Y-97695523D01*
X177715224Y-97701079D01*
X177729434Y-97709831D01*
X177748712Y-97722393D01*
X177774047Y-97739381D01*
X177806424Y-97761409D01*
X177846830Y-97789091D01*
X177896252Y-97823042D01*
X177913606Y-97834970D01*
X177970558Y-97873858D01*
X178017848Y-97905582D01*
X178055878Y-97930396D01*
X178085052Y-97948554D01*
X178105772Y-97960311D01*
X178118440Y-97965922D01*
X178121797Y-97966505D01*
X178131764Y-97963986D01*
X178151254Y-97957293D01*
X178178412Y-97947186D01*
X178211379Y-97934425D01*
X178248298Y-97919772D01*
X178287311Y-97903987D01*
X178326561Y-97887832D01*
X178364190Y-97872066D01*
X178398340Y-97857451D01*
X178427153Y-97844748D01*
X178448773Y-97834716D01*
X178461342Y-97828118D01*
X178463437Y-97826591D01*
X178466367Y-97818782D01*
X178471213Y-97800058D01*
X178477680Y-97771812D01*
X178485470Y-97735436D01*
X178494288Y-97692320D01*
X178503836Y-97643856D01*
X178513818Y-97591436D01*
X178515559Y-97582108D01*
X178525562Y-97528957D01*
X178535106Y-97479349D01*
X178543901Y-97434706D01*
X178551659Y-97396450D01*
X178558091Y-97366002D01*
X178562906Y-97344783D01*
X178565818Y-97334217D01*
X178566087Y-97333610D01*
X178568149Y-97330535D01*
X178571509Y-97328024D01*
X178577345Y-97326019D01*
X178586837Y-97324464D01*
X178601166Y-97323302D01*
X178621510Y-97322476D01*
X178649048Y-97321928D01*
X178684962Y-97321603D01*
X178730430Y-97321442D01*
X178786631Y-97321388D01*
X178819126Y-97321385D01*
X178881147Y-97321406D01*
G37*
G36*
X177415497Y-102109197D02*
G01*
X177433051Y-102077966D01*
X177444538Y-102065071D01*
X177461312Y-102051137D01*
X177479137Y-102040814D01*
X177500320Y-102033508D01*
X177527170Y-102028623D01*
X177561996Y-102025565D01*
X177604765Y-102023805D01*
X177696975Y-102021179D01*
X177696975Y-101987065D01*
X177695762Y-101965354D01*
X177692660Y-101947205D01*
X177690220Y-101940331D01*
X177676268Y-101926349D01*
X177652852Y-101916125D01*
X177622706Y-101910657D01*
X177607310Y-101910014D01*
X177572413Y-101911474D01*
X177546847Y-101916342D01*
X177527730Y-101925351D01*
X177518723Y-101932518D01*
X177502834Y-101947244D01*
X177465496Y-101918248D01*
X177447604Y-101903767D01*
X177434389Y-101891955D01*
X177428307Y-101885031D01*
X177428159Y-101884491D01*
X177432539Y-101878123D01*
X177443830Y-101866729D01*
X177454560Y-101857132D01*
X177480909Y-101838543D01*
X177510575Y-101826034D01*
X177545985Y-101819008D01*
X177589568Y-101816870D01*
X177615980Y-101817479D01*
X177648514Y-101819268D01*
X177672330Y-101821986D01*
X177691213Y-101826373D01*
X177708947Y-101833171D01*
X177718099Y-101837477D01*
X177752718Y-101859763D01*
X177777557Y-101888681D01*
X177791002Y-101916265D01*
X177793708Y-101927811D01*
X177795988Y-101947444D01*
X177797887Y-101976040D01*
X177799452Y-102014473D01*
X177800725Y-102063620D01*
X177801753Y-102124355D01*
X177801792Y-102127255D01*
X177804349Y-102316364D01*
X177696975Y-102316364D01*
X177696975Y-102277743D01*
X177678026Y-102293687D01*
X177658683Y-102306380D01*
X177637309Y-102315657D01*
X177635828Y-102316088D01*
X177606599Y-102320875D01*
X177571582Y-102321812D01*
X177536842Y-102319020D01*
X177511455Y-102313616D01*
X177471089Y-102295586D01*
X177438420Y-102269802D01*
X177415078Y-102237757D01*
X177406723Y-102217740D01*
X177401322Y-102183167D01*
X177402501Y-102169599D01*
X177497257Y-102169599D01*
X177504156Y-102190733D01*
X177519535Y-102208711D01*
X177542359Y-102220911D01*
X177550418Y-102223036D01*
X177569672Y-102225214D01*
X177595293Y-102225796D01*
X177622829Y-102224946D01*
X177647831Y-102222827D01*
X177665845Y-102219600D01*
X177668549Y-102218712D01*
X177681665Y-102207439D01*
X177691275Y-102186494D01*
X177696396Y-102158452D01*
X177696975Y-102144272D01*
X177696975Y-102109094D01*
X177613063Y-102111141D01*
X177578897Y-102112111D01*
X177554852Y-102113340D01*
X177538551Y-102115238D01*
X177527613Y-102118213D01*
X177519659Y-102122676D01*
X177513039Y-102128344D01*
X177499873Y-102147929D01*
X177497257Y-102169599D01*
X177402501Y-102169599D01*
X177404583Y-102145625D01*
X177415497Y-102109197D01*
G37*
G36*
X180287295Y-101033486D02*
G01*
X180324683Y-101041594D01*
X180352158Y-101054421D01*
X180372720Y-101067129D01*
X180360520Y-101083784D01*
X180349374Y-101098055D01*
X180334083Y-101116505D01*
X180324309Y-101127863D01*
X180300297Y-101155286D01*
X180280512Y-101145054D01*
X180255575Y-101137096D01*
X180226885Y-101135181D01*
X180199775Y-101139232D01*
X180183180Y-101146468D01*
X180172270Y-101153898D01*
X180163622Y-101161178D01*
X180156943Y-101169801D01*
X180151940Y-101181263D01*
X180148320Y-101197055D01*
X180145791Y-101218674D01*
X180144058Y-101247612D01*
X180142830Y-101285364D01*
X180141813Y-101333424D01*
X180141326Y-101359878D01*
X180138200Y-101531796D01*
X180086625Y-101533611D01*
X180035050Y-101535427D01*
X180035050Y-101034293D01*
X180086625Y-101036108D01*
X180138200Y-101037924D01*
X180141326Y-101062400D01*
X180143804Y-101077413D01*
X180146912Y-101081819D01*
X180152185Y-101077481D01*
X180152969Y-101076542D01*
X180178175Y-101055131D01*
X180210995Y-101040593D01*
X180248384Y-101033265D01*
X180287295Y-101033486D01*
G37*
G36*
X180284023Y-101917243D02*
G01*
X180311117Y-101877736D01*
X180345701Y-101847773D01*
X180387421Y-101827742D01*
X180435924Y-101818027D01*
X180442192Y-101817572D01*
X180494552Y-101819762D01*
X180540924Y-101832766D01*
X180580865Y-101856336D01*
X180613934Y-101890225D01*
X180635860Y-101926040D01*
X180644994Y-101945609D01*
X180651105Y-101962495D01*
X180654949Y-101980369D01*
X180657280Y-102002901D01*
X180658853Y-102033763D01*
X180659051Y-102038836D01*
X180661777Y-102110063D01*
X180352232Y-102110063D01*
X180355723Y-102136091D01*
X180365956Y-102167845D01*
X180386246Y-102194784D01*
X180414449Y-102214814D01*
X180447567Y-102225702D01*
X180475311Y-102225929D01*
X180507054Y-102219553D01*
X180537300Y-102208108D01*
X180558837Y-102194629D01*
X180577080Y-102179278D01*
X180610828Y-102207952D01*
X180627777Y-102222762D01*
X180640471Y-102234625D01*
X180646301Y-102241097D01*
X180646374Y-102241256D01*
X180643209Y-102248774D01*
X180631698Y-102260394D01*
X180614413Y-102274124D01*
X180593925Y-102287974D01*
X180572807Y-102299955D01*
X180566716Y-102302895D01*
X180535620Y-102313135D01*
X180498094Y-102319480D01*
X180458902Y-102321604D01*
X180422808Y-102319181D01*
X180400765Y-102314229D01*
X180360568Y-102297912D01*
X180329273Y-102277475D01*
X180303364Y-102250242D01*
X180288506Y-102228842D01*
X180269988Y-102189828D01*
X180257521Y-102142463D01*
X180251588Y-102089588D01*
X180252669Y-102034044D01*
X180253715Y-102023349D01*
X180253871Y-102022541D01*
X180352232Y-102022541D01*
X180559867Y-102022541D01*
X180555995Y-102002224D01*
X180543943Y-101965287D01*
X180524100Y-101937292D01*
X180497408Y-101919018D01*
X180464808Y-101911240D01*
X180446083Y-101911577D01*
X180411879Y-101920467D01*
X180384280Y-101939012D01*
X180364919Y-101965679D01*
X180355723Y-101996513D01*
X180352232Y-102022541D01*
X180253871Y-102022541D01*
X180264771Y-101965909D01*
X180284023Y-101917243D01*
G37*
G36*
X176447924Y-101187908D02*
G01*
X176458378Y-101152103D01*
X176474249Y-101121849D01*
X176496248Y-101094975D01*
X176505719Y-101085789D01*
X176545089Y-101057134D01*
X176588116Y-101039034D01*
X176633003Y-101031129D01*
X176677955Y-101033056D01*
X176721176Y-101044456D01*
X176760871Y-101064967D01*
X176795243Y-101094228D01*
X176822497Y-101131878D01*
X176831926Y-101151377D01*
X176839106Y-101176811D01*
X176844084Y-101211300D01*
X176846863Y-101251595D01*
X176847445Y-101294443D01*
X176845834Y-101336595D01*
X176842031Y-101374798D01*
X176836041Y-101405802D01*
X176831695Y-101418896D01*
X176809178Y-101458289D01*
X176778097Y-101491732D01*
X176741070Y-101516783D01*
X176715483Y-101527277D01*
X176678255Y-101535121D01*
X176637686Y-101537788D01*
X176602458Y-101535036D01*
X176557470Y-101520863D01*
X176516457Y-101495032D01*
X176500899Y-101481091D01*
X176477617Y-101453840D01*
X176460568Y-101423065D01*
X176449113Y-101386692D01*
X176442611Y-101342644D01*
X176440424Y-101288846D01*
X176440416Y-101284860D01*
X176543566Y-101284860D01*
X176544347Y-101325214D01*
X176547187Y-101355524D01*
X176552830Y-101378180D01*
X176562023Y-101395574D01*
X176575509Y-101410094D01*
X176584969Y-101417678D01*
X176612617Y-101431083D01*
X176645090Y-101435697D01*
X176678301Y-101431496D01*
X176708158Y-101418454D01*
X176708193Y-101418431D01*
X176723929Y-101403791D01*
X176735182Y-101382494D01*
X176742390Y-101353015D01*
X176745991Y-101313827D01*
X176746604Y-101284622D01*
X176746359Y-101251832D01*
X176745189Y-101228421D01*
X176742657Y-101211273D01*
X176738328Y-101197271D01*
X176732675Y-101185059D01*
X176713162Y-101159171D01*
X176687431Y-101142271D01*
X176657961Y-101134361D01*
X176627228Y-101135446D01*
X176597709Y-101145528D01*
X176571882Y-101164609D01*
X176556407Y-101184856D01*
X176550893Y-101195818D01*
X176547198Y-101208236D01*
X176544976Y-101224807D01*
X176543882Y-101248228D01*
X176543568Y-101281198D01*
X176543566Y-101284860D01*
X176440416Y-101284860D01*
X176442174Y-101231437D01*
X176447924Y-101187908D01*
G37*
G36*
X177034312Y-101034798D02*
G01*
X177034312Y-101083965D01*
X177065362Y-101063070D01*
X177105543Y-101042547D01*
X177147145Y-101032892D01*
X177188346Y-101033514D01*
X177227328Y-101043821D01*
X177262270Y-101063222D01*
X177291352Y-101091125D01*
X177312756Y-101126939D01*
X177319452Y-101145668D01*
X177323827Y-101168517D01*
X177326986Y-101200754D01*
X177328928Y-101239334D01*
X177329651Y-101281209D01*
X177329156Y-101323333D01*
X177327441Y-101362661D01*
X177324505Y-101396146D01*
X177320348Y-101420742D01*
X177319536Y-101423763D01*
X177302086Y-101462746D01*
X177275496Y-101494870D01*
X177241758Y-101518972D01*
X177202864Y-101533887D01*
X177160806Y-101538451D01*
X177129771Y-101534693D01*
X177107560Y-101527327D01*
X177082338Y-101515433D01*
X177067132Y-101506443D01*
X177034312Y-101484781D01*
X177034312Y-101675886D01*
X177034410Y-101731612D01*
X177034734Y-101775893D01*
X177035329Y-101809785D01*
X177036239Y-101834346D01*
X177037508Y-101850631D01*
X177039180Y-101859698D01*
X177041299Y-101862602D01*
X177042126Y-101862376D01*
X177052225Y-101855746D01*
X177066666Y-101845586D01*
X177068695Y-101844116D01*
X177104462Y-101825430D01*
X177144609Y-101816657D01*
X177186208Y-101817566D01*
X177226329Y-101827927D01*
X177262044Y-101847508D01*
X177277206Y-101860557D01*
X177289897Y-101873460D01*
X177300116Y-101885126D01*
X177308145Y-101897054D01*
X177314265Y-101910744D01*
X177318760Y-101927694D01*
X177321912Y-101949404D01*
X177324002Y-101977373D01*
X177325314Y-102013100D01*
X177326129Y-102058085D01*
X177326729Y-102113827D01*
X177326827Y-102124129D01*
X177328646Y-102316364D01*
X177228109Y-102316364D01*
X177228100Y-102152261D01*
X177227966Y-102097995D01*
X177227397Y-102054721D01*
X177226127Y-102020927D01*
X177223893Y-101995103D01*
X177220429Y-101975738D01*
X177215472Y-101961322D01*
X177208756Y-101950344D01*
X177200018Y-101941294D01*
X177189751Y-101933214D01*
X177162380Y-101920325D01*
X177131479Y-101917062D01*
X177100488Y-101922771D01*
X177072851Y-101936799D01*
X177052008Y-101958494D01*
X177051397Y-101959461D01*
X177047203Y-101966706D01*
X177043920Y-101974412D01*
X177041413Y-101984172D01*
X177039549Y-101997577D01*
X177038195Y-102016222D01*
X177037217Y-102041697D01*
X177036481Y-102075597D01*
X177035855Y-102119512D01*
X177035502Y-102149135D01*
X177033566Y-102316364D01*
X176934287Y-102316364D01*
X176934287Y-101297623D01*
X177033912Y-101297623D01*
X177037243Y-101337414D01*
X177045033Y-101373046D01*
X177057301Y-101401379D01*
X177063296Y-101409764D01*
X177083881Y-101425372D01*
X177111349Y-101434293D01*
X177141777Y-101436127D01*
X177171244Y-101430480D01*
X177188309Y-101422429D01*
X177201924Y-101412073D01*
X177211790Y-101399347D01*
X177218468Y-101382193D01*
X177222518Y-101358556D01*
X177224502Y-101326380D01*
X177224984Y-101287986D01*
X177224699Y-101250724D01*
X177223677Y-101223514D01*
X177221669Y-101203916D01*
X177218425Y-101189489D01*
X177213714Y-101177828D01*
X177197298Y-101154914D01*
X177174605Y-101141064D01*
X177144142Y-101135596D01*
X177121847Y-101136032D01*
X177099125Y-101138336D01*
X177084522Y-101142372D01*
X177073655Y-101149959D01*
X177064800Y-101159694D01*
X177050484Y-101184709D01*
X177040551Y-101218130D01*
X177035021Y-101256815D01*
X177033912Y-101297623D01*
X176934287Y-101297623D01*
X176934287Y-101034798D01*
X177034312Y-101034798D01*
G37*
G36*
X177423894Y-101151101D02*
G01*
X177445798Y-101110073D01*
X177466152Y-101085288D01*
X177502052Y-101057782D01*
X177543372Y-101040143D01*
X177587907Y-101032332D01*
X177633448Y-101034312D01*
X177677787Y-101046044D01*
X177718717Y-101067489D01*
X177746090Y-101090165D01*
X177772648Y-101122759D01*
X177791600Y-101160594D01*
X177803514Y-101205407D01*
X177808960Y-101258930D01*
X177809455Y-101283297D01*
X177809502Y-101322369D01*
X177496359Y-101322369D01*
X177500532Y-101345812D01*
X177511862Y-101381670D01*
X177531116Y-101410031D01*
X177556314Y-101428645D01*
X177592809Y-101439639D01*
X177632307Y-101439834D01*
X177672179Y-101429592D01*
X177709796Y-101409275D01*
X177712864Y-101407052D01*
X177720121Y-101402788D01*
X177727438Y-101402842D01*
X177737584Y-101408362D01*
X177753330Y-101420494D01*
X177761488Y-101427185D01*
X177797349Y-101456777D01*
X177768857Y-101482966D01*
X177746872Y-101500007D01*
X177721673Y-101515062D01*
X177707701Y-101521376D01*
X177672580Y-101531114D01*
X177632941Y-101536766D01*
X177594307Y-101537811D01*
X177566516Y-101534715D01*
X177523452Y-101520874D01*
X177484373Y-101498949D01*
X177461209Y-101479443D01*
X177435244Y-101444730D01*
X177416207Y-101402000D01*
X177404068Y-101353625D01*
X177398797Y-101301975D01*
X177400364Y-101249424D01*
X177401729Y-101241099D01*
X177497238Y-101241099D01*
X177703226Y-101241099D01*
X177703226Y-101223328D01*
X177698339Y-101199179D01*
X177685667Y-101173635D01*
X177668195Y-101151653D01*
X177653156Y-101140170D01*
X177624414Y-101130494D01*
X177592499Y-101128741D01*
X177562371Y-101134794D01*
X177546299Y-101142720D01*
X177524016Y-101164597D01*
X177507796Y-101195361D01*
X177500906Y-101220781D01*
X177497238Y-101241099D01*
X177401729Y-101241099D01*
X177408740Y-101198342D01*
X177423894Y-101151101D01*
G37*
G36*
X178250236Y-102072554D02*
G01*
X178250534Y-102021432D01*
X178251735Y-101980955D01*
X178254295Y-101949270D01*
X178258671Y-101924528D01*
X178265322Y-101904877D01*
X178274704Y-101888465D01*
X178287274Y-101873443D01*
X178303188Y-101858230D01*
X178334730Y-101834925D01*
X178368105Y-101821481D01*
X178407283Y-101816433D01*
X178416627Y-101816302D01*
X178444083Y-101819443D01*
X178473133Y-101827674D01*
X178499405Y-101839342D01*
X178518526Y-101852796D01*
X178521380Y-101855881D01*
X178530540Y-101864273D01*
X178535314Y-101866253D01*
X178537033Y-101860315D01*
X178538695Y-101843758D01*
X178540193Y-101818464D01*
X178541420Y-101786317D01*
X178542268Y-101749201D01*
X178542363Y-101742785D01*
X178544058Y-101619317D01*
X178592508Y-101617491D01*
X178640957Y-101615665D01*
X178640957Y-102316364D01*
X178540932Y-102316364D01*
X178540932Y-102294483D01*
X178539274Y-102278086D01*
X178533775Y-102273470D01*
X178523648Y-102280290D01*
X178519171Y-102284975D01*
X178502795Y-102297019D01*
X178478305Y-102308148D01*
X178450078Y-102316859D01*
X178422487Y-102321651D01*
X178410978Y-102322122D01*
X178386154Y-102319683D01*
X178361202Y-102314243D01*
X178355795Y-102312505D01*
X178322657Y-102295135D01*
X178292302Y-102269005D01*
X178268805Y-102237791D01*
X178264851Y-102230388D01*
X178259907Y-102219724D01*
X178256223Y-102209291D01*
X178253615Y-102197095D01*
X178251897Y-102181143D01*
X178250886Y-102159442D01*
X178250396Y-102129999D01*
X178250278Y-102099486D01*
X178348056Y-102099486D01*
X178352603Y-102141552D01*
X178362300Y-102173685D01*
X178377431Y-102196740D01*
X178398281Y-102211566D01*
X178404451Y-102214097D01*
X178437227Y-102221449D01*
X178468004Y-102217832D01*
X178488365Y-102209811D01*
X178506363Y-102199296D01*
X178519519Y-102186413D01*
X178528537Y-102169164D01*
X178534121Y-102145550D01*
X178536976Y-102113573D01*
X178537804Y-102071233D01*
X178537805Y-102069428D01*
X178537546Y-102034439D01*
X178536547Y-102009222D01*
X178534476Y-101991052D01*
X178531003Y-101977206D01*
X178525794Y-101964958D01*
X178524875Y-101963152D01*
X178506249Y-101939231D01*
X178481259Y-101923665D01*
X178452662Y-101916486D01*
X178423212Y-101917724D01*
X178395665Y-101927411D01*
X178372776Y-101945578D01*
X178362028Y-101961312D01*
X178355445Y-101980902D01*
X178350862Y-102011000D01*
X178348372Y-102046638D01*
X178348056Y-102099486D01*
X178250278Y-102099486D01*
X178250244Y-102090820D01*
X178250236Y-102072554D01*
G37*
%TD*%
%LPC*%
D12*
%TO.C,H2*%
X190754000Y-122682000D03*
%TD*%
%TO.C,H1*%
X190754000Y-90678000D03*
%TD*%
D13*
%TO.C,C1*%
X118049112Y-118745000D03*
D14*
X116049112Y-118745000D03*
%TD*%
D15*
%TO.C,LED2*%
X136144000Y-104140000D03*
D16*
X138684000Y-104140000D03*
X141224000Y-104140000D03*
X143764000Y-104140000D03*
X146304000Y-104140000D03*
X146304000Y-88900000D03*
X143764000Y-88900000D03*
X141224000Y-88900000D03*
X138684000Y-88900000D03*
X136144000Y-88900000D03*
%TD*%
D12*
%TO.C,H4*%
X108204000Y-90678000D03*
%TD*%
D17*
%TO.C,J4*%
X166248000Y-98298000D03*
D18*
X163708000Y-98298000D03*
%TD*%
D15*
%TO.C,LED5*%
X136144000Y-124460000D03*
D16*
X138684000Y-124460000D03*
X141224000Y-124460000D03*
X143764000Y-124460000D03*
X146304000Y-124460000D03*
X146304000Y-109220000D03*
X143764000Y-109220000D03*
X141224000Y-109220000D03*
X138684000Y-109220000D03*
X136144000Y-109220000D03*
%TD*%
D15*
%TO.C,LED3*%
X149479000Y-104140000D03*
D16*
X152019000Y-104140000D03*
X154559000Y-104140000D03*
X157099000Y-104140000D03*
X159639000Y-104140000D03*
X159639000Y-88900000D03*
X157099000Y-88900000D03*
X154559000Y-88900000D03*
X152019000Y-88900000D03*
X149479000Y-88900000D03*
%TD*%
D15*
%TO.C,LED6*%
X149479000Y-124460000D03*
D16*
X152019000Y-124460000D03*
X154559000Y-124460000D03*
X157099000Y-124460000D03*
X159639000Y-124460000D03*
X159639000Y-109220000D03*
X157099000Y-109220000D03*
X154559000Y-109220000D03*
X152019000Y-109220000D03*
X149479000Y-109220000D03*
%TD*%
D19*
%TO.C,R1*%
X185166000Y-114935000D03*
D20*
X185166000Y-122555000D03*
%TD*%
D12*
%TO.C,H3*%
X108204000Y-122682000D03*
%TD*%
D14*
%TO.C,C2*%
X182499000Y-115082000D03*
X182499000Y-117582000D03*
%TD*%
D15*
%TO.C,LED1*%
X122809000Y-104140000D03*
D16*
X125349000Y-104140000D03*
X127889000Y-104140000D03*
X130429000Y-104140000D03*
X132969000Y-104140000D03*
X132969000Y-88900000D03*
X130429000Y-88900000D03*
X127889000Y-88900000D03*
X125349000Y-88900000D03*
X122809000Y-88900000D03*
%TD*%
D15*
%TO.C,LED4*%
X122809000Y-124460000D03*
D16*
X125349000Y-124460000D03*
X127889000Y-124460000D03*
X130429000Y-124460000D03*
X132969000Y-124460000D03*
X132969000Y-109220000D03*
X130429000Y-109220000D03*
X127889000Y-109220000D03*
X125349000Y-109220000D03*
X122809000Y-109220000D03*
%TD*%
D17*
%TO.C,J3*%
X182499000Y-88900000D03*
D18*
X179959000Y-88900000D03*
X177419000Y-88900000D03*
X174879000Y-88900000D03*
X172339000Y-88900000D03*
X169799000Y-88900000D03*
X167259000Y-88900000D03*
X164719000Y-88900000D03*
%TD*%
D17*
%TO.C,J2*%
X185039000Y-101605000D03*
D18*
X185039000Y-104145000D03*
X185039000Y-106685000D03*
X185039000Y-109225000D03*
X185039000Y-111765000D03*
%TD*%
D17*
%TO.C,J1*%
X113849000Y-111755000D03*
D18*
X113849000Y-109215000D03*
X113849000Y-106675000D03*
X113849000Y-104135000D03*
X113849000Y-101595000D03*
%TD*%
D21*
%TO.C,U1*%
X167689000Y-108585000D03*
X167689000Y-109855000D03*
X167689000Y-111125000D03*
X167689000Y-112395000D03*
X167689000Y-113665000D03*
X167689000Y-114935000D03*
X167689000Y-116205000D03*
X167689000Y-117475000D03*
X167689000Y-118745000D03*
X167689000Y-120015000D03*
X167689000Y-121285000D03*
X167689000Y-122555000D03*
X176989000Y-122555000D03*
X176989000Y-121285000D03*
X176989000Y-120015000D03*
X176989000Y-118745000D03*
X176989000Y-117475000D03*
X176989000Y-116205000D03*
X176989000Y-114935000D03*
X176989000Y-113665000D03*
X176989000Y-112395000D03*
X176989000Y-111125000D03*
X176989000Y-109855000D03*
X176989000Y-108585000D03*
%TD*%
M02*
