%FSLAX45Y45*%
G04 Gerber Fmt 4.5, Leading zero omitted, Abs format (unit mm)*
G04 Created by KiCad (PCBNEW (6.0.0)) date 2022-10-09 23:31:44*
%MOMM*%
%LPD*%
G01*
G04 APERTURE LIST*
%TA.AperFunction,Profile*%
%ADD10C,0.100000*%
%TD*%
%ADD11C,0.200000*%
%ADD12C,0.040000*%
%ADD13C,0.080000*%
%ADD14C,0.100000*%
%ADD15C,0.130000*%
G04 APERTURE END LIST*
D10*
X2146200Y-11973500D02*
G75*
G03*
X1790600Y-12329100I0J-355600D01*
G01*
X13754100Y-16992827D02*
X2146200Y-16992600D01*
X14109700Y-12329100D02*
G75*
G03*
X13754100Y-11973500I-355600J0D01*
G01*
X1790600Y-12329100D02*
X1790600Y-16637000D01*
X13754100Y-16992827D02*
G75*
G03*
X14109700Y-16624300I0J355827D01*
G01*
X1790600Y-16637000D02*
G75*
G03*
X2146200Y-16992600I355600J0D01*
G01*
X2146200Y-11973500D02*
X13754100Y-11973500D01*
X14109700Y-12329100D02*
X14109700Y-16624300D01*
D11*
D12*
X3358200Y-12794300D02*
X3398200Y-12834300D01*
X3398200Y-12794300D02*
X3358200Y-12834300D01*
X3624900Y-12794300D02*
X3664900Y-12834300D01*
X3664900Y-12794300D02*
X3624900Y-12834300D01*
X3853500Y-13492800D02*
X3893500Y-13532800D01*
X3893500Y-13492800D02*
X3853500Y-13532800D01*
X3853500Y-13962700D02*
X3893500Y-14002700D01*
X3893500Y-13962700D02*
X3853500Y-14002700D01*
X3891600Y-12794300D02*
X3931600Y-12834300D01*
X3931600Y-12794300D02*
X3891600Y-12834300D01*
X4158300Y-12794300D02*
X4198300Y-12834300D01*
X4198300Y-12794300D02*
X4158300Y-12834300D01*
X4310700Y-13975400D02*
X4350700Y-14015400D01*
X4350700Y-13975400D02*
X4310700Y-14015400D01*
X4361500Y-13886500D02*
X4401500Y-13926500D01*
X4401500Y-13886500D02*
X4361500Y-13926500D01*
X4374200Y-14216700D02*
X4414200Y-14256700D01*
X4414200Y-14216700D02*
X4374200Y-14256700D01*
X4425000Y-12794300D02*
X4465000Y-12834300D01*
X4465000Y-12794300D02*
X4425000Y-12834300D01*
X4691700Y-12794300D02*
X4731700Y-12834300D01*
X4731700Y-12794300D02*
X4691700Y-12834300D01*
X4894900Y-12743500D02*
X4934900Y-12783500D01*
X4934900Y-12743500D02*
X4894900Y-12783500D01*
X4945700Y-13086400D02*
X4985700Y-13126400D01*
X4985700Y-13086400D02*
X4945700Y-13126400D01*
X5060000Y-13162600D02*
X5100000Y-13202600D01*
X5100000Y-13162600D02*
X5060000Y-13202600D01*
X5288600Y-14108596D02*
X5328600Y-14148596D01*
X5328600Y-14108596D02*
X5288600Y-14148596D01*
X5529900Y-14140500D02*
X5569900Y-14180500D01*
X5569900Y-14140500D02*
X5529900Y-14180500D01*
D13*
X3442100Y-14809200D02*
G75*
G03*
X3442100Y-14809200I-40000J0D01*
G01*
X3442100Y-15571200D02*
G75*
G03*
X3442100Y-15571200I-40000J0D01*
G01*
X3696100Y-14809200D02*
G75*
G03*
X3696100Y-14809200I-40000J0D01*
G01*
X3696100Y-15571200D02*
G75*
G03*
X3696100Y-15571200I-40000J0D01*
G01*
X3950100Y-14809200D02*
G75*
G03*
X3950100Y-14809200I-40000J0D01*
G01*
X3950100Y-15571200D02*
G75*
G03*
X3950100Y-15571200I-40000J0D01*
G01*
X4204100Y-14809200D02*
G75*
G03*
X4204100Y-14809200I-40000J0D01*
G01*
X4204100Y-15571200D02*
G75*
G03*
X4204100Y-15571200I-40000J0D01*
G01*
X4458100Y-14809200D02*
G75*
G03*
X4458100Y-14809200I-40000J0D01*
G01*
X4458100Y-15571200D02*
G75*
G03*
X4458100Y-15571200I-40000J0D01*
G01*
X4712100Y-14809200D02*
G75*
G03*
X4712100Y-14809200I-40000J0D01*
G01*
X4712100Y-15571200D02*
G75*
G03*
X4712100Y-15571200I-40000J0D01*
G01*
X4966100Y-14809200D02*
G75*
G03*
X4966100Y-14809200I-40000J0D01*
G01*
X4966100Y-15571200D02*
G75*
G03*
X4966100Y-15571200I-40000J0D01*
G01*
X5220100Y-14809200D02*
G75*
G03*
X5220100Y-14809200I-40000J0D01*
G01*
X5220100Y-15571200D02*
G75*
G03*
X5220100Y-15571200I-40000J0D01*
G01*
X5715400Y-14809200D02*
G75*
G03*
X5715400Y-14809200I-40000J0D01*
G01*
X5715400Y-15571200D02*
G75*
G03*
X5715400Y-15571200I-40000J0D01*
G01*
X5969400Y-14809200D02*
G75*
G03*
X5969400Y-14809200I-40000J0D01*
G01*
X5969400Y-15571200D02*
G75*
G03*
X5969400Y-15571200I-40000J0D01*
G01*
X6223400Y-14809200D02*
G75*
G03*
X6223400Y-14809200I-40000J0D01*
G01*
X6223400Y-15571200D02*
G75*
G03*
X6223400Y-15571200I-40000J0D01*
G01*
X6477400Y-14809200D02*
G75*
G03*
X6477400Y-14809200I-40000J0D01*
G01*
X6477400Y-15571200D02*
G75*
G03*
X6477400Y-15571200I-40000J0D01*
G01*
X6731400Y-14809200D02*
G75*
G03*
X6731400Y-14809200I-40000J0D01*
G01*
X6731400Y-15571200D02*
G75*
G03*
X6731400Y-15571200I-40000J0D01*
G01*
X6985400Y-14809200D02*
G75*
G03*
X6985400Y-14809200I-40000J0D01*
G01*
X6985400Y-15571200D02*
G75*
G03*
X6985400Y-15571200I-40000J0D01*
G01*
X7239400Y-14809200D02*
G75*
G03*
X7239400Y-14809200I-40000J0D01*
G01*
X7239400Y-15571200D02*
G75*
G03*
X7239400Y-15571200I-40000J0D01*
G01*
X7493400Y-14809200D02*
G75*
G03*
X7493400Y-14809200I-40000J0D01*
G01*
X7493400Y-15571200D02*
G75*
G03*
X7493400Y-15571200I-40000J0D01*
G01*
X7976000Y-14809200D02*
G75*
G03*
X7976000Y-14809200I-40000J0D01*
G01*
X7976000Y-15571200D02*
G75*
G03*
X7976000Y-15571200I-40000J0D01*
G01*
X8230000Y-14809200D02*
G75*
G03*
X8230000Y-14809200I-40000J0D01*
G01*
X8230000Y-15571200D02*
G75*
G03*
X8230000Y-15571200I-40000J0D01*
G01*
X8484000Y-14809200D02*
G75*
G03*
X8484000Y-14809200I-40000J0D01*
G01*
X8484000Y-15571200D02*
G75*
G03*
X8484000Y-15571200I-40000J0D01*
G01*
X8738000Y-14809200D02*
G75*
G03*
X8738000Y-14809200I-40000J0D01*
G01*
X8738000Y-15571200D02*
G75*
G03*
X8738000Y-15571200I-40000J0D01*
G01*
X8992000Y-14809200D02*
G75*
G03*
X8992000Y-14809200I-40000J0D01*
G01*
X8992000Y-15571200D02*
G75*
G03*
X8992000Y-15571200I-40000J0D01*
G01*
X9246000Y-14809200D02*
G75*
G03*
X9246000Y-14809200I-40000J0D01*
G01*
X9246000Y-15571200D02*
G75*
G03*
X9246000Y-15571200I-40000J0D01*
G01*
X9500000Y-14809200D02*
G75*
G03*
X9500000Y-14809200I-40000J0D01*
G01*
X9500000Y-15571200D02*
G75*
G03*
X9500000Y-15571200I-40000J0D01*
G01*
X9754000Y-14809200D02*
G75*
G03*
X9754000Y-14809200I-40000J0D01*
G01*
X9754000Y-15571200D02*
G75*
G03*
X9754000Y-15571200I-40000J0D01*
G01*
X10236600Y-14809200D02*
G75*
G03*
X10236600Y-14809200I-40000J0D01*
G01*
X10236600Y-15571200D02*
G75*
G03*
X10236600Y-15571200I-40000J0D01*
G01*
X10490600Y-14809200D02*
G75*
G03*
X10490600Y-14809200I-40000J0D01*
G01*
X10490600Y-15571200D02*
G75*
G03*
X10490600Y-15571200I-40000J0D01*
G01*
X10744600Y-14809200D02*
G75*
G03*
X10744600Y-14809200I-40000J0D01*
G01*
X10744600Y-15571200D02*
G75*
G03*
X10744600Y-15571200I-40000J0D01*
G01*
X10998600Y-14809200D02*
G75*
G03*
X10998600Y-14809200I-40000J0D01*
G01*
X10998600Y-15571200D02*
G75*
G03*
X10998600Y-15571200I-40000J0D01*
G01*
X11252600Y-14809200D02*
G75*
G03*
X11252600Y-14809200I-40000J0D01*
G01*
X11252600Y-15571200D02*
G75*
G03*
X11252600Y-15571200I-40000J0D01*
G01*
X11506600Y-14809200D02*
G75*
G03*
X11506600Y-14809200I-40000J0D01*
G01*
X11506600Y-15571200D02*
G75*
G03*
X11506600Y-15571200I-40000J0D01*
G01*
X11760600Y-14809200D02*
G75*
G03*
X11760600Y-14809200I-40000J0D01*
G01*
X11760600Y-15571200D02*
G75*
G03*
X11760600Y-15571200I-40000J0D01*
G01*
X12014600Y-14809200D02*
G75*
G03*
X12014600Y-14809200I-40000J0D01*
G01*
X12014600Y-15571200D02*
G75*
G03*
X12014600Y-15571200I-40000J0D01*
G01*
D14*
X2600000Y-12688100D02*
X2600000Y-12788100D01*
X2550000Y-12738100D02*
X2650000Y-12738100D01*
X2600000Y-12942100D02*
X2600000Y-13042100D01*
X2550000Y-12992100D02*
X2650000Y-12992100D01*
X2600000Y-13196100D02*
X2600000Y-13296100D01*
X2550000Y-13246100D02*
X2650000Y-13246100D01*
X2600000Y-13450100D02*
X2600000Y-13550100D01*
X2550000Y-13500100D02*
X2650000Y-13500100D01*
X5346700Y-12370600D02*
X5346700Y-12470600D01*
X5296700Y-12420600D02*
X5396700Y-12420600D01*
X5613400Y-12865900D02*
X5613400Y-12965900D01*
X5563400Y-12915900D02*
X5663400Y-12915900D01*
X12992100Y-15558300D02*
X12992100Y-15658300D01*
X12942100Y-15608300D02*
X13042100Y-15608300D01*
D15*
X3588562Y-16535662D02*
X3588562Y-16443738D01*
X3496638Y-16443738D01*
X3496638Y-16535662D01*
X3588562Y-16535662D01*
X4088562Y-16535662D02*
X4088562Y-16443738D01*
X3996638Y-16443738D01*
X3996638Y-16535662D01*
X4088562Y-16535662D01*
X4588562Y-16535662D02*
X4588562Y-16443738D01*
X4496638Y-16443738D01*
X4496638Y-16535662D01*
X4588562Y-16535662D01*
X5088562Y-16535662D02*
X5088562Y-16443738D01*
X4996638Y-16443738D01*
X4996638Y-16535662D01*
X5088562Y-16535662D01*
X5861862Y-16522962D02*
X5861862Y-16431038D01*
X5769938Y-16431038D01*
X5769938Y-16522962D01*
X5861862Y-16522962D01*
X6361862Y-16522962D02*
X6361862Y-16431038D01*
X6269938Y-16431038D01*
X6269938Y-16522962D01*
X6361862Y-16522962D01*
X6861862Y-16522962D02*
X6861862Y-16431038D01*
X6769938Y-16431038D01*
X6769938Y-16522962D01*
X6861862Y-16522962D01*
X7361862Y-16522962D02*
X7361862Y-16431038D01*
X7269938Y-16431038D01*
X7269938Y-16522962D01*
X7361862Y-16522962D01*
X8122462Y-16522962D02*
X8122462Y-16431038D01*
X8030538Y-16431038D01*
X8030538Y-16522962D01*
X8122462Y-16522962D01*
X8622462Y-16522962D02*
X8622462Y-16431038D01*
X8530538Y-16431038D01*
X8530538Y-16522962D01*
X8622462Y-16522962D01*
X9122462Y-16522962D02*
X9122462Y-16431038D01*
X9030538Y-16431038D01*
X9030538Y-16522962D01*
X9122462Y-16522962D01*
X9622462Y-16522962D02*
X9622462Y-16431038D01*
X9530538Y-16431038D01*
X9530538Y-16522962D01*
X9622462Y-16522962D01*
X10383062Y-16522962D02*
X10383062Y-16431038D01*
X10291138Y-16431038D01*
X10291138Y-16522962D01*
X10383062Y-16522962D01*
X10883062Y-16522962D02*
X10883062Y-16431038D01*
X10791138Y-16431038D01*
X10791138Y-16522962D01*
X10883062Y-16522962D01*
X11383062Y-16522962D02*
X11383062Y-16431038D01*
X11291138Y-16431038D01*
X11291138Y-16522962D01*
X11383062Y-16522962D01*
X11883062Y-16522962D02*
X11883062Y-16431038D01*
X11791138Y-16431038D01*
X11791138Y-16522962D01*
X11883062Y-16522962D01*
X12546762Y-16522962D02*
X12546762Y-16431038D01*
X12454838Y-16431038D01*
X12454838Y-16522962D01*
X12546762Y-16522962D01*
X13046762Y-16522962D02*
X13046762Y-16431038D01*
X12954838Y-16431038D01*
X12954838Y-16522962D01*
X13046762Y-16522962D01*
D11*
X2043219Y-17308303D02*
X2043219Y-17108303D01*
X2090838Y-17108303D01*
X2119410Y-17117827D01*
X2138457Y-17136874D01*
X2147981Y-17155922D01*
X2157505Y-17194017D01*
X2157505Y-17222589D01*
X2147981Y-17260684D01*
X2138457Y-17279731D01*
X2119410Y-17298779D01*
X2090838Y-17308303D01*
X2043219Y-17308303D01*
X2243219Y-17308303D02*
X2243219Y-17174970D01*
X2243219Y-17213065D02*
X2252743Y-17194017D01*
X2262267Y-17184493D01*
X2281314Y-17174970D01*
X2300362Y-17174970D01*
X2367029Y-17308303D02*
X2367029Y-17174970D01*
X2367029Y-17108303D02*
X2357505Y-17117827D01*
X2367029Y-17127351D01*
X2376552Y-17117827D01*
X2367029Y-17108303D01*
X2367029Y-17127351D01*
X2490838Y-17308303D02*
X2471790Y-17298779D01*
X2462267Y-17279731D01*
X2462267Y-17108303D01*
X2595600Y-17308303D02*
X2576552Y-17298779D01*
X2567029Y-17279731D01*
X2567029Y-17108303D01*
X2824171Y-17308303D02*
X2824171Y-17108303D01*
X2890838Y-17251160D01*
X2957505Y-17108303D01*
X2957505Y-17308303D01*
X3138457Y-17308303D02*
X3138457Y-17203541D01*
X3128933Y-17184493D01*
X3109886Y-17174970D01*
X3071790Y-17174970D01*
X3052743Y-17184493D01*
X3138457Y-17298779D02*
X3119409Y-17308303D01*
X3071790Y-17308303D01*
X3052743Y-17298779D01*
X3043219Y-17279731D01*
X3043219Y-17260684D01*
X3052743Y-17241636D01*
X3071790Y-17232112D01*
X3119409Y-17232112D01*
X3138457Y-17222589D01*
X3233695Y-17174970D02*
X3233695Y-17374970D01*
X3233695Y-17184493D02*
X3252743Y-17174970D01*
X3290838Y-17174970D01*
X3309886Y-17184493D01*
X3319409Y-17194017D01*
X3328933Y-17213065D01*
X3328933Y-17270208D01*
X3319409Y-17289255D01*
X3309886Y-17298779D01*
X3290838Y-17308303D01*
X3252743Y-17308303D01*
X3233695Y-17298779D01*
X3414648Y-17289255D02*
X3424171Y-17298779D01*
X3414648Y-17308303D01*
X3405124Y-17298779D01*
X3414648Y-17289255D01*
X3414648Y-17308303D01*
X3414648Y-17184493D02*
X3424171Y-17194017D01*
X3414648Y-17203541D01*
X3405124Y-17194017D01*
X3414648Y-17184493D01*
X3414648Y-17203541D01*
D12*
X1745600Y-17617827D02*
X1785600Y-17657827D01*
X1785600Y-17617827D02*
X1745600Y-17657827D01*
D11*
X2081314Y-17528303D02*
X2100362Y-17528303D01*
X2119410Y-17537827D01*
X2128933Y-17547351D01*
X2138457Y-17566398D01*
X2147981Y-17604493D01*
X2147981Y-17652112D01*
X2138457Y-17690208D01*
X2128933Y-17709255D01*
X2119410Y-17718779D01*
X2100362Y-17728303D01*
X2081314Y-17728303D01*
X2062267Y-17718779D01*
X2052743Y-17709255D01*
X2043219Y-17690208D01*
X2033695Y-17652112D01*
X2033695Y-17604493D01*
X2043219Y-17566398D01*
X2052743Y-17547351D01*
X2062267Y-17537827D01*
X2081314Y-17528303D01*
X2233695Y-17709255D02*
X2243219Y-17718779D01*
X2233695Y-17728303D01*
X2224171Y-17718779D01*
X2233695Y-17709255D01*
X2233695Y-17728303D01*
X2414648Y-17594970D02*
X2414648Y-17728303D01*
X2367029Y-17518779D02*
X2319410Y-17661636D01*
X2443219Y-17661636D01*
X2557505Y-17528303D02*
X2576552Y-17528303D01*
X2595600Y-17537827D01*
X2605124Y-17547351D01*
X2614648Y-17566398D01*
X2624171Y-17604493D01*
X2624171Y-17652112D01*
X2614648Y-17690208D01*
X2605124Y-17709255D01*
X2595600Y-17718779D01*
X2576552Y-17728303D01*
X2557505Y-17728303D01*
X2538457Y-17718779D01*
X2528933Y-17709255D01*
X2519410Y-17690208D01*
X2509886Y-17652112D01*
X2509886Y-17604493D01*
X2519410Y-17566398D01*
X2528933Y-17547351D01*
X2538457Y-17537827D01*
X2557505Y-17528303D01*
X2747981Y-17528303D02*
X2767029Y-17528303D01*
X2786076Y-17537827D01*
X2795600Y-17547351D01*
X2805124Y-17566398D01*
X2814648Y-17604493D01*
X2814648Y-17652112D01*
X2805124Y-17690208D01*
X2795600Y-17709255D01*
X2786076Y-17718779D01*
X2767029Y-17728303D01*
X2747981Y-17728303D01*
X2728933Y-17718779D01*
X2719410Y-17709255D01*
X2709886Y-17690208D01*
X2700362Y-17652112D01*
X2700362Y-17604493D01*
X2709886Y-17566398D01*
X2719410Y-17547351D01*
X2728933Y-17537827D01*
X2747981Y-17528303D01*
X2900362Y-17728303D02*
X2900362Y-17594970D01*
X2900362Y-17614017D02*
X2909886Y-17604493D01*
X2928933Y-17594970D01*
X2957505Y-17594970D01*
X2976552Y-17604493D01*
X2986076Y-17623541D01*
X2986076Y-17728303D01*
X2986076Y-17623541D02*
X2995600Y-17604493D01*
X3014648Y-17594970D01*
X3043219Y-17594970D01*
X3062267Y-17604493D01*
X3071790Y-17623541D01*
X3071790Y-17728303D01*
X3167028Y-17728303D02*
X3167028Y-17594970D01*
X3167028Y-17614017D02*
X3176552Y-17604493D01*
X3195600Y-17594970D01*
X3224171Y-17594970D01*
X3243219Y-17604493D01*
X3252743Y-17623541D01*
X3252743Y-17728303D01*
X3252743Y-17623541D02*
X3262267Y-17604493D01*
X3281314Y-17594970D01*
X3309886Y-17594970D01*
X3328933Y-17604493D01*
X3338457Y-17623541D01*
X3338457Y-17728303D01*
X3728933Y-17518779D02*
X3557505Y-17775922D01*
X3986076Y-17528303D02*
X4005124Y-17528303D01*
X4024171Y-17537827D01*
X4033695Y-17547351D01*
X4043219Y-17566398D01*
X4052743Y-17604493D01*
X4052743Y-17652112D01*
X4043219Y-17690208D01*
X4033695Y-17709255D01*
X4024171Y-17718779D01*
X4005124Y-17728303D01*
X3986076Y-17728303D01*
X3967028Y-17718779D01*
X3957505Y-17709255D01*
X3947981Y-17690208D01*
X3938457Y-17652112D01*
X3938457Y-17604493D01*
X3947981Y-17566398D01*
X3957505Y-17547351D01*
X3967028Y-17537827D01*
X3986076Y-17528303D01*
X4138457Y-17709255D02*
X4147981Y-17718779D01*
X4138457Y-17728303D01*
X4128933Y-17718779D01*
X4138457Y-17709255D01*
X4138457Y-17728303D01*
X4271790Y-17528303D02*
X4290838Y-17528303D01*
X4309886Y-17537827D01*
X4319410Y-17547351D01*
X4328933Y-17566398D01*
X4338457Y-17604493D01*
X4338457Y-17652112D01*
X4328933Y-17690208D01*
X4319410Y-17709255D01*
X4309886Y-17718779D01*
X4290838Y-17728303D01*
X4271790Y-17728303D01*
X4252743Y-17718779D01*
X4243219Y-17709255D01*
X4233695Y-17690208D01*
X4224171Y-17652112D01*
X4224171Y-17604493D01*
X4233695Y-17566398D01*
X4243219Y-17547351D01*
X4252743Y-17537827D01*
X4271790Y-17528303D01*
X4528933Y-17728303D02*
X4414648Y-17728303D01*
X4471790Y-17728303D02*
X4471790Y-17528303D01*
X4452743Y-17556874D01*
X4433695Y-17575922D01*
X4414648Y-17585446D01*
X4709886Y-17528303D02*
X4614648Y-17528303D01*
X4605124Y-17623541D01*
X4614648Y-17614017D01*
X4633695Y-17604493D01*
X4681314Y-17604493D01*
X4700362Y-17614017D01*
X4709886Y-17623541D01*
X4719410Y-17642589D01*
X4719410Y-17690208D01*
X4709886Y-17709255D01*
X4700362Y-17718779D01*
X4681314Y-17728303D01*
X4633695Y-17728303D01*
X4614648Y-17718779D01*
X4605124Y-17709255D01*
X4786076Y-17528303D02*
X4919410Y-17528303D01*
X4833695Y-17728303D01*
X4986076Y-17528303D02*
X4986076Y-17566398D01*
X5062267Y-17528303D02*
X5062267Y-17566398D01*
X5357505Y-17804493D02*
X5347981Y-17794970D01*
X5328933Y-17766398D01*
X5319410Y-17747351D01*
X5309886Y-17718779D01*
X5300362Y-17671160D01*
X5300362Y-17633065D01*
X5309886Y-17585446D01*
X5319410Y-17556874D01*
X5328933Y-17537827D01*
X5347981Y-17509255D01*
X5357505Y-17499731D01*
X5538457Y-17728303D02*
X5424171Y-17728303D01*
X5481314Y-17728303D02*
X5481314Y-17528303D01*
X5462267Y-17556874D01*
X5443219Y-17575922D01*
X5424171Y-17585446D01*
X5709886Y-17528303D02*
X5671790Y-17528303D01*
X5652743Y-17537827D01*
X5643219Y-17547351D01*
X5624171Y-17575922D01*
X5614648Y-17614017D01*
X5614648Y-17690208D01*
X5624171Y-17709255D01*
X5633695Y-17718779D01*
X5652743Y-17728303D01*
X5690838Y-17728303D01*
X5709886Y-17718779D01*
X5719409Y-17709255D01*
X5728933Y-17690208D01*
X5728933Y-17642589D01*
X5719409Y-17623541D01*
X5709886Y-17614017D01*
X5690838Y-17604493D01*
X5652743Y-17604493D01*
X5633695Y-17614017D01*
X5624171Y-17623541D01*
X5614648Y-17642589D01*
X5967028Y-17728303D02*
X5967028Y-17528303D01*
X6052743Y-17728303D02*
X6052743Y-17623541D01*
X6043219Y-17604493D01*
X6024171Y-17594970D01*
X5995600Y-17594970D01*
X5976552Y-17604493D01*
X5967028Y-17614017D01*
X6176552Y-17728303D02*
X6157505Y-17718779D01*
X6147981Y-17709255D01*
X6138457Y-17690208D01*
X6138457Y-17633065D01*
X6147981Y-17614017D01*
X6157505Y-17604493D01*
X6176552Y-17594970D01*
X6205124Y-17594970D01*
X6224171Y-17604493D01*
X6233695Y-17614017D01*
X6243219Y-17633065D01*
X6243219Y-17690208D01*
X6233695Y-17709255D01*
X6224171Y-17718779D01*
X6205124Y-17728303D01*
X6176552Y-17728303D01*
X6357505Y-17728303D02*
X6338457Y-17718779D01*
X6328933Y-17699731D01*
X6328933Y-17528303D01*
X6509886Y-17718779D02*
X6490838Y-17728303D01*
X6452743Y-17728303D01*
X6433695Y-17718779D01*
X6424171Y-17699731D01*
X6424171Y-17623541D01*
X6433695Y-17604493D01*
X6452743Y-17594970D01*
X6490838Y-17594970D01*
X6509886Y-17604493D01*
X6519409Y-17623541D01*
X6519409Y-17642589D01*
X6424171Y-17661636D01*
X6595600Y-17718779D02*
X6614648Y-17728303D01*
X6652743Y-17728303D01*
X6671790Y-17718779D01*
X6681314Y-17699731D01*
X6681314Y-17690208D01*
X6671790Y-17671160D01*
X6652743Y-17661636D01*
X6624171Y-17661636D01*
X6605124Y-17652112D01*
X6595600Y-17633065D01*
X6595600Y-17623541D01*
X6605124Y-17604493D01*
X6624171Y-17594970D01*
X6652743Y-17594970D01*
X6671790Y-17604493D01*
X6747981Y-17804493D02*
X6757505Y-17794970D01*
X6776552Y-17766398D01*
X6786076Y-17747351D01*
X6795600Y-17718779D01*
X6805124Y-17671160D01*
X6805124Y-17633065D01*
X6795600Y-17585446D01*
X6786076Y-17556874D01*
X6776552Y-17537827D01*
X6757505Y-17509255D01*
X6747981Y-17499731D01*
D13*
X1785600Y-17901827D02*
G75*
G03*
X1785600Y-17901827I-40000J0D01*
G01*
D11*
X2081314Y-17792303D02*
X2100362Y-17792303D01*
X2119410Y-17801827D01*
X2128933Y-17811351D01*
X2138457Y-17830398D01*
X2147981Y-17868493D01*
X2147981Y-17916112D01*
X2138457Y-17954208D01*
X2128933Y-17973255D01*
X2119410Y-17982779D01*
X2100362Y-17992303D01*
X2081314Y-17992303D01*
X2062267Y-17982779D01*
X2052743Y-17973255D01*
X2043219Y-17954208D01*
X2033695Y-17916112D01*
X2033695Y-17868493D01*
X2043219Y-17830398D01*
X2052743Y-17811351D01*
X2062267Y-17801827D01*
X2081314Y-17792303D01*
X2233695Y-17973255D02*
X2243219Y-17982779D01*
X2233695Y-17992303D01*
X2224171Y-17982779D01*
X2233695Y-17973255D01*
X2233695Y-17992303D01*
X2357505Y-17878017D02*
X2338457Y-17868493D01*
X2328933Y-17858970D01*
X2319410Y-17839922D01*
X2319410Y-17830398D01*
X2328933Y-17811351D01*
X2338457Y-17801827D01*
X2357505Y-17792303D01*
X2395600Y-17792303D01*
X2414648Y-17801827D01*
X2424171Y-17811351D01*
X2433695Y-17830398D01*
X2433695Y-17839922D01*
X2424171Y-17858970D01*
X2414648Y-17868493D01*
X2395600Y-17878017D01*
X2357505Y-17878017D01*
X2338457Y-17887541D01*
X2328933Y-17897065D01*
X2319410Y-17916112D01*
X2319410Y-17954208D01*
X2328933Y-17973255D01*
X2338457Y-17982779D01*
X2357505Y-17992303D01*
X2395600Y-17992303D01*
X2414648Y-17982779D01*
X2424171Y-17973255D01*
X2433695Y-17954208D01*
X2433695Y-17916112D01*
X2424171Y-17897065D01*
X2414648Y-17887541D01*
X2395600Y-17878017D01*
X2557505Y-17792303D02*
X2576552Y-17792303D01*
X2595600Y-17801827D01*
X2605124Y-17811351D01*
X2614648Y-17830398D01*
X2624171Y-17868493D01*
X2624171Y-17916112D01*
X2614648Y-17954208D01*
X2605124Y-17973255D01*
X2595600Y-17982779D01*
X2576552Y-17992303D01*
X2557505Y-17992303D01*
X2538457Y-17982779D01*
X2528933Y-17973255D01*
X2519410Y-17954208D01*
X2509886Y-17916112D01*
X2509886Y-17868493D01*
X2519410Y-17830398D01*
X2528933Y-17811351D01*
X2538457Y-17801827D01*
X2557505Y-17792303D01*
X2747981Y-17792303D02*
X2767029Y-17792303D01*
X2786076Y-17801827D01*
X2795600Y-17811351D01*
X2805124Y-17830398D01*
X2814648Y-17868493D01*
X2814648Y-17916112D01*
X2805124Y-17954208D01*
X2795600Y-17973255D01*
X2786076Y-17982779D01*
X2767029Y-17992303D01*
X2747981Y-17992303D01*
X2728933Y-17982779D01*
X2719410Y-17973255D01*
X2709886Y-17954208D01*
X2700362Y-17916112D01*
X2700362Y-17868493D01*
X2709886Y-17830398D01*
X2719410Y-17811351D01*
X2728933Y-17801827D01*
X2747981Y-17792303D01*
X2900362Y-17992303D02*
X2900362Y-17858970D01*
X2900362Y-17878017D02*
X2909886Y-17868493D01*
X2928933Y-17858970D01*
X2957505Y-17858970D01*
X2976552Y-17868493D01*
X2986076Y-17887541D01*
X2986076Y-17992303D01*
X2986076Y-17887541D02*
X2995600Y-17868493D01*
X3014648Y-17858970D01*
X3043219Y-17858970D01*
X3062267Y-17868493D01*
X3071790Y-17887541D01*
X3071790Y-17992303D01*
X3167028Y-17992303D02*
X3167028Y-17858970D01*
X3167028Y-17878017D02*
X3176552Y-17868493D01*
X3195600Y-17858970D01*
X3224171Y-17858970D01*
X3243219Y-17868493D01*
X3252743Y-17887541D01*
X3252743Y-17992303D01*
X3252743Y-17887541D02*
X3262267Y-17868493D01*
X3281314Y-17858970D01*
X3309886Y-17858970D01*
X3328933Y-17868493D01*
X3338457Y-17887541D01*
X3338457Y-17992303D01*
X3728933Y-17782779D02*
X3557505Y-18039922D01*
X3986076Y-17792303D02*
X4005124Y-17792303D01*
X4024171Y-17801827D01*
X4033695Y-17811351D01*
X4043219Y-17830398D01*
X4052743Y-17868493D01*
X4052743Y-17916112D01*
X4043219Y-17954208D01*
X4033695Y-17973255D01*
X4024171Y-17982779D01*
X4005124Y-17992303D01*
X3986076Y-17992303D01*
X3967028Y-17982779D01*
X3957505Y-17973255D01*
X3947981Y-17954208D01*
X3938457Y-17916112D01*
X3938457Y-17868493D01*
X3947981Y-17830398D01*
X3957505Y-17811351D01*
X3967028Y-17801827D01*
X3986076Y-17792303D01*
X4138457Y-17973255D02*
X4147981Y-17982779D01*
X4138457Y-17992303D01*
X4128933Y-17982779D01*
X4138457Y-17973255D01*
X4138457Y-17992303D01*
X4271790Y-17792303D02*
X4290838Y-17792303D01*
X4309886Y-17801827D01*
X4319410Y-17811351D01*
X4328933Y-17830398D01*
X4338457Y-17868493D01*
X4338457Y-17916112D01*
X4328933Y-17954208D01*
X4319410Y-17973255D01*
X4309886Y-17982779D01*
X4290838Y-17992303D01*
X4271790Y-17992303D01*
X4252743Y-17982779D01*
X4243219Y-17973255D01*
X4233695Y-17954208D01*
X4224171Y-17916112D01*
X4224171Y-17868493D01*
X4233695Y-17830398D01*
X4243219Y-17811351D01*
X4252743Y-17801827D01*
X4271790Y-17792303D01*
X4405124Y-17792303D02*
X4528933Y-17792303D01*
X4462267Y-17868493D01*
X4490838Y-17868493D01*
X4509886Y-17878017D01*
X4519410Y-17887541D01*
X4528933Y-17906589D01*
X4528933Y-17954208D01*
X4519410Y-17973255D01*
X4509886Y-17982779D01*
X4490838Y-17992303D01*
X4433695Y-17992303D01*
X4414648Y-17982779D01*
X4405124Y-17973255D01*
X4719410Y-17992303D02*
X4605124Y-17992303D01*
X4662267Y-17992303D02*
X4662267Y-17792303D01*
X4643219Y-17820874D01*
X4624171Y-17839922D01*
X4605124Y-17849446D01*
X4900362Y-17792303D02*
X4805124Y-17792303D01*
X4795600Y-17887541D01*
X4805124Y-17878017D01*
X4824171Y-17868493D01*
X4871790Y-17868493D01*
X4890838Y-17878017D01*
X4900362Y-17887541D01*
X4909886Y-17906589D01*
X4909886Y-17954208D01*
X4900362Y-17973255D01*
X4890838Y-17982779D01*
X4871790Y-17992303D01*
X4824171Y-17992303D01*
X4805124Y-17982779D01*
X4795600Y-17973255D01*
X4986076Y-17792303D02*
X4986076Y-17830398D01*
X5062267Y-17792303D02*
X5062267Y-17830398D01*
X5357505Y-18068493D02*
X5347981Y-18058970D01*
X5328933Y-18030398D01*
X5319410Y-18011351D01*
X5309886Y-17982779D01*
X5300362Y-17935160D01*
X5300362Y-17897065D01*
X5309886Y-17849446D01*
X5319410Y-17820874D01*
X5328933Y-17801827D01*
X5347981Y-17773255D01*
X5357505Y-17763731D01*
X5519410Y-17792303D02*
X5481314Y-17792303D01*
X5462267Y-17801827D01*
X5452743Y-17811351D01*
X5433695Y-17839922D01*
X5424171Y-17878017D01*
X5424171Y-17954208D01*
X5433695Y-17973255D01*
X5443219Y-17982779D01*
X5462267Y-17992303D01*
X5500362Y-17992303D01*
X5519410Y-17982779D01*
X5528933Y-17973255D01*
X5538457Y-17954208D01*
X5538457Y-17906589D01*
X5528933Y-17887541D01*
X5519410Y-17878017D01*
X5500362Y-17868493D01*
X5462267Y-17868493D01*
X5443219Y-17878017D01*
X5433695Y-17887541D01*
X5424171Y-17906589D01*
X5709886Y-17858970D02*
X5709886Y-17992303D01*
X5662267Y-17782779D02*
X5614648Y-17925636D01*
X5738457Y-17925636D01*
X5967028Y-17992303D02*
X5967028Y-17792303D01*
X6052743Y-17992303D02*
X6052743Y-17887541D01*
X6043219Y-17868493D01*
X6024171Y-17858970D01*
X5995600Y-17858970D01*
X5976552Y-17868493D01*
X5967028Y-17878017D01*
X6176552Y-17992303D02*
X6157505Y-17982779D01*
X6147981Y-17973255D01*
X6138457Y-17954208D01*
X6138457Y-17897065D01*
X6147981Y-17878017D01*
X6157505Y-17868493D01*
X6176552Y-17858970D01*
X6205124Y-17858970D01*
X6224171Y-17868493D01*
X6233695Y-17878017D01*
X6243219Y-17897065D01*
X6243219Y-17954208D01*
X6233695Y-17973255D01*
X6224171Y-17982779D01*
X6205124Y-17992303D01*
X6176552Y-17992303D01*
X6357505Y-17992303D02*
X6338457Y-17982779D01*
X6328933Y-17963731D01*
X6328933Y-17792303D01*
X6509886Y-17982779D02*
X6490838Y-17992303D01*
X6452743Y-17992303D01*
X6433695Y-17982779D01*
X6424171Y-17963731D01*
X6424171Y-17887541D01*
X6433695Y-17868493D01*
X6452743Y-17858970D01*
X6490838Y-17858970D01*
X6509886Y-17868493D01*
X6519409Y-17887541D01*
X6519409Y-17906589D01*
X6424171Y-17925636D01*
X6595600Y-17982779D02*
X6614648Y-17992303D01*
X6652743Y-17992303D01*
X6671790Y-17982779D01*
X6681314Y-17963731D01*
X6681314Y-17954208D01*
X6671790Y-17935160D01*
X6652743Y-17925636D01*
X6624171Y-17925636D01*
X6605124Y-17916112D01*
X6595600Y-17897065D01*
X6595600Y-17887541D01*
X6605124Y-17868493D01*
X6624171Y-17858970D01*
X6652743Y-17858970D01*
X6671790Y-17868493D01*
X6747981Y-18068493D02*
X6757505Y-18058970D01*
X6776552Y-18030398D01*
X6786076Y-18011351D01*
X6795600Y-17982779D01*
X6805124Y-17935160D01*
X6805124Y-17897065D01*
X6795600Y-17849446D01*
X6786076Y-17820874D01*
X6776552Y-17801827D01*
X6757505Y-17773255D01*
X6747981Y-17763731D01*
D14*
X1735600Y-18115827D02*
X1735600Y-18215827D01*
X1685600Y-18165827D02*
X1785600Y-18165827D01*
D11*
X2147981Y-18256303D02*
X2033695Y-18256303D01*
X2090838Y-18256303D02*
X2090838Y-18056303D01*
X2071790Y-18084874D01*
X2052743Y-18103922D01*
X2033695Y-18113446D01*
X2233695Y-18237255D02*
X2243219Y-18246779D01*
X2233695Y-18256303D01*
X2224171Y-18246779D01*
X2233695Y-18237255D01*
X2233695Y-18256303D01*
X2367029Y-18056303D02*
X2386076Y-18056303D01*
X2405124Y-18065827D01*
X2414648Y-18075351D01*
X2424171Y-18094398D01*
X2433695Y-18132493D01*
X2433695Y-18180112D01*
X2424171Y-18218208D01*
X2414648Y-18237255D01*
X2405124Y-18246779D01*
X2386076Y-18256303D01*
X2367029Y-18256303D01*
X2347981Y-18246779D01*
X2338457Y-18237255D01*
X2328933Y-18218208D01*
X2319410Y-18180112D01*
X2319410Y-18132493D01*
X2328933Y-18094398D01*
X2338457Y-18075351D01*
X2347981Y-18065827D01*
X2367029Y-18056303D01*
X2557505Y-18056303D02*
X2576552Y-18056303D01*
X2595600Y-18065827D01*
X2605124Y-18075351D01*
X2614648Y-18094398D01*
X2624171Y-18132493D01*
X2624171Y-18180112D01*
X2614648Y-18218208D01*
X2605124Y-18237255D01*
X2595600Y-18246779D01*
X2576552Y-18256303D01*
X2557505Y-18256303D01*
X2538457Y-18246779D01*
X2528933Y-18237255D01*
X2519410Y-18218208D01*
X2509886Y-18180112D01*
X2509886Y-18132493D01*
X2519410Y-18094398D01*
X2528933Y-18075351D01*
X2538457Y-18065827D01*
X2557505Y-18056303D01*
X2747981Y-18056303D02*
X2767029Y-18056303D01*
X2786076Y-18065827D01*
X2795600Y-18075351D01*
X2805124Y-18094398D01*
X2814648Y-18132493D01*
X2814648Y-18180112D01*
X2805124Y-18218208D01*
X2795600Y-18237255D01*
X2786076Y-18246779D01*
X2767029Y-18256303D01*
X2747981Y-18256303D01*
X2728933Y-18246779D01*
X2719410Y-18237255D01*
X2709886Y-18218208D01*
X2700362Y-18180112D01*
X2700362Y-18132493D01*
X2709886Y-18094398D01*
X2719410Y-18075351D01*
X2728933Y-18065827D01*
X2747981Y-18056303D01*
X2900362Y-18256303D02*
X2900362Y-18122970D01*
X2900362Y-18142017D02*
X2909886Y-18132493D01*
X2928933Y-18122970D01*
X2957505Y-18122970D01*
X2976552Y-18132493D01*
X2986076Y-18151541D01*
X2986076Y-18256303D01*
X2986076Y-18151541D02*
X2995600Y-18132493D01*
X3014648Y-18122970D01*
X3043219Y-18122970D01*
X3062267Y-18132493D01*
X3071790Y-18151541D01*
X3071790Y-18256303D01*
X3167028Y-18256303D02*
X3167028Y-18122970D01*
X3167028Y-18142017D02*
X3176552Y-18132493D01*
X3195600Y-18122970D01*
X3224171Y-18122970D01*
X3243219Y-18132493D01*
X3252743Y-18151541D01*
X3252743Y-18256303D01*
X3252743Y-18151541D02*
X3262267Y-18132493D01*
X3281314Y-18122970D01*
X3309886Y-18122970D01*
X3328933Y-18132493D01*
X3338457Y-18151541D01*
X3338457Y-18256303D01*
X3728933Y-18046779D02*
X3557505Y-18303922D01*
X3986076Y-18056303D02*
X4005124Y-18056303D01*
X4024171Y-18065827D01*
X4033695Y-18075351D01*
X4043219Y-18094398D01*
X4052743Y-18132493D01*
X4052743Y-18180112D01*
X4043219Y-18218208D01*
X4033695Y-18237255D01*
X4024171Y-18246779D01*
X4005124Y-18256303D01*
X3986076Y-18256303D01*
X3967028Y-18246779D01*
X3957505Y-18237255D01*
X3947981Y-18218208D01*
X3938457Y-18180112D01*
X3938457Y-18132493D01*
X3947981Y-18094398D01*
X3957505Y-18075351D01*
X3967028Y-18065827D01*
X3986076Y-18056303D01*
X4138457Y-18237255D02*
X4147981Y-18246779D01*
X4138457Y-18256303D01*
X4128933Y-18246779D01*
X4138457Y-18237255D01*
X4138457Y-18256303D01*
X4271790Y-18056303D02*
X4290838Y-18056303D01*
X4309886Y-18065827D01*
X4319410Y-18075351D01*
X4328933Y-18094398D01*
X4338457Y-18132493D01*
X4338457Y-18180112D01*
X4328933Y-18218208D01*
X4319410Y-18237255D01*
X4309886Y-18246779D01*
X4290838Y-18256303D01*
X4271790Y-18256303D01*
X4252743Y-18246779D01*
X4243219Y-18237255D01*
X4233695Y-18218208D01*
X4224171Y-18180112D01*
X4224171Y-18132493D01*
X4233695Y-18094398D01*
X4243219Y-18075351D01*
X4252743Y-18065827D01*
X4271790Y-18056303D01*
X4405124Y-18056303D02*
X4528933Y-18056303D01*
X4462267Y-18132493D01*
X4490838Y-18132493D01*
X4509886Y-18142017D01*
X4519410Y-18151541D01*
X4528933Y-18170589D01*
X4528933Y-18218208D01*
X4519410Y-18237255D01*
X4509886Y-18246779D01*
X4490838Y-18256303D01*
X4433695Y-18256303D01*
X4414648Y-18246779D01*
X4405124Y-18237255D01*
X4624171Y-18256303D02*
X4662267Y-18256303D01*
X4681314Y-18246779D01*
X4690838Y-18237255D01*
X4709886Y-18208684D01*
X4719410Y-18170589D01*
X4719410Y-18094398D01*
X4709886Y-18075351D01*
X4700362Y-18065827D01*
X4681314Y-18056303D01*
X4643219Y-18056303D01*
X4624171Y-18065827D01*
X4614648Y-18075351D01*
X4605124Y-18094398D01*
X4605124Y-18142017D01*
X4614648Y-18161065D01*
X4624171Y-18170589D01*
X4643219Y-18180112D01*
X4681314Y-18180112D01*
X4700362Y-18170589D01*
X4709886Y-18161065D01*
X4719410Y-18142017D01*
X4890838Y-18122970D02*
X4890838Y-18256303D01*
X4843219Y-18046779D02*
X4795600Y-18189636D01*
X4919410Y-18189636D01*
X4986076Y-18056303D02*
X4986076Y-18094398D01*
X5062267Y-18056303D02*
X5062267Y-18094398D01*
X5357505Y-18332493D02*
X5347981Y-18322970D01*
X5328933Y-18294398D01*
X5319410Y-18275351D01*
X5309886Y-18246779D01*
X5300362Y-18199160D01*
X5300362Y-18161065D01*
X5309886Y-18113446D01*
X5319410Y-18084874D01*
X5328933Y-18065827D01*
X5347981Y-18037255D01*
X5357505Y-18027731D01*
X5414648Y-18056303D02*
X5547981Y-18056303D01*
X5462267Y-18256303D01*
X5776552Y-18256303D02*
X5776552Y-18056303D01*
X5862267Y-18256303D02*
X5862267Y-18151541D01*
X5852743Y-18132493D01*
X5833695Y-18122970D01*
X5805124Y-18122970D01*
X5786076Y-18132493D01*
X5776552Y-18142017D01*
X5986076Y-18256303D02*
X5967028Y-18246779D01*
X5957505Y-18237255D01*
X5947981Y-18218208D01*
X5947981Y-18161065D01*
X5957505Y-18142017D01*
X5967028Y-18132493D01*
X5986076Y-18122970D01*
X6014648Y-18122970D01*
X6033695Y-18132493D01*
X6043219Y-18142017D01*
X6052743Y-18161065D01*
X6052743Y-18218208D01*
X6043219Y-18237255D01*
X6033695Y-18246779D01*
X6014648Y-18256303D01*
X5986076Y-18256303D01*
X6167028Y-18256303D02*
X6147981Y-18246779D01*
X6138457Y-18227731D01*
X6138457Y-18056303D01*
X6319409Y-18246779D02*
X6300362Y-18256303D01*
X6262267Y-18256303D01*
X6243219Y-18246779D01*
X6233695Y-18227731D01*
X6233695Y-18151541D01*
X6243219Y-18132493D01*
X6262267Y-18122970D01*
X6300362Y-18122970D01*
X6319409Y-18132493D01*
X6328933Y-18151541D01*
X6328933Y-18170589D01*
X6233695Y-18189636D01*
X6405124Y-18246779D02*
X6424171Y-18256303D01*
X6462267Y-18256303D01*
X6481314Y-18246779D01*
X6490838Y-18227731D01*
X6490838Y-18218208D01*
X6481314Y-18199160D01*
X6462267Y-18189636D01*
X6433695Y-18189636D01*
X6414648Y-18180112D01*
X6405124Y-18161065D01*
X6405124Y-18151541D01*
X6414648Y-18132493D01*
X6433695Y-18122970D01*
X6462267Y-18122970D01*
X6481314Y-18132493D01*
X6557505Y-18332493D02*
X6567028Y-18322970D01*
X6586076Y-18294398D01*
X6595600Y-18275351D01*
X6605124Y-18246779D01*
X6614648Y-18199160D01*
X6614648Y-18161065D01*
X6605124Y-18113446D01*
X6595600Y-18084874D01*
X6586076Y-18065827D01*
X6567028Y-18037255D01*
X6557505Y-18027731D01*
D15*
X1766562Y-18475789D02*
X1766562Y-18383864D01*
X1674638Y-18383864D01*
X1674638Y-18475789D01*
X1766562Y-18475789D01*
D11*
X2147981Y-18520303D02*
X2033695Y-18520303D01*
X2090838Y-18520303D02*
X2090838Y-18320303D01*
X2071790Y-18348874D01*
X2052743Y-18367922D01*
X2033695Y-18377446D01*
X2233695Y-18501255D02*
X2243219Y-18510779D01*
X2233695Y-18520303D01*
X2224171Y-18510779D01*
X2233695Y-18501255D01*
X2233695Y-18520303D01*
X2309886Y-18320303D02*
X2433695Y-18320303D01*
X2367029Y-18396493D01*
X2395600Y-18396493D01*
X2414648Y-18406017D01*
X2424171Y-18415541D01*
X2433695Y-18434589D01*
X2433695Y-18482208D01*
X2424171Y-18501255D01*
X2414648Y-18510779D01*
X2395600Y-18520303D01*
X2338457Y-18520303D01*
X2319410Y-18510779D01*
X2309886Y-18501255D01*
X2557505Y-18320303D02*
X2576552Y-18320303D01*
X2595600Y-18329827D01*
X2605124Y-18339351D01*
X2614648Y-18358398D01*
X2624171Y-18396493D01*
X2624171Y-18444112D01*
X2614648Y-18482208D01*
X2605124Y-18501255D01*
X2595600Y-18510779D01*
X2576552Y-18520303D01*
X2557505Y-18520303D01*
X2538457Y-18510779D01*
X2528933Y-18501255D01*
X2519410Y-18482208D01*
X2509886Y-18444112D01*
X2509886Y-18396493D01*
X2519410Y-18358398D01*
X2528933Y-18339351D01*
X2538457Y-18329827D01*
X2557505Y-18320303D01*
X2747981Y-18320303D02*
X2767029Y-18320303D01*
X2786076Y-18329827D01*
X2795600Y-18339351D01*
X2805124Y-18358398D01*
X2814648Y-18396493D01*
X2814648Y-18444112D01*
X2805124Y-18482208D01*
X2795600Y-18501255D01*
X2786076Y-18510779D01*
X2767029Y-18520303D01*
X2747981Y-18520303D01*
X2728933Y-18510779D01*
X2719410Y-18501255D01*
X2709886Y-18482208D01*
X2700362Y-18444112D01*
X2700362Y-18396493D01*
X2709886Y-18358398D01*
X2719410Y-18339351D01*
X2728933Y-18329827D01*
X2747981Y-18320303D01*
X2900362Y-18520303D02*
X2900362Y-18386970D01*
X2900362Y-18406017D02*
X2909886Y-18396493D01*
X2928933Y-18386970D01*
X2957505Y-18386970D01*
X2976552Y-18396493D01*
X2986076Y-18415541D01*
X2986076Y-18520303D01*
X2986076Y-18415541D02*
X2995600Y-18396493D01*
X3014648Y-18386970D01*
X3043219Y-18386970D01*
X3062267Y-18396493D01*
X3071790Y-18415541D01*
X3071790Y-18520303D01*
X3167028Y-18520303D02*
X3167028Y-18386970D01*
X3167028Y-18406017D02*
X3176552Y-18396493D01*
X3195600Y-18386970D01*
X3224171Y-18386970D01*
X3243219Y-18396493D01*
X3252743Y-18415541D01*
X3252743Y-18520303D01*
X3252743Y-18415541D02*
X3262267Y-18396493D01*
X3281314Y-18386970D01*
X3309886Y-18386970D01*
X3328933Y-18396493D01*
X3338457Y-18415541D01*
X3338457Y-18520303D01*
X3728933Y-18310779D02*
X3557505Y-18567922D01*
X3986076Y-18320303D02*
X4005124Y-18320303D01*
X4024171Y-18329827D01*
X4033695Y-18339351D01*
X4043219Y-18358398D01*
X4052743Y-18396493D01*
X4052743Y-18444112D01*
X4043219Y-18482208D01*
X4033695Y-18501255D01*
X4024171Y-18510779D01*
X4005124Y-18520303D01*
X3986076Y-18520303D01*
X3967028Y-18510779D01*
X3957505Y-18501255D01*
X3947981Y-18482208D01*
X3938457Y-18444112D01*
X3938457Y-18396493D01*
X3947981Y-18358398D01*
X3957505Y-18339351D01*
X3967028Y-18329827D01*
X3986076Y-18320303D01*
X4138457Y-18501255D02*
X4147981Y-18510779D01*
X4138457Y-18520303D01*
X4128933Y-18510779D01*
X4138457Y-18501255D01*
X4138457Y-18520303D01*
X4271790Y-18320303D02*
X4290838Y-18320303D01*
X4309886Y-18329827D01*
X4319410Y-18339351D01*
X4328933Y-18358398D01*
X4338457Y-18396493D01*
X4338457Y-18444112D01*
X4328933Y-18482208D01*
X4319410Y-18501255D01*
X4309886Y-18510779D01*
X4290838Y-18520303D01*
X4271790Y-18520303D01*
X4252743Y-18510779D01*
X4243219Y-18501255D01*
X4233695Y-18482208D01*
X4224171Y-18444112D01*
X4224171Y-18396493D01*
X4233695Y-18358398D01*
X4243219Y-18339351D01*
X4252743Y-18329827D01*
X4271790Y-18320303D01*
X4519410Y-18320303D02*
X4424171Y-18320303D01*
X4414648Y-18415541D01*
X4424171Y-18406017D01*
X4443219Y-18396493D01*
X4490838Y-18396493D01*
X4509886Y-18406017D01*
X4519410Y-18415541D01*
X4528933Y-18434589D01*
X4528933Y-18482208D01*
X4519410Y-18501255D01*
X4509886Y-18510779D01*
X4490838Y-18520303D01*
X4443219Y-18520303D01*
X4424171Y-18510779D01*
X4414648Y-18501255D01*
X4719410Y-18520303D02*
X4605124Y-18520303D01*
X4662267Y-18520303D02*
X4662267Y-18320303D01*
X4643219Y-18348874D01*
X4624171Y-18367922D01*
X4605124Y-18377446D01*
X4795600Y-18339351D02*
X4805124Y-18329827D01*
X4824171Y-18320303D01*
X4871790Y-18320303D01*
X4890838Y-18329827D01*
X4900362Y-18339351D01*
X4909886Y-18358398D01*
X4909886Y-18377446D01*
X4900362Y-18406017D01*
X4786076Y-18520303D01*
X4909886Y-18520303D01*
X4986076Y-18320303D02*
X4986076Y-18358398D01*
X5062267Y-18320303D02*
X5062267Y-18358398D01*
X5357505Y-18596493D02*
X5347981Y-18586970D01*
X5328933Y-18558398D01*
X5319410Y-18539351D01*
X5309886Y-18510779D01*
X5300362Y-18463160D01*
X5300362Y-18425065D01*
X5309886Y-18377446D01*
X5319410Y-18348874D01*
X5328933Y-18329827D01*
X5347981Y-18301255D01*
X5357505Y-18291731D01*
X5538457Y-18520303D02*
X5424171Y-18520303D01*
X5481314Y-18520303D02*
X5481314Y-18320303D01*
X5462267Y-18348874D01*
X5443219Y-18367922D01*
X5424171Y-18377446D01*
X5652743Y-18406017D02*
X5633695Y-18396493D01*
X5624171Y-18386970D01*
X5614648Y-18367922D01*
X5614648Y-18358398D01*
X5624171Y-18339351D01*
X5633695Y-18329827D01*
X5652743Y-18320303D01*
X5690838Y-18320303D01*
X5709886Y-18329827D01*
X5719409Y-18339351D01*
X5728933Y-18358398D01*
X5728933Y-18367922D01*
X5719409Y-18386970D01*
X5709886Y-18396493D01*
X5690838Y-18406017D01*
X5652743Y-18406017D01*
X5633695Y-18415541D01*
X5624171Y-18425065D01*
X5614648Y-18444112D01*
X5614648Y-18482208D01*
X5624171Y-18501255D01*
X5633695Y-18510779D01*
X5652743Y-18520303D01*
X5690838Y-18520303D01*
X5709886Y-18510779D01*
X5719409Y-18501255D01*
X5728933Y-18482208D01*
X5728933Y-18444112D01*
X5719409Y-18425065D01*
X5709886Y-18415541D01*
X5690838Y-18406017D01*
X5967028Y-18520303D02*
X5967028Y-18320303D01*
X6052743Y-18520303D02*
X6052743Y-18415541D01*
X6043219Y-18396493D01*
X6024171Y-18386970D01*
X5995600Y-18386970D01*
X5976552Y-18396493D01*
X5967028Y-18406017D01*
X6176552Y-18520303D02*
X6157505Y-18510779D01*
X6147981Y-18501255D01*
X6138457Y-18482208D01*
X6138457Y-18425065D01*
X6147981Y-18406017D01*
X6157505Y-18396493D01*
X6176552Y-18386970D01*
X6205124Y-18386970D01*
X6224171Y-18396493D01*
X6233695Y-18406017D01*
X6243219Y-18425065D01*
X6243219Y-18482208D01*
X6233695Y-18501255D01*
X6224171Y-18510779D01*
X6205124Y-18520303D01*
X6176552Y-18520303D01*
X6357505Y-18520303D02*
X6338457Y-18510779D01*
X6328933Y-18491731D01*
X6328933Y-18320303D01*
X6509886Y-18510779D02*
X6490838Y-18520303D01*
X6452743Y-18520303D01*
X6433695Y-18510779D01*
X6424171Y-18491731D01*
X6424171Y-18415541D01*
X6433695Y-18396493D01*
X6452743Y-18386970D01*
X6490838Y-18386970D01*
X6509886Y-18396493D01*
X6519409Y-18415541D01*
X6519409Y-18434589D01*
X6424171Y-18453636D01*
X6595600Y-18510779D02*
X6614648Y-18520303D01*
X6652743Y-18520303D01*
X6671790Y-18510779D01*
X6681314Y-18491731D01*
X6681314Y-18482208D01*
X6671790Y-18463160D01*
X6652743Y-18453636D01*
X6624171Y-18453636D01*
X6605124Y-18444112D01*
X6595600Y-18425065D01*
X6595600Y-18415541D01*
X6605124Y-18396493D01*
X6624171Y-18386970D01*
X6652743Y-18386970D01*
X6671790Y-18396493D01*
X6747981Y-18596493D02*
X6757505Y-18586970D01*
X6776552Y-18558398D01*
X6786076Y-18539351D01*
X6795600Y-18510779D01*
X6805124Y-18463160D01*
X6805124Y-18425065D01*
X6795600Y-18377446D01*
X6786076Y-18348874D01*
X6776552Y-18329827D01*
X6757505Y-18301255D01*
X6747981Y-18291731D01*
M02*
