%TF.GenerationSoftware,KiCad,Pcbnew,(6.0.0)*%
%TF.CreationDate,2022-10-09T23:31:42-04:00*%
%TF.ProjectId,i2c darlington,69326320-6461-4726-9c69-6e67746f6e2e,rev?*%
%TF.SameCoordinates,Original*%
%TF.FileFunction,Paste,Top*%
%TF.FilePolarity,Positive*%
%FSLAX46Y46*%
G04 Gerber Fmt 4.6, Leading zero omitted, Abs format (unit mm)*
G04 Created by KiCad (PCBNEW (6.0.0)) date 2022-10-09 23:31:42*
%MOMM*%
%LPD*%
G01*
G04 APERTURE LIST*
G04 Aperture macros list*
%AMRoundRect*
0 Rectangle with rounded corners*
0 $1 Rounding radius*
0 $2 $3 $4 $5 $6 $7 $8 $9 X,Y pos of 4 corners*
0 Add a 4 corners polygon primitive as box body*
4,1,4,$2,$3,$4,$5,$6,$7,$8,$9,$2,$3,0*
0 Add four circle primitives for the rounded corners*
1,1,$1+$1,$2,$3*
1,1,$1+$1,$4,$5*
1,1,$1+$1,$6,$7*
1,1,$1+$1,$8,$9*
0 Add four rect primitives between the rounded corners*
20,1,$1+$1,$2,$3,$4,$5,0*
20,1,$1+$1,$4,$5,$6,$7,0*
20,1,$1+$1,$6,$7,$8,$9,0*
20,1,$1+$1,$8,$9,$2,$3,0*%
G04 Aperture macros list end*
%ADD10RoundRect,0.200000X0.275000X-0.200000X0.275000X0.200000X-0.275000X0.200000X-0.275000X-0.200000X0*%
%ADD11RoundRect,0.200000X-0.200000X-0.275000X0.200000X-0.275000X0.200000X0.275000X-0.200000X0.275000X0*%
%ADD12RoundRect,0.225000X-0.225000X-0.250000X0.225000X-0.250000X0.225000X0.250000X-0.225000X0.250000X0*%
%ADD13RoundRect,0.100000X-0.637500X-0.100000X0.637500X-0.100000X0.637500X0.100000X-0.637500X0.100000X0*%
G04 APERTURE END LIST*
D10*
%TO.C,R1*%
X33782000Y-124553000D03*
X33782000Y-122903000D03*
%TD*%
%TO.C,R6*%
X47117000Y-124538000D03*
X47117000Y-122888000D03*
%TD*%
%TO.C,R2*%
X36449000Y-124538000D03*
X36449000Y-122888000D03*
%TD*%
D11*
%TO.C,R11*%
X49645000Y-134112000D03*
X51295000Y-134112000D03*
%TD*%
D10*
%TO.C,R13*%
X37719000Y-145859000D03*
X37719000Y-144209000D03*
%TD*%
%TO.C,R16*%
X63246000Y-145732000D03*
X63246000Y-144082000D03*
%TD*%
%TO.C,R18*%
X68072000Y-145732000D03*
X68072000Y-144082000D03*
%TD*%
%TO.C,R3*%
X39116000Y-124538000D03*
X39116000Y-122888000D03*
%TD*%
%TO.C,R23*%
X93472000Y-145732000D03*
X93472000Y-144082000D03*
%TD*%
%TO.C,R14*%
X45339000Y-145859000D03*
X45339000Y-144209000D03*
%TD*%
%TO.C,R15*%
X48133000Y-145859000D03*
X48133000Y-144209000D03*
%TD*%
%TO.C,R19*%
X70866000Y-145732000D03*
X70866000Y-144082000D03*
%TD*%
%TO.C,R21*%
X83058000Y-145732000D03*
X83058000Y-144082000D03*
%TD*%
D12*
%TO.C,C1*%
X49771000Y-129032000D03*
X51321000Y-129032000D03*
%TD*%
D10*
%TO.C,R22*%
X90678000Y-145732000D03*
X90678000Y-144082000D03*
%TD*%
%TO.C,R10*%
X116078000Y-145732000D03*
X116078000Y-144082000D03*
%TD*%
%TO.C,R8*%
X105664000Y-145732000D03*
X105664000Y-144082000D03*
%TD*%
%TO.C,R7*%
X108458000Y-145732000D03*
X108458000Y-144082000D03*
%TD*%
D13*
%TO.C,U1*%
X41384500Y-131291000D03*
X41384500Y-131941000D03*
X41384500Y-132591000D03*
X41384500Y-133241000D03*
X41384500Y-133891000D03*
X41384500Y-134541000D03*
X41384500Y-135191000D03*
X41384500Y-135841000D03*
X41384500Y-136491000D03*
X41384500Y-137141000D03*
X41384500Y-137791000D03*
X41384500Y-138441000D03*
X41384500Y-139091000D03*
X41384500Y-139741000D03*
X47109500Y-139741000D03*
X47109500Y-139091000D03*
X47109500Y-138441000D03*
X47109500Y-137791000D03*
X47109500Y-137141000D03*
X47109500Y-136491000D03*
X47109500Y-135841000D03*
X47109500Y-135191000D03*
X47109500Y-134541000D03*
X47109500Y-133891000D03*
X47109500Y-133241000D03*
X47109500Y-132591000D03*
X47109500Y-131941000D03*
X47109500Y-131291000D03*
%TD*%
D10*
%TO.C,R4*%
X41783000Y-124538000D03*
X41783000Y-122888000D03*
%TD*%
%TO.C,R17*%
X60452000Y-145732000D03*
X60452000Y-144082000D03*
%TD*%
%TO.C,R5*%
X44450000Y-124553000D03*
X44450000Y-122903000D03*
%TD*%
%TO.C,R9*%
X113284000Y-145732000D03*
X113284000Y-144082000D03*
%TD*%
%TO.C,R20*%
X85852000Y-145732000D03*
X85852000Y-144082000D03*
%TD*%
%TO.C,R12*%
X40513000Y-145859000D03*
X40513000Y-144209000D03*
%TD*%
M02*
