%FSLAX45Y45*%
G04 Gerber Fmt 4.5, Leading zero omitted, Abs format (unit mm)*
G04 Created by KiCad (PCBNEW (6.0.0)) date 2022-10-09 23:31:44*
%MOMM*%
%LPD*%
G01*
G04 APERTURE LIST*
%TA.AperFunction,Profile*%
%ADD10C,0.100000*%
%TD*%
%ADD11C,0.200000*%
%ADD12C,0.320000*%
G04 APERTURE END LIST*
D10*
X2146200Y-11973500D02*
G75*
G03*
X1790600Y-12329100I0J-355600D01*
G01*
X13754100Y-16992827D02*
X2146200Y-16992600D01*
X14109700Y-12329100D02*
G75*
G03*
X13754100Y-11973500I-355600J0D01*
G01*
X1790600Y-12329100D02*
X1790600Y-16637000D01*
X13754100Y-16992827D02*
G75*
G03*
X14109700Y-16624300I0J355827D01*
G01*
X1790600Y-16637000D02*
G75*
G03*
X2146200Y-16992600I355600J0D01*
G01*
X2146200Y-11973500D02*
X13754100Y-11973500D01*
X14109700Y-12329100D02*
X14109700Y-16624300D01*
D11*
D12*
X1986200Y-12169100D02*
X2306200Y-12489100D01*
X2306200Y-12169100D02*
X1986200Y-12489100D01*
X1986200Y-16477000D02*
X2306200Y-16797000D01*
X2306200Y-16477000D02*
X1986200Y-16797000D01*
X13594100Y-12169100D02*
X13914100Y-12489100D01*
X13914100Y-12169100D02*
X13594100Y-12489100D01*
X13594100Y-16477000D02*
X13914100Y-16797000D01*
X13914100Y-16477000D02*
X13594100Y-16797000D01*
D11*
X2043219Y-17308303D02*
X2043219Y-17108303D01*
X2090838Y-17108303D01*
X2119410Y-17117827D01*
X2138457Y-17136874D01*
X2147981Y-17155922D01*
X2157505Y-17194017D01*
X2157505Y-17222589D01*
X2147981Y-17260684D01*
X2138457Y-17279731D01*
X2119410Y-17298779D01*
X2090838Y-17308303D01*
X2043219Y-17308303D01*
X2243219Y-17308303D02*
X2243219Y-17174970D01*
X2243219Y-17213065D02*
X2252743Y-17194017D01*
X2262267Y-17184493D01*
X2281314Y-17174970D01*
X2300362Y-17174970D01*
X2367029Y-17308303D02*
X2367029Y-17174970D01*
X2367029Y-17108303D02*
X2357505Y-17117827D01*
X2367029Y-17127351D01*
X2376552Y-17117827D01*
X2367029Y-17108303D01*
X2367029Y-17127351D01*
X2490838Y-17308303D02*
X2471790Y-17298779D01*
X2462267Y-17279731D01*
X2462267Y-17108303D01*
X2595600Y-17308303D02*
X2576552Y-17298779D01*
X2567029Y-17279731D01*
X2567029Y-17108303D01*
X2824171Y-17308303D02*
X2824171Y-17108303D01*
X2890838Y-17251160D01*
X2957505Y-17108303D01*
X2957505Y-17308303D01*
X3138457Y-17308303D02*
X3138457Y-17203541D01*
X3128933Y-17184493D01*
X3109886Y-17174970D01*
X3071790Y-17174970D01*
X3052743Y-17184493D01*
X3138457Y-17298779D02*
X3119409Y-17308303D01*
X3071790Y-17308303D01*
X3052743Y-17298779D01*
X3043219Y-17279731D01*
X3043219Y-17260684D01*
X3052743Y-17241636D01*
X3071790Y-17232112D01*
X3119409Y-17232112D01*
X3138457Y-17222589D01*
X3233695Y-17174970D02*
X3233695Y-17374970D01*
X3233695Y-17184493D02*
X3252743Y-17174970D01*
X3290838Y-17174970D01*
X3309886Y-17184493D01*
X3319409Y-17194017D01*
X3328933Y-17213065D01*
X3328933Y-17270208D01*
X3319409Y-17289255D01*
X3309886Y-17298779D01*
X3290838Y-17308303D01*
X3252743Y-17308303D01*
X3233695Y-17298779D01*
X3414648Y-17289255D02*
X3424171Y-17298779D01*
X3414648Y-17308303D01*
X3405124Y-17298779D01*
X3414648Y-17289255D01*
X3414648Y-17308303D01*
X3414648Y-17184493D02*
X3424171Y-17194017D01*
X3414648Y-17203541D01*
X3405124Y-17194017D01*
X3414648Y-17184493D01*
X3414648Y-17203541D01*
X1585600Y-17537827D02*
X1785600Y-17737827D01*
X1785600Y-17537827D02*
X1585600Y-17737827D01*
X2024171Y-17528303D02*
X2147981Y-17528303D01*
X2081314Y-17604493D01*
X2109886Y-17604493D01*
X2128933Y-17614017D01*
X2138457Y-17623541D01*
X2147981Y-17642589D01*
X2147981Y-17690208D01*
X2138457Y-17709255D01*
X2128933Y-17718779D01*
X2109886Y-17728303D01*
X2052743Y-17728303D01*
X2033695Y-17718779D01*
X2024171Y-17709255D01*
X2233695Y-17709255D02*
X2243219Y-17718779D01*
X2233695Y-17728303D01*
X2224171Y-17718779D01*
X2233695Y-17709255D01*
X2233695Y-17728303D01*
X2319410Y-17547351D02*
X2328933Y-17537827D01*
X2347981Y-17528303D01*
X2395600Y-17528303D01*
X2414648Y-17537827D01*
X2424171Y-17547351D01*
X2433695Y-17566398D01*
X2433695Y-17585446D01*
X2424171Y-17614017D01*
X2309886Y-17728303D01*
X2433695Y-17728303D01*
X2557505Y-17528303D02*
X2576552Y-17528303D01*
X2595600Y-17537827D01*
X2605124Y-17547351D01*
X2614648Y-17566398D01*
X2624171Y-17604493D01*
X2624171Y-17652112D01*
X2614648Y-17690208D01*
X2605124Y-17709255D01*
X2595600Y-17718779D01*
X2576552Y-17728303D01*
X2557505Y-17728303D01*
X2538457Y-17718779D01*
X2528933Y-17709255D01*
X2519410Y-17690208D01*
X2509886Y-17652112D01*
X2509886Y-17604493D01*
X2519410Y-17566398D01*
X2528933Y-17547351D01*
X2538457Y-17537827D01*
X2557505Y-17528303D01*
X2747981Y-17528303D02*
X2767029Y-17528303D01*
X2786076Y-17537827D01*
X2795600Y-17547351D01*
X2805124Y-17566398D01*
X2814648Y-17604493D01*
X2814648Y-17652112D01*
X2805124Y-17690208D01*
X2795600Y-17709255D01*
X2786076Y-17718779D01*
X2767029Y-17728303D01*
X2747981Y-17728303D01*
X2728933Y-17718779D01*
X2719410Y-17709255D01*
X2709886Y-17690208D01*
X2700362Y-17652112D01*
X2700362Y-17604493D01*
X2709886Y-17566398D01*
X2719410Y-17547351D01*
X2728933Y-17537827D01*
X2747981Y-17528303D01*
X2900362Y-17728303D02*
X2900362Y-17594970D01*
X2900362Y-17614017D02*
X2909886Y-17604493D01*
X2928933Y-17594970D01*
X2957505Y-17594970D01*
X2976552Y-17604493D01*
X2986076Y-17623541D01*
X2986076Y-17728303D01*
X2986076Y-17623541D02*
X2995600Y-17604493D01*
X3014648Y-17594970D01*
X3043219Y-17594970D01*
X3062267Y-17604493D01*
X3071790Y-17623541D01*
X3071790Y-17728303D01*
X3167028Y-17728303D02*
X3167028Y-17594970D01*
X3167028Y-17614017D02*
X3176552Y-17604493D01*
X3195600Y-17594970D01*
X3224171Y-17594970D01*
X3243219Y-17604493D01*
X3252743Y-17623541D01*
X3252743Y-17728303D01*
X3252743Y-17623541D02*
X3262267Y-17604493D01*
X3281314Y-17594970D01*
X3309886Y-17594970D01*
X3328933Y-17604493D01*
X3338457Y-17623541D01*
X3338457Y-17728303D01*
X3728933Y-17518779D02*
X3557505Y-17775922D01*
X3986076Y-17528303D02*
X4005124Y-17528303D01*
X4024171Y-17537827D01*
X4033695Y-17547351D01*
X4043219Y-17566398D01*
X4052743Y-17604493D01*
X4052743Y-17652112D01*
X4043219Y-17690208D01*
X4033695Y-17709255D01*
X4024171Y-17718779D01*
X4005124Y-17728303D01*
X3986076Y-17728303D01*
X3967028Y-17718779D01*
X3957505Y-17709255D01*
X3947981Y-17690208D01*
X3938457Y-17652112D01*
X3938457Y-17604493D01*
X3947981Y-17566398D01*
X3957505Y-17547351D01*
X3967028Y-17537827D01*
X3986076Y-17528303D01*
X4138457Y-17709255D02*
X4147981Y-17718779D01*
X4138457Y-17728303D01*
X4128933Y-17718779D01*
X4138457Y-17709255D01*
X4138457Y-17728303D01*
X4338457Y-17728303D02*
X4224171Y-17728303D01*
X4281314Y-17728303D02*
X4281314Y-17528303D01*
X4262267Y-17556874D01*
X4243219Y-17575922D01*
X4224171Y-17585446D01*
X4414648Y-17547351D02*
X4424171Y-17537827D01*
X4443219Y-17528303D01*
X4490838Y-17528303D01*
X4509886Y-17537827D01*
X4519410Y-17547351D01*
X4528933Y-17566398D01*
X4528933Y-17585446D01*
X4519410Y-17614017D01*
X4405124Y-17728303D01*
X4528933Y-17728303D01*
X4700362Y-17528303D02*
X4662267Y-17528303D01*
X4643219Y-17537827D01*
X4633695Y-17547351D01*
X4614648Y-17575922D01*
X4605124Y-17614017D01*
X4605124Y-17690208D01*
X4614648Y-17709255D01*
X4624171Y-17718779D01*
X4643219Y-17728303D01*
X4681314Y-17728303D01*
X4700362Y-17718779D01*
X4709886Y-17709255D01*
X4719410Y-17690208D01*
X4719410Y-17642589D01*
X4709886Y-17623541D01*
X4700362Y-17614017D01*
X4681314Y-17604493D01*
X4643219Y-17604493D01*
X4624171Y-17614017D01*
X4614648Y-17623541D01*
X4605124Y-17642589D01*
X4843219Y-17528303D02*
X4862267Y-17528303D01*
X4881314Y-17537827D01*
X4890838Y-17547351D01*
X4900362Y-17566398D01*
X4909886Y-17604493D01*
X4909886Y-17652112D01*
X4900362Y-17690208D01*
X4890838Y-17709255D01*
X4881314Y-17718779D01*
X4862267Y-17728303D01*
X4843219Y-17728303D01*
X4824171Y-17718779D01*
X4814648Y-17709255D01*
X4805124Y-17690208D01*
X4795600Y-17652112D01*
X4795600Y-17604493D01*
X4805124Y-17566398D01*
X4814648Y-17547351D01*
X4824171Y-17537827D01*
X4843219Y-17528303D01*
X4986076Y-17528303D02*
X4986076Y-17566398D01*
X5062267Y-17528303D02*
X5062267Y-17566398D01*
X5357505Y-17804493D02*
X5347981Y-17794970D01*
X5328933Y-17766398D01*
X5319410Y-17747351D01*
X5309886Y-17718779D01*
X5300362Y-17671160D01*
X5300362Y-17633065D01*
X5309886Y-17585446D01*
X5319410Y-17556874D01*
X5328933Y-17537827D01*
X5347981Y-17509255D01*
X5357505Y-17499731D01*
X5519410Y-17594970D02*
X5519410Y-17728303D01*
X5471790Y-17518779D02*
X5424171Y-17661636D01*
X5547981Y-17661636D01*
X5776552Y-17728303D02*
X5776552Y-17528303D01*
X5862267Y-17728303D02*
X5862267Y-17623541D01*
X5852743Y-17604493D01*
X5833695Y-17594970D01*
X5805124Y-17594970D01*
X5786076Y-17604493D01*
X5776552Y-17614017D01*
X5986076Y-17728303D02*
X5967028Y-17718779D01*
X5957505Y-17709255D01*
X5947981Y-17690208D01*
X5947981Y-17633065D01*
X5957505Y-17614017D01*
X5967028Y-17604493D01*
X5986076Y-17594970D01*
X6014648Y-17594970D01*
X6033695Y-17604493D01*
X6043219Y-17614017D01*
X6052743Y-17633065D01*
X6052743Y-17690208D01*
X6043219Y-17709255D01*
X6033695Y-17718779D01*
X6014648Y-17728303D01*
X5986076Y-17728303D01*
X6167028Y-17728303D02*
X6147981Y-17718779D01*
X6138457Y-17699731D01*
X6138457Y-17528303D01*
X6319409Y-17718779D02*
X6300362Y-17728303D01*
X6262267Y-17728303D01*
X6243219Y-17718779D01*
X6233695Y-17699731D01*
X6233695Y-17623541D01*
X6243219Y-17604493D01*
X6262267Y-17594970D01*
X6300362Y-17594970D01*
X6319409Y-17604493D01*
X6328933Y-17623541D01*
X6328933Y-17642589D01*
X6233695Y-17661636D01*
X6405124Y-17718779D02*
X6424171Y-17728303D01*
X6462267Y-17728303D01*
X6481314Y-17718779D01*
X6490838Y-17699731D01*
X6490838Y-17690208D01*
X6481314Y-17671160D01*
X6462267Y-17661636D01*
X6433695Y-17661636D01*
X6414648Y-17652112D01*
X6405124Y-17633065D01*
X6405124Y-17623541D01*
X6414648Y-17604493D01*
X6433695Y-17594970D01*
X6462267Y-17594970D01*
X6481314Y-17604493D01*
X6557505Y-17804493D02*
X6567028Y-17794970D01*
X6586076Y-17766398D01*
X6595600Y-17747351D01*
X6605124Y-17718779D01*
X6614648Y-17671160D01*
X6614648Y-17633065D01*
X6605124Y-17585446D01*
X6595600Y-17556874D01*
X6586076Y-17537827D01*
X6567028Y-17509255D01*
X6557505Y-17499731D01*
X6919409Y-17804493D02*
X6909886Y-17794970D01*
X6890838Y-17766398D01*
X6881314Y-17747351D01*
X6871790Y-17718779D01*
X6862267Y-17671160D01*
X6862267Y-17633065D01*
X6871790Y-17585446D01*
X6881314Y-17556874D01*
X6890838Y-17537827D01*
X6909886Y-17509255D01*
X6919409Y-17499731D01*
X6995600Y-17594970D02*
X6995600Y-17728303D01*
X6995600Y-17614017D02*
X7005124Y-17604493D01*
X7024171Y-17594970D01*
X7052743Y-17594970D01*
X7071790Y-17604493D01*
X7081314Y-17623541D01*
X7081314Y-17728303D01*
X7205124Y-17728303D02*
X7186076Y-17718779D01*
X7176552Y-17709255D01*
X7167028Y-17690208D01*
X7167028Y-17633065D01*
X7176552Y-17614017D01*
X7186076Y-17604493D01*
X7205124Y-17594970D01*
X7233695Y-17594970D01*
X7252743Y-17604493D01*
X7262267Y-17614017D01*
X7271790Y-17633065D01*
X7271790Y-17690208D01*
X7262267Y-17709255D01*
X7252743Y-17718779D01*
X7233695Y-17728303D01*
X7205124Y-17728303D01*
X7328933Y-17594970D02*
X7405124Y-17594970D01*
X7357505Y-17528303D02*
X7357505Y-17699731D01*
X7367028Y-17718779D01*
X7386076Y-17728303D01*
X7405124Y-17728303D01*
X7624171Y-17594970D02*
X7624171Y-17794970D01*
X7624171Y-17604493D02*
X7643219Y-17594970D01*
X7681314Y-17594970D01*
X7700362Y-17604493D01*
X7709886Y-17614017D01*
X7719409Y-17633065D01*
X7719409Y-17690208D01*
X7709886Y-17709255D01*
X7700362Y-17718779D01*
X7681314Y-17728303D01*
X7643219Y-17728303D01*
X7624171Y-17718779D01*
X7833695Y-17728303D02*
X7814648Y-17718779D01*
X7805124Y-17699731D01*
X7805124Y-17528303D01*
X7995600Y-17728303D02*
X7995600Y-17623541D01*
X7986076Y-17604493D01*
X7967028Y-17594970D01*
X7928933Y-17594970D01*
X7909886Y-17604493D01*
X7995600Y-17718779D02*
X7976552Y-17728303D01*
X7928933Y-17728303D01*
X7909886Y-17718779D01*
X7900362Y-17699731D01*
X7900362Y-17680684D01*
X7909886Y-17661636D01*
X7928933Y-17652112D01*
X7976552Y-17652112D01*
X7995600Y-17642589D01*
X8062267Y-17594970D02*
X8138457Y-17594970D01*
X8090838Y-17528303D02*
X8090838Y-17699731D01*
X8100362Y-17718779D01*
X8119409Y-17728303D01*
X8138457Y-17728303D01*
X8281314Y-17718779D02*
X8262267Y-17728303D01*
X8224171Y-17728303D01*
X8205124Y-17718779D01*
X8195600Y-17699731D01*
X8195600Y-17623541D01*
X8205124Y-17604493D01*
X8224171Y-17594970D01*
X8262267Y-17594970D01*
X8281314Y-17604493D01*
X8290838Y-17623541D01*
X8290838Y-17642589D01*
X8195600Y-17661636D01*
X8462267Y-17728303D02*
X8462267Y-17528303D01*
X8462267Y-17718779D02*
X8443219Y-17728303D01*
X8405124Y-17728303D01*
X8386076Y-17718779D01*
X8376552Y-17709255D01*
X8367028Y-17690208D01*
X8367028Y-17633065D01*
X8376552Y-17614017D01*
X8386076Y-17604493D01*
X8405124Y-17594970D01*
X8443219Y-17594970D01*
X8462267Y-17604493D01*
X8538457Y-17804493D02*
X8547981Y-17794970D01*
X8567029Y-17766398D01*
X8576552Y-17747351D01*
X8586076Y-17718779D01*
X8595600Y-17671160D01*
X8595600Y-17633065D01*
X8586076Y-17585446D01*
X8576552Y-17556874D01*
X8567029Y-17537827D01*
X8547981Y-17509255D01*
X8538457Y-17499731D01*
M02*
