M48
; DRILL file {KiCad (6.0.0)} date Thu Aug 18 21:59:38 2022
; FORMAT={-:-/ absolute / metric / decimal}
; #@! TF.CreationDate,2022-08-18T21:59:38-04:00
; #@! TF.GenerationSoftware,Kicad,Pcbnew,(6.0.0)
; #@! TF.FileFunction,Plated,1,2,PTH
FMAT,2
METRIC
; #@! TA.AperFunction,Plated,PTH,ViaDrill
T1C0.400
; #@! TA.AperFunction,Plated,PTH,ComponentDrill
T2C0.800
; #@! TA.AperFunction,Plated,PTH,ComponentDrill
T3C1.000
; #@! TA.AperFunction,Plated,PTH,ComponentDrill
T4C1.100
%
G90
G05
T1
X68.565Y-120.157
X70.104Y-106.172
X70.109Y-90.429
X71.12Y-121.158
X72.644Y-106.934
X73.66Y-122.174
X75.184Y-107.442
X76.2Y-123.19
X77.724Y-107.95
X78.74Y-124.206
X80.264Y-108.712
X81.28Y-125.222
X82.804Y-109.22
X83.82Y-126.238
X85.344Y-109.982
X85.598Y-70.104
X86.36Y-127.254
X87.63Y-70.104
X87.884Y-110.49
X90.932Y-84.074
X91.75Y-86.812
X94.737Y-51.811
X95.674Y-89.324
X97.536Y-99.568
X100.076Y-101.6
X100.076Y-102.616
X100.076Y-103.632
X100.076Y-104.902
X100.076Y-106.172
X100.076Y-107.188
X100.076Y-108.458
X100.076Y-109.474
X101.854Y-109.474
X103.129Y-109.469
X104.394Y-108.458
X105.664Y-67.564
X105.669Y-108.199
X106.426Y-66.04
X106.934Y-107.188
X108.209Y-107.183
X108.712Y-75.438
X108.727Y-51.801
X109.474Y-106.172
X110.749Y-105.913
X111.252Y-66.04
X111.252Y-67.564
X112.014Y-104.902
X113.289Y-104.643
X114.554Y-103.632
X115.829Y-103.627
X117.094Y-102.616
X118.369Y-102.611
X119.634Y-101.6
X120.396Y-68.58
X121.92Y-55.626
X121.92Y-92.456
X121.92Y-93.98
X122.174Y-64.008
X122.174Y-90.424
X123.444Y-67.056
X125.222Y-67.056
X129.54Y-57.15
X131.318Y-59.436
X135.89Y-57.658
X136.906Y-66.802
X138.176Y-75.438
X138.43Y-65.532
X141.116Y-82.404
X142.24Y-68.58
X143.515Y-70.617
X148.595Y-94.493
X150.876Y-86.614
X152.262Y-85.714
X152.767Y-49.389
X152.767Y-82.409
X153.162Y-90.932
T2
X56.935Y-58.572
X56.935Y-60.572
X57.507Y-82.98
X62.387Y-82.98
X70.109Y-81.031
X70.109Y-96.271
X72.189Y-58.96
X72.189Y-60.96
X72.649Y-81.031
X72.649Y-96.271
X75.189Y-81.031
X75.189Y-96.271
X77.729Y-81.031
X77.729Y-96.271
X80.269Y-81.031
X80.269Y-96.271
X82.809Y-81.031
X82.809Y-96.271
X85.349Y-81.031
X85.349Y-96.271
X87.429Y-58.674
X87.429Y-60.674
X87.889Y-81.031
X87.889Y-96.271
X90.429Y-81.031
X90.429Y-96.271
X92.969Y-81.031
X92.969Y-96.271
X95.509Y-81.031
X95.509Y-96.271
X98.049Y-81.031
X98.049Y-96.271
X100.589Y-81.031
X100.589Y-96.271
X103.129Y-81.031
X103.129Y-96.271
X105.669Y-81.031
X105.669Y-96.271
X108.209Y-81.031
X108.209Y-96.271
X110.749Y-81.031
X110.749Y-96.271
X113.289Y-81.031
X113.289Y-96.271
X115.829Y-81.031
X115.829Y-96.271
X118.369Y-81.031
X118.369Y-96.271
X133.096Y-92.71
X135.636Y-92.71
X138.176Y-92.71
T3
X56.627Y-73.564
X56.632Y-71.024
X57.155Y-116.236
X57.155Y-118.776
X59.167Y-73.564
X59.172Y-71.024
X59.695Y-116.236
X59.695Y-118.776
X61.707Y-73.564
X61.712Y-71.024
X62.235Y-116.236
X62.235Y-118.776
X64.247Y-73.564
X64.252Y-71.024
X64.775Y-116.236
X64.775Y-118.776
X66.787Y-73.564
X66.792Y-71.024
X67.315Y-116.236
X67.315Y-118.776
X69.855Y-116.236
X69.855Y-118.776
X72.395Y-116.236
X72.395Y-118.776
X74.935Y-116.236
X74.935Y-118.776
X77.475Y-116.236
X77.475Y-118.776
X80.015Y-116.236
X80.015Y-118.776
X82.555Y-116.236
X82.555Y-118.776
X85.095Y-116.236
X85.095Y-118.776
X87.635Y-116.236
X87.635Y-118.776
X89.657Y-44.1
X89.657Y-46.64
X90.175Y-116.236
X90.175Y-118.776
X92.197Y-44.1
X92.197Y-46.64
X92.715Y-116.236
X92.715Y-118.776
X94.737Y-44.1
X94.737Y-46.64
X94.742Y-71.024
X94.742Y-73.564
X95.255Y-116.236
X95.255Y-118.776
X97.282Y-71.024
X97.282Y-73.564
X97.795Y-116.236
X97.795Y-118.776
X99.822Y-71.024
X99.822Y-73.564
X100.335Y-116.236
X100.335Y-118.776
X102.362Y-71.024
X102.362Y-73.564
X102.875Y-116.236
X102.875Y-118.776
X104.897Y-44.1
X104.897Y-46.64
X104.902Y-71.024
X104.902Y-73.564
X105.415Y-116.236
X105.415Y-118.776
X107.437Y-44.1
X107.437Y-46.64
X107.955Y-116.236
X107.955Y-118.776
X109.977Y-44.1
X109.977Y-46.64
X110.495Y-116.236
X110.495Y-118.776
X112.517Y-44.1
X112.517Y-46.64
X113.035Y-116.236
X113.035Y-118.776
X115.057Y-44.1
X115.057Y-46.64
X115.575Y-116.236
X115.575Y-118.776
X118.115Y-116.236
X118.115Y-118.776
X120.655Y-116.236
X120.655Y-118.776
X123.195Y-116.236
X123.195Y-118.776
X124.46Y-46.64
X125.735Y-116.236
X125.735Y-118.776
X126.492Y-90.937
X126.492Y-93.477
X126.741Y-73.154
X126.746Y-70.614
X127.0Y-46.64
X128.275Y-116.236
X128.275Y-118.776
X129.281Y-73.154
X129.286Y-70.614
X129.54Y-46.64
X129.592Y-81.062
X129.592Y-85.562
X130.815Y-116.236
X130.815Y-118.776
X131.821Y-73.154
X131.826Y-70.614
X133.355Y-116.236
X133.355Y-118.776
X134.361Y-73.154
X134.366Y-70.614
X135.89Y-51.72
X135.895Y-116.236
X135.895Y-118.776
X136.092Y-81.062
X136.092Y-85.562
X136.901Y-73.154
X136.906Y-70.614
X138.43Y-51.72
X138.435Y-116.236
X138.435Y-118.776
X140.97Y-51.72
X140.975Y-116.236
X140.975Y-118.776
X143.51Y-51.72
X143.51Y-56.8
X143.51Y-59.34
X143.515Y-116.236
X143.515Y-118.776
X146.05Y-51.72
X146.055Y-116.236
X146.055Y-118.776
X148.59Y-51.72
X148.595Y-116.236
X148.595Y-118.776
X151.135Y-116.236
X151.135Y-118.776
X153.675Y-116.236
X153.675Y-118.776
X156.215Y-116.236
X156.215Y-118.776
T4
X79.357Y-52.07
X81.897Y-52.07
T3
X67.177Y-50.26G85X67.177Y-52.26
G05
X72.877Y-48.26G85X70.877Y-48.26
G05
X72.877Y-54.26G85X70.877Y-54.26
G05
T0
M30
