G04 #@! TF.GenerationSoftware,KiCad,Pcbnew,(6.0.0)*
G04 #@! TF.CreationDate,2022-08-18T21:59:34-04:00*
G04 #@! TF.ProjectId,Atmega16 breakout,41746d65-6761-4313-9620-627265616b6f,rev?*
G04 #@! TF.SameCoordinates,Original*
G04 #@! TF.FileFunction,Soldermask,Bot*
G04 #@! TF.FilePolarity,Negative*
%FSLAX46Y46*%
G04 Gerber Fmt 4.6, Leading zero omitted, Abs format (unit mm)*
G04 Created by KiCad (PCBNEW (6.0.0)) date 2022-08-18 21:59:34*
%MOMM*%
%LPD*%
G01*
G04 APERTURE LIST*
G04 Aperture macros list*
%AMRoundRect*
0 Rectangle with rounded corners*
0 $1 Rounding radius*
0 $2 $3 $4 $5 $6 $7 $8 $9 X,Y pos of 4 corners*
0 Add a 4 corners polygon primitive as box body*
4,1,4,$2,$3,$4,$5,$6,$7,$8,$9,$2,$3,0*
0 Add four circle primitives for the rounded corners*
1,1,$1+$1,$2,$3*
1,1,$1+$1,$4,$5*
1,1,$1+$1,$6,$7*
1,1,$1+$1,$8,$9*
0 Add four rect primitives between the rounded corners*
20,1,$1+$1,$2,$3,$4,$5,0*
20,1,$1+$1,$4,$5,$6,$7,0*
20,1,$1+$1,$6,$7,$8,$9,0*
20,1,$1+$1,$8,$9,$2,$3,0*%
G04 Aperture macros list end*
%ADD10R,1.600000X1.600000*%
%ADD11O,1.600000X1.600000*%
%ADD12R,1.700000X1.700000*%
%ADD13O,1.700000X1.700000*%
%ADD14C,1.600000*%
%ADD15C,1.500000*%
%ADD16C,3.200000*%
%ADD17R,2.200000X2.200000*%
%ADD18O,2.200000X2.200000*%
%ADD19C,1.440000*%
%ADD20R,3.500000X3.500000*%
%ADD21RoundRect,0.750000X-1.000000X0.750000X-1.000000X-0.750000X1.000000X-0.750000X1.000000X0.750000X0*%
%ADD22RoundRect,0.875000X-0.875000X0.875000X-0.875000X-0.875000X0.875000X-0.875000X0.875000X0.875000X0*%
%ADD23C,1.700000*%
G04 APERTURE END LIST*
D10*
X70109000Y-96271000D03*
D11*
X72649000Y-96271000D03*
X75189000Y-96271000D03*
X77729000Y-96271000D03*
X80269000Y-96271000D03*
X82809000Y-96271000D03*
X85349000Y-96271000D03*
X87889000Y-96271000D03*
X90429000Y-96271000D03*
X92969000Y-96271000D03*
X95509000Y-96271000D03*
X98049000Y-96271000D03*
X100589000Y-96271000D03*
X103129000Y-96271000D03*
X105669000Y-96271000D03*
X108209000Y-96271000D03*
X110749000Y-96271000D03*
X113289000Y-96271000D03*
X115829000Y-96271000D03*
X118369000Y-96271000D03*
X118369000Y-81031000D03*
X115829000Y-81031000D03*
X113289000Y-81031000D03*
X110749000Y-81031000D03*
X108209000Y-81031000D03*
X105669000Y-81031000D03*
X103129000Y-81031000D03*
X100589000Y-81031000D03*
X98049000Y-81031000D03*
X95509000Y-81031000D03*
X92969000Y-81031000D03*
X90429000Y-81031000D03*
X87889000Y-81031000D03*
X85349000Y-81031000D03*
X82809000Y-81031000D03*
X80269000Y-81031000D03*
X77729000Y-81031000D03*
X75189000Y-81031000D03*
X72649000Y-81031000D03*
X70109000Y-81031000D03*
D12*
X89657000Y-46640000D03*
D13*
X89657000Y-44100000D03*
X92197000Y-46640000D03*
X92197000Y-44100000D03*
X94737000Y-46640000D03*
X94737000Y-44100000D03*
D12*
X124460000Y-46640000D03*
D13*
X127000000Y-46640000D03*
X129540000Y-46640000D03*
D10*
X72189500Y-58960000D03*
D14*
X72189500Y-60960000D03*
D15*
X57507000Y-82979500D03*
X62387000Y-82979500D03*
D12*
X126492000Y-93477000D03*
D13*
X126492000Y-90937000D03*
D16*
X55880000Y-104140000D03*
D12*
X66787000Y-73564000D03*
D13*
X64247000Y-73564000D03*
X61707000Y-73564000D03*
X59167000Y-73564000D03*
X56627000Y-73564000D03*
D12*
X126741000Y-73154500D03*
D13*
X129281000Y-73154500D03*
X131821000Y-73154500D03*
X134361000Y-73154500D03*
X136901000Y-73154500D03*
D12*
X94742000Y-73564000D03*
D13*
X97282000Y-73564000D03*
X99822000Y-73564000D03*
X102362000Y-73564000D03*
X104902000Y-73564000D03*
D16*
X157480000Y-104140000D03*
D10*
X87429500Y-58674000D03*
D14*
X87429500Y-60674000D03*
D12*
X94742000Y-71024000D03*
D13*
X97282000Y-71024000D03*
X99822000Y-71024000D03*
X102362000Y-71024000D03*
X104902000Y-71024000D03*
D12*
X143510000Y-56800000D03*
D13*
X143510000Y-59340000D03*
D10*
X56935500Y-58572000D03*
D14*
X56935500Y-60572000D03*
D12*
X126746000Y-70614500D03*
D13*
X129286000Y-70614500D03*
X131826000Y-70614500D03*
X134366000Y-70614500D03*
X136906000Y-70614500D03*
D17*
X81897266Y-52070000D03*
D18*
X79357266Y-52070000D03*
D12*
X104897000Y-46640000D03*
D13*
X104897000Y-44100000D03*
X107437000Y-46640000D03*
X107437000Y-44100000D03*
X109977000Y-46640000D03*
X109977000Y-44100000D03*
X112517000Y-46640000D03*
X112517000Y-44100000D03*
X115057000Y-46640000D03*
X115057000Y-44100000D03*
D19*
X138176000Y-92710000D03*
X135636000Y-92710000D03*
X133096000Y-92710000D03*
D16*
X157480000Y-45720000D03*
D20*
X71877000Y-54260000D03*
D21*
X71877000Y-48260000D03*
D22*
X67177000Y-51260000D03*
D12*
X135890000Y-51720000D03*
D13*
X138430000Y-51720000D03*
X140970000Y-51720000D03*
X143510000Y-51720000D03*
X146050000Y-51720000D03*
X148590000Y-51720000D03*
D23*
X129592000Y-81062000D03*
X136092000Y-81062000D03*
X129592000Y-85562000D03*
X136092000Y-85562000D03*
D12*
X57155000Y-118776000D03*
D13*
X59695000Y-118776000D03*
X62235000Y-118776000D03*
X64775000Y-118776000D03*
X67315000Y-118776000D03*
X69855000Y-118776000D03*
X72395000Y-118776000D03*
X74935000Y-118776000D03*
X77475000Y-118776000D03*
X80015000Y-118776000D03*
X82555000Y-118776000D03*
X85095000Y-118776000D03*
X87635000Y-118776000D03*
X90175000Y-118776000D03*
X92715000Y-118776000D03*
X95255000Y-118776000D03*
X97795000Y-118776000D03*
X100335000Y-118776000D03*
X102875000Y-118776000D03*
X105415000Y-118776000D03*
X107955000Y-118776000D03*
X110495000Y-118776000D03*
X113035000Y-118776000D03*
X115575000Y-118776000D03*
X118115000Y-118776000D03*
X120655000Y-118776000D03*
X123195000Y-118776000D03*
X125735000Y-118776000D03*
X128275000Y-118776000D03*
X130815000Y-118776000D03*
X133355000Y-118776000D03*
X135895000Y-118776000D03*
X138435000Y-118776000D03*
X140975000Y-118776000D03*
X143515000Y-118776000D03*
X146055000Y-118776000D03*
X148595000Y-118776000D03*
X151135000Y-118776000D03*
X153675000Y-118776000D03*
X156215000Y-118776000D03*
D12*
X66792000Y-71024000D03*
D13*
X64252000Y-71024000D03*
X61712000Y-71024000D03*
X59172000Y-71024000D03*
X56632000Y-71024000D03*
D12*
X57155000Y-116236000D03*
D13*
X59695000Y-116236000D03*
X62235000Y-116236000D03*
X64775000Y-116236000D03*
X67315000Y-116236000D03*
X69855000Y-116236000D03*
X72395000Y-116236000D03*
X74935000Y-116236000D03*
X77475000Y-116236000D03*
X80015000Y-116236000D03*
X82555000Y-116236000D03*
X85095000Y-116236000D03*
X87635000Y-116236000D03*
X90175000Y-116236000D03*
X92715000Y-116236000D03*
X95255000Y-116236000D03*
X97795000Y-116236000D03*
X100335000Y-116236000D03*
X102875000Y-116236000D03*
X105415000Y-116236000D03*
X107955000Y-116236000D03*
X110495000Y-116236000D03*
X113035000Y-116236000D03*
X115575000Y-116236000D03*
X118115000Y-116236000D03*
X120655000Y-116236000D03*
X123195000Y-116236000D03*
X125735000Y-116236000D03*
X128275000Y-116236000D03*
X130815000Y-116236000D03*
X133355000Y-116236000D03*
X135895000Y-116236000D03*
X138435000Y-116236000D03*
X140975000Y-116236000D03*
X143515000Y-116236000D03*
X146055000Y-116236000D03*
X148595000Y-116236000D03*
X151135000Y-116236000D03*
X153675000Y-116236000D03*
X156215000Y-116236000D03*
D16*
X55880000Y-45720000D03*
M02*
