%FSLAX45Y45*%
G04 Gerber Fmt 4.5, Leading zero omitted, Abs format (unit mm)*
G04 Created by KiCad (PCBNEW (6.0.0)) date 2022-08-18 21:59:38*
%MOMM*%
%LPD*%
G01*
G04 APERTURE LIST*
%TA.AperFunction,Profile*%
%ADD10C,0.100000*%
%TD*%
%ADD11C,0.200000*%
%ADD12C,0.320000*%
G04 APERTURE END LIST*
D10*
X16256000Y-4572000D02*
X16256000Y-12446000D01*
X15748000Y-12954000D02*
G75*
G03*
X16256000Y-12446000I0J508000D01*
G01*
X16256000Y-4572000D02*
G75*
G03*
X15748000Y-4064000I-508000J0D01*
G01*
X5080000Y-12446000D02*
G75*
G03*
X5588000Y-12954000I508000J0D01*
G01*
X5588000Y-4064000D02*
X15748000Y-4064000D01*
X5080000Y-12446000D02*
X5080000Y-12420600D01*
X5080000Y-12420600D02*
X5080000Y-4572000D01*
X5588000Y-4064000D02*
G75*
G03*
X5080000Y-4572000I0J-508000D01*
G01*
X15748000Y-12954000D02*
X5588000Y-12954000D01*
D11*
D12*
X5428000Y-4412000D02*
X5748000Y-4732000D01*
X5748000Y-4412000D02*
X5428000Y-4732000D01*
X5428000Y-10254000D02*
X5748000Y-10574000D01*
X5748000Y-10254000D02*
X5428000Y-10574000D01*
X15588000Y-4412000D02*
X15908000Y-4732000D01*
X15908000Y-4412000D02*
X15588000Y-4732000D01*
X15588000Y-10254000D02*
X15908000Y-10574000D01*
X15908000Y-10254000D02*
X15588000Y-10574000D01*
D11*
X5332619Y-13269476D02*
X5332619Y-13069476D01*
X5380238Y-13069476D01*
X5408810Y-13079000D01*
X5427857Y-13098048D01*
X5437381Y-13117095D01*
X5446905Y-13155190D01*
X5446905Y-13183762D01*
X5437381Y-13221857D01*
X5427857Y-13240905D01*
X5408810Y-13259952D01*
X5380238Y-13269476D01*
X5332619Y-13269476D01*
X5532619Y-13269476D02*
X5532619Y-13136143D01*
X5532619Y-13174238D02*
X5542143Y-13155190D01*
X5551667Y-13145667D01*
X5570714Y-13136143D01*
X5589762Y-13136143D01*
X5656428Y-13269476D02*
X5656428Y-13136143D01*
X5656428Y-13069476D02*
X5646905Y-13079000D01*
X5656428Y-13088524D01*
X5665952Y-13079000D01*
X5656428Y-13069476D01*
X5656428Y-13088524D01*
X5780238Y-13269476D02*
X5761190Y-13259952D01*
X5751667Y-13240905D01*
X5751667Y-13069476D01*
X5885000Y-13269476D02*
X5865952Y-13259952D01*
X5856428Y-13240905D01*
X5856428Y-13069476D01*
X6113571Y-13269476D02*
X6113571Y-13069476D01*
X6180238Y-13212333D01*
X6246905Y-13069476D01*
X6246905Y-13269476D01*
X6427857Y-13269476D02*
X6427857Y-13164714D01*
X6418333Y-13145667D01*
X6399286Y-13136143D01*
X6361190Y-13136143D01*
X6342143Y-13145667D01*
X6427857Y-13259952D02*
X6408809Y-13269476D01*
X6361190Y-13269476D01*
X6342143Y-13259952D01*
X6332619Y-13240905D01*
X6332619Y-13221857D01*
X6342143Y-13202809D01*
X6361190Y-13193286D01*
X6408809Y-13193286D01*
X6427857Y-13183762D01*
X6523095Y-13136143D02*
X6523095Y-13336143D01*
X6523095Y-13145667D02*
X6542143Y-13136143D01*
X6580238Y-13136143D01*
X6599286Y-13145667D01*
X6608809Y-13155190D01*
X6618333Y-13174238D01*
X6618333Y-13231381D01*
X6608809Y-13250428D01*
X6599286Y-13259952D01*
X6580238Y-13269476D01*
X6542143Y-13269476D01*
X6523095Y-13259952D01*
X6704048Y-13250428D02*
X6713571Y-13259952D01*
X6704048Y-13269476D01*
X6694524Y-13259952D01*
X6704048Y-13250428D01*
X6704048Y-13269476D01*
X6704048Y-13145667D02*
X6713571Y-13155190D01*
X6704048Y-13164714D01*
X6694524Y-13155190D01*
X6704048Y-13145667D01*
X6704048Y-13164714D01*
X4875000Y-13499000D02*
X5075000Y-13699000D01*
X5075000Y-13499000D02*
X4875000Y-13699000D01*
X5313571Y-13489476D02*
X5437381Y-13489476D01*
X5370714Y-13565667D01*
X5399286Y-13565667D01*
X5418333Y-13575190D01*
X5427857Y-13584714D01*
X5437381Y-13603762D01*
X5437381Y-13651381D01*
X5427857Y-13670428D01*
X5418333Y-13679952D01*
X5399286Y-13689476D01*
X5342143Y-13689476D01*
X5323095Y-13679952D01*
X5313571Y-13670428D01*
X5523095Y-13670428D02*
X5532619Y-13679952D01*
X5523095Y-13689476D01*
X5513571Y-13679952D01*
X5523095Y-13670428D01*
X5523095Y-13689476D01*
X5608809Y-13508524D02*
X5618333Y-13499000D01*
X5637381Y-13489476D01*
X5685000Y-13489476D01*
X5704048Y-13499000D01*
X5713571Y-13508524D01*
X5723095Y-13527571D01*
X5723095Y-13546619D01*
X5713571Y-13575190D01*
X5599286Y-13689476D01*
X5723095Y-13689476D01*
X5846905Y-13489476D02*
X5865952Y-13489476D01*
X5885000Y-13499000D01*
X5894524Y-13508524D01*
X5904048Y-13527571D01*
X5913571Y-13565667D01*
X5913571Y-13613286D01*
X5904048Y-13651381D01*
X5894524Y-13670428D01*
X5885000Y-13679952D01*
X5865952Y-13689476D01*
X5846905Y-13689476D01*
X5827857Y-13679952D01*
X5818333Y-13670428D01*
X5808809Y-13651381D01*
X5799286Y-13613286D01*
X5799286Y-13565667D01*
X5808809Y-13527571D01*
X5818333Y-13508524D01*
X5827857Y-13499000D01*
X5846905Y-13489476D01*
X6037381Y-13489476D02*
X6056428Y-13489476D01*
X6075476Y-13499000D01*
X6085000Y-13508524D01*
X6094524Y-13527571D01*
X6104048Y-13565667D01*
X6104048Y-13613286D01*
X6094524Y-13651381D01*
X6085000Y-13670428D01*
X6075476Y-13679952D01*
X6056428Y-13689476D01*
X6037381Y-13689476D01*
X6018333Y-13679952D01*
X6008809Y-13670428D01*
X5999286Y-13651381D01*
X5989762Y-13613286D01*
X5989762Y-13565667D01*
X5999286Y-13527571D01*
X6008809Y-13508524D01*
X6018333Y-13499000D01*
X6037381Y-13489476D01*
X6189762Y-13689476D02*
X6189762Y-13556143D01*
X6189762Y-13575190D02*
X6199286Y-13565667D01*
X6218333Y-13556143D01*
X6246905Y-13556143D01*
X6265952Y-13565667D01*
X6275476Y-13584714D01*
X6275476Y-13689476D01*
X6275476Y-13584714D02*
X6285000Y-13565667D01*
X6304048Y-13556143D01*
X6332619Y-13556143D01*
X6351667Y-13565667D01*
X6361190Y-13584714D01*
X6361190Y-13689476D01*
X6456428Y-13689476D02*
X6456428Y-13556143D01*
X6456428Y-13575190D02*
X6465952Y-13565667D01*
X6485000Y-13556143D01*
X6513571Y-13556143D01*
X6532619Y-13565667D01*
X6542143Y-13584714D01*
X6542143Y-13689476D01*
X6542143Y-13584714D02*
X6551667Y-13565667D01*
X6570714Y-13556143D01*
X6599286Y-13556143D01*
X6618333Y-13565667D01*
X6627857Y-13584714D01*
X6627857Y-13689476D01*
X7018333Y-13479952D02*
X6846905Y-13737095D01*
X7275476Y-13489476D02*
X7294524Y-13489476D01*
X7313571Y-13499000D01*
X7323095Y-13508524D01*
X7332619Y-13527571D01*
X7342143Y-13565667D01*
X7342143Y-13613286D01*
X7332619Y-13651381D01*
X7323095Y-13670428D01*
X7313571Y-13679952D01*
X7294524Y-13689476D01*
X7275476Y-13689476D01*
X7256428Y-13679952D01*
X7246905Y-13670428D01*
X7237381Y-13651381D01*
X7227857Y-13613286D01*
X7227857Y-13565667D01*
X7237381Y-13527571D01*
X7246905Y-13508524D01*
X7256428Y-13499000D01*
X7275476Y-13489476D01*
X7427857Y-13670428D02*
X7437381Y-13679952D01*
X7427857Y-13689476D01*
X7418333Y-13679952D01*
X7427857Y-13670428D01*
X7427857Y-13689476D01*
X7627857Y-13689476D02*
X7513571Y-13689476D01*
X7570714Y-13689476D02*
X7570714Y-13489476D01*
X7551667Y-13518048D01*
X7532619Y-13537095D01*
X7513571Y-13546619D01*
X7704048Y-13508524D02*
X7713571Y-13499000D01*
X7732619Y-13489476D01*
X7780238Y-13489476D01*
X7799286Y-13499000D01*
X7808809Y-13508524D01*
X7818333Y-13527571D01*
X7818333Y-13546619D01*
X7808809Y-13575190D01*
X7694524Y-13689476D01*
X7818333Y-13689476D01*
X7989762Y-13489476D02*
X7951667Y-13489476D01*
X7932619Y-13499000D01*
X7923095Y-13508524D01*
X7904048Y-13537095D01*
X7894524Y-13575190D01*
X7894524Y-13651381D01*
X7904048Y-13670428D01*
X7913571Y-13679952D01*
X7932619Y-13689476D01*
X7970714Y-13689476D01*
X7989762Y-13679952D01*
X7999286Y-13670428D01*
X8008809Y-13651381D01*
X8008809Y-13603762D01*
X7999286Y-13584714D01*
X7989762Y-13575190D01*
X7970714Y-13565667D01*
X7932619Y-13565667D01*
X7913571Y-13575190D01*
X7904048Y-13584714D01*
X7894524Y-13603762D01*
X8132619Y-13489476D02*
X8151667Y-13489476D01*
X8170714Y-13499000D01*
X8180238Y-13508524D01*
X8189762Y-13527571D01*
X8199286Y-13565667D01*
X8199286Y-13613286D01*
X8189762Y-13651381D01*
X8180238Y-13670428D01*
X8170714Y-13679952D01*
X8151667Y-13689476D01*
X8132619Y-13689476D01*
X8113571Y-13679952D01*
X8104048Y-13670428D01*
X8094524Y-13651381D01*
X8085000Y-13613286D01*
X8085000Y-13565667D01*
X8094524Y-13527571D01*
X8104048Y-13508524D01*
X8113571Y-13499000D01*
X8132619Y-13489476D01*
X8275476Y-13489476D02*
X8275476Y-13527571D01*
X8351667Y-13489476D02*
X8351667Y-13527571D01*
X8646905Y-13765667D02*
X8637381Y-13756143D01*
X8618333Y-13727571D01*
X8608810Y-13708524D01*
X8599286Y-13679952D01*
X8589762Y-13632333D01*
X8589762Y-13594238D01*
X8599286Y-13546619D01*
X8608810Y-13518048D01*
X8618333Y-13499000D01*
X8637381Y-13470428D01*
X8646905Y-13460905D01*
X8808810Y-13556143D02*
X8808810Y-13689476D01*
X8761190Y-13479952D02*
X8713571Y-13622809D01*
X8837381Y-13622809D01*
X9065952Y-13689476D02*
X9065952Y-13489476D01*
X9151667Y-13689476D02*
X9151667Y-13584714D01*
X9142143Y-13565667D01*
X9123095Y-13556143D01*
X9094524Y-13556143D01*
X9075476Y-13565667D01*
X9065952Y-13575190D01*
X9275476Y-13689476D02*
X9256429Y-13679952D01*
X9246905Y-13670428D01*
X9237381Y-13651381D01*
X9237381Y-13594238D01*
X9246905Y-13575190D01*
X9256429Y-13565667D01*
X9275476Y-13556143D01*
X9304048Y-13556143D01*
X9323095Y-13565667D01*
X9332619Y-13575190D01*
X9342143Y-13594238D01*
X9342143Y-13651381D01*
X9332619Y-13670428D01*
X9323095Y-13679952D01*
X9304048Y-13689476D01*
X9275476Y-13689476D01*
X9456429Y-13689476D02*
X9437381Y-13679952D01*
X9427857Y-13660905D01*
X9427857Y-13489476D01*
X9608810Y-13679952D02*
X9589762Y-13689476D01*
X9551667Y-13689476D01*
X9532619Y-13679952D01*
X9523095Y-13660905D01*
X9523095Y-13584714D01*
X9532619Y-13565667D01*
X9551667Y-13556143D01*
X9589762Y-13556143D01*
X9608810Y-13565667D01*
X9618333Y-13584714D01*
X9618333Y-13603762D01*
X9523095Y-13622809D01*
X9694524Y-13679952D02*
X9713571Y-13689476D01*
X9751667Y-13689476D01*
X9770714Y-13679952D01*
X9780238Y-13660905D01*
X9780238Y-13651381D01*
X9770714Y-13632333D01*
X9751667Y-13622809D01*
X9723095Y-13622809D01*
X9704048Y-13613286D01*
X9694524Y-13594238D01*
X9694524Y-13584714D01*
X9704048Y-13565667D01*
X9723095Y-13556143D01*
X9751667Y-13556143D01*
X9770714Y-13565667D01*
X9846905Y-13765667D02*
X9856429Y-13756143D01*
X9875476Y-13727571D01*
X9885000Y-13708524D01*
X9894524Y-13679952D01*
X9904048Y-13632333D01*
X9904048Y-13594238D01*
X9894524Y-13546619D01*
X9885000Y-13518048D01*
X9875476Y-13499000D01*
X9856429Y-13470428D01*
X9846905Y-13460905D01*
X10208810Y-13765667D02*
X10199286Y-13756143D01*
X10180238Y-13727571D01*
X10170714Y-13708524D01*
X10161190Y-13679952D01*
X10151667Y-13632333D01*
X10151667Y-13594238D01*
X10161190Y-13546619D01*
X10170714Y-13518048D01*
X10180238Y-13499000D01*
X10199286Y-13470428D01*
X10208810Y-13460905D01*
X10285000Y-13556143D02*
X10285000Y-13689476D01*
X10285000Y-13575190D02*
X10294524Y-13565667D01*
X10313571Y-13556143D01*
X10342143Y-13556143D01*
X10361190Y-13565667D01*
X10370714Y-13584714D01*
X10370714Y-13689476D01*
X10494524Y-13689476D02*
X10475476Y-13679952D01*
X10465952Y-13670428D01*
X10456429Y-13651381D01*
X10456429Y-13594238D01*
X10465952Y-13575190D01*
X10475476Y-13565667D01*
X10494524Y-13556143D01*
X10523095Y-13556143D01*
X10542143Y-13565667D01*
X10551667Y-13575190D01*
X10561190Y-13594238D01*
X10561190Y-13651381D01*
X10551667Y-13670428D01*
X10542143Y-13679952D01*
X10523095Y-13689476D01*
X10494524Y-13689476D01*
X10618333Y-13556143D02*
X10694524Y-13556143D01*
X10646905Y-13489476D02*
X10646905Y-13660905D01*
X10656429Y-13679952D01*
X10675476Y-13689476D01*
X10694524Y-13689476D01*
X10913571Y-13556143D02*
X10913571Y-13756143D01*
X10913571Y-13565667D02*
X10932619Y-13556143D01*
X10970714Y-13556143D01*
X10989762Y-13565667D01*
X10999286Y-13575190D01*
X11008810Y-13594238D01*
X11008810Y-13651381D01*
X10999286Y-13670428D01*
X10989762Y-13679952D01*
X10970714Y-13689476D01*
X10932619Y-13689476D01*
X10913571Y-13679952D01*
X11123095Y-13689476D02*
X11104048Y-13679952D01*
X11094524Y-13660905D01*
X11094524Y-13489476D01*
X11285000Y-13689476D02*
X11285000Y-13584714D01*
X11275476Y-13565667D01*
X11256428Y-13556143D01*
X11218333Y-13556143D01*
X11199286Y-13565667D01*
X11285000Y-13679952D02*
X11265952Y-13689476D01*
X11218333Y-13689476D01*
X11199286Y-13679952D01*
X11189762Y-13660905D01*
X11189762Y-13641857D01*
X11199286Y-13622809D01*
X11218333Y-13613286D01*
X11265952Y-13613286D01*
X11285000Y-13603762D01*
X11351667Y-13556143D02*
X11427857Y-13556143D01*
X11380238Y-13489476D02*
X11380238Y-13660905D01*
X11389762Y-13679952D01*
X11408809Y-13689476D01*
X11427857Y-13689476D01*
X11570714Y-13679952D02*
X11551667Y-13689476D01*
X11513571Y-13689476D01*
X11494524Y-13679952D01*
X11485000Y-13660905D01*
X11485000Y-13584714D01*
X11494524Y-13565667D01*
X11513571Y-13556143D01*
X11551667Y-13556143D01*
X11570714Y-13565667D01*
X11580238Y-13584714D01*
X11580238Y-13603762D01*
X11485000Y-13622809D01*
X11751667Y-13689476D02*
X11751667Y-13489476D01*
X11751667Y-13679952D02*
X11732619Y-13689476D01*
X11694524Y-13689476D01*
X11675476Y-13679952D01*
X11665952Y-13670428D01*
X11656428Y-13651381D01*
X11656428Y-13594238D01*
X11665952Y-13575190D01*
X11675476Y-13565667D01*
X11694524Y-13556143D01*
X11732619Y-13556143D01*
X11751667Y-13565667D01*
X11827857Y-13765667D02*
X11837381Y-13756143D01*
X11856428Y-13727571D01*
X11865952Y-13708524D01*
X11875476Y-13679952D01*
X11885000Y-13632333D01*
X11885000Y-13594238D01*
X11875476Y-13546619D01*
X11865952Y-13518048D01*
X11856428Y-13499000D01*
X11837381Y-13470428D01*
X11827857Y-13460905D01*
M02*
