%TF.GenerationSoftware,KiCad,Pcbnew,(6.0.0)*%
%TF.CreationDate,2022-03-13T18:43:21-04:00*%
%TF.ProjectId,Xc9572 breakout,58633935-3732-4206-9272-65616b6f7574,rev?*%
%TF.SameCoordinates,Original*%
%TF.FileFunction,Soldermask,Bot*%
%TF.FilePolarity,Negative*%
%FSLAX46Y46*%
G04 Gerber Fmt 4.6, Leading zero omitted, Abs format (unit mm)*
G04 Created by KiCad (PCBNEW (6.0.0)) date 2022-03-13 18:43:21*
%MOMM*%
%LPD*%
G01*
G04 APERTURE LIST*
%ADD10R,1.700000X1.700000*%
%ADD11C,3.200000*%
%ADD12O,1.700000X1.700000*%
G04 APERTURE END LIST*
D10*
%TO.C,J22*%
X132080000Y-45720000D03*
%TD*%
%TO.C,J12*%
X111760000Y-45720000D03*
%TD*%
%TO.C,J16*%
X106680000Y-55880000D03*
%TD*%
D11*
%TO.C,REF\u002A\u002A*%
X136525000Y-40640000D03*
%TD*%
D10*
%TO.C,J8*%
X121920000Y-45720000D03*
%TD*%
%TO.C,J24*%
X127000000Y-45720000D03*
%TD*%
%TO.C,J1*%
X95370000Y-68550000D03*
D12*
X92830000Y-68550000D03*
X95370000Y-66010000D03*
X92830000Y-66010000D03*
X95370000Y-63470000D03*
X92830000Y-63470000D03*
X95370000Y-60930000D03*
X92830000Y-60930000D03*
X95370000Y-58390000D03*
X92830000Y-58390000D03*
%TD*%
D10*
%TO.C,J30*%
X109220000Y-76200000D03*
%TD*%
%TO.C,J27*%
X106680000Y-60960000D03*
%TD*%
%TO.C,J9*%
X119380000Y-40640000D03*
%TD*%
%TO.C,J21*%
X132080000Y-50165000D03*
%TD*%
D11*
%TO.C,REF\u002A\u002A*%
X136525000Y-76200000D03*
%TD*%
D10*
%TO.C,J10*%
X116840000Y-45720000D03*
%TD*%
%TO.C,J35*%
X121920000Y-71120000D03*
%TD*%
%TO.C,J7*%
X106680000Y-45720000D03*
%TD*%
%TO.C,J28*%
X101600000Y-63500000D03*
%TD*%
%TO.C,J5*%
X106680000Y-71120000D03*
%TD*%
%TO.C,J32*%
X114300000Y-76200000D03*
%TD*%
%TO.C,J40*%
X132080000Y-66040000D03*
%TD*%
%TO.C,J20*%
X137160000Y-53340000D03*
%TD*%
D11*
%TO.C,REF\u002A\u002A*%
X93345000Y-76200000D03*
%TD*%
D10*
%TO.C,J33*%
X116840000Y-71120000D03*
%TD*%
%TO.C,J34*%
X119380000Y-76200000D03*
%TD*%
%TO.C,J4*%
X92830000Y-53315000D03*
D12*
X95370000Y-53315000D03*
%TD*%
D10*
%TO.C,J14*%
X106680000Y-50800000D03*
%TD*%
D11*
%TO.C,REF\u002A\u002A*%
X93345000Y-40640000D03*
%TD*%
D10*
%TO.C,J29*%
X106680000Y-66040000D03*
%TD*%
%TO.C,J3*%
X101600000Y-48260000D03*
%TD*%
%TO.C,J11*%
X114300000Y-40640000D03*
%TD*%
%TO.C,J36*%
X124460000Y-76200000D03*
%TD*%
%TO.C,J41*%
X137160000Y-63500000D03*
%TD*%
%TO.C,J19*%
X132080000Y-55880000D03*
%TD*%
%TO.C,J2*%
X104140000Y-40640000D03*
%TD*%
%TO.C,J23*%
X129540000Y-40640000D03*
%TD*%
%TO.C,J17*%
X132080000Y-60960000D03*
%TD*%
%TO.C,J15*%
X101600000Y-53340000D03*
%TD*%
%TO.C,J31*%
X111760000Y-71120000D03*
%TD*%
%TO.C,J26*%
X101600000Y-58420000D03*
%TD*%
%TO.C,J18*%
X137160000Y-58420000D03*
%TD*%
%TO.C,J39*%
X132080000Y-71120000D03*
%TD*%
%TO.C,J38*%
X129540000Y-76200000D03*
%TD*%
%TO.C,J13*%
X109220000Y-40640000D03*
%TD*%
%TO.C,J37*%
X127000000Y-71120000D03*
%TD*%
%TO.C,J25*%
X124460000Y-40640000D03*
%TD*%
M02*
