%TF.GenerationSoftware,KiCad,Pcbnew,(6.0.0)*%
%TF.CreationDate,2022-03-13T18:43:21-04:00*%
%TF.ProjectId,Xc9572 breakout,58633935-3732-4206-9272-65616b6f7574,rev?*%
%TF.SameCoordinates,Original*%
%TF.FileFunction,Soldermask,Top*%
%TF.FilePolarity,Negative*%
%FSLAX46Y46*%
G04 Gerber Fmt 4.6, Leading zero omitted, Abs format (unit mm)*
G04 Created by KiCad (PCBNEW (6.0.0)) date 2022-03-13 18:43:21*
%MOMM*%
%LPD*%
G01*
G04 APERTURE LIST*
G04 Aperture macros list*
%AMRoundRect*
0 Rectangle with rounded corners*
0 $1 Rounding radius*
0 $2 $3 $4 $5 $6 $7 $8 $9 X,Y pos of 4 corners*
0 Add a 4 corners polygon primitive as box body*
4,1,4,$2,$3,$4,$5,$6,$7,$8,$9,$2,$3,0*
0 Add four circle primitives for the rounded corners*
1,1,$1+$1,$2,$3*
1,1,$1+$1,$4,$5*
1,1,$1+$1,$6,$7*
1,1,$1+$1,$8,$9*
0 Add four rect primitives between the rounded corners*
20,1,$1+$1,$2,$3,$4,$5,0*
20,1,$1+$1,$4,$5,$6,$7,0*
20,1,$1+$1,$6,$7,$8,$9,0*
20,1,$1+$1,$8,$9,$2,$3,0*%
G04 Aperture macros list end*
%ADD10R,1.700000X1.700000*%
%ADD11C,3.200000*%
%ADD12O,1.700000X1.700000*%
%ADD13RoundRect,0.225000X-0.250000X0.225000X-0.250000X-0.225000X0.250000X-0.225000X0.250000X0.225000X0*%
%ADD14R,0.700000X1.925000*%
%ADD15R,1.925000X0.700000*%
G04 APERTURE END LIST*
D10*
%TO.C,J22*%
X132080000Y-45720000D03*
%TD*%
%TO.C,J12*%
X111760000Y-45720000D03*
%TD*%
%TO.C,J16*%
X106680000Y-55880000D03*
%TD*%
D11*
%TO.C,REF\u002A\u002A*%
X136525000Y-40640000D03*
%TD*%
D10*
%TO.C,J8*%
X121920000Y-45720000D03*
%TD*%
%TO.C,J24*%
X127000000Y-45720000D03*
%TD*%
%TO.C,J1*%
X95370000Y-68550000D03*
D12*
X92830000Y-68550000D03*
X95370000Y-66010000D03*
X92830000Y-66010000D03*
X95370000Y-63470000D03*
X92830000Y-63470000D03*
X95370000Y-60930000D03*
X92830000Y-60930000D03*
X95370000Y-58390000D03*
X92830000Y-58390000D03*
%TD*%
D10*
%TO.C,J30*%
X109220000Y-76200000D03*
%TD*%
%TO.C,J27*%
X106680000Y-60960000D03*
%TD*%
%TO.C,J9*%
X119380000Y-40640000D03*
%TD*%
%TO.C,J21*%
X132080000Y-50165000D03*
%TD*%
D11*
%TO.C,REF\u002A\u002A*%
X136525000Y-76200000D03*
%TD*%
D10*
%TO.C,J10*%
X116840000Y-45720000D03*
%TD*%
%TO.C,J35*%
X121920000Y-71120000D03*
%TD*%
D13*
%TO.C,C2*%
X91440000Y-49110600D03*
X91440000Y-50660600D03*
%TD*%
D10*
%TO.C,J7*%
X106680000Y-45720000D03*
%TD*%
%TO.C,J28*%
X101600000Y-63500000D03*
%TD*%
%TO.C,J5*%
X106680000Y-71120000D03*
%TD*%
%TO.C,J32*%
X114300000Y-76200000D03*
%TD*%
%TO.C,J40*%
X132080000Y-66040000D03*
%TD*%
%TO.C,J20*%
X137160000Y-53340000D03*
%TD*%
D11*
%TO.C,REF\u002A\u002A*%
X93345000Y-76200000D03*
%TD*%
D10*
%TO.C,J33*%
X116840000Y-71120000D03*
%TD*%
%TO.C,J34*%
X119380000Y-76200000D03*
%TD*%
%TO.C,J4*%
X92830000Y-53315000D03*
D12*
X95370000Y-53315000D03*
%TD*%
D10*
%TO.C,J14*%
X106680000Y-50800000D03*
%TD*%
D11*
%TO.C,REF\u002A\u002A*%
X93345000Y-40640000D03*
%TD*%
D10*
%TO.C,J29*%
X106680000Y-66040000D03*
%TD*%
%TO.C,J3*%
X101600000Y-48260000D03*
%TD*%
%TO.C,J11*%
X114300000Y-40640000D03*
%TD*%
%TO.C,J36*%
X124460000Y-76200000D03*
%TD*%
D13*
%TO.C,C1*%
X98044000Y-52641200D03*
X98044000Y-54191200D03*
%TD*%
D10*
%TO.C,J41*%
X137160000Y-63500000D03*
%TD*%
%TO.C,J19*%
X132080000Y-55880000D03*
%TD*%
%TO.C,J2*%
X104140000Y-40640000D03*
%TD*%
%TO.C,J23*%
X129540000Y-40640000D03*
%TD*%
%TO.C,J17*%
X132080000Y-60960000D03*
%TD*%
%TO.C,J15*%
X101600000Y-53340000D03*
%TD*%
D14*
%TO.C,U1*%
X119380000Y-50557500D03*
X118110000Y-50557500D03*
X116840000Y-50557500D03*
X115570000Y-50557500D03*
X114300000Y-50557500D03*
X113030000Y-50557500D03*
D15*
X111517500Y-52070000D03*
X111517500Y-53340000D03*
X111517500Y-54610000D03*
X111517500Y-55880000D03*
X111517500Y-57150000D03*
X111517500Y-58420000D03*
X111517500Y-59690000D03*
X111517500Y-60960000D03*
X111517500Y-62230000D03*
X111517500Y-63500000D03*
X111517500Y-64770000D03*
D14*
X113030000Y-66282500D03*
X114300000Y-66282500D03*
X115570000Y-66282500D03*
X116840000Y-66282500D03*
X118110000Y-66282500D03*
X119380000Y-66282500D03*
X120650000Y-66282500D03*
X121920000Y-66282500D03*
X123190000Y-66282500D03*
X124460000Y-66282500D03*
X125730000Y-66282500D03*
D15*
X127242500Y-64770000D03*
X127242500Y-63500000D03*
X127242500Y-62230000D03*
X127242500Y-60960000D03*
X127242500Y-59690000D03*
X127242500Y-58420000D03*
X127242500Y-57150000D03*
X127242500Y-55880000D03*
X127242500Y-54610000D03*
X127242500Y-53340000D03*
X127242500Y-52070000D03*
D14*
X125730000Y-50557500D03*
X124460000Y-50557500D03*
X123190000Y-50557500D03*
X121920000Y-50557500D03*
X120650000Y-50557500D03*
%TD*%
D10*
%TO.C,J31*%
X111760000Y-71120000D03*
%TD*%
%TO.C,J26*%
X101600000Y-58420000D03*
%TD*%
%TO.C,J18*%
X137160000Y-58420000D03*
%TD*%
%TO.C,J39*%
X132080000Y-71120000D03*
%TD*%
%TO.C,J38*%
X129540000Y-76200000D03*
%TD*%
%TO.C,J13*%
X109220000Y-40640000D03*
%TD*%
%TO.C,J37*%
X127000000Y-71120000D03*
%TD*%
%TO.C,J25*%
X124460000Y-40640000D03*
%TD*%
M02*
