%TF.GenerationSoftware,KiCad,Pcbnew,(6.0.0)*%
%TF.CreationDate,2022-03-13T18:43:21-04:00*%
%TF.ProjectId,Xc9572 breakout,58633935-3732-4206-9272-65616b6f7574,rev?*%
%TF.SameCoordinates,Original*%
%TF.FileFunction,Legend,Bot*%
%TF.FilePolarity,Positive*%
%FSLAX46Y46*%
G04 Gerber Fmt 4.6, Leading zero omitted, Abs format (unit mm)*
G04 Created by KiCad (PCBNEW (6.0.0)) date 2022-03-13 18:43:21*
%MOMM*%
%LPD*%
G01*
G04 APERTURE LIST*
%ADD10C,0.150000*%
%ADD11R,1.700000X1.700000*%
%ADD12C,3.200000*%
%ADD13O,1.700000X1.700000*%
G04 APERTURE END LIST*
D10*
X90947857Y-65492380D02*
X91424047Y-65492380D01*
X91471666Y-65968571D01*
X91424047Y-65920952D01*
X91328809Y-65873333D01*
X91090714Y-65873333D01*
X90995476Y-65920952D01*
X90947857Y-65968571D01*
X90900238Y-66063809D01*
X90900238Y-66301904D01*
X90947857Y-66397142D01*
X90995476Y-66444761D01*
X91090714Y-66492380D01*
X91328809Y-66492380D01*
X91424047Y-66444761D01*
X91471666Y-66397142D01*
X90566904Y-65825714D02*
X90328809Y-66492380D01*
X90090714Y-65825714D01*
X128237142Y-67762380D02*
X128237142Y-67238571D01*
X128284761Y-67143333D01*
X128380000Y-67095714D01*
X128570476Y-67095714D01*
X128665714Y-67143333D01*
X128237142Y-67714761D02*
X128332380Y-67762380D01*
X128570476Y-67762380D01*
X128665714Y-67714761D01*
X128713333Y-67619523D01*
X128713333Y-67524285D01*
X128665714Y-67429047D01*
X128570476Y-67381428D01*
X128332380Y-67381428D01*
X128237142Y-67333809D01*
X127760952Y-67762380D02*
X127760952Y-66762380D01*
X127760952Y-67143333D02*
X127665714Y-67095714D01*
X127475238Y-67095714D01*
X127380000Y-67143333D01*
X127332380Y-67190952D01*
X127284761Y-67286190D01*
X127284761Y-67571904D01*
X127332380Y-67667142D01*
X127380000Y-67714761D01*
X127475238Y-67762380D01*
X127665714Y-67762380D01*
X127760952Y-67714761D01*
X126951428Y-67095714D02*
X126427619Y-67095714D01*
X126951428Y-67762380D01*
X126427619Y-67762380D01*
X126046666Y-67762380D02*
X126046666Y-67095714D01*
X126046666Y-67190952D02*
X125999047Y-67143333D01*
X125903809Y-67095714D01*
X125760952Y-67095714D01*
X125665714Y-67143333D01*
X125618095Y-67238571D01*
X125618095Y-67762380D01*
X125618095Y-67238571D02*
X125570476Y-67143333D01*
X125475238Y-67095714D01*
X125332380Y-67095714D01*
X125237142Y-67143333D01*
X125189523Y-67238571D01*
X125189523Y-67762380D01*
X124284761Y-67762380D02*
X124284761Y-67238571D01*
X124332380Y-67143333D01*
X124427619Y-67095714D01*
X124618095Y-67095714D01*
X124713333Y-67143333D01*
X124284761Y-67714761D02*
X124380000Y-67762380D01*
X124618095Y-67762380D01*
X124713333Y-67714761D01*
X124760952Y-67619523D01*
X124760952Y-67524285D01*
X124713333Y-67429047D01*
X124618095Y-67381428D01*
X124380000Y-67381428D01*
X124284761Y-67333809D01*
X123808571Y-67095714D02*
X123808571Y-67762380D01*
X123808571Y-67190952D02*
X123760952Y-67143333D01*
X123665714Y-67095714D01*
X123522857Y-67095714D01*
X123427619Y-67143333D01*
X123380000Y-67238571D01*
X123380000Y-67762380D01*
X122951428Y-66857619D02*
X122903809Y-66810000D01*
X122808571Y-66762380D01*
X122570476Y-66762380D01*
X122475238Y-66810000D01*
X122427619Y-66857619D01*
X122380000Y-66952857D01*
X122380000Y-67048095D01*
X122427619Y-67190952D01*
X122999047Y-67762380D01*
X122380000Y-67762380D01*
X121951428Y-67762380D02*
X121951428Y-66762380D01*
X121856190Y-67381428D02*
X121570476Y-67762380D01*
X121570476Y-67095714D02*
X121951428Y-67476666D01*
X121141904Y-67667142D02*
X121094285Y-67714761D01*
X121141904Y-67762380D01*
X121189523Y-67714761D01*
X121141904Y-67667142D01*
X121141904Y-67762380D01*
X120760952Y-67095714D02*
X120570476Y-67762380D01*
X120380000Y-67286190D01*
X120189523Y-67762380D01*
X119999047Y-67095714D01*
X119475238Y-67762380D02*
X119570476Y-67714761D01*
X119618095Y-67667142D01*
X119665714Y-67571904D01*
X119665714Y-67286190D01*
X119618095Y-67190952D01*
X119570476Y-67143333D01*
X119475238Y-67095714D01*
X119332380Y-67095714D01*
X119237142Y-67143333D01*
X119189523Y-67190952D01*
X119141904Y-67286190D01*
X119141904Y-67571904D01*
X119189523Y-67667142D01*
X119237142Y-67714761D01*
X119332380Y-67762380D01*
X119475238Y-67762380D01*
X118713333Y-67762380D02*
X118713333Y-67095714D01*
X118713333Y-67286190D02*
X118665714Y-67190952D01*
X118618095Y-67143333D01*
X118522857Y-67095714D01*
X118427619Y-67095714D01*
X117665714Y-67762380D02*
X117665714Y-66762380D01*
X117665714Y-67714761D02*
X117760952Y-67762380D01*
X117951428Y-67762380D01*
X118046666Y-67714761D01*
X118094285Y-67667142D01*
X118141904Y-67571904D01*
X118141904Y-67286190D01*
X118094285Y-67190952D01*
X118046666Y-67143333D01*
X117951428Y-67095714D01*
X117760952Y-67095714D01*
X117665714Y-67143333D01*
X117189523Y-67095714D02*
X117189523Y-68095714D01*
X117189523Y-67143333D02*
X117094285Y-67095714D01*
X116903809Y-67095714D01*
X116808571Y-67143333D01*
X116760952Y-67190952D01*
X116713333Y-67286190D01*
X116713333Y-67571904D01*
X116760952Y-67667142D01*
X116808571Y-67714761D01*
X116903809Y-67762380D01*
X117094285Y-67762380D01*
X117189523Y-67714761D01*
X116284761Y-67762380D02*
X116284761Y-67095714D01*
X116284761Y-67286190D02*
X116237142Y-67190952D01*
X116189523Y-67143333D01*
X116094285Y-67095714D01*
X115999047Y-67095714D01*
X115284761Y-67714761D02*
X115380000Y-67762380D01*
X115570476Y-67762380D01*
X115665714Y-67714761D01*
X115713333Y-67619523D01*
X115713333Y-67238571D01*
X115665714Y-67143333D01*
X115570476Y-67095714D01*
X115380000Y-67095714D01*
X115284761Y-67143333D01*
X115237142Y-67238571D01*
X115237142Y-67333809D01*
X115713333Y-67429047D01*
X114856190Y-67714761D02*
X114760952Y-67762380D01*
X114570476Y-67762380D01*
X114475238Y-67714761D01*
X114427619Y-67619523D01*
X114427619Y-67571904D01*
X114475238Y-67476666D01*
X114570476Y-67429047D01*
X114713333Y-67429047D01*
X114808571Y-67381428D01*
X114856190Y-67286190D01*
X114856190Y-67238571D01*
X114808571Y-67143333D01*
X114713333Y-67095714D01*
X114570476Y-67095714D01*
X114475238Y-67143333D01*
X114046666Y-67714761D02*
X113951428Y-67762380D01*
X113760952Y-67762380D01*
X113665714Y-67714761D01*
X113618095Y-67619523D01*
X113618095Y-67571904D01*
X113665714Y-67476666D01*
X113760952Y-67429047D01*
X113903809Y-67429047D01*
X113999047Y-67381428D01*
X114046666Y-67286190D01*
X114046666Y-67238571D01*
X113999047Y-67143333D01*
X113903809Y-67095714D01*
X113760952Y-67095714D01*
X113665714Y-67143333D01*
X113189523Y-67667142D02*
X113141904Y-67714761D01*
X113189523Y-67762380D01*
X113237142Y-67714761D01*
X113189523Y-67667142D01*
X113189523Y-67762380D01*
X112284761Y-67714761D02*
X112380000Y-67762380D01*
X112570476Y-67762380D01*
X112665714Y-67714761D01*
X112713333Y-67667142D01*
X112760952Y-67571904D01*
X112760952Y-67286190D01*
X112713333Y-67190952D01*
X112665714Y-67143333D01*
X112570476Y-67095714D01*
X112380000Y-67095714D01*
X112284761Y-67143333D01*
X111713333Y-67762380D02*
X111808571Y-67714761D01*
X111856190Y-67667142D01*
X111903809Y-67571904D01*
X111903809Y-67286190D01*
X111856190Y-67190952D01*
X111808571Y-67143333D01*
X111713333Y-67095714D01*
X111570476Y-67095714D01*
X111475238Y-67143333D01*
X111427619Y-67190952D01*
X111380000Y-67286190D01*
X111380000Y-67571904D01*
X111427619Y-67667142D01*
X111475238Y-67714761D01*
X111570476Y-67762380D01*
X111713333Y-67762380D01*
X110951428Y-67762380D02*
X110951428Y-67095714D01*
X110951428Y-67190952D02*
X110903809Y-67143333D01*
X110808571Y-67095714D01*
X110665714Y-67095714D01*
X110570476Y-67143333D01*
X110522857Y-67238571D01*
X110522857Y-67762380D01*
X110522857Y-67238571D02*
X110475238Y-67143333D01*
X110380000Y-67095714D01*
X110237142Y-67095714D01*
X110141904Y-67143333D01*
X110094285Y-67238571D01*
X110094285Y-67762380D01*
X92130476Y-69985000D02*
X92225714Y-69937380D01*
X92368571Y-69937380D01*
X92511428Y-69985000D01*
X92606666Y-70080238D01*
X92654285Y-70175476D01*
X92701904Y-70365952D01*
X92701904Y-70508809D01*
X92654285Y-70699285D01*
X92606666Y-70794523D01*
X92511428Y-70889761D01*
X92368571Y-70937380D01*
X92273333Y-70937380D01*
X92130476Y-70889761D01*
X92082857Y-70842142D01*
X92082857Y-70508809D01*
X92273333Y-70508809D01*
X91654285Y-70270714D02*
X91654285Y-70937380D01*
X91654285Y-70365952D02*
X91606666Y-70318333D01*
X91511428Y-70270714D01*
X91368571Y-70270714D01*
X91273333Y-70318333D01*
X91225714Y-70413571D01*
X91225714Y-70937380D01*
X90749523Y-70937380D02*
X90749523Y-69937380D01*
X90511428Y-69937380D01*
X90368571Y-69985000D01*
X90273333Y-70080238D01*
X90225714Y-70175476D01*
X90178095Y-70365952D01*
X90178095Y-70508809D01*
X90225714Y-70699285D01*
X90273333Y-70794523D01*
X90368571Y-70889761D01*
X90511428Y-70937380D01*
X90749523Y-70937380D01*
X99075714Y-68032380D02*
X98504285Y-68032380D01*
X98790000Y-69032380D02*
X98790000Y-68032380D01*
X97599523Y-68937142D02*
X97647142Y-68984761D01*
X97790000Y-69032380D01*
X97885238Y-69032380D01*
X98028095Y-68984761D01*
X98123333Y-68889523D01*
X98170952Y-68794285D01*
X98218571Y-68603809D01*
X98218571Y-68460952D01*
X98170952Y-68270476D01*
X98123333Y-68175238D01*
X98028095Y-68080000D01*
X97885238Y-68032380D01*
X97790000Y-68032380D01*
X97647142Y-68080000D01*
X97599523Y-68127619D01*
X97170952Y-69032380D02*
X97170952Y-68032380D01*
X96599523Y-69032380D02*
X97028095Y-68460952D01*
X96599523Y-68032380D02*
X97170952Y-68603809D01*
X123403571Y-49288571D02*
X123736904Y-49288571D01*
X123736904Y-49812380D02*
X123736904Y-48812380D01*
X123260714Y-48812380D01*
X122498809Y-49764761D02*
X122594047Y-49812380D01*
X122784523Y-49812380D01*
X122879761Y-49764761D01*
X122927380Y-49669523D01*
X122927380Y-49288571D01*
X122879761Y-49193333D01*
X122784523Y-49145714D01*
X122594047Y-49145714D01*
X122498809Y-49193333D01*
X122451190Y-49288571D01*
X122451190Y-49383809D01*
X122927380Y-49479047D01*
X121641666Y-49764761D02*
X121736904Y-49812380D01*
X121927380Y-49812380D01*
X122022619Y-49764761D01*
X122070238Y-49669523D01*
X122070238Y-49288571D01*
X122022619Y-49193333D01*
X121927380Y-49145714D01*
X121736904Y-49145714D01*
X121641666Y-49193333D01*
X121594047Y-49288571D01*
X121594047Y-49383809D01*
X122070238Y-49479047D01*
X120736904Y-49812380D02*
X120736904Y-48812380D01*
X120736904Y-49764761D02*
X120832142Y-49812380D01*
X121022619Y-49812380D01*
X121117857Y-49764761D01*
X121165476Y-49717142D01*
X121213095Y-49621904D01*
X121213095Y-49336190D01*
X121165476Y-49240952D01*
X121117857Y-49193333D01*
X121022619Y-49145714D01*
X120832142Y-49145714D01*
X120736904Y-49193333D01*
X119641666Y-48812380D02*
X119308333Y-49812380D01*
X118975000Y-48812380D01*
X118213095Y-49764761D02*
X118308333Y-49812380D01*
X118498809Y-49812380D01*
X118594047Y-49764761D01*
X118641666Y-49717142D01*
X118689285Y-49621904D01*
X118689285Y-49336190D01*
X118641666Y-49240952D01*
X118594047Y-49193333D01*
X118498809Y-49145714D01*
X118308333Y-49145714D01*
X118213095Y-49193333D01*
X117355952Y-49764761D02*
X117451190Y-49812380D01*
X117641666Y-49812380D01*
X117736904Y-49764761D01*
X117784523Y-49717142D01*
X117832142Y-49621904D01*
X117832142Y-49336190D01*
X117784523Y-49240952D01*
X117736904Y-49193333D01*
X117641666Y-49145714D01*
X117451190Y-49145714D01*
X117355952Y-49193333D01*
X116165476Y-49812380D02*
X116165476Y-48812380D01*
X115498809Y-48812380D02*
X115308333Y-48812380D01*
X115213095Y-48860000D01*
X115117857Y-48955238D01*
X115070238Y-49145714D01*
X115070238Y-49479047D01*
X115117857Y-49669523D01*
X115213095Y-49764761D01*
X115308333Y-49812380D01*
X115498809Y-49812380D01*
X115594047Y-49764761D01*
X115689285Y-49669523D01*
X115736904Y-49479047D01*
X115736904Y-49145714D01*
X115689285Y-48955238D01*
X115594047Y-48860000D01*
X115498809Y-48812380D01*
X113975000Y-48812380D02*
X113355952Y-48812380D01*
X113689285Y-49193333D01*
X113546428Y-49193333D01*
X113451190Y-49240952D01*
X113403571Y-49288571D01*
X113355952Y-49383809D01*
X113355952Y-49621904D01*
X113403571Y-49717142D01*
X113451190Y-49764761D01*
X113546428Y-49812380D01*
X113832142Y-49812380D01*
X113927380Y-49764761D01*
X113975000Y-49717142D01*
X112927380Y-49717142D02*
X112879761Y-49764761D01*
X112927380Y-49812380D01*
X112975000Y-49764761D01*
X112927380Y-49717142D01*
X112927380Y-49812380D01*
X112546428Y-48812380D02*
X111927380Y-48812380D01*
X112260714Y-49193333D01*
X112117857Y-49193333D01*
X112022619Y-49240952D01*
X111975000Y-49288571D01*
X111927380Y-49383809D01*
X111927380Y-49621904D01*
X111975000Y-49717142D01*
X112022619Y-49764761D01*
X112117857Y-49812380D01*
X112403571Y-49812380D01*
X112498809Y-49764761D01*
X112546428Y-49717142D01*
X111594047Y-49145714D02*
X111355952Y-49812380D01*
X111117857Y-49145714D01*
X122046428Y-50755714D02*
X121665476Y-50755714D01*
X121903571Y-51422380D02*
X121903571Y-50565238D01*
X121855952Y-50470000D01*
X121760714Y-50422380D01*
X121665476Y-50422380D01*
X121189285Y-51422380D02*
X121284523Y-51374761D01*
X121332142Y-51327142D01*
X121379761Y-51231904D01*
X121379761Y-50946190D01*
X121332142Y-50850952D01*
X121284523Y-50803333D01*
X121189285Y-50755714D01*
X121046428Y-50755714D01*
X120951190Y-50803333D01*
X120903571Y-50850952D01*
X120855952Y-50946190D01*
X120855952Y-51231904D01*
X120903571Y-51327142D01*
X120951190Y-51374761D01*
X121046428Y-51422380D01*
X121189285Y-51422380D01*
X120427380Y-51422380D02*
X120427380Y-50755714D01*
X120427380Y-50946190D02*
X120379761Y-50850952D01*
X120332142Y-50803333D01*
X120236904Y-50755714D01*
X120141666Y-50755714D01*
X119141666Y-50422380D02*
X118522619Y-50422380D01*
X118855952Y-50803333D01*
X118713095Y-50803333D01*
X118617857Y-50850952D01*
X118570238Y-50898571D01*
X118522619Y-50993809D01*
X118522619Y-51231904D01*
X118570238Y-51327142D01*
X118617857Y-51374761D01*
X118713095Y-51422380D01*
X118998809Y-51422380D01*
X119094047Y-51374761D01*
X119141666Y-51327142D01*
X118094047Y-51327142D02*
X118046428Y-51374761D01*
X118094047Y-51422380D01*
X118141666Y-51374761D01*
X118094047Y-51327142D01*
X118094047Y-51422380D01*
X117713095Y-50422380D02*
X117094047Y-50422380D01*
X117427380Y-50803333D01*
X117284523Y-50803333D01*
X117189285Y-50850952D01*
X117141666Y-50898571D01*
X117094047Y-50993809D01*
X117094047Y-51231904D01*
X117141666Y-51327142D01*
X117189285Y-51374761D01*
X117284523Y-51422380D01*
X117570238Y-51422380D01*
X117665476Y-51374761D01*
X117713095Y-51327142D01*
X116760714Y-50755714D02*
X116522619Y-51422380D01*
X116284523Y-50755714D01*
X115141666Y-51422380D02*
X115141666Y-50422380D01*
X113951190Y-50374761D02*
X114808333Y-51660476D01*
X113427380Y-50422380D02*
X113236904Y-50422380D01*
X113141666Y-50470000D01*
X113046428Y-50565238D01*
X112998809Y-50755714D01*
X112998809Y-51089047D01*
X113046428Y-51279523D01*
X113141666Y-51374761D01*
X113236904Y-51422380D01*
X113427380Y-51422380D01*
X113522619Y-51374761D01*
X113617857Y-51279523D01*
X113665476Y-51089047D01*
X113665476Y-50755714D01*
X113617857Y-50565238D01*
X113522619Y-50470000D01*
X113427380Y-50422380D01*
X98305476Y-49764761D02*
X98400714Y-49812380D01*
X98591190Y-49812380D01*
X98686428Y-49764761D01*
X98734047Y-49717142D01*
X98781666Y-49621904D01*
X98781666Y-49336190D01*
X98734047Y-49240952D01*
X98686428Y-49193333D01*
X98591190Y-49145714D01*
X98400714Y-49145714D01*
X98305476Y-49193333D01*
X97734047Y-49812380D02*
X97829285Y-49764761D01*
X97876904Y-49717142D01*
X97924523Y-49621904D01*
X97924523Y-49336190D01*
X97876904Y-49240952D01*
X97829285Y-49193333D01*
X97734047Y-49145714D01*
X97591190Y-49145714D01*
X97495952Y-49193333D01*
X97448333Y-49240952D01*
X97400714Y-49336190D01*
X97400714Y-49621904D01*
X97448333Y-49717142D01*
X97495952Y-49764761D01*
X97591190Y-49812380D01*
X97734047Y-49812380D01*
X96972142Y-49145714D02*
X96972142Y-49812380D01*
X96972142Y-49240952D02*
X96924523Y-49193333D01*
X96829285Y-49145714D01*
X96686428Y-49145714D01*
X96591190Y-49193333D01*
X96543571Y-49288571D01*
X96543571Y-49812380D01*
X96067380Y-49145714D02*
X96067380Y-49812380D01*
X96067380Y-49240952D02*
X96019761Y-49193333D01*
X95924523Y-49145714D01*
X95781666Y-49145714D01*
X95686428Y-49193333D01*
X95638809Y-49288571D01*
X95638809Y-49812380D01*
X94781666Y-49764761D02*
X94876904Y-49812380D01*
X95067380Y-49812380D01*
X95162619Y-49764761D01*
X95210238Y-49669523D01*
X95210238Y-49288571D01*
X95162619Y-49193333D01*
X95067380Y-49145714D01*
X94876904Y-49145714D01*
X94781666Y-49193333D01*
X94734047Y-49288571D01*
X94734047Y-49383809D01*
X95210238Y-49479047D01*
X93876904Y-49764761D02*
X93972142Y-49812380D01*
X94162619Y-49812380D01*
X94257857Y-49764761D01*
X94305476Y-49717142D01*
X94353095Y-49621904D01*
X94353095Y-49336190D01*
X94305476Y-49240952D01*
X94257857Y-49193333D01*
X94162619Y-49145714D01*
X93972142Y-49145714D01*
X93876904Y-49193333D01*
X93591190Y-49145714D02*
X93210238Y-49145714D01*
X93448333Y-48812380D02*
X93448333Y-49669523D01*
X93400714Y-49764761D01*
X93305476Y-49812380D01*
X93210238Y-49812380D01*
X92257857Y-49145714D02*
X91876904Y-49145714D01*
X92115000Y-49812380D02*
X92115000Y-48955238D01*
X92067380Y-48860000D01*
X91972142Y-48812380D01*
X91876904Y-48812380D01*
X91400714Y-49812380D02*
X91495952Y-49764761D01*
X91543571Y-49717142D01*
X91591190Y-49621904D01*
X91591190Y-49336190D01*
X91543571Y-49240952D01*
X91495952Y-49193333D01*
X91400714Y-49145714D01*
X91257857Y-49145714D01*
X91162619Y-49193333D01*
X91115000Y-49240952D01*
X91067380Y-49336190D01*
X91067380Y-49621904D01*
X91115000Y-49717142D01*
X91162619Y-49764761D01*
X91257857Y-49812380D01*
X91400714Y-49812380D01*
X90638809Y-49812380D02*
X90638809Y-49145714D01*
X90638809Y-49336190D02*
X90591190Y-49240952D01*
X90543571Y-49193333D01*
X90448333Y-49145714D01*
X90353095Y-49145714D01*
X96424523Y-50422380D02*
X96900714Y-50422380D01*
X96948333Y-50898571D01*
X96900714Y-50850952D01*
X96805476Y-50803333D01*
X96567380Y-50803333D01*
X96472142Y-50850952D01*
X96424523Y-50898571D01*
X96376904Y-50993809D01*
X96376904Y-51231904D01*
X96424523Y-51327142D01*
X96472142Y-51374761D01*
X96567380Y-51422380D01*
X96805476Y-51422380D01*
X96900714Y-51374761D01*
X96948333Y-51327142D01*
X96043571Y-50755714D02*
X95805476Y-51422380D01*
X95567380Y-50755714D01*
X94424523Y-51422380D02*
X94424523Y-50422380D01*
X93234047Y-50374761D02*
X94091190Y-51660476D01*
X92710238Y-50422380D02*
X92519761Y-50422380D01*
X92424523Y-50470000D01*
X92329285Y-50565238D01*
X92281666Y-50755714D01*
X92281666Y-51089047D01*
X92329285Y-51279523D01*
X92424523Y-51374761D01*
X92519761Y-51422380D01*
X92710238Y-51422380D01*
X92805476Y-51374761D01*
X92900714Y-51279523D01*
X92948333Y-51089047D01*
X92948333Y-50755714D01*
X92900714Y-50565238D01*
X92805476Y-50470000D01*
X92710238Y-50422380D01*
X92082857Y-56015000D02*
X92178095Y-55967380D01*
X92320952Y-55967380D01*
X92463809Y-56015000D01*
X92559047Y-56110238D01*
X92606666Y-56205476D01*
X92654285Y-56395952D01*
X92654285Y-56538809D01*
X92606666Y-56729285D01*
X92559047Y-56824523D01*
X92463809Y-56919761D01*
X92320952Y-56967380D01*
X92225714Y-56967380D01*
X92082857Y-56919761D01*
X92035238Y-56872142D01*
X92035238Y-56538809D01*
X92225714Y-56538809D01*
X91606666Y-56300714D02*
X91606666Y-56967380D01*
X91606666Y-56395952D02*
X91559047Y-56348333D01*
X91463809Y-56300714D01*
X91320952Y-56300714D01*
X91225714Y-56348333D01*
X91178095Y-56443571D01*
X91178095Y-56967380D01*
X90273333Y-56967380D02*
X90273333Y-55967380D01*
X90273333Y-56919761D02*
X90368571Y-56967380D01*
X90559047Y-56967380D01*
X90654285Y-56919761D01*
X90701904Y-56872142D01*
X90749523Y-56776904D01*
X90749523Y-56491190D01*
X90701904Y-56395952D01*
X90654285Y-56348333D01*
X90559047Y-56300714D01*
X90368571Y-56300714D01*
X90273333Y-56348333D01*
X98813809Y-57872380D02*
X98242380Y-57872380D01*
X98528095Y-58872380D02*
X98528095Y-57872380D01*
X97909047Y-58872380D02*
X97909047Y-57872380D01*
X97670952Y-57872380D01*
X97528095Y-57920000D01*
X97432857Y-58015238D01*
X97385238Y-58110476D01*
X97337619Y-58300952D01*
X97337619Y-58443809D01*
X97385238Y-58634285D01*
X97432857Y-58729523D01*
X97528095Y-58824761D01*
X97670952Y-58872380D01*
X97909047Y-58872380D01*
X96909047Y-58872380D02*
X96909047Y-57872380D01*
X99123333Y-62952380D02*
X98551904Y-62952380D01*
X98837619Y-63952380D02*
X98837619Y-62952380D01*
X98218571Y-63952380D02*
X98218571Y-62952380D01*
X97885238Y-63666666D01*
X97551904Y-62952380D01*
X97551904Y-63952380D01*
X97123333Y-63904761D02*
X96980476Y-63952380D01*
X96742380Y-63952380D01*
X96647142Y-63904761D01*
X96599523Y-63857142D01*
X96551904Y-63761904D01*
X96551904Y-63666666D01*
X96599523Y-63571428D01*
X96647142Y-63523809D01*
X96742380Y-63476190D01*
X96932857Y-63428571D01*
X97028095Y-63380952D01*
X97075714Y-63333333D01*
X97123333Y-63238095D01*
X97123333Y-63142857D01*
X97075714Y-63047619D01*
X97028095Y-63000000D01*
X96932857Y-62952380D01*
X96694761Y-62952380D01*
X96551904Y-63000000D01*
X99099523Y-65492380D02*
X98528095Y-65492380D01*
X98813809Y-66492380D02*
X98813809Y-65492380D01*
X98194761Y-66492380D02*
X98194761Y-65492380D01*
X97956666Y-65492380D01*
X97813809Y-65540000D01*
X97718571Y-65635238D01*
X97670952Y-65730476D01*
X97623333Y-65920952D01*
X97623333Y-66063809D01*
X97670952Y-66254285D01*
X97718571Y-66349523D01*
X97813809Y-66444761D01*
X97956666Y-66492380D01*
X98194761Y-66492380D01*
X97004285Y-65492380D02*
X96813809Y-65492380D01*
X96718571Y-65540000D01*
X96623333Y-65635238D01*
X96575714Y-65825714D01*
X96575714Y-66159047D01*
X96623333Y-66349523D01*
X96718571Y-66444761D01*
X96813809Y-66492380D01*
X97004285Y-66492380D01*
X97099523Y-66444761D01*
X97194761Y-66349523D01*
X97242380Y-66159047D01*
X97242380Y-65825714D01*
X97194761Y-65635238D01*
X97099523Y-65540000D01*
X97004285Y-65492380D01*
%TO.C,G\u002A\u002A\u002A*%
G36*
X121678848Y-61832420D02*
G01*
X121680735Y-61846815D01*
X121684397Y-61878163D01*
X121688713Y-61917796D01*
X121693100Y-61960462D01*
X121696075Y-61989705D01*
X121702082Y-62046621D01*
X121708604Y-62106411D01*
X121714673Y-62160120D01*
X121719132Y-62198732D01*
X121724246Y-62243232D01*
X121728603Y-62281377D01*
X121731581Y-62307722D01*
X121736431Y-62351154D01*
X121413056Y-62673359D01*
X121089682Y-62995563D01*
X121024576Y-63010648D01*
X121004007Y-63015608D01*
X120871294Y-63057275D01*
X120745690Y-63113675D01*
X120629600Y-63183755D01*
X120610730Y-63196776D01*
X120584208Y-63214881D01*
X120565565Y-63227347D01*
X120557983Y-63232030D01*
X120557736Y-63229690D01*
X120557290Y-63212930D01*
X120556883Y-63181546D01*
X120556527Y-63137329D01*
X120556230Y-63082074D01*
X120556006Y-63017574D01*
X120555863Y-62945622D01*
X120555813Y-62868011D01*
X120555813Y-62503824D01*
X120592706Y-62487531D01*
X120602956Y-62483315D01*
X120631261Y-62472674D01*
X120668603Y-62459318D01*
X120710206Y-62444895D01*
X120751292Y-62431049D01*
X120787087Y-62419428D01*
X120812812Y-62411677D01*
X120814582Y-62410136D01*
X120819736Y-62395435D01*
X120824562Y-62368289D01*
X120828352Y-62332320D01*
X120830378Y-62308277D01*
X120835072Y-62259312D01*
X120840727Y-62205838D01*
X120846525Y-62155780D01*
X120849631Y-62129929D01*
X120856295Y-62072018D01*
X120862851Y-62012369D01*
X120868243Y-61960462D01*
X120871346Y-61929954D01*
X120875734Y-61888914D01*
X120879636Y-61854651D01*
X120882471Y-61832420D01*
X120887209Y-61799867D01*
X121674109Y-61799867D01*
X121678848Y-61832420D01*
G37*
G36*
X119823621Y-63997442D02*
G01*
X119835959Y-64009783D01*
X119916702Y-64090950D01*
X119984882Y-64160258D01*
X120040550Y-64217761D01*
X120083758Y-64263513D01*
X120114557Y-64297569D01*
X120132999Y-64319983D01*
X120139135Y-64330809D01*
X120141097Y-64348149D01*
X120147663Y-64379955D01*
X120157726Y-64420114D01*
X120170121Y-64464289D01*
X120183686Y-64508143D01*
X120197255Y-64547338D01*
X120201980Y-64559711D01*
X120237134Y-64639100D01*
X120280095Y-64719605D01*
X120326258Y-64792471D01*
X120330526Y-64798602D01*
X120347968Y-64824212D01*
X120360214Y-64843113D01*
X120364836Y-64851582D01*
X120362613Y-64852016D01*
X120346060Y-64852825D01*
X120314863Y-64853563D01*
X120270817Y-64854211D01*
X120215722Y-64854748D01*
X120151375Y-64855156D01*
X120079573Y-64855415D01*
X120002116Y-64855506D01*
X119639397Y-64855506D01*
X119616844Y-64796911D01*
X119607083Y-64770666D01*
X119591946Y-64727770D01*
X119576457Y-64681966D01*
X119562764Y-64639643D01*
X119553017Y-64607188D01*
X119551464Y-64605413D01*
X119536741Y-64600262D01*
X119509589Y-64595436D01*
X119473638Y-64591648D01*
X119449596Y-64589622D01*
X119400631Y-64584928D01*
X119347157Y-64579273D01*
X119297098Y-64573475D01*
X119271247Y-64570369D01*
X119213336Y-64563705D01*
X119153688Y-64557149D01*
X119101780Y-64551757D01*
X119071273Y-64548654D01*
X119030232Y-64544266D01*
X118995970Y-64540364D01*
X118973739Y-64537529D01*
X118941186Y-64532791D01*
X118941186Y-63745891D01*
X118973739Y-63741152D01*
X118988133Y-63739265D01*
X119019482Y-63735603D01*
X119059115Y-63731287D01*
X119101780Y-63726900D01*
X119131031Y-63723922D01*
X119187945Y-63717902D01*
X119247732Y-63711358D01*
X119301438Y-63705261D01*
X119339230Y-63700885D01*
X119385859Y-63695542D01*
X119427032Y-63690882D01*
X119456857Y-63687576D01*
X119508106Y-63682016D01*
X119823621Y-63997442D01*
G37*
G36*
X121865080Y-64089859D02*
G01*
X121865399Y-64198477D01*
X121852785Y-64302408D01*
X121827796Y-64400020D01*
X121790991Y-64489683D01*
X121742929Y-64569762D01*
X121684169Y-64638628D01*
X121615268Y-64694647D01*
X121608495Y-64699074D01*
X121539598Y-64737187D01*
X121466017Y-64767088D01*
X121395052Y-64785755D01*
X121373559Y-64788331D01*
X121336299Y-64790520D01*
X121291899Y-64791519D01*
X121245936Y-64791126D01*
X121226075Y-64790533D01*
X121179504Y-64787992D01*
X121142324Y-64783480D01*
X121108664Y-64776109D01*
X121072651Y-64764994D01*
X121068035Y-64763405D01*
X120980265Y-64723702D01*
X120900979Y-64669289D01*
X120831504Y-64601246D01*
X120773164Y-64520656D01*
X120743112Y-64470979D01*
X120780791Y-64437542D01*
X120805981Y-64417277D01*
X120828626Y-64406219D01*
X120847147Y-64408128D01*
X120864806Y-64422417D01*
X120883582Y-64441027D01*
X120919548Y-64471290D01*
X120961253Y-64502265D01*
X121002971Y-64529771D01*
X121038977Y-64549626D01*
X121047758Y-64553676D01*
X121069668Y-64562626D01*
X121090726Y-64568375D01*
X121115486Y-64571620D01*
X121148498Y-64573056D01*
X121194315Y-64573380D01*
X121236034Y-64573233D01*
X121268698Y-64572181D01*
X121293174Y-64569312D01*
X121314222Y-64563715D01*
X121336604Y-64554478D01*
X121365080Y-64540690D01*
X121401383Y-64520049D01*
X121461803Y-64471123D01*
X121511083Y-64410660D01*
X121547999Y-64340712D01*
X121571327Y-64263333D01*
X121579842Y-64180575D01*
X121580147Y-64143681D01*
X120781914Y-64143681D01*
X120767645Y-64121905D01*
X120762364Y-64110497D01*
X120755124Y-64079590D01*
X120750367Y-64038038D01*
X120748225Y-63989999D01*
X120748834Y-63939630D01*
X120752327Y-63891089D01*
X120755518Y-63870236D01*
X121012443Y-63870236D01*
X121013771Y-63899768D01*
X121023602Y-63937702D01*
X121043810Y-63963391D01*
X121075383Y-63978536D01*
X121089613Y-63980656D01*
X121120057Y-63982846D01*
X121163191Y-63984695D01*
X121216517Y-63986122D01*
X121277539Y-63987044D01*
X121343760Y-63987378D01*
X121580477Y-63987427D01*
X121576038Y-63967895D01*
X121574227Y-63959802D01*
X121568720Y-63934636D01*
X121562389Y-63905233D01*
X121554859Y-63875827D01*
X121526522Y-63805999D01*
X121486287Y-63743330D01*
X121436433Y-63690970D01*
X121379236Y-63652067D01*
X121361922Y-63644245D01*
X121310614Y-63630451D01*
X121255236Y-63626305D01*
X121201870Y-63631932D01*
X121156598Y-63647458D01*
X121136218Y-63659184D01*
X121084868Y-63700575D01*
X121046079Y-63751158D01*
X121021417Y-63808517D01*
X121012443Y-63870236D01*
X120755518Y-63870236D01*
X120758838Y-63848534D01*
X120768140Y-63811304D01*
X120800034Y-63728253D01*
X120844696Y-63653467D01*
X120900535Y-63589327D01*
X120965964Y-63538214D01*
X120968833Y-63536419D01*
X121028995Y-63503449D01*
X121088820Y-63480862D01*
X121153920Y-63467002D01*
X121229906Y-63460209D01*
X121269920Y-63458736D01*
X121306102Y-63458961D01*
X121336721Y-63461919D01*
X121368112Y-63468276D01*
X121406607Y-63478691D01*
X121436918Y-63488108D01*
X121524009Y-63524972D01*
X121602373Y-63574793D01*
X121675635Y-63639742D01*
X121694297Y-63659349D01*
X121754085Y-63733627D01*
X121799521Y-63812170D01*
X121832370Y-63898491D01*
X121852436Y-63987427D01*
X121854395Y-63996108D01*
X121865080Y-64089859D01*
G37*
G36*
X123211063Y-62766602D02*
G01*
X123192626Y-62792494D01*
X123191815Y-62793627D01*
X123176473Y-62814078D01*
X123154856Y-62841827D01*
X123131373Y-62871208D01*
X123126147Y-62877662D01*
X123102298Y-62907214D01*
X123071936Y-62944937D01*
X123038419Y-62986657D01*
X123005105Y-63028199D01*
X122990172Y-63046803D01*
X122961617Y-63082155D01*
X122937276Y-63112006D01*
X122919351Y-63133665D01*
X122910043Y-63144438D01*
X122899403Y-63157040D01*
X122885010Y-63176991D01*
X122871588Y-63197475D01*
X121950877Y-63197475D01*
X121906575Y-63168083D01*
X121861961Y-63140761D01*
X121805849Y-63110198D01*
X121748103Y-63081823D01*
X121696360Y-63059578D01*
X121676235Y-63052316D01*
X121632298Y-63038387D01*
X121581721Y-63024030D01*
X121530266Y-63010772D01*
X121483693Y-63000141D01*
X121447765Y-62993664D01*
X121434017Y-62991453D01*
X121414284Y-62986601D01*
X121406531Y-62982038D01*
X121407975Y-62979953D01*
X121419467Y-62967216D01*
X121441368Y-62944185D01*
X121472397Y-62912168D01*
X121511277Y-62872474D01*
X121556729Y-62826411D01*
X121607475Y-62775287D01*
X121662235Y-62720411D01*
X121917938Y-62464817D01*
X121985594Y-62493898D01*
X121986006Y-62494075D01*
X122028376Y-62513224D01*
X122074437Y-62535444D01*
X122114290Y-62555960D01*
X122175330Y-62588942D01*
X122214119Y-62558454D01*
X122229750Y-62546099D01*
X122253623Y-62526992D01*
X122270340Y-62513318D01*
X122273391Y-62510766D01*
X122296611Y-62491657D01*
X122329926Y-62464561D01*
X122370397Y-62431837D01*
X122415085Y-62395845D01*
X122461053Y-62358943D01*
X122505363Y-62323493D01*
X122545076Y-62291852D01*
X122577255Y-62266380D01*
X122598961Y-62249436D01*
X122652225Y-62208540D01*
X123211063Y-62766602D01*
G37*
G36*
X122439776Y-64275216D02*
G01*
X122452313Y-64286474D01*
X122475164Y-64308163D01*
X122507015Y-64338999D01*
X122546555Y-64377702D01*
X122592469Y-64422987D01*
X122643446Y-64473573D01*
X122698171Y-64528178D01*
X122952347Y-64782463D01*
X122929636Y-64834176D01*
X122925254Y-64843989D01*
X122908644Y-64879696D01*
X122888639Y-64921217D01*
X122868645Y-64961444D01*
X122830363Y-65037000D01*
X122884527Y-65104647D01*
X122898637Y-65122248D01*
X122922334Y-65151712D01*
X122941567Y-65175508D01*
X122953150Y-65189686D01*
X122956064Y-65193231D01*
X122969774Y-65210094D01*
X122991804Y-65237306D01*
X123020364Y-65272653D01*
X123053665Y-65313922D01*
X123089918Y-65358898D01*
X123212226Y-65510717D01*
X122932656Y-65790386D01*
X122910962Y-65812053D01*
X122846782Y-65875697D01*
X122789974Y-65931320D01*
X122741322Y-65978179D01*
X122701612Y-66015534D01*
X122671628Y-66042643D01*
X122652153Y-66058764D01*
X122643974Y-66063157D01*
X122642461Y-66061981D01*
X122629471Y-66051657D01*
X122605755Y-66032690D01*
X122573452Y-66006793D01*
X122534697Y-65975679D01*
X122491630Y-65941060D01*
X122482407Y-65933643D01*
X122437576Y-65897607D01*
X122395683Y-65863961D01*
X122359375Y-65834827D01*
X122331299Y-65812331D01*
X122314102Y-65798595D01*
X122305196Y-65791459D01*
X122276448Y-65767902D01*
X122251166Y-65746558D01*
X122222525Y-65721787D01*
X122222525Y-64812644D01*
X122260810Y-64753462D01*
X122302745Y-64682138D01*
X122356769Y-64564660D01*
X122398410Y-64438415D01*
X122426542Y-64306446D01*
X122427586Y-64300466D01*
X122432665Y-64281527D01*
X122437823Y-64273893D01*
X122439776Y-64275216D01*
G37*
G36*
X122932469Y-63451388D02*
G01*
X122936685Y-63461637D01*
X122947326Y-63489942D01*
X122960682Y-63527284D01*
X122975105Y-63568887D01*
X122988951Y-63609974D01*
X123000572Y-63645768D01*
X123008323Y-63671493D01*
X123009864Y-63673264D01*
X123024565Y-63678417D01*
X123051711Y-63683244D01*
X123087680Y-63687034D01*
X123111723Y-63689060D01*
X123160688Y-63693754D01*
X123214162Y-63699408D01*
X123264220Y-63705207D01*
X123290071Y-63708313D01*
X123347982Y-63714977D01*
X123407631Y-63721532D01*
X123459538Y-63726925D01*
X123490046Y-63730027D01*
X123531086Y-63734415D01*
X123565349Y-63738318D01*
X123587580Y-63741152D01*
X123620133Y-63745891D01*
X123620133Y-64532791D01*
X123587580Y-64537529D01*
X123573184Y-64539419D01*
X123541835Y-64543088D01*
X123502203Y-64547417D01*
X123459538Y-64551820D01*
X123431284Y-64554678D01*
X123396136Y-64558340D01*
X123358221Y-64562427D01*
X123314643Y-64567261D01*
X123262508Y-64573164D01*
X123198921Y-64580458D01*
X123120987Y-64589464D01*
X123099226Y-64591805D01*
X123077627Y-64593782D01*
X123074841Y-64592666D01*
X123060515Y-64581807D01*
X123036126Y-64560534D01*
X123003086Y-64530246D01*
X122962804Y-64492343D01*
X122916693Y-64448225D01*
X122866162Y-64399292D01*
X122812623Y-64346943D01*
X122757487Y-64292578D01*
X122702164Y-64237597D01*
X122648066Y-64183400D01*
X122596604Y-64131385D01*
X122549187Y-64082954D01*
X122507228Y-64039505D01*
X122472138Y-64002439D01*
X122445326Y-63973154D01*
X122428204Y-63953052D01*
X122422184Y-63943532D01*
X122422156Y-63942311D01*
X122419100Y-63922073D01*
X122411820Y-63890119D01*
X122401496Y-63850759D01*
X122389308Y-63808303D01*
X122376437Y-63767061D01*
X122364064Y-63731343D01*
X122356745Y-63712436D01*
X122322139Y-63635439D01*
X122280642Y-63557943D01*
X122236892Y-63488796D01*
X122235157Y-63486311D01*
X122216437Y-63459321D01*
X122201507Y-63437492D01*
X122193462Y-63425346D01*
X122193629Y-63423546D01*
X122199883Y-63421110D01*
X122214584Y-63419123D01*
X122239004Y-63417548D01*
X122274418Y-63416346D01*
X122322099Y-63415478D01*
X122383320Y-63414906D01*
X122459355Y-63414591D01*
X122551477Y-63414495D01*
X122916176Y-63414495D01*
X122932469Y-63451388D01*
G37*
G36*
X120659115Y-65114601D02*
G01*
X120703967Y-65141905D01*
X120827822Y-65204530D01*
X120955007Y-65250751D01*
X121084321Y-65280102D01*
X121111489Y-65284860D01*
X121133713Y-65289624D01*
X121143731Y-65292957D01*
X121142598Y-65294976D01*
X121131703Y-65307503D01*
X121110370Y-65330304D01*
X121079854Y-65362090D01*
X121041405Y-65401568D01*
X120996278Y-65447451D01*
X120945723Y-65498448D01*
X120890993Y-65553269D01*
X120634249Y-65809575D01*
X120584180Y-65787591D01*
X120574399Y-65783220D01*
X120539420Y-65766928D01*
X120498486Y-65747184D01*
X120458556Y-65727326D01*
X120383000Y-65689045D01*
X120315353Y-65743208D01*
X120297752Y-65757318D01*
X120268288Y-65781016D01*
X120244492Y-65800249D01*
X120230314Y-65811832D01*
X120226769Y-65814745D01*
X120209906Y-65828456D01*
X120182694Y-65850486D01*
X120147347Y-65879046D01*
X120106078Y-65912347D01*
X120061102Y-65948599D01*
X119909283Y-66070908D01*
X119629614Y-65791337D01*
X119607947Y-65769643D01*
X119544303Y-65705463D01*
X119488680Y-65648655D01*
X119441821Y-65600004D01*
X119404466Y-65560294D01*
X119377357Y-65530309D01*
X119361236Y-65510835D01*
X119356843Y-65502656D01*
X119362254Y-65495794D01*
X119377117Y-65477160D01*
X119399304Y-65449434D01*
X119426879Y-65415025D01*
X119457907Y-65376344D01*
X119490453Y-65335801D01*
X119522582Y-65295806D01*
X119552360Y-65258769D01*
X119577852Y-65227100D01*
X119597123Y-65203210D01*
X119608237Y-65189508D01*
X119620833Y-65173910D01*
X119640039Y-65149886D01*
X119661691Y-65122643D01*
X119700755Y-65073347D01*
X120146949Y-65072937D01*
X120593142Y-65072526D01*
X120659115Y-65114601D01*
G37*
G36*
X120061102Y-62330230D02*
G01*
X120078267Y-62344073D01*
X120123919Y-62380870D01*
X120166166Y-62414896D01*
X120202483Y-62444119D01*
X120230342Y-62466504D01*
X120247217Y-62480018D01*
X120256154Y-62487197D01*
X120284888Y-62510779D01*
X120310153Y-62532123D01*
X120338793Y-62556895D01*
X120338793Y-63466038D01*
X120301012Y-63524904D01*
X120261476Y-63590571D01*
X120227901Y-63657207D01*
X120197471Y-63731343D01*
X120186580Y-63762113D01*
X120172619Y-63806092D01*
X120159725Y-63851170D01*
X120149066Y-63892975D01*
X120141813Y-63927138D01*
X120139135Y-63949288D01*
X120138242Y-63962365D01*
X120133866Y-63982376D01*
X120130482Y-63989224D01*
X120122959Y-63996108D01*
X120121326Y-63995003D01*
X120109348Y-63984202D01*
X120087007Y-63962931D01*
X120055619Y-63932478D01*
X120016504Y-63894133D01*
X119970977Y-63849185D01*
X119920357Y-63798923D01*
X119865962Y-63744637D01*
X119614603Y-63493166D01*
X119626190Y-63460341D01*
X119633259Y-63442804D01*
X119646983Y-63412103D01*
X119664689Y-63374476D01*
X119684272Y-63334481D01*
X119730766Y-63241447D01*
X119676697Y-63173917D01*
X119662678Y-63156426D01*
X119639004Y-63126974D01*
X119619795Y-63103179D01*
X119608237Y-63088995D01*
X119599944Y-63078821D01*
X119582405Y-63057128D01*
X119558143Y-63027029D01*
X119529115Y-62990962D01*
X119497277Y-62951363D01*
X119464587Y-62910668D01*
X119433001Y-62871313D01*
X119404477Y-62835735D01*
X119380971Y-62806371D01*
X119364441Y-62785655D01*
X119356843Y-62776026D01*
X119356919Y-62774709D01*
X119365099Y-62762875D01*
X119384774Y-62739993D01*
X119415202Y-62706850D01*
X119455641Y-62664228D01*
X119505350Y-62612914D01*
X119563588Y-62553691D01*
X119629614Y-62487344D01*
X119909283Y-62207774D01*
X120061102Y-62330230D01*
G37*
G36*
X121996454Y-65052310D02*
G01*
X121998890Y-65058565D01*
X122000877Y-65073265D01*
X122002452Y-65097686D01*
X122003654Y-65133100D01*
X122004522Y-65180781D01*
X122005094Y-65242002D01*
X122005409Y-65318036D01*
X122005505Y-65410158D01*
X122005505Y-65774858D01*
X121968612Y-65791151D01*
X121958363Y-65795367D01*
X121930058Y-65806008D01*
X121892716Y-65819363D01*
X121851113Y-65833787D01*
X121810026Y-65847632D01*
X121774232Y-65859254D01*
X121748507Y-65867004D01*
X121746736Y-65868545D01*
X121741583Y-65883247D01*
X121736756Y-65910393D01*
X121732966Y-65946362D01*
X121730940Y-65970404D01*
X121726246Y-66019369D01*
X121720592Y-66072843D01*
X121714793Y-66122902D01*
X121711687Y-66148753D01*
X121705023Y-66206664D01*
X121698468Y-66266312D01*
X121693075Y-66318220D01*
X121689973Y-66348727D01*
X121685585Y-66389768D01*
X121681682Y-66424030D01*
X121678848Y-66446261D01*
X121674109Y-66478814D01*
X120887209Y-66478814D01*
X120882471Y-66446261D01*
X120880583Y-66431867D01*
X120876922Y-66400518D01*
X120872606Y-66360885D01*
X120868218Y-66318220D01*
X120865244Y-66288977D01*
X120859236Y-66232060D01*
X120852715Y-66172271D01*
X120846646Y-66118562D01*
X120842228Y-66080338D01*
X120836982Y-66034812D01*
X120832435Y-65995214D01*
X120829239Y-65967204D01*
X120823892Y-65920016D01*
X121143380Y-65600441D01*
X121166120Y-65577728D01*
X121226745Y-65517520D01*
X121283523Y-65461618D01*
X121335260Y-65411168D01*
X121380760Y-65367318D01*
X121418826Y-65331216D01*
X121448264Y-65304008D01*
X121467876Y-65286842D01*
X121476468Y-65280865D01*
X121477689Y-65280837D01*
X121497927Y-65277782D01*
X121529881Y-65270502D01*
X121569241Y-65260177D01*
X121611697Y-65247990D01*
X121652939Y-65235119D01*
X121688657Y-65222745D01*
X121707564Y-65215426D01*
X121784561Y-65180821D01*
X121862057Y-65139323D01*
X121931204Y-65095574D01*
X121933689Y-65093838D01*
X121960679Y-65075119D01*
X121982508Y-65060189D01*
X121994654Y-65052143D01*
X121996454Y-65052310D01*
G37*
%TD*%
%LPC*%
D11*
%TO.C,J22*%
X132080000Y-45720000D03*
%TD*%
%TO.C,J12*%
X111760000Y-45720000D03*
%TD*%
%TO.C,J16*%
X106680000Y-55880000D03*
%TD*%
D12*
%TO.C,REF\u002A\u002A*%
X136525000Y-40640000D03*
%TD*%
D11*
%TO.C,J8*%
X121920000Y-45720000D03*
%TD*%
%TO.C,J24*%
X127000000Y-45720000D03*
%TD*%
%TO.C,J1*%
X95370000Y-68550000D03*
D13*
X92830000Y-68550000D03*
X95370000Y-66010000D03*
X92830000Y-66010000D03*
X95370000Y-63470000D03*
X92830000Y-63470000D03*
X95370000Y-60930000D03*
X92830000Y-60930000D03*
X95370000Y-58390000D03*
X92830000Y-58390000D03*
%TD*%
D11*
%TO.C,J30*%
X109220000Y-76200000D03*
%TD*%
%TO.C,J27*%
X106680000Y-60960000D03*
%TD*%
%TO.C,J9*%
X119380000Y-40640000D03*
%TD*%
%TO.C,J21*%
X132080000Y-50165000D03*
%TD*%
D12*
%TO.C,REF\u002A\u002A*%
X136525000Y-76200000D03*
%TD*%
D11*
%TO.C,J10*%
X116840000Y-45720000D03*
%TD*%
%TO.C,J35*%
X121920000Y-71120000D03*
%TD*%
%TO.C,J7*%
X106680000Y-45720000D03*
%TD*%
%TO.C,J28*%
X101600000Y-63500000D03*
%TD*%
%TO.C,J5*%
X106680000Y-71120000D03*
%TD*%
%TO.C,J32*%
X114300000Y-76200000D03*
%TD*%
%TO.C,J40*%
X132080000Y-66040000D03*
%TD*%
%TO.C,J20*%
X137160000Y-53340000D03*
%TD*%
D12*
%TO.C,REF\u002A\u002A*%
X93345000Y-76200000D03*
%TD*%
D11*
%TO.C,J33*%
X116840000Y-71120000D03*
%TD*%
%TO.C,J34*%
X119380000Y-76200000D03*
%TD*%
%TO.C,J4*%
X92830000Y-53315000D03*
D13*
X95370000Y-53315000D03*
%TD*%
D11*
%TO.C,J14*%
X106680000Y-50800000D03*
%TD*%
D12*
%TO.C,REF\u002A\u002A*%
X93345000Y-40640000D03*
%TD*%
D11*
%TO.C,J29*%
X106680000Y-66040000D03*
%TD*%
%TO.C,J3*%
X101600000Y-48260000D03*
%TD*%
%TO.C,J11*%
X114300000Y-40640000D03*
%TD*%
%TO.C,J36*%
X124460000Y-76200000D03*
%TD*%
%TO.C,J41*%
X137160000Y-63500000D03*
%TD*%
%TO.C,J19*%
X132080000Y-55880000D03*
%TD*%
%TO.C,J2*%
X104140000Y-40640000D03*
%TD*%
%TO.C,J23*%
X129540000Y-40640000D03*
%TD*%
%TO.C,J17*%
X132080000Y-60960000D03*
%TD*%
%TO.C,J15*%
X101600000Y-53340000D03*
%TD*%
%TO.C,J31*%
X111760000Y-71120000D03*
%TD*%
%TO.C,J26*%
X101600000Y-58420000D03*
%TD*%
%TO.C,J18*%
X137160000Y-58420000D03*
%TD*%
%TO.C,J39*%
X132080000Y-71120000D03*
%TD*%
%TO.C,J38*%
X129540000Y-76200000D03*
%TD*%
%TO.C,J13*%
X109220000Y-40640000D03*
%TD*%
%TO.C,J37*%
X127000000Y-71120000D03*
%TD*%
%TO.C,J25*%
X124460000Y-40640000D03*
%TD*%
M02*
