%TF.GenerationSoftware,KiCad,Pcbnew,(6.0.0)*%
%TF.CreationDate,2022-03-13T18:43:21-04:00*%
%TF.ProjectId,Xc9572 breakout,58633935-3732-4206-9272-65616b6f7574,rev?*%
%TF.SameCoordinates,Original*%
%TF.FileFunction,Copper,L1,Top*%
%TF.FilePolarity,Positive*%
%FSLAX46Y46*%
G04 Gerber Fmt 4.6, Leading zero omitted, Abs format (unit mm)*
G04 Created by KiCad (PCBNEW (6.0.0)) date 2022-03-13 18:43:21*
%MOMM*%
%LPD*%
G01*
G04 APERTURE LIST*
G04 Aperture macros list*
%AMRoundRect*
0 Rectangle with rounded corners*
0 $1 Rounding radius*
0 $2 $3 $4 $5 $6 $7 $8 $9 X,Y pos of 4 corners*
0 Add a 4 corners polygon primitive as box body*
4,1,4,$2,$3,$4,$5,$6,$7,$8,$9,$2,$3,0*
0 Add four circle primitives for the rounded corners*
1,1,$1+$1,$2,$3*
1,1,$1+$1,$4,$5*
1,1,$1+$1,$6,$7*
1,1,$1+$1,$8,$9*
0 Add four rect primitives between the rounded corners*
20,1,$1+$1,$2,$3,$4,$5,0*
20,1,$1+$1,$4,$5,$6,$7,0*
20,1,$1+$1,$6,$7,$8,$9,0*
20,1,$1+$1,$8,$9,$2,$3,0*%
G04 Aperture macros list end*
%TA.AperFunction,ComponentPad*%
%ADD10R,1.700000X1.700000*%
%TD*%
%TA.AperFunction,ComponentPad*%
%ADD11O,1.700000X1.700000*%
%TD*%
%TA.AperFunction,SMDPad,CuDef*%
%ADD12RoundRect,0.225000X-0.250000X0.225000X-0.250000X-0.225000X0.250000X-0.225000X0.250000X0.225000X0*%
%TD*%
%TA.AperFunction,SMDPad,CuDef*%
%ADD13R,0.700000X1.925000*%
%TD*%
%TA.AperFunction,SMDPad,CuDef*%
%ADD14R,1.925000X0.700000*%
%TD*%
%TA.AperFunction,ViaPad*%
%ADD15C,0.800000*%
%TD*%
%TA.AperFunction,Conductor*%
%ADD16C,0.250000*%
%TD*%
G04 APERTURE END LIST*
D10*
%TO.P,J22,1,Pin_1*%
%TO.N,/2-11{slash}GTS2*%
X132080000Y-45720000D03*
%TD*%
%TO.P,J12,1,Pin_1*%
%TO.N,/1-9{slash}GCK1*%
X111760000Y-45720000D03*
%TD*%
%TO.P,J16,1,Pin_1*%
%TO.N,/1-17*%
X106680000Y-55880000D03*
%TD*%
%TO.P,J8,1,Pin_1*%
%TO.N,/1-2*%
X121920000Y-45720000D03*
%TD*%
%TO.P,J24,1,Pin_1*%
%TO.N,/2-15*%
X127000000Y-45720000D03*
%TD*%
%TO.P,J1,1,Pin_1*%
%TO.N,/Tck*%
X95370000Y-68550000D03*
D11*
%TO.P,J1,2,Pin_2*%
%TO.N,GND*%
X92830000Y-68550000D03*
%TO.P,J1,3,Pin_3*%
%TO.N,/Tdo*%
X95370000Y-66010000D03*
%TO.P,J1,4,Pin_4*%
%TO.N,+5V*%
X92830000Y-66010000D03*
%TO.P,J1,5,Pin_5*%
%TO.N,/Tms*%
X95370000Y-63470000D03*
%TO.P,J1,6,Pin_6*%
%TO.N,unconnected-(J1-Pad6)*%
X92830000Y-63470000D03*
%TO.P,J1,7,Pin_7*%
%TO.N,unconnected-(J1-Pad7)*%
X95370000Y-60930000D03*
%TO.P,J1,8,Pin_8*%
%TO.N,unconnected-(J1-Pad8)*%
X92830000Y-60930000D03*
%TO.P,J1,9,Pin_9*%
%TO.N,/Tdi*%
X95370000Y-58390000D03*
%TO.P,J1,10,Pin_10*%
%TO.N,GND*%
X92830000Y-58390000D03*
%TD*%
D10*
%TO.P,J30,1,Pin_1*%
%TO.N,/3-11*%
X109220000Y-76200000D03*
%TD*%
%TO.P,J27,1,Pin_1*%
%TO.N,/3-5*%
X106680000Y-60960000D03*
%TD*%
%TO.P,J9,1,Pin_1*%
%TO.N,/1-5*%
X119380000Y-40640000D03*
%TD*%
%TO.P,J21,1,Pin_1*%
%TO.N,/2-9{slash}GSR*%
X132080000Y-50165000D03*
%TD*%
%TO.P,J10,1,Pin_1*%
%TO.N,/1-6*%
X116840000Y-45720000D03*
%TD*%
%TO.P,J35,1,Pin_1*%
%TO.N,/4-5*%
X121920000Y-71120000D03*
%TD*%
D12*
%TO.P,C2,1*%
%TO.N,+5V*%
X91440000Y-49110600D03*
%TO.P,C2,2*%
%TO.N,GND*%
X91440000Y-50660600D03*
%TD*%
D10*
%TO.P,J7,1,Pin_1*%
%TO.N,GND*%
X106680000Y-45720000D03*
%TD*%
%TO.P,J28,1,Pin_1*%
%TO.N,/3-8*%
X101600000Y-63500000D03*
%TD*%
%TO.P,J5,1,Pin_1*%
%TO.N,+5V*%
X106680000Y-71120000D03*
%TD*%
%TO.P,J32,1,Pin_1*%
%TO.N,/3-15*%
X114300000Y-76200000D03*
%TD*%
%TO.P,J40,1,Pin_1*%
%TO.N,/4-15*%
X132080000Y-66040000D03*
%TD*%
%TO.P,J20,1,Pin_1*%
%TO.N,/2-8*%
X137160000Y-53340000D03*
%TD*%
%TO.P,J33,1,Pin_1*%
%TO.N,/3-17*%
X116840000Y-71120000D03*
%TD*%
%TO.P,J34,1,Pin_1*%
%TO.N,/4-2*%
X119380000Y-76200000D03*
%TD*%
%TO.P,J4,1,Pin_1*%
%TO.N,+5V*%
X92830000Y-53315000D03*
D11*
%TO.P,J4,2,Pin_2*%
%TO.N,/VccIO*%
X95370000Y-53315000D03*
%TD*%
D10*
%TO.P,J14,1,Pin_1*%
%TO.N,/1-14{slash}GCK3*%
X106680000Y-50800000D03*
%TD*%
%TO.P,J29,1,Pin_1*%
%TO.N,/3-9*%
X106680000Y-66040000D03*
%TD*%
%TO.P,J3,1,Pin_1*%
%TO.N,/VccIO*%
X101600000Y-48260000D03*
%TD*%
%TO.P,J11,1,Pin_1*%
%TO.N,/1-8*%
X114300000Y-40640000D03*
%TD*%
%TO.P,J36,1,Pin_1*%
%TO.N,/4-8*%
X124460000Y-76200000D03*
%TD*%
D12*
%TO.P,C1,1*%
%TO.N,/VccIO*%
X98044000Y-52641200D03*
%TO.P,C1,2*%
%TO.N,GND*%
X98044000Y-54191200D03*
%TD*%
D10*
%TO.P,J41,1,Pin_1*%
%TO.N,/4-17*%
X137160000Y-63500000D03*
%TD*%
%TO.P,J19,1,Pin_1*%
%TO.N,/2-6*%
X132080000Y-55880000D03*
%TD*%
%TO.P,J2,1,Pin_1*%
%TO.N,+5V*%
X104140000Y-40640000D03*
%TD*%
%TO.P,J23,1,Pin_1*%
%TO.N,/2-14{slash}GTS1*%
X129540000Y-40640000D03*
%TD*%
%TO.P,J17,1,Pin_1*%
%TO.N,/2-2*%
X132080000Y-60960000D03*
%TD*%
%TO.P,J15,1,Pin_1*%
%TO.N,/1-15*%
X101600000Y-53340000D03*
%TD*%
D13*
%TO.P,U1,1,IO1-2*%
%TO.N,/1-2*%
X119380000Y-50557500D03*
%TO.P,U1,2,IO1-5*%
%TO.N,/1-5*%
X118110000Y-50557500D03*
%TO.P,U1,3,IO1-6*%
%TO.N,/1-6*%
X116840000Y-50557500D03*
%TO.P,U1,4,IO1-8*%
%TO.N,/1-8*%
X115570000Y-50557500D03*
%TO.P,U1,5,IO1-9/GCK1*%
%TO.N,/1-9{slash}GCK1*%
X114300000Y-50557500D03*
%TO.P,U1,6,IO1-11/GCK2*%
%TO.N,/1-11{slash}GCK2*%
X113030000Y-50557500D03*
D14*
%TO.P,U1,7,IO1-14/GCK3*%
%TO.N,/1-14{slash}GCK3*%
X111517500Y-52070000D03*
%TO.P,U1,8,IO1-15*%
%TO.N,/1-15*%
X111517500Y-53340000D03*
%TO.P,U1,9,IO1-17*%
%TO.N,/1-17*%
X111517500Y-54610000D03*
%TO.P,U1,10,GND*%
%TO.N,GND*%
X111517500Y-55880000D03*
%TO.P,U1,11,IO3-2*%
%TO.N,/3-2*%
X111517500Y-57150000D03*
%TO.P,U1,12,IO3-5*%
%TO.N,/3-5*%
X111517500Y-58420000D03*
%TO.P,U1,13,IO3-8*%
%TO.N,/3-8*%
X111517500Y-59690000D03*
%TO.P,U1,14,IO3-9*%
%TO.N,/3-9*%
X111517500Y-60960000D03*
%TO.P,U1,15,TDI*%
%TO.N,/Tdi*%
X111517500Y-62230000D03*
%TO.P,U1,16,TMS*%
%TO.N,/Tms*%
X111517500Y-63500000D03*
%TO.P,U1,17,TCK*%
%TO.N,/Tck*%
X111517500Y-64770000D03*
D13*
%TO.P,U1,18,IO3-11*%
%TO.N,/3-11*%
X113030000Y-66282500D03*
%TO.P,U1,19,IO3-14*%
%TO.N,/3-14*%
X114300000Y-66282500D03*
%TO.P,U1,20,IO3-15*%
%TO.N,/3-15*%
X115570000Y-66282500D03*
%TO.P,U1,21,VCCINT*%
%TO.N,+5V*%
X116840000Y-66282500D03*
%TO.P,U1,22,IO3-17*%
%TO.N,/3-17*%
X118110000Y-66282500D03*
%TO.P,U1,23,GND*%
%TO.N,GND*%
X119380000Y-66282500D03*
%TO.P,U1,24,IO4-2*%
%TO.N,/4-2*%
X120650000Y-66282500D03*
%TO.P,U1,25,IO4-5*%
%TO.N,/4-5*%
X121920000Y-66282500D03*
%TO.P,U1,26,IO4-8*%
%TO.N,/4-8*%
X123190000Y-66282500D03*
%TO.P,U1,27,IO4-9*%
%TO.N,/4-9*%
X124460000Y-66282500D03*
%TO.P,U1,28,IO4-11*%
%TO.N,/4-11*%
X125730000Y-66282500D03*
D14*
%TO.P,U1,29,IO4-14*%
%TO.N,/4-14*%
X127242500Y-64770000D03*
%TO.P,U1,30,TDO*%
%TO.N,/Tdo*%
X127242500Y-63500000D03*
%TO.P,U1,31,GND*%
%TO.N,GND*%
X127242500Y-62230000D03*
%TO.P,U1,32,VCCIO*%
%TO.N,/VccIO*%
X127242500Y-60960000D03*
%TO.P,U1,33,IO4-15*%
%TO.N,/4-15*%
X127242500Y-59690000D03*
%TO.P,U1,34,IO4-17*%
%TO.N,/4-17*%
X127242500Y-58420000D03*
%TO.P,U1,35,IO2-2*%
%TO.N,/2-2*%
X127242500Y-57150000D03*
%TO.P,U1,36,IO2-5*%
%TO.N,/2-5*%
X127242500Y-55880000D03*
%TO.P,U1,37,IO2-6*%
%TO.N,/2-6*%
X127242500Y-54610000D03*
%TO.P,U1,38,IO2-8*%
%TO.N,/2-8*%
X127242500Y-53340000D03*
%TO.P,U1,39,IO2-9/GSR*%
%TO.N,/2-9{slash}GSR*%
X127242500Y-52070000D03*
D13*
%TO.P,U1,40,IO2-11/GTS2*%
%TO.N,/2-11{slash}GTS2*%
X125730000Y-50557500D03*
%TO.P,U1,41,VCCINT*%
%TO.N,+5V*%
X124460000Y-50557500D03*
%TO.P,U1,42,IO2-14/GTS1*%
%TO.N,/2-14{slash}GTS1*%
X123190000Y-50557500D03*
%TO.P,U1,43,IO2-15*%
%TO.N,/2-15*%
X121920000Y-50557500D03*
%TO.P,U1,44,IO2-17*%
%TO.N,/2-17*%
X120650000Y-50557500D03*
%TD*%
D10*
%TO.P,J31,1,Pin_1*%
%TO.N,/3-14*%
X111760000Y-71120000D03*
%TD*%
%TO.P,J26,1,Pin_1*%
%TO.N,/3-2*%
X101600000Y-58420000D03*
%TD*%
%TO.P,J18,1,Pin_1*%
%TO.N,/2-5*%
X137160000Y-58420000D03*
%TD*%
%TO.P,J39,1,Pin_1*%
%TO.N,/4-14*%
X132080000Y-71120000D03*
%TD*%
%TO.P,J38,1,Pin_1*%
%TO.N,/4-11*%
X129540000Y-76200000D03*
%TD*%
%TO.P,J13,1,Pin_1*%
%TO.N,/1-11{slash}GCK2*%
X109220000Y-40640000D03*
%TD*%
%TO.P,J37,1,Pin_1*%
%TO.N,/4-9*%
X127000000Y-71120000D03*
%TD*%
%TO.P,J25,1,Pin_1*%
%TO.N,/2-17*%
X124460000Y-40640000D03*
%TD*%
D15*
%TO.N,/Tck*%
X114935000Y-64135000D03*
%TO.N,/Tdo*%
X124460000Y-63500000D03*
X116205000Y-62865000D03*
X118745000Y-62865000D03*
%TO.N,+5V*%
X124460000Y-52705000D03*
X117475000Y-64135000D03*
%TO.N,/Tms*%
X114839511Y-62325489D03*
%TO.N,/Tdi*%
X113665000Y-61595000D03*
%TO.N,/VccIO*%
X125095000Y-60960000D03*
%TD*%
D16*
%TO.N,/VccIO*%
X97713800Y-52641200D02*
X97040000Y-53315000D01*
X98044000Y-52641200D02*
X97713800Y-52641200D01*
%TO.N,+5V*%
X92011200Y-49110600D02*
X93840300Y-50939700D01*
X91440000Y-49110600D02*
X92011200Y-49110600D01*
X93840300Y-50939700D02*
X104140000Y-40640000D01*
X93345000Y-51435000D02*
X93840300Y-50939700D01*
%TO.N,/Tck*%
X114300000Y-64770000D02*
X114935000Y-64135000D01*
X111517500Y-64770000D02*
X114300000Y-64770000D01*
%TO.N,/Tdo*%
X118745000Y-62865000D02*
X116205000Y-62865000D01*
X127242500Y-63500000D02*
X124460000Y-63500000D01*
%TO.N,+5V*%
X92830000Y-51950000D02*
X93345000Y-51435000D01*
X116840000Y-66282500D02*
X116840000Y-64770000D01*
X124460000Y-50557500D02*
X124460000Y-52705000D01*
X116840000Y-64770000D02*
X117475000Y-64135000D01*
X92830000Y-53315000D02*
X92830000Y-51950000D01*
%TO.N,/Tms*%
X113665000Y-63500000D02*
X114839511Y-62325489D01*
X111517500Y-63500000D02*
X113665000Y-63500000D01*
%TO.N,/Tdi*%
X113030000Y-62230000D02*
X113665000Y-61595000D01*
X111517500Y-62230000D02*
X113030000Y-62230000D01*
%TO.N,/VccIO*%
X127242500Y-60960000D02*
X125095000Y-60960000D01*
X95370000Y-53315000D02*
X100425000Y-48260000D01*
X97040000Y-53315000D02*
X95370000Y-53315000D01*
X100425000Y-48260000D02*
X101600000Y-48260000D01*
%TO.N,/1-2*%
X119380000Y-50557500D02*
X119380000Y-49945000D01*
X119380000Y-49945000D02*
X121920000Y-47405000D01*
X121920000Y-47405000D02*
X121920000Y-45720000D01*
%TO.N,/1-5*%
X118110000Y-50557500D02*
X118110000Y-49945000D01*
X119380000Y-48675000D02*
X119380000Y-40640000D01*
X118110000Y-49945000D02*
X119380000Y-48675000D01*
%TO.N,/1-6*%
X116840000Y-50557500D02*
X116840000Y-45720000D01*
%TO.N,/1-8*%
X115570000Y-41910000D02*
X114300000Y-40640000D01*
X115570000Y-50557500D02*
X115570000Y-41910000D01*
%TO.N,/1-9{slash}GCK1*%
X114300000Y-50557500D02*
X114300000Y-48260000D01*
X114300000Y-48260000D02*
X111760000Y-45720000D01*
%TO.N,/1-11{slash}GCK2*%
X113030000Y-49682400D02*
X109220000Y-45872400D01*
X109220000Y-45872400D02*
X109220000Y-40640000D01*
X113030000Y-50557500D02*
X113030000Y-49682400D01*
%TO.N,/1-14{slash}GCK3*%
X107950000Y-52070000D02*
X106680000Y-50800000D01*
X111517500Y-52070000D02*
X107950000Y-52070000D01*
%TO.N,/1-15*%
X111517500Y-53340000D02*
X101600000Y-53340000D01*
%TO.N,/1-17*%
X107950000Y-54610000D02*
X106680000Y-55880000D01*
X111517500Y-54610000D02*
X107950000Y-54610000D01*
%TO.N,/2-2*%
X132080000Y-59715400D02*
X132080000Y-60960000D01*
X129514600Y-57150000D02*
X132080000Y-59715400D01*
X127242500Y-57150000D02*
X129514600Y-57150000D01*
%TO.N,/2-5*%
X129565400Y-55880000D02*
X132105400Y-58420000D01*
X132105400Y-58420000D02*
X137160000Y-58420000D01*
X127242500Y-55880000D02*
X129565400Y-55880000D01*
%TO.N,/2-6*%
X130810000Y-54610000D02*
X132080000Y-55880000D01*
X127242500Y-54610000D02*
X130810000Y-54610000D01*
%TO.N,/2-8*%
X127242500Y-53340000D02*
X137160000Y-53340000D01*
%TO.N,/2-9{slash}GSR*%
X127242500Y-52070000D02*
X130175000Y-52070000D01*
X130175000Y-52070000D02*
X132080000Y-50165000D01*
%TO.N,/2-11{slash}GTS2*%
X125730000Y-50557500D02*
X127242500Y-50557500D01*
X127242500Y-50557500D02*
X132080000Y-45720000D01*
%TO.N,/2-14{slash}GTS1*%
X123190000Y-49865978D02*
X123785489Y-49270489D01*
X123190000Y-50557500D02*
X123190000Y-49865978D01*
X123785489Y-49270489D02*
X127273889Y-49270489D01*
X129540000Y-47004378D02*
X129540000Y-40640000D01*
X127273889Y-49270489D02*
X129540000Y-47004378D01*
%TO.N,/2-15*%
X121920000Y-49945000D02*
X123044031Y-48820969D01*
X121920000Y-50557500D02*
X121920000Y-49945000D01*
X127000000Y-47220769D02*
X127000000Y-45720000D01*
X125399800Y-48820969D02*
X127000000Y-47220769D01*
X123044031Y-48820969D02*
X125399800Y-48820969D01*
%TO.N,/2-17*%
X122294049Y-48371449D02*
X123875800Y-48371449D01*
X122258800Y-48336200D02*
X122294049Y-48371449D01*
X120650000Y-49945000D02*
X122258800Y-48336200D01*
X123875800Y-48371449D02*
X124460000Y-47787249D01*
X120650000Y-50557500D02*
X120650000Y-49945000D01*
X124460000Y-47787249D02*
X124460000Y-40640000D01*
%TO.N,/3-2*%
X101600000Y-58420000D02*
X101600000Y-58267600D01*
X102717600Y-57150000D02*
X111517500Y-57150000D01*
X101600000Y-58267600D02*
X102717600Y-57150000D01*
%TO.N,/3-5*%
X111517500Y-58420000D02*
X109220000Y-58420000D01*
X109220000Y-58420000D02*
X106680000Y-60960000D01*
%TO.N,/3-8*%
X111517500Y-59690000D02*
X110905000Y-59690000D01*
X102965489Y-62134511D02*
X101600000Y-63500000D01*
X108460489Y-62134511D02*
X102965489Y-62134511D01*
X110905000Y-59690000D02*
X108460489Y-62134511D01*
%TO.N,/3-9*%
X106680000Y-65105978D02*
X106680000Y-66040000D01*
X110825978Y-60960000D02*
X106680000Y-65105978D01*
X111517500Y-60960000D02*
X110825978Y-60960000D01*
%TO.N,/3-11*%
X109220000Y-70092500D02*
X113030000Y-66282500D01*
X109220000Y-76200000D02*
X109220000Y-70092500D01*
%TO.N,/3-14*%
X114300000Y-68580000D02*
X114300000Y-66282500D01*
X111760000Y-71120000D02*
X114300000Y-68580000D01*
%TO.N,/3-15*%
X114300000Y-74777600D02*
X114300000Y-76200000D01*
X115570000Y-66282500D02*
X115570000Y-73507600D01*
X115570000Y-73507600D02*
X114300000Y-74777600D01*
%TO.N,/3-17*%
X118110000Y-69850000D02*
X118110000Y-66282500D01*
X116840000Y-71120000D02*
X118110000Y-69850000D01*
%TO.N,/4-2*%
X119380000Y-76200000D02*
X120650000Y-74930000D01*
X120650000Y-74930000D02*
X120650000Y-66282500D01*
%TO.N,/4-5*%
X121920000Y-71120000D02*
X121920000Y-66282500D01*
%TO.N,/4-8*%
X124460000Y-76200000D02*
X124460000Y-71310978D01*
X123190000Y-70040978D02*
X123190000Y-66282500D01*
X124460000Y-71310978D02*
X123190000Y-70040978D01*
%TO.N,/4-9*%
X124460000Y-68072000D02*
X124460000Y-66282500D01*
X127000000Y-70612000D02*
X124460000Y-68072000D01*
X127000000Y-71120000D02*
X127000000Y-70612000D01*
%TO.N,/4-11*%
X129540000Y-76200000D02*
X129540000Y-69824600D01*
X129540000Y-69824600D02*
X125997900Y-66282500D01*
X125997900Y-66282500D02*
X125730000Y-66282500D01*
%TO.N,/4-14*%
X127242500Y-64770000D02*
X127242500Y-66282500D01*
X127242500Y-66282500D02*
X132080000Y-71120000D01*
%TO.N,/4-15*%
X129184400Y-59690000D02*
X130175000Y-60680600D01*
X127242500Y-59690000D02*
X129184400Y-59690000D01*
X130175000Y-60680600D02*
X130175000Y-64287400D01*
X130175000Y-64287400D02*
X131927600Y-66040000D01*
X131927600Y-66040000D02*
X132080000Y-66040000D01*
%TO.N,/4-17*%
X129463800Y-58420000D02*
X130632200Y-59588400D01*
X131826000Y-63500000D02*
X137160000Y-63500000D01*
X127242500Y-58420000D02*
X129463800Y-58420000D01*
X130632200Y-62306200D02*
X131826000Y-63500000D01*
X130632200Y-59588400D02*
X130632200Y-62306200D01*
%TD*%
%TA.AperFunction,Conductor*%
%TO.N,GND*%
G36*
X136495057Y-37339500D02*
G01*
X136509858Y-37341805D01*
X136509861Y-37341805D01*
X136518730Y-37343186D01*
X136537411Y-37340743D01*
X136560342Y-37339852D01*
X136863557Y-37355743D01*
X136876665Y-37357120D01*
X137116285Y-37395072D01*
X137205002Y-37409123D01*
X137217902Y-37411865D01*
X137539000Y-37497903D01*
X137551536Y-37501977D01*
X137824358Y-37606703D01*
X137861876Y-37621105D01*
X137873924Y-37626469D01*
X138170120Y-37777388D01*
X138181536Y-37783979D01*
X138460334Y-37965033D01*
X138470996Y-37972779D01*
X138729344Y-38181984D01*
X138739145Y-38190810D01*
X138974190Y-38425855D01*
X138983015Y-38435655D01*
X139125787Y-38611964D01*
X139192221Y-38694004D01*
X139199967Y-38704666D01*
X139381018Y-38983459D01*
X139387612Y-38994880D01*
X139538531Y-39291076D01*
X139543895Y-39303124D01*
X139636089Y-39543295D01*
X139663021Y-39613456D01*
X139667097Y-39626000D01*
X139753135Y-39947098D01*
X139755877Y-39959998D01*
X139796760Y-40218124D01*
X139807879Y-40288329D01*
X139809257Y-40301443D01*
X139819823Y-40503049D01*
X139824764Y-40597330D01*
X139823436Y-40623312D01*
X139823195Y-40624856D01*
X139823195Y-40624860D01*
X139821814Y-40633730D01*
X139822978Y-40642632D01*
X139822978Y-40642635D01*
X139825936Y-40665251D01*
X139827000Y-40681589D01*
X139827000Y-76150672D01*
X139825500Y-76170056D01*
X139821814Y-76193730D01*
X139824257Y-76212410D01*
X139825148Y-76235343D01*
X139809257Y-76538554D01*
X139807880Y-76551665D01*
X139794656Y-76635159D01*
X139755877Y-76880002D01*
X139753135Y-76892902D01*
X139667097Y-77214000D01*
X139663023Y-77226536D01*
X139589281Y-77418642D01*
X139543895Y-77536876D01*
X139538531Y-77548924D01*
X139387612Y-77845120D01*
X139381021Y-77856536D01*
X139199967Y-78135334D01*
X139192224Y-78145992D01*
X138983016Y-78404344D01*
X138974190Y-78414145D01*
X138739145Y-78649190D01*
X138729344Y-78658016D01*
X138470996Y-78867221D01*
X138460334Y-78874967D01*
X138181536Y-79056021D01*
X138170120Y-79062612D01*
X137873924Y-79213531D01*
X137861875Y-79218895D01*
X137551536Y-79338023D01*
X137539000Y-79342097D01*
X137217902Y-79428135D01*
X137205002Y-79430877D01*
X137116285Y-79444928D01*
X136876665Y-79482880D01*
X136863557Y-79484257D01*
X136567666Y-79499764D01*
X136541688Y-79498436D01*
X136540144Y-79498195D01*
X136540140Y-79498195D01*
X136531270Y-79496814D01*
X136522368Y-79497978D01*
X136522365Y-79497978D01*
X136499749Y-79500936D01*
X136483411Y-79502000D01*
X93548405Y-79502000D01*
X93529020Y-79500500D01*
X93514219Y-79498195D01*
X93514216Y-79498195D01*
X93505347Y-79496814D01*
X93486666Y-79499257D01*
X93463735Y-79500148D01*
X93160520Y-79484257D01*
X93147412Y-79482880D01*
X92907792Y-79444928D01*
X92819075Y-79430877D01*
X92806175Y-79428135D01*
X92485077Y-79342097D01*
X92472541Y-79338023D01*
X92162202Y-79218895D01*
X92150153Y-79213531D01*
X91853957Y-79062612D01*
X91842541Y-79056021D01*
X91563743Y-78874967D01*
X91553081Y-78867221D01*
X91294733Y-78658016D01*
X91284932Y-78649190D01*
X91049887Y-78414145D01*
X91041061Y-78404344D01*
X90831853Y-78145992D01*
X90824110Y-78135334D01*
X90643056Y-77856536D01*
X90636465Y-77845120D01*
X90485546Y-77548924D01*
X90480182Y-77536876D01*
X90434796Y-77418642D01*
X90361054Y-77226536D01*
X90356980Y-77214000D01*
X90270942Y-76892902D01*
X90268200Y-76880002D01*
X90229421Y-76635159D01*
X90216197Y-76551665D01*
X90214820Y-76538554D01*
X90204964Y-76350488D01*
X90204032Y-76332703D01*
X91235743Y-76332703D01*
X91273268Y-76617734D01*
X91349129Y-76895036D01*
X91350813Y-76898984D01*
X91391460Y-76994278D01*
X91461923Y-77159476D01*
X91609561Y-77406161D01*
X91789313Y-77630528D01*
X91997851Y-77828423D01*
X92231317Y-77996186D01*
X92235112Y-77998195D01*
X92235113Y-77998196D01*
X92256869Y-78009715D01*
X92485392Y-78130712D01*
X92755373Y-78229511D01*
X93036264Y-78290755D01*
X93064841Y-78293004D01*
X93259282Y-78308307D01*
X93259291Y-78308307D01*
X93261739Y-78308500D01*
X93417271Y-78308500D01*
X93419407Y-78308354D01*
X93419418Y-78308354D01*
X93627548Y-78294165D01*
X93627554Y-78294164D01*
X93631825Y-78293873D01*
X93636020Y-78293004D01*
X93636022Y-78293004D01*
X93772583Y-78264724D01*
X93913342Y-78235574D01*
X94184343Y-78139607D01*
X94439812Y-78007750D01*
X94443313Y-78005289D01*
X94443317Y-78005287D01*
X94557418Y-77925095D01*
X94675023Y-77842441D01*
X94885622Y-77646740D01*
X95067713Y-77424268D01*
X95217927Y-77179142D01*
X95333483Y-76915898D01*
X95412244Y-76639406D01*
X95452751Y-76354784D01*
X95452845Y-76336951D01*
X95454235Y-76071583D01*
X95454235Y-76071576D01*
X95454257Y-76067297D01*
X95416732Y-75782266D01*
X95340871Y-75504964D01*
X95305484Y-75422000D01*
X95229763Y-75244476D01*
X95229761Y-75244472D01*
X95228077Y-75240524D01*
X95141646Y-75096109D01*
X95082643Y-74997521D01*
X95082640Y-74997517D01*
X95080439Y-74993839D01*
X94900687Y-74769472D01*
X94729781Y-74607288D01*
X94695258Y-74574527D01*
X94695255Y-74574525D01*
X94692149Y-74571577D01*
X94493339Y-74428717D01*
X94462172Y-74406321D01*
X94462171Y-74406320D01*
X94458683Y-74403814D01*
X94436843Y-74392250D01*
X94371834Y-74357830D01*
X94204608Y-74269288D01*
X93934627Y-74170489D01*
X93653736Y-74109245D01*
X93622685Y-74106801D01*
X93430718Y-74091693D01*
X93430709Y-74091693D01*
X93428261Y-74091500D01*
X93272729Y-74091500D01*
X93270593Y-74091646D01*
X93270582Y-74091646D01*
X93062452Y-74105835D01*
X93062446Y-74105836D01*
X93058175Y-74106127D01*
X93053980Y-74106996D01*
X93053978Y-74106996D01*
X92917416Y-74135277D01*
X92776658Y-74164426D01*
X92505657Y-74260393D01*
X92250188Y-74392250D01*
X92246687Y-74394711D01*
X92246683Y-74394713D01*
X92132583Y-74474904D01*
X92014977Y-74557559D01*
X91969892Y-74599455D01*
X91831839Y-74727742D01*
X91804378Y-74753260D01*
X91622287Y-74975732D01*
X91472073Y-75220858D01*
X91470347Y-75224791D01*
X91470346Y-75224792D01*
X91415485Y-75349770D01*
X91356517Y-75484102D01*
X91277756Y-75760594D01*
X91237249Y-76045216D01*
X91237227Y-76049505D01*
X91237226Y-76049512D01*
X91235765Y-76328417D01*
X91235743Y-76332703D01*
X90204032Y-76332703D01*
X90199313Y-76242666D01*
X90200641Y-76216688D01*
X90200882Y-76215144D01*
X90200882Y-76215140D01*
X90202263Y-76206270D01*
X90197961Y-76173366D01*
X90196899Y-76157584D01*
X90178963Y-72018134D01*
X105321500Y-72018134D01*
X105328255Y-72080316D01*
X105379385Y-72216705D01*
X105466739Y-72333261D01*
X105583295Y-72420615D01*
X105719684Y-72471745D01*
X105781866Y-72478500D01*
X107578134Y-72478500D01*
X107640316Y-72471745D01*
X107776705Y-72420615D01*
X107893261Y-72333261D01*
X107980615Y-72216705D01*
X108031745Y-72080316D01*
X108038500Y-72018134D01*
X108038500Y-70221866D01*
X108031745Y-70159684D01*
X107980615Y-70023295D01*
X107893261Y-69906739D01*
X107776705Y-69819385D01*
X107640316Y-69768255D01*
X107578134Y-69761500D01*
X105781866Y-69761500D01*
X105719684Y-69768255D01*
X105583295Y-69819385D01*
X105466739Y-69906739D01*
X105379385Y-70023295D01*
X105328255Y-70159684D01*
X105321500Y-70221866D01*
X105321500Y-72018134D01*
X90178963Y-72018134D01*
X90165097Y-68817966D01*
X91498257Y-68817966D01*
X91528565Y-68952446D01*
X91531645Y-68962275D01*
X91611770Y-69159603D01*
X91616413Y-69168794D01*
X91727694Y-69350388D01*
X91733777Y-69358699D01*
X91873213Y-69519667D01*
X91880580Y-69526883D01*
X92044434Y-69662916D01*
X92052881Y-69668831D01*
X92236756Y-69776279D01*
X92246042Y-69780729D01*
X92445001Y-69856703D01*
X92454899Y-69859579D01*
X92558250Y-69880606D01*
X92572299Y-69879410D01*
X92576000Y-69869065D01*
X92576000Y-68822115D01*
X92571525Y-68806876D01*
X92570135Y-68805671D01*
X92562452Y-68804000D01*
X91513225Y-68804000D01*
X91499694Y-68807973D01*
X91498257Y-68817966D01*
X90165097Y-68817966D01*
X90152786Y-65976695D01*
X91467251Y-65976695D01*
X91467548Y-65981848D01*
X91467548Y-65981851D01*
X91473011Y-66076590D01*
X91480110Y-66199715D01*
X91481247Y-66204761D01*
X91481248Y-66204767D01*
X91490337Y-66245096D01*
X91529222Y-66417639D01*
X91613266Y-66624616D01*
X91664019Y-66707438D01*
X91727291Y-66810688D01*
X91729987Y-66815088D01*
X91876250Y-66983938D01*
X92048126Y-67126632D01*
X92109196Y-67162318D01*
X92121955Y-67169774D01*
X92170679Y-67221412D01*
X92183750Y-67291195D01*
X92157019Y-67356967D01*
X92116562Y-67390327D01*
X92108457Y-67394546D01*
X92099738Y-67400036D01*
X91929433Y-67527905D01*
X91921726Y-67534748D01*
X91774590Y-67688717D01*
X91768104Y-67696727D01*
X91648098Y-67872649D01*
X91643000Y-67881623D01*
X91553338Y-68074783D01*
X91549775Y-68084470D01*
X91494389Y-68284183D01*
X91495912Y-68292607D01*
X91508292Y-68296000D01*
X92958000Y-68296000D01*
X93026121Y-68316002D01*
X93072614Y-68369658D01*
X93084000Y-68422000D01*
X93084000Y-69868517D01*
X93088064Y-69882359D01*
X93101478Y-69884393D01*
X93108184Y-69883534D01*
X93118262Y-69881392D01*
X93322255Y-69820191D01*
X93331842Y-69816433D01*
X93523095Y-69722739D01*
X93531945Y-69717464D01*
X93705328Y-69593792D01*
X93713193Y-69587145D01*
X93817897Y-69482805D01*
X93880268Y-69448889D01*
X93951075Y-69454077D01*
X94007837Y-69496723D01*
X94024819Y-69527826D01*
X94053198Y-69603526D01*
X94069385Y-69646705D01*
X94156739Y-69763261D01*
X94273295Y-69850615D01*
X94409684Y-69901745D01*
X94471866Y-69908500D01*
X96268134Y-69908500D01*
X96330316Y-69901745D01*
X96466705Y-69850615D01*
X96583261Y-69763261D01*
X96670615Y-69646705D01*
X96721745Y-69510316D01*
X96728500Y-69448134D01*
X96728500Y-67651866D01*
X96721745Y-67589684D01*
X96670615Y-67453295D01*
X96583261Y-67336739D01*
X96466705Y-67249385D01*
X96439905Y-67239338D01*
X96348203Y-67204960D01*
X96291439Y-67162318D01*
X96266739Y-67095756D01*
X96281947Y-67026408D01*
X96303493Y-66997727D01*
X96408096Y-66893489D01*
X96467594Y-66810689D01*
X96535435Y-66716277D01*
X96538453Y-66712077D01*
X96559320Y-66669857D01*
X96635136Y-66516453D01*
X96635137Y-66516451D01*
X96637430Y-66511811D01*
X96702370Y-66298069D01*
X96731529Y-66076590D01*
X96732008Y-66057000D01*
X96733074Y-66013365D01*
X96733074Y-66013361D01*
X96733156Y-66010000D01*
X96714852Y-65787361D01*
X96660431Y-65570702D01*
X96571354Y-65365840D01*
X96531906Y-65304862D01*
X96452822Y-65182617D01*
X96452820Y-65182614D01*
X96450014Y-65178277D01*
X96299670Y-65013051D01*
X96295619Y-65009852D01*
X96295615Y-65009848D01*
X96128414Y-64877800D01*
X96128410Y-64877798D01*
X96124359Y-64874598D01*
X96083053Y-64851796D01*
X96033084Y-64801364D01*
X96018312Y-64731921D01*
X96043428Y-64665516D01*
X96070780Y-64638909D01*
X96136747Y-64591855D01*
X96249860Y-64511173D01*
X96264888Y-64496198D01*
X96363295Y-64398134D01*
X100241500Y-64398134D01*
X100248255Y-64460316D01*
X100299385Y-64596705D01*
X100386739Y-64713261D01*
X100503295Y-64800615D01*
X100639684Y-64851745D01*
X100701866Y-64858500D01*
X102498134Y-64858500D01*
X102560316Y-64851745D01*
X102696705Y-64800615D01*
X102813261Y-64713261D01*
X102900615Y-64596705D01*
X102951745Y-64460316D01*
X102958500Y-64398134D01*
X102958500Y-63089595D01*
X102978502Y-63021474D01*
X102995405Y-63000500D01*
X103190989Y-62804916D01*
X103253301Y-62770890D01*
X103280084Y-62768011D01*
X107817872Y-62768011D01*
X107885993Y-62788013D01*
X107932486Y-62841669D01*
X107942590Y-62911943D01*
X107913096Y-62976523D01*
X107906967Y-62983106D01*
X106287747Y-64602326D01*
X106279461Y-64609866D01*
X106272982Y-64613978D01*
X106249571Y-64638909D01*
X106246901Y-64641752D01*
X106185688Y-64677718D01*
X106155050Y-64681500D01*
X105781866Y-64681500D01*
X105719684Y-64688255D01*
X105583295Y-64739385D01*
X105466739Y-64826739D01*
X105379385Y-64943295D01*
X105328255Y-65079684D01*
X105321500Y-65141866D01*
X105321500Y-66938134D01*
X105328255Y-67000316D01*
X105379385Y-67136705D01*
X105466739Y-67253261D01*
X105583295Y-67340615D01*
X105719684Y-67391745D01*
X105781866Y-67398500D01*
X107578134Y-67398500D01*
X107640316Y-67391745D01*
X107776705Y-67340615D01*
X107893261Y-67253261D01*
X107980615Y-67136705D01*
X108031745Y-67000316D01*
X108038500Y-66938134D01*
X108038500Y-65141866D01*
X108031745Y-65079684D01*
X107980615Y-64943295D01*
X107975230Y-64936110D01*
X107975229Y-64936108D01*
X107961811Y-64918204D01*
X107942445Y-64892366D01*
X107917597Y-64825861D01*
X107932649Y-64756478D01*
X107954176Y-64727706D01*
X109888550Y-62793332D01*
X109950862Y-62759306D01*
X110021677Y-62764371D01*
X110078513Y-62806918D01*
X110103324Y-62873438D01*
X110095627Y-62926657D01*
X110053255Y-63039684D01*
X110046500Y-63101866D01*
X110046500Y-63898134D01*
X110053255Y-63960316D01*
X110056027Y-63967712D01*
X110056029Y-63967718D01*
X110102160Y-64090771D01*
X110107343Y-64161578D01*
X110102160Y-64179229D01*
X110056029Y-64302282D01*
X110056027Y-64302288D01*
X110053255Y-64309684D01*
X110046500Y-64371866D01*
X110046500Y-65168134D01*
X110053255Y-65230316D01*
X110104385Y-65366705D01*
X110191739Y-65483261D01*
X110308295Y-65570615D01*
X110444684Y-65621745D01*
X110506866Y-65628500D01*
X112045500Y-65628500D01*
X112113621Y-65648502D01*
X112160114Y-65702158D01*
X112171500Y-65754500D01*
X112171500Y-66192906D01*
X112151498Y-66261027D01*
X112134595Y-66282001D01*
X108827747Y-69588848D01*
X108819461Y-69596388D01*
X108812982Y-69600500D01*
X108807557Y-69606277D01*
X108766357Y-69650151D01*
X108763602Y-69652993D01*
X108743865Y-69672730D01*
X108741385Y-69675927D01*
X108733682Y-69684947D01*
X108703414Y-69717179D01*
X108699595Y-69724125D01*
X108699593Y-69724128D01*
X108693652Y-69734934D01*
X108682801Y-69751453D01*
X108670386Y-69767459D01*
X108667241Y-69774728D01*
X108667238Y-69774732D01*
X108652826Y-69808037D01*
X108647609Y-69818687D01*
X108626305Y-69857440D01*
X108624334Y-69865115D01*
X108624334Y-69865116D01*
X108621267Y-69877062D01*
X108614863Y-69895766D01*
X108606819Y-69914355D01*
X108605580Y-69922178D01*
X108605577Y-69922188D01*
X108599901Y-69958024D01*
X108597495Y-69969644D01*
X108595193Y-69978611D01*
X108586500Y-70012470D01*
X108586500Y-70032724D01*
X108584949Y-70052434D01*
X108581780Y-70072443D01*
X108582526Y-70080335D01*
X108585941Y-70116461D01*
X108586500Y-70128319D01*
X108586500Y-74715500D01*
X108566498Y-74783621D01*
X108512842Y-74830114D01*
X108460500Y-74841500D01*
X108321866Y-74841500D01*
X108259684Y-74848255D01*
X108123295Y-74899385D01*
X108006739Y-74986739D01*
X107919385Y-75103295D01*
X107868255Y-75239684D01*
X107861500Y-75301866D01*
X107861500Y-77098134D01*
X107868255Y-77160316D01*
X107919385Y-77296705D01*
X108006739Y-77413261D01*
X108123295Y-77500615D01*
X108259684Y-77551745D01*
X108321866Y-77558500D01*
X110118134Y-77558500D01*
X110180316Y-77551745D01*
X110316705Y-77500615D01*
X110433261Y-77413261D01*
X110520615Y-77296705D01*
X110571745Y-77160316D01*
X110578500Y-77098134D01*
X110578500Y-75301866D01*
X110571745Y-75239684D01*
X110520615Y-75103295D01*
X110433261Y-74986739D01*
X110316705Y-74899385D01*
X110180316Y-74848255D01*
X110118134Y-74841500D01*
X109979500Y-74841500D01*
X109911379Y-74821498D01*
X109864886Y-74767842D01*
X109853500Y-74715500D01*
X109853500Y-70407094D01*
X109873502Y-70338973D01*
X109890405Y-70317999D01*
X110212652Y-69995752D01*
X110274964Y-69961726D01*
X110345779Y-69966791D01*
X110402615Y-70009338D01*
X110427426Y-70075858D01*
X110419729Y-70129076D01*
X110411029Y-70152282D01*
X110411027Y-70152288D01*
X110408255Y-70159684D01*
X110401500Y-70221866D01*
X110401500Y-72018134D01*
X110408255Y-72080316D01*
X110459385Y-72216705D01*
X110546739Y-72333261D01*
X110663295Y-72420615D01*
X110799684Y-72471745D01*
X110861866Y-72478500D01*
X112658134Y-72478500D01*
X112720316Y-72471745D01*
X112856705Y-72420615D01*
X112973261Y-72333261D01*
X113060615Y-72216705D01*
X113111745Y-72080316D01*
X113118500Y-72018134D01*
X113118500Y-70709594D01*
X113138502Y-70641473D01*
X113155405Y-70620499D01*
X114692247Y-69083657D01*
X114700537Y-69076113D01*
X114707018Y-69072000D01*
X114718649Y-69059614D01*
X114779862Y-69023648D01*
X114850802Y-69026485D01*
X114908946Y-69067225D01*
X114935835Y-69132933D01*
X114936500Y-69145866D01*
X114936500Y-73193005D01*
X114916498Y-73261126D01*
X114899595Y-73282100D01*
X113907747Y-74273948D01*
X113899461Y-74281488D01*
X113892982Y-74285600D01*
X113887557Y-74291377D01*
X113846357Y-74335251D01*
X113843602Y-74338093D01*
X113823865Y-74357830D01*
X113821385Y-74361027D01*
X113813682Y-74370047D01*
X113783414Y-74402279D01*
X113779595Y-74409225D01*
X113779593Y-74409228D01*
X113773652Y-74420034D01*
X113762801Y-74436553D01*
X113750386Y-74452559D01*
X113747241Y-74459828D01*
X113747238Y-74459832D01*
X113732826Y-74493137D01*
X113727609Y-74503787D01*
X113706305Y-74542540D01*
X113704334Y-74550215D01*
X113704334Y-74550216D01*
X113701267Y-74562162D01*
X113694863Y-74580866D01*
X113686819Y-74599455D01*
X113685580Y-74607278D01*
X113685577Y-74607288D01*
X113679901Y-74643124D01*
X113677495Y-74654744D01*
X113666500Y-74697570D01*
X113666500Y-74715500D01*
X113646498Y-74783621D01*
X113592842Y-74830114D01*
X113540500Y-74841500D01*
X113401866Y-74841500D01*
X113339684Y-74848255D01*
X113203295Y-74899385D01*
X113086739Y-74986739D01*
X112999385Y-75103295D01*
X112948255Y-75239684D01*
X112941500Y-75301866D01*
X112941500Y-77098134D01*
X112948255Y-77160316D01*
X112999385Y-77296705D01*
X113086739Y-77413261D01*
X113203295Y-77500615D01*
X113339684Y-77551745D01*
X113401866Y-77558500D01*
X115198134Y-77558500D01*
X115260316Y-77551745D01*
X115396705Y-77500615D01*
X115513261Y-77413261D01*
X115600615Y-77296705D01*
X115651745Y-77160316D01*
X115658500Y-77098134D01*
X118021500Y-77098134D01*
X118028255Y-77160316D01*
X118079385Y-77296705D01*
X118166739Y-77413261D01*
X118283295Y-77500615D01*
X118419684Y-77551745D01*
X118481866Y-77558500D01*
X120278134Y-77558500D01*
X120340316Y-77551745D01*
X120476705Y-77500615D01*
X120593261Y-77413261D01*
X120680615Y-77296705D01*
X120731745Y-77160316D01*
X120738500Y-77098134D01*
X120738500Y-75789594D01*
X120758502Y-75721473D01*
X120775405Y-75700499D01*
X121042247Y-75433657D01*
X121050537Y-75426113D01*
X121057018Y-75422000D01*
X121103659Y-75372332D01*
X121106413Y-75369491D01*
X121126134Y-75349770D01*
X121128612Y-75346575D01*
X121136318Y-75337553D01*
X121161158Y-75311101D01*
X121166586Y-75305321D01*
X121176346Y-75287568D01*
X121187199Y-75271045D01*
X121194753Y-75261306D01*
X121199613Y-75255041D01*
X121217176Y-75214457D01*
X121222383Y-75203827D01*
X121243695Y-75165060D01*
X121245666Y-75157383D01*
X121245668Y-75157378D01*
X121248732Y-75145442D01*
X121255138Y-75126730D01*
X121260033Y-75115419D01*
X121263181Y-75108145D01*
X121264421Y-75100317D01*
X121264423Y-75100310D01*
X121270099Y-75064476D01*
X121272505Y-75052856D01*
X121281528Y-75017711D01*
X121281528Y-75017710D01*
X121283500Y-75010030D01*
X121283500Y-74989776D01*
X121285051Y-74970065D01*
X121286980Y-74957886D01*
X121288220Y-74950057D01*
X121284059Y-74906038D01*
X121283500Y-74894181D01*
X121283500Y-72604500D01*
X121303502Y-72536379D01*
X121357158Y-72489886D01*
X121409500Y-72478500D01*
X122818134Y-72478500D01*
X122880316Y-72471745D01*
X123016705Y-72420615D01*
X123133261Y-72333261D01*
X123220615Y-72216705D01*
X123271745Y-72080316D01*
X123278500Y-72018134D01*
X123278500Y-71329572D01*
X123298502Y-71261451D01*
X123352158Y-71214958D01*
X123422432Y-71204854D01*
X123487012Y-71234348D01*
X123493595Y-71240477D01*
X123789595Y-71536477D01*
X123823621Y-71598789D01*
X123826500Y-71625572D01*
X123826500Y-74715500D01*
X123806498Y-74783621D01*
X123752842Y-74830114D01*
X123700500Y-74841500D01*
X123561866Y-74841500D01*
X123499684Y-74848255D01*
X123363295Y-74899385D01*
X123246739Y-74986739D01*
X123159385Y-75103295D01*
X123108255Y-75239684D01*
X123101500Y-75301866D01*
X123101500Y-77098134D01*
X123108255Y-77160316D01*
X123159385Y-77296705D01*
X123246739Y-77413261D01*
X123363295Y-77500615D01*
X123499684Y-77551745D01*
X123561866Y-77558500D01*
X125358134Y-77558500D01*
X125420316Y-77551745D01*
X125556705Y-77500615D01*
X125673261Y-77413261D01*
X125760615Y-77296705D01*
X125811745Y-77160316D01*
X125818500Y-77098134D01*
X125818500Y-75301866D01*
X125811745Y-75239684D01*
X125760615Y-75103295D01*
X125673261Y-74986739D01*
X125556705Y-74899385D01*
X125420316Y-74848255D01*
X125358134Y-74841500D01*
X125219500Y-74841500D01*
X125151379Y-74821498D01*
X125104886Y-74767842D01*
X125093500Y-74715500D01*
X125093500Y-71389745D01*
X125094027Y-71378562D01*
X125095702Y-71371069D01*
X125093562Y-71302992D01*
X125093500Y-71299033D01*
X125093500Y-71271122D01*
X125092995Y-71267122D01*
X125092062Y-71255279D01*
X125090922Y-71219007D01*
X125090673Y-71211088D01*
X125085022Y-71191636D01*
X125081014Y-71172284D01*
X125079467Y-71160041D01*
X125078474Y-71152181D01*
X125075556Y-71144810D01*
X125062200Y-71111075D01*
X125058355Y-71099848D01*
X125057721Y-71097665D01*
X125046018Y-71057385D01*
X125041984Y-71050563D01*
X125041981Y-71050557D01*
X125035706Y-71039946D01*
X125027010Y-71022196D01*
X125022472Y-71010734D01*
X125022469Y-71010729D01*
X125019552Y-71003361D01*
X124993573Y-70967603D01*
X124987057Y-70957685D01*
X124968575Y-70926435D01*
X124964542Y-70919615D01*
X124950218Y-70905291D01*
X124937376Y-70890256D01*
X124925472Y-70873871D01*
X124891406Y-70845689D01*
X124882627Y-70837700D01*
X123860405Y-69815478D01*
X123826379Y-69753166D01*
X123823500Y-69726383D01*
X123823500Y-68635594D01*
X123843502Y-68567473D01*
X123897158Y-68520980D01*
X123967432Y-68510876D01*
X124032012Y-68540370D01*
X124038595Y-68546499D01*
X125605913Y-70113817D01*
X125639939Y-70176129D01*
X125642003Y-70215069D01*
X125642053Y-70215072D01*
X125642028Y-70215539D01*
X125642080Y-70216525D01*
X125641869Y-70218464D01*
X125641869Y-70218469D01*
X125641500Y-70221866D01*
X125641500Y-72018134D01*
X125648255Y-72080316D01*
X125699385Y-72216705D01*
X125786739Y-72333261D01*
X125903295Y-72420615D01*
X126039684Y-72471745D01*
X126101866Y-72478500D01*
X127898134Y-72478500D01*
X127960316Y-72471745D01*
X128096705Y-72420615D01*
X128213261Y-72333261D01*
X128300615Y-72216705D01*
X128351745Y-72080316D01*
X128358500Y-72018134D01*
X128358500Y-70221866D01*
X128351745Y-70159684D01*
X128300615Y-70023295D01*
X128213261Y-69906739D01*
X128096705Y-69819385D01*
X127960316Y-69768255D01*
X127898134Y-69761500D01*
X127097595Y-69761500D01*
X127029474Y-69741498D01*
X127008500Y-69724595D01*
X125252500Y-67968595D01*
X125218474Y-67906283D01*
X125223539Y-67835468D01*
X125266086Y-67778632D01*
X125332606Y-67753821D01*
X125341595Y-67753500D01*
X126128134Y-67753500D01*
X126190316Y-67746745D01*
X126326705Y-67695615D01*
X126346985Y-67680416D01*
X126413491Y-67655569D01*
X126482874Y-67670622D01*
X126511644Y-67692148D01*
X127724536Y-68905041D01*
X128869595Y-70050100D01*
X128903621Y-70112412D01*
X128906500Y-70139195D01*
X128906500Y-74715500D01*
X128886498Y-74783621D01*
X128832842Y-74830114D01*
X128780500Y-74841500D01*
X128641866Y-74841500D01*
X128579684Y-74848255D01*
X128443295Y-74899385D01*
X128326739Y-74986739D01*
X128239385Y-75103295D01*
X128188255Y-75239684D01*
X128181500Y-75301866D01*
X128181500Y-77098134D01*
X128188255Y-77160316D01*
X128239385Y-77296705D01*
X128326739Y-77413261D01*
X128443295Y-77500615D01*
X128579684Y-77551745D01*
X128641866Y-77558500D01*
X130438134Y-77558500D01*
X130500316Y-77551745D01*
X130636705Y-77500615D01*
X130753261Y-77413261D01*
X130840615Y-77296705D01*
X130891745Y-77160316D01*
X130898500Y-77098134D01*
X130898500Y-76332703D01*
X134415743Y-76332703D01*
X134453268Y-76617734D01*
X134529129Y-76895036D01*
X134530813Y-76898984D01*
X134571460Y-76994278D01*
X134641923Y-77159476D01*
X134789561Y-77406161D01*
X134969313Y-77630528D01*
X135177851Y-77828423D01*
X135411317Y-77996186D01*
X135415112Y-77998195D01*
X135415113Y-77998196D01*
X135436869Y-78009715D01*
X135665392Y-78130712D01*
X135935373Y-78229511D01*
X136216264Y-78290755D01*
X136244841Y-78293004D01*
X136439282Y-78308307D01*
X136439291Y-78308307D01*
X136441739Y-78308500D01*
X136597271Y-78308500D01*
X136599407Y-78308354D01*
X136599418Y-78308354D01*
X136807548Y-78294165D01*
X136807554Y-78294164D01*
X136811825Y-78293873D01*
X136816020Y-78293004D01*
X136816022Y-78293004D01*
X136952583Y-78264724D01*
X137093342Y-78235574D01*
X137364343Y-78139607D01*
X137619812Y-78007750D01*
X137623313Y-78005289D01*
X137623317Y-78005287D01*
X137737418Y-77925095D01*
X137855023Y-77842441D01*
X138065622Y-77646740D01*
X138247713Y-77424268D01*
X138397927Y-77179142D01*
X138513483Y-76915898D01*
X138592244Y-76639406D01*
X138632751Y-76354784D01*
X138632845Y-76336951D01*
X138634235Y-76071583D01*
X138634235Y-76071576D01*
X138634257Y-76067297D01*
X138596732Y-75782266D01*
X138520871Y-75504964D01*
X138485484Y-75422000D01*
X138409763Y-75244476D01*
X138409761Y-75244472D01*
X138408077Y-75240524D01*
X138321646Y-75096109D01*
X138262643Y-74997521D01*
X138262640Y-74997517D01*
X138260439Y-74993839D01*
X138080687Y-74769472D01*
X137909781Y-74607288D01*
X137875258Y-74574527D01*
X137875255Y-74574525D01*
X137872149Y-74571577D01*
X137673339Y-74428717D01*
X137642172Y-74406321D01*
X137642171Y-74406320D01*
X137638683Y-74403814D01*
X137616843Y-74392250D01*
X137551834Y-74357830D01*
X137384608Y-74269288D01*
X137114627Y-74170489D01*
X136833736Y-74109245D01*
X136802685Y-74106801D01*
X136610718Y-74091693D01*
X136610709Y-74091693D01*
X136608261Y-74091500D01*
X136452729Y-74091500D01*
X136450593Y-74091646D01*
X136450582Y-74091646D01*
X136242452Y-74105835D01*
X136242446Y-74105836D01*
X136238175Y-74106127D01*
X136233980Y-74106996D01*
X136233978Y-74106996D01*
X136097416Y-74135277D01*
X135956658Y-74164426D01*
X135685657Y-74260393D01*
X135430188Y-74392250D01*
X135426687Y-74394711D01*
X135426683Y-74394713D01*
X135312583Y-74474904D01*
X135194977Y-74557559D01*
X135149892Y-74599455D01*
X135011839Y-74727742D01*
X134984378Y-74753260D01*
X134802287Y-74975732D01*
X134652073Y-75220858D01*
X134650347Y-75224791D01*
X134650346Y-75224792D01*
X134595485Y-75349770D01*
X134536517Y-75484102D01*
X134457756Y-75760594D01*
X134417249Y-76045216D01*
X134417227Y-76049505D01*
X134417226Y-76049512D01*
X134415765Y-76328417D01*
X134415743Y-76332703D01*
X130898500Y-76332703D01*
X130898500Y-75301866D01*
X130891745Y-75239684D01*
X130840615Y-75103295D01*
X130753261Y-74986739D01*
X130636705Y-74899385D01*
X130500316Y-74848255D01*
X130438134Y-74841500D01*
X130299500Y-74841500D01*
X130231379Y-74821498D01*
X130184886Y-74767842D01*
X130173500Y-74715500D01*
X130173500Y-70413595D01*
X130193502Y-70345474D01*
X130247158Y-70298981D01*
X130317432Y-70288877D01*
X130382012Y-70318371D01*
X130388595Y-70324500D01*
X130684595Y-70620500D01*
X130718621Y-70682812D01*
X130721500Y-70709594D01*
X130721500Y-72018134D01*
X130728255Y-72080316D01*
X130779385Y-72216705D01*
X130866739Y-72333261D01*
X130983295Y-72420615D01*
X131119684Y-72471745D01*
X131181866Y-72478500D01*
X132978134Y-72478500D01*
X133040316Y-72471745D01*
X133176705Y-72420615D01*
X133293261Y-72333261D01*
X133380615Y-72216705D01*
X133431745Y-72080316D01*
X133438500Y-72018134D01*
X133438500Y-70221866D01*
X133431745Y-70159684D01*
X133380615Y-70023295D01*
X133293261Y-69906739D01*
X133176705Y-69819385D01*
X133040316Y-69768255D01*
X132978134Y-69761500D01*
X131669594Y-69761500D01*
X131601473Y-69741498D01*
X131580499Y-69724595D01*
X127912905Y-66057000D01*
X127878879Y-65994688D01*
X127876000Y-65967905D01*
X127876000Y-65754500D01*
X127896002Y-65686379D01*
X127949658Y-65639886D01*
X128002000Y-65628500D01*
X128253134Y-65628500D01*
X128315316Y-65621745D01*
X128451705Y-65570615D01*
X128568261Y-65483261D01*
X128655615Y-65366705D01*
X128706745Y-65230316D01*
X128713500Y-65168134D01*
X128713500Y-64371866D01*
X128706745Y-64309684D01*
X128703973Y-64302288D01*
X128703971Y-64302282D01*
X128657840Y-64179229D01*
X128652657Y-64108422D01*
X128657840Y-64090771D01*
X128703971Y-63967718D01*
X128703973Y-63967712D01*
X128706745Y-63960316D01*
X128713500Y-63898134D01*
X128713500Y-63101866D01*
X128706745Y-63039684D01*
X128657573Y-62908518D01*
X128652390Y-62837710D01*
X128657573Y-62820058D01*
X128703478Y-62697606D01*
X128707105Y-62682351D01*
X128712631Y-62631486D01*
X128713000Y-62624672D01*
X128713000Y-62502115D01*
X128708525Y-62486876D01*
X128707135Y-62485671D01*
X128699452Y-62484000D01*
X125790116Y-62484000D01*
X125774877Y-62488475D01*
X125773672Y-62489865D01*
X125772001Y-62497548D01*
X125772001Y-62624669D01*
X125772371Y-62631490D01*
X125777895Y-62682352D01*
X125783349Y-62705293D01*
X125781709Y-62705683D01*
X125786204Y-62767076D01*
X125752284Y-62829446D01*
X125690029Y-62863575D01*
X125663039Y-62866500D01*
X125168200Y-62866500D01*
X125100079Y-62846498D01*
X125080853Y-62830157D01*
X125080580Y-62830460D01*
X125075668Y-62826037D01*
X125071253Y-62821134D01*
X124987210Y-62760073D01*
X124922094Y-62712763D01*
X124922093Y-62712762D01*
X124916752Y-62708882D01*
X124910724Y-62706198D01*
X124910722Y-62706197D01*
X124748319Y-62633891D01*
X124748318Y-62633891D01*
X124742288Y-62631206D01*
X124620331Y-62605283D01*
X124561944Y-62592872D01*
X124561939Y-62592872D01*
X124555487Y-62591500D01*
X124364513Y-62591500D01*
X124358061Y-62592872D01*
X124358056Y-62592872D01*
X124299669Y-62605283D01*
X124177712Y-62631206D01*
X124171682Y-62633891D01*
X124171681Y-62633891D01*
X124009278Y-62706197D01*
X124009276Y-62706198D01*
X124003248Y-62708882D01*
X123848747Y-62821134D01*
X123844326Y-62826044D01*
X123844325Y-62826045D01*
X123810601Y-62863500D01*
X123720960Y-62963056D01*
X123676719Y-63039684D01*
X123647903Y-63089595D01*
X123625473Y-63128444D01*
X123566458Y-63310072D01*
X123565768Y-63316633D01*
X123565768Y-63316635D01*
X123552608Y-63441851D01*
X123546496Y-63500000D01*
X123547186Y-63506565D01*
X123563814Y-63664767D01*
X123566458Y-63689928D01*
X123625473Y-63871556D01*
X123628776Y-63877278D01*
X123628777Y-63877279D01*
X123642779Y-63901531D01*
X123720960Y-64036944D01*
X123725378Y-64041851D01*
X123725379Y-64041852D01*
X123823589Y-64150925D01*
X123848747Y-64178866D01*
X123915423Y-64227309D01*
X123985193Y-64278000D01*
X124003248Y-64291118D01*
X124009276Y-64293802D01*
X124009278Y-64293803D01*
X124171681Y-64366109D01*
X124177712Y-64368794D01*
X124264724Y-64387289D01*
X124358056Y-64407128D01*
X124358061Y-64407128D01*
X124364513Y-64408500D01*
X124555487Y-64408500D01*
X124561939Y-64407128D01*
X124561944Y-64407128D01*
X124655276Y-64387289D01*
X124742288Y-64368794D01*
X124748319Y-64366109D01*
X124910722Y-64293803D01*
X124910724Y-64293802D01*
X124916752Y-64291118D01*
X124934808Y-64278000D01*
X125061135Y-64186217D01*
X125071253Y-64178866D01*
X125075668Y-64173963D01*
X125080580Y-64169540D01*
X125081705Y-64170789D01*
X125135014Y-64137949D01*
X125168200Y-64133500D01*
X125662505Y-64133500D01*
X125730626Y-64153502D01*
X125777119Y-64207158D01*
X125787223Y-64277432D01*
X125782827Y-64294593D01*
X125782856Y-64294600D01*
X125781030Y-64302282D01*
X125778255Y-64309684D01*
X125771500Y-64371866D01*
X125771500Y-64685500D01*
X125751498Y-64753621D01*
X125697842Y-64800114D01*
X125645500Y-64811500D01*
X125331866Y-64811500D01*
X125269684Y-64818255D01*
X125262288Y-64821027D01*
X125262282Y-64821029D01*
X125139229Y-64867160D01*
X125068422Y-64872343D01*
X125050771Y-64867160D01*
X124927718Y-64821029D01*
X124927712Y-64821027D01*
X124920316Y-64818255D01*
X124858134Y-64811500D01*
X124061866Y-64811500D01*
X123999684Y-64818255D01*
X123992288Y-64821027D01*
X123992282Y-64821029D01*
X123869229Y-64867160D01*
X123798422Y-64872343D01*
X123780771Y-64867160D01*
X123657718Y-64821029D01*
X123657712Y-64821027D01*
X123650316Y-64818255D01*
X123588134Y-64811500D01*
X122791866Y-64811500D01*
X122729684Y-64818255D01*
X122722288Y-64821027D01*
X122722282Y-64821029D01*
X122599229Y-64867160D01*
X122528422Y-64872343D01*
X122510771Y-64867160D01*
X122387718Y-64821029D01*
X122387712Y-64821027D01*
X122380316Y-64818255D01*
X122318134Y-64811500D01*
X121521866Y-64811500D01*
X121459684Y-64818255D01*
X121452288Y-64821027D01*
X121452282Y-64821029D01*
X121329229Y-64867160D01*
X121258422Y-64872343D01*
X121240771Y-64867160D01*
X121117718Y-64821029D01*
X121117712Y-64821027D01*
X121110316Y-64818255D01*
X121048134Y-64811500D01*
X120251866Y-64811500D01*
X120189684Y-64818255D01*
X120059230Y-64867160D01*
X120058518Y-64867427D01*
X119987710Y-64872610D01*
X119970058Y-64867427D01*
X119847606Y-64821522D01*
X119832351Y-64817895D01*
X119781486Y-64812369D01*
X119774672Y-64812000D01*
X119652115Y-64812000D01*
X119636876Y-64816475D01*
X119635671Y-64817865D01*
X119634000Y-64825548D01*
X119634000Y-67734884D01*
X119638475Y-67750123D01*
X119639865Y-67751328D01*
X119647548Y-67752999D01*
X119774669Y-67752999D01*
X119781490Y-67752629D01*
X119832352Y-67747105D01*
X119855293Y-67741651D01*
X119855683Y-67743291D01*
X119917076Y-67738796D01*
X119979446Y-67772716D01*
X120013575Y-67834971D01*
X120016500Y-67861961D01*
X120016500Y-74615405D01*
X119996498Y-74683526D01*
X119979595Y-74704500D01*
X119879500Y-74804595D01*
X119817188Y-74838621D01*
X119790405Y-74841500D01*
X118481866Y-74841500D01*
X118419684Y-74848255D01*
X118283295Y-74899385D01*
X118166739Y-74986739D01*
X118079385Y-75103295D01*
X118028255Y-75239684D01*
X118021500Y-75301866D01*
X118021500Y-77098134D01*
X115658500Y-77098134D01*
X115658500Y-75301866D01*
X115651745Y-75239684D01*
X115600615Y-75103295D01*
X115513261Y-74986739D01*
X115396705Y-74899385D01*
X115388296Y-74896233D01*
X115388295Y-74896232D01*
X115345324Y-74880123D01*
X115288559Y-74837482D01*
X115263859Y-74770920D01*
X115279066Y-74701572D01*
X115300458Y-74673046D01*
X115962247Y-74011257D01*
X115970537Y-74003713D01*
X115977018Y-73999600D01*
X116023659Y-73949932D01*
X116026413Y-73947091D01*
X116046134Y-73927370D01*
X116048612Y-73924175D01*
X116056318Y-73915153D01*
X116081158Y-73888701D01*
X116086586Y-73882921D01*
X116096346Y-73865168D01*
X116107199Y-73848645D01*
X116114753Y-73838906D01*
X116119613Y-73832641D01*
X116137176Y-73792057D01*
X116142383Y-73781427D01*
X116163695Y-73742660D01*
X116165666Y-73734983D01*
X116165668Y-73734978D01*
X116168732Y-73723042D01*
X116175138Y-73704330D01*
X116180033Y-73693019D01*
X116183181Y-73685745D01*
X116184421Y-73677917D01*
X116184423Y-73677910D01*
X116190099Y-73642076D01*
X116192505Y-73630456D01*
X116201528Y-73595311D01*
X116201528Y-73595310D01*
X116203500Y-73587630D01*
X116203500Y-73567376D01*
X116205051Y-73547665D01*
X116206980Y-73535486D01*
X116208220Y-73527657D01*
X116204059Y-73483638D01*
X116203500Y-73471781D01*
X116203500Y-72604500D01*
X116223502Y-72536379D01*
X116277158Y-72489886D01*
X116329500Y-72478500D01*
X117738134Y-72478500D01*
X117800316Y-72471745D01*
X117936705Y-72420615D01*
X118053261Y-72333261D01*
X118140615Y-72216705D01*
X118191745Y-72080316D01*
X118198500Y-72018134D01*
X118198500Y-70709594D01*
X118218502Y-70641473D01*
X118235405Y-70620499D01*
X118502247Y-70353657D01*
X118510537Y-70346113D01*
X118517018Y-70342000D01*
X118533452Y-70324500D01*
X118563658Y-70292333D01*
X118566413Y-70289491D01*
X118586134Y-70269770D01*
X118588612Y-70266575D01*
X118596318Y-70257553D01*
X118621158Y-70231101D01*
X118626586Y-70225321D01*
X118636346Y-70207568D01*
X118647199Y-70191045D01*
X118654753Y-70181306D01*
X118659613Y-70175041D01*
X118677176Y-70134457D01*
X118682383Y-70123827D01*
X118703695Y-70085060D01*
X118705666Y-70077383D01*
X118705668Y-70077378D01*
X118708732Y-70065442D01*
X118715138Y-70046730D01*
X118720033Y-70035419D01*
X118723181Y-70028145D01*
X118724421Y-70020317D01*
X118724423Y-70020310D01*
X118730099Y-69984476D01*
X118732505Y-69972856D01*
X118741528Y-69937711D01*
X118741528Y-69937710D01*
X118743500Y-69930030D01*
X118743500Y-69909776D01*
X118745051Y-69890065D01*
X118746980Y-69877886D01*
X118748220Y-69870057D01*
X118744059Y-69826038D01*
X118743500Y-69814181D01*
X118743500Y-67861961D01*
X118763502Y-67793840D01*
X118817158Y-67747347D01*
X118887432Y-67737243D01*
X118904705Y-67741668D01*
X118904709Y-67741651D01*
X118927649Y-67747105D01*
X118978514Y-67752631D01*
X118985328Y-67753000D01*
X119107885Y-67753000D01*
X119123124Y-67748525D01*
X119124329Y-67747135D01*
X119126000Y-67739452D01*
X119126000Y-64830116D01*
X119121525Y-64814877D01*
X119120135Y-64813672D01*
X119112452Y-64812001D01*
X118985331Y-64812001D01*
X118978510Y-64812371D01*
X118927648Y-64817895D01*
X118912396Y-64821521D01*
X118789942Y-64867427D01*
X118719134Y-64872610D01*
X118701482Y-64867427D01*
X118700770Y-64867160D01*
X118570316Y-64818255D01*
X118508134Y-64811500D01*
X118351706Y-64811500D01*
X118283585Y-64791498D01*
X118237092Y-64737842D01*
X118226988Y-64667568D01*
X118242587Y-64622500D01*
X118306223Y-64512279D01*
X118306224Y-64512278D01*
X118309527Y-64506556D01*
X118368542Y-64324928D01*
X118371814Y-64293803D01*
X118387814Y-64141565D01*
X118388504Y-64135000D01*
X118383356Y-64086018D01*
X118369232Y-63951635D01*
X118369232Y-63951633D01*
X118368542Y-63945072D01*
X118355254Y-63904176D01*
X118353226Y-63833209D01*
X118389889Y-63772411D01*
X118453601Y-63741085D01*
X118501284Y-63741993D01*
X118643056Y-63772128D01*
X118643061Y-63772128D01*
X118649513Y-63773500D01*
X118840487Y-63773500D01*
X118846939Y-63772128D01*
X118846944Y-63772128D01*
X118937218Y-63752939D01*
X119027288Y-63733794D01*
X119033319Y-63731109D01*
X119195722Y-63658803D01*
X119195724Y-63658802D01*
X119201752Y-63656118D01*
X119356253Y-63543866D01*
X119484040Y-63401944D01*
X119573289Y-63247361D01*
X119576223Y-63242279D01*
X119576224Y-63242278D01*
X119579527Y-63236556D01*
X119638542Y-63054928D01*
X119643864Y-63004297D01*
X119657814Y-62871565D01*
X119658504Y-62865000D01*
X119653894Y-62821134D01*
X119639232Y-62681635D01*
X119639232Y-62681633D01*
X119638542Y-62675072D01*
X119579527Y-62493444D01*
X119574075Y-62484000D01*
X119493033Y-62343632D01*
X119484040Y-62328056D01*
X119475104Y-62318131D01*
X119360675Y-62191045D01*
X119360674Y-62191044D01*
X119356253Y-62186134D01*
X119244025Y-62104595D01*
X119207094Y-62077763D01*
X119207093Y-62077762D01*
X119201752Y-62073882D01*
X119195724Y-62071198D01*
X119195722Y-62071197D01*
X119033319Y-61998891D01*
X119033318Y-61998891D01*
X119027288Y-61996206D01*
X118932227Y-61976000D01*
X118846944Y-61957872D01*
X118846939Y-61957872D01*
X118840487Y-61956500D01*
X118649513Y-61956500D01*
X118643061Y-61957872D01*
X118643056Y-61957872D01*
X118557773Y-61976000D01*
X118462712Y-61996206D01*
X118456682Y-61998891D01*
X118456681Y-61998891D01*
X118294278Y-62071197D01*
X118294276Y-62071198D01*
X118288248Y-62073882D01*
X118282907Y-62077762D01*
X118282906Y-62077763D01*
X118245975Y-62104595D01*
X118133747Y-62186134D01*
X118129332Y-62191037D01*
X118124420Y-62195460D01*
X118123295Y-62194211D01*
X118069986Y-62227051D01*
X118036800Y-62231500D01*
X116913200Y-62231500D01*
X116845079Y-62211498D01*
X116825853Y-62195157D01*
X116825580Y-62195460D01*
X116820668Y-62191037D01*
X116816253Y-62186134D01*
X116704025Y-62104595D01*
X116667094Y-62077763D01*
X116667093Y-62077762D01*
X116661752Y-62073882D01*
X116655724Y-62071198D01*
X116655722Y-62071197D01*
X116493319Y-61998891D01*
X116493318Y-61998891D01*
X116487288Y-61996206D01*
X116392227Y-61976000D01*
X116306944Y-61957872D01*
X116306939Y-61957872D01*
X116300487Y-61956500D01*
X116109513Y-61956500D01*
X116103061Y-61957872D01*
X116103056Y-61957872D01*
X116017773Y-61976000D01*
X115922712Y-61996206D01*
X115916685Y-61998889D01*
X115916677Y-61998892D01*
X115845303Y-62030670D01*
X115774937Y-62040104D01*
X115710639Y-62009997D01*
X115681224Y-61965152D01*
X115678765Y-61966247D01*
X115676079Y-61960214D01*
X115674038Y-61953933D01*
X115578551Y-61788545D01*
X115555007Y-61762396D01*
X115455186Y-61651534D01*
X115455185Y-61651533D01*
X115450764Y-61646623D01*
X115310364Y-61544616D01*
X115301605Y-61538252D01*
X115301604Y-61538251D01*
X115296263Y-61534371D01*
X115290235Y-61531687D01*
X115290233Y-61531686D01*
X115127830Y-61459380D01*
X115127829Y-61459380D01*
X115121799Y-61456695D01*
X115026568Y-61436453D01*
X114941455Y-61418361D01*
X114941450Y-61418361D01*
X114934998Y-61416989D01*
X114744024Y-61416989D01*
X114737572Y-61418361D01*
X114737567Y-61418361D01*
X114685118Y-61429510D01*
X114614327Y-61424108D01*
X114557695Y-61381291D01*
X114539088Y-61345199D01*
X114501569Y-61229729D01*
X114499527Y-61223444D01*
X114404040Y-61058056D01*
X114351684Y-60999908D01*
X114280675Y-60921045D01*
X114280674Y-60921044D01*
X114276253Y-60916134D01*
X114152147Y-60825965D01*
X114127094Y-60807763D01*
X114127091Y-60807761D01*
X114121752Y-60803882D01*
X114115724Y-60801198D01*
X114115722Y-60801197D01*
X113953319Y-60728891D01*
X113953318Y-60728891D01*
X113947288Y-60726206D01*
X113853887Y-60706353D01*
X113766944Y-60687872D01*
X113766939Y-60687872D01*
X113760487Y-60686500D01*
X113569513Y-60686500D01*
X113563061Y-60687872D01*
X113563056Y-60687872D01*
X113476113Y-60706353D01*
X113382712Y-60726206D01*
X113376682Y-60728891D01*
X113376681Y-60728891D01*
X113214278Y-60801197D01*
X113214276Y-60801198D01*
X113208248Y-60803882D01*
X113188560Y-60818186D01*
X113121696Y-60842044D01*
X113052544Y-60825965D01*
X113003063Y-60775052D01*
X112988500Y-60716250D01*
X112988500Y-60561866D01*
X112981745Y-60499684D01*
X112978973Y-60492288D01*
X112978971Y-60492282D01*
X112932840Y-60369229D01*
X112927657Y-60298422D01*
X112932840Y-60280771D01*
X112978971Y-60157718D01*
X112978973Y-60157712D01*
X112981745Y-60150316D01*
X112988500Y-60088134D01*
X112988500Y-59291866D01*
X112981745Y-59229684D01*
X112978973Y-59222288D01*
X112978971Y-59222282D01*
X112932840Y-59099229D01*
X112927657Y-59028422D01*
X112932840Y-59010771D01*
X112978971Y-58887718D01*
X112978973Y-58887712D01*
X112981745Y-58880316D01*
X112988500Y-58818134D01*
X112988500Y-58021866D01*
X112981745Y-57959684D01*
X112978973Y-57952288D01*
X112978971Y-57952282D01*
X112932840Y-57829229D01*
X112927657Y-57758422D01*
X112932840Y-57740771D01*
X112978971Y-57617718D01*
X112978973Y-57617712D01*
X112981745Y-57610316D01*
X112988500Y-57548134D01*
X112988500Y-56751866D01*
X112981745Y-56689684D01*
X112932573Y-56558518D01*
X112927390Y-56487710D01*
X112932573Y-56470058D01*
X112978478Y-56347606D01*
X112982105Y-56332351D01*
X112987631Y-56281486D01*
X112988000Y-56274672D01*
X112988000Y-56152115D01*
X112983525Y-56136876D01*
X112982135Y-56135671D01*
X112974452Y-56134000D01*
X110065116Y-56134000D01*
X110049877Y-56138475D01*
X110048672Y-56139865D01*
X110047001Y-56147548D01*
X110047001Y-56274669D01*
X110047371Y-56281490D01*
X110052895Y-56332352D01*
X110058349Y-56355293D01*
X110056709Y-56355683D01*
X110061204Y-56417076D01*
X110027284Y-56479446D01*
X109965029Y-56513575D01*
X109938039Y-56516500D01*
X108164500Y-56516500D01*
X108096379Y-56496498D01*
X108049886Y-56442842D01*
X108038500Y-56390500D01*
X108038500Y-55469594D01*
X108058502Y-55401473D01*
X108075405Y-55380499D01*
X108175499Y-55280405D01*
X108237811Y-55246379D01*
X108264594Y-55243500D01*
X109938039Y-55243500D01*
X110006160Y-55263502D01*
X110052653Y-55317158D01*
X110062757Y-55387432D01*
X110058332Y-55404705D01*
X110058349Y-55404709D01*
X110052895Y-55427649D01*
X110047369Y-55478514D01*
X110047000Y-55485328D01*
X110047000Y-55607885D01*
X110051475Y-55623124D01*
X110052865Y-55624329D01*
X110060548Y-55626000D01*
X112969884Y-55626000D01*
X112985123Y-55621525D01*
X112986328Y-55620135D01*
X112987999Y-55612452D01*
X112987999Y-55485331D01*
X112987629Y-55478510D01*
X112982105Y-55427648D01*
X112978479Y-55412396D01*
X112932573Y-55289942D01*
X112927390Y-55219134D01*
X112932573Y-55201482D01*
X112956967Y-55136412D01*
X112981745Y-55070316D01*
X112988500Y-55008134D01*
X112988500Y-54211866D01*
X112981745Y-54149684D01*
X112978973Y-54142288D01*
X112978971Y-54142282D01*
X112932840Y-54019229D01*
X112927657Y-53948422D01*
X112932840Y-53930771D01*
X112978971Y-53807718D01*
X112978973Y-53807712D01*
X112981745Y-53800316D01*
X112988500Y-53738134D01*
X112988500Y-52941866D01*
X112981745Y-52879684D01*
X112978973Y-52872288D01*
X112978971Y-52872282D01*
X112932840Y-52749229D01*
X112927657Y-52678422D01*
X112932840Y-52660771D01*
X112978971Y-52537718D01*
X112978973Y-52537712D01*
X112981745Y-52530316D01*
X112988500Y-52468134D01*
X112988500Y-52154500D01*
X113008502Y-52086379D01*
X113062158Y-52039886D01*
X113114500Y-52028500D01*
X113428134Y-52028500D01*
X113490316Y-52021745D01*
X113497712Y-52018973D01*
X113497718Y-52018971D01*
X113620771Y-51972840D01*
X113691578Y-51967657D01*
X113709229Y-51972840D01*
X113832282Y-52018971D01*
X113832288Y-52018973D01*
X113839684Y-52021745D01*
X113901866Y-52028500D01*
X114698134Y-52028500D01*
X114760316Y-52021745D01*
X114767712Y-52018973D01*
X114767718Y-52018971D01*
X114890771Y-51972840D01*
X114961578Y-51967657D01*
X114979229Y-51972840D01*
X115102282Y-52018971D01*
X115102288Y-52018973D01*
X115109684Y-52021745D01*
X115171866Y-52028500D01*
X115968134Y-52028500D01*
X116030316Y-52021745D01*
X116037712Y-52018973D01*
X116037718Y-52018971D01*
X116160771Y-51972840D01*
X116231578Y-51967657D01*
X116249229Y-51972840D01*
X116372282Y-52018971D01*
X116372288Y-52018973D01*
X116379684Y-52021745D01*
X116441866Y-52028500D01*
X117238134Y-52028500D01*
X117300316Y-52021745D01*
X117307712Y-52018973D01*
X117307718Y-52018971D01*
X117430771Y-51972840D01*
X117501578Y-51967657D01*
X117519229Y-51972840D01*
X117642282Y-52018971D01*
X117642288Y-52018973D01*
X117649684Y-52021745D01*
X117711866Y-52028500D01*
X118508134Y-52028500D01*
X118570316Y-52021745D01*
X118577712Y-52018973D01*
X118577718Y-52018971D01*
X118700771Y-51972840D01*
X118771578Y-51967657D01*
X118789229Y-51972840D01*
X118912282Y-52018971D01*
X118912288Y-52018973D01*
X118919684Y-52021745D01*
X118981866Y-52028500D01*
X119778134Y-52028500D01*
X119840316Y-52021745D01*
X119847712Y-52018973D01*
X119847718Y-52018971D01*
X119970771Y-51972840D01*
X120041578Y-51967657D01*
X120059229Y-51972840D01*
X120182282Y-52018971D01*
X120182288Y-52018973D01*
X120189684Y-52021745D01*
X120251866Y-52028500D01*
X121048134Y-52028500D01*
X121110316Y-52021745D01*
X121117712Y-52018973D01*
X121117718Y-52018971D01*
X121240771Y-51972840D01*
X121311578Y-51967657D01*
X121329229Y-51972840D01*
X121452282Y-52018971D01*
X121452288Y-52018973D01*
X121459684Y-52021745D01*
X121521866Y-52028500D01*
X122318134Y-52028500D01*
X122380316Y-52021745D01*
X122387712Y-52018973D01*
X122387718Y-52018971D01*
X122510771Y-51972840D01*
X122581578Y-51967657D01*
X122599229Y-51972840D01*
X122722282Y-52018971D01*
X122722288Y-52018973D01*
X122729684Y-52021745D01*
X122791866Y-52028500D01*
X123583294Y-52028500D01*
X123651415Y-52048502D01*
X123697908Y-52102158D01*
X123708012Y-52172432D01*
X123692413Y-52217500D01*
X123647302Y-52295635D01*
X123625473Y-52333444D01*
X123566458Y-52515072D01*
X123565768Y-52521633D01*
X123565768Y-52521635D01*
X123559581Y-52580500D01*
X123546496Y-52705000D01*
X123566458Y-52894928D01*
X123625473Y-53076556D01*
X123720960Y-53241944D01*
X123848747Y-53383866D01*
X124003248Y-53496118D01*
X124009276Y-53498802D01*
X124009278Y-53498803D01*
X124171681Y-53571109D01*
X124177712Y-53573794D01*
X124249660Y-53589087D01*
X124358056Y-53612128D01*
X124358061Y-53612128D01*
X124364513Y-53613500D01*
X124555487Y-53613500D01*
X124561939Y-53612128D01*
X124561944Y-53612128D01*
X124670340Y-53589087D01*
X124742288Y-53573794D01*
X124748319Y-53571109D01*
X124910722Y-53498803D01*
X124910724Y-53498802D01*
X124916752Y-53496118D01*
X125071253Y-53383866D01*
X125199040Y-53241944D01*
X125294527Y-53076556D01*
X125353542Y-52894928D01*
X125373504Y-52705000D01*
X125360419Y-52580500D01*
X125354232Y-52521635D01*
X125354232Y-52521633D01*
X125353542Y-52515072D01*
X125294527Y-52333444D01*
X125272698Y-52295635D01*
X125227587Y-52217500D01*
X125210849Y-52148504D01*
X125234070Y-52081413D01*
X125289877Y-52037526D01*
X125336706Y-52028500D01*
X125645500Y-52028500D01*
X125713621Y-52048502D01*
X125760114Y-52102158D01*
X125771500Y-52154500D01*
X125771500Y-52468134D01*
X125778255Y-52530316D01*
X125781027Y-52537712D01*
X125781029Y-52537718D01*
X125827160Y-52660771D01*
X125832343Y-52731578D01*
X125827160Y-52749229D01*
X125781029Y-52872282D01*
X125781027Y-52872288D01*
X125778255Y-52879684D01*
X125771500Y-52941866D01*
X125771500Y-53738134D01*
X125778255Y-53800316D01*
X125781027Y-53807712D01*
X125781029Y-53807718D01*
X125827160Y-53930771D01*
X125832343Y-54001578D01*
X125827160Y-54019229D01*
X125781029Y-54142282D01*
X125781027Y-54142288D01*
X125778255Y-54149684D01*
X125771500Y-54211866D01*
X125771500Y-55008134D01*
X125778255Y-55070316D01*
X125781027Y-55077712D01*
X125781029Y-55077718D01*
X125827160Y-55200771D01*
X125832343Y-55271578D01*
X125827160Y-55289229D01*
X125781029Y-55412282D01*
X125781027Y-55412288D01*
X125778255Y-55419684D01*
X125771500Y-55481866D01*
X125771500Y-56278134D01*
X125778255Y-56340316D01*
X125781027Y-56347712D01*
X125781029Y-56347718D01*
X125827160Y-56470771D01*
X125832343Y-56541578D01*
X125827160Y-56559229D01*
X125781029Y-56682282D01*
X125781027Y-56682288D01*
X125778255Y-56689684D01*
X125771500Y-56751866D01*
X125771500Y-57548134D01*
X125778255Y-57610316D01*
X125781027Y-57617712D01*
X125781029Y-57617718D01*
X125827160Y-57740771D01*
X125832343Y-57811578D01*
X125827160Y-57829229D01*
X125781029Y-57952282D01*
X125781027Y-57952288D01*
X125778255Y-57959684D01*
X125771500Y-58021866D01*
X125771500Y-58818134D01*
X125778255Y-58880316D01*
X125781027Y-58887712D01*
X125781029Y-58887718D01*
X125827160Y-59010771D01*
X125832343Y-59081578D01*
X125827160Y-59099229D01*
X125781029Y-59222282D01*
X125781027Y-59222288D01*
X125778255Y-59229684D01*
X125771500Y-59291866D01*
X125771500Y-60081250D01*
X125751498Y-60149371D01*
X125697842Y-60195864D01*
X125627568Y-60205968D01*
X125571440Y-60183186D01*
X125551752Y-60168882D01*
X125545724Y-60166198D01*
X125545722Y-60166197D01*
X125383319Y-60093891D01*
X125383318Y-60093891D01*
X125377288Y-60091206D01*
X125255331Y-60065283D01*
X125196944Y-60052872D01*
X125196939Y-60052872D01*
X125190487Y-60051500D01*
X124999513Y-60051500D01*
X124993061Y-60052872D01*
X124993056Y-60052872D01*
X124934669Y-60065283D01*
X124812712Y-60091206D01*
X124806682Y-60093891D01*
X124806681Y-60093891D01*
X124644278Y-60166197D01*
X124644276Y-60166198D01*
X124638248Y-60168882D01*
X124632909Y-60172761D01*
X124632906Y-60172763D01*
X124601111Y-60195864D01*
X124483747Y-60281134D01*
X124479326Y-60286044D01*
X124479325Y-60286045D01*
X124445601Y-60323500D01*
X124355960Y-60423056D01*
X124260473Y-60588444D01*
X124201458Y-60770072D01*
X124200768Y-60776633D01*
X124200768Y-60776635D01*
X124187608Y-60901851D01*
X124181496Y-60960000D01*
X124182186Y-60966565D01*
X124198814Y-61124767D01*
X124201458Y-61149928D01*
X124260473Y-61331556D01*
X124263776Y-61337278D01*
X124263777Y-61337279D01*
X124275818Y-61358134D01*
X124355960Y-61496944D01*
X124360378Y-61501851D01*
X124360379Y-61501852D01*
X124455472Y-61607463D01*
X124483747Y-61638866D01*
X124533681Y-61675145D01*
X124616185Y-61735088D01*
X124638248Y-61751118D01*
X124644276Y-61753802D01*
X124644278Y-61753803D01*
X124789591Y-61818500D01*
X124812712Y-61828794D01*
X124906113Y-61848647D01*
X124993056Y-61867128D01*
X124993061Y-61867128D01*
X124999513Y-61868500D01*
X125190487Y-61868500D01*
X125196939Y-61867128D01*
X125196944Y-61867128D01*
X125283887Y-61848647D01*
X125377288Y-61828794D01*
X125400409Y-61818500D01*
X125545722Y-61753803D01*
X125545724Y-61753802D01*
X125551752Y-61751118D01*
X125571938Y-61736452D01*
X125638806Y-61712593D01*
X125707957Y-61728672D01*
X125757438Y-61779586D01*
X125772000Y-61838387D01*
X125772000Y-61957885D01*
X125776475Y-61973124D01*
X125777865Y-61974329D01*
X125785548Y-61976000D01*
X128694884Y-61976000D01*
X128710123Y-61971525D01*
X128711328Y-61970135D01*
X128712999Y-61962452D01*
X128712999Y-61835331D01*
X128712629Y-61828510D01*
X128707105Y-61777648D01*
X128703479Y-61762396D01*
X128657573Y-61639942D01*
X128652390Y-61569134D01*
X128657573Y-61551482D01*
X128660147Y-61544616D01*
X128706745Y-61420316D01*
X128713500Y-61358134D01*
X128713500Y-60561866D01*
X128706745Y-60499684D01*
X128703970Y-60492282D01*
X128702144Y-60484600D01*
X128703816Y-60484203D01*
X128699330Y-60422921D01*
X128733252Y-60360553D01*
X128795507Y-60326424D01*
X128822495Y-60323500D01*
X128869805Y-60323500D01*
X128937926Y-60343502D01*
X128958901Y-60360405D01*
X129504596Y-60906101D01*
X129538621Y-60968413D01*
X129541500Y-60995196D01*
X129541500Y-64208633D01*
X129540973Y-64219816D01*
X129539298Y-64227309D01*
X129539547Y-64235235D01*
X129539547Y-64235236D01*
X129541438Y-64295386D01*
X129541500Y-64299345D01*
X129541500Y-64327256D01*
X129541997Y-64331190D01*
X129541997Y-64331191D01*
X129542005Y-64331256D01*
X129542938Y-64343093D01*
X129544327Y-64387289D01*
X129547478Y-64398134D01*
X129549978Y-64406739D01*
X129553987Y-64426100D01*
X129556526Y-64446197D01*
X129559445Y-64453568D01*
X129559445Y-64453570D01*
X129572804Y-64487312D01*
X129576649Y-64498542D01*
X129588982Y-64540993D01*
X129593015Y-64547812D01*
X129593017Y-64547817D01*
X129599293Y-64558428D01*
X129607988Y-64576176D01*
X129615448Y-64595017D01*
X129620110Y-64601433D01*
X129620110Y-64601434D01*
X129641436Y-64630787D01*
X129647952Y-64640707D01*
X129663838Y-64667568D01*
X129670458Y-64678762D01*
X129684779Y-64693083D01*
X129697619Y-64708116D01*
X129709528Y-64724507D01*
X129730428Y-64741797D01*
X129743605Y-64752698D01*
X129752384Y-64760688D01*
X130684595Y-65692899D01*
X130718621Y-65755211D01*
X130721500Y-65781994D01*
X130721500Y-66938134D01*
X130728255Y-67000316D01*
X130779385Y-67136705D01*
X130866739Y-67253261D01*
X130983295Y-67340615D01*
X131119684Y-67391745D01*
X131181866Y-67398500D01*
X132978134Y-67398500D01*
X133040316Y-67391745D01*
X133176705Y-67340615D01*
X133293261Y-67253261D01*
X133380615Y-67136705D01*
X133431745Y-67000316D01*
X133438500Y-66938134D01*
X133438500Y-65141866D01*
X133431745Y-65079684D01*
X133380615Y-64943295D01*
X133293261Y-64826739D01*
X133176705Y-64739385D01*
X133040316Y-64688255D01*
X132978134Y-64681500D01*
X131517195Y-64681500D01*
X131449074Y-64661498D01*
X131428100Y-64644595D01*
X130845405Y-64061900D01*
X130811379Y-63999588D01*
X130808500Y-63972805D01*
X130808500Y-63682594D01*
X130828502Y-63614473D01*
X130882158Y-63567980D01*
X130952432Y-63557876D01*
X131017012Y-63587370D01*
X131023595Y-63593499D01*
X131322343Y-63892247D01*
X131329887Y-63900537D01*
X131334000Y-63907018D01*
X131339777Y-63912443D01*
X131383667Y-63953658D01*
X131386509Y-63956413D01*
X131406230Y-63976134D01*
X131409425Y-63978612D01*
X131418447Y-63986318D01*
X131450679Y-64016586D01*
X131457628Y-64020406D01*
X131468432Y-64026346D01*
X131484956Y-64037199D01*
X131500959Y-64049613D01*
X131541543Y-64067176D01*
X131552173Y-64072383D01*
X131590940Y-64093695D01*
X131598617Y-64095666D01*
X131598622Y-64095668D01*
X131610558Y-64098732D01*
X131629266Y-64105137D01*
X131647855Y-64113181D01*
X131655683Y-64114421D01*
X131655690Y-64114423D01*
X131691524Y-64120099D01*
X131703144Y-64122505D01*
X131734959Y-64130673D01*
X131745970Y-64133500D01*
X131766224Y-64133500D01*
X131785934Y-64135051D01*
X131805943Y-64138220D01*
X131813835Y-64137474D01*
X131849961Y-64134059D01*
X131861819Y-64133500D01*
X135675500Y-64133500D01*
X135743621Y-64153502D01*
X135790114Y-64207158D01*
X135801500Y-64259500D01*
X135801500Y-64398134D01*
X135808255Y-64460316D01*
X135859385Y-64596705D01*
X135946739Y-64713261D01*
X136063295Y-64800615D01*
X136199684Y-64851745D01*
X136261866Y-64858500D01*
X138058134Y-64858500D01*
X138120316Y-64851745D01*
X138256705Y-64800615D01*
X138373261Y-64713261D01*
X138460615Y-64596705D01*
X138511745Y-64460316D01*
X138518500Y-64398134D01*
X138518500Y-62601866D01*
X138511745Y-62539684D01*
X138460615Y-62403295D01*
X138373261Y-62286739D01*
X138256705Y-62199385D01*
X138120316Y-62148255D01*
X138058134Y-62141500D01*
X136261866Y-62141500D01*
X136199684Y-62148255D01*
X136063295Y-62199385D01*
X135946739Y-62286739D01*
X135859385Y-62403295D01*
X135808255Y-62539684D01*
X135801500Y-62601866D01*
X135801500Y-62740500D01*
X135781498Y-62808621D01*
X135727842Y-62855114D01*
X135675500Y-62866500D01*
X132140595Y-62866500D01*
X132072474Y-62846498D01*
X132051499Y-62829595D01*
X131755500Y-62533595D01*
X131721475Y-62471283D01*
X131726540Y-62400467D01*
X131769087Y-62343632D01*
X131835607Y-62318821D01*
X131844596Y-62318500D01*
X132978134Y-62318500D01*
X133040316Y-62311745D01*
X133176705Y-62260615D01*
X133293261Y-62173261D01*
X133380615Y-62056705D01*
X133431745Y-61920316D01*
X133438500Y-61858134D01*
X133438500Y-60061866D01*
X133431745Y-59999684D01*
X133380615Y-59863295D01*
X133293261Y-59746739D01*
X133176705Y-59659385D01*
X133040316Y-59608255D01*
X132978134Y-59601500D01*
X132801879Y-59601500D01*
X132733758Y-59581498D01*
X132684731Y-59521893D01*
X132684641Y-59521665D01*
X132682199Y-59515497D01*
X132678359Y-59504285D01*
X132666018Y-59461806D01*
X132661985Y-59454987D01*
X132661983Y-59454982D01*
X132655707Y-59444371D01*
X132647010Y-59426621D01*
X132639552Y-59407783D01*
X132613571Y-59372023D01*
X132607053Y-59362101D01*
X132588578Y-59330860D01*
X132588574Y-59330855D01*
X132584542Y-59324037D01*
X132570218Y-59309713D01*
X132557376Y-59294678D01*
X132552865Y-59288469D01*
X132545472Y-59278293D01*
X132539363Y-59273239D01*
X132533937Y-59267461D01*
X132535962Y-59265559D01*
X132503672Y-59217762D01*
X132502043Y-59146784D01*
X132539047Y-59086193D01*
X132602934Y-59055227D01*
X132623722Y-59053500D01*
X135675500Y-59053500D01*
X135743621Y-59073502D01*
X135790114Y-59127158D01*
X135801500Y-59179500D01*
X135801500Y-59318134D01*
X135808255Y-59380316D01*
X135859385Y-59516705D01*
X135946739Y-59633261D01*
X136063295Y-59720615D01*
X136199684Y-59771745D01*
X136261866Y-59778500D01*
X138058134Y-59778500D01*
X138120316Y-59771745D01*
X138256705Y-59720615D01*
X138373261Y-59633261D01*
X138460615Y-59516705D01*
X138511745Y-59380316D01*
X138518500Y-59318134D01*
X138518500Y-57521866D01*
X138511745Y-57459684D01*
X138460615Y-57323295D01*
X138373261Y-57206739D01*
X138256705Y-57119385D01*
X138120316Y-57068255D01*
X138058134Y-57061500D01*
X136261866Y-57061500D01*
X136199684Y-57068255D01*
X136063295Y-57119385D01*
X135946739Y-57206739D01*
X135859385Y-57323295D01*
X135808255Y-57459684D01*
X135801500Y-57521866D01*
X135801500Y-57660500D01*
X135781498Y-57728621D01*
X135727842Y-57775114D01*
X135675500Y-57786500D01*
X132419995Y-57786500D01*
X132351874Y-57766498D01*
X132330900Y-57749595D01*
X132034900Y-57453595D01*
X132000874Y-57391283D01*
X132005939Y-57320468D01*
X132048486Y-57263632D01*
X132115006Y-57238821D01*
X132123995Y-57238500D01*
X132978134Y-57238500D01*
X133040316Y-57231745D01*
X133176705Y-57180615D01*
X133293261Y-57093261D01*
X133380615Y-56976705D01*
X133431745Y-56840316D01*
X133438500Y-56778134D01*
X133438500Y-54981866D01*
X133431745Y-54919684D01*
X133380615Y-54783295D01*
X133293261Y-54666739D01*
X133176705Y-54579385D01*
X133040316Y-54528255D01*
X132978134Y-54521500D01*
X131669595Y-54521500D01*
X131601474Y-54501498D01*
X131580500Y-54484595D01*
X131313652Y-54217747D01*
X131306112Y-54209461D01*
X131302000Y-54202982D01*
X131289614Y-54191351D01*
X131253648Y-54130138D01*
X131256485Y-54059198D01*
X131297225Y-54001054D01*
X131362933Y-53974165D01*
X131375866Y-53973500D01*
X135675500Y-53973500D01*
X135743621Y-53993502D01*
X135790114Y-54047158D01*
X135801500Y-54099500D01*
X135801500Y-54238134D01*
X135808255Y-54300316D01*
X135859385Y-54436705D01*
X135946739Y-54553261D01*
X136063295Y-54640615D01*
X136199684Y-54691745D01*
X136261866Y-54698500D01*
X138058134Y-54698500D01*
X138120316Y-54691745D01*
X138256705Y-54640615D01*
X138373261Y-54553261D01*
X138460615Y-54436705D01*
X138511745Y-54300316D01*
X138518500Y-54238134D01*
X138518500Y-52441866D01*
X138511745Y-52379684D01*
X138460615Y-52243295D01*
X138373261Y-52126739D01*
X138256705Y-52039385D01*
X138120316Y-51988255D01*
X138058134Y-51981500D01*
X136261866Y-51981500D01*
X136199684Y-51988255D01*
X136063295Y-52039385D01*
X135946739Y-52126739D01*
X135859385Y-52243295D01*
X135808255Y-52379684D01*
X135801500Y-52441866D01*
X135801500Y-52580500D01*
X135781498Y-52648621D01*
X135727842Y-52695114D01*
X135675500Y-52706500D01*
X130738595Y-52706500D01*
X130670474Y-52686498D01*
X130623981Y-52632842D01*
X130613877Y-52562568D01*
X130643371Y-52497988D01*
X130649500Y-52491404D01*
X131580501Y-51560404D01*
X131642813Y-51526379D01*
X131669596Y-51523500D01*
X132978134Y-51523500D01*
X133040316Y-51516745D01*
X133176705Y-51465615D01*
X133293261Y-51378261D01*
X133380615Y-51261705D01*
X133431745Y-51125316D01*
X133438500Y-51063134D01*
X133438500Y-49266866D01*
X133431745Y-49204684D01*
X133380615Y-49068295D01*
X133293261Y-48951739D01*
X133176705Y-48864385D01*
X133040316Y-48813255D01*
X132978134Y-48806500D01*
X131181866Y-48806500D01*
X131119684Y-48813255D01*
X130983295Y-48864385D01*
X130866739Y-48951739D01*
X130779385Y-49068295D01*
X130728255Y-49204684D01*
X130721500Y-49266866D01*
X130721500Y-50575405D01*
X130701498Y-50643526D01*
X130684595Y-50664501D01*
X129949499Y-51399596D01*
X129887187Y-51433621D01*
X129860404Y-51436500D01*
X128691066Y-51436500D01*
X128622945Y-51416498D01*
X128590242Y-51386068D01*
X128568261Y-51356739D01*
X128451705Y-51269385D01*
X128315316Y-51218255D01*
X128253134Y-51211500D01*
X127791408Y-51211500D01*
X127723287Y-51191498D01*
X127676794Y-51137842D01*
X127666690Y-51067568D01*
X127694322Y-51005186D01*
X127707797Y-50988897D01*
X127715788Y-50980116D01*
X131580500Y-47115405D01*
X131642812Y-47081379D01*
X131669595Y-47078500D01*
X132978134Y-47078500D01*
X133040316Y-47071745D01*
X133176705Y-47020615D01*
X133293261Y-46933261D01*
X133380615Y-46816705D01*
X133431745Y-46680316D01*
X133438500Y-46618134D01*
X133438500Y-44821866D01*
X133431745Y-44759684D01*
X133380615Y-44623295D01*
X133293261Y-44506739D01*
X133176705Y-44419385D01*
X133040316Y-44368255D01*
X132978134Y-44361500D01*
X131181866Y-44361500D01*
X131119684Y-44368255D01*
X130983295Y-44419385D01*
X130866739Y-44506739D01*
X130779385Y-44623295D01*
X130728255Y-44759684D01*
X130721500Y-44821866D01*
X130721500Y-46130406D01*
X130701498Y-46198527D01*
X130684595Y-46219501D01*
X130388595Y-46515501D01*
X130326283Y-46549527D01*
X130255468Y-46544462D01*
X130198632Y-46501915D01*
X130173821Y-46435395D01*
X130173500Y-46426406D01*
X130173500Y-42124500D01*
X130193502Y-42056379D01*
X130247158Y-42009886D01*
X130299500Y-41998500D01*
X130438134Y-41998500D01*
X130500316Y-41991745D01*
X130636705Y-41940615D01*
X130753261Y-41853261D01*
X130840615Y-41736705D01*
X130891745Y-41600316D01*
X130898500Y-41538134D01*
X130898500Y-40772703D01*
X134415743Y-40772703D01*
X134453268Y-41057734D01*
X134454401Y-41061874D01*
X134454401Y-41061876D01*
X134469899Y-41118526D01*
X134529129Y-41335036D01*
X134530813Y-41338984D01*
X134627911Y-41566625D01*
X134641923Y-41599476D01*
X134789561Y-41846161D01*
X134969313Y-42070528D01*
X135177851Y-42268423D01*
X135411317Y-42436186D01*
X135415112Y-42438195D01*
X135415113Y-42438196D01*
X135436869Y-42449715D01*
X135665392Y-42570712D01*
X135935373Y-42669511D01*
X136216264Y-42730755D01*
X136244841Y-42733004D01*
X136439282Y-42748307D01*
X136439291Y-42748307D01*
X136441739Y-42748500D01*
X136597271Y-42748500D01*
X136599407Y-42748354D01*
X136599418Y-42748354D01*
X136807548Y-42734165D01*
X136807554Y-42734164D01*
X136811825Y-42733873D01*
X136816020Y-42733004D01*
X136816022Y-42733004D01*
X136952584Y-42704723D01*
X137093342Y-42675574D01*
X137364343Y-42579607D01*
X137619812Y-42447750D01*
X137623313Y-42445289D01*
X137623317Y-42445287D01*
X137737417Y-42365096D01*
X137855023Y-42282441D01*
X138013151Y-42135499D01*
X138062479Y-42089661D01*
X138062481Y-42089658D01*
X138065622Y-42086740D01*
X138247713Y-41864268D01*
X138397927Y-41619142D01*
X138444507Y-41513031D01*
X138511757Y-41359830D01*
X138513483Y-41355898D01*
X138592244Y-41079406D01*
X138632751Y-40794784D01*
X138632845Y-40776951D01*
X138634235Y-40511583D01*
X138634235Y-40511576D01*
X138634257Y-40507297D01*
X138596732Y-40222266D01*
X138520871Y-39944964D01*
X138510295Y-39920170D01*
X138409763Y-39684476D01*
X138409761Y-39684472D01*
X138408077Y-39680524D01*
X138260439Y-39433839D01*
X138080687Y-39209472D01*
X137872149Y-39011577D01*
X137638683Y-38843814D01*
X137616843Y-38832250D01*
X137593654Y-38819972D01*
X137384608Y-38709288D01*
X137114627Y-38610489D01*
X136833736Y-38549245D01*
X136802685Y-38546801D01*
X136610718Y-38531693D01*
X136610709Y-38531693D01*
X136608261Y-38531500D01*
X136452729Y-38531500D01*
X136450593Y-38531646D01*
X136450582Y-38531646D01*
X136242452Y-38545835D01*
X136242446Y-38545836D01*
X136238175Y-38546127D01*
X136233980Y-38546996D01*
X136233978Y-38546996D01*
X136097417Y-38575276D01*
X135956658Y-38604426D01*
X135685657Y-38700393D01*
X135430188Y-38832250D01*
X135426687Y-38834711D01*
X135426683Y-38834713D01*
X135416594Y-38841804D01*
X135194977Y-38997559D01*
X134984378Y-39193260D01*
X134802287Y-39415732D01*
X134652073Y-39660858D01*
X134536517Y-39924102D01*
X134457756Y-40200594D01*
X134417249Y-40485216D01*
X134417227Y-40489505D01*
X134417226Y-40489512D01*
X134416184Y-40688503D01*
X134415743Y-40772703D01*
X130898500Y-40772703D01*
X130898500Y-39741866D01*
X130891745Y-39679684D01*
X130840615Y-39543295D01*
X130753261Y-39426739D01*
X130636705Y-39339385D01*
X130500316Y-39288255D01*
X130438134Y-39281500D01*
X128641866Y-39281500D01*
X128579684Y-39288255D01*
X128443295Y-39339385D01*
X128326739Y-39426739D01*
X128239385Y-39543295D01*
X128188255Y-39679684D01*
X128181500Y-39741866D01*
X128181500Y-41538134D01*
X128188255Y-41600316D01*
X128239385Y-41736705D01*
X128326739Y-41853261D01*
X128443295Y-41940615D01*
X128579684Y-41991745D01*
X128641866Y-41998500D01*
X128780500Y-41998500D01*
X128848621Y-42018502D01*
X128895114Y-42072158D01*
X128906500Y-42124500D01*
X128906500Y-46689784D01*
X128886498Y-46757905D01*
X128869595Y-46778879D01*
X127048389Y-48600084D01*
X126986077Y-48634110D01*
X126959294Y-48636989D01*
X126783874Y-48636989D01*
X126715753Y-48616987D01*
X126669260Y-48563331D01*
X126659156Y-48493057D01*
X126688650Y-48428477D01*
X126694779Y-48421894D01*
X127392247Y-47724426D01*
X127400537Y-47716882D01*
X127407018Y-47712769D01*
X127418028Y-47701045D01*
X127453658Y-47663102D01*
X127456413Y-47660260D01*
X127476135Y-47640538D01*
X127478612Y-47637345D01*
X127486317Y-47628324D01*
X127511159Y-47601869D01*
X127516586Y-47596090D01*
X127520407Y-47589140D01*
X127526346Y-47578337D01*
X127537202Y-47561810D01*
X127544757Y-47552071D01*
X127544758Y-47552069D01*
X127549614Y-47545809D01*
X127567174Y-47505229D01*
X127572391Y-47494581D01*
X127589875Y-47462778D01*
X127589876Y-47462776D01*
X127593695Y-47455829D01*
X127598733Y-47436206D01*
X127605137Y-47417503D01*
X127610033Y-47406189D01*
X127610033Y-47406188D01*
X127613181Y-47398914D01*
X127614420Y-47391091D01*
X127614423Y-47391081D01*
X127620099Y-47355245D01*
X127622505Y-47343625D01*
X127631528Y-47308480D01*
X127631528Y-47308479D01*
X127633500Y-47300799D01*
X127633500Y-47280545D01*
X127635051Y-47260834D01*
X127636980Y-47248655D01*
X127638220Y-47240826D01*
X127635907Y-47216358D01*
X127649410Y-47146657D01*
X127698451Y-47095321D01*
X127761348Y-47078500D01*
X127898134Y-47078500D01*
X127960316Y-47071745D01*
X128096705Y-47020615D01*
X128213261Y-46933261D01*
X128300615Y-46816705D01*
X128351745Y-46680316D01*
X128358500Y-46618134D01*
X128358500Y-44821866D01*
X128351745Y-44759684D01*
X128300615Y-44623295D01*
X128213261Y-44506739D01*
X128096705Y-44419385D01*
X127960316Y-44368255D01*
X127898134Y-44361500D01*
X126101866Y-44361500D01*
X126039684Y-44368255D01*
X125903295Y-44419385D01*
X125786739Y-44506739D01*
X125699385Y-44623295D01*
X125648255Y-44759684D01*
X125641500Y-44821866D01*
X125641500Y-46618134D01*
X125648255Y-46680316D01*
X125699385Y-46816705D01*
X125786739Y-46933261D01*
X125903295Y-47020615D01*
X125911703Y-47023767D01*
X126011677Y-47061246D01*
X126068441Y-47103888D01*
X126093141Y-47170449D01*
X126077933Y-47239798D01*
X126056546Y-47268319D01*
X125293510Y-48031354D01*
X125231200Y-48065378D01*
X125160384Y-48060313D01*
X125103549Y-48017766D01*
X125078738Y-47951246D01*
X125079975Y-47922504D01*
X125080105Y-47921685D01*
X125082505Y-47910105D01*
X125091528Y-47874960D01*
X125091528Y-47874959D01*
X125093500Y-47867279D01*
X125093500Y-47847025D01*
X125095051Y-47827314D01*
X125096980Y-47815135D01*
X125098220Y-47807306D01*
X125094059Y-47763287D01*
X125093500Y-47751430D01*
X125093500Y-42124500D01*
X125113502Y-42056379D01*
X125167158Y-42009886D01*
X125219500Y-41998500D01*
X125358134Y-41998500D01*
X125420316Y-41991745D01*
X125556705Y-41940615D01*
X125673261Y-41853261D01*
X125760615Y-41736705D01*
X125811745Y-41600316D01*
X125818500Y-41538134D01*
X125818500Y-39741866D01*
X125811745Y-39679684D01*
X125760615Y-39543295D01*
X125673261Y-39426739D01*
X125556705Y-39339385D01*
X125420316Y-39288255D01*
X125358134Y-39281500D01*
X123561866Y-39281500D01*
X123499684Y-39288255D01*
X123363295Y-39339385D01*
X123246739Y-39426739D01*
X123159385Y-39543295D01*
X123108255Y-39679684D01*
X123101500Y-39741866D01*
X123101500Y-41538134D01*
X123108255Y-41600316D01*
X123159385Y-41736705D01*
X123246739Y-41853261D01*
X123363295Y-41940615D01*
X123499684Y-41991745D01*
X123561866Y-41998500D01*
X123700500Y-41998500D01*
X123768621Y-42018502D01*
X123815114Y-42072158D01*
X123826500Y-42124500D01*
X123826500Y-47472654D01*
X123806498Y-47540775D01*
X123789595Y-47561750D01*
X123650299Y-47701045D01*
X123587987Y-47735070D01*
X123561204Y-47737949D01*
X122654988Y-47737949D01*
X122586867Y-47717947D01*
X122540374Y-47664291D01*
X122530270Y-47594017D01*
X122532059Y-47585737D01*
X122533181Y-47583145D01*
X122539095Y-47545809D01*
X122540097Y-47539481D01*
X122542504Y-47527860D01*
X122551528Y-47492711D01*
X122551528Y-47492710D01*
X122553500Y-47485030D01*
X122553500Y-47464769D01*
X122555051Y-47445058D01*
X122556979Y-47432885D01*
X122558219Y-47425057D01*
X122554059Y-47381046D01*
X122553500Y-47369189D01*
X122553500Y-47204500D01*
X122573502Y-47136379D01*
X122627158Y-47089886D01*
X122679500Y-47078500D01*
X122818134Y-47078500D01*
X122880316Y-47071745D01*
X123016705Y-47020615D01*
X123133261Y-46933261D01*
X123220615Y-46816705D01*
X123271745Y-46680316D01*
X123278500Y-46618134D01*
X123278500Y-44821866D01*
X123271745Y-44759684D01*
X123220615Y-44623295D01*
X123133261Y-44506739D01*
X123016705Y-44419385D01*
X122880316Y-44368255D01*
X122818134Y-44361500D01*
X121021866Y-44361500D01*
X120959684Y-44368255D01*
X120823295Y-44419385D01*
X120706739Y-44506739D01*
X120619385Y-44623295D01*
X120568255Y-44759684D01*
X120561500Y-44821866D01*
X120561500Y-46618134D01*
X120568255Y-46680316D01*
X120619385Y-46816705D01*
X120706739Y-46933261D01*
X120823295Y-47020615D01*
X120959684Y-47071745D01*
X121021866Y-47078500D01*
X121046405Y-47078500D01*
X121114526Y-47098502D01*
X121161019Y-47152158D01*
X121171123Y-47222432D01*
X121141629Y-47287012D01*
X121135500Y-47293595D01*
X120228595Y-48200500D01*
X120166283Y-48234526D01*
X120095468Y-48229461D01*
X120038632Y-48186914D01*
X120013821Y-48120394D01*
X120013500Y-48111405D01*
X120013500Y-42124500D01*
X120033502Y-42056379D01*
X120087158Y-42009886D01*
X120139500Y-41998500D01*
X120278134Y-41998500D01*
X120340316Y-41991745D01*
X120476705Y-41940615D01*
X120593261Y-41853261D01*
X120680615Y-41736705D01*
X120731745Y-41600316D01*
X120738500Y-41538134D01*
X120738500Y-39741866D01*
X120731745Y-39679684D01*
X120680615Y-39543295D01*
X120593261Y-39426739D01*
X120476705Y-39339385D01*
X120340316Y-39288255D01*
X120278134Y-39281500D01*
X118481866Y-39281500D01*
X118419684Y-39288255D01*
X118283295Y-39339385D01*
X118166739Y-39426739D01*
X118079385Y-39543295D01*
X118028255Y-39679684D01*
X118021500Y-39741866D01*
X118021500Y-41538134D01*
X118028255Y-41600316D01*
X118079385Y-41736705D01*
X118166739Y-41853261D01*
X118283295Y-41940615D01*
X118419684Y-41991745D01*
X118481866Y-41998500D01*
X118620500Y-41998500D01*
X118688621Y-42018502D01*
X118735114Y-42072158D01*
X118746500Y-42124500D01*
X118746500Y-48360405D01*
X118726498Y-48428526D01*
X118709595Y-48449500D01*
X118109500Y-49049595D01*
X118047188Y-49083621D01*
X118020405Y-49086500D01*
X117711866Y-49086500D01*
X117649684Y-49093255D01*
X117642284Y-49096029D01*
X117634600Y-49097856D01*
X117634203Y-49096184D01*
X117572921Y-49100670D01*
X117510553Y-49066748D01*
X117476424Y-49004493D01*
X117473500Y-48977505D01*
X117473500Y-47204500D01*
X117493502Y-47136379D01*
X117547158Y-47089886D01*
X117599500Y-47078500D01*
X117738134Y-47078500D01*
X117800316Y-47071745D01*
X117936705Y-47020615D01*
X118053261Y-46933261D01*
X118140615Y-46816705D01*
X118191745Y-46680316D01*
X118198500Y-46618134D01*
X118198500Y-44821866D01*
X118191745Y-44759684D01*
X118140615Y-44623295D01*
X118053261Y-44506739D01*
X117936705Y-44419385D01*
X117800316Y-44368255D01*
X117738134Y-44361500D01*
X116329500Y-44361500D01*
X116261379Y-44341498D01*
X116214886Y-44287842D01*
X116203500Y-44235500D01*
X116203500Y-41988767D01*
X116204027Y-41977584D01*
X116205702Y-41970091D01*
X116204776Y-41940615D01*
X116203562Y-41902014D01*
X116203500Y-41898055D01*
X116203500Y-41870144D01*
X116202995Y-41866144D01*
X116202062Y-41854301D01*
X116202030Y-41853261D01*
X116200673Y-41810110D01*
X116195022Y-41790658D01*
X116191014Y-41771306D01*
X116189467Y-41759063D01*
X116188474Y-41751203D01*
X116182734Y-41736705D01*
X116172200Y-41710097D01*
X116168355Y-41698870D01*
X116167721Y-41696687D01*
X116156018Y-41656407D01*
X116151984Y-41649585D01*
X116151981Y-41649579D01*
X116145706Y-41638968D01*
X116137010Y-41621218D01*
X116132472Y-41609756D01*
X116132469Y-41609751D01*
X116129552Y-41602383D01*
X116103573Y-41566625D01*
X116097057Y-41556707D01*
X116078575Y-41525457D01*
X116074542Y-41518637D01*
X116060218Y-41504313D01*
X116047376Y-41489278D01*
X116035472Y-41472893D01*
X116001406Y-41444711D01*
X115992627Y-41436722D01*
X115695405Y-41139500D01*
X115661379Y-41077188D01*
X115658500Y-41050405D01*
X115658500Y-39741866D01*
X115651745Y-39679684D01*
X115600615Y-39543295D01*
X115513261Y-39426739D01*
X115396705Y-39339385D01*
X115260316Y-39288255D01*
X115198134Y-39281500D01*
X113401866Y-39281500D01*
X113339684Y-39288255D01*
X113203295Y-39339385D01*
X113086739Y-39426739D01*
X112999385Y-39543295D01*
X112948255Y-39679684D01*
X112941500Y-39741866D01*
X112941500Y-41538134D01*
X112948255Y-41600316D01*
X112999385Y-41736705D01*
X113086739Y-41853261D01*
X113203295Y-41940615D01*
X113339684Y-41991745D01*
X113401866Y-41998500D01*
X114710406Y-41998500D01*
X114778527Y-42018502D01*
X114799501Y-42035405D01*
X114899595Y-42135499D01*
X114933621Y-42197811D01*
X114936500Y-42224594D01*
X114936500Y-47696405D01*
X114916498Y-47764526D01*
X114862842Y-47811019D01*
X114792568Y-47821123D01*
X114727988Y-47791629D01*
X114721405Y-47785500D01*
X113155405Y-46219500D01*
X113121379Y-46157188D01*
X113118500Y-46130405D01*
X113118500Y-44821866D01*
X113111745Y-44759684D01*
X113060615Y-44623295D01*
X112973261Y-44506739D01*
X112856705Y-44419385D01*
X112720316Y-44368255D01*
X112658134Y-44361500D01*
X110861866Y-44361500D01*
X110799684Y-44368255D01*
X110663295Y-44419385D01*
X110546739Y-44506739D01*
X110459385Y-44623295D01*
X110408255Y-44759684D01*
X110401500Y-44821866D01*
X110401500Y-45853805D01*
X110381498Y-45921926D01*
X110327842Y-45968419D01*
X110257568Y-45978523D01*
X110192988Y-45949029D01*
X110186405Y-45942900D01*
X109890405Y-45646900D01*
X109856379Y-45584588D01*
X109853500Y-45557805D01*
X109853500Y-42124500D01*
X109873502Y-42056379D01*
X109927158Y-42009886D01*
X109979500Y-41998500D01*
X110118134Y-41998500D01*
X110180316Y-41991745D01*
X110316705Y-41940615D01*
X110433261Y-41853261D01*
X110520615Y-41736705D01*
X110571745Y-41600316D01*
X110578500Y-41538134D01*
X110578500Y-39741866D01*
X110571745Y-39679684D01*
X110520615Y-39543295D01*
X110433261Y-39426739D01*
X110316705Y-39339385D01*
X110180316Y-39288255D01*
X110118134Y-39281500D01*
X108321866Y-39281500D01*
X108259684Y-39288255D01*
X108123295Y-39339385D01*
X108006739Y-39426739D01*
X107919385Y-39543295D01*
X107868255Y-39679684D01*
X107861500Y-39741866D01*
X107861500Y-41538134D01*
X107868255Y-41600316D01*
X107919385Y-41736705D01*
X108006739Y-41853261D01*
X108123295Y-41940615D01*
X108259684Y-41991745D01*
X108321866Y-41998500D01*
X108460500Y-41998500D01*
X108528621Y-42018502D01*
X108575114Y-42072158D01*
X108586500Y-42124500D01*
X108586500Y-45793633D01*
X108585973Y-45804816D01*
X108584298Y-45812309D01*
X108584547Y-45820235D01*
X108584547Y-45820236D01*
X108586438Y-45880386D01*
X108586500Y-45884345D01*
X108586500Y-45912256D01*
X108586997Y-45916190D01*
X108586997Y-45916191D01*
X108587005Y-45916256D01*
X108587938Y-45928093D01*
X108589327Y-45972289D01*
X108594978Y-45991739D01*
X108598987Y-46011100D01*
X108601526Y-46031197D01*
X108604445Y-46038568D01*
X108604445Y-46038570D01*
X108617804Y-46072312D01*
X108621649Y-46083542D01*
X108633982Y-46125993D01*
X108638015Y-46132812D01*
X108638017Y-46132817D01*
X108644293Y-46143428D01*
X108652988Y-46161176D01*
X108660448Y-46180017D01*
X108665110Y-46186433D01*
X108665110Y-46186434D01*
X108686436Y-46215787D01*
X108692952Y-46225707D01*
X108715458Y-46263762D01*
X108729779Y-46278083D01*
X108742619Y-46293116D01*
X108754528Y-46309507D01*
X108760634Y-46314558D01*
X108788605Y-46337698D01*
X108797384Y-46345688D01*
X112134595Y-49682899D01*
X112168621Y-49745211D01*
X112171500Y-49771994D01*
X112171500Y-51085500D01*
X112151498Y-51153621D01*
X112097842Y-51200114D01*
X112045500Y-51211500D01*
X110506866Y-51211500D01*
X110444684Y-51218255D01*
X110308295Y-51269385D01*
X110191739Y-51356739D01*
X110169759Y-51386067D01*
X110112900Y-51428580D01*
X110068934Y-51436500D01*
X108264595Y-51436500D01*
X108196474Y-51416498D01*
X108175500Y-51399595D01*
X108075405Y-51299500D01*
X108041379Y-51237188D01*
X108038500Y-51210405D01*
X108038500Y-49901866D01*
X108031745Y-49839684D01*
X107980615Y-49703295D01*
X107893261Y-49586739D01*
X107776705Y-49499385D01*
X107640316Y-49448255D01*
X107578134Y-49441500D01*
X105781866Y-49441500D01*
X105719684Y-49448255D01*
X105583295Y-49499385D01*
X105466739Y-49586739D01*
X105379385Y-49703295D01*
X105328255Y-49839684D01*
X105321500Y-49901866D01*
X105321500Y-51698134D01*
X105328255Y-51760316D01*
X105379385Y-51896705D01*
X105466739Y-52013261D01*
X105583295Y-52100615D01*
X105719684Y-52151745D01*
X105781866Y-52158500D01*
X107090406Y-52158500D01*
X107158527Y-52178502D01*
X107179501Y-52195405D01*
X107446343Y-52462247D01*
X107453887Y-52470537D01*
X107458000Y-52477018D01*
X107463777Y-52482443D01*
X107470386Y-52488649D01*
X107506352Y-52549862D01*
X107503515Y-52620802D01*
X107462775Y-52678946D01*
X107397067Y-52705835D01*
X107384134Y-52706500D01*
X103084500Y-52706500D01*
X103016379Y-52686498D01*
X102969886Y-52632842D01*
X102958500Y-52580500D01*
X102958500Y-52441866D01*
X102951745Y-52379684D01*
X102900615Y-52243295D01*
X102813261Y-52126739D01*
X102696705Y-52039385D01*
X102560316Y-51988255D01*
X102498134Y-51981500D01*
X100701866Y-51981500D01*
X100639684Y-51988255D01*
X100503295Y-52039385D01*
X100386739Y-52126739D01*
X100299385Y-52243295D01*
X100248255Y-52379684D01*
X100241500Y-52441866D01*
X100241500Y-54238134D01*
X100248255Y-54300316D01*
X100299385Y-54436705D01*
X100386739Y-54553261D01*
X100503295Y-54640615D01*
X100639684Y-54691745D01*
X100701866Y-54698500D01*
X102498134Y-54698500D01*
X102560316Y-54691745D01*
X102696705Y-54640615D01*
X102813261Y-54553261D01*
X102900615Y-54436705D01*
X102951745Y-54300316D01*
X102958500Y-54238134D01*
X102958500Y-54099500D01*
X102978502Y-54031379D01*
X103032158Y-53984886D01*
X103084500Y-53973500D01*
X107386405Y-53973500D01*
X107454526Y-53993502D01*
X107501019Y-54047158D01*
X107511123Y-54117432D01*
X107481629Y-54182012D01*
X107475500Y-54188595D01*
X107179500Y-54484595D01*
X107117188Y-54518621D01*
X107090405Y-54521500D01*
X105781866Y-54521500D01*
X105719684Y-54528255D01*
X105583295Y-54579385D01*
X105466739Y-54666739D01*
X105379385Y-54783295D01*
X105328255Y-54919684D01*
X105321500Y-54981866D01*
X105321500Y-56390500D01*
X105301498Y-56458621D01*
X105247842Y-56505114D01*
X105195500Y-56516500D01*
X102796367Y-56516500D01*
X102785184Y-56515973D01*
X102777691Y-56514298D01*
X102769765Y-56514547D01*
X102769764Y-56514547D01*
X102709614Y-56516438D01*
X102705655Y-56516500D01*
X102677744Y-56516500D01*
X102673810Y-56516997D01*
X102673809Y-56516997D01*
X102673744Y-56517005D01*
X102661907Y-56517938D01*
X102629649Y-56518952D01*
X102625630Y-56519078D01*
X102617711Y-56519327D01*
X102598257Y-56524979D01*
X102578900Y-56528987D01*
X102566670Y-56530532D01*
X102566669Y-56530532D01*
X102558803Y-56531526D01*
X102551432Y-56534445D01*
X102551430Y-56534445D01*
X102517688Y-56547804D01*
X102506458Y-56551649D01*
X102471617Y-56561771D01*
X102471616Y-56561771D01*
X102464007Y-56563982D01*
X102457188Y-56568015D01*
X102457183Y-56568017D01*
X102446572Y-56574293D01*
X102428824Y-56582988D01*
X102409983Y-56590448D01*
X102403567Y-56595110D01*
X102403566Y-56595110D01*
X102374213Y-56616436D01*
X102364293Y-56622952D01*
X102333065Y-56641420D01*
X102333062Y-56641422D01*
X102326238Y-56645458D01*
X102311917Y-56659779D01*
X102296884Y-56672619D01*
X102280493Y-56684528D01*
X102275442Y-56690634D01*
X102252302Y-56718605D01*
X102244312Y-56727384D01*
X101947101Y-57024595D01*
X101884789Y-57058621D01*
X101858006Y-57061500D01*
X100701866Y-57061500D01*
X100639684Y-57068255D01*
X100503295Y-57119385D01*
X100386739Y-57206739D01*
X100299385Y-57323295D01*
X100248255Y-57459684D01*
X100241500Y-57521866D01*
X100241500Y-59318134D01*
X100248255Y-59380316D01*
X100299385Y-59516705D01*
X100386739Y-59633261D01*
X100503295Y-59720615D01*
X100639684Y-59771745D01*
X100701866Y-59778500D01*
X102498134Y-59778500D01*
X102560316Y-59771745D01*
X102696705Y-59720615D01*
X102813261Y-59633261D01*
X102900615Y-59516705D01*
X102951745Y-59380316D01*
X102958500Y-59318134D01*
X102958500Y-57909500D01*
X102978502Y-57841379D01*
X103032158Y-57794886D01*
X103084500Y-57783500D01*
X108656405Y-57783500D01*
X108724526Y-57803502D01*
X108771019Y-57857158D01*
X108781123Y-57927432D01*
X108751629Y-57992012D01*
X108745500Y-57998595D01*
X107179500Y-59564595D01*
X107117188Y-59598621D01*
X107090405Y-59601500D01*
X105781866Y-59601500D01*
X105719684Y-59608255D01*
X105583295Y-59659385D01*
X105466739Y-59746739D01*
X105379385Y-59863295D01*
X105328255Y-59999684D01*
X105321500Y-60061866D01*
X105321500Y-61375011D01*
X105301498Y-61443132D01*
X105247842Y-61489625D01*
X105195500Y-61501011D01*
X103044256Y-61501011D01*
X103033073Y-61500484D01*
X103025580Y-61498809D01*
X103017654Y-61499058D01*
X103017653Y-61499058D01*
X102957503Y-61500949D01*
X102953544Y-61501011D01*
X102925633Y-61501011D01*
X102921699Y-61501508D01*
X102921698Y-61501508D01*
X102921633Y-61501516D01*
X102909796Y-61502449D01*
X102877538Y-61503463D01*
X102873519Y-61503589D01*
X102865600Y-61503838D01*
X102846146Y-61509490D01*
X102826789Y-61513498D01*
X102814559Y-61515043D01*
X102814558Y-61515043D01*
X102806692Y-61516037D01*
X102799321Y-61518956D01*
X102799319Y-61518956D01*
X102765577Y-61532315D01*
X102754347Y-61536160D01*
X102719506Y-61546282D01*
X102719505Y-61546282D01*
X102711896Y-61548493D01*
X102705077Y-61552526D01*
X102705072Y-61552528D01*
X102694461Y-61558804D01*
X102676713Y-61567499D01*
X102657872Y-61574959D01*
X102651456Y-61579621D01*
X102651455Y-61579621D01*
X102622102Y-61600947D01*
X102612182Y-61607463D01*
X102580954Y-61625931D01*
X102580951Y-61625933D01*
X102574127Y-61629969D01*
X102559806Y-61644290D01*
X102544773Y-61657130D01*
X102528382Y-61669039D01*
X102523331Y-61675145D01*
X102500191Y-61703116D01*
X102492201Y-61711895D01*
X102099501Y-62104595D01*
X102037189Y-62138621D01*
X102010406Y-62141500D01*
X100701866Y-62141500D01*
X100639684Y-62148255D01*
X100503295Y-62199385D01*
X100386739Y-62286739D01*
X100299385Y-62403295D01*
X100248255Y-62539684D01*
X100241500Y-62601866D01*
X100241500Y-64398134D01*
X96363295Y-64398134D01*
X96386226Y-64375283D01*
X96408096Y-64353489D01*
X96426663Y-64327651D01*
X96535435Y-64176277D01*
X96538453Y-64172077D01*
X96547634Y-64153502D01*
X96635136Y-63976453D01*
X96635137Y-63976451D01*
X96637430Y-63971811D01*
X96702370Y-63758069D01*
X96731529Y-63536590D01*
X96732423Y-63500000D01*
X96733074Y-63473365D01*
X96733074Y-63473361D01*
X96733156Y-63470000D01*
X96714852Y-63247361D01*
X96660431Y-63030702D01*
X96571354Y-62825840D01*
X96512291Y-62734542D01*
X96452822Y-62642617D01*
X96452820Y-62642614D01*
X96450014Y-62638277D01*
X96299670Y-62473051D01*
X96295619Y-62469852D01*
X96295615Y-62469848D01*
X96128414Y-62337800D01*
X96128410Y-62337798D01*
X96124359Y-62334598D01*
X96083053Y-62311796D01*
X96033084Y-62261364D01*
X96018312Y-62191921D01*
X96043428Y-62125516D01*
X96070780Y-62098909D01*
X96129948Y-62056705D01*
X96249860Y-61971173D01*
X96264585Y-61956500D01*
X96383111Y-61838387D01*
X96408096Y-61813489D01*
X96450985Y-61753803D01*
X96535435Y-61636277D01*
X96538453Y-61632077D01*
X96553839Y-61600947D01*
X96635136Y-61436453D01*
X96635137Y-61436451D01*
X96637430Y-61431811D01*
X96669900Y-61324940D01*
X96700865Y-61223023D01*
X96700865Y-61223021D01*
X96702370Y-61218069D01*
X96731529Y-60996590D01*
X96731724Y-60988598D01*
X96733074Y-60933365D01*
X96733074Y-60933361D01*
X96733156Y-60930000D01*
X96714852Y-60707361D01*
X96660431Y-60490702D01*
X96571354Y-60285840D01*
X96531906Y-60224862D01*
X96452822Y-60102617D01*
X96452820Y-60102614D01*
X96450014Y-60098277D01*
X96299670Y-59933051D01*
X96295619Y-59929852D01*
X96295615Y-59929848D01*
X96128414Y-59797800D01*
X96128410Y-59797798D01*
X96124359Y-59794598D01*
X96083053Y-59771796D01*
X96033084Y-59721364D01*
X96018312Y-59651921D01*
X96043428Y-59585516D01*
X96070780Y-59558909D01*
X96119873Y-59523891D01*
X96249860Y-59431173D01*
X96279772Y-59401366D01*
X96386833Y-59294678D01*
X96408096Y-59273489D01*
X96538453Y-59092077D01*
X96547634Y-59073502D01*
X96635136Y-58896453D01*
X96635137Y-58896451D01*
X96637430Y-58891811D01*
X96702370Y-58678069D01*
X96731529Y-58456590D01*
X96733156Y-58390000D01*
X96714852Y-58167361D01*
X96660431Y-57950702D01*
X96571354Y-57745840D01*
X96450014Y-57558277D01*
X96299670Y-57393051D01*
X96295619Y-57389852D01*
X96295615Y-57389848D01*
X96128414Y-57257800D01*
X96128410Y-57257798D01*
X96124359Y-57254598D01*
X96095198Y-57238500D01*
X96037662Y-57206739D01*
X95928789Y-57146638D01*
X95923920Y-57144914D01*
X95923916Y-57144912D01*
X95723087Y-57073795D01*
X95723083Y-57073794D01*
X95718212Y-57072069D01*
X95713119Y-57071162D01*
X95713116Y-57071161D01*
X95503373Y-57033800D01*
X95503367Y-57033799D01*
X95498284Y-57032894D01*
X95424452Y-57031992D01*
X95280081Y-57030228D01*
X95280079Y-57030228D01*
X95274911Y-57030165D01*
X95054091Y-57063955D01*
X94841756Y-57133357D01*
X94763455Y-57174118D01*
X94652755Y-57231745D01*
X94643607Y-57236507D01*
X94639474Y-57239610D01*
X94639471Y-57239612D01*
X94469100Y-57367530D01*
X94464965Y-57370635D01*
X94461393Y-57374373D01*
X94385687Y-57453595D01*
X94310629Y-57532138D01*
X94307715Y-57536410D01*
X94307714Y-57536411D01*
X94202898Y-57690066D01*
X94147987Y-57735069D01*
X94077462Y-57743240D01*
X94013715Y-57711986D01*
X93993018Y-57687502D01*
X93912426Y-57562926D01*
X93906136Y-57554757D01*
X93762806Y-57397240D01*
X93755273Y-57390215D01*
X93588139Y-57258222D01*
X93579552Y-57252517D01*
X93393117Y-57149599D01*
X93383705Y-57145369D01*
X93182959Y-57074280D01*
X93172988Y-57071646D01*
X93101837Y-57058972D01*
X93088540Y-57060432D01*
X93084000Y-57074989D01*
X93084000Y-58518000D01*
X93063998Y-58586121D01*
X93010342Y-58632614D01*
X92958000Y-58644000D01*
X91513225Y-58644000D01*
X91499694Y-58647973D01*
X91498257Y-58657966D01*
X91528565Y-58792446D01*
X91531645Y-58802275D01*
X91611770Y-58999603D01*
X91616413Y-59008794D01*
X91727694Y-59190388D01*
X91733777Y-59198699D01*
X91873213Y-59359667D01*
X91880580Y-59366883D01*
X92044434Y-59502916D01*
X92052881Y-59508831D01*
X92121969Y-59549203D01*
X92170693Y-59600842D01*
X92183764Y-59670625D01*
X92157033Y-59736396D01*
X92116584Y-59769752D01*
X92103607Y-59776507D01*
X92099474Y-59779610D01*
X92099471Y-59779612D01*
X91929100Y-59907530D01*
X91924965Y-59910635D01*
X91770629Y-60072138D01*
X91767720Y-60076403D01*
X91767714Y-60076411D01*
X91757622Y-60091206D01*
X91644743Y-60256680D01*
X91550688Y-60459305D01*
X91490989Y-60674570D01*
X91467251Y-60896695D01*
X91467548Y-60901848D01*
X91467548Y-60901851D01*
X91479812Y-61114547D01*
X91480110Y-61119715D01*
X91481247Y-61124761D01*
X91481248Y-61124767D01*
X91501119Y-61212939D01*
X91529222Y-61337639D01*
X91576996Y-61455293D01*
X91599003Y-61509489D01*
X91613266Y-61544616D01*
X91651779Y-61607463D01*
X91727291Y-61730688D01*
X91729987Y-61735088D01*
X91876250Y-61903938D01*
X92048126Y-62046632D01*
X92090164Y-62071197D01*
X92121445Y-62089476D01*
X92170169Y-62141114D01*
X92183240Y-62210897D01*
X92156509Y-62276669D01*
X92116055Y-62310027D01*
X92103607Y-62316507D01*
X92099474Y-62319610D01*
X92099471Y-62319612D01*
X91929100Y-62447530D01*
X91924965Y-62450635D01*
X91921393Y-62454373D01*
X91845687Y-62533595D01*
X91770629Y-62612138D01*
X91767720Y-62616403D01*
X91767714Y-62616411D01*
X91749838Y-62642617D01*
X91644743Y-62796680D01*
X91550688Y-62999305D01*
X91490989Y-63214570D01*
X91467251Y-63436695D01*
X91467548Y-63441848D01*
X91467548Y-63441851D01*
X91473011Y-63536590D01*
X91480110Y-63659715D01*
X91481247Y-63664761D01*
X91481248Y-63664767D01*
X91497114Y-63735166D01*
X91529222Y-63877639D01*
X91573352Y-63986318D01*
X91608302Y-64072390D01*
X91613266Y-64084616D01*
X91653900Y-64150925D01*
X91727291Y-64270688D01*
X91729987Y-64275088D01*
X91876250Y-64443938D01*
X92048126Y-64586632D01*
X92109507Y-64622500D01*
X92121445Y-64629476D01*
X92170169Y-64681114D01*
X92183240Y-64750897D01*
X92156509Y-64816669D01*
X92116055Y-64850027D01*
X92103607Y-64856507D01*
X92099474Y-64859610D01*
X92099471Y-64859612D01*
X91970110Y-64956739D01*
X91924965Y-64990635D01*
X91770629Y-65152138D01*
X91644743Y-65336680D01*
X91597715Y-65437993D01*
X91576703Y-65483261D01*
X91550688Y-65539305D01*
X91490989Y-65754570D01*
X91467251Y-65976695D01*
X90152786Y-65976695D01*
X90127118Y-60052872D01*
X90118761Y-58124183D01*
X91494389Y-58124183D01*
X91495912Y-58132607D01*
X91508292Y-58136000D01*
X92557885Y-58136000D01*
X92573124Y-58131525D01*
X92574329Y-58130135D01*
X92576000Y-58122452D01*
X92576000Y-57073102D01*
X92572082Y-57059758D01*
X92557806Y-57057771D01*
X92519324Y-57063660D01*
X92509288Y-57066051D01*
X92306868Y-57132212D01*
X92297359Y-57136209D01*
X92108463Y-57234542D01*
X92099738Y-57240036D01*
X91929433Y-57367905D01*
X91921726Y-57374748D01*
X91774590Y-57528717D01*
X91768104Y-57536727D01*
X91648098Y-57712649D01*
X91643000Y-57721623D01*
X91553338Y-57914783D01*
X91549775Y-57924470D01*
X91494389Y-58124183D01*
X90118761Y-58124183D01*
X90087594Y-50931038D01*
X90457000Y-50931038D01*
X90457337Y-50937553D01*
X90466894Y-51029657D01*
X90469788Y-51043056D01*
X90519381Y-51191707D01*
X90525555Y-51204886D01*
X90607788Y-51337773D01*
X90616824Y-51349174D01*
X90727429Y-51459586D01*
X90738840Y-51468598D01*
X90871880Y-51550604D01*
X90885061Y-51556751D01*
X91033814Y-51606091D01*
X91047190Y-51608958D01*
X91138097Y-51618272D01*
X91144513Y-51618600D01*
X91167885Y-51618600D01*
X91183124Y-51614125D01*
X91184329Y-51612735D01*
X91186000Y-51605052D01*
X91186000Y-50932715D01*
X91181525Y-50917476D01*
X91180135Y-50916271D01*
X91172452Y-50914600D01*
X90475115Y-50914600D01*
X90459876Y-50919075D01*
X90458671Y-50920465D01*
X90457000Y-50928148D01*
X90457000Y-50931038D01*
X90087594Y-50931038D01*
X90080892Y-49384332D01*
X90456500Y-49384332D01*
X90467113Y-49486619D01*
X90469295Y-49493159D01*
X90508859Y-49611745D01*
X90521244Y-49648868D01*
X90525096Y-49655092D01*
X90525096Y-49655093D01*
X90554924Y-49703295D01*
X90611248Y-49794313D01*
X90616430Y-49799486D01*
X90620977Y-49805223D01*
X90619170Y-49806655D01*
X90647902Y-49859175D01*
X90642892Y-49929995D01*
X90619501Y-49966453D01*
X90620552Y-49967283D01*
X90607002Y-49984440D01*
X90524996Y-50117480D01*
X90518849Y-50130661D01*
X90469509Y-50279414D01*
X90466642Y-50292790D01*
X90457328Y-50383697D01*
X90457071Y-50388726D01*
X90461475Y-50403724D01*
X90462865Y-50404929D01*
X90470548Y-50406600D01*
X92359105Y-50406600D01*
X92427226Y-50426602D01*
X92448200Y-50443505D01*
X92855300Y-50850605D01*
X92889326Y-50912917D01*
X92884261Y-50983732D01*
X92855300Y-51028795D01*
X92572344Y-51311751D01*
X92510032Y-51345777D01*
X92439217Y-51340712D01*
X92382381Y-51298165D01*
X92357570Y-51231645D01*
X92363656Y-51182989D01*
X92410490Y-51041789D01*
X92413358Y-51028410D01*
X92422672Y-50937503D01*
X92422929Y-50932474D01*
X92418525Y-50917476D01*
X92417135Y-50916271D01*
X92409452Y-50914600D01*
X91712115Y-50914600D01*
X91696876Y-50919075D01*
X91695671Y-50920465D01*
X91694000Y-50928148D01*
X91694000Y-51600485D01*
X91698475Y-51615724D01*
X91699865Y-51616929D01*
X91707548Y-51618600D01*
X91735438Y-51618600D01*
X91741953Y-51618263D01*
X91834057Y-51608706D01*
X91847456Y-51605812D01*
X91996107Y-51556219D01*
X92009286Y-51550045D01*
X92082432Y-51504781D01*
X92150884Y-51485943D01*
X92218654Y-51507104D01*
X92264225Y-51561545D01*
X92273129Y-51631981D01*
X92264369Y-51661973D01*
X92262823Y-51665545D01*
X92257609Y-51676187D01*
X92236305Y-51714940D01*
X92234334Y-51722615D01*
X92234334Y-51722616D01*
X92231267Y-51734562D01*
X92224863Y-51753266D01*
X92216819Y-51771855D01*
X92215580Y-51779678D01*
X92215577Y-51779688D01*
X92209901Y-51815524D01*
X92207495Y-51827144D01*
X92198589Y-51861833D01*
X92162275Y-51922840D01*
X92098744Y-51954529D01*
X92076547Y-51956500D01*
X91931866Y-51956500D01*
X91869684Y-51963255D01*
X91733295Y-52014385D01*
X91616739Y-52101739D01*
X91529385Y-52218295D01*
X91478255Y-52354684D01*
X91471500Y-52416866D01*
X91471500Y-54213134D01*
X91478255Y-54275316D01*
X91529385Y-54411705D01*
X91616739Y-54528261D01*
X91733295Y-54615615D01*
X91869684Y-54666745D01*
X91931866Y-54673500D01*
X93728134Y-54673500D01*
X93790316Y-54666745D01*
X93926705Y-54615615D01*
X94043261Y-54528261D01*
X94130615Y-54411705D01*
X94152799Y-54352529D01*
X94174598Y-54294382D01*
X94217240Y-54237618D01*
X94283802Y-54212918D01*
X94353150Y-54228126D01*
X94387817Y-54256114D01*
X94416250Y-54288938D01*
X94588126Y-54431632D01*
X94781000Y-54544338D01*
X94785825Y-54546180D01*
X94785826Y-54546181D01*
X94854450Y-54572386D01*
X94989692Y-54624030D01*
X94994760Y-54625061D01*
X94994763Y-54625062D01*
X95071209Y-54640615D01*
X95208597Y-54668567D01*
X95213772Y-54668757D01*
X95213774Y-54668757D01*
X95426673Y-54676564D01*
X95426677Y-54676564D01*
X95431837Y-54676753D01*
X95436957Y-54676097D01*
X95436959Y-54676097D01*
X95648288Y-54649025D01*
X95648289Y-54649025D01*
X95653416Y-54648368D01*
X95679258Y-54640615D01*
X95862429Y-54585661D01*
X95862434Y-54585659D01*
X95867384Y-54584174D01*
X96067994Y-54485896D01*
X96102003Y-54461638D01*
X97061000Y-54461638D01*
X97061337Y-54468153D01*
X97070894Y-54560257D01*
X97073788Y-54573656D01*
X97123381Y-54722307D01*
X97129555Y-54735486D01*
X97211788Y-54868373D01*
X97220824Y-54879774D01*
X97331429Y-54990186D01*
X97342840Y-54999198D01*
X97475880Y-55081204D01*
X97489061Y-55087351D01*
X97637814Y-55136691D01*
X97651190Y-55139558D01*
X97742097Y-55148872D01*
X97748513Y-55149200D01*
X97771885Y-55149200D01*
X97787124Y-55144725D01*
X97788329Y-55143335D01*
X97790000Y-55135652D01*
X97790000Y-55131085D01*
X98298000Y-55131085D01*
X98302475Y-55146324D01*
X98303865Y-55147529D01*
X98311548Y-55149200D01*
X98339438Y-55149200D01*
X98345953Y-55148863D01*
X98438057Y-55139306D01*
X98451456Y-55136412D01*
X98600107Y-55086819D01*
X98613286Y-55080645D01*
X98746173Y-54998412D01*
X98757574Y-54989376D01*
X98867986Y-54878771D01*
X98876998Y-54867360D01*
X98959004Y-54734320D01*
X98965151Y-54721139D01*
X99014491Y-54572386D01*
X99017358Y-54559010D01*
X99026672Y-54468103D01*
X99026929Y-54463074D01*
X99022525Y-54448076D01*
X99021135Y-54446871D01*
X99013452Y-54445200D01*
X98316115Y-54445200D01*
X98300876Y-54449675D01*
X98299671Y-54451065D01*
X98298000Y-54458748D01*
X98298000Y-55131085D01*
X97790000Y-55131085D01*
X97790000Y-54463315D01*
X97785525Y-54448076D01*
X97784135Y-54446871D01*
X97776452Y-54445200D01*
X97079115Y-54445200D01*
X97063876Y-54449675D01*
X97062671Y-54451065D01*
X97061000Y-54458748D01*
X97061000Y-54461638D01*
X96102003Y-54461638D01*
X96249860Y-54356173D01*
X96408096Y-54198489D01*
X96458931Y-54127745D01*
X96535435Y-54021277D01*
X96538453Y-54017077D01*
X96540746Y-54012437D01*
X96542446Y-54009608D01*
X96594674Y-53961518D01*
X96650451Y-53948500D01*
X96961233Y-53948500D01*
X96972416Y-53949027D01*
X96979909Y-53950702D01*
X96987835Y-53950453D01*
X96987836Y-53950453D01*
X97047986Y-53948562D01*
X97051945Y-53948500D01*
X97079856Y-53948500D01*
X97083791Y-53948003D01*
X97083856Y-53947995D01*
X97095693Y-53947062D01*
X97127951Y-53946048D01*
X97131970Y-53945922D01*
X97139889Y-53945673D01*
X97151833Y-53942203D01*
X97186985Y-53937200D01*
X99008885Y-53937200D01*
X99024124Y-53932725D01*
X99025329Y-53931335D01*
X99027000Y-53923652D01*
X99027000Y-53920762D01*
X99026663Y-53914247D01*
X99017106Y-53822143D01*
X99014212Y-53808744D01*
X98964619Y-53660093D01*
X98958445Y-53646914D01*
X98876212Y-53514027D01*
X98862629Y-53496889D01*
X98864559Y-53495359D01*
X98836097Y-53443320D01*
X98841113Y-53372501D01*
X98864799Y-53335583D01*
X98863843Y-53334828D01*
X98868381Y-53329082D01*
X98873552Y-53323902D01*
X98877393Y-53317671D01*
X98959462Y-53184531D01*
X98959463Y-53184529D01*
X98963302Y-53178301D01*
X99017149Y-53015957D01*
X99027500Y-52914932D01*
X99027500Y-52367468D01*
X99016887Y-52265181D01*
X98979326Y-52152598D01*
X98965073Y-52109876D01*
X98965072Y-52109874D01*
X98962756Y-52102932D01*
X98921482Y-52036233D01*
X98876606Y-51963715D01*
X98872752Y-51957487D01*
X98751702Y-51836648D01*
X98736284Y-51827144D01*
X98612331Y-51750738D01*
X98612329Y-51750737D01*
X98606101Y-51746898D01*
X98443757Y-51693051D01*
X98436920Y-51692351D01*
X98436918Y-51692350D01*
X98395599Y-51688117D01*
X98342732Y-51682700D01*
X98202394Y-51682700D01*
X98134273Y-51662698D01*
X98087780Y-51609042D01*
X98077676Y-51538768D01*
X98107170Y-51474188D01*
X98113299Y-51467605D01*
X100164412Y-49416492D01*
X100226724Y-49382466D01*
X100297539Y-49387531D01*
X100354333Y-49430022D01*
X100386739Y-49473261D01*
X100503295Y-49560615D01*
X100639684Y-49611745D01*
X100701866Y-49618500D01*
X102498134Y-49618500D01*
X102560316Y-49611745D01*
X102696705Y-49560615D01*
X102813261Y-49473261D01*
X102900615Y-49356705D01*
X102951745Y-49220316D01*
X102958500Y-49158134D01*
X102958500Y-47361866D01*
X102951745Y-47299684D01*
X102900615Y-47163295D01*
X102813261Y-47046739D01*
X102696705Y-46959385D01*
X102560316Y-46908255D01*
X102498134Y-46901500D01*
X100701866Y-46901500D01*
X100639684Y-46908255D01*
X100503295Y-46959385D01*
X100386739Y-47046739D01*
X100299385Y-47163295D01*
X100248255Y-47299684D01*
X100241500Y-47361866D01*
X100241500Y-47561965D01*
X100221498Y-47630086D01*
X100170871Y-47673073D01*
X100171408Y-47673980D01*
X100166120Y-47677107D01*
X100166118Y-47677109D01*
X100164587Y-47678014D01*
X100164585Y-47678015D01*
X100153966Y-47684295D01*
X100136213Y-47692992D01*
X100128568Y-47696019D01*
X100117383Y-47700448D01*
X100110968Y-47705109D01*
X100081612Y-47726437D01*
X100071695Y-47732951D01*
X100033638Y-47755458D01*
X100019317Y-47769779D01*
X100004284Y-47782619D01*
X99987893Y-47794528D01*
X99965892Y-47821123D01*
X99959702Y-47828605D01*
X99951712Y-47837384D01*
X95827345Y-51961750D01*
X95765033Y-51995776D01*
X95716154Y-51996702D01*
X95503373Y-51958800D01*
X95503367Y-51958799D01*
X95498284Y-51957894D01*
X95424452Y-51956992D01*
X95280081Y-51955228D01*
X95280079Y-51955228D01*
X95274911Y-51955165D01*
X95054091Y-51988955D01*
X94841756Y-52058357D01*
X94837164Y-52060747D01*
X94837165Y-52060747D01*
X94662360Y-52151745D01*
X94643607Y-52161507D01*
X94639474Y-52164610D01*
X94639471Y-52164612D01*
X94469100Y-52292530D01*
X94464965Y-52295635D01*
X94391717Y-52372285D01*
X94384283Y-52380064D01*
X94322759Y-52415494D01*
X94251846Y-52412037D01*
X94194060Y-52370791D01*
X94175207Y-52337243D01*
X94133767Y-52226703D01*
X94130615Y-52218295D01*
X94043261Y-52101739D01*
X93926705Y-52014385D01*
X93917071Y-52010773D01*
X93916033Y-52009993D01*
X93910425Y-52006923D01*
X93910868Y-52006114D01*
X93860308Y-51968131D01*
X93835609Y-51901570D01*
X93850817Y-51832221D01*
X93872208Y-51803696D01*
X94043924Y-51631981D01*
X94237488Y-51438417D01*
X94255758Y-51423303D01*
X94256008Y-51423133D01*
X94256012Y-51423130D01*
X94262571Y-51418672D01*
X94299711Y-51376545D01*
X94305130Y-51370775D01*
X94316435Y-51359470D01*
X94316438Y-51359466D01*
X99061235Y-46614669D01*
X105322001Y-46614669D01*
X105322371Y-46621490D01*
X105327895Y-46672352D01*
X105331521Y-46687604D01*
X105376676Y-46808054D01*
X105385214Y-46823649D01*
X105461715Y-46925724D01*
X105474276Y-46938285D01*
X105576351Y-47014786D01*
X105591946Y-47023324D01*
X105712394Y-47068478D01*
X105727649Y-47072105D01*
X105778514Y-47077631D01*
X105785328Y-47078000D01*
X106407885Y-47078000D01*
X106423124Y-47073525D01*
X106424329Y-47072135D01*
X106426000Y-47064452D01*
X106426000Y-47059884D01*
X106934000Y-47059884D01*
X106938475Y-47075123D01*
X106939865Y-47076328D01*
X106947548Y-47077999D01*
X107574669Y-47077999D01*
X107581490Y-47077629D01*
X107632352Y-47072105D01*
X107647604Y-47068479D01*
X107768054Y-47023324D01*
X107783649Y-47014786D01*
X107885724Y-46938285D01*
X107898285Y-46925724D01*
X107974786Y-46823649D01*
X107983324Y-46808054D01*
X108028478Y-46687606D01*
X108032105Y-46672351D01*
X108037631Y-46621486D01*
X108038000Y-46614672D01*
X108038000Y-45992115D01*
X108033525Y-45976876D01*
X108032135Y-45975671D01*
X108024452Y-45974000D01*
X106952115Y-45974000D01*
X106936876Y-45978475D01*
X106935671Y-45979865D01*
X106934000Y-45987548D01*
X106934000Y-47059884D01*
X106426000Y-47059884D01*
X106426000Y-45992115D01*
X106421525Y-45976876D01*
X106420135Y-45975671D01*
X106412452Y-45974000D01*
X105340116Y-45974000D01*
X105324877Y-45978475D01*
X105323672Y-45979865D01*
X105322001Y-45987548D01*
X105322001Y-46614669D01*
X99061235Y-46614669D01*
X100228019Y-45447885D01*
X105322000Y-45447885D01*
X105326475Y-45463124D01*
X105327865Y-45464329D01*
X105335548Y-45466000D01*
X106407885Y-45466000D01*
X106423124Y-45461525D01*
X106424329Y-45460135D01*
X106426000Y-45452452D01*
X106426000Y-45447885D01*
X106934000Y-45447885D01*
X106938475Y-45463124D01*
X106939865Y-45464329D01*
X106947548Y-45466000D01*
X108019884Y-45466000D01*
X108035123Y-45461525D01*
X108036328Y-45460135D01*
X108037999Y-45452452D01*
X108037999Y-44825331D01*
X108037629Y-44818510D01*
X108032105Y-44767648D01*
X108028479Y-44752396D01*
X107983324Y-44631946D01*
X107974786Y-44616351D01*
X107898285Y-44514276D01*
X107885724Y-44501715D01*
X107783649Y-44425214D01*
X107768054Y-44416676D01*
X107647606Y-44371522D01*
X107632351Y-44367895D01*
X107581486Y-44362369D01*
X107574672Y-44362000D01*
X106952115Y-44362000D01*
X106936876Y-44366475D01*
X106935671Y-44367865D01*
X106934000Y-44375548D01*
X106934000Y-45447885D01*
X106426000Y-45447885D01*
X106426000Y-44380116D01*
X106421525Y-44364877D01*
X106420135Y-44363672D01*
X106412452Y-44362001D01*
X105785331Y-44362001D01*
X105778510Y-44362371D01*
X105727648Y-44367895D01*
X105712396Y-44371521D01*
X105591946Y-44416676D01*
X105576351Y-44425214D01*
X105474276Y-44501715D01*
X105461715Y-44514276D01*
X105385214Y-44616351D01*
X105376676Y-44631946D01*
X105331522Y-44752394D01*
X105327895Y-44767649D01*
X105322369Y-44818514D01*
X105322000Y-44825328D01*
X105322000Y-45447885D01*
X100228019Y-45447885D01*
X103640499Y-42035405D01*
X103702811Y-42001379D01*
X103729594Y-41998500D01*
X105038134Y-41998500D01*
X105100316Y-41991745D01*
X105236705Y-41940615D01*
X105353261Y-41853261D01*
X105440615Y-41736705D01*
X105491745Y-41600316D01*
X105498500Y-41538134D01*
X105498500Y-39741866D01*
X105491745Y-39679684D01*
X105440615Y-39543295D01*
X105353261Y-39426739D01*
X105236705Y-39339385D01*
X105100316Y-39288255D01*
X105038134Y-39281500D01*
X103241866Y-39281500D01*
X103179684Y-39288255D01*
X103043295Y-39339385D01*
X102926739Y-39426739D01*
X102839385Y-39543295D01*
X102788255Y-39679684D01*
X102781500Y-39741866D01*
X102781500Y-41050405D01*
X102761498Y-41118526D01*
X102744595Y-41139500D01*
X93929395Y-49954700D01*
X93867083Y-49988726D01*
X93796268Y-49983661D01*
X93751205Y-49954700D01*
X92514852Y-48718347D01*
X92507312Y-48710061D01*
X92503200Y-48703582D01*
X92453548Y-48656956D01*
X92450707Y-48654202D01*
X92430970Y-48634465D01*
X92427773Y-48631985D01*
X92418751Y-48624280D01*
X92392297Y-48599438D01*
X92386521Y-48594014D01*
X92381107Y-48591038D01*
X92348796Y-48556236D01*
X92272606Y-48433115D01*
X92268752Y-48426887D01*
X92147702Y-48306048D01*
X92056873Y-48250060D01*
X92008331Y-48220138D01*
X92008329Y-48220137D01*
X92002101Y-48216298D01*
X91839757Y-48162451D01*
X91832920Y-48161751D01*
X91832918Y-48161750D01*
X91791599Y-48157517D01*
X91738732Y-48152100D01*
X91141268Y-48152100D01*
X91138022Y-48152437D01*
X91138018Y-48152437D01*
X91103917Y-48155975D01*
X91038981Y-48162713D01*
X91032440Y-48164895D01*
X91032441Y-48164895D01*
X90883676Y-48214527D01*
X90883674Y-48214528D01*
X90876732Y-48216844D01*
X90731287Y-48306848D01*
X90610448Y-48427898D01*
X90606608Y-48434128D01*
X90606607Y-48434129D01*
X90526966Y-48563331D01*
X90520698Y-48573499D01*
X90466851Y-48735843D01*
X90456500Y-48836868D01*
X90456500Y-49384332D01*
X90080892Y-49384332D01*
X90043579Y-40772703D01*
X91235743Y-40772703D01*
X91273268Y-41057734D01*
X91274401Y-41061874D01*
X91274401Y-41061876D01*
X91289899Y-41118526D01*
X91349129Y-41335036D01*
X91350813Y-41338984D01*
X91447911Y-41566625D01*
X91461923Y-41599476D01*
X91609561Y-41846161D01*
X91789313Y-42070528D01*
X91997851Y-42268423D01*
X92231317Y-42436186D01*
X92235112Y-42438195D01*
X92235113Y-42438196D01*
X92256869Y-42449715D01*
X92485392Y-42570712D01*
X92755373Y-42669511D01*
X93036264Y-42730755D01*
X93064841Y-42733004D01*
X93259282Y-42748307D01*
X93259291Y-42748307D01*
X93261739Y-42748500D01*
X93417271Y-42748500D01*
X93419407Y-42748354D01*
X93419418Y-42748354D01*
X93627548Y-42734165D01*
X93627554Y-42734164D01*
X93631825Y-42733873D01*
X93636020Y-42733004D01*
X93636022Y-42733004D01*
X93772584Y-42704723D01*
X93913342Y-42675574D01*
X94184343Y-42579607D01*
X94439812Y-42447750D01*
X94443313Y-42445289D01*
X94443317Y-42445287D01*
X94557417Y-42365096D01*
X94675023Y-42282441D01*
X94833151Y-42135499D01*
X94882479Y-42089661D01*
X94882481Y-42089658D01*
X94885622Y-42086740D01*
X95067713Y-41864268D01*
X95217927Y-41619142D01*
X95264507Y-41513031D01*
X95331757Y-41359830D01*
X95333483Y-41355898D01*
X95412244Y-41079406D01*
X95452751Y-40794784D01*
X95452845Y-40776951D01*
X95454235Y-40511583D01*
X95454235Y-40511576D01*
X95454257Y-40507297D01*
X95416732Y-40222266D01*
X95340871Y-39944964D01*
X95330295Y-39920170D01*
X95229763Y-39684476D01*
X95229761Y-39684472D01*
X95228077Y-39680524D01*
X95080439Y-39433839D01*
X94900687Y-39209472D01*
X94692149Y-39011577D01*
X94458683Y-38843814D01*
X94436843Y-38832250D01*
X94413654Y-38819972D01*
X94204608Y-38709288D01*
X93934627Y-38610489D01*
X93653736Y-38549245D01*
X93622685Y-38546801D01*
X93430718Y-38531693D01*
X93430709Y-38531693D01*
X93428261Y-38531500D01*
X93272729Y-38531500D01*
X93270593Y-38531646D01*
X93270582Y-38531646D01*
X93062452Y-38545835D01*
X93062446Y-38545836D01*
X93058175Y-38546127D01*
X93053980Y-38546996D01*
X93053978Y-38546996D01*
X92917417Y-38575276D01*
X92776658Y-38604426D01*
X92505657Y-38700393D01*
X92250188Y-38832250D01*
X92246687Y-38834711D01*
X92246683Y-38834713D01*
X92236594Y-38841804D01*
X92014977Y-38997559D01*
X91804378Y-39193260D01*
X91622287Y-39415732D01*
X91472073Y-39660858D01*
X91356517Y-39924102D01*
X91277756Y-40200594D01*
X91237249Y-40485216D01*
X91237227Y-40489505D01*
X91237226Y-40489512D01*
X91236184Y-40688503D01*
X91235743Y-40772703D01*
X90043579Y-40772703D01*
X90043214Y-40688497D01*
X90044714Y-40668568D01*
X90046805Y-40655144D01*
X90046805Y-40655139D01*
X90048186Y-40646270D01*
X90045743Y-40627589D01*
X90044852Y-40604657D01*
X90060743Y-40301446D01*
X90062121Y-40288329D01*
X90073241Y-40218124D01*
X90114123Y-39959998D01*
X90116865Y-39947098D01*
X90202903Y-39626000D01*
X90206979Y-39613456D01*
X90233912Y-39543295D01*
X90326105Y-39303124D01*
X90331469Y-39291076D01*
X90482388Y-38994880D01*
X90488982Y-38983459D01*
X90670033Y-38704666D01*
X90677779Y-38694004D01*
X90744214Y-38611964D01*
X90886985Y-38435655D01*
X90895810Y-38425855D01*
X91130855Y-38190810D01*
X91140656Y-38181984D01*
X91399004Y-37972779D01*
X91409666Y-37965033D01*
X91688464Y-37783979D01*
X91699880Y-37777388D01*
X91996076Y-37626469D01*
X92008124Y-37621105D01*
X92045642Y-37606703D01*
X92318464Y-37501977D01*
X92331000Y-37497903D01*
X92652098Y-37411865D01*
X92664998Y-37409123D01*
X92753715Y-37395072D01*
X92993335Y-37357120D01*
X93006443Y-37355743D01*
X93302334Y-37340236D01*
X93328312Y-37341564D01*
X93329856Y-37341805D01*
X93329860Y-37341805D01*
X93338730Y-37343186D01*
X93347632Y-37342022D01*
X93347635Y-37342022D01*
X93370251Y-37339064D01*
X93386589Y-37338000D01*
X136475672Y-37338000D01*
X136495057Y-37339500D01*
G37*
%TD.AperFunction*%
%TD*%
M02*
