%TF.GenerationSoftware,KiCad,Pcbnew,(6.0.0)*%
%TF.CreationDate,2022-03-13T18:43:21-04:00*%
%TF.ProjectId,Xc9572 breakout,58633935-3732-4206-9272-65616b6f7574,rev?*%
%TF.SameCoordinates,Original*%
%TF.FileFunction,Legend,Top*%
%TF.FilePolarity,Positive*%
%FSLAX46Y46*%
G04 Gerber Fmt 4.6, Leading zero omitted, Abs format (unit mm)*
G04 Created by KiCad (PCBNEW (6.0.0)) date 2022-03-13 18:43:21*
%MOMM*%
%LPD*%
G01*
G04 APERTURE LIST*
G04 Aperture macros list*
%AMRoundRect*
0 Rectangle with rounded corners*
0 $1 Rounding radius*
0 $2 $3 $4 $5 $6 $7 $8 $9 X,Y pos of 4 corners*
0 Add a 4 corners polygon primitive as box body*
4,1,4,$2,$3,$4,$5,$6,$7,$8,$9,$2,$3,0*
0 Add four circle primitives for the rounded corners*
1,1,$1+$1,$2,$3*
1,1,$1+$1,$4,$5*
1,1,$1+$1,$6,$7*
1,1,$1+$1,$8,$9*
0 Add four rect primitives between the rounded corners*
20,1,$1+$1,$2,$3,$4,$5,0*
20,1,$1+$1,$4,$5,$6,$7,0*
20,1,$1+$1,$6,$7,$8,$9,0*
20,1,$1+$1,$8,$9,$2,$3,0*%
G04 Aperture macros list end*
%ADD10C,0.150000*%
%ADD11C,0.100000*%
%ADD12C,0.120000*%
%ADD13R,1.700000X1.700000*%
%ADD14C,3.200000*%
%ADD15O,1.700000X1.700000*%
%ADD16RoundRect,0.225000X-0.250000X0.225000X-0.250000X-0.225000X0.250000X-0.225000X0.250000X0.225000X0*%
%ADD17R,0.700000X1.925000*%
%ADD18R,1.925000X0.700000*%
G04 APERTURE END LIST*
D10*
X95159580Y-51533133D02*
X96159580Y-51199800D01*
X95159580Y-50866466D01*
X96111961Y-50104561D02*
X96159580Y-50199800D01*
X96159580Y-50390276D01*
X96111961Y-50485514D01*
X96064342Y-50533133D01*
X95969104Y-50580752D01*
X95683390Y-50580752D01*
X95588152Y-50533133D01*
X95540533Y-50485514D01*
X95492914Y-50390276D01*
X95492914Y-50199800D01*
X95540533Y-50104561D01*
X96111961Y-49247419D02*
X96159580Y-49342657D01*
X96159580Y-49533133D01*
X96111961Y-49628371D01*
X96064342Y-49675990D01*
X95969104Y-49723609D01*
X95683390Y-49723609D01*
X95588152Y-49675990D01*
X95540533Y-49628371D01*
X95492914Y-49533133D01*
X95492914Y-49342657D01*
X95540533Y-49247419D01*
X96159580Y-48056942D02*
X95159580Y-48056942D01*
X95159580Y-47390276D02*
X95159580Y-47199800D01*
X95207200Y-47104561D01*
X95302438Y-47009323D01*
X95492914Y-46961704D01*
X95826247Y-46961704D01*
X96016723Y-47009323D01*
X96111961Y-47104561D01*
X96159580Y-47199800D01*
X96159580Y-47390276D01*
X96111961Y-47485514D01*
X96016723Y-47580752D01*
X95826247Y-47628371D01*
X95492914Y-47628371D01*
X95302438Y-47580752D01*
X95207200Y-47485514D01*
X95159580Y-47390276D01*
X119380000Y-52157380D02*
X119380000Y-52395476D01*
X119141904Y-52300238D02*
X119380000Y-52395476D01*
X119618095Y-52300238D01*
X119237142Y-52585952D02*
X119380000Y-52395476D01*
X119522857Y-52585952D01*
X92543380Y-51761685D02*
X93543380Y-51428352D01*
X92543380Y-51095019D01*
X93495761Y-50333114D02*
X93543380Y-50428352D01*
X93543380Y-50618828D01*
X93495761Y-50714066D01*
X93448142Y-50761685D01*
X93352904Y-50809304D01*
X93067190Y-50809304D01*
X92971952Y-50761685D01*
X92924333Y-50714066D01*
X92876714Y-50618828D01*
X92876714Y-50428352D01*
X92924333Y-50333114D01*
X93495761Y-49475971D02*
X93543380Y-49571209D01*
X93543380Y-49761685D01*
X93495761Y-49856923D01*
X93448142Y-49904542D01*
X93352904Y-49952161D01*
X93067190Y-49952161D01*
X92971952Y-49904542D01*
X92924333Y-49856923D01*
X92876714Y-49761685D01*
X92876714Y-49571209D01*
X92924333Y-49475971D01*
X93543380Y-48285495D02*
X92543380Y-48285495D01*
X93543380Y-47809304D02*
X92543380Y-47809304D01*
X93543380Y-47237876D01*
X92543380Y-47237876D01*
X92543380Y-46904542D02*
X92543380Y-46333114D01*
X93543380Y-46618828D02*
X92543380Y-46618828D01*
X97155000Y-69937380D02*
X97155000Y-70175476D01*
X96916904Y-70080238D02*
X97155000Y-70175476D01*
X97393095Y-70080238D01*
X97012142Y-70365952D02*
X97155000Y-70175476D01*
X97297857Y-70365952D01*
X92813333Y-70572380D02*
X92813333Y-71286666D01*
X92765714Y-71429523D01*
X92670476Y-71524761D01*
X92527619Y-71572380D01*
X92432380Y-71572380D01*
X93146666Y-70572380D02*
X93718095Y-70572380D01*
X93432380Y-71572380D02*
X93432380Y-70572380D01*
X94003809Y-71286666D02*
X94480000Y-71286666D01*
X93908571Y-71572380D02*
X94241904Y-70572380D01*
X94575238Y-71572380D01*
X95432380Y-70620000D02*
X95337142Y-70572380D01*
X95194285Y-70572380D01*
X95051428Y-70620000D01*
X94956190Y-70715238D01*
X94908571Y-70810476D01*
X94860952Y-71000952D01*
X94860952Y-71143809D01*
X94908571Y-71334285D01*
X94956190Y-71429523D01*
X95051428Y-71524761D01*
X95194285Y-71572380D01*
X95289523Y-71572380D01*
X95432380Y-71524761D01*
X95480000Y-71477142D01*
X95480000Y-71143809D01*
X95289523Y-71143809D01*
D11*
%TO.C,J22*%
X133905200Y-45428733D02*
X133938533Y-45395400D01*
X134005200Y-45362066D01*
X134171866Y-45362066D01*
X134238533Y-45395400D01*
X134271866Y-45428733D01*
X134305200Y-45495400D01*
X134305200Y-45562066D01*
X134271866Y-45662066D01*
X133871866Y-46062066D01*
X134305200Y-46062066D01*
X134605200Y-45795400D02*
X135138533Y-45795400D01*
X135838533Y-46062066D02*
X135438533Y-46062066D01*
X135638533Y-46062066D02*
X135638533Y-45362066D01*
X135571866Y-45462066D01*
X135505200Y-45528733D01*
X135438533Y-45562066D01*
X136505200Y-46062066D02*
X136105200Y-46062066D01*
X136305200Y-46062066D02*
X136305200Y-45362066D01*
X136238533Y-45462066D01*
X136171866Y-45528733D01*
X136105200Y-45562066D01*
X137305200Y-45328733D02*
X136705200Y-46228733D01*
X137905200Y-45395400D02*
X137838533Y-45362066D01*
X137738533Y-45362066D01*
X137638533Y-45395400D01*
X137571866Y-45462066D01*
X137538533Y-45528733D01*
X137505200Y-45662066D01*
X137505200Y-45762066D01*
X137538533Y-45895400D01*
X137571866Y-45962066D01*
X137638533Y-46028733D01*
X137738533Y-46062066D01*
X137805200Y-46062066D01*
X137905200Y-46028733D01*
X137938533Y-45995400D01*
X137938533Y-45762066D01*
X137805200Y-45762066D01*
X138138533Y-45362066D02*
X138538533Y-45362066D01*
X138338533Y-46062066D02*
X138338533Y-45362066D01*
X138738533Y-46028733D02*
X138838533Y-46062066D01*
X139005200Y-46062066D01*
X139071866Y-46028733D01*
X139105200Y-45995400D01*
X139138533Y-45928733D01*
X139138533Y-45862066D01*
X139105200Y-45795400D01*
X139071866Y-45762066D01*
X139005200Y-45728733D01*
X138871866Y-45695400D01*
X138805200Y-45662066D01*
X138771866Y-45628733D01*
X138738533Y-45562066D01*
X138738533Y-45495400D01*
X138771866Y-45428733D01*
X138805200Y-45395400D01*
X138871866Y-45362066D01*
X139038533Y-45362066D01*
X139138533Y-45395400D01*
X139405200Y-45428733D02*
X139438533Y-45395400D01*
X139505200Y-45362066D01*
X139671866Y-45362066D01*
X139738533Y-45395400D01*
X139771866Y-45428733D01*
X139805200Y-45495400D01*
X139805200Y-45562066D01*
X139771866Y-45662066D01*
X139371866Y-46062066D01*
X139805200Y-46062066D01*
%TO.C,J12*%
X109443333Y-48366666D02*
X109043333Y-48366666D01*
X109243333Y-48366666D02*
X109243333Y-47666666D01*
X109176666Y-47766666D01*
X109110000Y-47833333D01*
X109043333Y-47866666D01*
X109743333Y-48100000D02*
X110276666Y-48100000D01*
X110643333Y-48366666D02*
X110776666Y-48366666D01*
X110843333Y-48333333D01*
X110876666Y-48300000D01*
X110943333Y-48200000D01*
X110976666Y-48066666D01*
X110976666Y-47800000D01*
X110943333Y-47733333D01*
X110910000Y-47700000D01*
X110843333Y-47666666D01*
X110710000Y-47666666D01*
X110643333Y-47700000D01*
X110610000Y-47733333D01*
X110576666Y-47800000D01*
X110576666Y-47966666D01*
X110610000Y-48033333D01*
X110643333Y-48066666D01*
X110710000Y-48100000D01*
X110843333Y-48100000D01*
X110910000Y-48066666D01*
X110943333Y-48033333D01*
X110976666Y-47966666D01*
X111776666Y-47633333D02*
X111176666Y-48533333D01*
X112376666Y-47700000D02*
X112310000Y-47666666D01*
X112210000Y-47666666D01*
X112110000Y-47700000D01*
X112043333Y-47766666D01*
X112010000Y-47833333D01*
X111976666Y-47966666D01*
X111976666Y-48066666D01*
X112010000Y-48200000D01*
X112043333Y-48266666D01*
X112110000Y-48333333D01*
X112210000Y-48366666D01*
X112276666Y-48366666D01*
X112376666Y-48333333D01*
X112410000Y-48300000D01*
X112410000Y-48066666D01*
X112276666Y-48066666D01*
X113110000Y-48300000D02*
X113076666Y-48333333D01*
X112976666Y-48366666D01*
X112910000Y-48366666D01*
X112810000Y-48333333D01*
X112743333Y-48266666D01*
X112710000Y-48200000D01*
X112676666Y-48066666D01*
X112676666Y-47966666D01*
X112710000Y-47833333D01*
X112743333Y-47766666D01*
X112810000Y-47700000D01*
X112910000Y-47666666D01*
X112976666Y-47666666D01*
X113076666Y-47700000D01*
X113110000Y-47733333D01*
X113410000Y-48366666D02*
X113410000Y-47666666D01*
X113810000Y-48366666D02*
X113510000Y-47966666D01*
X113810000Y-47666666D02*
X113410000Y-48066666D01*
X114476666Y-48366666D02*
X114076666Y-48366666D01*
X114276666Y-48366666D02*
X114276666Y-47666666D01*
X114210000Y-47766666D01*
X114143333Y-47833333D01*
X114076666Y-47866666D01*
%TO.C,J16*%
X105780000Y-58526666D02*
X105380000Y-58526666D01*
X105580000Y-58526666D02*
X105580000Y-57826666D01*
X105513333Y-57926666D01*
X105446666Y-57993333D01*
X105380000Y-58026666D01*
X106080000Y-58260000D02*
X106613333Y-58260000D01*
X107313333Y-58526666D02*
X106913333Y-58526666D01*
X107113333Y-58526666D02*
X107113333Y-57826666D01*
X107046666Y-57926666D01*
X106980000Y-57993333D01*
X106913333Y-58026666D01*
X107546666Y-57826666D02*
X108013333Y-57826666D01*
X107713333Y-58526666D01*
%TO.C,J8*%
X121353333Y-48366666D02*
X120953333Y-48366666D01*
X121153333Y-48366666D02*
X121153333Y-47666666D01*
X121086666Y-47766666D01*
X121020000Y-47833333D01*
X120953333Y-47866666D01*
X121653333Y-48100000D02*
X122186666Y-48100000D01*
X122486666Y-47733333D02*
X122520000Y-47700000D01*
X122586666Y-47666666D01*
X122753333Y-47666666D01*
X122820000Y-47700000D01*
X122853333Y-47733333D01*
X122886666Y-47800000D01*
X122886666Y-47866666D01*
X122853333Y-47966666D01*
X122453333Y-48366666D01*
X122886666Y-48366666D01*
%TO.C,J24*%
X125700000Y-47733333D02*
X125733333Y-47700000D01*
X125800000Y-47666666D01*
X125966666Y-47666666D01*
X126033333Y-47700000D01*
X126066666Y-47733333D01*
X126100000Y-47800000D01*
X126100000Y-47866666D01*
X126066666Y-47966666D01*
X125666666Y-48366666D01*
X126100000Y-48366666D01*
X126400000Y-48100000D02*
X126933333Y-48100000D01*
X127633333Y-48366666D02*
X127233333Y-48366666D01*
X127433333Y-48366666D02*
X127433333Y-47666666D01*
X127366666Y-47766666D01*
X127300000Y-47833333D01*
X127233333Y-47866666D01*
X128266666Y-47666666D02*
X127933333Y-47666666D01*
X127900000Y-48000000D01*
X127933333Y-47966666D01*
X128000000Y-47933333D01*
X128166666Y-47933333D01*
X128233333Y-47966666D01*
X128266666Y-48000000D01*
X128300000Y-48066666D01*
X128300000Y-48233333D01*
X128266666Y-48300000D01*
X128233333Y-48333333D01*
X128166666Y-48366666D01*
X128000000Y-48366666D01*
X127933333Y-48333333D01*
X127900000Y-48300000D01*
%TO.C,J30*%
X107886666Y-78146666D02*
X108320000Y-78146666D01*
X108086666Y-78413333D01*
X108186666Y-78413333D01*
X108253333Y-78446666D01*
X108286666Y-78480000D01*
X108320000Y-78546666D01*
X108320000Y-78713333D01*
X108286666Y-78780000D01*
X108253333Y-78813333D01*
X108186666Y-78846666D01*
X107986666Y-78846666D01*
X107920000Y-78813333D01*
X107886666Y-78780000D01*
X108620000Y-78580000D02*
X109153333Y-78580000D01*
X109853333Y-78846666D02*
X109453333Y-78846666D01*
X109653333Y-78846666D02*
X109653333Y-78146666D01*
X109586666Y-78246666D01*
X109520000Y-78313333D01*
X109453333Y-78346666D01*
X110520000Y-78846666D02*
X110120000Y-78846666D01*
X110320000Y-78846666D02*
X110320000Y-78146666D01*
X110253333Y-78246666D01*
X110186666Y-78313333D01*
X110120000Y-78346666D01*
%TO.C,J27*%
X105680000Y-62906666D02*
X106113333Y-62906666D01*
X105880000Y-63173333D01*
X105980000Y-63173333D01*
X106046666Y-63206666D01*
X106080000Y-63240000D01*
X106113333Y-63306666D01*
X106113333Y-63473333D01*
X106080000Y-63540000D01*
X106046666Y-63573333D01*
X105980000Y-63606666D01*
X105780000Y-63606666D01*
X105713333Y-63573333D01*
X105680000Y-63540000D01*
X106413333Y-63340000D02*
X106946666Y-63340000D01*
X107613333Y-62906666D02*
X107280000Y-62906666D01*
X107246666Y-63240000D01*
X107280000Y-63206666D01*
X107346666Y-63173333D01*
X107513333Y-63173333D01*
X107580000Y-63206666D01*
X107613333Y-63240000D01*
X107646666Y-63306666D01*
X107646666Y-63473333D01*
X107613333Y-63540000D01*
X107580000Y-63573333D01*
X107513333Y-63606666D01*
X107346666Y-63606666D01*
X107280000Y-63573333D01*
X107246666Y-63540000D01*
%TO.C,J9*%
X118813333Y-43286666D02*
X118413333Y-43286666D01*
X118613333Y-43286666D02*
X118613333Y-42586666D01*
X118546666Y-42686666D01*
X118480000Y-42753333D01*
X118413333Y-42786666D01*
X119113333Y-43020000D02*
X119646666Y-43020000D01*
X120313333Y-42586666D02*
X119980000Y-42586666D01*
X119946666Y-42920000D01*
X119980000Y-42886666D01*
X120046666Y-42853333D01*
X120213333Y-42853333D01*
X120280000Y-42886666D01*
X120313333Y-42920000D01*
X120346666Y-42986666D01*
X120346666Y-43153333D01*
X120313333Y-43220000D01*
X120280000Y-43253333D01*
X120213333Y-43286666D01*
X120046666Y-43286666D01*
X119980000Y-43253333D01*
X119946666Y-43220000D01*
%TO.C,J21*%
X129713333Y-52178333D02*
X129746666Y-52145000D01*
X129813333Y-52111666D01*
X129980000Y-52111666D01*
X130046666Y-52145000D01*
X130080000Y-52178333D01*
X130113333Y-52245000D01*
X130113333Y-52311666D01*
X130080000Y-52411666D01*
X129680000Y-52811666D01*
X130113333Y-52811666D01*
X130413333Y-52545000D02*
X130946666Y-52545000D01*
X131313333Y-52811666D02*
X131446666Y-52811666D01*
X131513333Y-52778333D01*
X131546666Y-52745000D01*
X131613333Y-52645000D01*
X131646666Y-52511666D01*
X131646666Y-52245000D01*
X131613333Y-52178333D01*
X131580000Y-52145000D01*
X131513333Y-52111666D01*
X131380000Y-52111666D01*
X131313333Y-52145000D01*
X131280000Y-52178333D01*
X131246666Y-52245000D01*
X131246666Y-52411666D01*
X131280000Y-52478333D01*
X131313333Y-52511666D01*
X131380000Y-52545000D01*
X131513333Y-52545000D01*
X131580000Y-52511666D01*
X131613333Y-52478333D01*
X131646666Y-52411666D01*
X132446666Y-52078333D02*
X131846666Y-52978333D01*
X133046666Y-52145000D02*
X132980000Y-52111666D01*
X132880000Y-52111666D01*
X132780000Y-52145000D01*
X132713333Y-52211666D01*
X132680000Y-52278333D01*
X132646666Y-52411666D01*
X132646666Y-52511666D01*
X132680000Y-52645000D01*
X132713333Y-52711666D01*
X132780000Y-52778333D01*
X132880000Y-52811666D01*
X132946666Y-52811666D01*
X133046666Y-52778333D01*
X133080000Y-52745000D01*
X133080000Y-52511666D01*
X132946666Y-52511666D01*
X133346666Y-52778333D02*
X133446666Y-52811666D01*
X133613333Y-52811666D01*
X133680000Y-52778333D01*
X133713333Y-52745000D01*
X133746666Y-52678333D01*
X133746666Y-52611666D01*
X133713333Y-52545000D01*
X133680000Y-52511666D01*
X133613333Y-52478333D01*
X133480000Y-52445000D01*
X133413333Y-52411666D01*
X133380000Y-52378333D01*
X133346666Y-52311666D01*
X133346666Y-52245000D01*
X133380000Y-52178333D01*
X133413333Y-52145000D01*
X133480000Y-52111666D01*
X133646666Y-52111666D01*
X133746666Y-52145000D01*
X134446666Y-52811666D02*
X134213333Y-52478333D01*
X134046666Y-52811666D02*
X134046666Y-52111666D01*
X134313333Y-52111666D01*
X134380000Y-52145000D01*
X134413333Y-52178333D01*
X134446666Y-52245000D01*
X134446666Y-52345000D01*
X134413333Y-52411666D01*
X134380000Y-52445000D01*
X134313333Y-52478333D01*
X134046666Y-52478333D01*
%TO.C,J10*%
X116273333Y-48366666D02*
X115873333Y-48366666D01*
X116073333Y-48366666D02*
X116073333Y-47666666D01*
X116006666Y-47766666D01*
X115940000Y-47833333D01*
X115873333Y-47866666D01*
X116573333Y-48100000D02*
X117106666Y-48100000D01*
X117740000Y-47666666D02*
X117606666Y-47666666D01*
X117540000Y-47700000D01*
X117506666Y-47733333D01*
X117440000Y-47833333D01*
X117406666Y-47966666D01*
X117406666Y-48233333D01*
X117440000Y-48300000D01*
X117473333Y-48333333D01*
X117540000Y-48366666D01*
X117673333Y-48366666D01*
X117740000Y-48333333D01*
X117773333Y-48300000D01*
X117806666Y-48233333D01*
X117806666Y-48066666D01*
X117773333Y-48000000D01*
X117740000Y-47966666D01*
X117673333Y-47933333D01*
X117540000Y-47933333D01*
X117473333Y-47966666D01*
X117440000Y-48000000D01*
X117406666Y-48066666D01*
%TO.C,J35*%
X121286666Y-73300000D02*
X121286666Y-73766666D01*
X121120000Y-73033333D02*
X120953333Y-73533333D01*
X121386666Y-73533333D01*
X121653333Y-73500000D02*
X122186666Y-73500000D01*
X122853333Y-73066666D02*
X122520000Y-73066666D01*
X122486666Y-73400000D01*
X122520000Y-73366666D01*
X122586666Y-73333333D01*
X122753333Y-73333333D01*
X122820000Y-73366666D01*
X122853333Y-73400000D01*
X122886666Y-73466666D01*
X122886666Y-73633333D01*
X122853333Y-73700000D01*
X122820000Y-73733333D01*
X122753333Y-73766666D01*
X122586666Y-73766666D01*
X122520000Y-73733333D01*
X122486666Y-73700000D01*
D10*
%TO.C,C2*%
X91892380Y-47623219D02*
X91892380Y-48194647D01*
X91892380Y-47908933D02*
X90892380Y-47908933D01*
X91035238Y-48004171D01*
X91130476Y-48099409D01*
X91178095Y-48194647D01*
X90892380Y-47004171D02*
X90892380Y-46908933D01*
X90940000Y-46813695D01*
X90987619Y-46766076D01*
X91082857Y-46718457D01*
X91273333Y-46670838D01*
X91511428Y-46670838D01*
X91701904Y-46718457D01*
X91797142Y-46766076D01*
X91844761Y-46813695D01*
X91892380Y-46908933D01*
X91892380Y-47004171D01*
X91844761Y-47099409D01*
X91797142Y-47147028D01*
X91701904Y-47194647D01*
X91511428Y-47242266D01*
X91273333Y-47242266D01*
X91082857Y-47194647D01*
X90987619Y-47147028D01*
X90940000Y-47099409D01*
X90892380Y-47004171D01*
X90892380Y-46051790D02*
X90892380Y-45956552D01*
X90940000Y-45861314D01*
X90987619Y-45813695D01*
X91082857Y-45766076D01*
X91273333Y-45718457D01*
X91511428Y-45718457D01*
X91701904Y-45766076D01*
X91797142Y-45813695D01*
X91844761Y-45861314D01*
X91892380Y-45956552D01*
X91892380Y-46051790D01*
X91844761Y-46147028D01*
X91797142Y-46194647D01*
X91701904Y-46242266D01*
X91511428Y-46289885D01*
X91273333Y-46289885D01*
X91082857Y-46242266D01*
X90987619Y-46194647D01*
X90940000Y-46147028D01*
X90892380Y-46051790D01*
X91225714Y-45289885D02*
X91892380Y-45289885D01*
X91320952Y-45289885D02*
X91273333Y-45242266D01*
X91225714Y-45147028D01*
X91225714Y-45004171D01*
X91273333Y-44908933D01*
X91368571Y-44861314D01*
X91892380Y-44861314D01*
X91368571Y-44051790D02*
X91368571Y-44385123D01*
X91892380Y-44385123D02*
X90892380Y-44385123D01*
X90892380Y-43908933D01*
D11*
%TO.C,J7*%
X106230000Y-47700000D02*
X106163333Y-47666666D01*
X106063333Y-47666666D01*
X105963333Y-47700000D01*
X105896666Y-47766666D01*
X105863333Y-47833333D01*
X105830000Y-47966666D01*
X105830000Y-48066666D01*
X105863333Y-48200000D01*
X105896666Y-48266666D01*
X105963333Y-48333333D01*
X106063333Y-48366666D01*
X106130000Y-48366666D01*
X106230000Y-48333333D01*
X106263333Y-48300000D01*
X106263333Y-48066666D01*
X106130000Y-48066666D01*
X106563333Y-47900000D02*
X106563333Y-48366666D01*
X106563333Y-47966666D02*
X106596666Y-47933333D01*
X106663333Y-47900000D01*
X106763333Y-47900000D01*
X106830000Y-47933333D01*
X106863333Y-48000000D01*
X106863333Y-48366666D01*
X107496666Y-48366666D02*
X107496666Y-47666666D01*
X107496666Y-48333333D02*
X107430000Y-48366666D01*
X107296666Y-48366666D01*
X107230000Y-48333333D01*
X107196666Y-48300000D01*
X107163333Y-48233333D01*
X107163333Y-48033333D01*
X107196666Y-47966666D01*
X107230000Y-47933333D01*
X107296666Y-47900000D01*
X107430000Y-47900000D01*
X107496666Y-47933333D01*
%TO.C,J28*%
X100600000Y-65446666D02*
X101033333Y-65446666D01*
X100800000Y-65713333D01*
X100900000Y-65713333D01*
X100966666Y-65746666D01*
X101000000Y-65780000D01*
X101033333Y-65846666D01*
X101033333Y-66013333D01*
X101000000Y-66080000D01*
X100966666Y-66113333D01*
X100900000Y-66146666D01*
X100700000Y-66146666D01*
X100633333Y-66113333D01*
X100600000Y-66080000D01*
X101333333Y-65880000D02*
X101866666Y-65880000D01*
X102300000Y-65746666D02*
X102233333Y-65713333D01*
X102200000Y-65680000D01*
X102166666Y-65613333D01*
X102166666Y-65580000D01*
X102200000Y-65513333D01*
X102233333Y-65480000D01*
X102300000Y-65446666D01*
X102433333Y-65446666D01*
X102500000Y-65480000D01*
X102533333Y-65513333D01*
X102566666Y-65580000D01*
X102566666Y-65613333D01*
X102533333Y-65680000D01*
X102500000Y-65713333D01*
X102433333Y-65746666D01*
X102300000Y-65746666D01*
X102233333Y-65780000D01*
X102200000Y-65813333D01*
X102166666Y-65880000D01*
X102166666Y-66013333D01*
X102200000Y-66080000D01*
X102233333Y-66113333D01*
X102300000Y-66146666D01*
X102433333Y-66146666D01*
X102500000Y-66113333D01*
X102533333Y-66080000D01*
X102566666Y-66013333D01*
X102566666Y-65880000D01*
X102533333Y-65813333D01*
X102500000Y-65780000D01*
X102433333Y-65746666D01*
%TO.C,J5*%
X106580000Y-73066666D02*
X106246666Y-73066666D01*
X106213333Y-73400000D01*
X106246666Y-73366666D01*
X106313333Y-73333333D01*
X106480000Y-73333333D01*
X106546666Y-73366666D01*
X106580000Y-73400000D01*
X106613333Y-73466666D01*
X106613333Y-73633333D01*
X106580000Y-73700000D01*
X106546666Y-73733333D01*
X106480000Y-73766666D01*
X106313333Y-73766666D01*
X106246666Y-73733333D01*
X106213333Y-73700000D01*
X106846666Y-73300000D02*
X107013333Y-73766666D01*
X107180000Y-73300000D01*
%TO.C,J32*%
X112966666Y-78146666D02*
X113400000Y-78146666D01*
X113166666Y-78413333D01*
X113266666Y-78413333D01*
X113333333Y-78446666D01*
X113366666Y-78480000D01*
X113400000Y-78546666D01*
X113400000Y-78713333D01*
X113366666Y-78780000D01*
X113333333Y-78813333D01*
X113266666Y-78846666D01*
X113066666Y-78846666D01*
X113000000Y-78813333D01*
X112966666Y-78780000D01*
X113700000Y-78580000D02*
X114233333Y-78580000D01*
X114933333Y-78846666D02*
X114533333Y-78846666D01*
X114733333Y-78846666D02*
X114733333Y-78146666D01*
X114666666Y-78246666D01*
X114600000Y-78313333D01*
X114533333Y-78346666D01*
X115566666Y-78146666D02*
X115233333Y-78146666D01*
X115200000Y-78480000D01*
X115233333Y-78446666D01*
X115300000Y-78413333D01*
X115466666Y-78413333D01*
X115533333Y-78446666D01*
X115566666Y-78480000D01*
X115600000Y-78546666D01*
X115600000Y-78713333D01*
X115566666Y-78780000D01*
X115533333Y-78813333D01*
X115466666Y-78846666D01*
X115300000Y-78846666D01*
X115233333Y-78813333D01*
X115200000Y-78780000D01*
%TO.C,J40*%
X131113333Y-68220000D02*
X131113333Y-68686666D01*
X130946666Y-67953333D02*
X130780000Y-68453333D01*
X131213333Y-68453333D01*
X131480000Y-68420000D02*
X132013333Y-68420000D01*
X132713333Y-68686666D02*
X132313333Y-68686666D01*
X132513333Y-68686666D02*
X132513333Y-67986666D01*
X132446666Y-68086666D01*
X132380000Y-68153333D01*
X132313333Y-68186666D01*
X133346666Y-67986666D02*
X133013333Y-67986666D01*
X132980000Y-68320000D01*
X133013333Y-68286666D01*
X133080000Y-68253333D01*
X133246666Y-68253333D01*
X133313333Y-68286666D01*
X133346666Y-68320000D01*
X133380000Y-68386666D01*
X133380000Y-68553333D01*
X133346666Y-68620000D01*
X133313333Y-68653333D01*
X133246666Y-68686666D01*
X133080000Y-68686666D01*
X133013333Y-68653333D01*
X132980000Y-68620000D01*
%TO.C,J20*%
X136193333Y-55353333D02*
X136226666Y-55320000D01*
X136293333Y-55286666D01*
X136460000Y-55286666D01*
X136526666Y-55320000D01*
X136560000Y-55353333D01*
X136593333Y-55420000D01*
X136593333Y-55486666D01*
X136560000Y-55586666D01*
X136160000Y-55986666D01*
X136593333Y-55986666D01*
X136893333Y-55720000D02*
X137426666Y-55720000D01*
X137860000Y-55586666D02*
X137793333Y-55553333D01*
X137760000Y-55520000D01*
X137726666Y-55453333D01*
X137726666Y-55420000D01*
X137760000Y-55353333D01*
X137793333Y-55320000D01*
X137860000Y-55286666D01*
X137993333Y-55286666D01*
X138060000Y-55320000D01*
X138093333Y-55353333D01*
X138126666Y-55420000D01*
X138126666Y-55453333D01*
X138093333Y-55520000D01*
X138060000Y-55553333D01*
X137993333Y-55586666D01*
X137860000Y-55586666D01*
X137793333Y-55620000D01*
X137760000Y-55653333D01*
X137726666Y-55720000D01*
X137726666Y-55853333D01*
X137760000Y-55920000D01*
X137793333Y-55953333D01*
X137860000Y-55986666D01*
X137993333Y-55986666D01*
X138060000Y-55953333D01*
X138093333Y-55920000D01*
X138126666Y-55853333D01*
X138126666Y-55720000D01*
X138093333Y-55653333D01*
X138060000Y-55620000D01*
X137993333Y-55586666D01*
%TO.C,J33*%
X115506666Y-73066666D02*
X115940000Y-73066666D01*
X115706666Y-73333333D01*
X115806666Y-73333333D01*
X115873333Y-73366666D01*
X115906666Y-73400000D01*
X115940000Y-73466666D01*
X115940000Y-73633333D01*
X115906666Y-73700000D01*
X115873333Y-73733333D01*
X115806666Y-73766666D01*
X115606666Y-73766666D01*
X115540000Y-73733333D01*
X115506666Y-73700000D01*
X116240000Y-73500000D02*
X116773333Y-73500000D01*
X117473333Y-73766666D02*
X117073333Y-73766666D01*
X117273333Y-73766666D02*
X117273333Y-73066666D01*
X117206666Y-73166666D01*
X117140000Y-73233333D01*
X117073333Y-73266666D01*
X117706666Y-73066666D02*
X118173333Y-73066666D01*
X117873333Y-73766666D01*
%TO.C,J34*%
X118746666Y-78380000D02*
X118746666Y-78846666D01*
X118580000Y-78113333D02*
X118413333Y-78613333D01*
X118846666Y-78613333D01*
X119113333Y-78580000D02*
X119646666Y-78580000D01*
X119946666Y-78213333D02*
X119980000Y-78180000D01*
X120046666Y-78146666D01*
X120213333Y-78146666D01*
X120280000Y-78180000D01*
X120313333Y-78213333D01*
X120346666Y-78280000D01*
X120346666Y-78346666D01*
X120313333Y-78446666D01*
X119913333Y-78846666D01*
X120346666Y-78846666D01*
%TO.C,J14*%
X104030000Y-53446666D02*
X103630000Y-53446666D01*
X103830000Y-53446666D02*
X103830000Y-52746666D01*
X103763333Y-52846666D01*
X103696666Y-52913333D01*
X103630000Y-52946666D01*
X104330000Y-53180000D02*
X104863333Y-53180000D01*
X105563333Y-53446666D02*
X105163333Y-53446666D01*
X105363333Y-53446666D02*
X105363333Y-52746666D01*
X105296666Y-52846666D01*
X105230000Y-52913333D01*
X105163333Y-52946666D01*
X106163333Y-52980000D02*
X106163333Y-53446666D01*
X105996666Y-52713333D02*
X105830000Y-53213333D01*
X106263333Y-53213333D01*
X107030000Y-52713333D02*
X106430000Y-53613333D01*
X107630000Y-52780000D02*
X107563333Y-52746666D01*
X107463333Y-52746666D01*
X107363333Y-52780000D01*
X107296666Y-52846666D01*
X107263333Y-52913333D01*
X107230000Y-53046666D01*
X107230000Y-53146666D01*
X107263333Y-53280000D01*
X107296666Y-53346666D01*
X107363333Y-53413333D01*
X107463333Y-53446666D01*
X107530000Y-53446666D01*
X107630000Y-53413333D01*
X107663333Y-53380000D01*
X107663333Y-53146666D01*
X107530000Y-53146666D01*
X108363333Y-53380000D02*
X108330000Y-53413333D01*
X108230000Y-53446666D01*
X108163333Y-53446666D01*
X108063333Y-53413333D01*
X107996666Y-53346666D01*
X107963333Y-53280000D01*
X107930000Y-53146666D01*
X107930000Y-53046666D01*
X107963333Y-52913333D01*
X107996666Y-52846666D01*
X108063333Y-52780000D01*
X108163333Y-52746666D01*
X108230000Y-52746666D01*
X108330000Y-52780000D01*
X108363333Y-52813333D01*
X108663333Y-53446666D02*
X108663333Y-52746666D01*
X109063333Y-53446666D02*
X108763333Y-53046666D01*
X109063333Y-52746666D02*
X108663333Y-53146666D01*
X109296666Y-52746666D02*
X109730000Y-52746666D01*
X109496666Y-53013333D01*
X109596666Y-53013333D01*
X109663333Y-53046666D01*
X109696666Y-53080000D01*
X109730000Y-53146666D01*
X109730000Y-53313333D01*
X109696666Y-53380000D01*
X109663333Y-53413333D01*
X109596666Y-53446666D01*
X109396666Y-53446666D01*
X109330000Y-53413333D01*
X109296666Y-53380000D01*
%TO.C,J29*%
X105680000Y-67986666D02*
X106113333Y-67986666D01*
X105880000Y-68253333D01*
X105980000Y-68253333D01*
X106046666Y-68286666D01*
X106080000Y-68320000D01*
X106113333Y-68386666D01*
X106113333Y-68553333D01*
X106080000Y-68620000D01*
X106046666Y-68653333D01*
X105980000Y-68686666D01*
X105780000Y-68686666D01*
X105713333Y-68653333D01*
X105680000Y-68620000D01*
X106413333Y-68420000D02*
X106946666Y-68420000D01*
X107313333Y-68686666D02*
X107446666Y-68686666D01*
X107513333Y-68653333D01*
X107546666Y-68620000D01*
X107613333Y-68520000D01*
X107646666Y-68386666D01*
X107646666Y-68120000D01*
X107613333Y-68053333D01*
X107580000Y-68020000D01*
X107513333Y-67986666D01*
X107380000Y-67986666D01*
X107313333Y-68020000D01*
X107280000Y-68053333D01*
X107246666Y-68120000D01*
X107246666Y-68286666D01*
X107280000Y-68353333D01*
X107313333Y-68386666D01*
X107380000Y-68420000D01*
X107513333Y-68420000D01*
X107580000Y-68386666D01*
X107613333Y-68353333D01*
X107646666Y-68286666D01*
%TO.C,J3*%
X99966666Y-50206666D02*
X100200000Y-50906666D01*
X100433333Y-50206666D01*
X100966666Y-50873333D02*
X100900000Y-50906666D01*
X100766666Y-50906666D01*
X100700000Y-50873333D01*
X100666666Y-50840000D01*
X100633333Y-50773333D01*
X100633333Y-50573333D01*
X100666666Y-50506666D01*
X100700000Y-50473333D01*
X100766666Y-50440000D01*
X100900000Y-50440000D01*
X100966666Y-50473333D01*
X101566666Y-50873333D02*
X101500000Y-50906666D01*
X101366666Y-50906666D01*
X101300000Y-50873333D01*
X101266666Y-50840000D01*
X101233333Y-50773333D01*
X101233333Y-50573333D01*
X101266666Y-50506666D01*
X101300000Y-50473333D01*
X101366666Y-50440000D01*
X101500000Y-50440000D01*
X101566666Y-50473333D01*
X102400000Y-50906666D02*
X102400000Y-50206666D01*
X102866666Y-50206666D02*
X103000000Y-50206666D01*
X103066666Y-50240000D01*
X103133333Y-50306666D01*
X103166666Y-50440000D01*
X103166666Y-50673333D01*
X103133333Y-50806666D01*
X103066666Y-50873333D01*
X103000000Y-50906666D01*
X102866666Y-50906666D01*
X102800000Y-50873333D01*
X102733333Y-50806666D01*
X102700000Y-50673333D01*
X102700000Y-50440000D01*
X102733333Y-50306666D01*
X102800000Y-50240000D01*
X102866666Y-50206666D01*
%TO.C,J11*%
X113733333Y-43286666D02*
X113333333Y-43286666D01*
X113533333Y-43286666D02*
X113533333Y-42586666D01*
X113466666Y-42686666D01*
X113400000Y-42753333D01*
X113333333Y-42786666D01*
X114033333Y-43020000D02*
X114566666Y-43020000D01*
X115000000Y-42886666D02*
X114933333Y-42853333D01*
X114900000Y-42820000D01*
X114866666Y-42753333D01*
X114866666Y-42720000D01*
X114900000Y-42653333D01*
X114933333Y-42620000D01*
X115000000Y-42586666D01*
X115133333Y-42586666D01*
X115200000Y-42620000D01*
X115233333Y-42653333D01*
X115266666Y-42720000D01*
X115266666Y-42753333D01*
X115233333Y-42820000D01*
X115200000Y-42853333D01*
X115133333Y-42886666D01*
X115000000Y-42886666D01*
X114933333Y-42920000D01*
X114900000Y-42953333D01*
X114866666Y-43020000D01*
X114866666Y-43153333D01*
X114900000Y-43220000D01*
X114933333Y-43253333D01*
X115000000Y-43286666D01*
X115133333Y-43286666D01*
X115200000Y-43253333D01*
X115233333Y-43220000D01*
X115266666Y-43153333D01*
X115266666Y-43020000D01*
X115233333Y-42953333D01*
X115200000Y-42920000D01*
X115133333Y-42886666D01*
%TO.C,J36*%
X123826666Y-78380000D02*
X123826666Y-78846666D01*
X123660000Y-78113333D02*
X123493333Y-78613333D01*
X123926666Y-78613333D01*
X124193333Y-78580000D02*
X124726666Y-78580000D01*
X125160000Y-78446666D02*
X125093333Y-78413333D01*
X125060000Y-78380000D01*
X125026666Y-78313333D01*
X125026666Y-78280000D01*
X125060000Y-78213333D01*
X125093333Y-78180000D01*
X125160000Y-78146666D01*
X125293333Y-78146666D01*
X125360000Y-78180000D01*
X125393333Y-78213333D01*
X125426666Y-78280000D01*
X125426666Y-78313333D01*
X125393333Y-78380000D01*
X125360000Y-78413333D01*
X125293333Y-78446666D01*
X125160000Y-78446666D01*
X125093333Y-78480000D01*
X125060000Y-78513333D01*
X125026666Y-78580000D01*
X125026666Y-78713333D01*
X125060000Y-78780000D01*
X125093333Y-78813333D01*
X125160000Y-78846666D01*
X125293333Y-78846666D01*
X125360000Y-78813333D01*
X125393333Y-78780000D01*
X125426666Y-78713333D01*
X125426666Y-78580000D01*
X125393333Y-78513333D01*
X125360000Y-78480000D01*
X125293333Y-78446666D01*
D10*
%TO.C,C1*%
X98496380Y-51153819D02*
X98496380Y-51725247D01*
X98496380Y-51439533D02*
X97496380Y-51439533D01*
X97639238Y-51534771D01*
X97734476Y-51630009D01*
X97782095Y-51725247D01*
X97496380Y-50534771D02*
X97496380Y-50439533D01*
X97544000Y-50344295D01*
X97591619Y-50296676D01*
X97686857Y-50249057D01*
X97877333Y-50201438D01*
X98115428Y-50201438D01*
X98305904Y-50249057D01*
X98401142Y-50296676D01*
X98448761Y-50344295D01*
X98496380Y-50439533D01*
X98496380Y-50534771D01*
X98448761Y-50630009D01*
X98401142Y-50677628D01*
X98305904Y-50725247D01*
X98115428Y-50772866D01*
X97877333Y-50772866D01*
X97686857Y-50725247D01*
X97591619Y-50677628D01*
X97544000Y-50630009D01*
X97496380Y-50534771D01*
X97496380Y-49582390D02*
X97496380Y-49487152D01*
X97544000Y-49391914D01*
X97591619Y-49344295D01*
X97686857Y-49296676D01*
X97877333Y-49249057D01*
X98115428Y-49249057D01*
X98305904Y-49296676D01*
X98401142Y-49344295D01*
X98448761Y-49391914D01*
X98496380Y-49487152D01*
X98496380Y-49582390D01*
X98448761Y-49677628D01*
X98401142Y-49725247D01*
X98305904Y-49772866D01*
X98115428Y-49820485D01*
X97877333Y-49820485D01*
X97686857Y-49772866D01*
X97591619Y-49725247D01*
X97544000Y-49677628D01*
X97496380Y-49582390D01*
X97829714Y-48820485D02*
X98496380Y-48820485D01*
X97924952Y-48820485D02*
X97877333Y-48772866D01*
X97829714Y-48677628D01*
X97829714Y-48534771D01*
X97877333Y-48439533D01*
X97972571Y-48391914D01*
X98496380Y-48391914D01*
X97972571Y-47582390D02*
X97972571Y-47915723D01*
X98496380Y-47915723D02*
X97496380Y-47915723D01*
X97496380Y-47439533D01*
D11*
%TO.C,J41*%
X136193333Y-65680000D02*
X136193333Y-66146666D01*
X136026666Y-65413333D02*
X135860000Y-65913333D01*
X136293333Y-65913333D01*
X136560000Y-65880000D02*
X137093333Y-65880000D01*
X137793333Y-66146666D02*
X137393333Y-66146666D01*
X137593333Y-66146666D02*
X137593333Y-65446666D01*
X137526666Y-65546666D01*
X137460000Y-65613333D01*
X137393333Y-65646666D01*
X138026666Y-65446666D02*
X138493333Y-65446666D01*
X138193333Y-66146666D01*
%TO.C,J19*%
X131113333Y-57893333D02*
X131146666Y-57860000D01*
X131213333Y-57826666D01*
X131380000Y-57826666D01*
X131446666Y-57860000D01*
X131480000Y-57893333D01*
X131513333Y-57960000D01*
X131513333Y-58026666D01*
X131480000Y-58126666D01*
X131080000Y-58526666D01*
X131513333Y-58526666D01*
X131813333Y-58260000D02*
X132346666Y-58260000D01*
X132980000Y-57826666D02*
X132846666Y-57826666D01*
X132780000Y-57860000D01*
X132746666Y-57893333D01*
X132680000Y-57993333D01*
X132646666Y-58126666D01*
X132646666Y-58393333D01*
X132680000Y-58460000D01*
X132713333Y-58493333D01*
X132780000Y-58526666D01*
X132913333Y-58526666D01*
X132980000Y-58493333D01*
X133013333Y-58460000D01*
X133046666Y-58393333D01*
X133046666Y-58226666D01*
X133013333Y-58160000D01*
X132980000Y-58126666D01*
X132913333Y-58093333D01*
X132780000Y-58093333D01*
X132713333Y-58126666D01*
X132680000Y-58160000D01*
X132646666Y-58226666D01*
%TO.C,J2*%
X98684000Y-40205866D02*
X98917333Y-40905866D01*
X99150666Y-40205866D01*
X99684000Y-40872533D02*
X99617333Y-40905866D01*
X99484000Y-40905866D01*
X99417333Y-40872533D01*
X99384000Y-40839200D01*
X99350666Y-40772533D01*
X99350666Y-40572533D01*
X99384000Y-40505866D01*
X99417333Y-40472533D01*
X99484000Y-40439200D01*
X99617333Y-40439200D01*
X99684000Y-40472533D01*
X100284000Y-40872533D02*
X100217333Y-40905866D01*
X100084000Y-40905866D01*
X100017333Y-40872533D01*
X99984000Y-40839200D01*
X99950666Y-40772533D01*
X99950666Y-40572533D01*
X99984000Y-40505866D01*
X100017333Y-40472533D01*
X100084000Y-40439200D01*
X100217333Y-40439200D01*
X100284000Y-40472533D01*
X101117333Y-40905866D02*
X101117333Y-40205866D01*
X101450666Y-40905866D02*
X101450666Y-40205866D01*
X101850666Y-40905866D01*
X101850666Y-40205866D01*
X102084000Y-40205866D02*
X102484000Y-40205866D01*
X102284000Y-40905866D02*
X102284000Y-40205866D01*
%TO.C,J23*%
X127047200Y-42583933D02*
X127080533Y-42550600D01*
X127147200Y-42517266D01*
X127313866Y-42517266D01*
X127380533Y-42550600D01*
X127413866Y-42583933D01*
X127447200Y-42650600D01*
X127447200Y-42717266D01*
X127413866Y-42817266D01*
X127013866Y-43217266D01*
X127447200Y-43217266D01*
X127747200Y-42950600D02*
X128280533Y-42950600D01*
X128980533Y-43217266D02*
X128580533Y-43217266D01*
X128780533Y-43217266D02*
X128780533Y-42517266D01*
X128713866Y-42617266D01*
X128647200Y-42683933D01*
X128580533Y-42717266D01*
X129580533Y-42750600D02*
X129580533Y-43217266D01*
X129413866Y-42483933D02*
X129247200Y-42983933D01*
X129680533Y-42983933D01*
X130447200Y-42483933D02*
X129847200Y-43383933D01*
X131047200Y-42550600D02*
X130980533Y-42517266D01*
X130880533Y-42517266D01*
X130780533Y-42550600D01*
X130713866Y-42617266D01*
X130680533Y-42683933D01*
X130647200Y-42817266D01*
X130647200Y-42917266D01*
X130680533Y-43050600D01*
X130713866Y-43117266D01*
X130780533Y-43183933D01*
X130880533Y-43217266D01*
X130947200Y-43217266D01*
X131047200Y-43183933D01*
X131080533Y-43150600D01*
X131080533Y-42917266D01*
X130947200Y-42917266D01*
X131280533Y-42517266D02*
X131680533Y-42517266D01*
X131480533Y-43217266D02*
X131480533Y-42517266D01*
X131880533Y-43183933D02*
X131980533Y-43217266D01*
X132147200Y-43217266D01*
X132213866Y-43183933D01*
X132247200Y-43150600D01*
X132280533Y-43083933D01*
X132280533Y-43017266D01*
X132247200Y-42950600D01*
X132213866Y-42917266D01*
X132147200Y-42883933D01*
X132013866Y-42850600D01*
X131947200Y-42817266D01*
X131913866Y-42783933D01*
X131880533Y-42717266D01*
X131880533Y-42650600D01*
X131913866Y-42583933D01*
X131947200Y-42550600D01*
X132013866Y-42517266D01*
X132180533Y-42517266D01*
X132280533Y-42550600D01*
X132947200Y-43217266D02*
X132547200Y-43217266D01*
X132747200Y-43217266D02*
X132747200Y-42517266D01*
X132680533Y-42617266D01*
X132613866Y-42683933D01*
X132547200Y-42717266D01*
%TO.C,J17*%
X131113333Y-62973333D02*
X131146666Y-62940000D01*
X131213333Y-62906666D01*
X131380000Y-62906666D01*
X131446666Y-62940000D01*
X131480000Y-62973333D01*
X131513333Y-63040000D01*
X131513333Y-63106666D01*
X131480000Y-63206666D01*
X131080000Y-63606666D01*
X131513333Y-63606666D01*
X131813333Y-63340000D02*
X132346666Y-63340000D01*
X132646666Y-62973333D02*
X132680000Y-62940000D01*
X132746666Y-62906666D01*
X132913333Y-62906666D01*
X132980000Y-62940000D01*
X133013333Y-62973333D01*
X133046666Y-63040000D01*
X133046666Y-63106666D01*
X133013333Y-63206666D01*
X132613333Y-63606666D01*
X133046666Y-63606666D01*
%TO.C,J15*%
X100700000Y-55986666D02*
X100300000Y-55986666D01*
X100500000Y-55986666D02*
X100500000Y-55286666D01*
X100433333Y-55386666D01*
X100366666Y-55453333D01*
X100300000Y-55486666D01*
X101000000Y-55720000D02*
X101533333Y-55720000D01*
X102233333Y-55986666D02*
X101833333Y-55986666D01*
X102033333Y-55986666D02*
X102033333Y-55286666D01*
X101966666Y-55386666D01*
X101900000Y-55453333D01*
X101833333Y-55486666D01*
X102866666Y-55286666D02*
X102533333Y-55286666D01*
X102500000Y-55620000D01*
X102533333Y-55586666D01*
X102600000Y-55553333D01*
X102766666Y-55553333D01*
X102833333Y-55586666D01*
X102866666Y-55620000D01*
X102900000Y-55686666D01*
X102900000Y-55853333D01*
X102866666Y-55920000D01*
X102833333Y-55953333D01*
X102766666Y-55986666D01*
X102600000Y-55986666D01*
X102533333Y-55953333D01*
X102500000Y-55920000D01*
D10*
%TO.C,U1*%
X113267314Y-55129180D02*
X113933980Y-56129180D01*
X113933980Y-55129180D02*
X113267314Y-56129180D01*
X114886361Y-56033942D02*
X114838742Y-56081561D01*
X114695885Y-56129180D01*
X114600647Y-56129180D01*
X114457790Y-56081561D01*
X114362552Y-55986323D01*
X114314933Y-55891085D01*
X114267314Y-55700609D01*
X114267314Y-55557752D01*
X114314933Y-55367276D01*
X114362552Y-55272038D01*
X114457790Y-55176800D01*
X114600647Y-55129180D01*
X114695885Y-55129180D01*
X114838742Y-55176800D01*
X114886361Y-55224419D01*
X115362552Y-56129180D02*
X115553028Y-56129180D01*
X115648266Y-56081561D01*
X115695885Y-56033942D01*
X115791123Y-55891085D01*
X115838742Y-55700609D01*
X115838742Y-55319657D01*
X115791123Y-55224419D01*
X115743504Y-55176800D01*
X115648266Y-55129180D01*
X115457790Y-55129180D01*
X115362552Y-55176800D01*
X115314933Y-55224419D01*
X115267314Y-55319657D01*
X115267314Y-55557752D01*
X115314933Y-55652990D01*
X115362552Y-55700609D01*
X115457790Y-55748228D01*
X115648266Y-55748228D01*
X115743504Y-55700609D01*
X115791123Y-55652990D01*
X115838742Y-55557752D01*
X116743504Y-55129180D02*
X116267314Y-55129180D01*
X116219695Y-55605371D01*
X116267314Y-55557752D01*
X116362552Y-55510133D01*
X116600647Y-55510133D01*
X116695885Y-55557752D01*
X116743504Y-55605371D01*
X116791123Y-55700609D01*
X116791123Y-55938704D01*
X116743504Y-56033942D01*
X116695885Y-56081561D01*
X116600647Y-56129180D01*
X116362552Y-56129180D01*
X116267314Y-56081561D01*
X116219695Y-56033942D01*
X117124457Y-55129180D02*
X117791123Y-55129180D01*
X117362552Y-56129180D01*
X118124457Y-55224419D02*
X118172076Y-55176800D01*
X118267314Y-55129180D01*
X118505409Y-55129180D01*
X118600647Y-55176800D01*
X118648266Y-55224419D01*
X118695885Y-55319657D01*
X118695885Y-55414895D01*
X118648266Y-55557752D01*
X118076838Y-56129180D01*
X118695885Y-56129180D01*
X119124457Y-55748228D02*
X119886361Y-55748228D01*
X120362552Y-56129180D02*
X120362552Y-55129180D01*
X120743504Y-55129180D01*
X120838742Y-55176800D01*
X120886361Y-55224419D01*
X120933980Y-55319657D01*
X120933980Y-55462514D01*
X120886361Y-55557752D01*
X120838742Y-55605371D01*
X120743504Y-55652990D01*
X120362552Y-55652990D01*
X121838742Y-56129180D02*
X121362552Y-56129180D01*
X121362552Y-55129180D01*
X122743504Y-56033942D02*
X122695885Y-56081561D01*
X122553028Y-56129180D01*
X122457790Y-56129180D01*
X122314933Y-56081561D01*
X122219695Y-55986323D01*
X122172076Y-55891085D01*
X122124457Y-55700609D01*
X122124457Y-55557752D01*
X122172076Y-55367276D01*
X122219695Y-55272038D01*
X122314933Y-55176800D01*
X122457790Y-55129180D01*
X122553028Y-55129180D01*
X122695885Y-55176800D01*
X122743504Y-55224419D01*
X123743504Y-56033942D02*
X123695885Y-56081561D01*
X123553028Y-56129180D01*
X123457790Y-56129180D01*
X123314933Y-56081561D01*
X123219695Y-55986323D01*
X123172076Y-55891085D01*
X123124457Y-55700609D01*
X123124457Y-55557752D01*
X123172076Y-55367276D01*
X123219695Y-55272038D01*
X123314933Y-55176800D01*
X123457790Y-55129180D01*
X123553028Y-55129180D01*
X123695885Y-55176800D01*
X123743504Y-55224419D01*
X124600647Y-55462514D02*
X124600647Y-56129180D01*
X124362552Y-55081561D02*
X124124457Y-55795847D01*
X124743504Y-55795847D01*
X125553028Y-55462514D02*
X125553028Y-56129180D01*
X125314933Y-55081561D02*
X125076838Y-55795847D01*
X125695885Y-55795847D01*
D11*
%TO.C,J31*%
X110426666Y-73066666D02*
X110860000Y-73066666D01*
X110626666Y-73333333D01*
X110726666Y-73333333D01*
X110793333Y-73366666D01*
X110826666Y-73400000D01*
X110860000Y-73466666D01*
X110860000Y-73633333D01*
X110826666Y-73700000D01*
X110793333Y-73733333D01*
X110726666Y-73766666D01*
X110526666Y-73766666D01*
X110460000Y-73733333D01*
X110426666Y-73700000D01*
X111160000Y-73500000D02*
X111693333Y-73500000D01*
X112393333Y-73766666D02*
X111993333Y-73766666D01*
X112193333Y-73766666D02*
X112193333Y-73066666D01*
X112126666Y-73166666D01*
X112060000Y-73233333D01*
X111993333Y-73266666D01*
X112993333Y-73300000D02*
X112993333Y-73766666D01*
X112826666Y-73033333D02*
X112660000Y-73533333D01*
X113093333Y-73533333D01*
%TO.C,J26*%
X100600000Y-60366666D02*
X101033333Y-60366666D01*
X100800000Y-60633333D01*
X100900000Y-60633333D01*
X100966666Y-60666666D01*
X101000000Y-60700000D01*
X101033333Y-60766666D01*
X101033333Y-60933333D01*
X101000000Y-61000000D01*
X100966666Y-61033333D01*
X100900000Y-61066666D01*
X100700000Y-61066666D01*
X100633333Y-61033333D01*
X100600000Y-61000000D01*
X101333333Y-60800000D02*
X101866666Y-60800000D01*
X102166666Y-60433333D02*
X102200000Y-60400000D01*
X102266666Y-60366666D01*
X102433333Y-60366666D01*
X102500000Y-60400000D01*
X102533333Y-60433333D01*
X102566666Y-60500000D01*
X102566666Y-60566666D01*
X102533333Y-60666666D01*
X102133333Y-61066666D01*
X102566666Y-61066666D01*
%TO.C,J18*%
X136193333Y-60433333D02*
X136226666Y-60400000D01*
X136293333Y-60366666D01*
X136460000Y-60366666D01*
X136526666Y-60400000D01*
X136560000Y-60433333D01*
X136593333Y-60500000D01*
X136593333Y-60566666D01*
X136560000Y-60666666D01*
X136160000Y-61066666D01*
X136593333Y-61066666D01*
X136893333Y-60800000D02*
X137426666Y-60800000D01*
X138093333Y-60366666D02*
X137760000Y-60366666D01*
X137726666Y-60700000D01*
X137760000Y-60666666D01*
X137826666Y-60633333D01*
X137993333Y-60633333D01*
X138060000Y-60666666D01*
X138093333Y-60700000D01*
X138126666Y-60766666D01*
X138126666Y-60933333D01*
X138093333Y-61000000D01*
X138060000Y-61033333D01*
X137993333Y-61066666D01*
X137826666Y-61066666D01*
X137760000Y-61033333D01*
X137726666Y-61000000D01*
%TO.C,J39*%
X131113333Y-73300000D02*
X131113333Y-73766666D01*
X130946666Y-73033333D02*
X130780000Y-73533333D01*
X131213333Y-73533333D01*
X131480000Y-73500000D02*
X132013333Y-73500000D01*
X132713333Y-73766666D02*
X132313333Y-73766666D01*
X132513333Y-73766666D02*
X132513333Y-73066666D01*
X132446666Y-73166666D01*
X132380000Y-73233333D01*
X132313333Y-73266666D01*
X133313333Y-73300000D02*
X133313333Y-73766666D01*
X133146666Y-73033333D02*
X132980000Y-73533333D01*
X133413333Y-73533333D01*
%TO.C,J38*%
X128573333Y-78380000D02*
X128573333Y-78846666D01*
X128406666Y-78113333D02*
X128240000Y-78613333D01*
X128673333Y-78613333D01*
X128940000Y-78580000D02*
X129473333Y-78580000D01*
X130173333Y-78846666D02*
X129773333Y-78846666D01*
X129973333Y-78846666D02*
X129973333Y-78146666D01*
X129906666Y-78246666D01*
X129840000Y-78313333D01*
X129773333Y-78346666D01*
X130840000Y-78846666D02*
X130440000Y-78846666D01*
X130640000Y-78846666D02*
X130640000Y-78146666D01*
X130573333Y-78246666D01*
X130506666Y-78313333D01*
X130440000Y-78346666D01*
%TO.C,J13*%
X106570000Y-43286666D02*
X106170000Y-43286666D01*
X106370000Y-43286666D02*
X106370000Y-42586666D01*
X106303333Y-42686666D01*
X106236666Y-42753333D01*
X106170000Y-42786666D01*
X106870000Y-43020000D02*
X107403333Y-43020000D01*
X108103333Y-43286666D02*
X107703333Y-43286666D01*
X107903333Y-43286666D02*
X107903333Y-42586666D01*
X107836666Y-42686666D01*
X107770000Y-42753333D01*
X107703333Y-42786666D01*
X108770000Y-43286666D02*
X108370000Y-43286666D01*
X108570000Y-43286666D02*
X108570000Y-42586666D01*
X108503333Y-42686666D01*
X108436666Y-42753333D01*
X108370000Y-42786666D01*
X109570000Y-42553333D02*
X108970000Y-43453333D01*
X110170000Y-42620000D02*
X110103333Y-42586666D01*
X110003333Y-42586666D01*
X109903333Y-42620000D01*
X109836666Y-42686666D01*
X109803333Y-42753333D01*
X109770000Y-42886666D01*
X109770000Y-42986666D01*
X109803333Y-43120000D01*
X109836666Y-43186666D01*
X109903333Y-43253333D01*
X110003333Y-43286666D01*
X110070000Y-43286666D01*
X110170000Y-43253333D01*
X110203333Y-43220000D01*
X110203333Y-42986666D01*
X110070000Y-42986666D01*
X110903333Y-43220000D02*
X110870000Y-43253333D01*
X110770000Y-43286666D01*
X110703333Y-43286666D01*
X110603333Y-43253333D01*
X110536666Y-43186666D01*
X110503333Y-43120000D01*
X110470000Y-42986666D01*
X110470000Y-42886666D01*
X110503333Y-42753333D01*
X110536666Y-42686666D01*
X110603333Y-42620000D01*
X110703333Y-42586666D01*
X110770000Y-42586666D01*
X110870000Y-42620000D01*
X110903333Y-42653333D01*
X111203333Y-43286666D02*
X111203333Y-42586666D01*
X111603333Y-43286666D02*
X111303333Y-42886666D01*
X111603333Y-42586666D02*
X111203333Y-42986666D01*
X111870000Y-42653333D02*
X111903333Y-42620000D01*
X111970000Y-42586666D01*
X112136666Y-42586666D01*
X112203333Y-42620000D01*
X112236666Y-42653333D01*
X112270000Y-42720000D01*
X112270000Y-42786666D01*
X112236666Y-42886666D01*
X111836666Y-43286666D01*
X112270000Y-43286666D01*
%TO.C,J37*%
X126366666Y-73300000D02*
X126366666Y-73766666D01*
X126200000Y-73033333D02*
X126033333Y-73533333D01*
X126466666Y-73533333D01*
X126733333Y-73500000D02*
X127266666Y-73500000D01*
X127633333Y-73766666D02*
X127766666Y-73766666D01*
X127833333Y-73733333D01*
X127866666Y-73700000D01*
X127933333Y-73600000D01*
X127966666Y-73466666D01*
X127966666Y-73200000D01*
X127933333Y-73133333D01*
X127900000Y-73100000D01*
X127833333Y-73066666D01*
X127700000Y-73066666D01*
X127633333Y-73100000D01*
X127600000Y-73133333D01*
X127566666Y-73200000D01*
X127566666Y-73366666D01*
X127600000Y-73433333D01*
X127633333Y-73466666D01*
X127700000Y-73500000D01*
X127833333Y-73500000D01*
X127900000Y-73466666D01*
X127933333Y-73433333D01*
X127966666Y-73366666D01*
%TO.C,J25*%
X123160000Y-42653333D02*
X123193333Y-42620000D01*
X123260000Y-42586666D01*
X123426666Y-42586666D01*
X123493333Y-42620000D01*
X123526666Y-42653333D01*
X123560000Y-42720000D01*
X123560000Y-42786666D01*
X123526666Y-42886666D01*
X123126666Y-43286666D01*
X123560000Y-43286666D01*
X123860000Y-43020000D02*
X124393333Y-43020000D01*
X125093333Y-43286666D02*
X124693333Y-43286666D01*
X124893333Y-43286666D02*
X124893333Y-42586666D01*
X124826666Y-42686666D01*
X124760000Y-42753333D01*
X124693333Y-42786666D01*
X125326666Y-42586666D02*
X125793333Y-42586666D01*
X125493333Y-43286666D01*
D12*
%TO.C,J22*%
X133410000Y-46990000D02*
X133410000Y-47050000D01*
X130750000Y-46990000D02*
X133410000Y-46990000D01*
X130750000Y-46990000D02*
X130750000Y-47050000D01*
X130750000Y-44390000D02*
X132080000Y-44390000D01*
X130750000Y-45720000D02*
X130750000Y-44390000D01*
X130750000Y-47050000D02*
X133410000Y-47050000D01*
%TO.C,J12*%
X110430000Y-46990000D02*
X113090000Y-46990000D01*
X110430000Y-45720000D02*
X110430000Y-44390000D01*
X110430000Y-46990000D02*
X110430000Y-47050000D01*
X113090000Y-46990000D02*
X113090000Y-47050000D01*
X110430000Y-47050000D02*
X113090000Y-47050000D01*
X110430000Y-44390000D02*
X111760000Y-44390000D01*
%TO.C,G\u002A\u002A\u002A*%
G36*
X103580994Y-76946537D02*
G01*
X103598106Y-76893495D01*
X103623239Y-76849780D01*
X103656169Y-76815633D01*
X103696671Y-76791291D01*
X103739267Y-76777995D01*
X103788392Y-76774200D01*
X103836096Y-76782477D01*
X103880916Y-76802394D01*
X103918516Y-76830789D01*
X103942249Y-76856071D01*
X103959270Y-76882451D01*
X103970639Y-76912731D01*
X103977417Y-76949718D01*
X103980622Y-76995039D01*
X103983186Y-77065369D01*
X103675511Y-77065369D01*
X103675511Y-77082799D01*
X103679703Y-77104144D01*
X103690490Y-77128823D01*
X103705184Y-77151790D01*
X103720750Y-77167748D01*
X103740254Y-77176555D01*
X103767149Y-77181956D01*
X103796681Y-77183513D01*
X103824095Y-77180786D01*
X103833955Y-77178217D01*
X103854103Y-77169624D01*
X103875265Y-77157850D01*
X103878816Y-77155524D01*
X103901443Y-77140169D01*
X103935388Y-77169170D01*
X103952093Y-77184098D01*
X103964211Y-77196179D01*
X103969302Y-77202966D01*
X103969333Y-77203207D01*
X103964910Y-77209868D01*
X103953731Y-77220882D01*
X103947250Y-77226447D01*
X103901918Y-77255941D01*
X103851452Y-77274787D01*
X103798105Y-77282426D01*
X103744130Y-77278295D01*
X103741152Y-77277708D01*
X103692788Y-77262074D01*
X103652048Y-77236624D01*
X103619298Y-77201724D01*
X103594903Y-77157741D01*
X103582300Y-77118969D01*
X103578012Y-77092379D01*
X103575549Y-77058025D01*
X103574946Y-77020519D01*
X103576238Y-76984472D01*
X103576278Y-76984099D01*
X103675511Y-76984099D01*
X103883203Y-76984099D01*
X103878909Y-76960656D01*
X103867114Y-76924713D01*
X103847028Y-76897311D01*
X103819667Y-76879359D01*
X103786051Y-76871768D01*
X103779202Y-76871571D01*
X103750697Y-76874620D01*
X103726480Y-76882698D01*
X103725581Y-76883170D01*
X103706437Y-76898933D01*
X103689765Y-76922124D01*
X103678550Y-76947786D01*
X103675511Y-76966328D01*
X103675511Y-76984099D01*
X103576278Y-76984099D01*
X103579460Y-76954494D01*
X103580994Y-76946537D01*
G37*
G36*
X99231924Y-76930908D02*
G01*
X99242378Y-76895103D01*
X99258249Y-76864849D01*
X99280248Y-76837975D01*
X99289719Y-76828789D01*
X99329089Y-76800134D01*
X99372116Y-76782034D01*
X99417003Y-76774129D01*
X99461955Y-76776056D01*
X99505176Y-76787456D01*
X99544871Y-76807967D01*
X99579243Y-76837228D01*
X99606497Y-76874878D01*
X99615926Y-76894377D01*
X99623106Y-76919811D01*
X99628084Y-76954300D01*
X99630863Y-76994595D01*
X99631445Y-77037443D01*
X99629834Y-77079595D01*
X99626031Y-77117798D01*
X99620041Y-77148802D01*
X99615695Y-77161896D01*
X99593178Y-77201289D01*
X99562097Y-77234732D01*
X99525070Y-77259783D01*
X99499483Y-77270277D01*
X99462255Y-77278121D01*
X99421686Y-77280788D01*
X99386458Y-77278036D01*
X99341470Y-77263863D01*
X99300457Y-77238032D01*
X99284899Y-77224091D01*
X99261617Y-77196840D01*
X99244568Y-77166065D01*
X99233113Y-77129692D01*
X99226611Y-77085644D01*
X99224424Y-77031846D01*
X99224416Y-77027860D01*
X99327566Y-77027860D01*
X99328347Y-77068214D01*
X99331187Y-77098524D01*
X99336830Y-77121180D01*
X99346023Y-77138574D01*
X99359509Y-77153094D01*
X99368969Y-77160678D01*
X99396617Y-77174083D01*
X99429090Y-77178697D01*
X99462301Y-77174496D01*
X99492158Y-77161454D01*
X99492193Y-77161431D01*
X99507929Y-77146791D01*
X99519182Y-77125494D01*
X99526390Y-77096015D01*
X99529991Y-77056827D01*
X99530604Y-77027622D01*
X99530359Y-76994832D01*
X99529189Y-76971421D01*
X99526657Y-76954273D01*
X99522328Y-76940271D01*
X99516675Y-76928059D01*
X99497162Y-76902171D01*
X99471431Y-76885271D01*
X99441961Y-76877361D01*
X99411228Y-76878446D01*
X99381709Y-76888528D01*
X99355882Y-76907609D01*
X99340407Y-76927856D01*
X99334893Y-76938818D01*
X99331198Y-76951236D01*
X99328976Y-76967807D01*
X99327882Y-76991228D01*
X99327568Y-77024198D01*
X99327566Y-77027860D01*
X99224416Y-77027860D01*
X99226174Y-76974437D01*
X99231924Y-76930908D01*
G37*
G36*
X102988657Y-77570579D02*
G01*
X103024685Y-77589426D01*
X103027377Y-77594283D01*
X103024490Y-77602879D01*
X103015049Y-77616992D01*
X102998080Y-77638397D01*
X102997301Y-77639346D01*
X102961206Y-77683221D01*
X102936728Y-77670462D01*
X102905401Y-77660525D01*
X102873879Y-77661753D01*
X102844887Y-77673292D01*
X102821153Y-77694290D01*
X102811245Y-77709722D01*
X102807882Y-77717595D01*
X102805277Y-77727474D01*
X102803335Y-77740944D01*
X102801964Y-77759591D01*
X102801070Y-77785000D01*
X102800559Y-77818757D01*
X102800338Y-77862446D01*
X102800305Y-77895261D01*
X102800295Y-78059364D01*
X102700271Y-78059364D01*
X102700271Y-77565492D01*
X102800295Y-77565492D01*
X102800295Y-77609889D01*
X102822163Y-77593210D01*
X102860140Y-77571756D01*
X102902323Y-77560800D01*
X102946050Y-77560391D01*
X102988657Y-77570579D01*
G37*
G36*
X101825506Y-76969460D02*
G01*
X101830502Y-76930000D01*
X101838405Y-76898404D01*
X101840555Y-76892796D01*
X101863754Y-76852152D01*
X101894843Y-76819667D01*
X101932002Y-76795621D01*
X101973414Y-76780294D01*
X102017257Y-76773968D01*
X102061715Y-76776922D01*
X102104966Y-76789438D01*
X102145192Y-76811796D01*
X102177529Y-76840813D01*
X102195421Y-76862655D01*
X102208676Y-76884350D01*
X102217932Y-76908289D01*
X102223824Y-76936867D01*
X102226988Y-76972476D01*
X102228061Y-77017509D01*
X102228076Y-77030986D01*
X102227784Y-77068881D01*
X102226898Y-77096993D01*
X102225118Y-77118039D01*
X102222143Y-77134735D01*
X102217674Y-77149799D01*
X102213811Y-77160035D01*
X102195370Y-77193013D01*
X102168392Y-77224539D01*
X102136615Y-77250797D01*
X102110858Y-77265182D01*
X102076214Y-77275546D01*
X102035970Y-77280441D01*
X101996045Y-77279265D01*
X101986256Y-77277858D01*
X101940169Y-77263832D01*
X101899489Y-77239331D01*
X101866048Y-77205762D01*
X101843063Y-77167669D01*
X101833981Y-77139055D01*
X101827654Y-77101582D01*
X101824112Y-77058596D01*
X101823614Y-77027622D01*
X101925217Y-77027622D01*
X101926648Y-77073243D01*
X101931290Y-77108237D01*
X101939962Y-77134248D01*
X101953484Y-77152919D01*
X101972675Y-77165895D01*
X101998355Y-77174820D01*
X101998593Y-77174881D01*
X102035133Y-77178735D01*
X102068176Y-77171316D01*
X102087136Y-77160466D01*
X102103187Y-77146558D01*
X102114564Y-77131017D01*
X102122008Y-77111462D01*
X102126256Y-77085510D01*
X102128048Y-77050778D01*
X102128255Y-77027860D01*
X102127996Y-76993861D01*
X102126989Y-76969662D01*
X102124888Y-76952566D01*
X102121345Y-76939874D01*
X102116015Y-76928891D01*
X102115414Y-76927856D01*
X102092888Y-76900289D01*
X102064170Y-76883568D01*
X102029487Y-76877825D01*
X102028771Y-76877823D01*
X101992643Y-76882473D01*
X101964344Y-76896670D01*
X101943209Y-76920788D01*
X101939146Y-76928059D01*
X101932871Y-76941870D01*
X101928778Y-76956081D01*
X101926430Y-76973809D01*
X101925393Y-76998170D01*
X101925217Y-77027622D01*
X101823614Y-77027622D01*
X101823386Y-77013440D01*
X101825506Y-76969460D01*
G37*
G36*
X102420230Y-76949023D02*
G01*
X102420826Y-77000054D01*
X102421463Y-77040104D01*
X102422263Y-77070694D01*
X102423342Y-77093346D01*
X102424819Y-77109580D01*
X102426814Y-77120918D01*
X102429445Y-77128882D01*
X102432831Y-77134993D01*
X102434967Y-77137994D01*
X102456121Y-77161186D01*
X102478753Y-77174097D01*
X102506631Y-77178738D01*
X102511515Y-77178845D01*
X102546195Y-77174554D01*
X102573314Y-77160627D01*
X102594032Y-77136387D01*
X102598683Y-77127980D01*
X102602974Y-77119003D01*
X102606291Y-77109969D01*
X102608759Y-77099197D01*
X102610504Y-77085008D01*
X102611649Y-77065721D01*
X102612321Y-77039655D01*
X102612644Y-77005131D01*
X102612744Y-76960468D01*
X102612749Y-76939014D01*
X102612749Y-76777798D01*
X102712774Y-76777798D01*
X102712774Y-77277921D01*
X102612749Y-77277921D01*
X102612749Y-77228754D01*
X102581699Y-77249650D01*
X102540748Y-77270917D01*
X102498322Y-77281291D01*
X102456687Y-77280289D01*
X102447083Y-77278307D01*
X102403802Y-77261638D01*
X102367647Y-77234845D01*
X102339395Y-77198573D01*
X102330235Y-77181022D01*
X102326111Y-77171638D01*
X102322862Y-77162436D01*
X102320383Y-77151855D01*
X102318569Y-77138328D01*
X102317318Y-77120292D01*
X102316523Y-77096183D01*
X102316080Y-77064436D01*
X102315886Y-77023487D01*
X102315835Y-76971771D01*
X102315833Y-76965344D01*
X102315801Y-76780924D01*
X102367092Y-76779113D01*
X102418384Y-76777302D01*
X102420230Y-76949023D01*
G37*
G36*
X103071295Y-76776486D02*
G01*
X103108683Y-76784594D01*
X103136158Y-76797421D01*
X103156720Y-76810129D01*
X103144520Y-76826784D01*
X103133374Y-76841055D01*
X103118083Y-76859505D01*
X103108309Y-76870863D01*
X103084297Y-76898286D01*
X103064512Y-76888054D01*
X103039575Y-76880096D01*
X103010885Y-76878181D01*
X102983775Y-76882232D01*
X102967180Y-76889468D01*
X102956270Y-76896898D01*
X102947622Y-76904178D01*
X102940943Y-76912801D01*
X102935940Y-76924263D01*
X102932320Y-76940055D01*
X102929791Y-76961674D01*
X102928058Y-76990612D01*
X102926830Y-77028364D01*
X102925813Y-77076424D01*
X102925326Y-77102878D01*
X102922200Y-77274796D01*
X102870625Y-77276611D01*
X102819050Y-77278427D01*
X102819050Y-76777293D01*
X102870625Y-76779108D01*
X102922200Y-76780924D01*
X102925326Y-76805400D01*
X102927804Y-76820413D01*
X102930912Y-76824819D01*
X102936185Y-76820481D01*
X102936969Y-76819542D01*
X102962175Y-76798131D01*
X102994995Y-76783593D01*
X103032384Y-76776265D01*
X103071295Y-76776486D01*
G37*
G36*
X99818312Y-76777798D02*
G01*
X99818312Y-76826965D01*
X99849362Y-76806070D01*
X99889543Y-76785547D01*
X99931145Y-76775892D01*
X99972346Y-76776514D01*
X100011328Y-76786821D01*
X100046270Y-76806222D01*
X100075352Y-76834125D01*
X100096756Y-76869939D01*
X100103452Y-76888668D01*
X100107827Y-76911517D01*
X100110986Y-76943754D01*
X100112928Y-76982334D01*
X100113651Y-77024209D01*
X100113156Y-77066333D01*
X100111441Y-77105661D01*
X100108505Y-77139146D01*
X100104348Y-77163742D01*
X100103536Y-77166763D01*
X100086086Y-77205746D01*
X100059496Y-77237870D01*
X100025758Y-77261972D01*
X99986864Y-77276887D01*
X99944806Y-77281451D01*
X99913771Y-77277693D01*
X99891560Y-77270327D01*
X99866338Y-77258433D01*
X99851132Y-77249443D01*
X99818312Y-77227781D01*
X99818312Y-77418886D01*
X99818410Y-77474612D01*
X99818734Y-77518893D01*
X99819329Y-77552785D01*
X99820239Y-77577346D01*
X99821508Y-77593631D01*
X99823180Y-77602698D01*
X99825299Y-77605602D01*
X99826126Y-77605376D01*
X99836225Y-77598746D01*
X99850666Y-77588586D01*
X99852695Y-77587116D01*
X99888462Y-77568430D01*
X99928609Y-77559657D01*
X99970208Y-77560566D01*
X100010329Y-77570927D01*
X100046044Y-77590508D01*
X100061206Y-77603557D01*
X100073897Y-77616460D01*
X100084116Y-77628126D01*
X100092145Y-77640054D01*
X100098265Y-77653744D01*
X100102760Y-77670694D01*
X100105912Y-77692404D01*
X100108002Y-77720373D01*
X100109314Y-77756100D01*
X100110129Y-77801085D01*
X100110729Y-77856827D01*
X100110827Y-77867129D01*
X100112646Y-78059364D01*
X100012109Y-78059364D01*
X100012100Y-77895261D01*
X100011966Y-77840995D01*
X100011397Y-77797721D01*
X100010127Y-77763927D01*
X100007893Y-77738103D01*
X100004429Y-77718738D01*
X99999472Y-77704322D01*
X99992756Y-77693344D01*
X99984018Y-77684294D01*
X99973751Y-77676214D01*
X99946380Y-77663325D01*
X99915479Y-77660062D01*
X99884488Y-77665771D01*
X99856851Y-77679799D01*
X99836008Y-77701494D01*
X99835397Y-77702461D01*
X99831203Y-77709706D01*
X99827920Y-77717412D01*
X99825413Y-77727172D01*
X99823549Y-77740577D01*
X99822195Y-77759222D01*
X99821217Y-77784697D01*
X99820481Y-77818597D01*
X99819855Y-77862512D01*
X99819502Y-77892135D01*
X99817566Y-78059364D01*
X99718287Y-78059364D01*
X99718287Y-77040623D01*
X99817912Y-77040623D01*
X99821243Y-77080414D01*
X99829033Y-77116046D01*
X99841301Y-77144379D01*
X99847296Y-77152764D01*
X99867881Y-77168372D01*
X99895349Y-77177293D01*
X99925777Y-77179127D01*
X99955244Y-77173480D01*
X99972309Y-77165429D01*
X99985924Y-77155073D01*
X99995790Y-77142347D01*
X100002468Y-77125193D01*
X100006518Y-77101556D01*
X100008502Y-77069380D01*
X100008984Y-77030986D01*
X100008699Y-76993724D01*
X100007677Y-76966514D01*
X100005669Y-76946916D01*
X100002425Y-76932489D01*
X99997714Y-76920828D01*
X99981298Y-76897914D01*
X99958605Y-76884064D01*
X99928142Y-76878596D01*
X99905847Y-76879032D01*
X99883125Y-76881336D01*
X99868522Y-76885372D01*
X99857655Y-76892959D01*
X99848800Y-76902694D01*
X99834484Y-76927709D01*
X99824551Y-76961130D01*
X99819021Y-76999815D01*
X99817912Y-77040623D01*
X99718287Y-77040623D01*
X99718287Y-76777798D01*
X99818312Y-76777798D01*
G37*
G36*
X101034236Y-77815554D02*
G01*
X101034534Y-77764432D01*
X101035735Y-77723955D01*
X101038295Y-77692270D01*
X101042671Y-77667528D01*
X101049322Y-77647877D01*
X101058704Y-77631465D01*
X101071274Y-77616443D01*
X101087188Y-77601230D01*
X101118730Y-77577925D01*
X101152105Y-77564481D01*
X101191283Y-77559433D01*
X101200627Y-77559302D01*
X101228083Y-77562443D01*
X101257133Y-77570674D01*
X101283405Y-77582342D01*
X101302526Y-77595796D01*
X101305380Y-77598881D01*
X101314540Y-77607273D01*
X101319314Y-77609253D01*
X101321033Y-77603315D01*
X101322695Y-77586758D01*
X101324193Y-77561464D01*
X101325420Y-77529317D01*
X101326268Y-77492201D01*
X101326363Y-77485785D01*
X101328058Y-77362317D01*
X101376508Y-77360491D01*
X101424957Y-77358665D01*
X101424957Y-78059364D01*
X101324932Y-78059364D01*
X101324932Y-78037483D01*
X101323274Y-78021086D01*
X101317775Y-78016470D01*
X101307648Y-78023290D01*
X101303171Y-78027975D01*
X101286795Y-78040019D01*
X101262305Y-78051148D01*
X101234078Y-78059859D01*
X101206487Y-78064651D01*
X101194978Y-78065122D01*
X101170154Y-78062683D01*
X101145202Y-78057243D01*
X101139795Y-78055505D01*
X101106657Y-78038135D01*
X101076302Y-78012005D01*
X101052805Y-77980791D01*
X101048851Y-77973388D01*
X101043907Y-77962724D01*
X101040223Y-77952291D01*
X101037615Y-77940095D01*
X101035897Y-77924143D01*
X101034886Y-77902442D01*
X101034396Y-77872999D01*
X101034278Y-77842486D01*
X101132056Y-77842486D01*
X101136603Y-77884552D01*
X101146300Y-77916685D01*
X101161431Y-77939740D01*
X101182281Y-77954566D01*
X101188451Y-77957097D01*
X101221227Y-77964449D01*
X101252004Y-77960832D01*
X101272365Y-77952811D01*
X101290363Y-77942296D01*
X101303519Y-77929413D01*
X101312537Y-77912164D01*
X101318121Y-77888550D01*
X101320976Y-77856573D01*
X101321804Y-77814233D01*
X101321805Y-77812428D01*
X101321546Y-77777439D01*
X101320547Y-77752222D01*
X101318476Y-77734052D01*
X101315003Y-77720206D01*
X101309794Y-77707958D01*
X101308875Y-77706152D01*
X101290249Y-77682231D01*
X101265259Y-77666665D01*
X101236662Y-77659486D01*
X101207212Y-77660724D01*
X101179665Y-77670411D01*
X101156776Y-77688578D01*
X101146028Y-77704312D01*
X101139445Y-77723902D01*
X101134862Y-77754000D01*
X101132372Y-77789638D01*
X101132056Y-77842486D01*
X101034278Y-77842486D01*
X101034244Y-77833820D01*
X101034236Y-77815554D01*
G37*
G36*
X100978604Y-77569084D02*
G01*
X100992038Y-77574643D01*
X101009721Y-77583697D01*
X101021637Y-77591371D01*
X101024859Y-77595103D01*
X101021110Y-77601956D01*
X101011104Y-77615800D01*
X100996699Y-77634116D01*
X100990211Y-77642025D01*
X100955564Y-77683766D01*
X100935510Y-77671539D01*
X100906073Y-77660323D01*
X100875339Y-77660030D01*
X100846211Y-77669808D01*
X100821596Y-77688807D01*
X100807618Y-77709039D01*
X100803326Y-77718062D01*
X100800009Y-77727136D01*
X100797541Y-77737943D01*
X100795797Y-77752165D01*
X100794651Y-77771483D01*
X100793980Y-77797579D01*
X100793657Y-77832135D01*
X100793557Y-77876833D01*
X100793552Y-77898148D01*
X100793552Y-78059364D01*
X100693527Y-78059364D01*
X100693527Y-77565492D01*
X100793552Y-77565492D01*
X100793552Y-77616479D01*
X100818510Y-77595115D01*
X100853677Y-77572909D01*
X100893812Y-77560965D01*
X100936320Y-77559588D01*
X100978604Y-77569084D01*
G37*
G36*
X101922897Y-77734002D02*
G01*
X101937066Y-77777228D01*
X101950158Y-77816047D01*
X101961658Y-77849018D01*
X101971048Y-77874696D01*
X101977813Y-77891638D01*
X101981434Y-77898400D01*
X101981744Y-77898395D01*
X101984441Y-77891314D01*
X101989879Y-77873806D01*
X101997581Y-77847524D01*
X102007070Y-77814124D01*
X102017867Y-77775260D01*
X102028192Y-77737409D01*
X102039730Y-77694880D01*
X102050300Y-77656149D01*
X102059434Y-77622913D01*
X102066664Y-77596867D01*
X102071522Y-77579707D01*
X102073463Y-77573306D01*
X102080500Y-77568953D01*
X102098142Y-77566390D01*
X102127263Y-77565495D01*
X102129593Y-77565492D01*
X102156597Y-77565977D01*
X102172722Y-77567595D01*
X102179557Y-77570595D01*
X102179810Y-77573306D01*
X102177068Y-77581505D01*
X102171194Y-77599612D01*
X102162836Y-77625618D01*
X102152638Y-77657513D01*
X102141248Y-77693288D01*
X102141133Y-77693649D01*
X102127173Y-77737526D01*
X102110840Y-77788767D01*
X102093585Y-77842832D01*
X102076855Y-77895180D01*
X102064824Y-77932770D01*
X102024272Y-78059364D01*
X101934124Y-78059364D01*
X101884625Y-77893315D01*
X101871580Y-77849932D01*
X101859537Y-77810601D01*
X101848992Y-77776880D01*
X101840436Y-77750325D01*
X101834366Y-77732492D01*
X101831274Y-77724938D01*
X101831145Y-77724806D01*
X101828412Y-77729899D01*
X101822679Y-77745504D01*
X101814431Y-77770128D01*
X101804155Y-77802276D01*
X101792337Y-77840454D01*
X101779463Y-77883166D01*
X101777643Y-77889291D01*
X101728123Y-78056238D01*
X101682726Y-78058076D01*
X101656579Y-78058366D01*
X101641095Y-78056492D01*
X101634583Y-78052237D01*
X101634413Y-78051825D01*
X101631099Y-78041944D01*
X101624681Y-78022200D01*
X101615648Y-77994135D01*
X101604488Y-77959289D01*
X101591692Y-77919204D01*
X101577747Y-77875421D01*
X101563143Y-77829480D01*
X101548369Y-77782923D01*
X101533913Y-77737290D01*
X101520265Y-77694123D01*
X101507914Y-77654962D01*
X101497348Y-77621349D01*
X101489056Y-77594824D01*
X101483528Y-77576929D01*
X101481252Y-77569205D01*
X101481221Y-77569029D01*
X101486992Y-77567426D01*
X101502387Y-77566203D01*
X101524526Y-77565550D01*
X101534065Y-77565492D01*
X101586909Y-77565492D01*
X101592448Y-77585810D01*
X101595600Y-77597430D01*
X101601486Y-77619182D01*
X101609582Y-77649124D01*
X101619362Y-77685316D01*
X101630303Y-77725819D01*
X101638065Y-77754565D01*
X101649233Y-77795475D01*
X101659456Y-77832062D01*
X101668258Y-77862694D01*
X101675165Y-77885741D01*
X101679701Y-77899573D01*
X101681270Y-77902917D01*
X101683908Y-77897185D01*
X101689805Y-77881040D01*
X101698449Y-77855989D01*
X101709330Y-77823542D01*
X101721936Y-77785207D01*
X101735757Y-77742491D01*
X101737927Y-77735724D01*
X101791459Y-77568618D01*
X101829839Y-77566764D01*
X101868219Y-77564911D01*
X101922897Y-77734002D01*
G37*
G36*
X102196160Y-77870731D02*
G01*
X102213204Y-77833661D01*
X102240470Y-77803461D01*
X102275166Y-77781873D01*
X102288641Y-77776518D01*
X102303849Y-77772665D01*
X102323330Y-77769992D01*
X102349625Y-77768178D01*
X102385272Y-77766901D01*
X102395508Y-77766639D01*
X102487718Y-77764395D01*
X102487718Y-77728151D01*
X102485906Y-77701354D01*
X102480080Y-77683986D01*
X102476778Y-77679416D01*
X102457483Y-77665661D01*
X102430317Y-77656843D01*
X102398722Y-77652950D01*
X102366142Y-77653970D01*
X102336017Y-77659890D01*
X102311791Y-77670698D01*
X102301083Y-77680041D01*
X102295803Y-77684568D01*
X102289094Y-77684431D01*
X102278425Y-77678615D01*
X102261263Y-77666106D01*
X102255759Y-77661889D01*
X102237957Y-77647545D01*
X102224878Y-77635775D01*
X102219007Y-77628840D01*
X102218902Y-77628369D01*
X102224034Y-77618735D01*
X102237395Y-77605921D01*
X102255931Y-77592137D01*
X102276592Y-77579593D01*
X102296323Y-77570500D01*
X102300934Y-77568971D01*
X102334419Y-77562434D01*
X102374894Y-77559642D01*
X102417431Y-77560574D01*
X102457099Y-77565206D01*
X102477603Y-77569788D01*
X102510910Y-77583802D01*
X102540988Y-77605037D01*
X102564895Y-77630853D01*
X102579686Y-77658610D01*
X102580832Y-77662391D01*
X102582948Y-77676792D01*
X102584719Y-77702654D01*
X102586110Y-77738939D01*
X102587087Y-77784609D01*
X102587618Y-77838627D01*
X102587708Y-77873380D01*
X102587743Y-78059364D01*
X102487718Y-78059364D01*
X102487718Y-78020743D01*
X102468770Y-78036687D01*
X102449426Y-78049380D01*
X102428052Y-78058657D01*
X102426572Y-78059088D01*
X102395789Y-78064122D01*
X102359335Y-78064914D01*
X102323050Y-78061670D01*
X102292775Y-78054592D01*
X102292277Y-78054415D01*
X102252546Y-78034309D01*
X102221830Y-78006522D01*
X102200896Y-77972519D01*
X102190511Y-77933767D01*
X102191018Y-77910890D01*
X102287868Y-77910890D01*
X102292943Y-77935406D01*
X102307430Y-77953436D01*
X102326582Y-77962062D01*
X102344019Y-77965948D01*
X102353310Y-77968129D01*
X102371551Y-77969973D01*
X102395875Y-77969227D01*
X102421737Y-77966400D01*
X102444592Y-77962004D01*
X102459897Y-77956552D01*
X102460727Y-77956041D01*
X102476007Y-77940765D01*
X102484746Y-77918220D01*
X102487708Y-77886370D01*
X102487718Y-77883914D01*
X102487718Y-77853063D01*
X102409163Y-77853063D01*
X102366674Y-77853933D01*
X102335100Y-77857020D01*
X102312942Y-77863037D01*
X102298704Y-77872699D01*
X102290887Y-77886719D01*
X102287994Y-77905813D01*
X102287868Y-77910890D01*
X102191018Y-77910890D01*
X102191442Y-77891733D01*
X102196160Y-77870731D01*
G37*
G36*
X100199497Y-77852197D02*
G01*
X100217051Y-77820966D01*
X100228538Y-77808071D01*
X100245312Y-77794137D01*
X100263137Y-77783814D01*
X100284320Y-77776508D01*
X100311170Y-77771623D01*
X100345996Y-77768565D01*
X100388765Y-77766805D01*
X100480975Y-77764179D01*
X100480975Y-77730065D01*
X100479762Y-77708354D01*
X100476660Y-77690205D01*
X100474220Y-77683331D01*
X100460268Y-77669349D01*
X100436852Y-77659125D01*
X100406706Y-77653657D01*
X100391310Y-77653014D01*
X100356413Y-77654474D01*
X100330847Y-77659342D01*
X100311730Y-77668351D01*
X100302723Y-77675518D01*
X100286834Y-77690244D01*
X100249496Y-77661248D01*
X100231604Y-77646767D01*
X100218389Y-77634955D01*
X100212307Y-77628031D01*
X100212159Y-77627491D01*
X100216539Y-77621123D01*
X100227830Y-77609729D01*
X100238560Y-77600132D01*
X100264909Y-77581543D01*
X100294575Y-77569034D01*
X100329985Y-77562008D01*
X100373568Y-77559870D01*
X100399980Y-77560479D01*
X100432514Y-77562268D01*
X100456330Y-77564986D01*
X100475213Y-77569373D01*
X100492947Y-77576171D01*
X100502099Y-77580477D01*
X100536718Y-77602763D01*
X100561557Y-77631681D01*
X100575002Y-77659265D01*
X100577708Y-77670811D01*
X100579988Y-77690444D01*
X100581887Y-77719040D01*
X100583452Y-77757473D01*
X100584725Y-77806620D01*
X100585753Y-77867355D01*
X100585792Y-77870255D01*
X100588349Y-78059364D01*
X100480975Y-78059364D01*
X100480975Y-78020743D01*
X100462026Y-78036687D01*
X100442683Y-78049380D01*
X100421309Y-78058657D01*
X100419828Y-78059088D01*
X100390599Y-78063875D01*
X100355582Y-78064812D01*
X100320842Y-78062020D01*
X100295455Y-78056616D01*
X100255089Y-78038586D01*
X100222420Y-78012802D01*
X100199078Y-77980757D01*
X100190723Y-77960740D01*
X100185322Y-77926167D01*
X100186501Y-77912599D01*
X100281257Y-77912599D01*
X100288156Y-77933733D01*
X100303535Y-77951711D01*
X100326359Y-77963911D01*
X100334418Y-77966036D01*
X100353672Y-77968214D01*
X100379293Y-77968796D01*
X100406829Y-77967946D01*
X100431831Y-77965827D01*
X100449845Y-77962600D01*
X100452549Y-77961712D01*
X100465665Y-77950439D01*
X100475275Y-77929494D01*
X100480396Y-77901452D01*
X100480975Y-77887272D01*
X100480975Y-77852094D01*
X100397063Y-77854141D01*
X100362897Y-77855111D01*
X100338852Y-77856340D01*
X100322551Y-77858238D01*
X100311613Y-77861213D01*
X100303659Y-77865676D01*
X100297039Y-77871344D01*
X100283873Y-77890929D01*
X100281257Y-77912599D01*
X100186501Y-77912599D01*
X100188583Y-77888625D01*
X100199497Y-77852197D01*
G37*
G36*
X103068023Y-77660243D02*
G01*
X103095117Y-77620736D01*
X103129701Y-77590773D01*
X103171421Y-77570742D01*
X103219924Y-77561027D01*
X103226192Y-77560572D01*
X103278552Y-77562762D01*
X103324924Y-77575766D01*
X103364865Y-77599336D01*
X103397934Y-77633225D01*
X103419860Y-77669040D01*
X103428994Y-77688609D01*
X103435105Y-77705495D01*
X103438949Y-77723369D01*
X103441280Y-77745901D01*
X103442853Y-77776763D01*
X103443051Y-77781836D01*
X103445777Y-77853063D01*
X103136232Y-77853063D01*
X103139723Y-77879091D01*
X103149956Y-77910845D01*
X103170246Y-77937784D01*
X103198449Y-77957814D01*
X103231567Y-77968702D01*
X103259311Y-77968929D01*
X103291054Y-77962553D01*
X103321300Y-77951108D01*
X103342837Y-77937629D01*
X103361080Y-77922278D01*
X103394828Y-77950952D01*
X103411777Y-77965762D01*
X103424471Y-77977625D01*
X103430301Y-77984097D01*
X103430374Y-77984256D01*
X103427209Y-77991774D01*
X103415698Y-78003394D01*
X103398413Y-78017124D01*
X103377925Y-78030974D01*
X103356807Y-78042955D01*
X103350716Y-78045895D01*
X103319620Y-78056135D01*
X103282094Y-78062480D01*
X103242902Y-78064604D01*
X103206808Y-78062181D01*
X103184765Y-78057229D01*
X103144568Y-78040912D01*
X103113273Y-78020475D01*
X103087364Y-77993242D01*
X103072506Y-77971842D01*
X103053988Y-77932828D01*
X103041521Y-77885463D01*
X103035588Y-77832588D01*
X103036669Y-77777044D01*
X103037715Y-77766349D01*
X103037871Y-77765541D01*
X103136232Y-77765541D01*
X103343867Y-77765541D01*
X103339995Y-77745224D01*
X103327943Y-77708287D01*
X103308100Y-77680292D01*
X103281408Y-77662018D01*
X103248808Y-77654240D01*
X103230083Y-77654577D01*
X103195879Y-77663467D01*
X103168280Y-77682012D01*
X103148919Y-77708679D01*
X103139723Y-77739513D01*
X103136232Y-77765541D01*
X103037871Y-77765541D01*
X103048771Y-77708909D01*
X103068023Y-77660243D01*
G37*
G36*
X101588993Y-76775866D02*
G01*
X101624637Y-76781275D01*
X101657668Y-76788958D01*
X101680464Y-76796902D01*
X101704117Y-76808462D01*
X101725322Y-76820807D01*
X101741357Y-76832151D01*
X101749498Y-76840712D01*
X101749994Y-76842442D01*
X101746224Y-76849483D01*
X101736270Y-76863032D01*
X101722238Y-76880233D01*
X101721362Y-76881261D01*
X101692687Y-76914826D01*
X101657984Y-76895241D01*
X101627154Y-76882083D01*
X101592288Y-76873912D01*
X101557299Y-76871109D01*
X101526099Y-76874058D01*
X101507074Y-76880511D01*
X101487593Y-76895755D01*
X101477470Y-76914678D01*
X101476969Y-76934409D01*
X101486354Y-76952077D01*
X101499585Y-76962017D01*
X101514993Y-76967231D01*
X101537941Y-76971876D01*
X101563470Y-76974950D01*
X101563572Y-76974958D01*
X101615511Y-76980225D01*
X101656705Y-76987565D01*
X101688838Y-76997699D01*
X101713596Y-77011351D01*
X101732663Y-77029241D01*
X101747725Y-77052092D01*
X101748924Y-77054383D01*
X101760066Y-77086406D01*
X101764401Y-77122819D01*
X101761763Y-77158604D01*
X101753302Y-77186098D01*
X101731979Y-77217060D01*
X101700943Y-77242812D01*
X101662152Y-77262634D01*
X101617563Y-77275800D01*
X101569133Y-77281589D01*
X101518821Y-77279276D01*
X101506227Y-77277356D01*
X101481655Y-77271252D01*
X101453134Y-77261572D01*
X101432164Y-77252800D01*
X101409295Y-77240956D01*
X101386422Y-77227200D01*
X101366168Y-77213355D01*
X101351159Y-77201242D01*
X101344020Y-77192685D01*
X101343766Y-77191437D01*
X101348172Y-77185578D01*
X101359719Y-77173995D01*
X101376020Y-77159063D01*
X101378092Y-77157239D01*
X101412338Y-77127204D01*
X101440459Y-77146552D01*
X101478532Y-77168264D01*
X101517364Y-77180304D01*
X101561777Y-77184144D01*
X101563478Y-77184148D01*
X101604015Y-77181206D01*
X101633687Y-77172297D01*
X101652679Y-77157300D01*
X101661179Y-77136094D01*
X101661327Y-77120399D01*
X101657565Y-77105105D01*
X101648649Y-77093542D01*
X101632918Y-77084940D01*
X101608711Y-77078525D01*
X101574366Y-77073527D01*
X101556439Y-77071656D01*
X101505491Y-77064892D01*
X101465236Y-77055022D01*
X101434083Y-77041253D01*
X101410437Y-77022793D01*
X101392707Y-76998849D01*
X101386760Y-76987225D01*
X101379509Y-76964819D01*
X101375411Y-76939215D01*
X101375082Y-76931686D01*
X101380006Y-76887007D01*
X101395189Y-76849461D01*
X101420596Y-76819083D01*
X101456194Y-76795908D01*
X101501948Y-76779969D01*
X101528966Y-76774672D01*
X101555511Y-76773432D01*
X101588993Y-76775866D01*
G37*
G36*
X100207894Y-76894101D02*
G01*
X100229798Y-76853073D01*
X100250152Y-76828288D01*
X100286052Y-76800782D01*
X100327372Y-76783143D01*
X100371907Y-76775332D01*
X100417448Y-76777312D01*
X100461787Y-76789044D01*
X100502717Y-76810489D01*
X100530090Y-76833165D01*
X100556648Y-76865759D01*
X100575600Y-76903594D01*
X100587514Y-76948407D01*
X100592960Y-77001930D01*
X100593455Y-77026297D01*
X100593502Y-77065369D01*
X100280359Y-77065369D01*
X100284532Y-77088812D01*
X100295862Y-77124670D01*
X100315116Y-77153031D01*
X100340314Y-77171645D01*
X100376809Y-77182639D01*
X100416307Y-77182834D01*
X100456179Y-77172592D01*
X100493796Y-77152275D01*
X100496864Y-77150052D01*
X100504121Y-77145788D01*
X100511438Y-77145842D01*
X100521584Y-77151362D01*
X100537330Y-77163494D01*
X100545488Y-77170185D01*
X100581349Y-77199777D01*
X100552857Y-77225966D01*
X100530872Y-77243007D01*
X100505673Y-77258062D01*
X100491701Y-77264376D01*
X100456580Y-77274114D01*
X100416941Y-77279766D01*
X100378307Y-77280811D01*
X100350516Y-77277715D01*
X100307452Y-77263874D01*
X100268373Y-77241949D01*
X100245209Y-77222443D01*
X100219244Y-77187730D01*
X100200207Y-77145000D01*
X100188068Y-77096625D01*
X100182797Y-77044975D01*
X100184364Y-76992424D01*
X100185729Y-76984099D01*
X100281238Y-76984099D01*
X100487226Y-76984099D01*
X100487226Y-76966328D01*
X100482339Y-76942179D01*
X100469667Y-76916635D01*
X100452195Y-76894653D01*
X100437156Y-76883170D01*
X100408414Y-76873494D01*
X100376499Y-76871741D01*
X100346371Y-76877794D01*
X100330299Y-76885720D01*
X100308016Y-76907597D01*
X100291796Y-76938361D01*
X100284906Y-76963781D01*
X100281238Y-76984099D01*
X100185729Y-76984099D01*
X100192740Y-76941342D01*
X100207894Y-76894101D01*
G37*
G36*
X101665147Y-73064406D02*
G01*
X101715844Y-73064508D01*
X101756396Y-73064748D01*
X101787982Y-73065181D01*
X101811781Y-73065864D01*
X101828972Y-73066854D01*
X101840734Y-73068207D01*
X101848246Y-73069980D01*
X101852686Y-73072228D01*
X101855235Y-73075010D01*
X101856108Y-73076505D01*
X101858678Y-73085210D01*
X101863204Y-73104795D01*
X101869398Y-73133839D01*
X101876971Y-73170921D01*
X101885633Y-73214621D01*
X101895095Y-73263520D01*
X101905068Y-73316196D01*
X101906715Y-73325004D01*
X101916763Y-73377967D01*
X101926416Y-73427209D01*
X101935379Y-73471339D01*
X101943355Y-73508968D01*
X101950050Y-73538705D01*
X101955165Y-73559161D01*
X101958407Y-73568946D01*
X101958759Y-73569457D01*
X101967050Y-73574406D01*
X101985149Y-73583103D01*
X102011202Y-73594788D01*
X102043352Y-73608700D01*
X102079746Y-73624079D01*
X102118530Y-73640166D01*
X102157848Y-73656200D01*
X102195846Y-73671422D01*
X102230669Y-73685071D01*
X102260463Y-73696387D01*
X102283374Y-73704611D01*
X102297546Y-73708981D01*
X102300449Y-73709485D01*
X102309327Y-73706783D01*
X102326018Y-73698093D01*
X102350931Y-73683158D01*
X102384477Y-73661719D01*
X102427064Y-73633517D01*
X102479103Y-73598294D01*
X102509329Y-73577601D01*
X102561697Y-73541641D01*
X102604738Y-73512134D01*
X102639437Y-73488465D01*
X102666782Y-73470019D01*
X102687759Y-73456181D01*
X102703353Y-73446336D01*
X102714552Y-73439870D01*
X102722342Y-73436169D01*
X102727709Y-73434616D01*
X102731639Y-73434597D01*
X102735120Y-73435499D01*
X102736570Y-73435967D01*
X102744560Y-73441500D01*
X102759784Y-73454775D01*
X102781068Y-73474596D01*
X102807237Y-73499767D01*
X102837115Y-73529092D01*
X102869527Y-73561373D01*
X102903298Y-73595415D01*
X102937254Y-73630023D01*
X102970218Y-73663999D01*
X103001015Y-73696147D01*
X103028472Y-73725271D01*
X103051411Y-73750176D01*
X103068659Y-73769664D01*
X103079040Y-73782539D01*
X103081615Y-73787199D01*
X103078175Y-73795076D01*
X103068375Y-73812008D01*
X103052993Y-73836784D01*
X103032809Y-73868195D01*
X103008600Y-73905031D01*
X102981147Y-73946082D01*
X102951227Y-73990138D01*
X102947207Y-73996009D01*
X102906854Y-74055317D01*
X102873586Y-74105165D01*
X102847476Y-74145440D01*
X102828595Y-74176026D01*
X102817018Y-74196809D01*
X102812815Y-74207674D01*
X102812798Y-74208039D01*
X102815265Y-74219109D01*
X102822147Y-74239451D01*
X102832667Y-74267271D01*
X102846049Y-74300776D01*
X102861517Y-74338174D01*
X102878294Y-74377672D01*
X102895604Y-74417476D01*
X102912669Y-74455794D01*
X102928714Y-74490833D01*
X102942962Y-74520799D01*
X102954636Y-74543900D01*
X102962960Y-74558343D01*
X102966200Y-74562235D01*
X102975142Y-74565301D01*
X102994912Y-74570253D01*
X103024031Y-74576780D01*
X103061017Y-74584570D01*
X103104392Y-74593311D01*
X103152676Y-74602689D01*
X103200633Y-74611699D01*
X103252208Y-74621325D01*
X103300311Y-74630474D01*
X103343453Y-74638851D01*
X103380144Y-74646158D01*
X103408892Y-74652099D01*
X103428209Y-74656378D01*
X103436389Y-74658600D01*
X103450455Y-74664510D01*
X103450455Y-74914037D01*
X103450424Y-74976644D01*
X103450298Y-75027903D01*
X103450026Y-75068969D01*
X103449559Y-75100997D01*
X103448848Y-75125144D01*
X103447842Y-75142563D01*
X103446492Y-75154409D01*
X103444748Y-75161839D01*
X103442561Y-75166007D01*
X103439881Y-75168069D01*
X103439515Y-75168233D01*
X103431027Y-75170428D01*
X103411696Y-75174615D01*
X103382973Y-75180504D01*
X103346310Y-75187806D01*
X103303156Y-75196233D01*
X103254964Y-75205496D01*
X103203886Y-75215173D01*
X103141302Y-75227073D01*
X103090124Y-75237106D01*
X103049429Y-75245480D01*
X103018294Y-75252406D01*
X102995796Y-75258095D01*
X102981011Y-75262757D01*
X102973017Y-75266601D01*
X102971399Y-75268108D01*
X102967171Y-75276448D01*
X102958987Y-75294875D01*
X102947493Y-75321850D01*
X102933333Y-75355836D01*
X102917154Y-75395294D01*
X102899600Y-75438684D01*
X102893757Y-75453250D01*
X102870766Y-75511390D01*
X102852743Y-75558565D01*
X102839535Y-75595215D01*
X102830988Y-75621780D01*
X102826947Y-75638701D01*
X102826675Y-75644813D01*
X102830784Y-75653820D01*
X102841228Y-75671777D01*
X102857175Y-75697391D01*
X102877791Y-75729366D01*
X102902245Y-75766409D01*
X102929704Y-75807226D01*
X102955526Y-75845001D01*
X102984757Y-75887746D01*
X103011592Y-75927557D01*
X103035223Y-75963192D01*
X103054844Y-75993411D01*
X103069648Y-76016972D01*
X103078828Y-76032635D01*
X103081615Y-76038948D01*
X103077317Y-76045628D01*
X103065062Y-76060065D01*
X103045804Y-76081246D01*
X103020498Y-76108158D01*
X102990098Y-76139790D01*
X102955561Y-76175130D01*
X102917840Y-76213165D01*
X102907656Y-76223343D01*
X102862398Y-76268362D01*
X102825083Y-76305140D01*
X102794928Y-76334390D01*
X102771149Y-76356827D01*
X102752962Y-76373161D01*
X102739583Y-76384106D01*
X102730229Y-76390376D01*
X102724115Y-76392681D01*
X102721673Y-76392458D01*
X102713838Y-76387975D01*
X102696983Y-76377229D01*
X102672375Y-76361066D01*
X102641281Y-76340330D01*
X102604970Y-76315865D01*
X102564708Y-76288514D01*
X102528985Y-76264082D01*
X102486442Y-76235128D01*
X102446776Y-76208574D01*
X102411250Y-76185232D01*
X102381128Y-76165915D01*
X102357673Y-76151434D01*
X102342149Y-76142601D01*
X102336152Y-76140141D01*
X102326529Y-76142990D01*
X102308245Y-76150827D01*
X102283579Y-76162591D01*
X102254814Y-76177219D01*
X102241747Y-76184128D01*
X102212011Y-76199520D01*
X102185454Y-76212313D01*
X102164329Y-76221494D01*
X102150887Y-76226047D01*
X102147996Y-76226325D01*
X102144606Y-76223452D01*
X102139281Y-76215185D01*
X102131738Y-76200879D01*
X102121691Y-76179888D01*
X102108857Y-76151569D01*
X102092951Y-76115276D01*
X102073691Y-76070365D01*
X102050790Y-76016190D01*
X102023967Y-75952107D01*
X101992935Y-75877472D01*
X101971390Y-75825449D01*
X101943701Y-75758343D01*
X101917469Y-75694434D01*
X101893081Y-75634689D01*
X101870927Y-75580076D01*
X101851393Y-75531561D01*
X101834869Y-75490111D01*
X101821743Y-75456694D01*
X101812403Y-75432276D01*
X101807237Y-75417824D01*
X101806301Y-75414273D01*
X101811759Y-75402847D01*
X101826657Y-75389321D01*
X101832870Y-75385067D01*
X101850656Y-75373132D01*
X101874060Y-75356793D01*
X101898684Y-75339131D01*
X101904392Y-75334960D01*
X101965133Y-75282961D01*
X102016184Y-75223842D01*
X102057213Y-75158777D01*
X102087886Y-75088939D01*
X102107874Y-75015501D01*
X102116842Y-74939636D01*
X102114458Y-74862516D01*
X102100391Y-74785314D01*
X102078669Y-74719684D01*
X102059103Y-74676811D01*
X102036112Y-74638186D01*
X102007393Y-74600485D01*
X101970644Y-74560386D01*
X101962589Y-74552248D01*
X101907189Y-74502993D01*
X101849487Y-74464533D01*
X101786639Y-74435173D01*
X101740660Y-74419870D01*
X101695965Y-74410565D01*
X101643790Y-74405421D01*
X101588444Y-74404439D01*
X101534236Y-74407619D01*
X101485475Y-74414961D01*
X101465592Y-74419870D01*
X101391943Y-74447327D01*
X101323930Y-74485104D01*
X101262567Y-74532119D01*
X101208869Y-74587286D01*
X101163850Y-74649523D01*
X101128525Y-74717745D01*
X101103907Y-74790870D01*
X101099233Y-74811288D01*
X101089205Y-74889841D01*
X101091194Y-74967763D01*
X101104726Y-75043831D01*
X101129328Y-75116825D01*
X101164528Y-75185520D01*
X101209853Y-75248696D01*
X101264829Y-75305131D01*
X101301860Y-75334960D01*
X101326114Y-75352478D01*
X101350222Y-75369425D01*
X101369788Y-75382721D01*
X101373382Y-75385067D01*
X101390766Y-75398750D01*
X101399398Y-75411090D01*
X101399951Y-75414273D01*
X101397612Y-75421954D01*
X101390855Y-75440210D01*
X101380067Y-75468075D01*
X101365637Y-75504580D01*
X101347953Y-75548760D01*
X101327403Y-75599647D01*
X101304376Y-75656273D01*
X101279260Y-75717673D01*
X101252443Y-75782880D01*
X101234862Y-75825449D01*
X101201071Y-75906973D01*
X101171664Y-75977543D01*
X101146357Y-76037804D01*
X101124866Y-76088400D01*
X101106907Y-76129977D01*
X101092197Y-76163179D01*
X101080450Y-76188651D01*
X101071383Y-76207039D01*
X101064712Y-76218986D01*
X101060152Y-76225138D01*
X101058256Y-76226325D01*
X101048888Y-76224117D01*
X101030850Y-76216838D01*
X101006394Y-76205502D01*
X100977773Y-76191123D01*
X100964504Y-76184128D01*
X100934676Y-76168594D01*
X100907967Y-76155468D01*
X100886659Y-76145812D01*
X100873031Y-76140687D01*
X100870100Y-76140141D01*
X100862246Y-76143579D01*
X100845396Y-76153350D01*
X100820813Y-76168642D01*
X100789761Y-76188644D01*
X100753503Y-76212542D01*
X100713302Y-76239526D01*
X100677267Y-76264082D01*
X100634677Y-76293193D01*
X100594980Y-76320125D01*
X100559443Y-76344033D01*
X100529333Y-76364073D01*
X100505918Y-76379400D01*
X100490464Y-76389169D01*
X100484578Y-76392458D01*
X100480034Y-76392190D01*
X100472720Y-76388387D01*
X100461852Y-76380336D01*
X100446647Y-76367324D01*
X100426321Y-76348638D01*
X100400090Y-76323566D01*
X100367169Y-76291395D01*
X100326776Y-76251412D01*
X100298595Y-76223343D01*
X100260205Y-76184775D01*
X100224750Y-76148639D01*
X100193186Y-76115948D01*
X100166468Y-76087715D01*
X100145549Y-76064950D01*
X100131386Y-76048668D01*
X100124934Y-76039879D01*
X100124637Y-76038948D01*
X100128080Y-76031434D01*
X100137871Y-76014907D01*
X100153204Y-75990609D01*
X100173271Y-75959781D01*
X100197266Y-75923662D01*
X100224383Y-75883495D01*
X100250726Y-75845001D01*
X100280129Y-75801944D01*
X100307256Y-75761529D01*
X100331274Y-75725050D01*
X100351351Y-75693802D01*
X100366653Y-75669078D01*
X100376348Y-75652173D01*
X100379576Y-75644813D01*
X100378435Y-75634039D01*
X100372889Y-75613911D01*
X100362786Y-75583990D01*
X100347969Y-75543836D01*
X100328286Y-75493008D01*
X100312495Y-75453250D01*
X100294635Y-75408920D01*
X100277942Y-75368027D01*
X100263062Y-75332110D01*
X100250638Y-75302708D01*
X100241317Y-75281358D01*
X100235744Y-75269600D01*
X100234853Y-75268108D01*
X100229591Y-75264560D01*
X100217950Y-75260289D01*
X100199007Y-75255085D01*
X100171839Y-75248736D01*
X100135523Y-75241034D01*
X100089136Y-75231767D01*
X100031755Y-75220726D01*
X100002366Y-75215173D01*
X99950623Y-75205369D01*
X99902488Y-75196116D01*
X99859411Y-75187702D01*
X99822843Y-75180416D01*
X99794235Y-75174547D01*
X99775039Y-75170385D01*
X99766736Y-75168233D01*
X99763992Y-75166351D01*
X99761747Y-75162504D01*
X99759952Y-75155537D01*
X99758556Y-75144295D01*
X99757511Y-75127623D01*
X99756766Y-75104366D01*
X99756272Y-75073368D01*
X99755979Y-75033474D01*
X99755837Y-74983530D01*
X99755797Y-74922380D01*
X99755796Y-74914037D01*
X99755796Y-74664510D01*
X99769862Y-74658600D01*
X99779116Y-74656125D01*
X99799181Y-74651713D01*
X99828568Y-74645660D01*
X99865787Y-74638264D01*
X99909347Y-74629820D01*
X99957759Y-74620626D01*
X100005618Y-74611699D01*
X100057136Y-74602008D01*
X100105120Y-74592665D01*
X100148090Y-74583982D01*
X100184567Y-74576271D01*
X100213070Y-74569846D01*
X100232119Y-74565017D01*
X100240051Y-74562235D01*
X100245787Y-74554366D01*
X100255377Y-74536676D01*
X100268044Y-74510958D01*
X100283012Y-74479004D01*
X100299504Y-74442609D01*
X100316744Y-74403564D01*
X100333955Y-74363663D01*
X100350360Y-74324699D01*
X100365183Y-74288465D01*
X100377648Y-74256753D01*
X100386978Y-74231357D01*
X100392397Y-74214070D01*
X100393453Y-74208039D01*
X100389739Y-74197831D01*
X100378645Y-74177699D01*
X100360244Y-74147756D01*
X100334608Y-74108116D01*
X100301810Y-74058896D01*
X100261922Y-74000208D01*
X100259045Y-73996009D01*
X100228863Y-73951652D01*
X100201045Y-73910143D01*
X100176372Y-73872693D01*
X100155622Y-73840510D01*
X100139573Y-73814805D01*
X100129005Y-73796787D01*
X100124697Y-73787667D01*
X100124637Y-73787199D01*
X100128916Y-73780244D01*
X100140968Y-73765754D01*
X100159619Y-73744924D01*
X100183693Y-73718950D01*
X100212016Y-73689030D01*
X100243412Y-73656359D01*
X100276706Y-73622134D01*
X100310722Y-73587550D01*
X100344287Y-73553804D01*
X100376224Y-73522093D01*
X100405359Y-73493611D01*
X100430516Y-73469557D01*
X100450520Y-73451125D01*
X100464196Y-73439512D01*
X100469682Y-73435967D01*
X100473344Y-73434885D01*
X100477143Y-73434541D01*
X100482065Y-73435549D01*
X100489096Y-73438523D01*
X100499224Y-73444079D01*
X100513434Y-73452831D01*
X100532712Y-73465393D01*
X100558047Y-73482381D01*
X100590424Y-73504409D01*
X100630830Y-73532091D01*
X100680252Y-73566042D01*
X100697606Y-73577970D01*
X100754558Y-73616858D01*
X100801848Y-73648582D01*
X100839878Y-73673396D01*
X100869052Y-73691554D01*
X100889772Y-73703311D01*
X100902440Y-73708922D01*
X100905797Y-73709505D01*
X100915764Y-73706986D01*
X100935254Y-73700293D01*
X100962412Y-73690186D01*
X100995379Y-73677425D01*
X101032298Y-73662772D01*
X101071311Y-73646987D01*
X101110561Y-73630832D01*
X101148190Y-73615066D01*
X101182340Y-73600451D01*
X101211153Y-73587748D01*
X101232773Y-73577716D01*
X101245342Y-73571118D01*
X101247437Y-73569591D01*
X101250367Y-73561782D01*
X101255213Y-73543058D01*
X101261680Y-73514812D01*
X101269470Y-73478436D01*
X101278288Y-73435320D01*
X101287836Y-73386856D01*
X101297818Y-73334436D01*
X101299559Y-73325108D01*
X101309562Y-73271957D01*
X101319106Y-73222349D01*
X101327901Y-73177706D01*
X101335659Y-73139450D01*
X101342091Y-73109002D01*
X101346906Y-73087783D01*
X101349818Y-73077217D01*
X101350087Y-73076610D01*
X101352149Y-73073535D01*
X101355509Y-73071024D01*
X101361345Y-73069019D01*
X101370837Y-73067464D01*
X101385166Y-73066302D01*
X101405510Y-73065476D01*
X101433048Y-73064928D01*
X101468962Y-73064603D01*
X101514430Y-73064442D01*
X101570631Y-73064388D01*
X101603126Y-73064385D01*
X101665147Y-73064406D01*
G37*
G36*
X103385509Y-76773847D02*
G01*
X103409168Y-76777973D01*
X103419236Y-76780443D01*
X103459930Y-76794886D01*
X103498014Y-76815751D01*
X103528813Y-76840425D01*
X103531551Y-76843254D01*
X103541071Y-76854261D01*
X103542440Y-76861479D01*
X103536160Y-76870144D01*
X103534316Y-76872195D01*
X103521847Y-76884426D01*
X103505083Y-76899039D01*
X103499342Y-76903697D01*
X103476336Y-76921942D01*
X103447527Y-76901636D01*
X103428529Y-76889754D01*
X103410578Y-76883086D01*
X103388017Y-76879829D01*
X103376761Y-76879096D01*
X103336789Y-76880986D01*
X103304968Y-76891800D01*
X103280104Y-76912155D01*
X103263468Y-76937574D01*
X103255785Y-76954631D01*
X103251075Y-76971228D01*
X103248651Y-76991334D01*
X103247823Y-77018915D01*
X103247784Y-77027860D01*
X103248284Y-77058618D01*
X103250301Y-77080822D01*
X103254469Y-77098391D01*
X103261424Y-77115244D01*
X103262192Y-77116825D01*
X103282541Y-77145264D01*
X103310235Y-77165349D01*
X103342967Y-77176672D01*
X103378431Y-77178831D01*
X103414322Y-77171417D01*
X103448332Y-77154027D01*
X103453273Y-77150423D01*
X103475728Y-77133296D01*
X103499038Y-77151782D01*
X103516005Y-77166044D01*
X103530622Y-77179658D01*
X103534257Y-77183459D01*
X103542232Y-77193513D01*
X103541684Y-77200808D01*
X103534257Y-77209882D01*
X103509455Y-77231747D01*
X103477092Y-77252273D01*
X103442013Y-77268538D01*
X103430201Y-77272619D01*
X103401901Y-77280074D01*
X103376670Y-77282908D01*
X103348978Y-77281394D01*
X103324997Y-77277867D01*
X103287084Y-77266771D01*
X103248798Y-77247577D01*
X103215687Y-77223200D01*
X103209283Y-77217062D01*
X103182355Y-77181354D01*
X103162320Y-77137106D01*
X103149743Y-77086558D01*
X103145187Y-77031952D01*
X103148978Y-76977132D01*
X103162010Y-76920468D01*
X103183298Y-76873168D01*
X103212973Y-76835091D01*
X103251166Y-76806097D01*
X103298008Y-76786047D01*
X103336129Y-76777238D01*
X103363430Y-76773690D01*
X103385509Y-76773847D01*
G37*
G36*
X100934442Y-76777882D02*
G01*
X100970102Y-76788112D01*
X100977972Y-76791819D01*
X101012855Y-76814184D01*
X101038806Y-76842025D01*
X101057344Y-76874697D01*
X101061470Y-76884130D01*
X101064745Y-76893541D01*
X101067289Y-76904486D01*
X101069218Y-76918524D01*
X101070651Y-76937211D01*
X101071704Y-76962104D01*
X101072497Y-76994759D01*
X101073146Y-77036735D01*
X101073770Y-77089587D01*
X101073799Y-77092199D01*
X101075853Y-77278443D01*
X101023787Y-77276619D01*
X100971720Y-77274796D01*
X100968595Y-77106004D01*
X100967575Y-77054895D01*
X100966549Y-77014741D01*
X100965394Y-76983997D01*
X100963989Y-76961116D01*
X100962209Y-76944551D01*
X100959933Y-76932755D01*
X100957038Y-76924182D01*
X100953681Y-76917742D01*
X100933871Y-76894841D01*
X100907501Y-76881765D01*
X100875109Y-76877823D01*
X100841441Y-76881614D01*
X100815657Y-76893786D01*
X100795404Y-76915537D01*
X100792592Y-76919869D01*
X100788193Y-76927343D01*
X100784752Y-76934994D01*
X100782127Y-76944420D01*
X100780179Y-76957222D01*
X100778768Y-76975000D01*
X100777755Y-76999355D01*
X100776999Y-77031886D01*
X100776361Y-77074193D01*
X100775906Y-77110693D01*
X100773890Y-77277921D01*
X100674772Y-77277921D01*
X100674772Y-76777798D01*
X100774797Y-76777798D01*
X100774797Y-76802804D01*
X100776096Y-76820629D01*
X100780851Y-76826696D01*
X100790349Y-76821500D01*
X100799655Y-76812339D01*
X100825534Y-76793183D01*
X100858838Y-76780800D01*
X100896247Y-76775572D01*
X100934442Y-76777882D01*
G37*
%TO.C,J16*%
X105350000Y-57150000D02*
X105350000Y-57210000D01*
X108010000Y-57150000D02*
X108010000Y-57210000D01*
X105350000Y-57210000D02*
X108010000Y-57210000D01*
X105350000Y-57150000D02*
X108010000Y-57150000D01*
X105350000Y-54550000D02*
X106680000Y-54550000D01*
X105350000Y-55880000D02*
X105350000Y-54550000D01*
%TO.C,J8*%
X120590000Y-46990000D02*
X120590000Y-47050000D01*
X120590000Y-46990000D02*
X123250000Y-46990000D01*
X120590000Y-45720000D02*
X120590000Y-44390000D01*
X123250000Y-46990000D02*
X123250000Y-47050000D01*
X120590000Y-44390000D02*
X121920000Y-44390000D01*
X120590000Y-47050000D02*
X123250000Y-47050000D01*
%TO.C,J24*%
X125670000Y-46990000D02*
X125670000Y-47050000D01*
X125670000Y-46990000D02*
X128330000Y-46990000D01*
X125670000Y-44390000D02*
X127000000Y-44390000D01*
X125670000Y-45720000D02*
X125670000Y-44390000D01*
X128330000Y-46990000D02*
X128330000Y-47050000D01*
X125670000Y-47050000D02*
X128330000Y-47050000D01*
%TO.C,J1*%
X96700000Y-69880000D02*
X95370000Y-69880000D01*
X94100000Y-67280000D02*
X94100000Y-69880000D01*
X96700000Y-67280000D02*
X96700000Y-57060000D01*
X91500000Y-69880000D02*
X91500000Y-57060000D01*
X94100000Y-69880000D02*
X91500000Y-69880000D01*
X96700000Y-67280000D02*
X94100000Y-67280000D01*
X96700000Y-57060000D02*
X91500000Y-57060000D01*
X96700000Y-68550000D02*
X96700000Y-69880000D01*
%TO.C,J30*%
X110550000Y-77470000D02*
X110550000Y-77530000D01*
X107890000Y-74870000D02*
X109220000Y-74870000D01*
X107890000Y-77470000D02*
X107890000Y-77530000D01*
X107890000Y-77470000D02*
X110550000Y-77470000D01*
X107890000Y-76200000D02*
X107890000Y-74870000D01*
X107890000Y-77530000D02*
X110550000Y-77530000D01*
%TO.C,J27*%
X105350000Y-62290000D02*
X108010000Y-62290000D01*
X105350000Y-59630000D02*
X106680000Y-59630000D01*
X108010000Y-62230000D02*
X108010000Y-62290000D01*
X105350000Y-60960000D02*
X105350000Y-59630000D01*
X105350000Y-62230000D02*
X105350000Y-62290000D01*
X105350000Y-62230000D02*
X108010000Y-62230000D01*
%TO.C,J9*%
X118050000Y-40640000D02*
X118050000Y-39310000D01*
X118050000Y-41910000D02*
X120710000Y-41910000D01*
X118050000Y-39310000D02*
X119380000Y-39310000D01*
X118050000Y-41970000D02*
X120710000Y-41970000D01*
X120710000Y-41910000D02*
X120710000Y-41970000D01*
X118050000Y-41910000D02*
X118050000Y-41970000D01*
%TO.C,J21*%
X130750000Y-51435000D02*
X130750000Y-51495000D01*
X133410000Y-51435000D02*
X133410000Y-51495000D01*
X130750000Y-51495000D02*
X133410000Y-51495000D01*
X130750000Y-50165000D02*
X130750000Y-48835000D01*
X130750000Y-51435000D02*
X133410000Y-51435000D01*
X130750000Y-48835000D02*
X132080000Y-48835000D01*
%TO.C,J10*%
X115510000Y-46990000D02*
X118170000Y-46990000D01*
X115510000Y-46990000D02*
X115510000Y-47050000D01*
X118170000Y-46990000D02*
X118170000Y-47050000D01*
X115510000Y-44390000D02*
X116840000Y-44390000D01*
X115510000Y-47050000D02*
X118170000Y-47050000D01*
X115510000Y-45720000D02*
X115510000Y-44390000D01*
%TO.C,J35*%
X120590000Y-72390000D02*
X120590000Y-72450000D01*
X120590000Y-71120000D02*
X120590000Y-69790000D01*
X120590000Y-72390000D02*
X123250000Y-72390000D01*
X120590000Y-69790000D02*
X121920000Y-69790000D01*
X123250000Y-72390000D02*
X123250000Y-72450000D01*
X120590000Y-72450000D02*
X123250000Y-72450000D01*
%TO.C,C2*%
X90930000Y-49745020D02*
X90930000Y-50026180D01*
X91950000Y-49745020D02*
X91950000Y-50026180D01*
%TO.C,J7*%
X105350000Y-45720000D02*
X105350000Y-44390000D01*
X105350000Y-44390000D02*
X106680000Y-44390000D01*
X105350000Y-46990000D02*
X108010000Y-46990000D01*
X105350000Y-47050000D02*
X108010000Y-47050000D01*
X105350000Y-46990000D02*
X105350000Y-47050000D01*
X108010000Y-46990000D02*
X108010000Y-47050000D01*
%TO.C,J28*%
X102930000Y-64770000D02*
X102930000Y-64830000D01*
X100270000Y-64770000D02*
X102930000Y-64770000D01*
X100270000Y-64830000D02*
X102930000Y-64830000D01*
X100270000Y-63500000D02*
X100270000Y-62170000D01*
X100270000Y-64770000D02*
X100270000Y-64830000D01*
X100270000Y-62170000D02*
X101600000Y-62170000D01*
%TO.C,J5*%
X105350000Y-71120000D02*
X105350000Y-69790000D01*
X108010000Y-72390000D02*
X108010000Y-72450000D01*
X105350000Y-72390000D02*
X105350000Y-72450000D01*
X105350000Y-72450000D02*
X108010000Y-72450000D01*
X105350000Y-69790000D02*
X106680000Y-69790000D01*
X105350000Y-72390000D02*
X108010000Y-72390000D01*
%TO.C,J32*%
X112970000Y-77470000D02*
X112970000Y-77530000D01*
X112970000Y-76200000D02*
X112970000Y-74870000D01*
X112970000Y-77470000D02*
X115630000Y-77470000D01*
X115630000Y-77470000D02*
X115630000Y-77530000D01*
X112970000Y-74870000D02*
X114300000Y-74870000D01*
X112970000Y-77530000D02*
X115630000Y-77530000D01*
%TO.C,J40*%
X130750000Y-67310000D02*
X133410000Y-67310000D01*
X133410000Y-67310000D02*
X133410000Y-67370000D01*
X130750000Y-64710000D02*
X132080000Y-64710000D01*
X130750000Y-67370000D02*
X133410000Y-67370000D01*
X130750000Y-66040000D02*
X130750000Y-64710000D01*
X130750000Y-67310000D02*
X130750000Y-67370000D01*
%TO.C,J20*%
X138490000Y-54610000D02*
X138490000Y-54670000D01*
X135830000Y-54610000D02*
X138490000Y-54610000D01*
X135830000Y-52010000D02*
X137160000Y-52010000D01*
X135830000Y-53340000D02*
X135830000Y-52010000D01*
X135830000Y-54670000D02*
X138490000Y-54670000D01*
X135830000Y-54610000D02*
X135830000Y-54670000D01*
%TO.C,J33*%
X115510000Y-69790000D02*
X116840000Y-69790000D01*
X115510000Y-71120000D02*
X115510000Y-69790000D01*
X115510000Y-72390000D02*
X115510000Y-72450000D01*
X118170000Y-72390000D02*
X118170000Y-72450000D01*
X115510000Y-72390000D02*
X118170000Y-72390000D01*
X115510000Y-72450000D02*
X118170000Y-72450000D01*
%TO.C,J34*%
X118050000Y-77470000D02*
X118050000Y-77530000D01*
X118050000Y-77470000D02*
X120710000Y-77470000D01*
X118050000Y-76200000D02*
X118050000Y-74870000D01*
X118050000Y-77530000D02*
X120710000Y-77530000D01*
X120710000Y-77470000D02*
X120710000Y-77530000D01*
X118050000Y-74870000D02*
X119380000Y-74870000D01*
%TO.C,J4*%
X94100000Y-54645000D02*
X94100000Y-51985000D01*
X92830000Y-54645000D02*
X91500000Y-54645000D01*
X94100000Y-54645000D02*
X96700000Y-54645000D01*
X94100000Y-51985000D02*
X96700000Y-51985000D01*
X96700000Y-54645000D02*
X96700000Y-51985000D01*
X91500000Y-54645000D02*
X91500000Y-53315000D01*
%TO.C,J14*%
X105350000Y-50800000D02*
X105350000Y-49470000D01*
X105350000Y-52070000D02*
X105350000Y-52130000D01*
X105350000Y-49470000D02*
X106680000Y-49470000D01*
X105350000Y-52070000D02*
X108010000Y-52070000D01*
X105350000Y-52130000D02*
X108010000Y-52130000D01*
X108010000Y-52070000D02*
X108010000Y-52130000D01*
%TO.C,J29*%
X105350000Y-67310000D02*
X105350000Y-67370000D01*
X108010000Y-67310000D02*
X108010000Y-67370000D01*
X105350000Y-67370000D02*
X108010000Y-67370000D01*
X105350000Y-66040000D02*
X105350000Y-64710000D01*
X105350000Y-67310000D02*
X108010000Y-67310000D01*
X105350000Y-64710000D02*
X106680000Y-64710000D01*
%TO.C,J3*%
X100270000Y-46930000D02*
X101600000Y-46930000D01*
X100270000Y-48260000D02*
X100270000Y-46930000D01*
X100270000Y-49590000D02*
X102930000Y-49590000D01*
X102930000Y-49530000D02*
X102930000Y-49590000D01*
X100270000Y-49530000D02*
X100270000Y-49590000D01*
X100270000Y-49530000D02*
X102930000Y-49530000D01*
%TO.C,J11*%
X115630000Y-41910000D02*
X115630000Y-41970000D01*
X112970000Y-39310000D02*
X114300000Y-39310000D01*
X112970000Y-40640000D02*
X112970000Y-39310000D01*
X112970000Y-41910000D02*
X115630000Y-41910000D01*
X112970000Y-41970000D02*
X115630000Y-41970000D01*
X112970000Y-41910000D02*
X112970000Y-41970000D01*
%TO.C,J36*%
X123130000Y-74870000D02*
X124460000Y-74870000D01*
X123130000Y-77470000D02*
X123130000Y-77530000D01*
X123130000Y-76200000D02*
X123130000Y-74870000D01*
X123130000Y-77470000D02*
X125790000Y-77470000D01*
X125790000Y-77470000D02*
X125790000Y-77530000D01*
X123130000Y-77530000D02*
X125790000Y-77530000D01*
%TO.C,C1*%
X98554000Y-53275620D02*
X98554000Y-53556780D01*
X97534000Y-53275620D02*
X97534000Y-53556780D01*
%TO.C,J41*%
X138490000Y-64770000D02*
X138490000Y-64830000D01*
X135830000Y-62170000D02*
X137160000Y-62170000D01*
X135830000Y-63500000D02*
X135830000Y-62170000D01*
X135830000Y-64770000D02*
X138490000Y-64770000D01*
X135830000Y-64770000D02*
X135830000Y-64830000D01*
X135830000Y-64830000D02*
X138490000Y-64830000D01*
%TO.C,J19*%
X130750000Y-55880000D02*
X130750000Y-54550000D01*
X130750000Y-57150000D02*
X130750000Y-57210000D01*
X130750000Y-57210000D02*
X133410000Y-57210000D01*
X133410000Y-57150000D02*
X133410000Y-57210000D01*
X130750000Y-57150000D02*
X133410000Y-57150000D01*
X130750000Y-54550000D02*
X132080000Y-54550000D01*
%TO.C,J2*%
X102810000Y-41910000D02*
X105470000Y-41910000D01*
X102810000Y-40640000D02*
X102810000Y-39310000D01*
X102810000Y-41970000D02*
X105470000Y-41970000D01*
X102810000Y-41910000D02*
X102810000Y-41970000D01*
X105470000Y-41910000D02*
X105470000Y-41970000D01*
X102810000Y-39310000D02*
X104140000Y-39310000D01*
%TO.C,J23*%
X128210000Y-40640000D02*
X128210000Y-39310000D01*
X128210000Y-41970000D02*
X130870000Y-41970000D01*
X128210000Y-41910000D02*
X130870000Y-41910000D01*
X130870000Y-41910000D02*
X130870000Y-41970000D01*
X128210000Y-41910000D02*
X128210000Y-41970000D01*
X128210000Y-39310000D02*
X129540000Y-39310000D01*
%TO.C,J17*%
X130750000Y-60960000D02*
X130750000Y-59630000D01*
X130750000Y-59630000D02*
X132080000Y-59630000D01*
X130750000Y-62230000D02*
X133410000Y-62230000D01*
X130750000Y-62290000D02*
X133410000Y-62290000D01*
X133410000Y-62230000D02*
X133410000Y-62290000D01*
X130750000Y-62230000D02*
X130750000Y-62290000D01*
%TO.C,J15*%
X102930000Y-54610000D02*
X102930000Y-54670000D01*
X100270000Y-54670000D02*
X102930000Y-54670000D01*
X100270000Y-54610000D02*
X100270000Y-54670000D01*
X100270000Y-52010000D02*
X101600000Y-52010000D01*
X100270000Y-53340000D02*
X100270000Y-52010000D01*
X100270000Y-54610000D02*
X102930000Y-54610000D01*
D11*
%TO.C,U1*%
X112055000Y-67395000D02*
X110405000Y-67395000D01*
X110405000Y-67395000D02*
X110405000Y-65745000D01*
X110405000Y-50595000D02*
X110405000Y-51095000D01*
X126705000Y-49445000D02*
X128355000Y-49445000D01*
X126705000Y-67395000D02*
X128355000Y-67395000D01*
X128355000Y-49445000D02*
X128355000Y-51095000D01*
X128355000Y-67395000D02*
X128355000Y-65745000D01*
X112055000Y-49445000D02*
X111555000Y-49445000D01*
X111555000Y-49445000D02*
X110405000Y-50595000D01*
D12*
%TO.C,J31*%
X113090000Y-72390000D02*
X113090000Y-72450000D01*
X110430000Y-72390000D02*
X113090000Y-72390000D01*
X110430000Y-72450000D02*
X113090000Y-72450000D01*
X110430000Y-69790000D02*
X111760000Y-69790000D01*
X110430000Y-71120000D02*
X110430000Y-69790000D01*
X110430000Y-72390000D02*
X110430000Y-72450000D01*
%TO.C,J26*%
X100270000Y-58420000D02*
X100270000Y-57090000D01*
X100270000Y-59690000D02*
X102930000Y-59690000D01*
X100270000Y-59690000D02*
X100270000Y-59750000D01*
X100270000Y-57090000D02*
X101600000Y-57090000D01*
X100270000Y-59750000D02*
X102930000Y-59750000D01*
X102930000Y-59690000D02*
X102930000Y-59750000D01*
%TO.C,J18*%
X135830000Y-59750000D02*
X138490000Y-59750000D01*
X135830000Y-57090000D02*
X137160000Y-57090000D01*
X135830000Y-59690000D02*
X138490000Y-59690000D01*
X135830000Y-58420000D02*
X135830000Y-57090000D01*
X135830000Y-59690000D02*
X135830000Y-59750000D01*
X138490000Y-59690000D02*
X138490000Y-59750000D01*
%TO.C,J39*%
X133410000Y-72390000D02*
X133410000Y-72450000D01*
X130750000Y-69790000D02*
X132080000Y-69790000D01*
X130750000Y-71120000D02*
X130750000Y-69790000D01*
X130750000Y-72390000D02*
X130750000Y-72450000D01*
X130750000Y-72450000D02*
X133410000Y-72450000D01*
X130750000Y-72390000D02*
X133410000Y-72390000D01*
%TO.C,J38*%
X128210000Y-77530000D02*
X130870000Y-77530000D01*
X128210000Y-77470000D02*
X128210000Y-77530000D01*
X128210000Y-74870000D02*
X129540000Y-74870000D01*
X128210000Y-77470000D02*
X130870000Y-77470000D01*
X128210000Y-76200000D02*
X128210000Y-74870000D01*
X130870000Y-77470000D02*
X130870000Y-77530000D01*
%TO.C,J13*%
X107890000Y-41910000D02*
X110550000Y-41910000D01*
X107890000Y-40640000D02*
X107890000Y-39310000D01*
X107890000Y-41970000D02*
X110550000Y-41970000D01*
X107890000Y-39310000D02*
X109220000Y-39310000D01*
X107890000Y-41910000D02*
X107890000Y-41970000D01*
X110550000Y-41910000D02*
X110550000Y-41970000D01*
%TO.C,J37*%
X125670000Y-69790000D02*
X127000000Y-69790000D01*
X125670000Y-72390000D02*
X128330000Y-72390000D01*
X125670000Y-72390000D02*
X125670000Y-72450000D01*
X128330000Y-72390000D02*
X128330000Y-72450000D01*
X125670000Y-72450000D02*
X128330000Y-72450000D01*
X125670000Y-71120000D02*
X125670000Y-69790000D01*
%TO.C,J25*%
X123130000Y-41910000D02*
X125790000Y-41910000D01*
X123130000Y-41910000D02*
X123130000Y-41970000D01*
X123130000Y-41970000D02*
X125790000Y-41970000D01*
X123130000Y-39310000D02*
X124460000Y-39310000D01*
X125790000Y-41910000D02*
X125790000Y-41970000D01*
X123130000Y-40640000D02*
X123130000Y-39310000D01*
%TD*%
%LPC*%
D13*
%TO.C,J22*%
X132080000Y-45720000D03*
%TD*%
%TO.C,J12*%
X111760000Y-45720000D03*
%TD*%
%TO.C,J16*%
X106680000Y-55880000D03*
%TD*%
D14*
%TO.C,REF\u002A\u002A*%
X136525000Y-40640000D03*
%TD*%
D13*
%TO.C,J8*%
X121920000Y-45720000D03*
%TD*%
%TO.C,J24*%
X127000000Y-45720000D03*
%TD*%
%TO.C,J1*%
X95370000Y-68550000D03*
D15*
X92830000Y-68550000D03*
X95370000Y-66010000D03*
X92830000Y-66010000D03*
X95370000Y-63470000D03*
X92830000Y-63470000D03*
X95370000Y-60930000D03*
X92830000Y-60930000D03*
X95370000Y-58390000D03*
X92830000Y-58390000D03*
%TD*%
D13*
%TO.C,J30*%
X109220000Y-76200000D03*
%TD*%
%TO.C,J27*%
X106680000Y-60960000D03*
%TD*%
%TO.C,J9*%
X119380000Y-40640000D03*
%TD*%
%TO.C,J21*%
X132080000Y-50165000D03*
%TD*%
D14*
%TO.C,REF\u002A\u002A*%
X136525000Y-76200000D03*
%TD*%
D13*
%TO.C,J10*%
X116840000Y-45720000D03*
%TD*%
%TO.C,J35*%
X121920000Y-71120000D03*
%TD*%
D16*
%TO.C,C2*%
X91440000Y-49110600D03*
X91440000Y-50660600D03*
%TD*%
D13*
%TO.C,J7*%
X106680000Y-45720000D03*
%TD*%
%TO.C,J28*%
X101600000Y-63500000D03*
%TD*%
%TO.C,J5*%
X106680000Y-71120000D03*
%TD*%
%TO.C,J32*%
X114300000Y-76200000D03*
%TD*%
%TO.C,J40*%
X132080000Y-66040000D03*
%TD*%
%TO.C,J20*%
X137160000Y-53340000D03*
%TD*%
D14*
%TO.C,REF\u002A\u002A*%
X93345000Y-76200000D03*
%TD*%
D13*
%TO.C,J33*%
X116840000Y-71120000D03*
%TD*%
%TO.C,J34*%
X119380000Y-76200000D03*
%TD*%
%TO.C,J4*%
X92830000Y-53315000D03*
D15*
X95370000Y-53315000D03*
%TD*%
D13*
%TO.C,J14*%
X106680000Y-50800000D03*
%TD*%
D14*
%TO.C,REF\u002A\u002A*%
X93345000Y-40640000D03*
%TD*%
D13*
%TO.C,J29*%
X106680000Y-66040000D03*
%TD*%
%TO.C,J3*%
X101600000Y-48260000D03*
%TD*%
%TO.C,J11*%
X114300000Y-40640000D03*
%TD*%
%TO.C,J36*%
X124460000Y-76200000D03*
%TD*%
D16*
%TO.C,C1*%
X98044000Y-52641200D03*
X98044000Y-54191200D03*
%TD*%
D13*
%TO.C,J41*%
X137160000Y-63500000D03*
%TD*%
%TO.C,J19*%
X132080000Y-55880000D03*
%TD*%
%TO.C,J2*%
X104140000Y-40640000D03*
%TD*%
%TO.C,J23*%
X129540000Y-40640000D03*
%TD*%
%TO.C,J17*%
X132080000Y-60960000D03*
%TD*%
%TO.C,J15*%
X101600000Y-53340000D03*
%TD*%
D17*
%TO.C,U1*%
X119380000Y-50557500D03*
X118110000Y-50557500D03*
X116840000Y-50557500D03*
X115570000Y-50557500D03*
X114300000Y-50557500D03*
X113030000Y-50557500D03*
D18*
X111517500Y-52070000D03*
X111517500Y-53340000D03*
X111517500Y-54610000D03*
X111517500Y-55880000D03*
X111517500Y-57150000D03*
X111517500Y-58420000D03*
X111517500Y-59690000D03*
X111517500Y-60960000D03*
X111517500Y-62230000D03*
X111517500Y-63500000D03*
X111517500Y-64770000D03*
D17*
X113030000Y-66282500D03*
X114300000Y-66282500D03*
X115570000Y-66282500D03*
X116840000Y-66282500D03*
X118110000Y-66282500D03*
X119380000Y-66282500D03*
X120650000Y-66282500D03*
X121920000Y-66282500D03*
X123190000Y-66282500D03*
X124460000Y-66282500D03*
X125730000Y-66282500D03*
D18*
X127242500Y-64770000D03*
X127242500Y-63500000D03*
X127242500Y-62230000D03*
X127242500Y-60960000D03*
X127242500Y-59690000D03*
X127242500Y-58420000D03*
X127242500Y-57150000D03*
X127242500Y-55880000D03*
X127242500Y-54610000D03*
X127242500Y-53340000D03*
X127242500Y-52070000D03*
D17*
X125730000Y-50557500D03*
X124460000Y-50557500D03*
X123190000Y-50557500D03*
X121920000Y-50557500D03*
X120650000Y-50557500D03*
%TD*%
D13*
%TO.C,J31*%
X111760000Y-71120000D03*
%TD*%
%TO.C,J26*%
X101600000Y-58420000D03*
%TD*%
%TO.C,J18*%
X137160000Y-58420000D03*
%TD*%
%TO.C,J39*%
X132080000Y-71120000D03*
%TD*%
%TO.C,J38*%
X129540000Y-76200000D03*
%TD*%
%TO.C,J13*%
X109220000Y-40640000D03*
%TD*%
%TO.C,J37*%
X127000000Y-71120000D03*
%TD*%
%TO.C,J25*%
X124460000Y-40640000D03*
%TD*%
M02*
