%FSLAX45Y45*%
G04 Gerber Fmt 4.5, Leading zero omitted, Abs format (unit mm)*
G04 Created by KiCad (PCBNEW (6.0.0)) date 2022-03-13 18:43:24*
%MOMM*%
%LPD*%
G01*
G04 APERTURE LIST*
%TA.AperFunction,Profile*%
%ADD10C,0.100000*%
%TD*%
%ADD11C,0.200000*%
%ADD12C,0.040000*%
%ADD13C,0.100000*%
G04 APERTURE END LIST*
D10*
X13652500Y-8001000D02*
X9349908Y-8001000D01*
X14033500Y-4064000D02*
X14033500Y-7620000D01*
X13652500Y-8001000D02*
G75*
G03*
X14033500Y-7620000I0J381000D01*
G01*
X8968908Y-7620000D02*
G75*
G03*
X9349908Y-8001000I381000J0D01*
G01*
X9334500Y-3683000D02*
G75*
G03*
X8953500Y-4064000I0J-381000D01*
G01*
X9334500Y-3683000D02*
X13652500Y-3683000D01*
X14033500Y-4064000D02*
G75*
G03*
X13652500Y-3683000I-381000J0D01*
G01*
X8968908Y-7620000D02*
X8953500Y-4064000D01*
D11*
D12*
X11346500Y-6139500D02*
X11386500Y-6179500D01*
X11386500Y-6139500D02*
X11346500Y-6179500D01*
X11463951Y-6212549D02*
X11503951Y-6252549D01*
X11503951Y-6212549D02*
X11463951Y-6252549D01*
X11473500Y-6393500D02*
X11513500Y-6433500D01*
X11513500Y-6393500D02*
X11473500Y-6433500D01*
X11600500Y-6266500D02*
X11640500Y-6306500D01*
X11640500Y-6266500D02*
X11600500Y-6306500D01*
X11727500Y-6393500D02*
X11767500Y-6433500D01*
X11767500Y-6393500D02*
X11727500Y-6433500D01*
X11854500Y-6266500D02*
X11894500Y-6306500D01*
X11894500Y-6266500D02*
X11854500Y-6306500D01*
X12426000Y-5250500D02*
X12466000Y-5290500D01*
X12466000Y-5250500D02*
X12426000Y-5290500D01*
X12426000Y-6330000D02*
X12466000Y-6370000D01*
X12466000Y-6330000D02*
X12426000Y-6370000D01*
X12489500Y-6076000D02*
X12529500Y-6116000D01*
X12529500Y-6076000D02*
X12489500Y-6116000D01*
D13*
X9333000Y-5331500D02*
G75*
G03*
X9333000Y-5331500I-50000J0D01*
G01*
X9333000Y-5839000D02*
G75*
G03*
X9333000Y-5839000I-50000J0D01*
G01*
X9333000Y-6093000D02*
G75*
G03*
X9333000Y-6093000I-50000J0D01*
G01*
X9333000Y-6347000D02*
G75*
G03*
X9333000Y-6347000I-50000J0D01*
G01*
X9333000Y-6601000D02*
G75*
G03*
X9333000Y-6601000I-50000J0D01*
G01*
X9333000Y-6855000D02*
G75*
G03*
X9333000Y-6855000I-50000J0D01*
G01*
X9587000Y-5331500D02*
G75*
G03*
X9587000Y-5331500I-50000J0D01*
G01*
X9587000Y-5839000D02*
G75*
G03*
X9587000Y-5839000I-50000J0D01*
G01*
X9587000Y-6093000D02*
G75*
G03*
X9587000Y-6093000I-50000J0D01*
G01*
X9587000Y-6347000D02*
G75*
G03*
X9587000Y-6347000I-50000J0D01*
G01*
X9587000Y-6601000D02*
G75*
G03*
X9587000Y-6601000I-50000J0D01*
G01*
X9587000Y-6855000D02*
G75*
G03*
X9587000Y-6855000I-50000J0D01*
G01*
X10210000Y-4826000D02*
G75*
G03*
X10210000Y-4826000I-50000J0D01*
G01*
X10210000Y-5334000D02*
G75*
G03*
X10210000Y-5334000I-50000J0D01*
G01*
X10210000Y-5842000D02*
G75*
G03*
X10210000Y-5842000I-50000J0D01*
G01*
X10210000Y-6350000D02*
G75*
G03*
X10210000Y-6350000I-50000J0D01*
G01*
X10464000Y-4064000D02*
G75*
G03*
X10464000Y-4064000I-50000J0D01*
G01*
X10718000Y-4572000D02*
G75*
G03*
X10718000Y-4572000I-50000J0D01*
G01*
X10718000Y-5080000D02*
G75*
G03*
X10718000Y-5080000I-50000J0D01*
G01*
X10718000Y-5588000D02*
G75*
G03*
X10718000Y-5588000I-50000J0D01*
G01*
X10718000Y-6096000D02*
G75*
G03*
X10718000Y-6096000I-50000J0D01*
G01*
X10718000Y-6604000D02*
G75*
G03*
X10718000Y-6604000I-50000J0D01*
G01*
X10718000Y-7112000D02*
G75*
G03*
X10718000Y-7112000I-50000J0D01*
G01*
X10972000Y-4064000D02*
G75*
G03*
X10972000Y-4064000I-50000J0D01*
G01*
X10972000Y-7620000D02*
G75*
G03*
X10972000Y-7620000I-50000J0D01*
G01*
X11226000Y-4572000D02*
G75*
G03*
X11226000Y-4572000I-50000J0D01*
G01*
X11226000Y-7112000D02*
G75*
G03*
X11226000Y-7112000I-50000J0D01*
G01*
X11480000Y-4064000D02*
G75*
G03*
X11480000Y-4064000I-50000J0D01*
G01*
X11480000Y-7620000D02*
G75*
G03*
X11480000Y-7620000I-50000J0D01*
G01*
X11734000Y-4572000D02*
G75*
G03*
X11734000Y-4572000I-50000J0D01*
G01*
X11734000Y-7112000D02*
G75*
G03*
X11734000Y-7112000I-50000J0D01*
G01*
X11988000Y-4064000D02*
G75*
G03*
X11988000Y-4064000I-50000J0D01*
G01*
X11988000Y-7620000D02*
G75*
G03*
X11988000Y-7620000I-50000J0D01*
G01*
X12242000Y-4572000D02*
G75*
G03*
X12242000Y-4572000I-50000J0D01*
G01*
X12242000Y-7112000D02*
G75*
G03*
X12242000Y-7112000I-50000J0D01*
G01*
X12496000Y-4064000D02*
G75*
G03*
X12496000Y-4064000I-50000J0D01*
G01*
X12496000Y-7620000D02*
G75*
G03*
X12496000Y-7620000I-50000J0D01*
G01*
X12750000Y-4572000D02*
G75*
G03*
X12750000Y-4572000I-50000J0D01*
G01*
X12750000Y-7112000D02*
G75*
G03*
X12750000Y-7112000I-50000J0D01*
G01*
X13004000Y-4064000D02*
G75*
G03*
X13004000Y-4064000I-50000J0D01*
G01*
X13004000Y-7620000D02*
G75*
G03*
X13004000Y-7620000I-50000J0D01*
G01*
X13258000Y-4572000D02*
G75*
G03*
X13258000Y-4572000I-50000J0D01*
G01*
X13258000Y-5016500D02*
G75*
G03*
X13258000Y-5016500I-50000J0D01*
G01*
X13258000Y-5588000D02*
G75*
G03*
X13258000Y-5588000I-50000J0D01*
G01*
X13258000Y-6096000D02*
G75*
G03*
X13258000Y-6096000I-50000J0D01*
G01*
X13258000Y-6604000D02*
G75*
G03*
X13258000Y-6604000I-50000J0D01*
G01*
X13258000Y-7112000D02*
G75*
G03*
X13258000Y-7112000I-50000J0D01*
G01*
X13766000Y-5334000D02*
G75*
G03*
X13766000Y-5334000I-50000J0D01*
G01*
X13766000Y-5842000D02*
G75*
G03*
X13766000Y-5842000I-50000J0D01*
G01*
X13766000Y-6350000D02*
G75*
G03*
X13766000Y-6350000I-50000J0D01*
G01*
D11*
X9206119Y-8316476D02*
X9206119Y-8116476D01*
X9253738Y-8116476D01*
X9282310Y-8126000D01*
X9301357Y-8145048D01*
X9310881Y-8164095D01*
X9320405Y-8202190D01*
X9320405Y-8230762D01*
X9310881Y-8268857D01*
X9301357Y-8287905D01*
X9282310Y-8306952D01*
X9253738Y-8316476D01*
X9206119Y-8316476D01*
X9406119Y-8316476D02*
X9406119Y-8183143D01*
X9406119Y-8221238D02*
X9415643Y-8202190D01*
X9425167Y-8192667D01*
X9444214Y-8183143D01*
X9463262Y-8183143D01*
X9529929Y-8316476D02*
X9529929Y-8183143D01*
X9529929Y-8116476D02*
X9520405Y-8126000D01*
X9529929Y-8135524D01*
X9539452Y-8126000D01*
X9529929Y-8116476D01*
X9529929Y-8135524D01*
X9653738Y-8316476D02*
X9634690Y-8306952D01*
X9625167Y-8287905D01*
X9625167Y-8116476D01*
X9758500Y-8316476D02*
X9739452Y-8306952D01*
X9729929Y-8287905D01*
X9729929Y-8116476D01*
X9987071Y-8316476D02*
X9987071Y-8116476D01*
X10053738Y-8259333D01*
X10120405Y-8116476D01*
X10120405Y-8316476D01*
X10301357Y-8316476D02*
X10301357Y-8211714D01*
X10291833Y-8192667D01*
X10272786Y-8183143D01*
X10234690Y-8183143D01*
X10215643Y-8192667D01*
X10301357Y-8306952D02*
X10282310Y-8316476D01*
X10234690Y-8316476D01*
X10215643Y-8306952D01*
X10206119Y-8287905D01*
X10206119Y-8268857D01*
X10215643Y-8249809D01*
X10234690Y-8240286D01*
X10282310Y-8240286D01*
X10301357Y-8230762D01*
X10396595Y-8183143D02*
X10396595Y-8383143D01*
X10396595Y-8192667D02*
X10415643Y-8183143D01*
X10453738Y-8183143D01*
X10472786Y-8192667D01*
X10482310Y-8202190D01*
X10491833Y-8221238D01*
X10491833Y-8278381D01*
X10482310Y-8297428D01*
X10472786Y-8306952D01*
X10453738Y-8316476D01*
X10415643Y-8316476D01*
X10396595Y-8306952D01*
X10577548Y-8297428D02*
X10587071Y-8306952D01*
X10577548Y-8316476D01*
X10568024Y-8306952D01*
X10577548Y-8297428D01*
X10577548Y-8316476D01*
X10577548Y-8192667D02*
X10587071Y-8202190D01*
X10577548Y-8211714D01*
X10568024Y-8202190D01*
X10577548Y-8192667D01*
X10577548Y-8211714D01*
D12*
X8908500Y-8626000D02*
X8948500Y-8666000D01*
X8948500Y-8626000D02*
X8908500Y-8666000D01*
D11*
X9244214Y-8536476D02*
X9263262Y-8536476D01*
X9282310Y-8546000D01*
X9291833Y-8555524D01*
X9301357Y-8574571D01*
X9310881Y-8612667D01*
X9310881Y-8660286D01*
X9301357Y-8698381D01*
X9291833Y-8717429D01*
X9282310Y-8726952D01*
X9263262Y-8736476D01*
X9244214Y-8736476D01*
X9225167Y-8726952D01*
X9215643Y-8717429D01*
X9206119Y-8698381D01*
X9196595Y-8660286D01*
X9196595Y-8612667D01*
X9206119Y-8574571D01*
X9215643Y-8555524D01*
X9225167Y-8546000D01*
X9244214Y-8536476D01*
X9396595Y-8717429D02*
X9406119Y-8726952D01*
X9396595Y-8736476D01*
X9387071Y-8726952D01*
X9396595Y-8717429D01*
X9396595Y-8736476D01*
X9577548Y-8603143D02*
X9577548Y-8736476D01*
X9529929Y-8526952D02*
X9482310Y-8669810D01*
X9606119Y-8669810D01*
X9720405Y-8536476D02*
X9739452Y-8536476D01*
X9758500Y-8546000D01*
X9768024Y-8555524D01*
X9777548Y-8574571D01*
X9787071Y-8612667D01*
X9787071Y-8660286D01*
X9777548Y-8698381D01*
X9768024Y-8717429D01*
X9758500Y-8726952D01*
X9739452Y-8736476D01*
X9720405Y-8736476D01*
X9701357Y-8726952D01*
X9691833Y-8717429D01*
X9682310Y-8698381D01*
X9672786Y-8660286D01*
X9672786Y-8612667D01*
X9682310Y-8574571D01*
X9691833Y-8555524D01*
X9701357Y-8546000D01*
X9720405Y-8536476D01*
X9910881Y-8536476D02*
X9929929Y-8536476D01*
X9948976Y-8546000D01*
X9958500Y-8555524D01*
X9968024Y-8574571D01*
X9977548Y-8612667D01*
X9977548Y-8660286D01*
X9968024Y-8698381D01*
X9958500Y-8717429D01*
X9948976Y-8726952D01*
X9929929Y-8736476D01*
X9910881Y-8736476D01*
X9891833Y-8726952D01*
X9882310Y-8717429D01*
X9872786Y-8698381D01*
X9863262Y-8660286D01*
X9863262Y-8612667D01*
X9872786Y-8574571D01*
X9882310Y-8555524D01*
X9891833Y-8546000D01*
X9910881Y-8536476D01*
X10063262Y-8736476D02*
X10063262Y-8603143D01*
X10063262Y-8622190D02*
X10072786Y-8612667D01*
X10091833Y-8603143D01*
X10120405Y-8603143D01*
X10139452Y-8612667D01*
X10148976Y-8631714D01*
X10148976Y-8736476D01*
X10148976Y-8631714D02*
X10158500Y-8612667D01*
X10177548Y-8603143D01*
X10206119Y-8603143D01*
X10225167Y-8612667D01*
X10234690Y-8631714D01*
X10234690Y-8736476D01*
X10329929Y-8736476D02*
X10329929Y-8603143D01*
X10329929Y-8622190D02*
X10339452Y-8612667D01*
X10358500Y-8603143D01*
X10387071Y-8603143D01*
X10406119Y-8612667D01*
X10415643Y-8631714D01*
X10415643Y-8736476D01*
X10415643Y-8631714D02*
X10425167Y-8612667D01*
X10444214Y-8603143D01*
X10472786Y-8603143D01*
X10491833Y-8612667D01*
X10501357Y-8631714D01*
X10501357Y-8736476D01*
X10891833Y-8526952D02*
X10720405Y-8784095D01*
X11148976Y-8536476D02*
X11168024Y-8536476D01*
X11187071Y-8546000D01*
X11196595Y-8555524D01*
X11206119Y-8574571D01*
X11215643Y-8612667D01*
X11215643Y-8660286D01*
X11206119Y-8698381D01*
X11196595Y-8717429D01*
X11187071Y-8726952D01*
X11168024Y-8736476D01*
X11148976Y-8736476D01*
X11129929Y-8726952D01*
X11120405Y-8717429D01*
X11110881Y-8698381D01*
X11101357Y-8660286D01*
X11101357Y-8612667D01*
X11110881Y-8574571D01*
X11120405Y-8555524D01*
X11129929Y-8546000D01*
X11148976Y-8536476D01*
X11301357Y-8717429D02*
X11310881Y-8726952D01*
X11301357Y-8736476D01*
X11291833Y-8726952D01*
X11301357Y-8717429D01*
X11301357Y-8736476D01*
X11434690Y-8536476D02*
X11453738Y-8536476D01*
X11472786Y-8546000D01*
X11482309Y-8555524D01*
X11491833Y-8574571D01*
X11501357Y-8612667D01*
X11501357Y-8660286D01*
X11491833Y-8698381D01*
X11482309Y-8717429D01*
X11472786Y-8726952D01*
X11453738Y-8736476D01*
X11434690Y-8736476D01*
X11415643Y-8726952D01*
X11406119Y-8717429D01*
X11396595Y-8698381D01*
X11387071Y-8660286D01*
X11387071Y-8612667D01*
X11396595Y-8574571D01*
X11406119Y-8555524D01*
X11415643Y-8546000D01*
X11434690Y-8536476D01*
X11691833Y-8736476D02*
X11577548Y-8736476D01*
X11634690Y-8736476D02*
X11634690Y-8536476D01*
X11615643Y-8565048D01*
X11596595Y-8584095D01*
X11577548Y-8593619D01*
X11872786Y-8536476D02*
X11777548Y-8536476D01*
X11768024Y-8631714D01*
X11777548Y-8622190D01*
X11796595Y-8612667D01*
X11844214Y-8612667D01*
X11863262Y-8622190D01*
X11872786Y-8631714D01*
X11882309Y-8650762D01*
X11882309Y-8698381D01*
X11872786Y-8717429D01*
X11863262Y-8726952D01*
X11844214Y-8736476D01*
X11796595Y-8736476D01*
X11777548Y-8726952D01*
X11768024Y-8717429D01*
X11948976Y-8536476D02*
X12082309Y-8536476D01*
X11996595Y-8736476D01*
X12148976Y-8536476D02*
X12148976Y-8574571D01*
X12225167Y-8536476D02*
X12225167Y-8574571D01*
X12520405Y-8812667D02*
X12510881Y-8803143D01*
X12491833Y-8774571D01*
X12482309Y-8755524D01*
X12472786Y-8726952D01*
X12463262Y-8679333D01*
X12463262Y-8641238D01*
X12472786Y-8593619D01*
X12482309Y-8565048D01*
X12491833Y-8546000D01*
X12510881Y-8517429D01*
X12520405Y-8507905D01*
X12606119Y-8736476D02*
X12644214Y-8736476D01*
X12663262Y-8726952D01*
X12672786Y-8717429D01*
X12691833Y-8688857D01*
X12701357Y-8650762D01*
X12701357Y-8574571D01*
X12691833Y-8555524D01*
X12682309Y-8546000D01*
X12663262Y-8536476D01*
X12625167Y-8536476D01*
X12606119Y-8546000D01*
X12596595Y-8555524D01*
X12587071Y-8574571D01*
X12587071Y-8622190D01*
X12596595Y-8641238D01*
X12606119Y-8650762D01*
X12625167Y-8660286D01*
X12663262Y-8660286D01*
X12682309Y-8650762D01*
X12691833Y-8641238D01*
X12701357Y-8622190D01*
X12939452Y-8736476D02*
X12939452Y-8536476D01*
X13025167Y-8736476D02*
X13025167Y-8631714D01*
X13015643Y-8612667D01*
X12996595Y-8603143D01*
X12968024Y-8603143D01*
X12948976Y-8612667D01*
X12939452Y-8622190D01*
X13148976Y-8736476D02*
X13129928Y-8726952D01*
X13120405Y-8717429D01*
X13110881Y-8698381D01*
X13110881Y-8641238D01*
X13120405Y-8622190D01*
X13129928Y-8612667D01*
X13148976Y-8603143D01*
X13177548Y-8603143D01*
X13196595Y-8612667D01*
X13206119Y-8622190D01*
X13215643Y-8641238D01*
X13215643Y-8698381D01*
X13206119Y-8717429D01*
X13196595Y-8726952D01*
X13177548Y-8736476D01*
X13148976Y-8736476D01*
X13329928Y-8736476D02*
X13310881Y-8726952D01*
X13301357Y-8707905D01*
X13301357Y-8536476D01*
X13482309Y-8726952D02*
X13463262Y-8736476D01*
X13425167Y-8736476D01*
X13406119Y-8726952D01*
X13396595Y-8707905D01*
X13396595Y-8631714D01*
X13406119Y-8612667D01*
X13425167Y-8603143D01*
X13463262Y-8603143D01*
X13482309Y-8612667D01*
X13491833Y-8631714D01*
X13491833Y-8650762D01*
X13396595Y-8669810D01*
X13568024Y-8726952D02*
X13587071Y-8736476D01*
X13625167Y-8736476D01*
X13644214Y-8726952D01*
X13653738Y-8707905D01*
X13653738Y-8698381D01*
X13644214Y-8679333D01*
X13625167Y-8669810D01*
X13596595Y-8669810D01*
X13577548Y-8660286D01*
X13568024Y-8641238D01*
X13568024Y-8631714D01*
X13577548Y-8612667D01*
X13596595Y-8603143D01*
X13625167Y-8603143D01*
X13644214Y-8612667D01*
X13720405Y-8812667D02*
X13729928Y-8803143D01*
X13748976Y-8774571D01*
X13758500Y-8755524D01*
X13768024Y-8726952D01*
X13777548Y-8679333D01*
X13777548Y-8641238D01*
X13768024Y-8593619D01*
X13758500Y-8565048D01*
X13748976Y-8546000D01*
X13729928Y-8517429D01*
X13720405Y-8507905D01*
D13*
X8948500Y-8910000D02*
G75*
G03*
X8948500Y-8910000I-50000J0D01*
G01*
D11*
X9310881Y-9000476D02*
X9196595Y-9000476D01*
X9253738Y-9000476D02*
X9253738Y-8800476D01*
X9234690Y-8829048D01*
X9215643Y-8848095D01*
X9196595Y-8857619D01*
X9396595Y-8981429D02*
X9406119Y-8990952D01*
X9396595Y-9000476D01*
X9387071Y-8990952D01*
X9396595Y-8981429D01*
X9396595Y-9000476D01*
X9529929Y-8800476D02*
X9548976Y-8800476D01*
X9568024Y-8810000D01*
X9577548Y-8819524D01*
X9587071Y-8838571D01*
X9596595Y-8876667D01*
X9596595Y-8924286D01*
X9587071Y-8962381D01*
X9577548Y-8981429D01*
X9568024Y-8990952D01*
X9548976Y-9000476D01*
X9529929Y-9000476D01*
X9510881Y-8990952D01*
X9501357Y-8981429D01*
X9491833Y-8962381D01*
X9482310Y-8924286D01*
X9482310Y-8876667D01*
X9491833Y-8838571D01*
X9501357Y-8819524D01*
X9510881Y-8810000D01*
X9529929Y-8800476D01*
X9720405Y-8800476D02*
X9739452Y-8800476D01*
X9758500Y-8810000D01*
X9768024Y-8819524D01*
X9777548Y-8838571D01*
X9787071Y-8876667D01*
X9787071Y-8924286D01*
X9777548Y-8962381D01*
X9768024Y-8981429D01*
X9758500Y-8990952D01*
X9739452Y-9000476D01*
X9720405Y-9000476D01*
X9701357Y-8990952D01*
X9691833Y-8981429D01*
X9682310Y-8962381D01*
X9672786Y-8924286D01*
X9672786Y-8876667D01*
X9682310Y-8838571D01*
X9691833Y-8819524D01*
X9701357Y-8810000D01*
X9720405Y-8800476D01*
X9910881Y-8800476D02*
X9929929Y-8800476D01*
X9948976Y-8810000D01*
X9958500Y-8819524D01*
X9968024Y-8838571D01*
X9977548Y-8876667D01*
X9977548Y-8924286D01*
X9968024Y-8962381D01*
X9958500Y-8981429D01*
X9948976Y-8990952D01*
X9929929Y-9000476D01*
X9910881Y-9000476D01*
X9891833Y-8990952D01*
X9882310Y-8981429D01*
X9872786Y-8962381D01*
X9863262Y-8924286D01*
X9863262Y-8876667D01*
X9872786Y-8838571D01*
X9882310Y-8819524D01*
X9891833Y-8810000D01*
X9910881Y-8800476D01*
X10063262Y-9000476D02*
X10063262Y-8867143D01*
X10063262Y-8886190D02*
X10072786Y-8876667D01*
X10091833Y-8867143D01*
X10120405Y-8867143D01*
X10139452Y-8876667D01*
X10148976Y-8895714D01*
X10148976Y-9000476D01*
X10148976Y-8895714D02*
X10158500Y-8876667D01*
X10177548Y-8867143D01*
X10206119Y-8867143D01*
X10225167Y-8876667D01*
X10234690Y-8895714D01*
X10234690Y-9000476D01*
X10329929Y-9000476D02*
X10329929Y-8867143D01*
X10329929Y-8886190D02*
X10339452Y-8876667D01*
X10358500Y-8867143D01*
X10387071Y-8867143D01*
X10406119Y-8876667D01*
X10415643Y-8895714D01*
X10415643Y-9000476D01*
X10415643Y-8895714D02*
X10425167Y-8876667D01*
X10444214Y-8867143D01*
X10472786Y-8867143D01*
X10491833Y-8876667D01*
X10501357Y-8895714D01*
X10501357Y-9000476D01*
X10891833Y-8790952D02*
X10720405Y-9048095D01*
X11148976Y-8800476D02*
X11168024Y-8800476D01*
X11187071Y-8810000D01*
X11196595Y-8819524D01*
X11206119Y-8838571D01*
X11215643Y-8876667D01*
X11215643Y-8924286D01*
X11206119Y-8962381D01*
X11196595Y-8981429D01*
X11187071Y-8990952D01*
X11168024Y-9000476D01*
X11148976Y-9000476D01*
X11129929Y-8990952D01*
X11120405Y-8981429D01*
X11110881Y-8962381D01*
X11101357Y-8924286D01*
X11101357Y-8876667D01*
X11110881Y-8838571D01*
X11120405Y-8819524D01*
X11129929Y-8810000D01*
X11148976Y-8800476D01*
X11301357Y-8981429D02*
X11310881Y-8990952D01*
X11301357Y-9000476D01*
X11291833Y-8990952D01*
X11301357Y-8981429D01*
X11301357Y-9000476D01*
X11434690Y-8800476D02*
X11453738Y-8800476D01*
X11472786Y-8810000D01*
X11482309Y-8819524D01*
X11491833Y-8838571D01*
X11501357Y-8876667D01*
X11501357Y-8924286D01*
X11491833Y-8962381D01*
X11482309Y-8981429D01*
X11472786Y-8990952D01*
X11453738Y-9000476D01*
X11434690Y-9000476D01*
X11415643Y-8990952D01*
X11406119Y-8981429D01*
X11396595Y-8962381D01*
X11387071Y-8924286D01*
X11387071Y-8876667D01*
X11396595Y-8838571D01*
X11406119Y-8819524D01*
X11415643Y-8810000D01*
X11434690Y-8800476D01*
X11568024Y-8800476D02*
X11691833Y-8800476D01*
X11625167Y-8876667D01*
X11653738Y-8876667D01*
X11672786Y-8886190D01*
X11682309Y-8895714D01*
X11691833Y-8914762D01*
X11691833Y-8962381D01*
X11682309Y-8981429D01*
X11672786Y-8990952D01*
X11653738Y-9000476D01*
X11596595Y-9000476D01*
X11577548Y-8990952D01*
X11568024Y-8981429D01*
X11787071Y-9000476D02*
X11825167Y-9000476D01*
X11844214Y-8990952D01*
X11853738Y-8981429D01*
X11872786Y-8952857D01*
X11882309Y-8914762D01*
X11882309Y-8838571D01*
X11872786Y-8819524D01*
X11863262Y-8810000D01*
X11844214Y-8800476D01*
X11806119Y-8800476D01*
X11787071Y-8810000D01*
X11777548Y-8819524D01*
X11768024Y-8838571D01*
X11768024Y-8886190D01*
X11777548Y-8905238D01*
X11787071Y-8914762D01*
X11806119Y-8924286D01*
X11844214Y-8924286D01*
X11863262Y-8914762D01*
X11872786Y-8905238D01*
X11882309Y-8886190D01*
X12053738Y-8867143D02*
X12053738Y-9000476D01*
X12006119Y-8790952D02*
X11958500Y-8933810D01*
X12082309Y-8933810D01*
X12148976Y-8800476D02*
X12148976Y-8838571D01*
X12225167Y-8800476D02*
X12225167Y-8838571D01*
X12520405Y-9076667D02*
X12510881Y-9067143D01*
X12491833Y-9038571D01*
X12482309Y-9019524D01*
X12472786Y-8990952D01*
X12463262Y-8943333D01*
X12463262Y-8905238D01*
X12472786Y-8857619D01*
X12482309Y-8829048D01*
X12491833Y-8810000D01*
X12510881Y-8781429D01*
X12520405Y-8771905D01*
X12691833Y-8800476D02*
X12596595Y-8800476D01*
X12587071Y-8895714D01*
X12596595Y-8886190D01*
X12615643Y-8876667D01*
X12663262Y-8876667D01*
X12682309Y-8886190D01*
X12691833Y-8895714D01*
X12701357Y-8914762D01*
X12701357Y-8962381D01*
X12691833Y-8981429D01*
X12682309Y-8990952D01*
X12663262Y-9000476D01*
X12615643Y-9000476D01*
X12596595Y-8990952D01*
X12587071Y-8981429D01*
X12825167Y-8800476D02*
X12844214Y-8800476D01*
X12863262Y-8810000D01*
X12872786Y-8819524D01*
X12882309Y-8838571D01*
X12891833Y-8876667D01*
X12891833Y-8924286D01*
X12882309Y-8962381D01*
X12872786Y-8981429D01*
X12863262Y-8990952D01*
X12844214Y-9000476D01*
X12825167Y-9000476D01*
X12806119Y-8990952D01*
X12796595Y-8981429D01*
X12787071Y-8962381D01*
X12777548Y-8924286D01*
X12777548Y-8876667D01*
X12787071Y-8838571D01*
X12796595Y-8819524D01*
X12806119Y-8810000D01*
X12825167Y-8800476D01*
X13129928Y-9000476D02*
X13129928Y-8800476D01*
X13215643Y-9000476D02*
X13215643Y-8895714D01*
X13206119Y-8876667D01*
X13187071Y-8867143D01*
X13158500Y-8867143D01*
X13139452Y-8876667D01*
X13129928Y-8886190D01*
X13339452Y-9000476D02*
X13320405Y-8990952D01*
X13310881Y-8981429D01*
X13301357Y-8962381D01*
X13301357Y-8905238D01*
X13310881Y-8886190D01*
X13320405Y-8876667D01*
X13339452Y-8867143D01*
X13368024Y-8867143D01*
X13387071Y-8876667D01*
X13396595Y-8886190D01*
X13406119Y-8905238D01*
X13406119Y-8962381D01*
X13396595Y-8981429D01*
X13387071Y-8990952D01*
X13368024Y-9000476D01*
X13339452Y-9000476D01*
X13520405Y-9000476D02*
X13501357Y-8990952D01*
X13491833Y-8971905D01*
X13491833Y-8800476D01*
X13672786Y-8990952D02*
X13653738Y-9000476D01*
X13615643Y-9000476D01*
X13596595Y-8990952D01*
X13587071Y-8971905D01*
X13587071Y-8895714D01*
X13596595Y-8876667D01*
X13615643Y-8867143D01*
X13653738Y-8867143D01*
X13672786Y-8876667D01*
X13682309Y-8895714D01*
X13682309Y-8914762D01*
X13587071Y-8933810D01*
X13758500Y-8990952D02*
X13777548Y-9000476D01*
X13815643Y-9000476D01*
X13834690Y-8990952D01*
X13844214Y-8971905D01*
X13844214Y-8962381D01*
X13834690Y-8943333D01*
X13815643Y-8933810D01*
X13787071Y-8933810D01*
X13768024Y-8924286D01*
X13758500Y-8905238D01*
X13758500Y-8895714D01*
X13768024Y-8876667D01*
X13787071Y-8867143D01*
X13815643Y-8867143D01*
X13834690Y-8876667D01*
X13910881Y-9076667D02*
X13920405Y-9067143D01*
X13939452Y-9038571D01*
X13948976Y-9019524D01*
X13958500Y-8990952D01*
X13968024Y-8943333D01*
X13968024Y-8905238D01*
X13958500Y-8857619D01*
X13948976Y-8829048D01*
X13939452Y-8810000D01*
X13920405Y-8781429D01*
X13910881Y-8771905D01*
M02*
