M48
; DRILL file {KiCad (6.0.0)} date Sun Mar 13 18:43:23 2022
; FORMAT={-:-/ absolute / metric / decimal}
; #@! TF.CreationDate,2022-03-13T18:43:23-04:00
; #@! TF.GenerationSoftware,Kicad,Pcbnew,(6.0.0)
; #@! TF.FileFunction,Plated,1,2,PTH
FMAT,2
METRIC
; #@! TA.AperFunction,Plated,PTH,ViaDrill
T1C0.400
; #@! TA.AperFunction,Plated,PTH,ComponentDrill
T2C1.000
%
G90
G05
T1
X113.665Y-61.595
X114.84Y-62.325
X114.935Y-64.135
X116.205Y-62.865
X117.475Y-64.135
X118.745Y-62.865
X124.46Y-52.705
X124.46Y-63.5
X125.095Y-60.96
T2
X92.83Y-53.315
X92.83Y-58.39
X92.83Y-60.93
X92.83Y-63.47
X92.83Y-66.01
X92.83Y-68.55
X95.37Y-53.315
X95.37Y-58.39
X95.37Y-60.93
X95.37Y-63.47
X95.37Y-66.01
X95.37Y-68.55
X101.6Y-48.26
X101.6Y-53.34
X101.6Y-58.42
X101.6Y-63.5
X104.14Y-40.64
X106.68Y-45.72
X106.68Y-50.8
X106.68Y-55.88
X106.68Y-60.96
X106.68Y-66.04
X106.68Y-71.12
X109.22Y-40.64
X109.22Y-76.2
X111.76Y-45.72
X111.76Y-71.12
X114.3Y-40.64
X114.3Y-76.2
X116.84Y-45.72
X116.84Y-71.12
X119.38Y-40.64
X119.38Y-76.2
X121.92Y-45.72
X121.92Y-71.12
X124.46Y-40.64
X124.46Y-76.2
X127.0Y-45.72
X127.0Y-71.12
X129.54Y-40.64
X129.54Y-76.2
X132.08Y-45.72
X132.08Y-50.165
X132.08Y-55.88
X132.08Y-60.96
X132.08Y-66.04
X132.08Y-71.12
X137.16Y-53.34
X137.16Y-58.42
X137.16Y-63.5
T0
M30
