G04 #@! TF.GenerationSoftware,KiCad,Pcbnew,(6.0.0)*
G04 #@! TF.CreationDate,2022-12-27T21:52:24-05:00*
G04 #@! TF.ProjectId,rp2040 rs485 scale breakout,72703230-3430-4207-9273-343835207363,rev?*
G04 #@! TF.SameCoordinates,Original*
G04 #@! TF.FileFunction,Legend,Bot*
G04 #@! TF.FilePolarity,Positive*
%FSLAX46Y46*%
G04 Gerber Fmt 4.6, Leading zero omitted, Abs format (unit mm)*
G04 Created by KiCad (PCBNEW (6.0.0)) date 2022-12-27 21:52:24*
%MOMM*%
%LPD*%
G01*
G04 APERTURE LIST*
G04 Aperture macros list*
%AMRoundRect*
0 Rectangle with rounded corners*
0 $1 Rounding radius*
0 $2 $3 $4 $5 $6 $7 $8 $9 X,Y pos of 4 corners*
0 Add a 4 corners polygon primitive as box body*
4,1,4,$2,$3,$4,$5,$6,$7,$8,$9,$2,$3,0*
0 Add four circle primitives for the rounded corners*
1,1,$1+$1,$2,$3*
1,1,$1+$1,$4,$5*
1,1,$1+$1,$6,$7*
1,1,$1+$1,$8,$9*
0 Add four rect primitives between the rounded corners*
20,1,$1+$1,$2,$3,$4,$5,0*
20,1,$1+$1,$4,$5,$6,$7,0*
20,1,$1+$1,$6,$7,$8,$9,0*
20,1,$1+$1,$8,$9,$2,$3,0*%
%AMFreePoly0*
4,1,22,0.550000,-0.750000,0.000000,-0.750000,0.000000,-0.745033,-0.079941,-0.743568,-0.215256,-0.701293,-0.333266,-0.622738,-0.424486,-0.514219,-0.481581,-0.384460,-0.499164,-0.250000,-0.500000,-0.250000,-0.500000,0.250000,-0.499164,0.250000,-0.499963,0.256109,-0.478152,0.396186,-0.417904,0.524511,-0.324060,0.630769,-0.204165,0.706417,-0.067858,0.745374,0.000000,0.744959,0.000000,0.750000,
0.550000,0.750000,0.550000,-0.750000,0.550000,-0.750000,$1*%
%AMFreePoly1*
4,1,20,0.000000,0.744959,0.073905,0.744508,0.209726,0.703889,0.328688,0.626782,0.421226,0.519385,0.479903,0.390333,0.500000,0.250000,0.500000,-0.250000,0.499851,-0.262216,0.476331,-0.402017,0.414519,-0.529596,0.319384,-0.634700,0.198574,-0.708877,0.061801,-0.746166,0.000000,-0.745033,0.000000,-0.750000,-0.550000,-0.750000,-0.550000,0.750000,0.000000,0.750000,0.000000,0.744959,
0.000000,0.744959,$1*%
G04 Aperture macros list end*
%ADD10C,0.150000*%
%ADD11C,0.120000*%
%ADD12R,1.524000X1.524000*%
%ADD13C,1.524000*%
%ADD14R,2.600000X2.600000*%
%ADD15C,2.600000*%
%ADD16RoundRect,0.250000X-0.600000X-0.725000X0.600000X-0.725000X0.600000X0.725000X-0.600000X0.725000X0*%
%ADD17O,1.700000X1.950000*%
%ADD18R,1.700000X1.700000*%
%ADD19C,3.200000*%
%ADD20R,1.600000X1.600000*%
%ADD21C,1.600000*%
%ADD22FreePoly0,270.000000*%
%ADD23R,1.500000X1.000000*%
%ADD24FreePoly1,270.000000*%
%ADD25RoundRect,0.200000X0.200000X0.275000X-0.200000X0.275000X-0.200000X-0.275000X0.200000X-0.275000X0*%
%ADD26R,0.650000X1.560000*%
%ADD27RoundRect,0.225000X-0.250000X0.225000X-0.250000X-0.225000X0.250000X-0.225000X0.250000X0.225000X0*%
%ADD28RoundRect,0.150000X-0.825000X-0.150000X0.825000X-0.150000X0.825000X0.150000X-0.825000X0.150000X0*%
%ADD29RoundRect,0.225000X0.225000X0.250000X-0.225000X0.250000X-0.225000X-0.250000X0.225000X-0.250000X0*%
G04 APERTURE END LIST*
D10*
X204414380Y-137858571D02*
X203938190Y-137525238D01*
X204414380Y-137287142D02*
X203414380Y-137287142D01*
X203414380Y-137668095D01*
X203462000Y-137763333D01*
X203509619Y-137810952D01*
X203604857Y-137858571D01*
X203747714Y-137858571D01*
X203842952Y-137810952D01*
X203890571Y-137763333D01*
X203938190Y-137668095D01*
X203938190Y-137287142D01*
X204366761Y-138668095D02*
X204414380Y-138572857D01*
X204414380Y-138382380D01*
X204366761Y-138287142D01*
X204271523Y-138239523D01*
X203890571Y-138239523D01*
X203795333Y-138287142D01*
X203747714Y-138382380D01*
X203747714Y-138572857D01*
X203795333Y-138668095D01*
X203890571Y-138715714D01*
X203985809Y-138715714D01*
X204081047Y-138239523D01*
X204414380Y-139572857D02*
X203414380Y-139572857D01*
X204366761Y-139572857D02*
X204414380Y-139477619D01*
X204414380Y-139287142D01*
X204366761Y-139191904D01*
X204319142Y-139144285D01*
X204223904Y-139096666D01*
X203938190Y-139096666D01*
X203842952Y-139144285D01*
X203795333Y-139191904D01*
X203747714Y-139287142D01*
X203747714Y-139477619D01*
X203795333Y-139572857D01*
X179586000Y-137072857D02*
X179538380Y-136977619D01*
X179538380Y-136834761D01*
X179586000Y-136691904D01*
X179681238Y-136596666D01*
X179776476Y-136549047D01*
X179966952Y-136501428D01*
X180109809Y-136501428D01*
X180300285Y-136549047D01*
X180395523Y-136596666D01*
X180490761Y-136691904D01*
X180538380Y-136834761D01*
X180538380Y-136930000D01*
X180490761Y-137072857D01*
X180443142Y-137120476D01*
X180109809Y-137120476D01*
X180109809Y-136930000D01*
X180538380Y-137549047D02*
X179871714Y-137549047D01*
X180062190Y-137549047D02*
X179966952Y-137596666D01*
X179919333Y-137644285D01*
X179871714Y-137739523D01*
X179871714Y-137834761D01*
X180490761Y-138549047D02*
X180538380Y-138453809D01*
X180538380Y-138263333D01*
X180490761Y-138168095D01*
X180395523Y-138120476D01*
X180014571Y-138120476D01*
X179919333Y-138168095D01*
X179871714Y-138263333D01*
X179871714Y-138453809D01*
X179919333Y-138549047D01*
X180014571Y-138596666D01*
X180109809Y-138596666D01*
X180205047Y-138120476D01*
X180490761Y-139406190D02*
X180538380Y-139310952D01*
X180538380Y-139120476D01*
X180490761Y-139025238D01*
X180395523Y-138977619D01*
X180014571Y-138977619D01*
X179919333Y-139025238D01*
X179871714Y-139120476D01*
X179871714Y-139310952D01*
X179919333Y-139406190D01*
X180014571Y-139453809D01*
X180109809Y-139453809D01*
X180205047Y-138977619D01*
X179871714Y-139882380D02*
X180538380Y-139882380D01*
X179966952Y-139882380D02*
X179919333Y-139930000D01*
X179871714Y-140025238D01*
X179871714Y-140168095D01*
X179919333Y-140263333D01*
X180014571Y-140310952D01*
X180538380Y-140310952D01*
X173934380Y-137858571D02*
X173458190Y-137525238D01*
X173934380Y-137287142D02*
X172934380Y-137287142D01*
X172934380Y-137668095D01*
X172982000Y-137763333D01*
X173029619Y-137810952D01*
X173124857Y-137858571D01*
X173267714Y-137858571D01*
X173362952Y-137810952D01*
X173410571Y-137763333D01*
X173458190Y-137668095D01*
X173458190Y-137287142D01*
X173886761Y-138668095D02*
X173934380Y-138572857D01*
X173934380Y-138382380D01*
X173886761Y-138287142D01*
X173791523Y-138239523D01*
X173410571Y-138239523D01*
X173315333Y-138287142D01*
X173267714Y-138382380D01*
X173267714Y-138572857D01*
X173315333Y-138668095D01*
X173410571Y-138715714D01*
X173505809Y-138715714D01*
X173601047Y-138239523D01*
X173934380Y-139572857D02*
X172934380Y-139572857D01*
X173886761Y-139572857D02*
X173934380Y-139477619D01*
X173934380Y-139287142D01*
X173886761Y-139191904D01*
X173839142Y-139144285D01*
X173743904Y-139096666D01*
X173458190Y-139096666D01*
X173362952Y-139144285D01*
X173315333Y-139191904D01*
X173267714Y-139287142D01*
X173267714Y-139477619D01*
X173315333Y-139572857D01*
X221939809Y-130357619D02*
X221892190Y-130310000D01*
X221796952Y-130262380D01*
X221558857Y-130262380D01*
X221463619Y-130310000D01*
X221416000Y-130357619D01*
X221368380Y-130452857D01*
X221368380Y-130548095D01*
X221416000Y-130690952D01*
X221987428Y-131262380D01*
X221368380Y-131262380D01*
X220939809Y-131167142D02*
X220892190Y-131214761D01*
X220939809Y-131262380D01*
X220987428Y-131214761D01*
X220939809Y-131167142D01*
X220939809Y-131262380D01*
X220511238Y-130357619D02*
X220463619Y-130310000D01*
X220368380Y-130262380D01*
X220130285Y-130262380D01*
X220035047Y-130310000D01*
X219987428Y-130357619D01*
X219939809Y-130452857D01*
X219939809Y-130548095D01*
X219987428Y-130690952D01*
X220558857Y-131262380D01*
X219939809Y-131262380D01*
X219511238Y-131262380D02*
X219511238Y-130262380D01*
X219416000Y-130881428D02*
X219130285Y-131262380D01*
X219130285Y-130595714D02*
X219511238Y-130976666D01*
X217939809Y-131262380D02*
X217939809Y-130595714D01*
X217939809Y-130786190D02*
X217892190Y-130690952D01*
X217844571Y-130643333D01*
X217749333Y-130595714D01*
X217654095Y-130595714D01*
X216939809Y-131214761D02*
X217035047Y-131262380D01*
X217225523Y-131262380D01*
X217320761Y-131214761D01*
X217368380Y-131119523D01*
X217368380Y-130738571D01*
X217320761Y-130643333D01*
X217225523Y-130595714D01*
X217035047Y-130595714D01*
X216939809Y-130643333D01*
X216892190Y-130738571D01*
X216892190Y-130833809D01*
X217368380Y-130929047D01*
X216511238Y-131214761D02*
X216416000Y-131262380D01*
X216225523Y-131262380D01*
X216130285Y-131214761D01*
X216082666Y-131119523D01*
X216082666Y-131071904D01*
X216130285Y-130976666D01*
X216225523Y-130929047D01*
X216368380Y-130929047D01*
X216463619Y-130881428D01*
X216511238Y-130786190D01*
X216511238Y-130738571D01*
X216463619Y-130643333D01*
X216368380Y-130595714D01*
X216225523Y-130595714D01*
X216130285Y-130643333D01*
X215654095Y-131262380D02*
X215654095Y-130595714D01*
X215654095Y-130262380D02*
X215701714Y-130310000D01*
X215654095Y-130357619D01*
X215606476Y-130310000D01*
X215654095Y-130262380D01*
X215654095Y-130357619D01*
X215225523Y-131214761D02*
X215130285Y-131262380D01*
X214939809Y-131262380D01*
X214844571Y-131214761D01*
X214796952Y-131119523D01*
X214796952Y-131071904D01*
X214844571Y-130976666D01*
X214939809Y-130929047D01*
X215082666Y-130929047D01*
X215177904Y-130881428D01*
X215225523Y-130786190D01*
X215225523Y-130738571D01*
X215177904Y-130643333D01*
X215082666Y-130595714D01*
X214939809Y-130595714D01*
X214844571Y-130643333D01*
X214511238Y-130595714D02*
X214130285Y-130595714D01*
X214368380Y-130262380D02*
X214368380Y-131119523D01*
X214320761Y-131214761D01*
X214225523Y-131262380D01*
X214130285Y-131262380D01*
X213654095Y-131262380D02*
X213749333Y-131214761D01*
X213796952Y-131167142D01*
X213844571Y-131071904D01*
X213844571Y-130786190D01*
X213796952Y-130690952D01*
X213749333Y-130643333D01*
X213654095Y-130595714D01*
X213511238Y-130595714D01*
X213416000Y-130643333D01*
X213368380Y-130690952D01*
X213320761Y-130786190D01*
X213320761Y-131071904D01*
X213368380Y-131167142D01*
X213416000Y-131214761D01*
X213511238Y-131262380D01*
X213654095Y-131262380D01*
X212892190Y-131262380D02*
X212892190Y-130595714D01*
X212892190Y-130786190D02*
X212844571Y-130690952D01*
X212796952Y-130643333D01*
X212701714Y-130595714D01*
X212606476Y-130595714D01*
X212320761Y-131214761D02*
X212225523Y-131262380D01*
X212035047Y-131262380D01*
X211939809Y-131214761D01*
X211892190Y-131119523D01*
X211892190Y-131071904D01*
X211939809Y-130976666D01*
X212035047Y-130929047D01*
X212177904Y-130929047D01*
X212273142Y-130881428D01*
X212320761Y-130786190D01*
X212320761Y-130738571D01*
X212273142Y-130643333D01*
X212177904Y-130595714D01*
X212035047Y-130595714D01*
X211939809Y-130643333D01*
X212558380Y-136596666D02*
X213558380Y-136834761D01*
X212844095Y-137025238D01*
X213558380Y-137215714D01*
X212558380Y-137453809D01*
X213558380Y-137834761D02*
X212558380Y-137834761D01*
X213558380Y-138263333D02*
X213034571Y-138263333D01*
X212939333Y-138215714D01*
X212891714Y-138120476D01*
X212891714Y-137977619D01*
X212939333Y-137882380D01*
X212986952Y-137834761D01*
X213558380Y-138739523D02*
X212891714Y-138739523D01*
X212558380Y-138739523D02*
X212606000Y-138691904D01*
X212653619Y-138739523D01*
X212606000Y-138787142D01*
X212558380Y-138739523D01*
X212653619Y-138739523D01*
X212891714Y-139072857D02*
X212891714Y-139453809D01*
X212558380Y-139215714D02*
X213415523Y-139215714D01*
X213510761Y-139263333D01*
X213558380Y-139358571D01*
X213558380Y-139453809D01*
X213510761Y-140168095D02*
X213558380Y-140072857D01*
X213558380Y-139882380D01*
X213510761Y-139787142D01*
X213415523Y-139739523D01*
X213034571Y-139739523D01*
X212939333Y-139787142D01*
X212891714Y-139882380D01*
X212891714Y-140072857D01*
X212939333Y-140168095D01*
X213034571Y-140215714D01*
X213129809Y-140215714D01*
X213225047Y-139739523D01*
X148574095Y-138850666D02*
X148097904Y-138850666D01*
X148669333Y-139136380D02*
X148336000Y-138136380D01*
X148002666Y-139136380D01*
X218638380Y-137858571D02*
X218162190Y-137525238D01*
X218638380Y-137287142D02*
X217638380Y-137287142D01*
X217638380Y-137668095D01*
X217686000Y-137763333D01*
X217733619Y-137810952D01*
X217828857Y-137858571D01*
X217971714Y-137858571D01*
X218066952Y-137810952D01*
X218114571Y-137763333D01*
X218162190Y-137668095D01*
X218162190Y-137287142D01*
X218590761Y-138668095D02*
X218638380Y-138572857D01*
X218638380Y-138382380D01*
X218590761Y-138287142D01*
X218495523Y-138239523D01*
X218114571Y-138239523D01*
X218019333Y-138287142D01*
X217971714Y-138382380D01*
X217971714Y-138572857D01*
X218019333Y-138668095D01*
X218114571Y-138715714D01*
X218209809Y-138715714D01*
X218305047Y-138239523D01*
X218638380Y-139572857D02*
X217638380Y-139572857D01*
X218590761Y-139572857D02*
X218638380Y-139477619D01*
X218638380Y-139287142D01*
X218590761Y-139191904D01*
X218543142Y-139144285D01*
X218447904Y-139096666D01*
X218162190Y-139096666D01*
X218066952Y-139144285D01*
X218019333Y-139191904D01*
X217971714Y-139287142D01*
X217971714Y-139477619D01*
X218019333Y-139572857D01*
X147796285Y-130500380D02*
X148367714Y-130500380D01*
X148082000Y-130500380D02*
X148082000Y-129500380D01*
X148177238Y-129643238D01*
X148272476Y-129738476D01*
X148367714Y-129786095D01*
X191967809Y-124007619D02*
X191920190Y-123960000D01*
X191824952Y-123912380D01*
X191586857Y-123912380D01*
X191491619Y-123960000D01*
X191444000Y-124007619D01*
X191396380Y-124102857D01*
X191396380Y-124198095D01*
X191444000Y-124340952D01*
X192015428Y-124912380D01*
X191396380Y-124912380D01*
X190967809Y-124817142D02*
X190920190Y-124864761D01*
X190967809Y-124912380D01*
X191015428Y-124864761D01*
X190967809Y-124817142D01*
X190967809Y-124912380D01*
X190539238Y-124007619D02*
X190491619Y-123960000D01*
X190396380Y-123912380D01*
X190158285Y-123912380D01*
X190063047Y-123960000D01*
X190015428Y-124007619D01*
X189967809Y-124102857D01*
X189967809Y-124198095D01*
X190015428Y-124340952D01*
X190586857Y-124912380D01*
X189967809Y-124912380D01*
X189539238Y-124912380D02*
X189539238Y-123912380D01*
X189444000Y-124531428D02*
X189158285Y-124912380D01*
X189158285Y-124245714D02*
X189539238Y-124626666D01*
X187967809Y-124912380D02*
X187967809Y-124245714D01*
X187967809Y-124436190D02*
X187920190Y-124340952D01*
X187872571Y-124293333D01*
X187777333Y-124245714D01*
X187682095Y-124245714D01*
X186967809Y-124864761D02*
X187063047Y-124912380D01*
X187253523Y-124912380D01*
X187348761Y-124864761D01*
X187396380Y-124769523D01*
X187396380Y-124388571D01*
X187348761Y-124293333D01*
X187253523Y-124245714D01*
X187063047Y-124245714D01*
X186967809Y-124293333D01*
X186920190Y-124388571D01*
X186920190Y-124483809D01*
X187396380Y-124579047D01*
X186539238Y-124864761D02*
X186444000Y-124912380D01*
X186253523Y-124912380D01*
X186158285Y-124864761D01*
X186110666Y-124769523D01*
X186110666Y-124721904D01*
X186158285Y-124626666D01*
X186253523Y-124579047D01*
X186396380Y-124579047D01*
X186491619Y-124531428D01*
X186539238Y-124436190D01*
X186539238Y-124388571D01*
X186491619Y-124293333D01*
X186396380Y-124245714D01*
X186253523Y-124245714D01*
X186158285Y-124293333D01*
X185682095Y-124912380D02*
X185682095Y-124245714D01*
X185682095Y-123912380D02*
X185729714Y-123960000D01*
X185682095Y-124007619D01*
X185634476Y-123960000D01*
X185682095Y-123912380D01*
X185682095Y-124007619D01*
X185253523Y-124864761D02*
X185158285Y-124912380D01*
X184967809Y-124912380D01*
X184872571Y-124864761D01*
X184824952Y-124769523D01*
X184824952Y-124721904D01*
X184872571Y-124626666D01*
X184967809Y-124579047D01*
X185110666Y-124579047D01*
X185205904Y-124531428D01*
X185253523Y-124436190D01*
X185253523Y-124388571D01*
X185205904Y-124293333D01*
X185110666Y-124245714D01*
X184967809Y-124245714D01*
X184872571Y-124293333D01*
X184539238Y-124245714D02*
X184158285Y-124245714D01*
X184396380Y-123912380D02*
X184396380Y-124769523D01*
X184348761Y-124864761D01*
X184253523Y-124912380D01*
X184158285Y-124912380D01*
X183682095Y-124912380D02*
X183777333Y-124864761D01*
X183824952Y-124817142D01*
X183872571Y-124721904D01*
X183872571Y-124436190D01*
X183824952Y-124340952D01*
X183777333Y-124293333D01*
X183682095Y-124245714D01*
X183539238Y-124245714D01*
X183444000Y-124293333D01*
X183396380Y-124340952D01*
X183348761Y-124436190D01*
X183348761Y-124721904D01*
X183396380Y-124817142D01*
X183444000Y-124864761D01*
X183539238Y-124912380D01*
X183682095Y-124912380D01*
X182920190Y-124912380D02*
X182920190Y-124245714D01*
X182920190Y-124436190D02*
X182872571Y-124340952D01*
X182824952Y-124293333D01*
X182729714Y-124245714D01*
X182634476Y-124245714D01*
X182348761Y-124864761D02*
X182253523Y-124912380D01*
X182063047Y-124912380D01*
X181967809Y-124864761D01*
X181920190Y-124769523D01*
X181920190Y-124721904D01*
X181967809Y-124626666D01*
X182063047Y-124579047D01*
X182205904Y-124579047D01*
X182301142Y-124531428D01*
X182348761Y-124436190D01*
X182348761Y-124388571D01*
X182301142Y-124293333D01*
X182205904Y-124245714D01*
X182063047Y-124245714D01*
X181967809Y-124293333D01*
X185094571Y-136953809D02*
X185142190Y-137096666D01*
X185189809Y-137144285D01*
X185285047Y-137191904D01*
X185427904Y-137191904D01*
X185523142Y-137144285D01*
X185570761Y-137096666D01*
X185618380Y-137001428D01*
X185618380Y-136620476D01*
X184618380Y-136620476D01*
X184618380Y-136953809D01*
X184666000Y-137049047D01*
X184713619Y-137096666D01*
X184808857Y-137144285D01*
X184904095Y-137144285D01*
X184999333Y-137096666D01*
X185046952Y-137049047D01*
X185094571Y-136953809D01*
X185094571Y-136620476D01*
X185618380Y-137763333D02*
X185570761Y-137668095D01*
X185475523Y-137620476D01*
X184618380Y-137620476D01*
X185618380Y-138572857D02*
X185094571Y-138572857D01*
X184999333Y-138525238D01*
X184951714Y-138430000D01*
X184951714Y-138239523D01*
X184999333Y-138144285D01*
X185570761Y-138572857D02*
X185618380Y-138477619D01*
X185618380Y-138239523D01*
X185570761Y-138144285D01*
X185475523Y-138096666D01*
X185380285Y-138096666D01*
X185285047Y-138144285D01*
X185237428Y-138239523D01*
X185237428Y-138477619D01*
X185189809Y-138572857D01*
X185570761Y-139477619D02*
X185618380Y-139382380D01*
X185618380Y-139191904D01*
X185570761Y-139096666D01*
X185523142Y-139049047D01*
X185427904Y-139001428D01*
X185142190Y-139001428D01*
X185046952Y-139049047D01*
X184999333Y-139096666D01*
X184951714Y-139191904D01*
X184951714Y-139382380D01*
X184999333Y-139477619D01*
X185618380Y-139906190D02*
X184618380Y-139906190D01*
X185237428Y-140001428D02*
X185618380Y-140287142D01*
X184951714Y-140287142D02*
X185332666Y-139906190D01*
X167854380Y-136596666D02*
X168854380Y-136834761D01*
X168140095Y-137025238D01*
X168854380Y-137215714D01*
X167854380Y-137453809D01*
X168854380Y-137834761D02*
X167854380Y-137834761D01*
X168854380Y-138263333D02*
X168330571Y-138263333D01*
X168235333Y-138215714D01*
X168187714Y-138120476D01*
X168187714Y-137977619D01*
X168235333Y-137882380D01*
X168282952Y-137834761D01*
X168854380Y-138739523D02*
X168187714Y-138739523D01*
X167854380Y-138739523D02*
X167902000Y-138691904D01*
X167949619Y-138739523D01*
X167902000Y-138787142D01*
X167854380Y-138739523D01*
X167949619Y-138739523D01*
X168187714Y-139072857D02*
X168187714Y-139453809D01*
X167854380Y-139215714D02*
X168711523Y-139215714D01*
X168806761Y-139263333D01*
X168854380Y-139358571D01*
X168854380Y-139453809D01*
X168806761Y-140168095D02*
X168854380Y-140072857D01*
X168854380Y-139882380D01*
X168806761Y-139787142D01*
X168711523Y-139739523D01*
X168330571Y-139739523D01*
X168235333Y-139787142D01*
X168187714Y-139882380D01*
X168187714Y-140072857D01*
X168235333Y-140168095D01*
X168330571Y-140215714D01*
X168425809Y-140215714D01*
X168521047Y-139739523D01*
X195842000Y-137072857D02*
X195794380Y-136977619D01*
X195794380Y-136834761D01*
X195842000Y-136691904D01*
X195937238Y-136596666D01*
X196032476Y-136549047D01*
X196222952Y-136501428D01*
X196365809Y-136501428D01*
X196556285Y-136549047D01*
X196651523Y-136596666D01*
X196746761Y-136691904D01*
X196794380Y-136834761D01*
X196794380Y-136930000D01*
X196746761Y-137072857D01*
X196699142Y-137120476D01*
X196365809Y-137120476D01*
X196365809Y-136930000D01*
X196794380Y-137549047D02*
X196127714Y-137549047D01*
X196318190Y-137549047D02*
X196222952Y-137596666D01*
X196175333Y-137644285D01*
X196127714Y-137739523D01*
X196127714Y-137834761D01*
X196746761Y-138549047D02*
X196794380Y-138453809D01*
X196794380Y-138263333D01*
X196746761Y-138168095D01*
X196651523Y-138120476D01*
X196270571Y-138120476D01*
X196175333Y-138168095D01*
X196127714Y-138263333D01*
X196127714Y-138453809D01*
X196175333Y-138549047D01*
X196270571Y-138596666D01*
X196365809Y-138596666D01*
X196461047Y-138120476D01*
X196746761Y-139406190D02*
X196794380Y-139310952D01*
X196794380Y-139120476D01*
X196746761Y-139025238D01*
X196651523Y-138977619D01*
X196270571Y-138977619D01*
X196175333Y-139025238D01*
X196127714Y-139120476D01*
X196127714Y-139310952D01*
X196175333Y-139406190D01*
X196270571Y-139453809D01*
X196365809Y-139453809D01*
X196461047Y-138977619D01*
X196127714Y-139882380D02*
X196794380Y-139882380D01*
X196222952Y-139882380D02*
X196175333Y-139930000D01*
X196127714Y-140025238D01*
X196127714Y-140168095D01*
X196175333Y-140263333D01*
X196270571Y-140310952D01*
X196794380Y-140310952D01*
X215574571Y-136953809D02*
X215622190Y-137096666D01*
X215669809Y-137144285D01*
X215765047Y-137191904D01*
X215907904Y-137191904D01*
X216003142Y-137144285D01*
X216050761Y-137096666D01*
X216098380Y-137001428D01*
X216098380Y-136620476D01*
X215098380Y-136620476D01*
X215098380Y-136953809D01*
X215146000Y-137049047D01*
X215193619Y-137096666D01*
X215288857Y-137144285D01*
X215384095Y-137144285D01*
X215479333Y-137096666D01*
X215526952Y-137049047D01*
X215574571Y-136953809D01*
X215574571Y-136620476D01*
X216098380Y-137763333D02*
X216050761Y-137668095D01*
X215955523Y-137620476D01*
X215098380Y-137620476D01*
X216098380Y-138572857D02*
X215574571Y-138572857D01*
X215479333Y-138525238D01*
X215431714Y-138430000D01*
X215431714Y-138239523D01*
X215479333Y-138144285D01*
X216050761Y-138572857D02*
X216098380Y-138477619D01*
X216098380Y-138239523D01*
X216050761Y-138144285D01*
X215955523Y-138096666D01*
X215860285Y-138096666D01*
X215765047Y-138144285D01*
X215717428Y-138239523D01*
X215717428Y-138477619D01*
X215669809Y-138572857D01*
X216050761Y-139477619D02*
X216098380Y-139382380D01*
X216098380Y-139191904D01*
X216050761Y-139096666D01*
X216003142Y-139049047D01*
X215907904Y-139001428D01*
X215622190Y-139001428D01*
X215526952Y-139049047D01*
X215479333Y-139096666D01*
X215431714Y-139191904D01*
X215431714Y-139382380D01*
X215479333Y-139477619D01*
X216098380Y-139906190D02*
X215098380Y-139906190D01*
X215717428Y-140001428D02*
X216098380Y-140287142D01*
X215431714Y-140287142D02*
X215812666Y-139906190D01*
X170870571Y-136953809D02*
X170918190Y-137096666D01*
X170965809Y-137144285D01*
X171061047Y-137191904D01*
X171203904Y-137191904D01*
X171299142Y-137144285D01*
X171346761Y-137096666D01*
X171394380Y-137001428D01*
X171394380Y-136620476D01*
X170394380Y-136620476D01*
X170394380Y-136953809D01*
X170442000Y-137049047D01*
X170489619Y-137096666D01*
X170584857Y-137144285D01*
X170680095Y-137144285D01*
X170775333Y-137096666D01*
X170822952Y-137049047D01*
X170870571Y-136953809D01*
X170870571Y-136620476D01*
X171394380Y-137763333D02*
X171346761Y-137668095D01*
X171251523Y-137620476D01*
X170394380Y-137620476D01*
X171394380Y-138572857D02*
X170870571Y-138572857D01*
X170775333Y-138525238D01*
X170727714Y-138430000D01*
X170727714Y-138239523D01*
X170775333Y-138144285D01*
X171346761Y-138572857D02*
X171394380Y-138477619D01*
X171394380Y-138239523D01*
X171346761Y-138144285D01*
X171251523Y-138096666D01*
X171156285Y-138096666D01*
X171061047Y-138144285D01*
X171013428Y-138239523D01*
X171013428Y-138477619D01*
X170965809Y-138572857D01*
X171346761Y-139477619D02*
X171394380Y-139382380D01*
X171394380Y-139191904D01*
X171346761Y-139096666D01*
X171299142Y-139049047D01*
X171203904Y-139001428D01*
X170918190Y-139001428D01*
X170822952Y-139049047D01*
X170775333Y-139096666D01*
X170727714Y-139191904D01*
X170727714Y-139382380D01*
X170775333Y-139477619D01*
X171394380Y-139906190D02*
X170394380Y-139906190D01*
X171013428Y-140001428D02*
X171394380Y-140287142D01*
X170727714Y-140287142D02*
X171108666Y-139906190D01*
X171926285Y-131770380D02*
X172497714Y-131770380D01*
X172212000Y-131770380D02*
X172212000Y-130770380D01*
X172307238Y-130913238D01*
X172402476Y-131008476D01*
X172497714Y-131056095D01*
X198334380Y-136596666D02*
X199334380Y-136834761D01*
X198620095Y-137025238D01*
X199334380Y-137215714D01*
X198334380Y-137453809D01*
X199334380Y-137834761D02*
X198334380Y-137834761D01*
X199334380Y-138263333D02*
X198810571Y-138263333D01*
X198715333Y-138215714D01*
X198667714Y-138120476D01*
X198667714Y-137977619D01*
X198715333Y-137882380D01*
X198762952Y-137834761D01*
X199334380Y-138739523D02*
X198667714Y-138739523D01*
X198334380Y-138739523D02*
X198382000Y-138691904D01*
X198429619Y-138739523D01*
X198382000Y-138787142D01*
X198334380Y-138739523D01*
X198429619Y-138739523D01*
X198667714Y-139072857D02*
X198667714Y-139453809D01*
X198334380Y-139215714D02*
X199191523Y-139215714D01*
X199286761Y-139263333D01*
X199334380Y-139358571D01*
X199334380Y-139453809D01*
X199286761Y-140168095D02*
X199334380Y-140072857D01*
X199334380Y-139882380D01*
X199286761Y-139787142D01*
X199191523Y-139739523D01*
X198810571Y-139739523D01*
X198715333Y-139787142D01*
X198667714Y-139882380D01*
X198667714Y-140072857D01*
X198715333Y-140168095D01*
X198810571Y-140215714D01*
X198905809Y-140215714D01*
X199001047Y-139739523D01*
X153344571Y-138612571D02*
X153201714Y-138660190D01*
X153154095Y-138707809D01*
X153106476Y-138803047D01*
X153106476Y-138945904D01*
X153154095Y-139041142D01*
X153201714Y-139088761D01*
X153296952Y-139136380D01*
X153677904Y-139136380D01*
X153677904Y-138136380D01*
X153344571Y-138136380D01*
X153249333Y-138184000D01*
X153201714Y-138231619D01*
X153154095Y-138326857D01*
X153154095Y-138422095D01*
X153201714Y-138517333D01*
X153249333Y-138564952D01*
X153344571Y-138612571D01*
X153677904Y-138612571D01*
X165362000Y-137072857D02*
X165314380Y-136977619D01*
X165314380Y-136834761D01*
X165362000Y-136691904D01*
X165457238Y-136596666D01*
X165552476Y-136549047D01*
X165742952Y-136501428D01*
X165885809Y-136501428D01*
X166076285Y-136549047D01*
X166171523Y-136596666D01*
X166266761Y-136691904D01*
X166314380Y-136834761D01*
X166314380Y-136930000D01*
X166266761Y-137072857D01*
X166219142Y-137120476D01*
X165885809Y-137120476D01*
X165885809Y-136930000D01*
X166314380Y-137549047D02*
X165647714Y-137549047D01*
X165838190Y-137549047D02*
X165742952Y-137596666D01*
X165695333Y-137644285D01*
X165647714Y-137739523D01*
X165647714Y-137834761D01*
X166266761Y-138549047D02*
X166314380Y-138453809D01*
X166314380Y-138263333D01*
X166266761Y-138168095D01*
X166171523Y-138120476D01*
X165790571Y-138120476D01*
X165695333Y-138168095D01*
X165647714Y-138263333D01*
X165647714Y-138453809D01*
X165695333Y-138549047D01*
X165790571Y-138596666D01*
X165885809Y-138596666D01*
X165981047Y-138120476D01*
X166266761Y-139406190D02*
X166314380Y-139310952D01*
X166314380Y-139120476D01*
X166266761Y-139025238D01*
X166171523Y-138977619D01*
X165790571Y-138977619D01*
X165695333Y-139025238D01*
X165647714Y-139120476D01*
X165647714Y-139310952D01*
X165695333Y-139406190D01*
X165790571Y-139453809D01*
X165885809Y-139453809D01*
X165981047Y-138977619D01*
X165647714Y-139882380D02*
X166314380Y-139882380D01*
X165742952Y-139882380D02*
X165695333Y-139930000D01*
X165647714Y-140025238D01*
X165647714Y-140168095D01*
X165695333Y-140263333D01*
X165790571Y-140310952D01*
X166314380Y-140310952D01*
X182078380Y-136596666D02*
X183078380Y-136834761D01*
X182364095Y-137025238D01*
X183078380Y-137215714D01*
X182078380Y-137453809D01*
X183078380Y-137834761D02*
X182078380Y-137834761D01*
X183078380Y-138263333D02*
X182554571Y-138263333D01*
X182459333Y-138215714D01*
X182411714Y-138120476D01*
X182411714Y-137977619D01*
X182459333Y-137882380D01*
X182506952Y-137834761D01*
X183078380Y-138739523D02*
X182411714Y-138739523D01*
X182078380Y-138739523D02*
X182126000Y-138691904D01*
X182173619Y-138739523D01*
X182126000Y-138787142D01*
X182078380Y-138739523D01*
X182173619Y-138739523D01*
X182411714Y-139072857D02*
X182411714Y-139453809D01*
X182078380Y-139215714D02*
X182935523Y-139215714D01*
X183030761Y-139263333D01*
X183078380Y-139358571D01*
X183078380Y-139453809D01*
X183030761Y-140168095D02*
X183078380Y-140072857D01*
X183078380Y-139882380D01*
X183030761Y-139787142D01*
X182935523Y-139739523D01*
X182554571Y-139739523D01*
X182459333Y-139787142D01*
X182411714Y-139882380D01*
X182411714Y-140072857D01*
X182459333Y-140168095D01*
X182554571Y-140215714D01*
X182649809Y-140215714D01*
X182745047Y-139739523D01*
X201350571Y-136953809D02*
X201398190Y-137096666D01*
X201445809Y-137144285D01*
X201541047Y-137191904D01*
X201683904Y-137191904D01*
X201779142Y-137144285D01*
X201826761Y-137096666D01*
X201874380Y-137001428D01*
X201874380Y-136620476D01*
X200874380Y-136620476D01*
X200874380Y-136953809D01*
X200922000Y-137049047D01*
X200969619Y-137096666D01*
X201064857Y-137144285D01*
X201160095Y-137144285D01*
X201255333Y-137096666D01*
X201302952Y-137049047D01*
X201350571Y-136953809D01*
X201350571Y-136620476D01*
X201874380Y-137763333D02*
X201826761Y-137668095D01*
X201731523Y-137620476D01*
X200874380Y-137620476D01*
X201874380Y-138572857D02*
X201350571Y-138572857D01*
X201255333Y-138525238D01*
X201207714Y-138430000D01*
X201207714Y-138239523D01*
X201255333Y-138144285D01*
X201826761Y-138572857D02*
X201874380Y-138477619D01*
X201874380Y-138239523D01*
X201826761Y-138144285D01*
X201731523Y-138096666D01*
X201636285Y-138096666D01*
X201541047Y-138144285D01*
X201493428Y-138239523D01*
X201493428Y-138477619D01*
X201445809Y-138572857D01*
X201826761Y-139477619D02*
X201874380Y-139382380D01*
X201874380Y-139191904D01*
X201826761Y-139096666D01*
X201779142Y-139049047D01*
X201683904Y-139001428D01*
X201398190Y-139001428D01*
X201302952Y-139049047D01*
X201255333Y-139096666D01*
X201207714Y-139191904D01*
X201207714Y-139382380D01*
X201255333Y-139477619D01*
X201874380Y-139906190D02*
X200874380Y-139906190D01*
X201493428Y-140001428D02*
X201874380Y-140287142D01*
X201207714Y-140287142D02*
X201588666Y-139906190D01*
X202406285Y-132024380D02*
X202977714Y-132024380D01*
X202692000Y-132024380D02*
X202692000Y-131024380D01*
X202787238Y-131167238D01*
X202882476Y-131262476D01*
X202977714Y-131310095D01*
X188158380Y-137858571D02*
X187682190Y-137525238D01*
X188158380Y-137287142D02*
X187158380Y-137287142D01*
X187158380Y-137668095D01*
X187206000Y-137763333D01*
X187253619Y-137810952D01*
X187348857Y-137858571D01*
X187491714Y-137858571D01*
X187586952Y-137810952D01*
X187634571Y-137763333D01*
X187682190Y-137668095D01*
X187682190Y-137287142D01*
X188110761Y-138668095D02*
X188158380Y-138572857D01*
X188158380Y-138382380D01*
X188110761Y-138287142D01*
X188015523Y-138239523D01*
X187634571Y-138239523D01*
X187539333Y-138287142D01*
X187491714Y-138382380D01*
X187491714Y-138572857D01*
X187539333Y-138668095D01*
X187634571Y-138715714D01*
X187729809Y-138715714D01*
X187825047Y-138239523D01*
X188158380Y-139572857D02*
X187158380Y-139572857D01*
X188110761Y-139572857D02*
X188158380Y-139477619D01*
X188158380Y-139287142D01*
X188110761Y-139191904D01*
X188063142Y-139144285D01*
X187967904Y-139096666D01*
X187682190Y-139096666D01*
X187586952Y-139144285D01*
X187539333Y-139191904D01*
X187491714Y-139287142D01*
X187491714Y-139477619D01*
X187539333Y-139572857D01*
X210066000Y-137072857D02*
X210018380Y-136977619D01*
X210018380Y-136834761D01*
X210066000Y-136691904D01*
X210161238Y-136596666D01*
X210256476Y-136549047D01*
X210446952Y-136501428D01*
X210589809Y-136501428D01*
X210780285Y-136549047D01*
X210875523Y-136596666D01*
X210970761Y-136691904D01*
X211018380Y-136834761D01*
X211018380Y-136930000D01*
X210970761Y-137072857D01*
X210923142Y-137120476D01*
X210589809Y-137120476D01*
X210589809Y-136930000D01*
X211018380Y-137549047D02*
X210351714Y-137549047D01*
X210542190Y-137549047D02*
X210446952Y-137596666D01*
X210399333Y-137644285D01*
X210351714Y-137739523D01*
X210351714Y-137834761D01*
X210970761Y-138549047D02*
X211018380Y-138453809D01*
X211018380Y-138263333D01*
X210970761Y-138168095D01*
X210875523Y-138120476D01*
X210494571Y-138120476D01*
X210399333Y-138168095D01*
X210351714Y-138263333D01*
X210351714Y-138453809D01*
X210399333Y-138549047D01*
X210494571Y-138596666D01*
X210589809Y-138596666D01*
X210685047Y-138120476D01*
X210970761Y-139406190D02*
X211018380Y-139310952D01*
X211018380Y-139120476D01*
X210970761Y-139025238D01*
X210875523Y-138977619D01*
X210494571Y-138977619D01*
X210399333Y-139025238D01*
X210351714Y-139120476D01*
X210351714Y-139310952D01*
X210399333Y-139406190D01*
X210494571Y-139453809D01*
X210589809Y-139453809D01*
X210685047Y-138977619D01*
X210351714Y-139882380D02*
X211018380Y-139882380D01*
X210446952Y-139882380D02*
X210399333Y-139930000D01*
X210351714Y-140025238D01*
X210351714Y-140168095D01*
X210399333Y-140263333D01*
X210494571Y-140310952D01*
X211018380Y-140310952D01*
X160813238Y-132262571D02*
X160479904Y-132262571D01*
X160337047Y-132786380D02*
X160813238Y-132786380D01*
X160813238Y-131786380D01*
X160337047Y-131786380D01*
X159956095Y-132738761D02*
X159813238Y-132786380D01*
X159575142Y-132786380D01*
X159479904Y-132738761D01*
X159432285Y-132691142D01*
X159384666Y-132595904D01*
X159384666Y-132500666D01*
X159432285Y-132405428D01*
X159479904Y-132357809D01*
X159575142Y-132310190D01*
X159765619Y-132262571D01*
X159860857Y-132214952D01*
X159908476Y-132167333D01*
X159956095Y-132072095D01*
X159956095Y-131976857D01*
X159908476Y-131881619D01*
X159860857Y-131834000D01*
X159765619Y-131786380D01*
X159527523Y-131786380D01*
X159384666Y-131834000D01*
X158956095Y-132786380D02*
X158956095Y-131786380D01*
X158718000Y-131786380D01*
X158575142Y-131834000D01*
X158479904Y-131929238D01*
X158432285Y-132024476D01*
X158384666Y-132214952D01*
X158384666Y-132357809D01*
X158432285Y-132548285D01*
X158479904Y-132643523D01*
X158575142Y-132738761D01*
X158718000Y-132786380D01*
X158956095Y-132786380D01*
X157956095Y-131786380D02*
X157956095Y-132595904D01*
X157908476Y-132691142D01*
X157860857Y-132738761D01*
X157765619Y-132786380D01*
X157575142Y-132786380D01*
X157479904Y-132738761D01*
X157432285Y-132691142D01*
X157384666Y-132595904D01*
X157384666Y-131786380D01*
X156432285Y-131786380D02*
X156908476Y-131786380D01*
X156956095Y-132262571D01*
X156908476Y-132214952D01*
X156813238Y-132167333D01*
X156575142Y-132167333D01*
X156479904Y-132214952D01*
X156432285Y-132262571D01*
X156384666Y-132357809D01*
X156384666Y-132595904D01*
X156432285Y-132691142D01*
X156479904Y-132738761D01*
X156575142Y-132786380D01*
X156813238Y-132786380D01*
X156908476Y-132738761D01*
X156956095Y-132691142D01*
X156098952Y-131786380D02*
X155765619Y-132786380D01*
X155432285Y-131786380D01*
X154908476Y-131786380D02*
X154813238Y-131786380D01*
X154718000Y-131834000D01*
X154670380Y-131881619D01*
X154622761Y-131976857D01*
X154575142Y-132167333D01*
X154575142Y-132405428D01*
X154622761Y-132595904D01*
X154670380Y-132691142D01*
X154718000Y-132738761D01*
X154813238Y-132786380D01*
X154908476Y-132786380D01*
X155003714Y-132738761D01*
X155051333Y-132691142D01*
X155098952Y-132595904D01*
X155146571Y-132405428D01*
X155146571Y-132167333D01*
X155098952Y-131976857D01*
X155051333Y-131881619D01*
X155003714Y-131834000D01*
X154908476Y-131786380D01*
X154146571Y-132786380D02*
X154146571Y-131786380D01*
X154146571Y-132262571D02*
X153575142Y-132262571D01*
X153575142Y-132786380D02*
X153575142Y-131786380D01*
X152670380Y-132119714D02*
X152670380Y-132786380D01*
X152908476Y-131738761D02*
X153146571Y-132453047D01*
X152527523Y-132453047D01*
X211367142Y-121311380D02*
X211367142Y-120311380D01*
X210795714Y-121311380D01*
X210795714Y-120311380D01*
X210367142Y-121025666D02*
X209890952Y-121025666D01*
X210462380Y-121311380D02*
X210129047Y-120311380D01*
X209795714Y-121311380D01*
X209462380Y-120311380D02*
X209462380Y-121120904D01*
X209414761Y-121216142D01*
X209367142Y-121263761D01*
X209271904Y-121311380D01*
X209081428Y-121311380D01*
X208986190Y-121263761D01*
X208938571Y-121216142D01*
X208890952Y-121120904D01*
X208890952Y-120311380D01*
X208510000Y-120311380D02*
X207843333Y-120311380D01*
X208271904Y-121311380D01*
X207319523Y-120739952D02*
X207414761Y-120692333D01*
X207462380Y-120644714D01*
X207510000Y-120549476D01*
X207510000Y-120501857D01*
X207462380Y-120406619D01*
X207414761Y-120359000D01*
X207319523Y-120311380D01*
X207129047Y-120311380D01*
X207033809Y-120359000D01*
X206986190Y-120406619D01*
X206938571Y-120501857D01*
X206938571Y-120549476D01*
X206986190Y-120644714D01*
X207033809Y-120692333D01*
X207129047Y-120739952D01*
X207319523Y-120739952D01*
X207414761Y-120787571D01*
X207462380Y-120835190D01*
X207510000Y-120930428D01*
X207510000Y-121120904D01*
X207462380Y-121216142D01*
X207414761Y-121263761D01*
X207319523Y-121311380D01*
X207129047Y-121311380D01*
X207033809Y-121263761D01*
X206986190Y-121216142D01*
X206938571Y-121120904D01*
X206938571Y-120930428D01*
X206986190Y-120835190D01*
X207033809Y-120787571D01*
X207129047Y-120739952D01*
X206319523Y-120311380D02*
X206224285Y-120311380D01*
X206129047Y-120359000D01*
X206081428Y-120406619D01*
X206033809Y-120501857D01*
X205986190Y-120692333D01*
X205986190Y-120930428D01*
X206033809Y-121120904D01*
X206081428Y-121216142D01*
X206129047Y-121263761D01*
X206224285Y-121311380D01*
X206319523Y-121311380D01*
X206414761Y-121263761D01*
X206462380Y-121216142D01*
X206510000Y-121120904D01*
X206557619Y-120930428D01*
X206557619Y-120692333D01*
X206510000Y-120501857D01*
X206462380Y-120406619D01*
X206414761Y-120359000D01*
X206319523Y-120311380D01*
X205605238Y-120406619D02*
X205557619Y-120359000D01*
X205462380Y-120311380D01*
X205224285Y-120311380D01*
X205129047Y-120359000D01*
X205081428Y-120406619D01*
X205033809Y-120501857D01*
X205033809Y-120597095D01*
X205081428Y-120739952D01*
X205652857Y-121311380D01*
X205033809Y-121311380D01*
X204652857Y-121263761D02*
X204510000Y-121311380D01*
X204271904Y-121311380D01*
X204176666Y-121263761D01*
X204129047Y-121216142D01*
X204081428Y-121120904D01*
X204081428Y-121025666D01*
X204129047Y-120930428D01*
X204176666Y-120882809D01*
X204271904Y-120835190D01*
X204462380Y-120787571D01*
X204557619Y-120739952D01*
X204605238Y-120692333D01*
X204652857Y-120597095D01*
X204652857Y-120501857D01*
X204605238Y-120406619D01*
X204557619Y-120359000D01*
X204462380Y-120311380D01*
X204224285Y-120311380D01*
X204081428Y-120359000D01*
X203129047Y-120359000D02*
X203224285Y-120311380D01*
X203367142Y-120311380D01*
X203510000Y-120359000D01*
X203605238Y-120454238D01*
X203652857Y-120549476D01*
X203700476Y-120739952D01*
X203700476Y-120882809D01*
X203652857Y-121073285D01*
X203605238Y-121168523D01*
X203510000Y-121263761D01*
X203367142Y-121311380D01*
X203271904Y-121311380D01*
X203129047Y-121263761D01*
X203081428Y-121216142D01*
X203081428Y-120882809D01*
X203271904Y-120882809D01*
X202652857Y-121311380D02*
X202652857Y-120311380D01*
X168679619Y-125420380D02*
X169251047Y-125420380D01*
X168965333Y-125420380D02*
X168965333Y-124420380D01*
X169060571Y-124563238D01*
X169155809Y-124658476D01*
X169251047Y-124706095D01*
X168060571Y-124420380D02*
X167965333Y-124420380D01*
X167870095Y-124468000D01*
X167822476Y-124515619D01*
X167774857Y-124610857D01*
X167727238Y-124801333D01*
X167727238Y-125039428D01*
X167774857Y-125229904D01*
X167822476Y-125325142D01*
X167870095Y-125372761D01*
X167965333Y-125420380D01*
X168060571Y-125420380D01*
X168155809Y-125372761D01*
X168203428Y-125325142D01*
X168251047Y-125229904D01*
X168298666Y-125039428D01*
X168298666Y-124801333D01*
X168251047Y-124610857D01*
X168203428Y-124515619D01*
X168155809Y-124468000D01*
X168060571Y-124420380D01*
X167108190Y-124420380D02*
X167012952Y-124420380D01*
X166917714Y-124468000D01*
X166870095Y-124515619D01*
X166822476Y-124610857D01*
X166774857Y-124801333D01*
X166774857Y-125039428D01*
X166822476Y-125229904D01*
X166870095Y-125325142D01*
X166917714Y-125372761D01*
X167012952Y-125420380D01*
X167108190Y-125420380D01*
X167203428Y-125372761D01*
X167251047Y-125325142D01*
X167298666Y-125229904D01*
X167346285Y-125039428D01*
X167346285Y-124801333D01*
X167298666Y-124610857D01*
X167251047Y-124515619D01*
X167203428Y-124468000D01*
X167108190Y-124420380D01*
X166346285Y-124753714D02*
X166346285Y-125420380D01*
X166346285Y-124848952D02*
X166298666Y-124801333D01*
X166203428Y-124753714D01*
X166060571Y-124753714D01*
X165965333Y-124801333D01*
X165917714Y-124896571D01*
X165917714Y-125420380D01*
X165108190Y-124896571D02*
X165441523Y-124896571D01*
X165441523Y-125420380D02*
X165441523Y-124420380D01*
X164965333Y-124420380D01*
X180887142Y-121298380D02*
X180887142Y-120298380D01*
X180315714Y-121298380D01*
X180315714Y-120298380D01*
X179887142Y-121012666D02*
X179410952Y-121012666D01*
X179982380Y-121298380D02*
X179649047Y-120298380D01*
X179315714Y-121298380D01*
X178982380Y-120298380D02*
X178982380Y-121107904D01*
X178934761Y-121203142D01*
X178887142Y-121250761D01*
X178791904Y-121298380D01*
X178601428Y-121298380D01*
X178506190Y-121250761D01*
X178458571Y-121203142D01*
X178410952Y-121107904D01*
X178410952Y-120298380D01*
X178030000Y-120298380D02*
X177363333Y-120298380D01*
X177791904Y-121298380D01*
X176839523Y-120726952D02*
X176934761Y-120679333D01*
X176982380Y-120631714D01*
X177030000Y-120536476D01*
X177030000Y-120488857D01*
X176982380Y-120393619D01*
X176934761Y-120346000D01*
X176839523Y-120298380D01*
X176649047Y-120298380D01*
X176553809Y-120346000D01*
X176506190Y-120393619D01*
X176458571Y-120488857D01*
X176458571Y-120536476D01*
X176506190Y-120631714D01*
X176553809Y-120679333D01*
X176649047Y-120726952D01*
X176839523Y-120726952D01*
X176934761Y-120774571D01*
X176982380Y-120822190D01*
X177030000Y-120917428D01*
X177030000Y-121107904D01*
X176982380Y-121203142D01*
X176934761Y-121250761D01*
X176839523Y-121298380D01*
X176649047Y-121298380D01*
X176553809Y-121250761D01*
X176506190Y-121203142D01*
X176458571Y-121107904D01*
X176458571Y-120917428D01*
X176506190Y-120822190D01*
X176553809Y-120774571D01*
X176649047Y-120726952D01*
X175839523Y-120298380D02*
X175744285Y-120298380D01*
X175649047Y-120346000D01*
X175601428Y-120393619D01*
X175553809Y-120488857D01*
X175506190Y-120679333D01*
X175506190Y-120917428D01*
X175553809Y-121107904D01*
X175601428Y-121203142D01*
X175649047Y-121250761D01*
X175744285Y-121298380D01*
X175839523Y-121298380D01*
X175934761Y-121250761D01*
X175982380Y-121203142D01*
X176030000Y-121107904D01*
X176077619Y-120917428D01*
X176077619Y-120679333D01*
X176030000Y-120488857D01*
X175982380Y-120393619D01*
X175934761Y-120346000D01*
X175839523Y-120298380D01*
X175125238Y-120393619D02*
X175077619Y-120346000D01*
X174982380Y-120298380D01*
X174744285Y-120298380D01*
X174649047Y-120346000D01*
X174601428Y-120393619D01*
X174553809Y-120488857D01*
X174553809Y-120584095D01*
X174601428Y-120726952D01*
X175172857Y-121298380D01*
X174553809Y-121298380D01*
X174172857Y-121250761D02*
X174030000Y-121298380D01*
X173791904Y-121298380D01*
X173696666Y-121250761D01*
X173649047Y-121203142D01*
X173601428Y-121107904D01*
X173601428Y-121012666D01*
X173649047Y-120917428D01*
X173696666Y-120869809D01*
X173791904Y-120822190D01*
X173982380Y-120774571D01*
X174077619Y-120726952D01*
X174125238Y-120679333D01*
X174172857Y-120584095D01*
X174172857Y-120488857D01*
X174125238Y-120393619D01*
X174077619Y-120346000D01*
X173982380Y-120298380D01*
X173744285Y-120298380D01*
X173601428Y-120346000D01*
X172649047Y-120346000D02*
X172744285Y-120298380D01*
X172887142Y-120298380D01*
X173030000Y-120346000D01*
X173125238Y-120441238D01*
X173172857Y-120536476D01*
X173220476Y-120726952D01*
X173220476Y-120869809D01*
X173172857Y-121060285D01*
X173125238Y-121155523D01*
X173030000Y-121250761D01*
X172887142Y-121298380D01*
X172791904Y-121298380D01*
X172649047Y-121250761D01*
X172601428Y-121203142D01*
X172601428Y-120869809D01*
X172791904Y-120869809D01*
X172172857Y-121298380D02*
X172172857Y-120298380D01*
X199159619Y-125433380D02*
X199731047Y-125433380D01*
X199445333Y-125433380D02*
X199445333Y-124433380D01*
X199540571Y-124576238D01*
X199635809Y-124671476D01*
X199731047Y-124719095D01*
X198540571Y-124433380D02*
X198445333Y-124433380D01*
X198350095Y-124481000D01*
X198302476Y-124528619D01*
X198254857Y-124623857D01*
X198207238Y-124814333D01*
X198207238Y-125052428D01*
X198254857Y-125242904D01*
X198302476Y-125338142D01*
X198350095Y-125385761D01*
X198445333Y-125433380D01*
X198540571Y-125433380D01*
X198635809Y-125385761D01*
X198683428Y-125338142D01*
X198731047Y-125242904D01*
X198778666Y-125052428D01*
X198778666Y-124814333D01*
X198731047Y-124623857D01*
X198683428Y-124528619D01*
X198635809Y-124481000D01*
X198540571Y-124433380D01*
X197588190Y-124433380D02*
X197492952Y-124433380D01*
X197397714Y-124481000D01*
X197350095Y-124528619D01*
X197302476Y-124623857D01*
X197254857Y-124814333D01*
X197254857Y-125052428D01*
X197302476Y-125242904D01*
X197350095Y-125338142D01*
X197397714Y-125385761D01*
X197492952Y-125433380D01*
X197588190Y-125433380D01*
X197683428Y-125385761D01*
X197731047Y-125338142D01*
X197778666Y-125242904D01*
X197826285Y-125052428D01*
X197826285Y-124814333D01*
X197778666Y-124623857D01*
X197731047Y-124528619D01*
X197683428Y-124481000D01*
X197588190Y-124433380D01*
X196826285Y-124766714D02*
X196826285Y-125433380D01*
X196826285Y-124861952D02*
X196778666Y-124814333D01*
X196683428Y-124766714D01*
X196540571Y-124766714D01*
X196445333Y-124814333D01*
X196397714Y-124909571D01*
X196397714Y-125433380D01*
X195588190Y-124909571D02*
X195921523Y-124909571D01*
X195921523Y-125433380D02*
X195921523Y-124433380D01*
X195445333Y-124433380D01*
X137922000Y-140208000D02*
X137922000Y-142748000D01*
X125222000Y-109728000D02*
X143002000Y-109728000D01*
X130302000Y-142748000D02*
X130302000Y-140208000D01*
X143002000Y-109728000D02*
X143002000Y-140208000D01*
X143002000Y-140208000D02*
X137922000Y-140208000D01*
X130302000Y-140208000D02*
X125222000Y-140208000D01*
X125222000Y-140208000D02*
X125222000Y-109728000D01*
X137922000Y-142748000D02*
X130302000Y-142748000D01*
D11*
X216708000Y-125979000D02*
X216108000Y-125979000D01*
X217908000Y-126529000D02*
X217908000Y-127129000D01*
X217608000Y-126829000D02*
X217908000Y-127129000D01*
X215408000Y-126629000D02*
X215408000Y-129429000D01*
X217408000Y-129429000D02*
X217408000Y-126629000D01*
X217608000Y-126829000D02*
X217908000Y-126529000D01*
X216108000Y-130079000D02*
X216708000Y-130079000D01*
X215408000Y-129379000D02*
G75*
G03*
X216108000Y-130079000I699999J-1D01*
G01*
X216108000Y-125979000D02*
G75*
G03*
X215408000Y-126679000I-1J-699999D01*
G01*
X217408000Y-126679000D02*
G75*
G03*
X216708000Y-125979000I-699999J1D01*
G01*
X216708000Y-130079000D02*
G75*
G03*
X217408000Y-129379000I1J699999D01*
G01*
X213343258Y-126744500D02*
X212868742Y-126744500D01*
X213343258Y-127789500D02*
X212868742Y-127789500D01*
X152232000Y-130672000D02*
X152232000Y-132472000D01*
X149012000Y-132472000D02*
X149012000Y-129522000D01*
X175512000Y-133717420D02*
X175512000Y-133998580D01*
X176532000Y-133717420D02*
X176532000Y-133998580D01*
X207516000Y-133730420D02*
X207516000Y-134011580D01*
X208536000Y-133730420D02*
X208536000Y-134011580D01*
X205992000Y-133730420D02*
X205992000Y-134011580D01*
X207012000Y-133730420D02*
X207012000Y-134011580D01*
X207010000Y-131819000D02*
X203560000Y-131819000D01*
X207010000Y-121699000D02*
X208960000Y-121699000D01*
X207010000Y-131819000D02*
X208960000Y-131819000D01*
X207010000Y-121699000D02*
X205060000Y-121699000D01*
X213343258Y-128268500D02*
X212868742Y-128268500D01*
X213343258Y-129313500D02*
X212868742Y-129313500D01*
X171082580Y-125478000D02*
X170801420Y-125478000D01*
X171082580Y-124458000D02*
X170801420Y-124458000D01*
X178056000Y-133717420D02*
X178056000Y-133998580D01*
X177036000Y-133717420D02*
X177036000Y-133998580D01*
X176530000Y-121686000D02*
X174580000Y-121686000D01*
X176530000Y-131806000D02*
X173080000Y-131806000D01*
X176530000Y-121686000D02*
X178480000Y-121686000D01*
X176530000Y-131806000D02*
X178480000Y-131806000D01*
X182863258Y-128255500D02*
X182388742Y-128255500D01*
X182863258Y-129300500D02*
X182388742Y-129300500D01*
X182863258Y-126731500D02*
X182388742Y-126731500D01*
X182863258Y-127776500D02*
X182388742Y-127776500D01*
X187428000Y-126516000D02*
X187428000Y-127116000D01*
X184928000Y-126616000D02*
X184928000Y-129416000D01*
X187128000Y-126816000D02*
X187428000Y-127116000D01*
X185628000Y-130066000D02*
X186228000Y-130066000D01*
X186928000Y-129416000D02*
X186928000Y-126616000D01*
X186228000Y-125966000D02*
X185628000Y-125966000D01*
X187128000Y-126816000D02*
X187428000Y-126516000D01*
X186928000Y-126666000D02*
G75*
G03*
X186228000Y-125966000I-699999J1D01*
G01*
X185628000Y-125966000D02*
G75*
G03*
X184928000Y-126666000I-1J-699999D01*
G01*
X184928000Y-129366000D02*
G75*
G03*
X185628000Y-130066000I699999J-1D01*
G01*
X186228000Y-130066000D02*
G75*
G03*
X186928000Y-129366000I1J699999D01*
G01*
X201562580Y-124471000D02*
X201281420Y-124471000D01*
X201562580Y-125491000D02*
X201281420Y-125491000D01*
%LPC*%
D12*
X233680000Y-124079000D03*
D13*
X231140000Y-124079000D03*
D12*
X223012000Y-124079000D03*
D13*
X220472000Y-124079000D03*
D12*
X223012000Y-105537000D03*
D13*
X220472000Y-105537000D03*
X231140000Y-105537000D03*
D12*
X233680000Y-105537000D03*
D14*
X225298000Y-135636000D03*
D15*
X230298000Y-135636000D03*
D16*
X196422000Y-135141000D03*
D17*
X198922000Y-135141000D03*
X201422000Y-135141000D03*
X203922000Y-135141000D03*
D16*
X210626000Y-135124000D03*
D17*
X213126000Y-135124000D03*
X215626000Y-135124000D03*
X218126000Y-135124000D03*
D18*
X161544000Y-106680000D03*
D14*
X148362000Y-135600000D03*
D15*
X153362000Y-135600000D03*
D16*
X180146000Y-135111000D03*
D17*
X182646000Y-135111000D03*
X185146000Y-135111000D03*
X187646000Y-135111000D03*
D19*
X236895000Y-94121000D03*
X120816000Y-94121000D03*
X236895000Y-137200000D03*
D16*
X165942000Y-135128000D03*
D17*
X168442000Y-135128000D03*
X170942000Y-135128000D03*
X173442000Y-135128000D03*
D19*
X120816000Y-137200000D03*
D20*
X141732000Y-138938000D03*
D21*
X141732000Y-136398000D03*
X141732000Y-133858000D03*
X141732000Y-131318000D03*
X141732000Y-128778000D03*
X141732000Y-126238000D03*
X141732000Y-123698000D03*
X141732000Y-121158000D03*
X141732000Y-118618000D03*
X141732000Y-116078000D03*
X141732000Y-113538000D03*
X141732000Y-110998000D03*
X126492000Y-110998000D03*
X126492000Y-113538000D03*
X126492000Y-116078000D03*
X126492000Y-118618000D03*
X126492000Y-121158000D03*
X126492000Y-123698000D03*
X126492000Y-126238000D03*
X126492000Y-128778000D03*
X126492000Y-131318000D03*
X126492000Y-133858000D03*
X126492000Y-136398000D03*
X126492000Y-138938000D03*
D22*
X216408000Y-126729000D03*
D23*
X216408000Y-128029000D03*
D24*
X216408000Y-129329000D03*
D25*
X213931000Y-127267000D03*
X212281000Y-127267000D03*
D26*
X149672000Y-130222000D03*
X150622000Y-130222000D03*
X151572000Y-130222000D03*
X151572000Y-132922000D03*
X150622000Y-132922000D03*
X149672000Y-132922000D03*
D27*
X176022000Y-133083000D03*
X176022000Y-134633000D03*
X208026000Y-133096000D03*
X208026000Y-134646000D03*
X206502000Y-133096000D03*
X206502000Y-134646000D03*
D28*
X204535000Y-131204000D03*
X204535000Y-129934000D03*
X204535000Y-128664000D03*
X204535000Y-127394000D03*
X204535000Y-126124000D03*
X204535000Y-124854000D03*
X204535000Y-123584000D03*
X204535000Y-122314000D03*
X209485000Y-122314000D03*
X209485000Y-123584000D03*
X209485000Y-124854000D03*
X209485000Y-126124000D03*
X209485000Y-127394000D03*
X209485000Y-128664000D03*
X209485000Y-129934000D03*
X209485000Y-131204000D03*
D25*
X213931000Y-128791000D03*
X212281000Y-128791000D03*
D29*
X171717000Y-124968000D03*
X170167000Y-124968000D03*
D27*
X177546000Y-133083000D03*
X177546000Y-134633000D03*
D28*
X174055000Y-131191000D03*
X174055000Y-129921000D03*
X174055000Y-128651000D03*
X174055000Y-127381000D03*
X174055000Y-126111000D03*
X174055000Y-124841000D03*
X174055000Y-123571000D03*
X174055000Y-122301000D03*
X179005000Y-122301000D03*
X179005000Y-123571000D03*
X179005000Y-124841000D03*
X179005000Y-126111000D03*
X179005000Y-127381000D03*
X179005000Y-128651000D03*
X179005000Y-129921000D03*
X179005000Y-131191000D03*
D25*
X183451000Y-128778000D03*
X181801000Y-128778000D03*
X183451000Y-127254000D03*
X181801000Y-127254000D03*
D22*
X185928000Y-126716000D03*
D23*
X185928000Y-128016000D03*
D24*
X185928000Y-129316000D03*
D29*
X202197000Y-124981000D03*
X200647000Y-124981000D03*
M02*
