G04 #@! TF.GenerationSoftware,KiCad,Pcbnew,(6.0.0)*
G04 #@! TF.CreationDate,2022-12-27T21:52:24-05:00*
G04 #@! TF.ProjectId,rp2040 rs485 scale breakout,72703230-3430-4207-9273-343835207363,rev?*
G04 #@! TF.SameCoordinates,Original*
G04 #@! TF.FileFunction,Paste,Top*
G04 #@! TF.FilePolarity,Positive*
%FSLAX46Y46*%
G04 Gerber Fmt 4.6, Leading zero omitted, Abs format (unit mm)*
G04 Created by KiCad (PCBNEW (6.0.0)) date 2022-12-27 21:52:24*
%MOMM*%
%LPD*%
G01*
G04 APERTURE LIST*
G04 Aperture macros list*
%AMRoundRect*
0 Rectangle with rounded corners*
0 $1 Rounding radius*
0 $2 $3 $4 $5 $6 $7 $8 $9 X,Y pos of 4 corners*
0 Add a 4 corners polygon primitive as box body*
4,1,4,$2,$3,$4,$5,$6,$7,$8,$9,$2,$3,0*
0 Add four circle primitives for the rounded corners*
1,1,$1+$1,$2,$3*
1,1,$1+$1,$4,$5*
1,1,$1+$1,$6,$7*
1,1,$1+$1,$8,$9*
0 Add four rect primitives between the rounded corners*
20,1,$1+$1,$2,$3,$4,$5,0*
20,1,$1+$1,$4,$5,$6,$7,0*
20,1,$1+$1,$6,$7,$8,$9,0*
20,1,$1+$1,$8,$9,$2,$3,0*%
G04 Aperture macros list end*
%ADD10R,3.800000X2.000000*%
%ADD11R,1.500000X2.000000*%
%ADD12RoundRect,0.200000X-0.200000X-0.275000X0.200000X-0.275000X0.200000X0.275000X-0.200000X0.275000X0*%
%ADD13RoundRect,0.218750X0.218750X0.256250X-0.218750X0.256250X-0.218750X-0.256250X0.218750X-0.256250X0*%
%ADD14RoundRect,0.250000X0.325000X0.650000X-0.325000X0.650000X-0.325000X-0.650000X0.325000X-0.650000X0*%
%ADD15RoundRect,0.250000X-0.650000X0.325000X-0.650000X-0.325000X0.650000X-0.325000X0.650000X0.325000X0*%
%ADD16RoundRect,0.200000X0.275000X-0.200000X0.275000X0.200000X-0.275000X0.200000X-0.275000X-0.200000X0*%
%ADD17RoundRect,0.200000X0.200000X0.275000X-0.200000X0.275000X-0.200000X-0.275000X0.200000X-0.275000X0*%
%ADD18RoundRect,0.150000X0.150000X0.625000X-0.150000X0.625000X-0.150000X-0.625000X0.150000X-0.625000X0*%
%ADD19RoundRect,0.250000X0.350000X0.650000X-0.350000X0.650000X-0.350000X-0.650000X0.350000X-0.650000X0*%
%ADD20RoundRect,0.225000X-0.225000X-0.250000X0.225000X-0.250000X0.225000X0.250000X-0.225000X0.250000X0*%
%ADD21RoundRect,0.225000X0.225000X0.250000X-0.225000X0.250000X-0.225000X-0.250000X0.225000X-0.250000X0*%
%ADD22RoundRect,0.150000X-0.150000X0.825000X-0.150000X-0.825000X0.150000X-0.825000X0.150000X0.825000X0*%
%ADD23RoundRect,0.225000X0.250000X-0.225000X0.250000X0.225000X-0.250000X0.225000X-0.250000X-0.225000X0*%
%ADD24RoundRect,0.100000X-0.637500X-0.100000X0.637500X-0.100000X0.637500X0.100000X-0.637500X0.100000X0*%
%ADD25RoundRect,0.200000X-0.275000X0.200000X-0.275000X-0.200000X0.275000X-0.200000X0.275000X0.200000X0*%
%ADD26RoundRect,0.150000X-0.625000X0.150000X-0.625000X-0.150000X0.625000X-0.150000X0.625000X0.150000X0*%
%ADD27RoundRect,0.250000X-0.650000X0.350000X-0.650000X-0.350000X0.650000X-0.350000X0.650000X0.350000X0*%
G04 APERTURE END LIST*
D10*
X212344000Y-110134000D03*
D11*
X212344000Y-116434000D03*
X214644000Y-116434000D03*
X210044000Y-116434000D03*
D12*
X232601000Y-121158000D03*
X234251000Y-121158000D03*
X234125000Y-127508000D03*
X235775000Y-127508000D03*
X234125000Y-130810000D03*
X235775000Y-130810000D03*
D13*
X239293500Y-123952000D03*
X237718500Y-123952000D03*
X239293500Y-127508000D03*
X237718500Y-127508000D03*
X239293500Y-130810000D03*
X237718500Y-130810000D03*
D14*
X212295000Y-107442000D03*
X209345000Y-107442000D03*
D15*
X217170000Y-118413000D03*
X217170000Y-121363000D03*
D16*
X213106000Y-131394000D03*
X213106000Y-129744000D03*
D12*
X148273000Y-106680000D03*
X149923000Y-106680000D03*
D16*
X210566000Y-131394000D03*
X210566000Y-129744000D03*
D17*
X147637000Y-128016000D03*
X145987000Y-128016000D03*
D16*
X198882000Y-131394000D03*
X198882000Y-129744000D03*
X196342000Y-131394000D03*
X196342000Y-129744000D03*
D18*
X170727500Y-95980000D03*
X169727500Y-95980000D03*
X168727500Y-95980000D03*
X167727500Y-95980000D03*
D19*
X172027500Y-92105000D03*
X166427500Y-92105000D03*
D20*
X189471000Y-98044000D03*
X191021000Y-98044000D03*
D12*
X185611000Y-98044000D03*
X187261000Y-98044000D03*
D20*
X169659000Y-98044000D03*
X171209000Y-98044000D03*
D12*
X156655000Y-99568000D03*
X158305000Y-99568000D03*
D21*
X211087000Y-125997000D03*
X209537000Y-125997000D03*
D16*
X182626000Y-131381000D03*
X182626000Y-129731000D03*
D18*
X190603000Y-95980000D03*
X189603000Y-95980000D03*
X188603000Y-95980000D03*
X187603000Y-95980000D03*
D19*
X186303000Y-92105000D03*
X191903000Y-92105000D03*
D21*
X167907000Y-128270000D03*
X166357000Y-128270000D03*
D12*
X166561000Y-99568000D03*
X168211000Y-99568000D03*
D22*
X153035000Y-119191000D03*
X151765000Y-119191000D03*
X150495000Y-119191000D03*
X149225000Y-119191000D03*
X149225000Y-124141000D03*
X150495000Y-124141000D03*
X151765000Y-124141000D03*
X153035000Y-124141000D03*
D20*
X229095000Y-98044000D03*
X230645000Y-98044000D03*
D17*
X151701000Y-128016000D03*
X150051000Y-128016000D03*
D23*
X154686000Y-123965000D03*
X154686000Y-122415000D03*
D18*
X230354000Y-95980000D03*
X229354000Y-95980000D03*
X228354000Y-95980000D03*
X227354000Y-95980000D03*
D19*
X226054000Y-92105000D03*
X231654000Y-92105000D03*
D12*
X206439000Y-99568000D03*
X208089000Y-99568000D03*
X165799000Y-98044000D03*
X167449000Y-98044000D03*
X196787000Y-99568000D03*
X198437000Y-99568000D03*
X195771000Y-98044000D03*
X197421000Y-98044000D03*
D20*
X159499000Y-98044000D03*
X161049000Y-98044000D03*
D24*
X168587500Y-112757000D03*
X168587500Y-113407000D03*
X168587500Y-114057000D03*
X168587500Y-114707000D03*
X168587500Y-115357000D03*
X168587500Y-116007000D03*
X168587500Y-116657000D03*
X168587500Y-117307000D03*
X168587500Y-117957000D03*
X168587500Y-118607000D03*
X168587500Y-119257000D03*
X168587500Y-119907000D03*
X174312500Y-119907000D03*
X174312500Y-119257000D03*
X174312500Y-118607000D03*
X174312500Y-117957000D03*
X174312500Y-117307000D03*
X174312500Y-116657000D03*
X174312500Y-116007000D03*
X174312500Y-115357000D03*
X174312500Y-114707000D03*
X174312500Y-114057000D03*
X174312500Y-113407000D03*
X174312500Y-112757000D03*
D16*
X168402000Y-131381000D03*
X168402000Y-129731000D03*
X144780000Y-102679000D03*
X144780000Y-101029000D03*
D12*
X148273000Y-109220000D03*
X149923000Y-109220000D03*
D16*
X180086000Y-131381000D03*
X180086000Y-129731000D03*
D12*
X226251000Y-99568000D03*
X227901000Y-99568000D03*
D18*
X200540750Y-95980000D03*
X199540750Y-95980000D03*
X198540750Y-95980000D03*
X197540750Y-95980000D03*
D19*
X201840750Y-92105000D03*
X196240750Y-92105000D03*
D20*
X175247000Y-110998000D03*
X176797000Y-110998000D03*
D12*
X205677000Y-98044000D03*
X207327000Y-98044000D03*
D18*
X220416250Y-95980000D03*
X219416250Y-95980000D03*
X218416250Y-95980000D03*
X217416250Y-95980000D03*
D19*
X216116250Y-92105000D03*
X221716250Y-92105000D03*
D17*
X155765000Y-128016000D03*
X154115000Y-128016000D03*
D21*
X212611000Y-128283000D03*
X211061000Y-128283000D03*
D12*
X148273000Y-111760000D03*
X149923000Y-111760000D03*
D17*
X154749000Y-117094000D03*
X153099000Y-117094000D03*
D23*
X156210000Y-123965000D03*
X156210000Y-122415000D03*
D25*
X164084000Y-109919000D03*
X164084000Y-111569000D03*
D12*
X175705000Y-98044000D03*
X177355000Y-98044000D03*
X216599000Y-99568000D03*
X218249000Y-99568000D03*
D20*
X199377000Y-98044000D03*
X200927000Y-98044000D03*
D12*
X215583000Y-98044000D03*
X217233000Y-98044000D03*
X186373000Y-99568000D03*
X188023000Y-99568000D03*
D16*
X165862000Y-131381000D03*
X165862000Y-129731000D03*
D18*
X160789750Y-95980000D03*
X159789750Y-95980000D03*
X158789750Y-95980000D03*
X157789750Y-95980000D03*
D19*
X156489750Y-92105000D03*
X162089750Y-92105000D03*
D18*
X210478500Y-95980000D03*
X209478500Y-95980000D03*
X208478500Y-95980000D03*
X207478500Y-95980000D03*
D19*
X211778500Y-92105000D03*
X206178500Y-92105000D03*
D20*
X179311000Y-98044000D03*
X180861000Y-98044000D03*
D17*
X150685000Y-98044000D03*
X149035000Y-98044000D03*
D18*
X150852000Y-95980000D03*
X149852000Y-95980000D03*
X148852000Y-95980000D03*
X147852000Y-95980000D03*
D19*
X146552000Y-92105000D03*
X152152000Y-92105000D03*
D21*
X182131000Y-128270000D03*
X180581000Y-128270000D03*
D17*
X154749000Y-114046000D03*
X153099000Y-114046000D03*
D20*
X209029000Y-98044000D03*
X210579000Y-98044000D03*
D18*
X180665250Y-95980000D03*
X179665250Y-95980000D03*
X178665250Y-95980000D03*
X177665250Y-95980000D03*
D19*
X176365250Y-92105000D03*
X181965250Y-92105000D03*
D26*
X142716000Y-98068000D03*
X142716000Y-99068000D03*
X142716000Y-100068000D03*
X142716000Y-101068000D03*
D27*
X138841000Y-96768000D03*
X138841000Y-102368000D03*
D12*
X225489000Y-98044000D03*
X227139000Y-98044000D03*
X147511000Y-117094000D03*
X149161000Y-117094000D03*
X176213000Y-99568000D03*
X177863000Y-99568000D03*
D20*
X219189000Y-98044000D03*
X220739000Y-98044000D03*
D12*
X155893000Y-98044000D03*
X157543000Y-98044000D03*
D21*
X180607000Y-125984000D03*
X179057000Y-125984000D03*
X198387000Y-128283000D03*
X196837000Y-128283000D03*
M02*
