G04 #@! TF.GenerationSoftware,KiCad,Pcbnew,(6.0.0)*
G04 #@! TF.CreationDate,2022-12-27T21:52:24-05:00*
G04 #@! TF.ProjectId,rp2040 rs485 scale breakout,72703230-3430-4207-9273-343835207363,rev?*
G04 #@! TF.SameCoordinates,Original*
G04 #@! TF.FileFunction,Legend,Top*
G04 #@! TF.FilePolarity,Positive*
%FSLAX46Y46*%
G04 Gerber Fmt 4.6, Leading zero omitted, Abs format (unit mm)*
G04 Created by KiCad (PCBNEW (6.0.0)) date 2022-12-27 21:52:24*
%MOMM*%
%LPD*%
G01*
G04 APERTURE LIST*
G04 Aperture macros list*
%AMRoundRect*
0 Rectangle with rounded corners*
0 $1 Rounding radius*
0 $2 $3 $4 $5 $6 $7 $8 $9 X,Y pos of 4 corners*
0 Add a 4 corners polygon primitive as box body*
4,1,4,$2,$3,$4,$5,$6,$7,$8,$9,$2,$3,0*
0 Add four circle primitives for the rounded corners*
1,1,$1+$1,$2,$3*
1,1,$1+$1,$4,$5*
1,1,$1+$1,$6,$7*
1,1,$1+$1,$8,$9*
0 Add four rect primitives between the rounded corners*
20,1,$1+$1,$2,$3,$4,$5,0*
20,1,$1+$1,$4,$5,$6,$7,0*
20,1,$1+$1,$6,$7,$8,$9,0*
20,1,$1+$1,$8,$9,$2,$3,0*%
%AMFreePoly0*
4,1,22,0.500000,-0.750000,0.000000,-0.750000,0.000000,-0.745033,-0.079941,-0.743568,-0.215256,-0.701293,-0.333266,-0.622738,-0.424486,-0.514219,-0.481581,-0.384460,-0.499164,-0.250000,-0.500000,-0.250000,-0.500000,0.250000,-0.499164,0.250000,-0.499963,0.256109,-0.478152,0.396186,-0.417904,0.524511,-0.324060,0.630769,-0.204165,0.706417,-0.067858,0.745374,0.000000,0.744959,0.000000,0.750000,
0.500000,0.750000,0.500000,-0.750000,0.500000,-0.750000,$1*%
%AMFreePoly1*
4,1,20,0.000000,0.744959,0.073905,0.744508,0.209726,0.703889,0.328688,0.626782,0.421226,0.519385,0.479903,0.390333,0.500000,0.250000,0.500000,-0.250000,0.499851,-0.262216,0.476331,-0.402017,0.414519,-0.529596,0.319384,-0.634700,0.198574,-0.708877,0.061801,-0.746166,0.000000,-0.745033,0.000000,-0.750000,-0.500000,-0.750000,-0.500000,0.750000,0.000000,0.750000,0.000000,0.744959,
0.000000,0.744959,$1*%
%AMFreePoly2*
4,1,22,0.550000,-0.750000,0.000000,-0.750000,0.000000,-0.745033,-0.079941,-0.743568,-0.215256,-0.701293,-0.333266,-0.622738,-0.424486,-0.514219,-0.481581,-0.384460,-0.499164,-0.250000,-0.500000,-0.250000,-0.500000,0.250000,-0.499164,0.250000,-0.499963,0.256109,-0.478152,0.396186,-0.417904,0.524511,-0.324060,0.630769,-0.204165,0.706417,-0.067858,0.745374,0.000000,0.744959,0.000000,0.750000,
0.550000,0.750000,0.550000,-0.750000,0.550000,-0.750000,$1*%
%AMFreePoly3*
4,1,20,0.000000,0.744959,0.073905,0.744508,0.209726,0.703889,0.328688,0.626782,0.421226,0.519385,0.479903,0.390333,0.500000,0.250000,0.500000,-0.250000,0.499851,-0.262216,0.476331,-0.402017,0.414519,-0.529596,0.319384,-0.634700,0.198574,-0.708877,0.061801,-0.746166,0.000000,-0.745033,0.000000,-0.750000,-0.550000,-0.750000,-0.550000,0.750000,0.000000,0.750000,0.000000,0.744959,
0.000000,0.744959,$1*%
G04 Aperture macros list end*
%ADD10C,0.150000*%
%ADD11C,0.120000*%
%ADD12R,1.524000X1.524000*%
%ADD13C,1.524000*%
%ADD14R,1.600000X1.600000*%
%ADD15C,1.600000*%
%ADD16R,3.800000X2.000000*%
%ADD17R,1.500000X2.000000*%
%ADD18RoundRect,0.200000X-0.200000X-0.275000X0.200000X-0.275000X0.200000X0.275000X-0.200000X0.275000X0*%
%ADD19R,2.600000X2.600000*%
%ADD20C,2.600000*%
%ADD21RoundRect,0.218750X0.218750X0.256250X-0.218750X0.256250X-0.218750X-0.256250X0.218750X-0.256250X0*%
%ADD22RoundRect,0.250000X0.325000X0.650000X-0.325000X0.650000X-0.325000X-0.650000X0.325000X-0.650000X0*%
%ADD23RoundRect,0.250000X-0.650000X0.325000X-0.650000X-0.325000X0.650000X-0.325000X0.650000X0.325000X0*%
%ADD24RoundRect,0.200000X0.275000X-0.200000X0.275000X0.200000X-0.275000X0.200000X-0.275000X-0.200000X0*%
%ADD25RoundRect,0.200000X0.200000X0.275000X-0.200000X0.275000X-0.200000X-0.275000X0.200000X-0.275000X0*%
%ADD26FreePoly0,0.000000*%
%ADD27FreePoly1,0.000000*%
%ADD28RoundRect,0.150000X0.150000X0.625000X-0.150000X0.625000X-0.150000X-0.625000X0.150000X-0.625000X0*%
%ADD29RoundRect,0.250000X0.350000X0.650000X-0.350000X0.650000X-0.350000X-0.650000X0.350000X-0.650000X0*%
%ADD30RoundRect,0.225000X-0.225000X-0.250000X0.225000X-0.250000X0.225000X0.250000X-0.225000X0.250000X0*%
%ADD31RoundRect,0.250000X-0.600000X-0.725000X0.600000X-0.725000X0.600000X0.725000X-0.600000X0.725000X0*%
%ADD32O,1.700000X1.950000*%
%ADD33RoundRect,0.225000X0.225000X0.250000X-0.225000X0.250000X-0.225000X-0.250000X0.225000X-0.250000X0*%
%ADD34RoundRect,0.150000X-0.150000X0.825000X-0.150000X-0.825000X0.150000X-0.825000X0.150000X0.825000X0*%
%ADD35R,1.700000X1.700000*%
%ADD36RoundRect,0.225000X0.250000X-0.225000X0.250000X0.225000X-0.250000X0.225000X-0.250000X-0.225000X0*%
%ADD37FreePoly2,180.000000*%
%ADD38R,1.000000X1.500000*%
%ADD39FreePoly3,180.000000*%
%ADD40RoundRect,0.100000X-0.637500X-0.100000X0.637500X-0.100000X0.637500X0.100000X-0.637500X0.100000X0*%
%ADD41C,3.200000*%
%ADD42RoundRect,0.200000X-0.275000X0.200000X-0.275000X-0.200000X0.275000X-0.200000X0.275000X0.200000X0*%
%ADD43RoundRect,0.150000X-0.625000X0.150000X-0.625000X-0.150000X0.625000X-0.150000X0.625000X0.150000X0*%
%ADD44RoundRect,0.250000X-0.650000X0.350000X-0.650000X-0.350000X0.650000X-0.350000X0.650000X0.350000X0*%
G04 APERTURE END LIST*
D10*
X161798000Y-134366000D02*
X161290000Y-134874000D01*
X158496000Y-134874000D02*
X157988000Y-135382000D01*
X159004000Y-134874000D02*
X158496000Y-134874000D01*
X157988000Y-138176000D02*
X157988000Y-139700000D01*
X161798000Y-133350000D02*
X161798000Y-134366000D01*
X157988000Y-135382000D02*
X157988000Y-138176000D01*
X157988000Y-139700000D02*
X157480000Y-140208000D01*
X161290000Y-134874000D02*
X159004000Y-134874000D01*
X154384380Y-93178380D02*
X154479619Y-93178380D01*
X154574857Y-93226000D01*
X154622476Y-93273619D01*
X154670095Y-93368857D01*
X154717714Y-93559333D01*
X154717714Y-93797428D01*
X154670095Y-93987904D01*
X154622476Y-94083142D01*
X154574857Y-94130761D01*
X154479619Y-94178380D01*
X154384380Y-94178380D01*
X154289142Y-94130761D01*
X154241523Y-94083142D01*
X154193904Y-93987904D01*
X154146285Y-93797428D01*
X154146285Y-93559333D01*
X154193904Y-93368857D01*
X154241523Y-93273619D01*
X154289142Y-93226000D01*
X154384380Y-93178380D01*
X190238285Y-136505761D02*
X190333523Y-136553380D01*
X190524000Y-136553380D01*
X190619238Y-136505761D01*
X190666857Y-136410523D01*
X190666857Y-136362904D01*
X190619238Y-136267666D01*
X190524000Y-136220047D01*
X190381142Y-136220047D01*
X190285904Y-136172428D01*
X190238285Y-136077190D01*
X190238285Y-136029571D01*
X190285904Y-135934333D01*
X190381142Y-135886714D01*
X190524000Y-135886714D01*
X190619238Y-135934333D01*
X191524000Y-136505761D02*
X191428761Y-136553380D01*
X191238285Y-136553380D01*
X191143047Y-136505761D01*
X191095428Y-136458142D01*
X191047809Y-136362904D01*
X191047809Y-136077190D01*
X191095428Y-135981952D01*
X191143047Y-135934333D01*
X191238285Y-135886714D01*
X191428761Y-135886714D01*
X191524000Y-135934333D01*
X192381142Y-136553380D02*
X192381142Y-136029571D01*
X192333523Y-135934333D01*
X192238285Y-135886714D01*
X192047809Y-135886714D01*
X191952571Y-135934333D01*
X192381142Y-136505761D02*
X192285904Y-136553380D01*
X192047809Y-136553380D01*
X191952571Y-136505761D01*
X191904952Y-136410523D01*
X191904952Y-136315285D01*
X191952571Y-136220047D01*
X192047809Y-136172428D01*
X192285904Y-136172428D01*
X192381142Y-136124809D01*
X193000190Y-136553380D02*
X192904952Y-136505761D01*
X192857333Y-136410523D01*
X192857333Y-135553380D01*
X193762095Y-136505761D02*
X193666857Y-136553380D01*
X193476380Y-136553380D01*
X193381142Y-136505761D01*
X193333523Y-136410523D01*
X193333523Y-136029571D01*
X193381142Y-135934333D01*
X193476380Y-135886714D01*
X193666857Y-135886714D01*
X193762095Y-135934333D01*
X193809714Y-136029571D01*
X193809714Y-136124809D01*
X193333523Y-136220047D01*
X191738285Y-137258619D02*
X191785904Y-137211000D01*
X191881142Y-137163380D01*
X192119238Y-137163380D01*
X192214476Y-137211000D01*
X192262095Y-137258619D01*
X192309714Y-137353857D01*
X192309714Y-137449095D01*
X192262095Y-137591952D01*
X191690666Y-138163380D01*
X192309714Y-138163380D01*
X152503714Y-111704380D02*
X151932285Y-111704380D01*
X152218000Y-111704380D02*
X152218000Y-110704380D01*
X152122761Y-110847238D01*
X152027523Y-110942476D01*
X151932285Y-110990095D01*
X153122761Y-110704380D02*
X153218000Y-110704380D01*
X153313238Y-110752000D01*
X153360857Y-110799619D01*
X153408476Y-110894857D01*
X153456095Y-111085333D01*
X153456095Y-111323428D01*
X153408476Y-111513904D01*
X153360857Y-111609142D01*
X153313238Y-111656761D01*
X153218000Y-111704380D01*
X153122761Y-111704380D01*
X153027523Y-111656761D01*
X152979904Y-111609142D01*
X152932285Y-111513904D01*
X152884666Y-111323428D01*
X152884666Y-111085333D01*
X152932285Y-110894857D01*
X152979904Y-110799619D01*
X153027523Y-110752000D01*
X153122761Y-110704380D01*
X153884666Y-111704380D02*
X153884666Y-110704380D01*
X153979904Y-111323428D02*
X154265619Y-111704380D01*
X154265619Y-111037714D02*
X153884666Y-111418666D01*
X155456095Y-111704380D02*
X155456095Y-111037714D01*
X155456095Y-111228190D02*
X155503714Y-111132952D01*
X155551333Y-111085333D01*
X155646571Y-111037714D01*
X155741809Y-111037714D01*
X156456095Y-111656761D02*
X156360857Y-111704380D01*
X156170380Y-111704380D01*
X156075142Y-111656761D01*
X156027523Y-111561523D01*
X156027523Y-111180571D01*
X156075142Y-111085333D01*
X156170380Y-111037714D01*
X156360857Y-111037714D01*
X156456095Y-111085333D01*
X156503714Y-111180571D01*
X156503714Y-111275809D01*
X156027523Y-111371047D01*
X156884666Y-111656761D02*
X156979904Y-111704380D01*
X157170380Y-111704380D01*
X157265619Y-111656761D01*
X157313238Y-111561523D01*
X157313238Y-111513904D01*
X157265619Y-111418666D01*
X157170380Y-111371047D01*
X157027523Y-111371047D01*
X156932285Y-111323428D01*
X156884666Y-111228190D01*
X156884666Y-111180571D01*
X156932285Y-111085333D01*
X157027523Y-111037714D01*
X157170380Y-111037714D01*
X157265619Y-111085333D01*
X157741809Y-111704380D02*
X157741809Y-111037714D01*
X157741809Y-110704380D02*
X157694190Y-110752000D01*
X157741809Y-110799619D01*
X157789428Y-110752000D01*
X157741809Y-110704380D01*
X157741809Y-110799619D01*
X158170380Y-111656761D02*
X158265619Y-111704380D01*
X158456095Y-111704380D01*
X158551333Y-111656761D01*
X158598952Y-111561523D01*
X158598952Y-111513904D01*
X158551333Y-111418666D01*
X158456095Y-111371047D01*
X158313238Y-111371047D01*
X158218000Y-111323428D01*
X158170380Y-111228190D01*
X158170380Y-111180571D01*
X158218000Y-111085333D01*
X158313238Y-111037714D01*
X158456095Y-111037714D01*
X158551333Y-111085333D01*
X158884666Y-111037714D02*
X159265619Y-111037714D01*
X159027523Y-110704380D02*
X159027523Y-111561523D01*
X159075142Y-111656761D01*
X159170380Y-111704380D01*
X159265619Y-111704380D01*
X159741809Y-111704380D02*
X159646571Y-111656761D01*
X159598952Y-111609142D01*
X159551333Y-111513904D01*
X159551333Y-111228190D01*
X159598952Y-111132952D01*
X159646571Y-111085333D01*
X159741809Y-111037714D01*
X159884666Y-111037714D01*
X159979904Y-111085333D01*
X160027523Y-111132952D01*
X160075142Y-111228190D01*
X160075142Y-111513904D01*
X160027523Y-111609142D01*
X159979904Y-111656761D01*
X159884666Y-111704380D01*
X159741809Y-111704380D01*
X160503714Y-111704380D02*
X160503714Y-111037714D01*
X160503714Y-111228190D02*
X160551333Y-111132952D01*
X160598952Y-111085333D01*
X160694190Y-111037714D01*
X160789428Y-111037714D01*
X161075142Y-111656761D02*
X161170380Y-111704380D01*
X161360857Y-111704380D01*
X161456095Y-111656761D01*
X161503714Y-111561523D01*
X161503714Y-111513904D01*
X161456095Y-111418666D01*
X161360857Y-111371047D01*
X161218000Y-111371047D01*
X161122761Y-111323428D01*
X161075142Y-111228190D01*
X161075142Y-111180571D01*
X161122761Y-111085333D01*
X161218000Y-111037714D01*
X161360857Y-111037714D01*
X161456095Y-111085333D01*
X144287904Y-139358666D02*
X144764095Y-139358666D01*
X144192666Y-139644380D02*
X144526000Y-138644380D01*
X144859333Y-139644380D01*
X154717714Y-118816380D02*
X154146285Y-118816380D01*
X154432000Y-118816380D02*
X154432000Y-117816380D01*
X154336761Y-117959238D01*
X154241523Y-118054476D01*
X154146285Y-118102095D01*
X173958285Y-93273619D02*
X174005904Y-93226000D01*
X174101142Y-93178380D01*
X174339238Y-93178380D01*
X174434476Y-93226000D01*
X174482095Y-93273619D01*
X174529714Y-93368857D01*
X174529714Y-93464095D01*
X174482095Y-93606952D01*
X173910666Y-94178380D01*
X174529714Y-94178380D01*
X223694666Y-93178380D02*
X224361333Y-93178380D01*
X223932761Y-94178380D01*
X159670952Y-103798761D02*
X158813809Y-105084476D01*
X160575714Y-104846380D02*
X160242380Y-104370190D01*
X160004285Y-104846380D02*
X160004285Y-103846380D01*
X160385238Y-103846380D01*
X160480476Y-103894000D01*
X160528095Y-103941619D01*
X160575714Y-104036857D01*
X160575714Y-104179714D01*
X160528095Y-104274952D01*
X160480476Y-104322571D01*
X160385238Y-104370190D01*
X160004285Y-104370190D01*
X161385238Y-104798761D02*
X161290000Y-104846380D01*
X161099523Y-104846380D01*
X161004285Y-104798761D01*
X160956666Y-104703523D01*
X160956666Y-104322571D01*
X161004285Y-104227333D01*
X161099523Y-104179714D01*
X161290000Y-104179714D01*
X161385238Y-104227333D01*
X161432857Y-104322571D01*
X161432857Y-104417809D01*
X160956666Y-104513047D01*
X161813809Y-104798761D02*
X161909047Y-104846380D01*
X162099523Y-104846380D01*
X162194761Y-104798761D01*
X162242380Y-104703523D01*
X162242380Y-104655904D01*
X162194761Y-104560666D01*
X162099523Y-104513047D01*
X161956666Y-104513047D01*
X161861428Y-104465428D01*
X161813809Y-104370190D01*
X161813809Y-104322571D01*
X161861428Y-104227333D01*
X161956666Y-104179714D01*
X162099523Y-104179714D01*
X162194761Y-104227333D01*
X163051904Y-104798761D02*
X162956666Y-104846380D01*
X162766190Y-104846380D01*
X162670952Y-104798761D01*
X162623333Y-104703523D01*
X162623333Y-104322571D01*
X162670952Y-104227333D01*
X162766190Y-104179714D01*
X162956666Y-104179714D01*
X163051904Y-104227333D01*
X163099523Y-104322571D01*
X163099523Y-104417809D01*
X162623333Y-104513047D01*
X163385238Y-104179714D02*
X163766190Y-104179714D01*
X163528095Y-103846380D02*
X163528095Y-104703523D01*
X163575714Y-104798761D01*
X163670952Y-104846380D01*
X163766190Y-104846380D01*
X164623714Y-94178380D02*
X164052285Y-94178380D01*
X164338000Y-94178380D02*
X164338000Y-93178380D01*
X164242761Y-93321238D01*
X164147523Y-93416476D01*
X164052285Y-93464095D01*
X183816666Y-93178380D02*
X184435714Y-93178380D01*
X184102380Y-93559333D01*
X184245238Y-93559333D01*
X184340476Y-93606952D01*
X184388095Y-93654571D01*
X184435714Y-93749809D01*
X184435714Y-93987904D01*
X184388095Y-94083142D01*
X184340476Y-94130761D01*
X184245238Y-94178380D01*
X183959523Y-94178380D01*
X183864285Y-94130761D01*
X183816666Y-94083142D01*
X157408761Y-134056380D02*
X157075428Y-133580190D01*
X156837333Y-134056380D02*
X156837333Y-133056380D01*
X157218285Y-133056380D01*
X157313523Y-133104000D01*
X157361142Y-133151619D01*
X157408761Y-133246857D01*
X157408761Y-133389714D01*
X157361142Y-133484952D01*
X157313523Y-133532571D01*
X157218285Y-133580190D01*
X156837333Y-133580190D01*
X157789714Y-134008761D02*
X157932571Y-134056380D01*
X158170666Y-134056380D01*
X158265904Y-134008761D01*
X158313523Y-133961142D01*
X158361142Y-133865904D01*
X158361142Y-133770666D01*
X158313523Y-133675428D01*
X158265904Y-133627809D01*
X158170666Y-133580190D01*
X157980190Y-133532571D01*
X157884952Y-133484952D01*
X157837333Y-133437333D01*
X157789714Y-133342095D01*
X157789714Y-133246857D01*
X157837333Y-133151619D01*
X157884952Y-133104000D01*
X157980190Y-133056380D01*
X158218285Y-133056380D01*
X158361142Y-133104000D01*
X159218285Y-133389714D02*
X159218285Y-134056380D01*
X158980190Y-133008761D02*
X158742095Y-133723047D01*
X159361142Y-133723047D01*
X159884952Y-133484952D02*
X159789714Y-133437333D01*
X159742095Y-133389714D01*
X159694476Y-133294476D01*
X159694476Y-133246857D01*
X159742095Y-133151619D01*
X159789714Y-133104000D01*
X159884952Y-133056380D01*
X160075428Y-133056380D01*
X160170666Y-133104000D01*
X160218285Y-133151619D01*
X160265904Y-133246857D01*
X160265904Y-133294476D01*
X160218285Y-133389714D01*
X160170666Y-133437333D01*
X160075428Y-133484952D01*
X159884952Y-133484952D01*
X159789714Y-133532571D01*
X159742095Y-133580190D01*
X159694476Y-133675428D01*
X159694476Y-133865904D01*
X159742095Y-133961142D01*
X159789714Y-134008761D01*
X159884952Y-134056380D01*
X160075428Y-134056380D01*
X160170666Y-134008761D01*
X160218285Y-133961142D01*
X160265904Y-133865904D01*
X160265904Y-133675428D01*
X160218285Y-133580190D01*
X160170666Y-133532571D01*
X160075428Y-133484952D01*
X161170666Y-133056380D02*
X160694476Y-133056380D01*
X160646857Y-133532571D01*
X160694476Y-133484952D01*
X160789714Y-133437333D01*
X161027809Y-133437333D01*
X161123047Y-133484952D01*
X161170666Y-133532571D01*
X161218285Y-133627809D01*
X161218285Y-133865904D01*
X161170666Y-133961142D01*
X161123047Y-134008761D01*
X161027809Y-134056380D01*
X160789714Y-134056380D01*
X160694476Y-134008761D01*
X160646857Y-133961142D01*
X204200095Y-93178380D02*
X203723904Y-93178380D01*
X203676285Y-93654571D01*
X203723904Y-93606952D01*
X203819142Y-93559333D01*
X204057238Y-93559333D01*
X204152476Y-93606952D01*
X204200095Y-93654571D01*
X204247714Y-93749809D01*
X204247714Y-93987904D01*
X204200095Y-94083142D01*
X204152476Y-94130761D01*
X204057238Y-94178380D01*
X203819142Y-94178380D01*
X203723904Y-94130761D01*
X203676285Y-94083142D01*
X181111523Y-109797380D02*
X180778190Y-109321190D01*
X180540095Y-109797380D02*
X180540095Y-108797380D01*
X180921047Y-108797380D01*
X181016285Y-108845000D01*
X181063904Y-108892619D01*
X181111523Y-108987857D01*
X181111523Y-109130714D01*
X181063904Y-109225952D01*
X181016285Y-109273571D01*
X180921047Y-109321190D01*
X180540095Y-109321190D01*
X181540095Y-109797380D02*
X181540095Y-108797380D01*
X181921047Y-108797380D01*
X182016285Y-108845000D01*
X182063904Y-108892619D01*
X182111523Y-108987857D01*
X182111523Y-109130714D01*
X182063904Y-109225952D01*
X182016285Y-109273571D01*
X181921047Y-109321190D01*
X181540095Y-109321190D01*
X182492476Y-108892619D02*
X182540095Y-108845000D01*
X182635333Y-108797380D01*
X182873428Y-108797380D01*
X182968666Y-108845000D01*
X183016285Y-108892619D01*
X183063904Y-108987857D01*
X183063904Y-109083095D01*
X183016285Y-109225952D01*
X182444857Y-109797380D01*
X183063904Y-109797380D01*
X183682952Y-108797380D02*
X183778190Y-108797380D01*
X183873428Y-108845000D01*
X183921047Y-108892619D01*
X183968666Y-108987857D01*
X184016285Y-109178333D01*
X184016285Y-109416428D01*
X183968666Y-109606904D01*
X183921047Y-109702142D01*
X183873428Y-109749761D01*
X183778190Y-109797380D01*
X183682952Y-109797380D01*
X183587714Y-109749761D01*
X183540095Y-109702142D01*
X183492476Y-109606904D01*
X183444857Y-109416428D01*
X183444857Y-109178333D01*
X183492476Y-108987857D01*
X183540095Y-108892619D01*
X183587714Y-108845000D01*
X183682952Y-108797380D01*
X184873428Y-109130714D02*
X184873428Y-109797380D01*
X184635333Y-108749761D02*
X184397238Y-109464047D01*
X185016285Y-109464047D01*
X185587714Y-108797380D02*
X185682952Y-108797380D01*
X185778190Y-108845000D01*
X185825809Y-108892619D01*
X185873428Y-108987857D01*
X185921047Y-109178333D01*
X185921047Y-109416428D01*
X185873428Y-109606904D01*
X185825809Y-109702142D01*
X185778190Y-109749761D01*
X185682952Y-109797380D01*
X185587714Y-109797380D01*
X185492476Y-109749761D01*
X185444857Y-109702142D01*
X185397238Y-109606904D01*
X185349619Y-109416428D01*
X185349619Y-109178333D01*
X185397238Y-108987857D01*
X185444857Y-108892619D01*
X185492476Y-108845000D01*
X185587714Y-108797380D01*
X187111523Y-109130714D02*
X187111523Y-110130714D01*
X187111523Y-109178333D02*
X187206761Y-109130714D01*
X187397238Y-109130714D01*
X187492476Y-109178333D01*
X187540095Y-109225952D01*
X187587714Y-109321190D01*
X187587714Y-109606904D01*
X187540095Y-109702142D01*
X187492476Y-109749761D01*
X187397238Y-109797380D01*
X187206761Y-109797380D01*
X187111523Y-109749761D01*
X188016285Y-109797380D02*
X188016285Y-109130714D01*
X188016285Y-109321190D02*
X188063904Y-109225952D01*
X188111523Y-109178333D01*
X188206761Y-109130714D01*
X188302000Y-109130714D01*
X188778190Y-109797380D02*
X188682952Y-109749761D01*
X188635333Y-109702142D01*
X188587714Y-109606904D01*
X188587714Y-109321190D01*
X188635333Y-109225952D01*
X188682952Y-109178333D01*
X188778190Y-109130714D01*
X188921047Y-109130714D01*
X189016285Y-109178333D01*
X189063904Y-109225952D01*
X189111523Y-109321190D01*
X189111523Y-109606904D01*
X189063904Y-109702142D01*
X189016285Y-109749761D01*
X188921047Y-109797380D01*
X188778190Y-109797380D01*
X190302000Y-109797380D02*
X190302000Y-109130714D01*
X190302000Y-109225952D02*
X190349619Y-109178333D01*
X190444857Y-109130714D01*
X190587714Y-109130714D01*
X190682952Y-109178333D01*
X190730571Y-109273571D01*
X190730571Y-109797380D01*
X190730571Y-109273571D02*
X190778190Y-109178333D01*
X190873428Y-109130714D01*
X191016285Y-109130714D01*
X191111523Y-109178333D01*
X191159142Y-109273571D01*
X191159142Y-109797380D01*
X191635333Y-109797380D02*
X191635333Y-109130714D01*
X191635333Y-108797380D02*
X191587714Y-108845000D01*
X191635333Y-108892619D01*
X191682952Y-108845000D01*
X191635333Y-108797380D01*
X191635333Y-108892619D01*
X192540095Y-109749761D02*
X192444857Y-109797380D01*
X192254380Y-109797380D01*
X192159142Y-109749761D01*
X192111523Y-109702142D01*
X192063904Y-109606904D01*
X192063904Y-109321190D01*
X192111523Y-109225952D01*
X192159142Y-109178333D01*
X192254380Y-109130714D01*
X192444857Y-109130714D01*
X192540095Y-109178333D01*
X192968666Y-109797380D02*
X192968666Y-109130714D01*
X192968666Y-109321190D02*
X193016285Y-109225952D01*
X193063904Y-109178333D01*
X193159142Y-109130714D01*
X193254380Y-109130714D01*
X193730571Y-109797380D02*
X193635333Y-109749761D01*
X193587714Y-109702142D01*
X193540095Y-109606904D01*
X193540095Y-109321190D01*
X193587714Y-109225952D01*
X193635333Y-109178333D01*
X193730571Y-109130714D01*
X193873428Y-109130714D01*
X193968666Y-109178333D01*
X194016285Y-109225952D01*
X194063904Y-109321190D01*
X194063904Y-109606904D01*
X194016285Y-109702142D01*
X193968666Y-109749761D01*
X193873428Y-109797380D01*
X193730571Y-109797380D01*
X195254380Y-109130714D02*
X195254380Y-110130714D01*
X195254380Y-109178333D02*
X195349619Y-109130714D01*
X195540095Y-109130714D01*
X195635333Y-109178333D01*
X195682952Y-109225952D01*
X195730571Y-109321190D01*
X195730571Y-109606904D01*
X195682952Y-109702142D01*
X195635333Y-109749761D01*
X195540095Y-109797380D01*
X195349619Y-109797380D01*
X195254380Y-109749761D01*
X196159142Y-109797380D02*
X196159142Y-109130714D01*
X196159142Y-109321190D02*
X196206761Y-109225952D01*
X196254380Y-109178333D01*
X196349619Y-109130714D01*
X196444857Y-109130714D01*
X196921047Y-109797380D02*
X196825809Y-109749761D01*
X196778190Y-109702142D01*
X196730571Y-109606904D01*
X196730571Y-109321190D01*
X196778190Y-109225952D01*
X196825809Y-109178333D01*
X196921047Y-109130714D01*
X197063904Y-109130714D01*
X197159142Y-109178333D01*
X197206761Y-109225952D01*
X197254380Y-109321190D01*
X197254380Y-109606904D01*
X197206761Y-109702142D01*
X197159142Y-109749761D01*
X197063904Y-109797380D01*
X196921047Y-109797380D01*
X198111523Y-109749761D02*
X198016285Y-109797380D01*
X197825809Y-109797380D01*
X197730571Y-109749761D01*
X197682952Y-109702142D01*
X197635333Y-109606904D01*
X197635333Y-109321190D01*
X197682952Y-109225952D01*
X197730571Y-109178333D01*
X197825809Y-109130714D01*
X198016285Y-109130714D01*
X198111523Y-109178333D01*
X198921047Y-109749761D02*
X198825809Y-109797380D01*
X198635333Y-109797380D01*
X198540095Y-109749761D01*
X198492476Y-109654523D01*
X198492476Y-109273571D01*
X198540095Y-109178333D01*
X198635333Y-109130714D01*
X198825809Y-109130714D01*
X198921047Y-109178333D01*
X198968666Y-109273571D01*
X198968666Y-109368809D01*
X198492476Y-109464047D01*
X199349619Y-109749761D02*
X199444857Y-109797380D01*
X199635333Y-109797380D01*
X199730571Y-109749761D01*
X199778190Y-109654523D01*
X199778190Y-109606904D01*
X199730571Y-109511666D01*
X199635333Y-109464047D01*
X199492476Y-109464047D01*
X199397238Y-109416428D01*
X199349619Y-109321190D01*
X199349619Y-109273571D01*
X199397238Y-109178333D01*
X199492476Y-109130714D01*
X199635333Y-109130714D01*
X199730571Y-109178333D01*
X200159142Y-109749761D02*
X200254380Y-109797380D01*
X200444857Y-109797380D01*
X200540095Y-109749761D01*
X200587714Y-109654523D01*
X200587714Y-109606904D01*
X200540095Y-109511666D01*
X200444857Y-109464047D01*
X200302000Y-109464047D01*
X200206761Y-109416428D01*
X200159142Y-109321190D01*
X200159142Y-109273571D01*
X200206761Y-109178333D01*
X200302000Y-109130714D01*
X200444857Y-109130714D01*
X200540095Y-109178333D01*
X201159142Y-109797380D02*
X201063904Y-109749761D01*
X201016285Y-109702142D01*
X200968666Y-109606904D01*
X200968666Y-109321190D01*
X201016285Y-109225952D01*
X201063904Y-109178333D01*
X201159142Y-109130714D01*
X201302000Y-109130714D01*
X201397238Y-109178333D01*
X201444857Y-109225952D01*
X201492476Y-109321190D01*
X201492476Y-109606904D01*
X201444857Y-109702142D01*
X201397238Y-109749761D01*
X201302000Y-109797380D01*
X201159142Y-109797380D01*
X201921047Y-109797380D02*
X201921047Y-109130714D01*
X201921047Y-109321190D02*
X201968666Y-109225952D01*
X202016285Y-109178333D01*
X202111523Y-109130714D01*
X202206761Y-109130714D01*
X203302000Y-109797380D02*
X203302000Y-108797380D01*
X203302000Y-109178333D02*
X203397238Y-109130714D01*
X203587714Y-109130714D01*
X203682952Y-109178333D01*
X203730571Y-109225952D01*
X203778190Y-109321190D01*
X203778190Y-109606904D01*
X203730571Y-109702142D01*
X203682952Y-109749761D01*
X203587714Y-109797380D01*
X203397238Y-109797380D01*
X203302000Y-109749761D01*
X204349619Y-109797380D02*
X204254380Y-109749761D01*
X204206761Y-109702142D01*
X204159142Y-109606904D01*
X204159142Y-109321190D01*
X204206761Y-109225952D01*
X204254380Y-109178333D01*
X204349619Y-109130714D01*
X204492476Y-109130714D01*
X204587714Y-109178333D01*
X204635333Y-109225952D01*
X204682952Y-109321190D01*
X204682952Y-109606904D01*
X204635333Y-109702142D01*
X204587714Y-109749761D01*
X204492476Y-109797380D01*
X204349619Y-109797380D01*
X205540095Y-109797380D02*
X205540095Y-109273571D01*
X205492476Y-109178333D01*
X205397238Y-109130714D01*
X205206761Y-109130714D01*
X205111523Y-109178333D01*
X205540095Y-109749761D02*
X205444857Y-109797380D01*
X205206761Y-109797380D01*
X205111523Y-109749761D01*
X205063904Y-109654523D01*
X205063904Y-109559285D01*
X205111523Y-109464047D01*
X205206761Y-109416428D01*
X205444857Y-109416428D01*
X205540095Y-109368809D01*
X206016285Y-109797380D02*
X206016285Y-109130714D01*
X206016285Y-109321190D02*
X206063904Y-109225952D01*
X206111523Y-109178333D01*
X206206761Y-109130714D01*
X206302000Y-109130714D01*
X207063904Y-109797380D02*
X207063904Y-108797380D01*
X207063904Y-109749761D02*
X206968666Y-109797380D01*
X206778190Y-109797380D01*
X206682952Y-109749761D01*
X206635333Y-109702142D01*
X206587714Y-109606904D01*
X206587714Y-109321190D01*
X206635333Y-109225952D01*
X206682952Y-109178333D01*
X206778190Y-109130714D01*
X206968666Y-109130714D01*
X207063904Y-109178333D01*
X183849619Y-111407380D02*
X183849619Y-110407380D01*
X184182952Y-111121666D01*
X184516285Y-110407380D01*
X184516285Y-111407380D01*
X184944857Y-111121666D02*
X185421047Y-111121666D01*
X184849619Y-111407380D02*
X185182952Y-110407380D01*
X185516285Y-111407380D01*
X185754380Y-110407380D02*
X186421047Y-111407380D01*
X186421047Y-110407380D02*
X185754380Y-111407380D01*
X187230571Y-110740714D02*
X187230571Y-111407380D01*
X186992476Y-110359761D02*
X186754380Y-111074047D01*
X187373428Y-111074047D01*
X187897238Y-110835952D02*
X187802000Y-110788333D01*
X187754380Y-110740714D01*
X187706761Y-110645476D01*
X187706761Y-110597857D01*
X187754380Y-110502619D01*
X187802000Y-110455000D01*
X187897238Y-110407380D01*
X188087714Y-110407380D01*
X188182952Y-110455000D01*
X188230571Y-110502619D01*
X188278190Y-110597857D01*
X188278190Y-110645476D01*
X188230571Y-110740714D01*
X188182952Y-110788333D01*
X188087714Y-110835952D01*
X187897238Y-110835952D01*
X187802000Y-110883571D01*
X187754380Y-110931190D01*
X187706761Y-111026428D01*
X187706761Y-111216904D01*
X187754380Y-111312142D01*
X187802000Y-111359761D01*
X187897238Y-111407380D01*
X188087714Y-111407380D01*
X188182952Y-111359761D01*
X188230571Y-111312142D01*
X188278190Y-111216904D01*
X188278190Y-111026428D01*
X188230571Y-110931190D01*
X188182952Y-110883571D01*
X188087714Y-110835952D01*
X188611523Y-110407380D02*
X189278190Y-110407380D01*
X188849619Y-111407380D01*
X190992476Y-111407380D02*
X190659142Y-110931190D01*
X190421047Y-111407380D02*
X190421047Y-110407380D01*
X190802000Y-110407380D01*
X190897238Y-110455000D01*
X190944857Y-110502619D01*
X190992476Y-110597857D01*
X190992476Y-110740714D01*
X190944857Y-110835952D01*
X190897238Y-110883571D01*
X190802000Y-110931190D01*
X190421047Y-110931190D01*
X191373428Y-111359761D02*
X191516285Y-111407380D01*
X191754380Y-111407380D01*
X191849619Y-111359761D01*
X191897238Y-111312142D01*
X191944857Y-111216904D01*
X191944857Y-111121666D01*
X191897238Y-111026428D01*
X191849619Y-110978809D01*
X191754380Y-110931190D01*
X191563904Y-110883571D01*
X191468666Y-110835952D01*
X191421047Y-110788333D01*
X191373428Y-110693095D01*
X191373428Y-110597857D01*
X191421047Y-110502619D01*
X191468666Y-110455000D01*
X191563904Y-110407380D01*
X191802000Y-110407380D01*
X191944857Y-110455000D01*
X192802000Y-110740714D02*
X192802000Y-111407380D01*
X192563904Y-110359761D02*
X192325809Y-111074047D01*
X192944857Y-111074047D01*
X193468666Y-110835952D02*
X193373428Y-110788333D01*
X193325809Y-110740714D01*
X193278190Y-110645476D01*
X193278190Y-110597857D01*
X193325809Y-110502619D01*
X193373428Y-110455000D01*
X193468666Y-110407380D01*
X193659142Y-110407380D01*
X193754380Y-110455000D01*
X193802000Y-110502619D01*
X193849619Y-110597857D01*
X193849619Y-110645476D01*
X193802000Y-110740714D01*
X193754380Y-110788333D01*
X193659142Y-110835952D01*
X193468666Y-110835952D01*
X193373428Y-110883571D01*
X193325809Y-110931190D01*
X193278190Y-111026428D01*
X193278190Y-111216904D01*
X193325809Y-111312142D01*
X193373428Y-111359761D01*
X193468666Y-111407380D01*
X193659142Y-111407380D01*
X193754380Y-111359761D01*
X193802000Y-111312142D01*
X193849619Y-111216904D01*
X193849619Y-111026428D01*
X193802000Y-110931190D01*
X193754380Y-110883571D01*
X193659142Y-110835952D01*
X194754380Y-110407380D02*
X194278190Y-110407380D01*
X194230571Y-110883571D01*
X194278190Y-110835952D01*
X194373428Y-110788333D01*
X194611523Y-110788333D01*
X194706761Y-110835952D01*
X194754380Y-110883571D01*
X194802000Y-110978809D01*
X194802000Y-111216904D01*
X194754380Y-111312142D01*
X194706761Y-111359761D01*
X194611523Y-111407380D01*
X194373428Y-111407380D01*
X194278190Y-111359761D01*
X194230571Y-111312142D01*
X195849619Y-110740714D02*
X196230571Y-110740714D01*
X195992476Y-110407380D02*
X195992476Y-111264523D01*
X196040095Y-111359761D01*
X196135333Y-111407380D01*
X196230571Y-111407380D01*
X196563904Y-111407380D02*
X196563904Y-110740714D01*
X196563904Y-110931190D02*
X196611523Y-110835952D01*
X196659142Y-110788333D01*
X196754380Y-110740714D01*
X196849619Y-110740714D01*
X197611523Y-111407380D02*
X197611523Y-110883571D01*
X197563904Y-110788333D01*
X197468666Y-110740714D01*
X197278190Y-110740714D01*
X197182952Y-110788333D01*
X197611523Y-111359761D02*
X197516285Y-111407380D01*
X197278190Y-111407380D01*
X197182952Y-111359761D01*
X197135333Y-111264523D01*
X197135333Y-111169285D01*
X197182952Y-111074047D01*
X197278190Y-111026428D01*
X197516285Y-111026428D01*
X197611523Y-110978809D01*
X198087714Y-110740714D02*
X198087714Y-111407380D01*
X198087714Y-110835952D02*
X198135333Y-110788333D01*
X198230571Y-110740714D01*
X198373428Y-110740714D01*
X198468666Y-110788333D01*
X198516285Y-110883571D01*
X198516285Y-111407380D01*
X198944857Y-111359761D02*
X199040095Y-111407380D01*
X199230571Y-111407380D01*
X199325809Y-111359761D01*
X199373428Y-111264523D01*
X199373428Y-111216904D01*
X199325809Y-111121666D01*
X199230571Y-111074047D01*
X199087714Y-111074047D01*
X198992476Y-111026428D01*
X198944857Y-110931190D01*
X198944857Y-110883571D01*
X198992476Y-110788333D01*
X199087714Y-110740714D01*
X199230571Y-110740714D01*
X199325809Y-110788333D01*
X200230571Y-111359761D02*
X200135333Y-111407380D01*
X199944857Y-111407380D01*
X199849619Y-111359761D01*
X199802000Y-111312142D01*
X199754380Y-111216904D01*
X199754380Y-110931190D01*
X199802000Y-110835952D01*
X199849619Y-110788333D01*
X199944857Y-110740714D01*
X200135333Y-110740714D01*
X200230571Y-110788333D01*
X201040095Y-111359761D02*
X200944857Y-111407380D01*
X200754380Y-111407380D01*
X200659142Y-111359761D01*
X200611523Y-111264523D01*
X200611523Y-110883571D01*
X200659142Y-110788333D01*
X200754380Y-110740714D01*
X200944857Y-110740714D01*
X201040095Y-110788333D01*
X201087714Y-110883571D01*
X201087714Y-110978809D01*
X200611523Y-111074047D01*
X201516285Y-111407380D02*
X201516285Y-110740714D01*
X201516285Y-110407380D02*
X201468666Y-110455000D01*
X201516285Y-110502619D01*
X201563904Y-110455000D01*
X201516285Y-110407380D01*
X201516285Y-110502619D01*
X201897238Y-110740714D02*
X202135333Y-111407380D01*
X202373428Y-110740714D01*
X203135333Y-111359761D02*
X203040095Y-111407380D01*
X202849619Y-111407380D01*
X202754380Y-111359761D01*
X202706761Y-111264523D01*
X202706761Y-110883571D01*
X202754380Y-110788333D01*
X202849619Y-110740714D01*
X203040095Y-110740714D01*
X203135333Y-110788333D01*
X203182952Y-110883571D01*
X203182952Y-110978809D01*
X202706761Y-111074047D01*
X203611523Y-111407380D02*
X203611523Y-110740714D01*
X203611523Y-110931190D02*
X203659142Y-110835952D01*
X203706761Y-110788333D01*
X203802000Y-110740714D01*
X203897238Y-110740714D01*
X186825809Y-112017380D02*
X187397238Y-112017380D01*
X187111523Y-113017380D02*
X187111523Y-112017380D01*
X188302000Y-112922142D02*
X188254380Y-112969761D01*
X188111523Y-113017380D01*
X188016285Y-113017380D01*
X187873428Y-112969761D01*
X187778190Y-112874523D01*
X187730571Y-112779285D01*
X187682952Y-112588809D01*
X187682952Y-112445952D01*
X187730571Y-112255476D01*
X187778190Y-112160238D01*
X187873428Y-112065000D01*
X188016285Y-112017380D01*
X188111523Y-112017380D01*
X188254380Y-112065000D01*
X188302000Y-112112619D01*
X188682952Y-112731666D02*
X189159142Y-112731666D01*
X188587714Y-113017380D02*
X188921047Y-112017380D01*
X189254380Y-113017380D01*
X189635333Y-113017380D02*
X189825809Y-113017380D01*
X189921047Y-112969761D01*
X189968666Y-112922142D01*
X190063904Y-112779285D01*
X190111523Y-112588809D01*
X190111523Y-112207857D01*
X190063904Y-112112619D01*
X190016285Y-112065000D01*
X189921047Y-112017380D01*
X189730571Y-112017380D01*
X189635333Y-112065000D01*
X189587714Y-112112619D01*
X189540095Y-112207857D01*
X189540095Y-112445952D01*
X189587714Y-112541190D01*
X189635333Y-112588809D01*
X189730571Y-112636428D01*
X189921047Y-112636428D01*
X190016285Y-112588809D01*
X190063904Y-112541190D01*
X190111523Y-112445952D01*
X191016285Y-112017380D02*
X190540095Y-112017380D01*
X190492476Y-112493571D01*
X190540095Y-112445952D01*
X190635333Y-112398333D01*
X190873428Y-112398333D01*
X190968666Y-112445952D01*
X191016285Y-112493571D01*
X191063904Y-112588809D01*
X191063904Y-112826904D01*
X191016285Y-112922142D01*
X190968666Y-112969761D01*
X190873428Y-113017380D01*
X190635333Y-113017380D01*
X190540095Y-112969761D01*
X190492476Y-112922142D01*
X191921047Y-112350714D02*
X191921047Y-113017380D01*
X191682952Y-111969761D02*
X191444857Y-112684047D01*
X192063904Y-112684047D01*
X192587714Y-112445952D02*
X192492476Y-112398333D01*
X192444857Y-112350714D01*
X192397238Y-112255476D01*
X192397238Y-112207857D01*
X192444857Y-112112619D01*
X192492476Y-112065000D01*
X192587714Y-112017380D01*
X192778190Y-112017380D01*
X192873428Y-112065000D01*
X192921047Y-112112619D01*
X192968666Y-112207857D01*
X192968666Y-112255476D01*
X192921047Y-112350714D01*
X192873428Y-112398333D01*
X192778190Y-112445952D01*
X192587714Y-112445952D01*
X192492476Y-112493571D01*
X192444857Y-112541190D01*
X192397238Y-112636428D01*
X192397238Y-112826904D01*
X192444857Y-112922142D01*
X192492476Y-112969761D01*
X192587714Y-113017380D01*
X192778190Y-113017380D01*
X192873428Y-112969761D01*
X192921047Y-112922142D01*
X192968666Y-112826904D01*
X192968666Y-112636428D01*
X192921047Y-112541190D01*
X192873428Y-112493571D01*
X192778190Y-112445952D01*
X193349619Y-112731666D02*
X193825809Y-112731666D01*
X193254380Y-113017380D02*
X193587714Y-112017380D01*
X193921047Y-113017380D01*
X195016285Y-113017380D02*
X195016285Y-112350714D01*
X195016285Y-112017380D02*
X194968666Y-112065000D01*
X195016285Y-112112619D01*
X195063904Y-112065000D01*
X195016285Y-112017380D01*
X195016285Y-112112619D01*
X195444857Y-112112619D02*
X195492476Y-112065000D01*
X195587714Y-112017380D01*
X195825809Y-112017380D01*
X195921047Y-112065000D01*
X195968666Y-112112619D01*
X196016285Y-112207857D01*
X196016285Y-112303095D01*
X195968666Y-112445952D01*
X195397238Y-113017380D01*
X196016285Y-113017380D01*
X196873428Y-112969761D02*
X196778190Y-113017380D01*
X196587714Y-113017380D01*
X196492476Y-112969761D01*
X196444857Y-112922142D01*
X196397238Y-112826904D01*
X196397238Y-112541190D01*
X196444857Y-112445952D01*
X196492476Y-112398333D01*
X196587714Y-112350714D01*
X196778190Y-112350714D01*
X196873428Y-112398333D01*
X198063904Y-113017380D02*
X198063904Y-112350714D01*
X198063904Y-112445952D02*
X198111523Y-112398333D01*
X198206761Y-112350714D01*
X198349619Y-112350714D01*
X198444857Y-112398333D01*
X198492476Y-112493571D01*
X198492476Y-113017380D01*
X198492476Y-112493571D02*
X198540095Y-112398333D01*
X198635333Y-112350714D01*
X198778190Y-112350714D01*
X198873428Y-112398333D01*
X198921047Y-112493571D01*
X198921047Y-113017380D01*
X199825809Y-112350714D02*
X199825809Y-113017380D01*
X199397238Y-112350714D02*
X199397238Y-112874523D01*
X199444857Y-112969761D01*
X199540095Y-113017380D01*
X199682952Y-113017380D01*
X199778190Y-112969761D01*
X199825809Y-112922142D01*
X200206761Y-113017380D02*
X200730571Y-112350714D01*
X200206761Y-112350714D02*
X200730571Y-113017380D01*
X178968666Y-114627380D02*
X178968666Y-113627380D01*
X179540095Y-114627380D01*
X179540095Y-113627380D01*
X179968666Y-114341666D02*
X180444857Y-114341666D01*
X179873428Y-114627380D02*
X180206761Y-113627380D01*
X180540095Y-114627380D01*
X180873428Y-113627380D02*
X180873428Y-114436904D01*
X180921047Y-114532142D01*
X180968666Y-114579761D01*
X181063904Y-114627380D01*
X181254380Y-114627380D01*
X181349619Y-114579761D01*
X181397238Y-114532142D01*
X181444857Y-114436904D01*
X181444857Y-113627380D01*
X181825809Y-113627380D02*
X182492476Y-113627380D01*
X182063904Y-114627380D01*
X183016285Y-114055952D02*
X182921047Y-114008333D01*
X182873428Y-113960714D01*
X182825809Y-113865476D01*
X182825809Y-113817857D01*
X182873428Y-113722619D01*
X182921047Y-113675000D01*
X183016285Y-113627380D01*
X183206761Y-113627380D01*
X183302000Y-113675000D01*
X183349619Y-113722619D01*
X183397238Y-113817857D01*
X183397238Y-113865476D01*
X183349619Y-113960714D01*
X183302000Y-114008333D01*
X183206761Y-114055952D01*
X183016285Y-114055952D01*
X182921047Y-114103571D01*
X182873428Y-114151190D01*
X182825809Y-114246428D01*
X182825809Y-114436904D01*
X182873428Y-114532142D01*
X182921047Y-114579761D01*
X183016285Y-114627380D01*
X183206761Y-114627380D01*
X183302000Y-114579761D01*
X183349619Y-114532142D01*
X183397238Y-114436904D01*
X183397238Y-114246428D01*
X183349619Y-114151190D01*
X183302000Y-114103571D01*
X183206761Y-114055952D01*
X184016285Y-113627380D02*
X184111523Y-113627380D01*
X184206761Y-113675000D01*
X184254380Y-113722619D01*
X184302000Y-113817857D01*
X184349619Y-114008333D01*
X184349619Y-114246428D01*
X184302000Y-114436904D01*
X184254380Y-114532142D01*
X184206761Y-114579761D01*
X184111523Y-114627380D01*
X184016285Y-114627380D01*
X183921047Y-114579761D01*
X183873428Y-114532142D01*
X183825809Y-114436904D01*
X183778190Y-114246428D01*
X183778190Y-114008333D01*
X183825809Y-113817857D01*
X183873428Y-113722619D01*
X183921047Y-113675000D01*
X184016285Y-113627380D01*
X184730571Y-113722619D02*
X184778190Y-113675000D01*
X184873428Y-113627380D01*
X185111523Y-113627380D01*
X185206761Y-113675000D01*
X185254380Y-113722619D01*
X185302000Y-113817857D01*
X185302000Y-113913095D01*
X185254380Y-114055952D01*
X184682952Y-114627380D01*
X185302000Y-114627380D01*
X186444857Y-114579761D02*
X186540095Y-114627380D01*
X186730571Y-114627380D01*
X186825809Y-114579761D01*
X186873428Y-114484523D01*
X186873428Y-114436904D01*
X186825809Y-114341666D01*
X186730571Y-114294047D01*
X186587714Y-114294047D01*
X186492476Y-114246428D01*
X186444857Y-114151190D01*
X186444857Y-114103571D01*
X186492476Y-114008333D01*
X186587714Y-113960714D01*
X186730571Y-113960714D01*
X186825809Y-114008333D01*
X187730571Y-114579761D02*
X187635333Y-114627380D01*
X187444857Y-114627380D01*
X187349619Y-114579761D01*
X187302000Y-114532142D01*
X187254380Y-114436904D01*
X187254380Y-114151190D01*
X187302000Y-114055952D01*
X187349619Y-114008333D01*
X187444857Y-113960714D01*
X187635333Y-113960714D01*
X187730571Y-114008333D01*
X188587714Y-114627380D02*
X188587714Y-114103571D01*
X188540095Y-114008333D01*
X188444857Y-113960714D01*
X188254380Y-113960714D01*
X188159142Y-114008333D01*
X188587714Y-114579761D02*
X188492476Y-114627380D01*
X188254380Y-114627380D01*
X188159142Y-114579761D01*
X188111523Y-114484523D01*
X188111523Y-114389285D01*
X188159142Y-114294047D01*
X188254380Y-114246428D01*
X188492476Y-114246428D01*
X188587714Y-114198809D01*
X189206761Y-114627380D02*
X189111523Y-114579761D01*
X189063904Y-114484523D01*
X189063904Y-113627380D01*
X189968666Y-114579761D02*
X189873428Y-114627380D01*
X189682952Y-114627380D01*
X189587714Y-114579761D01*
X189540095Y-114484523D01*
X189540095Y-114103571D01*
X189587714Y-114008333D01*
X189682952Y-113960714D01*
X189873428Y-113960714D01*
X189968666Y-114008333D01*
X190016285Y-114103571D01*
X190016285Y-114198809D01*
X189540095Y-114294047D01*
X190397238Y-114579761D02*
X190492476Y-114627380D01*
X190682952Y-114627380D01*
X190778190Y-114579761D01*
X190825809Y-114484523D01*
X190825809Y-114436904D01*
X190778190Y-114341666D01*
X190682952Y-114294047D01*
X190540095Y-114294047D01*
X190444857Y-114246428D01*
X190397238Y-114151190D01*
X190397238Y-114103571D01*
X190444857Y-114008333D01*
X190540095Y-113960714D01*
X190682952Y-113960714D01*
X190778190Y-114008333D01*
X192159142Y-114627380D02*
X192063904Y-114579761D01*
X192016285Y-114532142D01*
X191968666Y-114436904D01*
X191968666Y-114151190D01*
X192016285Y-114055952D01*
X192063904Y-114008333D01*
X192159142Y-113960714D01*
X192302000Y-113960714D01*
X192397238Y-114008333D01*
X192444857Y-114055952D01*
X192492476Y-114151190D01*
X192492476Y-114436904D01*
X192444857Y-114532142D01*
X192397238Y-114579761D01*
X192302000Y-114627380D01*
X192159142Y-114627380D01*
X192921047Y-113960714D02*
X192921047Y-114627380D01*
X192921047Y-114055952D02*
X192968666Y-114008333D01*
X193063904Y-113960714D01*
X193206761Y-113960714D01*
X193302000Y-114008333D01*
X193349619Y-114103571D01*
X193349619Y-114627380D01*
X194587714Y-114627380D02*
X194587714Y-113960714D01*
X194587714Y-114055952D02*
X194635333Y-114008333D01*
X194730571Y-113960714D01*
X194873428Y-113960714D01*
X194968666Y-114008333D01*
X195016285Y-114103571D01*
X195016285Y-114627380D01*
X195016285Y-114103571D02*
X195063904Y-114008333D01*
X195159142Y-113960714D01*
X195302000Y-113960714D01*
X195397238Y-114008333D01*
X195444857Y-114103571D01*
X195444857Y-114627380D01*
X196349619Y-113960714D02*
X196349619Y-114627380D01*
X195921047Y-113960714D02*
X195921047Y-114484523D01*
X195968666Y-114579761D01*
X196063904Y-114627380D01*
X196206761Y-114627380D01*
X196302000Y-114579761D01*
X196349619Y-114532142D01*
X196730571Y-114627380D02*
X197254380Y-113960714D01*
X196730571Y-113960714D02*
X197254380Y-114627380D01*
X198397238Y-113960714D02*
X198397238Y-114960714D01*
X198397238Y-114008333D02*
X198492476Y-113960714D01*
X198682952Y-113960714D01*
X198778190Y-114008333D01*
X198825809Y-114055952D01*
X198873428Y-114151190D01*
X198873428Y-114436904D01*
X198825809Y-114532142D01*
X198778190Y-114579761D01*
X198682952Y-114627380D01*
X198492476Y-114627380D01*
X198397238Y-114579761D01*
X199444857Y-114627380D02*
X199349619Y-114579761D01*
X199302000Y-114532142D01*
X199254380Y-114436904D01*
X199254380Y-114151190D01*
X199302000Y-114055952D01*
X199349619Y-114008333D01*
X199444857Y-113960714D01*
X199587714Y-113960714D01*
X199682952Y-114008333D01*
X199730571Y-114055952D01*
X199778190Y-114151190D01*
X199778190Y-114436904D01*
X199730571Y-114532142D01*
X199682952Y-114579761D01*
X199587714Y-114627380D01*
X199444857Y-114627380D01*
X200206761Y-114627380D02*
X200206761Y-113960714D01*
X200206761Y-114151190D02*
X200254380Y-114055952D01*
X200302000Y-114008333D01*
X200397238Y-113960714D01*
X200492476Y-113960714D01*
X200682952Y-113960714D02*
X201063904Y-113960714D01*
X200825809Y-113627380D02*
X200825809Y-114484523D01*
X200873428Y-114579761D01*
X200968666Y-114627380D01*
X201063904Y-114627380D01*
X201349619Y-114579761D02*
X201444857Y-114627380D01*
X201635333Y-114627380D01*
X201730571Y-114579761D01*
X201778190Y-114484523D01*
X201778190Y-114436904D01*
X201730571Y-114341666D01*
X201635333Y-114294047D01*
X201492476Y-114294047D01*
X201397238Y-114246428D01*
X201349619Y-114151190D01*
X201349619Y-114103571D01*
X201397238Y-114008333D01*
X201492476Y-113960714D01*
X201635333Y-113960714D01*
X201730571Y-114008333D01*
X203492476Y-114627380D02*
X202921047Y-114627380D01*
X203206761Y-114627380D02*
X203206761Y-113627380D01*
X203111523Y-113770238D01*
X203016285Y-113865476D01*
X202921047Y-113913095D01*
X205111523Y-114627380D02*
X205111523Y-114103571D01*
X205063904Y-114008333D01*
X204968666Y-113960714D01*
X204778190Y-113960714D01*
X204682952Y-114008333D01*
X205111523Y-114579761D02*
X205016285Y-114627380D01*
X204778190Y-114627380D01*
X204682952Y-114579761D01*
X204635333Y-114484523D01*
X204635333Y-114389285D01*
X204682952Y-114294047D01*
X204778190Y-114246428D01*
X205016285Y-114246428D01*
X205111523Y-114198809D01*
X205587714Y-113960714D02*
X205587714Y-114627380D01*
X205587714Y-114055952D02*
X205635333Y-114008333D01*
X205730571Y-113960714D01*
X205873428Y-113960714D01*
X205968666Y-114008333D01*
X206016285Y-114103571D01*
X206016285Y-114627380D01*
X206921047Y-114627380D02*
X206921047Y-113627380D01*
X206921047Y-114579761D02*
X206825809Y-114627380D01*
X206635333Y-114627380D01*
X206540095Y-114579761D01*
X206492476Y-114532142D01*
X206444857Y-114436904D01*
X206444857Y-114151190D01*
X206492476Y-114055952D01*
X206540095Y-114008333D01*
X206635333Y-113960714D01*
X206825809Y-113960714D01*
X206921047Y-114008333D01*
X208111523Y-113722619D02*
X208159142Y-113675000D01*
X208254380Y-113627380D01*
X208492476Y-113627380D01*
X208587714Y-113675000D01*
X208635333Y-113722619D01*
X208682952Y-113817857D01*
X208682952Y-113913095D01*
X208635333Y-114055952D01*
X208063904Y-114627380D01*
X208682952Y-114627380D01*
X142033809Y-93924380D02*
X142033809Y-92924380D01*
X142367142Y-93638666D01*
X142700476Y-92924380D01*
X142700476Y-93924380D01*
X143605238Y-93924380D02*
X143605238Y-93400571D01*
X143557619Y-93305333D01*
X143462380Y-93257714D01*
X143271904Y-93257714D01*
X143176666Y-93305333D01*
X143605238Y-93876761D02*
X143510000Y-93924380D01*
X143271904Y-93924380D01*
X143176666Y-93876761D01*
X143129047Y-93781523D01*
X143129047Y-93686285D01*
X143176666Y-93591047D01*
X143271904Y-93543428D01*
X143510000Y-93543428D01*
X143605238Y-93495809D01*
X144081428Y-93924380D02*
X144081428Y-93257714D01*
X144081428Y-92924380D02*
X144033809Y-92972000D01*
X144081428Y-93019619D01*
X144129047Y-92972000D01*
X144081428Y-92924380D01*
X144081428Y-93019619D01*
X144557619Y-93257714D02*
X144557619Y-93924380D01*
X144557619Y-93352952D02*
X144605238Y-93305333D01*
X144700476Y-93257714D01*
X144843333Y-93257714D01*
X144938571Y-93305333D01*
X144986190Y-93400571D01*
X144986190Y-93924380D01*
X214058476Y-93178380D02*
X213868000Y-93178380D01*
X213772761Y-93226000D01*
X213725142Y-93273619D01*
X213629904Y-93416476D01*
X213582285Y-93606952D01*
X213582285Y-93987904D01*
X213629904Y-94083142D01*
X213677523Y-94130761D01*
X213772761Y-94178380D01*
X213963238Y-94178380D01*
X214058476Y-94130761D01*
X214106095Y-94083142D01*
X214153714Y-93987904D01*
X214153714Y-93749809D01*
X214106095Y-93654571D01*
X214058476Y-93606952D01*
X213963238Y-93559333D01*
X213772761Y-93559333D01*
X213677523Y-93606952D01*
X213629904Y-93654571D01*
X213582285Y-93749809D01*
X191874285Y-103163714D02*
X191874285Y-103830380D01*
X191636190Y-102782761D02*
X191398095Y-103497047D01*
X192017142Y-103497047D01*
X192398095Y-103735142D02*
X192445714Y-103782761D01*
X192398095Y-103830380D01*
X192350476Y-103782761D01*
X192398095Y-103735142D01*
X192398095Y-103830380D01*
X192779047Y-102830380D02*
X193445714Y-102830380D01*
X193017142Y-103830380D01*
X193826666Y-103830380D02*
X193826666Y-102830380D01*
X193921904Y-103449428D02*
X194207619Y-103830380D01*
X194207619Y-103163714D02*
X193826666Y-103544666D01*
X195398095Y-103830380D02*
X195398095Y-103163714D01*
X195398095Y-102830380D02*
X195350476Y-102878000D01*
X195398095Y-102925619D01*
X195445714Y-102878000D01*
X195398095Y-102830380D01*
X195398095Y-102925619D01*
X195826666Y-102925619D02*
X195874285Y-102878000D01*
X195969523Y-102830380D01*
X196207619Y-102830380D01*
X196302857Y-102878000D01*
X196350476Y-102925619D01*
X196398095Y-103020857D01*
X196398095Y-103116095D01*
X196350476Y-103258952D01*
X195779047Y-103830380D01*
X196398095Y-103830380D01*
X197255238Y-103782761D02*
X197160000Y-103830380D01*
X196969523Y-103830380D01*
X196874285Y-103782761D01*
X196826666Y-103735142D01*
X196779047Y-103639904D01*
X196779047Y-103354190D01*
X196826666Y-103258952D01*
X196874285Y-103211333D01*
X196969523Y-103163714D01*
X197160000Y-103163714D01*
X197255238Y-103211333D01*
X198445714Y-103163714D02*
X198445714Y-104163714D01*
X198445714Y-103211333D02*
X198540952Y-103163714D01*
X198731428Y-103163714D01*
X198826666Y-103211333D01*
X198874285Y-103258952D01*
X198921904Y-103354190D01*
X198921904Y-103639904D01*
X198874285Y-103735142D01*
X198826666Y-103782761D01*
X198731428Y-103830380D01*
X198540952Y-103830380D01*
X198445714Y-103782761D01*
X199779047Y-103163714D02*
X199779047Y-103830380D01*
X199350476Y-103163714D02*
X199350476Y-103687523D01*
X199398095Y-103782761D01*
X199493333Y-103830380D01*
X199636190Y-103830380D01*
X199731428Y-103782761D01*
X199779047Y-103735142D01*
X200398095Y-103830380D02*
X200302857Y-103782761D01*
X200255238Y-103687523D01*
X200255238Y-102830380D01*
X200921904Y-103830380D02*
X200826666Y-103782761D01*
X200779047Y-103687523D01*
X200779047Y-102830380D01*
X201731428Y-103163714D02*
X201731428Y-103830380D01*
X201302857Y-103163714D02*
X201302857Y-103687523D01*
X201350476Y-103782761D01*
X201445714Y-103830380D01*
X201588571Y-103830380D01*
X201683809Y-103782761D01*
X201731428Y-103735142D01*
X202207619Y-103163714D02*
X202207619Y-104163714D01*
X202207619Y-103211333D02*
X202302857Y-103163714D01*
X202493333Y-103163714D01*
X202588571Y-103211333D01*
X202636190Y-103258952D01*
X202683809Y-103354190D01*
X202683809Y-103639904D01*
X202636190Y-103735142D01*
X202588571Y-103782761D01*
X202493333Y-103830380D01*
X202302857Y-103830380D01*
X202207619Y-103782761D01*
X203874285Y-103830380D02*
X203874285Y-103163714D01*
X203874285Y-103354190D02*
X203921904Y-103258952D01*
X203969523Y-103211333D01*
X204064761Y-103163714D01*
X204160000Y-103163714D01*
X204874285Y-103782761D02*
X204779047Y-103830380D01*
X204588571Y-103830380D01*
X204493333Y-103782761D01*
X204445714Y-103687523D01*
X204445714Y-103306571D01*
X204493333Y-103211333D01*
X204588571Y-103163714D01*
X204779047Y-103163714D01*
X204874285Y-103211333D01*
X204921904Y-103306571D01*
X204921904Y-103401809D01*
X204445714Y-103497047D01*
X205302857Y-103782761D02*
X205398095Y-103830380D01*
X205588571Y-103830380D01*
X205683809Y-103782761D01*
X205731428Y-103687523D01*
X205731428Y-103639904D01*
X205683809Y-103544666D01*
X205588571Y-103497047D01*
X205445714Y-103497047D01*
X205350476Y-103449428D01*
X205302857Y-103354190D01*
X205302857Y-103306571D01*
X205350476Y-103211333D01*
X205445714Y-103163714D01*
X205588571Y-103163714D01*
X205683809Y-103211333D01*
X206160000Y-103830380D02*
X206160000Y-103163714D01*
X206160000Y-102830380D02*
X206112380Y-102878000D01*
X206160000Y-102925619D01*
X206207619Y-102878000D01*
X206160000Y-102830380D01*
X206160000Y-102925619D01*
X206588571Y-103782761D02*
X206683809Y-103830380D01*
X206874285Y-103830380D01*
X206969523Y-103782761D01*
X207017142Y-103687523D01*
X207017142Y-103639904D01*
X206969523Y-103544666D01*
X206874285Y-103497047D01*
X206731428Y-103497047D01*
X206636190Y-103449428D01*
X206588571Y-103354190D01*
X206588571Y-103306571D01*
X206636190Y-103211333D01*
X206731428Y-103163714D01*
X206874285Y-103163714D01*
X206969523Y-103211333D01*
X207302857Y-103163714D02*
X207683809Y-103163714D01*
X207445714Y-102830380D02*
X207445714Y-103687523D01*
X207493333Y-103782761D01*
X207588571Y-103830380D01*
X207683809Y-103830380D01*
X208160000Y-103830380D02*
X208064761Y-103782761D01*
X208017142Y-103735142D01*
X207969523Y-103639904D01*
X207969523Y-103354190D01*
X208017142Y-103258952D01*
X208064761Y-103211333D01*
X208160000Y-103163714D01*
X208302857Y-103163714D01*
X208398095Y-103211333D01*
X208445714Y-103258952D01*
X208493333Y-103354190D01*
X208493333Y-103639904D01*
X208445714Y-103735142D01*
X208398095Y-103782761D01*
X208302857Y-103830380D01*
X208160000Y-103830380D01*
X208921904Y-103830380D02*
X208921904Y-103163714D01*
X208921904Y-103354190D02*
X208969523Y-103258952D01*
X209017142Y-103211333D01*
X209112380Y-103163714D01*
X209207619Y-103163714D01*
X209493333Y-103782761D02*
X209588571Y-103830380D01*
X209779047Y-103830380D01*
X209874285Y-103782761D01*
X209921904Y-103687523D01*
X209921904Y-103639904D01*
X209874285Y-103544666D01*
X209779047Y-103497047D01*
X209636190Y-103497047D01*
X209540952Y-103449428D01*
X209493333Y-103354190D01*
X209493333Y-103306571D01*
X209540952Y-103211333D01*
X209636190Y-103163714D01*
X209779047Y-103163714D01*
X209874285Y-103211333D01*
X157297428Y-138866571D02*
X157440285Y-138914190D01*
X157487904Y-138961809D01*
X157535523Y-139057047D01*
X157535523Y-139199904D01*
X157487904Y-139295142D01*
X157440285Y-139342761D01*
X157345047Y-139390380D01*
X156964095Y-139390380D01*
X156964095Y-138390380D01*
X157297428Y-138390380D01*
X157392666Y-138438000D01*
X157440285Y-138485619D01*
X157487904Y-138580857D01*
X157487904Y-138676095D01*
X157440285Y-138771333D01*
X157392666Y-138818952D01*
X157297428Y-138866571D01*
X156964095Y-138866571D01*
X194246476Y-93511714D02*
X194246476Y-94178380D01*
X194008380Y-93130761D02*
X193770285Y-93845047D01*
X194389333Y-93845047D01*
X166655714Y-105862380D02*
X166084285Y-105862380D01*
X166370000Y-105862380D02*
X166370000Y-104862380D01*
X166274761Y-105005238D01*
X166179523Y-105100476D01*
X166084285Y-105148095D01*
X158996285Y-137267761D02*
X159091523Y-137315380D01*
X159282000Y-137315380D01*
X159377238Y-137267761D01*
X159424857Y-137172523D01*
X159424857Y-137124904D01*
X159377238Y-137029666D01*
X159282000Y-136982047D01*
X159139142Y-136982047D01*
X159043904Y-136934428D01*
X158996285Y-136839190D01*
X158996285Y-136791571D01*
X159043904Y-136696333D01*
X159139142Y-136648714D01*
X159282000Y-136648714D01*
X159377238Y-136696333D01*
X160282000Y-137267761D02*
X160186761Y-137315380D01*
X159996285Y-137315380D01*
X159901047Y-137267761D01*
X159853428Y-137220142D01*
X159805809Y-137124904D01*
X159805809Y-136839190D01*
X159853428Y-136743952D01*
X159901047Y-136696333D01*
X159996285Y-136648714D01*
X160186761Y-136648714D01*
X160282000Y-136696333D01*
X161139142Y-137315380D02*
X161139142Y-136791571D01*
X161091523Y-136696333D01*
X160996285Y-136648714D01*
X160805809Y-136648714D01*
X160710571Y-136696333D01*
X161139142Y-137267761D02*
X161043904Y-137315380D01*
X160805809Y-137315380D01*
X160710571Y-137267761D01*
X160662952Y-137172523D01*
X160662952Y-137077285D01*
X160710571Y-136982047D01*
X160805809Y-136934428D01*
X161043904Y-136934428D01*
X161139142Y-136886809D01*
X161758190Y-137315380D02*
X161662952Y-137267761D01*
X161615333Y-137172523D01*
X161615333Y-136315380D01*
X162520095Y-137267761D02*
X162424857Y-137315380D01*
X162234380Y-137315380D01*
X162139142Y-137267761D01*
X162091523Y-137172523D01*
X162091523Y-136791571D01*
X162139142Y-136696333D01*
X162234380Y-136648714D01*
X162424857Y-136648714D01*
X162520095Y-136696333D01*
X162567714Y-136791571D01*
X162567714Y-136886809D01*
X162091523Y-136982047D01*
X161067714Y-138925380D02*
X160496285Y-138925380D01*
X160782000Y-138925380D02*
X160782000Y-137925380D01*
X160686761Y-138068238D01*
X160591523Y-138163476D01*
X160496285Y-138211095D01*
X217296380Y-115791809D02*
X217296380Y-116268000D01*
X216296380Y-116268000D01*
X217296380Y-115458476D02*
X216296380Y-115458476D01*
X216296380Y-115220380D01*
X216344000Y-115077523D01*
X216439238Y-114982285D01*
X216534476Y-114934666D01*
X216724952Y-114887047D01*
X216867809Y-114887047D01*
X217058285Y-114934666D01*
X217153523Y-114982285D01*
X217248761Y-115077523D01*
X217296380Y-115220380D01*
X217296380Y-115458476D01*
X217296380Y-113934666D02*
X217296380Y-114506095D01*
X217296380Y-114220380D02*
X216296380Y-114220380D01*
X216439238Y-114315619D01*
X216534476Y-114410857D01*
X216582095Y-114506095D01*
X217296380Y-112982285D02*
X217296380Y-113553714D01*
X217296380Y-113268000D02*
X216296380Y-113268000D01*
X216439238Y-113363238D01*
X216534476Y-113458476D01*
X216582095Y-113553714D01*
X217296380Y-112029904D02*
X217296380Y-112601333D01*
X217296380Y-112315619D02*
X216296380Y-112315619D01*
X216439238Y-112410857D01*
X216534476Y-112506095D01*
X216582095Y-112601333D01*
X216296380Y-111696571D02*
X216296380Y-111029904D01*
X217296380Y-111458476D01*
X217248761Y-110696571D02*
X217296380Y-110553714D01*
X217296380Y-110315619D01*
X217248761Y-110220380D01*
X217201142Y-110172761D01*
X217105904Y-110125142D01*
X217010666Y-110125142D01*
X216915428Y-110172761D01*
X216867809Y-110220380D01*
X216820190Y-110315619D01*
X216772571Y-110506095D01*
X216724952Y-110601333D01*
X216677333Y-110648952D01*
X216582095Y-110696571D01*
X216486857Y-110696571D01*
X216391619Y-110648952D01*
X216344000Y-110601333D01*
X216296380Y-110506095D01*
X216296380Y-110268000D01*
X216344000Y-110125142D01*
X216296380Y-109791809D02*
X216296380Y-109172761D01*
X216677333Y-109506095D01*
X216677333Y-109363238D01*
X216724952Y-109268000D01*
X216772571Y-109220380D01*
X216867809Y-109172761D01*
X217105904Y-109172761D01*
X217201142Y-109220380D01*
X217248761Y-109268000D01*
X217296380Y-109363238D01*
X217296380Y-109648952D01*
X217248761Y-109744190D01*
X217201142Y-109791809D01*
X216296380Y-108839428D02*
X216296380Y-108220380D01*
X216677333Y-108553714D01*
X216677333Y-108410857D01*
X216724952Y-108315619D01*
X216772571Y-108268000D01*
X216867809Y-108220380D01*
X217105904Y-108220380D01*
X217201142Y-108268000D01*
X217248761Y-108315619D01*
X217296380Y-108410857D01*
X217296380Y-108696571D01*
X217248761Y-108791809D01*
X217201142Y-108839428D01*
X231926000Y-119181619D02*
X231973619Y-119134000D01*
X232068857Y-119086380D01*
X232306952Y-119086380D01*
X232402190Y-119134000D01*
X232449809Y-119181619D01*
X232497428Y-119276857D01*
X232497428Y-119372095D01*
X232449809Y-119514952D01*
X231878380Y-120086380D01*
X232497428Y-120086380D01*
X232926000Y-119991142D02*
X232973619Y-120038761D01*
X232926000Y-120086380D01*
X232878380Y-120038761D01*
X232926000Y-119991142D01*
X232926000Y-120086380D01*
X233354571Y-119181619D02*
X233402190Y-119134000D01*
X233497428Y-119086380D01*
X233735523Y-119086380D01*
X233830761Y-119134000D01*
X233878380Y-119181619D01*
X233926000Y-119276857D01*
X233926000Y-119372095D01*
X233878380Y-119514952D01*
X233306952Y-120086380D01*
X233926000Y-120086380D01*
X234354571Y-120086380D02*
X234354571Y-119086380D01*
X234926000Y-120086380D02*
X234497428Y-119514952D01*
X234926000Y-119086380D02*
X234354571Y-119657809D01*
X233450000Y-128485619D02*
X233497619Y-128438000D01*
X233592857Y-128390380D01*
X233830952Y-128390380D01*
X233926190Y-128438000D01*
X233973809Y-128485619D01*
X234021428Y-128580857D01*
X234021428Y-128676095D01*
X233973809Y-128818952D01*
X233402380Y-129390380D01*
X234021428Y-129390380D01*
X234450000Y-129295142D02*
X234497619Y-129342761D01*
X234450000Y-129390380D01*
X234402380Y-129342761D01*
X234450000Y-129295142D01*
X234450000Y-129390380D01*
X234878571Y-128485619D02*
X234926190Y-128438000D01*
X235021428Y-128390380D01*
X235259523Y-128390380D01*
X235354761Y-128438000D01*
X235402380Y-128485619D01*
X235450000Y-128580857D01*
X235450000Y-128676095D01*
X235402380Y-128818952D01*
X234830952Y-129390380D01*
X235450000Y-129390380D01*
X235878571Y-129390380D02*
X235878571Y-128390380D01*
X236450000Y-129390380D02*
X236021428Y-128818952D01*
X236450000Y-128390380D02*
X235878571Y-128961809D01*
X233450000Y-131787619D02*
X233497619Y-131740000D01*
X233592857Y-131692380D01*
X233830952Y-131692380D01*
X233926190Y-131740000D01*
X233973809Y-131787619D01*
X234021428Y-131882857D01*
X234021428Y-131978095D01*
X233973809Y-132120952D01*
X233402380Y-132692380D01*
X234021428Y-132692380D01*
X234450000Y-132597142D02*
X234497619Y-132644761D01*
X234450000Y-132692380D01*
X234402380Y-132644761D01*
X234450000Y-132597142D01*
X234450000Y-132692380D01*
X234878571Y-131787619D02*
X234926190Y-131740000D01*
X235021428Y-131692380D01*
X235259523Y-131692380D01*
X235354761Y-131740000D01*
X235402380Y-131787619D01*
X235450000Y-131882857D01*
X235450000Y-131978095D01*
X235402380Y-132120952D01*
X234830952Y-132692380D01*
X235450000Y-132692380D01*
X235878571Y-132692380D02*
X235878571Y-131692380D01*
X236450000Y-132692380D02*
X236021428Y-132120952D01*
X236450000Y-131692380D02*
X235878571Y-132263809D01*
X237077428Y-121974380D02*
X237696476Y-121974380D01*
X237363142Y-122355333D01*
X237506000Y-122355333D01*
X237601238Y-122402952D01*
X237648857Y-122450571D01*
X237696476Y-122545809D01*
X237696476Y-122783904D01*
X237648857Y-122879142D01*
X237601238Y-122926761D01*
X237506000Y-122974380D01*
X237220285Y-122974380D01*
X237125047Y-122926761D01*
X237077428Y-122879142D01*
X238125047Y-122879142D02*
X238172666Y-122926761D01*
X238125047Y-122974380D01*
X238077428Y-122926761D01*
X238125047Y-122879142D01*
X238125047Y-122974380D01*
X238506000Y-121974380D02*
X239125047Y-121974380D01*
X238791714Y-122355333D01*
X238934571Y-122355333D01*
X239029809Y-122402952D01*
X239077428Y-122450571D01*
X239125047Y-122545809D01*
X239125047Y-122783904D01*
X239077428Y-122879142D01*
X239029809Y-122926761D01*
X238934571Y-122974380D01*
X238648857Y-122974380D01*
X238553619Y-122926761D01*
X238506000Y-122879142D01*
X239458380Y-122307714D02*
X239696476Y-122974380D01*
X239934571Y-122307714D01*
X238363142Y-125530380D02*
X237886952Y-125530380D01*
X237839333Y-126006571D01*
X237886952Y-125958952D01*
X237982190Y-125911333D01*
X238220285Y-125911333D01*
X238315523Y-125958952D01*
X238363142Y-126006571D01*
X238410761Y-126101809D01*
X238410761Y-126339904D01*
X238363142Y-126435142D01*
X238315523Y-126482761D01*
X238220285Y-126530380D01*
X237982190Y-126530380D01*
X237886952Y-126482761D01*
X237839333Y-126435142D01*
X238744095Y-125863714D02*
X238982190Y-126530380D01*
X239220285Y-125863714D01*
X237363142Y-128927619D02*
X237410761Y-128880000D01*
X237506000Y-128832380D01*
X237744095Y-128832380D01*
X237839333Y-128880000D01*
X237886952Y-128927619D01*
X237934571Y-129022857D01*
X237934571Y-129118095D01*
X237886952Y-129260952D01*
X237315523Y-129832380D01*
X237934571Y-129832380D01*
X238791714Y-129165714D02*
X238791714Y-129832380D01*
X238553619Y-128784761D02*
X238315523Y-129499047D01*
X238934571Y-129499047D01*
X239220285Y-129165714D02*
X239458380Y-129832380D01*
X239696476Y-129165714D01*
X209748571Y-106044380D02*
X209177142Y-106044380D01*
X209462857Y-106044380D02*
X209462857Y-105044380D01*
X209367619Y-105187238D01*
X209272380Y-105282476D01*
X209177142Y-105330095D01*
X210367619Y-105044380D02*
X210462857Y-105044380D01*
X210558095Y-105092000D01*
X210605714Y-105139619D01*
X210653333Y-105234857D01*
X210700952Y-105425333D01*
X210700952Y-105663428D01*
X210653333Y-105853904D01*
X210605714Y-105949142D01*
X210558095Y-105996761D01*
X210462857Y-106044380D01*
X210367619Y-106044380D01*
X210272380Y-105996761D01*
X210224761Y-105949142D01*
X210177142Y-105853904D01*
X210129523Y-105663428D01*
X210129523Y-105425333D01*
X210177142Y-105234857D01*
X210224761Y-105139619D01*
X210272380Y-105092000D01*
X210367619Y-105044380D01*
X211558095Y-105377714D02*
X211558095Y-106044380D01*
X211129523Y-105377714D02*
X211129523Y-105901523D01*
X211177142Y-105996761D01*
X211272380Y-106044380D01*
X211415238Y-106044380D01*
X211510476Y-105996761D01*
X211558095Y-105949142D01*
X212367619Y-105520571D02*
X212034285Y-105520571D01*
X212034285Y-106044380D02*
X212034285Y-105044380D01*
X212510476Y-105044380D01*
X215772380Y-120959428D02*
X215772380Y-121530857D01*
X215772380Y-121245142D02*
X214772380Y-121245142D01*
X214915238Y-121340380D01*
X215010476Y-121435619D01*
X215058095Y-121530857D01*
X214772380Y-120340380D02*
X214772380Y-120245142D01*
X214820000Y-120149904D01*
X214867619Y-120102285D01*
X214962857Y-120054666D01*
X215153333Y-120007047D01*
X215391428Y-120007047D01*
X215581904Y-120054666D01*
X215677142Y-120102285D01*
X215724761Y-120149904D01*
X215772380Y-120245142D01*
X215772380Y-120340380D01*
X215724761Y-120435619D01*
X215677142Y-120483238D01*
X215581904Y-120530857D01*
X215391428Y-120578476D01*
X215153333Y-120578476D01*
X214962857Y-120530857D01*
X214867619Y-120483238D01*
X214820000Y-120435619D01*
X214772380Y-120340380D01*
X215105714Y-119149904D02*
X215772380Y-119149904D01*
X215105714Y-119578476D02*
X215629523Y-119578476D01*
X215724761Y-119530857D01*
X215772380Y-119435619D01*
X215772380Y-119292761D01*
X215724761Y-119197523D01*
X215677142Y-119149904D01*
X215248571Y-118340380D02*
X215248571Y-118673714D01*
X215772380Y-118673714D02*
X214772380Y-118673714D01*
X214772380Y-118197523D01*
X214321714Y-130854714D02*
X214988380Y-130854714D01*
X213940761Y-131092809D02*
X214655047Y-131330904D01*
X214655047Y-130711857D01*
X213988380Y-130426142D02*
X213988380Y-129759476D01*
X214988380Y-130188047D01*
X211781714Y-130854714D02*
X212448380Y-130854714D01*
X211400761Y-131092809D02*
X212115047Y-131330904D01*
X212115047Y-130711857D01*
X211448380Y-130426142D02*
X211448380Y-129759476D01*
X212448380Y-130188047D01*
X145645333Y-126133619D02*
X145692952Y-126086000D01*
X145788190Y-126038380D01*
X146026285Y-126038380D01*
X146121523Y-126086000D01*
X146169142Y-126133619D01*
X146216761Y-126228857D01*
X146216761Y-126324095D01*
X146169142Y-126466952D01*
X145597714Y-127038380D01*
X146216761Y-127038380D01*
X146835809Y-126038380D02*
X146931047Y-126038380D01*
X147026285Y-126086000D01*
X147073904Y-126133619D01*
X147121523Y-126228857D01*
X147169142Y-126419333D01*
X147169142Y-126657428D01*
X147121523Y-126847904D01*
X147073904Y-126943142D01*
X147026285Y-126990761D01*
X146931047Y-127038380D01*
X146835809Y-127038380D01*
X146740571Y-126990761D01*
X146692952Y-126943142D01*
X146645333Y-126847904D01*
X146597714Y-126657428D01*
X146597714Y-126419333D01*
X146645333Y-126228857D01*
X146692952Y-126133619D01*
X146740571Y-126086000D01*
X146835809Y-126038380D01*
X147597714Y-127038380D02*
X147597714Y-126038380D01*
X147692952Y-126657428D02*
X147978666Y-127038380D01*
X147978666Y-126371714D02*
X147597714Y-126752666D01*
X200097714Y-130854714D02*
X200764380Y-130854714D01*
X199716761Y-131092809D02*
X200431047Y-131330904D01*
X200431047Y-130711857D01*
X199764380Y-130426142D02*
X199764380Y-129759476D01*
X200764380Y-130188047D01*
X197557714Y-130854714D02*
X198224380Y-130854714D01*
X197176761Y-131092809D02*
X197891047Y-131330904D01*
X197891047Y-130711857D01*
X197224380Y-130426142D02*
X197224380Y-129759476D01*
X198224380Y-130188047D01*
X189650761Y-99926380D02*
X189079333Y-99926380D01*
X189365047Y-99926380D02*
X189365047Y-98926380D01*
X189269809Y-99069238D01*
X189174571Y-99164476D01*
X189079333Y-99212095D01*
X190507904Y-99259714D02*
X190507904Y-99926380D01*
X190079333Y-99259714D02*
X190079333Y-99783523D01*
X190126952Y-99878761D01*
X190222190Y-99926380D01*
X190365047Y-99926380D01*
X190460285Y-99878761D01*
X190507904Y-99831142D01*
X191317428Y-99402571D02*
X190984095Y-99402571D01*
X190984095Y-99926380D02*
X190984095Y-98926380D01*
X191460285Y-98926380D01*
X169838761Y-99926380D02*
X169267333Y-99926380D01*
X169553047Y-99926380D02*
X169553047Y-98926380D01*
X169457809Y-99069238D01*
X169362571Y-99164476D01*
X169267333Y-99212095D01*
X170695904Y-99259714D02*
X170695904Y-99926380D01*
X170267333Y-99259714D02*
X170267333Y-99783523D01*
X170314952Y-99878761D01*
X170410190Y-99926380D01*
X170553047Y-99926380D01*
X170648285Y-99878761D01*
X170695904Y-99831142D01*
X171505428Y-99402571D02*
X171172095Y-99402571D01*
X171172095Y-99926380D02*
X171172095Y-98926380D01*
X171648285Y-98926380D01*
X197052952Y-140145761D02*
X196957714Y-140193380D01*
X196767238Y-140193380D01*
X196672000Y-140145761D01*
X196624380Y-140098142D01*
X196576761Y-140002904D01*
X196576761Y-139717190D01*
X196624380Y-139621952D01*
X196672000Y-139574333D01*
X196767238Y-139526714D01*
X196957714Y-139526714D01*
X197052952Y-139574333D01*
X197481523Y-140193380D02*
X197481523Y-139193380D01*
X197910095Y-140193380D02*
X197910095Y-139669571D01*
X197862476Y-139574333D01*
X197767238Y-139526714D01*
X197624380Y-139526714D01*
X197529142Y-139574333D01*
X197481523Y-139621952D01*
X198814857Y-140193380D02*
X198814857Y-139669571D01*
X198767238Y-139574333D01*
X198672000Y-139526714D01*
X198481523Y-139526714D01*
X198386285Y-139574333D01*
X198814857Y-140145761D02*
X198719619Y-140193380D01*
X198481523Y-140193380D01*
X198386285Y-140145761D01*
X198338666Y-140050523D01*
X198338666Y-139955285D01*
X198386285Y-139860047D01*
X198481523Y-139812428D01*
X198719619Y-139812428D01*
X198814857Y-139764809D01*
X199291047Y-139526714D02*
X199291047Y-140193380D01*
X199291047Y-139621952D02*
X199338666Y-139574333D01*
X199433904Y-139526714D01*
X199576761Y-139526714D01*
X199672000Y-139574333D01*
X199719619Y-139669571D01*
X199719619Y-140193380D01*
X200195809Y-139526714D02*
X200195809Y-140193380D01*
X200195809Y-139621952D02*
X200243428Y-139574333D01*
X200338666Y-139526714D01*
X200481523Y-139526714D01*
X200576761Y-139574333D01*
X200624380Y-139669571D01*
X200624380Y-140193380D01*
X201481523Y-140145761D02*
X201386285Y-140193380D01*
X201195809Y-140193380D01*
X201100571Y-140145761D01*
X201052952Y-140050523D01*
X201052952Y-139669571D01*
X201100571Y-139574333D01*
X201195809Y-139526714D01*
X201386285Y-139526714D01*
X201481523Y-139574333D01*
X201529142Y-139669571D01*
X201529142Y-139764809D01*
X201052952Y-139860047D01*
X202100571Y-140193380D02*
X202005333Y-140145761D01*
X201957714Y-140050523D01*
X201957714Y-139193380D01*
X203767238Y-140193380D02*
X203195809Y-140193380D01*
X203481523Y-140193380D02*
X203481523Y-139193380D01*
X203386285Y-139336238D01*
X203291047Y-139431476D01*
X203195809Y-139479095D01*
X208145333Y-124019380D02*
X208764380Y-124019380D01*
X208431047Y-124400333D01*
X208573904Y-124400333D01*
X208669142Y-124447952D01*
X208716761Y-124495571D01*
X208764380Y-124590809D01*
X208764380Y-124828904D01*
X208716761Y-124924142D01*
X208669142Y-124971761D01*
X208573904Y-125019380D01*
X208288190Y-125019380D01*
X208192952Y-124971761D01*
X208145333Y-124924142D01*
X209097714Y-124019380D02*
X209716761Y-124019380D01*
X209383428Y-124400333D01*
X209526285Y-124400333D01*
X209621523Y-124447952D01*
X209669142Y-124495571D01*
X209716761Y-124590809D01*
X209716761Y-124828904D01*
X209669142Y-124924142D01*
X209621523Y-124971761D01*
X209526285Y-125019380D01*
X209240571Y-125019380D01*
X209145333Y-124971761D01*
X209097714Y-124924142D01*
X210335809Y-124019380D02*
X210431047Y-124019380D01*
X210526285Y-124067000D01*
X210573904Y-124114619D01*
X210621523Y-124209857D01*
X210669142Y-124400333D01*
X210669142Y-124638428D01*
X210621523Y-124828904D01*
X210573904Y-124924142D01*
X210526285Y-124971761D01*
X210431047Y-125019380D01*
X210335809Y-125019380D01*
X210240571Y-124971761D01*
X210192952Y-124924142D01*
X210145333Y-124828904D01*
X210097714Y-124638428D01*
X210097714Y-124400333D01*
X210145333Y-124209857D01*
X210192952Y-124114619D01*
X210240571Y-124067000D01*
X210335809Y-124019380D01*
X211097714Y-124352714D02*
X211097714Y-125352714D01*
X211097714Y-124400333D02*
X211192952Y-124352714D01*
X211383428Y-124352714D01*
X211478666Y-124400333D01*
X211526285Y-124447952D01*
X211573904Y-124543190D01*
X211573904Y-124828904D01*
X211526285Y-124924142D01*
X211478666Y-124971761D01*
X211383428Y-125019380D01*
X211192952Y-125019380D01*
X211097714Y-124971761D01*
X212335809Y-124495571D02*
X212002476Y-124495571D01*
X212002476Y-125019380D02*
X212002476Y-124019380D01*
X212478666Y-124019380D01*
X183841714Y-130841714D02*
X184508380Y-130841714D01*
X183460761Y-131079809D02*
X184175047Y-131317904D01*
X184175047Y-130698857D01*
X183508380Y-130413142D02*
X183508380Y-129746476D01*
X184508380Y-130175047D01*
X169394380Y-128722380D02*
X168822952Y-128722380D01*
X169108666Y-128722380D02*
X169108666Y-127722380D01*
X169013428Y-127865238D01*
X168918190Y-127960476D01*
X168822952Y-128008095D01*
X170013428Y-127722380D02*
X170108666Y-127722380D01*
X170203904Y-127770000D01*
X170251523Y-127817619D01*
X170299142Y-127912857D01*
X170346761Y-128103333D01*
X170346761Y-128341428D01*
X170299142Y-128531904D01*
X170251523Y-128627142D01*
X170203904Y-128674761D01*
X170108666Y-128722380D01*
X170013428Y-128722380D01*
X169918190Y-128674761D01*
X169870571Y-128627142D01*
X169822952Y-128531904D01*
X169775333Y-128341428D01*
X169775333Y-128103333D01*
X169822952Y-127912857D01*
X169870571Y-127817619D01*
X169918190Y-127770000D01*
X170013428Y-127722380D01*
X170965809Y-127722380D02*
X171061047Y-127722380D01*
X171156285Y-127770000D01*
X171203904Y-127817619D01*
X171251523Y-127912857D01*
X171299142Y-128103333D01*
X171299142Y-128341428D01*
X171251523Y-128531904D01*
X171203904Y-128627142D01*
X171156285Y-128674761D01*
X171061047Y-128722380D01*
X170965809Y-128722380D01*
X170870571Y-128674761D01*
X170822952Y-128627142D01*
X170775333Y-128531904D01*
X170727714Y-128341428D01*
X170727714Y-128103333D01*
X170775333Y-127912857D01*
X170822952Y-127817619D01*
X170870571Y-127770000D01*
X170965809Y-127722380D01*
X171727714Y-128055714D02*
X171727714Y-128722380D01*
X171727714Y-128150952D02*
X171775333Y-128103333D01*
X171870571Y-128055714D01*
X172013428Y-128055714D01*
X172108666Y-128103333D01*
X172156285Y-128198571D01*
X172156285Y-128722380D01*
X172965809Y-128198571D02*
X172632476Y-128198571D01*
X172632476Y-128722380D02*
X172632476Y-127722380D01*
X173108666Y-127722380D01*
X148182380Y-124785047D02*
X147182380Y-124785047D01*
X147896666Y-124451714D01*
X147182380Y-124118380D01*
X148182380Y-124118380D01*
X147896666Y-123689809D02*
X147896666Y-123213619D01*
X148182380Y-123785047D02*
X147182380Y-123451714D01*
X148182380Y-123118380D01*
X147182380Y-122880285D02*
X148182380Y-122213619D01*
X147182380Y-122213619D02*
X148182380Y-122880285D01*
X147515714Y-121404095D02*
X148182380Y-121404095D01*
X147134761Y-121642190D02*
X147849047Y-121880285D01*
X147849047Y-121261238D01*
X147610952Y-120737428D02*
X147563333Y-120832666D01*
X147515714Y-120880285D01*
X147420476Y-120927904D01*
X147372857Y-120927904D01*
X147277619Y-120880285D01*
X147230000Y-120832666D01*
X147182380Y-120737428D01*
X147182380Y-120546952D01*
X147230000Y-120451714D01*
X147277619Y-120404095D01*
X147372857Y-120356476D01*
X147420476Y-120356476D01*
X147515714Y-120404095D01*
X147563333Y-120451714D01*
X147610952Y-120546952D01*
X147610952Y-120737428D01*
X147658571Y-120832666D01*
X147706190Y-120880285D01*
X147801428Y-120927904D01*
X147991904Y-120927904D01*
X148087142Y-120880285D01*
X148134761Y-120832666D01*
X148182380Y-120737428D01*
X148182380Y-120546952D01*
X148134761Y-120451714D01*
X148087142Y-120404095D01*
X147991904Y-120356476D01*
X147801428Y-120356476D01*
X147706190Y-120404095D01*
X147658571Y-120451714D01*
X147610952Y-120546952D01*
X147182380Y-120023142D02*
X147182380Y-119356476D01*
X148182380Y-119785047D01*
X147658571Y-118975523D02*
X147658571Y-118642190D01*
X148182380Y-118499333D02*
X148182380Y-118975523D01*
X147182380Y-118975523D01*
X147182380Y-118499333D01*
X229274761Y-99926380D02*
X228703333Y-99926380D01*
X228989047Y-99926380D02*
X228989047Y-98926380D01*
X228893809Y-99069238D01*
X228798571Y-99164476D01*
X228703333Y-99212095D01*
X230131904Y-99259714D02*
X230131904Y-99926380D01*
X229703333Y-99259714D02*
X229703333Y-99783523D01*
X229750952Y-99878761D01*
X229846190Y-99926380D01*
X229989047Y-99926380D01*
X230084285Y-99878761D01*
X230131904Y-99831142D01*
X230941428Y-99402571D02*
X230608095Y-99402571D01*
X230608095Y-99926380D02*
X230608095Y-98926380D01*
X231084285Y-98926380D01*
X211256952Y-140128761D02*
X211161714Y-140176380D01*
X210971238Y-140176380D01*
X210876000Y-140128761D01*
X210828380Y-140081142D01*
X210780761Y-139985904D01*
X210780761Y-139700190D01*
X210828380Y-139604952D01*
X210876000Y-139557333D01*
X210971238Y-139509714D01*
X211161714Y-139509714D01*
X211256952Y-139557333D01*
X211685523Y-140176380D02*
X211685523Y-139176380D01*
X212114095Y-140176380D02*
X212114095Y-139652571D01*
X212066476Y-139557333D01*
X211971238Y-139509714D01*
X211828380Y-139509714D01*
X211733142Y-139557333D01*
X211685523Y-139604952D01*
X213018857Y-140176380D02*
X213018857Y-139652571D01*
X212971238Y-139557333D01*
X212876000Y-139509714D01*
X212685523Y-139509714D01*
X212590285Y-139557333D01*
X213018857Y-140128761D02*
X212923619Y-140176380D01*
X212685523Y-140176380D01*
X212590285Y-140128761D01*
X212542666Y-140033523D01*
X212542666Y-139938285D01*
X212590285Y-139843047D01*
X212685523Y-139795428D01*
X212923619Y-139795428D01*
X213018857Y-139747809D01*
X213495047Y-139509714D02*
X213495047Y-140176380D01*
X213495047Y-139604952D02*
X213542666Y-139557333D01*
X213637904Y-139509714D01*
X213780761Y-139509714D01*
X213876000Y-139557333D01*
X213923619Y-139652571D01*
X213923619Y-140176380D01*
X214399809Y-139509714D02*
X214399809Y-140176380D01*
X214399809Y-139604952D02*
X214447428Y-139557333D01*
X214542666Y-139509714D01*
X214685523Y-139509714D01*
X214780761Y-139557333D01*
X214828380Y-139652571D01*
X214828380Y-140176380D01*
X215685523Y-140128761D02*
X215590285Y-140176380D01*
X215399809Y-140176380D01*
X215304571Y-140128761D01*
X215256952Y-140033523D01*
X215256952Y-139652571D01*
X215304571Y-139557333D01*
X215399809Y-139509714D01*
X215590285Y-139509714D01*
X215685523Y-139557333D01*
X215733142Y-139652571D01*
X215733142Y-139747809D01*
X215256952Y-139843047D01*
X216304571Y-140176380D02*
X216209333Y-140128761D01*
X216161714Y-140033523D01*
X216161714Y-139176380D01*
X217399809Y-139271619D02*
X217447428Y-139224000D01*
X217542666Y-139176380D01*
X217780761Y-139176380D01*
X217876000Y-139224000D01*
X217923619Y-139271619D01*
X217971238Y-139366857D01*
X217971238Y-139462095D01*
X217923619Y-139604952D01*
X217352190Y-140176380D01*
X217971238Y-140176380D01*
X149709333Y-127038380D02*
X149137904Y-127038380D01*
X149423619Y-127038380D02*
X149423619Y-126038380D01*
X149328380Y-126181238D01*
X149233142Y-126276476D01*
X149137904Y-126324095D01*
X150090285Y-126133619D02*
X150137904Y-126086000D01*
X150233142Y-126038380D01*
X150471238Y-126038380D01*
X150566476Y-126086000D01*
X150614095Y-126133619D01*
X150661714Y-126228857D01*
X150661714Y-126324095D01*
X150614095Y-126466952D01*
X150042666Y-127038380D01*
X150661714Y-127038380D01*
X151280761Y-126038380D02*
X151376000Y-126038380D01*
X151471238Y-126086000D01*
X151518857Y-126133619D01*
X151566476Y-126228857D01*
X151614095Y-126419333D01*
X151614095Y-126657428D01*
X151566476Y-126847904D01*
X151518857Y-126943142D01*
X151471238Y-126990761D01*
X151376000Y-127038380D01*
X151280761Y-127038380D01*
X151185523Y-126990761D01*
X151137904Y-126943142D01*
X151090285Y-126847904D01*
X151042666Y-126657428D01*
X151042666Y-126419333D01*
X151090285Y-126228857D01*
X151137904Y-126133619D01*
X151185523Y-126086000D01*
X151280761Y-126038380D01*
X152614095Y-127038380D02*
X152280761Y-126562190D01*
X152042666Y-127038380D02*
X152042666Y-126038380D01*
X152423619Y-126038380D01*
X152518857Y-126086000D01*
X152566476Y-126133619D01*
X152614095Y-126228857D01*
X152614095Y-126371714D01*
X152566476Y-126466952D01*
X152518857Y-126514571D01*
X152423619Y-126562190D01*
X152042666Y-126562190D01*
X155138380Y-120991238D02*
X155138380Y-121562666D01*
X155138380Y-121276952D02*
X154138380Y-121276952D01*
X154281238Y-121372190D01*
X154376476Y-121467428D01*
X154424095Y-121562666D01*
X154471714Y-120134095D02*
X155138380Y-120134095D01*
X154471714Y-120562666D02*
X154995523Y-120562666D01*
X155090761Y-120515047D01*
X155138380Y-120419809D01*
X155138380Y-120276952D01*
X155090761Y-120181714D01*
X155043142Y-120134095D01*
X154614571Y-119324571D02*
X154614571Y-119657904D01*
X155138380Y-119657904D02*
X154138380Y-119657904D01*
X154138380Y-119181714D01*
X144820190Y-105354380D02*
X144820190Y-104687714D01*
X144820190Y-104354380D02*
X144772571Y-104402000D01*
X144820190Y-104449619D01*
X144867809Y-104402000D01*
X144820190Y-104354380D01*
X144820190Y-104449619D01*
X145248761Y-104449619D02*
X145296380Y-104402000D01*
X145391619Y-104354380D01*
X145629714Y-104354380D01*
X145724952Y-104402000D01*
X145772571Y-104449619D01*
X145820190Y-104544857D01*
X145820190Y-104640095D01*
X145772571Y-104782952D01*
X145201142Y-105354380D01*
X145820190Y-105354380D01*
X146677333Y-105306761D02*
X146582095Y-105354380D01*
X146391619Y-105354380D01*
X146296380Y-105306761D01*
X146248761Y-105259142D01*
X146201142Y-105163904D01*
X146201142Y-104878190D01*
X146248761Y-104782952D01*
X146296380Y-104735333D01*
X146391619Y-104687714D01*
X146582095Y-104687714D01*
X146677333Y-104735333D01*
X147867809Y-104687714D02*
X147867809Y-105687714D01*
X147867809Y-104735333D02*
X147963047Y-104687714D01*
X148153523Y-104687714D01*
X148248761Y-104735333D01*
X148296380Y-104782952D01*
X148344000Y-104878190D01*
X148344000Y-105163904D01*
X148296380Y-105259142D01*
X148248761Y-105306761D01*
X148153523Y-105354380D01*
X147963047Y-105354380D01*
X147867809Y-105306761D01*
X149201142Y-104687714D02*
X149201142Y-105354380D01*
X148772571Y-104687714D02*
X148772571Y-105211523D01*
X148820190Y-105306761D01*
X148915428Y-105354380D01*
X149058285Y-105354380D01*
X149153523Y-105306761D01*
X149201142Y-105259142D01*
X149820190Y-105354380D02*
X149724952Y-105306761D01*
X149677333Y-105211523D01*
X149677333Y-104354380D01*
X150344000Y-105354380D02*
X150248761Y-105306761D01*
X150201142Y-105211523D01*
X150201142Y-104354380D01*
X151153523Y-104687714D02*
X151153523Y-105354380D01*
X150724952Y-104687714D02*
X150724952Y-105211523D01*
X150772571Y-105306761D01*
X150867809Y-105354380D01*
X151010666Y-105354380D01*
X151105904Y-105306761D01*
X151153523Y-105259142D01*
X151629714Y-104687714D02*
X151629714Y-105687714D01*
X151629714Y-104735333D02*
X151724952Y-104687714D01*
X151915428Y-104687714D01*
X152010666Y-104735333D01*
X152058285Y-104782952D01*
X152105904Y-104878190D01*
X152105904Y-105163904D01*
X152058285Y-105259142D01*
X152010666Y-105306761D01*
X151915428Y-105354380D01*
X151724952Y-105354380D01*
X151629714Y-105306761D01*
X152486857Y-105306761D02*
X152582095Y-105354380D01*
X152772571Y-105354380D01*
X152867809Y-105306761D01*
X152915428Y-105211523D01*
X152915428Y-105163904D01*
X152867809Y-105068666D01*
X152772571Y-105021047D01*
X152629714Y-105021047D01*
X152534476Y-104973428D01*
X152486857Y-104878190D01*
X152486857Y-104830571D01*
X152534476Y-104735333D01*
X152629714Y-104687714D01*
X152772571Y-104687714D01*
X152867809Y-104735333D01*
X159678761Y-99926380D02*
X159107333Y-99926380D01*
X159393047Y-99926380D02*
X159393047Y-98926380D01*
X159297809Y-99069238D01*
X159202571Y-99164476D01*
X159107333Y-99212095D01*
X160535904Y-99259714D02*
X160535904Y-99926380D01*
X160107333Y-99259714D02*
X160107333Y-99783523D01*
X160154952Y-99878761D01*
X160250190Y-99926380D01*
X160393047Y-99926380D01*
X160488285Y-99878761D01*
X160535904Y-99831142D01*
X161345428Y-99402571D02*
X161012095Y-99402571D01*
X161012095Y-99926380D02*
X161012095Y-98926380D01*
X161488285Y-98926380D01*
X166854761Y-121634380D02*
X166854761Y-120634380D01*
X167235714Y-120634380D01*
X167330952Y-120682000D01*
X167378571Y-120729619D01*
X167426190Y-120824857D01*
X167426190Y-120967714D01*
X167378571Y-121062952D01*
X167330952Y-121110571D01*
X167235714Y-121158190D01*
X166854761Y-121158190D01*
X168426190Y-121539142D02*
X168378571Y-121586761D01*
X168235714Y-121634380D01*
X168140476Y-121634380D01*
X167997619Y-121586761D01*
X167902380Y-121491523D01*
X167854761Y-121396285D01*
X167807142Y-121205809D01*
X167807142Y-121062952D01*
X167854761Y-120872476D01*
X167902380Y-120777238D01*
X167997619Y-120682000D01*
X168140476Y-120634380D01*
X168235714Y-120634380D01*
X168378571Y-120682000D01*
X168426190Y-120729619D01*
X168807142Y-121348666D02*
X169283333Y-121348666D01*
X168711904Y-121634380D02*
X169045238Y-120634380D01*
X169378571Y-121634380D01*
X169759523Y-121634380D02*
X169950000Y-121634380D01*
X170045238Y-121586761D01*
X170092857Y-121539142D01*
X170188095Y-121396285D01*
X170235714Y-121205809D01*
X170235714Y-120824857D01*
X170188095Y-120729619D01*
X170140476Y-120682000D01*
X170045238Y-120634380D01*
X169854761Y-120634380D01*
X169759523Y-120682000D01*
X169711904Y-120729619D01*
X169664285Y-120824857D01*
X169664285Y-121062952D01*
X169711904Y-121158190D01*
X169759523Y-121205809D01*
X169854761Y-121253428D01*
X170045238Y-121253428D01*
X170140476Y-121205809D01*
X170188095Y-121158190D01*
X170235714Y-121062952D01*
X171140476Y-120634380D02*
X170664285Y-120634380D01*
X170616666Y-121110571D01*
X170664285Y-121062952D01*
X170759523Y-121015333D01*
X170997619Y-121015333D01*
X171092857Y-121062952D01*
X171140476Y-121110571D01*
X171188095Y-121205809D01*
X171188095Y-121443904D01*
X171140476Y-121539142D01*
X171092857Y-121586761D01*
X170997619Y-121634380D01*
X170759523Y-121634380D01*
X170664285Y-121586761D01*
X170616666Y-121539142D01*
X172045238Y-120967714D02*
X172045238Y-121634380D01*
X171807142Y-120586761D02*
X171569047Y-121301047D01*
X172188095Y-121301047D01*
X172711904Y-121062952D02*
X172616666Y-121015333D01*
X172569047Y-120967714D01*
X172521428Y-120872476D01*
X172521428Y-120824857D01*
X172569047Y-120729619D01*
X172616666Y-120682000D01*
X172711904Y-120634380D01*
X172902380Y-120634380D01*
X172997619Y-120682000D01*
X173045238Y-120729619D01*
X173092857Y-120824857D01*
X173092857Y-120872476D01*
X173045238Y-120967714D01*
X172997619Y-121015333D01*
X172902380Y-121062952D01*
X172711904Y-121062952D01*
X172616666Y-121110571D01*
X172569047Y-121158190D01*
X172521428Y-121253428D01*
X172521428Y-121443904D01*
X172569047Y-121539142D01*
X172616666Y-121586761D01*
X172711904Y-121634380D01*
X172902380Y-121634380D01*
X172997619Y-121586761D01*
X173045238Y-121539142D01*
X173092857Y-121443904D01*
X173092857Y-121253428D01*
X173045238Y-121158190D01*
X172997619Y-121110571D01*
X172902380Y-121062952D01*
X173473809Y-121348666D02*
X173950000Y-121348666D01*
X173378571Y-121634380D02*
X173711904Y-120634380D01*
X174045238Y-121634380D01*
X174378571Y-121634380D02*
X174378571Y-120634380D01*
X174616666Y-120634380D01*
X174759523Y-120682000D01*
X174854761Y-120777238D01*
X174902380Y-120872476D01*
X174950000Y-121062952D01*
X174950000Y-121205809D01*
X174902380Y-121396285D01*
X174854761Y-121491523D01*
X174759523Y-121586761D01*
X174616666Y-121634380D01*
X174378571Y-121634380D01*
X175283333Y-120634380D02*
X175521428Y-121634380D01*
X175711904Y-120920095D01*
X175902380Y-121634380D01*
X176140476Y-120634380D01*
X180776952Y-140115761D02*
X180681714Y-140163380D01*
X180491238Y-140163380D01*
X180396000Y-140115761D01*
X180348380Y-140068142D01*
X180300761Y-139972904D01*
X180300761Y-139687190D01*
X180348380Y-139591952D01*
X180396000Y-139544333D01*
X180491238Y-139496714D01*
X180681714Y-139496714D01*
X180776952Y-139544333D01*
X181205523Y-140163380D02*
X181205523Y-139163380D01*
X181634095Y-140163380D02*
X181634095Y-139639571D01*
X181586476Y-139544333D01*
X181491238Y-139496714D01*
X181348380Y-139496714D01*
X181253142Y-139544333D01*
X181205523Y-139591952D01*
X182538857Y-140163380D02*
X182538857Y-139639571D01*
X182491238Y-139544333D01*
X182396000Y-139496714D01*
X182205523Y-139496714D01*
X182110285Y-139544333D01*
X182538857Y-140115761D02*
X182443619Y-140163380D01*
X182205523Y-140163380D01*
X182110285Y-140115761D01*
X182062666Y-140020523D01*
X182062666Y-139925285D01*
X182110285Y-139830047D01*
X182205523Y-139782428D01*
X182443619Y-139782428D01*
X182538857Y-139734809D01*
X183015047Y-139496714D02*
X183015047Y-140163380D01*
X183015047Y-139591952D02*
X183062666Y-139544333D01*
X183157904Y-139496714D01*
X183300761Y-139496714D01*
X183396000Y-139544333D01*
X183443619Y-139639571D01*
X183443619Y-140163380D01*
X183919809Y-139496714D02*
X183919809Y-140163380D01*
X183919809Y-139591952D02*
X183967428Y-139544333D01*
X184062666Y-139496714D01*
X184205523Y-139496714D01*
X184300761Y-139544333D01*
X184348380Y-139639571D01*
X184348380Y-140163380D01*
X185205523Y-140115761D02*
X185110285Y-140163380D01*
X184919809Y-140163380D01*
X184824571Y-140115761D01*
X184776952Y-140020523D01*
X184776952Y-139639571D01*
X184824571Y-139544333D01*
X184919809Y-139496714D01*
X185110285Y-139496714D01*
X185205523Y-139544333D01*
X185253142Y-139639571D01*
X185253142Y-139734809D01*
X184776952Y-139830047D01*
X185824571Y-140163380D02*
X185729333Y-140115761D01*
X185681714Y-140020523D01*
X185681714Y-139163380D01*
X186919809Y-139258619D02*
X186967428Y-139211000D01*
X187062666Y-139163380D01*
X187300761Y-139163380D01*
X187396000Y-139211000D01*
X187443619Y-139258619D01*
X187491238Y-139353857D01*
X187491238Y-139449095D01*
X187443619Y-139591952D01*
X186872190Y-140163380D01*
X187491238Y-140163380D01*
X169617714Y-130841714D02*
X170284380Y-130841714D01*
X169236761Y-131079809D02*
X169951047Y-131317904D01*
X169951047Y-130698857D01*
X169284380Y-130413142D02*
X169284380Y-129746476D01*
X170284380Y-130175047D01*
X181301714Y-130841714D02*
X181968380Y-130841714D01*
X180920761Y-131079809D02*
X181635047Y-131317904D01*
X181635047Y-130698857D01*
X180968380Y-130413142D02*
X180968380Y-129746476D01*
X181968380Y-130175047D01*
X174728380Y-109926380D02*
X174156952Y-109926380D01*
X174442666Y-109926380D02*
X174442666Y-108926380D01*
X174347428Y-109069238D01*
X174252190Y-109164476D01*
X174156952Y-109212095D01*
X175347428Y-108926380D02*
X175442666Y-108926380D01*
X175537904Y-108974000D01*
X175585523Y-109021619D01*
X175633142Y-109116857D01*
X175680761Y-109307333D01*
X175680761Y-109545428D01*
X175633142Y-109735904D01*
X175585523Y-109831142D01*
X175537904Y-109878761D01*
X175442666Y-109926380D01*
X175347428Y-109926380D01*
X175252190Y-109878761D01*
X175204571Y-109831142D01*
X175156952Y-109735904D01*
X175109333Y-109545428D01*
X175109333Y-109307333D01*
X175156952Y-109116857D01*
X175204571Y-109021619D01*
X175252190Y-108974000D01*
X175347428Y-108926380D01*
X176299809Y-108926380D02*
X176395047Y-108926380D01*
X176490285Y-108974000D01*
X176537904Y-109021619D01*
X176585523Y-109116857D01*
X176633142Y-109307333D01*
X176633142Y-109545428D01*
X176585523Y-109735904D01*
X176537904Y-109831142D01*
X176490285Y-109878761D01*
X176395047Y-109926380D01*
X176299809Y-109926380D01*
X176204571Y-109878761D01*
X176156952Y-109831142D01*
X176109333Y-109735904D01*
X176061714Y-109545428D01*
X176061714Y-109307333D01*
X176109333Y-109116857D01*
X176156952Y-109021619D01*
X176204571Y-108974000D01*
X176299809Y-108926380D01*
X177061714Y-109259714D02*
X177061714Y-109926380D01*
X177061714Y-109354952D02*
X177109333Y-109307333D01*
X177204571Y-109259714D01*
X177347428Y-109259714D01*
X177442666Y-109307333D01*
X177490285Y-109402571D01*
X177490285Y-109926380D01*
X178299809Y-109402571D02*
X177966476Y-109402571D01*
X177966476Y-109926380D02*
X177966476Y-108926380D01*
X178442666Y-108926380D01*
X153773333Y-126133619D02*
X153820952Y-126086000D01*
X153916190Y-126038380D01*
X154154285Y-126038380D01*
X154249523Y-126086000D01*
X154297142Y-126133619D01*
X154344761Y-126228857D01*
X154344761Y-126324095D01*
X154297142Y-126466952D01*
X153725714Y-127038380D01*
X154344761Y-127038380D01*
X154963809Y-126038380D02*
X155059047Y-126038380D01*
X155154285Y-126086000D01*
X155201904Y-126133619D01*
X155249523Y-126228857D01*
X155297142Y-126419333D01*
X155297142Y-126657428D01*
X155249523Y-126847904D01*
X155201904Y-126943142D01*
X155154285Y-126990761D01*
X155059047Y-127038380D01*
X154963809Y-127038380D01*
X154868571Y-126990761D01*
X154820952Y-126943142D01*
X154773333Y-126847904D01*
X154725714Y-126657428D01*
X154725714Y-126419333D01*
X154773333Y-126228857D01*
X154820952Y-126133619D01*
X154868571Y-126086000D01*
X154963809Y-126038380D01*
X155725714Y-127038380D02*
X155725714Y-126038380D01*
X155820952Y-126657428D02*
X156106666Y-127038380D01*
X156106666Y-126371714D02*
X155725714Y-126752666D01*
X214098380Y-128735380D02*
X213526952Y-128735380D01*
X213812666Y-128735380D02*
X213812666Y-127735380D01*
X213717428Y-127878238D01*
X213622190Y-127973476D01*
X213526952Y-128021095D01*
X214717428Y-127735380D02*
X214812666Y-127735380D01*
X214907904Y-127783000D01*
X214955523Y-127830619D01*
X215003142Y-127925857D01*
X215050761Y-128116333D01*
X215050761Y-128354428D01*
X215003142Y-128544904D01*
X214955523Y-128640142D01*
X214907904Y-128687761D01*
X214812666Y-128735380D01*
X214717428Y-128735380D01*
X214622190Y-128687761D01*
X214574571Y-128640142D01*
X214526952Y-128544904D01*
X214479333Y-128354428D01*
X214479333Y-128116333D01*
X214526952Y-127925857D01*
X214574571Y-127830619D01*
X214622190Y-127783000D01*
X214717428Y-127735380D01*
X215669809Y-127735380D02*
X215765047Y-127735380D01*
X215860285Y-127783000D01*
X215907904Y-127830619D01*
X215955523Y-127925857D01*
X216003142Y-128116333D01*
X216003142Y-128354428D01*
X215955523Y-128544904D01*
X215907904Y-128640142D01*
X215860285Y-128687761D01*
X215765047Y-128735380D01*
X215669809Y-128735380D01*
X215574571Y-128687761D01*
X215526952Y-128640142D01*
X215479333Y-128544904D01*
X215431714Y-128354428D01*
X215431714Y-128116333D01*
X215479333Y-127925857D01*
X215526952Y-127830619D01*
X215574571Y-127783000D01*
X215669809Y-127735380D01*
X216431714Y-128068714D02*
X216431714Y-128735380D01*
X216431714Y-128163952D02*
X216479333Y-128116333D01*
X216574571Y-128068714D01*
X216717428Y-128068714D01*
X216812666Y-128116333D01*
X216860285Y-128211571D01*
X216860285Y-128735380D01*
X217669809Y-128211571D02*
X217336476Y-128211571D01*
X217336476Y-128735380D02*
X217336476Y-127735380D01*
X217812666Y-127735380D01*
X156662380Y-120927619D02*
X156662380Y-121499047D01*
X156662380Y-121213333D02*
X155662380Y-121213333D01*
X155805238Y-121308571D01*
X155900476Y-121403809D01*
X155948095Y-121499047D01*
X155662380Y-120308571D02*
X155662380Y-120213333D01*
X155710000Y-120118095D01*
X155757619Y-120070476D01*
X155852857Y-120022857D01*
X156043333Y-119975238D01*
X156281428Y-119975238D01*
X156471904Y-120022857D01*
X156567142Y-120070476D01*
X156614761Y-120118095D01*
X156662380Y-120213333D01*
X156662380Y-120308571D01*
X156614761Y-120403809D01*
X156567142Y-120451428D01*
X156471904Y-120499047D01*
X156281428Y-120546666D01*
X156043333Y-120546666D01*
X155852857Y-120499047D01*
X155757619Y-120451428D01*
X155710000Y-120403809D01*
X155662380Y-120308571D01*
X155662380Y-119356190D02*
X155662380Y-119260952D01*
X155710000Y-119165714D01*
X155757619Y-119118095D01*
X155852857Y-119070476D01*
X156043333Y-119022857D01*
X156281428Y-119022857D01*
X156471904Y-119070476D01*
X156567142Y-119118095D01*
X156614761Y-119165714D01*
X156662380Y-119260952D01*
X156662380Y-119356190D01*
X156614761Y-119451428D01*
X156567142Y-119499047D01*
X156471904Y-119546666D01*
X156281428Y-119594285D01*
X156043333Y-119594285D01*
X155852857Y-119546666D01*
X155757619Y-119499047D01*
X155710000Y-119451428D01*
X155662380Y-119356190D01*
X155995714Y-118594285D02*
X156662380Y-118594285D01*
X156090952Y-118594285D02*
X156043333Y-118546666D01*
X155995714Y-118451428D01*
X155995714Y-118308571D01*
X156043333Y-118213333D01*
X156138571Y-118165714D01*
X156662380Y-118165714D01*
X156138571Y-117356190D02*
X156138571Y-117689523D01*
X156662380Y-117689523D02*
X155662380Y-117689523D01*
X155662380Y-117213333D01*
X166572952Y-140132761D02*
X166477714Y-140180380D01*
X166287238Y-140180380D01*
X166192000Y-140132761D01*
X166144380Y-140085142D01*
X166096761Y-139989904D01*
X166096761Y-139704190D01*
X166144380Y-139608952D01*
X166192000Y-139561333D01*
X166287238Y-139513714D01*
X166477714Y-139513714D01*
X166572952Y-139561333D01*
X167001523Y-140180380D02*
X167001523Y-139180380D01*
X167430095Y-140180380D02*
X167430095Y-139656571D01*
X167382476Y-139561333D01*
X167287238Y-139513714D01*
X167144380Y-139513714D01*
X167049142Y-139561333D01*
X167001523Y-139608952D01*
X168334857Y-140180380D02*
X168334857Y-139656571D01*
X168287238Y-139561333D01*
X168192000Y-139513714D01*
X168001523Y-139513714D01*
X167906285Y-139561333D01*
X168334857Y-140132761D02*
X168239619Y-140180380D01*
X168001523Y-140180380D01*
X167906285Y-140132761D01*
X167858666Y-140037523D01*
X167858666Y-139942285D01*
X167906285Y-139847047D01*
X168001523Y-139799428D01*
X168239619Y-139799428D01*
X168334857Y-139751809D01*
X168811047Y-139513714D02*
X168811047Y-140180380D01*
X168811047Y-139608952D02*
X168858666Y-139561333D01*
X168953904Y-139513714D01*
X169096761Y-139513714D01*
X169192000Y-139561333D01*
X169239619Y-139656571D01*
X169239619Y-140180380D01*
X169715809Y-139513714D02*
X169715809Y-140180380D01*
X169715809Y-139608952D02*
X169763428Y-139561333D01*
X169858666Y-139513714D01*
X170001523Y-139513714D01*
X170096761Y-139561333D01*
X170144380Y-139656571D01*
X170144380Y-140180380D01*
X171001523Y-140132761D02*
X170906285Y-140180380D01*
X170715809Y-140180380D01*
X170620571Y-140132761D01*
X170572952Y-140037523D01*
X170572952Y-139656571D01*
X170620571Y-139561333D01*
X170715809Y-139513714D01*
X170906285Y-139513714D01*
X171001523Y-139561333D01*
X171049142Y-139656571D01*
X171049142Y-139751809D01*
X170572952Y-139847047D01*
X171620571Y-140180380D02*
X171525333Y-140132761D01*
X171477714Y-140037523D01*
X171477714Y-139180380D01*
X173287238Y-140180380D02*
X172715809Y-140180380D01*
X173001523Y-140180380D02*
X173001523Y-139180380D01*
X172906285Y-139323238D01*
X172811047Y-139418476D01*
X172715809Y-139466095D01*
X199556761Y-99926380D02*
X198985333Y-99926380D01*
X199271047Y-99926380D02*
X199271047Y-98926380D01*
X199175809Y-99069238D01*
X199080571Y-99164476D01*
X198985333Y-99212095D01*
X200413904Y-99259714D02*
X200413904Y-99926380D01*
X199985333Y-99259714D02*
X199985333Y-99783523D01*
X200032952Y-99878761D01*
X200128190Y-99926380D01*
X200271047Y-99926380D01*
X200366285Y-99878761D01*
X200413904Y-99831142D01*
X201223428Y-99402571D02*
X200890095Y-99402571D01*
X200890095Y-99926380D02*
X200890095Y-98926380D01*
X201366285Y-98926380D01*
X167077714Y-130841714D02*
X167744380Y-130841714D01*
X166696761Y-131079809D02*
X167411047Y-131317904D01*
X167411047Y-130698857D01*
X166744380Y-130413142D02*
X166744380Y-129746476D01*
X167744380Y-130175047D01*
X179490761Y-99926380D02*
X178919333Y-99926380D01*
X179205047Y-99926380D02*
X179205047Y-98926380D01*
X179109809Y-99069238D01*
X179014571Y-99164476D01*
X178919333Y-99212095D01*
X180347904Y-99259714D02*
X180347904Y-99926380D01*
X179919333Y-99259714D02*
X179919333Y-99783523D01*
X179966952Y-99878761D01*
X180062190Y-99926380D01*
X180205047Y-99926380D01*
X180300285Y-99878761D01*
X180347904Y-99831142D01*
X181157428Y-99402571D02*
X180824095Y-99402571D01*
X180824095Y-99926380D02*
X180824095Y-98926380D01*
X181300285Y-98926380D01*
X183618380Y-128722380D02*
X183046952Y-128722380D01*
X183332666Y-128722380D02*
X183332666Y-127722380D01*
X183237428Y-127865238D01*
X183142190Y-127960476D01*
X183046952Y-128008095D01*
X184237428Y-127722380D02*
X184332666Y-127722380D01*
X184427904Y-127770000D01*
X184475523Y-127817619D01*
X184523142Y-127912857D01*
X184570761Y-128103333D01*
X184570761Y-128341428D01*
X184523142Y-128531904D01*
X184475523Y-128627142D01*
X184427904Y-128674761D01*
X184332666Y-128722380D01*
X184237428Y-128722380D01*
X184142190Y-128674761D01*
X184094571Y-128627142D01*
X184046952Y-128531904D01*
X183999333Y-128341428D01*
X183999333Y-128103333D01*
X184046952Y-127912857D01*
X184094571Y-127817619D01*
X184142190Y-127770000D01*
X184237428Y-127722380D01*
X185189809Y-127722380D02*
X185285047Y-127722380D01*
X185380285Y-127770000D01*
X185427904Y-127817619D01*
X185475523Y-127912857D01*
X185523142Y-128103333D01*
X185523142Y-128341428D01*
X185475523Y-128531904D01*
X185427904Y-128627142D01*
X185380285Y-128674761D01*
X185285047Y-128722380D01*
X185189809Y-128722380D01*
X185094571Y-128674761D01*
X185046952Y-128627142D01*
X184999333Y-128531904D01*
X184951714Y-128341428D01*
X184951714Y-128103333D01*
X184999333Y-127912857D01*
X185046952Y-127817619D01*
X185094571Y-127770000D01*
X185189809Y-127722380D01*
X185951714Y-128055714D02*
X185951714Y-128722380D01*
X185951714Y-128150952D02*
X185999333Y-128103333D01*
X186094571Y-128055714D01*
X186237428Y-128055714D01*
X186332666Y-128103333D01*
X186380285Y-128198571D01*
X186380285Y-128722380D01*
X187189809Y-128198571D02*
X186856476Y-128198571D01*
X186856476Y-128722380D02*
X186856476Y-127722380D01*
X187332666Y-127722380D01*
X209208761Y-99926380D02*
X208637333Y-99926380D01*
X208923047Y-99926380D02*
X208923047Y-98926380D01*
X208827809Y-99069238D01*
X208732571Y-99164476D01*
X208637333Y-99212095D01*
X210065904Y-99259714D02*
X210065904Y-99926380D01*
X209637333Y-99259714D02*
X209637333Y-99783523D01*
X209684952Y-99878761D01*
X209780190Y-99926380D01*
X209923047Y-99926380D01*
X210018285Y-99878761D01*
X210065904Y-99831142D01*
X210875428Y-99402571D02*
X210542095Y-99402571D01*
X210542095Y-99926380D02*
X210542095Y-98926380D01*
X211018285Y-98926380D01*
X219368761Y-99926380D02*
X218797333Y-99926380D01*
X219083047Y-99926380D02*
X219083047Y-98926380D01*
X218987809Y-99069238D01*
X218892571Y-99164476D01*
X218797333Y-99212095D01*
X220225904Y-99259714D02*
X220225904Y-99926380D01*
X219797333Y-99259714D02*
X219797333Y-99783523D01*
X219844952Y-99878761D01*
X219940190Y-99926380D01*
X220083047Y-99926380D01*
X220178285Y-99878761D01*
X220225904Y-99831142D01*
X221035428Y-99402571D02*
X220702095Y-99402571D01*
X220702095Y-99926380D02*
X220702095Y-98926380D01*
X221178285Y-98926380D01*
X177665333Y-124006380D02*
X178284380Y-124006380D01*
X177951047Y-124387333D01*
X178093904Y-124387333D01*
X178189142Y-124434952D01*
X178236761Y-124482571D01*
X178284380Y-124577809D01*
X178284380Y-124815904D01*
X178236761Y-124911142D01*
X178189142Y-124958761D01*
X178093904Y-125006380D01*
X177808190Y-125006380D01*
X177712952Y-124958761D01*
X177665333Y-124911142D01*
X178617714Y-124006380D02*
X179236761Y-124006380D01*
X178903428Y-124387333D01*
X179046285Y-124387333D01*
X179141523Y-124434952D01*
X179189142Y-124482571D01*
X179236761Y-124577809D01*
X179236761Y-124815904D01*
X179189142Y-124911142D01*
X179141523Y-124958761D01*
X179046285Y-125006380D01*
X178760571Y-125006380D01*
X178665333Y-124958761D01*
X178617714Y-124911142D01*
X179855809Y-124006380D02*
X179951047Y-124006380D01*
X180046285Y-124054000D01*
X180093904Y-124101619D01*
X180141523Y-124196857D01*
X180189142Y-124387333D01*
X180189142Y-124625428D01*
X180141523Y-124815904D01*
X180093904Y-124911142D01*
X180046285Y-124958761D01*
X179951047Y-125006380D01*
X179855809Y-125006380D01*
X179760571Y-124958761D01*
X179712952Y-124911142D01*
X179665333Y-124815904D01*
X179617714Y-124625428D01*
X179617714Y-124387333D01*
X179665333Y-124196857D01*
X179712952Y-124101619D01*
X179760571Y-124054000D01*
X179855809Y-124006380D01*
X180617714Y-124339714D02*
X180617714Y-125339714D01*
X180617714Y-124387333D02*
X180712952Y-124339714D01*
X180903428Y-124339714D01*
X180998666Y-124387333D01*
X181046285Y-124434952D01*
X181093904Y-124530190D01*
X181093904Y-124815904D01*
X181046285Y-124911142D01*
X180998666Y-124958761D01*
X180903428Y-125006380D01*
X180712952Y-125006380D01*
X180617714Y-124958761D01*
X181855809Y-124482571D02*
X181522476Y-124482571D01*
X181522476Y-125006380D02*
X181522476Y-124006380D01*
X181998666Y-124006380D01*
X199874380Y-128735380D02*
X199302952Y-128735380D01*
X199588666Y-128735380D02*
X199588666Y-127735380D01*
X199493428Y-127878238D01*
X199398190Y-127973476D01*
X199302952Y-128021095D01*
X200493428Y-127735380D02*
X200588666Y-127735380D01*
X200683904Y-127783000D01*
X200731523Y-127830619D01*
X200779142Y-127925857D01*
X200826761Y-128116333D01*
X200826761Y-128354428D01*
X200779142Y-128544904D01*
X200731523Y-128640142D01*
X200683904Y-128687761D01*
X200588666Y-128735380D01*
X200493428Y-128735380D01*
X200398190Y-128687761D01*
X200350571Y-128640142D01*
X200302952Y-128544904D01*
X200255333Y-128354428D01*
X200255333Y-128116333D01*
X200302952Y-127925857D01*
X200350571Y-127830619D01*
X200398190Y-127783000D01*
X200493428Y-127735380D01*
X201445809Y-127735380D02*
X201541047Y-127735380D01*
X201636285Y-127783000D01*
X201683904Y-127830619D01*
X201731523Y-127925857D01*
X201779142Y-128116333D01*
X201779142Y-128354428D01*
X201731523Y-128544904D01*
X201683904Y-128640142D01*
X201636285Y-128687761D01*
X201541047Y-128735380D01*
X201445809Y-128735380D01*
X201350571Y-128687761D01*
X201302952Y-128640142D01*
X201255333Y-128544904D01*
X201207714Y-128354428D01*
X201207714Y-128116333D01*
X201255333Y-127925857D01*
X201302952Y-127830619D01*
X201350571Y-127783000D01*
X201445809Y-127735380D01*
X202207714Y-128068714D02*
X202207714Y-128735380D01*
X202207714Y-128163952D02*
X202255333Y-128116333D01*
X202350571Y-128068714D01*
X202493428Y-128068714D01*
X202588666Y-128116333D01*
X202636285Y-128211571D01*
X202636285Y-128735380D01*
X203445809Y-128211571D02*
X203112476Y-128211571D01*
X203112476Y-128735380D02*
X203112476Y-127735380D01*
X203588666Y-127735380D01*
D11*
X215754000Y-111374000D02*
X214494000Y-111374000D01*
X208934000Y-111374000D02*
X210194000Y-111374000D01*
X215754000Y-115134000D02*
X215754000Y-111374000D01*
X208934000Y-117384000D02*
X208934000Y-111374000D01*
D10*
X220472000Y-113411000D02*
X226568000Y-113411000D01*
X229870000Y-116586000D02*
X229362000Y-116586000D01*
X224790000Y-116586000D02*
X224790000Y-116332000D01*
X229362000Y-118872000D02*
X229870000Y-118872000D01*
X225298000Y-120142000D02*
X224790000Y-120142000D01*
X225298000Y-120396000D02*
X224790000Y-120396000D01*
X220472000Y-116967000D02*
X219456000Y-118999000D01*
X225298000Y-120142000D02*
X225298000Y-119126000D01*
X229870000Y-120142000D02*
X229870000Y-120396000D01*
X224790000Y-105537000D02*
X226568000Y-105537000D01*
X231394000Y-111506000D02*
X229616000Y-113792000D01*
X227584000Y-106299000D02*
X227584000Y-105537000D01*
X225298000Y-120650000D02*
X225298000Y-120396000D01*
X226568000Y-107823000D02*
X220472000Y-107823000D01*
X225298000Y-116332000D02*
X224790000Y-116332000D01*
X225298000Y-118872000D02*
X224790000Y-118872000D01*
X229108000Y-120904000D02*
X225298000Y-120904000D01*
X234188000Y-108077000D02*
X235204000Y-108077000D01*
X224790000Y-120396000D02*
X224790000Y-120142000D01*
X229362000Y-125857000D02*
X229362000Y-122301000D01*
X229870000Y-117856000D02*
X229362000Y-117856000D01*
X229870000Y-118872000D02*
X229870000Y-119126000D01*
X235458000Y-125857000D02*
X218694000Y-125857000D01*
X229362000Y-116332000D02*
X229870000Y-116332000D01*
X224790000Y-107315000D02*
X218694000Y-107315000D01*
X220472000Y-108585000D02*
X220472000Y-113411000D01*
X229362000Y-117602000D02*
X229870000Y-117602000D01*
X225298000Y-119126000D02*
X224790000Y-119126000D01*
X226568000Y-106299000D02*
X226568000Y-104775000D01*
X229362000Y-120904000D02*
X229108000Y-120904000D01*
X219456000Y-108585000D02*
X219456000Y-107569000D01*
X229362000Y-107315000D02*
X229362000Y-103759000D01*
X224790000Y-117602000D02*
X225298000Y-117602000D01*
X225298000Y-116332000D02*
X225298000Y-115824000D01*
X229870000Y-120396000D02*
X229362000Y-120396000D01*
X224790000Y-122301000D02*
X224790000Y-125857000D01*
X225298000Y-117602000D02*
X225298000Y-116586000D01*
X219456000Y-118999000D02*
X221742000Y-118999000D01*
X218694000Y-103759000D02*
X235458000Y-103759000D01*
X229362000Y-122301000D02*
X235458000Y-122301000D01*
X225298000Y-116586000D02*
X224790000Y-116586000D01*
X225298000Y-117856000D02*
X224790000Y-117856000D01*
X229362000Y-117856000D02*
X229362000Y-118872000D01*
X229870000Y-116332000D02*
X229870000Y-116586000D01*
X225298000Y-120904000D02*
X225298000Y-120650000D01*
X229362000Y-115824000D02*
X229362000Y-116332000D01*
X227584000Y-105537000D02*
X229362000Y-105537000D01*
X219456000Y-116967000D02*
X221742000Y-116967000D01*
X229362000Y-120396000D02*
X229362000Y-120904000D01*
X229870000Y-119126000D02*
X229362000Y-119126000D01*
X227584000Y-104775000D02*
X227584000Y-106299000D01*
X235458000Y-103759000D02*
X235458000Y-125857000D01*
X229362000Y-116586000D02*
X229362000Y-117602000D01*
X226568000Y-113411000D02*
X226568000Y-107823000D01*
X231394000Y-120904000D02*
X231394000Y-111506000D01*
X225298000Y-118872000D02*
X225298000Y-117856000D01*
X229870000Y-117602000D02*
X229870000Y-117856000D01*
X226568000Y-105537000D02*
X226568000Y-106299000D01*
X229362000Y-119126000D02*
X229362000Y-120142000D01*
X218694000Y-125857000D02*
X218694000Y-103759000D01*
X221742000Y-118999000D02*
X220472000Y-116967000D01*
X235458000Y-107315000D02*
X229362000Y-107315000D01*
X231394000Y-111506000D02*
X233172000Y-113792000D01*
X224790000Y-117856000D02*
X224790000Y-117602000D01*
X224790000Y-119126000D02*
X224790000Y-118872000D01*
X229362000Y-120142000D02*
X229870000Y-120142000D01*
X225298000Y-115824000D02*
X229362000Y-115824000D01*
X224790000Y-103759000D02*
X224790000Y-107315000D01*
X218694000Y-122301000D02*
X224790000Y-122301000D01*
X220472000Y-107823000D02*
X220472000Y-108585000D01*
X234696000Y-108585000D02*
X234696000Y-107569000D01*
X220023961Y-108077000D02*
G75*
G03*
X220023961Y-108077000I-567961J0D01*
G01*
X235263961Y-108077000D02*
G75*
G03*
X235263961Y-108077000I-567961J0D01*
G01*
D11*
X233188742Y-120635500D02*
X233663258Y-120635500D01*
X233188742Y-121680500D02*
X233663258Y-121680500D01*
X234712742Y-126985500D02*
X235187258Y-126985500D01*
X234712742Y-128030500D02*
X235187258Y-128030500D01*
X234712742Y-130287500D02*
X235187258Y-130287500D01*
X234712742Y-131332500D02*
X235187258Y-131332500D01*
X225298000Y-137316000D02*
G75*
G03*
X225981318Y-137170756I0J1680000D01*
G01*
X226833001Y-136320000D02*
G75*
G03*
X226833427Y-134952958I-1535001J684000D01*
G01*
X225982000Y-134100999D02*
G75*
G03*
X224614958Y-134100573I-684000J-1535001D01*
G01*
X223762999Y-134952000D02*
G75*
G03*
X223762573Y-136319042I1535001J-684000D01*
G01*
X224614000Y-137171000D02*
G75*
G03*
X225326805Y-137316253I684000J1535000D01*
G01*
X231978000Y-135636000D02*
G75*
G03*
X231978000Y-135636000I-1680000J0D01*
G01*
X222738000Y-139736000D02*
X232858000Y-139736000D01*
X222738000Y-138236000D02*
X232858000Y-138236000D01*
X222738000Y-133335000D02*
X232858000Y-133335000D01*
X222738000Y-130375000D02*
X232858000Y-130375000D01*
X222738000Y-140296000D02*
X232858000Y-140296000D01*
X222738000Y-130375000D02*
X222738000Y-140296000D01*
X232858000Y-130375000D02*
X232858000Y-140296000D01*
X231573000Y-134567000D02*
X231526000Y-134613000D01*
X229264000Y-136875000D02*
X229229000Y-136910000D01*
X231368000Y-134361000D02*
X231333000Y-134397000D01*
X229071000Y-136659000D02*
X229024000Y-136705000D01*
X222498000Y-139796000D02*
X222498000Y-140536000D01*
X222498000Y-140536000D02*
X222998000Y-140536000D01*
X237706000Y-124687000D02*
X239991000Y-124687000D01*
X239991000Y-124687000D02*
X239991000Y-123217000D01*
X239991000Y-123217000D02*
X237706000Y-123217000D01*
X237706000Y-128243000D02*
X239991000Y-128243000D01*
X239991000Y-128243000D02*
X239991000Y-126773000D01*
X239991000Y-126773000D02*
X237706000Y-126773000D01*
X237706000Y-131545000D02*
X239991000Y-131545000D01*
X239991000Y-131545000D02*
X239991000Y-130075000D01*
X239991000Y-130075000D02*
X237706000Y-130075000D01*
X211531252Y-108352000D02*
X210108748Y-108352000D01*
X211531252Y-106532000D02*
X210108748Y-106532000D01*
X218080000Y-119176748D02*
X218080000Y-120599252D01*
X216260000Y-119176748D02*
X216260000Y-120599252D01*
X213628500Y-130806258D02*
X213628500Y-130331742D01*
X212583500Y-130806258D02*
X212583500Y-130331742D01*
X148860742Y-107202500D02*
X149335258Y-107202500D01*
X148860742Y-106157500D02*
X149335258Y-106157500D01*
X210043500Y-130806258D02*
X210043500Y-130331742D01*
X211088500Y-130806258D02*
X211088500Y-130331742D01*
X147049258Y-127493500D02*
X146574742Y-127493500D01*
X147049258Y-128538500D02*
X146574742Y-128538500D01*
X145096000Y-108728000D02*
X146496000Y-108728000D01*
X147196000Y-109428000D02*
X147196000Y-110028000D01*
X144396000Y-110028000D02*
X144396000Y-109428000D01*
X146496000Y-110728000D02*
X145096000Y-110728000D01*
X147196000Y-109428000D02*
G75*
G03*
X146496000Y-108728000I-699999J1D01*
G01*
X146496000Y-110728000D02*
G75*
G03*
X147196000Y-110028000I1J699999D01*
G01*
X145096000Y-108728000D02*
G75*
G03*
X144396000Y-109428000I-1J-699999D01*
G01*
X144396000Y-110028000D02*
G75*
G03*
X145096000Y-110728000I699999J-1D01*
G01*
X198359500Y-130806258D02*
X198359500Y-130331742D01*
X199404500Y-130806258D02*
X199404500Y-130331742D01*
X196864500Y-130806258D02*
X196864500Y-130331742D01*
X195819500Y-130806258D02*
X195819500Y-130331742D01*
X166117500Y-95765000D02*
X167167500Y-95765000D01*
X172337500Y-95765000D02*
X171287500Y-95765000D01*
X172337500Y-93265000D02*
X172337500Y-95765000D01*
X166117500Y-93265000D02*
X166117500Y-95765000D01*
X171167500Y-91295000D02*
X167287500Y-91295000D01*
X171287500Y-95765000D02*
X171287500Y-96755000D01*
X190105420Y-98554000D02*
X190386580Y-98554000D01*
X190105420Y-97534000D02*
X190386580Y-97534000D01*
X186198742Y-98566500D02*
X186673258Y-98566500D01*
X186198742Y-97521500D02*
X186673258Y-97521500D01*
X170293420Y-98554000D02*
X170574580Y-98554000D01*
X170293420Y-97534000D02*
X170574580Y-97534000D01*
X206482000Y-138651000D02*
X206482000Y-132681000D01*
X203172000Y-132691000D02*
X197172000Y-132691000D01*
X205722000Y-137891000D02*
X200172000Y-137891000D01*
X193862000Y-132681000D02*
X193862000Y-138651000D01*
X197172000Y-133441000D02*
X203172000Y-133441000D01*
X195672000Y-132691000D02*
X193872000Y-132691000D01*
X204672000Y-132691000D02*
X204672000Y-133441000D01*
X206472000Y-133441000D02*
X206472000Y-132691000D01*
X203172000Y-133441000D02*
X203172000Y-132691000D01*
X193872000Y-133441000D02*
X195672000Y-133441000D01*
X193872000Y-134941000D02*
X194622000Y-134941000D01*
X197172000Y-132691000D02*
X197172000Y-133441000D01*
X195672000Y-133441000D02*
X195672000Y-132691000D01*
X204672000Y-133441000D02*
X206472000Y-133441000D01*
X206472000Y-134941000D02*
X205722000Y-134941000D01*
X206472000Y-132691000D02*
X204672000Y-132691000D01*
X194622000Y-134941000D02*
X194622000Y-137891000D01*
X194622000Y-137891000D02*
X200172000Y-137891000D01*
X193862000Y-138651000D02*
X206482000Y-138651000D01*
X193872000Y-132691000D02*
X193872000Y-133441000D01*
X193572000Y-132391000D02*
X193572000Y-133641000D01*
X206482000Y-132681000D02*
X193862000Y-132681000D01*
X205722000Y-134941000D02*
X205722000Y-137891000D01*
X194822000Y-132391000D02*
X193572000Y-132391000D01*
X157242742Y-99045500D02*
X157717258Y-99045500D01*
X157242742Y-100090500D02*
X157717258Y-100090500D01*
X210452580Y-126507000D02*
X210171420Y-126507000D01*
X210452580Y-125487000D02*
X210171420Y-125487000D01*
X182103500Y-130793258D02*
X182103500Y-130318742D01*
X183148500Y-130793258D02*
X183148500Y-130318742D01*
X192213000Y-95765000D02*
X191163000Y-95765000D01*
X185993000Y-93265000D02*
X185993000Y-95765000D01*
X192213000Y-93265000D02*
X192213000Y-95765000D01*
X185993000Y-95765000D02*
X187043000Y-95765000D01*
X191043000Y-91295000D02*
X187163000Y-91295000D01*
X191163000Y-95765000D02*
X191163000Y-96755000D01*
X167272580Y-128780000D02*
X166991420Y-128780000D01*
X167272580Y-127760000D02*
X166991420Y-127760000D01*
X167148742Y-99045500D02*
X167623258Y-99045500D01*
X167148742Y-100090500D02*
X167623258Y-100090500D01*
X148570000Y-121666000D02*
X148570000Y-123616000D01*
X153690000Y-121666000D02*
X153690000Y-123616000D01*
X153690000Y-121666000D02*
X153690000Y-118216000D01*
X148570000Y-121666000D02*
X148570000Y-119716000D01*
X229729420Y-98554000D02*
X230010580Y-98554000D01*
X229729420Y-97534000D02*
X230010580Y-97534000D01*
X220686000Y-132664000D02*
X208066000Y-132664000D01*
X220676000Y-133424000D02*
X220676000Y-132674000D01*
X209876000Y-132674000D02*
X208076000Y-132674000D01*
X208076000Y-134924000D02*
X208826000Y-134924000D01*
X208076000Y-132674000D02*
X208076000Y-133424000D01*
X219926000Y-137874000D02*
X214376000Y-137874000D01*
X218876000Y-132674000D02*
X218876000Y-133424000D01*
X208066000Y-132664000D02*
X208066000Y-138634000D01*
X207776000Y-132374000D02*
X207776000Y-133624000D01*
X209026000Y-132374000D02*
X207776000Y-132374000D01*
X220686000Y-138634000D02*
X220686000Y-132664000D01*
X218876000Y-133424000D02*
X220676000Y-133424000D01*
X208826000Y-137874000D02*
X214376000Y-137874000D01*
X209876000Y-133424000D02*
X209876000Y-132674000D01*
X211376000Y-132674000D02*
X211376000Y-133424000D01*
X217376000Y-133424000D02*
X217376000Y-132674000D01*
X217376000Y-132674000D02*
X211376000Y-132674000D01*
X208066000Y-138634000D02*
X220686000Y-138634000D01*
X208826000Y-134924000D02*
X208826000Y-137874000D01*
X219926000Y-134924000D02*
X219926000Y-137874000D01*
X211376000Y-133424000D02*
X217376000Y-133424000D01*
X208076000Y-133424000D02*
X209876000Y-133424000D01*
X220676000Y-134924000D02*
X219926000Y-134924000D01*
X220676000Y-132674000D02*
X218876000Y-132674000D01*
X151113258Y-128538500D02*
X150638742Y-128538500D01*
X151113258Y-127493500D02*
X150638742Y-127493500D01*
X160214000Y-106680000D02*
X160214000Y-105350000D01*
X160214000Y-105350000D02*
X161544000Y-105350000D01*
X162874000Y-107950000D02*
X162874000Y-108010000D01*
X160214000Y-107950000D02*
X160214000Y-108010000D01*
X160214000Y-108010000D02*
X162874000Y-108010000D01*
X160214000Y-107950000D02*
X162874000Y-107950000D01*
X155196000Y-123330580D02*
X155196000Y-123049420D01*
X154176000Y-123330580D02*
X154176000Y-123049420D01*
X231964000Y-95765000D02*
X230914000Y-95765000D01*
X230914000Y-95765000D02*
X230914000Y-96755000D01*
X225744000Y-93265000D02*
X225744000Y-95765000D01*
X225744000Y-95765000D02*
X226794000Y-95765000D01*
X230794000Y-91295000D02*
X226914000Y-91295000D01*
X231964000Y-93265000D02*
X231964000Y-95765000D01*
X207026742Y-100090500D02*
X207501258Y-100090500D01*
X207026742Y-99045500D02*
X207501258Y-99045500D01*
X166386742Y-98566500D02*
X166861258Y-98566500D01*
X166386742Y-97521500D02*
X166861258Y-97521500D01*
X197374742Y-99045500D02*
X197849258Y-99045500D01*
X197374742Y-100090500D02*
X197849258Y-100090500D01*
X152135000Y-136623000D02*
X152088000Y-136669000D01*
X145802000Y-139700000D02*
X155922000Y-139700000D01*
X154637000Y-134531000D02*
X154590000Y-134577000D01*
X145802000Y-133299000D02*
X155922000Y-133299000D01*
X145802000Y-138200000D02*
X155922000Y-138200000D01*
X154432000Y-134325000D02*
X154397000Y-134361000D01*
X145802000Y-130339000D02*
X155922000Y-130339000D01*
X155922000Y-130339000D02*
X155922000Y-140260000D01*
X152328000Y-136839000D02*
X152293000Y-136874000D01*
X145562000Y-140500000D02*
X146062000Y-140500000D01*
X145562000Y-139760000D02*
X145562000Y-140500000D01*
X145802000Y-130339000D02*
X145802000Y-140260000D01*
X145802000Y-140260000D02*
X155922000Y-140260000D01*
X148362000Y-137280000D02*
G75*
G03*
X149045318Y-137134756I1J1679992D01*
G01*
X147678000Y-137135000D02*
G75*
G03*
X148390805Y-137280253I683999J1535001D01*
G01*
X146827000Y-134916000D02*
G75*
G03*
X146826573Y-136283042I1534993J-684001D01*
G01*
X149046000Y-134065000D02*
G75*
G03*
X147678958Y-134064573I-684001J-1534993D01*
G01*
X149897000Y-136284000D02*
G75*
G03*
X149897427Y-134916958I-1534993J684001D01*
G01*
X155042000Y-135600000D02*
G75*
G03*
X155042000Y-135600000I-1680000J0D01*
G01*
X196358742Y-97521500D02*
X196833258Y-97521500D01*
X196358742Y-98566500D02*
X196833258Y-98566500D01*
X150044000Y-101670000D02*
X149744000Y-101370000D01*
X147444000Y-101870000D02*
X150244000Y-101870000D01*
X150344000Y-101370000D02*
X149744000Y-101370000D01*
X146794000Y-103170000D02*
X146794000Y-102570000D01*
X150894000Y-102570000D02*
X150894000Y-103170000D01*
X150044000Y-101670000D02*
X150344000Y-101370000D01*
X150244000Y-103870000D02*
X147444000Y-103870000D01*
X147494000Y-101870000D02*
G75*
G03*
X146794000Y-102570000I-1J-699999D01*
G01*
X146794000Y-103170000D02*
G75*
G03*
X147494000Y-103870000I699999J-1D01*
G01*
X150194000Y-103870000D02*
G75*
G03*
X150894000Y-103170000I1J699999D01*
G01*
X150894000Y-102570000D02*
G75*
G03*
X150194000Y-101870000I-699999J1D01*
G01*
X160133420Y-97534000D02*
X160414580Y-97534000D01*
X160133420Y-98554000D02*
X160414580Y-98554000D01*
X171450000Y-120367000D02*
X169250000Y-120367000D01*
X171450000Y-112297000D02*
X167850000Y-112297000D01*
X171450000Y-112297000D02*
X173650000Y-112297000D01*
X171450000Y-120367000D02*
X173650000Y-120367000D01*
X177596000Y-133411000D02*
X179396000Y-133411000D01*
X177296000Y-132361000D02*
X177296000Y-133611000D01*
X177586000Y-132651000D02*
X177586000Y-138621000D01*
X188396000Y-133411000D02*
X190196000Y-133411000D01*
X189446000Y-137861000D02*
X183896000Y-137861000D01*
X190206000Y-138621000D02*
X190206000Y-132651000D01*
X180896000Y-133411000D02*
X186896000Y-133411000D01*
X186896000Y-133411000D02*
X186896000Y-132661000D01*
X186896000Y-132661000D02*
X180896000Y-132661000D01*
X190196000Y-133411000D02*
X190196000Y-132661000D01*
X177596000Y-134911000D02*
X178346000Y-134911000D01*
X179396000Y-132661000D02*
X177596000Y-132661000D01*
X190196000Y-134911000D02*
X189446000Y-134911000D01*
X177596000Y-132661000D02*
X177596000Y-133411000D01*
X179396000Y-133411000D02*
X179396000Y-132661000D01*
X178546000Y-132361000D02*
X177296000Y-132361000D01*
X177586000Y-138621000D02*
X190206000Y-138621000D01*
X190206000Y-132651000D02*
X177586000Y-132651000D01*
X180896000Y-132661000D02*
X180896000Y-133411000D01*
X188396000Y-132661000D02*
X188396000Y-133411000D01*
X178346000Y-134911000D02*
X178346000Y-137861000D01*
X189446000Y-134911000D02*
X189446000Y-137861000D01*
X190196000Y-132661000D02*
X188396000Y-132661000D01*
X178346000Y-137861000D02*
X183896000Y-137861000D01*
X167879500Y-130793258D02*
X167879500Y-130318742D01*
X168924500Y-130793258D02*
X168924500Y-130318742D01*
X144257500Y-102091258D02*
X144257500Y-101616742D01*
X145302500Y-102091258D02*
X145302500Y-101616742D01*
X148860742Y-109742500D02*
X149335258Y-109742500D01*
X148860742Y-108697500D02*
X149335258Y-108697500D01*
X180608500Y-130793258D02*
X180608500Y-130318742D01*
X179563500Y-130793258D02*
X179563500Y-130318742D01*
X226838742Y-100090500D02*
X227313258Y-100090500D01*
X226838742Y-99045500D02*
X227313258Y-99045500D01*
X195930750Y-93265000D02*
X195930750Y-95765000D01*
X202150750Y-93265000D02*
X202150750Y-95765000D01*
X200980750Y-91295000D02*
X197100750Y-91295000D01*
X195930750Y-95765000D02*
X196980750Y-95765000D01*
X202150750Y-95765000D02*
X201100750Y-95765000D01*
X201100750Y-95765000D02*
X201100750Y-96755000D01*
X175881420Y-111508000D02*
X176162580Y-111508000D01*
X175881420Y-110488000D02*
X176162580Y-110488000D01*
X206264742Y-98566500D02*
X206739258Y-98566500D01*
X206264742Y-97521500D02*
X206739258Y-97521500D01*
X215806250Y-93265000D02*
X215806250Y-95765000D01*
X215806250Y-95765000D02*
X216856250Y-95765000D01*
X220856250Y-91295000D02*
X216976250Y-91295000D01*
X222026250Y-93265000D02*
X222026250Y-95765000D01*
X222026250Y-95765000D02*
X220976250Y-95765000D01*
X220976250Y-95765000D02*
X220976250Y-96755000D01*
X155177258Y-128538500D02*
X154702742Y-128538500D01*
X155177258Y-127493500D02*
X154702742Y-127493500D01*
X211976580Y-128793000D02*
X211695420Y-128793000D01*
X211976580Y-127773000D02*
X211695420Y-127773000D01*
X148860742Y-111237500D02*
X149335258Y-111237500D01*
X148860742Y-112282500D02*
X149335258Y-112282500D01*
X154161258Y-117616500D02*
X153686742Y-117616500D01*
X154161258Y-116571500D02*
X153686742Y-116571500D01*
X155700000Y-123330580D02*
X155700000Y-123049420D01*
X156720000Y-123330580D02*
X156720000Y-123049420D01*
X146496000Y-113268000D02*
X145096000Y-113268000D01*
X147196000Y-111968000D02*
X147196000Y-112568000D01*
X144396000Y-112568000D02*
X144396000Y-111968000D01*
X145096000Y-111268000D02*
X146496000Y-111268000D01*
X144396000Y-112568000D02*
G75*
G03*
X145096000Y-113268000I699999J-1D01*
G01*
X145096000Y-111268000D02*
G75*
G03*
X144396000Y-111968000I-1J-699999D01*
G01*
X146496000Y-113268000D02*
G75*
G03*
X147196000Y-112568000I1J699999D01*
G01*
X147196000Y-111968000D02*
G75*
G03*
X146496000Y-111268000I-699999J1D01*
G01*
X163392000Y-132678000D02*
X163392000Y-133428000D01*
X164142000Y-137878000D02*
X169692000Y-137878000D01*
X163392000Y-134928000D02*
X164142000Y-134928000D01*
X172692000Y-133428000D02*
X172692000Y-132678000D01*
X164342000Y-132378000D02*
X163092000Y-132378000D01*
X163382000Y-138638000D02*
X176002000Y-138638000D01*
X172692000Y-132678000D02*
X166692000Y-132678000D01*
X174192000Y-132678000D02*
X174192000Y-133428000D01*
X174192000Y-133428000D02*
X175992000Y-133428000D01*
X175242000Y-137878000D02*
X169692000Y-137878000D01*
X176002000Y-138638000D02*
X176002000Y-132668000D01*
X163092000Y-132378000D02*
X163092000Y-133628000D01*
X164142000Y-134928000D02*
X164142000Y-137878000D01*
X175992000Y-134928000D02*
X175242000Y-134928000D01*
X163382000Y-132668000D02*
X163382000Y-138638000D01*
X176002000Y-132668000D02*
X163382000Y-132668000D01*
X175242000Y-134928000D02*
X175242000Y-137878000D01*
X163392000Y-133428000D02*
X165192000Y-133428000D01*
X166692000Y-133428000D02*
X172692000Y-133428000D01*
X165192000Y-133428000D02*
X165192000Y-132678000D01*
X165192000Y-132678000D02*
X163392000Y-132678000D01*
X175992000Y-133428000D02*
X175992000Y-132678000D01*
X175992000Y-132678000D02*
X174192000Y-132678000D01*
X166692000Y-132678000D02*
X166692000Y-133428000D01*
X164606500Y-110506742D02*
X164606500Y-110981258D01*
X163561500Y-110506742D02*
X163561500Y-110981258D01*
X176292742Y-98566500D02*
X176767258Y-98566500D01*
X176292742Y-97521500D02*
X176767258Y-97521500D01*
X217186742Y-99045500D02*
X217661258Y-99045500D01*
X217186742Y-100090500D02*
X217661258Y-100090500D01*
X200011420Y-98554000D02*
X200292580Y-98554000D01*
X200011420Y-97534000D02*
X200292580Y-97534000D01*
X216170742Y-98566500D02*
X216645258Y-98566500D01*
X216170742Y-97521500D02*
X216645258Y-97521500D01*
X212214000Y-126297000D02*
X212214000Y-125697000D01*
X214314000Y-126997000D02*
X212914000Y-126997000D01*
X212914000Y-124997000D02*
X214314000Y-124997000D01*
X215014000Y-125697000D02*
X215014000Y-126297000D01*
X214314000Y-126997000D02*
G75*
G03*
X215014000Y-126297000I1J699999D01*
G01*
X212214000Y-126297000D02*
G75*
G03*
X212914000Y-126997000I699999J-1D01*
G01*
X215014000Y-125697000D02*
G75*
G03*
X214314000Y-124997000I-699999J1D01*
G01*
X212914000Y-124997000D02*
G75*
G03*
X212214000Y-125697000I-1J-699999D01*
G01*
X186960742Y-100090500D02*
X187435258Y-100090500D01*
X186960742Y-99045500D02*
X187435258Y-99045500D01*
X166384500Y-130793258D02*
X166384500Y-130318742D01*
X165339500Y-130793258D02*
X165339500Y-130318742D01*
X156179750Y-93265000D02*
X156179750Y-95765000D01*
X162399750Y-95765000D02*
X161349750Y-95765000D01*
X161229750Y-91295000D02*
X157349750Y-91295000D01*
X162399750Y-93265000D02*
X162399750Y-95765000D01*
X156179750Y-95765000D02*
X157229750Y-95765000D01*
X161349750Y-95765000D02*
X161349750Y-96755000D01*
X212088500Y-93265000D02*
X212088500Y-95765000D01*
X212088500Y-95765000D02*
X211038500Y-95765000D01*
X211038500Y-95765000D02*
X211038500Y-96755000D01*
X205868500Y-93265000D02*
X205868500Y-95765000D01*
X205868500Y-95765000D02*
X206918500Y-95765000D01*
X210918500Y-91295000D02*
X207038500Y-91295000D01*
X179945420Y-98554000D02*
X180226580Y-98554000D01*
X179945420Y-97534000D02*
X180226580Y-97534000D01*
X150097258Y-97521500D02*
X149622742Y-97521500D01*
X150097258Y-98566500D02*
X149622742Y-98566500D01*
D10*
X137922000Y-140208000D02*
X137922000Y-142748000D01*
X137922000Y-142748000D02*
X130302000Y-142748000D01*
X130302000Y-142748000D02*
X130302000Y-140208000D01*
X125222000Y-109728000D02*
X143002000Y-109728000D01*
X125222000Y-140208000D02*
X125222000Y-109728000D01*
X143002000Y-140208000D02*
X143002000Y-109728000D01*
X130302000Y-140208000D02*
X125222000Y-140208000D01*
X143002000Y-140208000D02*
X137922000Y-140208000D01*
D11*
X181734000Y-126284000D02*
X181734000Y-125684000D01*
X183834000Y-126984000D02*
X182434000Y-126984000D01*
X184534000Y-125684000D02*
X184534000Y-126284000D01*
X182434000Y-124984000D02*
X183834000Y-124984000D01*
X181734000Y-126284000D02*
G75*
G03*
X182434000Y-126984000I699999J-1D01*
G01*
X184534000Y-125684000D02*
G75*
G03*
X183834000Y-124984000I-699999J1D01*
G01*
X183834000Y-126984000D02*
G75*
G03*
X184534000Y-126284000I1J699999D01*
G01*
X182434000Y-124984000D02*
G75*
G03*
X181734000Y-125684000I-1J-699999D01*
G01*
X151292000Y-91295000D02*
X147412000Y-91295000D01*
X146242000Y-95765000D02*
X147292000Y-95765000D01*
X152462000Y-95765000D02*
X151412000Y-95765000D01*
X151412000Y-95765000D02*
X151412000Y-96755000D01*
X152462000Y-93265000D02*
X152462000Y-95765000D01*
X146242000Y-93265000D02*
X146242000Y-95765000D01*
X181496580Y-128780000D02*
X181215420Y-128780000D01*
X181496580Y-127760000D02*
X181215420Y-127760000D01*
X154161258Y-114568500D02*
X153686742Y-114568500D01*
X154161258Y-113523500D02*
X153686742Y-113523500D01*
X209663420Y-97534000D02*
X209944580Y-97534000D01*
X209663420Y-98554000D02*
X209944580Y-98554000D01*
X181225250Y-95765000D02*
X181225250Y-96755000D01*
X181105250Y-91295000D02*
X177225250Y-91295000D01*
X176055250Y-95765000D02*
X177105250Y-95765000D01*
X176055250Y-93265000D02*
X176055250Y-95765000D01*
X182275250Y-95765000D02*
X181225250Y-95765000D01*
X182275250Y-93265000D02*
X182275250Y-95765000D01*
X142501000Y-96458000D02*
X142501000Y-97508000D01*
X142501000Y-97508000D02*
X143491000Y-97508000D01*
X140001000Y-96458000D02*
X142501000Y-96458000D01*
X142501000Y-102678000D02*
X142501000Y-101628000D01*
X138031000Y-97628000D02*
X138031000Y-101508000D01*
X140001000Y-102678000D02*
X142501000Y-102678000D01*
X147196000Y-106888000D02*
X147196000Y-107488000D01*
X145096000Y-106188000D02*
X146496000Y-106188000D01*
X146496000Y-108188000D02*
X145096000Y-108188000D01*
X144396000Y-107488000D02*
X144396000Y-106888000D01*
X147196000Y-106888000D02*
G75*
G03*
X146496000Y-106188000I-699999J1D01*
G01*
X145096000Y-106188000D02*
G75*
G03*
X144396000Y-106888000I-1J-699999D01*
G01*
X146496000Y-108188000D02*
G75*
G03*
X147196000Y-107488000I1J699999D01*
G01*
X144396000Y-107488000D02*
G75*
G03*
X145096000Y-108188000I699999J-1D01*
G01*
X226076742Y-98566500D02*
X226551258Y-98566500D01*
X226076742Y-97521500D02*
X226551258Y-97521500D01*
X148098742Y-117616500D02*
X148573258Y-117616500D01*
X148098742Y-116571500D02*
X148573258Y-116571500D01*
X176800742Y-99045500D02*
X177275258Y-99045500D01*
X176800742Y-100090500D02*
X177275258Y-100090500D01*
X219823420Y-97534000D02*
X220104580Y-97534000D01*
X219823420Y-98554000D02*
X220104580Y-98554000D01*
X156480742Y-97521500D02*
X156955258Y-97521500D01*
X156480742Y-98566500D02*
X156955258Y-98566500D01*
X179972580Y-126494000D02*
X179691420Y-126494000D01*
X179972580Y-125474000D02*
X179691420Y-125474000D01*
X197752580Y-128793000D02*
X197471420Y-128793000D01*
X197752580Y-127773000D02*
X197471420Y-127773000D01*
D12*
X233680000Y-124079000D03*
D13*
X231140000Y-124079000D03*
D12*
X223012000Y-124079000D03*
D13*
X220472000Y-124079000D03*
D12*
X223012000Y-105537000D03*
D13*
X220472000Y-105537000D03*
X231140000Y-105537000D03*
D12*
X233680000Y-105537000D03*
D14*
X141732000Y-138938000D03*
D15*
X141732000Y-136398000D03*
X141732000Y-133858000D03*
X141732000Y-131318000D03*
X141732000Y-128778000D03*
X141732000Y-126238000D03*
X141732000Y-123698000D03*
X141732000Y-121158000D03*
X141732000Y-118618000D03*
X141732000Y-116078000D03*
X141732000Y-113538000D03*
X141732000Y-110998000D03*
X126492000Y-110998000D03*
X126492000Y-113538000D03*
X126492000Y-116078000D03*
X126492000Y-118618000D03*
X126492000Y-121158000D03*
X126492000Y-123698000D03*
X126492000Y-126238000D03*
X126492000Y-128778000D03*
X126492000Y-131318000D03*
X126492000Y-133858000D03*
X126492000Y-136398000D03*
X126492000Y-138938000D03*
%LPC*%
D16*
X212344000Y-110134000D03*
D17*
X212344000Y-116434000D03*
X214644000Y-116434000D03*
X210044000Y-116434000D03*
D12*
X233680000Y-124079000D03*
D13*
X231140000Y-124079000D03*
D12*
X223012000Y-124079000D03*
D13*
X220472000Y-124079000D03*
D12*
X223012000Y-105537000D03*
D13*
X220472000Y-105537000D03*
X231140000Y-105537000D03*
D12*
X233680000Y-105537000D03*
D18*
X232601000Y-121158000D03*
X234251000Y-121158000D03*
X234125000Y-127508000D03*
X235775000Y-127508000D03*
X234125000Y-130810000D03*
X235775000Y-130810000D03*
D19*
X225298000Y-135636000D03*
D20*
X230298000Y-135636000D03*
D21*
X239293500Y-123952000D03*
X237718500Y-123952000D03*
X239293500Y-127508000D03*
X237718500Y-127508000D03*
X239293500Y-130810000D03*
X237718500Y-130810000D03*
D22*
X212295000Y-107442000D03*
X209345000Y-107442000D03*
D23*
X217170000Y-118413000D03*
X217170000Y-121363000D03*
D24*
X213106000Y-131394000D03*
X213106000Y-129744000D03*
D18*
X148273000Y-106680000D03*
X149923000Y-106680000D03*
D24*
X210566000Y-131394000D03*
X210566000Y-129744000D03*
D25*
X147637000Y-128016000D03*
X145987000Y-128016000D03*
D26*
X145146000Y-109728000D03*
D27*
X146446000Y-109728000D03*
D24*
X198882000Y-131394000D03*
X198882000Y-129744000D03*
X196342000Y-131394000D03*
X196342000Y-129744000D03*
D28*
X170727500Y-95980000D03*
X169727500Y-95980000D03*
X168727500Y-95980000D03*
X167727500Y-95980000D03*
D29*
X172027500Y-92105000D03*
X166427500Y-92105000D03*
D30*
X189471000Y-98044000D03*
X191021000Y-98044000D03*
D18*
X185611000Y-98044000D03*
X187261000Y-98044000D03*
D30*
X169659000Y-98044000D03*
X171209000Y-98044000D03*
D31*
X196422000Y-135141000D03*
D32*
X198922000Y-135141000D03*
X201422000Y-135141000D03*
X203922000Y-135141000D03*
D18*
X156655000Y-99568000D03*
X158305000Y-99568000D03*
D33*
X211087000Y-125997000D03*
X209537000Y-125997000D03*
D24*
X182626000Y-131381000D03*
X182626000Y-129731000D03*
D28*
X190603000Y-95980000D03*
X189603000Y-95980000D03*
X188603000Y-95980000D03*
X187603000Y-95980000D03*
D29*
X186303000Y-92105000D03*
X191903000Y-92105000D03*
D33*
X167907000Y-128270000D03*
X166357000Y-128270000D03*
D18*
X166561000Y-99568000D03*
X168211000Y-99568000D03*
D34*
X153035000Y-119191000D03*
X151765000Y-119191000D03*
X150495000Y-119191000D03*
X149225000Y-119191000D03*
X149225000Y-124141000D03*
X150495000Y-124141000D03*
X151765000Y-124141000D03*
X153035000Y-124141000D03*
D30*
X229095000Y-98044000D03*
X230645000Y-98044000D03*
D31*
X210626000Y-135124000D03*
D32*
X213126000Y-135124000D03*
X215626000Y-135124000D03*
X218126000Y-135124000D03*
D25*
X151701000Y-128016000D03*
X150051000Y-128016000D03*
D35*
X161544000Y-106680000D03*
D36*
X154686000Y-123965000D03*
X154686000Y-122415000D03*
D28*
X230354000Y-95980000D03*
X229354000Y-95980000D03*
X228354000Y-95980000D03*
X227354000Y-95980000D03*
D29*
X226054000Y-92105000D03*
X231654000Y-92105000D03*
D18*
X206439000Y-99568000D03*
X208089000Y-99568000D03*
X165799000Y-98044000D03*
X167449000Y-98044000D03*
X196787000Y-99568000D03*
X198437000Y-99568000D03*
D19*
X148362000Y-135600000D03*
D20*
X153362000Y-135600000D03*
D18*
X195771000Y-98044000D03*
X197421000Y-98044000D03*
D37*
X150144000Y-102870000D03*
D38*
X148844000Y-102870000D03*
D39*
X147544000Y-102870000D03*
D30*
X159499000Y-98044000D03*
X161049000Y-98044000D03*
D40*
X168587500Y-112757000D03*
X168587500Y-113407000D03*
X168587500Y-114057000D03*
X168587500Y-114707000D03*
X168587500Y-115357000D03*
X168587500Y-116007000D03*
X168587500Y-116657000D03*
X168587500Y-117307000D03*
X168587500Y-117957000D03*
X168587500Y-118607000D03*
X168587500Y-119257000D03*
X168587500Y-119907000D03*
X174312500Y-119907000D03*
X174312500Y-119257000D03*
X174312500Y-118607000D03*
X174312500Y-117957000D03*
X174312500Y-117307000D03*
X174312500Y-116657000D03*
X174312500Y-116007000D03*
X174312500Y-115357000D03*
X174312500Y-114707000D03*
X174312500Y-114057000D03*
X174312500Y-113407000D03*
X174312500Y-112757000D03*
D31*
X180146000Y-135111000D03*
D32*
X182646000Y-135111000D03*
X185146000Y-135111000D03*
X187646000Y-135111000D03*
D24*
X168402000Y-131381000D03*
X168402000Y-129731000D03*
X144780000Y-102679000D03*
X144780000Y-101029000D03*
D18*
X148273000Y-109220000D03*
X149923000Y-109220000D03*
D24*
X180086000Y-131381000D03*
X180086000Y-129731000D03*
D18*
X226251000Y-99568000D03*
X227901000Y-99568000D03*
D28*
X200540750Y-95980000D03*
X199540750Y-95980000D03*
X198540750Y-95980000D03*
X197540750Y-95980000D03*
D29*
X201840750Y-92105000D03*
X196240750Y-92105000D03*
D30*
X175247000Y-110998000D03*
X176797000Y-110998000D03*
D41*
X236895000Y-94121000D03*
D18*
X205677000Y-98044000D03*
X207327000Y-98044000D03*
D28*
X220416250Y-95980000D03*
X219416250Y-95980000D03*
X218416250Y-95980000D03*
X217416250Y-95980000D03*
D29*
X216116250Y-92105000D03*
X221716250Y-92105000D03*
D41*
X120816000Y-94121000D03*
D25*
X155765000Y-128016000D03*
X154115000Y-128016000D03*
D33*
X212611000Y-128283000D03*
X211061000Y-128283000D03*
D18*
X148273000Y-111760000D03*
X149923000Y-111760000D03*
D41*
X236895000Y-137200000D03*
D25*
X154749000Y-117094000D03*
X153099000Y-117094000D03*
D36*
X156210000Y-123965000D03*
X156210000Y-122415000D03*
D26*
X145146000Y-112268000D03*
D27*
X146446000Y-112268000D03*
D31*
X165942000Y-135128000D03*
D32*
X168442000Y-135128000D03*
X170942000Y-135128000D03*
X173442000Y-135128000D03*
D42*
X164084000Y-109919000D03*
X164084000Y-111569000D03*
D18*
X175705000Y-98044000D03*
X177355000Y-98044000D03*
X216599000Y-99568000D03*
X218249000Y-99568000D03*
D30*
X199377000Y-98044000D03*
X200927000Y-98044000D03*
D18*
X215583000Y-98044000D03*
X217233000Y-98044000D03*
D26*
X212964000Y-125997000D03*
D27*
X214264000Y-125997000D03*
D18*
X186373000Y-99568000D03*
X188023000Y-99568000D03*
D24*
X165862000Y-131381000D03*
X165862000Y-129731000D03*
D28*
X160789750Y-95980000D03*
X159789750Y-95980000D03*
X158789750Y-95980000D03*
X157789750Y-95980000D03*
D29*
X156489750Y-92105000D03*
X162089750Y-92105000D03*
D41*
X120816000Y-137200000D03*
D28*
X210478500Y-95980000D03*
X209478500Y-95980000D03*
X208478500Y-95980000D03*
X207478500Y-95980000D03*
D29*
X211778500Y-92105000D03*
X206178500Y-92105000D03*
D30*
X179311000Y-98044000D03*
X180861000Y-98044000D03*
D25*
X150685000Y-98044000D03*
X149035000Y-98044000D03*
D14*
X141732000Y-138938000D03*
D15*
X141732000Y-136398000D03*
X141732000Y-133858000D03*
X141732000Y-131318000D03*
X141732000Y-128778000D03*
X141732000Y-126238000D03*
X141732000Y-123698000D03*
X141732000Y-121158000D03*
X141732000Y-118618000D03*
X141732000Y-116078000D03*
X141732000Y-113538000D03*
X141732000Y-110998000D03*
X126492000Y-110998000D03*
X126492000Y-113538000D03*
X126492000Y-116078000D03*
X126492000Y-118618000D03*
X126492000Y-121158000D03*
X126492000Y-123698000D03*
X126492000Y-126238000D03*
X126492000Y-128778000D03*
X126492000Y-131318000D03*
X126492000Y-133858000D03*
X126492000Y-136398000D03*
X126492000Y-138938000D03*
D26*
X182484000Y-125984000D03*
D27*
X183784000Y-125984000D03*
D28*
X150852000Y-95980000D03*
X149852000Y-95980000D03*
X148852000Y-95980000D03*
X147852000Y-95980000D03*
D29*
X146552000Y-92105000D03*
X152152000Y-92105000D03*
D33*
X182131000Y-128270000D03*
X180581000Y-128270000D03*
D25*
X154749000Y-114046000D03*
X153099000Y-114046000D03*
D30*
X209029000Y-98044000D03*
X210579000Y-98044000D03*
D28*
X180665250Y-95980000D03*
X179665250Y-95980000D03*
X178665250Y-95980000D03*
X177665250Y-95980000D03*
D29*
X176365250Y-92105000D03*
X181965250Y-92105000D03*
D43*
X142716000Y-98068000D03*
X142716000Y-99068000D03*
X142716000Y-100068000D03*
X142716000Y-101068000D03*
D44*
X138841000Y-96768000D03*
X138841000Y-102368000D03*
D26*
X145146000Y-107188000D03*
D27*
X146446000Y-107188000D03*
D18*
X225489000Y-98044000D03*
X227139000Y-98044000D03*
X147511000Y-117094000D03*
X149161000Y-117094000D03*
X176213000Y-99568000D03*
X177863000Y-99568000D03*
D30*
X219189000Y-98044000D03*
X220739000Y-98044000D03*
D18*
X155893000Y-98044000D03*
X157543000Y-98044000D03*
D33*
X180607000Y-125984000D03*
X179057000Y-125984000D03*
X198387000Y-128283000D03*
X196837000Y-128283000D03*
M02*
