M48
; DRILL file {KiCad (6.0.0)} date Tue Dec 27 21:52:25 2022
; FORMAT={-:-/ absolute / metric / decimal}
; #@! TF.CreationDate,2022-12-27T21:52:25-05:00
; #@! TF.GenerationSoftware,Kicad,Pcbnew,(6.0.0)
; #@! TF.FileFunction,Plated,1,2,PTH
FMAT,2
METRIC
; #@! TA.AperFunction,Plated,PTH,ViaDrill
T1C0.400
; #@! TA.AperFunction,Plated,PTH,ComponentDrill
T2C0.700
; #@! TA.AperFunction,Plated,PTH,ComponentDrill
T3C0.950
; #@! TA.AperFunction,Plated,PTH,ComponentDrill
T4C1.000
; #@! TA.AperFunction,Plated,PTH,ComponentDrill
T5C1.100
; #@! TA.AperFunction,Plated,PTH,ComponentDrill
T6C1.300
%
G90
G05
T1
X140.47Y-99.068
X144.018Y-122.428
X144.78Y-99.568
X145.099Y-127.827
X146.749Y-117.031
X147.32Y-100.33
X147.574Y-107.188
X147.574Y-109.728
X147.574Y-112.268
X148.844Y-100.838
X149.852Y-94.242
X150.368Y-120.904
X152.654Y-121.158
X152.908Y-98.298
X153.735Y-124.141
X154.749Y-116.015
X155.44Y-94.242
X159.79Y-94.258
X163.576Y-98.044
X164.084Y-106.68
X164.084Y-109.22
X164.338Y-105.156
X165.246Y-115.932
X165.33Y-94.258
X166.299Y-116.657
X167.894Y-111.252
X168.91Y-110.236
X169.727Y-94.289
X169.926Y-127.254
X170.371Y-129.731
X170.942Y-119.888
X171.196Y-107.442
X171.196Y-128.778
X171.45Y-106.172
X171.45Y-114.3
X171.45Y-115.57
X171.704Y-119.126
X171.831Y-126.111
X172.466Y-104.902
X172.72Y-118.872
X172.974Y-117.602
X173.482Y-99.06
X173.482Y-108.966
X173.736Y-96.012
X175.204Y-94.289
X175.26Y-104.14
X175.514Y-101.092
X178.054Y-106.172
X178.308Y-113.538
X178.308Y-114.808
X178.562Y-119.634
X178.689Y-100.457
X179.665Y-94.321
X180.049Y-112.813
X180.848Y-111.506
X181.356Y-123.444
X183.134Y-99.06
X183.388Y-110.49
X183.642Y-119.38
X185.079Y-94.321
X185.166Y-120.904
X187.198Y-102.362
X188.214Y-101.346
X189.603Y-94.099
X193.294Y-98.298
X195.175Y-94.131
X197.612Y-102.108
X198.374Y-100.838
X199.541Y-94.131
X200.406Y-127.267
X200.851Y-129.744
X201.168Y-120.904
X201.422Y-123.444
X201.676Y-128.791
X202.184Y-120.142
X202.184Y-122.428
X202.311Y-126.124
X203.2Y-98.298
X205.16Y-94.051
X207.264Y-101.854
X207.772Y-120.65
X208.026Y-100.838
X209.478Y-94.051
X211.074Y-119.126
X212.09Y-122.936
X213.614Y-98.044
X215.32Y-94.051
X217.424Y-100.838
X218.186Y-101.854
X219.416Y-94.02
X223.266Y-98.044
X225.258Y-94.02
X226.822Y-101.092
X227.33Y-116.332
X227.838Y-101.854
X228.346Y-129.54
X229.362Y-93.98
X232.664Y-127.508
X233.68Y-98.298
T2
X220.472Y-105.537
X220.472Y-124.079
X223.012Y-105.537
X223.012Y-124.079
X231.14Y-105.537
X231.14Y-124.079
X233.68Y-105.537
X233.68Y-124.079
T3
X165.942Y-135.128
X168.442Y-135.128
X170.942Y-135.128
X173.442Y-135.128
X180.146Y-135.111
X182.646Y-135.111
X185.146Y-135.111
X187.646Y-135.111
X196.422Y-135.141
X198.922Y-135.141
X201.422Y-135.141
X203.922Y-135.141
X210.626Y-135.124
X213.126Y-135.124
X215.626Y-135.124
X218.126Y-135.124
T4
X161.544Y-106.68
T5
X126.492Y-110.998
X126.492Y-113.538
X126.492Y-116.078
X126.492Y-118.618
X126.492Y-121.158
X126.492Y-123.698
X126.492Y-126.238
X126.492Y-128.778
X126.492Y-131.318
X126.492Y-133.858
X126.492Y-136.398
X126.492Y-138.938
X141.732Y-110.998
X141.732Y-113.538
X141.732Y-116.078
X141.732Y-118.618
X141.732Y-121.158
X141.732Y-123.698
X141.732Y-126.238
X141.732Y-128.778
X141.732Y-131.318
X141.732Y-133.858
X141.732Y-136.398
X141.732Y-138.938
T6
X148.362Y-135.6
X153.362Y-135.6
X225.298Y-135.636
X230.298Y-135.636
T0
M30
