G04 #@! TF.GenerationSoftware,KiCad,Pcbnew,(6.0.0)*
G04 #@! TF.CreationDate,2022-12-27T21:52:24-05:00*
G04 #@! TF.ProjectId,rp2040 rs485 scale breakout,72703230-3430-4207-9273-343835207363,rev?*
G04 #@! TF.SameCoordinates,Original*
G04 #@! TF.FileFunction,Soldermask,Bot*
G04 #@! TF.FilePolarity,Negative*
%FSLAX46Y46*%
G04 Gerber Fmt 4.6, Leading zero omitted, Abs format (unit mm)*
G04 Created by KiCad (PCBNEW (6.0.0)) date 2022-12-27 21:52:24*
%MOMM*%
%LPD*%
G01*
G04 APERTURE LIST*
G04 Aperture macros list*
%AMRoundRect*
0 Rectangle with rounded corners*
0 $1 Rounding radius*
0 $2 $3 $4 $5 $6 $7 $8 $9 X,Y pos of 4 corners*
0 Add a 4 corners polygon primitive as box body*
4,1,4,$2,$3,$4,$5,$6,$7,$8,$9,$2,$3,0*
0 Add four circle primitives for the rounded corners*
1,1,$1+$1,$2,$3*
1,1,$1+$1,$4,$5*
1,1,$1+$1,$6,$7*
1,1,$1+$1,$8,$9*
0 Add four rect primitives between the rounded corners*
20,1,$1+$1,$2,$3,$4,$5,0*
20,1,$1+$1,$4,$5,$6,$7,0*
20,1,$1+$1,$6,$7,$8,$9,0*
20,1,$1+$1,$8,$9,$2,$3,0*%
%AMFreePoly0*
4,1,22,0.550000,-0.750000,0.000000,-0.750000,0.000000,-0.745033,-0.079941,-0.743568,-0.215256,-0.701293,-0.333266,-0.622738,-0.424486,-0.514219,-0.481581,-0.384460,-0.499164,-0.250000,-0.500000,-0.250000,-0.500000,0.250000,-0.499164,0.250000,-0.499963,0.256109,-0.478152,0.396186,-0.417904,0.524511,-0.324060,0.630769,-0.204165,0.706417,-0.067858,0.745374,0.000000,0.744959,0.000000,0.750000,
0.550000,0.750000,0.550000,-0.750000,0.550000,-0.750000,$1*%
%AMFreePoly1*
4,1,20,0.000000,0.744959,0.073905,0.744508,0.209726,0.703889,0.328688,0.626782,0.421226,0.519385,0.479903,0.390333,0.500000,0.250000,0.500000,-0.250000,0.499851,-0.262216,0.476331,-0.402017,0.414519,-0.529596,0.319384,-0.634700,0.198574,-0.708877,0.061801,-0.746166,0.000000,-0.745033,0.000000,-0.750000,-0.550000,-0.750000,-0.550000,0.750000,0.000000,0.750000,0.000000,0.744959,
0.000000,0.744959,$1*%
G04 Aperture macros list end*
%ADD10R,1.524000X1.524000*%
%ADD11C,1.524000*%
%ADD12R,2.600000X2.600000*%
%ADD13C,2.600000*%
%ADD14RoundRect,0.250000X-0.600000X-0.725000X0.600000X-0.725000X0.600000X0.725000X-0.600000X0.725000X0*%
%ADD15O,1.700000X1.950000*%
%ADD16R,1.700000X1.700000*%
%ADD17C,3.200000*%
%ADD18R,1.600000X1.600000*%
%ADD19C,1.600000*%
%ADD20FreePoly0,270.000000*%
%ADD21R,1.500000X1.000000*%
%ADD22FreePoly1,270.000000*%
%ADD23RoundRect,0.200000X0.200000X0.275000X-0.200000X0.275000X-0.200000X-0.275000X0.200000X-0.275000X0*%
%ADD24R,0.650000X1.560000*%
%ADD25RoundRect,0.225000X-0.250000X0.225000X-0.250000X-0.225000X0.250000X-0.225000X0.250000X0.225000X0*%
%ADD26RoundRect,0.150000X-0.825000X-0.150000X0.825000X-0.150000X0.825000X0.150000X-0.825000X0.150000X0*%
%ADD27RoundRect,0.225000X0.225000X0.250000X-0.225000X0.250000X-0.225000X-0.250000X0.225000X-0.250000X0*%
G04 APERTURE END LIST*
D10*
X233680000Y-124079000D03*
D11*
X231140000Y-124079000D03*
D10*
X223012000Y-124079000D03*
D11*
X220472000Y-124079000D03*
D10*
X223012000Y-105537000D03*
D11*
X220472000Y-105537000D03*
X231140000Y-105537000D03*
D10*
X233680000Y-105537000D03*
D12*
X225298000Y-135636000D03*
D13*
X230298000Y-135636000D03*
D14*
X196422000Y-135141000D03*
D15*
X198922000Y-135141000D03*
X201422000Y-135141000D03*
X203922000Y-135141000D03*
D14*
X210626000Y-135124000D03*
D15*
X213126000Y-135124000D03*
X215626000Y-135124000D03*
X218126000Y-135124000D03*
D16*
X161544000Y-106680000D03*
D12*
X148362000Y-135600000D03*
D13*
X153362000Y-135600000D03*
D14*
X180146000Y-135111000D03*
D15*
X182646000Y-135111000D03*
X185146000Y-135111000D03*
X187646000Y-135111000D03*
D17*
X236895000Y-94121000D03*
X120816000Y-94121000D03*
X236895000Y-137200000D03*
D14*
X165942000Y-135128000D03*
D15*
X168442000Y-135128000D03*
X170942000Y-135128000D03*
X173442000Y-135128000D03*
D17*
X120816000Y-137200000D03*
D18*
X141732000Y-138938000D03*
D19*
X141732000Y-136398000D03*
X141732000Y-133858000D03*
X141732000Y-131318000D03*
X141732000Y-128778000D03*
X141732000Y-126238000D03*
X141732000Y-123698000D03*
X141732000Y-121158000D03*
X141732000Y-118618000D03*
X141732000Y-116078000D03*
X141732000Y-113538000D03*
X141732000Y-110998000D03*
X126492000Y-110998000D03*
X126492000Y-113538000D03*
X126492000Y-116078000D03*
X126492000Y-118618000D03*
X126492000Y-121158000D03*
X126492000Y-123698000D03*
X126492000Y-126238000D03*
X126492000Y-128778000D03*
X126492000Y-131318000D03*
X126492000Y-133858000D03*
X126492000Y-136398000D03*
X126492000Y-138938000D03*
D20*
X216408000Y-126729000D03*
D21*
X216408000Y-128029000D03*
D22*
X216408000Y-129329000D03*
D23*
X213931000Y-127267000D03*
X212281000Y-127267000D03*
D24*
X149672000Y-130222000D03*
X150622000Y-130222000D03*
X151572000Y-130222000D03*
X151572000Y-132922000D03*
X150622000Y-132922000D03*
X149672000Y-132922000D03*
D25*
X176022000Y-133083000D03*
X176022000Y-134633000D03*
X208026000Y-133096000D03*
X208026000Y-134646000D03*
X206502000Y-133096000D03*
X206502000Y-134646000D03*
D26*
X204535000Y-131204000D03*
X204535000Y-129934000D03*
X204535000Y-128664000D03*
X204535000Y-127394000D03*
X204535000Y-126124000D03*
X204535000Y-124854000D03*
X204535000Y-123584000D03*
X204535000Y-122314000D03*
X209485000Y-122314000D03*
X209485000Y-123584000D03*
X209485000Y-124854000D03*
X209485000Y-126124000D03*
X209485000Y-127394000D03*
X209485000Y-128664000D03*
X209485000Y-129934000D03*
X209485000Y-131204000D03*
D23*
X213931000Y-128791000D03*
X212281000Y-128791000D03*
D27*
X171717000Y-124968000D03*
X170167000Y-124968000D03*
D25*
X177546000Y-133083000D03*
X177546000Y-134633000D03*
D26*
X174055000Y-131191000D03*
X174055000Y-129921000D03*
X174055000Y-128651000D03*
X174055000Y-127381000D03*
X174055000Y-126111000D03*
X174055000Y-124841000D03*
X174055000Y-123571000D03*
X174055000Y-122301000D03*
X179005000Y-122301000D03*
X179005000Y-123571000D03*
X179005000Y-124841000D03*
X179005000Y-126111000D03*
X179005000Y-127381000D03*
X179005000Y-128651000D03*
X179005000Y-129921000D03*
X179005000Y-131191000D03*
D23*
X183451000Y-128778000D03*
X181801000Y-128778000D03*
X183451000Y-127254000D03*
X181801000Y-127254000D03*
D20*
X185928000Y-126716000D03*
D21*
X185928000Y-128016000D03*
D22*
X185928000Y-129316000D03*
D27*
X202197000Y-124981000D03*
X200647000Y-124981000D03*
M02*
