%FSLAX45Y45*%
G04 Gerber Fmt 4.5, Leading zero omitted, Abs format (unit mm)*
G04 Created by KiCad (PCBNEW (6.0.0)) date 2022-12-27 21:52:26*
%MOMM*%
%LPD*%
G01*
G04 APERTURE LIST*
%TA.AperFunction,Profile*%
%ADD10C,0.100000*%
%TD*%
%ADD11C,0.200000*%
%ADD12C,0.040000*%
%ADD13C,0.070000*%
%ADD14C,0.095000*%
%ADD15C,0.100000*%
%ADD16C,0.110000*%
%ADD17C,0.130000*%
G04 APERTURE END LIST*
D10*
X24045100Y-9412100D02*
X24045100Y-13707300D01*
X23689500Y-14075827D02*
X12081600Y-14075600D01*
X12081600Y-9056500D02*
X23689500Y-9056500D01*
X11726000Y-9412100D02*
X11726000Y-13720000D01*
X11726000Y-13720000D02*
G75*
G03*
X12081600Y-14075600I355600J0D01*
G01*
X24045100Y-9412100D02*
G75*
G03*
X23689500Y-9056500I-355600J0D01*
G01*
X12081600Y-9056500D02*
G75*
G03*
X11726000Y-9412100I0J-355600D01*
G01*
X23689500Y-14075827D02*
G75*
G03*
X24045100Y-13707300I0J355827D01*
G01*
D11*
D12*
X14027000Y-9886800D02*
X14067000Y-9926800D01*
X14067000Y-9886800D02*
X14027000Y-9926800D01*
X14381800Y-12222800D02*
X14421800Y-12262800D01*
X14421800Y-12222800D02*
X14381800Y-12262800D01*
X14458000Y-9936800D02*
X14498000Y-9976800D01*
X14498000Y-9936800D02*
X14458000Y-9976800D01*
X14489900Y-12762700D02*
X14529900Y-12802700D01*
X14529900Y-12762700D02*
X14489900Y-12802700D01*
X14654900Y-11683100D02*
X14694900Y-11723100D01*
X14694900Y-11683100D02*
X14654900Y-11723100D01*
X14712000Y-10013000D02*
X14752000Y-10053000D01*
X14752000Y-10013000D02*
X14712000Y-10053000D01*
X14737400Y-10698800D02*
X14777400Y-10738800D01*
X14777400Y-10698800D02*
X14737400Y-10738800D01*
X14737400Y-10952800D02*
X14777400Y-10992800D01*
X14777400Y-10952800D02*
X14737400Y-10992800D01*
X14737400Y-11206800D02*
X14777400Y-11246800D01*
X14777400Y-11206800D02*
X14737400Y-11246800D01*
X14864400Y-10063800D02*
X14904400Y-10103800D01*
X14904400Y-10063800D02*
X14864400Y-10103800D01*
X14965200Y-9404200D02*
X15005200Y-9444200D01*
X15005200Y-9404200D02*
X14965200Y-9444200D01*
X15016800Y-12070400D02*
X15056800Y-12110400D01*
X15056800Y-12070400D02*
X15016800Y-12110400D01*
X15245400Y-12095800D02*
X15285400Y-12135800D01*
X15285400Y-12095800D02*
X15245400Y-12135800D01*
X15270800Y-9809800D02*
X15310800Y-9849800D01*
X15310800Y-9809800D02*
X15270800Y-9849800D01*
X15353500Y-12394100D02*
X15393500Y-12434100D01*
X15393500Y-12394100D02*
X15353500Y-12434100D01*
X15454900Y-11581500D02*
X15494900Y-11621500D01*
X15494900Y-11581500D02*
X15454900Y-11621500D01*
X15524000Y-9404200D02*
X15564000Y-9444200D01*
X15564000Y-9404200D02*
X15524000Y-9444200D01*
X15958975Y-9405775D02*
X15998975Y-9445775D01*
X15998975Y-9405775D02*
X15958975Y-9445775D01*
X16337600Y-9784400D02*
X16377600Y-9824400D01*
X16377600Y-9784400D02*
X16337600Y-9824400D01*
X16388400Y-10648000D02*
X16428400Y-10688000D01*
X16428400Y-10648000D02*
X16388400Y-10688000D01*
X16388400Y-10902000D02*
X16428400Y-10942000D01*
X16428400Y-10902000D02*
X16388400Y-10942000D01*
X16413800Y-10495600D02*
X16453800Y-10535600D01*
X16453800Y-10495600D02*
X16413800Y-10535600D01*
X16504551Y-11573249D02*
X16544551Y-11613249D01*
X16544551Y-11573249D02*
X16504551Y-11613249D01*
X16513025Y-9405775D02*
X16553025Y-9445775D01*
X16553025Y-9405775D02*
X16513025Y-9445775D01*
X16609900Y-11645700D02*
X16649900Y-11685700D01*
X16649900Y-11645700D02*
X16609900Y-11685700D01*
X16769400Y-11105200D02*
X16809400Y-11145200D01*
X16809400Y-11105200D02*
X16769400Y-11145200D01*
X16871000Y-11003600D02*
X16911000Y-11043600D01*
X16911000Y-11003600D02*
X16871000Y-11043600D01*
X16952750Y-9408950D02*
X16992750Y-9448950D01*
X16992750Y-9408950D02*
X16952750Y-9448950D01*
X16972600Y-12705400D02*
X17012600Y-12745400D01*
X17012600Y-12705400D02*
X16972600Y-12745400D01*
X17017100Y-12953100D02*
X17057100Y-12993100D01*
X17057100Y-12953100D02*
X17017100Y-12993100D01*
X17074200Y-11968800D02*
X17114200Y-12008800D01*
X17114200Y-11968800D02*
X17074200Y-12008800D01*
X17099600Y-10724200D02*
X17139600Y-10764200D01*
X17139600Y-10724200D02*
X17099600Y-10764200D01*
X17099600Y-12857800D02*
X17139600Y-12897800D01*
X17139600Y-12857800D02*
X17099600Y-12897800D01*
X17125000Y-10597200D02*
X17165000Y-10637200D01*
X17165000Y-10597200D02*
X17125000Y-10637200D01*
X17125000Y-11410000D02*
X17165000Y-11450000D01*
X17165000Y-11410000D02*
X17125000Y-11450000D01*
X17125000Y-11537000D02*
X17165000Y-11577000D01*
X17165000Y-11537000D02*
X17125000Y-11577000D01*
X17150400Y-11892600D02*
X17190400Y-11932600D01*
X17190400Y-11892600D02*
X17150400Y-11932600D01*
X17163100Y-12591100D02*
X17203100Y-12631100D01*
X17203100Y-12591100D02*
X17163100Y-12631100D01*
X17226600Y-10470200D02*
X17266600Y-10510200D01*
X17266600Y-10470200D02*
X17226600Y-10510200D01*
X17252000Y-11867200D02*
X17292000Y-11907200D01*
X17292000Y-11867200D02*
X17252000Y-11907200D01*
X17277400Y-11740200D02*
X17317400Y-11780200D01*
X17317400Y-11740200D02*
X17277400Y-11780200D01*
X17328200Y-9886000D02*
X17368200Y-9926000D01*
X17368200Y-9886000D02*
X17328200Y-9926000D01*
X17328200Y-10876600D02*
X17368200Y-10916600D01*
X17368200Y-10876600D02*
X17328200Y-10916600D01*
X17353600Y-9581200D02*
X17393600Y-9621200D01*
X17393600Y-9581200D02*
X17353600Y-9621200D01*
X17500450Y-9408950D02*
X17540450Y-9448950D01*
X17540450Y-9408950D02*
X17500450Y-9448950D01*
X17506000Y-10394000D02*
X17546000Y-10434000D01*
X17546000Y-10394000D02*
X17506000Y-10434000D01*
X17531400Y-10089200D02*
X17571400Y-10129200D01*
X17571400Y-10089200D02*
X17531400Y-10129200D01*
X17785400Y-10597200D02*
X17825400Y-10637200D01*
X17825400Y-10597200D02*
X17785400Y-10637200D01*
X17810800Y-11333800D02*
X17850800Y-11373800D01*
X17850800Y-11333800D02*
X17810800Y-11373800D01*
X17810800Y-11460800D02*
X17850800Y-11500800D01*
X17850800Y-11460800D02*
X17810800Y-11500800D01*
X17836200Y-11943400D02*
X17876200Y-11983400D01*
X17876200Y-11943400D02*
X17836200Y-11983400D01*
X17848900Y-10025700D02*
X17888900Y-10065700D01*
X17888900Y-10025700D02*
X17848900Y-10065700D01*
X17946525Y-9412125D02*
X17986525Y-9452125D01*
X17986525Y-9412125D02*
X17946525Y-9452125D01*
X17984851Y-11261349D02*
X18024851Y-11301349D01*
X18024851Y-11261349D02*
X17984851Y-11301349D01*
X18064800Y-11130600D02*
X18104800Y-11170600D01*
X18104800Y-11130600D02*
X18064800Y-11170600D01*
X18115600Y-12324400D02*
X18155600Y-12364400D01*
X18155600Y-12324400D02*
X18115600Y-12364400D01*
X18293400Y-9886000D02*
X18333400Y-9926000D01*
X18333400Y-9886000D02*
X18293400Y-9926000D01*
X18318800Y-11029000D02*
X18358800Y-11069000D01*
X18358800Y-11029000D02*
X18318800Y-11069000D01*
X18344200Y-11918000D02*
X18384200Y-11958000D01*
X18384200Y-11918000D02*
X18344200Y-11958000D01*
X18487875Y-9412125D02*
X18527875Y-9452125D01*
X18527875Y-9412125D02*
X18487875Y-9452125D01*
X18496600Y-12070400D02*
X18536600Y-12110400D01*
X18536600Y-12070400D02*
X18496600Y-12110400D01*
X18699800Y-10216200D02*
X18739800Y-10256200D01*
X18739800Y-10216200D02*
X18699800Y-10256200D01*
X18801400Y-10114600D02*
X18841400Y-10154600D01*
X18841400Y-10114600D02*
X18801400Y-10154600D01*
X18940300Y-9389900D02*
X18980300Y-9429900D01*
X18980300Y-9389900D02*
X18940300Y-9429900D01*
X19309400Y-9809800D02*
X19349400Y-9849800D01*
X19349400Y-9809800D02*
X19309400Y-9849800D01*
X19497525Y-9393075D02*
X19537525Y-9433075D01*
X19537525Y-9393075D02*
X19497525Y-9433075D01*
X19741200Y-10190800D02*
X19781200Y-10230800D01*
X19781200Y-10190800D02*
X19741200Y-10230800D01*
X19817400Y-10063800D02*
X19857400Y-10103800D01*
X19857400Y-10063800D02*
X19817400Y-10103800D01*
X19934075Y-9393075D02*
X19974075Y-9433075D01*
X19974075Y-9393075D02*
X19934075Y-9433075D01*
X20020600Y-12706700D02*
X20060600Y-12746700D01*
X20060600Y-12706700D02*
X20020600Y-12746700D01*
X20065100Y-12954400D02*
X20105100Y-12994400D01*
X20105100Y-12954400D02*
X20065100Y-12994400D01*
X20096800Y-12070400D02*
X20136800Y-12110400D01*
X20136800Y-12070400D02*
X20096800Y-12110400D01*
X20122200Y-12324400D02*
X20162200Y-12364400D01*
X20162200Y-12324400D02*
X20122200Y-12364400D01*
X20147600Y-12859100D02*
X20187600Y-12899100D01*
X20187600Y-12859100D02*
X20147600Y-12899100D01*
X20198400Y-11994200D02*
X20238400Y-12034200D01*
X20238400Y-11994200D02*
X20198400Y-12034200D01*
X20198400Y-12222800D02*
X20238400Y-12262800D01*
X20238400Y-12222800D02*
X20198400Y-12262800D01*
X20211100Y-12592400D02*
X20251100Y-12632400D01*
X20251100Y-12592400D02*
X20211100Y-12632400D01*
X20300000Y-9809800D02*
X20340000Y-9849800D01*
X20340000Y-9809800D02*
X20300000Y-9849800D01*
X20496050Y-9385150D02*
X20536050Y-9425150D01*
X20536050Y-9385150D02*
X20496050Y-9425150D01*
X20706400Y-10165400D02*
X20746400Y-10205400D01*
X20746400Y-10165400D02*
X20706400Y-10205400D01*
X20757200Y-12045000D02*
X20797200Y-12085000D01*
X20797200Y-12045000D02*
X20757200Y-12085000D01*
X20782600Y-10063800D02*
X20822600Y-10103800D01*
X20822600Y-10063800D02*
X20782600Y-10103800D01*
X20927850Y-9385150D02*
X20967850Y-9425150D01*
X20967850Y-9385150D02*
X20927850Y-9425150D01*
X21087400Y-11892600D02*
X21127400Y-11932600D01*
X21127400Y-11892600D02*
X21087400Y-11932600D01*
X21189000Y-12273600D02*
X21229000Y-12313600D01*
X21229000Y-12273600D02*
X21189000Y-12313600D01*
X21341400Y-9784400D02*
X21381400Y-9824400D01*
X21381400Y-9784400D02*
X21341400Y-9824400D01*
X21512050Y-9385150D02*
X21552050Y-9425150D01*
X21552050Y-9385150D02*
X21512050Y-9425150D01*
X21722400Y-10063800D02*
X21762400Y-10103800D01*
X21762400Y-10063800D02*
X21722400Y-10103800D01*
X21798600Y-10165400D02*
X21838600Y-10205400D01*
X21838600Y-10165400D02*
X21798600Y-10205400D01*
X21921625Y-9381975D02*
X21961625Y-9421975D01*
X21961625Y-9381975D02*
X21921625Y-9421975D01*
X22306600Y-9784400D02*
X22346600Y-9824400D01*
X22346600Y-9784400D02*
X22306600Y-9824400D01*
X22505825Y-9381975D02*
X22545825Y-9421975D01*
X22545825Y-9381975D02*
X22505825Y-9421975D01*
X22662200Y-10089200D02*
X22702200Y-10129200D01*
X22702200Y-10089200D02*
X22662200Y-10129200D01*
X22713000Y-11613200D02*
X22753000Y-11653200D01*
X22753000Y-11613200D02*
X22713000Y-11653200D01*
X22763800Y-10165400D02*
X22803800Y-10205400D01*
X22803800Y-10165400D02*
X22763800Y-10205400D01*
X22814600Y-12934000D02*
X22854600Y-12974000D01*
X22854600Y-12934000D02*
X22814600Y-12974000D01*
X22916200Y-9378000D02*
X22956200Y-9418000D01*
X22956200Y-9378000D02*
X22916200Y-9418000D01*
X23246400Y-12730800D02*
X23286400Y-12770800D01*
X23286400Y-12730800D02*
X23246400Y-12770800D01*
X23348000Y-9809800D02*
X23388000Y-9849800D01*
X23388000Y-9809800D02*
X23348000Y-9849800D01*
D13*
X22082200Y-10553700D02*
G75*
G03*
X22082200Y-10553700I-35000J0D01*
G01*
X22082200Y-12407900D02*
G75*
G03*
X22082200Y-12407900I-35000J0D01*
G01*
X22336200Y-10553700D02*
G75*
G03*
X22336200Y-10553700I-35000J0D01*
G01*
X22336200Y-12407900D02*
G75*
G03*
X22336200Y-12407900I-35000J0D01*
G01*
X23149000Y-10553700D02*
G75*
G03*
X23149000Y-10553700I-35000J0D01*
G01*
X23149000Y-12407900D02*
G75*
G03*
X23149000Y-12407900I-35000J0D01*
G01*
X23403000Y-10553700D02*
G75*
G03*
X23403000Y-10553700I-35000J0D01*
G01*
X23403000Y-12407900D02*
G75*
G03*
X23403000Y-12407900I-35000J0D01*
G01*
D14*
X16594200Y-13465300D02*
X16594200Y-13560300D01*
X16546700Y-13512800D02*
X16641700Y-13512800D01*
X16844200Y-13465300D02*
X16844200Y-13560300D01*
X16796700Y-13512800D02*
X16891700Y-13512800D01*
X17094200Y-13465300D02*
X17094200Y-13560300D01*
X17046700Y-13512800D02*
X17141700Y-13512800D01*
X17344200Y-13465300D02*
X17344200Y-13560300D01*
X17296700Y-13512800D02*
X17391700Y-13512800D01*
X18014600Y-13463600D02*
X18014600Y-13558600D01*
X17967100Y-13511100D02*
X18062100Y-13511100D01*
X18264600Y-13463600D02*
X18264600Y-13558600D01*
X18217100Y-13511100D02*
X18312100Y-13511100D01*
X18514600Y-13463600D02*
X18514600Y-13558600D01*
X18467100Y-13511100D02*
X18562100Y-13511100D01*
X18764600Y-13463600D02*
X18764600Y-13558600D01*
X18717100Y-13511100D02*
X18812100Y-13511100D01*
X19642200Y-13466600D02*
X19642200Y-13561600D01*
X19594700Y-13514100D02*
X19689700Y-13514100D01*
X19892200Y-13466600D02*
X19892200Y-13561600D01*
X19844700Y-13514100D02*
X19939700Y-13514100D01*
X20142200Y-13466600D02*
X20142200Y-13561600D01*
X20094700Y-13514100D02*
X20189700Y-13514100D01*
X20392200Y-13466600D02*
X20392200Y-13561600D01*
X20344700Y-13514100D02*
X20439700Y-13514100D01*
X21062600Y-13464900D02*
X21062600Y-13559900D01*
X21015100Y-13512400D02*
X21110100Y-13512400D01*
X21312600Y-13464900D02*
X21312600Y-13559900D01*
X21265100Y-13512400D02*
X21360100Y-13512400D01*
X21562600Y-13464900D02*
X21562600Y-13559900D01*
X21515100Y-13512400D02*
X21610100Y-13512400D01*
X21812600Y-13464900D02*
X21812600Y-13559900D01*
X21765100Y-13512400D02*
X21860100Y-13512400D01*
D15*
X16189756Y-10703356D02*
X16189756Y-10632644D01*
X16119044Y-10632644D01*
X16119044Y-10703356D01*
X16189756Y-10703356D01*
D16*
X12649200Y-11154800D02*
X12704200Y-11099800D01*
X12649200Y-11044800D01*
X12594200Y-11099800D01*
X12649200Y-11154800D01*
X12649200Y-11408800D02*
X12704200Y-11353800D01*
X12649200Y-11298800D01*
X12594200Y-11353800D01*
X12649200Y-11408800D01*
X12649200Y-11662800D02*
X12704200Y-11607800D01*
X12649200Y-11552800D01*
X12594200Y-11607800D01*
X12649200Y-11662800D01*
X12649200Y-11916800D02*
X12704200Y-11861800D01*
X12649200Y-11806800D01*
X12594200Y-11861800D01*
X12649200Y-11916800D01*
X12649200Y-12170800D02*
X12704200Y-12115800D01*
X12649200Y-12060800D01*
X12594200Y-12115800D01*
X12649200Y-12170800D01*
X12649200Y-12424800D02*
X12704200Y-12369800D01*
X12649200Y-12314800D01*
X12594200Y-12369800D01*
X12649200Y-12424800D01*
X12649200Y-12678800D02*
X12704200Y-12623800D01*
X12649200Y-12568800D01*
X12594200Y-12623800D01*
X12649200Y-12678800D01*
X12649200Y-12932800D02*
X12704200Y-12877800D01*
X12649200Y-12822800D01*
X12594200Y-12877800D01*
X12649200Y-12932800D01*
X12649200Y-13186800D02*
X12704200Y-13131800D01*
X12649200Y-13076800D01*
X12594200Y-13131800D01*
X12649200Y-13186800D01*
X12649200Y-13440800D02*
X12704200Y-13385800D01*
X12649200Y-13330800D01*
X12594200Y-13385800D01*
X12649200Y-13440800D01*
X12649200Y-13694800D02*
X12704200Y-13639800D01*
X12649200Y-13584800D01*
X12594200Y-13639800D01*
X12649200Y-13694800D01*
X12649200Y-13948800D02*
X12704200Y-13893800D01*
X12649200Y-13838800D01*
X12594200Y-13893800D01*
X12649200Y-13948800D01*
X14173200Y-11154800D02*
X14228200Y-11099800D01*
X14173200Y-11044800D01*
X14118200Y-11099800D01*
X14173200Y-11154800D01*
X14173200Y-11408800D02*
X14228200Y-11353800D01*
X14173200Y-11298800D01*
X14118200Y-11353800D01*
X14173200Y-11408800D01*
X14173200Y-11662800D02*
X14228200Y-11607800D01*
X14173200Y-11552800D01*
X14118200Y-11607800D01*
X14173200Y-11662800D01*
X14173200Y-11916800D02*
X14228200Y-11861800D01*
X14173200Y-11806800D01*
X14118200Y-11861800D01*
X14173200Y-11916800D01*
X14173200Y-12170800D02*
X14228200Y-12115800D01*
X14173200Y-12060800D01*
X14118200Y-12115800D01*
X14173200Y-12170800D01*
X14173200Y-12424800D02*
X14228200Y-12369800D01*
X14173200Y-12314800D01*
X14118200Y-12369800D01*
X14173200Y-12424800D01*
X14173200Y-12678800D02*
X14228200Y-12623800D01*
X14173200Y-12568800D01*
X14118200Y-12623800D01*
X14173200Y-12678800D01*
X14173200Y-12932800D02*
X14228200Y-12877800D01*
X14173200Y-12822800D01*
X14118200Y-12877800D01*
X14173200Y-12932800D01*
X14173200Y-13186800D02*
X14228200Y-13131800D01*
X14173200Y-13076800D01*
X14118200Y-13131800D01*
X14173200Y-13186800D01*
X14173200Y-13440800D02*
X14228200Y-13385800D01*
X14173200Y-13330800D01*
X14118200Y-13385800D01*
X14173200Y-13440800D01*
X14173200Y-13694800D02*
X14228200Y-13639800D01*
X14173200Y-13584800D01*
X14118200Y-13639800D01*
X14173200Y-13694800D01*
X14173200Y-13948800D02*
X14228200Y-13893800D01*
X14173200Y-13838800D01*
X14118200Y-13893800D01*
X14173200Y-13948800D01*
D17*
X14771200Y-13495000D02*
X14901200Y-13625000D01*
X14901200Y-13495000D02*
X14771200Y-13625000D01*
X14901200Y-13560000D02*
G75*
G03*
X14901200Y-13560000I-65000J0D01*
G01*
X15271200Y-13495000D02*
X15401200Y-13625000D01*
X15401200Y-13495000D02*
X15271200Y-13625000D01*
X15401200Y-13560000D02*
G75*
G03*
X15401200Y-13560000I-65000J0D01*
G01*
X22464800Y-13498600D02*
X22594800Y-13628600D01*
X22594800Y-13498600D02*
X22464800Y-13628600D01*
X22594800Y-13563600D02*
G75*
G03*
X22594800Y-13563600I-65000J0D01*
G01*
X22964800Y-13498600D02*
X23094800Y-13628600D01*
X23094800Y-13498600D02*
X22964800Y-13628600D01*
X23094800Y-13563600D02*
G75*
G03*
X23094800Y-13563600I-65000J0D01*
G01*
D11*
X11978619Y-14391303D02*
X11978619Y-14191303D01*
X12026238Y-14191303D01*
X12054809Y-14200827D01*
X12073857Y-14219874D01*
X12083381Y-14238922D01*
X12092905Y-14277017D01*
X12092905Y-14305589D01*
X12083381Y-14343684D01*
X12073857Y-14362731D01*
X12054809Y-14381779D01*
X12026238Y-14391303D01*
X11978619Y-14391303D01*
X12178619Y-14391303D02*
X12178619Y-14257969D01*
X12178619Y-14296065D02*
X12188143Y-14277017D01*
X12197667Y-14267493D01*
X12216714Y-14257969D01*
X12235762Y-14257969D01*
X12302428Y-14391303D02*
X12302428Y-14257969D01*
X12302428Y-14191303D02*
X12292905Y-14200827D01*
X12302428Y-14210350D01*
X12311952Y-14200827D01*
X12302428Y-14191303D01*
X12302428Y-14210350D01*
X12426238Y-14391303D02*
X12407190Y-14381779D01*
X12397667Y-14362731D01*
X12397667Y-14191303D01*
X12531000Y-14391303D02*
X12511952Y-14381779D01*
X12502428Y-14362731D01*
X12502428Y-14191303D01*
X12759571Y-14391303D02*
X12759571Y-14191303D01*
X12826238Y-14334160D01*
X12892905Y-14191303D01*
X12892905Y-14391303D01*
X13073857Y-14391303D02*
X13073857Y-14286541D01*
X13064333Y-14267493D01*
X13045286Y-14257969D01*
X13007190Y-14257969D01*
X12988143Y-14267493D01*
X13073857Y-14381779D02*
X13054809Y-14391303D01*
X13007190Y-14391303D01*
X12988143Y-14381779D01*
X12978619Y-14362731D01*
X12978619Y-14343684D01*
X12988143Y-14324636D01*
X13007190Y-14315112D01*
X13054809Y-14315112D01*
X13073857Y-14305589D01*
X13169095Y-14257969D02*
X13169095Y-14457969D01*
X13169095Y-14267493D02*
X13188143Y-14257969D01*
X13226238Y-14257969D01*
X13245286Y-14267493D01*
X13254809Y-14277017D01*
X13264333Y-14296065D01*
X13264333Y-14353208D01*
X13254809Y-14372255D01*
X13245286Y-14381779D01*
X13226238Y-14391303D01*
X13188143Y-14391303D01*
X13169095Y-14381779D01*
X13350048Y-14372255D02*
X13359571Y-14381779D01*
X13350048Y-14391303D01*
X13340524Y-14381779D01*
X13350048Y-14372255D01*
X13350048Y-14391303D01*
X13350048Y-14267493D02*
X13359571Y-14277017D01*
X13350048Y-14286541D01*
X13340524Y-14277017D01*
X13350048Y-14267493D01*
X13350048Y-14286541D01*
D12*
X11681000Y-14700827D02*
X11721000Y-14740827D01*
X11721000Y-14700827D02*
X11681000Y-14740827D01*
D11*
X12016714Y-14611303D02*
X12035762Y-14611303D01*
X12054809Y-14620827D01*
X12064333Y-14630350D01*
X12073857Y-14649398D01*
X12083381Y-14687493D01*
X12083381Y-14735112D01*
X12073857Y-14773208D01*
X12064333Y-14792255D01*
X12054809Y-14801779D01*
X12035762Y-14811303D01*
X12016714Y-14811303D01*
X11997667Y-14801779D01*
X11988143Y-14792255D01*
X11978619Y-14773208D01*
X11969095Y-14735112D01*
X11969095Y-14687493D01*
X11978619Y-14649398D01*
X11988143Y-14630350D01*
X11997667Y-14620827D01*
X12016714Y-14611303D01*
X12169095Y-14792255D02*
X12178619Y-14801779D01*
X12169095Y-14811303D01*
X12159571Y-14801779D01*
X12169095Y-14792255D01*
X12169095Y-14811303D01*
X12350048Y-14677969D02*
X12350048Y-14811303D01*
X12302428Y-14601779D02*
X12254809Y-14744636D01*
X12378619Y-14744636D01*
X12492905Y-14611303D02*
X12511952Y-14611303D01*
X12531000Y-14620827D01*
X12540524Y-14630350D01*
X12550048Y-14649398D01*
X12559571Y-14687493D01*
X12559571Y-14735112D01*
X12550048Y-14773208D01*
X12540524Y-14792255D01*
X12531000Y-14801779D01*
X12511952Y-14811303D01*
X12492905Y-14811303D01*
X12473857Y-14801779D01*
X12464333Y-14792255D01*
X12454809Y-14773208D01*
X12445286Y-14735112D01*
X12445286Y-14687493D01*
X12454809Y-14649398D01*
X12464333Y-14630350D01*
X12473857Y-14620827D01*
X12492905Y-14611303D01*
X12683381Y-14611303D02*
X12702428Y-14611303D01*
X12721476Y-14620827D01*
X12731000Y-14630350D01*
X12740524Y-14649398D01*
X12750048Y-14687493D01*
X12750048Y-14735112D01*
X12740524Y-14773208D01*
X12731000Y-14792255D01*
X12721476Y-14801779D01*
X12702428Y-14811303D01*
X12683381Y-14811303D01*
X12664333Y-14801779D01*
X12654809Y-14792255D01*
X12645286Y-14773208D01*
X12635762Y-14735112D01*
X12635762Y-14687493D01*
X12645286Y-14649398D01*
X12654809Y-14630350D01*
X12664333Y-14620827D01*
X12683381Y-14611303D01*
X12835762Y-14811303D02*
X12835762Y-14677969D01*
X12835762Y-14697017D02*
X12845286Y-14687493D01*
X12864333Y-14677969D01*
X12892905Y-14677969D01*
X12911952Y-14687493D01*
X12921476Y-14706541D01*
X12921476Y-14811303D01*
X12921476Y-14706541D02*
X12931000Y-14687493D01*
X12950048Y-14677969D01*
X12978619Y-14677969D01*
X12997667Y-14687493D01*
X13007190Y-14706541D01*
X13007190Y-14811303D01*
X13102428Y-14811303D02*
X13102428Y-14677969D01*
X13102428Y-14697017D02*
X13111952Y-14687493D01*
X13131000Y-14677969D01*
X13159571Y-14677969D01*
X13178619Y-14687493D01*
X13188143Y-14706541D01*
X13188143Y-14811303D01*
X13188143Y-14706541D02*
X13197667Y-14687493D01*
X13216714Y-14677969D01*
X13245286Y-14677969D01*
X13264333Y-14687493D01*
X13273857Y-14706541D01*
X13273857Y-14811303D01*
X13664333Y-14601779D02*
X13492905Y-14858922D01*
X13921476Y-14611303D02*
X13940524Y-14611303D01*
X13959571Y-14620827D01*
X13969095Y-14630350D01*
X13978619Y-14649398D01*
X13988143Y-14687493D01*
X13988143Y-14735112D01*
X13978619Y-14773208D01*
X13969095Y-14792255D01*
X13959571Y-14801779D01*
X13940524Y-14811303D01*
X13921476Y-14811303D01*
X13902428Y-14801779D01*
X13892905Y-14792255D01*
X13883381Y-14773208D01*
X13873857Y-14735112D01*
X13873857Y-14687493D01*
X13883381Y-14649398D01*
X13892905Y-14630350D01*
X13902428Y-14620827D01*
X13921476Y-14611303D01*
X14073857Y-14792255D02*
X14083381Y-14801779D01*
X14073857Y-14811303D01*
X14064333Y-14801779D01*
X14073857Y-14792255D01*
X14073857Y-14811303D01*
X14207190Y-14611303D02*
X14226238Y-14611303D01*
X14245286Y-14620827D01*
X14254809Y-14630350D01*
X14264333Y-14649398D01*
X14273857Y-14687493D01*
X14273857Y-14735112D01*
X14264333Y-14773208D01*
X14254809Y-14792255D01*
X14245286Y-14801779D01*
X14226238Y-14811303D01*
X14207190Y-14811303D01*
X14188143Y-14801779D01*
X14178619Y-14792255D01*
X14169095Y-14773208D01*
X14159571Y-14735112D01*
X14159571Y-14687493D01*
X14169095Y-14649398D01*
X14178619Y-14630350D01*
X14188143Y-14620827D01*
X14207190Y-14611303D01*
X14464333Y-14811303D02*
X14350048Y-14811303D01*
X14407190Y-14811303D02*
X14407190Y-14611303D01*
X14388143Y-14639874D01*
X14369095Y-14658922D01*
X14350048Y-14668446D01*
X14645286Y-14611303D02*
X14550048Y-14611303D01*
X14540524Y-14706541D01*
X14550048Y-14697017D01*
X14569095Y-14687493D01*
X14616714Y-14687493D01*
X14635762Y-14697017D01*
X14645286Y-14706541D01*
X14654809Y-14725589D01*
X14654809Y-14773208D01*
X14645286Y-14792255D01*
X14635762Y-14801779D01*
X14616714Y-14811303D01*
X14569095Y-14811303D01*
X14550048Y-14801779D01*
X14540524Y-14792255D01*
X14721476Y-14611303D02*
X14854809Y-14611303D01*
X14769095Y-14811303D01*
X14921476Y-14611303D02*
X14921476Y-14649398D01*
X14997667Y-14611303D02*
X14997667Y-14649398D01*
X15292905Y-14887493D02*
X15283381Y-14877969D01*
X15264333Y-14849398D01*
X15254809Y-14830350D01*
X15245286Y-14801779D01*
X15235762Y-14754160D01*
X15235762Y-14716065D01*
X15245286Y-14668446D01*
X15254809Y-14639874D01*
X15264333Y-14620827D01*
X15283381Y-14592255D01*
X15292905Y-14582731D01*
X15378619Y-14811303D02*
X15416714Y-14811303D01*
X15435762Y-14801779D01*
X15445286Y-14792255D01*
X15464333Y-14763684D01*
X15473857Y-14725589D01*
X15473857Y-14649398D01*
X15464333Y-14630350D01*
X15454809Y-14620827D01*
X15435762Y-14611303D01*
X15397667Y-14611303D01*
X15378619Y-14620827D01*
X15369095Y-14630350D01*
X15359571Y-14649398D01*
X15359571Y-14697017D01*
X15369095Y-14716065D01*
X15378619Y-14725589D01*
X15397667Y-14735112D01*
X15435762Y-14735112D01*
X15454809Y-14725589D01*
X15464333Y-14716065D01*
X15473857Y-14697017D01*
X15569095Y-14811303D02*
X15607190Y-14811303D01*
X15626238Y-14801779D01*
X15635762Y-14792255D01*
X15654809Y-14763684D01*
X15664333Y-14725589D01*
X15664333Y-14649398D01*
X15654809Y-14630350D01*
X15645286Y-14620827D01*
X15626238Y-14611303D01*
X15588143Y-14611303D01*
X15569095Y-14620827D01*
X15559571Y-14630350D01*
X15550048Y-14649398D01*
X15550048Y-14697017D01*
X15559571Y-14716065D01*
X15569095Y-14725589D01*
X15588143Y-14735112D01*
X15626238Y-14735112D01*
X15645286Y-14725589D01*
X15654809Y-14716065D01*
X15664333Y-14697017D01*
X15902428Y-14811303D02*
X15902428Y-14611303D01*
X15988143Y-14811303D02*
X15988143Y-14706541D01*
X15978619Y-14687493D01*
X15959571Y-14677969D01*
X15931000Y-14677969D01*
X15911952Y-14687493D01*
X15902428Y-14697017D01*
X16111952Y-14811303D02*
X16092905Y-14801779D01*
X16083381Y-14792255D01*
X16073857Y-14773208D01*
X16073857Y-14716065D01*
X16083381Y-14697017D01*
X16092905Y-14687493D01*
X16111952Y-14677969D01*
X16140524Y-14677969D01*
X16159571Y-14687493D01*
X16169095Y-14697017D01*
X16178619Y-14716065D01*
X16178619Y-14773208D01*
X16169095Y-14792255D01*
X16159571Y-14801779D01*
X16140524Y-14811303D01*
X16111952Y-14811303D01*
X16292905Y-14811303D02*
X16273857Y-14801779D01*
X16264333Y-14782731D01*
X16264333Y-14611303D01*
X16445286Y-14801779D02*
X16426238Y-14811303D01*
X16388143Y-14811303D01*
X16369095Y-14801779D01*
X16359571Y-14782731D01*
X16359571Y-14706541D01*
X16369095Y-14687493D01*
X16388143Y-14677969D01*
X16426238Y-14677969D01*
X16445286Y-14687493D01*
X16454809Y-14706541D01*
X16454809Y-14725589D01*
X16359571Y-14744636D01*
X16531000Y-14801779D02*
X16550048Y-14811303D01*
X16588143Y-14811303D01*
X16607190Y-14801779D01*
X16616714Y-14782731D01*
X16616714Y-14773208D01*
X16607190Y-14754160D01*
X16588143Y-14744636D01*
X16559571Y-14744636D01*
X16540524Y-14735112D01*
X16531000Y-14716065D01*
X16531000Y-14706541D01*
X16540524Y-14687493D01*
X16559571Y-14677969D01*
X16588143Y-14677969D01*
X16607190Y-14687493D01*
X16683381Y-14887493D02*
X16692905Y-14877969D01*
X16711952Y-14849398D01*
X16721476Y-14830350D01*
X16731000Y-14801779D01*
X16740524Y-14754160D01*
X16740524Y-14716065D01*
X16731000Y-14668446D01*
X16721476Y-14639874D01*
X16711952Y-14620827D01*
X16692905Y-14592255D01*
X16683381Y-14582731D01*
D13*
X11721000Y-14984827D02*
G75*
G03*
X11721000Y-14984827I-35000J0D01*
G01*
D11*
X12016714Y-14875303D02*
X12035762Y-14875303D01*
X12054809Y-14884827D01*
X12064333Y-14894350D01*
X12073857Y-14913398D01*
X12083381Y-14951493D01*
X12083381Y-14999112D01*
X12073857Y-15037208D01*
X12064333Y-15056255D01*
X12054809Y-15065779D01*
X12035762Y-15075303D01*
X12016714Y-15075303D01*
X11997667Y-15065779D01*
X11988143Y-15056255D01*
X11978619Y-15037208D01*
X11969095Y-14999112D01*
X11969095Y-14951493D01*
X11978619Y-14913398D01*
X11988143Y-14894350D01*
X11997667Y-14884827D01*
X12016714Y-14875303D01*
X12169095Y-15056255D02*
X12178619Y-15065779D01*
X12169095Y-15075303D01*
X12159571Y-15065779D01*
X12169095Y-15056255D01*
X12169095Y-15075303D01*
X12245286Y-14875303D02*
X12378619Y-14875303D01*
X12292905Y-15075303D01*
X12492905Y-14875303D02*
X12511952Y-14875303D01*
X12531000Y-14884827D01*
X12540524Y-14894350D01*
X12550048Y-14913398D01*
X12559571Y-14951493D01*
X12559571Y-14999112D01*
X12550048Y-15037208D01*
X12540524Y-15056255D01*
X12531000Y-15065779D01*
X12511952Y-15075303D01*
X12492905Y-15075303D01*
X12473857Y-15065779D01*
X12464333Y-15056255D01*
X12454809Y-15037208D01*
X12445286Y-14999112D01*
X12445286Y-14951493D01*
X12454809Y-14913398D01*
X12464333Y-14894350D01*
X12473857Y-14884827D01*
X12492905Y-14875303D01*
X12683381Y-14875303D02*
X12702428Y-14875303D01*
X12721476Y-14884827D01*
X12731000Y-14894350D01*
X12740524Y-14913398D01*
X12750048Y-14951493D01*
X12750048Y-14999112D01*
X12740524Y-15037208D01*
X12731000Y-15056255D01*
X12721476Y-15065779D01*
X12702428Y-15075303D01*
X12683381Y-15075303D01*
X12664333Y-15065779D01*
X12654809Y-15056255D01*
X12645286Y-15037208D01*
X12635762Y-14999112D01*
X12635762Y-14951493D01*
X12645286Y-14913398D01*
X12654809Y-14894350D01*
X12664333Y-14884827D01*
X12683381Y-14875303D01*
X12835762Y-15075303D02*
X12835762Y-14941969D01*
X12835762Y-14961017D02*
X12845286Y-14951493D01*
X12864333Y-14941969D01*
X12892905Y-14941969D01*
X12911952Y-14951493D01*
X12921476Y-14970541D01*
X12921476Y-15075303D01*
X12921476Y-14970541D02*
X12931000Y-14951493D01*
X12950048Y-14941969D01*
X12978619Y-14941969D01*
X12997667Y-14951493D01*
X13007190Y-14970541D01*
X13007190Y-15075303D01*
X13102428Y-15075303D02*
X13102428Y-14941969D01*
X13102428Y-14961017D02*
X13111952Y-14951493D01*
X13131000Y-14941969D01*
X13159571Y-14941969D01*
X13178619Y-14951493D01*
X13188143Y-14970541D01*
X13188143Y-15075303D01*
X13188143Y-14970541D02*
X13197667Y-14951493D01*
X13216714Y-14941969D01*
X13245286Y-14941969D01*
X13264333Y-14951493D01*
X13273857Y-14970541D01*
X13273857Y-15075303D01*
X13664333Y-14865779D02*
X13492905Y-15122922D01*
X13921476Y-14875303D02*
X13940524Y-14875303D01*
X13959571Y-14884827D01*
X13969095Y-14894350D01*
X13978619Y-14913398D01*
X13988143Y-14951493D01*
X13988143Y-14999112D01*
X13978619Y-15037208D01*
X13969095Y-15056255D01*
X13959571Y-15065779D01*
X13940524Y-15075303D01*
X13921476Y-15075303D01*
X13902428Y-15065779D01*
X13892905Y-15056255D01*
X13883381Y-15037208D01*
X13873857Y-14999112D01*
X13873857Y-14951493D01*
X13883381Y-14913398D01*
X13892905Y-14894350D01*
X13902428Y-14884827D01*
X13921476Y-14875303D01*
X14073857Y-15056255D02*
X14083381Y-15065779D01*
X14073857Y-15075303D01*
X14064333Y-15065779D01*
X14073857Y-15056255D01*
X14073857Y-15075303D01*
X14207190Y-14875303D02*
X14226238Y-14875303D01*
X14245286Y-14884827D01*
X14254809Y-14894350D01*
X14264333Y-14913398D01*
X14273857Y-14951493D01*
X14273857Y-14999112D01*
X14264333Y-15037208D01*
X14254809Y-15056255D01*
X14245286Y-15065779D01*
X14226238Y-15075303D01*
X14207190Y-15075303D01*
X14188143Y-15065779D01*
X14178619Y-15056255D01*
X14169095Y-15037208D01*
X14159571Y-14999112D01*
X14159571Y-14951493D01*
X14169095Y-14913398D01*
X14178619Y-14894350D01*
X14188143Y-14884827D01*
X14207190Y-14875303D01*
X14350048Y-14894350D02*
X14359571Y-14884827D01*
X14378619Y-14875303D01*
X14426238Y-14875303D01*
X14445286Y-14884827D01*
X14454809Y-14894350D01*
X14464333Y-14913398D01*
X14464333Y-14932446D01*
X14454809Y-14961017D01*
X14340524Y-15075303D01*
X14464333Y-15075303D01*
X14531000Y-14875303D02*
X14664333Y-14875303D01*
X14578619Y-15075303D01*
X14826238Y-14875303D02*
X14788143Y-14875303D01*
X14769095Y-14884827D01*
X14759571Y-14894350D01*
X14740524Y-14922922D01*
X14731000Y-14961017D01*
X14731000Y-15037208D01*
X14740524Y-15056255D01*
X14750048Y-15065779D01*
X14769095Y-15075303D01*
X14807190Y-15075303D01*
X14826238Y-15065779D01*
X14835762Y-15056255D01*
X14845286Y-15037208D01*
X14845286Y-14989589D01*
X14835762Y-14970541D01*
X14826238Y-14961017D01*
X14807190Y-14951493D01*
X14769095Y-14951493D01*
X14750048Y-14961017D01*
X14740524Y-14970541D01*
X14731000Y-14989589D01*
X14921476Y-14875303D02*
X14921476Y-14913398D01*
X14997667Y-14875303D02*
X14997667Y-14913398D01*
X15292905Y-15151493D02*
X15283381Y-15141969D01*
X15264333Y-15113398D01*
X15254809Y-15094350D01*
X15245286Y-15065779D01*
X15235762Y-15018160D01*
X15235762Y-14980065D01*
X15245286Y-14932446D01*
X15254809Y-14903874D01*
X15264333Y-14884827D01*
X15283381Y-14856255D01*
X15292905Y-14846731D01*
X15397667Y-14961017D02*
X15378619Y-14951493D01*
X15369095Y-14941969D01*
X15359571Y-14922922D01*
X15359571Y-14913398D01*
X15369095Y-14894350D01*
X15378619Y-14884827D01*
X15397667Y-14875303D01*
X15435762Y-14875303D01*
X15454809Y-14884827D01*
X15464333Y-14894350D01*
X15473857Y-14913398D01*
X15473857Y-14922922D01*
X15464333Y-14941969D01*
X15454809Y-14951493D01*
X15435762Y-14961017D01*
X15397667Y-14961017D01*
X15378619Y-14970541D01*
X15369095Y-14980065D01*
X15359571Y-14999112D01*
X15359571Y-15037208D01*
X15369095Y-15056255D01*
X15378619Y-15065779D01*
X15397667Y-15075303D01*
X15435762Y-15075303D01*
X15454809Y-15065779D01*
X15464333Y-15056255D01*
X15473857Y-15037208D01*
X15473857Y-14999112D01*
X15464333Y-14980065D01*
X15454809Y-14970541D01*
X15435762Y-14961017D01*
X15711952Y-15075303D02*
X15711952Y-14875303D01*
X15797667Y-15075303D02*
X15797667Y-14970541D01*
X15788143Y-14951493D01*
X15769095Y-14941969D01*
X15740524Y-14941969D01*
X15721476Y-14951493D01*
X15711952Y-14961017D01*
X15921476Y-15075303D02*
X15902428Y-15065779D01*
X15892905Y-15056255D01*
X15883381Y-15037208D01*
X15883381Y-14980065D01*
X15892905Y-14961017D01*
X15902428Y-14951493D01*
X15921476Y-14941969D01*
X15950048Y-14941969D01*
X15969095Y-14951493D01*
X15978619Y-14961017D01*
X15988143Y-14980065D01*
X15988143Y-15037208D01*
X15978619Y-15056255D01*
X15969095Y-15065779D01*
X15950048Y-15075303D01*
X15921476Y-15075303D01*
X16102428Y-15075303D02*
X16083381Y-15065779D01*
X16073857Y-15046731D01*
X16073857Y-14875303D01*
X16254809Y-15065779D02*
X16235762Y-15075303D01*
X16197667Y-15075303D01*
X16178619Y-15065779D01*
X16169095Y-15046731D01*
X16169095Y-14970541D01*
X16178619Y-14951493D01*
X16197667Y-14941969D01*
X16235762Y-14941969D01*
X16254809Y-14951493D01*
X16264333Y-14970541D01*
X16264333Y-14989589D01*
X16169095Y-15008636D01*
X16340524Y-15065779D02*
X16359571Y-15075303D01*
X16397667Y-15075303D01*
X16416714Y-15065779D01*
X16426238Y-15046731D01*
X16426238Y-15037208D01*
X16416714Y-15018160D01*
X16397667Y-15008636D01*
X16369095Y-15008636D01*
X16350048Y-14999112D01*
X16340524Y-14980065D01*
X16340524Y-14970541D01*
X16350048Y-14951493D01*
X16369095Y-14941969D01*
X16397667Y-14941969D01*
X16416714Y-14951493D01*
X16492905Y-15151493D02*
X16502428Y-15141969D01*
X16521476Y-15113398D01*
X16531000Y-15094350D01*
X16540524Y-15065779D01*
X16550048Y-15018160D01*
X16550048Y-14980065D01*
X16540524Y-14932446D01*
X16531000Y-14903874D01*
X16521476Y-14884827D01*
X16502428Y-14856255D01*
X16492905Y-14846731D01*
D14*
X11673500Y-15201327D02*
X11673500Y-15296327D01*
X11626000Y-15248827D02*
X11721000Y-15248827D01*
D11*
X12016714Y-15139303D02*
X12035762Y-15139303D01*
X12054809Y-15148827D01*
X12064333Y-15158350D01*
X12073857Y-15177398D01*
X12083381Y-15215493D01*
X12083381Y-15263112D01*
X12073857Y-15301208D01*
X12064333Y-15320255D01*
X12054809Y-15329779D01*
X12035762Y-15339303D01*
X12016714Y-15339303D01*
X11997667Y-15329779D01*
X11988143Y-15320255D01*
X11978619Y-15301208D01*
X11969095Y-15263112D01*
X11969095Y-15215493D01*
X11978619Y-15177398D01*
X11988143Y-15158350D01*
X11997667Y-15148827D01*
X12016714Y-15139303D01*
X12169095Y-15320255D02*
X12178619Y-15329779D01*
X12169095Y-15339303D01*
X12159571Y-15329779D01*
X12169095Y-15320255D01*
X12169095Y-15339303D01*
X12273857Y-15339303D02*
X12311952Y-15339303D01*
X12331000Y-15329779D01*
X12340524Y-15320255D01*
X12359571Y-15291684D01*
X12369095Y-15253589D01*
X12369095Y-15177398D01*
X12359571Y-15158350D01*
X12350048Y-15148827D01*
X12331000Y-15139303D01*
X12292905Y-15139303D01*
X12273857Y-15148827D01*
X12264333Y-15158350D01*
X12254809Y-15177398D01*
X12254809Y-15225017D01*
X12264333Y-15244065D01*
X12273857Y-15253589D01*
X12292905Y-15263112D01*
X12331000Y-15263112D01*
X12350048Y-15253589D01*
X12359571Y-15244065D01*
X12369095Y-15225017D01*
X12550048Y-15139303D02*
X12454809Y-15139303D01*
X12445286Y-15234541D01*
X12454809Y-15225017D01*
X12473857Y-15215493D01*
X12521476Y-15215493D01*
X12540524Y-15225017D01*
X12550048Y-15234541D01*
X12559571Y-15253589D01*
X12559571Y-15301208D01*
X12550048Y-15320255D01*
X12540524Y-15329779D01*
X12521476Y-15339303D01*
X12473857Y-15339303D01*
X12454809Y-15329779D01*
X12445286Y-15320255D01*
X12683381Y-15139303D02*
X12702428Y-15139303D01*
X12721476Y-15148827D01*
X12731000Y-15158350D01*
X12740524Y-15177398D01*
X12750048Y-15215493D01*
X12750048Y-15263112D01*
X12740524Y-15301208D01*
X12731000Y-15320255D01*
X12721476Y-15329779D01*
X12702428Y-15339303D01*
X12683381Y-15339303D01*
X12664333Y-15329779D01*
X12654809Y-15320255D01*
X12645286Y-15301208D01*
X12635762Y-15263112D01*
X12635762Y-15215493D01*
X12645286Y-15177398D01*
X12654809Y-15158350D01*
X12664333Y-15148827D01*
X12683381Y-15139303D01*
X12835762Y-15339303D02*
X12835762Y-15205969D01*
X12835762Y-15225017D02*
X12845286Y-15215493D01*
X12864333Y-15205969D01*
X12892905Y-15205969D01*
X12911952Y-15215493D01*
X12921476Y-15234541D01*
X12921476Y-15339303D01*
X12921476Y-15234541D02*
X12931000Y-15215493D01*
X12950048Y-15205969D01*
X12978619Y-15205969D01*
X12997667Y-15215493D01*
X13007190Y-15234541D01*
X13007190Y-15339303D01*
X13102428Y-15339303D02*
X13102428Y-15205969D01*
X13102428Y-15225017D02*
X13111952Y-15215493D01*
X13131000Y-15205969D01*
X13159571Y-15205969D01*
X13178619Y-15215493D01*
X13188143Y-15234541D01*
X13188143Y-15339303D01*
X13188143Y-15234541D02*
X13197667Y-15215493D01*
X13216714Y-15205969D01*
X13245286Y-15205969D01*
X13264333Y-15215493D01*
X13273857Y-15234541D01*
X13273857Y-15339303D01*
X13664333Y-15129779D02*
X13492905Y-15386922D01*
X13921476Y-15139303D02*
X13940524Y-15139303D01*
X13959571Y-15148827D01*
X13969095Y-15158350D01*
X13978619Y-15177398D01*
X13988143Y-15215493D01*
X13988143Y-15263112D01*
X13978619Y-15301208D01*
X13969095Y-15320255D01*
X13959571Y-15329779D01*
X13940524Y-15339303D01*
X13921476Y-15339303D01*
X13902428Y-15329779D01*
X13892905Y-15320255D01*
X13883381Y-15301208D01*
X13873857Y-15263112D01*
X13873857Y-15215493D01*
X13883381Y-15177398D01*
X13892905Y-15158350D01*
X13902428Y-15148827D01*
X13921476Y-15139303D01*
X14073857Y-15320255D02*
X14083381Y-15329779D01*
X14073857Y-15339303D01*
X14064333Y-15329779D01*
X14073857Y-15320255D01*
X14073857Y-15339303D01*
X14207190Y-15139303D02*
X14226238Y-15139303D01*
X14245286Y-15148827D01*
X14254809Y-15158350D01*
X14264333Y-15177398D01*
X14273857Y-15215493D01*
X14273857Y-15263112D01*
X14264333Y-15301208D01*
X14254809Y-15320255D01*
X14245286Y-15329779D01*
X14226238Y-15339303D01*
X14207190Y-15339303D01*
X14188143Y-15329779D01*
X14178619Y-15320255D01*
X14169095Y-15301208D01*
X14159571Y-15263112D01*
X14159571Y-15215493D01*
X14169095Y-15177398D01*
X14178619Y-15158350D01*
X14188143Y-15148827D01*
X14207190Y-15139303D01*
X14340524Y-15139303D02*
X14464333Y-15139303D01*
X14397667Y-15215493D01*
X14426238Y-15215493D01*
X14445286Y-15225017D01*
X14454809Y-15234541D01*
X14464333Y-15253589D01*
X14464333Y-15301208D01*
X14454809Y-15320255D01*
X14445286Y-15329779D01*
X14426238Y-15339303D01*
X14369095Y-15339303D01*
X14350048Y-15329779D01*
X14340524Y-15320255D01*
X14531000Y-15139303D02*
X14664333Y-15139303D01*
X14578619Y-15339303D01*
X14826238Y-15205969D02*
X14826238Y-15339303D01*
X14778619Y-15129779D02*
X14731000Y-15272636D01*
X14854809Y-15272636D01*
X14921476Y-15139303D02*
X14921476Y-15177398D01*
X14997667Y-15139303D02*
X14997667Y-15177398D01*
X15292905Y-15415493D02*
X15283381Y-15405969D01*
X15264333Y-15377398D01*
X15254809Y-15358350D01*
X15245286Y-15329779D01*
X15235762Y-15282160D01*
X15235762Y-15244065D01*
X15245286Y-15196446D01*
X15254809Y-15167874D01*
X15264333Y-15148827D01*
X15283381Y-15120255D01*
X15292905Y-15110731D01*
X15473857Y-15339303D02*
X15359571Y-15339303D01*
X15416714Y-15339303D02*
X15416714Y-15139303D01*
X15397667Y-15167874D01*
X15378619Y-15186922D01*
X15359571Y-15196446D01*
X15645286Y-15139303D02*
X15607190Y-15139303D01*
X15588143Y-15148827D01*
X15578619Y-15158350D01*
X15559571Y-15186922D01*
X15550048Y-15225017D01*
X15550048Y-15301208D01*
X15559571Y-15320255D01*
X15569095Y-15329779D01*
X15588143Y-15339303D01*
X15626238Y-15339303D01*
X15645286Y-15329779D01*
X15654809Y-15320255D01*
X15664333Y-15301208D01*
X15664333Y-15253589D01*
X15654809Y-15234541D01*
X15645286Y-15225017D01*
X15626238Y-15215493D01*
X15588143Y-15215493D01*
X15569095Y-15225017D01*
X15559571Y-15234541D01*
X15550048Y-15253589D01*
X15902428Y-15339303D02*
X15902428Y-15139303D01*
X15988143Y-15339303D02*
X15988143Y-15234541D01*
X15978619Y-15215493D01*
X15959571Y-15205969D01*
X15931000Y-15205969D01*
X15911952Y-15215493D01*
X15902428Y-15225017D01*
X16111952Y-15339303D02*
X16092905Y-15329779D01*
X16083381Y-15320255D01*
X16073857Y-15301208D01*
X16073857Y-15244065D01*
X16083381Y-15225017D01*
X16092905Y-15215493D01*
X16111952Y-15205969D01*
X16140524Y-15205969D01*
X16159571Y-15215493D01*
X16169095Y-15225017D01*
X16178619Y-15244065D01*
X16178619Y-15301208D01*
X16169095Y-15320255D01*
X16159571Y-15329779D01*
X16140524Y-15339303D01*
X16111952Y-15339303D01*
X16292905Y-15339303D02*
X16273857Y-15329779D01*
X16264333Y-15310731D01*
X16264333Y-15139303D01*
X16445286Y-15329779D02*
X16426238Y-15339303D01*
X16388143Y-15339303D01*
X16369095Y-15329779D01*
X16359571Y-15310731D01*
X16359571Y-15234541D01*
X16369095Y-15215493D01*
X16388143Y-15205969D01*
X16426238Y-15205969D01*
X16445286Y-15215493D01*
X16454809Y-15234541D01*
X16454809Y-15253589D01*
X16359571Y-15272636D01*
X16531000Y-15329779D02*
X16550048Y-15339303D01*
X16588143Y-15339303D01*
X16607190Y-15329779D01*
X16616714Y-15310731D01*
X16616714Y-15301208D01*
X16607190Y-15282160D01*
X16588143Y-15272636D01*
X16559571Y-15272636D01*
X16540524Y-15263112D01*
X16531000Y-15244065D01*
X16531000Y-15234541D01*
X16540524Y-15215493D01*
X16559571Y-15205969D01*
X16588143Y-15205969D01*
X16607190Y-15215493D01*
X16683381Y-15415493D02*
X16692905Y-15405969D01*
X16711952Y-15377398D01*
X16721476Y-15358350D01*
X16731000Y-15329779D01*
X16740524Y-15282160D01*
X16740524Y-15244065D01*
X16731000Y-15196446D01*
X16721476Y-15167874D01*
X16711952Y-15148827D01*
X16692905Y-15120255D01*
X16683381Y-15110731D01*
D15*
X11706356Y-15548182D02*
X11706356Y-15477471D01*
X11635644Y-15477471D01*
X11635644Y-15548182D01*
X11706356Y-15548182D01*
D11*
X12083381Y-15603303D02*
X11969095Y-15603303D01*
X12026238Y-15603303D02*
X12026238Y-15403303D01*
X12007190Y-15431874D01*
X11988143Y-15450922D01*
X11969095Y-15460446D01*
X12169095Y-15584255D02*
X12178619Y-15593779D01*
X12169095Y-15603303D01*
X12159571Y-15593779D01*
X12169095Y-15584255D01*
X12169095Y-15603303D01*
X12302428Y-15403303D02*
X12321476Y-15403303D01*
X12340524Y-15412827D01*
X12350048Y-15422350D01*
X12359571Y-15441398D01*
X12369095Y-15479493D01*
X12369095Y-15527112D01*
X12359571Y-15565208D01*
X12350048Y-15584255D01*
X12340524Y-15593779D01*
X12321476Y-15603303D01*
X12302428Y-15603303D01*
X12283381Y-15593779D01*
X12273857Y-15584255D01*
X12264333Y-15565208D01*
X12254809Y-15527112D01*
X12254809Y-15479493D01*
X12264333Y-15441398D01*
X12273857Y-15422350D01*
X12283381Y-15412827D01*
X12302428Y-15403303D01*
X12492905Y-15403303D02*
X12511952Y-15403303D01*
X12531000Y-15412827D01*
X12540524Y-15422350D01*
X12550048Y-15441398D01*
X12559571Y-15479493D01*
X12559571Y-15527112D01*
X12550048Y-15565208D01*
X12540524Y-15584255D01*
X12531000Y-15593779D01*
X12511952Y-15603303D01*
X12492905Y-15603303D01*
X12473857Y-15593779D01*
X12464333Y-15584255D01*
X12454809Y-15565208D01*
X12445286Y-15527112D01*
X12445286Y-15479493D01*
X12454809Y-15441398D01*
X12464333Y-15422350D01*
X12473857Y-15412827D01*
X12492905Y-15403303D01*
X12683381Y-15403303D02*
X12702428Y-15403303D01*
X12721476Y-15412827D01*
X12731000Y-15422350D01*
X12740524Y-15441398D01*
X12750048Y-15479493D01*
X12750048Y-15527112D01*
X12740524Y-15565208D01*
X12731000Y-15584255D01*
X12721476Y-15593779D01*
X12702428Y-15603303D01*
X12683381Y-15603303D01*
X12664333Y-15593779D01*
X12654809Y-15584255D01*
X12645286Y-15565208D01*
X12635762Y-15527112D01*
X12635762Y-15479493D01*
X12645286Y-15441398D01*
X12654809Y-15422350D01*
X12664333Y-15412827D01*
X12683381Y-15403303D01*
X12835762Y-15603303D02*
X12835762Y-15469969D01*
X12835762Y-15489017D02*
X12845286Y-15479493D01*
X12864333Y-15469969D01*
X12892905Y-15469969D01*
X12911952Y-15479493D01*
X12921476Y-15498541D01*
X12921476Y-15603303D01*
X12921476Y-15498541D02*
X12931000Y-15479493D01*
X12950048Y-15469969D01*
X12978619Y-15469969D01*
X12997667Y-15479493D01*
X13007190Y-15498541D01*
X13007190Y-15603303D01*
X13102428Y-15603303D02*
X13102428Y-15469969D01*
X13102428Y-15489017D02*
X13111952Y-15479493D01*
X13131000Y-15469969D01*
X13159571Y-15469969D01*
X13178619Y-15479493D01*
X13188143Y-15498541D01*
X13188143Y-15603303D01*
X13188143Y-15498541D02*
X13197667Y-15479493D01*
X13216714Y-15469969D01*
X13245286Y-15469969D01*
X13264333Y-15479493D01*
X13273857Y-15498541D01*
X13273857Y-15603303D01*
X13664333Y-15393779D02*
X13492905Y-15650922D01*
X13921476Y-15403303D02*
X13940524Y-15403303D01*
X13959571Y-15412827D01*
X13969095Y-15422350D01*
X13978619Y-15441398D01*
X13988143Y-15479493D01*
X13988143Y-15527112D01*
X13978619Y-15565208D01*
X13969095Y-15584255D01*
X13959571Y-15593779D01*
X13940524Y-15603303D01*
X13921476Y-15603303D01*
X13902428Y-15593779D01*
X13892905Y-15584255D01*
X13883381Y-15565208D01*
X13873857Y-15527112D01*
X13873857Y-15479493D01*
X13883381Y-15441398D01*
X13892905Y-15422350D01*
X13902428Y-15412827D01*
X13921476Y-15403303D01*
X14073857Y-15584255D02*
X14083381Y-15593779D01*
X14073857Y-15603303D01*
X14064333Y-15593779D01*
X14073857Y-15584255D01*
X14073857Y-15603303D01*
X14207190Y-15403303D02*
X14226238Y-15403303D01*
X14245286Y-15412827D01*
X14254809Y-15422350D01*
X14264333Y-15441398D01*
X14273857Y-15479493D01*
X14273857Y-15527112D01*
X14264333Y-15565208D01*
X14254809Y-15584255D01*
X14245286Y-15593779D01*
X14226238Y-15603303D01*
X14207190Y-15603303D01*
X14188143Y-15593779D01*
X14178619Y-15584255D01*
X14169095Y-15565208D01*
X14159571Y-15527112D01*
X14159571Y-15479493D01*
X14169095Y-15441398D01*
X14178619Y-15422350D01*
X14188143Y-15412827D01*
X14207190Y-15403303D01*
X14340524Y-15403303D02*
X14464333Y-15403303D01*
X14397667Y-15479493D01*
X14426238Y-15479493D01*
X14445286Y-15489017D01*
X14454809Y-15498541D01*
X14464333Y-15517589D01*
X14464333Y-15565208D01*
X14454809Y-15584255D01*
X14445286Y-15593779D01*
X14426238Y-15603303D01*
X14369095Y-15603303D01*
X14350048Y-15593779D01*
X14340524Y-15584255D01*
X14559571Y-15603303D02*
X14597667Y-15603303D01*
X14616714Y-15593779D01*
X14626238Y-15584255D01*
X14645286Y-15555684D01*
X14654809Y-15517589D01*
X14654809Y-15441398D01*
X14645286Y-15422350D01*
X14635762Y-15412827D01*
X14616714Y-15403303D01*
X14578619Y-15403303D01*
X14559571Y-15412827D01*
X14550048Y-15422350D01*
X14540524Y-15441398D01*
X14540524Y-15489017D01*
X14550048Y-15508065D01*
X14559571Y-15517589D01*
X14578619Y-15527112D01*
X14616714Y-15527112D01*
X14635762Y-15517589D01*
X14645286Y-15508065D01*
X14654809Y-15489017D01*
X14826238Y-15469969D02*
X14826238Y-15603303D01*
X14778619Y-15393779D02*
X14731000Y-15536636D01*
X14854809Y-15536636D01*
X14921476Y-15403303D02*
X14921476Y-15441398D01*
X14997667Y-15403303D02*
X14997667Y-15441398D01*
X15292905Y-15679493D02*
X15283381Y-15669969D01*
X15264333Y-15641398D01*
X15254809Y-15622350D01*
X15245286Y-15593779D01*
X15235762Y-15546160D01*
X15235762Y-15508065D01*
X15245286Y-15460446D01*
X15254809Y-15431874D01*
X15264333Y-15412827D01*
X15283381Y-15384255D01*
X15292905Y-15374731D01*
X15473857Y-15603303D02*
X15359571Y-15603303D01*
X15416714Y-15603303D02*
X15416714Y-15403303D01*
X15397667Y-15431874D01*
X15378619Y-15450922D01*
X15359571Y-15460446D01*
X15711952Y-15603303D02*
X15711952Y-15403303D01*
X15797667Y-15603303D02*
X15797667Y-15498541D01*
X15788143Y-15479493D01*
X15769095Y-15469969D01*
X15740524Y-15469969D01*
X15721476Y-15479493D01*
X15711952Y-15489017D01*
X15921476Y-15603303D02*
X15902428Y-15593779D01*
X15892905Y-15584255D01*
X15883381Y-15565208D01*
X15883381Y-15508065D01*
X15892905Y-15489017D01*
X15902428Y-15479493D01*
X15921476Y-15469969D01*
X15950048Y-15469969D01*
X15969095Y-15479493D01*
X15978619Y-15489017D01*
X15988143Y-15508065D01*
X15988143Y-15565208D01*
X15978619Y-15584255D01*
X15969095Y-15593779D01*
X15950048Y-15603303D01*
X15921476Y-15603303D01*
X16102428Y-15603303D02*
X16083381Y-15593779D01*
X16073857Y-15574731D01*
X16073857Y-15403303D01*
X16254809Y-15593779D02*
X16235762Y-15603303D01*
X16197667Y-15603303D01*
X16178619Y-15593779D01*
X16169095Y-15574731D01*
X16169095Y-15498541D01*
X16178619Y-15479493D01*
X16197667Y-15469969D01*
X16235762Y-15469969D01*
X16254809Y-15479493D01*
X16264333Y-15498541D01*
X16264333Y-15517589D01*
X16169095Y-15536636D01*
X16331000Y-15679493D02*
X16340524Y-15669969D01*
X16359571Y-15641398D01*
X16369095Y-15622350D01*
X16378619Y-15593779D01*
X16388143Y-15546160D01*
X16388143Y-15508065D01*
X16378619Y-15460446D01*
X16369095Y-15431874D01*
X16359571Y-15412827D01*
X16340524Y-15384255D01*
X16331000Y-15374731D01*
D16*
X11666000Y-15831827D02*
X11721000Y-15776827D01*
X11666000Y-15721827D01*
X11611000Y-15776827D01*
X11666000Y-15831827D01*
D11*
X12083381Y-15867303D02*
X11969095Y-15867303D01*
X12026238Y-15867303D02*
X12026238Y-15667303D01*
X12007190Y-15695874D01*
X11988143Y-15714922D01*
X11969095Y-15724446D01*
X12169095Y-15848255D02*
X12178619Y-15857779D01*
X12169095Y-15867303D01*
X12159571Y-15857779D01*
X12169095Y-15848255D01*
X12169095Y-15867303D01*
X12369095Y-15867303D02*
X12254809Y-15867303D01*
X12311952Y-15867303D02*
X12311952Y-15667303D01*
X12292905Y-15695874D01*
X12273857Y-15714922D01*
X12254809Y-15724446D01*
X12492905Y-15667303D02*
X12511952Y-15667303D01*
X12531000Y-15676827D01*
X12540524Y-15686350D01*
X12550048Y-15705398D01*
X12559571Y-15743493D01*
X12559571Y-15791112D01*
X12550048Y-15829208D01*
X12540524Y-15848255D01*
X12531000Y-15857779D01*
X12511952Y-15867303D01*
X12492905Y-15867303D01*
X12473857Y-15857779D01*
X12464333Y-15848255D01*
X12454809Y-15829208D01*
X12445286Y-15791112D01*
X12445286Y-15743493D01*
X12454809Y-15705398D01*
X12464333Y-15686350D01*
X12473857Y-15676827D01*
X12492905Y-15667303D01*
X12683381Y-15667303D02*
X12702428Y-15667303D01*
X12721476Y-15676827D01*
X12731000Y-15686350D01*
X12740524Y-15705398D01*
X12750048Y-15743493D01*
X12750048Y-15791112D01*
X12740524Y-15829208D01*
X12731000Y-15848255D01*
X12721476Y-15857779D01*
X12702428Y-15867303D01*
X12683381Y-15867303D01*
X12664333Y-15857779D01*
X12654809Y-15848255D01*
X12645286Y-15829208D01*
X12635762Y-15791112D01*
X12635762Y-15743493D01*
X12645286Y-15705398D01*
X12654809Y-15686350D01*
X12664333Y-15676827D01*
X12683381Y-15667303D01*
X12835762Y-15867303D02*
X12835762Y-15733969D01*
X12835762Y-15753017D02*
X12845286Y-15743493D01*
X12864333Y-15733969D01*
X12892905Y-15733969D01*
X12911952Y-15743493D01*
X12921476Y-15762541D01*
X12921476Y-15867303D01*
X12921476Y-15762541D02*
X12931000Y-15743493D01*
X12950048Y-15733969D01*
X12978619Y-15733969D01*
X12997667Y-15743493D01*
X13007190Y-15762541D01*
X13007190Y-15867303D01*
X13102428Y-15867303D02*
X13102428Y-15733969D01*
X13102428Y-15753017D02*
X13111952Y-15743493D01*
X13131000Y-15733969D01*
X13159571Y-15733969D01*
X13178619Y-15743493D01*
X13188143Y-15762541D01*
X13188143Y-15867303D01*
X13188143Y-15762541D02*
X13197667Y-15743493D01*
X13216714Y-15733969D01*
X13245286Y-15733969D01*
X13264333Y-15743493D01*
X13273857Y-15762541D01*
X13273857Y-15867303D01*
X13664333Y-15657779D02*
X13492905Y-15914922D01*
X13921476Y-15667303D02*
X13940524Y-15667303D01*
X13959571Y-15676827D01*
X13969095Y-15686350D01*
X13978619Y-15705398D01*
X13988143Y-15743493D01*
X13988143Y-15791112D01*
X13978619Y-15829208D01*
X13969095Y-15848255D01*
X13959571Y-15857779D01*
X13940524Y-15867303D01*
X13921476Y-15867303D01*
X13902428Y-15857779D01*
X13892905Y-15848255D01*
X13883381Y-15829208D01*
X13873857Y-15791112D01*
X13873857Y-15743493D01*
X13883381Y-15705398D01*
X13892905Y-15686350D01*
X13902428Y-15676827D01*
X13921476Y-15667303D01*
X14073857Y-15848255D02*
X14083381Y-15857779D01*
X14073857Y-15867303D01*
X14064333Y-15857779D01*
X14073857Y-15848255D01*
X14073857Y-15867303D01*
X14207190Y-15667303D02*
X14226238Y-15667303D01*
X14245286Y-15676827D01*
X14254809Y-15686350D01*
X14264333Y-15705398D01*
X14273857Y-15743493D01*
X14273857Y-15791112D01*
X14264333Y-15829208D01*
X14254809Y-15848255D01*
X14245286Y-15857779D01*
X14226238Y-15867303D01*
X14207190Y-15867303D01*
X14188143Y-15857779D01*
X14178619Y-15848255D01*
X14169095Y-15829208D01*
X14159571Y-15791112D01*
X14159571Y-15743493D01*
X14169095Y-15705398D01*
X14178619Y-15686350D01*
X14188143Y-15676827D01*
X14207190Y-15667303D01*
X14445286Y-15733969D02*
X14445286Y-15867303D01*
X14397667Y-15657779D02*
X14350048Y-15800636D01*
X14473857Y-15800636D01*
X14531000Y-15667303D02*
X14654809Y-15667303D01*
X14588143Y-15743493D01*
X14616714Y-15743493D01*
X14635762Y-15753017D01*
X14645286Y-15762541D01*
X14654809Y-15781589D01*
X14654809Y-15829208D01*
X14645286Y-15848255D01*
X14635762Y-15857779D01*
X14616714Y-15867303D01*
X14559571Y-15867303D01*
X14540524Y-15857779D01*
X14531000Y-15848255D01*
X14721476Y-15667303D02*
X14845286Y-15667303D01*
X14778619Y-15743493D01*
X14807190Y-15743493D01*
X14826238Y-15753017D01*
X14835762Y-15762541D01*
X14845286Y-15781589D01*
X14845286Y-15829208D01*
X14835762Y-15848255D01*
X14826238Y-15857779D01*
X14807190Y-15867303D01*
X14750048Y-15867303D01*
X14731000Y-15857779D01*
X14721476Y-15848255D01*
X14921476Y-15667303D02*
X14921476Y-15705398D01*
X14997667Y-15667303D02*
X14997667Y-15705398D01*
X15292905Y-15943493D02*
X15283381Y-15933969D01*
X15264333Y-15905398D01*
X15254809Y-15886350D01*
X15245286Y-15857779D01*
X15235762Y-15810160D01*
X15235762Y-15772065D01*
X15245286Y-15724446D01*
X15254809Y-15695874D01*
X15264333Y-15676827D01*
X15283381Y-15648255D01*
X15292905Y-15638731D01*
X15359571Y-15686350D02*
X15369095Y-15676827D01*
X15388143Y-15667303D01*
X15435762Y-15667303D01*
X15454809Y-15676827D01*
X15464333Y-15686350D01*
X15473857Y-15705398D01*
X15473857Y-15724446D01*
X15464333Y-15753017D01*
X15350048Y-15867303D01*
X15473857Y-15867303D01*
X15645286Y-15733969D02*
X15645286Y-15867303D01*
X15597667Y-15657779D02*
X15550048Y-15800636D01*
X15673857Y-15800636D01*
X15902428Y-15867303D02*
X15902428Y-15667303D01*
X15988143Y-15867303D02*
X15988143Y-15762541D01*
X15978619Y-15743493D01*
X15959571Y-15733969D01*
X15931000Y-15733969D01*
X15911952Y-15743493D01*
X15902428Y-15753017D01*
X16111952Y-15867303D02*
X16092905Y-15857779D01*
X16083381Y-15848255D01*
X16073857Y-15829208D01*
X16073857Y-15772065D01*
X16083381Y-15753017D01*
X16092905Y-15743493D01*
X16111952Y-15733969D01*
X16140524Y-15733969D01*
X16159571Y-15743493D01*
X16169095Y-15753017D01*
X16178619Y-15772065D01*
X16178619Y-15829208D01*
X16169095Y-15848255D01*
X16159571Y-15857779D01*
X16140524Y-15867303D01*
X16111952Y-15867303D01*
X16292905Y-15867303D02*
X16273857Y-15857779D01*
X16264333Y-15838731D01*
X16264333Y-15667303D01*
X16445286Y-15857779D02*
X16426238Y-15867303D01*
X16388143Y-15867303D01*
X16369095Y-15857779D01*
X16359571Y-15838731D01*
X16359571Y-15762541D01*
X16369095Y-15743493D01*
X16388143Y-15733969D01*
X16426238Y-15733969D01*
X16445286Y-15743493D01*
X16454809Y-15762541D01*
X16454809Y-15781589D01*
X16359571Y-15800636D01*
X16531000Y-15857779D02*
X16550048Y-15867303D01*
X16588143Y-15867303D01*
X16607190Y-15857779D01*
X16616714Y-15838731D01*
X16616714Y-15829208D01*
X16607190Y-15810160D01*
X16588143Y-15800636D01*
X16559571Y-15800636D01*
X16540524Y-15791112D01*
X16531000Y-15772065D01*
X16531000Y-15762541D01*
X16540524Y-15743493D01*
X16559571Y-15733969D01*
X16588143Y-15733969D01*
X16607190Y-15743493D01*
X16683381Y-15943493D02*
X16692905Y-15933969D01*
X16711952Y-15905398D01*
X16721476Y-15886350D01*
X16731000Y-15857779D01*
X16740524Y-15810160D01*
X16740524Y-15772065D01*
X16731000Y-15724446D01*
X16721476Y-15695874D01*
X16711952Y-15676827D01*
X16692905Y-15648255D01*
X16683381Y-15638731D01*
D17*
X11591000Y-15975827D02*
X11721000Y-16105827D01*
X11721000Y-15975827D02*
X11591000Y-16105827D01*
X11721000Y-16040827D02*
G75*
G03*
X11721000Y-16040827I-65000J0D01*
G01*
D11*
X12083381Y-16131303D02*
X11969095Y-16131303D01*
X12026238Y-16131303D02*
X12026238Y-15931303D01*
X12007190Y-15959874D01*
X11988143Y-15978922D01*
X11969095Y-15988446D01*
X12169095Y-16112255D02*
X12178619Y-16121779D01*
X12169095Y-16131303D01*
X12159571Y-16121779D01*
X12169095Y-16112255D01*
X12169095Y-16131303D01*
X12245286Y-15931303D02*
X12369095Y-15931303D01*
X12302428Y-16007493D01*
X12331000Y-16007493D01*
X12350048Y-16017017D01*
X12359571Y-16026541D01*
X12369095Y-16045589D01*
X12369095Y-16093208D01*
X12359571Y-16112255D01*
X12350048Y-16121779D01*
X12331000Y-16131303D01*
X12273857Y-16131303D01*
X12254809Y-16121779D01*
X12245286Y-16112255D01*
X12492905Y-15931303D02*
X12511952Y-15931303D01*
X12531000Y-15940827D01*
X12540524Y-15950350D01*
X12550048Y-15969398D01*
X12559571Y-16007493D01*
X12559571Y-16055112D01*
X12550048Y-16093208D01*
X12540524Y-16112255D01*
X12531000Y-16121779D01*
X12511952Y-16131303D01*
X12492905Y-16131303D01*
X12473857Y-16121779D01*
X12464333Y-16112255D01*
X12454809Y-16093208D01*
X12445286Y-16055112D01*
X12445286Y-16007493D01*
X12454809Y-15969398D01*
X12464333Y-15950350D01*
X12473857Y-15940827D01*
X12492905Y-15931303D01*
X12683381Y-15931303D02*
X12702428Y-15931303D01*
X12721476Y-15940827D01*
X12731000Y-15950350D01*
X12740524Y-15969398D01*
X12750048Y-16007493D01*
X12750048Y-16055112D01*
X12740524Y-16093208D01*
X12731000Y-16112255D01*
X12721476Y-16121779D01*
X12702428Y-16131303D01*
X12683381Y-16131303D01*
X12664333Y-16121779D01*
X12654809Y-16112255D01*
X12645286Y-16093208D01*
X12635762Y-16055112D01*
X12635762Y-16007493D01*
X12645286Y-15969398D01*
X12654809Y-15950350D01*
X12664333Y-15940827D01*
X12683381Y-15931303D01*
X12835762Y-16131303D02*
X12835762Y-15997969D01*
X12835762Y-16017017D02*
X12845286Y-16007493D01*
X12864333Y-15997969D01*
X12892905Y-15997969D01*
X12911952Y-16007493D01*
X12921476Y-16026541D01*
X12921476Y-16131303D01*
X12921476Y-16026541D02*
X12931000Y-16007493D01*
X12950048Y-15997969D01*
X12978619Y-15997969D01*
X12997667Y-16007493D01*
X13007190Y-16026541D01*
X13007190Y-16131303D01*
X13102428Y-16131303D02*
X13102428Y-15997969D01*
X13102428Y-16017017D02*
X13111952Y-16007493D01*
X13131000Y-15997969D01*
X13159571Y-15997969D01*
X13178619Y-16007493D01*
X13188143Y-16026541D01*
X13188143Y-16131303D01*
X13188143Y-16026541D02*
X13197667Y-16007493D01*
X13216714Y-15997969D01*
X13245286Y-15997969D01*
X13264333Y-16007493D01*
X13273857Y-16026541D01*
X13273857Y-16131303D01*
X13664333Y-15921779D02*
X13492905Y-16178922D01*
X13921476Y-15931303D02*
X13940524Y-15931303D01*
X13959571Y-15940827D01*
X13969095Y-15950350D01*
X13978619Y-15969398D01*
X13988143Y-16007493D01*
X13988143Y-16055112D01*
X13978619Y-16093208D01*
X13969095Y-16112255D01*
X13959571Y-16121779D01*
X13940524Y-16131303D01*
X13921476Y-16131303D01*
X13902428Y-16121779D01*
X13892905Y-16112255D01*
X13883381Y-16093208D01*
X13873857Y-16055112D01*
X13873857Y-16007493D01*
X13883381Y-15969398D01*
X13892905Y-15950350D01*
X13902428Y-15940827D01*
X13921476Y-15931303D01*
X14073857Y-16112255D02*
X14083381Y-16121779D01*
X14073857Y-16131303D01*
X14064333Y-16121779D01*
X14073857Y-16112255D01*
X14073857Y-16131303D01*
X14207190Y-15931303D02*
X14226238Y-15931303D01*
X14245286Y-15940827D01*
X14254809Y-15950350D01*
X14264333Y-15969398D01*
X14273857Y-16007493D01*
X14273857Y-16055112D01*
X14264333Y-16093208D01*
X14254809Y-16112255D01*
X14245286Y-16121779D01*
X14226238Y-16131303D01*
X14207190Y-16131303D01*
X14188143Y-16121779D01*
X14178619Y-16112255D01*
X14169095Y-16093208D01*
X14159571Y-16055112D01*
X14159571Y-16007493D01*
X14169095Y-15969398D01*
X14178619Y-15950350D01*
X14188143Y-15940827D01*
X14207190Y-15931303D01*
X14454809Y-15931303D02*
X14359571Y-15931303D01*
X14350048Y-16026541D01*
X14359571Y-16017017D01*
X14378619Y-16007493D01*
X14426238Y-16007493D01*
X14445286Y-16017017D01*
X14454809Y-16026541D01*
X14464333Y-16045589D01*
X14464333Y-16093208D01*
X14454809Y-16112255D01*
X14445286Y-16121779D01*
X14426238Y-16131303D01*
X14378619Y-16131303D01*
X14359571Y-16121779D01*
X14350048Y-16112255D01*
X14654809Y-16131303D02*
X14540524Y-16131303D01*
X14597667Y-16131303D02*
X14597667Y-15931303D01*
X14578619Y-15959874D01*
X14559571Y-15978922D01*
X14540524Y-15988446D01*
X14731000Y-15950350D02*
X14740524Y-15940827D01*
X14759571Y-15931303D01*
X14807190Y-15931303D01*
X14826238Y-15940827D01*
X14835762Y-15950350D01*
X14845286Y-15969398D01*
X14845286Y-15988446D01*
X14835762Y-16017017D01*
X14721476Y-16131303D01*
X14845286Y-16131303D01*
X14921476Y-15931303D02*
X14921476Y-15969398D01*
X14997667Y-15931303D02*
X14997667Y-15969398D01*
X15292905Y-16207493D02*
X15283381Y-16197969D01*
X15264333Y-16169398D01*
X15254809Y-16150350D01*
X15245286Y-16121779D01*
X15235762Y-16074160D01*
X15235762Y-16036065D01*
X15245286Y-15988446D01*
X15254809Y-15959874D01*
X15264333Y-15940827D01*
X15283381Y-15912255D01*
X15292905Y-15902731D01*
X15454809Y-15997969D02*
X15454809Y-16131303D01*
X15407190Y-15921779D02*
X15359571Y-16064636D01*
X15483381Y-16064636D01*
X15711952Y-16131303D02*
X15711952Y-15931303D01*
X15797667Y-16131303D02*
X15797667Y-16026541D01*
X15788143Y-16007493D01*
X15769095Y-15997969D01*
X15740524Y-15997969D01*
X15721476Y-16007493D01*
X15711952Y-16017017D01*
X15921476Y-16131303D02*
X15902428Y-16121779D01*
X15892905Y-16112255D01*
X15883381Y-16093208D01*
X15883381Y-16036065D01*
X15892905Y-16017017D01*
X15902428Y-16007493D01*
X15921476Y-15997969D01*
X15950048Y-15997969D01*
X15969095Y-16007493D01*
X15978619Y-16017017D01*
X15988143Y-16036065D01*
X15988143Y-16093208D01*
X15978619Y-16112255D01*
X15969095Y-16121779D01*
X15950048Y-16131303D01*
X15921476Y-16131303D01*
X16102428Y-16131303D02*
X16083381Y-16121779D01*
X16073857Y-16102731D01*
X16073857Y-15931303D01*
X16254809Y-16121779D02*
X16235762Y-16131303D01*
X16197667Y-16131303D01*
X16178619Y-16121779D01*
X16169095Y-16102731D01*
X16169095Y-16026541D01*
X16178619Y-16007493D01*
X16197667Y-15997969D01*
X16235762Y-15997969D01*
X16254809Y-16007493D01*
X16264333Y-16026541D01*
X16264333Y-16045589D01*
X16169095Y-16064636D01*
X16340524Y-16121779D02*
X16359571Y-16131303D01*
X16397667Y-16131303D01*
X16416714Y-16121779D01*
X16426238Y-16102731D01*
X16426238Y-16093208D01*
X16416714Y-16074160D01*
X16397667Y-16064636D01*
X16369095Y-16064636D01*
X16350048Y-16055112D01*
X16340524Y-16036065D01*
X16340524Y-16026541D01*
X16350048Y-16007493D01*
X16369095Y-15997969D01*
X16397667Y-15997969D01*
X16416714Y-16007493D01*
X16492905Y-16207493D02*
X16502428Y-16197969D01*
X16521476Y-16169398D01*
X16531000Y-16150350D01*
X16540524Y-16121779D01*
X16550048Y-16074160D01*
X16550048Y-16036065D01*
X16540524Y-15988446D01*
X16531000Y-15959874D01*
X16521476Y-15940827D01*
X16502428Y-15912255D01*
X16492905Y-15902731D01*
M02*
