%TF.GenerationSoftware,KiCad,Pcbnew,7.0.1*%
%TF.CreationDate,2024-03-03T21:16:05-05:00*%
%TF.ProjectId,SEM card breakout,53454d20-6361-4726-9420-627265616b6f,rev?*%
%TF.SameCoordinates,Original*%
%TF.FileFunction,Drillmap*%
%TF.FilePolarity,Positive*%
%FSLAX45Y45*%
G04 Gerber Fmt 4.5, Leading zero omitted, Abs format (unit mm)*
G04 Created by KiCad (PCBNEW 7.0.1) date 2024-03-03 21:16:05*
%MOMM*%
%LPD*%
G01*
G04 APERTURE LIST*
%ADD10C,0.100000*%
%ADD11C,0.200000*%
%ADD12C,0.040000*%
G04 APERTURE END LIST*
D10*
X0Y960120D02*
X0Y-29773880D01*
X25386000Y-33596880D02*
X25386000Y960120D01*
X24416000Y-33596880D02*
X25386000Y-33596880D01*
X5051160Y-29773880D02*
X5051160Y-33596880D01*
X0Y-29773880D02*
X5051160Y-29773880D01*
X24436440Y960120D02*
X25386000Y960120D01*
X5051160Y-33596880D02*
X7002000Y-33596880D01*
X6981560Y960120D02*
X0Y960120D01*
D11*
D12*
X7169840Y-574360D02*
X7209840Y-614360D01*
X7209840Y-574360D02*
X7169840Y-614360D01*
X7169840Y-1317310D02*
X7209840Y-1357310D01*
X7209840Y-1317310D02*
X7169840Y-1357310D01*
X7169840Y-33264160D02*
X7209840Y-33304160D01*
X7209840Y-33264160D02*
X7169840Y-33304160D01*
X7367960Y-1168720D02*
X7407960Y-1208720D01*
X7407960Y-1168720D02*
X7367960Y-1208720D01*
X7566080Y-574360D02*
X7606080Y-614360D01*
X7606080Y-574360D02*
X7566080Y-614360D01*
X7566080Y-1564960D02*
X7606080Y-1604960D01*
X7606080Y-1564960D02*
X7566080Y-1604960D01*
X7566080Y-33660400D02*
X7606080Y-33700400D01*
X7606080Y-33660400D02*
X7566080Y-33700400D01*
X7764200Y-1465900D02*
X7804200Y-1505900D01*
X7804200Y-1465900D02*
X7764200Y-1505900D01*
X7962320Y-574360D02*
X8002320Y-614360D01*
X8002320Y-574360D02*
X7962320Y-614360D01*
X7962320Y-1812610D02*
X8002320Y-1852610D01*
X8002320Y-1812610D02*
X7962320Y-1852610D01*
X7962320Y-33660400D02*
X8002320Y-33700400D01*
X8002320Y-33660400D02*
X7962320Y-33700400D01*
X8160440Y-1713550D02*
X8200440Y-1753550D01*
X8200440Y-1713550D02*
X8160440Y-1753550D01*
X8358560Y-574360D02*
X8398560Y-614360D01*
X8398560Y-574360D02*
X8358560Y-614360D01*
X8358560Y-2060260D02*
X8398560Y-2100260D01*
X8398560Y-2060260D02*
X8358560Y-2100260D01*
X8358560Y-33660400D02*
X8398560Y-33700400D01*
X8398560Y-33660400D02*
X8358560Y-33700400D01*
X8556680Y-1961200D02*
X8596680Y-2001200D01*
X8596680Y-1961200D02*
X8556680Y-2001200D01*
X8754800Y-574360D02*
X8794800Y-614360D01*
X8794800Y-574360D02*
X8754800Y-614360D01*
X8754800Y-2307910D02*
X8794800Y-2347910D01*
X8794800Y-2307910D02*
X8754800Y-2347910D01*
X8754800Y-33660400D02*
X8794800Y-33700400D01*
X8794800Y-33660400D02*
X8754800Y-33700400D01*
X8952920Y-2208850D02*
X8992920Y-2248850D01*
X8992920Y-2208850D02*
X8952920Y-2248850D01*
X9151040Y-574360D02*
X9191040Y-614360D01*
X9191040Y-574360D02*
X9151040Y-614360D01*
X9151040Y-2605090D02*
X9191040Y-2645090D01*
X9191040Y-2605090D02*
X9151040Y-2645090D01*
X9151040Y-33660400D02*
X9191040Y-33700400D01*
X9191040Y-33660400D02*
X9151040Y-33700400D01*
X9349160Y-2506030D02*
X9389160Y-2546030D01*
X9389160Y-2506030D02*
X9349160Y-2546030D01*
X9547280Y-574360D02*
X9587280Y-614360D01*
X9587280Y-574360D02*
X9547280Y-614360D01*
X9547280Y-2852740D02*
X9587280Y-2892740D01*
X9587280Y-2852740D02*
X9547280Y-2892740D01*
X9547280Y-33660400D02*
X9587280Y-33700400D01*
X9587280Y-33660400D02*
X9547280Y-33700400D01*
X9745400Y-2753680D02*
X9785400Y-2793680D01*
X9785400Y-2753680D02*
X9745400Y-2793680D01*
X9943520Y-574360D02*
X9983520Y-614360D01*
X9983520Y-574360D02*
X9943520Y-614360D01*
X9943520Y-3100390D02*
X9983520Y-3140390D01*
X9983520Y-3100390D02*
X9943520Y-3140390D01*
X9943520Y-33660400D02*
X9983520Y-33700400D01*
X9983520Y-33660400D02*
X9943520Y-33700400D01*
X10141640Y-3001330D02*
X10181640Y-3041330D01*
X10181640Y-3001330D02*
X10141640Y-3041330D01*
X10339760Y-574360D02*
X10379760Y-614360D01*
X10379760Y-574360D02*
X10339760Y-614360D01*
X10339760Y-3348040D02*
X10379760Y-3388040D01*
X10379760Y-3348040D02*
X10339760Y-3388040D01*
X10339760Y-33660400D02*
X10379760Y-33700400D01*
X10379760Y-33660400D02*
X10339760Y-33700400D01*
X10537880Y-3248980D02*
X10577880Y-3288980D01*
X10577880Y-3248980D02*
X10537880Y-3288980D01*
X10736000Y-574360D02*
X10776000Y-614360D01*
X10776000Y-574360D02*
X10736000Y-614360D01*
X10736000Y-3595690D02*
X10776000Y-3635690D01*
X10776000Y-3595690D02*
X10736000Y-3635690D01*
X10736000Y-33660400D02*
X10776000Y-33700400D01*
X10776000Y-33660400D02*
X10736000Y-33700400D01*
X10934120Y-3496630D02*
X10974120Y-3536630D01*
X10974120Y-3496630D02*
X10934120Y-3536630D01*
X11132240Y-574360D02*
X11172240Y-614360D01*
X11172240Y-574360D02*
X11132240Y-614360D01*
X11132240Y-3843340D02*
X11172240Y-3883340D01*
X11172240Y-3843340D02*
X11132240Y-3883340D01*
X11132240Y-33660400D02*
X11172240Y-33700400D01*
X11172240Y-33660400D02*
X11132240Y-33700400D01*
X11330360Y-3744280D02*
X11370360Y-3784280D01*
X11370360Y-3744280D02*
X11330360Y-3784280D01*
X11528480Y-574360D02*
X11568480Y-614360D01*
X11568480Y-574360D02*
X11528480Y-614360D01*
X11528480Y-4090990D02*
X11568480Y-4130990D01*
X11568480Y-4090990D02*
X11528480Y-4130990D01*
X11528480Y-33660400D02*
X11568480Y-33700400D01*
X11568480Y-33660400D02*
X11528480Y-33700400D01*
X11726600Y-3991930D02*
X11766600Y-4031930D01*
X11766600Y-3991930D02*
X11726600Y-4031930D01*
X11924720Y-574360D02*
X11964720Y-614360D01*
X11964720Y-574360D02*
X11924720Y-614360D01*
X11924720Y-4338640D02*
X11964720Y-4378640D01*
X11964720Y-4338640D02*
X11924720Y-4378640D01*
X11924720Y-33660400D02*
X11964720Y-33700400D01*
X11964720Y-33660400D02*
X11924720Y-33700400D01*
X12122840Y-4239580D02*
X12162840Y-4279580D01*
X12162840Y-4239580D02*
X12122840Y-4279580D01*
X12320960Y-574360D02*
X12360960Y-614360D01*
X12360960Y-574360D02*
X12320960Y-614360D01*
X12320960Y-4586290D02*
X12360960Y-4626290D01*
X12360960Y-4586290D02*
X12320960Y-4626290D01*
X12320960Y-33660400D02*
X12360960Y-33700400D01*
X12360960Y-33660400D02*
X12320960Y-33700400D01*
X12519080Y-4487230D02*
X12559080Y-4527230D01*
X12559080Y-4487230D02*
X12519080Y-4527230D01*
X12717200Y-574360D02*
X12757200Y-614360D01*
X12757200Y-574360D02*
X12717200Y-614360D01*
X12717200Y-4833940D02*
X12757200Y-4873940D01*
X12757200Y-4833940D02*
X12717200Y-4873940D01*
X12717200Y-33660400D02*
X12757200Y-33700400D01*
X12757200Y-33660400D02*
X12717200Y-33700400D01*
X12915320Y-4734880D02*
X12955320Y-4774880D01*
X12955320Y-4734880D02*
X12915320Y-4774880D01*
X13113440Y-574360D02*
X13153440Y-614360D01*
X13153440Y-574360D02*
X13113440Y-614360D01*
X13113440Y-5081590D02*
X13153440Y-5121590D01*
X13153440Y-5081590D02*
X13113440Y-5121590D01*
X13113440Y-33660400D02*
X13153440Y-33700400D01*
X13153440Y-33660400D02*
X13113440Y-33700400D01*
X13311560Y-4982530D02*
X13351560Y-5022530D01*
X13351560Y-4982530D02*
X13311560Y-5022530D01*
X13509680Y-574360D02*
X13549680Y-614360D01*
X13549680Y-574360D02*
X13509680Y-614360D01*
X13509680Y-5378770D02*
X13549680Y-5418770D01*
X13549680Y-5378770D02*
X13509680Y-5418770D01*
X13509680Y-33660400D02*
X13549680Y-33700400D01*
X13549680Y-33660400D02*
X13509680Y-33700400D01*
X13707800Y-5279710D02*
X13747800Y-5319710D01*
X13747800Y-5279710D02*
X13707800Y-5319710D01*
X13905920Y-574360D02*
X13945920Y-614360D01*
X13945920Y-574360D02*
X13905920Y-614360D01*
X13905920Y-5626420D02*
X13945920Y-5666420D01*
X13945920Y-5626420D02*
X13905920Y-5666420D01*
X13905920Y-33660400D02*
X13945920Y-33700400D01*
X13945920Y-33660400D02*
X13905920Y-33700400D01*
X14104040Y-5527360D02*
X14144040Y-5567360D01*
X14144040Y-5527360D02*
X14104040Y-5567360D01*
X14302160Y-574360D02*
X14342160Y-614360D01*
X14342160Y-574360D02*
X14302160Y-614360D01*
X14302160Y-5874070D02*
X14342160Y-5914070D01*
X14342160Y-5874070D02*
X14302160Y-5914070D01*
X14302160Y-33660400D02*
X14342160Y-33700400D01*
X14342160Y-33660400D02*
X14302160Y-33700400D01*
X14500280Y-5775010D02*
X14540280Y-5815010D01*
X14540280Y-5775010D02*
X14500280Y-5815010D01*
X14698400Y-574360D02*
X14738400Y-614360D01*
X14738400Y-574360D02*
X14698400Y-614360D01*
X14698400Y-6121720D02*
X14738400Y-6161720D01*
X14738400Y-6121720D02*
X14698400Y-6161720D01*
X14698400Y-33660400D02*
X14738400Y-33700400D01*
X14738400Y-33660400D02*
X14698400Y-33700400D01*
X14896520Y-6022660D02*
X14936520Y-6062660D01*
X14936520Y-6022660D02*
X14896520Y-6062660D01*
X15094640Y-574360D02*
X15134640Y-614360D01*
X15134640Y-574360D02*
X15094640Y-614360D01*
X15094640Y-6369370D02*
X15134640Y-6409370D01*
X15134640Y-6369370D02*
X15094640Y-6409370D01*
X15094640Y-33660400D02*
X15134640Y-33700400D01*
X15134640Y-33660400D02*
X15094640Y-33700400D01*
X15292760Y-6270310D02*
X15332760Y-6310310D01*
X15332760Y-6270310D02*
X15292760Y-6310310D01*
X15490880Y-574360D02*
X15530880Y-614360D01*
X15530880Y-574360D02*
X15490880Y-614360D01*
X15490880Y-6617020D02*
X15530880Y-6657020D01*
X15530880Y-6617020D02*
X15490880Y-6657020D01*
X15490880Y-33660400D02*
X15530880Y-33700400D01*
X15530880Y-33660400D02*
X15490880Y-33700400D01*
X15689000Y-6517960D02*
X15729000Y-6557960D01*
X15729000Y-6517960D02*
X15689000Y-6557960D01*
X15887120Y-574360D02*
X15927120Y-614360D01*
X15927120Y-574360D02*
X15887120Y-614360D01*
X15887120Y-6914200D02*
X15927120Y-6954200D01*
X15927120Y-6914200D02*
X15887120Y-6954200D01*
X15887120Y-33660400D02*
X15927120Y-33700400D01*
X15927120Y-33660400D02*
X15887120Y-33700400D01*
X16085240Y-6815140D02*
X16125240Y-6855140D01*
X16125240Y-6815140D02*
X16085240Y-6855140D01*
X16283360Y-574360D02*
X16323360Y-614360D01*
X16323360Y-574360D02*
X16283360Y-614360D01*
X16283360Y-7161850D02*
X16323360Y-7201850D01*
X16323360Y-7161850D02*
X16283360Y-7201850D01*
X16283360Y-33660400D02*
X16323360Y-33700400D01*
X16323360Y-33660400D02*
X16283360Y-33700400D01*
X16481480Y-7062790D02*
X16521480Y-7102790D01*
X16521480Y-7062790D02*
X16481480Y-7102790D01*
X16679600Y-574360D02*
X16719600Y-614360D01*
X16719600Y-574360D02*
X16679600Y-614360D01*
X16679600Y-7409500D02*
X16719600Y-7449500D01*
X16719600Y-7409500D02*
X16679600Y-7449500D01*
X16679600Y-33660400D02*
X16719600Y-33700400D01*
X16719600Y-33660400D02*
X16679600Y-33700400D01*
X16877720Y-7310440D02*
X16917720Y-7350440D01*
X16917720Y-7310440D02*
X16877720Y-7350440D01*
X17075840Y-574360D02*
X17115840Y-614360D01*
X17115840Y-574360D02*
X17075840Y-614360D01*
X17075840Y-8251510D02*
X17115840Y-8291510D01*
X17115840Y-8251510D02*
X17075840Y-8291510D01*
X17075840Y-33660400D02*
X17115840Y-33700400D01*
X17115840Y-33660400D02*
X17075840Y-33700400D01*
X17273960Y-8152450D02*
X17313960Y-8192450D01*
X17313960Y-8152450D02*
X17273960Y-8192450D01*
X17472080Y-574360D02*
X17512080Y-614360D01*
X17512080Y-574360D02*
X17472080Y-614360D01*
X17472080Y-8499160D02*
X17512080Y-8539160D01*
X17512080Y-8499160D02*
X17472080Y-8539160D01*
X17472080Y-33660400D02*
X17512080Y-33700400D01*
X17512080Y-33660400D02*
X17472080Y-33700400D01*
X17670200Y-8400100D02*
X17710200Y-8440100D01*
X17710200Y-8400100D02*
X17670200Y-8440100D01*
X17868320Y-574360D02*
X17908320Y-614360D01*
X17908320Y-574360D02*
X17868320Y-614360D01*
X17868320Y-8746810D02*
X17908320Y-8786810D01*
X17908320Y-8746810D02*
X17868320Y-8786810D01*
X17868320Y-33660400D02*
X17908320Y-33700400D01*
X17908320Y-33660400D02*
X17868320Y-33700400D01*
X18066440Y-8647750D02*
X18106440Y-8687750D01*
X18106440Y-8647750D02*
X18066440Y-8687750D01*
X18264560Y-574360D02*
X18304560Y-614360D01*
X18304560Y-574360D02*
X18264560Y-614360D01*
X18264560Y-8994460D02*
X18304560Y-9034460D01*
X18304560Y-8994460D02*
X18264560Y-9034460D01*
X18264560Y-33660400D02*
X18304560Y-33700400D01*
X18304560Y-33660400D02*
X18264560Y-33700400D01*
X18462680Y-8895400D02*
X18502680Y-8935400D01*
X18502680Y-8895400D02*
X18462680Y-8935400D01*
X18660800Y-574360D02*
X18700800Y-614360D01*
X18700800Y-574360D02*
X18660800Y-614360D01*
X18660800Y-9242110D02*
X18700800Y-9282110D01*
X18700800Y-9242110D02*
X18660800Y-9282110D01*
X18660800Y-33660400D02*
X18700800Y-33700400D01*
X18700800Y-33660400D02*
X18660800Y-33700400D01*
X18858920Y-9143050D02*
X18898920Y-9183050D01*
X18898920Y-9143050D02*
X18858920Y-9183050D01*
X19057040Y-574360D02*
X19097040Y-614360D01*
X19097040Y-574360D02*
X19057040Y-614360D01*
X19057040Y-9489760D02*
X19097040Y-9529760D01*
X19097040Y-9489760D02*
X19057040Y-9529760D01*
X19057040Y-33660400D02*
X19097040Y-33700400D01*
X19097040Y-33660400D02*
X19057040Y-33700400D01*
X19255160Y-9390700D02*
X19295160Y-9430700D01*
X19295160Y-9390700D02*
X19255160Y-9430700D01*
X19453280Y-574360D02*
X19493280Y-614360D01*
X19493280Y-574360D02*
X19453280Y-614360D01*
X19453280Y-9737410D02*
X19493280Y-9777410D01*
X19493280Y-9737410D02*
X19453280Y-9777410D01*
X19453280Y-33660400D02*
X19493280Y-33700400D01*
X19493280Y-33660400D02*
X19453280Y-33700400D01*
X19651400Y-9638350D02*
X19691400Y-9678350D01*
X19691400Y-9638350D02*
X19651400Y-9678350D01*
X19849520Y-574360D02*
X19889520Y-614360D01*
X19889520Y-574360D02*
X19849520Y-614360D01*
X19849520Y-10034590D02*
X19889520Y-10074590D01*
X19889520Y-10034590D02*
X19849520Y-10074590D01*
X19849520Y-33660400D02*
X19889520Y-33700400D01*
X19889520Y-33660400D02*
X19849520Y-33700400D01*
X20047640Y-9935530D02*
X20087640Y-9975530D01*
X20087640Y-9935530D02*
X20047640Y-9975530D01*
X20245760Y-574360D02*
X20285760Y-614360D01*
X20285760Y-574360D02*
X20245760Y-614360D01*
X20245760Y-10282240D02*
X20285760Y-10322240D01*
X20285760Y-10282240D02*
X20245760Y-10322240D01*
X20245760Y-33660400D02*
X20285760Y-33700400D01*
X20285760Y-33660400D02*
X20245760Y-33700400D01*
X20443880Y-10133650D02*
X20483880Y-10173650D01*
X20483880Y-10133650D02*
X20443880Y-10173650D01*
X20642000Y-574360D02*
X20682000Y-614360D01*
X20682000Y-574360D02*
X20642000Y-614360D01*
X20642000Y-10480360D02*
X20682000Y-10520360D01*
X20682000Y-10480360D02*
X20642000Y-10520360D01*
X20642000Y-33660400D02*
X20682000Y-33700400D01*
X20682000Y-33660400D02*
X20642000Y-33700400D01*
X20840120Y-10381300D02*
X20880120Y-10421300D01*
X20880120Y-10381300D02*
X20840120Y-10421300D01*
X21038240Y-574360D02*
X21078240Y-614360D01*
X21078240Y-574360D02*
X21038240Y-614360D01*
X21038240Y-10728010D02*
X21078240Y-10768010D01*
X21078240Y-10728010D02*
X21038240Y-10768010D01*
X21038240Y-33660400D02*
X21078240Y-33700400D01*
X21078240Y-33660400D02*
X21038240Y-33700400D01*
X21236360Y-10628950D02*
X21276360Y-10668950D01*
X21276360Y-10628950D02*
X21236360Y-10668950D01*
X21434480Y-574360D02*
X21474480Y-614360D01*
X21474480Y-574360D02*
X21434480Y-614360D01*
X21434480Y-11025190D02*
X21474480Y-11065190D01*
X21474480Y-11025190D02*
X21434480Y-11065190D01*
X21434480Y-33660400D02*
X21474480Y-33700400D01*
X21474480Y-33660400D02*
X21434480Y-33700400D01*
X21632600Y-10926130D02*
X21672600Y-10966130D01*
X21672600Y-10926130D02*
X21632600Y-10966130D01*
X21830720Y-574360D02*
X21870720Y-614360D01*
X21870720Y-574360D02*
X21830720Y-614360D01*
X21830720Y-11272840D02*
X21870720Y-11312840D01*
X21870720Y-11272840D02*
X21830720Y-11312840D01*
X21830720Y-33660400D02*
X21870720Y-33700400D01*
X21870720Y-33660400D02*
X21830720Y-33700400D01*
X22028840Y-11173780D02*
X22068840Y-11213780D01*
X22068840Y-11173780D02*
X22028840Y-11213780D01*
X22226960Y-574360D02*
X22266960Y-614360D01*
X22266960Y-574360D02*
X22226960Y-614360D01*
X22226960Y-11470960D02*
X22266960Y-11510960D01*
X22266960Y-11470960D02*
X22226960Y-11510960D01*
X22226960Y-33660400D02*
X22266960Y-33700400D01*
X22266960Y-33660400D02*
X22226960Y-33700400D01*
X22425080Y-11371900D02*
X22465080Y-11411900D01*
X22465080Y-11371900D02*
X22425080Y-11411900D01*
X22623200Y-574360D02*
X22663200Y-614360D01*
X22663200Y-574360D02*
X22623200Y-614360D01*
X22623200Y-11768140D02*
X22663200Y-11808140D01*
X22663200Y-11768140D02*
X22623200Y-11808140D01*
X22623200Y-33660400D02*
X22663200Y-33700400D01*
X22663200Y-33660400D02*
X22623200Y-33700400D01*
X22821320Y-11669080D02*
X22861320Y-11709080D01*
X22861320Y-11669080D02*
X22821320Y-11709080D01*
X23019440Y-574360D02*
X23059440Y-614360D01*
X23059440Y-574360D02*
X23019440Y-614360D01*
X23019440Y-12015790D02*
X23059440Y-12055790D01*
X23059440Y-12015790D02*
X23019440Y-12055790D01*
X23019440Y-33660400D02*
X23059440Y-33700400D01*
X23059440Y-33660400D02*
X23019440Y-33700400D01*
X23217560Y-11916730D02*
X23257560Y-11956730D01*
X23257560Y-11916730D02*
X23217560Y-11956730D01*
X23415680Y-574360D02*
X23455680Y-614360D01*
X23455680Y-574360D02*
X23415680Y-614360D01*
X23415680Y-12312970D02*
X23455680Y-12352970D01*
X23455680Y-12312970D02*
X23415680Y-12352970D01*
X23415680Y-33660400D02*
X23455680Y-33700400D01*
X23455680Y-33660400D02*
X23415680Y-33700400D01*
X23613800Y-12213910D02*
X23653800Y-12253910D01*
X23653800Y-12213910D02*
X23613800Y-12253910D01*
X23811920Y-574360D02*
X23851920Y-614360D01*
X23851920Y-574360D02*
X23811920Y-614360D01*
X23811920Y-12560620D02*
X23851920Y-12600620D01*
X23851920Y-12560620D02*
X23811920Y-12600620D01*
X23811920Y-33660400D02*
X23851920Y-33700400D01*
X23851920Y-33660400D02*
X23811920Y-33700400D01*
X24010040Y-12461560D02*
X24050040Y-12501560D01*
X24050040Y-12461560D02*
X24010040Y-12501560D01*
D10*
X3475560Y-8321040D02*
G75*
G03*
X3475560Y-8321040I-50000J0D01*
G01*
X3475560Y-8575040D02*
G75*
G03*
X3475560Y-8575040I-50000J0D01*
G01*
X3475560Y-8829040D02*
G75*
G03*
X3475560Y-8829040I-50000J0D01*
G01*
X3475560Y-9083040D02*
G75*
G03*
X3475560Y-9083040I-50000J0D01*
G01*
X3475560Y-9337040D02*
G75*
G03*
X3475560Y-9337040I-50000J0D01*
G01*
X3475560Y-9591040D02*
G75*
G03*
X3475560Y-9591040I-50000J0D01*
G01*
X3475560Y-9845040D02*
G75*
G03*
X3475560Y-9845040I-50000J0D01*
G01*
X3475560Y-10099040D02*
G75*
G03*
X3475560Y-10099040I-50000J0D01*
G01*
X3475560Y-10353040D02*
G75*
G03*
X3475560Y-10353040I-50000J0D01*
G01*
X3475560Y-10607040D02*
G75*
G03*
X3475560Y-10607040I-50000J0D01*
G01*
X3475560Y-10861040D02*
G75*
G03*
X3475560Y-10861040I-50000J0D01*
G01*
X3475560Y-11115040D02*
G75*
G03*
X3475560Y-11115040I-50000J0D01*
G01*
X3475560Y-11369040D02*
G75*
G03*
X3475560Y-11369040I-50000J0D01*
G01*
X3475560Y-11623040D02*
G75*
G03*
X3475560Y-11623040I-50000J0D01*
G01*
X3475560Y-11877040D02*
G75*
G03*
X3475560Y-11877040I-50000J0D01*
G01*
X3475560Y-12131040D02*
G75*
G03*
X3475560Y-12131040I-50000J0D01*
G01*
X3475560Y-12385040D02*
G75*
G03*
X3475560Y-12385040I-50000J0D01*
G01*
X3475560Y-12639040D02*
G75*
G03*
X3475560Y-12639040I-50000J0D01*
G01*
X3475560Y-12893040D02*
G75*
G03*
X3475560Y-12893040I-50000J0D01*
G01*
X3475560Y-13147040D02*
G75*
G03*
X3475560Y-13147040I-50000J0D01*
G01*
X3475560Y-13401040D02*
G75*
G03*
X3475560Y-13401040I-50000J0D01*
G01*
X3475560Y-13655040D02*
G75*
G03*
X3475560Y-13655040I-50000J0D01*
G01*
X3475560Y-13909040D02*
G75*
G03*
X3475560Y-13909040I-50000J0D01*
G01*
X3475560Y-14163040D02*
G75*
G03*
X3475560Y-14163040I-50000J0D01*
G01*
X3475560Y-14417040D02*
G75*
G03*
X3475560Y-14417040I-50000J0D01*
G01*
X3492160Y-1386840D02*
G75*
G03*
X3492160Y-1386840I-50000J0D01*
G01*
X3492160Y-1640840D02*
G75*
G03*
X3492160Y-1640840I-50000J0D01*
G01*
X3492160Y-1894840D02*
G75*
G03*
X3492160Y-1894840I-50000J0D01*
G01*
X3492160Y-2148840D02*
G75*
G03*
X3492160Y-2148840I-50000J0D01*
G01*
X3492160Y-2402840D02*
G75*
G03*
X3492160Y-2402840I-50000J0D01*
G01*
X3492160Y-2656840D02*
G75*
G03*
X3492160Y-2656840I-50000J0D01*
G01*
X3492160Y-2910840D02*
G75*
G03*
X3492160Y-2910840I-50000J0D01*
G01*
X3492160Y-3164840D02*
G75*
G03*
X3492160Y-3164840I-50000J0D01*
G01*
X3492160Y-3418840D02*
G75*
G03*
X3492160Y-3418840I-50000J0D01*
G01*
X3492160Y-3672840D02*
G75*
G03*
X3492160Y-3672840I-50000J0D01*
G01*
X3492160Y-3926840D02*
G75*
G03*
X3492160Y-3926840I-50000J0D01*
G01*
X3492160Y-4180840D02*
G75*
G03*
X3492160Y-4180840I-50000J0D01*
G01*
X3492160Y-4434840D02*
G75*
G03*
X3492160Y-4434840I-50000J0D01*
G01*
X3492160Y-4688840D02*
G75*
G03*
X3492160Y-4688840I-50000J0D01*
G01*
X3492160Y-4942840D02*
G75*
G03*
X3492160Y-4942840I-50000J0D01*
G01*
X3492160Y-5196840D02*
G75*
G03*
X3492160Y-5196840I-50000J0D01*
G01*
X3492160Y-5450840D02*
G75*
G03*
X3492160Y-5450840I-50000J0D01*
G01*
X3492160Y-5704840D02*
G75*
G03*
X3492160Y-5704840I-50000J0D01*
G01*
X3492160Y-5958840D02*
G75*
G03*
X3492160Y-5958840I-50000J0D01*
G01*
X3492160Y-6212840D02*
G75*
G03*
X3492160Y-6212840I-50000J0D01*
G01*
X3492160Y-6466840D02*
G75*
G03*
X3492160Y-6466840I-50000J0D01*
G01*
X3492160Y-6720840D02*
G75*
G03*
X3492160Y-6720840I-50000J0D01*
G01*
X3492160Y-6974840D02*
G75*
G03*
X3492160Y-6974840I-50000J0D01*
G01*
X3492160Y-7228840D02*
G75*
G03*
X3492160Y-7228840I-50000J0D01*
G01*
X3492160Y-7482840D02*
G75*
G03*
X3492160Y-7482840I-50000J0D01*
G01*
X3729560Y-8321040D02*
G75*
G03*
X3729560Y-8321040I-50000J0D01*
G01*
X3729560Y-8575040D02*
G75*
G03*
X3729560Y-8575040I-50000J0D01*
G01*
X3729560Y-8829040D02*
G75*
G03*
X3729560Y-8829040I-50000J0D01*
G01*
X3729560Y-9083040D02*
G75*
G03*
X3729560Y-9083040I-50000J0D01*
G01*
X3729560Y-9337040D02*
G75*
G03*
X3729560Y-9337040I-50000J0D01*
G01*
X3729560Y-9591040D02*
G75*
G03*
X3729560Y-9591040I-50000J0D01*
G01*
X3729560Y-9845040D02*
G75*
G03*
X3729560Y-9845040I-50000J0D01*
G01*
X3729560Y-10099040D02*
G75*
G03*
X3729560Y-10099040I-50000J0D01*
G01*
X3729560Y-10353040D02*
G75*
G03*
X3729560Y-10353040I-50000J0D01*
G01*
X3729560Y-10607040D02*
G75*
G03*
X3729560Y-10607040I-50000J0D01*
G01*
X3729560Y-10861040D02*
G75*
G03*
X3729560Y-10861040I-50000J0D01*
G01*
X3729560Y-11115040D02*
G75*
G03*
X3729560Y-11115040I-50000J0D01*
G01*
X3729560Y-11369040D02*
G75*
G03*
X3729560Y-11369040I-50000J0D01*
G01*
X3729560Y-11623040D02*
G75*
G03*
X3729560Y-11623040I-50000J0D01*
G01*
X3729560Y-11877040D02*
G75*
G03*
X3729560Y-11877040I-50000J0D01*
G01*
X3729560Y-12131040D02*
G75*
G03*
X3729560Y-12131040I-50000J0D01*
G01*
X3729560Y-12385040D02*
G75*
G03*
X3729560Y-12385040I-50000J0D01*
G01*
X3729560Y-12639040D02*
G75*
G03*
X3729560Y-12639040I-50000J0D01*
G01*
X3729560Y-12893040D02*
G75*
G03*
X3729560Y-12893040I-50000J0D01*
G01*
X3729560Y-13147040D02*
G75*
G03*
X3729560Y-13147040I-50000J0D01*
G01*
X3729560Y-13401040D02*
G75*
G03*
X3729560Y-13401040I-50000J0D01*
G01*
X3729560Y-13655040D02*
G75*
G03*
X3729560Y-13655040I-50000J0D01*
G01*
X3729560Y-13909040D02*
G75*
G03*
X3729560Y-13909040I-50000J0D01*
G01*
X3729560Y-14163040D02*
G75*
G03*
X3729560Y-14163040I-50000J0D01*
G01*
X3729560Y-14417040D02*
G75*
G03*
X3729560Y-14417040I-50000J0D01*
G01*
X3746160Y-1386840D02*
G75*
G03*
X3746160Y-1386840I-50000J0D01*
G01*
X3746160Y-1640840D02*
G75*
G03*
X3746160Y-1640840I-50000J0D01*
G01*
X3746160Y-1894840D02*
G75*
G03*
X3746160Y-1894840I-50000J0D01*
G01*
X3746160Y-2148840D02*
G75*
G03*
X3746160Y-2148840I-50000J0D01*
G01*
X3746160Y-2402840D02*
G75*
G03*
X3746160Y-2402840I-50000J0D01*
G01*
X3746160Y-2656840D02*
G75*
G03*
X3746160Y-2656840I-50000J0D01*
G01*
X3746160Y-2910840D02*
G75*
G03*
X3746160Y-2910840I-50000J0D01*
G01*
X3746160Y-3164840D02*
G75*
G03*
X3746160Y-3164840I-50000J0D01*
G01*
X3746160Y-3418840D02*
G75*
G03*
X3746160Y-3418840I-50000J0D01*
G01*
X3746160Y-3672840D02*
G75*
G03*
X3746160Y-3672840I-50000J0D01*
G01*
X3746160Y-3926840D02*
G75*
G03*
X3746160Y-3926840I-50000J0D01*
G01*
X3746160Y-4180840D02*
G75*
G03*
X3746160Y-4180840I-50000J0D01*
G01*
X3746160Y-4434840D02*
G75*
G03*
X3746160Y-4434840I-50000J0D01*
G01*
X3746160Y-4688840D02*
G75*
G03*
X3746160Y-4688840I-50000J0D01*
G01*
X3746160Y-4942840D02*
G75*
G03*
X3746160Y-4942840I-50000J0D01*
G01*
X3746160Y-5196840D02*
G75*
G03*
X3746160Y-5196840I-50000J0D01*
G01*
X3746160Y-5450840D02*
G75*
G03*
X3746160Y-5450840I-50000J0D01*
G01*
X3746160Y-5704840D02*
G75*
G03*
X3746160Y-5704840I-50000J0D01*
G01*
X3746160Y-5958840D02*
G75*
G03*
X3746160Y-5958840I-50000J0D01*
G01*
X3746160Y-6212840D02*
G75*
G03*
X3746160Y-6212840I-50000J0D01*
G01*
X3746160Y-6466840D02*
G75*
G03*
X3746160Y-6466840I-50000J0D01*
G01*
X3746160Y-6720840D02*
G75*
G03*
X3746160Y-6720840I-50000J0D01*
G01*
X3746160Y-6974840D02*
G75*
G03*
X3746160Y-6974840I-50000J0D01*
G01*
X3746160Y-7228840D02*
G75*
G03*
X3746160Y-7228840I-50000J0D01*
G01*
X3746160Y-7482840D02*
G75*
G03*
X3746160Y-7482840I-50000J0D01*
G01*
D11*
X242619Y-35425404D02*
X242619Y-35225404D01*
X242619Y-35225404D02*
X290238Y-35225404D01*
X290238Y-35225404D02*
X318810Y-35234928D01*
X318810Y-35234928D02*
X337857Y-35253975D01*
X337857Y-35253975D02*
X347381Y-35273023D01*
X347381Y-35273023D02*
X356905Y-35311118D01*
X356905Y-35311118D02*
X356905Y-35339690D01*
X356905Y-35339690D02*
X347381Y-35377785D01*
X347381Y-35377785D02*
X337857Y-35396832D01*
X337857Y-35396832D02*
X318810Y-35415880D01*
X318810Y-35415880D02*
X290238Y-35425404D01*
X290238Y-35425404D02*
X242619Y-35425404D01*
X442619Y-35425404D02*
X442619Y-35292070D01*
X442619Y-35330166D02*
X452143Y-35311118D01*
X452143Y-35311118D02*
X461667Y-35301594D01*
X461667Y-35301594D02*
X480714Y-35292070D01*
X480714Y-35292070D02*
X499762Y-35292070D01*
X566429Y-35425404D02*
X566429Y-35292070D01*
X566429Y-35225404D02*
X556905Y-35234928D01*
X556905Y-35234928D02*
X566429Y-35244451D01*
X566429Y-35244451D02*
X575952Y-35234928D01*
X575952Y-35234928D02*
X566429Y-35225404D01*
X566429Y-35225404D02*
X566429Y-35244451D01*
X690238Y-35425404D02*
X671190Y-35415880D01*
X671190Y-35415880D02*
X661667Y-35396832D01*
X661667Y-35396832D02*
X661667Y-35225404D01*
X795000Y-35425404D02*
X775952Y-35415880D01*
X775952Y-35415880D02*
X766428Y-35396832D01*
X766428Y-35396832D02*
X766428Y-35225404D01*
X1023571Y-35425404D02*
X1023571Y-35225404D01*
X1023571Y-35225404D02*
X1090238Y-35368261D01*
X1090238Y-35368261D02*
X1156905Y-35225404D01*
X1156905Y-35225404D02*
X1156905Y-35425404D01*
X1337857Y-35425404D02*
X1337857Y-35320642D01*
X1337857Y-35320642D02*
X1328333Y-35301594D01*
X1328333Y-35301594D02*
X1309286Y-35292070D01*
X1309286Y-35292070D02*
X1271190Y-35292070D01*
X1271190Y-35292070D02*
X1252143Y-35301594D01*
X1337857Y-35415880D02*
X1318810Y-35425404D01*
X1318810Y-35425404D02*
X1271190Y-35425404D01*
X1271190Y-35425404D02*
X1252143Y-35415880D01*
X1252143Y-35415880D02*
X1242619Y-35396832D01*
X1242619Y-35396832D02*
X1242619Y-35377785D01*
X1242619Y-35377785D02*
X1252143Y-35358737D01*
X1252143Y-35358737D02*
X1271190Y-35349213D01*
X1271190Y-35349213D02*
X1318810Y-35349213D01*
X1318810Y-35349213D02*
X1337857Y-35339690D01*
X1433095Y-35292070D02*
X1433095Y-35492070D01*
X1433095Y-35301594D02*
X1452143Y-35292070D01*
X1452143Y-35292070D02*
X1490238Y-35292070D01*
X1490238Y-35292070D02*
X1509286Y-35301594D01*
X1509286Y-35301594D02*
X1518809Y-35311118D01*
X1518809Y-35311118D02*
X1528333Y-35330166D01*
X1528333Y-35330166D02*
X1528333Y-35387309D01*
X1528333Y-35387309D02*
X1518809Y-35406356D01*
X1518809Y-35406356D02*
X1509286Y-35415880D01*
X1509286Y-35415880D02*
X1490238Y-35425404D01*
X1490238Y-35425404D02*
X1452143Y-35425404D01*
X1452143Y-35425404D02*
X1433095Y-35415880D01*
X1614048Y-35406356D02*
X1623571Y-35415880D01*
X1623571Y-35415880D02*
X1614048Y-35425404D01*
X1614048Y-35425404D02*
X1604524Y-35415880D01*
X1604524Y-35415880D02*
X1614048Y-35406356D01*
X1614048Y-35406356D02*
X1614048Y-35425404D01*
X1614048Y-35301594D02*
X1623571Y-35311118D01*
X1623571Y-35311118D02*
X1614048Y-35320642D01*
X1614048Y-35320642D02*
X1604524Y-35311118D01*
X1604524Y-35311118D02*
X1614048Y-35301594D01*
X1614048Y-35301594D02*
X1614048Y-35320642D01*
D12*
X-45000Y-35732880D02*
X-5000Y-35772880D01*
X-5000Y-35732880D02*
X-45000Y-35772880D01*
D11*
X280714Y-35645404D02*
X299762Y-35645404D01*
X299762Y-35645404D02*
X318810Y-35654928D01*
X318810Y-35654928D02*
X328333Y-35664451D01*
X328333Y-35664451D02*
X337857Y-35683499D01*
X337857Y-35683499D02*
X347381Y-35721594D01*
X347381Y-35721594D02*
X347381Y-35769213D01*
X347381Y-35769213D02*
X337857Y-35807309D01*
X337857Y-35807309D02*
X328333Y-35826356D01*
X328333Y-35826356D02*
X318810Y-35835880D01*
X318810Y-35835880D02*
X299762Y-35845404D01*
X299762Y-35845404D02*
X280714Y-35845404D01*
X280714Y-35845404D02*
X261667Y-35835880D01*
X261667Y-35835880D02*
X252143Y-35826356D01*
X252143Y-35826356D02*
X242619Y-35807309D01*
X242619Y-35807309D02*
X233095Y-35769213D01*
X233095Y-35769213D02*
X233095Y-35721594D01*
X233095Y-35721594D02*
X242619Y-35683499D01*
X242619Y-35683499D02*
X252143Y-35664451D01*
X252143Y-35664451D02*
X261667Y-35654928D01*
X261667Y-35654928D02*
X280714Y-35645404D01*
X433095Y-35826356D02*
X442619Y-35835880D01*
X442619Y-35835880D02*
X433095Y-35845404D01*
X433095Y-35845404D02*
X423571Y-35835880D01*
X423571Y-35835880D02*
X433095Y-35826356D01*
X433095Y-35826356D02*
X433095Y-35845404D01*
X614048Y-35712070D02*
X614048Y-35845404D01*
X566429Y-35635880D02*
X518809Y-35778737D01*
X518809Y-35778737D02*
X642619Y-35778737D01*
X756905Y-35645404D02*
X775952Y-35645404D01*
X775952Y-35645404D02*
X795000Y-35654928D01*
X795000Y-35654928D02*
X804524Y-35664451D01*
X804524Y-35664451D02*
X814048Y-35683499D01*
X814048Y-35683499D02*
X823571Y-35721594D01*
X823571Y-35721594D02*
X823571Y-35769213D01*
X823571Y-35769213D02*
X814048Y-35807309D01*
X814048Y-35807309D02*
X804524Y-35826356D01*
X804524Y-35826356D02*
X795000Y-35835880D01*
X795000Y-35835880D02*
X775952Y-35845404D01*
X775952Y-35845404D02*
X756905Y-35845404D01*
X756905Y-35845404D02*
X737857Y-35835880D01*
X737857Y-35835880D02*
X728333Y-35826356D01*
X728333Y-35826356D02*
X718809Y-35807309D01*
X718809Y-35807309D02*
X709286Y-35769213D01*
X709286Y-35769213D02*
X709286Y-35721594D01*
X709286Y-35721594D02*
X718809Y-35683499D01*
X718809Y-35683499D02*
X728333Y-35664451D01*
X728333Y-35664451D02*
X737857Y-35654928D01*
X737857Y-35654928D02*
X756905Y-35645404D01*
X947381Y-35645404D02*
X966429Y-35645404D01*
X966429Y-35645404D02*
X985476Y-35654928D01*
X985476Y-35654928D02*
X995000Y-35664451D01*
X995000Y-35664451D02*
X1004524Y-35683499D01*
X1004524Y-35683499D02*
X1014048Y-35721594D01*
X1014048Y-35721594D02*
X1014048Y-35769213D01*
X1014048Y-35769213D02*
X1004524Y-35807309D01*
X1004524Y-35807309D02*
X995000Y-35826356D01*
X995000Y-35826356D02*
X985476Y-35835880D01*
X985476Y-35835880D02*
X966429Y-35845404D01*
X966429Y-35845404D02*
X947381Y-35845404D01*
X947381Y-35845404D02*
X928333Y-35835880D01*
X928333Y-35835880D02*
X918809Y-35826356D01*
X918809Y-35826356D02*
X909286Y-35807309D01*
X909286Y-35807309D02*
X899762Y-35769213D01*
X899762Y-35769213D02*
X899762Y-35721594D01*
X899762Y-35721594D02*
X909286Y-35683499D01*
X909286Y-35683499D02*
X918809Y-35664451D01*
X918809Y-35664451D02*
X928333Y-35654928D01*
X928333Y-35654928D02*
X947381Y-35645404D01*
X1099762Y-35845404D02*
X1099762Y-35712070D01*
X1099762Y-35731118D02*
X1109286Y-35721594D01*
X1109286Y-35721594D02*
X1128333Y-35712070D01*
X1128333Y-35712070D02*
X1156905Y-35712070D01*
X1156905Y-35712070D02*
X1175952Y-35721594D01*
X1175952Y-35721594D02*
X1185476Y-35740642D01*
X1185476Y-35740642D02*
X1185476Y-35845404D01*
X1185476Y-35740642D02*
X1195000Y-35721594D01*
X1195000Y-35721594D02*
X1214048Y-35712070D01*
X1214048Y-35712070D02*
X1242619Y-35712070D01*
X1242619Y-35712070D02*
X1261667Y-35721594D01*
X1261667Y-35721594D02*
X1271191Y-35740642D01*
X1271191Y-35740642D02*
X1271191Y-35845404D01*
X1366429Y-35845404D02*
X1366429Y-35712070D01*
X1366429Y-35731118D02*
X1375952Y-35721594D01*
X1375952Y-35721594D02*
X1395000Y-35712070D01*
X1395000Y-35712070D02*
X1423571Y-35712070D01*
X1423571Y-35712070D02*
X1442619Y-35721594D01*
X1442619Y-35721594D02*
X1452143Y-35740642D01*
X1452143Y-35740642D02*
X1452143Y-35845404D01*
X1452143Y-35740642D02*
X1461667Y-35721594D01*
X1461667Y-35721594D02*
X1480714Y-35712070D01*
X1480714Y-35712070D02*
X1509286Y-35712070D01*
X1509286Y-35712070D02*
X1528333Y-35721594D01*
X1528333Y-35721594D02*
X1537857Y-35740642D01*
X1537857Y-35740642D02*
X1537857Y-35845404D01*
X1928333Y-35635880D02*
X1756905Y-35893023D01*
X2185476Y-35645404D02*
X2204524Y-35645404D01*
X2204524Y-35645404D02*
X2223572Y-35654928D01*
X2223572Y-35654928D02*
X2233095Y-35664451D01*
X2233095Y-35664451D02*
X2242619Y-35683499D01*
X2242619Y-35683499D02*
X2252143Y-35721594D01*
X2252143Y-35721594D02*
X2252143Y-35769213D01*
X2252143Y-35769213D02*
X2242619Y-35807309D01*
X2242619Y-35807309D02*
X2233095Y-35826356D01*
X2233095Y-35826356D02*
X2223572Y-35835880D01*
X2223572Y-35835880D02*
X2204524Y-35845404D01*
X2204524Y-35845404D02*
X2185476Y-35845404D01*
X2185476Y-35845404D02*
X2166429Y-35835880D01*
X2166429Y-35835880D02*
X2156905Y-35826356D01*
X2156905Y-35826356D02*
X2147381Y-35807309D01*
X2147381Y-35807309D02*
X2137857Y-35769213D01*
X2137857Y-35769213D02*
X2137857Y-35721594D01*
X2137857Y-35721594D02*
X2147381Y-35683499D01*
X2147381Y-35683499D02*
X2156905Y-35664451D01*
X2156905Y-35664451D02*
X2166429Y-35654928D01*
X2166429Y-35654928D02*
X2185476Y-35645404D01*
X2337857Y-35826356D02*
X2347381Y-35835880D01*
X2347381Y-35835880D02*
X2337857Y-35845404D01*
X2337857Y-35845404D02*
X2328334Y-35835880D01*
X2328334Y-35835880D02*
X2337857Y-35826356D01*
X2337857Y-35826356D02*
X2337857Y-35845404D01*
X2471191Y-35645404D02*
X2490238Y-35645404D01*
X2490238Y-35645404D02*
X2509286Y-35654928D01*
X2509286Y-35654928D02*
X2518810Y-35664451D01*
X2518810Y-35664451D02*
X2528334Y-35683499D01*
X2528334Y-35683499D02*
X2537857Y-35721594D01*
X2537857Y-35721594D02*
X2537857Y-35769213D01*
X2537857Y-35769213D02*
X2528334Y-35807309D01*
X2528334Y-35807309D02*
X2518810Y-35826356D01*
X2518810Y-35826356D02*
X2509286Y-35835880D01*
X2509286Y-35835880D02*
X2490238Y-35845404D01*
X2490238Y-35845404D02*
X2471191Y-35845404D01*
X2471191Y-35845404D02*
X2452143Y-35835880D01*
X2452143Y-35835880D02*
X2442619Y-35826356D01*
X2442619Y-35826356D02*
X2433095Y-35807309D01*
X2433095Y-35807309D02*
X2423572Y-35769213D01*
X2423572Y-35769213D02*
X2423572Y-35721594D01*
X2423572Y-35721594D02*
X2433095Y-35683499D01*
X2433095Y-35683499D02*
X2442619Y-35664451D01*
X2442619Y-35664451D02*
X2452143Y-35654928D01*
X2452143Y-35654928D02*
X2471191Y-35645404D01*
X2728334Y-35845404D02*
X2614048Y-35845404D01*
X2671191Y-35845404D02*
X2671191Y-35645404D01*
X2671191Y-35645404D02*
X2652143Y-35673975D01*
X2652143Y-35673975D02*
X2633095Y-35693023D01*
X2633095Y-35693023D02*
X2614048Y-35702547D01*
X2909286Y-35645404D02*
X2814048Y-35645404D01*
X2814048Y-35645404D02*
X2804524Y-35740642D01*
X2804524Y-35740642D02*
X2814048Y-35731118D01*
X2814048Y-35731118D02*
X2833095Y-35721594D01*
X2833095Y-35721594D02*
X2880714Y-35721594D01*
X2880714Y-35721594D02*
X2899762Y-35731118D01*
X2899762Y-35731118D02*
X2909286Y-35740642D01*
X2909286Y-35740642D02*
X2918810Y-35759690D01*
X2918810Y-35759690D02*
X2918810Y-35807309D01*
X2918810Y-35807309D02*
X2909286Y-35826356D01*
X2909286Y-35826356D02*
X2899762Y-35835880D01*
X2899762Y-35835880D02*
X2880714Y-35845404D01*
X2880714Y-35845404D02*
X2833095Y-35845404D01*
X2833095Y-35845404D02*
X2814048Y-35835880D01*
X2814048Y-35835880D02*
X2804524Y-35826356D01*
X2985476Y-35645404D02*
X3118810Y-35645404D01*
X3118810Y-35645404D02*
X3033095Y-35845404D01*
X3185476Y-35645404D02*
X3185476Y-35683499D01*
X3261667Y-35645404D02*
X3261667Y-35683499D01*
X3556905Y-35921594D02*
X3547381Y-35912070D01*
X3547381Y-35912070D02*
X3528334Y-35883499D01*
X3528334Y-35883499D02*
X3518810Y-35864451D01*
X3518810Y-35864451D02*
X3509286Y-35835880D01*
X3509286Y-35835880D02*
X3499762Y-35788261D01*
X3499762Y-35788261D02*
X3499762Y-35750166D01*
X3499762Y-35750166D02*
X3509286Y-35702547D01*
X3509286Y-35702547D02*
X3518810Y-35673975D01*
X3518810Y-35673975D02*
X3528334Y-35654928D01*
X3528334Y-35654928D02*
X3547381Y-35626356D01*
X3547381Y-35626356D02*
X3556905Y-35616832D01*
X3737857Y-35845404D02*
X3623572Y-35845404D01*
X3680714Y-35845404D02*
X3680714Y-35645404D01*
X3680714Y-35645404D02*
X3661667Y-35673975D01*
X3661667Y-35673975D02*
X3642619Y-35693023D01*
X3642619Y-35693023D02*
X3623572Y-35702547D01*
X3804524Y-35645404D02*
X3937857Y-35645404D01*
X3937857Y-35645404D02*
X3852143Y-35845404D01*
X4004524Y-35664451D02*
X4014048Y-35654928D01*
X4014048Y-35654928D02*
X4033095Y-35645404D01*
X4033095Y-35645404D02*
X4080715Y-35645404D01*
X4080715Y-35645404D02*
X4099762Y-35654928D01*
X4099762Y-35654928D02*
X4109286Y-35664451D01*
X4109286Y-35664451D02*
X4118810Y-35683499D01*
X4118810Y-35683499D02*
X4118810Y-35702547D01*
X4118810Y-35702547D02*
X4109286Y-35731118D01*
X4109286Y-35731118D02*
X3995000Y-35845404D01*
X3995000Y-35845404D02*
X4118810Y-35845404D01*
X4356905Y-35845404D02*
X4356905Y-35645404D01*
X4442619Y-35845404D02*
X4442619Y-35740642D01*
X4442619Y-35740642D02*
X4433096Y-35721594D01*
X4433096Y-35721594D02*
X4414048Y-35712070D01*
X4414048Y-35712070D02*
X4385477Y-35712070D01*
X4385477Y-35712070D02*
X4366429Y-35721594D01*
X4366429Y-35721594D02*
X4356905Y-35731118D01*
X4566429Y-35845404D02*
X4547381Y-35835880D01*
X4547381Y-35835880D02*
X4537858Y-35826356D01*
X4537858Y-35826356D02*
X4528334Y-35807309D01*
X4528334Y-35807309D02*
X4528334Y-35750166D01*
X4528334Y-35750166D02*
X4537858Y-35731118D01*
X4537858Y-35731118D02*
X4547381Y-35721594D01*
X4547381Y-35721594D02*
X4566429Y-35712070D01*
X4566429Y-35712070D02*
X4595000Y-35712070D01*
X4595000Y-35712070D02*
X4614048Y-35721594D01*
X4614048Y-35721594D02*
X4623572Y-35731118D01*
X4623572Y-35731118D02*
X4633096Y-35750166D01*
X4633096Y-35750166D02*
X4633096Y-35807309D01*
X4633096Y-35807309D02*
X4623572Y-35826356D01*
X4623572Y-35826356D02*
X4614048Y-35835880D01*
X4614048Y-35835880D02*
X4595000Y-35845404D01*
X4595000Y-35845404D02*
X4566429Y-35845404D01*
X4747381Y-35845404D02*
X4728334Y-35835880D01*
X4728334Y-35835880D02*
X4718810Y-35816832D01*
X4718810Y-35816832D02*
X4718810Y-35645404D01*
X4899762Y-35835880D02*
X4880715Y-35845404D01*
X4880715Y-35845404D02*
X4842619Y-35845404D01*
X4842619Y-35845404D02*
X4823572Y-35835880D01*
X4823572Y-35835880D02*
X4814048Y-35816832D01*
X4814048Y-35816832D02*
X4814048Y-35740642D01*
X4814048Y-35740642D02*
X4823572Y-35721594D01*
X4823572Y-35721594D02*
X4842619Y-35712070D01*
X4842619Y-35712070D02*
X4880715Y-35712070D01*
X4880715Y-35712070D02*
X4899762Y-35721594D01*
X4899762Y-35721594D02*
X4909286Y-35740642D01*
X4909286Y-35740642D02*
X4909286Y-35759690D01*
X4909286Y-35759690D02*
X4814048Y-35778737D01*
X4985477Y-35835880D02*
X5004524Y-35845404D01*
X5004524Y-35845404D02*
X5042619Y-35845404D01*
X5042619Y-35845404D02*
X5061667Y-35835880D01*
X5061667Y-35835880D02*
X5071191Y-35816832D01*
X5071191Y-35816832D02*
X5071191Y-35807309D01*
X5071191Y-35807309D02*
X5061667Y-35788261D01*
X5061667Y-35788261D02*
X5042619Y-35778737D01*
X5042619Y-35778737D02*
X5014048Y-35778737D01*
X5014048Y-35778737D02*
X4995000Y-35769213D01*
X4995000Y-35769213D02*
X4985477Y-35750166D01*
X4985477Y-35750166D02*
X4985477Y-35740642D01*
X4985477Y-35740642D02*
X4995000Y-35721594D01*
X4995000Y-35721594D02*
X5014048Y-35712070D01*
X5014048Y-35712070D02*
X5042619Y-35712070D01*
X5042619Y-35712070D02*
X5061667Y-35721594D01*
X5137858Y-35921594D02*
X5147381Y-35912070D01*
X5147381Y-35912070D02*
X5166429Y-35883499D01*
X5166429Y-35883499D02*
X5175953Y-35864451D01*
X5175953Y-35864451D02*
X5185477Y-35835880D01*
X5185477Y-35835880D02*
X5195000Y-35788261D01*
X5195000Y-35788261D02*
X5195000Y-35750166D01*
X5195000Y-35750166D02*
X5185477Y-35702547D01*
X5185477Y-35702547D02*
X5175953Y-35673975D01*
X5175953Y-35673975D02*
X5166429Y-35654928D01*
X5166429Y-35654928D02*
X5147381Y-35626356D01*
X5147381Y-35626356D02*
X5137858Y-35616832D01*
D10*
X-5000Y-36016880D02*
G75*
G03*
X-5000Y-36016880I-50000J0D01*
G01*
D11*
X347381Y-36109404D02*
X233095Y-36109404D01*
X290238Y-36109404D02*
X290238Y-35909404D01*
X290238Y-35909404D02*
X271190Y-35937975D01*
X271190Y-35937975D02*
X252143Y-35957023D01*
X252143Y-35957023D02*
X233095Y-35966547D01*
X433095Y-36090356D02*
X442619Y-36099880D01*
X442619Y-36099880D02*
X433095Y-36109404D01*
X433095Y-36109404D02*
X423571Y-36099880D01*
X423571Y-36099880D02*
X433095Y-36090356D01*
X433095Y-36090356D02*
X433095Y-36109404D01*
X566429Y-35909404D02*
X585476Y-35909404D01*
X585476Y-35909404D02*
X604524Y-35918928D01*
X604524Y-35918928D02*
X614048Y-35928451D01*
X614048Y-35928451D02*
X623571Y-35947499D01*
X623571Y-35947499D02*
X633095Y-35985594D01*
X633095Y-35985594D02*
X633095Y-36033213D01*
X633095Y-36033213D02*
X623571Y-36071309D01*
X623571Y-36071309D02*
X614048Y-36090356D01*
X614048Y-36090356D02*
X604524Y-36099880D01*
X604524Y-36099880D02*
X585476Y-36109404D01*
X585476Y-36109404D02*
X566429Y-36109404D01*
X566429Y-36109404D02*
X547381Y-36099880D01*
X547381Y-36099880D02*
X537857Y-36090356D01*
X537857Y-36090356D02*
X528333Y-36071309D01*
X528333Y-36071309D02*
X518809Y-36033213D01*
X518809Y-36033213D02*
X518809Y-35985594D01*
X518809Y-35985594D02*
X528333Y-35947499D01*
X528333Y-35947499D02*
X537857Y-35928451D01*
X537857Y-35928451D02*
X547381Y-35918928D01*
X547381Y-35918928D02*
X566429Y-35909404D01*
X756905Y-35909404D02*
X775952Y-35909404D01*
X775952Y-35909404D02*
X795000Y-35918928D01*
X795000Y-35918928D02*
X804524Y-35928451D01*
X804524Y-35928451D02*
X814048Y-35947499D01*
X814048Y-35947499D02*
X823571Y-35985594D01*
X823571Y-35985594D02*
X823571Y-36033213D01*
X823571Y-36033213D02*
X814048Y-36071309D01*
X814048Y-36071309D02*
X804524Y-36090356D01*
X804524Y-36090356D02*
X795000Y-36099880D01*
X795000Y-36099880D02*
X775952Y-36109404D01*
X775952Y-36109404D02*
X756905Y-36109404D01*
X756905Y-36109404D02*
X737857Y-36099880D01*
X737857Y-36099880D02*
X728333Y-36090356D01*
X728333Y-36090356D02*
X718809Y-36071309D01*
X718809Y-36071309D02*
X709286Y-36033213D01*
X709286Y-36033213D02*
X709286Y-35985594D01*
X709286Y-35985594D02*
X718809Y-35947499D01*
X718809Y-35947499D02*
X728333Y-35928451D01*
X728333Y-35928451D02*
X737857Y-35918928D01*
X737857Y-35918928D02*
X756905Y-35909404D01*
X947381Y-35909404D02*
X966429Y-35909404D01*
X966429Y-35909404D02*
X985476Y-35918928D01*
X985476Y-35918928D02*
X995000Y-35928451D01*
X995000Y-35928451D02*
X1004524Y-35947499D01*
X1004524Y-35947499D02*
X1014048Y-35985594D01*
X1014048Y-35985594D02*
X1014048Y-36033213D01*
X1014048Y-36033213D02*
X1004524Y-36071309D01*
X1004524Y-36071309D02*
X995000Y-36090356D01*
X995000Y-36090356D02*
X985476Y-36099880D01*
X985476Y-36099880D02*
X966429Y-36109404D01*
X966429Y-36109404D02*
X947381Y-36109404D01*
X947381Y-36109404D02*
X928333Y-36099880D01*
X928333Y-36099880D02*
X918809Y-36090356D01*
X918809Y-36090356D02*
X909286Y-36071309D01*
X909286Y-36071309D02*
X899762Y-36033213D01*
X899762Y-36033213D02*
X899762Y-35985594D01*
X899762Y-35985594D02*
X909286Y-35947499D01*
X909286Y-35947499D02*
X918809Y-35928451D01*
X918809Y-35928451D02*
X928333Y-35918928D01*
X928333Y-35918928D02*
X947381Y-35909404D01*
X1099762Y-36109404D02*
X1099762Y-35976070D01*
X1099762Y-35995118D02*
X1109286Y-35985594D01*
X1109286Y-35985594D02*
X1128333Y-35976070D01*
X1128333Y-35976070D02*
X1156905Y-35976070D01*
X1156905Y-35976070D02*
X1175952Y-35985594D01*
X1175952Y-35985594D02*
X1185476Y-36004642D01*
X1185476Y-36004642D02*
X1185476Y-36109404D01*
X1185476Y-36004642D02*
X1195000Y-35985594D01*
X1195000Y-35985594D02*
X1214048Y-35976070D01*
X1214048Y-35976070D02*
X1242619Y-35976070D01*
X1242619Y-35976070D02*
X1261667Y-35985594D01*
X1261667Y-35985594D02*
X1271191Y-36004642D01*
X1271191Y-36004642D02*
X1271191Y-36109404D01*
X1366429Y-36109404D02*
X1366429Y-35976070D01*
X1366429Y-35995118D02*
X1375952Y-35985594D01*
X1375952Y-35985594D02*
X1395000Y-35976070D01*
X1395000Y-35976070D02*
X1423571Y-35976070D01*
X1423571Y-35976070D02*
X1442619Y-35985594D01*
X1442619Y-35985594D02*
X1452143Y-36004642D01*
X1452143Y-36004642D02*
X1452143Y-36109404D01*
X1452143Y-36004642D02*
X1461667Y-35985594D01*
X1461667Y-35985594D02*
X1480714Y-35976070D01*
X1480714Y-35976070D02*
X1509286Y-35976070D01*
X1509286Y-35976070D02*
X1528333Y-35985594D01*
X1528333Y-35985594D02*
X1537857Y-36004642D01*
X1537857Y-36004642D02*
X1537857Y-36109404D01*
X1928333Y-35899880D02*
X1756905Y-36157023D01*
X2185476Y-35909404D02*
X2204524Y-35909404D01*
X2204524Y-35909404D02*
X2223572Y-35918928D01*
X2223572Y-35918928D02*
X2233095Y-35928451D01*
X2233095Y-35928451D02*
X2242619Y-35947499D01*
X2242619Y-35947499D02*
X2252143Y-35985594D01*
X2252143Y-35985594D02*
X2252143Y-36033213D01*
X2252143Y-36033213D02*
X2242619Y-36071309D01*
X2242619Y-36071309D02*
X2233095Y-36090356D01*
X2233095Y-36090356D02*
X2223572Y-36099880D01*
X2223572Y-36099880D02*
X2204524Y-36109404D01*
X2204524Y-36109404D02*
X2185476Y-36109404D01*
X2185476Y-36109404D02*
X2166429Y-36099880D01*
X2166429Y-36099880D02*
X2156905Y-36090356D01*
X2156905Y-36090356D02*
X2147381Y-36071309D01*
X2147381Y-36071309D02*
X2137857Y-36033213D01*
X2137857Y-36033213D02*
X2137857Y-35985594D01*
X2137857Y-35985594D02*
X2147381Y-35947499D01*
X2147381Y-35947499D02*
X2156905Y-35928451D01*
X2156905Y-35928451D02*
X2166429Y-35918928D01*
X2166429Y-35918928D02*
X2185476Y-35909404D01*
X2337857Y-36090356D02*
X2347381Y-36099880D01*
X2347381Y-36099880D02*
X2337857Y-36109404D01*
X2337857Y-36109404D02*
X2328334Y-36099880D01*
X2328334Y-36099880D02*
X2337857Y-36090356D01*
X2337857Y-36090356D02*
X2337857Y-36109404D01*
X2471191Y-35909404D02*
X2490238Y-35909404D01*
X2490238Y-35909404D02*
X2509286Y-35918928D01*
X2509286Y-35918928D02*
X2518810Y-35928451D01*
X2518810Y-35928451D02*
X2528334Y-35947499D01*
X2528334Y-35947499D02*
X2537857Y-35985594D01*
X2537857Y-35985594D02*
X2537857Y-36033213D01*
X2537857Y-36033213D02*
X2528334Y-36071309D01*
X2528334Y-36071309D02*
X2518810Y-36090356D01*
X2518810Y-36090356D02*
X2509286Y-36099880D01*
X2509286Y-36099880D02*
X2490238Y-36109404D01*
X2490238Y-36109404D02*
X2471191Y-36109404D01*
X2471191Y-36109404D02*
X2452143Y-36099880D01*
X2452143Y-36099880D02*
X2442619Y-36090356D01*
X2442619Y-36090356D02*
X2433095Y-36071309D01*
X2433095Y-36071309D02*
X2423572Y-36033213D01*
X2423572Y-36033213D02*
X2423572Y-35985594D01*
X2423572Y-35985594D02*
X2433095Y-35947499D01*
X2433095Y-35947499D02*
X2442619Y-35928451D01*
X2442619Y-35928451D02*
X2452143Y-35918928D01*
X2452143Y-35918928D02*
X2471191Y-35909404D01*
X2604524Y-35909404D02*
X2728334Y-35909404D01*
X2728334Y-35909404D02*
X2661667Y-35985594D01*
X2661667Y-35985594D02*
X2690238Y-35985594D01*
X2690238Y-35985594D02*
X2709286Y-35995118D01*
X2709286Y-35995118D02*
X2718810Y-36004642D01*
X2718810Y-36004642D02*
X2728334Y-36023690D01*
X2728334Y-36023690D02*
X2728334Y-36071309D01*
X2728334Y-36071309D02*
X2718810Y-36090356D01*
X2718810Y-36090356D02*
X2709286Y-36099880D01*
X2709286Y-36099880D02*
X2690238Y-36109404D01*
X2690238Y-36109404D02*
X2633095Y-36109404D01*
X2633095Y-36109404D02*
X2614048Y-36099880D01*
X2614048Y-36099880D02*
X2604524Y-36090356D01*
X2823572Y-36109404D02*
X2861667Y-36109404D01*
X2861667Y-36109404D02*
X2880714Y-36099880D01*
X2880714Y-36099880D02*
X2890238Y-36090356D01*
X2890238Y-36090356D02*
X2909286Y-36061785D01*
X2909286Y-36061785D02*
X2918810Y-36023690D01*
X2918810Y-36023690D02*
X2918810Y-35947499D01*
X2918810Y-35947499D02*
X2909286Y-35928451D01*
X2909286Y-35928451D02*
X2899762Y-35918928D01*
X2899762Y-35918928D02*
X2880714Y-35909404D01*
X2880714Y-35909404D02*
X2842619Y-35909404D01*
X2842619Y-35909404D02*
X2823572Y-35918928D01*
X2823572Y-35918928D02*
X2814048Y-35928451D01*
X2814048Y-35928451D02*
X2804524Y-35947499D01*
X2804524Y-35947499D02*
X2804524Y-35995118D01*
X2804524Y-35995118D02*
X2814048Y-36014166D01*
X2814048Y-36014166D02*
X2823572Y-36023690D01*
X2823572Y-36023690D02*
X2842619Y-36033213D01*
X2842619Y-36033213D02*
X2880714Y-36033213D01*
X2880714Y-36033213D02*
X2899762Y-36023690D01*
X2899762Y-36023690D02*
X2909286Y-36014166D01*
X2909286Y-36014166D02*
X2918810Y-35995118D01*
X3090238Y-35976070D02*
X3090238Y-36109404D01*
X3042619Y-35899880D02*
X2995000Y-36042737D01*
X2995000Y-36042737D02*
X3118810Y-36042737D01*
X3185476Y-35909404D02*
X3185476Y-35947499D01*
X3261667Y-35909404D02*
X3261667Y-35947499D01*
X3556905Y-36185594D02*
X3547381Y-36176070D01*
X3547381Y-36176070D02*
X3528334Y-36147499D01*
X3528334Y-36147499D02*
X3518810Y-36128451D01*
X3518810Y-36128451D02*
X3509286Y-36099880D01*
X3509286Y-36099880D02*
X3499762Y-36052261D01*
X3499762Y-36052261D02*
X3499762Y-36014166D01*
X3499762Y-36014166D02*
X3509286Y-35966547D01*
X3509286Y-35966547D02*
X3518810Y-35937975D01*
X3518810Y-35937975D02*
X3528334Y-35918928D01*
X3528334Y-35918928D02*
X3547381Y-35890356D01*
X3547381Y-35890356D02*
X3556905Y-35880832D01*
X3737857Y-36109404D02*
X3623572Y-36109404D01*
X3680714Y-36109404D02*
X3680714Y-35909404D01*
X3680714Y-35909404D02*
X3661667Y-35937975D01*
X3661667Y-35937975D02*
X3642619Y-35957023D01*
X3642619Y-35957023D02*
X3623572Y-35966547D01*
X3861667Y-35909404D02*
X3880715Y-35909404D01*
X3880715Y-35909404D02*
X3899762Y-35918928D01*
X3899762Y-35918928D02*
X3909286Y-35928451D01*
X3909286Y-35928451D02*
X3918810Y-35947499D01*
X3918810Y-35947499D02*
X3928334Y-35985594D01*
X3928334Y-35985594D02*
X3928334Y-36033213D01*
X3928334Y-36033213D02*
X3918810Y-36071309D01*
X3918810Y-36071309D02*
X3909286Y-36090356D01*
X3909286Y-36090356D02*
X3899762Y-36099880D01*
X3899762Y-36099880D02*
X3880715Y-36109404D01*
X3880715Y-36109404D02*
X3861667Y-36109404D01*
X3861667Y-36109404D02*
X3842619Y-36099880D01*
X3842619Y-36099880D02*
X3833095Y-36090356D01*
X3833095Y-36090356D02*
X3823572Y-36071309D01*
X3823572Y-36071309D02*
X3814048Y-36033213D01*
X3814048Y-36033213D02*
X3814048Y-35985594D01*
X3814048Y-35985594D02*
X3823572Y-35947499D01*
X3823572Y-35947499D02*
X3833095Y-35928451D01*
X3833095Y-35928451D02*
X3842619Y-35918928D01*
X3842619Y-35918928D02*
X3861667Y-35909404D01*
X4052143Y-35909404D02*
X4071191Y-35909404D01*
X4071191Y-35909404D02*
X4090238Y-35918928D01*
X4090238Y-35918928D02*
X4099762Y-35928451D01*
X4099762Y-35928451D02*
X4109286Y-35947499D01*
X4109286Y-35947499D02*
X4118810Y-35985594D01*
X4118810Y-35985594D02*
X4118810Y-36033213D01*
X4118810Y-36033213D02*
X4109286Y-36071309D01*
X4109286Y-36071309D02*
X4099762Y-36090356D01*
X4099762Y-36090356D02*
X4090238Y-36099880D01*
X4090238Y-36099880D02*
X4071191Y-36109404D01*
X4071191Y-36109404D02*
X4052143Y-36109404D01*
X4052143Y-36109404D02*
X4033095Y-36099880D01*
X4033095Y-36099880D02*
X4023572Y-36090356D01*
X4023572Y-36090356D02*
X4014048Y-36071309D01*
X4014048Y-36071309D02*
X4004524Y-36033213D01*
X4004524Y-36033213D02*
X4004524Y-35985594D01*
X4004524Y-35985594D02*
X4014048Y-35947499D01*
X4014048Y-35947499D02*
X4023572Y-35928451D01*
X4023572Y-35928451D02*
X4033095Y-35918928D01*
X4033095Y-35918928D02*
X4052143Y-35909404D01*
X4356905Y-36109404D02*
X4356905Y-35909404D01*
X4442619Y-36109404D02*
X4442619Y-36004642D01*
X4442619Y-36004642D02*
X4433096Y-35985594D01*
X4433096Y-35985594D02*
X4414048Y-35976070D01*
X4414048Y-35976070D02*
X4385477Y-35976070D01*
X4385477Y-35976070D02*
X4366429Y-35985594D01*
X4366429Y-35985594D02*
X4356905Y-35995118D01*
X4566429Y-36109404D02*
X4547381Y-36099880D01*
X4547381Y-36099880D02*
X4537858Y-36090356D01*
X4537858Y-36090356D02*
X4528334Y-36071309D01*
X4528334Y-36071309D02*
X4528334Y-36014166D01*
X4528334Y-36014166D02*
X4537858Y-35995118D01*
X4537858Y-35995118D02*
X4547381Y-35985594D01*
X4547381Y-35985594D02*
X4566429Y-35976070D01*
X4566429Y-35976070D02*
X4595000Y-35976070D01*
X4595000Y-35976070D02*
X4614048Y-35985594D01*
X4614048Y-35985594D02*
X4623572Y-35995118D01*
X4623572Y-35995118D02*
X4633096Y-36014166D01*
X4633096Y-36014166D02*
X4633096Y-36071309D01*
X4633096Y-36071309D02*
X4623572Y-36090356D01*
X4623572Y-36090356D02*
X4614048Y-36099880D01*
X4614048Y-36099880D02*
X4595000Y-36109404D01*
X4595000Y-36109404D02*
X4566429Y-36109404D01*
X4747381Y-36109404D02*
X4728334Y-36099880D01*
X4728334Y-36099880D02*
X4718810Y-36080832D01*
X4718810Y-36080832D02*
X4718810Y-35909404D01*
X4899762Y-36099880D02*
X4880715Y-36109404D01*
X4880715Y-36109404D02*
X4842619Y-36109404D01*
X4842619Y-36109404D02*
X4823572Y-36099880D01*
X4823572Y-36099880D02*
X4814048Y-36080832D01*
X4814048Y-36080832D02*
X4814048Y-36004642D01*
X4814048Y-36004642D02*
X4823572Y-35985594D01*
X4823572Y-35985594D02*
X4842619Y-35976070D01*
X4842619Y-35976070D02*
X4880715Y-35976070D01*
X4880715Y-35976070D02*
X4899762Y-35985594D01*
X4899762Y-35985594D02*
X4909286Y-36004642D01*
X4909286Y-36004642D02*
X4909286Y-36023690D01*
X4909286Y-36023690D02*
X4814048Y-36042737D01*
X4985477Y-36099880D02*
X5004524Y-36109404D01*
X5004524Y-36109404D02*
X5042619Y-36109404D01*
X5042619Y-36109404D02*
X5061667Y-36099880D01*
X5061667Y-36099880D02*
X5071191Y-36080832D01*
X5071191Y-36080832D02*
X5071191Y-36071309D01*
X5071191Y-36071309D02*
X5061667Y-36052261D01*
X5061667Y-36052261D02*
X5042619Y-36042737D01*
X5042619Y-36042737D02*
X5014048Y-36042737D01*
X5014048Y-36042737D02*
X4995000Y-36033213D01*
X4995000Y-36033213D02*
X4985477Y-36014166D01*
X4985477Y-36014166D02*
X4985477Y-36004642D01*
X4985477Y-36004642D02*
X4995000Y-35985594D01*
X4995000Y-35985594D02*
X5014048Y-35976070D01*
X5014048Y-35976070D02*
X5042619Y-35976070D01*
X5042619Y-35976070D02*
X5061667Y-35985594D01*
X5137858Y-36185594D02*
X5147381Y-36176070D01*
X5147381Y-36176070D02*
X5166429Y-36147499D01*
X5166429Y-36147499D02*
X5175953Y-36128451D01*
X5175953Y-36128451D02*
X5185477Y-36099880D01*
X5185477Y-36099880D02*
X5195000Y-36052261D01*
X5195000Y-36052261D02*
X5195000Y-36014166D01*
X5195000Y-36014166D02*
X5185477Y-35966547D01*
X5185477Y-35966547D02*
X5175953Y-35937975D01*
X5175953Y-35937975D02*
X5166429Y-35918928D01*
X5166429Y-35918928D02*
X5147381Y-35890356D01*
X5147381Y-35890356D02*
X5137858Y-35880832D01*
M02*
