M48
; DRILL file {KiCad 7.0.1} date Sat Mar  2 20:17:58 2024
; FORMAT={-:-/ absolute / metric / decimal}
; #@! TF.CreationDate,2024-03-02T20:17:58-05:00
; #@! TF.GenerationSoftware,Kicad,Pcbnew,7.0.1
; #@! TF.FileFunction,Plated,1,2,PTH
FMAT,2
METRIC
; #@! TA.AperFunction,Plated,PTH,ViaDrill
T1C0.400
; #@! TA.AperFunction,Plated,PTH,ComponentDrill
T2C1.000
%
G90
G05
T1
X63.398Y-5.944
X63.398Y-13.373
X63.398Y-332.842
X65.38Y-11.887
X67.361Y-5.944
X67.361Y-15.85
X67.361Y-336.804
X69.342Y-14.859
X71.323Y-5.944
X71.323Y-18.326
X71.323Y-336.804
X73.304Y-17.335
X75.286Y-5.944
X75.286Y-20.803
X75.286Y-336.804
X77.267Y-19.812
X79.248Y-5.944
X79.248Y-23.279
X79.248Y-336.804
X81.229Y-22.288
X83.21Y-5.944
X83.21Y-26.251
X83.21Y-336.804
X85.192Y-25.26
X87.173Y-5.944
X87.173Y-28.727
X87.173Y-336.804
X89.154Y-27.737
X91.135Y-5.944
X91.135Y-31.204
X91.135Y-336.804
X93.116Y-30.213
X95.098Y-5.944
X95.098Y-33.68
X95.098Y-336.804
X97.079Y-32.69
X99.06Y-5.944
X99.06Y-36.157
X99.06Y-336.804
X101.041Y-35.166
X103.022Y-5.944
X103.022Y-38.633
X103.022Y-336.804
X105.004Y-37.643
X106.985Y-5.944
X106.985Y-41.11
X106.985Y-336.804
X108.966Y-40.119
X110.947Y-5.944
X110.947Y-43.586
X110.947Y-336.804
X112.928Y-42.596
X114.91Y-5.944
X114.91Y-46.063
X114.91Y-336.804
X116.891Y-45.072
X118.872Y-5.944
X118.872Y-48.539
X118.872Y-336.804
X120.853Y-47.549
X122.834Y-5.944
X122.834Y-51.016
X122.834Y-336.804
X124.816Y-50.025
X126.797Y-5.944
X126.797Y-53.988
X126.797Y-336.804
X128.778Y-52.997
X130.759Y-5.944
X130.759Y-56.464
X130.759Y-336.804
X132.74Y-55.474
X134.722Y-5.944
X134.722Y-58.941
X134.722Y-336.804
X136.703Y-57.95
X138.684Y-5.944
X138.684Y-61.417
X138.684Y-336.804
X140.665Y-60.427
X142.646Y-5.944
X142.646Y-63.894
X142.646Y-336.804
X144.628Y-62.903
X146.609Y-5.944
X146.609Y-66.37
X146.609Y-336.804
X148.59Y-65.38
X150.571Y-5.944
X150.571Y-69.342
X150.571Y-336.804
X152.552Y-68.351
X154.534Y-5.944
X154.534Y-71.819
X154.534Y-336.804
X156.515Y-70.828
X158.496Y-5.944
X158.496Y-74.295
X158.496Y-336.804
X160.477Y-73.304
X162.458Y-5.944
X162.458Y-82.715
X162.458Y-336.804
X164.44Y-81.724
X166.421Y-5.944
X166.421Y-85.192
X166.421Y-336.804
X168.402Y-84.201
X170.383Y-5.944
X170.383Y-87.668
X170.383Y-336.804
X172.364Y-86.677
X174.346Y-5.944
X174.346Y-90.145
X174.346Y-336.804
X176.327Y-89.154
X178.308Y-5.944
X178.308Y-92.621
X178.308Y-336.804
X180.289Y-91.63
X182.27Y-5.944
X182.27Y-95.098
X182.27Y-336.804
X184.252Y-94.107
X186.233Y-5.944
X186.233Y-97.574
X186.233Y-336.804
X188.214Y-96.584
X190.195Y-5.944
X190.195Y-100.546
X190.195Y-336.804
X192.176Y-99.555
X194.158Y-5.944
X194.158Y-103.022
X194.158Y-336.804
X196.139Y-101.536
X198.12Y-5.944
X198.12Y-105.004
X198.12Y-336.804
X200.101Y-104.013
X202.082Y-5.944
X202.082Y-107.48
X202.082Y-336.804
X204.064Y-106.489
X206.045Y-5.944
X206.045Y-110.452
X206.045Y-336.804
X208.026Y-109.461
X210.007Y-5.944
X210.007Y-112.928
X210.007Y-336.804
X211.988Y-111.938
X213.97Y-5.944
X213.97Y-114.91
X213.97Y-336.804
X215.951Y-113.919
X217.932Y-5.944
X217.932Y-117.881
X217.932Y-336.804
X219.913Y-116.891
X221.894Y-5.944
X221.894Y-120.358
X221.894Y-336.804
X223.876Y-119.367
X225.857Y-5.944
X225.857Y-123.33
X225.857Y-336.804
X227.838Y-122.339
X229.819Y-5.944
X229.819Y-125.806
X229.819Y-336.804
X231.8Y-124.816
T2
X25.756Y-83.21
X25.756Y-85.75
X25.756Y-88.29
X25.756Y-90.83
X25.756Y-93.37
X25.756Y-95.91
X25.756Y-98.45
X25.756Y-100.99
X25.756Y-103.53
X25.756Y-106.07
X25.756Y-108.61
X25.756Y-111.15
X25.756Y-113.69
X25.756Y-116.23
X25.756Y-118.77
X25.756Y-121.31
X25.756Y-123.85
X25.756Y-126.39
X25.756Y-128.93
X25.756Y-131.47
X25.756Y-134.01
X25.756Y-136.55
X25.756Y-139.09
X25.756Y-141.63
X25.756Y-144.17
X25.922Y-13.868
X25.922Y-16.408
X25.922Y-18.948
X25.922Y-21.488
X25.922Y-24.028
X25.922Y-26.568
X25.922Y-29.108
X25.922Y-31.648
X25.922Y-34.188
X25.922Y-36.728
X25.922Y-39.268
X25.922Y-41.808
X25.922Y-44.348
X25.922Y-46.888
X25.922Y-49.428
X25.922Y-51.968
X25.922Y-54.508
X25.922Y-57.048
X25.922Y-59.588
X25.922Y-62.128
X25.922Y-64.668
X25.922Y-67.208
X25.922Y-69.748
X25.922Y-72.288
X25.922Y-74.828
X28.296Y-83.21
X28.296Y-85.75
X28.296Y-88.29
X28.296Y-90.83
X28.296Y-93.37
X28.296Y-95.91
X28.296Y-98.45
X28.296Y-100.99
X28.296Y-103.53
X28.296Y-106.07
X28.296Y-108.61
X28.296Y-111.15
X28.296Y-113.69
X28.296Y-116.23
X28.296Y-118.77
X28.296Y-121.31
X28.296Y-123.85
X28.296Y-126.39
X28.296Y-128.93
X28.296Y-131.47
X28.296Y-134.01
X28.296Y-136.55
X28.296Y-139.09
X28.296Y-141.63
X28.296Y-144.17
X28.462Y-13.868
X28.462Y-16.408
X28.462Y-18.948
X28.462Y-21.488
X28.462Y-24.028
X28.462Y-26.568
X28.462Y-29.108
X28.462Y-31.648
X28.462Y-34.188
X28.462Y-36.728
X28.462Y-39.268
X28.462Y-41.808
X28.462Y-44.348
X28.462Y-46.888
X28.462Y-49.428
X28.462Y-51.968
X28.462Y-54.508
X28.462Y-57.048
X28.462Y-59.588
X28.462Y-62.128
X28.462Y-64.668
X28.462Y-67.208
X28.462Y-69.748
X28.462Y-72.288
X28.462Y-74.828
T0
M30
