%TF.GenerationSoftware,KiCad,Pcbnew,7.0.1*%
%TF.CreationDate,2024-03-03T21:16:02-05:00*%
%TF.ProjectId,SEM card breakout,53454d20-6361-4726-9420-627265616b6f,rev?*%
%TF.SameCoordinates,Original*%
%TF.FileFunction,Soldermask,Bot*%
%TF.FilePolarity,Negative*%
%FSLAX46Y46*%
G04 Gerber Fmt 4.6, Leading zero omitted, Abs format (unit mm)*
G04 Created by KiCad (PCBNEW 7.0.1) date 2024-03-03 21:16:02*
%MOMM*%
%LPD*%
G01*
G04 APERTURE LIST*
G04 Aperture macros list*
%AMRoundRect*
0 Rectangle with rounded corners*
0 $1 Rounding radius*
0 $2 $3 $4 $5 $6 $7 $8 $9 X,Y pos of 4 corners*
0 Add a 4 corners polygon primitive as box body*
4,1,4,$2,$3,$4,$5,$6,$7,$8,$9,$2,$3,0*
0 Add four circle primitives for the rounded corners*
1,1,$1+$1,$2,$3*
1,1,$1+$1,$4,$5*
1,1,$1+$1,$6,$7*
1,1,$1+$1,$8,$9*
0 Add four rect primitives between the rounded corners*
20,1,$1+$1,$2,$3,$4,$5,0*
20,1,$1+$1,$4,$5,$6,$7,0*
20,1,$1+$1,$6,$7,$8,$9,0*
20,1,$1+$1,$8,$9,$2,$3,0*%
G04 Aperture macros list end*
%ADD10RoundRect,0.635000X-0.635000X-5.715000X0.635000X-5.715000X0.635000X5.715000X-0.635000X5.715000X0*%
%ADD11R,1.700000X1.700000*%
%ADD12O,1.700000X1.700000*%
%ADD13C,0.800000*%
G04 APERTURE END LIST*
D10*
%TO.C,J1*%
X73879600Y-344728800D03*
X77842000Y-344728800D03*
X81804400Y-344728800D03*
X85766800Y-344728800D03*
X89729200Y-344728800D03*
X93691600Y-344728800D03*
X97654000Y-344728800D03*
X101616400Y-344728800D03*
X105578800Y-344728800D03*
X109541200Y-344728800D03*
X113503600Y-344728800D03*
X117466000Y-344728800D03*
X121428400Y-344728800D03*
X125390800Y-344728800D03*
X129353200Y-344728800D03*
X133315600Y-344728800D03*
X137278000Y-344728800D03*
X141240400Y-344728800D03*
X145202800Y-344728800D03*
X149165200Y-344728800D03*
X153127600Y-344728800D03*
X157090000Y-344728800D03*
X161052400Y-344728800D03*
X165014800Y-344728800D03*
X168977200Y-344728800D03*
X172939600Y-344728800D03*
X176902000Y-344728800D03*
X180864400Y-344728800D03*
X184826800Y-344728800D03*
X188789200Y-344728800D03*
X192751600Y-344728800D03*
X196714000Y-344728800D03*
X200676400Y-344728800D03*
X204638800Y-344728800D03*
X208601200Y-344728800D03*
X212563600Y-344728800D03*
X216526000Y-344728800D03*
X220488400Y-344728800D03*
X224450800Y-344728800D03*
X228413200Y-344728800D03*
X232375600Y-344728800D03*
X236338000Y-344728800D03*
X240300400Y-344728800D03*
%TD*%
D11*
%TO.C,J4*%
X34255600Y-83210400D03*
D12*
X36795600Y-83210400D03*
X34255600Y-85750400D03*
X36795600Y-85750400D03*
X34255600Y-88290400D03*
X36795600Y-88290400D03*
X34255600Y-90830400D03*
X36795600Y-90830400D03*
X34255600Y-93370400D03*
X36795600Y-93370400D03*
X34255600Y-95910400D03*
X36795600Y-95910400D03*
X34255600Y-98450400D03*
X36795600Y-98450400D03*
X34255600Y-100990400D03*
X36795600Y-100990400D03*
X34255600Y-103530400D03*
X36795600Y-103530400D03*
X34255600Y-106070400D03*
X36795600Y-106070400D03*
X34255600Y-108610400D03*
X36795600Y-108610400D03*
X34255600Y-111150400D03*
X36795600Y-111150400D03*
X34255600Y-113690400D03*
X36795600Y-113690400D03*
X34255600Y-116230400D03*
X36795600Y-116230400D03*
X34255600Y-118770400D03*
X36795600Y-118770400D03*
X34255600Y-121310400D03*
X36795600Y-121310400D03*
X34255600Y-123850400D03*
X36795600Y-123850400D03*
X34255600Y-126390400D03*
X36795600Y-126390400D03*
X34255600Y-128930400D03*
X36795600Y-128930400D03*
X34255600Y-131470400D03*
X36795600Y-131470400D03*
X34255600Y-134010400D03*
X36795600Y-134010400D03*
X34255600Y-136550400D03*
X36795600Y-136550400D03*
X34255600Y-139090400D03*
X36795600Y-139090400D03*
X34255600Y-141630400D03*
X36795600Y-141630400D03*
X34255600Y-144170400D03*
X36795600Y-144170400D03*
%TD*%
D11*
%TO.C,J3*%
X34421600Y-13868400D03*
D12*
X36961600Y-13868400D03*
X34421600Y-16408400D03*
X36961600Y-16408400D03*
X34421600Y-18948400D03*
X36961600Y-18948400D03*
X34421600Y-21488400D03*
X36961600Y-21488400D03*
X34421600Y-24028400D03*
X36961600Y-24028400D03*
X34421600Y-26568400D03*
X36961600Y-26568400D03*
X34421600Y-29108400D03*
X36961600Y-29108400D03*
X34421600Y-31648400D03*
X36961600Y-31648400D03*
X34421600Y-34188400D03*
X36961600Y-34188400D03*
X34421600Y-36728400D03*
X36961600Y-36728400D03*
X34421600Y-39268400D03*
X36961600Y-39268400D03*
X34421600Y-41808400D03*
X36961600Y-41808400D03*
X34421600Y-44348400D03*
X36961600Y-44348400D03*
X34421600Y-46888400D03*
X36961600Y-46888400D03*
X34421600Y-49428400D03*
X36961600Y-49428400D03*
X34421600Y-51968400D03*
X36961600Y-51968400D03*
X34421600Y-54508400D03*
X36961600Y-54508400D03*
X34421600Y-57048400D03*
X36961600Y-57048400D03*
X34421600Y-59588400D03*
X36961600Y-59588400D03*
X34421600Y-62128400D03*
X36961600Y-62128400D03*
X34421600Y-64668400D03*
X36961600Y-64668400D03*
X34421600Y-67208400D03*
X36961600Y-67208400D03*
X34421600Y-69748400D03*
X36961600Y-69748400D03*
X34421600Y-72288400D03*
X36961600Y-72288400D03*
X34421600Y-74828400D03*
X36961600Y-74828400D03*
%TD*%
D10*
%TO.C,J2*%
X73879600Y3251200D03*
X77842000Y3251200D03*
X81804400Y3251200D03*
X85766800Y3251200D03*
X89729200Y3251200D03*
X93691600Y3251200D03*
X97654000Y3251200D03*
X101616400Y3251200D03*
X105578800Y3251200D03*
X109541200Y3251200D03*
X113503600Y3251200D03*
X117466000Y3251200D03*
X121428400Y3251200D03*
X125390800Y3251200D03*
X129353200Y3251200D03*
X133315600Y3251200D03*
X137278000Y3251200D03*
X141240400Y3251200D03*
X145202800Y3251200D03*
X149165200Y3251200D03*
X153127600Y3251200D03*
X157090000Y3251200D03*
X161052400Y3251200D03*
X165014800Y3251200D03*
X168977200Y3251200D03*
X172939600Y3251200D03*
X176902000Y3251200D03*
X180864400Y3251200D03*
X184826800Y3251200D03*
X188789200Y3251200D03*
X192751600Y3251200D03*
X196714000Y3251200D03*
X200676400Y3251200D03*
X204638800Y3251200D03*
X208601200Y3251200D03*
X212563600Y3251200D03*
X216526000Y3251200D03*
X220488400Y3251200D03*
X224450800Y3251200D03*
X228413200Y3251200D03*
X232375600Y3251200D03*
X236338000Y3251200D03*
X240300400Y3251200D03*
%TD*%
D13*
X73879600Y-11887200D03*
X77842000Y-14859000D03*
X81804400Y-17335500D03*
X85766800Y-19812000D03*
X89729200Y-22288500D03*
X93691600Y-25260300D03*
X97654000Y-27736800D03*
X101616400Y-30213300D03*
X105578800Y-32689800D03*
X109541200Y-35166300D03*
X113503600Y-37642800D03*
X117466000Y-40119300D03*
X121428400Y-42595800D03*
X125390800Y-45072300D03*
X129353200Y-47548800D03*
X133315600Y-50025300D03*
X137278000Y-52997100D03*
X141240400Y-55473600D03*
X145202800Y-57950100D03*
X149165200Y-60426600D03*
X153127600Y-62903100D03*
X157090000Y-65379600D03*
X161052400Y-68351400D03*
X165014800Y-70827900D03*
X168977200Y-73304400D03*
X172939600Y-81724500D03*
X176902000Y-84201000D03*
X180864400Y-86677500D03*
X184826800Y-89154000D03*
X188789200Y-91630500D03*
X192751600Y-94107000D03*
X196714000Y-96583500D03*
X200676400Y-99555300D03*
X204638800Y-101536500D03*
X208601200Y-104013000D03*
X212563600Y-106489500D03*
X216526000Y-109461300D03*
X220488400Y-111937800D03*
X224450800Y-113919000D03*
X228413200Y-116890800D03*
X232375600Y-119367300D03*
X236338000Y-122339100D03*
X240300400Y-124815600D03*
X71898400Y-13373100D03*
X71898400Y-332841600D03*
X71898400Y-5943600D03*
X75860800Y-5943600D03*
X75860800Y-15849600D03*
X75860800Y-336804000D03*
X79823200Y-18326100D03*
X79823200Y-336804000D03*
X79823200Y-5943600D03*
X83785600Y-5943600D03*
X83785600Y-20802600D03*
X83785600Y-336804000D03*
X87748000Y-23279100D03*
X87748000Y-5943600D03*
X87748000Y-336804000D03*
X91710400Y-5943600D03*
X91710400Y-26250900D03*
X91710400Y-336804000D03*
X95672800Y-28727400D03*
X95672800Y-336804000D03*
X95672800Y-5943600D03*
X99635200Y-5943600D03*
X99635200Y-336804000D03*
X99635200Y-31203900D03*
X103597600Y-336804000D03*
X103597600Y-5943600D03*
X103597600Y-33680400D03*
X107560000Y-5943600D03*
X107560000Y-336804000D03*
X107560000Y-36156900D03*
X111522400Y-336804000D03*
X111522400Y-5943600D03*
X111522400Y-38633400D03*
X115484800Y-336804000D03*
X115484800Y-5943600D03*
X115484800Y-41109900D03*
X119447200Y-336804000D03*
X119447200Y-5943600D03*
X119447200Y-43586400D03*
X123409600Y-46062900D03*
X123409600Y-336804000D03*
X123409600Y-5943600D03*
X127372000Y-5943600D03*
X127372000Y-336804000D03*
X127372000Y-48539400D03*
X131334400Y-5943600D03*
X131334400Y-51015900D03*
X131334400Y-336804000D03*
X135296800Y-53987700D03*
X135296800Y-5943600D03*
X135296800Y-336804000D03*
X139259200Y-56464200D03*
X139259200Y-336804000D03*
X139259200Y-5943600D03*
X143221600Y-5943600D03*
X143221600Y-336804000D03*
X143221600Y-58940700D03*
X147184000Y-61417200D03*
X147184000Y-5943600D03*
X147184000Y-336804000D03*
X151146400Y-63893700D03*
X151146400Y-5943600D03*
X151146400Y-336804000D03*
X155108800Y-66370200D03*
X155108800Y-336804000D03*
X155108800Y-5943600D03*
X159071200Y-336804000D03*
X159071200Y-5943600D03*
X159071200Y-69342000D03*
X163033600Y-71818500D03*
X163033600Y-5943600D03*
X163033600Y-336804000D03*
X166996000Y-74295000D03*
X166996000Y-5943600D03*
X166996000Y-336804000D03*
X170958400Y-82715100D03*
X170958400Y-336804000D03*
X170958400Y-5943600D03*
X174920800Y-5943600D03*
X174920800Y-336804000D03*
X174920800Y-85191600D03*
X178883200Y-87668100D03*
X178883200Y-5943600D03*
X178883200Y-336804000D03*
X182845600Y-90144600D03*
X182845600Y-5943600D03*
X182845600Y-336804000D03*
X186808000Y-5943600D03*
X186808000Y-92621100D03*
X186808000Y-336804000D03*
X190770400Y-5943600D03*
X190770400Y-336804000D03*
X190770400Y-95097600D03*
X194732800Y-336804000D03*
X194732800Y-5943600D03*
X194732800Y-97574100D03*
X198695200Y-5943600D03*
X198695200Y-336804000D03*
X198695200Y-100545900D03*
X202657600Y-103022400D03*
X202657600Y-5943600D03*
X202657600Y-336804000D03*
X206620000Y-5943600D03*
X206620000Y-336804000D03*
X206620000Y-105003600D03*
X210582400Y-5943600D03*
X210582400Y-336804000D03*
X210582400Y-107480100D03*
X214544800Y-336804000D03*
X214544800Y-5943600D03*
X214544800Y-110451900D03*
X218507200Y-112928400D03*
X218507200Y-5943600D03*
X218507200Y-336804000D03*
X222469600Y-114909600D03*
X222469600Y-336804000D03*
X222469600Y-5943600D03*
X226432000Y-5943600D03*
X226432000Y-117881400D03*
X226432000Y-336804000D03*
X230394400Y-120357900D03*
X230394400Y-5943600D03*
X230394400Y-336804000D03*
X234356800Y-336804000D03*
X234356800Y-123329700D03*
X234356800Y-5943600D03*
X238319200Y-125806200D03*
X238319200Y-5943600D03*
X238319200Y-336804000D03*
M02*
