%TF.GenerationSoftware,KiCad,Pcbnew,7.0.1*%
%TF.CreationDate,2024-03-02T20:17:55-05:00*%
%TF.ProjectId,SEM card breakout,53454d20-6361-4726-9420-627265616b6f,rev?*%
%TF.SameCoordinates,Original*%
%TF.FileFunction,Legend,Bot*%
%TF.FilePolarity,Positive*%
%FSLAX46Y46*%
G04 Gerber Fmt 4.6, Leading zero omitted, Abs format (unit mm)*
G04 Created by KiCad (PCBNEW 7.0.1) date 2024-03-02 20:17:55*
%MOMM*%
%LPD*%
G01*
G04 APERTURE LIST*
%ADD10C,0.150000*%
G04 APERTURE END LIST*
D10*
X109728095Y-39247619D02*
X110299523Y-39247619D01*
X110013809Y-39247619D02*
X110013809Y-38247619D01*
X110013809Y-38247619D02*
X110109047Y-38390476D01*
X110109047Y-38390476D02*
X110204285Y-38485714D01*
X110204285Y-38485714D02*
X110299523Y-38533333D01*
X109347142Y-38342857D02*
X109299523Y-38295238D01*
X109299523Y-38295238D02*
X109204285Y-38247619D01*
X109204285Y-38247619D02*
X108966190Y-38247619D01*
X108966190Y-38247619D02*
X108870952Y-38295238D01*
X108870952Y-38295238D02*
X108823333Y-38342857D01*
X108823333Y-38342857D02*
X108775714Y-38438095D01*
X108775714Y-38438095D02*
X108775714Y-38533333D01*
X108775714Y-38533333D02*
X108823333Y-38676190D01*
X108823333Y-38676190D02*
X109394761Y-39247619D01*
X109394761Y-39247619D02*
X108775714Y-39247619D01*
X23463333Y-26182619D02*
X23653809Y-26182619D01*
X23653809Y-26182619D02*
X23749047Y-26230238D01*
X23749047Y-26230238D02*
X23796666Y-26277857D01*
X23796666Y-26277857D02*
X23891904Y-26420714D01*
X23891904Y-26420714D02*
X23939523Y-26611190D01*
X23939523Y-26611190D02*
X23939523Y-26992142D01*
X23939523Y-26992142D02*
X23891904Y-27087380D01*
X23891904Y-27087380D02*
X23844285Y-27135000D01*
X23844285Y-27135000D02*
X23749047Y-27182619D01*
X23749047Y-27182619D02*
X23558571Y-27182619D01*
X23558571Y-27182619D02*
X23463333Y-27135000D01*
X23463333Y-27135000D02*
X23415714Y-27087380D01*
X23415714Y-27087380D02*
X23368095Y-26992142D01*
X23368095Y-26992142D02*
X23368095Y-26754047D01*
X23368095Y-26754047D02*
X23415714Y-26658809D01*
X23415714Y-26658809D02*
X23463333Y-26611190D01*
X23463333Y-26611190D02*
X23558571Y-26563571D01*
X23558571Y-26563571D02*
X23749047Y-26563571D01*
X23749047Y-26563571D02*
X23844285Y-26611190D01*
X23844285Y-26611190D02*
X23891904Y-26658809D01*
X23891904Y-26658809D02*
X23939523Y-26754047D01*
X220837142Y-337665952D02*
X220599047Y-338332619D01*
X220599047Y-338332619D02*
X220360952Y-337665952D01*
X211994761Y-3655952D02*
X211613809Y-3655952D01*
X211851904Y-3322619D02*
X211851904Y-4179761D01*
X211851904Y-4179761D02*
X211804285Y-4275000D01*
X211804285Y-4275000D02*
X211709047Y-4322619D01*
X211709047Y-4322619D02*
X211613809Y-4322619D01*
X157241904Y-338332619D02*
X157241904Y-337332619D01*
X157241904Y-337713571D02*
X157146666Y-337665952D01*
X157146666Y-337665952D02*
X156956190Y-337665952D01*
X156956190Y-337665952D02*
X156860952Y-337713571D01*
X156860952Y-337713571D02*
X156813333Y-337761190D01*
X156813333Y-337761190D02*
X156765714Y-337856428D01*
X156765714Y-337856428D02*
X156765714Y-338142142D01*
X156765714Y-338142142D02*
X156813333Y-338237380D01*
X156813333Y-338237380D02*
X156860952Y-338285000D01*
X156860952Y-338285000D02*
X156956190Y-338332619D01*
X156956190Y-338332619D02*
X157146666Y-338332619D01*
X157146666Y-338332619D02*
X157241904Y-338285000D01*
X169989523Y-82157857D02*
X169941904Y-82110238D01*
X169941904Y-82110238D02*
X169846666Y-82062619D01*
X169846666Y-82062619D02*
X169608571Y-82062619D01*
X169608571Y-82062619D02*
X169513333Y-82110238D01*
X169513333Y-82110238D02*
X169465714Y-82157857D01*
X169465714Y-82157857D02*
X169418095Y-82253095D01*
X169418095Y-82253095D02*
X169418095Y-82348333D01*
X169418095Y-82348333D02*
X169465714Y-82491190D01*
X169465714Y-82491190D02*
X170037142Y-83062619D01*
X170037142Y-83062619D02*
X169418095Y-83062619D01*
X169084761Y-82062619D02*
X168418095Y-82062619D01*
X168418095Y-82062619D02*
X168846666Y-83062619D01*
X24177855Y-69457857D02*
X24130236Y-69410238D01*
X24130236Y-69410238D02*
X24034998Y-69362619D01*
X24034998Y-69362619D02*
X23796903Y-69362619D01*
X23796903Y-69362619D02*
X23701665Y-69410238D01*
X23701665Y-69410238D02*
X23654046Y-69457857D01*
X23654046Y-69457857D02*
X23606427Y-69553095D01*
X23606427Y-69553095D02*
X23606427Y-69648333D01*
X23606427Y-69648333D02*
X23654046Y-69791190D01*
X23654046Y-69791190D02*
X24225474Y-70362619D01*
X24225474Y-70362619D02*
X23606427Y-70362619D01*
X23273093Y-69362619D02*
X22654046Y-69362619D01*
X22654046Y-69362619D02*
X22987379Y-69743571D01*
X22987379Y-69743571D02*
X22844522Y-69743571D01*
X22844522Y-69743571D02*
X22749284Y-69791190D01*
X22749284Y-69791190D02*
X22701665Y-69838809D01*
X22701665Y-69838809D02*
X22654046Y-69934047D01*
X22654046Y-69934047D02*
X22654046Y-70172142D01*
X22654046Y-70172142D02*
X22701665Y-70267380D01*
X22701665Y-70267380D02*
X22749284Y-70315000D01*
X22749284Y-70315000D02*
X22844522Y-70362619D01*
X22844522Y-70362619D02*
X23130236Y-70362619D01*
X23130236Y-70362619D02*
X23225474Y-70315000D01*
X23225474Y-70315000D02*
X23273093Y-70267380D01*
X163798333Y-4322619D02*
X163798333Y-3322619D01*
X163798333Y-4275000D02*
X163893571Y-4322619D01*
X163893571Y-4322619D02*
X164084047Y-4322619D01*
X164084047Y-4322619D02*
X164179285Y-4275000D01*
X164179285Y-4275000D02*
X164226904Y-4227380D01*
X164226904Y-4227380D02*
X164274523Y-4132142D01*
X164274523Y-4132142D02*
X164274523Y-3846428D01*
X164274523Y-3846428D02*
X164226904Y-3751190D01*
X164226904Y-3751190D02*
X164179285Y-3703571D01*
X164179285Y-3703571D02*
X164084047Y-3655952D01*
X164084047Y-3655952D02*
X163893571Y-3655952D01*
X163893571Y-3655952D02*
X163798333Y-3703571D01*
X229092142Y-125575952D02*
X228854047Y-126242619D01*
X228615952Y-125575952D02*
X228854047Y-126242619D01*
X228854047Y-126242619D02*
X228949285Y-126480714D01*
X228949285Y-126480714D02*
X228996904Y-126528333D01*
X228996904Y-126528333D02*
X229092142Y-126575952D01*
X23844285Y-34802619D02*
X23653809Y-34802619D01*
X23653809Y-34802619D02*
X23558571Y-34755000D01*
X23558571Y-34755000D02*
X23510952Y-34707380D01*
X23510952Y-34707380D02*
X23415714Y-34564523D01*
X23415714Y-34564523D02*
X23368095Y-34374047D01*
X23368095Y-34374047D02*
X23368095Y-33993095D01*
X23368095Y-33993095D02*
X23415714Y-33897857D01*
X23415714Y-33897857D02*
X23463333Y-33850238D01*
X23463333Y-33850238D02*
X23558571Y-33802619D01*
X23558571Y-33802619D02*
X23749047Y-33802619D01*
X23749047Y-33802619D02*
X23844285Y-33850238D01*
X23844285Y-33850238D02*
X23891904Y-33897857D01*
X23891904Y-33897857D02*
X23939523Y-33993095D01*
X23939523Y-33993095D02*
X23939523Y-34231190D01*
X23939523Y-34231190D02*
X23891904Y-34326428D01*
X23891904Y-34326428D02*
X23844285Y-34374047D01*
X23844285Y-34374047D02*
X23749047Y-34421666D01*
X23749047Y-34421666D02*
X23558571Y-34421666D01*
X23558571Y-34421666D02*
X23463333Y-34374047D01*
X23463333Y-34374047D02*
X23415714Y-34326428D01*
X23415714Y-34326428D02*
X23368095Y-34231190D01*
X156606904Y-4322619D02*
X156606904Y-3322619D01*
X156606904Y-3703571D02*
X156511666Y-3655952D01*
X156511666Y-3655952D02*
X156321190Y-3655952D01*
X156321190Y-3655952D02*
X156225952Y-3703571D01*
X156225952Y-3703571D02*
X156178333Y-3751190D01*
X156178333Y-3751190D02*
X156130714Y-3846428D01*
X156130714Y-3846428D02*
X156130714Y-4132142D01*
X156130714Y-4132142D02*
X156178333Y-4227380D01*
X156178333Y-4227380D02*
X156225952Y-4275000D01*
X156225952Y-4275000D02*
X156321190Y-4322619D01*
X156321190Y-4322619D02*
X156511666Y-4322619D01*
X156511666Y-4322619D02*
X156606904Y-4275000D01*
X204231904Y-338332619D02*
X204231904Y-337665952D01*
X204231904Y-337856428D02*
X204184285Y-337761190D01*
X204184285Y-337761190D02*
X204136666Y-337713571D01*
X204136666Y-337713571D02*
X204041428Y-337665952D01*
X204041428Y-337665952D02*
X203946190Y-337665952D01*
X137017142Y-337332619D02*
X136779047Y-338332619D01*
X136779047Y-338332619D02*
X136588571Y-337618333D01*
X136588571Y-337618333D02*
X136398095Y-338332619D01*
X136398095Y-338332619D02*
X136160000Y-337332619D01*
X30400714Y-37342619D02*
X30876904Y-37342619D01*
X30876904Y-37342619D02*
X30876904Y-36342619D01*
X144351428Y-3846428D02*
X144351428Y-4322619D01*
X144684761Y-3322619D02*
X144351428Y-3846428D01*
X144351428Y-3846428D02*
X144018095Y-3322619D01*
X81041904Y-3798809D02*
X80708571Y-3798809D01*
X80565714Y-4322619D02*
X81041904Y-4322619D01*
X81041904Y-4322619D02*
X81041904Y-3322619D01*
X81041904Y-3322619D02*
X80565714Y-3322619D01*
X30543571Y-16498809D02*
X30400714Y-16546428D01*
X30400714Y-16546428D02*
X30353095Y-16594047D01*
X30353095Y-16594047D02*
X30305476Y-16689285D01*
X30305476Y-16689285D02*
X30305476Y-16832142D01*
X30305476Y-16832142D02*
X30353095Y-16927380D01*
X30353095Y-16927380D02*
X30400714Y-16975000D01*
X30400714Y-16975000D02*
X30495952Y-17022619D01*
X30495952Y-17022619D02*
X30876904Y-17022619D01*
X30876904Y-17022619D02*
X30876904Y-16022619D01*
X30876904Y-16022619D02*
X30543571Y-16022619D01*
X30543571Y-16022619D02*
X30448333Y-16070238D01*
X30448333Y-16070238D02*
X30400714Y-16117857D01*
X30400714Y-16117857D02*
X30353095Y-16213095D01*
X30353095Y-16213095D02*
X30353095Y-16308333D01*
X30353095Y-16308333D02*
X30400714Y-16403571D01*
X30400714Y-16403571D02*
X30448333Y-16451190D01*
X30448333Y-16451190D02*
X30543571Y-16498809D01*
X30543571Y-16498809D02*
X30876904Y-16498809D01*
X66548095Y-11942619D02*
X67119523Y-11942619D01*
X66833809Y-11942619D02*
X66833809Y-10942619D01*
X66833809Y-10942619D02*
X66929047Y-11085476D01*
X66929047Y-11085476D02*
X67024285Y-11180714D01*
X67024285Y-11180714D02*
X67119523Y-11228333D01*
X150304523Y-63742857D02*
X150256904Y-63695238D01*
X150256904Y-63695238D02*
X150161666Y-63647619D01*
X150161666Y-63647619D02*
X149923571Y-63647619D01*
X149923571Y-63647619D02*
X149828333Y-63695238D01*
X149828333Y-63695238D02*
X149780714Y-63742857D01*
X149780714Y-63742857D02*
X149733095Y-63838095D01*
X149733095Y-63838095D02*
X149733095Y-63933333D01*
X149733095Y-63933333D02*
X149780714Y-64076190D01*
X149780714Y-64076190D02*
X150352142Y-64647619D01*
X150352142Y-64647619D02*
X149733095Y-64647619D01*
X149352142Y-63742857D02*
X149304523Y-63695238D01*
X149304523Y-63695238D02*
X149209285Y-63647619D01*
X149209285Y-63647619D02*
X148971190Y-63647619D01*
X148971190Y-63647619D02*
X148875952Y-63695238D01*
X148875952Y-63695238D02*
X148828333Y-63742857D01*
X148828333Y-63742857D02*
X148780714Y-63838095D01*
X148780714Y-63838095D02*
X148780714Y-63933333D01*
X148780714Y-63933333D02*
X148828333Y-64076190D01*
X148828333Y-64076190D02*
X149399761Y-64647619D01*
X149399761Y-64647619D02*
X148780714Y-64647619D01*
X100885714Y-338332619D02*
X101361904Y-338332619D01*
X101361904Y-338332619D02*
X101361904Y-337332619D01*
X193770474Y-97302619D02*
X193151427Y-97302619D01*
X193151427Y-97302619D02*
X193484760Y-97683571D01*
X193484760Y-97683571D02*
X193341903Y-97683571D01*
X193341903Y-97683571D02*
X193246665Y-97731190D01*
X193246665Y-97731190D02*
X193199046Y-97778809D01*
X193199046Y-97778809D02*
X193151427Y-97874047D01*
X193151427Y-97874047D02*
X193151427Y-98112142D01*
X193151427Y-98112142D02*
X193199046Y-98207380D01*
X193199046Y-98207380D02*
X193246665Y-98255000D01*
X193246665Y-98255000D02*
X193341903Y-98302619D01*
X193341903Y-98302619D02*
X193627617Y-98302619D01*
X193627617Y-98302619D02*
X193722855Y-98255000D01*
X193722855Y-98255000D02*
X193770474Y-98207380D01*
X192818093Y-97302619D02*
X192199046Y-97302619D01*
X192199046Y-97302619D02*
X192532379Y-97683571D01*
X192532379Y-97683571D02*
X192389522Y-97683571D01*
X192389522Y-97683571D02*
X192294284Y-97731190D01*
X192294284Y-97731190D02*
X192246665Y-97778809D01*
X192246665Y-97778809D02*
X192199046Y-97874047D01*
X192199046Y-97874047D02*
X192199046Y-98112142D01*
X192199046Y-98112142D02*
X192246665Y-98207380D01*
X192246665Y-98207380D02*
X192294284Y-98255000D01*
X192294284Y-98255000D02*
X192389522Y-98302619D01*
X192389522Y-98302619D02*
X192675236Y-98302619D01*
X192675236Y-98302619D02*
X192770474Y-98255000D01*
X192770474Y-98255000D02*
X192818093Y-98207380D01*
X149082142Y-337332619D02*
X148415476Y-337332619D01*
X148415476Y-337332619D02*
X149082142Y-338332619D01*
X149082142Y-338332619D02*
X148415476Y-338332619D01*
X129301904Y-337332619D02*
X129301904Y-338142142D01*
X129301904Y-338142142D02*
X129254285Y-338237380D01*
X129254285Y-338237380D02*
X129206666Y-338285000D01*
X129206666Y-338285000D02*
X129111428Y-338332619D01*
X129111428Y-338332619D02*
X128920952Y-338332619D01*
X128920952Y-338332619D02*
X128825714Y-338285000D01*
X128825714Y-338285000D02*
X128778095Y-338237380D01*
X128778095Y-338237380D02*
X128730476Y-338142142D01*
X128730476Y-338142142D02*
X128730476Y-337332619D01*
X157924523Y-68822857D02*
X157876904Y-68775238D01*
X157876904Y-68775238D02*
X157781666Y-68727619D01*
X157781666Y-68727619D02*
X157543571Y-68727619D01*
X157543571Y-68727619D02*
X157448333Y-68775238D01*
X157448333Y-68775238D02*
X157400714Y-68822857D01*
X157400714Y-68822857D02*
X157353095Y-68918095D01*
X157353095Y-68918095D02*
X157353095Y-69013333D01*
X157353095Y-69013333D02*
X157400714Y-69156190D01*
X157400714Y-69156190D02*
X157972142Y-69727619D01*
X157972142Y-69727619D02*
X157353095Y-69727619D01*
X156495952Y-69060952D02*
X156495952Y-69727619D01*
X156734047Y-68680000D02*
X156972142Y-69394285D01*
X156972142Y-69394285D02*
X156353095Y-69394285D01*
X232378333Y-123035952D02*
X232378333Y-123702619D01*
X232616428Y-122655000D02*
X232854523Y-123369285D01*
X232854523Y-123369285D02*
X232235476Y-123369285D01*
X231949761Y-122702619D02*
X231330714Y-122702619D01*
X231330714Y-122702619D02*
X231664047Y-123083571D01*
X231664047Y-123083571D02*
X231521190Y-123083571D01*
X231521190Y-123083571D02*
X231425952Y-123131190D01*
X231425952Y-123131190D02*
X231378333Y-123178809D01*
X231378333Y-123178809D02*
X231330714Y-123274047D01*
X231330714Y-123274047D02*
X231330714Y-123512142D01*
X231330714Y-123512142D02*
X231378333Y-123607380D01*
X231378333Y-123607380D02*
X231425952Y-123655000D01*
X231425952Y-123655000D02*
X231521190Y-123702619D01*
X231521190Y-123702619D02*
X231806904Y-123702619D01*
X231806904Y-123702619D02*
X231902142Y-123655000D01*
X231902142Y-123655000D02*
X231949761Y-123607380D01*
X177561904Y-93190952D02*
X177561904Y-94048095D01*
X177561904Y-94048095D02*
X177609523Y-94143333D01*
X177609523Y-94143333D02*
X177704761Y-94190952D01*
X177704761Y-94190952D02*
X177752380Y-94190952D01*
X177561904Y-92857619D02*
X177609523Y-92905238D01*
X177609523Y-92905238D02*
X177561904Y-92952857D01*
X177561904Y-92952857D02*
X177514285Y-92905238D01*
X177514285Y-92905238D02*
X177561904Y-92857619D01*
X177561904Y-92857619D02*
X177561904Y-92952857D01*
X98139285Y-31627619D02*
X97948809Y-31627619D01*
X97948809Y-31627619D02*
X97853571Y-31580000D01*
X97853571Y-31580000D02*
X97805952Y-31532380D01*
X97805952Y-31532380D02*
X97710714Y-31389523D01*
X97710714Y-31389523D02*
X97663095Y-31199047D01*
X97663095Y-31199047D02*
X97663095Y-30818095D01*
X97663095Y-30818095D02*
X97710714Y-30722857D01*
X97710714Y-30722857D02*
X97758333Y-30675238D01*
X97758333Y-30675238D02*
X97853571Y-30627619D01*
X97853571Y-30627619D02*
X98044047Y-30627619D01*
X98044047Y-30627619D02*
X98139285Y-30675238D01*
X98139285Y-30675238D02*
X98186904Y-30722857D01*
X98186904Y-30722857D02*
X98234523Y-30818095D01*
X98234523Y-30818095D02*
X98234523Y-31056190D01*
X98234523Y-31056190D02*
X98186904Y-31151428D01*
X98186904Y-31151428D02*
X98139285Y-31199047D01*
X98139285Y-31199047D02*
X98044047Y-31246666D01*
X98044047Y-31246666D02*
X97853571Y-31246666D01*
X97853571Y-31246666D02*
X97758333Y-31199047D01*
X97758333Y-31199047D02*
X97710714Y-31151428D01*
X97710714Y-31151428D02*
X97663095Y-31056190D01*
X88661904Y-4322619D02*
X88661904Y-3322619D01*
X88661904Y-3798809D02*
X88090476Y-3798809D01*
X88090476Y-4322619D02*
X88090476Y-3322619D01*
X31019761Y-113510952D02*
X30638809Y-113510952D01*
X30876904Y-113177619D02*
X30876904Y-114034761D01*
X30876904Y-114034761D02*
X30829285Y-114130000D01*
X30829285Y-114130000D02*
X30734047Y-114177619D01*
X30734047Y-114177619D02*
X30638809Y-114177619D01*
X209645474Y-107462619D02*
X209026427Y-107462619D01*
X209026427Y-107462619D02*
X209359760Y-107843571D01*
X209359760Y-107843571D02*
X209216903Y-107843571D01*
X209216903Y-107843571D02*
X209121665Y-107891190D01*
X209121665Y-107891190D02*
X209074046Y-107938809D01*
X209074046Y-107938809D02*
X209026427Y-108034047D01*
X209026427Y-108034047D02*
X209026427Y-108272142D01*
X209026427Y-108272142D02*
X209074046Y-108367380D01*
X209074046Y-108367380D02*
X209121665Y-108415000D01*
X209121665Y-108415000D02*
X209216903Y-108462619D01*
X209216903Y-108462619D02*
X209502617Y-108462619D01*
X209502617Y-108462619D02*
X209597855Y-108415000D01*
X209597855Y-108415000D02*
X209645474Y-108367380D01*
X208693093Y-107462619D02*
X208026427Y-107462619D01*
X208026427Y-107462619D02*
X208454998Y-108462619D01*
X23606427Y-52582619D02*
X24177855Y-52582619D01*
X23892141Y-52582619D02*
X23892141Y-51582619D01*
X23892141Y-51582619D02*
X23987379Y-51725476D01*
X23987379Y-51725476D02*
X24082617Y-51820714D01*
X24082617Y-51820714D02*
X24177855Y-51868333D01*
X22749284Y-51582619D02*
X22939760Y-51582619D01*
X22939760Y-51582619D02*
X23034998Y-51630238D01*
X23034998Y-51630238D02*
X23082617Y-51677857D01*
X23082617Y-51677857D02*
X23177855Y-51820714D01*
X23177855Y-51820714D02*
X23225474Y-52011190D01*
X23225474Y-52011190D02*
X23225474Y-52392142D01*
X23225474Y-52392142D02*
X23177855Y-52487380D01*
X23177855Y-52487380D02*
X23130236Y-52535000D01*
X23130236Y-52535000D02*
X23034998Y-52582619D01*
X23034998Y-52582619D02*
X22844522Y-52582619D01*
X22844522Y-52582619D02*
X22749284Y-52535000D01*
X22749284Y-52535000D02*
X22701665Y-52487380D01*
X22701665Y-52487380D02*
X22654046Y-52392142D01*
X22654046Y-52392142D02*
X22654046Y-52154047D01*
X22654046Y-52154047D02*
X22701665Y-52058809D01*
X22701665Y-52058809D02*
X22749284Y-52011190D01*
X22749284Y-52011190D02*
X22844522Y-51963571D01*
X22844522Y-51963571D02*
X23034998Y-51963571D01*
X23034998Y-51963571D02*
X23130236Y-52011190D01*
X23130236Y-52011190D02*
X23177855Y-52058809D01*
X23177855Y-52058809D02*
X23225474Y-52154047D01*
X24225474Y-95397619D02*
X23606427Y-95397619D01*
X23606427Y-95397619D02*
X23939760Y-95778571D01*
X23939760Y-95778571D02*
X23796903Y-95778571D01*
X23796903Y-95778571D02*
X23701665Y-95826190D01*
X23701665Y-95826190D02*
X23654046Y-95873809D01*
X23654046Y-95873809D02*
X23606427Y-95969047D01*
X23606427Y-95969047D02*
X23606427Y-96207142D01*
X23606427Y-96207142D02*
X23654046Y-96302380D01*
X23654046Y-96302380D02*
X23701665Y-96350000D01*
X23701665Y-96350000D02*
X23796903Y-96397619D01*
X23796903Y-96397619D02*
X24082617Y-96397619D01*
X24082617Y-96397619D02*
X24177855Y-96350000D01*
X24177855Y-96350000D02*
X24225474Y-96302380D01*
X22654046Y-96397619D02*
X23225474Y-96397619D01*
X22939760Y-96397619D02*
X22939760Y-95397619D01*
X22939760Y-95397619D02*
X23034998Y-95540476D01*
X23034998Y-95540476D02*
X23130236Y-95635714D01*
X23130236Y-95635714D02*
X23225474Y-95683333D01*
X228457142Y-338332619D02*
X227933333Y-337665952D01*
X228457142Y-337665952D02*
X227933333Y-338332619D01*
X116030476Y-4322619D02*
X116363809Y-3846428D01*
X116601904Y-4322619D02*
X116601904Y-3322619D01*
X116601904Y-3322619D02*
X116220952Y-3322619D01*
X116220952Y-3322619D02*
X116125714Y-3370238D01*
X116125714Y-3370238D02*
X116078095Y-3417857D01*
X116078095Y-3417857D02*
X116030476Y-3513095D01*
X116030476Y-3513095D02*
X116030476Y-3655952D01*
X116030476Y-3655952D02*
X116078095Y-3751190D01*
X116078095Y-3751190D02*
X116125714Y-3798809D01*
X116125714Y-3798809D02*
X116220952Y-3846428D01*
X116220952Y-3846428D02*
X116601904Y-3846428D01*
X24225474Y-110637619D02*
X23606427Y-110637619D01*
X23606427Y-110637619D02*
X23939760Y-111018571D01*
X23939760Y-111018571D02*
X23796903Y-111018571D01*
X23796903Y-111018571D02*
X23701665Y-111066190D01*
X23701665Y-111066190D02*
X23654046Y-111113809D01*
X23654046Y-111113809D02*
X23606427Y-111209047D01*
X23606427Y-111209047D02*
X23606427Y-111447142D01*
X23606427Y-111447142D02*
X23654046Y-111542380D01*
X23654046Y-111542380D02*
X23701665Y-111590000D01*
X23701665Y-111590000D02*
X23796903Y-111637619D01*
X23796903Y-111637619D02*
X24082617Y-111637619D01*
X24082617Y-111637619D02*
X24177855Y-111590000D01*
X24177855Y-111590000D02*
X24225474Y-111542380D01*
X23273093Y-110637619D02*
X22606427Y-110637619D01*
X22606427Y-110637619D02*
X23034998Y-111637619D01*
X30876904Y-54122619D02*
X30876904Y-54932142D01*
X30876904Y-54932142D02*
X30829285Y-55027380D01*
X30829285Y-55027380D02*
X30781666Y-55075000D01*
X30781666Y-55075000D02*
X30686428Y-55122619D01*
X30686428Y-55122619D02*
X30495952Y-55122619D01*
X30495952Y-55122619D02*
X30400714Y-55075000D01*
X30400714Y-55075000D02*
X30353095Y-55027380D01*
X30353095Y-55027380D02*
X30305476Y-54932142D01*
X30305476Y-54932142D02*
X30305476Y-54122619D01*
X23606427Y-55122619D02*
X24177855Y-55122619D01*
X23892141Y-55122619D02*
X23892141Y-54122619D01*
X23892141Y-54122619D02*
X23987379Y-54265476D01*
X23987379Y-54265476D02*
X24082617Y-54360714D01*
X24082617Y-54360714D02*
X24177855Y-54408333D01*
X23273093Y-54122619D02*
X22606427Y-54122619D01*
X22606427Y-54122619D02*
X23034998Y-55122619D01*
X185039047Y-98937619D02*
X185134285Y-98890000D01*
X185134285Y-98890000D02*
X185181904Y-98794761D01*
X185181904Y-98794761D02*
X185181904Y-97937619D01*
X24177855Y-82792857D02*
X24130236Y-82745238D01*
X24130236Y-82745238D02*
X24034998Y-82697619D01*
X24034998Y-82697619D02*
X23796903Y-82697619D01*
X23796903Y-82697619D02*
X23701665Y-82745238D01*
X23701665Y-82745238D02*
X23654046Y-82792857D01*
X23654046Y-82792857D02*
X23606427Y-82888095D01*
X23606427Y-82888095D02*
X23606427Y-82983333D01*
X23606427Y-82983333D02*
X23654046Y-83126190D01*
X23654046Y-83126190D02*
X24225474Y-83697619D01*
X24225474Y-83697619D02*
X23606427Y-83697619D01*
X22749284Y-82697619D02*
X22939760Y-82697619D01*
X22939760Y-82697619D02*
X23034998Y-82745238D01*
X23034998Y-82745238D02*
X23082617Y-82792857D01*
X23082617Y-82792857D02*
X23177855Y-82935714D01*
X23177855Y-82935714D02*
X23225474Y-83126190D01*
X23225474Y-83126190D02*
X23225474Y-83507142D01*
X23225474Y-83507142D02*
X23177855Y-83602380D01*
X23177855Y-83602380D02*
X23130236Y-83650000D01*
X23130236Y-83650000D02*
X23034998Y-83697619D01*
X23034998Y-83697619D02*
X22844522Y-83697619D01*
X22844522Y-83697619D02*
X22749284Y-83650000D01*
X22749284Y-83650000D02*
X22701665Y-83602380D01*
X22701665Y-83602380D02*
X22654046Y-83507142D01*
X22654046Y-83507142D02*
X22654046Y-83269047D01*
X22654046Y-83269047D02*
X22701665Y-83173809D01*
X22701665Y-83173809D02*
X22749284Y-83126190D01*
X22749284Y-83126190D02*
X22844522Y-83078571D01*
X22844522Y-83078571D02*
X23034998Y-83078571D01*
X23034998Y-83078571D02*
X23130236Y-83126190D01*
X23130236Y-83126190D02*
X23177855Y-83173809D01*
X23177855Y-83173809D02*
X23225474Y-83269047D01*
X23606427Y-47502619D02*
X24177855Y-47502619D01*
X23892141Y-47502619D02*
X23892141Y-46502619D01*
X23892141Y-46502619D02*
X23987379Y-46645476D01*
X23987379Y-46645476D02*
X24082617Y-46740714D01*
X24082617Y-46740714D02*
X24177855Y-46788333D01*
X22749284Y-46835952D02*
X22749284Y-47502619D01*
X22987379Y-46455000D02*
X23225474Y-47169285D01*
X23225474Y-47169285D02*
X22606427Y-47169285D01*
X118221427Y-44327619D02*
X118792855Y-44327619D01*
X118507141Y-44327619D02*
X118507141Y-43327619D01*
X118507141Y-43327619D02*
X118602379Y-43470476D01*
X118602379Y-43470476D02*
X118697617Y-43565714D01*
X118697617Y-43565714D02*
X118792855Y-43613333D01*
X117364284Y-43660952D02*
X117364284Y-44327619D01*
X117602379Y-43280000D02*
X117840474Y-43994285D01*
X117840474Y-43994285D02*
X117221427Y-43994285D01*
X165544523Y-79617857D02*
X165496904Y-79570238D01*
X165496904Y-79570238D02*
X165401666Y-79522619D01*
X165401666Y-79522619D02*
X165163571Y-79522619D01*
X165163571Y-79522619D02*
X165068333Y-79570238D01*
X165068333Y-79570238D02*
X165020714Y-79617857D01*
X165020714Y-79617857D02*
X164973095Y-79713095D01*
X164973095Y-79713095D02*
X164973095Y-79808333D01*
X164973095Y-79808333D02*
X165020714Y-79951190D01*
X165020714Y-79951190D02*
X165592142Y-80522619D01*
X165592142Y-80522619D02*
X164973095Y-80522619D01*
X164115952Y-79522619D02*
X164306428Y-79522619D01*
X164306428Y-79522619D02*
X164401666Y-79570238D01*
X164401666Y-79570238D02*
X164449285Y-79617857D01*
X164449285Y-79617857D02*
X164544523Y-79760714D01*
X164544523Y-79760714D02*
X164592142Y-79951190D01*
X164592142Y-79951190D02*
X164592142Y-80332142D01*
X164592142Y-80332142D02*
X164544523Y-80427380D01*
X164544523Y-80427380D02*
X164496904Y-80475000D01*
X164496904Y-80475000D02*
X164401666Y-80522619D01*
X164401666Y-80522619D02*
X164211190Y-80522619D01*
X164211190Y-80522619D02*
X164115952Y-80475000D01*
X164115952Y-80475000D02*
X164068333Y-80427380D01*
X164068333Y-80427380D02*
X164020714Y-80332142D01*
X164020714Y-80332142D02*
X164020714Y-80094047D01*
X164020714Y-80094047D02*
X164068333Y-79998809D01*
X164068333Y-79998809D02*
X164115952Y-79951190D01*
X164115952Y-79951190D02*
X164211190Y-79903571D01*
X164211190Y-79903571D02*
X164401666Y-79903571D01*
X164401666Y-79903571D02*
X164496904Y-79951190D01*
X164496904Y-79951190D02*
X164544523Y-79998809D01*
X164544523Y-79998809D02*
X164592142Y-80094047D01*
X133207142Y-59202619D02*
X132969047Y-60202619D01*
X132969047Y-60202619D02*
X132778571Y-59488333D01*
X132778571Y-59488333D02*
X132588095Y-60202619D01*
X132588095Y-60202619D02*
X132350000Y-59202619D01*
X30876904Y-24118809D02*
X30543571Y-24118809D01*
X30400714Y-24642619D02*
X30876904Y-24642619D01*
X30876904Y-24642619D02*
X30876904Y-23642619D01*
X30876904Y-23642619D02*
X30400714Y-23642619D01*
X192801904Y-338332619D02*
X192801904Y-337665952D01*
X192801904Y-337761190D02*
X192754285Y-337713571D01*
X192754285Y-337713571D02*
X192659047Y-337665952D01*
X192659047Y-337665952D02*
X192516190Y-337665952D01*
X192516190Y-337665952D02*
X192420952Y-337713571D01*
X192420952Y-337713571D02*
X192373333Y-337808809D01*
X192373333Y-337808809D02*
X192373333Y-338332619D01*
X192373333Y-337808809D02*
X192325714Y-337713571D01*
X192325714Y-337713571D02*
X192230476Y-337665952D01*
X192230476Y-337665952D02*
X192087619Y-337665952D01*
X192087619Y-337665952D02*
X191992380Y-337713571D01*
X191992380Y-337713571D02*
X191944761Y-337808809D01*
X191944761Y-337808809D02*
X191944761Y-338332619D01*
X167655952Y-4275000D02*
X167751190Y-4322619D01*
X167751190Y-4322619D02*
X167941666Y-4322619D01*
X167941666Y-4322619D02*
X168036904Y-4275000D01*
X168036904Y-4275000D02*
X168084523Y-4179761D01*
X168084523Y-4179761D02*
X168084523Y-3798809D01*
X168084523Y-3798809D02*
X168036904Y-3703571D01*
X168036904Y-3703571D02*
X167941666Y-3655952D01*
X167941666Y-3655952D02*
X167751190Y-3655952D01*
X167751190Y-3655952D02*
X167655952Y-3703571D01*
X167655952Y-3703571D02*
X167608333Y-3798809D01*
X167608333Y-3798809D02*
X167608333Y-3894047D01*
X167608333Y-3894047D02*
X168084523Y-3989285D01*
X217027142Y-117955952D02*
X216789047Y-118622619D01*
X216789047Y-118622619D02*
X216550952Y-117955952D01*
X24225474Y-108097619D02*
X23606427Y-108097619D01*
X23606427Y-108097619D02*
X23939760Y-108478571D01*
X23939760Y-108478571D02*
X23796903Y-108478571D01*
X23796903Y-108478571D02*
X23701665Y-108526190D01*
X23701665Y-108526190D02*
X23654046Y-108573809D01*
X23654046Y-108573809D02*
X23606427Y-108669047D01*
X23606427Y-108669047D02*
X23606427Y-108907142D01*
X23606427Y-108907142D02*
X23654046Y-109002380D01*
X23654046Y-109002380D02*
X23701665Y-109050000D01*
X23701665Y-109050000D02*
X23796903Y-109097619D01*
X23796903Y-109097619D02*
X24082617Y-109097619D01*
X24082617Y-109097619D02*
X24177855Y-109050000D01*
X24177855Y-109050000D02*
X24225474Y-109002380D01*
X22749284Y-108097619D02*
X22939760Y-108097619D01*
X22939760Y-108097619D02*
X23034998Y-108145238D01*
X23034998Y-108145238D02*
X23082617Y-108192857D01*
X23082617Y-108192857D02*
X23177855Y-108335714D01*
X23177855Y-108335714D02*
X23225474Y-108526190D01*
X23225474Y-108526190D02*
X23225474Y-108907142D01*
X23225474Y-108907142D02*
X23177855Y-109002380D01*
X23177855Y-109002380D02*
X23130236Y-109050000D01*
X23130236Y-109050000D02*
X23034998Y-109097619D01*
X23034998Y-109097619D02*
X22844522Y-109097619D01*
X22844522Y-109097619D02*
X22749284Y-109050000D01*
X22749284Y-109050000D02*
X22701665Y-109002380D01*
X22701665Y-109002380D02*
X22654046Y-108907142D01*
X22654046Y-108907142D02*
X22654046Y-108669047D01*
X22654046Y-108669047D02*
X22701665Y-108573809D01*
X22701665Y-108573809D02*
X22749284Y-108526190D01*
X22749284Y-108526190D02*
X22844522Y-108478571D01*
X22844522Y-108478571D02*
X23034998Y-108478571D01*
X23034998Y-108478571D02*
X23130236Y-108526190D01*
X23130236Y-108526190D02*
X23177855Y-108573809D01*
X23177855Y-108573809D02*
X23225474Y-108669047D01*
X23939523Y-16117857D02*
X23891904Y-16070238D01*
X23891904Y-16070238D02*
X23796666Y-16022619D01*
X23796666Y-16022619D02*
X23558571Y-16022619D01*
X23558571Y-16022619D02*
X23463333Y-16070238D01*
X23463333Y-16070238D02*
X23415714Y-16117857D01*
X23415714Y-16117857D02*
X23368095Y-16213095D01*
X23368095Y-16213095D02*
X23368095Y-16308333D01*
X23368095Y-16308333D02*
X23415714Y-16451190D01*
X23415714Y-16451190D02*
X23987142Y-17022619D01*
X23987142Y-17022619D02*
X23368095Y-17022619D01*
X200421904Y-3655952D02*
X200421904Y-4655952D01*
X200421904Y-3703571D02*
X200326666Y-3655952D01*
X200326666Y-3655952D02*
X200136190Y-3655952D01*
X200136190Y-3655952D02*
X200040952Y-3703571D01*
X200040952Y-3703571D02*
X199993333Y-3751190D01*
X199993333Y-3751190D02*
X199945714Y-3846428D01*
X199945714Y-3846428D02*
X199945714Y-4132142D01*
X199945714Y-4132142D02*
X199993333Y-4227380D01*
X199993333Y-4227380D02*
X200040952Y-4275000D01*
X200040952Y-4275000D02*
X200136190Y-4322619D01*
X200136190Y-4322619D02*
X200326666Y-4322619D01*
X200326666Y-4322619D02*
X200421904Y-4275000D01*
X185912142Y-92222619D02*
X185293095Y-92222619D01*
X185293095Y-92222619D02*
X185626428Y-92603571D01*
X185626428Y-92603571D02*
X185483571Y-92603571D01*
X185483571Y-92603571D02*
X185388333Y-92651190D01*
X185388333Y-92651190D02*
X185340714Y-92698809D01*
X185340714Y-92698809D02*
X185293095Y-92794047D01*
X185293095Y-92794047D02*
X185293095Y-93032142D01*
X185293095Y-93032142D02*
X185340714Y-93127380D01*
X185340714Y-93127380D02*
X185388333Y-93175000D01*
X185388333Y-93175000D02*
X185483571Y-93222619D01*
X185483571Y-93222619D02*
X185769285Y-93222619D01*
X185769285Y-93222619D02*
X185864523Y-93175000D01*
X185864523Y-93175000D02*
X185912142Y-93127380D01*
X184340714Y-93222619D02*
X184912142Y-93222619D01*
X184626428Y-93222619D02*
X184626428Y-92222619D01*
X184626428Y-92222619D02*
X184721666Y-92365476D01*
X184721666Y-92365476D02*
X184816904Y-92460714D01*
X184816904Y-92460714D02*
X184912142Y-92508333D01*
X159988333Y-4275000D02*
X160083571Y-4322619D01*
X160083571Y-4322619D02*
X160274047Y-4322619D01*
X160274047Y-4322619D02*
X160369285Y-4275000D01*
X160369285Y-4275000D02*
X160416904Y-4227380D01*
X160416904Y-4227380D02*
X160464523Y-4132142D01*
X160464523Y-4132142D02*
X160464523Y-3846428D01*
X160464523Y-3846428D02*
X160416904Y-3751190D01*
X160416904Y-3751190D02*
X160369285Y-3703571D01*
X160369285Y-3703571D02*
X160274047Y-3655952D01*
X160274047Y-3655952D02*
X160083571Y-3655952D01*
X160083571Y-3655952D02*
X159988333Y-3703571D01*
X105918095Y-36707619D02*
X106489523Y-36707619D01*
X106203809Y-36707619D02*
X106203809Y-35707619D01*
X106203809Y-35707619D02*
X106299047Y-35850476D01*
X106299047Y-35850476D02*
X106394285Y-35945714D01*
X106394285Y-35945714D02*
X106489523Y-35993333D01*
X104965714Y-36707619D02*
X105537142Y-36707619D01*
X105251428Y-36707619D02*
X105251428Y-35707619D01*
X105251428Y-35707619D02*
X105346666Y-35850476D01*
X105346666Y-35850476D02*
X105441904Y-35945714D01*
X105441904Y-35945714D02*
X105537142Y-35993333D01*
X30876904Y-91317619D02*
X30876904Y-90317619D01*
X30448333Y-91317619D02*
X30448333Y-90793809D01*
X30448333Y-90793809D02*
X30495952Y-90698571D01*
X30495952Y-90698571D02*
X30591190Y-90650952D01*
X30591190Y-90650952D02*
X30734047Y-90650952D01*
X30734047Y-90650952D02*
X30829285Y-90698571D01*
X30829285Y-90698571D02*
X30876904Y-90746190D01*
X69675476Y-19467380D02*
X69723095Y-19515000D01*
X69723095Y-19515000D02*
X69865952Y-19562619D01*
X69865952Y-19562619D02*
X69961190Y-19562619D01*
X69961190Y-19562619D02*
X70104047Y-19515000D01*
X70104047Y-19515000D02*
X70199285Y-19419761D01*
X70199285Y-19419761D02*
X70246904Y-19324523D01*
X70246904Y-19324523D02*
X70294523Y-19134047D01*
X70294523Y-19134047D02*
X70294523Y-18991190D01*
X70294523Y-18991190D02*
X70246904Y-18800714D01*
X70246904Y-18800714D02*
X70199285Y-18705476D01*
X70199285Y-18705476D02*
X70104047Y-18610238D01*
X70104047Y-18610238D02*
X69961190Y-18562619D01*
X69961190Y-18562619D02*
X69865952Y-18562619D01*
X69865952Y-18562619D02*
X69723095Y-18610238D01*
X69723095Y-18610238D02*
X69675476Y-18657857D01*
X180736904Y-337665952D02*
X180736904Y-338523095D01*
X180736904Y-338523095D02*
X180784523Y-338618333D01*
X180784523Y-338618333D02*
X180879761Y-338665952D01*
X180879761Y-338665952D02*
X180927380Y-338665952D01*
X180736904Y-337332619D02*
X180784523Y-337380238D01*
X180784523Y-337380238D02*
X180736904Y-337427857D01*
X180736904Y-337427857D02*
X180689285Y-337380238D01*
X180689285Y-337380238D02*
X180736904Y-337332619D01*
X180736904Y-337332619D02*
X180736904Y-337427857D01*
X105171904Y-338332619D02*
X105171904Y-337332619D01*
X105171904Y-337332619D02*
X104838571Y-338046904D01*
X104838571Y-338046904D02*
X104505238Y-337332619D01*
X104505238Y-337332619D02*
X104505238Y-338332619D01*
X24225474Y-113177619D02*
X23606427Y-113177619D01*
X23606427Y-113177619D02*
X23939760Y-113558571D01*
X23939760Y-113558571D02*
X23796903Y-113558571D01*
X23796903Y-113558571D02*
X23701665Y-113606190D01*
X23701665Y-113606190D02*
X23654046Y-113653809D01*
X23654046Y-113653809D02*
X23606427Y-113749047D01*
X23606427Y-113749047D02*
X23606427Y-113987142D01*
X23606427Y-113987142D02*
X23654046Y-114082380D01*
X23654046Y-114082380D02*
X23701665Y-114130000D01*
X23701665Y-114130000D02*
X23796903Y-114177619D01*
X23796903Y-114177619D02*
X24082617Y-114177619D01*
X24082617Y-114177619D02*
X24177855Y-114130000D01*
X24177855Y-114130000D02*
X24225474Y-114082380D01*
X23034998Y-113606190D02*
X23130236Y-113558571D01*
X23130236Y-113558571D02*
X23177855Y-113510952D01*
X23177855Y-113510952D02*
X23225474Y-113415714D01*
X23225474Y-113415714D02*
X23225474Y-113368095D01*
X23225474Y-113368095D02*
X23177855Y-113272857D01*
X23177855Y-113272857D02*
X23130236Y-113225238D01*
X23130236Y-113225238D02*
X23034998Y-113177619D01*
X23034998Y-113177619D02*
X22844522Y-113177619D01*
X22844522Y-113177619D02*
X22749284Y-113225238D01*
X22749284Y-113225238D02*
X22701665Y-113272857D01*
X22701665Y-113272857D02*
X22654046Y-113368095D01*
X22654046Y-113368095D02*
X22654046Y-113415714D01*
X22654046Y-113415714D02*
X22701665Y-113510952D01*
X22701665Y-113510952D02*
X22749284Y-113558571D01*
X22749284Y-113558571D02*
X22844522Y-113606190D01*
X22844522Y-113606190D02*
X23034998Y-113606190D01*
X23034998Y-113606190D02*
X23130236Y-113653809D01*
X23130236Y-113653809D02*
X23177855Y-113701428D01*
X23177855Y-113701428D02*
X23225474Y-113796666D01*
X23225474Y-113796666D02*
X23225474Y-113987142D01*
X23225474Y-113987142D02*
X23177855Y-114082380D01*
X23177855Y-114082380D02*
X23130236Y-114130000D01*
X23130236Y-114130000D02*
X23034998Y-114177619D01*
X23034998Y-114177619D02*
X22844522Y-114177619D01*
X22844522Y-114177619D02*
X22749284Y-114130000D01*
X22749284Y-114130000D02*
X22701665Y-114082380D01*
X22701665Y-114082380D02*
X22654046Y-113987142D01*
X22654046Y-113987142D02*
X22654046Y-113796666D01*
X22654046Y-113796666D02*
X22701665Y-113701428D01*
X22701665Y-113701428D02*
X22749284Y-113653809D01*
X22749284Y-113653809D02*
X22844522Y-113606190D01*
X104536904Y-4322619D02*
X104536904Y-3322619D01*
X104536904Y-3322619D02*
X104203571Y-4036904D01*
X104203571Y-4036904D02*
X103870238Y-3322619D01*
X103870238Y-3322619D02*
X103870238Y-4322619D01*
X23606427Y-39882619D02*
X24177855Y-39882619D01*
X23892141Y-39882619D02*
X23892141Y-38882619D01*
X23892141Y-38882619D02*
X23987379Y-39025476D01*
X23987379Y-39025476D02*
X24082617Y-39120714D01*
X24082617Y-39120714D02*
X24177855Y-39168333D01*
X22654046Y-39882619D02*
X23225474Y-39882619D01*
X22939760Y-39882619D02*
X22939760Y-38882619D01*
X22939760Y-38882619D02*
X23034998Y-39025476D01*
X23034998Y-39025476D02*
X23130236Y-39120714D01*
X23130236Y-39120714D02*
X23225474Y-39168333D01*
X165115952Y-86190000D02*
X165211190Y-86237619D01*
X165211190Y-86237619D02*
X165401666Y-86237619D01*
X165401666Y-86237619D02*
X165496904Y-86190000D01*
X165496904Y-86190000D02*
X165544523Y-86094761D01*
X165544523Y-86094761D02*
X165544523Y-85713809D01*
X165544523Y-85713809D02*
X165496904Y-85618571D01*
X165496904Y-85618571D02*
X165401666Y-85570952D01*
X165401666Y-85570952D02*
X165211190Y-85570952D01*
X165211190Y-85570952D02*
X165115952Y-85618571D01*
X165115952Y-85618571D02*
X165068333Y-85713809D01*
X165068333Y-85713809D02*
X165068333Y-85809047D01*
X165068333Y-85809047D02*
X165544523Y-85904285D01*
X142049523Y-58662857D02*
X142001904Y-58615238D01*
X142001904Y-58615238D02*
X141906666Y-58567619D01*
X141906666Y-58567619D02*
X141668571Y-58567619D01*
X141668571Y-58567619D02*
X141573333Y-58615238D01*
X141573333Y-58615238D02*
X141525714Y-58662857D01*
X141525714Y-58662857D02*
X141478095Y-58758095D01*
X141478095Y-58758095D02*
X141478095Y-58853333D01*
X141478095Y-58853333D02*
X141525714Y-58996190D01*
X141525714Y-58996190D02*
X142097142Y-59567619D01*
X142097142Y-59567619D02*
X141478095Y-59567619D01*
X140859047Y-58567619D02*
X140763809Y-58567619D01*
X140763809Y-58567619D02*
X140668571Y-58615238D01*
X140668571Y-58615238D02*
X140620952Y-58662857D01*
X140620952Y-58662857D02*
X140573333Y-58758095D01*
X140573333Y-58758095D02*
X140525714Y-58948571D01*
X140525714Y-58948571D02*
X140525714Y-59186666D01*
X140525714Y-59186666D02*
X140573333Y-59377142D01*
X140573333Y-59377142D02*
X140620952Y-59472380D01*
X140620952Y-59472380D02*
X140668571Y-59520000D01*
X140668571Y-59520000D02*
X140763809Y-59567619D01*
X140763809Y-59567619D02*
X140859047Y-59567619D01*
X140859047Y-59567619D02*
X140954285Y-59520000D01*
X140954285Y-59520000D02*
X141001904Y-59472380D01*
X141001904Y-59472380D02*
X141049523Y-59377142D01*
X141049523Y-59377142D02*
X141097142Y-59186666D01*
X141097142Y-59186666D02*
X141097142Y-58948571D01*
X141097142Y-58948571D02*
X141049523Y-58758095D01*
X141049523Y-58758095D02*
X141001904Y-58662857D01*
X141001904Y-58662857D02*
X140954285Y-58615238D01*
X140954285Y-58615238D02*
X140859047Y-58567619D01*
X24177855Y-61837857D02*
X24130236Y-61790238D01*
X24130236Y-61790238D02*
X24034998Y-61742619D01*
X24034998Y-61742619D02*
X23796903Y-61742619D01*
X23796903Y-61742619D02*
X23701665Y-61790238D01*
X23701665Y-61790238D02*
X23654046Y-61837857D01*
X23654046Y-61837857D02*
X23606427Y-61933095D01*
X23606427Y-61933095D02*
X23606427Y-62028333D01*
X23606427Y-62028333D02*
X23654046Y-62171190D01*
X23654046Y-62171190D02*
X24225474Y-62742619D01*
X24225474Y-62742619D02*
X23606427Y-62742619D01*
X22987379Y-61742619D02*
X22892141Y-61742619D01*
X22892141Y-61742619D02*
X22796903Y-61790238D01*
X22796903Y-61790238D02*
X22749284Y-61837857D01*
X22749284Y-61837857D02*
X22701665Y-61933095D01*
X22701665Y-61933095D02*
X22654046Y-62123571D01*
X22654046Y-62123571D02*
X22654046Y-62361666D01*
X22654046Y-62361666D02*
X22701665Y-62552142D01*
X22701665Y-62552142D02*
X22749284Y-62647380D01*
X22749284Y-62647380D02*
X22796903Y-62695000D01*
X22796903Y-62695000D02*
X22892141Y-62742619D01*
X22892141Y-62742619D02*
X22987379Y-62742619D01*
X22987379Y-62742619D02*
X23082617Y-62695000D01*
X23082617Y-62695000D02*
X23130236Y-62647380D01*
X23130236Y-62647380D02*
X23177855Y-62552142D01*
X23177855Y-62552142D02*
X23225474Y-62361666D01*
X23225474Y-62361666D02*
X23225474Y-62123571D01*
X23225474Y-62123571D02*
X23177855Y-61933095D01*
X23177855Y-61933095D02*
X23130236Y-61837857D01*
X23130236Y-61837857D02*
X23082617Y-61790238D01*
X23082617Y-61790238D02*
X22987379Y-61742619D01*
X30876904Y-103350952D02*
X30876904Y-104017619D01*
X30876904Y-103446190D02*
X30829285Y-103398571D01*
X30829285Y-103398571D02*
X30734047Y-103350952D01*
X30734047Y-103350952D02*
X30591190Y-103350952D01*
X30591190Y-103350952D02*
X30495952Y-103398571D01*
X30495952Y-103398571D02*
X30448333Y-103493809D01*
X30448333Y-103493809D02*
X30448333Y-104017619D01*
X181371904Y-95762619D02*
X181371904Y-94762619D01*
X181276666Y-95381666D02*
X180990952Y-95762619D01*
X180990952Y-95095952D02*
X181371904Y-95476904D01*
X160623333Y-338285000D02*
X160718571Y-338332619D01*
X160718571Y-338332619D02*
X160909047Y-338332619D01*
X160909047Y-338332619D02*
X161004285Y-338285000D01*
X161004285Y-338285000D02*
X161051904Y-338237380D01*
X161051904Y-338237380D02*
X161099523Y-338142142D01*
X161099523Y-338142142D02*
X161099523Y-337856428D01*
X161099523Y-337856428D02*
X161051904Y-337761190D01*
X161051904Y-337761190D02*
X161004285Y-337713571D01*
X161004285Y-337713571D02*
X160909047Y-337665952D01*
X160909047Y-337665952D02*
X160718571Y-337665952D01*
X160718571Y-337665952D02*
X160623333Y-337713571D01*
X220837142Y-120495952D02*
X220646666Y-121162619D01*
X220646666Y-121162619D02*
X220456190Y-120686428D01*
X220456190Y-120686428D02*
X220265714Y-121162619D01*
X220265714Y-121162619D02*
X220075238Y-120495952D01*
X180101904Y-3655952D02*
X180101904Y-4513095D01*
X180101904Y-4513095D02*
X180149523Y-4608333D01*
X180149523Y-4608333D02*
X180244761Y-4655952D01*
X180244761Y-4655952D02*
X180292380Y-4655952D01*
X180101904Y-3322619D02*
X180149523Y-3370238D01*
X180149523Y-3370238D02*
X180101904Y-3417857D01*
X180101904Y-3417857D02*
X180054285Y-3370238D01*
X180054285Y-3370238D02*
X180101904Y-3322619D01*
X180101904Y-3322619D02*
X180101904Y-3417857D01*
X204914523Y-111590000D02*
X204819285Y-111637619D01*
X204819285Y-111637619D02*
X204628809Y-111637619D01*
X204628809Y-111637619D02*
X204533571Y-111590000D01*
X204533571Y-111590000D02*
X204485952Y-111494761D01*
X204485952Y-111494761D02*
X204485952Y-111447142D01*
X204485952Y-111447142D02*
X204533571Y-111351904D01*
X204533571Y-111351904D02*
X204628809Y-111304285D01*
X204628809Y-111304285D02*
X204771666Y-111304285D01*
X204771666Y-111304285D02*
X204866904Y-111256666D01*
X204866904Y-111256666D02*
X204914523Y-111161428D01*
X204914523Y-111161428D02*
X204914523Y-111113809D01*
X204914523Y-111113809D02*
X204866904Y-111018571D01*
X204866904Y-111018571D02*
X204771666Y-110970952D01*
X204771666Y-110970952D02*
X204628809Y-110970952D01*
X204628809Y-110970952D02*
X204533571Y-111018571D01*
X92186190Y-3322619D02*
X92186190Y-4036904D01*
X92186190Y-4036904D02*
X92233809Y-4179761D01*
X92233809Y-4179761D02*
X92329047Y-4275000D01*
X92329047Y-4275000D02*
X92471904Y-4322619D01*
X92471904Y-4322619D02*
X92567142Y-4322619D01*
X30924523Y-14196904D02*
X30448333Y-14196904D01*
X31019761Y-14482619D02*
X30686428Y-13482619D01*
X30686428Y-13482619D02*
X30353095Y-14482619D01*
X24225474Y-100477619D02*
X23606427Y-100477619D01*
X23606427Y-100477619D02*
X23939760Y-100858571D01*
X23939760Y-100858571D02*
X23796903Y-100858571D01*
X23796903Y-100858571D02*
X23701665Y-100906190D01*
X23701665Y-100906190D02*
X23654046Y-100953809D01*
X23654046Y-100953809D02*
X23606427Y-101049047D01*
X23606427Y-101049047D02*
X23606427Y-101287142D01*
X23606427Y-101287142D02*
X23654046Y-101382380D01*
X23654046Y-101382380D02*
X23701665Y-101430000D01*
X23701665Y-101430000D02*
X23796903Y-101477619D01*
X23796903Y-101477619D02*
X24082617Y-101477619D01*
X24082617Y-101477619D02*
X24177855Y-101430000D01*
X24177855Y-101430000D02*
X24225474Y-101382380D01*
X23273093Y-100477619D02*
X22654046Y-100477619D01*
X22654046Y-100477619D02*
X22987379Y-100858571D01*
X22987379Y-100858571D02*
X22844522Y-100858571D01*
X22844522Y-100858571D02*
X22749284Y-100906190D01*
X22749284Y-100906190D02*
X22701665Y-100953809D01*
X22701665Y-100953809D02*
X22654046Y-101049047D01*
X22654046Y-101049047D02*
X22654046Y-101287142D01*
X22654046Y-101287142D02*
X22701665Y-101382380D01*
X22701665Y-101382380D02*
X22749284Y-101430000D01*
X22749284Y-101430000D02*
X22844522Y-101477619D01*
X22844522Y-101477619D02*
X23130236Y-101477619D01*
X23130236Y-101477619D02*
X23225474Y-101430000D01*
X23225474Y-101430000D02*
X23273093Y-101382380D01*
X113426904Y-338332619D02*
X113426904Y-337332619D01*
X113426904Y-337332619D02*
X113045952Y-337332619D01*
X113045952Y-337332619D02*
X112950714Y-337380238D01*
X112950714Y-337380238D02*
X112903095Y-337427857D01*
X112903095Y-337427857D02*
X112855476Y-337523095D01*
X112855476Y-337523095D02*
X112855476Y-337665952D01*
X112855476Y-337665952D02*
X112903095Y-337761190D01*
X112903095Y-337761190D02*
X112950714Y-337808809D01*
X112950714Y-337808809D02*
X113045952Y-337856428D01*
X113045952Y-337856428D02*
X113426904Y-337856428D01*
X23701665Y-118590952D02*
X23701665Y-119257619D01*
X23939760Y-118210000D02*
X24177855Y-118924285D01*
X24177855Y-118924285D02*
X23558808Y-118924285D01*
X22987379Y-118257619D02*
X22892141Y-118257619D01*
X22892141Y-118257619D02*
X22796903Y-118305238D01*
X22796903Y-118305238D02*
X22749284Y-118352857D01*
X22749284Y-118352857D02*
X22701665Y-118448095D01*
X22701665Y-118448095D02*
X22654046Y-118638571D01*
X22654046Y-118638571D02*
X22654046Y-118876666D01*
X22654046Y-118876666D02*
X22701665Y-119067142D01*
X22701665Y-119067142D02*
X22749284Y-119162380D01*
X22749284Y-119162380D02*
X22796903Y-119210000D01*
X22796903Y-119210000D02*
X22892141Y-119257619D01*
X22892141Y-119257619D02*
X22987379Y-119257619D01*
X22987379Y-119257619D02*
X23082617Y-119210000D01*
X23082617Y-119210000D02*
X23130236Y-119162380D01*
X23130236Y-119162380D02*
X23177855Y-119067142D01*
X23177855Y-119067142D02*
X23225474Y-118876666D01*
X23225474Y-118876666D02*
X23225474Y-118638571D01*
X23225474Y-118638571D02*
X23177855Y-118448095D01*
X23177855Y-118448095D02*
X23130236Y-118352857D01*
X23130236Y-118352857D02*
X23082617Y-118305238D01*
X23082617Y-118305238D02*
X22987379Y-118257619D01*
X114173095Y-41787619D02*
X114744523Y-41787619D01*
X114458809Y-41787619D02*
X114458809Y-40787619D01*
X114458809Y-40787619D02*
X114554047Y-40930476D01*
X114554047Y-40930476D02*
X114649285Y-41025714D01*
X114649285Y-41025714D02*
X114744523Y-41073333D01*
X113839761Y-40787619D02*
X113220714Y-40787619D01*
X113220714Y-40787619D02*
X113554047Y-41168571D01*
X113554047Y-41168571D02*
X113411190Y-41168571D01*
X113411190Y-41168571D02*
X113315952Y-41216190D01*
X113315952Y-41216190D02*
X113268333Y-41263809D01*
X113268333Y-41263809D02*
X113220714Y-41359047D01*
X113220714Y-41359047D02*
X113220714Y-41597142D01*
X113220714Y-41597142D02*
X113268333Y-41692380D01*
X113268333Y-41692380D02*
X113315952Y-41740000D01*
X113315952Y-41740000D02*
X113411190Y-41787619D01*
X113411190Y-41787619D02*
X113696904Y-41787619D01*
X113696904Y-41787619D02*
X113792142Y-41740000D01*
X113792142Y-41740000D02*
X113839761Y-41692380D01*
X24225474Y-105557619D02*
X23606427Y-105557619D01*
X23606427Y-105557619D02*
X23939760Y-105938571D01*
X23939760Y-105938571D02*
X23796903Y-105938571D01*
X23796903Y-105938571D02*
X23701665Y-105986190D01*
X23701665Y-105986190D02*
X23654046Y-106033809D01*
X23654046Y-106033809D02*
X23606427Y-106129047D01*
X23606427Y-106129047D02*
X23606427Y-106367142D01*
X23606427Y-106367142D02*
X23654046Y-106462380D01*
X23654046Y-106462380D02*
X23701665Y-106510000D01*
X23701665Y-106510000D02*
X23796903Y-106557619D01*
X23796903Y-106557619D02*
X24082617Y-106557619D01*
X24082617Y-106557619D02*
X24177855Y-106510000D01*
X24177855Y-106510000D02*
X24225474Y-106462380D01*
X22701665Y-105557619D02*
X23177855Y-105557619D01*
X23177855Y-105557619D02*
X23225474Y-106033809D01*
X23225474Y-106033809D02*
X23177855Y-105986190D01*
X23177855Y-105986190D02*
X23082617Y-105938571D01*
X23082617Y-105938571D02*
X22844522Y-105938571D01*
X22844522Y-105938571D02*
X22749284Y-105986190D01*
X22749284Y-105986190D02*
X22701665Y-106033809D01*
X22701665Y-106033809D02*
X22654046Y-106129047D01*
X22654046Y-106129047D02*
X22654046Y-106367142D01*
X22654046Y-106367142D02*
X22701665Y-106462380D01*
X22701665Y-106462380D02*
X22749284Y-106510000D01*
X22749284Y-106510000D02*
X22844522Y-106557619D01*
X22844522Y-106557619D02*
X23082617Y-106557619D01*
X23082617Y-106557619D02*
X23177855Y-106510000D01*
X23177855Y-106510000D02*
X23225474Y-106462380D01*
X101996904Y-39882619D02*
X101996904Y-38882619D01*
X101996904Y-38882619D02*
X101663571Y-39596904D01*
X101663571Y-39596904D02*
X101330238Y-38882619D01*
X101330238Y-38882619D02*
X101330238Y-39882619D01*
X24225474Y-103017619D02*
X23606427Y-103017619D01*
X23606427Y-103017619D02*
X23939760Y-103398571D01*
X23939760Y-103398571D02*
X23796903Y-103398571D01*
X23796903Y-103398571D02*
X23701665Y-103446190D01*
X23701665Y-103446190D02*
X23654046Y-103493809D01*
X23654046Y-103493809D02*
X23606427Y-103589047D01*
X23606427Y-103589047D02*
X23606427Y-103827142D01*
X23606427Y-103827142D02*
X23654046Y-103922380D01*
X23654046Y-103922380D02*
X23701665Y-103970000D01*
X23701665Y-103970000D02*
X23796903Y-104017619D01*
X23796903Y-104017619D02*
X24082617Y-104017619D01*
X24082617Y-104017619D02*
X24177855Y-103970000D01*
X24177855Y-103970000D02*
X24225474Y-103922380D01*
X22749284Y-103350952D02*
X22749284Y-104017619D01*
X22987379Y-102970000D02*
X23225474Y-103684285D01*
X23225474Y-103684285D02*
X22606427Y-103684285D01*
X30734047Y-98937619D02*
X30829285Y-98890000D01*
X30829285Y-98890000D02*
X30876904Y-98794761D01*
X30876904Y-98794761D02*
X30876904Y-97937619D01*
X137668095Y-57027619D02*
X138239523Y-57027619D01*
X137953809Y-57027619D02*
X137953809Y-56027619D01*
X137953809Y-56027619D02*
X138049047Y-56170476D01*
X138049047Y-56170476D02*
X138144285Y-56265714D01*
X138144285Y-56265714D02*
X138239523Y-56313333D01*
X137191904Y-57027619D02*
X137001428Y-57027619D01*
X137001428Y-57027619D02*
X136906190Y-56980000D01*
X136906190Y-56980000D02*
X136858571Y-56932380D01*
X136858571Y-56932380D02*
X136763333Y-56789523D01*
X136763333Y-56789523D02*
X136715714Y-56599047D01*
X136715714Y-56599047D02*
X136715714Y-56218095D01*
X136715714Y-56218095D02*
X136763333Y-56122857D01*
X136763333Y-56122857D02*
X136810952Y-56075238D01*
X136810952Y-56075238D02*
X136906190Y-56027619D01*
X136906190Y-56027619D02*
X137096666Y-56027619D01*
X137096666Y-56027619D02*
X137191904Y-56075238D01*
X137191904Y-56075238D02*
X137239523Y-56122857D01*
X137239523Y-56122857D02*
X137287142Y-56218095D01*
X137287142Y-56218095D02*
X137287142Y-56456190D01*
X137287142Y-56456190D02*
X137239523Y-56551428D01*
X137239523Y-56551428D02*
X137191904Y-56599047D01*
X137191904Y-56599047D02*
X137096666Y-56646666D01*
X137096666Y-56646666D02*
X136906190Y-56646666D01*
X136906190Y-56646666D02*
X136810952Y-56599047D01*
X136810952Y-56599047D02*
X136763333Y-56551428D01*
X136763333Y-56551428D02*
X136715714Y-56456190D01*
X137652142Y-61742619D02*
X136985476Y-62742619D01*
X136985476Y-61742619D02*
X137652142Y-62742619D01*
X205597142Y-104287619D02*
X204978095Y-104287619D01*
X204978095Y-104287619D02*
X205311428Y-104668571D01*
X205311428Y-104668571D02*
X205168571Y-104668571D01*
X205168571Y-104668571D02*
X205073333Y-104716190D01*
X205073333Y-104716190D02*
X205025714Y-104763809D01*
X205025714Y-104763809D02*
X204978095Y-104859047D01*
X204978095Y-104859047D02*
X204978095Y-105097142D01*
X204978095Y-105097142D02*
X205025714Y-105192380D01*
X205025714Y-105192380D02*
X205073333Y-105240000D01*
X205073333Y-105240000D02*
X205168571Y-105287619D01*
X205168571Y-105287619D02*
X205454285Y-105287619D01*
X205454285Y-105287619D02*
X205549523Y-105240000D01*
X205549523Y-105240000D02*
X205597142Y-105192380D01*
X204120952Y-104287619D02*
X204311428Y-104287619D01*
X204311428Y-104287619D02*
X204406666Y-104335238D01*
X204406666Y-104335238D02*
X204454285Y-104382857D01*
X204454285Y-104382857D02*
X204549523Y-104525714D01*
X204549523Y-104525714D02*
X204597142Y-104716190D01*
X204597142Y-104716190D02*
X204597142Y-105097142D01*
X204597142Y-105097142D02*
X204549523Y-105192380D01*
X204549523Y-105192380D02*
X204501904Y-105240000D01*
X204501904Y-105240000D02*
X204406666Y-105287619D01*
X204406666Y-105287619D02*
X204216190Y-105287619D01*
X204216190Y-105287619D02*
X204120952Y-105240000D01*
X204120952Y-105240000D02*
X204073333Y-105192380D01*
X204073333Y-105192380D02*
X204025714Y-105097142D01*
X204025714Y-105097142D02*
X204025714Y-104859047D01*
X204025714Y-104859047D02*
X204073333Y-104763809D01*
X204073333Y-104763809D02*
X204120952Y-104716190D01*
X204120952Y-104716190D02*
X204216190Y-104668571D01*
X204216190Y-104668571D02*
X204406666Y-104668571D01*
X204406666Y-104668571D02*
X204501904Y-104716190D01*
X204501904Y-104716190D02*
X204549523Y-104763809D01*
X204549523Y-104763809D02*
X204597142Y-104859047D01*
X23987142Y-28722619D02*
X23320476Y-28722619D01*
X23320476Y-28722619D02*
X23749047Y-29722619D01*
X221186665Y-115415952D02*
X221186665Y-116082619D01*
X221424760Y-115035000D02*
X221662855Y-115749285D01*
X221662855Y-115749285D02*
X221043808Y-115749285D01*
X220472379Y-115082619D02*
X220377141Y-115082619D01*
X220377141Y-115082619D02*
X220281903Y-115130238D01*
X220281903Y-115130238D02*
X220234284Y-115177857D01*
X220234284Y-115177857D02*
X220186665Y-115273095D01*
X220186665Y-115273095D02*
X220139046Y-115463571D01*
X220139046Y-115463571D02*
X220139046Y-115701666D01*
X220139046Y-115701666D02*
X220186665Y-115892142D01*
X220186665Y-115892142D02*
X220234284Y-115987380D01*
X220234284Y-115987380D02*
X220281903Y-116035000D01*
X220281903Y-116035000D02*
X220377141Y-116082619D01*
X220377141Y-116082619D02*
X220472379Y-116082619D01*
X220472379Y-116082619D02*
X220567617Y-116035000D01*
X220567617Y-116035000D02*
X220615236Y-115987380D01*
X220615236Y-115987380D02*
X220662855Y-115892142D01*
X220662855Y-115892142D02*
X220710474Y-115701666D01*
X220710474Y-115701666D02*
X220710474Y-115463571D01*
X220710474Y-115463571D02*
X220662855Y-115273095D01*
X220662855Y-115273095D02*
X220615236Y-115177857D01*
X220615236Y-115177857D02*
X220567617Y-115130238D01*
X220567617Y-115130238D02*
X220472379Y-115082619D01*
X102108095Y-34167619D02*
X102679523Y-34167619D01*
X102393809Y-34167619D02*
X102393809Y-33167619D01*
X102393809Y-33167619D02*
X102489047Y-33310476D01*
X102489047Y-33310476D02*
X102584285Y-33405714D01*
X102584285Y-33405714D02*
X102679523Y-33453333D01*
X101489047Y-33167619D02*
X101393809Y-33167619D01*
X101393809Y-33167619D02*
X101298571Y-33215238D01*
X101298571Y-33215238D02*
X101250952Y-33262857D01*
X101250952Y-33262857D02*
X101203333Y-33358095D01*
X101203333Y-33358095D02*
X101155714Y-33548571D01*
X101155714Y-33548571D02*
X101155714Y-33786666D01*
X101155714Y-33786666D02*
X101203333Y-33977142D01*
X101203333Y-33977142D02*
X101250952Y-34072380D01*
X101250952Y-34072380D02*
X101298571Y-34120000D01*
X101298571Y-34120000D02*
X101393809Y-34167619D01*
X101393809Y-34167619D02*
X101489047Y-34167619D01*
X101489047Y-34167619D02*
X101584285Y-34120000D01*
X101584285Y-34120000D02*
X101631904Y-34072380D01*
X101631904Y-34072380D02*
X101679523Y-33977142D01*
X101679523Y-33977142D02*
X101727142Y-33786666D01*
X101727142Y-33786666D02*
X101727142Y-33548571D01*
X101727142Y-33548571D02*
X101679523Y-33358095D01*
X101679523Y-33358095D02*
X101631904Y-33262857D01*
X101631904Y-33262857D02*
X101584285Y-33215238D01*
X101584285Y-33215238D02*
X101489047Y-33167619D01*
X77866904Y-23483809D02*
X77533571Y-23483809D01*
X77390714Y-24007619D02*
X77866904Y-24007619D01*
X77866904Y-24007619D02*
X77866904Y-23007619D01*
X77866904Y-23007619D02*
X77390714Y-23007619D01*
X30876904Y-42422619D02*
X30876904Y-41422619D01*
X30876904Y-41422619D02*
X30305476Y-42422619D01*
X30305476Y-42422619D02*
X30305476Y-41422619D01*
X212629761Y-337665952D02*
X212248809Y-337665952D01*
X212486904Y-337332619D02*
X212486904Y-338189761D01*
X212486904Y-338189761D02*
X212439285Y-338285000D01*
X212439285Y-338285000D02*
X212344047Y-338332619D01*
X212344047Y-338332619D02*
X212248809Y-338332619D01*
X90662142Y-26182619D02*
X89995476Y-26182619D01*
X89995476Y-26182619D02*
X90424047Y-27182619D01*
X189087142Y-94762619D02*
X188468095Y-94762619D01*
X188468095Y-94762619D02*
X188801428Y-95143571D01*
X188801428Y-95143571D02*
X188658571Y-95143571D01*
X188658571Y-95143571D02*
X188563333Y-95191190D01*
X188563333Y-95191190D02*
X188515714Y-95238809D01*
X188515714Y-95238809D02*
X188468095Y-95334047D01*
X188468095Y-95334047D02*
X188468095Y-95572142D01*
X188468095Y-95572142D02*
X188515714Y-95667380D01*
X188515714Y-95667380D02*
X188563333Y-95715000D01*
X188563333Y-95715000D02*
X188658571Y-95762619D01*
X188658571Y-95762619D02*
X188944285Y-95762619D01*
X188944285Y-95762619D02*
X189039523Y-95715000D01*
X189039523Y-95715000D02*
X189087142Y-95667380D01*
X188087142Y-94857857D02*
X188039523Y-94810238D01*
X188039523Y-94810238D02*
X187944285Y-94762619D01*
X187944285Y-94762619D02*
X187706190Y-94762619D01*
X187706190Y-94762619D02*
X187610952Y-94810238D01*
X187610952Y-94810238D02*
X187563333Y-94857857D01*
X187563333Y-94857857D02*
X187515714Y-94953095D01*
X187515714Y-94953095D02*
X187515714Y-95048333D01*
X187515714Y-95048333D02*
X187563333Y-95191190D01*
X187563333Y-95191190D02*
X188134761Y-95762619D01*
X188134761Y-95762619D02*
X187515714Y-95762619D01*
X78073333Y-18895952D02*
X78073333Y-19562619D01*
X78311428Y-18515000D02*
X78549523Y-19229285D01*
X78549523Y-19229285D02*
X77930476Y-19229285D01*
X77231904Y-338332619D02*
X77231904Y-337332619D01*
X77231904Y-337332619D02*
X76993809Y-337332619D01*
X76993809Y-337332619D02*
X76850952Y-337380238D01*
X76850952Y-337380238D02*
X76755714Y-337475476D01*
X76755714Y-337475476D02*
X76708095Y-337570714D01*
X76708095Y-337570714D02*
X76660476Y-337761190D01*
X76660476Y-337761190D02*
X76660476Y-337904047D01*
X76660476Y-337904047D02*
X76708095Y-338094523D01*
X76708095Y-338094523D02*
X76755714Y-338189761D01*
X76755714Y-338189761D02*
X76850952Y-338285000D01*
X76850952Y-338285000D02*
X76993809Y-338332619D01*
X76993809Y-338332619D02*
X77231904Y-338332619D01*
X173259761Y-337665952D02*
X172878809Y-337665952D01*
X173116904Y-338332619D02*
X173116904Y-337475476D01*
X173116904Y-337475476D02*
X173069285Y-337380238D01*
X173069285Y-337380238D02*
X172974047Y-337332619D01*
X172974047Y-337332619D02*
X172878809Y-337332619D01*
X24225474Y-92857619D02*
X23606427Y-92857619D01*
X23606427Y-92857619D02*
X23939760Y-93238571D01*
X23939760Y-93238571D02*
X23796903Y-93238571D01*
X23796903Y-93238571D02*
X23701665Y-93286190D01*
X23701665Y-93286190D02*
X23654046Y-93333809D01*
X23654046Y-93333809D02*
X23606427Y-93429047D01*
X23606427Y-93429047D02*
X23606427Y-93667142D01*
X23606427Y-93667142D02*
X23654046Y-93762380D01*
X23654046Y-93762380D02*
X23701665Y-93810000D01*
X23701665Y-93810000D02*
X23796903Y-93857619D01*
X23796903Y-93857619D02*
X24082617Y-93857619D01*
X24082617Y-93857619D02*
X24177855Y-93810000D01*
X24177855Y-93810000D02*
X24225474Y-93762380D01*
X22987379Y-92857619D02*
X22892141Y-92857619D01*
X22892141Y-92857619D02*
X22796903Y-92905238D01*
X22796903Y-92905238D02*
X22749284Y-92952857D01*
X22749284Y-92952857D02*
X22701665Y-93048095D01*
X22701665Y-93048095D02*
X22654046Y-93238571D01*
X22654046Y-93238571D02*
X22654046Y-93476666D01*
X22654046Y-93476666D02*
X22701665Y-93667142D01*
X22701665Y-93667142D02*
X22749284Y-93762380D01*
X22749284Y-93762380D02*
X22796903Y-93810000D01*
X22796903Y-93810000D02*
X22892141Y-93857619D01*
X22892141Y-93857619D02*
X22987379Y-93857619D01*
X22987379Y-93857619D02*
X23082617Y-93810000D01*
X23082617Y-93810000D02*
X23130236Y-93762380D01*
X23130236Y-93762380D02*
X23177855Y-93667142D01*
X23177855Y-93667142D02*
X23225474Y-93476666D01*
X23225474Y-93476666D02*
X23225474Y-93238571D01*
X23225474Y-93238571D02*
X23177855Y-93048095D01*
X23177855Y-93048095D02*
X23130236Y-92952857D01*
X23130236Y-92952857D02*
X23082617Y-92905238D01*
X23082617Y-92905238D02*
X22987379Y-92857619D01*
X188849047Y-338332619D02*
X188944285Y-338285000D01*
X188944285Y-338285000D02*
X188991904Y-338189761D01*
X188991904Y-338189761D02*
X188991904Y-337332619D01*
X224647142Y-337665952D02*
X224456666Y-338332619D01*
X224456666Y-338332619D02*
X224266190Y-337856428D01*
X224266190Y-337856428D02*
X224075714Y-338332619D01*
X224075714Y-338332619D02*
X223885238Y-337665952D01*
X30876904Y-109097619D02*
X30876904Y-108430952D01*
X30876904Y-108621428D02*
X30829285Y-108526190D01*
X30829285Y-108526190D02*
X30781666Y-108478571D01*
X30781666Y-108478571D02*
X30686428Y-108430952D01*
X30686428Y-108430952D02*
X30591190Y-108430952D01*
X30876904Y-39882619D02*
X30876904Y-38882619D01*
X30876904Y-38882619D02*
X30543571Y-39596904D01*
X30543571Y-39596904D02*
X30210238Y-38882619D01*
X30210238Y-38882619D02*
X30210238Y-39882619D01*
X24177855Y-71997857D02*
X24130236Y-71950238D01*
X24130236Y-71950238D02*
X24034998Y-71902619D01*
X24034998Y-71902619D02*
X23796903Y-71902619D01*
X23796903Y-71902619D02*
X23701665Y-71950238D01*
X23701665Y-71950238D02*
X23654046Y-71997857D01*
X23654046Y-71997857D02*
X23606427Y-72093095D01*
X23606427Y-72093095D02*
X23606427Y-72188333D01*
X23606427Y-72188333D02*
X23654046Y-72331190D01*
X23654046Y-72331190D02*
X24225474Y-72902619D01*
X24225474Y-72902619D02*
X23606427Y-72902619D01*
X22749284Y-72235952D02*
X22749284Y-72902619D01*
X22987379Y-71855000D02*
X23225474Y-72569285D01*
X23225474Y-72569285D02*
X22606427Y-72569285D01*
X224012142Y-3655952D02*
X223821666Y-4322619D01*
X223821666Y-4322619D02*
X223631190Y-3846428D01*
X223631190Y-3846428D02*
X223440714Y-4322619D01*
X223440714Y-4322619D02*
X223250238Y-3655952D01*
X23606427Y-42422619D02*
X24177855Y-42422619D01*
X23892141Y-42422619D02*
X23892141Y-41422619D01*
X23892141Y-41422619D02*
X23987379Y-41565476D01*
X23987379Y-41565476D02*
X24082617Y-41660714D01*
X24082617Y-41660714D02*
X24177855Y-41708333D01*
X23225474Y-41517857D02*
X23177855Y-41470238D01*
X23177855Y-41470238D02*
X23082617Y-41422619D01*
X23082617Y-41422619D02*
X22844522Y-41422619D01*
X22844522Y-41422619D02*
X22749284Y-41470238D01*
X22749284Y-41470238D02*
X22701665Y-41517857D01*
X22701665Y-41517857D02*
X22654046Y-41613095D01*
X22654046Y-41613095D02*
X22654046Y-41708333D01*
X22654046Y-41708333D02*
X22701665Y-41851190D01*
X22701665Y-41851190D02*
X23273093Y-42422619D01*
X23273093Y-42422619D02*
X22654046Y-42422619D01*
X133254761Y-337332619D02*
X132921428Y-338332619D01*
X132921428Y-338332619D02*
X132588095Y-337332619D01*
X192166904Y-4322619D02*
X192166904Y-3655952D01*
X192166904Y-3751190D02*
X192119285Y-3703571D01*
X192119285Y-3703571D02*
X192024047Y-3655952D01*
X192024047Y-3655952D02*
X191881190Y-3655952D01*
X191881190Y-3655952D02*
X191785952Y-3703571D01*
X191785952Y-3703571D02*
X191738333Y-3798809D01*
X191738333Y-3798809D02*
X191738333Y-4322619D01*
X191738333Y-3798809D02*
X191690714Y-3703571D01*
X191690714Y-3703571D02*
X191595476Y-3655952D01*
X191595476Y-3655952D02*
X191452619Y-3655952D01*
X191452619Y-3655952D02*
X191357380Y-3703571D01*
X191357380Y-3703571D02*
X191309761Y-3798809D01*
X191309761Y-3798809D02*
X191309761Y-4322619D01*
X208724523Y-338285000D02*
X208629285Y-338332619D01*
X208629285Y-338332619D02*
X208438809Y-338332619D01*
X208438809Y-338332619D02*
X208343571Y-338285000D01*
X208343571Y-338285000D02*
X208295952Y-338189761D01*
X208295952Y-338189761D02*
X208295952Y-338142142D01*
X208295952Y-338142142D02*
X208343571Y-338046904D01*
X208343571Y-338046904D02*
X208438809Y-337999285D01*
X208438809Y-337999285D02*
X208581666Y-337999285D01*
X208581666Y-337999285D02*
X208676904Y-337951666D01*
X208676904Y-337951666D02*
X208724523Y-337856428D01*
X208724523Y-337856428D02*
X208724523Y-337808809D01*
X208724523Y-337808809D02*
X208676904Y-337713571D01*
X208676904Y-337713571D02*
X208581666Y-337665952D01*
X208581666Y-337665952D02*
X208438809Y-337665952D01*
X208438809Y-337665952D02*
X208343571Y-337713571D01*
X90281190Y-31897619D02*
X90281190Y-32611904D01*
X90281190Y-32611904D02*
X90328809Y-32754761D01*
X90328809Y-32754761D02*
X90424047Y-32850000D01*
X90424047Y-32850000D02*
X90566904Y-32897619D01*
X90566904Y-32897619D02*
X90662142Y-32897619D01*
X117919523Y-49995000D02*
X117776666Y-50042619D01*
X117776666Y-50042619D02*
X117538571Y-50042619D01*
X117538571Y-50042619D02*
X117443333Y-49995000D01*
X117443333Y-49995000D02*
X117395714Y-49947380D01*
X117395714Y-49947380D02*
X117348095Y-49852142D01*
X117348095Y-49852142D02*
X117348095Y-49756904D01*
X117348095Y-49756904D02*
X117395714Y-49661666D01*
X117395714Y-49661666D02*
X117443333Y-49614047D01*
X117443333Y-49614047D02*
X117538571Y-49566428D01*
X117538571Y-49566428D02*
X117729047Y-49518809D01*
X117729047Y-49518809D02*
X117824285Y-49471190D01*
X117824285Y-49471190D02*
X117871904Y-49423571D01*
X117871904Y-49423571D02*
X117919523Y-49328333D01*
X117919523Y-49328333D02*
X117919523Y-49233095D01*
X117919523Y-49233095D02*
X117871904Y-49137857D01*
X117871904Y-49137857D02*
X117824285Y-49090238D01*
X117824285Y-49090238D02*
X117729047Y-49042619D01*
X117729047Y-49042619D02*
X117490952Y-49042619D01*
X117490952Y-49042619D02*
X117348095Y-49090238D01*
X24177855Y-85332857D02*
X24130236Y-85285238D01*
X24130236Y-85285238D02*
X24034998Y-85237619D01*
X24034998Y-85237619D02*
X23796903Y-85237619D01*
X23796903Y-85237619D02*
X23701665Y-85285238D01*
X23701665Y-85285238D02*
X23654046Y-85332857D01*
X23654046Y-85332857D02*
X23606427Y-85428095D01*
X23606427Y-85428095D02*
X23606427Y-85523333D01*
X23606427Y-85523333D02*
X23654046Y-85666190D01*
X23654046Y-85666190D02*
X24225474Y-86237619D01*
X24225474Y-86237619D02*
X23606427Y-86237619D01*
X23273093Y-85237619D02*
X22606427Y-85237619D01*
X22606427Y-85237619D02*
X23034998Y-86237619D01*
X97710714Y-37342619D02*
X98186904Y-37342619D01*
X98186904Y-37342619D02*
X98186904Y-36342619D01*
X24177855Y-66917857D02*
X24130236Y-66870238D01*
X24130236Y-66870238D02*
X24034998Y-66822619D01*
X24034998Y-66822619D02*
X23796903Y-66822619D01*
X23796903Y-66822619D02*
X23701665Y-66870238D01*
X23701665Y-66870238D02*
X23654046Y-66917857D01*
X23654046Y-66917857D02*
X23606427Y-67013095D01*
X23606427Y-67013095D02*
X23606427Y-67108333D01*
X23606427Y-67108333D02*
X23654046Y-67251190D01*
X23654046Y-67251190D02*
X24225474Y-67822619D01*
X24225474Y-67822619D02*
X23606427Y-67822619D01*
X23225474Y-66917857D02*
X23177855Y-66870238D01*
X23177855Y-66870238D02*
X23082617Y-66822619D01*
X23082617Y-66822619D02*
X22844522Y-66822619D01*
X22844522Y-66822619D02*
X22749284Y-66870238D01*
X22749284Y-66870238D02*
X22701665Y-66917857D01*
X22701665Y-66917857D02*
X22654046Y-67013095D01*
X22654046Y-67013095D02*
X22654046Y-67108333D01*
X22654046Y-67108333D02*
X22701665Y-67251190D01*
X22701665Y-67251190D02*
X23273093Y-67822619D01*
X23273093Y-67822619D02*
X22654046Y-67822619D01*
X30686428Y-64806428D02*
X30686428Y-65282619D01*
X31019761Y-64282619D02*
X30686428Y-64806428D01*
X30686428Y-64806428D02*
X30353095Y-64282619D01*
X30972142Y-124337619D02*
X30448333Y-123670952D01*
X30972142Y-123670952D02*
X30448333Y-124337619D01*
X92821190Y-337332619D02*
X92821190Y-338046904D01*
X92821190Y-338046904D02*
X92868809Y-338189761D01*
X92868809Y-338189761D02*
X92964047Y-338285000D01*
X92964047Y-338285000D02*
X93106904Y-338332619D01*
X93106904Y-338332619D02*
X93202142Y-338332619D01*
X172624761Y-3655952D02*
X172243809Y-3655952D01*
X172481904Y-4322619D02*
X172481904Y-3465476D01*
X172481904Y-3465476D02*
X172434285Y-3370238D01*
X172434285Y-3370238D02*
X172339047Y-3322619D01*
X172339047Y-3322619D02*
X172243809Y-3322619D01*
X152368333Y-338332619D02*
X152368333Y-337808809D01*
X152368333Y-337808809D02*
X152415952Y-337713571D01*
X152415952Y-337713571D02*
X152511190Y-337665952D01*
X152511190Y-337665952D02*
X152701666Y-337665952D01*
X152701666Y-337665952D02*
X152796904Y-337713571D01*
X152368333Y-338285000D02*
X152463571Y-338332619D01*
X152463571Y-338332619D02*
X152701666Y-338332619D01*
X152701666Y-338332619D02*
X152796904Y-338285000D01*
X152796904Y-338285000D02*
X152844523Y-338189761D01*
X152844523Y-338189761D02*
X152844523Y-338094523D01*
X152844523Y-338094523D02*
X152796904Y-337999285D01*
X152796904Y-337999285D02*
X152701666Y-337951666D01*
X152701666Y-337951666D02*
X152463571Y-337951666D01*
X152463571Y-337951666D02*
X152368333Y-337904047D01*
X100250714Y-4322619D02*
X100726904Y-4322619D01*
X100726904Y-4322619D02*
X100726904Y-3322619D01*
X169449761Y-88110952D02*
X169068809Y-88110952D01*
X169306904Y-88777619D02*
X169306904Y-87920476D01*
X169306904Y-87920476D02*
X169259285Y-87825238D01*
X169259285Y-87825238D02*
X169164047Y-87777619D01*
X169164047Y-87777619D02*
X169068809Y-87777619D01*
X30448333Y-75395000D02*
X30543571Y-75442619D01*
X30543571Y-75442619D02*
X30734047Y-75442619D01*
X30734047Y-75442619D02*
X30829285Y-75395000D01*
X30829285Y-75395000D02*
X30876904Y-75347380D01*
X30876904Y-75347380D02*
X30924523Y-75252142D01*
X30924523Y-75252142D02*
X30924523Y-74966428D01*
X30924523Y-74966428D02*
X30876904Y-74871190D01*
X30876904Y-74871190D02*
X30829285Y-74823571D01*
X30829285Y-74823571D02*
X30734047Y-74775952D01*
X30734047Y-74775952D02*
X30543571Y-74775952D01*
X30543571Y-74775952D02*
X30448333Y-74823571D01*
X81978571Y-27293809D02*
X82311904Y-27293809D01*
X82311904Y-27817619D02*
X82311904Y-26817619D01*
X82311904Y-26817619D02*
X81835714Y-26817619D01*
X23701665Y-123670952D02*
X23701665Y-124337619D01*
X23939760Y-123290000D02*
X24177855Y-124004285D01*
X24177855Y-124004285D02*
X23558808Y-124004285D01*
X23225474Y-123432857D02*
X23177855Y-123385238D01*
X23177855Y-123385238D02*
X23082617Y-123337619D01*
X23082617Y-123337619D02*
X22844522Y-123337619D01*
X22844522Y-123337619D02*
X22749284Y-123385238D01*
X22749284Y-123385238D02*
X22701665Y-123432857D01*
X22701665Y-123432857D02*
X22654046Y-123528095D01*
X22654046Y-123528095D02*
X22654046Y-123623333D01*
X22654046Y-123623333D02*
X22701665Y-123766190D01*
X22701665Y-123766190D02*
X23273093Y-124337619D01*
X23273093Y-124337619D02*
X22654046Y-124337619D01*
X30876904Y-44962619D02*
X30876904Y-43962619D01*
X30876904Y-43962619D02*
X30495952Y-43962619D01*
X30495952Y-43962619D02*
X30400714Y-44010238D01*
X30400714Y-44010238D02*
X30353095Y-44057857D01*
X30353095Y-44057857D02*
X30305476Y-44153095D01*
X30305476Y-44153095D02*
X30305476Y-44295952D01*
X30305476Y-44295952D02*
X30353095Y-44391190D01*
X30353095Y-44391190D02*
X30400714Y-44438809D01*
X30400714Y-44438809D02*
X30495952Y-44486428D01*
X30495952Y-44486428D02*
X30876904Y-44486428D01*
X23606427Y-37342619D02*
X24177855Y-37342619D01*
X23892141Y-37342619D02*
X23892141Y-36342619D01*
X23892141Y-36342619D02*
X23987379Y-36485476D01*
X23987379Y-36485476D02*
X24082617Y-36580714D01*
X24082617Y-36580714D02*
X24177855Y-36628333D01*
X22987379Y-36342619D02*
X22892141Y-36342619D01*
X22892141Y-36342619D02*
X22796903Y-36390238D01*
X22796903Y-36390238D02*
X22749284Y-36437857D01*
X22749284Y-36437857D02*
X22701665Y-36533095D01*
X22701665Y-36533095D02*
X22654046Y-36723571D01*
X22654046Y-36723571D02*
X22654046Y-36961666D01*
X22654046Y-36961666D02*
X22701665Y-37152142D01*
X22701665Y-37152142D02*
X22749284Y-37247380D01*
X22749284Y-37247380D02*
X22796903Y-37295000D01*
X22796903Y-37295000D02*
X22892141Y-37342619D01*
X22892141Y-37342619D02*
X22987379Y-37342619D01*
X22987379Y-37342619D02*
X23082617Y-37295000D01*
X23082617Y-37295000D02*
X23130236Y-37247380D01*
X23130236Y-37247380D02*
X23177855Y-37152142D01*
X23177855Y-37152142D02*
X23225474Y-36961666D01*
X23225474Y-36961666D02*
X23225474Y-36723571D01*
X23225474Y-36723571D02*
X23177855Y-36533095D01*
X23177855Y-36533095D02*
X23130236Y-36437857D01*
X23130236Y-36437857D02*
X23082617Y-36390238D01*
X23082617Y-36390238D02*
X22987379Y-36342619D01*
X30876904Y-93190952D02*
X30876904Y-94048095D01*
X30876904Y-94048095D02*
X30924523Y-94143333D01*
X30924523Y-94143333D02*
X31019761Y-94190952D01*
X31019761Y-94190952D02*
X31067380Y-94190952D01*
X30876904Y-92857619D02*
X30924523Y-92905238D01*
X30924523Y-92905238D02*
X30876904Y-92952857D01*
X30876904Y-92952857D02*
X30829285Y-92905238D01*
X30829285Y-92905238D02*
X30876904Y-92857619D01*
X30876904Y-92857619D02*
X30876904Y-92952857D01*
X30448333Y-116050952D02*
X30448333Y-116717619D01*
X30876904Y-116050952D02*
X30876904Y-116574761D01*
X30876904Y-116574761D02*
X30829285Y-116670000D01*
X30829285Y-116670000D02*
X30734047Y-116717619D01*
X30734047Y-116717619D02*
X30591190Y-116717619D01*
X30591190Y-116717619D02*
X30495952Y-116670000D01*
X30495952Y-116670000D02*
X30448333Y-116622380D01*
X30305476Y-47502619D02*
X30638809Y-47026428D01*
X30876904Y-47502619D02*
X30876904Y-46502619D01*
X30876904Y-46502619D02*
X30495952Y-46502619D01*
X30495952Y-46502619D02*
X30400714Y-46550238D01*
X30400714Y-46550238D02*
X30353095Y-46597857D01*
X30353095Y-46597857D02*
X30305476Y-46693095D01*
X30305476Y-46693095D02*
X30305476Y-46835952D01*
X30305476Y-46835952D02*
X30353095Y-46931190D01*
X30353095Y-46931190D02*
X30400714Y-46978809D01*
X30400714Y-46978809D02*
X30495952Y-47026428D01*
X30495952Y-47026428D02*
X30876904Y-47026428D01*
X176291904Y-4322619D02*
X176291904Y-3322619D01*
X175863333Y-4322619D02*
X175863333Y-3798809D01*
X175863333Y-3798809D02*
X175910952Y-3703571D01*
X175910952Y-3703571D02*
X176006190Y-3655952D01*
X176006190Y-3655952D02*
X176149047Y-3655952D01*
X176149047Y-3655952D02*
X176244285Y-3703571D01*
X176244285Y-3703571D02*
X176291904Y-3751190D01*
X212693333Y-115415952D02*
X212693333Y-116082619D01*
X213121904Y-115415952D02*
X213121904Y-115939761D01*
X213121904Y-115939761D02*
X213074285Y-116035000D01*
X213074285Y-116035000D02*
X212979047Y-116082619D01*
X212979047Y-116082619D02*
X212836190Y-116082619D01*
X212836190Y-116082619D02*
X212740952Y-116035000D01*
X212740952Y-116035000D02*
X212693333Y-115987380D01*
X30543571Y-26658809D02*
X30876904Y-26658809D01*
X30876904Y-27182619D02*
X30876904Y-26182619D01*
X30876904Y-26182619D02*
X30400714Y-26182619D01*
X30448333Y-70362619D02*
X30448333Y-69838809D01*
X30448333Y-69838809D02*
X30495952Y-69743571D01*
X30495952Y-69743571D02*
X30591190Y-69695952D01*
X30591190Y-69695952D02*
X30781666Y-69695952D01*
X30781666Y-69695952D02*
X30876904Y-69743571D01*
X30448333Y-70315000D02*
X30543571Y-70362619D01*
X30543571Y-70362619D02*
X30781666Y-70362619D01*
X30781666Y-70362619D02*
X30876904Y-70315000D01*
X30876904Y-70315000D02*
X30924523Y-70219761D01*
X30924523Y-70219761D02*
X30924523Y-70124523D01*
X30924523Y-70124523D02*
X30876904Y-70029285D01*
X30876904Y-70029285D02*
X30781666Y-69981666D01*
X30781666Y-69981666D02*
X30543571Y-69981666D01*
X30543571Y-69981666D02*
X30448333Y-69934047D01*
X174037855Y-84697857D02*
X173990236Y-84650238D01*
X173990236Y-84650238D02*
X173894998Y-84602619D01*
X173894998Y-84602619D02*
X173656903Y-84602619D01*
X173656903Y-84602619D02*
X173561665Y-84650238D01*
X173561665Y-84650238D02*
X173514046Y-84697857D01*
X173514046Y-84697857D02*
X173466427Y-84793095D01*
X173466427Y-84793095D02*
X173466427Y-84888333D01*
X173466427Y-84888333D02*
X173514046Y-85031190D01*
X173514046Y-85031190D02*
X174085474Y-85602619D01*
X174085474Y-85602619D02*
X173466427Y-85602619D01*
X172894998Y-85031190D02*
X172990236Y-84983571D01*
X172990236Y-84983571D02*
X173037855Y-84935952D01*
X173037855Y-84935952D02*
X173085474Y-84840714D01*
X173085474Y-84840714D02*
X173085474Y-84793095D01*
X173085474Y-84793095D02*
X173037855Y-84697857D01*
X173037855Y-84697857D02*
X172990236Y-84650238D01*
X172990236Y-84650238D02*
X172894998Y-84602619D01*
X172894998Y-84602619D02*
X172704522Y-84602619D01*
X172704522Y-84602619D02*
X172609284Y-84650238D01*
X172609284Y-84650238D02*
X172561665Y-84697857D01*
X172561665Y-84697857D02*
X172514046Y-84793095D01*
X172514046Y-84793095D02*
X172514046Y-84840714D01*
X172514046Y-84840714D02*
X172561665Y-84935952D01*
X172561665Y-84935952D02*
X172609284Y-84983571D01*
X172609284Y-84983571D02*
X172704522Y-85031190D01*
X172704522Y-85031190D02*
X172894998Y-85031190D01*
X172894998Y-85031190D02*
X172990236Y-85078809D01*
X172990236Y-85078809D02*
X173037855Y-85126428D01*
X173037855Y-85126428D02*
X173085474Y-85221666D01*
X173085474Y-85221666D02*
X173085474Y-85412142D01*
X173085474Y-85412142D02*
X173037855Y-85507380D01*
X173037855Y-85507380D02*
X172990236Y-85555000D01*
X172990236Y-85555000D02*
X172894998Y-85602619D01*
X172894998Y-85602619D02*
X172704522Y-85602619D01*
X172704522Y-85602619D02*
X172609284Y-85555000D01*
X172609284Y-85555000D02*
X172561665Y-85507380D01*
X172561665Y-85507380D02*
X172514046Y-85412142D01*
X172514046Y-85412142D02*
X172514046Y-85221666D01*
X172514046Y-85221666D02*
X172561665Y-85126428D01*
X172561665Y-85126428D02*
X172609284Y-85078809D01*
X172609284Y-85078809D02*
X172704522Y-85031190D01*
X125634761Y-337332619D02*
X125063333Y-337332619D01*
X125349047Y-338332619D02*
X125349047Y-337332619D01*
X121824761Y-51582619D02*
X121253333Y-51582619D01*
X121539047Y-52582619D02*
X121539047Y-51582619D01*
X66103571Y-16498809D02*
X65960714Y-16546428D01*
X65960714Y-16546428D02*
X65913095Y-16594047D01*
X65913095Y-16594047D02*
X65865476Y-16689285D01*
X65865476Y-16689285D02*
X65865476Y-16832142D01*
X65865476Y-16832142D02*
X65913095Y-16927380D01*
X65913095Y-16927380D02*
X65960714Y-16975000D01*
X65960714Y-16975000D02*
X66055952Y-17022619D01*
X66055952Y-17022619D02*
X66436904Y-17022619D01*
X66436904Y-17022619D02*
X66436904Y-16022619D01*
X66436904Y-16022619D02*
X66103571Y-16022619D01*
X66103571Y-16022619D02*
X66008333Y-16070238D01*
X66008333Y-16070238D02*
X65960714Y-16117857D01*
X65960714Y-16117857D02*
X65913095Y-16213095D01*
X65913095Y-16213095D02*
X65913095Y-16308333D01*
X65913095Y-16308333D02*
X65960714Y-16403571D01*
X65960714Y-16403571D02*
X66008333Y-16451190D01*
X66008333Y-16451190D02*
X66103571Y-16498809D01*
X66103571Y-16498809D02*
X66436904Y-16498809D01*
X30591190Y-31262619D02*
X30591190Y-31976904D01*
X30591190Y-31976904D02*
X30638809Y-32119761D01*
X30638809Y-32119761D02*
X30734047Y-32215000D01*
X30734047Y-32215000D02*
X30876904Y-32262619D01*
X30876904Y-32262619D02*
X30972142Y-32262619D01*
X176926904Y-338332619D02*
X176926904Y-337332619D01*
X176498333Y-338332619D02*
X176498333Y-337808809D01*
X176498333Y-337808809D02*
X176545952Y-337713571D01*
X176545952Y-337713571D02*
X176641190Y-337665952D01*
X176641190Y-337665952D02*
X176784047Y-337665952D01*
X176784047Y-337665952D02*
X176879285Y-337713571D01*
X176879285Y-337713571D02*
X176926904Y-337761190D01*
X196611904Y-337665952D02*
X196611904Y-338332619D01*
X196611904Y-337761190D02*
X196564285Y-337713571D01*
X196564285Y-337713571D02*
X196469047Y-337665952D01*
X196469047Y-337665952D02*
X196326190Y-337665952D01*
X196326190Y-337665952D02*
X196230952Y-337713571D01*
X196230952Y-337713571D02*
X196183333Y-337808809D01*
X196183333Y-337808809D02*
X196183333Y-338332619D01*
X197246904Y-105255952D02*
X197246904Y-106255952D01*
X197246904Y-105303571D02*
X197151666Y-105255952D01*
X197151666Y-105255952D02*
X196961190Y-105255952D01*
X196961190Y-105255952D02*
X196865952Y-105303571D01*
X196865952Y-105303571D02*
X196818333Y-105351190D01*
X196818333Y-105351190D02*
X196770714Y-105446428D01*
X196770714Y-105446428D02*
X196770714Y-105732142D01*
X196770714Y-105732142D02*
X196818333Y-105827380D01*
X196818333Y-105827380D02*
X196865952Y-105875000D01*
X196865952Y-105875000D02*
X196961190Y-105922619D01*
X196961190Y-105922619D02*
X197151666Y-105922619D01*
X197151666Y-105922619D02*
X197246904Y-105875000D01*
X23606427Y-60202619D02*
X24177855Y-60202619D01*
X23892141Y-60202619D02*
X23892141Y-59202619D01*
X23892141Y-59202619D02*
X23987379Y-59345476D01*
X23987379Y-59345476D02*
X24082617Y-59440714D01*
X24082617Y-59440714D02*
X24177855Y-59488333D01*
X23130236Y-60202619D02*
X22939760Y-60202619D01*
X22939760Y-60202619D02*
X22844522Y-60155000D01*
X22844522Y-60155000D02*
X22796903Y-60107380D01*
X22796903Y-60107380D02*
X22701665Y-59964523D01*
X22701665Y-59964523D02*
X22654046Y-59774047D01*
X22654046Y-59774047D02*
X22654046Y-59393095D01*
X22654046Y-59393095D02*
X22701665Y-59297857D01*
X22701665Y-59297857D02*
X22749284Y-59250238D01*
X22749284Y-59250238D02*
X22844522Y-59202619D01*
X22844522Y-59202619D02*
X23034998Y-59202619D01*
X23034998Y-59202619D02*
X23130236Y-59250238D01*
X23130236Y-59250238D02*
X23177855Y-59297857D01*
X23177855Y-59297857D02*
X23225474Y-59393095D01*
X23225474Y-59393095D02*
X23225474Y-59631190D01*
X23225474Y-59631190D02*
X23177855Y-59726428D01*
X23177855Y-59726428D02*
X23130236Y-59774047D01*
X23130236Y-59774047D02*
X23034998Y-59821666D01*
X23034998Y-59821666D02*
X22844522Y-59821666D01*
X22844522Y-59821666D02*
X22749284Y-59774047D01*
X22749284Y-59774047D02*
X22701665Y-59726428D01*
X22701665Y-59726428D02*
X22654046Y-59631190D01*
X108981904Y-4322619D02*
X108981904Y-3322619D01*
X108981904Y-3322619D02*
X108410476Y-4322619D01*
X108410476Y-4322619D02*
X108410476Y-3322619D01*
X30972142Y-118590952D02*
X30734047Y-119257619D01*
X30734047Y-119257619D02*
X30495952Y-118590952D01*
X96916904Y-4322619D02*
X96916904Y-3322619D01*
X96345476Y-4322619D02*
X96774047Y-3751190D01*
X96345476Y-3322619D02*
X96916904Y-3894047D01*
X30924523Y-49995000D02*
X30781666Y-50042619D01*
X30781666Y-50042619D02*
X30543571Y-50042619D01*
X30543571Y-50042619D02*
X30448333Y-49995000D01*
X30448333Y-49995000D02*
X30400714Y-49947380D01*
X30400714Y-49947380D02*
X30353095Y-49852142D01*
X30353095Y-49852142D02*
X30353095Y-49756904D01*
X30353095Y-49756904D02*
X30400714Y-49661666D01*
X30400714Y-49661666D02*
X30448333Y-49614047D01*
X30448333Y-49614047D02*
X30543571Y-49566428D01*
X30543571Y-49566428D02*
X30734047Y-49518809D01*
X30734047Y-49518809D02*
X30829285Y-49471190D01*
X30829285Y-49471190D02*
X30876904Y-49423571D01*
X30876904Y-49423571D02*
X30924523Y-49328333D01*
X30924523Y-49328333D02*
X30924523Y-49233095D01*
X30924523Y-49233095D02*
X30876904Y-49137857D01*
X30876904Y-49137857D02*
X30829285Y-49090238D01*
X30829285Y-49090238D02*
X30734047Y-49042619D01*
X30734047Y-49042619D02*
X30495952Y-49042619D01*
X30495952Y-49042619D02*
X30353095Y-49090238D01*
X120459523Y-4275000D02*
X120316666Y-4322619D01*
X120316666Y-4322619D02*
X120078571Y-4322619D01*
X120078571Y-4322619D02*
X119983333Y-4275000D01*
X119983333Y-4275000D02*
X119935714Y-4227380D01*
X119935714Y-4227380D02*
X119888095Y-4132142D01*
X119888095Y-4132142D02*
X119888095Y-4036904D01*
X119888095Y-4036904D02*
X119935714Y-3941666D01*
X119935714Y-3941666D02*
X119983333Y-3894047D01*
X119983333Y-3894047D02*
X120078571Y-3846428D01*
X120078571Y-3846428D02*
X120269047Y-3798809D01*
X120269047Y-3798809D02*
X120364285Y-3751190D01*
X120364285Y-3751190D02*
X120411904Y-3703571D01*
X120411904Y-3703571D02*
X120459523Y-3608333D01*
X120459523Y-3608333D02*
X120459523Y-3513095D01*
X120459523Y-3513095D02*
X120411904Y-3417857D01*
X120411904Y-3417857D02*
X120364285Y-3370238D01*
X120364285Y-3370238D02*
X120269047Y-3322619D01*
X120269047Y-3322619D02*
X120030952Y-3322619D01*
X120030952Y-3322619D02*
X119888095Y-3370238D01*
X215233333Y-3655952D02*
X215233333Y-4322619D01*
X215661904Y-3655952D02*
X215661904Y-4179761D01*
X215661904Y-4179761D02*
X215614285Y-4275000D01*
X215614285Y-4275000D02*
X215519047Y-4322619D01*
X215519047Y-4322619D02*
X215376190Y-4322619D01*
X215376190Y-4322619D02*
X215280952Y-4275000D01*
X215280952Y-4275000D02*
X215233333Y-4227380D01*
X195976904Y-3655952D02*
X195976904Y-4322619D01*
X195976904Y-3751190D02*
X195929285Y-3703571D01*
X195929285Y-3703571D02*
X195834047Y-3655952D01*
X195834047Y-3655952D02*
X195691190Y-3655952D01*
X195691190Y-3655952D02*
X195595952Y-3703571D01*
X195595952Y-3703571D02*
X195548333Y-3798809D01*
X195548333Y-3798809D02*
X195548333Y-4322619D01*
X30876904Y-22102619D02*
X30876904Y-21102619D01*
X30876904Y-21102619D02*
X30638809Y-21102619D01*
X30638809Y-21102619D02*
X30495952Y-21150238D01*
X30495952Y-21150238D02*
X30400714Y-21245476D01*
X30400714Y-21245476D02*
X30353095Y-21340714D01*
X30353095Y-21340714D02*
X30305476Y-21531190D01*
X30305476Y-21531190D02*
X30305476Y-21674047D01*
X30305476Y-21674047D02*
X30353095Y-21864523D01*
X30353095Y-21864523D02*
X30400714Y-21959761D01*
X30400714Y-21959761D02*
X30495952Y-22055000D01*
X30495952Y-22055000D02*
X30638809Y-22102619D01*
X30638809Y-22102619D02*
X30876904Y-22102619D01*
X125603095Y-49407619D02*
X126174523Y-49407619D01*
X125888809Y-49407619D02*
X125888809Y-48407619D01*
X125888809Y-48407619D02*
X125984047Y-48550476D01*
X125984047Y-48550476D02*
X126079285Y-48645714D01*
X126079285Y-48645714D02*
X126174523Y-48693333D01*
X124745952Y-48407619D02*
X124936428Y-48407619D01*
X124936428Y-48407619D02*
X125031666Y-48455238D01*
X125031666Y-48455238D02*
X125079285Y-48502857D01*
X125079285Y-48502857D02*
X125174523Y-48645714D01*
X125174523Y-48645714D02*
X125222142Y-48836190D01*
X125222142Y-48836190D02*
X125222142Y-49217142D01*
X125222142Y-49217142D02*
X125174523Y-49312380D01*
X125174523Y-49312380D02*
X125126904Y-49360000D01*
X125126904Y-49360000D02*
X125031666Y-49407619D01*
X125031666Y-49407619D02*
X124841190Y-49407619D01*
X124841190Y-49407619D02*
X124745952Y-49360000D01*
X124745952Y-49360000D02*
X124698333Y-49312380D01*
X124698333Y-49312380D02*
X124650714Y-49217142D01*
X124650714Y-49217142D02*
X124650714Y-48979047D01*
X124650714Y-48979047D02*
X124698333Y-48883809D01*
X124698333Y-48883809D02*
X124745952Y-48836190D01*
X124745952Y-48836190D02*
X124841190Y-48788571D01*
X124841190Y-48788571D02*
X125031666Y-48788571D01*
X125031666Y-48788571D02*
X125126904Y-48836190D01*
X125126904Y-48836190D02*
X125174523Y-48883809D01*
X125174523Y-48883809D02*
X125222142Y-48979047D01*
X23701665Y-126210952D02*
X23701665Y-126877619D01*
X23939760Y-125830000D02*
X24177855Y-126544285D01*
X24177855Y-126544285D02*
X23558808Y-126544285D01*
X23273093Y-125877619D02*
X22654046Y-125877619D01*
X22654046Y-125877619D02*
X22987379Y-126258571D01*
X22987379Y-126258571D02*
X22844522Y-126258571D01*
X22844522Y-126258571D02*
X22749284Y-126306190D01*
X22749284Y-126306190D02*
X22701665Y-126353809D01*
X22701665Y-126353809D02*
X22654046Y-126449047D01*
X22654046Y-126449047D02*
X22654046Y-126687142D01*
X22654046Y-126687142D02*
X22701665Y-126782380D01*
X22701665Y-126782380D02*
X22749284Y-126830000D01*
X22749284Y-126830000D02*
X22844522Y-126877619D01*
X22844522Y-126877619D02*
X23130236Y-126877619D01*
X23130236Y-126877619D02*
X23225474Y-126830000D01*
X23225474Y-126830000D02*
X23273093Y-126782380D01*
X168290952Y-338285000D02*
X168386190Y-338332619D01*
X168386190Y-338332619D02*
X168576666Y-338332619D01*
X168576666Y-338332619D02*
X168671904Y-338285000D01*
X168671904Y-338285000D02*
X168719523Y-338189761D01*
X168719523Y-338189761D02*
X168719523Y-337808809D01*
X168719523Y-337808809D02*
X168671904Y-337713571D01*
X168671904Y-337713571D02*
X168576666Y-337665952D01*
X168576666Y-337665952D02*
X168386190Y-337665952D01*
X168386190Y-337665952D02*
X168290952Y-337713571D01*
X168290952Y-337713571D02*
X168243333Y-337808809D01*
X168243333Y-337808809D02*
X168243333Y-337904047D01*
X168243333Y-337904047D02*
X168719523Y-337999285D01*
X68643571Y-3798809D02*
X68500714Y-3846428D01*
X68500714Y-3846428D02*
X68453095Y-3894047D01*
X68453095Y-3894047D02*
X68405476Y-3989285D01*
X68405476Y-3989285D02*
X68405476Y-4132142D01*
X68405476Y-4132142D02*
X68453095Y-4227380D01*
X68453095Y-4227380D02*
X68500714Y-4275000D01*
X68500714Y-4275000D02*
X68595952Y-4322619D01*
X68595952Y-4322619D02*
X68976904Y-4322619D01*
X68976904Y-4322619D02*
X68976904Y-3322619D01*
X68976904Y-3322619D02*
X68643571Y-3322619D01*
X68643571Y-3322619D02*
X68548333Y-3370238D01*
X68548333Y-3370238D02*
X68500714Y-3417857D01*
X68500714Y-3417857D02*
X68453095Y-3513095D01*
X68453095Y-3513095D02*
X68453095Y-3608333D01*
X68453095Y-3608333D02*
X68500714Y-3703571D01*
X68500714Y-3703571D02*
X68548333Y-3751190D01*
X68548333Y-3751190D02*
X68643571Y-3798809D01*
X68643571Y-3798809D02*
X68976904Y-3798809D01*
X217265474Y-111907619D02*
X216646427Y-111907619D01*
X216646427Y-111907619D02*
X216979760Y-112288571D01*
X216979760Y-112288571D02*
X216836903Y-112288571D01*
X216836903Y-112288571D02*
X216741665Y-112336190D01*
X216741665Y-112336190D02*
X216694046Y-112383809D01*
X216694046Y-112383809D02*
X216646427Y-112479047D01*
X216646427Y-112479047D02*
X216646427Y-112717142D01*
X216646427Y-112717142D02*
X216694046Y-112812380D01*
X216694046Y-112812380D02*
X216741665Y-112860000D01*
X216741665Y-112860000D02*
X216836903Y-112907619D01*
X216836903Y-112907619D02*
X217122617Y-112907619D01*
X217122617Y-112907619D02*
X217217855Y-112860000D01*
X217217855Y-112860000D02*
X217265474Y-112812380D01*
X216170236Y-112907619D02*
X215979760Y-112907619D01*
X215979760Y-112907619D02*
X215884522Y-112860000D01*
X215884522Y-112860000D02*
X215836903Y-112812380D01*
X215836903Y-112812380D02*
X215741665Y-112669523D01*
X215741665Y-112669523D02*
X215694046Y-112479047D01*
X215694046Y-112479047D02*
X215694046Y-112098095D01*
X215694046Y-112098095D02*
X215741665Y-112002857D01*
X215741665Y-112002857D02*
X215789284Y-111955238D01*
X215789284Y-111955238D02*
X215884522Y-111907619D01*
X215884522Y-111907619D02*
X216074998Y-111907619D01*
X216074998Y-111907619D02*
X216170236Y-111955238D01*
X216170236Y-111955238D02*
X216217855Y-112002857D01*
X216217855Y-112002857D02*
X216265474Y-112098095D01*
X216265474Y-112098095D02*
X216265474Y-112336190D01*
X216265474Y-112336190D02*
X216217855Y-112431428D01*
X216217855Y-112431428D02*
X216170236Y-112479047D01*
X216170236Y-112479047D02*
X216074998Y-112526666D01*
X216074998Y-112526666D02*
X215884522Y-112526666D01*
X215884522Y-112526666D02*
X215789284Y-112479047D01*
X215789284Y-112479047D02*
X215741665Y-112431428D01*
X215741665Y-112431428D02*
X215694046Y-112336190D01*
X72850476Y-338237380D02*
X72898095Y-338285000D01*
X72898095Y-338285000D02*
X73040952Y-338332619D01*
X73040952Y-338332619D02*
X73136190Y-338332619D01*
X73136190Y-338332619D02*
X73279047Y-338285000D01*
X73279047Y-338285000D02*
X73374285Y-338189761D01*
X73374285Y-338189761D02*
X73421904Y-338094523D01*
X73421904Y-338094523D02*
X73469523Y-337904047D01*
X73469523Y-337904047D02*
X73469523Y-337761190D01*
X73469523Y-337761190D02*
X73421904Y-337570714D01*
X73421904Y-337570714D02*
X73374285Y-337475476D01*
X73374285Y-337475476D02*
X73279047Y-337380238D01*
X73279047Y-337380238D02*
X73136190Y-337332619D01*
X73136190Y-337332619D02*
X73040952Y-337332619D01*
X73040952Y-337332619D02*
X72898095Y-337380238D01*
X72898095Y-337380238D02*
X72850476Y-337427857D01*
X85153571Y-337808809D02*
X85486904Y-337808809D01*
X85486904Y-338332619D02*
X85486904Y-337332619D01*
X85486904Y-337332619D02*
X85010714Y-337332619D01*
X201056904Y-337665952D02*
X201056904Y-338665952D01*
X201056904Y-337713571D02*
X200961666Y-337665952D01*
X200961666Y-337665952D02*
X200771190Y-337665952D01*
X200771190Y-337665952D02*
X200675952Y-337713571D01*
X200675952Y-337713571D02*
X200628333Y-337761190D01*
X200628333Y-337761190D02*
X200580714Y-337856428D01*
X200580714Y-337856428D02*
X200580714Y-338142142D01*
X200580714Y-338142142D02*
X200628333Y-338237380D01*
X200628333Y-338237380D02*
X200675952Y-338285000D01*
X200675952Y-338285000D02*
X200771190Y-338332619D01*
X200771190Y-338332619D02*
X200961666Y-338332619D01*
X200961666Y-338332619D02*
X201056904Y-338285000D01*
X160623333Y-83697619D02*
X160623333Y-82697619D01*
X160623333Y-83650000D02*
X160718571Y-83697619D01*
X160718571Y-83697619D02*
X160909047Y-83697619D01*
X160909047Y-83697619D02*
X161004285Y-83650000D01*
X161004285Y-83650000D02*
X161051904Y-83602380D01*
X161051904Y-83602380D02*
X161099523Y-83507142D01*
X161099523Y-83507142D02*
X161099523Y-83221428D01*
X161099523Y-83221428D02*
X161051904Y-83126190D01*
X161051904Y-83126190D02*
X161004285Y-83078571D01*
X161004285Y-83078571D02*
X160909047Y-83030952D01*
X160909047Y-83030952D02*
X160718571Y-83030952D01*
X160718571Y-83030952D02*
X160623333Y-83078571D01*
X24177855Y-64377857D02*
X24130236Y-64330238D01*
X24130236Y-64330238D02*
X24034998Y-64282619D01*
X24034998Y-64282619D02*
X23796903Y-64282619D01*
X23796903Y-64282619D02*
X23701665Y-64330238D01*
X23701665Y-64330238D02*
X23654046Y-64377857D01*
X23654046Y-64377857D02*
X23606427Y-64473095D01*
X23606427Y-64473095D02*
X23606427Y-64568333D01*
X23606427Y-64568333D02*
X23654046Y-64711190D01*
X23654046Y-64711190D02*
X24225474Y-65282619D01*
X24225474Y-65282619D02*
X23606427Y-65282619D01*
X22654046Y-65282619D02*
X23225474Y-65282619D01*
X22939760Y-65282619D02*
X22939760Y-64282619D01*
X22939760Y-64282619D02*
X23034998Y-64425476D01*
X23034998Y-64425476D02*
X23130236Y-64520714D01*
X23130236Y-64520714D02*
X23225474Y-64568333D01*
X89296904Y-338332619D02*
X89296904Y-337332619D01*
X89296904Y-337808809D02*
X88725476Y-337808809D01*
X88725476Y-338332619D02*
X88725476Y-337332619D01*
X151733333Y-4322619D02*
X151733333Y-3798809D01*
X151733333Y-3798809D02*
X151780952Y-3703571D01*
X151780952Y-3703571D02*
X151876190Y-3655952D01*
X151876190Y-3655952D02*
X152066666Y-3655952D01*
X152066666Y-3655952D02*
X152161904Y-3703571D01*
X151733333Y-4275000D02*
X151828571Y-4322619D01*
X151828571Y-4322619D02*
X152066666Y-4322619D01*
X152066666Y-4322619D02*
X152161904Y-4275000D01*
X152161904Y-4275000D02*
X152209523Y-4179761D01*
X152209523Y-4179761D02*
X152209523Y-4084523D01*
X152209523Y-4084523D02*
X152161904Y-3989285D01*
X152161904Y-3989285D02*
X152066666Y-3941666D01*
X152066666Y-3941666D02*
X151828571Y-3941666D01*
X151828571Y-3941666D02*
X151733333Y-3894047D01*
X201056904Y-108462619D02*
X201056904Y-107795952D01*
X201056904Y-107986428D02*
X201009285Y-107891190D01*
X201009285Y-107891190D02*
X200961666Y-107843571D01*
X200961666Y-107843571D02*
X200866428Y-107795952D01*
X200866428Y-107795952D02*
X200771190Y-107795952D01*
X30924523Y-111590000D02*
X30829285Y-111637619D01*
X30829285Y-111637619D02*
X30638809Y-111637619D01*
X30638809Y-111637619D02*
X30543571Y-111590000D01*
X30543571Y-111590000D02*
X30495952Y-111494761D01*
X30495952Y-111494761D02*
X30495952Y-111447142D01*
X30495952Y-111447142D02*
X30543571Y-111351904D01*
X30543571Y-111351904D02*
X30638809Y-111304285D01*
X30638809Y-111304285D02*
X30781666Y-111304285D01*
X30781666Y-111304285D02*
X30876904Y-111256666D01*
X30876904Y-111256666D02*
X30924523Y-111161428D01*
X30924523Y-111161428D02*
X30924523Y-111113809D01*
X30924523Y-111113809D02*
X30876904Y-111018571D01*
X30876904Y-111018571D02*
X30781666Y-110970952D01*
X30781666Y-110970952D02*
X30638809Y-110970952D01*
X30638809Y-110970952D02*
X30543571Y-111018571D01*
X23368095Y-14482619D02*
X23939523Y-14482619D01*
X23653809Y-14482619D02*
X23653809Y-13482619D01*
X23653809Y-13482619D02*
X23749047Y-13625476D01*
X23749047Y-13625476D02*
X23844285Y-13720714D01*
X23844285Y-13720714D02*
X23939523Y-13768333D01*
X129413095Y-51947619D02*
X129984523Y-51947619D01*
X129698809Y-51947619D02*
X129698809Y-50947619D01*
X129698809Y-50947619D02*
X129794047Y-51090476D01*
X129794047Y-51090476D02*
X129889285Y-51185714D01*
X129889285Y-51185714D02*
X129984523Y-51233333D01*
X129079761Y-50947619D02*
X128413095Y-50947619D01*
X128413095Y-50947619D02*
X128841666Y-51947619D01*
X148447142Y-3322619D02*
X147780476Y-3322619D01*
X147780476Y-3322619D02*
X148447142Y-4322619D01*
X148447142Y-4322619D02*
X147780476Y-4322619D01*
X173116904Y-90682619D02*
X173116904Y-89682619D01*
X172688333Y-90682619D02*
X172688333Y-90158809D01*
X172688333Y-90158809D02*
X172735952Y-90063571D01*
X172735952Y-90063571D02*
X172831190Y-90015952D01*
X172831190Y-90015952D02*
X172974047Y-90015952D01*
X172974047Y-90015952D02*
X173069285Y-90063571D01*
X173069285Y-90063571D02*
X173116904Y-90111190D01*
X23987142Y-18829319D02*
X23368095Y-18829319D01*
X23368095Y-18829319D02*
X23701428Y-19210271D01*
X23701428Y-19210271D02*
X23558571Y-19210271D01*
X23558571Y-19210271D02*
X23463333Y-19257890D01*
X23463333Y-19257890D02*
X23415714Y-19305509D01*
X23415714Y-19305509D02*
X23368095Y-19400747D01*
X23368095Y-19400747D02*
X23368095Y-19638842D01*
X23368095Y-19638842D02*
X23415714Y-19734080D01*
X23415714Y-19734080D02*
X23463333Y-19781700D01*
X23463333Y-19781700D02*
X23558571Y-19829319D01*
X23558571Y-19829319D02*
X23844285Y-19829319D01*
X23844285Y-19829319D02*
X23939523Y-19781700D01*
X23939523Y-19781700D02*
X23987142Y-19734080D01*
X224758333Y-117955952D02*
X224758333Y-118622619D01*
X224996428Y-117575000D02*
X225234523Y-118289285D01*
X225234523Y-118289285D02*
X224615476Y-118289285D01*
X223710714Y-118622619D02*
X224282142Y-118622619D01*
X223996428Y-118622619D02*
X223996428Y-117622619D01*
X223996428Y-117622619D02*
X224091666Y-117765476D01*
X224091666Y-117765476D02*
X224186904Y-117860714D01*
X224186904Y-117860714D02*
X224282142Y-117908333D01*
X122031427Y-46867619D02*
X122602855Y-46867619D01*
X122317141Y-46867619D02*
X122317141Y-45867619D01*
X122317141Y-45867619D02*
X122412379Y-46010476D01*
X122412379Y-46010476D02*
X122507617Y-46105714D01*
X122507617Y-46105714D02*
X122602855Y-46153333D01*
X121126665Y-45867619D02*
X121602855Y-45867619D01*
X121602855Y-45867619D02*
X121650474Y-46343809D01*
X121650474Y-46343809D02*
X121602855Y-46296190D01*
X121602855Y-46296190D02*
X121507617Y-46248571D01*
X121507617Y-46248571D02*
X121269522Y-46248571D01*
X121269522Y-46248571D02*
X121174284Y-46296190D01*
X121174284Y-46296190D02*
X121126665Y-46343809D01*
X121126665Y-46343809D02*
X121079046Y-46439047D01*
X121079046Y-46439047D02*
X121079046Y-46677142D01*
X121079046Y-46677142D02*
X121126665Y-46772380D01*
X121126665Y-46772380D02*
X121174284Y-46820000D01*
X121174284Y-46820000D02*
X121269522Y-46867619D01*
X121269522Y-46867619D02*
X121507617Y-46867619D01*
X121507617Y-46867619D02*
X121602855Y-46820000D01*
X121602855Y-46820000D02*
X121650474Y-46772380D01*
X30876904Y-29722619D02*
X30876904Y-28722619D01*
X30876904Y-29198809D02*
X30305476Y-29198809D01*
X30305476Y-29722619D02*
X30305476Y-28722619D01*
X136382142Y-3322619D02*
X136144047Y-4322619D01*
X136144047Y-4322619D02*
X135953571Y-3608333D01*
X135953571Y-3608333D02*
X135763095Y-4322619D01*
X135763095Y-4322619D02*
X135525000Y-3322619D01*
X93741904Y-35437619D02*
X93741904Y-34437619D01*
X93170476Y-35437619D02*
X93599047Y-34866190D01*
X93170476Y-34437619D02*
X93741904Y-35009047D01*
X141462142Y-337332619D02*
X140795476Y-338332619D01*
X140795476Y-337332619D02*
X141462142Y-338332619D01*
X30448333Y-83697619D02*
X30448333Y-82697619D01*
X30448333Y-83650000D02*
X30543571Y-83697619D01*
X30543571Y-83697619D02*
X30734047Y-83697619D01*
X30734047Y-83697619D02*
X30829285Y-83650000D01*
X30829285Y-83650000D02*
X30876904Y-83602380D01*
X30876904Y-83602380D02*
X30924523Y-83507142D01*
X30924523Y-83507142D02*
X30924523Y-83221428D01*
X30924523Y-83221428D02*
X30876904Y-83126190D01*
X30876904Y-83126190D02*
X30829285Y-83078571D01*
X30829285Y-83078571D02*
X30734047Y-83030952D01*
X30734047Y-83030952D02*
X30543571Y-83030952D01*
X30543571Y-83030952D02*
X30448333Y-83078571D01*
X105806904Y-42422619D02*
X105806904Y-41422619D01*
X105806904Y-41422619D02*
X105235476Y-42422619D01*
X105235476Y-42422619D02*
X105235476Y-41422619D01*
X65849523Y-338046904D02*
X65373333Y-338046904D01*
X65944761Y-338332619D02*
X65611428Y-337332619D01*
X65611428Y-337332619D02*
X65278095Y-338332619D01*
X110251904Y-44962619D02*
X110251904Y-43962619D01*
X110251904Y-43962619D02*
X109870952Y-43962619D01*
X109870952Y-43962619D02*
X109775714Y-44010238D01*
X109775714Y-44010238D02*
X109728095Y-44057857D01*
X109728095Y-44057857D02*
X109680476Y-44153095D01*
X109680476Y-44153095D02*
X109680476Y-44295952D01*
X109680476Y-44295952D02*
X109728095Y-44391190D01*
X109728095Y-44391190D02*
X109775714Y-44438809D01*
X109775714Y-44438809D02*
X109870952Y-44486428D01*
X109870952Y-44486428D02*
X110251904Y-44486428D01*
X30972142Y-61742619D02*
X30305476Y-62742619D01*
X30305476Y-61742619D02*
X30972142Y-62742619D01*
X209454761Y-113510952D02*
X209073809Y-113510952D01*
X209311904Y-113177619D02*
X209311904Y-114034761D01*
X209311904Y-114034761D02*
X209264285Y-114130000D01*
X209264285Y-114130000D02*
X209169047Y-114177619D01*
X209169047Y-114177619D02*
X209073809Y-114177619D01*
X215868333Y-337665952D02*
X215868333Y-338332619D01*
X216296904Y-337665952D02*
X216296904Y-338189761D01*
X216296904Y-338189761D02*
X216249285Y-338285000D01*
X216249285Y-338285000D02*
X216154047Y-338332619D01*
X216154047Y-338332619D02*
X216011190Y-338332619D01*
X216011190Y-338332619D02*
X215915952Y-338285000D01*
X215915952Y-338285000D02*
X215868333Y-338237380D01*
X23606427Y-44962619D02*
X24177855Y-44962619D01*
X23892141Y-44962619D02*
X23892141Y-43962619D01*
X23892141Y-43962619D02*
X23987379Y-44105476D01*
X23987379Y-44105476D02*
X24082617Y-44200714D01*
X24082617Y-44200714D02*
X24177855Y-44248333D01*
X23273093Y-43962619D02*
X22654046Y-43962619D01*
X22654046Y-43962619D02*
X22987379Y-44343571D01*
X22987379Y-44343571D02*
X22844522Y-44343571D01*
X22844522Y-44343571D02*
X22749284Y-44391190D01*
X22749284Y-44391190D02*
X22701665Y-44438809D01*
X22701665Y-44438809D02*
X22654046Y-44534047D01*
X22654046Y-44534047D02*
X22654046Y-44772142D01*
X22654046Y-44772142D02*
X22701665Y-44867380D01*
X22701665Y-44867380D02*
X22749284Y-44915000D01*
X22749284Y-44915000D02*
X22844522Y-44962619D01*
X22844522Y-44962619D02*
X23130236Y-44962619D01*
X23130236Y-44962619D02*
X23225474Y-44915000D01*
X23225474Y-44915000D02*
X23273093Y-44867380D01*
X30972142Y-121130952D02*
X30781666Y-121797619D01*
X30781666Y-121797619D02*
X30591190Y-121321428D01*
X30591190Y-121321428D02*
X30400714Y-121797619D01*
X30400714Y-121797619D02*
X30210238Y-121130952D01*
X161734523Y-71362857D02*
X161686904Y-71315238D01*
X161686904Y-71315238D02*
X161591666Y-71267619D01*
X161591666Y-71267619D02*
X161353571Y-71267619D01*
X161353571Y-71267619D02*
X161258333Y-71315238D01*
X161258333Y-71315238D02*
X161210714Y-71362857D01*
X161210714Y-71362857D02*
X161163095Y-71458095D01*
X161163095Y-71458095D02*
X161163095Y-71553333D01*
X161163095Y-71553333D02*
X161210714Y-71696190D01*
X161210714Y-71696190D02*
X161782142Y-72267619D01*
X161782142Y-72267619D02*
X161163095Y-72267619D01*
X160258333Y-71267619D02*
X160734523Y-71267619D01*
X160734523Y-71267619D02*
X160782142Y-71743809D01*
X160782142Y-71743809D02*
X160734523Y-71696190D01*
X160734523Y-71696190D02*
X160639285Y-71648571D01*
X160639285Y-71648571D02*
X160401190Y-71648571D01*
X160401190Y-71648571D02*
X160305952Y-71696190D01*
X160305952Y-71696190D02*
X160258333Y-71743809D01*
X160258333Y-71743809D02*
X160210714Y-71839047D01*
X160210714Y-71839047D02*
X160210714Y-72077142D01*
X160210714Y-72077142D02*
X160258333Y-72172380D01*
X160258333Y-72172380D02*
X160305952Y-72220000D01*
X160305952Y-72220000D02*
X160401190Y-72267619D01*
X160401190Y-72267619D02*
X160639285Y-72267619D01*
X160639285Y-72267619D02*
X160734523Y-72220000D01*
X160734523Y-72220000D02*
X160782142Y-72172380D01*
X141176428Y-64806428D02*
X141176428Y-65282619D01*
X141509761Y-64282619D02*
X141176428Y-64806428D01*
X141176428Y-64806428D02*
X140843095Y-64282619D01*
X140827142Y-3322619D02*
X140160476Y-4322619D01*
X140160476Y-3322619D02*
X140827142Y-4322619D01*
X132619761Y-3322619D02*
X132286428Y-4322619D01*
X132286428Y-4322619D02*
X131953095Y-3322619D01*
X125491904Y-54122619D02*
X125491904Y-54932142D01*
X125491904Y-54932142D02*
X125444285Y-55027380D01*
X125444285Y-55027380D02*
X125396666Y-55075000D01*
X125396666Y-55075000D02*
X125301428Y-55122619D01*
X125301428Y-55122619D02*
X125110952Y-55122619D01*
X125110952Y-55122619D02*
X125015714Y-55075000D01*
X125015714Y-55075000D02*
X124968095Y-55027380D01*
X124968095Y-55027380D02*
X124920476Y-54932142D01*
X124920476Y-54932142D02*
X124920476Y-54122619D01*
X23463333Y-21435952D02*
X23463333Y-22102619D01*
X23701428Y-21055000D02*
X23939523Y-21769285D01*
X23939523Y-21769285D02*
X23320476Y-21769285D01*
X30876904Y-34802619D02*
X30876904Y-33802619D01*
X30305476Y-34802619D02*
X30734047Y-34231190D01*
X30305476Y-33802619D02*
X30876904Y-34374047D01*
X231632142Y-3655952D02*
X231394047Y-4322619D01*
X231155952Y-3655952D02*
X231394047Y-4322619D01*
X231394047Y-4322619D02*
X231489285Y-4560714D01*
X231489285Y-4560714D02*
X231536904Y-4608333D01*
X231536904Y-4608333D02*
X231632142Y-4655952D01*
X30876904Y-96397619D02*
X30876904Y-95397619D01*
X30781666Y-96016666D02*
X30495952Y-96397619D01*
X30495952Y-95730952D02*
X30876904Y-96111904D01*
X23415714Y-23642619D02*
X23891904Y-23642619D01*
X23891904Y-23642619D02*
X23939523Y-24118809D01*
X23939523Y-24118809D02*
X23891904Y-24071190D01*
X23891904Y-24071190D02*
X23796666Y-24023571D01*
X23796666Y-24023571D02*
X23558571Y-24023571D01*
X23558571Y-24023571D02*
X23463333Y-24071190D01*
X23463333Y-24071190D02*
X23415714Y-24118809D01*
X23415714Y-24118809D02*
X23368095Y-24214047D01*
X23368095Y-24214047D02*
X23368095Y-24452142D01*
X23368095Y-24452142D02*
X23415714Y-24547380D01*
X23415714Y-24547380D02*
X23463333Y-24595000D01*
X23463333Y-24595000D02*
X23558571Y-24642619D01*
X23558571Y-24642619D02*
X23796666Y-24642619D01*
X23796666Y-24642619D02*
X23891904Y-24595000D01*
X23891904Y-24595000D02*
X23939523Y-24547380D01*
X65214523Y-4036904D02*
X64738333Y-4036904D01*
X65309761Y-4322619D02*
X64976428Y-3322619D01*
X64976428Y-3322619D02*
X64643095Y-4322619D01*
X69278571Y-337808809D02*
X69135714Y-337856428D01*
X69135714Y-337856428D02*
X69088095Y-337904047D01*
X69088095Y-337904047D02*
X69040476Y-337999285D01*
X69040476Y-337999285D02*
X69040476Y-338142142D01*
X69040476Y-338142142D02*
X69088095Y-338237380D01*
X69088095Y-338237380D02*
X69135714Y-338285000D01*
X69135714Y-338285000D02*
X69230952Y-338332619D01*
X69230952Y-338332619D02*
X69611904Y-338332619D01*
X69611904Y-338332619D02*
X69611904Y-337332619D01*
X69611904Y-337332619D02*
X69278571Y-337332619D01*
X69278571Y-337332619D02*
X69183333Y-337380238D01*
X69183333Y-337380238D02*
X69135714Y-337427857D01*
X69135714Y-337427857D02*
X69088095Y-337523095D01*
X69088095Y-337523095D02*
X69088095Y-337618333D01*
X69088095Y-337618333D02*
X69135714Y-337713571D01*
X69135714Y-337713571D02*
X69183333Y-337761190D01*
X69183333Y-337761190D02*
X69278571Y-337808809D01*
X69278571Y-337808809D02*
X69611904Y-337808809D01*
X133858095Y-54487619D02*
X134429523Y-54487619D01*
X134143809Y-54487619D02*
X134143809Y-53487619D01*
X134143809Y-53487619D02*
X134239047Y-53630476D01*
X134239047Y-53630476D02*
X134334285Y-53725714D01*
X134334285Y-53725714D02*
X134429523Y-53773333D01*
X133286666Y-53916190D02*
X133381904Y-53868571D01*
X133381904Y-53868571D02*
X133429523Y-53820952D01*
X133429523Y-53820952D02*
X133477142Y-53725714D01*
X133477142Y-53725714D02*
X133477142Y-53678095D01*
X133477142Y-53678095D02*
X133429523Y-53582857D01*
X133429523Y-53582857D02*
X133381904Y-53535238D01*
X133381904Y-53535238D02*
X133286666Y-53487619D01*
X133286666Y-53487619D02*
X133096190Y-53487619D01*
X133096190Y-53487619D02*
X133000952Y-53535238D01*
X133000952Y-53535238D02*
X132953333Y-53582857D01*
X132953333Y-53582857D02*
X132905714Y-53678095D01*
X132905714Y-53678095D02*
X132905714Y-53725714D01*
X132905714Y-53725714D02*
X132953333Y-53820952D01*
X132953333Y-53820952D02*
X133000952Y-53868571D01*
X133000952Y-53868571D02*
X133096190Y-53916190D01*
X133096190Y-53916190D02*
X133286666Y-53916190D01*
X133286666Y-53916190D02*
X133381904Y-53963809D01*
X133381904Y-53963809D02*
X133429523Y-54011428D01*
X133429523Y-54011428D02*
X133477142Y-54106666D01*
X133477142Y-54106666D02*
X133477142Y-54297142D01*
X133477142Y-54297142D02*
X133429523Y-54392380D01*
X133429523Y-54392380D02*
X133381904Y-54440000D01*
X133381904Y-54440000D02*
X133286666Y-54487619D01*
X133286666Y-54487619D02*
X133096190Y-54487619D01*
X133096190Y-54487619D02*
X133000952Y-54440000D01*
X133000952Y-54440000D02*
X132953333Y-54392380D01*
X132953333Y-54392380D02*
X132905714Y-54297142D01*
X132905714Y-54297142D02*
X132905714Y-54106666D01*
X132905714Y-54106666D02*
X132953333Y-54011428D01*
X132953333Y-54011428D02*
X133000952Y-53963809D01*
X133000952Y-53963809D02*
X133096190Y-53916190D01*
X181705474Y-89682619D02*
X181086427Y-89682619D01*
X181086427Y-89682619D02*
X181419760Y-90063571D01*
X181419760Y-90063571D02*
X181276903Y-90063571D01*
X181276903Y-90063571D02*
X181181665Y-90111190D01*
X181181665Y-90111190D02*
X181134046Y-90158809D01*
X181134046Y-90158809D02*
X181086427Y-90254047D01*
X181086427Y-90254047D02*
X181086427Y-90492142D01*
X181086427Y-90492142D02*
X181134046Y-90587380D01*
X181134046Y-90587380D02*
X181181665Y-90635000D01*
X181181665Y-90635000D02*
X181276903Y-90682619D01*
X181276903Y-90682619D02*
X181562617Y-90682619D01*
X181562617Y-90682619D02*
X181657855Y-90635000D01*
X181657855Y-90635000D02*
X181705474Y-90587380D01*
X180467379Y-89682619D02*
X180372141Y-89682619D01*
X180372141Y-89682619D02*
X180276903Y-89730238D01*
X180276903Y-89730238D02*
X180229284Y-89777857D01*
X180229284Y-89777857D02*
X180181665Y-89873095D01*
X180181665Y-89873095D02*
X180134046Y-90063571D01*
X180134046Y-90063571D02*
X180134046Y-90301666D01*
X180134046Y-90301666D02*
X180181665Y-90492142D01*
X180181665Y-90492142D02*
X180229284Y-90587380D01*
X180229284Y-90587380D02*
X180276903Y-90635000D01*
X180276903Y-90635000D02*
X180372141Y-90682619D01*
X180372141Y-90682619D02*
X180467379Y-90682619D01*
X180467379Y-90682619D02*
X180562617Y-90635000D01*
X180562617Y-90635000D02*
X180610236Y-90587380D01*
X180610236Y-90587380D02*
X180657855Y-90492142D01*
X180657855Y-90492142D02*
X180705474Y-90301666D01*
X180705474Y-90301666D02*
X180705474Y-90063571D01*
X180705474Y-90063571D02*
X180657855Y-89873095D01*
X180657855Y-89873095D02*
X180610236Y-89777857D01*
X180610236Y-89777857D02*
X180562617Y-89730238D01*
X180562617Y-89730238D02*
X180467379Y-89682619D01*
X192801904Y-103350952D02*
X192801904Y-104017619D01*
X192801904Y-103446190D02*
X192754285Y-103398571D01*
X192754285Y-103398571D02*
X192659047Y-103350952D01*
X192659047Y-103350952D02*
X192516190Y-103350952D01*
X192516190Y-103350952D02*
X192420952Y-103398571D01*
X192420952Y-103398571D02*
X192373333Y-103493809D01*
X192373333Y-103493809D02*
X192373333Y-104017619D01*
X113490476Y-47502619D02*
X113823809Y-47026428D01*
X114061904Y-47502619D02*
X114061904Y-46502619D01*
X114061904Y-46502619D02*
X113680952Y-46502619D01*
X113680952Y-46502619D02*
X113585714Y-46550238D01*
X113585714Y-46550238D02*
X113538095Y-46597857D01*
X113538095Y-46597857D02*
X113490476Y-46693095D01*
X113490476Y-46693095D02*
X113490476Y-46835952D01*
X113490476Y-46835952D02*
X113538095Y-46931190D01*
X113538095Y-46931190D02*
X113585714Y-46978809D01*
X113585714Y-46978809D02*
X113680952Y-47026428D01*
X113680952Y-47026428D02*
X114061904Y-47026428D01*
X24225474Y-97937619D02*
X23606427Y-97937619D01*
X23606427Y-97937619D02*
X23939760Y-98318571D01*
X23939760Y-98318571D02*
X23796903Y-98318571D01*
X23796903Y-98318571D02*
X23701665Y-98366190D01*
X23701665Y-98366190D02*
X23654046Y-98413809D01*
X23654046Y-98413809D02*
X23606427Y-98509047D01*
X23606427Y-98509047D02*
X23606427Y-98747142D01*
X23606427Y-98747142D02*
X23654046Y-98842380D01*
X23654046Y-98842380D02*
X23701665Y-98890000D01*
X23701665Y-98890000D02*
X23796903Y-98937619D01*
X23796903Y-98937619D02*
X24082617Y-98937619D01*
X24082617Y-98937619D02*
X24177855Y-98890000D01*
X24177855Y-98890000D02*
X24225474Y-98842380D01*
X23225474Y-98032857D02*
X23177855Y-97985238D01*
X23177855Y-97985238D02*
X23082617Y-97937619D01*
X23082617Y-97937619D02*
X22844522Y-97937619D01*
X22844522Y-97937619D02*
X22749284Y-97985238D01*
X22749284Y-97985238D02*
X22701665Y-98032857D01*
X22701665Y-98032857D02*
X22654046Y-98128095D01*
X22654046Y-98128095D02*
X22654046Y-98223333D01*
X22654046Y-98223333D02*
X22701665Y-98366190D01*
X22701665Y-98366190D02*
X23273093Y-98937619D01*
X23273093Y-98937619D02*
X22654046Y-98937619D01*
X81835714Y-20467619D02*
X82311904Y-20467619D01*
X82311904Y-20467619D02*
X82359523Y-20943809D01*
X82359523Y-20943809D02*
X82311904Y-20896190D01*
X82311904Y-20896190D02*
X82216666Y-20848571D01*
X82216666Y-20848571D02*
X81978571Y-20848571D01*
X81978571Y-20848571D02*
X81883333Y-20896190D01*
X81883333Y-20896190D02*
X81835714Y-20943809D01*
X81835714Y-20943809D02*
X81788095Y-21039047D01*
X81788095Y-21039047D02*
X81788095Y-21277142D01*
X81788095Y-21277142D02*
X81835714Y-21372380D01*
X81835714Y-21372380D02*
X81883333Y-21420000D01*
X81883333Y-21420000D02*
X81978571Y-21467619D01*
X81978571Y-21467619D02*
X82216666Y-21467619D01*
X82216666Y-21467619D02*
X82311904Y-21420000D01*
X82311904Y-21420000D02*
X82359523Y-21372380D01*
X145859523Y-61202857D02*
X145811904Y-61155238D01*
X145811904Y-61155238D02*
X145716666Y-61107619D01*
X145716666Y-61107619D02*
X145478571Y-61107619D01*
X145478571Y-61107619D02*
X145383333Y-61155238D01*
X145383333Y-61155238D02*
X145335714Y-61202857D01*
X145335714Y-61202857D02*
X145288095Y-61298095D01*
X145288095Y-61298095D02*
X145288095Y-61393333D01*
X145288095Y-61393333D02*
X145335714Y-61536190D01*
X145335714Y-61536190D02*
X145907142Y-62107619D01*
X145907142Y-62107619D02*
X145288095Y-62107619D01*
X144335714Y-62107619D02*
X144907142Y-62107619D01*
X144621428Y-62107619D02*
X144621428Y-61107619D01*
X144621428Y-61107619D02*
X144716666Y-61250476D01*
X144716666Y-61250476D02*
X144811904Y-61345714D01*
X144811904Y-61345714D02*
X144907142Y-61393333D01*
X129444761Y-56662619D02*
X129111428Y-57662619D01*
X129111428Y-57662619D02*
X128778095Y-56662619D01*
X97551904Y-338332619D02*
X97551904Y-337332619D01*
X96980476Y-338332619D02*
X97409047Y-337761190D01*
X96980476Y-337332619D02*
X97551904Y-337904047D01*
X227822142Y-4322619D02*
X227298333Y-3655952D01*
X227822142Y-3655952D02*
X227298333Y-4322619D01*
X121094523Y-338285000D02*
X120951666Y-338332619D01*
X120951666Y-338332619D02*
X120713571Y-338332619D01*
X120713571Y-338332619D02*
X120618333Y-338285000D01*
X120618333Y-338285000D02*
X120570714Y-338237380D01*
X120570714Y-338237380D02*
X120523095Y-338142142D01*
X120523095Y-338142142D02*
X120523095Y-338046904D01*
X120523095Y-338046904D02*
X120570714Y-337951666D01*
X120570714Y-337951666D02*
X120618333Y-337904047D01*
X120618333Y-337904047D02*
X120713571Y-337856428D01*
X120713571Y-337856428D02*
X120904047Y-337808809D01*
X120904047Y-337808809D02*
X120999285Y-337761190D01*
X120999285Y-337761190D02*
X121046904Y-337713571D01*
X121046904Y-337713571D02*
X121094523Y-337618333D01*
X121094523Y-337618333D02*
X121094523Y-337523095D01*
X121094523Y-337523095D02*
X121046904Y-337427857D01*
X121046904Y-337427857D02*
X120999285Y-337380238D01*
X120999285Y-337380238D02*
X120904047Y-337332619D01*
X120904047Y-337332619D02*
X120665952Y-337332619D01*
X120665952Y-337332619D02*
X120523095Y-337380238D01*
X24177855Y-90412857D02*
X24130236Y-90365238D01*
X24130236Y-90365238D02*
X24034998Y-90317619D01*
X24034998Y-90317619D02*
X23796903Y-90317619D01*
X23796903Y-90317619D02*
X23701665Y-90365238D01*
X23701665Y-90365238D02*
X23654046Y-90412857D01*
X23654046Y-90412857D02*
X23606427Y-90508095D01*
X23606427Y-90508095D02*
X23606427Y-90603333D01*
X23606427Y-90603333D02*
X23654046Y-90746190D01*
X23654046Y-90746190D02*
X24225474Y-91317619D01*
X24225474Y-91317619D02*
X23606427Y-91317619D01*
X23130236Y-91317619D02*
X22939760Y-91317619D01*
X22939760Y-91317619D02*
X22844522Y-91270000D01*
X22844522Y-91270000D02*
X22796903Y-91222380D01*
X22796903Y-91222380D02*
X22701665Y-91079523D01*
X22701665Y-91079523D02*
X22654046Y-90889047D01*
X22654046Y-90889047D02*
X22654046Y-90508095D01*
X22654046Y-90508095D02*
X22701665Y-90412857D01*
X22701665Y-90412857D02*
X22749284Y-90365238D01*
X22749284Y-90365238D02*
X22844522Y-90317619D01*
X22844522Y-90317619D02*
X23034998Y-90317619D01*
X23034998Y-90317619D02*
X23130236Y-90365238D01*
X23130236Y-90365238D02*
X23177855Y-90412857D01*
X23177855Y-90412857D02*
X23225474Y-90508095D01*
X23225474Y-90508095D02*
X23225474Y-90746190D01*
X23225474Y-90746190D02*
X23177855Y-90841428D01*
X23177855Y-90841428D02*
X23130236Y-90889047D01*
X23130236Y-90889047D02*
X23034998Y-90936666D01*
X23034998Y-90936666D02*
X22844522Y-90936666D01*
X22844522Y-90936666D02*
X22749284Y-90889047D01*
X22749284Y-90889047D02*
X22701665Y-90841428D01*
X22701665Y-90841428D02*
X22654046Y-90746190D01*
X81676904Y-337808809D02*
X81343571Y-337808809D01*
X81200714Y-338332619D02*
X81676904Y-338332619D01*
X81676904Y-338332619D02*
X81676904Y-337332619D01*
X81676904Y-337332619D02*
X81200714Y-337332619D01*
X124999761Y-3322619D02*
X124428333Y-3322619D01*
X124714047Y-4322619D02*
X124714047Y-3322619D01*
X153431904Y-72902619D02*
X153431904Y-71902619D01*
X153431904Y-72283571D02*
X153336666Y-72235952D01*
X153336666Y-72235952D02*
X153146190Y-72235952D01*
X153146190Y-72235952D02*
X153050952Y-72283571D01*
X153050952Y-72283571D02*
X153003333Y-72331190D01*
X153003333Y-72331190D02*
X152955714Y-72426428D01*
X152955714Y-72426428D02*
X152955714Y-72712142D01*
X152955714Y-72712142D02*
X153003333Y-72807380D01*
X153003333Y-72807380D02*
X153050952Y-72855000D01*
X153050952Y-72855000D02*
X153146190Y-72902619D01*
X153146190Y-72902619D02*
X153336666Y-72902619D01*
X153336666Y-72902619D02*
X153431904Y-72855000D01*
X23606427Y-50042619D02*
X24177855Y-50042619D01*
X23892141Y-50042619D02*
X23892141Y-49042619D01*
X23892141Y-49042619D02*
X23987379Y-49185476D01*
X23987379Y-49185476D02*
X24082617Y-49280714D01*
X24082617Y-49280714D02*
X24177855Y-49328333D01*
X22701665Y-49042619D02*
X23177855Y-49042619D01*
X23177855Y-49042619D02*
X23225474Y-49518809D01*
X23225474Y-49518809D02*
X23177855Y-49471190D01*
X23177855Y-49471190D02*
X23082617Y-49423571D01*
X23082617Y-49423571D02*
X22844522Y-49423571D01*
X22844522Y-49423571D02*
X22749284Y-49471190D01*
X22749284Y-49471190D02*
X22701665Y-49518809D01*
X22701665Y-49518809D02*
X22654046Y-49614047D01*
X22654046Y-49614047D02*
X22654046Y-49852142D01*
X22654046Y-49852142D02*
X22701665Y-49947380D01*
X22701665Y-49947380D02*
X22749284Y-49995000D01*
X22749284Y-49995000D02*
X22844522Y-50042619D01*
X22844522Y-50042619D02*
X23082617Y-50042619D01*
X23082617Y-50042619D02*
X23177855Y-49995000D01*
X23177855Y-49995000D02*
X23225474Y-49947380D01*
X177609523Y-87237857D02*
X177561904Y-87190238D01*
X177561904Y-87190238D02*
X177466666Y-87142619D01*
X177466666Y-87142619D02*
X177228571Y-87142619D01*
X177228571Y-87142619D02*
X177133333Y-87190238D01*
X177133333Y-87190238D02*
X177085714Y-87237857D01*
X177085714Y-87237857D02*
X177038095Y-87333095D01*
X177038095Y-87333095D02*
X177038095Y-87428333D01*
X177038095Y-87428333D02*
X177085714Y-87571190D01*
X177085714Y-87571190D02*
X177657142Y-88142619D01*
X177657142Y-88142619D02*
X177038095Y-88142619D01*
X176561904Y-88142619D02*
X176371428Y-88142619D01*
X176371428Y-88142619D02*
X176276190Y-88095000D01*
X176276190Y-88095000D02*
X176228571Y-88047380D01*
X176228571Y-88047380D02*
X176133333Y-87904523D01*
X176133333Y-87904523D02*
X176085714Y-87714047D01*
X176085714Y-87714047D02*
X176085714Y-87333095D01*
X176085714Y-87333095D02*
X176133333Y-87237857D01*
X176133333Y-87237857D02*
X176180952Y-87190238D01*
X176180952Y-87190238D02*
X176276190Y-87142619D01*
X176276190Y-87142619D02*
X176466666Y-87142619D01*
X176466666Y-87142619D02*
X176561904Y-87190238D01*
X176561904Y-87190238D02*
X176609523Y-87237857D01*
X176609523Y-87237857D02*
X176657142Y-87333095D01*
X176657142Y-87333095D02*
X176657142Y-87571190D01*
X176657142Y-87571190D02*
X176609523Y-87666428D01*
X176609523Y-87666428D02*
X176561904Y-87714047D01*
X176561904Y-87714047D02*
X176466666Y-87761666D01*
X176466666Y-87761666D02*
X176276190Y-87761666D01*
X176276190Y-87761666D02*
X176180952Y-87714047D01*
X176180952Y-87714047D02*
X176133333Y-87666428D01*
X176133333Y-87666428D02*
X176085714Y-87571190D01*
X24225474Y-115717619D02*
X23606427Y-115717619D01*
X23606427Y-115717619D02*
X23939760Y-116098571D01*
X23939760Y-116098571D02*
X23796903Y-116098571D01*
X23796903Y-116098571D02*
X23701665Y-116146190D01*
X23701665Y-116146190D02*
X23654046Y-116193809D01*
X23654046Y-116193809D02*
X23606427Y-116289047D01*
X23606427Y-116289047D02*
X23606427Y-116527142D01*
X23606427Y-116527142D02*
X23654046Y-116622380D01*
X23654046Y-116622380D02*
X23701665Y-116670000D01*
X23701665Y-116670000D02*
X23796903Y-116717619D01*
X23796903Y-116717619D02*
X24082617Y-116717619D01*
X24082617Y-116717619D02*
X24177855Y-116670000D01*
X24177855Y-116670000D02*
X24225474Y-116622380D01*
X23130236Y-116717619D02*
X22939760Y-116717619D01*
X22939760Y-116717619D02*
X22844522Y-116670000D01*
X22844522Y-116670000D02*
X22796903Y-116622380D01*
X22796903Y-116622380D02*
X22701665Y-116479523D01*
X22701665Y-116479523D02*
X22654046Y-116289047D01*
X22654046Y-116289047D02*
X22654046Y-115908095D01*
X22654046Y-115908095D02*
X22701665Y-115812857D01*
X22701665Y-115812857D02*
X22749284Y-115765238D01*
X22749284Y-115765238D02*
X22844522Y-115717619D01*
X22844522Y-115717619D02*
X23034998Y-115717619D01*
X23034998Y-115717619D02*
X23130236Y-115765238D01*
X23130236Y-115765238D02*
X23177855Y-115812857D01*
X23177855Y-115812857D02*
X23225474Y-115908095D01*
X23225474Y-115908095D02*
X23225474Y-116146190D01*
X23225474Y-116146190D02*
X23177855Y-116241428D01*
X23177855Y-116241428D02*
X23130236Y-116289047D01*
X23130236Y-116289047D02*
X23034998Y-116336666D01*
X23034998Y-116336666D02*
X22844522Y-116336666D01*
X22844522Y-116336666D02*
X22749284Y-116289047D01*
X22749284Y-116289047D02*
X22701665Y-116241428D01*
X22701665Y-116241428D02*
X22654046Y-116146190D01*
X74787142Y-16022619D02*
X74168095Y-16022619D01*
X74168095Y-16022619D02*
X74501428Y-16403571D01*
X74501428Y-16403571D02*
X74358571Y-16403571D01*
X74358571Y-16403571D02*
X74263333Y-16451190D01*
X74263333Y-16451190D02*
X74215714Y-16498809D01*
X74215714Y-16498809D02*
X74168095Y-16594047D01*
X74168095Y-16594047D02*
X74168095Y-16832142D01*
X74168095Y-16832142D02*
X74215714Y-16927380D01*
X74215714Y-16927380D02*
X74263333Y-16975000D01*
X74263333Y-16975000D02*
X74358571Y-17022619D01*
X74358571Y-17022619D02*
X74644285Y-17022619D01*
X74644285Y-17022619D02*
X74739523Y-16975000D01*
X74739523Y-16975000D02*
X74787142Y-16927380D01*
X203596904Y-4322619D02*
X203596904Y-3655952D01*
X203596904Y-3846428D02*
X203549285Y-3751190D01*
X203549285Y-3751190D02*
X203501666Y-3703571D01*
X203501666Y-3703571D02*
X203406428Y-3655952D01*
X203406428Y-3655952D02*
X203311190Y-3655952D01*
X184546904Y-4322619D02*
X184546904Y-3322619D01*
X184451666Y-3941666D02*
X184165952Y-4322619D01*
X184165952Y-3655952D02*
X184546904Y-4036904D01*
X228568333Y-121130952D02*
X228568333Y-121797619D01*
X228806428Y-120750000D02*
X229044523Y-121464285D01*
X229044523Y-121464285D02*
X228425476Y-121464285D01*
X228092142Y-120892857D02*
X228044523Y-120845238D01*
X228044523Y-120845238D02*
X227949285Y-120797619D01*
X227949285Y-120797619D02*
X227711190Y-120797619D01*
X227711190Y-120797619D02*
X227615952Y-120845238D01*
X227615952Y-120845238D02*
X227568333Y-120892857D01*
X227568333Y-120892857D02*
X227520714Y-120988095D01*
X227520714Y-120988095D02*
X227520714Y-121083333D01*
X227520714Y-121083333D02*
X227568333Y-121226190D01*
X227568333Y-121226190D02*
X228139761Y-121797619D01*
X228139761Y-121797619D02*
X227520714Y-121797619D01*
X86121904Y-30357619D02*
X86121904Y-29357619D01*
X86121904Y-29833809D02*
X85550476Y-29833809D01*
X85550476Y-30357619D02*
X85550476Y-29357619D01*
X213217142Y-110002619D02*
X212598095Y-110002619D01*
X212598095Y-110002619D02*
X212931428Y-110383571D01*
X212931428Y-110383571D02*
X212788571Y-110383571D01*
X212788571Y-110383571D02*
X212693333Y-110431190D01*
X212693333Y-110431190D02*
X212645714Y-110478809D01*
X212645714Y-110478809D02*
X212598095Y-110574047D01*
X212598095Y-110574047D02*
X212598095Y-110812142D01*
X212598095Y-110812142D02*
X212645714Y-110907380D01*
X212645714Y-110907380D02*
X212693333Y-110955000D01*
X212693333Y-110955000D02*
X212788571Y-111002619D01*
X212788571Y-111002619D02*
X213074285Y-111002619D01*
X213074285Y-111002619D02*
X213169523Y-110955000D01*
X213169523Y-110955000D02*
X213217142Y-110907380D01*
X212026666Y-110431190D02*
X212121904Y-110383571D01*
X212121904Y-110383571D02*
X212169523Y-110335952D01*
X212169523Y-110335952D02*
X212217142Y-110240714D01*
X212217142Y-110240714D02*
X212217142Y-110193095D01*
X212217142Y-110193095D02*
X212169523Y-110097857D01*
X212169523Y-110097857D02*
X212121904Y-110050238D01*
X212121904Y-110050238D02*
X212026666Y-110002619D01*
X212026666Y-110002619D02*
X211836190Y-110002619D01*
X211836190Y-110002619D02*
X211740952Y-110050238D01*
X211740952Y-110050238D02*
X211693333Y-110097857D01*
X211693333Y-110097857D02*
X211645714Y-110193095D01*
X211645714Y-110193095D02*
X211645714Y-110240714D01*
X211645714Y-110240714D02*
X211693333Y-110335952D01*
X211693333Y-110335952D02*
X211740952Y-110383571D01*
X211740952Y-110383571D02*
X211836190Y-110431190D01*
X211836190Y-110431190D02*
X212026666Y-110431190D01*
X212026666Y-110431190D02*
X212121904Y-110478809D01*
X212121904Y-110478809D02*
X212169523Y-110526428D01*
X212169523Y-110526428D02*
X212217142Y-110621666D01*
X212217142Y-110621666D02*
X212217142Y-110812142D01*
X212217142Y-110812142D02*
X212169523Y-110907380D01*
X212169523Y-110907380D02*
X212121904Y-110955000D01*
X212121904Y-110955000D02*
X212026666Y-111002619D01*
X212026666Y-111002619D02*
X211836190Y-111002619D01*
X211836190Y-111002619D02*
X211740952Y-110955000D01*
X211740952Y-110955000D02*
X211693333Y-110907380D01*
X211693333Y-110907380D02*
X211645714Y-110812142D01*
X211645714Y-110812142D02*
X211645714Y-110621666D01*
X211645714Y-110621666D02*
X211693333Y-110526428D01*
X211693333Y-110526428D02*
X211740952Y-110478809D01*
X211740952Y-110478809D02*
X211836190Y-110431190D01*
X30876904Y-101477619D02*
X30876904Y-100810952D01*
X30876904Y-100906190D02*
X30829285Y-100858571D01*
X30829285Y-100858571D02*
X30734047Y-100810952D01*
X30734047Y-100810952D02*
X30591190Y-100810952D01*
X30591190Y-100810952D02*
X30495952Y-100858571D01*
X30495952Y-100858571D02*
X30448333Y-100953809D01*
X30448333Y-100953809D02*
X30448333Y-101477619D01*
X30448333Y-100953809D02*
X30400714Y-100858571D01*
X30400714Y-100858571D02*
X30305476Y-100810952D01*
X30305476Y-100810952D02*
X30162619Y-100810952D01*
X30162619Y-100810952D02*
X30067380Y-100858571D01*
X30067380Y-100858571D02*
X30019761Y-100953809D01*
X30019761Y-100953809D02*
X30019761Y-101477619D01*
X144986428Y-337856428D02*
X144986428Y-338332619D01*
X145319761Y-337332619D02*
X144986428Y-337856428D01*
X144986428Y-337856428D02*
X144653095Y-337332619D01*
X149193333Y-70362619D02*
X149193333Y-69838809D01*
X149193333Y-69838809D02*
X149240952Y-69743571D01*
X149240952Y-69743571D02*
X149336190Y-69695952D01*
X149336190Y-69695952D02*
X149526666Y-69695952D01*
X149526666Y-69695952D02*
X149621904Y-69743571D01*
X149193333Y-70315000D02*
X149288571Y-70362619D01*
X149288571Y-70362619D02*
X149526666Y-70362619D01*
X149526666Y-70362619D02*
X149621904Y-70315000D01*
X149621904Y-70315000D02*
X149669523Y-70219761D01*
X149669523Y-70219761D02*
X149669523Y-70124523D01*
X149669523Y-70124523D02*
X149621904Y-70029285D01*
X149621904Y-70029285D02*
X149526666Y-69981666D01*
X149526666Y-69981666D02*
X149288571Y-69981666D01*
X149288571Y-69981666D02*
X149193333Y-69934047D01*
X185181904Y-338332619D02*
X185181904Y-337332619D01*
X185086666Y-337951666D02*
X184800952Y-338332619D01*
X184800952Y-337665952D02*
X185181904Y-338046904D01*
X85693333Y-23642619D02*
X85883809Y-23642619D01*
X85883809Y-23642619D02*
X85979047Y-23690238D01*
X85979047Y-23690238D02*
X86026666Y-23737857D01*
X86026666Y-23737857D02*
X86121904Y-23880714D01*
X86121904Y-23880714D02*
X86169523Y-24071190D01*
X86169523Y-24071190D02*
X86169523Y-24452142D01*
X86169523Y-24452142D02*
X86121904Y-24547380D01*
X86121904Y-24547380D02*
X86074285Y-24595000D01*
X86074285Y-24595000D02*
X85979047Y-24642619D01*
X85979047Y-24642619D02*
X85788571Y-24642619D01*
X85788571Y-24642619D02*
X85693333Y-24595000D01*
X85693333Y-24595000D02*
X85645714Y-24547380D01*
X85645714Y-24547380D02*
X85598095Y-24452142D01*
X85598095Y-24452142D02*
X85598095Y-24214047D01*
X85598095Y-24214047D02*
X85645714Y-24118809D01*
X85645714Y-24118809D02*
X85693333Y-24071190D01*
X85693333Y-24071190D02*
X85788571Y-24023571D01*
X85788571Y-24023571D02*
X85979047Y-24023571D01*
X85979047Y-24023571D02*
X86074285Y-24071190D01*
X86074285Y-24071190D02*
X86121904Y-24118809D01*
X86121904Y-24118809D02*
X86169523Y-24214047D01*
X30972142Y-126210952D02*
X30734047Y-126877619D01*
X30495952Y-126210952D02*
X30734047Y-126877619D01*
X30734047Y-126877619D02*
X30829285Y-127115714D01*
X30829285Y-127115714D02*
X30876904Y-127163333D01*
X30876904Y-127163333D02*
X30972142Y-127210952D01*
X24177855Y-87872857D02*
X24130236Y-87825238D01*
X24130236Y-87825238D02*
X24034998Y-87777619D01*
X24034998Y-87777619D02*
X23796903Y-87777619D01*
X23796903Y-87777619D02*
X23701665Y-87825238D01*
X23701665Y-87825238D02*
X23654046Y-87872857D01*
X23654046Y-87872857D02*
X23606427Y-87968095D01*
X23606427Y-87968095D02*
X23606427Y-88063333D01*
X23606427Y-88063333D02*
X23654046Y-88206190D01*
X23654046Y-88206190D02*
X24225474Y-88777619D01*
X24225474Y-88777619D02*
X23606427Y-88777619D01*
X23034998Y-88206190D02*
X23130236Y-88158571D01*
X23130236Y-88158571D02*
X23177855Y-88110952D01*
X23177855Y-88110952D02*
X23225474Y-88015714D01*
X23225474Y-88015714D02*
X23225474Y-87968095D01*
X23225474Y-87968095D02*
X23177855Y-87872857D01*
X23177855Y-87872857D02*
X23130236Y-87825238D01*
X23130236Y-87825238D02*
X23034998Y-87777619D01*
X23034998Y-87777619D02*
X22844522Y-87777619D01*
X22844522Y-87777619D02*
X22749284Y-87825238D01*
X22749284Y-87825238D02*
X22701665Y-87872857D01*
X22701665Y-87872857D02*
X22654046Y-87968095D01*
X22654046Y-87968095D02*
X22654046Y-88015714D01*
X22654046Y-88015714D02*
X22701665Y-88110952D01*
X22701665Y-88110952D02*
X22749284Y-88158571D01*
X22749284Y-88158571D02*
X22844522Y-88206190D01*
X22844522Y-88206190D02*
X23034998Y-88206190D01*
X23034998Y-88206190D02*
X23130236Y-88253809D01*
X23130236Y-88253809D02*
X23177855Y-88301428D01*
X23177855Y-88301428D02*
X23225474Y-88396666D01*
X23225474Y-88396666D02*
X23225474Y-88587142D01*
X23225474Y-88587142D02*
X23177855Y-88682380D01*
X23177855Y-88682380D02*
X23130236Y-88730000D01*
X23130236Y-88730000D02*
X23034998Y-88777619D01*
X23034998Y-88777619D02*
X22844522Y-88777619D01*
X22844522Y-88777619D02*
X22749284Y-88730000D01*
X22749284Y-88730000D02*
X22701665Y-88682380D01*
X22701665Y-88682380D02*
X22654046Y-88587142D01*
X22654046Y-88587142D02*
X22654046Y-88396666D01*
X22654046Y-88396666D02*
X22701665Y-88301428D01*
X22701665Y-88301428D02*
X22749284Y-88253809D01*
X22749284Y-88253809D02*
X22844522Y-88206190D01*
X23606427Y-57662619D02*
X24177855Y-57662619D01*
X23892141Y-57662619D02*
X23892141Y-56662619D01*
X23892141Y-56662619D02*
X23987379Y-56805476D01*
X23987379Y-56805476D02*
X24082617Y-56900714D01*
X24082617Y-56900714D02*
X24177855Y-56948333D01*
X23034998Y-57091190D02*
X23130236Y-57043571D01*
X23130236Y-57043571D02*
X23177855Y-56995952D01*
X23177855Y-56995952D02*
X23225474Y-56900714D01*
X23225474Y-56900714D02*
X23225474Y-56853095D01*
X23225474Y-56853095D02*
X23177855Y-56757857D01*
X23177855Y-56757857D02*
X23130236Y-56710238D01*
X23130236Y-56710238D02*
X23034998Y-56662619D01*
X23034998Y-56662619D02*
X22844522Y-56662619D01*
X22844522Y-56662619D02*
X22749284Y-56710238D01*
X22749284Y-56710238D02*
X22701665Y-56757857D01*
X22701665Y-56757857D02*
X22654046Y-56853095D01*
X22654046Y-56853095D02*
X22654046Y-56900714D01*
X22654046Y-56900714D02*
X22701665Y-56995952D01*
X22701665Y-56995952D02*
X22749284Y-57043571D01*
X22749284Y-57043571D02*
X22844522Y-57091190D01*
X22844522Y-57091190D02*
X23034998Y-57091190D01*
X23034998Y-57091190D02*
X23130236Y-57138809D01*
X23130236Y-57138809D02*
X23177855Y-57186428D01*
X23177855Y-57186428D02*
X23225474Y-57281666D01*
X23225474Y-57281666D02*
X23225474Y-57472142D01*
X23225474Y-57472142D02*
X23177855Y-57567380D01*
X23177855Y-57567380D02*
X23130236Y-57615000D01*
X23130236Y-57615000D02*
X23034998Y-57662619D01*
X23034998Y-57662619D02*
X22844522Y-57662619D01*
X22844522Y-57662619D02*
X22749284Y-57615000D01*
X22749284Y-57615000D02*
X22701665Y-57567380D01*
X22701665Y-57567380D02*
X22654046Y-57472142D01*
X22654046Y-57472142D02*
X22654046Y-57281666D01*
X22654046Y-57281666D02*
X22701665Y-57186428D01*
X22701665Y-57186428D02*
X22749284Y-57138809D01*
X22749284Y-57138809D02*
X22844522Y-57091190D01*
X31019761Y-56662619D02*
X30686428Y-57662619D01*
X30686428Y-57662619D02*
X30353095Y-56662619D01*
X30876904Y-72902619D02*
X30876904Y-71902619D01*
X30876904Y-72283571D02*
X30781666Y-72235952D01*
X30781666Y-72235952D02*
X30591190Y-72235952D01*
X30591190Y-72235952D02*
X30495952Y-72283571D01*
X30495952Y-72283571D02*
X30448333Y-72331190D01*
X30448333Y-72331190D02*
X30400714Y-72426428D01*
X30400714Y-72426428D02*
X30400714Y-72712142D01*
X30400714Y-72712142D02*
X30448333Y-72807380D01*
X30448333Y-72807380D02*
X30495952Y-72855000D01*
X30495952Y-72855000D02*
X30591190Y-72902619D01*
X30591190Y-72902619D02*
X30781666Y-72902619D01*
X30781666Y-72902619D02*
X30876904Y-72855000D01*
X201152142Y-102382619D02*
X200533095Y-102382619D01*
X200533095Y-102382619D02*
X200866428Y-102763571D01*
X200866428Y-102763571D02*
X200723571Y-102763571D01*
X200723571Y-102763571D02*
X200628333Y-102811190D01*
X200628333Y-102811190D02*
X200580714Y-102858809D01*
X200580714Y-102858809D02*
X200533095Y-102954047D01*
X200533095Y-102954047D02*
X200533095Y-103192142D01*
X200533095Y-103192142D02*
X200580714Y-103287380D01*
X200580714Y-103287380D02*
X200628333Y-103335000D01*
X200628333Y-103335000D02*
X200723571Y-103382619D01*
X200723571Y-103382619D02*
X201009285Y-103382619D01*
X201009285Y-103382619D02*
X201104523Y-103335000D01*
X201104523Y-103335000D02*
X201152142Y-103287380D01*
X199628333Y-102382619D02*
X200104523Y-102382619D01*
X200104523Y-102382619D02*
X200152142Y-102858809D01*
X200152142Y-102858809D02*
X200104523Y-102811190D01*
X200104523Y-102811190D02*
X200009285Y-102763571D01*
X200009285Y-102763571D02*
X199771190Y-102763571D01*
X199771190Y-102763571D02*
X199675952Y-102811190D01*
X199675952Y-102811190D02*
X199628333Y-102858809D01*
X199628333Y-102858809D02*
X199580714Y-102954047D01*
X199580714Y-102954047D02*
X199580714Y-103192142D01*
X199580714Y-103192142D02*
X199628333Y-103287380D01*
X199628333Y-103287380D02*
X199675952Y-103335000D01*
X199675952Y-103335000D02*
X199771190Y-103382619D01*
X199771190Y-103382619D02*
X200009285Y-103382619D01*
X200009285Y-103382619D02*
X200104523Y-103335000D01*
X200104523Y-103335000D02*
X200152142Y-103287380D01*
X188991904Y-102112619D02*
X188991904Y-101445952D01*
X188991904Y-101541190D02*
X188944285Y-101493571D01*
X188944285Y-101493571D02*
X188849047Y-101445952D01*
X188849047Y-101445952D02*
X188706190Y-101445952D01*
X188706190Y-101445952D02*
X188610952Y-101493571D01*
X188610952Y-101493571D02*
X188563333Y-101588809D01*
X188563333Y-101588809D02*
X188563333Y-102112619D01*
X188563333Y-101588809D02*
X188515714Y-101493571D01*
X188515714Y-101493571D02*
X188420476Y-101445952D01*
X188420476Y-101445952D02*
X188277619Y-101445952D01*
X188277619Y-101445952D02*
X188182380Y-101493571D01*
X188182380Y-101493571D02*
X188134761Y-101588809D01*
X188134761Y-101588809D02*
X188134761Y-102112619D01*
X109616904Y-338332619D02*
X109616904Y-337332619D01*
X109616904Y-337332619D02*
X109045476Y-338332619D01*
X109045476Y-338332619D02*
X109045476Y-337332619D01*
X30972142Y-66822619D02*
X30305476Y-66822619D01*
X30305476Y-66822619D02*
X30972142Y-67822619D01*
X30972142Y-67822619D02*
X30305476Y-67822619D01*
X74056904Y-22102619D02*
X74056904Y-21102619D01*
X74056904Y-21102619D02*
X73818809Y-21102619D01*
X73818809Y-21102619D02*
X73675952Y-21150238D01*
X73675952Y-21150238D02*
X73580714Y-21245476D01*
X73580714Y-21245476D02*
X73533095Y-21340714D01*
X73533095Y-21340714D02*
X73485476Y-21531190D01*
X73485476Y-21531190D02*
X73485476Y-21674047D01*
X73485476Y-21674047D02*
X73533095Y-21864523D01*
X73533095Y-21864523D02*
X73580714Y-21959761D01*
X73580714Y-21959761D02*
X73675952Y-22055000D01*
X73675952Y-22055000D02*
X73818809Y-22102619D01*
X73818809Y-22102619D02*
X74056904Y-22102619D01*
X31019761Y-88110952D02*
X30638809Y-88110952D01*
X30876904Y-88777619D02*
X30876904Y-87920476D01*
X30876904Y-87920476D02*
X30829285Y-87825238D01*
X30829285Y-87825238D02*
X30734047Y-87777619D01*
X30734047Y-87777619D02*
X30638809Y-87777619D01*
X145272142Y-66187619D02*
X144605476Y-66187619D01*
X144605476Y-66187619D02*
X145272142Y-67187619D01*
X145272142Y-67187619D02*
X144605476Y-67187619D01*
X23701665Y-121130952D02*
X23701665Y-121797619D01*
X23939760Y-120750000D02*
X24177855Y-121464285D01*
X24177855Y-121464285D02*
X23558808Y-121464285D01*
X22654046Y-121797619D02*
X23225474Y-121797619D01*
X22939760Y-121797619D02*
X22939760Y-120797619D01*
X22939760Y-120797619D02*
X23034998Y-120940476D01*
X23034998Y-120940476D02*
X23130236Y-121035714D01*
X23130236Y-121035714D02*
X23225474Y-121083333D01*
X164433333Y-338332619D02*
X164433333Y-337332619D01*
X164433333Y-338285000D02*
X164528571Y-338332619D01*
X164528571Y-338332619D02*
X164719047Y-338332619D01*
X164719047Y-338332619D02*
X164814285Y-338285000D01*
X164814285Y-338285000D02*
X164861904Y-338237380D01*
X164861904Y-338237380D02*
X164909523Y-338142142D01*
X164909523Y-338142142D02*
X164909523Y-337856428D01*
X164909523Y-337856428D02*
X164861904Y-337761190D01*
X164861904Y-337761190D02*
X164814285Y-337713571D01*
X164814285Y-337713571D02*
X164719047Y-337665952D01*
X164719047Y-337665952D02*
X164528571Y-337665952D01*
X164528571Y-337665952D02*
X164433333Y-337713571D01*
X188214047Y-4322619D02*
X188309285Y-4275000D01*
X188309285Y-4275000D02*
X188356904Y-4179761D01*
X188356904Y-4179761D02*
X188356904Y-3322619D01*
X154114523Y-66282857D02*
X154066904Y-66235238D01*
X154066904Y-66235238D02*
X153971666Y-66187619D01*
X153971666Y-66187619D02*
X153733571Y-66187619D01*
X153733571Y-66187619D02*
X153638333Y-66235238D01*
X153638333Y-66235238D02*
X153590714Y-66282857D01*
X153590714Y-66282857D02*
X153543095Y-66378095D01*
X153543095Y-66378095D02*
X153543095Y-66473333D01*
X153543095Y-66473333D02*
X153590714Y-66616190D01*
X153590714Y-66616190D02*
X154162142Y-67187619D01*
X154162142Y-67187619D02*
X153543095Y-67187619D01*
X153209761Y-66187619D02*
X152590714Y-66187619D01*
X152590714Y-66187619D02*
X152924047Y-66568571D01*
X152924047Y-66568571D02*
X152781190Y-66568571D01*
X152781190Y-66568571D02*
X152685952Y-66616190D01*
X152685952Y-66616190D02*
X152638333Y-66663809D01*
X152638333Y-66663809D02*
X152590714Y-66759047D01*
X152590714Y-66759047D02*
X152590714Y-66997142D01*
X152590714Y-66997142D02*
X152638333Y-67092380D01*
X152638333Y-67092380D02*
X152685952Y-67140000D01*
X152685952Y-67140000D02*
X152781190Y-67187619D01*
X152781190Y-67187619D02*
X153066904Y-67187619D01*
X153066904Y-67187619D02*
X153162142Y-67140000D01*
X153162142Y-67140000D02*
X153209761Y-67092380D01*
X76596904Y-4322619D02*
X76596904Y-3322619D01*
X76596904Y-3322619D02*
X76358809Y-3322619D01*
X76358809Y-3322619D02*
X76215952Y-3370238D01*
X76215952Y-3370238D02*
X76120714Y-3465476D01*
X76120714Y-3465476D02*
X76073095Y-3560714D01*
X76073095Y-3560714D02*
X76025476Y-3751190D01*
X76025476Y-3751190D02*
X76025476Y-3894047D01*
X76025476Y-3894047D02*
X76073095Y-4084523D01*
X76073095Y-4084523D02*
X76120714Y-4179761D01*
X76120714Y-4179761D02*
X76215952Y-4275000D01*
X76215952Y-4275000D02*
X76358809Y-4322619D01*
X76358809Y-4322619D02*
X76596904Y-4322619D01*
X31019761Y-51582619D02*
X30448333Y-51582619D01*
X30734047Y-52582619D02*
X30734047Y-51582619D01*
X30305476Y-19467380D02*
X30353095Y-19515000D01*
X30353095Y-19515000D02*
X30495952Y-19562619D01*
X30495952Y-19562619D02*
X30591190Y-19562619D01*
X30591190Y-19562619D02*
X30734047Y-19515000D01*
X30734047Y-19515000D02*
X30829285Y-19419761D01*
X30829285Y-19419761D02*
X30876904Y-19324523D01*
X30876904Y-19324523D02*
X30924523Y-19134047D01*
X30924523Y-19134047D02*
X30924523Y-18991190D01*
X30924523Y-18991190D02*
X30876904Y-18800714D01*
X30876904Y-18800714D02*
X30829285Y-18705476D01*
X30829285Y-18705476D02*
X30734047Y-18610238D01*
X30734047Y-18610238D02*
X30591190Y-18562619D01*
X30591190Y-18562619D02*
X30495952Y-18562619D01*
X30495952Y-18562619D02*
X30353095Y-18610238D01*
X30353095Y-18610238D02*
X30305476Y-18657857D01*
X197342142Y-99842619D02*
X196723095Y-99842619D01*
X196723095Y-99842619D02*
X197056428Y-100223571D01*
X197056428Y-100223571D02*
X196913571Y-100223571D01*
X196913571Y-100223571D02*
X196818333Y-100271190D01*
X196818333Y-100271190D02*
X196770714Y-100318809D01*
X196770714Y-100318809D02*
X196723095Y-100414047D01*
X196723095Y-100414047D02*
X196723095Y-100652142D01*
X196723095Y-100652142D02*
X196770714Y-100747380D01*
X196770714Y-100747380D02*
X196818333Y-100795000D01*
X196818333Y-100795000D02*
X196913571Y-100842619D01*
X196913571Y-100842619D02*
X197199285Y-100842619D01*
X197199285Y-100842619D02*
X197294523Y-100795000D01*
X197294523Y-100795000D02*
X197342142Y-100747380D01*
X195865952Y-100175952D02*
X195865952Y-100842619D01*
X196104047Y-99795000D02*
X196342142Y-100509285D01*
X196342142Y-100509285D02*
X195723095Y-100509285D01*
X84518571Y-3798809D02*
X84851904Y-3798809D01*
X84851904Y-4322619D02*
X84851904Y-3322619D01*
X84851904Y-3322619D02*
X84375714Y-3322619D01*
X156813333Y-75395000D02*
X156908571Y-75442619D01*
X156908571Y-75442619D02*
X157099047Y-75442619D01*
X157099047Y-75442619D02*
X157194285Y-75395000D01*
X157194285Y-75395000D02*
X157241904Y-75347380D01*
X157241904Y-75347380D02*
X157289523Y-75252142D01*
X157289523Y-75252142D02*
X157289523Y-74966428D01*
X157289523Y-74966428D02*
X157241904Y-74871190D01*
X157241904Y-74871190D02*
X157194285Y-74823571D01*
X157194285Y-74823571D02*
X157099047Y-74775952D01*
X157099047Y-74775952D02*
X156908571Y-74775952D01*
X156908571Y-74775952D02*
X156813333Y-74823571D01*
X70294523Y-12942857D02*
X70246904Y-12895238D01*
X70246904Y-12895238D02*
X70151666Y-12847619D01*
X70151666Y-12847619D02*
X69913571Y-12847619D01*
X69913571Y-12847619D02*
X69818333Y-12895238D01*
X69818333Y-12895238D02*
X69770714Y-12942857D01*
X69770714Y-12942857D02*
X69723095Y-13038095D01*
X69723095Y-13038095D02*
X69723095Y-13133333D01*
X69723095Y-13133333D02*
X69770714Y-13276190D01*
X69770714Y-13276190D02*
X70342142Y-13847619D01*
X70342142Y-13847619D02*
X69723095Y-13847619D01*
X30876904Y-105890952D02*
X30876904Y-106890952D01*
X30876904Y-105938571D02*
X30781666Y-105890952D01*
X30781666Y-105890952D02*
X30591190Y-105890952D01*
X30591190Y-105890952D02*
X30495952Y-105938571D01*
X30495952Y-105938571D02*
X30448333Y-105986190D01*
X30448333Y-105986190D02*
X30400714Y-106081428D01*
X30400714Y-106081428D02*
X30400714Y-106367142D01*
X30400714Y-106367142D02*
X30448333Y-106462380D01*
X30448333Y-106462380D02*
X30495952Y-106510000D01*
X30495952Y-106510000D02*
X30591190Y-106557619D01*
X30591190Y-106557619D02*
X30781666Y-106557619D01*
X30781666Y-106557619D02*
X30876904Y-106510000D01*
X220202142Y-3655952D02*
X219964047Y-4322619D01*
X219964047Y-4322619D02*
X219725952Y-3655952D01*
X72215476Y-4227380D02*
X72263095Y-4275000D01*
X72263095Y-4275000D02*
X72405952Y-4322619D01*
X72405952Y-4322619D02*
X72501190Y-4322619D01*
X72501190Y-4322619D02*
X72644047Y-4275000D01*
X72644047Y-4275000D02*
X72739285Y-4179761D01*
X72739285Y-4179761D02*
X72786904Y-4084523D01*
X72786904Y-4084523D02*
X72834523Y-3894047D01*
X72834523Y-3894047D02*
X72834523Y-3751190D01*
X72834523Y-3751190D02*
X72786904Y-3560714D01*
X72786904Y-3560714D02*
X72739285Y-3465476D01*
X72739285Y-3465476D02*
X72644047Y-3370238D01*
X72644047Y-3370238D02*
X72501190Y-3322619D01*
X72501190Y-3322619D02*
X72405952Y-3322619D01*
X72405952Y-3322619D02*
X72263095Y-3370238D01*
X72263095Y-3370238D02*
X72215476Y-3417857D01*
X208089523Y-4275000D02*
X207994285Y-4322619D01*
X207994285Y-4322619D02*
X207803809Y-4322619D01*
X207803809Y-4322619D02*
X207708571Y-4275000D01*
X207708571Y-4275000D02*
X207660952Y-4179761D01*
X207660952Y-4179761D02*
X207660952Y-4132142D01*
X207660952Y-4132142D02*
X207708571Y-4036904D01*
X207708571Y-4036904D02*
X207803809Y-3989285D01*
X207803809Y-3989285D02*
X207946666Y-3989285D01*
X207946666Y-3989285D02*
X208041904Y-3941666D01*
X208041904Y-3941666D02*
X208089523Y-3846428D01*
X208089523Y-3846428D02*
X208089523Y-3798809D01*
X208089523Y-3798809D02*
X208041904Y-3703571D01*
X208041904Y-3703571D02*
X207946666Y-3655952D01*
X207946666Y-3655952D02*
X207803809Y-3655952D01*
X207803809Y-3655952D02*
X207708571Y-3703571D01*
X24177855Y-74537857D02*
X24130236Y-74490238D01*
X24130236Y-74490238D02*
X24034998Y-74442619D01*
X24034998Y-74442619D02*
X23796903Y-74442619D01*
X23796903Y-74442619D02*
X23701665Y-74490238D01*
X23701665Y-74490238D02*
X23654046Y-74537857D01*
X23654046Y-74537857D02*
X23606427Y-74633095D01*
X23606427Y-74633095D02*
X23606427Y-74728333D01*
X23606427Y-74728333D02*
X23654046Y-74871190D01*
X23654046Y-74871190D02*
X24225474Y-75442619D01*
X24225474Y-75442619D02*
X23606427Y-75442619D01*
X22701665Y-74442619D02*
X23177855Y-74442619D01*
X23177855Y-74442619D02*
X23225474Y-74918809D01*
X23225474Y-74918809D02*
X23177855Y-74871190D01*
X23177855Y-74871190D02*
X23082617Y-74823571D01*
X23082617Y-74823571D02*
X22844522Y-74823571D01*
X22844522Y-74823571D02*
X22749284Y-74871190D01*
X22749284Y-74871190D02*
X22701665Y-74918809D01*
X22701665Y-74918809D02*
X22654046Y-75014047D01*
X22654046Y-75014047D02*
X22654046Y-75252142D01*
X22654046Y-75252142D02*
X22701665Y-75347380D01*
X22701665Y-75347380D02*
X22749284Y-75395000D01*
X22749284Y-75395000D02*
X22844522Y-75442619D01*
X22844522Y-75442619D02*
X23082617Y-75442619D01*
X23082617Y-75442619D02*
X23177855Y-75395000D01*
X23177855Y-75395000D02*
X23225474Y-75347380D01*
X128666904Y-3322619D02*
X128666904Y-4132142D01*
X128666904Y-4132142D02*
X128619285Y-4227380D01*
X128619285Y-4227380D02*
X128571666Y-4275000D01*
X128571666Y-4275000D02*
X128476428Y-4322619D01*
X128476428Y-4322619D02*
X128285952Y-4322619D01*
X128285952Y-4322619D02*
X128190714Y-4275000D01*
X128190714Y-4275000D02*
X128143095Y-4227380D01*
X128143095Y-4227380D02*
X128095476Y-4132142D01*
X128095476Y-4132142D02*
X128095476Y-3322619D01*
X116665476Y-338332619D02*
X116998809Y-337856428D01*
X117236904Y-338332619D02*
X117236904Y-337332619D01*
X117236904Y-337332619D02*
X116855952Y-337332619D01*
X116855952Y-337332619D02*
X116760714Y-337380238D01*
X116760714Y-337380238D02*
X116713095Y-337427857D01*
X116713095Y-337427857D02*
X116665476Y-337523095D01*
X116665476Y-337523095D02*
X116665476Y-337665952D01*
X116665476Y-337665952D02*
X116713095Y-337761190D01*
X116713095Y-337761190D02*
X116760714Y-337808809D01*
X116760714Y-337808809D02*
X116855952Y-337856428D01*
X116855952Y-337856428D02*
X117236904Y-337856428D01*
X62674523Y-14196904D02*
X62198333Y-14196904D01*
X62769761Y-14482619D02*
X62436428Y-13482619D01*
X62436428Y-13482619D02*
X62103095Y-14482619D01*
X112791904Y-4322619D02*
X112791904Y-3322619D01*
X112791904Y-3322619D02*
X112410952Y-3322619D01*
X112410952Y-3322619D02*
X112315714Y-3370238D01*
X112315714Y-3370238D02*
X112268095Y-3417857D01*
X112268095Y-3417857D02*
X112220476Y-3513095D01*
X112220476Y-3513095D02*
X112220476Y-3655952D01*
X112220476Y-3655952D02*
X112268095Y-3751190D01*
X112268095Y-3751190D02*
X112315714Y-3798809D01*
X112315714Y-3798809D02*
X112410952Y-3846428D01*
X112410952Y-3846428D02*
X112791904Y-3846428D01*
X30972142Y-59202619D02*
X30734047Y-60202619D01*
X30734047Y-60202619D02*
X30543571Y-59488333D01*
X30543571Y-59488333D02*
X30353095Y-60202619D01*
X30353095Y-60202619D02*
X30115000Y-59202619D01*
X94234047Y-29151190D02*
X94329285Y-29103571D01*
X94329285Y-29103571D02*
X94376904Y-29055952D01*
X94376904Y-29055952D02*
X94424523Y-28960714D01*
X94424523Y-28960714D02*
X94424523Y-28913095D01*
X94424523Y-28913095D02*
X94376904Y-28817857D01*
X94376904Y-28817857D02*
X94329285Y-28770238D01*
X94329285Y-28770238D02*
X94234047Y-28722619D01*
X94234047Y-28722619D02*
X94043571Y-28722619D01*
X94043571Y-28722619D02*
X93948333Y-28770238D01*
X93948333Y-28770238D02*
X93900714Y-28817857D01*
X93900714Y-28817857D02*
X93853095Y-28913095D01*
X93853095Y-28913095D02*
X93853095Y-28960714D01*
X93853095Y-28960714D02*
X93900714Y-29055952D01*
X93900714Y-29055952D02*
X93948333Y-29103571D01*
X93948333Y-29103571D02*
X94043571Y-29151190D01*
X94043571Y-29151190D02*
X94234047Y-29151190D01*
X94234047Y-29151190D02*
X94329285Y-29198809D01*
X94329285Y-29198809D02*
X94376904Y-29246428D01*
X94376904Y-29246428D02*
X94424523Y-29341666D01*
X94424523Y-29341666D02*
X94424523Y-29532142D01*
X94424523Y-29532142D02*
X94376904Y-29627380D01*
X94376904Y-29627380D02*
X94329285Y-29675000D01*
X94329285Y-29675000D02*
X94234047Y-29722619D01*
X94234047Y-29722619D02*
X94043571Y-29722619D01*
X94043571Y-29722619D02*
X93948333Y-29675000D01*
X93948333Y-29675000D02*
X93900714Y-29627380D01*
X93900714Y-29627380D02*
X93853095Y-29532142D01*
X93853095Y-29532142D02*
X93853095Y-29341666D01*
X93853095Y-29341666D02*
X93900714Y-29246428D01*
X93900714Y-29246428D02*
X93948333Y-29198809D01*
X93948333Y-29198809D02*
X94043571Y-29151190D01*
X232267142Y-337665952D02*
X232029047Y-338332619D01*
X231790952Y-337665952D02*
X232029047Y-338332619D01*
X232029047Y-338332619D02*
X232124285Y-338570714D01*
X232124285Y-338570714D02*
X232171904Y-338618333D01*
X232171904Y-338618333D02*
X232267142Y-338665952D01*
X224647142Y-124337619D02*
X224123333Y-123670952D01*
X224647142Y-123670952D02*
X224123333Y-124337619D01*
X30495952Y-86190000D02*
X30591190Y-86237619D01*
X30591190Y-86237619D02*
X30781666Y-86237619D01*
X30781666Y-86237619D02*
X30876904Y-86190000D01*
X30876904Y-86190000D02*
X30924523Y-86094761D01*
X30924523Y-86094761D02*
X30924523Y-85713809D01*
X30924523Y-85713809D02*
X30876904Y-85618571D01*
X30876904Y-85618571D02*
X30781666Y-85570952D01*
X30781666Y-85570952D02*
X30591190Y-85570952D01*
X30591190Y-85570952D02*
X30495952Y-85618571D01*
X30495952Y-85618571D02*
X30448333Y-85713809D01*
X30448333Y-85713809D02*
X30448333Y-85809047D01*
X30448333Y-85809047D02*
X30924523Y-85904285D01*
X23749047Y-31691190D02*
X23844285Y-31643571D01*
X23844285Y-31643571D02*
X23891904Y-31595952D01*
X23891904Y-31595952D02*
X23939523Y-31500714D01*
X23939523Y-31500714D02*
X23939523Y-31453095D01*
X23939523Y-31453095D02*
X23891904Y-31357857D01*
X23891904Y-31357857D02*
X23844285Y-31310238D01*
X23844285Y-31310238D02*
X23749047Y-31262619D01*
X23749047Y-31262619D02*
X23558571Y-31262619D01*
X23558571Y-31262619D02*
X23463333Y-31310238D01*
X23463333Y-31310238D02*
X23415714Y-31357857D01*
X23415714Y-31357857D02*
X23368095Y-31453095D01*
X23368095Y-31453095D02*
X23368095Y-31500714D01*
X23368095Y-31500714D02*
X23415714Y-31595952D01*
X23415714Y-31595952D02*
X23463333Y-31643571D01*
X23463333Y-31643571D02*
X23558571Y-31691190D01*
X23558571Y-31691190D02*
X23749047Y-31691190D01*
X23749047Y-31691190D02*
X23844285Y-31738809D01*
X23844285Y-31738809D02*
X23891904Y-31786428D01*
X23891904Y-31786428D02*
X23939523Y-31881666D01*
X23939523Y-31881666D02*
X23939523Y-32072142D01*
X23939523Y-32072142D02*
X23891904Y-32167380D01*
X23891904Y-32167380D02*
X23844285Y-32215000D01*
X23844285Y-32215000D02*
X23749047Y-32262619D01*
X23749047Y-32262619D02*
X23558571Y-32262619D01*
X23558571Y-32262619D02*
X23463333Y-32215000D01*
X23463333Y-32215000D02*
X23415714Y-32167380D01*
X23415714Y-32167380D02*
X23368095Y-32072142D01*
X23368095Y-32072142D02*
X23368095Y-31881666D01*
X23368095Y-31881666D02*
X23415714Y-31786428D01*
X23415714Y-31786428D02*
X23463333Y-31738809D01*
X23463333Y-31738809D02*
X23558571Y-31691190D01*
M02*
