%TF.GenerationSoftware,KiCad,Pcbnew,7.0.1*%
%TF.CreationDate,2024-03-03T21:16:05-05:00*%
%TF.ProjectId,SEM card breakout,53454d20-6361-4726-9420-627265616b6f,rev?*%
%TF.SameCoordinates,Original*%
%TF.FileFunction,Drillmap*%
%TF.FilePolarity,Positive*%
%FSLAX45Y45*%
G04 Gerber Fmt 4.5, Leading zero omitted, Abs format (unit mm)*
G04 Created by KiCad (PCBNEW 7.0.1) date 2024-03-03 21:16:05*
%MOMM*%
%LPD*%
G01*
G04 APERTURE LIST*
%ADD10C,0.100000*%
%ADD11C,0.200000*%
G04 APERTURE END LIST*
D10*
X0Y960120D02*
X0Y-29773880D01*
X25386000Y-33596880D02*
X25386000Y960120D01*
X24416000Y-33596880D02*
X25386000Y-33596880D01*
X5051160Y-29773880D02*
X5051160Y-33596880D01*
X0Y-29773880D02*
X5051160Y-29773880D01*
X24436440Y960120D02*
X25386000Y960120D01*
X5051160Y-33596880D02*
X7002000Y-33596880D01*
X6981560Y960120D02*
X0Y960120D01*
D11*
X242619Y-35425404D02*
X242619Y-35225404D01*
X242619Y-35225404D02*
X290238Y-35225404D01*
X290238Y-35225404D02*
X318810Y-35234928D01*
X318810Y-35234928D02*
X337857Y-35253975D01*
X337857Y-35253975D02*
X347381Y-35273023D01*
X347381Y-35273023D02*
X356905Y-35311118D01*
X356905Y-35311118D02*
X356905Y-35339690D01*
X356905Y-35339690D02*
X347381Y-35377785D01*
X347381Y-35377785D02*
X337857Y-35396832D01*
X337857Y-35396832D02*
X318810Y-35415880D01*
X318810Y-35415880D02*
X290238Y-35425404D01*
X290238Y-35425404D02*
X242619Y-35425404D01*
X442619Y-35425404D02*
X442619Y-35292070D01*
X442619Y-35330166D02*
X452143Y-35311118D01*
X452143Y-35311118D02*
X461667Y-35301594D01*
X461667Y-35301594D02*
X480714Y-35292070D01*
X480714Y-35292070D02*
X499762Y-35292070D01*
X566429Y-35425404D02*
X566429Y-35292070D01*
X566429Y-35225404D02*
X556905Y-35234928D01*
X556905Y-35234928D02*
X566429Y-35244451D01*
X566429Y-35244451D02*
X575952Y-35234928D01*
X575952Y-35234928D02*
X566429Y-35225404D01*
X566429Y-35225404D02*
X566429Y-35244451D01*
X690238Y-35425404D02*
X671190Y-35415880D01*
X671190Y-35415880D02*
X661667Y-35396832D01*
X661667Y-35396832D02*
X661667Y-35225404D01*
X795000Y-35425404D02*
X775952Y-35415880D01*
X775952Y-35415880D02*
X766428Y-35396832D01*
X766428Y-35396832D02*
X766428Y-35225404D01*
X1023571Y-35425404D02*
X1023571Y-35225404D01*
X1023571Y-35225404D02*
X1090238Y-35368261D01*
X1090238Y-35368261D02*
X1156905Y-35225404D01*
X1156905Y-35225404D02*
X1156905Y-35425404D01*
X1337857Y-35425404D02*
X1337857Y-35320642D01*
X1337857Y-35320642D02*
X1328333Y-35301594D01*
X1328333Y-35301594D02*
X1309286Y-35292070D01*
X1309286Y-35292070D02*
X1271190Y-35292070D01*
X1271190Y-35292070D02*
X1252143Y-35301594D01*
X1337857Y-35415880D02*
X1318810Y-35425404D01*
X1318810Y-35425404D02*
X1271190Y-35425404D01*
X1271190Y-35425404D02*
X1252143Y-35415880D01*
X1252143Y-35415880D02*
X1242619Y-35396832D01*
X1242619Y-35396832D02*
X1242619Y-35377785D01*
X1242619Y-35377785D02*
X1252143Y-35358737D01*
X1252143Y-35358737D02*
X1271190Y-35349213D01*
X1271190Y-35349213D02*
X1318810Y-35349213D01*
X1318810Y-35349213D02*
X1337857Y-35339690D01*
X1433095Y-35292070D02*
X1433095Y-35492070D01*
X1433095Y-35301594D02*
X1452143Y-35292070D01*
X1452143Y-35292070D02*
X1490238Y-35292070D01*
X1490238Y-35292070D02*
X1509286Y-35301594D01*
X1509286Y-35301594D02*
X1518809Y-35311118D01*
X1518809Y-35311118D02*
X1528333Y-35330166D01*
X1528333Y-35330166D02*
X1528333Y-35387309D01*
X1528333Y-35387309D02*
X1518809Y-35406356D01*
X1518809Y-35406356D02*
X1509286Y-35415880D01*
X1509286Y-35415880D02*
X1490238Y-35425404D01*
X1490238Y-35425404D02*
X1452143Y-35425404D01*
X1452143Y-35425404D02*
X1433095Y-35415880D01*
X1614048Y-35406356D02*
X1623571Y-35415880D01*
X1623571Y-35415880D02*
X1614048Y-35425404D01*
X1614048Y-35425404D02*
X1604524Y-35415880D01*
X1604524Y-35415880D02*
X1614048Y-35406356D01*
X1614048Y-35406356D02*
X1614048Y-35425404D01*
X1614048Y-35301594D02*
X1623571Y-35311118D01*
X1623571Y-35311118D02*
X1614048Y-35320642D01*
X1614048Y-35320642D02*
X1604524Y-35311118D01*
X1604524Y-35311118D02*
X1614048Y-35301594D01*
X1614048Y-35301594D02*
X1614048Y-35320642D01*
M02*
