%TF.GenerationSoftware,KiCad,Pcbnew,7.0.1*%
%TF.CreationDate,2024-03-02T20:17:55-05:00*%
%TF.ProjectId,SEM card breakout,53454d20-6361-4726-9420-627265616b6f,rev?*%
%TF.SameCoordinates,Original*%
%TF.FileFunction,Copper,L1,Top*%
%TF.FilePolarity,Positive*%
%FSLAX46Y46*%
G04 Gerber Fmt 4.6, Leading zero omitted, Abs format (unit mm)*
G04 Created by KiCad (PCBNEW 7.0.1) date 2024-03-02 20:17:55*
%MOMM*%
%LPD*%
G01*
G04 APERTURE LIST*
G04 Aperture macros list*
%AMRoundRect*
0 Rectangle with rounded corners*
0 $1 Rounding radius*
0 $2 $3 $4 $5 $6 $7 $8 $9 X,Y pos of 4 corners*
0 Add a 4 corners polygon primitive as box body*
4,1,4,$2,$3,$4,$5,$6,$7,$8,$9,$2,$3,0*
0 Add four circle primitives for the rounded corners*
1,1,$1+$1,$2,$3*
1,1,$1+$1,$4,$5*
1,1,$1+$1,$6,$7*
1,1,$1+$1,$8,$9*
0 Add four rect primitives between the rounded corners*
20,1,$1+$1,$2,$3,$4,$5,0*
20,1,$1+$1,$4,$5,$6,$7,0*
20,1,$1+$1,$6,$7,$8,$9,0*
20,1,$1+$1,$8,$9,$2,$3,0*%
G04 Aperture macros list end*
%TA.AperFunction,ConnectorPad*%
%ADD10RoundRect,0.635000X-0.635000X-5.715000X0.635000X-5.715000X0.635000X5.715000X-0.635000X5.715000X0*%
%TD*%
%TA.AperFunction,ComponentPad*%
%ADD11R,1.700000X1.700000*%
%TD*%
%TA.AperFunction,ComponentPad*%
%ADD12O,1.700000X1.700000*%
%TD*%
%TA.AperFunction,ViaPad*%
%ADD13C,0.800000*%
%TD*%
%TA.AperFunction,Conductor*%
%ADD14C,1.500000*%
%TD*%
G04 APERTURE END LIST*
D10*
%TO.P,J1,1,Pin_1*%
%TO.N,1*%
X65379600Y-344728800D03*
%TO.P,J1,2,Pin_2*%
%TO.N,2*%
X69342000Y-344728800D03*
%TO.P,J1,3,Pin_3*%
%TO.N,3*%
X73304400Y-344728800D03*
%TO.P,J1,4,Pin_4*%
%TO.N,4*%
X77266800Y-344728800D03*
%TO.P,J1,5,Pin_5*%
%TO.N,5*%
X81229200Y-344728800D03*
%TO.P,J1,6,Pin_6*%
%TO.N,6*%
X85191600Y-344728800D03*
%TO.P,J1,7,Pin_7*%
%TO.N,7*%
X89154000Y-344728800D03*
%TO.P,J1,8,Pin_8*%
%TO.N,8*%
X93116400Y-344728800D03*
%TO.P,J1,9,Pin_9*%
%TO.N,9*%
X97078800Y-344728800D03*
%TO.P,J1,10,Pin_10*%
%TO.N,10*%
X101041200Y-344728800D03*
%TO.P,J1,11,Pin_11*%
%TO.N,11*%
X105003600Y-344728800D03*
%TO.P,J1,12,Pin_12*%
%TO.N,12*%
X108966000Y-344728800D03*
%TO.P,J1,13,Pin_13*%
%TO.N,13*%
X112928400Y-344728800D03*
%TO.P,J1,14,Pin_14*%
%TO.N,14*%
X116890800Y-344728800D03*
%TO.P,J1,15,Pin_15*%
%TO.N,15*%
X120853200Y-344728800D03*
%TO.P,J1,16,Pin_16*%
%TO.N,16*%
X124815600Y-344728800D03*
%TO.P,J1,17,Pin_17*%
%TO.N,17*%
X128778000Y-344728800D03*
%TO.P,J1,18,Pin_18*%
%TO.N,18*%
X132740400Y-344728800D03*
%TO.P,J1,19,Pin_19*%
%TO.N,19*%
X136702800Y-344728800D03*
%TO.P,J1,20,Pin_20*%
%TO.N,20*%
X140665200Y-344728800D03*
%TO.P,J1,21,Pin_21*%
%TO.N,21*%
X144627600Y-344728800D03*
%TO.P,J1,22,Pin_22*%
%TO.N,22*%
X148590000Y-344728800D03*
%TO.P,J1,23,Pin_23*%
%TO.N,23*%
X152552400Y-344728800D03*
%TO.P,J1,24,Pin_24*%
%TO.N,24*%
X156514800Y-344728800D03*
%TO.P,J1,25,Pin_25*%
%TO.N,25*%
X160477200Y-344728800D03*
%TO.P,J1,26,Pin_26*%
%TO.N,26*%
X164439600Y-344728800D03*
%TO.P,J1,27,Pin_27*%
%TO.N,27*%
X168402000Y-344728800D03*
%TO.P,J1,28,Pin_28*%
%TO.N,28*%
X172364400Y-344728800D03*
%TO.P,J1,29,Pin_29*%
%TO.N,29*%
X176326800Y-344728800D03*
%TO.P,J1,30,Pin_30*%
%TO.N,30*%
X180289200Y-344728800D03*
%TO.P,J1,31,Pin_31*%
%TO.N,31*%
X184251600Y-344728800D03*
%TO.P,J1,32,Pin_32*%
%TO.N,32*%
X188214000Y-344728800D03*
%TO.P,J1,33,Pin_33*%
%TO.N,33*%
X192176400Y-344728800D03*
%TO.P,J1,34,Pin_34*%
%TO.N,34*%
X196138800Y-344728800D03*
%TO.P,J1,35,Pin_35*%
%TO.N,35*%
X200101200Y-344728800D03*
%TO.P,J1,36,Pin_36*%
%TO.N,36*%
X204063600Y-344728800D03*
%TO.P,J1,37,Pin_37*%
%TO.N,37*%
X208026000Y-344728800D03*
%TO.P,J1,38,Pin_38*%
%TO.N,38*%
X211988400Y-344728800D03*
%TO.P,J1,39,Pin_39*%
%TO.N,39*%
X215950800Y-344728800D03*
%TO.P,J1,40,Pin_40*%
%TO.N,40*%
X219913200Y-344728800D03*
%TO.P,J1,41,Pin_41*%
%TO.N,41*%
X223875600Y-344728800D03*
%TO.P,J1,42,Pin_42*%
%TO.N,42*%
X227838000Y-344728800D03*
%TO.P,J1,43,Pin_43*%
%TO.N,43*%
X231800400Y-344728800D03*
%TD*%
D11*
%TO.P,J4,1,Pin_1*%
%TO.N,26*%
X25755600Y-83210400D03*
D12*
%TO.P,J4,2,Pin_2*%
%TO.N,d*%
X28295600Y-83210400D03*
%TO.P,J4,3,Pin_3*%
%TO.N,27*%
X25755600Y-85750400D03*
%TO.P,J4,4,Pin_4*%
%TO.N,e*%
X28295600Y-85750400D03*
%TO.P,J4,5,Pin_5*%
%TO.N,28*%
X25755600Y-88290400D03*
%TO.P,J4,6,Pin_6*%
%TO.N,f*%
X28295600Y-88290400D03*
%TO.P,J4,7,Pin_7*%
%TO.N,29*%
X25755600Y-90830400D03*
%TO.P,J4,8,Pin_8*%
%TO.N,h*%
X28295600Y-90830400D03*
%TO.P,J4,9,Pin_9*%
%TO.N,30*%
X25755600Y-93370400D03*
%TO.P,J4,10,Pin_10*%
%TO.N,j*%
X28295600Y-93370400D03*
%TO.P,J4,11,Pin_11*%
%TO.N,31*%
X25755600Y-95910400D03*
%TO.P,J4,12,Pin_12*%
%TO.N,k*%
X28295600Y-95910400D03*
%TO.P,J4,13,Pin_13*%
%TO.N,32*%
X25755600Y-98450400D03*
%TO.P,J4,14,Pin_14*%
%TO.N,l*%
X28295600Y-98450400D03*
%TO.P,J4,15,Pin_15*%
%TO.N,33*%
X25755600Y-100990400D03*
%TO.P,J4,16,Pin_16*%
%TO.N,m*%
X28295600Y-100990400D03*
%TO.P,J4,17,Pin_17*%
%TO.N,34*%
X25755600Y-103530400D03*
%TO.P,J4,18,Pin_18*%
%TO.N,n*%
X28295600Y-103530400D03*
%TO.P,J4,19,Pin_19*%
%TO.N,35*%
X25755600Y-106070400D03*
%TO.P,J4,20,Pin_20*%
%TO.N,p*%
X28295600Y-106070400D03*
%TO.P,J4,21,Pin_21*%
%TO.N,36*%
X25755600Y-108610400D03*
%TO.P,J4,22,Pin_22*%
%TO.N,r*%
X28295600Y-108610400D03*
%TO.P,J4,23,Pin_23*%
%TO.N,37*%
X25755600Y-111150400D03*
%TO.P,J4,24,Pin_24*%
%TO.N,s*%
X28295600Y-111150400D03*
%TO.P,J4,25,Pin_25*%
%TO.N,38*%
X25755600Y-113690400D03*
%TO.P,J4,26,Pin_26*%
%TO.N,t*%
X28295600Y-113690400D03*
%TO.P,J4,27,Pin_27*%
%TO.N,39*%
X25755600Y-116230400D03*
%TO.P,J4,28,Pin_28*%
%TO.N,u*%
X28295600Y-116230400D03*
%TO.P,J4,29,Pin_29*%
%TO.N,40*%
X25755600Y-118770400D03*
%TO.P,J4,30,Pin_30*%
%TO.N,v*%
X28295600Y-118770400D03*
%TO.P,J4,31,Pin_31*%
%TO.N,41*%
X25755600Y-121310400D03*
%TO.P,J4,32,Pin_32*%
%TO.N,w*%
X28295600Y-121310400D03*
%TO.P,J4,33,Pin_33*%
%TO.N,42*%
X25755600Y-123850400D03*
%TO.P,J4,34,Pin_34*%
%TO.N,x*%
X28295600Y-123850400D03*
%TO.P,J4,35,Pin_35*%
%TO.N,43*%
X25755600Y-126390400D03*
%TO.P,J4,36,Pin_36*%
%TO.N,y*%
X28295600Y-126390400D03*
%TO.P,J4,37,Pin_37*%
%TO.N,unconnected-(J4-Pin_37-Pad37)*%
X25755600Y-128930400D03*
%TO.P,J4,38,Pin_38*%
%TO.N,unconnected-(J4-Pin_38-Pad38)*%
X28295600Y-128930400D03*
%TO.P,J4,39,Pin_39*%
%TO.N,unconnected-(J4-Pin_39-Pad39)*%
X25755600Y-131470400D03*
%TO.P,J4,40,Pin_40*%
%TO.N,unconnected-(J4-Pin_40-Pad40)*%
X28295600Y-131470400D03*
%TO.P,J4,41,Pin_41*%
%TO.N,unconnected-(J4-Pin_41-Pad41)*%
X25755600Y-134010400D03*
%TO.P,J4,42,Pin_42*%
%TO.N,unconnected-(J4-Pin_42-Pad42)*%
X28295600Y-134010400D03*
%TO.P,J4,43,Pin_43*%
%TO.N,unconnected-(J4-Pin_43-Pad43)*%
X25755600Y-136550400D03*
%TO.P,J4,44,Pin_44*%
%TO.N,unconnected-(J4-Pin_44-Pad44)*%
X28295600Y-136550400D03*
%TO.P,J4,45,Pin_45*%
%TO.N,unconnected-(J4-Pin_45-Pad45)*%
X25755600Y-139090400D03*
%TO.P,J4,46,Pin_46*%
%TO.N,unconnected-(J4-Pin_46-Pad46)*%
X28295600Y-139090400D03*
%TO.P,J4,47,Pin_47*%
%TO.N,unconnected-(J4-Pin_47-Pad47)*%
X25755600Y-141630400D03*
%TO.P,J4,48,Pin_48*%
%TO.N,unconnected-(J4-Pin_48-Pad48)*%
X28295600Y-141630400D03*
%TO.P,J4,49,Pin_49*%
%TO.N,unconnected-(J4-Pin_49-Pad49)*%
X25755600Y-144170400D03*
%TO.P,J4,50,Pin_50*%
%TO.N,unconnected-(J4-Pin_50-Pad50)*%
X28295600Y-144170400D03*
%TD*%
D11*
%TO.P,J3,1,Pin_1*%
%TO.N,1*%
X25921600Y-13868400D03*
D12*
%TO.P,J3,2,Pin_2*%
%TO.N,A*%
X28461600Y-13868400D03*
%TO.P,J3,3,Pin_3*%
%TO.N,2*%
X25921600Y-16408400D03*
%TO.P,J3,4,Pin_4*%
%TO.N,B*%
X28461600Y-16408400D03*
%TO.P,J3,5,Pin_5*%
%TO.N,3*%
X25921600Y-18948400D03*
%TO.P,J3,6,Pin_6*%
%TO.N,C*%
X28461600Y-18948400D03*
%TO.P,J3,7,Pin_7*%
%TO.N,4*%
X25921600Y-21488400D03*
%TO.P,J3,8,Pin_8*%
%TO.N,D*%
X28461600Y-21488400D03*
%TO.P,J3,9,Pin_9*%
%TO.N,5*%
X25921600Y-24028400D03*
%TO.P,J3,10,Pin_10*%
%TO.N,E*%
X28461600Y-24028400D03*
%TO.P,J3,11,Pin_11*%
%TO.N,6*%
X25921600Y-26568400D03*
%TO.P,J3,12,Pin_12*%
%TO.N,F*%
X28461600Y-26568400D03*
%TO.P,J3,13,Pin_13*%
%TO.N,7*%
X25921600Y-29108400D03*
%TO.P,J3,14,Pin_14*%
%TO.N,H*%
X28461600Y-29108400D03*
%TO.P,J3,15,Pin_15*%
%TO.N,8*%
X25921600Y-31648400D03*
%TO.P,J3,16,Pin_16*%
%TO.N,J*%
X28461600Y-31648400D03*
%TO.P,J3,17,Pin_17*%
%TO.N,9*%
X25921600Y-34188400D03*
%TO.P,J3,18,Pin_18*%
%TO.N,K*%
X28461600Y-34188400D03*
%TO.P,J3,19,Pin_19*%
%TO.N,10*%
X25921600Y-36728400D03*
%TO.P,J3,20,Pin_20*%
%TO.N,L*%
X28461600Y-36728400D03*
%TO.P,J3,21,Pin_21*%
%TO.N,11*%
X25921600Y-39268400D03*
%TO.P,J3,22,Pin_22*%
%TO.N,M*%
X28461600Y-39268400D03*
%TO.P,J3,23,Pin_23*%
%TO.N,12*%
X25921600Y-41808400D03*
%TO.P,J3,24,Pin_24*%
%TO.N,N*%
X28461600Y-41808400D03*
%TO.P,J3,25,Pin_25*%
%TO.N,13*%
X25921600Y-44348400D03*
%TO.P,J3,26,Pin_26*%
%TO.N,P*%
X28461600Y-44348400D03*
%TO.P,J3,27,Pin_27*%
%TO.N,14*%
X25921600Y-46888400D03*
%TO.P,J3,28,Pin_28*%
%TO.N,R*%
X28461600Y-46888400D03*
%TO.P,J3,29,Pin_29*%
%TO.N,15*%
X25921600Y-49428400D03*
%TO.P,J3,30,Pin_30*%
%TO.N,S*%
X28461600Y-49428400D03*
%TO.P,J3,31,Pin_31*%
%TO.N,16*%
X25921600Y-51968400D03*
%TO.P,J3,32,Pin_32*%
%TO.N,T*%
X28461600Y-51968400D03*
%TO.P,J3,33,Pin_33*%
%TO.N,17*%
X25921600Y-54508400D03*
%TO.P,J3,34,Pin_34*%
%TO.N,U*%
X28461600Y-54508400D03*
%TO.P,J3,35,Pin_35*%
%TO.N,18*%
X25921600Y-57048400D03*
%TO.P,J3,36,Pin_36*%
%TO.N,V*%
X28461600Y-57048400D03*
%TO.P,J3,37,Pin_37*%
%TO.N,19*%
X25921600Y-59588400D03*
%TO.P,J3,38,Pin_38*%
%TO.N,W*%
X28461600Y-59588400D03*
%TO.P,J3,39,Pin_39*%
%TO.N,20*%
X25921600Y-62128400D03*
%TO.P,J3,40,Pin_40*%
%TO.N,X*%
X28461600Y-62128400D03*
%TO.P,J3,41,Pin_41*%
%TO.N,21*%
X25921600Y-64668400D03*
%TO.P,J3,42,Pin_42*%
%TO.N,Y*%
X28461600Y-64668400D03*
%TO.P,J3,43,Pin_43*%
%TO.N,22*%
X25921600Y-67208400D03*
%TO.P,J3,44,Pin_44*%
%TO.N,Z*%
X28461600Y-67208400D03*
%TO.P,J3,45,Pin_45*%
%TO.N,23*%
X25921600Y-69748400D03*
%TO.P,J3,46,Pin_46*%
%TO.N,a*%
X28461600Y-69748400D03*
%TO.P,J3,47,Pin_47*%
%TO.N,24*%
X25921600Y-72288400D03*
%TO.P,J3,48,Pin_48*%
%TO.N,b*%
X28461600Y-72288400D03*
%TO.P,J3,49,Pin_49*%
%TO.N,25*%
X25921600Y-74828400D03*
%TO.P,J3,50,Pin_50*%
%TO.N,c*%
X28461600Y-74828400D03*
%TD*%
D10*
%TO.P,J2,1,Pin_1*%
%TO.N,1*%
X65379600Y3251200D03*
%TO.P,J2,2,Pin_2*%
%TO.N,2*%
X69342000Y3251200D03*
%TO.P,J2,3,Pin_3*%
%TO.N,3*%
X73304400Y3251200D03*
%TO.P,J2,4,Pin_4*%
%TO.N,4*%
X77266800Y3251200D03*
%TO.P,J2,5,Pin_5*%
%TO.N,5*%
X81229200Y3251200D03*
%TO.P,J2,6,Pin_6*%
%TO.N,6*%
X85191600Y3251200D03*
%TO.P,J2,7,Pin_7*%
%TO.N,7*%
X89154000Y3251200D03*
%TO.P,J2,8,Pin_8*%
%TO.N,8*%
X93116400Y3251200D03*
%TO.P,J2,9,Pin_9*%
%TO.N,9*%
X97078800Y3251200D03*
%TO.P,J2,10,Pin_10*%
%TO.N,10*%
X101041200Y3251200D03*
%TO.P,J2,11,Pin_11*%
%TO.N,11*%
X105003600Y3251200D03*
%TO.P,J2,12,Pin_12*%
%TO.N,12*%
X108966000Y3251200D03*
%TO.P,J2,13,Pin_13*%
%TO.N,13*%
X112928400Y3251200D03*
%TO.P,J2,14,Pin_14*%
%TO.N,14*%
X116890800Y3251200D03*
%TO.P,J2,15,Pin_15*%
%TO.N,15*%
X120853200Y3251200D03*
%TO.P,J2,16,Pin_16*%
%TO.N,16*%
X124815600Y3251200D03*
%TO.P,J2,17,Pin_17*%
%TO.N,17*%
X128778000Y3251200D03*
%TO.P,J2,18,Pin_18*%
%TO.N,18*%
X132740400Y3251200D03*
%TO.P,J2,19,Pin_19*%
%TO.N,19*%
X136702800Y3251200D03*
%TO.P,J2,20,Pin_20*%
%TO.N,20*%
X140665200Y3251200D03*
%TO.P,J2,21,Pin_21*%
%TO.N,21*%
X144627600Y3251200D03*
%TO.P,J2,22,Pin_22*%
%TO.N,22*%
X148590000Y3251200D03*
%TO.P,J2,23,Pin_23*%
%TO.N,23*%
X152552400Y3251200D03*
%TO.P,J2,24,Pin_24*%
%TO.N,24*%
X156514800Y3251200D03*
%TO.P,J2,25,Pin_25*%
%TO.N,25*%
X160477200Y3251200D03*
%TO.P,J2,26,Pin_26*%
%TO.N,26*%
X164439600Y3251200D03*
%TO.P,J2,27,Pin_27*%
%TO.N,27*%
X168402000Y3251200D03*
%TO.P,J2,28,Pin_28*%
%TO.N,28*%
X172364400Y3251200D03*
%TO.P,J2,29,Pin_29*%
%TO.N,29*%
X176326800Y3251200D03*
%TO.P,J2,30,Pin_30*%
%TO.N,30*%
X180289200Y3251200D03*
%TO.P,J2,31,Pin_31*%
%TO.N,31*%
X184251600Y3251200D03*
%TO.P,J2,32,Pin_32*%
%TO.N,32*%
X188214000Y3251200D03*
%TO.P,J2,33,Pin_33*%
%TO.N,33*%
X192176400Y3251200D03*
%TO.P,J2,34,Pin_34*%
%TO.N,34*%
X196138800Y3251200D03*
%TO.P,J2,35,Pin_35*%
%TO.N,35*%
X200101200Y3251200D03*
%TO.P,J2,36,Pin_36*%
%TO.N,36*%
X204063600Y3251200D03*
%TO.P,J2,37,Pin_37*%
%TO.N,37*%
X208026000Y3251200D03*
%TO.P,J2,38,Pin_38*%
%TO.N,38*%
X211988400Y3251200D03*
%TO.P,J2,39,Pin_39*%
%TO.N,39*%
X215950800Y3251200D03*
%TO.P,J2,40,Pin_40*%
%TO.N,40*%
X219913200Y3251200D03*
%TO.P,J2,41,Pin_41*%
%TO.N,41*%
X223875600Y3251200D03*
%TO.P,J2,42,Pin_42*%
%TO.N,42*%
X227838000Y3251200D03*
%TO.P,J2,43,Pin_43*%
%TO.N,43*%
X231800400Y3251200D03*
%TD*%
D13*
%TO.N,1*%
X65379600Y-11887200D03*
%TO.N,2*%
X69342000Y-14859000D03*
%TO.N,3*%
X73304400Y-17335500D03*
%TO.N,4*%
X77266800Y-19812000D03*
%TO.N,5*%
X81229200Y-22288500D03*
%TO.N,6*%
X85191600Y-25260300D03*
%TO.N,7*%
X89154000Y-27736800D03*
%TO.N,8*%
X93116400Y-30213300D03*
%TO.N,9*%
X97078800Y-32689800D03*
%TO.N,10*%
X101041200Y-35166300D03*
%TO.N,11*%
X105003600Y-37642800D03*
%TO.N,12*%
X108966000Y-40119300D03*
%TO.N,13*%
X112928400Y-42595800D03*
%TO.N,14*%
X116890800Y-45072300D03*
%TO.N,15*%
X120853200Y-47548800D03*
%TO.N,16*%
X124815600Y-50025300D03*
%TO.N,17*%
X128778000Y-52997100D03*
%TO.N,18*%
X132740400Y-55473600D03*
%TO.N,19*%
X136702800Y-57950100D03*
%TO.N,20*%
X140665200Y-60426600D03*
%TO.N,21*%
X144627600Y-62903100D03*
%TO.N,22*%
X148590000Y-65379600D03*
%TO.N,23*%
X152552400Y-68351400D03*
%TO.N,24*%
X156514800Y-70827900D03*
%TO.N,25*%
X160477200Y-73304400D03*
%TO.N,26*%
X164439600Y-81724500D03*
%TO.N,27*%
X168402000Y-84201000D03*
%TO.N,28*%
X172364400Y-86677500D03*
%TO.N,29*%
X176326800Y-89154000D03*
%TO.N,30*%
X180289200Y-91630500D03*
%TO.N,31*%
X184251600Y-94107000D03*
%TO.N,32*%
X188214000Y-96583500D03*
%TO.N,33*%
X192176400Y-99555300D03*
%TO.N,34*%
X196138800Y-101536500D03*
%TO.N,35*%
X200101200Y-104013000D03*
%TO.N,36*%
X204063600Y-106489500D03*
%TO.N,37*%
X208026000Y-109461300D03*
%TO.N,38*%
X211988400Y-111937800D03*
%TO.N,39*%
X215950800Y-113919000D03*
%TO.N,40*%
X219913200Y-116890800D03*
%TO.N,41*%
X223875600Y-119367300D03*
%TO.N,42*%
X227838000Y-122339100D03*
%TO.N,43*%
X231800400Y-124815600D03*
%TO.N,A*%
X63398400Y-13373100D03*
X63398400Y-332841600D03*
X63398400Y-5943600D03*
%TO.N,B*%
X67360800Y-5943600D03*
X67360800Y-15849600D03*
X67360800Y-336804000D03*
%TO.N,C*%
X71323200Y-18326100D03*
X71323200Y-336804000D03*
X71323200Y-5943600D03*
%TO.N,D*%
X75285600Y-5943600D03*
X75285600Y-20802600D03*
X75285600Y-336804000D03*
%TO.N,E*%
X79248000Y-23279100D03*
X79248000Y-5943600D03*
X79248000Y-336804000D03*
%TO.N,F*%
X83210400Y-5943600D03*
X83210400Y-26250900D03*
X83210400Y-336804000D03*
%TO.N,H*%
X87172800Y-28727400D03*
X87172800Y-336804000D03*
X87172800Y-5943600D03*
%TO.N,J*%
X91135200Y-5943600D03*
X91135200Y-336804000D03*
X91135200Y-31203900D03*
%TO.N,K*%
X95097600Y-336804000D03*
X95097600Y-5943600D03*
X95097600Y-33680400D03*
%TO.N,L*%
X99060000Y-5943600D03*
X99060000Y-336804000D03*
X99060000Y-36156900D03*
%TO.N,M*%
X103022400Y-336804000D03*
X103022400Y-5943600D03*
X103022400Y-38633400D03*
%TO.N,N*%
X106984800Y-336804000D03*
X106984800Y-5943600D03*
X106984800Y-41109900D03*
%TO.N,P*%
X110947200Y-336804000D03*
X110947200Y-5943600D03*
X110947200Y-43586400D03*
%TO.N,R*%
X114909600Y-46062900D03*
X114909600Y-336804000D03*
X114909600Y-5943600D03*
%TO.N,S*%
X118872000Y-5943600D03*
X118872000Y-336804000D03*
X118872000Y-48539400D03*
%TO.N,T*%
X122834400Y-5943600D03*
X122834400Y-51015900D03*
X122834400Y-336804000D03*
%TO.N,U*%
X126796800Y-53987700D03*
X126796800Y-5943600D03*
X126796800Y-336804000D03*
%TO.N,V*%
X130759200Y-56464200D03*
X130759200Y-336804000D03*
X130759200Y-5943600D03*
%TO.N,W*%
X134721600Y-5943600D03*
X134721600Y-336804000D03*
X134721600Y-58940700D03*
%TO.N,X*%
X138684000Y-61417200D03*
X138684000Y-5943600D03*
X138684000Y-336804000D03*
%TO.N,Y*%
X142646400Y-63893700D03*
X142646400Y-5943600D03*
X142646400Y-336804000D03*
%TO.N,Z*%
X146608800Y-66370200D03*
X146608800Y-336804000D03*
X146608800Y-5943600D03*
%TO.N,a*%
X150571200Y-336804000D03*
X150571200Y-5943600D03*
X150571200Y-69342000D03*
%TO.N,b*%
X154533600Y-71818500D03*
X154533600Y-5943600D03*
X154533600Y-336804000D03*
%TO.N,c*%
X158496000Y-74295000D03*
X158496000Y-5943600D03*
X158496000Y-336804000D03*
%TO.N,d*%
X162458400Y-82715100D03*
X162458400Y-336804000D03*
X162458400Y-5943600D03*
%TO.N,e*%
X166420800Y-5943600D03*
X166420800Y-336804000D03*
X166420800Y-85191600D03*
%TO.N,f*%
X170383200Y-87668100D03*
X170383200Y-5943600D03*
X170383200Y-336804000D03*
%TO.N,h*%
X174345600Y-90144600D03*
X174345600Y-5943600D03*
X174345600Y-336804000D03*
%TO.N,j*%
X178308000Y-5943600D03*
X178308000Y-92621100D03*
X178308000Y-336804000D03*
%TO.N,k*%
X182270400Y-5943600D03*
X182270400Y-336804000D03*
X182270400Y-95097600D03*
%TO.N,l*%
X186232800Y-336804000D03*
X186232800Y-5943600D03*
X186232800Y-97574100D03*
%TO.N,m*%
X190195200Y-5943600D03*
X190195200Y-336804000D03*
X190195200Y-100545900D03*
%TO.N,n*%
X194157600Y-103022400D03*
X194157600Y-5943600D03*
X194157600Y-336804000D03*
%TO.N,p*%
X198120000Y-5943600D03*
X198120000Y-336804000D03*
X198120000Y-105003600D03*
%TO.N,r*%
X202082400Y-5943600D03*
X202082400Y-336804000D03*
X202082400Y-107480100D03*
%TO.N,s*%
X206044800Y-336804000D03*
X206044800Y-5943600D03*
X206044800Y-110451900D03*
%TO.N,t*%
X210007200Y-112928400D03*
X210007200Y-5943600D03*
X210007200Y-336804000D03*
%TO.N,u*%
X213969600Y-114909600D03*
X213969600Y-336804000D03*
X213969600Y-5943600D03*
%TO.N,v*%
X217932000Y-5943600D03*
X217932000Y-117881400D03*
X217932000Y-336804000D03*
%TO.N,w*%
X221894400Y-120357900D03*
X221894400Y-5943600D03*
X221894400Y-336804000D03*
%TO.N,x*%
X225856800Y-336804000D03*
X225856800Y-123329700D03*
X225856800Y-5943600D03*
%TO.N,y*%
X229819200Y-125806200D03*
X229819200Y-5943600D03*
X229819200Y-336804000D03*
%TD*%
D14*
%TO.N,1*%
X65379600Y3251200D02*
X65379600Y-344728800D01*
%TO.N,2*%
X69342000Y-344728800D02*
X69342000Y3251200D01*
%TO.N,3*%
X73304400Y3251200D02*
X73304400Y-344728800D01*
%TO.N,4*%
X77266800Y-344728800D02*
X77266800Y3251200D01*
%TO.N,5*%
X81229200Y-344728800D02*
X81229200Y3251200D01*
%TO.N,6*%
X85191600Y3251200D02*
X85191600Y-25260300D01*
X85191600Y-25260300D02*
X85191600Y-344728800D01*
%TO.N,7*%
X89154000Y-27736800D02*
X89154000Y3251200D01*
X89154000Y-344728800D02*
X89154000Y-27736800D01*
%TO.N,8*%
X93116400Y-30213300D02*
X93116400Y-344728800D01*
X93116400Y3251200D02*
X93116400Y-30213300D01*
%TO.N,9*%
X97078800Y-344728800D02*
X97078800Y3251200D01*
%TO.N,10*%
X101041200Y3251200D02*
X101041200Y-344728800D01*
%TO.N,11*%
X105003600Y-344728800D02*
X105003600Y3251200D01*
%TO.N,12*%
X108966000Y3251200D02*
X108966000Y-344728800D01*
%TO.N,13*%
X112928400Y-344728800D02*
X112928400Y3251200D01*
%TO.N,14*%
X116890800Y3251200D02*
X116890800Y-344728800D01*
%TO.N,15*%
X120853200Y-344728800D02*
X120853200Y3251200D01*
%TO.N,16*%
X124815600Y3251200D02*
X124815600Y-344728800D01*
%TO.N,17*%
X128778000Y-344728800D02*
X128778000Y3251200D01*
%TO.N,18*%
X132740400Y3251200D02*
X132740400Y-344728800D01*
%TO.N,19*%
X136702800Y-344728800D02*
X136702800Y3251200D01*
%TO.N,20*%
X140665200Y-344728800D02*
X140665200Y3251200D01*
%TO.N,21*%
X144627600Y3251200D02*
X144627600Y-344728800D01*
%TO.N,22*%
X148590000Y-344728800D02*
X148590000Y3251200D01*
%TO.N,23*%
X152552400Y-68351400D02*
X152552400Y-344728800D01*
X152552400Y3251200D02*
X152552400Y-68351400D01*
%TO.N,24*%
X156514800Y-344728800D02*
X156514800Y3251200D01*
%TO.N,25*%
X160477200Y3251200D02*
X160477200Y-344728800D01*
%TO.N,26*%
X164439600Y-81724500D02*
X164439600Y3251200D01*
X164439600Y-344728800D02*
X164439600Y-81724500D01*
%TO.N,27*%
X168402000Y3251200D02*
X168402000Y-344728800D01*
%TO.N,28*%
X172364400Y-344728800D02*
X172364400Y3251200D01*
%TO.N,29*%
X176326800Y3251200D02*
X176326800Y-344728800D01*
%TO.N,30*%
X180289200Y-344728800D02*
X180289200Y3251200D01*
%TO.N,31*%
X184251600Y-344728800D02*
X184251600Y3251200D01*
%TO.N,32*%
X188214000Y-344728800D02*
X188214000Y3251200D01*
%TO.N,33*%
X192176400Y-344728800D02*
X192176400Y3251200D01*
%TO.N,34*%
X196138800Y-344728800D02*
X196138800Y3251200D01*
%TO.N,35*%
X200101200Y3251200D02*
X200101200Y-344728800D01*
%TO.N,36*%
X204063600Y-344728800D02*
X204063600Y3251200D01*
%TO.N,37*%
X208026000Y3251200D02*
X208026000Y-344728800D01*
%TO.N,38*%
X211988400Y-344728800D02*
X211988400Y3251200D01*
%TO.N,39*%
X215950800Y3251200D02*
X215950800Y-344728800D01*
%TO.N,40*%
X219913200Y3251200D02*
X219913200Y-344728800D01*
%TO.N,41*%
X223875600Y-344728800D02*
X223875600Y3251200D01*
%TO.N,42*%
X227838000Y3251200D02*
X227838000Y-344728800D01*
%TO.N,43*%
X231800400Y-344728800D02*
X231800400Y3251200D01*
%TO.N,A*%
X63398400Y-332841600D02*
X63398400Y-5943600D01*
%TO.N,B*%
X67360800Y-336804000D02*
X67360800Y-5943600D01*
%TO.N,C*%
X71323200Y-336804000D02*
X71323200Y-5943600D01*
%TO.N,D*%
X75285600Y-336804000D02*
X75285600Y-5943600D01*
%TO.N,E*%
X79248000Y-336804000D02*
X79248000Y-5943600D01*
%TO.N,F*%
X83210400Y-336804000D02*
X83210400Y-5943600D01*
%TO.N,H*%
X87172800Y-336804000D02*
X87172800Y-5943600D01*
%TO.N,J*%
X91135200Y-336804000D02*
X91135200Y-5943600D01*
%TO.N,K*%
X95097600Y-336804000D02*
X95097600Y-5943600D01*
%TO.N,L*%
X99060000Y-336804000D02*
X99060000Y-5943600D01*
%TO.N,M*%
X103022400Y-336804000D02*
X103022400Y-5943600D01*
%TO.N,N*%
X106984800Y-336804000D02*
X106984800Y-5943600D01*
%TO.N,P*%
X110947200Y-336804000D02*
X110947200Y-5943600D01*
%TO.N,R*%
X114909600Y-336804000D02*
X114909600Y-5943600D01*
%TO.N,S*%
X118872000Y-336804000D02*
X118872000Y-5943600D01*
%TO.N,T*%
X122834400Y-336804000D02*
X122834400Y-5943600D01*
%TO.N,U*%
X126796800Y-336804000D02*
X126796800Y-5943600D01*
%TO.N,V*%
X130759200Y-336804000D02*
X130759200Y-5943600D01*
%TO.N,W*%
X134721600Y-336804000D02*
X134721600Y-5943600D01*
%TO.N,X*%
X138684000Y-336804000D02*
X138684000Y-5943600D01*
%TO.N,Y*%
X142646400Y-336804000D02*
X142646400Y-5943600D01*
%TO.N,Z*%
X146608800Y-336804000D02*
X146608800Y-5943600D01*
%TO.N,a*%
X150571200Y-336804000D02*
X150571200Y-5943600D01*
%TO.N,b*%
X154533600Y-336804000D02*
X154533600Y-5943600D01*
%TO.N,c*%
X158496000Y-336804000D02*
X158496000Y-5943600D01*
%TO.N,d*%
X162458400Y-336804000D02*
X162458400Y-5943600D01*
%TO.N,e*%
X166420800Y-336804000D02*
X166420800Y-5943600D01*
%TO.N,f*%
X170383200Y-336804000D02*
X170383200Y-5943600D01*
%TO.N,h*%
X174345600Y-336804000D02*
X174345600Y-5943600D01*
%TO.N,j*%
X178308000Y-336804000D02*
X178308000Y-5943600D01*
%TO.N,k*%
X182270400Y-336804000D02*
X182270400Y-5943600D01*
%TO.N,l*%
X186232800Y-336804000D02*
X186232800Y-5943600D01*
%TO.N,m*%
X190195200Y-336804000D02*
X190195200Y-5943600D01*
%TO.N,n*%
X194157600Y-336804000D02*
X194157600Y-5943600D01*
%TO.N,p*%
X198120000Y-336804000D02*
X198120000Y-5943600D01*
%TO.N,r*%
X202082400Y-336804000D02*
X202082400Y-5943600D01*
%TO.N,s*%
X206044800Y-336804000D02*
X206044800Y-5943600D01*
%TO.N,t*%
X210007200Y-336804000D02*
X210007200Y-9906000D01*
X210007200Y-9906000D02*
X210007200Y-5943600D01*
%TO.N,u*%
X213969600Y-336804000D02*
X213969600Y-5943600D01*
%TO.N,v*%
X217932000Y-336804000D02*
X217932000Y-5943600D01*
%TO.N,w*%
X221894400Y-336804000D02*
X221894400Y-5943600D01*
%TO.N,x*%
X225856800Y-336804000D02*
X225856800Y-5943600D01*
%TO.N,y*%
X229819200Y-336804000D02*
X229819200Y-5943600D01*
%TD*%
M02*
