%TF.GenerationSoftware,KiCad,Pcbnew,7.0.1*%
%TF.CreationDate,2024-03-02T20:17:55-05:00*%
%TF.ProjectId,SEM card breakout,53454d20-6361-4726-9420-627265616b6f,rev?*%
%TF.SameCoordinates,Original*%
%TF.FileFunction,Soldermask,Top*%
%TF.FilePolarity,Negative*%
%FSLAX46Y46*%
G04 Gerber Fmt 4.6, Leading zero omitted, Abs format (unit mm)*
G04 Created by KiCad (PCBNEW 7.0.1) date 2024-03-02 20:17:55*
%MOMM*%
%LPD*%
G01*
G04 APERTURE LIST*
G04 Aperture macros list*
%AMRoundRect*
0 Rectangle with rounded corners*
0 $1 Rounding radius*
0 $2 $3 $4 $5 $6 $7 $8 $9 X,Y pos of 4 corners*
0 Add a 4 corners polygon primitive as box body*
4,1,4,$2,$3,$4,$5,$6,$7,$8,$9,$2,$3,0*
0 Add four circle primitives for the rounded corners*
1,1,$1+$1,$2,$3*
1,1,$1+$1,$4,$5*
1,1,$1+$1,$6,$7*
1,1,$1+$1,$8,$9*
0 Add four rect primitives between the rounded corners*
20,1,$1+$1,$2,$3,$4,$5,0*
20,1,$1+$1,$4,$5,$6,$7,0*
20,1,$1+$1,$6,$7,$8,$9,0*
20,1,$1+$1,$8,$9,$2,$3,0*%
G04 Aperture macros list end*
%ADD10RoundRect,0.635000X-0.635000X-5.715000X0.635000X-5.715000X0.635000X5.715000X-0.635000X5.715000X0*%
%ADD11R,1.700000X1.700000*%
%ADD12O,1.700000X1.700000*%
%ADD13C,0.800000*%
G04 APERTURE END LIST*
D10*
%TO.C,J1*%
X65379600Y-344728800D03*
X69342000Y-344728800D03*
X73304400Y-344728800D03*
X77266800Y-344728800D03*
X81229200Y-344728800D03*
X85191600Y-344728800D03*
X89154000Y-344728800D03*
X93116400Y-344728800D03*
X97078800Y-344728800D03*
X101041200Y-344728800D03*
X105003600Y-344728800D03*
X108966000Y-344728800D03*
X112928400Y-344728800D03*
X116890800Y-344728800D03*
X120853200Y-344728800D03*
X124815600Y-344728800D03*
X128778000Y-344728800D03*
X132740400Y-344728800D03*
X136702800Y-344728800D03*
X140665200Y-344728800D03*
X144627600Y-344728800D03*
X148590000Y-344728800D03*
X152552400Y-344728800D03*
X156514800Y-344728800D03*
X160477200Y-344728800D03*
X164439600Y-344728800D03*
X168402000Y-344728800D03*
X172364400Y-344728800D03*
X176326800Y-344728800D03*
X180289200Y-344728800D03*
X184251600Y-344728800D03*
X188214000Y-344728800D03*
X192176400Y-344728800D03*
X196138800Y-344728800D03*
X200101200Y-344728800D03*
X204063600Y-344728800D03*
X208026000Y-344728800D03*
X211988400Y-344728800D03*
X215950800Y-344728800D03*
X219913200Y-344728800D03*
X223875600Y-344728800D03*
X227838000Y-344728800D03*
X231800400Y-344728800D03*
%TD*%
D11*
%TO.C,J4*%
X25755600Y-83210400D03*
D12*
X28295600Y-83210400D03*
X25755600Y-85750400D03*
X28295600Y-85750400D03*
X25755600Y-88290400D03*
X28295600Y-88290400D03*
X25755600Y-90830400D03*
X28295600Y-90830400D03*
X25755600Y-93370400D03*
X28295600Y-93370400D03*
X25755600Y-95910400D03*
X28295600Y-95910400D03*
X25755600Y-98450400D03*
X28295600Y-98450400D03*
X25755600Y-100990400D03*
X28295600Y-100990400D03*
X25755600Y-103530400D03*
X28295600Y-103530400D03*
X25755600Y-106070400D03*
X28295600Y-106070400D03*
X25755600Y-108610400D03*
X28295600Y-108610400D03*
X25755600Y-111150400D03*
X28295600Y-111150400D03*
X25755600Y-113690400D03*
X28295600Y-113690400D03*
X25755600Y-116230400D03*
X28295600Y-116230400D03*
X25755600Y-118770400D03*
X28295600Y-118770400D03*
X25755600Y-121310400D03*
X28295600Y-121310400D03*
X25755600Y-123850400D03*
X28295600Y-123850400D03*
X25755600Y-126390400D03*
X28295600Y-126390400D03*
X25755600Y-128930400D03*
X28295600Y-128930400D03*
X25755600Y-131470400D03*
X28295600Y-131470400D03*
X25755600Y-134010400D03*
X28295600Y-134010400D03*
X25755600Y-136550400D03*
X28295600Y-136550400D03*
X25755600Y-139090400D03*
X28295600Y-139090400D03*
X25755600Y-141630400D03*
X28295600Y-141630400D03*
X25755600Y-144170400D03*
X28295600Y-144170400D03*
%TD*%
D11*
%TO.C,J3*%
X25921600Y-13868400D03*
D12*
X28461600Y-13868400D03*
X25921600Y-16408400D03*
X28461600Y-16408400D03*
X25921600Y-18948400D03*
X28461600Y-18948400D03*
X25921600Y-21488400D03*
X28461600Y-21488400D03*
X25921600Y-24028400D03*
X28461600Y-24028400D03*
X25921600Y-26568400D03*
X28461600Y-26568400D03*
X25921600Y-29108400D03*
X28461600Y-29108400D03*
X25921600Y-31648400D03*
X28461600Y-31648400D03*
X25921600Y-34188400D03*
X28461600Y-34188400D03*
X25921600Y-36728400D03*
X28461600Y-36728400D03*
X25921600Y-39268400D03*
X28461600Y-39268400D03*
X25921600Y-41808400D03*
X28461600Y-41808400D03*
X25921600Y-44348400D03*
X28461600Y-44348400D03*
X25921600Y-46888400D03*
X28461600Y-46888400D03*
X25921600Y-49428400D03*
X28461600Y-49428400D03*
X25921600Y-51968400D03*
X28461600Y-51968400D03*
X25921600Y-54508400D03*
X28461600Y-54508400D03*
X25921600Y-57048400D03*
X28461600Y-57048400D03*
X25921600Y-59588400D03*
X28461600Y-59588400D03*
X25921600Y-62128400D03*
X28461600Y-62128400D03*
X25921600Y-64668400D03*
X28461600Y-64668400D03*
X25921600Y-67208400D03*
X28461600Y-67208400D03*
X25921600Y-69748400D03*
X28461600Y-69748400D03*
X25921600Y-72288400D03*
X28461600Y-72288400D03*
X25921600Y-74828400D03*
X28461600Y-74828400D03*
%TD*%
D10*
%TO.C,J2*%
X65379600Y3251200D03*
X69342000Y3251200D03*
X73304400Y3251200D03*
X77266800Y3251200D03*
X81229200Y3251200D03*
X85191600Y3251200D03*
X89154000Y3251200D03*
X93116400Y3251200D03*
X97078800Y3251200D03*
X101041200Y3251200D03*
X105003600Y3251200D03*
X108966000Y3251200D03*
X112928400Y3251200D03*
X116890800Y3251200D03*
X120853200Y3251200D03*
X124815600Y3251200D03*
X128778000Y3251200D03*
X132740400Y3251200D03*
X136702800Y3251200D03*
X140665200Y3251200D03*
X144627600Y3251200D03*
X148590000Y3251200D03*
X152552400Y3251200D03*
X156514800Y3251200D03*
X160477200Y3251200D03*
X164439600Y3251200D03*
X168402000Y3251200D03*
X172364400Y3251200D03*
X176326800Y3251200D03*
X180289200Y3251200D03*
X184251600Y3251200D03*
X188214000Y3251200D03*
X192176400Y3251200D03*
X196138800Y3251200D03*
X200101200Y3251200D03*
X204063600Y3251200D03*
X208026000Y3251200D03*
X211988400Y3251200D03*
X215950800Y3251200D03*
X219913200Y3251200D03*
X223875600Y3251200D03*
X227838000Y3251200D03*
X231800400Y3251200D03*
%TD*%
D13*
X65379600Y-11887200D03*
X69342000Y-14859000D03*
X73304400Y-17335500D03*
X77266800Y-19812000D03*
X81229200Y-22288500D03*
X85191600Y-25260300D03*
X89154000Y-27736800D03*
X93116400Y-30213300D03*
X97078800Y-32689800D03*
X101041200Y-35166300D03*
X105003600Y-37642800D03*
X108966000Y-40119300D03*
X112928400Y-42595800D03*
X116890800Y-45072300D03*
X120853200Y-47548800D03*
X124815600Y-50025300D03*
X128778000Y-52997100D03*
X132740400Y-55473600D03*
X136702800Y-57950100D03*
X140665200Y-60426600D03*
X144627600Y-62903100D03*
X148590000Y-65379600D03*
X152552400Y-68351400D03*
X156514800Y-70827900D03*
X160477200Y-73304400D03*
X164439600Y-81724500D03*
X168402000Y-84201000D03*
X172364400Y-86677500D03*
X176326800Y-89154000D03*
X180289200Y-91630500D03*
X184251600Y-94107000D03*
X188214000Y-96583500D03*
X192176400Y-99555300D03*
X196138800Y-101536500D03*
X200101200Y-104013000D03*
X204063600Y-106489500D03*
X208026000Y-109461300D03*
X211988400Y-111937800D03*
X215950800Y-113919000D03*
X219913200Y-116890800D03*
X223875600Y-119367300D03*
X227838000Y-122339100D03*
X231800400Y-124815600D03*
X63398400Y-13373100D03*
X63398400Y-332841600D03*
X63398400Y-5943600D03*
X67360800Y-5943600D03*
X67360800Y-15849600D03*
X67360800Y-336804000D03*
X71323200Y-18326100D03*
X71323200Y-336804000D03*
X71323200Y-5943600D03*
X75285600Y-5943600D03*
X75285600Y-20802600D03*
X75285600Y-336804000D03*
X79248000Y-23279100D03*
X79248000Y-5943600D03*
X79248000Y-336804000D03*
X83210400Y-5943600D03*
X83210400Y-26250900D03*
X83210400Y-336804000D03*
X87172800Y-28727400D03*
X87172800Y-336804000D03*
X87172800Y-5943600D03*
X91135200Y-5943600D03*
X91135200Y-336804000D03*
X91135200Y-31203900D03*
X95097600Y-336804000D03*
X95097600Y-5943600D03*
X95097600Y-33680400D03*
X99060000Y-5943600D03*
X99060000Y-336804000D03*
X99060000Y-36156900D03*
X103022400Y-336804000D03*
X103022400Y-5943600D03*
X103022400Y-38633400D03*
X106984800Y-336804000D03*
X106984800Y-5943600D03*
X106984800Y-41109900D03*
X110947200Y-336804000D03*
X110947200Y-5943600D03*
X110947200Y-43586400D03*
X114909600Y-46062900D03*
X114909600Y-336804000D03*
X114909600Y-5943600D03*
X118872000Y-5943600D03*
X118872000Y-336804000D03*
X118872000Y-48539400D03*
X122834400Y-5943600D03*
X122834400Y-51015900D03*
X122834400Y-336804000D03*
X126796800Y-53987700D03*
X126796800Y-5943600D03*
X126796800Y-336804000D03*
X130759200Y-56464200D03*
X130759200Y-336804000D03*
X130759200Y-5943600D03*
X134721600Y-5943600D03*
X134721600Y-336804000D03*
X134721600Y-58940700D03*
X138684000Y-61417200D03*
X138684000Y-5943600D03*
X138684000Y-336804000D03*
X142646400Y-63893700D03*
X142646400Y-5943600D03*
X142646400Y-336804000D03*
X146608800Y-66370200D03*
X146608800Y-336804000D03*
X146608800Y-5943600D03*
X150571200Y-336804000D03*
X150571200Y-5943600D03*
X150571200Y-69342000D03*
X154533600Y-71818500D03*
X154533600Y-5943600D03*
X154533600Y-336804000D03*
X158496000Y-74295000D03*
X158496000Y-5943600D03*
X158496000Y-336804000D03*
X162458400Y-82715100D03*
X162458400Y-336804000D03*
X162458400Y-5943600D03*
X166420800Y-5943600D03*
X166420800Y-336804000D03*
X166420800Y-85191600D03*
X170383200Y-87668100D03*
X170383200Y-5943600D03*
X170383200Y-336804000D03*
X174345600Y-90144600D03*
X174345600Y-5943600D03*
X174345600Y-336804000D03*
X178308000Y-5943600D03*
X178308000Y-92621100D03*
X178308000Y-336804000D03*
X182270400Y-5943600D03*
X182270400Y-336804000D03*
X182270400Y-95097600D03*
X186232800Y-336804000D03*
X186232800Y-5943600D03*
X186232800Y-97574100D03*
X190195200Y-5943600D03*
X190195200Y-336804000D03*
X190195200Y-100545900D03*
X194157600Y-103022400D03*
X194157600Y-5943600D03*
X194157600Y-336804000D03*
X198120000Y-5943600D03*
X198120000Y-336804000D03*
X198120000Y-105003600D03*
X202082400Y-5943600D03*
X202082400Y-336804000D03*
X202082400Y-107480100D03*
X206044800Y-336804000D03*
X206044800Y-5943600D03*
X206044800Y-110451900D03*
X210007200Y-112928400D03*
X210007200Y-5943600D03*
X210007200Y-336804000D03*
X213969600Y-114909600D03*
X213969600Y-336804000D03*
X213969600Y-5943600D03*
X217932000Y-5943600D03*
X217932000Y-117881400D03*
X217932000Y-336804000D03*
X221894400Y-120357900D03*
X221894400Y-5943600D03*
X221894400Y-336804000D03*
X225856800Y-336804000D03*
X225856800Y-123329700D03*
X225856800Y-5943600D03*
X229819200Y-125806200D03*
X229819200Y-5943600D03*
X229819200Y-336804000D03*
M02*
