%TF.GenerationSoftware,KiCad,Pcbnew,7.0.1*%
%TF.CreationDate,2024-03-03T21:16:02-05:00*%
%TF.ProjectId,SEM card breakout,53454d20-6361-4726-9420-627265616b6f,rev?*%
%TF.SameCoordinates,Original*%
%TF.FileFunction,Copper,L2,Bot*%
%TF.FilePolarity,Positive*%
%FSLAX46Y46*%
G04 Gerber Fmt 4.6, Leading zero omitted, Abs format (unit mm)*
G04 Created by KiCad (PCBNEW 7.0.1) date 2024-03-03 21:16:02*
%MOMM*%
%LPD*%
G01*
G04 APERTURE LIST*
G04 Aperture macros list*
%AMRoundRect*
0 Rectangle with rounded corners*
0 $1 Rounding radius*
0 $2 $3 $4 $5 $6 $7 $8 $9 X,Y pos of 4 corners*
0 Add a 4 corners polygon primitive as box body*
4,1,4,$2,$3,$4,$5,$6,$7,$8,$9,$2,$3,0*
0 Add four circle primitives for the rounded corners*
1,1,$1+$1,$2,$3*
1,1,$1+$1,$4,$5*
1,1,$1+$1,$6,$7*
1,1,$1+$1,$8,$9*
0 Add four rect primitives between the rounded corners*
20,1,$1+$1,$2,$3,$4,$5,0*
20,1,$1+$1,$4,$5,$6,$7,0*
20,1,$1+$1,$6,$7,$8,$9,0*
20,1,$1+$1,$8,$9,$2,$3,0*%
G04 Aperture macros list end*
%TA.AperFunction,ConnectorPad*%
%ADD10RoundRect,0.635000X-0.635000X-5.715000X0.635000X-5.715000X0.635000X5.715000X-0.635000X5.715000X0*%
%TD*%
%TA.AperFunction,ComponentPad*%
%ADD11R,1.700000X1.700000*%
%TD*%
%TA.AperFunction,ComponentPad*%
%ADD12O,1.700000X1.700000*%
%TD*%
%TA.AperFunction,ViaPad*%
%ADD13C,0.800000*%
%TD*%
%TA.AperFunction,Conductor*%
%ADD14C,0.400000*%
%TD*%
%TA.AperFunction,Conductor*%
%ADD15C,1.500000*%
%TD*%
G04 APERTURE END LIST*
D10*
%TO.P,J1,A,Pin_A*%
%TO.N,A*%
X73879600Y-344728800D03*
%TO.P,J1,B,Pin_B*%
%TO.N,B*%
X77842000Y-344728800D03*
%TO.P,J1,C,Pin_C*%
%TO.N,C*%
X81804400Y-344728800D03*
%TO.P,J1,D,Pin_D*%
%TO.N,D*%
X85766800Y-344728800D03*
%TO.P,J1,E,Pin_E*%
%TO.N,E*%
X89729200Y-344728800D03*
%TO.P,J1,F,Pin_F*%
%TO.N,F*%
X93691600Y-344728800D03*
%TO.P,J1,H,Pin_H*%
%TO.N,H*%
X97654000Y-344728800D03*
%TO.P,J1,J,Pin_J*%
%TO.N,J*%
X101616400Y-344728800D03*
%TO.P,J1,K,Pin_K*%
%TO.N,K*%
X105578800Y-344728800D03*
%TO.P,J1,L,Pin_L*%
%TO.N,L*%
X109541200Y-344728800D03*
%TO.P,J1,M,Pin_M*%
%TO.N,M*%
X113503600Y-344728800D03*
%TO.P,J1,N,Pin_N*%
%TO.N,N*%
X117466000Y-344728800D03*
%TO.P,J1,P,Pin_P*%
%TO.N,P*%
X121428400Y-344728800D03*
%TO.P,J1,R,Pin_R*%
%TO.N,R*%
X125390800Y-344728800D03*
%TO.P,J1,S,Pin_S*%
%TO.N,S*%
X129353200Y-344728800D03*
%TO.P,J1,T,Pin_T*%
%TO.N,T*%
X133315600Y-344728800D03*
%TO.P,J1,U,Pin_U*%
%TO.N,U*%
X137278000Y-344728800D03*
%TO.P,J1,V,Pin_V*%
%TO.N,V*%
X141240400Y-344728800D03*
%TO.P,J1,W,Pin_W*%
%TO.N,W*%
X145202800Y-344728800D03*
%TO.P,J1,X,Pin_X*%
%TO.N,X*%
X149165200Y-344728800D03*
%TO.P,J1,Y,Pin_Y*%
%TO.N,Y*%
X153127600Y-344728800D03*
%TO.P,J1,Z,Pin_Z*%
%TO.N,Z*%
X157090000Y-344728800D03*
%TO.P,J1,a,Pin_a*%
%TO.N,a*%
X161052400Y-344728800D03*
%TO.P,J1,b,Pin_b*%
%TO.N,b*%
X165014800Y-344728800D03*
%TO.P,J1,c,Pin_c*%
%TO.N,c*%
X168977200Y-344728800D03*
%TO.P,J1,d,Pin_d*%
%TO.N,d*%
X172939600Y-344728800D03*
%TO.P,J1,e,Pin_e*%
%TO.N,e*%
X176902000Y-344728800D03*
%TO.P,J1,f,Pin_f*%
%TO.N,f*%
X180864400Y-344728800D03*
%TO.P,J1,h,Pin_h*%
%TO.N,h*%
X184826800Y-344728800D03*
%TO.P,J1,j,Pin_j*%
%TO.N,j*%
X188789200Y-344728800D03*
%TO.P,J1,k,Pin_k*%
%TO.N,k*%
X192751600Y-344728800D03*
%TO.P,J1,l,Pin_l*%
%TO.N,l*%
X196714000Y-344728800D03*
%TO.P,J1,m,Pin_m*%
%TO.N,m*%
X200676400Y-344728800D03*
%TO.P,J1,n,Pin_n*%
%TO.N,n*%
X204638800Y-344728800D03*
%TO.P,J1,p,Pin_p*%
%TO.N,p*%
X208601200Y-344728800D03*
%TO.P,J1,r,Pin_r*%
%TO.N,r*%
X212563600Y-344728800D03*
%TO.P,J1,s,Pin_s*%
%TO.N,s*%
X216526000Y-344728800D03*
%TO.P,J1,t,Pin_t*%
%TO.N,t*%
X220488400Y-344728800D03*
%TO.P,J1,u,Pin_u*%
%TO.N,u*%
X224450800Y-344728800D03*
%TO.P,J1,v,Pin_v*%
%TO.N,v*%
X228413200Y-344728800D03*
%TO.P,J1,w,Pin_w*%
%TO.N,w*%
X232375600Y-344728800D03*
%TO.P,J1,x,Pin_x*%
%TO.N,x*%
X236338000Y-344728800D03*
%TO.P,J1,y,Pin_y*%
%TO.N,y*%
X240300400Y-344728800D03*
%TD*%
D11*
%TO.P,J4,1,Pin_1*%
%TO.N,26*%
X34255600Y-83210400D03*
D12*
%TO.P,J4,2,Pin_2*%
%TO.N,d*%
X36795600Y-83210400D03*
%TO.P,J4,3,Pin_3*%
%TO.N,27*%
X34255600Y-85750400D03*
%TO.P,J4,4,Pin_4*%
%TO.N,e*%
X36795600Y-85750400D03*
%TO.P,J4,5,Pin_5*%
%TO.N,28*%
X34255600Y-88290400D03*
%TO.P,J4,6,Pin_6*%
%TO.N,f*%
X36795600Y-88290400D03*
%TO.P,J4,7,Pin_7*%
%TO.N,29*%
X34255600Y-90830400D03*
%TO.P,J4,8,Pin_8*%
%TO.N,h*%
X36795600Y-90830400D03*
%TO.P,J4,9,Pin_9*%
%TO.N,30*%
X34255600Y-93370400D03*
%TO.P,J4,10,Pin_10*%
%TO.N,j*%
X36795600Y-93370400D03*
%TO.P,J4,11,Pin_11*%
%TO.N,31*%
X34255600Y-95910400D03*
%TO.P,J4,12,Pin_12*%
%TO.N,k*%
X36795600Y-95910400D03*
%TO.P,J4,13,Pin_13*%
%TO.N,32*%
X34255600Y-98450400D03*
%TO.P,J4,14,Pin_14*%
%TO.N,l*%
X36795600Y-98450400D03*
%TO.P,J4,15,Pin_15*%
%TO.N,33*%
X34255600Y-100990400D03*
%TO.P,J4,16,Pin_16*%
%TO.N,m*%
X36795600Y-100990400D03*
%TO.P,J4,17,Pin_17*%
%TO.N,34*%
X34255600Y-103530400D03*
%TO.P,J4,18,Pin_18*%
%TO.N,n*%
X36795600Y-103530400D03*
%TO.P,J4,19,Pin_19*%
%TO.N,35*%
X34255600Y-106070400D03*
%TO.P,J4,20,Pin_20*%
%TO.N,p*%
X36795600Y-106070400D03*
%TO.P,J4,21,Pin_21*%
%TO.N,36*%
X34255600Y-108610400D03*
%TO.P,J4,22,Pin_22*%
%TO.N,r*%
X36795600Y-108610400D03*
%TO.P,J4,23,Pin_23*%
%TO.N,37*%
X34255600Y-111150400D03*
%TO.P,J4,24,Pin_24*%
%TO.N,s*%
X36795600Y-111150400D03*
%TO.P,J4,25,Pin_25*%
%TO.N,38*%
X34255600Y-113690400D03*
%TO.P,J4,26,Pin_26*%
%TO.N,t*%
X36795600Y-113690400D03*
%TO.P,J4,27,Pin_27*%
%TO.N,39*%
X34255600Y-116230400D03*
%TO.P,J4,28,Pin_28*%
%TO.N,u*%
X36795600Y-116230400D03*
%TO.P,J4,29,Pin_29*%
%TO.N,40*%
X34255600Y-118770400D03*
%TO.P,J4,30,Pin_30*%
%TO.N,v*%
X36795600Y-118770400D03*
%TO.P,J4,31,Pin_31*%
%TO.N,41*%
X34255600Y-121310400D03*
%TO.P,J4,32,Pin_32*%
%TO.N,w*%
X36795600Y-121310400D03*
%TO.P,J4,33,Pin_33*%
%TO.N,42*%
X34255600Y-123850400D03*
%TO.P,J4,34,Pin_34*%
%TO.N,x*%
X36795600Y-123850400D03*
%TO.P,J4,35,Pin_35*%
%TO.N,43*%
X34255600Y-126390400D03*
%TO.P,J4,36,Pin_36*%
%TO.N,y*%
X36795600Y-126390400D03*
%TO.P,J4,37,Pin_37*%
%TO.N,unconnected-(J4-Pin_37-Pad37)*%
X34255600Y-128930400D03*
%TO.P,J4,38,Pin_38*%
%TO.N,unconnected-(J4-Pin_38-Pad38)*%
X36795600Y-128930400D03*
%TO.P,J4,39,Pin_39*%
%TO.N,unconnected-(J4-Pin_39-Pad39)*%
X34255600Y-131470400D03*
%TO.P,J4,40,Pin_40*%
%TO.N,unconnected-(J4-Pin_40-Pad40)*%
X36795600Y-131470400D03*
%TO.P,J4,41,Pin_41*%
%TO.N,unconnected-(J4-Pin_41-Pad41)*%
X34255600Y-134010400D03*
%TO.P,J4,42,Pin_42*%
%TO.N,unconnected-(J4-Pin_42-Pad42)*%
X36795600Y-134010400D03*
%TO.P,J4,43,Pin_43*%
%TO.N,unconnected-(J4-Pin_43-Pad43)*%
X34255600Y-136550400D03*
%TO.P,J4,44,Pin_44*%
%TO.N,unconnected-(J4-Pin_44-Pad44)*%
X36795600Y-136550400D03*
%TO.P,J4,45,Pin_45*%
%TO.N,unconnected-(J4-Pin_45-Pad45)*%
X34255600Y-139090400D03*
%TO.P,J4,46,Pin_46*%
%TO.N,unconnected-(J4-Pin_46-Pad46)*%
X36795600Y-139090400D03*
%TO.P,J4,47,Pin_47*%
%TO.N,unconnected-(J4-Pin_47-Pad47)*%
X34255600Y-141630400D03*
%TO.P,J4,48,Pin_48*%
%TO.N,unconnected-(J4-Pin_48-Pad48)*%
X36795600Y-141630400D03*
%TO.P,J4,49,Pin_49*%
%TO.N,unconnected-(J4-Pin_49-Pad49)*%
X34255600Y-144170400D03*
%TO.P,J4,50,Pin_50*%
%TO.N,unconnected-(J4-Pin_50-Pad50)*%
X36795600Y-144170400D03*
%TD*%
D11*
%TO.P,J3,1,Pin_1*%
%TO.N,1*%
X34421600Y-13868400D03*
D12*
%TO.P,J3,2,Pin_2*%
%TO.N,A*%
X36961600Y-13868400D03*
%TO.P,J3,3,Pin_3*%
%TO.N,2*%
X34421600Y-16408400D03*
%TO.P,J3,4,Pin_4*%
%TO.N,B*%
X36961600Y-16408400D03*
%TO.P,J3,5,Pin_5*%
%TO.N,3*%
X34421600Y-18948400D03*
%TO.P,J3,6,Pin_6*%
%TO.N,C*%
X36961600Y-18948400D03*
%TO.P,J3,7,Pin_7*%
%TO.N,4*%
X34421600Y-21488400D03*
%TO.P,J3,8,Pin_8*%
%TO.N,D*%
X36961600Y-21488400D03*
%TO.P,J3,9,Pin_9*%
%TO.N,5*%
X34421600Y-24028400D03*
%TO.P,J3,10,Pin_10*%
%TO.N,E*%
X36961600Y-24028400D03*
%TO.P,J3,11,Pin_11*%
%TO.N,6*%
X34421600Y-26568400D03*
%TO.P,J3,12,Pin_12*%
%TO.N,F*%
X36961600Y-26568400D03*
%TO.P,J3,13,Pin_13*%
%TO.N,7*%
X34421600Y-29108400D03*
%TO.P,J3,14,Pin_14*%
%TO.N,H*%
X36961600Y-29108400D03*
%TO.P,J3,15,Pin_15*%
%TO.N,8*%
X34421600Y-31648400D03*
%TO.P,J3,16,Pin_16*%
%TO.N,J*%
X36961600Y-31648400D03*
%TO.P,J3,17,Pin_17*%
%TO.N,9*%
X34421600Y-34188400D03*
%TO.P,J3,18,Pin_18*%
%TO.N,K*%
X36961600Y-34188400D03*
%TO.P,J3,19,Pin_19*%
%TO.N,10*%
X34421600Y-36728400D03*
%TO.P,J3,20,Pin_20*%
%TO.N,L*%
X36961600Y-36728400D03*
%TO.P,J3,21,Pin_21*%
%TO.N,11*%
X34421600Y-39268400D03*
%TO.P,J3,22,Pin_22*%
%TO.N,M*%
X36961600Y-39268400D03*
%TO.P,J3,23,Pin_23*%
%TO.N,12*%
X34421600Y-41808400D03*
%TO.P,J3,24,Pin_24*%
%TO.N,N*%
X36961600Y-41808400D03*
%TO.P,J3,25,Pin_25*%
%TO.N,13*%
X34421600Y-44348400D03*
%TO.P,J3,26,Pin_26*%
%TO.N,P*%
X36961600Y-44348400D03*
%TO.P,J3,27,Pin_27*%
%TO.N,14*%
X34421600Y-46888400D03*
%TO.P,J3,28,Pin_28*%
%TO.N,R*%
X36961600Y-46888400D03*
%TO.P,J3,29,Pin_29*%
%TO.N,15*%
X34421600Y-49428400D03*
%TO.P,J3,30,Pin_30*%
%TO.N,S*%
X36961600Y-49428400D03*
%TO.P,J3,31,Pin_31*%
%TO.N,16*%
X34421600Y-51968400D03*
%TO.P,J3,32,Pin_32*%
%TO.N,T*%
X36961600Y-51968400D03*
%TO.P,J3,33,Pin_33*%
%TO.N,17*%
X34421600Y-54508400D03*
%TO.P,J3,34,Pin_34*%
%TO.N,U*%
X36961600Y-54508400D03*
%TO.P,J3,35,Pin_35*%
%TO.N,18*%
X34421600Y-57048400D03*
%TO.P,J3,36,Pin_36*%
%TO.N,V*%
X36961600Y-57048400D03*
%TO.P,J3,37,Pin_37*%
%TO.N,19*%
X34421600Y-59588400D03*
%TO.P,J3,38,Pin_38*%
%TO.N,W*%
X36961600Y-59588400D03*
%TO.P,J3,39,Pin_39*%
%TO.N,20*%
X34421600Y-62128400D03*
%TO.P,J3,40,Pin_40*%
%TO.N,X*%
X36961600Y-62128400D03*
%TO.P,J3,41,Pin_41*%
%TO.N,21*%
X34421600Y-64668400D03*
%TO.P,J3,42,Pin_42*%
%TO.N,Y*%
X36961600Y-64668400D03*
%TO.P,J3,43,Pin_43*%
%TO.N,22*%
X34421600Y-67208400D03*
%TO.P,J3,44,Pin_44*%
%TO.N,Z*%
X36961600Y-67208400D03*
%TO.P,J3,45,Pin_45*%
%TO.N,23*%
X34421600Y-69748400D03*
%TO.P,J3,46,Pin_46*%
%TO.N,a*%
X36961600Y-69748400D03*
%TO.P,J3,47,Pin_47*%
%TO.N,24*%
X34421600Y-72288400D03*
%TO.P,J3,48,Pin_48*%
%TO.N,b*%
X36961600Y-72288400D03*
%TO.P,J3,49,Pin_49*%
%TO.N,25*%
X34421600Y-74828400D03*
%TO.P,J3,50,Pin_50*%
%TO.N,c*%
X36961600Y-74828400D03*
%TD*%
D10*
%TO.P,J2,A,Pin_A*%
%TO.N,A*%
X73879600Y3251200D03*
%TO.P,J2,B,Pin_B*%
%TO.N,B*%
X77842000Y3251200D03*
%TO.P,J2,C,Pin_C*%
%TO.N,C*%
X81804400Y3251200D03*
%TO.P,J2,D,Pin_D*%
%TO.N,D*%
X85766800Y3251200D03*
%TO.P,J2,E,Pin_E*%
%TO.N,E*%
X89729200Y3251200D03*
%TO.P,J2,F,Pin_F*%
%TO.N,F*%
X93691600Y3251200D03*
%TO.P,J2,H,Pin_H*%
%TO.N,H*%
X97654000Y3251200D03*
%TO.P,J2,J,Pin_J*%
%TO.N,J*%
X101616400Y3251200D03*
%TO.P,J2,K,Pin_K*%
%TO.N,K*%
X105578800Y3251200D03*
%TO.P,J2,L,Pin_L*%
%TO.N,L*%
X109541200Y3251200D03*
%TO.P,J2,M,Pin_M*%
%TO.N,M*%
X113503600Y3251200D03*
%TO.P,J2,N,Pin_N*%
%TO.N,N*%
X117466000Y3251200D03*
%TO.P,J2,P,Pin_P*%
%TO.N,P*%
X121428400Y3251200D03*
%TO.P,J2,R,Pin_R*%
%TO.N,R*%
X125390800Y3251200D03*
%TO.P,J2,S,Pin_S*%
%TO.N,S*%
X129353200Y3251200D03*
%TO.P,J2,T,Pin_T*%
%TO.N,T*%
X133315600Y3251200D03*
%TO.P,J2,U,Pin_U*%
%TO.N,U*%
X137278000Y3251200D03*
%TO.P,J2,V,Pin_V*%
%TO.N,V*%
X141240400Y3251200D03*
%TO.P,J2,W,Pin_W*%
%TO.N,W*%
X145202800Y3251200D03*
%TO.P,J2,X,Pin_X*%
%TO.N,X*%
X149165200Y3251200D03*
%TO.P,J2,Y,Pin_Y*%
%TO.N,Y*%
X153127600Y3251200D03*
%TO.P,J2,Z,Pin_Z*%
%TO.N,Z*%
X157090000Y3251200D03*
%TO.P,J2,a,Pin_a*%
%TO.N,a*%
X161052400Y3251200D03*
%TO.P,J2,b,Pin_b*%
%TO.N,b*%
X165014800Y3251200D03*
%TO.P,J2,c,Pin_c*%
%TO.N,c*%
X168977200Y3251200D03*
%TO.P,J2,d,Pin_d*%
%TO.N,d*%
X172939600Y3251200D03*
%TO.P,J2,e,Pin_e*%
%TO.N,e*%
X176902000Y3251200D03*
%TO.P,J2,f,Pin_f*%
%TO.N,f*%
X180864400Y3251200D03*
%TO.P,J2,h,Pin_h*%
%TO.N,h*%
X184826800Y3251200D03*
%TO.P,J2,j,Pin_j*%
%TO.N,j*%
X188789200Y3251200D03*
%TO.P,J2,k,Pin_k*%
%TO.N,k*%
X192751600Y3251200D03*
%TO.P,J2,l,Pin_l*%
%TO.N,l*%
X196714000Y3251200D03*
%TO.P,J2,m,Pin_m*%
%TO.N,m*%
X200676400Y3251200D03*
%TO.P,J2,n,Pin_n*%
%TO.N,n*%
X204638800Y3251200D03*
%TO.P,J2,p,Pin_p*%
%TO.N,p*%
X208601200Y3251200D03*
%TO.P,J2,r,Pin_r*%
%TO.N,r*%
X212563600Y3251200D03*
%TO.P,J2,s,Pin_s*%
%TO.N,s*%
X216526000Y3251200D03*
%TO.P,J2,t,Pin_t*%
%TO.N,t*%
X220488400Y3251200D03*
%TO.P,J2,u,Pin_u*%
%TO.N,u*%
X224450800Y3251200D03*
%TO.P,J2,v,Pin_v*%
%TO.N,v*%
X228413200Y3251200D03*
%TO.P,J2,w,Pin_w*%
%TO.N,w*%
X232375600Y3251200D03*
%TO.P,J2,x,Pin_x*%
%TO.N,x*%
X236338000Y3251200D03*
%TO.P,J2,y,Pin_y*%
%TO.N,y*%
X240300400Y3251200D03*
%TD*%
D13*
%TO.N,1*%
X73879600Y-11887200D03*
%TO.N,2*%
X77842000Y-14859000D03*
%TO.N,3*%
X81804400Y-17335500D03*
%TO.N,4*%
X85766800Y-19812000D03*
%TO.N,5*%
X89729200Y-22288500D03*
%TO.N,6*%
X93691600Y-25260300D03*
%TO.N,7*%
X97654000Y-27736800D03*
%TO.N,8*%
X101616400Y-30213300D03*
%TO.N,9*%
X105578800Y-32689800D03*
%TO.N,10*%
X109541200Y-35166300D03*
%TO.N,11*%
X113503600Y-37642800D03*
%TO.N,12*%
X117466000Y-40119300D03*
%TO.N,13*%
X121428400Y-42595800D03*
%TO.N,14*%
X125390800Y-45072300D03*
%TO.N,15*%
X129353200Y-47548800D03*
%TO.N,16*%
X133315600Y-50025300D03*
%TO.N,17*%
X137278000Y-52997100D03*
%TO.N,18*%
X141240400Y-55473600D03*
%TO.N,19*%
X145202800Y-57950100D03*
%TO.N,20*%
X149165200Y-60426600D03*
%TO.N,21*%
X153127600Y-62903100D03*
%TO.N,22*%
X157090000Y-65379600D03*
%TO.N,23*%
X161052400Y-68351400D03*
%TO.N,24*%
X165014800Y-70827900D03*
%TO.N,25*%
X168977200Y-73304400D03*
%TO.N,26*%
X172939600Y-81724500D03*
%TO.N,27*%
X176902000Y-84201000D03*
%TO.N,28*%
X180864400Y-86677500D03*
%TO.N,29*%
X184826800Y-89154000D03*
%TO.N,30*%
X188789200Y-91630500D03*
%TO.N,31*%
X192751600Y-94107000D03*
%TO.N,32*%
X196714000Y-96583500D03*
%TO.N,33*%
X200676400Y-99555300D03*
%TO.N,34*%
X204638800Y-101536500D03*
%TO.N,35*%
X208601200Y-104013000D03*
%TO.N,36*%
X212563600Y-106489500D03*
%TO.N,37*%
X216526000Y-109461300D03*
%TO.N,38*%
X220488400Y-111937800D03*
%TO.N,39*%
X224450800Y-113919000D03*
%TO.N,40*%
X228413200Y-116890800D03*
%TO.N,41*%
X232375600Y-119367300D03*
%TO.N,42*%
X236338000Y-122339100D03*
%TO.N,43*%
X240300400Y-124815600D03*
%TO.N,A*%
X71898400Y-13373100D03*
X71898400Y-332841600D03*
X71898400Y-5943600D03*
%TO.N,B*%
X75860800Y-5943600D03*
X75860800Y-15849600D03*
X75860800Y-336804000D03*
%TO.N,C*%
X79823200Y-18326100D03*
X79823200Y-336804000D03*
X79823200Y-5943600D03*
%TO.N,D*%
X83785600Y-5943600D03*
X83785600Y-20802600D03*
X83785600Y-336804000D03*
%TO.N,E*%
X87748000Y-23279100D03*
X87748000Y-5943600D03*
X87748000Y-336804000D03*
%TO.N,F*%
X91710400Y-5943600D03*
X91710400Y-26250900D03*
X91710400Y-336804000D03*
%TO.N,H*%
X95672800Y-28727400D03*
X95672800Y-336804000D03*
X95672800Y-5943600D03*
%TO.N,J*%
X99635200Y-5943600D03*
X99635200Y-336804000D03*
X99635200Y-31203900D03*
%TO.N,K*%
X103597600Y-336804000D03*
X103597600Y-5943600D03*
X103597600Y-33680400D03*
%TO.N,L*%
X107560000Y-5943600D03*
X107560000Y-336804000D03*
X107560000Y-36156900D03*
%TO.N,M*%
X111522400Y-336804000D03*
X111522400Y-5943600D03*
X111522400Y-38633400D03*
%TO.N,N*%
X115484800Y-336804000D03*
X115484800Y-5943600D03*
X115484800Y-41109900D03*
%TO.N,P*%
X119447200Y-336804000D03*
X119447200Y-5943600D03*
X119447200Y-43586400D03*
%TO.N,R*%
X123409600Y-46062900D03*
X123409600Y-336804000D03*
X123409600Y-5943600D03*
%TO.N,S*%
X127372000Y-5943600D03*
X127372000Y-336804000D03*
X127372000Y-48539400D03*
%TO.N,T*%
X131334400Y-5943600D03*
X131334400Y-51015900D03*
X131334400Y-336804000D03*
%TO.N,U*%
X135296800Y-53987700D03*
X135296800Y-5943600D03*
X135296800Y-336804000D03*
%TO.N,V*%
X139259200Y-56464200D03*
X139259200Y-336804000D03*
X139259200Y-5943600D03*
%TO.N,W*%
X143221600Y-5943600D03*
X143221600Y-336804000D03*
X143221600Y-58940700D03*
%TO.N,X*%
X147184000Y-61417200D03*
X147184000Y-5943600D03*
X147184000Y-336804000D03*
%TO.N,Y*%
X151146400Y-63893700D03*
X151146400Y-5943600D03*
X151146400Y-336804000D03*
%TO.N,Z*%
X155108800Y-66370200D03*
X155108800Y-336804000D03*
X155108800Y-5943600D03*
%TO.N,a*%
X159071200Y-336804000D03*
X159071200Y-5943600D03*
X159071200Y-69342000D03*
%TO.N,b*%
X163033600Y-71818500D03*
X163033600Y-5943600D03*
X163033600Y-336804000D03*
%TO.N,c*%
X166996000Y-74295000D03*
X166996000Y-5943600D03*
X166996000Y-336804000D03*
%TO.N,d*%
X170958400Y-82715100D03*
X170958400Y-336804000D03*
X170958400Y-5943600D03*
%TO.N,e*%
X174920800Y-5943600D03*
X174920800Y-336804000D03*
X174920800Y-85191600D03*
%TO.N,f*%
X178883200Y-87668100D03*
X178883200Y-5943600D03*
X178883200Y-336804000D03*
%TO.N,h*%
X182845600Y-90144600D03*
X182845600Y-5943600D03*
X182845600Y-336804000D03*
%TO.N,j*%
X186808000Y-5943600D03*
X186808000Y-92621100D03*
X186808000Y-336804000D03*
%TO.N,k*%
X190770400Y-5943600D03*
X190770400Y-336804000D03*
X190770400Y-95097600D03*
%TO.N,l*%
X194732800Y-336804000D03*
X194732800Y-5943600D03*
X194732800Y-97574100D03*
%TO.N,m*%
X198695200Y-5943600D03*
X198695200Y-336804000D03*
X198695200Y-100545900D03*
%TO.N,n*%
X202657600Y-103022400D03*
X202657600Y-5943600D03*
X202657600Y-336804000D03*
%TO.N,p*%
X206620000Y-5943600D03*
X206620000Y-336804000D03*
X206620000Y-105003600D03*
%TO.N,r*%
X210582400Y-5943600D03*
X210582400Y-336804000D03*
X210582400Y-107480100D03*
%TO.N,s*%
X214544800Y-336804000D03*
X214544800Y-5943600D03*
X214544800Y-110451900D03*
%TO.N,t*%
X218507200Y-112928400D03*
X218507200Y-5943600D03*
X218507200Y-336804000D03*
%TO.N,u*%
X222469600Y-114909600D03*
X222469600Y-336804000D03*
X222469600Y-5943600D03*
%TO.N,v*%
X226432000Y-5943600D03*
X226432000Y-117881400D03*
X226432000Y-336804000D03*
%TO.N,w*%
X230394400Y-120357900D03*
X230394400Y-5943600D03*
X230394400Y-336804000D03*
%TO.N,x*%
X234356800Y-336804000D03*
X234356800Y-123329700D03*
X234356800Y-5943600D03*
%TO.N,y*%
X238319200Y-125806200D03*
X238319200Y-5943600D03*
X238319200Y-336804000D03*
%TD*%
D14*
%TO.N,1*%
X34421600Y-13868400D02*
X36402800Y-11887200D01*
X36402800Y-11887200D02*
X73879600Y-11887200D01*
%TO.N,2*%
X35671600Y-15158400D02*
X75420629Y-15158400D01*
X75420629Y-15158400D02*
X75720029Y-14859000D01*
X75720029Y-14859000D02*
X77842000Y-14859000D01*
X34421600Y-16408400D02*
X35671600Y-15158400D01*
%TO.N,3*%
X35671600Y-17698400D02*
X79319529Y-17698400D01*
X34421600Y-18948400D02*
X35671600Y-17698400D01*
X79319529Y-17698400D02*
X79682429Y-17335500D01*
X79682429Y-17335500D02*
X81804400Y-17335500D01*
%TO.N,4*%
X34421600Y-21488400D02*
X35671600Y-20238400D01*
X35671600Y-20238400D02*
X83218429Y-20238400D01*
X83644829Y-19812000D02*
X85766800Y-19812000D01*
X83218429Y-20238400D02*
X83644829Y-19812000D01*
%TO.N,5*%
X87117329Y-22778400D02*
X87607229Y-22288500D01*
X87607229Y-22288500D02*
X89729200Y-22288500D01*
X34421600Y-24028400D02*
X35671600Y-22778400D01*
X35671600Y-22778400D02*
X87117329Y-22778400D01*
%TO.N,6*%
X34421600Y-26568400D02*
X35671600Y-25318400D01*
X35671600Y-25318400D02*
X93633500Y-25318400D01*
%TO.N,7*%
X34421600Y-29108400D02*
X35671600Y-27858400D01*
X35671600Y-27858400D02*
X97532400Y-27858400D01*
%TO.N,8*%
X35671600Y-30398400D02*
X101431300Y-30398400D01*
X34421600Y-31648400D02*
X35671600Y-30398400D01*
%TO.N,9*%
X103208229Y-32938400D02*
X103456829Y-32689800D01*
X34421600Y-34188400D02*
X35671600Y-32938400D01*
X35671600Y-32938400D02*
X103208229Y-32938400D01*
X103456829Y-32689800D02*
X105578800Y-32689800D01*
%TO.N,10*%
X35671600Y-35478400D02*
X107107129Y-35478400D01*
X34421600Y-36728400D02*
X35671600Y-35478400D01*
X107107129Y-35478400D02*
X107419229Y-35166300D01*
X107419229Y-35166300D02*
X109541200Y-35166300D01*
%TO.N,11*%
X111006029Y-38018400D02*
X111381629Y-37642800D01*
X111381629Y-37642800D02*
X113503600Y-37642800D01*
X35671600Y-38018400D02*
X111006029Y-38018400D01*
X34421600Y-39268400D02*
X35671600Y-38018400D01*
%TO.N,12*%
X114904929Y-40558400D02*
X115344029Y-40119300D01*
X34421600Y-41808400D02*
X35671600Y-40558400D01*
X115344029Y-40119300D02*
X117466000Y-40119300D01*
X35671600Y-40558400D02*
X114904929Y-40558400D01*
%TO.N,13*%
X35671600Y-43098400D02*
X118803829Y-43098400D01*
X119306429Y-42595800D02*
X121428400Y-42595800D01*
X34421600Y-44348400D02*
X35671600Y-43098400D01*
X118803829Y-43098400D02*
X119306429Y-42595800D01*
%TO.N,14*%
X122702729Y-45638400D02*
X123268829Y-45072300D01*
X34421600Y-46888400D02*
X35671600Y-45638400D01*
X35671600Y-45638400D02*
X122702729Y-45638400D01*
X123268829Y-45072300D02*
X125390800Y-45072300D01*
%TO.N,15*%
X35671600Y-48178400D02*
X126601629Y-48178400D01*
X34421600Y-49428400D02*
X35671600Y-48178400D01*
X126601629Y-48178400D02*
X127231229Y-47548800D01*
X127231229Y-47548800D02*
X129353200Y-47548800D01*
%TO.N,16*%
X34421600Y-51968400D02*
X35671600Y-50718400D01*
X130500529Y-50718400D02*
X131193629Y-50025300D01*
X131193629Y-50025300D02*
X133315600Y-50025300D01*
X35671600Y-50718400D02*
X130500529Y-50718400D01*
%TO.N,17*%
X35671600Y-53258400D02*
X134894729Y-53258400D01*
X134894729Y-53258400D02*
X135156029Y-52997100D01*
X135156029Y-52997100D02*
X137278000Y-52997100D01*
X34421600Y-54508400D02*
X35671600Y-53258400D01*
%TO.N,18*%
X139118429Y-55473600D02*
X141240400Y-55473600D01*
X35671600Y-55798400D02*
X138793629Y-55798400D01*
X34421600Y-57048400D02*
X35671600Y-55798400D01*
X138793629Y-55798400D02*
X139118429Y-55473600D01*
%TO.N,19*%
X142692529Y-58338400D02*
X143080829Y-57950100D01*
X35671600Y-58338400D02*
X142692529Y-58338400D01*
X143080829Y-57950100D02*
X145202800Y-57950100D01*
X34421600Y-59588400D02*
X35671600Y-58338400D01*
%TO.N,20*%
X146591429Y-60878400D02*
X147043229Y-60426600D01*
X147043229Y-60426600D02*
X149165200Y-60426600D01*
X34421600Y-62128400D02*
X35671600Y-60878400D01*
X35671600Y-60878400D02*
X146591429Y-60878400D01*
%TO.N,21*%
X151005629Y-62903100D02*
X153127600Y-62903100D01*
X34421600Y-64668400D02*
X35671600Y-63418400D01*
X150490329Y-63418400D02*
X151005629Y-62903100D01*
X35671600Y-63418400D02*
X150490329Y-63418400D01*
%TO.N,22*%
X35671600Y-65958400D02*
X154389229Y-65958400D01*
X154389229Y-65958400D02*
X154968029Y-65379600D01*
X154968029Y-65379600D02*
X157090000Y-65379600D01*
X34421600Y-67208400D02*
X35671600Y-65958400D01*
%TO.N,23*%
X35671600Y-68498400D02*
X160905400Y-68498400D01*
X34421600Y-69748400D02*
X35671600Y-68498400D01*
%TO.N,24*%
X164824200Y-71018500D02*
X165014800Y-70827900D01*
X34421600Y-72288400D02*
X35691500Y-71018500D01*
X35691500Y-71018500D02*
X164824200Y-71018500D01*
%TO.N,25*%
X34421600Y-74828400D02*
X35671600Y-73578400D01*
X166581229Y-73578400D02*
X166855229Y-73304400D01*
X35671600Y-73578400D02*
X166581229Y-73578400D01*
X166855229Y-73304400D02*
X168977200Y-73304400D01*
%TO.N,26*%
X35550900Y-81915100D02*
X172749000Y-81915100D01*
X34255600Y-83210400D02*
X35550900Y-81915100D01*
%TO.N,27*%
X35505600Y-84500400D02*
X174480629Y-84500400D01*
X174480629Y-84500400D02*
X174780029Y-84201000D01*
X34255600Y-85750400D02*
X35505600Y-84500400D01*
X174780029Y-84201000D02*
X176902000Y-84201000D01*
%TO.N,28*%
X178742429Y-86677500D02*
X180864400Y-86677500D01*
X34255600Y-88290400D02*
X35505600Y-87040400D01*
X35505600Y-87040400D02*
X178379529Y-87040400D01*
X178379529Y-87040400D02*
X178742429Y-86677500D01*
%TO.N,29*%
X34255600Y-90830400D02*
X35505600Y-89580400D01*
X182278429Y-89580400D02*
X182704829Y-89154000D01*
X35505600Y-89580400D02*
X182278429Y-89580400D01*
X182704829Y-89154000D02*
X184826800Y-89154000D01*
%TO.N,30*%
X34255600Y-93370400D02*
X35505600Y-92120400D01*
X35505600Y-92120400D02*
X185822800Y-92120400D01*
X186312700Y-91630500D02*
X188789200Y-91630500D01*
X185822800Y-92120400D02*
X186312700Y-91630500D01*
%TO.N,31*%
X190076229Y-94660400D02*
X190629629Y-94107000D01*
X35505600Y-94660400D02*
X190076229Y-94660400D01*
X34255600Y-95910400D02*
X35505600Y-94660400D01*
X190629629Y-94107000D02*
X192751600Y-94107000D01*
%TO.N,32*%
X35505600Y-97200400D02*
X193975129Y-97200400D01*
X193975129Y-97200400D02*
X194592029Y-96583500D01*
X194592029Y-96583500D02*
X196714000Y-96583500D01*
X34255600Y-98450400D02*
X35505600Y-97200400D01*
%TO.N,33*%
X34255600Y-100990400D02*
X35505600Y-99740400D01*
X200491300Y-99740400D02*
X200676400Y-99555300D01*
X35505600Y-99740400D02*
X200491300Y-99740400D01*
%TO.N,34*%
X202657600Y-101536500D02*
X204638800Y-101536500D01*
X201913700Y-102280400D02*
X202657600Y-101536500D01*
X34255600Y-103530400D02*
X35505600Y-102280400D01*
X35505600Y-102280400D02*
X201913700Y-102280400D01*
%TO.N,35*%
X34255600Y-106070400D02*
X35505600Y-104820400D01*
X205671829Y-104820400D02*
X206479229Y-104013000D01*
X206479229Y-104013000D02*
X208601200Y-104013000D01*
X35505600Y-104820400D02*
X205671829Y-104820400D01*
%TO.N,36*%
X35505600Y-107360400D02*
X209570729Y-107360400D01*
X209570729Y-107360400D02*
X210441629Y-106489500D01*
X34255600Y-108610400D02*
X35505600Y-107360400D01*
X210441629Y-106489500D02*
X212563600Y-106489500D01*
%TO.N,37*%
X35505600Y-109900400D02*
X213964929Y-109900400D01*
X34255600Y-111150400D02*
X35505600Y-109900400D01*
X213964929Y-109900400D02*
X214404029Y-109461300D01*
X214404029Y-109461300D02*
X216526000Y-109461300D01*
%TO.N,38*%
X218011900Y-111937800D02*
X220488400Y-111937800D01*
X34255600Y-113690400D02*
X35505600Y-112440400D01*
X35505600Y-112440400D02*
X217509300Y-112440400D01*
X217509300Y-112440400D02*
X218011900Y-111937800D01*
%TO.N,39*%
X222328829Y-113919000D02*
X224450800Y-113919000D01*
X35505600Y-114980400D02*
X221267429Y-114980400D01*
X221267429Y-114980400D02*
X222328829Y-113919000D01*
X34255600Y-116230400D02*
X35505600Y-114980400D01*
%TO.N,40*%
X225936700Y-116890800D02*
X228413200Y-116890800D01*
X35505600Y-117520400D02*
X225307100Y-117520400D01*
X34255600Y-118770400D02*
X35505600Y-117520400D01*
X225307100Y-117520400D02*
X225936700Y-116890800D01*
%TO.N,41*%
X229560529Y-120060400D02*
X230253629Y-119367300D01*
X230253629Y-119367300D02*
X232375600Y-119367300D01*
X34255600Y-121310400D02*
X35505600Y-120060400D01*
X35505600Y-120060400D02*
X229560529Y-120060400D01*
%TO.N,42*%
X233954729Y-122600400D02*
X234216029Y-122339100D01*
X234216029Y-122339100D02*
X236338000Y-122339100D01*
X34255600Y-123850400D02*
X35505600Y-122600400D01*
X35505600Y-122600400D02*
X233954729Y-122600400D01*
%TO.N,43*%
X34255600Y-126390400D02*
X35505600Y-125140400D01*
X238178429Y-124815600D02*
X240300400Y-124815600D01*
X237853629Y-125140400D02*
X238178429Y-124815600D01*
X35505600Y-125140400D02*
X237853629Y-125140400D01*
%TO.N,A*%
X36961600Y-13868400D02*
X71403100Y-13868400D01*
D15*
X73879600Y-334822800D02*
X71898400Y-332841600D01*
X73879600Y-3962400D02*
X73879600Y3251200D01*
X73879600Y-344728800D02*
X73879600Y-334822800D01*
X71898400Y-5943600D02*
X73879600Y-3962400D01*
D14*
X71403100Y-13868400D02*
X71898400Y-13373100D01*
%TO.N,B*%
X36961600Y-16408400D02*
X75302000Y-16408400D01*
D15*
X77842000Y-344728800D02*
X77842000Y-338785200D01*
X77842000Y-3962400D02*
X77842000Y3251200D01*
X75860800Y-5943600D02*
X77842000Y-3962400D01*
D14*
X75302000Y-16408400D02*
X75860800Y-15849600D01*
D15*
X77842000Y-338785200D02*
X75860800Y-336804000D01*
D14*
%TO.N,C*%
X79200900Y-18948400D02*
X79823200Y-18326100D01*
D15*
X81804400Y-338785200D02*
X79823200Y-336804000D01*
D14*
X36961600Y-18948400D02*
X79200900Y-18948400D01*
D15*
X81804400Y-3962400D02*
X81804400Y3251200D01*
X79823200Y-5943600D02*
X81804400Y-3962400D01*
X81804400Y-344728800D02*
X81804400Y-338785200D01*
%TO.N,D*%
X83785600Y-5943600D02*
X85766800Y-3962400D01*
D14*
X83099800Y-21488400D02*
X83785600Y-20802600D01*
D15*
X85766800Y-344728800D02*
X85766800Y-338785200D01*
X85766800Y-3962400D02*
X85766800Y3251200D01*
D14*
X36961600Y-21488400D02*
X83099800Y-21488400D01*
D15*
X85766800Y-338785200D02*
X83785600Y-336804000D01*
%TO.N,E*%
X87748000Y-5943600D02*
X89729200Y-3962400D01*
D14*
X36961600Y-24028400D02*
X86998700Y-24028400D01*
X86998700Y-24028400D02*
X87748000Y-23279100D01*
D15*
X89729200Y-3962400D02*
X89729200Y3251200D01*
X89729200Y-344728800D02*
X89729200Y-338785200D01*
X89729200Y-338785200D02*
X87748000Y-336804000D01*
D14*
%TO.N,F*%
X36961600Y-26568400D02*
X91392900Y-26568400D01*
X91392900Y-26568400D02*
X91710400Y-26250900D01*
D15*
X93691600Y-3962400D02*
X93691600Y3251200D01*
X93691600Y-344728800D02*
X93691600Y-338785200D01*
X93691600Y-338785200D02*
X91710400Y-336804000D01*
X91710400Y-5943600D02*
X93691600Y-3962400D01*
%TO.N,H*%
X97654000Y-338785200D02*
X95672800Y-336804000D01*
X95672800Y-5943600D02*
X97654000Y-3962400D01*
D14*
X95291800Y-29108400D02*
X95672800Y-28727400D01*
X36961600Y-29108400D02*
X95291800Y-29108400D01*
D15*
X97654000Y-344728800D02*
X97654000Y-338785200D01*
X97654000Y-3962400D02*
X97654000Y3251200D01*
%TO.N,J*%
X101616400Y-344728800D02*
X101616400Y-338785200D01*
X101616400Y-3962400D02*
X101616400Y3251200D01*
D14*
X36961600Y-31648400D02*
X99190700Y-31648400D01*
D15*
X99635200Y-5943600D02*
X101616400Y-3962400D01*
X101616400Y-338785200D02*
X99635200Y-336804000D01*
D14*
X99190700Y-31648400D02*
X99635200Y-31203900D01*
D15*
%TO.N,K*%
X105578800Y-338785200D02*
X103597600Y-336804000D01*
X103597600Y-5943600D02*
X105578800Y-3962400D01*
X105578800Y-344728800D02*
X105578800Y-338785200D01*
X105578800Y-3962400D02*
X105578800Y3251200D01*
D14*
X103089600Y-34188400D02*
X103597600Y-33680400D01*
X36961600Y-34188400D02*
X103089600Y-34188400D01*
%TO.N,L*%
X36961600Y-36728400D02*
X106988500Y-36728400D01*
D15*
X109541200Y-3962400D02*
X109541200Y3251200D01*
D14*
X106988500Y-36728400D02*
X107560000Y-36156900D01*
D15*
X107560000Y-5943600D02*
X109541200Y-3962400D01*
X109541200Y-338785200D02*
X107560000Y-336804000D01*
X109541200Y-344728800D02*
X109541200Y-338785200D01*
%TO.N,M*%
X113503600Y-3962400D02*
X113503600Y3251200D01*
X113503600Y-338785200D02*
X111522400Y-336804000D01*
X113503600Y-344728800D02*
X113503600Y-338785200D01*
D14*
X36961600Y-39268400D02*
X110887400Y-39268400D01*
X110887400Y-39268400D02*
X111522400Y-38633400D01*
D15*
X111522400Y-5943600D02*
X113503600Y-3962400D01*
D14*
%TO.N,N*%
X36961600Y-41808400D02*
X114786300Y-41808400D01*
D15*
X117466000Y-344728800D02*
X117466000Y-338785200D01*
X117466000Y-338785200D02*
X115484800Y-336804000D01*
X117466000Y-3962400D02*
X117466000Y3251200D01*
D14*
X114786300Y-41808400D02*
X115484800Y-41109900D01*
D15*
X115484800Y-5943600D02*
X117466000Y-3962400D01*
%TO.N,P*%
X121428400Y-338785200D02*
X119447200Y-336804000D01*
X119447200Y-5943600D02*
X121428400Y-3962400D01*
X121428400Y-3962400D02*
X121428400Y3251200D01*
D14*
X118685200Y-44348400D02*
X119447200Y-43586400D01*
D15*
X121428400Y-344728800D02*
X121428400Y-338785200D01*
D14*
X36961600Y-44348400D02*
X118685200Y-44348400D01*
D15*
%TO.N,R*%
X125390800Y-3962400D02*
X125390800Y3251200D01*
X123409600Y-5943600D02*
X125390800Y-3962400D01*
X125390800Y-338785200D02*
X123409600Y-336804000D01*
D14*
X122584100Y-46888400D02*
X123409600Y-46062900D01*
D15*
X125390800Y-344728800D02*
X125390800Y-338785200D01*
D14*
X36961600Y-46888400D02*
X122584100Y-46888400D01*
D15*
%TO.N,S*%
X129353200Y-338785200D02*
X127372000Y-336804000D01*
X127372000Y-5943600D02*
X129353200Y-3962400D01*
X129353200Y-344728800D02*
X129353200Y-338785200D01*
D14*
X36961600Y-49428400D02*
X126483000Y-49428400D01*
D15*
X129353200Y-3962400D02*
X129353200Y3251200D01*
D14*
X126483000Y-49428400D02*
X127372000Y-48539400D01*
D15*
%TO.N,T*%
X133315600Y-344728800D02*
X133315600Y-338785200D01*
D14*
X130381900Y-51968400D02*
X131334400Y-51015900D01*
X36961600Y-51968400D02*
X130381900Y-51968400D01*
D15*
X133315600Y-3962400D02*
X133315600Y3251200D01*
X131334400Y-5943600D02*
X133315600Y-3962400D01*
X133315600Y-338785200D02*
X131334400Y-336804000D01*
%TO.N,U*%
X137278000Y-344728800D02*
X137278000Y-338785200D01*
X137278000Y-338785200D02*
X135296800Y-336804000D01*
X137278000Y-3962400D02*
X137278000Y3251200D01*
D14*
X36961600Y-54508400D02*
X134776100Y-54508400D01*
X134776100Y-54508400D02*
X135296800Y-53987700D01*
D15*
X135296800Y-5943600D02*
X137278000Y-3962400D01*
D14*
%TO.N,V*%
X36961600Y-57048400D02*
X138675000Y-57048400D01*
D15*
X141240400Y-344728800D02*
X141240400Y-338785200D01*
X141240400Y-3962400D02*
X141240400Y3251200D01*
X139259200Y-5943600D02*
X141240400Y-3962400D01*
X141240400Y-338785200D02*
X139259200Y-336804000D01*
D14*
X138675000Y-57048400D02*
X139259200Y-56464200D01*
%TO.N,W*%
X36961600Y-59588400D02*
X142573900Y-59588400D01*
X142573900Y-59588400D02*
X143221600Y-58940700D01*
D15*
X143221600Y-5943600D02*
X145202800Y-3962400D01*
X145202800Y-3962400D02*
X145202800Y3251200D01*
X145202800Y-338785200D02*
X143221600Y-336804000D01*
X145202800Y-344728800D02*
X145202800Y-338785200D01*
%TO.N,X*%
X149165200Y-3962400D02*
X149165200Y3251200D01*
X149165200Y-344728800D02*
X149165200Y-338785200D01*
X149165200Y-338785200D02*
X147184000Y-336804000D01*
D14*
X36961600Y-62128400D02*
X146472800Y-62128400D01*
D15*
X147184000Y-5943600D02*
X149165200Y-3962400D01*
D14*
X146472800Y-62128400D02*
X147184000Y-61417200D01*
D15*
%TO.N,Y*%
X151146400Y-5943600D02*
X153127600Y-3962400D01*
X153127600Y-344728800D02*
X153127600Y-338785200D01*
D14*
X150371700Y-64668400D02*
X151146400Y-63893700D01*
D15*
X153127600Y-3962400D02*
X153127600Y3251200D01*
X153127600Y-338785200D02*
X151146400Y-336804000D01*
D14*
X36961600Y-64668400D02*
X150371700Y-64668400D01*
D15*
%TO.N,Z*%
X157090000Y-338785200D02*
X155108800Y-336804000D01*
X155108800Y-5943600D02*
X157090000Y-3962400D01*
D14*
X154270600Y-67208400D02*
X155108800Y-66370200D01*
D15*
X157090000Y-3962400D02*
X157090000Y3251200D01*
D14*
X36961600Y-67208400D02*
X154270600Y-67208400D01*
D15*
X157090000Y-344728800D02*
X157090000Y-338785200D01*
D14*
%TO.N,a*%
X158664800Y-69748400D02*
X159071200Y-69342000D01*
D15*
X159071200Y-5943600D02*
X161052400Y-3962400D01*
X161052400Y-338785200D02*
X159071200Y-336804000D01*
D14*
X36961600Y-69748400D02*
X158664800Y-69748400D01*
D15*
X161052400Y-344728800D02*
X161052400Y-338785200D01*
X161052400Y-3962400D02*
X161052400Y3251200D01*
%TO.N,b*%
X163033600Y-5943600D02*
X165014800Y-3962400D01*
D14*
X162563700Y-72288400D02*
X163033600Y-71818500D01*
D15*
X165014800Y-338785200D02*
X163033600Y-336804000D01*
X165014800Y-344728800D02*
X165014800Y-338785200D01*
X165014800Y-3962400D02*
X165014800Y3251200D01*
D14*
X36961600Y-72288400D02*
X162563700Y-72288400D01*
D15*
%TO.N,c*%
X168977200Y-344728800D02*
X168977200Y-338785200D01*
X168977200Y-3962400D02*
X168977200Y3251200D01*
X168977200Y-338785200D02*
X166996000Y-336804000D01*
D14*
X36961600Y-74828400D02*
X166462600Y-74828400D01*
D15*
X166996000Y-5943600D02*
X168977200Y-3962400D01*
D14*
X166462600Y-74828400D02*
X166996000Y-74295000D01*
D15*
%TO.N,d*%
X172939600Y-3962400D02*
X172939600Y3251200D01*
D14*
X170463100Y-83210400D02*
X170958400Y-82715100D01*
D15*
X172939600Y-344728800D02*
X172939600Y-338785200D01*
X170958400Y-5943600D02*
X172939600Y-3962400D01*
X172939600Y-338785200D02*
X170958400Y-336804000D01*
D14*
X36795600Y-83210400D02*
X170463100Y-83210400D01*
%TO.N,e*%
X174362000Y-85750400D02*
X174920800Y-85191600D01*
X36795600Y-85750400D02*
X174362000Y-85750400D01*
D15*
X174920800Y-5943600D02*
X176902000Y-3962400D01*
X176902000Y-344728800D02*
X176902000Y-338785200D01*
X176902000Y-3962400D02*
X176902000Y3251200D01*
X176902000Y-338785200D02*
X174920800Y-336804000D01*
%TO.N,f*%
X180864400Y-344728800D02*
X180864400Y-338785200D01*
X180864400Y-338785200D02*
X178883200Y-336804000D01*
X178883200Y-5943600D02*
X180864400Y-3962400D01*
X180864400Y-3962400D02*
X180864400Y3251200D01*
D14*
X178260900Y-88290400D02*
X178883200Y-87668100D01*
X36795600Y-88290400D02*
X178260900Y-88290400D01*
D15*
%TO.N,h*%
X184826800Y-338785200D02*
X182845600Y-336804000D01*
D14*
X182159800Y-90830400D02*
X182845600Y-90144600D01*
X36795600Y-90830400D02*
X182159800Y-90830400D01*
D15*
X182845600Y-5943600D02*
X184826800Y-3962400D01*
X184826800Y-3962400D02*
X184826800Y3251200D01*
X184826800Y-344728800D02*
X184826800Y-338785200D01*
%TO.N,j*%
X186808000Y-5943600D02*
X188789200Y-3962400D01*
X188789200Y-3962400D02*
X188789200Y3251200D01*
D14*
X186058700Y-93370400D02*
X186808000Y-92621100D01*
D15*
X188789200Y-344728800D02*
X188789200Y-338785200D01*
D14*
X36795600Y-93370400D02*
X186058700Y-93370400D01*
D15*
X188789200Y-338785200D02*
X186808000Y-336804000D01*
%TO.N,k*%
X192751600Y-338785200D02*
X190770400Y-336804000D01*
X192751600Y-344728800D02*
X192751600Y-338785200D01*
X190770400Y-5943600D02*
X192751600Y-3962400D01*
X192751600Y-3962400D02*
X192751600Y3251200D01*
D14*
X36795600Y-95910400D02*
X189957600Y-95910400D01*
X189957600Y-95910400D02*
X190770400Y-95097600D01*
D15*
%TO.N,l*%
X196714000Y-338785200D02*
X194732800Y-336804000D01*
X196714000Y-344728800D02*
X196714000Y-338785200D01*
D14*
X193856500Y-98450400D02*
X194732800Y-97574100D01*
D15*
X194732800Y-5943600D02*
X196714000Y-3962400D01*
X196714000Y-3962400D02*
X196714000Y3251200D01*
D14*
X36795600Y-98450400D02*
X193856500Y-98450400D01*
D15*
%TO.N,m*%
X200676400Y-338785200D02*
X198695200Y-336804000D01*
D14*
X198250700Y-100990400D02*
X198695200Y-100545900D01*
D15*
X200676400Y-3962400D02*
X200676400Y3251200D01*
X200676400Y-344728800D02*
X200676400Y-338785200D01*
X198695200Y-5943600D02*
X200676400Y-3962400D01*
D14*
X36795600Y-100990400D02*
X198250700Y-100990400D01*
D15*
%TO.N,n*%
X204638800Y-344728800D02*
X204638800Y-338785200D01*
D14*
X202149600Y-103530400D02*
X202657600Y-103022400D01*
D15*
X204638800Y-338785200D02*
X202657600Y-336804000D01*
D14*
X36795600Y-103530400D02*
X202149600Y-103530400D01*
D15*
X204638800Y-3962400D02*
X204638800Y3251200D01*
X202657600Y-5943600D02*
X204638800Y-3962400D01*
%TO.N,p*%
X208601200Y-344728800D02*
X208601200Y-338785200D01*
D14*
X205553200Y-106070400D02*
X206620000Y-105003600D01*
X36795600Y-106070400D02*
X205553200Y-106070400D01*
D15*
X206620000Y-5943600D02*
X208601200Y-3962400D01*
X208601200Y-338785200D02*
X206620000Y-336804000D01*
X208601200Y-3962400D02*
X208601200Y3251200D01*
D14*
%TO.N,r*%
X36795600Y-108610400D02*
X209452100Y-108610400D01*
D15*
X210582400Y-5943600D02*
X212563600Y-3962400D01*
X212563600Y-338785200D02*
X210582400Y-336804000D01*
X212563600Y-3962400D02*
X212563600Y3251200D01*
X212563600Y-344728800D02*
X212563600Y-338785200D01*
D14*
X209452100Y-108610400D02*
X210582400Y-107480100D01*
D15*
%TO.N,s*%
X216526000Y-338785200D02*
X214544800Y-336804000D01*
D14*
X36795600Y-111150400D02*
X213846300Y-111150400D01*
D15*
X216526000Y-3962400D02*
X216526000Y3251200D01*
X214544800Y-5943600D02*
X216526000Y-3962400D01*
X216526000Y-344728800D02*
X216526000Y-338785200D01*
D14*
X213846300Y-111150400D02*
X214544800Y-110451900D01*
D15*
%TO.N,t*%
X220488400Y-338785200D02*
X218507200Y-336804000D01*
X220488400Y-344728800D02*
X220488400Y-338785200D01*
X220488400Y-3962400D02*
X220488400Y3251200D01*
X218507200Y-5943600D02*
X220488400Y-3962400D01*
D14*
X36795600Y-113690400D02*
X217745200Y-113690400D01*
X217745200Y-113690400D02*
X218507200Y-112928400D01*
%TO.N,u*%
X221148800Y-116230400D02*
X222469600Y-114909600D01*
D15*
X224450800Y-344728800D02*
X224450800Y-338785200D01*
X222469600Y-5943600D02*
X224450800Y-3962400D01*
X224450800Y-338785200D02*
X222469600Y-336804000D01*
D14*
X36795600Y-116230400D02*
X221148800Y-116230400D01*
D15*
X224450800Y-3962400D02*
X224450800Y3251200D01*
D14*
%TO.N,v*%
X36795600Y-118770400D02*
X225543000Y-118770400D01*
X225543000Y-118770400D02*
X226432000Y-117881400D01*
D15*
X228413200Y-344728800D02*
X228413200Y-338785200D01*
X228413200Y-338785200D02*
X226432000Y-336804000D01*
X226432000Y-5943600D02*
X228413200Y-3962400D01*
X228413200Y-3962400D02*
X228413200Y3251200D01*
D14*
%TO.N,w*%
X36795600Y-121310400D02*
X229441900Y-121310400D01*
D15*
X230394400Y-5943600D02*
X232375600Y-3962400D01*
D14*
X229441900Y-121310400D02*
X230394400Y-120357900D01*
D15*
X232375600Y-3962400D02*
X232375600Y3251200D01*
X232375600Y-338785200D02*
X230394400Y-336804000D01*
X232375600Y-344728800D02*
X232375600Y-338785200D01*
%TO.N,x*%
X236338000Y-344728800D02*
X236338000Y-338785200D01*
X234356800Y-5943600D02*
X236338000Y-3962400D01*
X236338000Y-338785200D02*
X234356800Y-336804000D01*
D14*
X36795600Y-123850400D02*
X233836100Y-123850400D01*
X233836100Y-123850400D02*
X234356800Y-123329700D01*
D15*
X236338000Y-3962400D02*
X236338000Y3251200D01*
%TO.N,y*%
X240300400Y-344728800D02*
X240300400Y-338785200D01*
D14*
X237735000Y-126390400D02*
X238319200Y-125806200D01*
D15*
X240300400Y-3962400D02*
X240300400Y3251200D01*
X238319200Y-5943600D02*
X240300400Y-3962400D01*
X240300400Y-338785200D02*
X238319200Y-336804000D01*
D14*
X36795600Y-126390400D02*
X237735000Y-126390400D01*
%TD*%
M02*
