%TF.GenerationSoftware,KiCad,Pcbnew,(6.0.0)*%
%TF.CreationDate,2022-11-20T23:13:48-05:00*%
%TF.ProjectId,i2c l298p,69326320-6c32-4393-9870-2e6b69636164,rev?*%
%TF.SameCoordinates,Original*%
%TF.FileFunction,Legend,Bot*%
%TF.FilePolarity,Positive*%
%FSLAX46Y46*%
G04 Gerber Fmt 4.6, Leading zero omitted, Abs format (unit mm)*
G04 Created by KiCad (PCBNEW (6.0.0)) date 2022-11-20 23:13:48*
%MOMM*%
%LPD*%
G01*
G04 APERTURE LIST*
G04 Aperture macros list*
%AMRoundRect*
0 Rectangle with rounded corners*
0 $1 Rounding radius*
0 $2 $3 $4 $5 $6 $7 $8 $9 X,Y pos of 4 corners*
0 Add a 4 corners polygon primitive as box body*
4,1,4,$2,$3,$4,$5,$6,$7,$8,$9,$2,$3,0*
0 Add four circle primitives for the rounded corners*
1,1,$1+$1,$2,$3*
1,1,$1+$1,$4,$5*
1,1,$1+$1,$6,$7*
1,1,$1+$1,$8,$9*
0 Add four rect primitives between the rounded corners*
20,1,$1+$1,$2,$3,$4,$5,0*
20,1,$1+$1,$4,$5,$6,$7,0*
20,1,$1+$1,$6,$7,$8,$9,0*
20,1,$1+$1,$8,$9,$2,$3,0*%
G04 Aperture macros list end*
%ADD10C,0.150000*%
%ADD11C,0.120000*%
%ADD12R,2.600000X2.600000*%
%ADD13C,2.600000*%
%ADD14RoundRect,0.250000X-0.600000X-0.725000X0.600000X-0.725000X0.600000X0.725000X-0.600000X0.725000X0*%
%ADD15O,1.700000X1.950000*%
%ADD16R,1.800000X1.800000*%
%ADD17O,1.800000X1.800000*%
%ADD18C,3.200000*%
%ADD19O,3.500000X3.500000*%
%ADD20R,2.000000X1.905000*%
%ADD21O,2.000000X1.905000*%
%ADD22R,1.600000X1.600000*%
%ADD23C,1.600000*%
%ADD24R,1.700000X1.700000*%
%ADD25O,1.700000X1.700000*%
%ADD26RoundRect,0.225000X0.250000X-0.225000X0.250000X0.225000X-0.250000X0.225000X-0.250000X-0.225000X0*%
%ADD27R,1.800000X2.500000*%
G04 APERTURE END LIST*
D10*
X124618571Y-128976380D02*
X124618571Y-127976380D01*
X124285238Y-128690666D01*
X123951904Y-127976380D01*
X123951904Y-128976380D01*
X123523333Y-128071619D02*
X123475714Y-128024000D01*
X123380476Y-127976380D01*
X123142380Y-127976380D01*
X123047142Y-128024000D01*
X122999523Y-128071619D01*
X122951904Y-128166857D01*
X122951904Y-128262095D01*
X122999523Y-128404952D01*
X123570952Y-128976380D01*
X122951904Y-128976380D01*
X122523333Y-128595428D02*
X121761428Y-128595428D01*
X192896095Y-87402380D02*
X192896095Y-86402380D01*
X192467523Y-86497619D02*
X192419904Y-86450000D01*
X192324666Y-86402380D01*
X192086571Y-86402380D01*
X191991333Y-86450000D01*
X191943714Y-86497619D01*
X191896095Y-86592857D01*
X191896095Y-86688095D01*
X191943714Y-86830952D01*
X192515142Y-87402380D01*
X191896095Y-87402380D01*
X190896095Y-87307142D02*
X190943714Y-87354761D01*
X191086571Y-87402380D01*
X191181809Y-87402380D01*
X191324666Y-87354761D01*
X191419904Y-87259523D01*
X191467523Y-87164285D01*
X191515142Y-86973809D01*
X191515142Y-86830952D01*
X191467523Y-86640476D01*
X191419904Y-86545238D01*
X191324666Y-86450000D01*
X191181809Y-86402380D01*
X191086571Y-86402380D01*
X190943714Y-86450000D01*
X190896095Y-86497619D01*
X189229428Y-87402380D02*
X189705619Y-87402380D01*
X189705619Y-86402380D01*
X188943714Y-86497619D02*
X188896095Y-86450000D01*
X188800857Y-86402380D01*
X188562761Y-86402380D01*
X188467523Y-86450000D01*
X188419904Y-86497619D01*
X188372285Y-86592857D01*
X188372285Y-86688095D01*
X188419904Y-86830952D01*
X188991333Y-87402380D01*
X188372285Y-87402380D01*
X187896095Y-87402380D02*
X187705619Y-87402380D01*
X187610380Y-87354761D01*
X187562761Y-87307142D01*
X187467523Y-87164285D01*
X187419904Y-86973809D01*
X187419904Y-86592857D01*
X187467523Y-86497619D01*
X187515142Y-86450000D01*
X187610380Y-86402380D01*
X187800857Y-86402380D01*
X187896095Y-86450000D01*
X187943714Y-86497619D01*
X187991333Y-86592857D01*
X187991333Y-86830952D01*
X187943714Y-86926190D01*
X187896095Y-86973809D01*
X187800857Y-87021428D01*
X187610380Y-87021428D01*
X187515142Y-86973809D01*
X187467523Y-86926190D01*
X187419904Y-86830952D01*
X186848476Y-86830952D02*
X186943714Y-86783333D01*
X186991333Y-86735714D01*
X187038952Y-86640476D01*
X187038952Y-86592857D01*
X186991333Y-86497619D01*
X186943714Y-86450000D01*
X186848476Y-86402380D01*
X186658000Y-86402380D01*
X186562761Y-86450000D01*
X186515142Y-86497619D01*
X186467523Y-86592857D01*
X186467523Y-86640476D01*
X186515142Y-86735714D01*
X186562761Y-86783333D01*
X186658000Y-86830952D01*
X186848476Y-86830952D01*
X186943714Y-86878571D01*
X186991333Y-86926190D01*
X187038952Y-87021428D01*
X187038952Y-87211904D01*
X186991333Y-87307142D01*
X186943714Y-87354761D01*
X186848476Y-87402380D01*
X186658000Y-87402380D01*
X186562761Y-87354761D01*
X186515142Y-87307142D01*
X186467523Y-87211904D01*
X186467523Y-87021428D01*
X186515142Y-86926190D01*
X186562761Y-86878571D01*
X186658000Y-86830952D01*
X185277047Y-87402380D02*
X185277047Y-86735714D01*
X185277047Y-86830952D02*
X185229428Y-86783333D01*
X185134190Y-86735714D01*
X184991333Y-86735714D01*
X184896095Y-86783333D01*
X184848476Y-86878571D01*
X184848476Y-87402380D01*
X184848476Y-86878571D02*
X184800857Y-86783333D01*
X184705619Y-86735714D01*
X184562761Y-86735714D01*
X184467523Y-86783333D01*
X184419904Y-86878571D01*
X184419904Y-87402380D01*
X183800857Y-87402380D02*
X183896095Y-87354761D01*
X183943714Y-87307142D01*
X183991333Y-87211904D01*
X183991333Y-86926190D01*
X183943714Y-86830952D01*
X183896095Y-86783333D01*
X183800857Y-86735714D01*
X183658000Y-86735714D01*
X183562761Y-86783333D01*
X183515142Y-86830952D01*
X183467523Y-86926190D01*
X183467523Y-87211904D01*
X183515142Y-87307142D01*
X183562761Y-87354761D01*
X183658000Y-87402380D01*
X183800857Y-87402380D01*
X183181809Y-86735714D02*
X182800857Y-86735714D01*
X183038952Y-86402380D02*
X183038952Y-87259523D01*
X182991333Y-87354761D01*
X182896095Y-87402380D01*
X182800857Y-87402380D01*
X182324666Y-87402380D02*
X182419904Y-87354761D01*
X182467523Y-87307142D01*
X182515142Y-87211904D01*
X182515142Y-86926190D01*
X182467523Y-86830952D01*
X182419904Y-86783333D01*
X182324666Y-86735714D01*
X182181809Y-86735714D01*
X182086571Y-86783333D01*
X182038952Y-86830952D01*
X181991333Y-86926190D01*
X181991333Y-87211904D01*
X182038952Y-87307142D01*
X182086571Y-87354761D01*
X182181809Y-87402380D01*
X182324666Y-87402380D01*
X181562761Y-87402380D02*
X181562761Y-86735714D01*
X181562761Y-86926190D02*
X181515142Y-86830952D01*
X181467523Y-86783333D01*
X181372285Y-86735714D01*
X181277047Y-86735714D01*
X179753238Y-87402380D02*
X179753238Y-86402380D01*
X179753238Y-87354761D02*
X179848476Y-87402380D01*
X180038952Y-87402380D01*
X180134190Y-87354761D01*
X180181809Y-87307142D01*
X180229428Y-87211904D01*
X180229428Y-86926190D01*
X180181809Y-86830952D01*
X180134190Y-86783333D01*
X180038952Y-86735714D01*
X179848476Y-86735714D01*
X179753238Y-86783333D01*
X179277047Y-87402380D02*
X179277047Y-86735714D01*
X179277047Y-86926190D02*
X179229428Y-86830952D01*
X179181809Y-86783333D01*
X179086571Y-86735714D01*
X178991333Y-86735714D01*
X178658000Y-87402380D02*
X178658000Y-86735714D01*
X178658000Y-86402380D02*
X178705619Y-86450000D01*
X178658000Y-86497619D01*
X178610380Y-86450000D01*
X178658000Y-86402380D01*
X178658000Y-86497619D01*
X178277047Y-86735714D02*
X178038952Y-87402380D01*
X177800857Y-86735714D01*
X177038952Y-87354761D02*
X177134190Y-87402380D01*
X177324666Y-87402380D01*
X177419904Y-87354761D01*
X177467523Y-87259523D01*
X177467523Y-86878571D01*
X177419904Y-86783333D01*
X177324666Y-86735714D01*
X177134190Y-86735714D01*
X177038952Y-86783333D01*
X176991333Y-86878571D01*
X176991333Y-86973809D01*
X177467523Y-87069047D01*
X176562761Y-87402380D02*
X176562761Y-86735714D01*
X176562761Y-86926190D02*
X176515142Y-86830952D01*
X176467523Y-86783333D01*
X176372285Y-86735714D01*
X176277047Y-86735714D01*
X193372285Y-89012380D02*
X193372285Y-88012380D01*
X192991333Y-88012380D01*
X192896095Y-88060000D01*
X192848476Y-88107619D01*
X192800857Y-88202857D01*
X192800857Y-88345714D01*
X192848476Y-88440952D01*
X192896095Y-88488571D01*
X192991333Y-88536190D01*
X193372285Y-88536190D01*
X191800857Y-88917142D02*
X191848476Y-88964761D01*
X191991333Y-89012380D01*
X192086571Y-89012380D01*
X192229428Y-88964761D01*
X192324666Y-88869523D01*
X192372285Y-88774285D01*
X192419904Y-88583809D01*
X192419904Y-88440952D01*
X192372285Y-88250476D01*
X192324666Y-88155238D01*
X192229428Y-88060000D01*
X192086571Y-88012380D01*
X191991333Y-88012380D01*
X191848476Y-88060000D01*
X191800857Y-88107619D01*
X191419904Y-88726666D02*
X190943714Y-88726666D01*
X191515142Y-89012380D02*
X191181809Y-88012380D01*
X190848476Y-89012380D01*
X190467523Y-89012380D02*
X190277047Y-89012380D01*
X190181809Y-88964761D01*
X190134190Y-88917142D01*
X190038952Y-88774285D01*
X189991333Y-88583809D01*
X189991333Y-88202857D01*
X190038952Y-88107619D01*
X190086571Y-88060000D01*
X190181809Y-88012380D01*
X190372285Y-88012380D01*
X190467523Y-88060000D01*
X190515142Y-88107619D01*
X190562761Y-88202857D01*
X190562761Y-88440952D01*
X190515142Y-88536190D01*
X190467523Y-88583809D01*
X190372285Y-88631428D01*
X190181809Y-88631428D01*
X190086571Y-88583809D01*
X190038952Y-88536190D01*
X189991333Y-88440952D01*
X189134190Y-88012380D02*
X189324666Y-88012380D01*
X189419904Y-88060000D01*
X189467523Y-88107619D01*
X189562761Y-88250476D01*
X189610380Y-88440952D01*
X189610380Y-88821904D01*
X189562761Y-88917142D01*
X189515142Y-88964761D01*
X189419904Y-89012380D01*
X189229428Y-89012380D01*
X189134190Y-88964761D01*
X189086571Y-88917142D01*
X189038952Y-88821904D01*
X189038952Y-88583809D01*
X189086571Y-88488571D01*
X189134190Y-88440952D01*
X189229428Y-88393333D01*
X189419904Y-88393333D01*
X189515142Y-88440952D01*
X189562761Y-88488571D01*
X189610380Y-88583809D01*
X188467523Y-88440952D02*
X188562761Y-88393333D01*
X188610380Y-88345714D01*
X188658000Y-88250476D01*
X188658000Y-88202857D01*
X188610380Y-88107619D01*
X188562761Y-88060000D01*
X188467523Y-88012380D01*
X188277047Y-88012380D01*
X188181809Y-88060000D01*
X188134190Y-88107619D01*
X188086571Y-88202857D01*
X188086571Y-88250476D01*
X188134190Y-88345714D01*
X188181809Y-88393333D01*
X188277047Y-88440952D01*
X188467523Y-88440952D01*
X188562761Y-88488571D01*
X188610380Y-88536190D01*
X188658000Y-88631428D01*
X188658000Y-88821904D01*
X188610380Y-88917142D01*
X188562761Y-88964761D01*
X188467523Y-89012380D01*
X188277047Y-89012380D01*
X188181809Y-88964761D01*
X188134190Y-88917142D01*
X188086571Y-88821904D01*
X188086571Y-88631428D01*
X188134190Y-88536190D01*
X188181809Y-88488571D01*
X188277047Y-88440952D01*
X187181809Y-88012380D02*
X187658000Y-88012380D01*
X187705619Y-88488571D01*
X187658000Y-88440952D01*
X187562761Y-88393333D01*
X187324666Y-88393333D01*
X187229428Y-88440952D01*
X187181809Y-88488571D01*
X187134190Y-88583809D01*
X187134190Y-88821904D01*
X187181809Y-88917142D01*
X187229428Y-88964761D01*
X187324666Y-89012380D01*
X187562761Y-89012380D01*
X187658000Y-88964761D01*
X187705619Y-88917142D01*
X185943714Y-89012380D02*
X185943714Y-88012380D01*
X185515142Y-88107619D02*
X185467523Y-88060000D01*
X185372285Y-88012380D01*
X185134190Y-88012380D01*
X185038952Y-88060000D01*
X184991333Y-88107619D01*
X184943714Y-88202857D01*
X184943714Y-88298095D01*
X184991333Y-88440952D01*
X185562761Y-89012380D01*
X184943714Y-89012380D01*
X183943714Y-88917142D02*
X183991333Y-88964761D01*
X184134190Y-89012380D01*
X184229428Y-89012380D01*
X184372285Y-88964761D01*
X184467523Y-88869523D01*
X184515142Y-88774285D01*
X184562761Y-88583809D01*
X184562761Y-88440952D01*
X184515142Y-88250476D01*
X184467523Y-88155238D01*
X184372285Y-88060000D01*
X184229428Y-88012380D01*
X184134190Y-88012380D01*
X183991333Y-88060000D01*
X183943714Y-88107619D01*
X182324666Y-88964761D02*
X182419904Y-89012380D01*
X182610380Y-89012380D01*
X182705619Y-88964761D01*
X182753238Y-88917142D01*
X182800857Y-88821904D01*
X182800857Y-88536190D01*
X182753238Y-88440952D01*
X182705619Y-88393333D01*
X182610380Y-88345714D01*
X182419904Y-88345714D01*
X182324666Y-88393333D01*
X181753238Y-89012380D02*
X181848476Y-88964761D01*
X181896095Y-88917142D01*
X181943714Y-88821904D01*
X181943714Y-88536190D01*
X181896095Y-88440952D01*
X181848476Y-88393333D01*
X181753238Y-88345714D01*
X181610380Y-88345714D01*
X181515142Y-88393333D01*
X181467523Y-88440952D01*
X181419904Y-88536190D01*
X181419904Y-88821904D01*
X181467523Y-88917142D01*
X181515142Y-88964761D01*
X181610380Y-89012380D01*
X181753238Y-89012380D01*
X180991333Y-88345714D02*
X180991333Y-89012380D01*
X180991333Y-88440952D02*
X180943714Y-88393333D01*
X180848476Y-88345714D01*
X180705619Y-88345714D01*
X180610380Y-88393333D01*
X180562761Y-88488571D01*
X180562761Y-89012380D01*
X180229428Y-88345714D02*
X179848476Y-88345714D01*
X180086571Y-88012380D02*
X180086571Y-88869523D01*
X180038952Y-88964761D01*
X179943714Y-89012380D01*
X179848476Y-89012380D01*
X179515142Y-89012380D02*
X179515142Y-88345714D01*
X179515142Y-88536190D02*
X179467523Y-88440952D01*
X179419904Y-88393333D01*
X179324666Y-88345714D01*
X179229428Y-88345714D01*
X178753238Y-89012380D02*
X178848476Y-88964761D01*
X178896095Y-88917142D01*
X178943714Y-88821904D01*
X178943714Y-88536190D01*
X178896095Y-88440952D01*
X178848476Y-88393333D01*
X178753238Y-88345714D01*
X178610380Y-88345714D01*
X178515142Y-88393333D01*
X178467523Y-88440952D01*
X178419904Y-88536190D01*
X178419904Y-88821904D01*
X178467523Y-88917142D01*
X178515142Y-88964761D01*
X178610380Y-89012380D01*
X178753238Y-89012380D01*
X177848476Y-89012380D02*
X177943714Y-88964761D01*
X177991333Y-88869523D01*
X177991333Y-88012380D01*
X177324666Y-89012380D02*
X177419904Y-88964761D01*
X177467523Y-88869523D01*
X177467523Y-88012380D01*
X176562761Y-88964761D02*
X176658000Y-89012380D01*
X176848476Y-89012380D01*
X176943714Y-88964761D01*
X176991333Y-88869523D01*
X176991333Y-88488571D01*
X176943714Y-88393333D01*
X176848476Y-88345714D01*
X176658000Y-88345714D01*
X176562761Y-88393333D01*
X176515142Y-88488571D01*
X176515142Y-88583809D01*
X176991333Y-88679047D01*
X176086571Y-89012380D02*
X176086571Y-88345714D01*
X176086571Y-88536190D02*
X176038952Y-88440952D01*
X175991333Y-88393333D01*
X175896095Y-88345714D01*
X175800857Y-88345714D01*
X195824666Y-89622380D02*
X195824666Y-90431904D01*
X195777047Y-90527142D01*
X195729428Y-90574761D01*
X195634190Y-90622380D01*
X195443714Y-90622380D01*
X195348476Y-90574761D01*
X195300857Y-90527142D01*
X195253238Y-90431904D01*
X195253238Y-89622380D01*
X194824666Y-90574761D02*
X194729428Y-90622380D01*
X194538952Y-90622380D01*
X194443714Y-90574761D01*
X194396095Y-90479523D01*
X194396095Y-90431904D01*
X194443714Y-90336666D01*
X194538952Y-90289047D01*
X194681809Y-90289047D01*
X194777047Y-90241428D01*
X194824666Y-90146190D01*
X194824666Y-90098571D01*
X194777047Y-90003333D01*
X194681809Y-89955714D01*
X194538952Y-89955714D01*
X194443714Y-90003333D01*
X193967523Y-90622380D02*
X193967523Y-89955714D01*
X193967523Y-89622380D02*
X194015142Y-89670000D01*
X193967523Y-89717619D01*
X193919904Y-89670000D01*
X193967523Y-89622380D01*
X193967523Y-89717619D01*
X193491333Y-89955714D02*
X193491333Y-90622380D01*
X193491333Y-90050952D02*
X193443714Y-90003333D01*
X193348476Y-89955714D01*
X193205619Y-89955714D01*
X193110380Y-90003333D01*
X193062761Y-90098571D01*
X193062761Y-90622380D01*
X192158000Y-89955714D02*
X192158000Y-90765238D01*
X192205619Y-90860476D01*
X192253238Y-90908095D01*
X192348476Y-90955714D01*
X192491333Y-90955714D01*
X192586571Y-90908095D01*
X192158000Y-90574761D02*
X192253238Y-90622380D01*
X192443714Y-90622380D01*
X192538952Y-90574761D01*
X192586571Y-90527142D01*
X192634190Y-90431904D01*
X192634190Y-90146190D01*
X192586571Y-90050952D01*
X192538952Y-90003333D01*
X192443714Y-89955714D01*
X192253238Y-89955714D01*
X192158000Y-90003333D01*
X190919904Y-90622380D02*
X190919904Y-89622380D01*
X189967523Y-90622380D02*
X190443714Y-90622380D01*
X190443714Y-89622380D01*
X188967523Y-90717619D02*
X189062761Y-90670000D01*
X189158000Y-90574761D01*
X189300857Y-90431904D01*
X189396095Y-90384285D01*
X189491333Y-90384285D01*
X189443714Y-90622380D02*
X189538952Y-90574761D01*
X189634190Y-90479523D01*
X189681809Y-90289047D01*
X189681809Y-89955714D01*
X189634190Y-89765238D01*
X189538952Y-89670000D01*
X189443714Y-89622380D01*
X189253238Y-89622380D01*
X189158000Y-89670000D01*
X189062761Y-89765238D01*
X189015142Y-89955714D01*
X189015142Y-90289047D01*
X189062761Y-90479523D01*
X189158000Y-90574761D01*
X189253238Y-90622380D01*
X189443714Y-90622380D01*
X188158000Y-89622380D02*
X188348476Y-89622380D01*
X188443714Y-89670000D01*
X188491333Y-89717619D01*
X188586571Y-89860476D01*
X188634190Y-90050952D01*
X188634190Y-90431904D01*
X188586571Y-90527142D01*
X188538952Y-90574761D01*
X188443714Y-90622380D01*
X188253238Y-90622380D01*
X188158000Y-90574761D01*
X188110380Y-90527142D01*
X188062761Y-90431904D01*
X188062761Y-90193809D01*
X188110380Y-90098571D01*
X188158000Y-90050952D01*
X188253238Y-90003333D01*
X188443714Y-90003333D01*
X188538952Y-90050952D01*
X188586571Y-90098571D01*
X188634190Y-90193809D01*
X187681809Y-89717619D02*
X187634190Y-89670000D01*
X187538952Y-89622380D01*
X187300857Y-89622380D01*
X187205619Y-89670000D01*
X187158000Y-89717619D01*
X187110380Y-89812857D01*
X187110380Y-89908095D01*
X187158000Y-90050952D01*
X187729428Y-90622380D01*
X187110380Y-90622380D01*
X186491333Y-89622380D02*
X186396095Y-89622380D01*
X186300857Y-89670000D01*
X186253238Y-89717619D01*
X186205619Y-89812857D01*
X186158000Y-90003333D01*
X186158000Y-90241428D01*
X186205619Y-90431904D01*
X186253238Y-90527142D01*
X186300857Y-90574761D01*
X186396095Y-90622380D01*
X186491333Y-90622380D01*
X186586571Y-90574761D01*
X186634190Y-90527142D01*
X186681809Y-90431904D01*
X186729428Y-90241428D01*
X186729428Y-90003333D01*
X186681809Y-89812857D01*
X186634190Y-89717619D01*
X186586571Y-89670000D01*
X186491333Y-89622380D01*
X185205619Y-89670000D02*
X185300857Y-89622380D01*
X185443714Y-89622380D01*
X185586571Y-89670000D01*
X185681809Y-89765238D01*
X185729428Y-89860476D01*
X185777047Y-90050952D01*
X185777047Y-90193809D01*
X185729428Y-90384285D01*
X185681809Y-90479523D01*
X185586571Y-90574761D01*
X185443714Y-90622380D01*
X185348476Y-90622380D01*
X185205619Y-90574761D01*
X185158000Y-90527142D01*
X185158000Y-90193809D01*
X185348476Y-90193809D01*
X184396095Y-90098571D02*
X184253238Y-90146190D01*
X184205619Y-90193809D01*
X184158000Y-90289047D01*
X184158000Y-90431904D01*
X184205619Y-90527142D01*
X184253238Y-90574761D01*
X184348476Y-90622380D01*
X184729428Y-90622380D01*
X184729428Y-89622380D01*
X184396095Y-89622380D01*
X184300857Y-89670000D01*
X184253238Y-89717619D01*
X184205619Y-89812857D01*
X184205619Y-89908095D01*
X184253238Y-90003333D01*
X184300857Y-90050952D01*
X184396095Y-90098571D01*
X184729428Y-90098571D01*
X182777047Y-89622380D02*
X182586571Y-89622380D01*
X182491333Y-89670000D01*
X182396095Y-89765238D01*
X182348476Y-89955714D01*
X182348476Y-90289047D01*
X182396095Y-90479523D01*
X182491333Y-90574761D01*
X182586571Y-90622380D01*
X182777047Y-90622380D01*
X182872285Y-90574761D01*
X182967523Y-90479523D01*
X183015142Y-90289047D01*
X183015142Y-89955714D01*
X182967523Y-89765238D01*
X182872285Y-89670000D01*
X182777047Y-89622380D01*
X181919904Y-89955714D02*
X181919904Y-90955714D01*
X181919904Y-90003333D02*
X181824666Y-89955714D01*
X181634190Y-89955714D01*
X181538952Y-90003333D01*
X181491333Y-90050952D01*
X181443714Y-90146190D01*
X181443714Y-90431904D01*
X181491333Y-90527142D01*
X181538952Y-90574761D01*
X181634190Y-90622380D01*
X181824666Y-90622380D01*
X181919904Y-90574761D01*
X181158000Y-89955714D02*
X180777047Y-89955714D01*
X181015142Y-89622380D02*
X181015142Y-90479523D01*
X180967523Y-90574761D01*
X180872285Y-90622380D01*
X180777047Y-90622380D01*
X180300857Y-90622380D02*
X180396095Y-90574761D01*
X180443714Y-90527142D01*
X180491333Y-90431904D01*
X180491333Y-90146190D01*
X180443714Y-90050952D01*
X180396095Y-90003333D01*
X180300857Y-89955714D01*
X180158000Y-89955714D01*
X180062761Y-90003333D01*
X180015142Y-90050952D01*
X179967523Y-90146190D01*
X179967523Y-90431904D01*
X180015142Y-90527142D01*
X180062761Y-90574761D01*
X180158000Y-90622380D01*
X180300857Y-90622380D01*
X179538952Y-90622380D02*
X179538952Y-89955714D01*
X179538952Y-89622380D02*
X179586571Y-89670000D01*
X179538952Y-89717619D01*
X179491333Y-89670000D01*
X179538952Y-89622380D01*
X179538952Y-89717619D01*
X179110380Y-90574761D02*
X179015142Y-90622380D01*
X178824666Y-90622380D01*
X178729428Y-90574761D01*
X178681809Y-90479523D01*
X178681809Y-90431904D01*
X178729428Y-90336666D01*
X178824666Y-90289047D01*
X178967523Y-90289047D01*
X179062761Y-90241428D01*
X179110380Y-90146190D01*
X179110380Y-90098571D01*
X179062761Y-90003333D01*
X178967523Y-89955714D01*
X178824666Y-89955714D01*
X178729428Y-90003333D01*
X178110380Y-90622380D02*
X178205619Y-90574761D01*
X178253238Y-90527142D01*
X178300857Y-90431904D01*
X178300857Y-90146190D01*
X178253238Y-90050952D01*
X178205619Y-90003333D01*
X178110380Y-89955714D01*
X177967523Y-89955714D01*
X177872285Y-90003333D01*
X177824666Y-90050952D01*
X177777047Y-90146190D01*
X177777047Y-90431904D01*
X177824666Y-90527142D01*
X177872285Y-90574761D01*
X177967523Y-90622380D01*
X178110380Y-90622380D01*
X177205619Y-90622380D02*
X177300857Y-90574761D01*
X177348476Y-90479523D01*
X177348476Y-89622380D01*
X176396095Y-90622380D02*
X176396095Y-90098571D01*
X176443714Y-90003333D01*
X176538952Y-89955714D01*
X176729428Y-89955714D01*
X176824666Y-90003333D01*
X176396095Y-90574761D02*
X176491333Y-90622380D01*
X176729428Y-90622380D01*
X176824666Y-90574761D01*
X176872285Y-90479523D01*
X176872285Y-90384285D01*
X176824666Y-90289047D01*
X176729428Y-90241428D01*
X176491333Y-90241428D01*
X176396095Y-90193809D01*
X176062761Y-89955714D02*
X175681809Y-89955714D01*
X175919904Y-89622380D02*
X175919904Y-90479523D01*
X175872285Y-90574761D01*
X175777047Y-90622380D01*
X175681809Y-90622380D01*
X175205619Y-90622380D02*
X175300857Y-90574761D01*
X175348476Y-90527142D01*
X175396095Y-90431904D01*
X175396095Y-90146190D01*
X175348476Y-90050952D01*
X175300857Y-90003333D01*
X175205619Y-89955714D01*
X175062761Y-89955714D01*
X174967523Y-90003333D01*
X174919904Y-90050952D01*
X174872285Y-90146190D01*
X174872285Y-90431904D01*
X174919904Y-90527142D01*
X174967523Y-90574761D01*
X175062761Y-90622380D01*
X175205619Y-90622380D01*
X174443714Y-90622380D02*
X174443714Y-89955714D01*
X174443714Y-90146190D02*
X174396095Y-90050952D01*
X174348476Y-90003333D01*
X174253238Y-89955714D01*
X174158000Y-89955714D01*
X173872285Y-90574761D02*
X173777047Y-90622380D01*
X173586571Y-90622380D01*
X173491333Y-90574761D01*
X173443714Y-90479523D01*
X173443714Y-90431904D01*
X173491333Y-90336666D01*
X173586571Y-90289047D01*
X173729428Y-90289047D01*
X173824666Y-90241428D01*
X173872285Y-90146190D01*
X173872285Y-90098571D01*
X173824666Y-90003333D01*
X173729428Y-89955714D01*
X173586571Y-89955714D01*
X173491333Y-90003333D01*
X194753238Y-91946666D02*
X194277047Y-91946666D01*
X194848476Y-92232380D02*
X194515142Y-91232380D01*
X194181809Y-92232380D01*
X193848476Y-92232380D02*
X193848476Y-91232380D01*
X193610380Y-91232380D01*
X193467523Y-91280000D01*
X193372285Y-91375238D01*
X193324666Y-91470476D01*
X193277047Y-91660952D01*
X193277047Y-91803809D01*
X193324666Y-91994285D01*
X193372285Y-92089523D01*
X193467523Y-92184761D01*
X193610380Y-92232380D01*
X193848476Y-92232380D01*
X192896095Y-92184761D02*
X192753238Y-92232380D01*
X192515142Y-92232380D01*
X192419904Y-92184761D01*
X192372285Y-92137142D01*
X192324666Y-92041904D01*
X192324666Y-91946666D01*
X192372285Y-91851428D01*
X192419904Y-91803809D01*
X192515142Y-91756190D01*
X192705619Y-91708571D01*
X192800857Y-91660952D01*
X192848476Y-91613333D01*
X192896095Y-91518095D01*
X192896095Y-91422857D01*
X192848476Y-91327619D01*
X192800857Y-91280000D01*
X192705619Y-91232380D01*
X192467523Y-91232380D01*
X192324666Y-91280000D01*
X191372285Y-92232380D02*
X191943714Y-92232380D01*
X191658000Y-92232380D02*
X191658000Y-91232380D01*
X191753238Y-91375238D01*
X191848476Y-91470476D01*
X191943714Y-91518095D01*
X190419904Y-92232380D02*
X190991333Y-92232380D01*
X190705619Y-92232380D02*
X190705619Y-91232380D01*
X190800857Y-91375238D01*
X190896095Y-91470476D01*
X190991333Y-91518095D01*
X189467523Y-92232380D02*
X190038952Y-92232380D01*
X189753238Y-92232380D02*
X189753238Y-91232380D01*
X189848476Y-91375238D01*
X189943714Y-91470476D01*
X190038952Y-91518095D01*
X188562761Y-91232380D02*
X189038952Y-91232380D01*
X189086571Y-91708571D01*
X189038952Y-91660952D01*
X188943714Y-91613333D01*
X188705619Y-91613333D01*
X188610380Y-91660952D01*
X188562761Y-91708571D01*
X188515142Y-91803809D01*
X188515142Y-92041904D01*
X188562761Y-92137142D01*
X188610380Y-92184761D01*
X188705619Y-92232380D01*
X188943714Y-92232380D01*
X189038952Y-92184761D01*
X189086571Y-92137142D01*
X187467523Y-91565714D02*
X187086571Y-91565714D01*
X187324666Y-92232380D02*
X187324666Y-91375238D01*
X187277047Y-91280000D01*
X187181809Y-91232380D01*
X187086571Y-91232380D01*
X186610380Y-92232380D02*
X186705619Y-92184761D01*
X186753238Y-92137142D01*
X186800857Y-92041904D01*
X186800857Y-91756190D01*
X186753238Y-91660952D01*
X186705619Y-91613333D01*
X186610380Y-91565714D01*
X186467523Y-91565714D01*
X186372285Y-91613333D01*
X186324666Y-91660952D01*
X186277047Y-91756190D01*
X186277047Y-92041904D01*
X186324666Y-92137142D01*
X186372285Y-92184761D01*
X186467523Y-92232380D01*
X186610380Y-92232380D01*
X185848476Y-92232380D02*
X185848476Y-91565714D01*
X185848476Y-91756190D02*
X185800857Y-91660952D01*
X185753238Y-91613333D01*
X185658000Y-91565714D01*
X185562761Y-91565714D01*
X184038952Y-92184761D02*
X184134190Y-92232380D01*
X184324666Y-92232380D01*
X184419904Y-92184761D01*
X184467523Y-92137142D01*
X184515142Y-92041904D01*
X184515142Y-91756190D01*
X184467523Y-91660952D01*
X184419904Y-91613333D01*
X184324666Y-91565714D01*
X184134190Y-91565714D01*
X184038952Y-91613333D01*
X183181809Y-91565714D02*
X183181809Y-92232380D01*
X183610380Y-91565714D02*
X183610380Y-92089523D01*
X183562761Y-92184761D01*
X183467523Y-92232380D01*
X183324666Y-92232380D01*
X183229428Y-92184761D01*
X183181809Y-92137142D01*
X182705619Y-92232380D02*
X182705619Y-91565714D01*
X182705619Y-91756190D02*
X182658000Y-91660952D01*
X182610380Y-91613333D01*
X182515142Y-91565714D01*
X182419904Y-91565714D01*
X182086571Y-92232380D02*
X182086571Y-91565714D01*
X182086571Y-91756190D02*
X182038952Y-91660952D01*
X181991333Y-91613333D01*
X181896095Y-91565714D01*
X181800857Y-91565714D01*
X181086571Y-92184761D02*
X181181809Y-92232380D01*
X181372285Y-92232380D01*
X181467523Y-92184761D01*
X181515142Y-92089523D01*
X181515142Y-91708571D01*
X181467523Y-91613333D01*
X181372285Y-91565714D01*
X181181809Y-91565714D01*
X181086571Y-91613333D01*
X181038952Y-91708571D01*
X181038952Y-91803809D01*
X181515142Y-91899047D01*
X180610380Y-91565714D02*
X180610380Y-92232380D01*
X180610380Y-91660952D02*
X180562761Y-91613333D01*
X180467523Y-91565714D01*
X180324666Y-91565714D01*
X180229428Y-91613333D01*
X180181809Y-91708571D01*
X180181809Y-92232380D01*
X179848476Y-91565714D02*
X179467523Y-91565714D01*
X179705619Y-91232380D02*
X179705619Y-92089523D01*
X179658000Y-92184761D01*
X179562761Y-92232380D01*
X179467523Y-92232380D01*
X178419904Y-92184761D02*
X178324666Y-92232380D01*
X178134190Y-92232380D01*
X178038952Y-92184761D01*
X177991333Y-92089523D01*
X177991333Y-92041904D01*
X178038952Y-91946666D01*
X178134190Y-91899047D01*
X178277047Y-91899047D01*
X178372285Y-91851428D01*
X178419904Y-91756190D01*
X178419904Y-91708571D01*
X178372285Y-91613333D01*
X178277047Y-91565714D01*
X178134190Y-91565714D01*
X178038952Y-91613333D01*
X177181809Y-92184761D02*
X177277047Y-92232380D01*
X177467523Y-92232380D01*
X177562761Y-92184761D01*
X177610380Y-92089523D01*
X177610380Y-91708571D01*
X177562761Y-91613333D01*
X177467523Y-91565714D01*
X177277047Y-91565714D01*
X177181809Y-91613333D01*
X177134190Y-91708571D01*
X177134190Y-91803809D01*
X177610380Y-91899047D01*
X176705619Y-91565714D02*
X176705619Y-92232380D01*
X176705619Y-91660952D02*
X176658000Y-91613333D01*
X176562761Y-91565714D01*
X176419904Y-91565714D01*
X176324666Y-91613333D01*
X176277047Y-91708571D01*
X176277047Y-92232380D01*
X175848476Y-92184761D02*
X175753238Y-92232380D01*
X175562761Y-92232380D01*
X175467523Y-92184761D01*
X175419904Y-92089523D01*
X175419904Y-92041904D01*
X175467523Y-91946666D01*
X175562761Y-91899047D01*
X175705619Y-91899047D01*
X175800857Y-91851428D01*
X175848476Y-91756190D01*
X175848476Y-91708571D01*
X175800857Y-91613333D01*
X175705619Y-91565714D01*
X175562761Y-91565714D01*
X175467523Y-91613333D01*
X174610380Y-92184761D02*
X174705619Y-92232380D01*
X174896095Y-92232380D01*
X174991333Y-92184761D01*
X175038952Y-92089523D01*
X175038952Y-91708571D01*
X174991333Y-91613333D01*
X174896095Y-91565714D01*
X174705619Y-91565714D01*
X174610380Y-91613333D01*
X174562761Y-91708571D01*
X174562761Y-91803809D01*
X175038952Y-91899047D01*
X203538952Y-92842380D02*
X203348476Y-92842380D01*
X203253238Y-92890000D01*
X203158000Y-92985238D01*
X203110380Y-93175714D01*
X203110380Y-93509047D01*
X203158000Y-93699523D01*
X203253238Y-93794761D01*
X203348476Y-93842380D01*
X203538952Y-93842380D01*
X203634190Y-93794761D01*
X203729428Y-93699523D01*
X203777047Y-93509047D01*
X203777047Y-93175714D01*
X203729428Y-92985238D01*
X203634190Y-92890000D01*
X203538952Y-92842380D01*
X202681809Y-93175714D02*
X202681809Y-94175714D01*
X202681809Y-93223333D02*
X202586571Y-93175714D01*
X202396095Y-93175714D01*
X202300857Y-93223333D01*
X202253238Y-93270952D01*
X202205619Y-93366190D01*
X202205619Y-93651904D01*
X202253238Y-93747142D01*
X202300857Y-93794761D01*
X202396095Y-93842380D01*
X202586571Y-93842380D01*
X202681809Y-93794761D01*
X201396095Y-93794761D02*
X201491333Y-93842380D01*
X201681809Y-93842380D01*
X201777047Y-93794761D01*
X201824666Y-93699523D01*
X201824666Y-93318571D01*
X201777047Y-93223333D01*
X201681809Y-93175714D01*
X201491333Y-93175714D01*
X201396095Y-93223333D01*
X201348476Y-93318571D01*
X201348476Y-93413809D01*
X201824666Y-93509047D01*
X200919904Y-93842380D02*
X200919904Y-93175714D01*
X200919904Y-93366190D02*
X200872285Y-93270952D01*
X200824666Y-93223333D01*
X200729428Y-93175714D01*
X200634190Y-93175714D01*
X199872285Y-93842380D02*
X199872285Y-93318571D01*
X199919904Y-93223333D01*
X200015142Y-93175714D01*
X200205619Y-93175714D01*
X200300857Y-93223333D01*
X199872285Y-93794761D02*
X199967523Y-93842380D01*
X200205619Y-93842380D01*
X200300857Y-93794761D01*
X200348476Y-93699523D01*
X200348476Y-93604285D01*
X200300857Y-93509047D01*
X200205619Y-93461428D01*
X199967523Y-93461428D01*
X199872285Y-93413809D01*
X199538952Y-93175714D02*
X199158000Y-93175714D01*
X199396095Y-92842380D02*
X199396095Y-93699523D01*
X199348476Y-93794761D01*
X199253238Y-93842380D01*
X199158000Y-93842380D01*
X198824666Y-93842380D02*
X198824666Y-93175714D01*
X198824666Y-92842380D02*
X198872285Y-92890000D01*
X198824666Y-92937619D01*
X198777047Y-92890000D01*
X198824666Y-92842380D01*
X198824666Y-92937619D01*
X198348476Y-93175714D02*
X198348476Y-93842380D01*
X198348476Y-93270952D02*
X198300857Y-93223333D01*
X198205619Y-93175714D01*
X198062761Y-93175714D01*
X197967523Y-93223333D01*
X197919904Y-93318571D01*
X197919904Y-93842380D01*
X197015142Y-93175714D02*
X197015142Y-93985238D01*
X197062761Y-94080476D01*
X197110380Y-94128095D01*
X197205619Y-94175714D01*
X197348476Y-94175714D01*
X197443714Y-94128095D01*
X197015142Y-93794761D02*
X197110380Y-93842380D01*
X197300857Y-93842380D01*
X197396095Y-93794761D01*
X197443714Y-93747142D01*
X197491333Y-93651904D01*
X197491333Y-93366190D01*
X197443714Y-93270952D01*
X197396095Y-93223333D01*
X197300857Y-93175714D01*
X197110380Y-93175714D01*
X197015142Y-93223333D01*
X195919904Y-92842380D02*
X195586571Y-93842380D01*
X195253238Y-92842380D01*
X194777047Y-93842380D02*
X194872285Y-93794761D01*
X194919904Y-93747142D01*
X194967523Y-93651904D01*
X194967523Y-93366190D01*
X194919904Y-93270952D01*
X194872285Y-93223333D01*
X194777047Y-93175714D01*
X194634190Y-93175714D01*
X194538952Y-93223333D01*
X194491333Y-93270952D01*
X194443714Y-93366190D01*
X194443714Y-93651904D01*
X194491333Y-93747142D01*
X194538952Y-93794761D01*
X194634190Y-93842380D01*
X194777047Y-93842380D01*
X193872285Y-93842380D02*
X193967523Y-93794761D01*
X194015142Y-93699523D01*
X194015142Y-92842380D01*
X193634190Y-93175714D02*
X193253238Y-93175714D01*
X193491333Y-92842380D02*
X193491333Y-93699523D01*
X193443714Y-93794761D01*
X193348476Y-93842380D01*
X193253238Y-93842380D01*
X192491333Y-93842380D02*
X192491333Y-93318571D01*
X192538952Y-93223333D01*
X192634190Y-93175714D01*
X192824666Y-93175714D01*
X192919904Y-93223333D01*
X192491333Y-93794761D02*
X192586571Y-93842380D01*
X192824666Y-93842380D01*
X192919904Y-93794761D01*
X192967523Y-93699523D01*
X192967523Y-93604285D01*
X192919904Y-93509047D01*
X192824666Y-93461428D01*
X192586571Y-93461428D01*
X192491333Y-93413809D01*
X191586571Y-93175714D02*
X191586571Y-93985238D01*
X191634190Y-94080476D01*
X191681809Y-94128095D01*
X191777047Y-94175714D01*
X191919904Y-94175714D01*
X192015142Y-94128095D01*
X191586571Y-93794761D02*
X191681809Y-93842380D01*
X191872285Y-93842380D01*
X191967523Y-93794761D01*
X192015142Y-93747142D01*
X192062761Y-93651904D01*
X192062761Y-93366190D01*
X192015142Y-93270952D01*
X191967523Y-93223333D01*
X191872285Y-93175714D01*
X191681809Y-93175714D01*
X191586571Y-93223333D01*
X190729428Y-93794761D02*
X190824666Y-93842380D01*
X191015142Y-93842380D01*
X191110380Y-93794761D01*
X191158000Y-93699523D01*
X191158000Y-93318571D01*
X191110380Y-93223333D01*
X191015142Y-93175714D01*
X190824666Y-93175714D01*
X190729428Y-93223333D01*
X190681809Y-93318571D01*
X190681809Y-93413809D01*
X191158000Y-93509047D01*
X190253238Y-93747142D02*
X190205619Y-93794761D01*
X190253238Y-93842380D01*
X190300857Y-93794761D01*
X190253238Y-93747142D01*
X190253238Y-93842380D01*
X190253238Y-93223333D02*
X190205619Y-93270952D01*
X190253238Y-93318571D01*
X190300857Y-93270952D01*
X190253238Y-93223333D01*
X190253238Y-93318571D01*
X188586571Y-93175714D02*
X188586571Y-93842380D01*
X189015142Y-93175714D02*
X189015142Y-93699523D01*
X188967523Y-93794761D01*
X188872285Y-93842380D01*
X188729428Y-93842380D01*
X188634190Y-93794761D01*
X188586571Y-93747142D01*
X188110380Y-93175714D02*
X188110380Y-94175714D01*
X188110380Y-93223333D02*
X188015142Y-93175714D01*
X187824666Y-93175714D01*
X187729428Y-93223333D01*
X187681809Y-93270952D01*
X187634190Y-93366190D01*
X187634190Y-93651904D01*
X187681809Y-93747142D01*
X187729428Y-93794761D01*
X187824666Y-93842380D01*
X188015142Y-93842380D01*
X188110380Y-93794761D01*
X186586571Y-93175714D02*
X186205619Y-93175714D01*
X186443714Y-92842380D02*
X186443714Y-93699523D01*
X186396095Y-93794761D01*
X186300857Y-93842380D01*
X186205619Y-93842380D01*
X185729428Y-93842380D02*
X185824666Y-93794761D01*
X185872285Y-93747142D01*
X185919904Y-93651904D01*
X185919904Y-93366190D01*
X185872285Y-93270952D01*
X185824666Y-93223333D01*
X185729428Y-93175714D01*
X185586571Y-93175714D01*
X185491333Y-93223333D01*
X185443714Y-93270952D01*
X185396095Y-93366190D01*
X185396095Y-93651904D01*
X185443714Y-93747142D01*
X185491333Y-93794761D01*
X185586571Y-93842380D01*
X185729428Y-93842380D01*
X184253238Y-92937619D02*
X184205619Y-92890000D01*
X184110380Y-92842380D01*
X183872285Y-92842380D01*
X183777047Y-92890000D01*
X183729428Y-92937619D01*
X183681809Y-93032857D01*
X183681809Y-93128095D01*
X183729428Y-93270952D01*
X184300857Y-93842380D01*
X183681809Y-93842380D01*
X182824666Y-93175714D02*
X182824666Y-93842380D01*
X183062761Y-92794761D02*
X183300857Y-93509047D01*
X182681809Y-93509047D01*
X182443714Y-92842380D02*
X182110380Y-93842380D01*
X181777047Y-92842380D01*
X180396095Y-94223333D02*
X180443714Y-94175714D01*
X180538952Y-94032857D01*
X180586571Y-93937619D01*
X180634190Y-93794761D01*
X180681809Y-93556666D01*
X180681809Y-93366190D01*
X180634190Y-93128095D01*
X180586571Y-92985238D01*
X180538952Y-92890000D01*
X180443714Y-92747142D01*
X180396095Y-92699523D01*
X179538952Y-92842380D02*
X180015142Y-92842380D01*
X180062761Y-93318571D01*
X180015142Y-93270952D01*
X179919904Y-93223333D01*
X179681809Y-93223333D01*
X179586571Y-93270952D01*
X179538952Y-93318571D01*
X179491333Y-93413809D01*
X179491333Y-93651904D01*
X179538952Y-93747142D01*
X179586571Y-93794761D01*
X179681809Y-93842380D01*
X179919904Y-93842380D01*
X180015142Y-93794761D01*
X180062761Y-93747142D01*
X179158000Y-93175714D02*
X178919904Y-93842380D01*
X178681809Y-93175714D01*
X177538952Y-93842380D02*
X177538952Y-93175714D01*
X177538952Y-93366190D02*
X177491333Y-93270952D01*
X177443714Y-93223333D01*
X177348476Y-93175714D01*
X177253238Y-93175714D01*
X176538952Y-93794761D02*
X176634190Y-93842380D01*
X176824666Y-93842380D01*
X176919904Y-93794761D01*
X176967523Y-93699523D01*
X176967523Y-93318571D01*
X176919904Y-93223333D01*
X176824666Y-93175714D01*
X176634190Y-93175714D01*
X176538952Y-93223333D01*
X176491333Y-93318571D01*
X176491333Y-93413809D01*
X176967523Y-93509047D01*
X175634190Y-93175714D02*
X175634190Y-93985238D01*
X175681809Y-94080476D01*
X175729428Y-94128095D01*
X175824666Y-94175714D01*
X175967523Y-94175714D01*
X176062761Y-94128095D01*
X175634190Y-93794761D02*
X175729428Y-93842380D01*
X175919904Y-93842380D01*
X176015142Y-93794761D01*
X176062761Y-93747142D01*
X176110380Y-93651904D01*
X176110380Y-93366190D01*
X176062761Y-93270952D01*
X176015142Y-93223333D01*
X175919904Y-93175714D01*
X175729428Y-93175714D01*
X175634190Y-93223333D01*
X174729428Y-93175714D02*
X174729428Y-93842380D01*
X175158000Y-93175714D02*
X175158000Y-93699523D01*
X175110380Y-93794761D01*
X175015142Y-93842380D01*
X174872285Y-93842380D01*
X174777047Y-93794761D01*
X174729428Y-93747142D01*
X174110380Y-93842380D02*
X174205619Y-93794761D01*
X174253238Y-93699523D01*
X174253238Y-92842380D01*
X173300857Y-93842380D02*
X173300857Y-93318571D01*
X173348476Y-93223333D01*
X173443714Y-93175714D01*
X173634190Y-93175714D01*
X173729428Y-93223333D01*
X173300857Y-93794761D02*
X173396095Y-93842380D01*
X173634190Y-93842380D01*
X173729428Y-93794761D01*
X173777047Y-93699523D01*
X173777047Y-93604285D01*
X173729428Y-93509047D01*
X173634190Y-93461428D01*
X173396095Y-93461428D01*
X173300857Y-93413809D01*
X172967523Y-93175714D02*
X172586571Y-93175714D01*
X172824666Y-92842380D02*
X172824666Y-93699523D01*
X172777047Y-93794761D01*
X172681809Y-93842380D01*
X172586571Y-93842380D01*
X172110380Y-93842380D02*
X172205619Y-93794761D01*
X172253238Y-93747142D01*
X172300857Y-93651904D01*
X172300857Y-93366190D01*
X172253238Y-93270952D01*
X172205619Y-93223333D01*
X172110380Y-93175714D01*
X171967523Y-93175714D01*
X171872285Y-93223333D01*
X171824666Y-93270952D01*
X171777047Y-93366190D01*
X171777047Y-93651904D01*
X171824666Y-93747142D01*
X171872285Y-93794761D01*
X171967523Y-93842380D01*
X172110380Y-93842380D01*
X171348476Y-93842380D02*
X171348476Y-93175714D01*
X171348476Y-93366190D02*
X171300857Y-93270952D01*
X171253238Y-93223333D01*
X171158000Y-93175714D01*
X171062761Y-93175714D01*
X169824666Y-93842380D02*
X169919904Y-93794761D01*
X169967523Y-93699523D01*
X169967523Y-92842380D01*
X169443714Y-93842380D02*
X169443714Y-93175714D01*
X169443714Y-92842380D02*
X169491333Y-92890000D01*
X169443714Y-92937619D01*
X169396095Y-92890000D01*
X169443714Y-92842380D01*
X169443714Y-92937619D01*
X168967523Y-93842380D02*
X168967523Y-93175714D01*
X168967523Y-93270952D02*
X168919904Y-93223333D01*
X168824666Y-93175714D01*
X168681809Y-93175714D01*
X168586571Y-93223333D01*
X168538952Y-93318571D01*
X168538952Y-93842380D01*
X168538952Y-93318571D02*
X168491333Y-93223333D01*
X168396095Y-93175714D01*
X168253238Y-93175714D01*
X168158000Y-93223333D01*
X168110380Y-93318571D01*
X168110380Y-93842380D01*
X167634190Y-93842380D02*
X167634190Y-93175714D01*
X167634190Y-92842380D02*
X167681809Y-92890000D01*
X167634190Y-92937619D01*
X167586571Y-92890000D01*
X167634190Y-92842380D01*
X167634190Y-92937619D01*
X167300857Y-93175714D02*
X166919904Y-93175714D01*
X167158000Y-92842380D02*
X167158000Y-93699523D01*
X167110380Y-93794761D01*
X167015142Y-93842380D01*
X166919904Y-93842380D01*
X166634190Y-93794761D02*
X166538952Y-93842380D01*
X166348476Y-93842380D01*
X166253238Y-93794761D01*
X166205619Y-93699523D01*
X166205619Y-93651904D01*
X166253238Y-93556666D01*
X166348476Y-93509047D01*
X166491333Y-93509047D01*
X166586571Y-93461428D01*
X166634190Y-93366190D01*
X166634190Y-93318571D01*
X166586571Y-93223333D01*
X166491333Y-93175714D01*
X166348476Y-93175714D01*
X166253238Y-93223333D01*
X165872285Y-94223333D02*
X165824666Y-94175714D01*
X165729428Y-94032857D01*
X165681809Y-93937619D01*
X165634190Y-93794761D01*
X165586571Y-93556666D01*
X165586571Y-93366190D01*
X165634190Y-93128095D01*
X165681809Y-92985238D01*
X165729428Y-92890000D01*
X165824666Y-92747142D01*
X165872285Y-92699523D01*
X154844571Y-128722380D02*
X154844571Y-127722380D01*
X154511238Y-128436666D01*
X154177904Y-127722380D01*
X154177904Y-128722380D01*
X153796952Y-127722380D02*
X153177904Y-127722380D01*
X153511238Y-128103333D01*
X153368380Y-128103333D01*
X153273142Y-128150952D01*
X153225523Y-128198571D01*
X153177904Y-128293809D01*
X153177904Y-128531904D01*
X153225523Y-128627142D01*
X153273142Y-128674761D01*
X153368380Y-128722380D01*
X153654095Y-128722380D01*
X153749333Y-128674761D01*
X153796952Y-128627142D01*
X152749333Y-128341428D02*
X151987428Y-128341428D01*
X152368380Y-128722380D02*
X152368380Y-127960476D01*
X198675857Y-128191000D02*
X198771095Y-128143380D01*
X198913952Y-128143380D01*
X199056809Y-128191000D01*
X199152047Y-128286238D01*
X199199666Y-128381476D01*
X199247285Y-128571952D01*
X199247285Y-128714809D01*
X199199666Y-128905285D01*
X199152047Y-129000523D01*
X199056809Y-129095761D01*
X198913952Y-129143380D01*
X198818714Y-129143380D01*
X198675857Y-129095761D01*
X198628238Y-129048142D01*
X198628238Y-128714809D01*
X198818714Y-128714809D01*
X198199666Y-128476714D02*
X198199666Y-129143380D01*
X198199666Y-128571952D02*
X198152047Y-128524333D01*
X198056809Y-128476714D01*
X197913952Y-128476714D01*
X197818714Y-128524333D01*
X197771095Y-128619571D01*
X197771095Y-129143380D01*
X196866333Y-129143380D02*
X196866333Y-128143380D01*
X196866333Y-129095761D02*
X196961571Y-129143380D01*
X197152047Y-129143380D01*
X197247285Y-129095761D01*
X197294904Y-129048142D01*
X197342523Y-128952904D01*
X197342523Y-128667190D01*
X197294904Y-128571952D01*
X197247285Y-128524333D01*
X197152047Y-128476714D01*
X196961571Y-128476714D01*
X196866333Y-128524333D01*
X114458571Y-128976380D02*
X114458571Y-127976380D01*
X114125238Y-128690666D01*
X113791904Y-127976380D01*
X113791904Y-128976380D01*
X112791904Y-128976380D02*
X113363333Y-128976380D01*
X113077619Y-128976380D02*
X113077619Y-127976380D01*
X113172857Y-128119238D01*
X113268095Y-128214476D01*
X113363333Y-128262095D01*
X112363333Y-128595428D02*
X111601428Y-128595428D01*
X204176476Y-128238619D02*
X204128857Y-128191000D01*
X204033619Y-128143380D01*
X203795523Y-128143380D01*
X203700285Y-128191000D01*
X203652666Y-128238619D01*
X203605047Y-128333857D01*
X203605047Y-128429095D01*
X203652666Y-128571952D01*
X204224095Y-129143380D01*
X203605047Y-129143380D01*
X202747904Y-128476714D02*
X202747904Y-129143380D01*
X202986000Y-128095761D02*
X203224095Y-128810047D01*
X202605047Y-128810047D01*
X202366952Y-128143380D02*
X202033619Y-129143380D01*
X201700285Y-128143380D01*
X169830571Y-128722380D02*
X169830571Y-127722380D01*
X169497238Y-128436666D01*
X169163904Y-127722380D01*
X169163904Y-128722380D01*
X168259142Y-128055714D02*
X168259142Y-128722380D01*
X168497238Y-127674761D02*
X168735333Y-128389047D01*
X168116285Y-128389047D01*
X167735333Y-128341428D02*
X166973428Y-128341428D01*
X159670571Y-128722380D02*
X159670571Y-127722380D01*
X159337238Y-128436666D01*
X159003904Y-127722380D01*
X159003904Y-128722380D01*
X158622952Y-127722380D02*
X158003904Y-127722380D01*
X158337238Y-128103333D01*
X158194380Y-128103333D01*
X158099142Y-128150952D01*
X158051523Y-128198571D01*
X158003904Y-128293809D01*
X158003904Y-128531904D01*
X158051523Y-128627142D01*
X158099142Y-128674761D01*
X158194380Y-128722380D01*
X158480095Y-128722380D01*
X158575333Y-128674761D01*
X158622952Y-128627142D01*
X157575333Y-128341428D02*
X156813428Y-128341428D01*
X165004571Y-128722380D02*
X165004571Y-127722380D01*
X164671238Y-128436666D01*
X164337904Y-127722380D01*
X164337904Y-128722380D01*
X163433142Y-128055714D02*
X163433142Y-128722380D01*
X163671238Y-127674761D02*
X163909333Y-128389047D01*
X163290285Y-128389047D01*
X162909333Y-128341428D02*
X162147428Y-128341428D01*
X162528380Y-128722380D02*
X162528380Y-127960476D01*
X119538571Y-128976380D02*
X119538571Y-127976380D01*
X119205238Y-128690666D01*
X118871904Y-127976380D01*
X118871904Y-128976380D01*
X118443333Y-128071619D02*
X118395714Y-128024000D01*
X118300476Y-127976380D01*
X118062380Y-127976380D01*
X117967142Y-128024000D01*
X117919523Y-128071619D01*
X117871904Y-128166857D01*
X117871904Y-128262095D01*
X117919523Y-128404952D01*
X118490952Y-128976380D01*
X117871904Y-128976380D01*
X117443333Y-128595428D02*
X116681428Y-128595428D01*
X117062380Y-128976380D02*
X117062380Y-128214476D01*
X109378571Y-128976380D02*
X109378571Y-127976380D01*
X109045238Y-128690666D01*
X108711904Y-127976380D01*
X108711904Y-128976380D01*
X107711904Y-128976380D02*
X108283333Y-128976380D01*
X107997619Y-128976380D02*
X107997619Y-127976380D01*
X108092857Y-128119238D01*
X108188095Y-128214476D01*
X108283333Y-128262095D01*
X107283333Y-128595428D02*
X106521428Y-128595428D01*
X106902380Y-128976380D02*
X106902380Y-128214476D01*
%TO.C,C15*%
X101638380Y-110212380D02*
X101638380Y-109640952D01*
X101638380Y-109926666D02*
X100638380Y-109926666D01*
X100781238Y-109831428D01*
X100876476Y-109736190D01*
X100924095Y-109640952D01*
X100638380Y-110831428D02*
X100638380Y-110926666D01*
X100686000Y-111021904D01*
X100733619Y-111069523D01*
X100828857Y-111117142D01*
X101019333Y-111164761D01*
X101257428Y-111164761D01*
X101447904Y-111117142D01*
X101543142Y-111069523D01*
X101590761Y-111021904D01*
X101638380Y-110926666D01*
X101638380Y-110831428D01*
X101590761Y-110736190D01*
X101543142Y-110688571D01*
X101447904Y-110640952D01*
X101257428Y-110593333D01*
X101019333Y-110593333D01*
X100828857Y-110640952D01*
X100733619Y-110688571D01*
X100686000Y-110736190D01*
X100638380Y-110831428D01*
X100638380Y-111783809D02*
X100638380Y-111879047D01*
X100686000Y-111974285D01*
X100733619Y-112021904D01*
X100828857Y-112069523D01*
X101019333Y-112117142D01*
X101257428Y-112117142D01*
X101447904Y-112069523D01*
X101543142Y-112021904D01*
X101590761Y-111974285D01*
X101638380Y-111879047D01*
X101638380Y-111783809D01*
X101590761Y-111688571D01*
X101543142Y-111640952D01*
X101447904Y-111593333D01*
X101257428Y-111545714D01*
X101019333Y-111545714D01*
X100828857Y-111593333D01*
X100733619Y-111640952D01*
X100686000Y-111688571D01*
X100638380Y-111783809D01*
X100971714Y-112545714D02*
X101638380Y-112545714D01*
X101066952Y-112545714D02*
X101019333Y-112593333D01*
X100971714Y-112688571D01*
X100971714Y-112831428D01*
X101019333Y-112926666D01*
X101114571Y-112974285D01*
X101638380Y-112974285D01*
X101114571Y-113783809D02*
X101114571Y-113450476D01*
X101638380Y-113450476D02*
X100638380Y-113450476D01*
X100638380Y-113926666D01*
%TO.C,C14*%
X147866380Y-110212380D02*
X147866380Y-109640952D01*
X147866380Y-109926666D02*
X146866380Y-109926666D01*
X147009238Y-109831428D01*
X147104476Y-109736190D01*
X147152095Y-109640952D01*
X146866380Y-110831428D02*
X146866380Y-110926666D01*
X146914000Y-111021904D01*
X146961619Y-111069523D01*
X147056857Y-111117142D01*
X147247333Y-111164761D01*
X147485428Y-111164761D01*
X147675904Y-111117142D01*
X147771142Y-111069523D01*
X147818761Y-111021904D01*
X147866380Y-110926666D01*
X147866380Y-110831428D01*
X147818761Y-110736190D01*
X147771142Y-110688571D01*
X147675904Y-110640952D01*
X147485428Y-110593333D01*
X147247333Y-110593333D01*
X147056857Y-110640952D01*
X146961619Y-110688571D01*
X146914000Y-110736190D01*
X146866380Y-110831428D01*
X146866380Y-111783809D02*
X146866380Y-111879047D01*
X146914000Y-111974285D01*
X146961619Y-112021904D01*
X147056857Y-112069523D01*
X147247333Y-112117142D01*
X147485428Y-112117142D01*
X147675904Y-112069523D01*
X147771142Y-112021904D01*
X147818761Y-111974285D01*
X147866380Y-111879047D01*
X147866380Y-111783809D01*
X147818761Y-111688571D01*
X147771142Y-111640952D01*
X147675904Y-111593333D01*
X147485428Y-111545714D01*
X147247333Y-111545714D01*
X147056857Y-111593333D01*
X146961619Y-111640952D01*
X146914000Y-111688571D01*
X146866380Y-111783809D01*
X147199714Y-112545714D02*
X147866380Y-112545714D01*
X147294952Y-112545714D02*
X147247333Y-112593333D01*
X147199714Y-112688571D01*
X147199714Y-112831428D01*
X147247333Y-112926666D01*
X147342571Y-112974285D01*
X147866380Y-112974285D01*
X147342571Y-113783809D02*
X147342571Y-113450476D01*
X147866380Y-113450476D02*
X146866380Y-113450476D01*
X146866380Y-113926666D01*
D11*
%TO.C,C15*%
X103126000Y-111900580D02*
X103126000Y-111619420D01*
X102106000Y-111900580D02*
X102106000Y-111619420D01*
%TO.C,D8*%
X99696000Y-116234000D02*
X99696000Y-121634000D01*
X102996000Y-116234000D02*
X102996000Y-121634000D01*
X99696000Y-116234000D02*
X102996000Y-116234000D01*
%TO.C,D12*%
X135508000Y-116234000D02*
X135508000Y-121634000D01*
X132208000Y-116234000D02*
X135508000Y-116234000D01*
X132208000Y-116234000D02*
X132208000Y-121634000D01*
%TO.C,D4*%
X110108000Y-116234000D02*
X110108000Y-121634000D01*
X106808000Y-116234000D02*
X106808000Y-121634000D01*
X106808000Y-116234000D02*
X110108000Y-116234000D01*
%TO.C,D9*%
X174880000Y-123034000D02*
X174880000Y-117634000D01*
X178180000Y-123034000D02*
X178180000Y-117634000D01*
X178180000Y-123034000D02*
X174880000Y-123034000D01*
%TO.C,D3*%
X103252000Y-123034000D02*
X103252000Y-117634000D01*
X106552000Y-123034000D02*
X103252000Y-123034000D01*
X106552000Y-123034000D02*
X106552000Y-117634000D01*
%TO.C,D7*%
X99440000Y-123034000D02*
X96140000Y-123034000D01*
X96140000Y-123034000D02*
X96140000Y-117634000D01*
X99440000Y-123034000D02*
X99440000Y-117634000D01*
%TO.C,C14*%
X149354000Y-111900580D02*
X149354000Y-111619420D01*
X148334000Y-111900580D02*
X148334000Y-111619420D01*
%TO.C,D14*%
X185548000Y-116234000D02*
X188848000Y-116234000D01*
X188848000Y-116234000D02*
X188848000Y-121634000D01*
X185548000Y-116234000D02*
X185548000Y-121634000D01*
%TO.C,D11*%
X128652000Y-123034000D02*
X128652000Y-117634000D01*
X131952000Y-123034000D02*
X128652000Y-123034000D01*
X131952000Y-123034000D02*
X131952000Y-117634000D01*
%TO.C,D15*%
X139064000Y-123034000D02*
X139064000Y-117634000D01*
X139064000Y-123034000D02*
X135764000Y-123034000D01*
X135764000Y-123034000D02*
X135764000Y-117634000D01*
%TO.C,D10*%
X178436000Y-116234000D02*
X181736000Y-116234000D01*
X178436000Y-116234000D02*
X178436000Y-121634000D01*
X181736000Y-116234000D02*
X181736000Y-121634000D01*
%TO.C,D16*%
X139320000Y-116234000D02*
X139320000Y-121634000D01*
X139320000Y-116234000D02*
X142620000Y-116234000D01*
X142620000Y-116234000D02*
X142620000Y-121634000D01*
%TO.C,D6*%
X146432000Y-116234000D02*
X149732000Y-116234000D01*
X146432000Y-116234000D02*
X146432000Y-121634000D01*
X149732000Y-116234000D02*
X149732000Y-121634000D01*
%TO.C,D13*%
X185292000Y-123034000D02*
X185292000Y-117634000D01*
X185292000Y-123034000D02*
X181992000Y-123034000D01*
X181992000Y-123034000D02*
X181992000Y-117634000D01*
%TO.C,D5*%
X142876000Y-123034000D02*
X142876000Y-117634000D01*
X146176000Y-123034000D02*
X146176000Y-117634000D01*
X146176000Y-123034000D02*
X142876000Y-123034000D01*
%TO.C,D1*%
X149988000Y-123034000D02*
X149988000Y-117634000D01*
X153288000Y-123034000D02*
X153288000Y-117634000D01*
X153288000Y-123034000D02*
X149988000Y-123034000D01*
%TO.C,D2*%
X153544000Y-116234000D02*
X156844000Y-116234000D01*
X156844000Y-116234000D02*
X156844000Y-121634000D01*
X153544000Y-116234000D02*
X153544000Y-121634000D01*
%TD*%
%LPC*%
D12*
%TO.C,J1*%
X197946000Y-125313000D03*
D13*
X202946000Y-125313000D03*
%TD*%
D12*
%TO.C,J4*%
X153703000Y-125313000D03*
D13*
X158703000Y-125313000D03*
X163703000Y-125313000D03*
X168703000Y-125313000D03*
%TD*%
D14*
%TO.C,J5*%
X133664000Y-125459000D03*
D15*
X136164000Y-125459000D03*
X138664000Y-125459000D03*
X141164000Y-125459000D03*
%TD*%
D16*
%TO.C,U6*%
X110231000Y-114317000D03*
D17*
X111501000Y-109237000D03*
X112771000Y-114317000D03*
X114041000Y-109237000D03*
X115311000Y-114317000D03*
X116581000Y-109237000D03*
X117851000Y-114317000D03*
X119121000Y-109237000D03*
X120391000Y-114317000D03*
X121661000Y-109237000D03*
X122931000Y-114317000D03*
X124201000Y-109237000D03*
X125471000Y-114317000D03*
X126741000Y-109237000D03*
X128011000Y-114317000D03*
%TD*%
D14*
%TO.C,J3*%
X178876000Y-125222000D03*
D15*
X181376000Y-125222000D03*
X183876000Y-125222000D03*
X186376000Y-125222000D03*
%TD*%
D12*
%TO.C,J2*%
X108364000Y-125440000D03*
D13*
X113364000Y-125440000D03*
X118364000Y-125440000D03*
X123364000Y-125440000D03*
%TD*%
D18*
%TO.C,REF\u002A\u002A*%
X94400000Y-83834000D03*
%TD*%
D19*
%TO.C,U7*%
X208938000Y-110998000D03*
D20*
X192278000Y-108458000D03*
D21*
X192278000Y-110998000D03*
X192278000Y-113538000D03*
%TD*%
D18*
%TO.C,REF\u002A\u002A*%
X210479000Y-83834000D03*
%TD*%
D22*
%TO.C,C18*%
X104394000Y-113412651D03*
D23*
X104394000Y-109912651D03*
%TD*%
D18*
%TO.C,REF\u002A\u002A*%
X210479000Y-126913000D03*
%TD*%
D22*
%TO.C,C16*%
X150876000Y-113412651D03*
D23*
X150876000Y-109912651D03*
%TD*%
D16*
%TO.C,U4*%
X156972000Y-114300000D03*
D17*
X158242000Y-109220000D03*
X159512000Y-114300000D03*
X160782000Y-109220000D03*
X162052000Y-114300000D03*
X163322000Y-109220000D03*
X164592000Y-114300000D03*
X165862000Y-109220000D03*
X167132000Y-114300000D03*
X168402000Y-109220000D03*
X169672000Y-114300000D03*
X170942000Y-109220000D03*
X172212000Y-114300000D03*
X173482000Y-109220000D03*
X174752000Y-114300000D03*
%TD*%
D24*
%TO.C,J9*%
X94742000Y-105156000D03*
D25*
X94742000Y-107696000D03*
X94742000Y-110236000D03*
X94742000Y-112776000D03*
%TD*%
D24*
%TO.C,J6*%
X115570000Y-84836000D03*
D25*
X118110000Y-84836000D03*
X120650000Y-84836000D03*
X123190000Y-84836000D03*
%TD*%
D18*
%TO.C,REF\u002A\u002A*%
X94400000Y-126913000D03*
%TD*%
D26*
%TO.C,C15*%
X102616000Y-112535000D03*
X102616000Y-110985000D03*
%TD*%
D27*
%TO.C,D8*%
X101346000Y-117634000D03*
X101346000Y-121634000D03*
%TD*%
%TO.C,D12*%
X133858000Y-117634000D03*
X133858000Y-121634000D03*
%TD*%
%TO.C,D4*%
X108458000Y-117634000D03*
X108458000Y-121634000D03*
%TD*%
%TO.C,D9*%
X176530000Y-121634000D03*
X176530000Y-117634000D03*
%TD*%
%TO.C,D3*%
X104902000Y-121634000D03*
X104902000Y-117634000D03*
%TD*%
%TO.C,D7*%
X97790000Y-121634000D03*
X97790000Y-117634000D03*
%TD*%
D26*
%TO.C,C14*%
X148844000Y-112535000D03*
X148844000Y-110985000D03*
%TD*%
D27*
%TO.C,D14*%
X187198000Y-117634000D03*
X187198000Y-121634000D03*
%TD*%
%TO.C,D11*%
X130302000Y-121634000D03*
X130302000Y-117634000D03*
%TD*%
%TO.C,D15*%
X137414000Y-121634000D03*
X137414000Y-117634000D03*
%TD*%
%TO.C,D10*%
X180086000Y-117634000D03*
X180086000Y-121634000D03*
%TD*%
%TO.C,D16*%
X140970000Y-117634000D03*
X140970000Y-121634000D03*
%TD*%
%TO.C,D6*%
X148082000Y-117634000D03*
X148082000Y-121634000D03*
%TD*%
%TO.C,D13*%
X183642000Y-121634000D03*
X183642000Y-117634000D03*
%TD*%
%TO.C,D5*%
X144526000Y-121634000D03*
X144526000Y-117634000D03*
%TD*%
%TO.C,D1*%
X151638000Y-121634000D03*
X151638000Y-117634000D03*
%TD*%
%TO.C,D2*%
X155194000Y-117634000D03*
X155194000Y-121634000D03*
%TD*%
M02*
