%TF.GenerationSoftware,KiCad,Pcbnew,(6.0.0)*%
%TF.CreationDate,2022-11-20T23:13:48-05:00*%
%TF.ProjectId,i2c l298p,69326320-6c32-4393-9870-2e6b69636164,rev?*%
%TF.SameCoordinates,Original*%
%TF.FileFunction,Paste,Top*%
%TF.FilePolarity,Positive*%
%FSLAX46Y46*%
G04 Gerber Fmt 4.6, Leading zero omitted, Abs format (unit mm)*
G04 Created by KiCad (PCBNEW (6.0.0)) date 2022-11-20 23:13:48*
%MOMM*%
%LPD*%
G01*
G04 APERTURE LIST*
G04 Aperture macros list*
%AMRoundRect*
0 Rectangle with rounded corners*
0 $1 Rounding radius*
0 $2 $3 $4 $5 $6 $7 $8 $9 X,Y pos of 4 corners*
0 Add a 4 corners polygon primitive as box body*
4,1,4,$2,$3,$4,$5,$6,$7,$8,$9,$2,$3,0*
0 Add four circle primitives for the rounded corners*
1,1,$1+$1,$2,$3*
1,1,$1+$1,$4,$5*
1,1,$1+$1,$6,$7*
1,1,$1+$1,$8,$9*
0 Add four rect primitives between the rounded corners*
20,1,$1+$1,$2,$3,$4,$5,0*
20,1,$1+$1,$4,$5,$6,$7,0*
20,1,$1+$1,$6,$7,$8,$9,0*
20,1,$1+$1,$8,$9,$2,$3,0*%
G04 Aperture macros list end*
%ADD10R,1.100000X0.250000*%
%ADD11RoundRect,0.225000X-0.250000X0.225000X-0.250000X-0.225000X0.250000X-0.225000X0.250000X0.225000X0*%
%ADD12RoundRect,0.200000X0.275000X-0.200000X0.275000X0.200000X-0.275000X0.200000X-0.275000X-0.200000X0*%
%ADD13RoundRect,0.200000X0.200000X0.275000X-0.200000X0.275000X-0.200000X-0.275000X0.200000X-0.275000X0*%
%ADD14RoundRect,0.200000X-0.275000X0.200000X-0.275000X-0.200000X0.275000X-0.200000X0.275000X0.200000X0*%
%ADD15RoundRect,0.334400X-0.555600X0.425600X-0.555600X-0.425600X0.555600X-0.425600X0.555600X0.425600X0*%
%ADD16RoundRect,0.218750X0.256250X-0.218750X0.256250X0.218750X-0.256250X0.218750X-0.256250X-0.218750X0*%
%ADD17RoundRect,0.225000X-0.225000X-0.250000X0.225000X-0.250000X0.225000X0.250000X-0.225000X0.250000X0*%
%ADD18RoundRect,0.150000X-0.150000X0.825000X-0.150000X-0.825000X0.150000X-0.825000X0.150000X0.825000X0*%
%ADD19RoundRect,0.200000X-0.200000X-0.275000X0.200000X-0.275000X0.200000X0.275000X-0.200000X0.275000X0*%
%ADD20RoundRect,0.100000X-0.637500X-0.100000X0.637500X-0.100000X0.637500X0.100000X-0.637500X0.100000X0*%
%ADD21RoundRect,0.150000X0.150000X0.625000X-0.150000X0.625000X-0.150000X-0.625000X0.150000X-0.625000X0*%
%ADD22RoundRect,0.250000X0.350000X0.650000X-0.350000X0.650000X-0.350000X-0.650000X0.350000X-0.650000X0*%
%ADD23RoundRect,0.225000X0.225000X0.250000X-0.225000X0.250000X-0.225000X-0.250000X0.225000X-0.250000X0*%
G04 APERTURE END LIST*
D10*
%TO.C,U8*%
X129168000Y-85868000D03*
X129168000Y-86368000D03*
X129168000Y-86868000D03*
X129168000Y-87368000D03*
X129168000Y-87868000D03*
X133468000Y-87868000D03*
X133468000Y-87368000D03*
X133468000Y-86868000D03*
X133468000Y-86368000D03*
X133468000Y-85868000D03*
%TD*%
D11*
%TO.C,C5*%
X199898000Y-99555000D03*
X199898000Y-101105000D03*
%TD*%
D12*
%TO.C,R47*%
X135636000Y-106489000D03*
X135636000Y-104839000D03*
%TD*%
D13*
%TO.C,R49*%
X181419000Y-106680000D03*
X179769000Y-106680000D03*
%TD*%
D14*
%TO.C,R17*%
X177546000Y-99505000D03*
X177546000Y-101155000D03*
%TD*%
D15*
%TO.C,U1*%
X160020000Y-88204000D03*
X157480000Y-88204000D03*
X154940000Y-88204000D03*
X152400000Y-88204000D03*
X149860000Y-88204000D03*
X147320000Y-88204000D03*
X144780000Y-88204000D03*
X142240000Y-88204000D03*
X142240000Y-97724000D03*
X144780000Y-97724000D03*
X147320000Y-97724000D03*
X149860000Y-97724000D03*
X152400000Y-97724000D03*
X154940000Y-97724000D03*
X157480000Y-97724000D03*
X160020000Y-97724000D03*
%TD*%
D14*
%TO.C,R24*%
X151638000Y-99505000D03*
X151638000Y-101155000D03*
%TD*%
D11*
%TO.C,C10*%
X158242000Y-99555000D03*
X158242000Y-101105000D03*
%TD*%
D16*
%TO.C,D24*%
X145034000Y-128803500D03*
X145034000Y-127228500D03*
%TD*%
D17*
%TO.C,C23*%
X138671000Y-115316000D03*
X140221000Y-115316000D03*
%TD*%
D13*
%TO.C,R9*%
X118173000Y-93980000D03*
X116523000Y-93980000D03*
%TD*%
D15*
%TO.C,U3*%
X181102000Y-88204000D03*
X178562000Y-88204000D03*
X176022000Y-88204000D03*
X173482000Y-88204000D03*
X170942000Y-88204000D03*
X168402000Y-88204000D03*
X165862000Y-88204000D03*
X163322000Y-88204000D03*
X163322000Y-97724000D03*
X165862000Y-97724000D03*
X168402000Y-97724000D03*
X170942000Y-97724000D03*
X173482000Y-97724000D03*
X176022000Y-97724000D03*
X178562000Y-97724000D03*
X181102000Y-97724000D03*
%TD*%
D16*
%TO.C,D23*%
X129794000Y-128803500D03*
X129794000Y-127228500D03*
%TD*%
D13*
%TO.C,R15*%
X135953000Y-117856000D03*
X134303000Y-117856000D03*
%TD*%
D14*
%TO.C,R18*%
X183134000Y-99505000D03*
X183134000Y-101155000D03*
%TD*%
D16*
%TO.C,D19*%
X128016000Y-128803500D03*
X128016000Y-127228500D03*
%TD*%
D18*
%TO.C,U9*%
X137033000Y-110301000D03*
X135763000Y-110301000D03*
X134493000Y-110301000D03*
X133223000Y-110301000D03*
X133223000Y-115251000D03*
X134493000Y-115251000D03*
X135763000Y-115251000D03*
X137033000Y-115251000D03*
%TD*%
D14*
%TO.C,R25*%
X141478000Y-99505000D03*
X141478000Y-101155000D03*
%TD*%
%TO.C,R19*%
X172466000Y-99505000D03*
X172466000Y-101155000D03*
%TD*%
D19*
%TO.C,R33*%
X96711000Y-88646000D03*
X98361000Y-88646000D03*
%TD*%
D17*
%TO.C,C20*%
X107429000Y-88138000D03*
X108979000Y-88138000D03*
%TD*%
D16*
%TO.C,D20*%
X146812000Y-128803500D03*
X146812000Y-127228500D03*
%TD*%
D14*
%TO.C,R32*%
X146812000Y-124143000D03*
X146812000Y-125793000D03*
%TD*%
%TO.C,R22*%
X193294000Y-99505000D03*
X193294000Y-101155000D03*
%TD*%
D11*
%TO.C,C4*%
X189738000Y-99555000D03*
X189738000Y-101105000D03*
%TD*%
D13*
%TO.C,R28*%
X183388000Y-115824000D03*
X181738000Y-115824000D03*
%TD*%
D17*
%TO.C,C26*%
X185928000Y-113030000D03*
X187478000Y-113030000D03*
%TD*%
D11*
%TO.C,C3*%
X173990000Y-99555000D03*
X173990000Y-101105000D03*
%TD*%
%TO.C,C7*%
X148082000Y-99555000D03*
X148082000Y-101105000D03*
%TD*%
D18*
%TO.C,U10*%
X184277000Y-108777000D03*
X183007000Y-108777000D03*
X181737000Y-108777000D03*
X180467000Y-108777000D03*
X180467000Y-113727000D03*
X181737000Y-113727000D03*
X183007000Y-113727000D03*
X184277000Y-113727000D03*
%TD*%
D16*
%TO.C,D21*%
X174752000Y-128803500D03*
X174752000Y-127228500D03*
%TD*%
D11*
%TO.C,C22*%
X136906000Y-88887000D03*
X136906000Y-90437000D03*
%TD*%
%TO.C,C13*%
X167132000Y-116319000D03*
X167132000Y-117869000D03*
%TD*%
D14*
%TO.C,R48*%
X134112000Y-119317000D03*
X134112000Y-120967000D03*
%TD*%
D12*
%TO.C,R40*%
X174752000Y-125539000D03*
X174752000Y-123889000D03*
%TD*%
D20*
%TO.C,U5*%
X102801500Y-89755000D03*
X102801500Y-90405000D03*
X102801500Y-91055000D03*
X102801500Y-91705000D03*
X102801500Y-92355000D03*
X102801500Y-93005000D03*
X102801500Y-93655000D03*
X102801500Y-94305000D03*
X102801500Y-94955000D03*
X102801500Y-95605000D03*
X102801500Y-96255000D03*
X102801500Y-96905000D03*
X102801500Y-97555000D03*
X102801500Y-98205000D03*
X108526500Y-98205000D03*
X108526500Y-97555000D03*
X108526500Y-96905000D03*
X108526500Y-96255000D03*
X108526500Y-95605000D03*
X108526500Y-94955000D03*
X108526500Y-94305000D03*
X108526500Y-93655000D03*
X108526500Y-93005000D03*
X108526500Y-92355000D03*
X108526500Y-91705000D03*
X108526500Y-91055000D03*
X108526500Y-90405000D03*
X108526500Y-89755000D03*
%TD*%
D13*
%TO.C,R1*%
X123507000Y-96012000D03*
X121857000Y-96012000D03*
%TD*%
%TO.C,R7*%
X118173000Y-97028000D03*
X116523000Y-97028000D03*
%TD*%
D11*
%TO.C,C11*%
X169164000Y-99555000D03*
X169164000Y-101105000D03*
%TD*%
D19*
%TO.C,R44*%
X125921000Y-86360000D03*
X127571000Y-86360000D03*
%TD*%
D13*
%TO.C,R11*%
X118173000Y-90932000D03*
X116523000Y-90932000D03*
%TD*%
%TO.C,R16*%
X184467000Y-106680000D03*
X182817000Y-106680000D03*
%TD*%
D11*
%TO.C,C6*%
X194818000Y-99555000D03*
X194818000Y-101105000D03*
%TD*%
D13*
%TO.C,R45*%
X136969000Y-85852000D03*
X135319000Y-85852000D03*
%TD*%
D14*
%TO.C,R13*%
X162560000Y-99505000D03*
X162560000Y-101155000D03*
%TD*%
D16*
%TO.C,D18*%
X192278000Y-128803500D03*
X192278000Y-127228500D03*
%TD*%
D19*
%TO.C,R37*%
X96711000Y-98806000D03*
X98361000Y-98806000D03*
%TD*%
D14*
%TO.C,R26*%
X156718000Y-99505000D03*
X156718000Y-101155000D03*
%TD*%
D19*
%TO.C,R34*%
X96711000Y-91186000D03*
X98361000Y-91186000D03*
%TD*%
D13*
%TO.C,R6*%
X123507000Y-103632000D03*
X121857000Y-103632000D03*
%TD*%
D21*
%TO.C,J8*%
X103354000Y-85566000D03*
X102354000Y-85566000D03*
X101354000Y-85566000D03*
X100354000Y-85566000D03*
D22*
X99054000Y-81691000D03*
X104654000Y-81691000D03*
%TD*%
D19*
%TO.C,R36*%
X96711000Y-96266000D03*
X98361000Y-96266000D03*
%TD*%
D13*
%TO.C,R5*%
X123507000Y-102108000D03*
X121857000Y-102108000D03*
%TD*%
D11*
%TO.C,C1*%
X179070000Y-99555000D03*
X179070000Y-101105000D03*
%TD*%
D13*
%TO.C,R8*%
X118173000Y-95504000D03*
X116523000Y-95504000D03*
%TD*%
D16*
%TO.C,D17*%
X172974000Y-128803500D03*
X172974000Y-127228500D03*
%TD*%
D11*
%TO.C,C9*%
X143002000Y-99555000D03*
X143002000Y-101105000D03*
%TD*%
D19*
%TO.C,R39*%
X110427000Y-92710000D03*
X112077000Y-92710000D03*
%TD*%
D13*
%TO.C,R14*%
X137223000Y-107950000D03*
X135573000Y-107950000D03*
%TD*%
D16*
%TO.C,D22*%
X190500000Y-128803500D03*
X190500000Y-127228500D03*
%TD*%
D12*
%TO.C,R41*%
X190500000Y-125539000D03*
X190500000Y-123889000D03*
%TD*%
%TO.C,R43*%
X145034000Y-125793000D03*
X145034000Y-124143000D03*
%TD*%
D13*
%TO.C,R4*%
X123507000Y-100584000D03*
X121857000Y-100584000D03*
%TD*%
%TO.C,R3*%
X123507000Y-99060000D03*
X121857000Y-99060000D03*
%TD*%
D14*
%TO.C,R20*%
X188214000Y-99505000D03*
X188214000Y-101155000D03*
%TD*%
%TO.C,R50*%
X181864000Y-117285000D03*
X181864000Y-118935000D03*
%TD*%
D11*
%TO.C,C21*%
X135382000Y-88887000D03*
X135382000Y-90437000D03*
%TD*%
%TO.C,C8*%
X153162000Y-99555000D03*
X153162000Y-101105000D03*
%TD*%
D13*
%TO.C,R10*%
X118173000Y-92456000D03*
X116523000Y-92456000D03*
%TD*%
D23*
%TO.C,C17*%
X105423000Y-88138000D03*
X103873000Y-88138000D03*
%TD*%
D14*
%TO.C,R23*%
X146558000Y-99505000D03*
X146558000Y-101155000D03*
%TD*%
D17*
%TO.C,C25*%
X138671000Y-113792000D03*
X140221000Y-113792000D03*
%TD*%
D12*
%TO.C,R42*%
X129794000Y-125793000D03*
X129794000Y-124143000D03*
%TD*%
D17*
%TO.C,C24*%
X185915000Y-114554000D03*
X187465000Y-114554000D03*
%TD*%
D19*
%TO.C,R35*%
X96711000Y-93726000D03*
X98361000Y-93726000D03*
%TD*%
%TO.C,R38*%
X96711000Y-101346000D03*
X98361000Y-101346000D03*
%TD*%
D14*
%TO.C,R27*%
X167640000Y-99505000D03*
X167640000Y-101155000D03*
%TD*%
D15*
%TO.C,U2*%
X201930000Y-88204000D03*
X199390000Y-88204000D03*
X196850000Y-88204000D03*
X194310000Y-88204000D03*
X191770000Y-88204000D03*
X189230000Y-88204000D03*
X186690000Y-88204000D03*
X184150000Y-88204000D03*
X184150000Y-97724000D03*
X186690000Y-97724000D03*
X189230000Y-97724000D03*
X191770000Y-97724000D03*
X194310000Y-97724000D03*
X196850000Y-97724000D03*
X199390000Y-97724000D03*
X201930000Y-97724000D03*
%TD*%
D14*
%TO.C,R31*%
X128016000Y-124143000D03*
X128016000Y-125793000D03*
%TD*%
D13*
%TO.C,R12*%
X118173000Y-89408000D03*
X116523000Y-89408000D03*
%TD*%
D11*
%TO.C,C2*%
X184658000Y-99555000D03*
X184658000Y-101105000D03*
%TD*%
%TO.C,C19*%
X120396000Y-116319000D03*
X120396000Y-117869000D03*
%TD*%
%TO.C,C12*%
X164084000Y-99555000D03*
X164084000Y-101105000D03*
%TD*%
D14*
%TO.C,R29*%
X172974000Y-123889000D03*
X172974000Y-125539000D03*
%TD*%
%TO.C,R30*%
X192278000Y-123889000D03*
X192278000Y-125539000D03*
%TD*%
D13*
%TO.C,R46*%
X136969000Y-87376000D03*
X135319000Y-87376000D03*
%TD*%
%TO.C,R2*%
X123507000Y-97536000D03*
X121857000Y-97536000D03*
%TD*%
D14*
%TO.C,R21*%
X198374000Y-99505000D03*
X198374000Y-101155000D03*
%TD*%
D21*
%TO.C,J7*%
X111228000Y-85566000D03*
X110228000Y-85566000D03*
X109228000Y-85566000D03*
X108228000Y-85566000D03*
D22*
X106928000Y-81691000D03*
X112528000Y-81691000D03*
%TD*%
M02*
