%FSLAX45Y45*%
G04 Gerber Fmt 4.5, Leading zero omitted, Abs format (unit mm)*
G04 Created by KiCad (PCBNEW (6.0.0)) date 2022-11-20 23:13:51*
%MOMM*%
%LPD*%
G01*
G04 APERTURE LIST*
%TA.AperFunction,Profile*%
%ADD10C,0.100000*%
%TD*%
%ADD11C,0.200000*%
%ADD12C,0.320000*%
%ADD13C,0.350000*%
G04 APERTURE END LIST*
D10*
X9084400Y-12691300D02*
G75*
G03*
X9440000Y-13046900I355600J0D01*
G01*
X9084400Y-8383400D02*
X9084400Y-12691300D01*
X9440000Y-8027800D02*
X21047900Y-8027800D01*
X21047900Y-13047127D02*
X9440000Y-13046900D01*
X21047900Y-13047127D02*
G75*
G03*
X21403500Y-12678600I0J355827D01*
G01*
X9440000Y-8027800D02*
G75*
G03*
X9084400Y-8383400I0J-355600D01*
G01*
X21403500Y-8383400D02*
G75*
G03*
X21047900Y-8027800I-355600J0D01*
G01*
X21403500Y-8383400D02*
X21403500Y-12678600D01*
D11*
D12*
X9280000Y-8223400D02*
X9600000Y-8543400D01*
X9600000Y-8223400D02*
X9280000Y-8543400D01*
X9280000Y-12531300D02*
X9600000Y-12851300D01*
X9600000Y-12531300D02*
X9280000Y-12851300D01*
X20887900Y-8223400D02*
X21207900Y-8543400D01*
X21207900Y-8223400D02*
X20887900Y-8543400D01*
X20887900Y-12531300D02*
X21207900Y-12851300D01*
X21207900Y-12531300D02*
X20887900Y-12851300D01*
D13*
X21068800Y-11099800D02*
G75*
G03*
X21068800Y-11099800I-175000J0D01*
G01*
D11*
X9337019Y-13362603D02*
X9337019Y-13162603D01*
X9384638Y-13162603D01*
X9413210Y-13172127D01*
X9432257Y-13191174D01*
X9441781Y-13210222D01*
X9451305Y-13248317D01*
X9451305Y-13276889D01*
X9441781Y-13314984D01*
X9432257Y-13334031D01*
X9413210Y-13353079D01*
X9384638Y-13362603D01*
X9337019Y-13362603D01*
X9537019Y-13362603D02*
X9537019Y-13229269D01*
X9537019Y-13267365D02*
X9546543Y-13248317D01*
X9556067Y-13238793D01*
X9575114Y-13229269D01*
X9594162Y-13229269D01*
X9660829Y-13362603D02*
X9660829Y-13229269D01*
X9660829Y-13162603D02*
X9651305Y-13172127D01*
X9660829Y-13181650D01*
X9670352Y-13172127D01*
X9660829Y-13162603D01*
X9660829Y-13181650D01*
X9784638Y-13362603D02*
X9765590Y-13353079D01*
X9756067Y-13334031D01*
X9756067Y-13162603D01*
X9889400Y-13362603D02*
X9870352Y-13353079D01*
X9860829Y-13334031D01*
X9860829Y-13162603D01*
X10117971Y-13362603D02*
X10117971Y-13162603D01*
X10184638Y-13305460D01*
X10251305Y-13162603D01*
X10251305Y-13362603D01*
X10432257Y-13362603D02*
X10432257Y-13257841D01*
X10422733Y-13238793D01*
X10403686Y-13229269D01*
X10365590Y-13229269D01*
X10346543Y-13238793D01*
X10432257Y-13353079D02*
X10413210Y-13362603D01*
X10365590Y-13362603D01*
X10346543Y-13353079D01*
X10337019Y-13334031D01*
X10337019Y-13314984D01*
X10346543Y-13295936D01*
X10365590Y-13286412D01*
X10413210Y-13286412D01*
X10432257Y-13276889D01*
X10527495Y-13229269D02*
X10527495Y-13429269D01*
X10527495Y-13238793D02*
X10546543Y-13229269D01*
X10584638Y-13229269D01*
X10603686Y-13238793D01*
X10613210Y-13248317D01*
X10622733Y-13267365D01*
X10622733Y-13324508D01*
X10613210Y-13343555D01*
X10603686Y-13353079D01*
X10584638Y-13362603D01*
X10546543Y-13362603D01*
X10527495Y-13353079D01*
X10708448Y-13343555D02*
X10717971Y-13353079D01*
X10708448Y-13362603D01*
X10698924Y-13353079D01*
X10708448Y-13343555D01*
X10708448Y-13362603D01*
X10708448Y-13238793D02*
X10717971Y-13248317D01*
X10708448Y-13257841D01*
X10698924Y-13248317D01*
X10708448Y-13238793D01*
X10708448Y-13257841D01*
X8879400Y-13592127D02*
X9079400Y-13792127D01*
X9079400Y-13592127D02*
X8879400Y-13792127D01*
X9317971Y-13582603D02*
X9441781Y-13582603D01*
X9375114Y-13658793D01*
X9403686Y-13658793D01*
X9422733Y-13668317D01*
X9432257Y-13677841D01*
X9441781Y-13696889D01*
X9441781Y-13744508D01*
X9432257Y-13763555D01*
X9422733Y-13773079D01*
X9403686Y-13782603D01*
X9346543Y-13782603D01*
X9327495Y-13773079D01*
X9317971Y-13763555D01*
X9527495Y-13763555D02*
X9537019Y-13773079D01*
X9527495Y-13782603D01*
X9517971Y-13773079D01*
X9527495Y-13763555D01*
X9527495Y-13782603D01*
X9613210Y-13601650D02*
X9622733Y-13592127D01*
X9641781Y-13582603D01*
X9689400Y-13582603D01*
X9708448Y-13592127D01*
X9717971Y-13601650D01*
X9727495Y-13620698D01*
X9727495Y-13639746D01*
X9717971Y-13668317D01*
X9603686Y-13782603D01*
X9727495Y-13782603D01*
X9851305Y-13582603D02*
X9870352Y-13582603D01*
X9889400Y-13592127D01*
X9898924Y-13601650D01*
X9908448Y-13620698D01*
X9917971Y-13658793D01*
X9917971Y-13706412D01*
X9908448Y-13744508D01*
X9898924Y-13763555D01*
X9889400Y-13773079D01*
X9870352Y-13782603D01*
X9851305Y-13782603D01*
X9832257Y-13773079D01*
X9822733Y-13763555D01*
X9813210Y-13744508D01*
X9803686Y-13706412D01*
X9803686Y-13658793D01*
X9813210Y-13620698D01*
X9822733Y-13601650D01*
X9832257Y-13592127D01*
X9851305Y-13582603D01*
X10041781Y-13582603D02*
X10060829Y-13582603D01*
X10079876Y-13592127D01*
X10089400Y-13601650D01*
X10098924Y-13620698D01*
X10108448Y-13658793D01*
X10108448Y-13706412D01*
X10098924Y-13744508D01*
X10089400Y-13763555D01*
X10079876Y-13773079D01*
X10060829Y-13782603D01*
X10041781Y-13782603D01*
X10022733Y-13773079D01*
X10013210Y-13763555D01*
X10003686Y-13744508D01*
X9994162Y-13706412D01*
X9994162Y-13658793D01*
X10003686Y-13620698D01*
X10013210Y-13601650D01*
X10022733Y-13592127D01*
X10041781Y-13582603D01*
X10194162Y-13782603D02*
X10194162Y-13649269D01*
X10194162Y-13668317D02*
X10203686Y-13658793D01*
X10222733Y-13649269D01*
X10251305Y-13649269D01*
X10270352Y-13658793D01*
X10279876Y-13677841D01*
X10279876Y-13782603D01*
X10279876Y-13677841D02*
X10289400Y-13658793D01*
X10308448Y-13649269D01*
X10337019Y-13649269D01*
X10356067Y-13658793D01*
X10365590Y-13677841D01*
X10365590Y-13782603D01*
X10460829Y-13782603D02*
X10460829Y-13649269D01*
X10460829Y-13668317D02*
X10470352Y-13658793D01*
X10489400Y-13649269D01*
X10517971Y-13649269D01*
X10537019Y-13658793D01*
X10546543Y-13677841D01*
X10546543Y-13782603D01*
X10546543Y-13677841D02*
X10556067Y-13658793D01*
X10575114Y-13649269D01*
X10603686Y-13649269D01*
X10622733Y-13658793D01*
X10632257Y-13677841D01*
X10632257Y-13782603D01*
X11022733Y-13573079D02*
X10851305Y-13830222D01*
X11279876Y-13582603D02*
X11298924Y-13582603D01*
X11317971Y-13592127D01*
X11327495Y-13601650D01*
X11337019Y-13620698D01*
X11346543Y-13658793D01*
X11346543Y-13706412D01*
X11337019Y-13744508D01*
X11327495Y-13763555D01*
X11317971Y-13773079D01*
X11298924Y-13782603D01*
X11279876Y-13782603D01*
X11260828Y-13773079D01*
X11251305Y-13763555D01*
X11241781Y-13744508D01*
X11232257Y-13706412D01*
X11232257Y-13658793D01*
X11241781Y-13620698D01*
X11251305Y-13601650D01*
X11260828Y-13592127D01*
X11279876Y-13582603D01*
X11432257Y-13763555D02*
X11441781Y-13773079D01*
X11432257Y-13782603D01*
X11422733Y-13773079D01*
X11432257Y-13763555D01*
X11432257Y-13782603D01*
X11632257Y-13782603D02*
X11517971Y-13782603D01*
X11575114Y-13782603D02*
X11575114Y-13582603D01*
X11556067Y-13611174D01*
X11537019Y-13630222D01*
X11517971Y-13639746D01*
X11708448Y-13601650D02*
X11717971Y-13592127D01*
X11737019Y-13582603D01*
X11784638Y-13582603D01*
X11803686Y-13592127D01*
X11813209Y-13601650D01*
X11822733Y-13620698D01*
X11822733Y-13639746D01*
X11813209Y-13668317D01*
X11698924Y-13782603D01*
X11822733Y-13782603D01*
X11994162Y-13582603D02*
X11956067Y-13582603D01*
X11937019Y-13592127D01*
X11927495Y-13601650D01*
X11908448Y-13630222D01*
X11898924Y-13668317D01*
X11898924Y-13744508D01*
X11908448Y-13763555D01*
X11917971Y-13773079D01*
X11937019Y-13782603D01*
X11975114Y-13782603D01*
X11994162Y-13773079D01*
X12003686Y-13763555D01*
X12013209Y-13744508D01*
X12013209Y-13696889D01*
X12003686Y-13677841D01*
X11994162Y-13668317D01*
X11975114Y-13658793D01*
X11937019Y-13658793D01*
X11917971Y-13668317D01*
X11908448Y-13677841D01*
X11898924Y-13696889D01*
X12137019Y-13582603D02*
X12156067Y-13582603D01*
X12175114Y-13592127D01*
X12184638Y-13601650D01*
X12194162Y-13620698D01*
X12203686Y-13658793D01*
X12203686Y-13706412D01*
X12194162Y-13744508D01*
X12184638Y-13763555D01*
X12175114Y-13773079D01*
X12156067Y-13782603D01*
X12137019Y-13782603D01*
X12117971Y-13773079D01*
X12108448Y-13763555D01*
X12098924Y-13744508D01*
X12089400Y-13706412D01*
X12089400Y-13658793D01*
X12098924Y-13620698D01*
X12108448Y-13601650D01*
X12117971Y-13592127D01*
X12137019Y-13582603D01*
X12279876Y-13582603D02*
X12279876Y-13620698D01*
X12356067Y-13582603D02*
X12356067Y-13620698D01*
X12651305Y-13858793D02*
X12641781Y-13849269D01*
X12622733Y-13820698D01*
X12613209Y-13801650D01*
X12603686Y-13773079D01*
X12594162Y-13725460D01*
X12594162Y-13687365D01*
X12603686Y-13639746D01*
X12613209Y-13611174D01*
X12622733Y-13592127D01*
X12641781Y-13563555D01*
X12651305Y-13554031D01*
X12813209Y-13649269D02*
X12813209Y-13782603D01*
X12765590Y-13573079D02*
X12717971Y-13715936D01*
X12841781Y-13715936D01*
X13070352Y-13782603D02*
X13070352Y-13582603D01*
X13156067Y-13782603D02*
X13156067Y-13677841D01*
X13146543Y-13658793D01*
X13127495Y-13649269D01*
X13098924Y-13649269D01*
X13079876Y-13658793D01*
X13070352Y-13668317D01*
X13279876Y-13782603D02*
X13260828Y-13773079D01*
X13251305Y-13763555D01*
X13241781Y-13744508D01*
X13241781Y-13687365D01*
X13251305Y-13668317D01*
X13260828Y-13658793D01*
X13279876Y-13649269D01*
X13308448Y-13649269D01*
X13327495Y-13658793D01*
X13337019Y-13668317D01*
X13346543Y-13687365D01*
X13346543Y-13744508D01*
X13337019Y-13763555D01*
X13327495Y-13773079D01*
X13308448Y-13782603D01*
X13279876Y-13782603D01*
X13460828Y-13782603D02*
X13441781Y-13773079D01*
X13432257Y-13754031D01*
X13432257Y-13582603D01*
X13613209Y-13773079D02*
X13594162Y-13782603D01*
X13556067Y-13782603D01*
X13537019Y-13773079D01*
X13527495Y-13754031D01*
X13527495Y-13677841D01*
X13537019Y-13658793D01*
X13556067Y-13649269D01*
X13594162Y-13649269D01*
X13613209Y-13658793D01*
X13622733Y-13677841D01*
X13622733Y-13696889D01*
X13527495Y-13715936D01*
X13698924Y-13773079D02*
X13717971Y-13782603D01*
X13756067Y-13782603D01*
X13775114Y-13773079D01*
X13784638Y-13754031D01*
X13784638Y-13744508D01*
X13775114Y-13725460D01*
X13756067Y-13715936D01*
X13727495Y-13715936D01*
X13708448Y-13706412D01*
X13698924Y-13687365D01*
X13698924Y-13677841D01*
X13708448Y-13658793D01*
X13727495Y-13649269D01*
X13756067Y-13649269D01*
X13775114Y-13658793D01*
X13851305Y-13858793D02*
X13860828Y-13849269D01*
X13879876Y-13820698D01*
X13889400Y-13801650D01*
X13898924Y-13773079D01*
X13908448Y-13725460D01*
X13908448Y-13687365D01*
X13898924Y-13639746D01*
X13889400Y-13611174D01*
X13879876Y-13592127D01*
X13860828Y-13563555D01*
X13851305Y-13554031D01*
X14213209Y-13858793D02*
X14203686Y-13849269D01*
X14184638Y-13820698D01*
X14175114Y-13801650D01*
X14165590Y-13773079D01*
X14156067Y-13725460D01*
X14156067Y-13687365D01*
X14165590Y-13639746D01*
X14175114Y-13611174D01*
X14184638Y-13592127D01*
X14203686Y-13563555D01*
X14213209Y-13554031D01*
X14289400Y-13649269D02*
X14289400Y-13782603D01*
X14289400Y-13668317D02*
X14298924Y-13658793D01*
X14317971Y-13649269D01*
X14346543Y-13649269D01*
X14365590Y-13658793D01*
X14375114Y-13677841D01*
X14375114Y-13782603D01*
X14498924Y-13782603D02*
X14479876Y-13773079D01*
X14470352Y-13763555D01*
X14460828Y-13744508D01*
X14460828Y-13687365D01*
X14470352Y-13668317D01*
X14479876Y-13658793D01*
X14498924Y-13649269D01*
X14527495Y-13649269D01*
X14546543Y-13658793D01*
X14556067Y-13668317D01*
X14565590Y-13687365D01*
X14565590Y-13744508D01*
X14556067Y-13763555D01*
X14546543Y-13773079D01*
X14527495Y-13782603D01*
X14498924Y-13782603D01*
X14622733Y-13649269D02*
X14698924Y-13649269D01*
X14651305Y-13582603D02*
X14651305Y-13754031D01*
X14660828Y-13773079D01*
X14679876Y-13782603D01*
X14698924Y-13782603D01*
X14917971Y-13649269D02*
X14917971Y-13849269D01*
X14917971Y-13658793D02*
X14937019Y-13649269D01*
X14975114Y-13649269D01*
X14994162Y-13658793D01*
X15003686Y-13668317D01*
X15013209Y-13687365D01*
X15013209Y-13744508D01*
X15003686Y-13763555D01*
X14994162Y-13773079D01*
X14975114Y-13782603D01*
X14937019Y-13782603D01*
X14917971Y-13773079D01*
X15127495Y-13782603D02*
X15108448Y-13773079D01*
X15098924Y-13754031D01*
X15098924Y-13582603D01*
X15289400Y-13782603D02*
X15289400Y-13677841D01*
X15279876Y-13658793D01*
X15260828Y-13649269D01*
X15222733Y-13649269D01*
X15203686Y-13658793D01*
X15289400Y-13773079D02*
X15270352Y-13782603D01*
X15222733Y-13782603D01*
X15203686Y-13773079D01*
X15194162Y-13754031D01*
X15194162Y-13734984D01*
X15203686Y-13715936D01*
X15222733Y-13706412D01*
X15270352Y-13706412D01*
X15289400Y-13696889D01*
X15356067Y-13649269D02*
X15432257Y-13649269D01*
X15384638Y-13582603D02*
X15384638Y-13754031D01*
X15394162Y-13773079D01*
X15413209Y-13782603D01*
X15432257Y-13782603D01*
X15575114Y-13773079D02*
X15556067Y-13782603D01*
X15517971Y-13782603D01*
X15498924Y-13773079D01*
X15489400Y-13754031D01*
X15489400Y-13677841D01*
X15498924Y-13658793D01*
X15517971Y-13649269D01*
X15556067Y-13649269D01*
X15575114Y-13658793D01*
X15584638Y-13677841D01*
X15584638Y-13696889D01*
X15489400Y-13715936D01*
X15756067Y-13782603D02*
X15756067Y-13582603D01*
X15756067Y-13773079D02*
X15737019Y-13782603D01*
X15698924Y-13782603D01*
X15679876Y-13773079D01*
X15670352Y-13763555D01*
X15660828Y-13744508D01*
X15660828Y-13687365D01*
X15670352Y-13668317D01*
X15679876Y-13658793D01*
X15698924Y-13649269D01*
X15737019Y-13649269D01*
X15756067Y-13658793D01*
X15832257Y-13858793D02*
X15841781Y-13849269D01*
X15860828Y-13820698D01*
X15870352Y-13801650D01*
X15879876Y-13773079D01*
X15889400Y-13725460D01*
X15889400Y-13687365D01*
X15879876Y-13639746D01*
X15870352Y-13611174D01*
X15860828Y-13592127D01*
X15841781Y-13563555D01*
X15832257Y-13554031D01*
X9079400Y-14012127D02*
G75*
G03*
X9079400Y-14012127I-100000J0D01*
G01*
X9317971Y-13902603D02*
X9441781Y-13902603D01*
X9375114Y-13978793D01*
X9403686Y-13978793D01*
X9422733Y-13988317D01*
X9432257Y-13997841D01*
X9441781Y-14016889D01*
X9441781Y-14064508D01*
X9432257Y-14083555D01*
X9422733Y-14093079D01*
X9403686Y-14102603D01*
X9346543Y-14102603D01*
X9327495Y-14093079D01*
X9317971Y-14083555D01*
X9527495Y-14083555D02*
X9537019Y-14093079D01*
X9527495Y-14102603D01*
X9517971Y-14093079D01*
X9527495Y-14083555D01*
X9527495Y-14102603D01*
X9717971Y-13902603D02*
X9622733Y-13902603D01*
X9613210Y-13997841D01*
X9622733Y-13988317D01*
X9641781Y-13978793D01*
X9689400Y-13978793D01*
X9708448Y-13988317D01*
X9717971Y-13997841D01*
X9727495Y-14016889D01*
X9727495Y-14064508D01*
X9717971Y-14083555D01*
X9708448Y-14093079D01*
X9689400Y-14102603D01*
X9641781Y-14102603D01*
X9622733Y-14093079D01*
X9613210Y-14083555D01*
X9851305Y-13902603D02*
X9870352Y-13902603D01*
X9889400Y-13912127D01*
X9898924Y-13921650D01*
X9908448Y-13940698D01*
X9917971Y-13978793D01*
X9917971Y-14026412D01*
X9908448Y-14064508D01*
X9898924Y-14083555D01*
X9889400Y-14093079D01*
X9870352Y-14102603D01*
X9851305Y-14102603D01*
X9832257Y-14093079D01*
X9822733Y-14083555D01*
X9813210Y-14064508D01*
X9803686Y-14026412D01*
X9803686Y-13978793D01*
X9813210Y-13940698D01*
X9822733Y-13921650D01*
X9832257Y-13912127D01*
X9851305Y-13902603D01*
X10041781Y-13902603D02*
X10060829Y-13902603D01*
X10079876Y-13912127D01*
X10089400Y-13921650D01*
X10098924Y-13940698D01*
X10108448Y-13978793D01*
X10108448Y-14026412D01*
X10098924Y-14064508D01*
X10089400Y-14083555D01*
X10079876Y-14093079D01*
X10060829Y-14102603D01*
X10041781Y-14102603D01*
X10022733Y-14093079D01*
X10013210Y-14083555D01*
X10003686Y-14064508D01*
X9994162Y-14026412D01*
X9994162Y-13978793D01*
X10003686Y-13940698D01*
X10013210Y-13921650D01*
X10022733Y-13912127D01*
X10041781Y-13902603D01*
X10194162Y-14102603D02*
X10194162Y-13969269D01*
X10194162Y-13988317D02*
X10203686Y-13978793D01*
X10222733Y-13969269D01*
X10251305Y-13969269D01*
X10270352Y-13978793D01*
X10279876Y-13997841D01*
X10279876Y-14102603D01*
X10279876Y-13997841D02*
X10289400Y-13978793D01*
X10308448Y-13969269D01*
X10337019Y-13969269D01*
X10356067Y-13978793D01*
X10365590Y-13997841D01*
X10365590Y-14102603D01*
X10460829Y-14102603D02*
X10460829Y-13969269D01*
X10460829Y-13988317D02*
X10470352Y-13978793D01*
X10489400Y-13969269D01*
X10517971Y-13969269D01*
X10537019Y-13978793D01*
X10546543Y-13997841D01*
X10546543Y-14102603D01*
X10546543Y-13997841D02*
X10556067Y-13978793D01*
X10575114Y-13969269D01*
X10603686Y-13969269D01*
X10622733Y-13978793D01*
X10632257Y-13997841D01*
X10632257Y-14102603D01*
X11022733Y-13893079D02*
X10851305Y-14150222D01*
X11279876Y-13902603D02*
X11298924Y-13902603D01*
X11317971Y-13912127D01*
X11327495Y-13921650D01*
X11337019Y-13940698D01*
X11346543Y-13978793D01*
X11346543Y-14026412D01*
X11337019Y-14064508D01*
X11327495Y-14083555D01*
X11317971Y-14093079D01*
X11298924Y-14102603D01*
X11279876Y-14102603D01*
X11260828Y-14093079D01*
X11251305Y-14083555D01*
X11241781Y-14064508D01*
X11232257Y-14026412D01*
X11232257Y-13978793D01*
X11241781Y-13940698D01*
X11251305Y-13921650D01*
X11260828Y-13912127D01*
X11279876Y-13902603D01*
X11432257Y-14083555D02*
X11441781Y-14093079D01*
X11432257Y-14102603D01*
X11422733Y-14093079D01*
X11432257Y-14083555D01*
X11432257Y-14102603D01*
X11632257Y-14102603D02*
X11517971Y-14102603D01*
X11575114Y-14102603D02*
X11575114Y-13902603D01*
X11556067Y-13931174D01*
X11537019Y-13950222D01*
X11517971Y-13959746D01*
X11698924Y-13902603D02*
X11822733Y-13902603D01*
X11756067Y-13978793D01*
X11784638Y-13978793D01*
X11803686Y-13988317D01*
X11813209Y-13997841D01*
X11822733Y-14016889D01*
X11822733Y-14064508D01*
X11813209Y-14083555D01*
X11803686Y-14093079D01*
X11784638Y-14102603D01*
X11727495Y-14102603D01*
X11708448Y-14093079D01*
X11698924Y-14083555D01*
X11889400Y-13902603D02*
X12022733Y-13902603D01*
X11937019Y-14102603D01*
X12127495Y-13988317D02*
X12108448Y-13978793D01*
X12098924Y-13969269D01*
X12089400Y-13950222D01*
X12089400Y-13940698D01*
X12098924Y-13921650D01*
X12108448Y-13912127D01*
X12127495Y-13902603D01*
X12165590Y-13902603D01*
X12184638Y-13912127D01*
X12194162Y-13921650D01*
X12203686Y-13940698D01*
X12203686Y-13950222D01*
X12194162Y-13969269D01*
X12184638Y-13978793D01*
X12165590Y-13988317D01*
X12127495Y-13988317D01*
X12108448Y-13997841D01*
X12098924Y-14007365D01*
X12089400Y-14026412D01*
X12089400Y-14064508D01*
X12098924Y-14083555D01*
X12108448Y-14093079D01*
X12127495Y-14102603D01*
X12165590Y-14102603D01*
X12184638Y-14093079D01*
X12194162Y-14083555D01*
X12203686Y-14064508D01*
X12203686Y-14026412D01*
X12194162Y-14007365D01*
X12184638Y-13997841D01*
X12165590Y-13988317D01*
X12279876Y-13902603D02*
X12279876Y-13940698D01*
X12356067Y-13902603D02*
X12356067Y-13940698D01*
X12651305Y-14178793D02*
X12641781Y-14169269D01*
X12622733Y-14140698D01*
X12613209Y-14121650D01*
X12603686Y-14093079D01*
X12594162Y-14045460D01*
X12594162Y-14007365D01*
X12603686Y-13959746D01*
X12613209Y-13931174D01*
X12622733Y-13912127D01*
X12641781Y-13883555D01*
X12651305Y-13874031D01*
X12832257Y-14102603D02*
X12717971Y-14102603D01*
X12775114Y-14102603D02*
X12775114Y-13902603D01*
X12756067Y-13931174D01*
X12737019Y-13950222D01*
X12717971Y-13959746D01*
X13070352Y-14102603D02*
X13070352Y-13902603D01*
X13156067Y-14102603D02*
X13156067Y-13997841D01*
X13146543Y-13978793D01*
X13127495Y-13969269D01*
X13098924Y-13969269D01*
X13079876Y-13978793D01*
X13070352Y-13988317D01*
X13279876Y-14102603D02*
X13260828Y-14093079D01*
X13251305Y-14083555D01*
X13241781Y-14064508D01*
X13241781Y-14007365D01*
X13251305Y-13988317D01*
X13260828Y-13978793D01*
X13279876Y-13969269D01*
X13308448Y-13969269D01*
X13327495Y-13978793D01*
X13337019Y-13988317D01*
X13346543Y-14007365D01*
X13346543Y-14064508D01*
X13337019Y-14083555D01*
X13327495Y-14093079D01*
X13308448Y-14102603D01*
X13279876Y-14102603D01*
X13460828Y-14102603D02*
X13441781Y-14093079D01*
X13432257Y-14074031D01*
X13432257Y-13902603D01*
X13613209Y-14093079D02*
X13594162Y-14102603D01*
X13556067Y-14102603D01*
X13537019Y-14093079D01*
X13527495Y-14074031D01*
X13527495Y-13997841D01*
X13537019Y-13978793D01*
X13556067Y-13969269D01*
X13594162Y-13969269D01*
X13613209Y-13978793D01*
X13622733Y-13997841D01*
X13622733Y-14016889D01*
X13527495Y-14035936D01*
X13689400Y-14178793D02*
X13698924Y-14169269D01*
X13717971Y-14140698D01*
X13727495Y-14121650D01*
X13737019Y-14093079D01*
X13746543Y-14045460D01*
X13746543Y-14007365D01*
X13737019Y-13959746D01*
X13727495Y-13931174D01*
X13717971Y-13912127D01*
X13698924Y-13883555D01*
X13689400Y-13874031D01*
X14051305Y-14178793D02*
X14041781Y-14169269D01*
X14022733Y-14140698D01*
X14013209Y-14121650D01*
X14003686Y-14093079D01*
X13994162Y-14045460D01*
X13994162Y-14007365D01*
X14003686Y-13959746D01*
X14013209Y-13931174D01*
X14022733Y-13912127D01*
X14041781Y-13883555D01*
X14051305Y-13874031D01*
X14127495Y-13969269D02*
X14127495Y-14102603D01*
X14127495Y-13988317D02*
X14137019Y-13978793D01*
X14156067Y-13969269D01*
X14184638Y-13969269D01*
X14203686Y-13978793D01*
X14213209Y-13997841D01*
X14213209Y-14102603D01*
X14337019Y-14102603D02*
X14317971Y-14093079D01*
X14308448Y-14083555D01*
X14298924Y-14064508D01*
X14298924Y-14007365D01*
X14308448Y-13988317D01*
X14317971Y-13978793D01*
X14337019Y-13969269D01*
X14365590Y-13969269D01*
X14384638Y-13978793D01*
X14394162Y-13988317D01*
X14403686Y-14007365D01*
X14403686Y-14064508D01*
X14394162Y-14083555D01*
X14384638Y-14093079D01*
X14365590Y-14102603D01*
X14337019Y-14102603D01*
X14460828Y-13969269D02*
X14537019Y-13969269D01*
X14489400Y-13902603D02*
X14489400Y-14074031D01*
X14498924Y-14093079D01*
X14517971Y-14102603D01*
X14537019Y-14102603D01*
X14756067Y-13969269D02*
X14756067Y-14169269D01*
X14756067Y-13978793D02*
X14775114Y-13969269D01*
X14813209Y-13969269D01*
X14832257Y-13978793D01*
X14841781Y-13988317D01*
X14851305Y-14007365D01*
X14851305Y-14064508D01*
X14841781Y-14083555D01*
X14832257Y-14093079D01*
X14813209Y-14102603D01*
X14775114Y-14102603D01*
X14756067Y-14093079D01*
X14965590Y-14102603D02*
X14946543Y-14093079D01*
X14937019Y-14074031D01*
X14937019Y-13902603D01*
X15127495Y-14102603D02*
X15127495Y-13997841D01*
X15117971Y-13978793D01*
X15098924Y-13969269D01*
X15060828Y-13969269D01*
X15041781Y-13978793D01*
X15127495Y-14093079D02*
X15108448Y-14102603D01*
X15060828Y-14102603D01*
X15041781Y-14093079D01*
X15032257Y-14074031D01*
X15032257Y-14054984D01*
X15041781Y-14035936D01*
X15060828Y-14026412D01*
X15108448Y-14026412D01*
X15127495Y-14016889D01*
X15194162Y-13969269D02*
X15270352Y-13969269D01*
X15222733Y-13902603D02*
X15222733Y-14074031D01*
X15232257Y-14093079D01*
X15251305Y-14102603D01*
X15270352Y-14102603D01*
X15413209Y-14093079D02*
X15394162Y-14102603D01*
X15356067Y-14102603D01*
X15337019Y-14093079D01*
X15327495Y-14074031D01*
X15327495Y-13997841D01*
X15337019Y-13978793D01*
X15356067Y-13969269D01*
X15394162Y-13969269D01*
X15413209Y-13978793D01*
X15422733Y-13997841D01*
X15422733Y-14016889D01*
X15327495Y-14035936D01*
X15594162Y-14102603D02*
X15594162Y-13902603D01*
X15594162Y-14093079D02*
X15575114Y-14102603D01*
X15537019Y-14102603D01*
X15517971Y-14093079D01*
X15508448Y-14083555D01*
X15498924Y-14064508D01*
X15498924Y-14007365D01*
X15508448Y-13988317D01*
X15517971Y-13978793D01*
X15537019Y-13969269D01*
X15575114Y-13969269D01*
X15594162Y-13978793D01*
X15670352Y-14178793D02*
X15679876Y-14169269D01*
X15698924Y-14140698D01*
X15708448Y-14121650D01*
X15717971Y-14093079D01*
X15727495Y-14045460D01*
X15727495Y-14007365D01*
X15717971Y-13959746D01*
X15708448Y-13931174D01*
X15698924Y-13912127D01*
X15679876Y-13883555D01*
X15670352Y-13874031D01*
M02*
