M48
; DRILL file {KiCad (6.0.0)} date Sun Nov 20 23:13:50 2022
; FORMAT={-:-/ absolute / metric / decimal}
; #@! TF.CreationDate,2022-11-20T23:13:50-05:00
; #@! TF.GenerationSoftware,Kicad,Pcbnew,(6.0.0)
; #@! TF.FileFunction,Plated,1,2,PTH
FMAT,2
METRIC
; #@! TA.AperFunction,Plated,PTH,ViaDrill
T1C0.400
; #@! TA.AperFunction,Plated,PTH,ComponentDrill
T2C0.800
; #@! TA.AperFunction,Plated,PTH,ComponentDrill
T3C0.950
; #@! TA.AperFunction,Plated,PTH,ComponentDrill
T4C1.000
; #@! TA.AperFunction,Plated,PTH,ComponentDrill
T5C1.100
; #@! TA.AperFunction,Plated,PTH,ComponentDrill
T6C1.300
%
G90
G05
T1
X96.012Y-100.139
X98.552Y-97.536
X98.552Y-100.076
X98.584Y-85.566
X99.314Y-87.122
X99.314Y-91.186
X99.314Y-92.71
X101.6Y-82.804
X104.902Y-85.598
X105.41Y-91.186
X105.664Y-86.36
X105.918Y-93.218
X106.426Y-87.884
X106.712Y-85.566
X107.005Y-93.655
X107.035Y-92.355
X109.728Y-82.55
X110.236Y-89.408
X112.014Y-89.154
X112.522Y-85.598
X115.062Y-117.348
X121.92Y-82.804
X123.444Y-117.348
X124.714Y-101.092
X124.714Y-103.632
X126.238Y-90.424
X128.27Y-90.678
X129.286Y-81.788
X130.556Y-90.678
X131.572Y-114.3
X131.826Y-81.788
X132.08Y-117.602
X132.842Y-90.678
X134.366Y-81.788
X134.62Y-112.522
X136.144Y-92.202
X136.906Y-84.328
X137.875Y-115.617
X138.684Y-107.95
X139.192Y-118.11
X139.954Y-90.678
X140.716Y-111.252
X143.256Y-90.424
X145.288Y-101.092
X146.304Y-117.602
X148.645Y-90.115
X150.622Y-101.6
X150.926Y-119.584
X154.94Y-90.17
X155.448Y-101.092
X156.718Y-117.602
X160.02Y-90.17
X161.29Y-101.854
X162.306Y-117.602
X165.862Y-90.424
X166.624Y-101.6
X169.672Y-117.602
X170.942Y-90.678
X171.45Y-101.6
X176.53Y-101.6
X178.308Y-118.364
X178.562Y-114.3
X181.737Y-111.125
X182.118Y-101.854
X185.136Y-115.6
X185.42Y-118.11
X186.182Y-106.426
X186.436Y-109.728
X187.198Y-101.6
X192.278Y-101.6
X197.358Y-101.6
X200.152Y-106.426
X200.152Y-112.014
T2
X104.394Y-109.913
X104.394Y-113.413
X150.876Y-109.913
X150.876Y-113.413
T3
X133.664Y-125.459
X136.164Y-125.459
X138.664Y-125.459
X141.164Y-125.459
X178.876Y-125.222
X181.376Y-125.222
X183.876Y-125.222
X186.376Y-125.222
T4
X94.742Y-105.156
X94.742Y-107.696
X94.742Y-110.236
X94.742Y-112.776
X110.231Y-114.317
X111.501Y-109.237
X112.771Y-114.317
X114.041Y-109.237
X115.311Y-114.317
X115.57Y-84.836
X116.581Y-109.237
X117.851Y-114.317
X118.11Y-84.836
X119.121Y-109.237
X120.391Y-114.317
X120.65Y-84.836
X121.661Y-109.237
X122.931Y-114.317
X123.19Y-84.836
X124.201Y-109.237
X125.471Y-114.317
X126.741Y-109.237
X128.011Y-114.317
X156.972Y-114.3
X158.242Y-109.22
X159.512Y-114.3
X160.782Y-109.22
X162.052Y-114.3
X163.322Y-109.22
X164.592Y-114.3
X165.862Y-109.22
X167.132Y-114.3
X168.402Y-109.22
X169.672Y-114.3
X170.942Y-109.22
X172.212Y-114.3
X173.482Y-109.22
X174.752Y-114.3
T5
X192.278Y-108.458
X192.278Y-110.998
X192.278Y-113.538
T6
X108.364Y-125.44
X113.364Y-125.44
X118.364Y-125.44
X123.364Y-125.44
X153.703Y-125.313
X158.703Y-125.313
X163.703Y-125.313
X168.703Y-125.313
X197.946Y-125.313
X202.946Y-125.313
T0
M30
